%TF.GenerationSoftware,KiCad,Pcbnew,10.0.6*%
%TF.CreationDate,2026-10-05T07:36:54+02:00*%
%TF.ProjectId,MAO_MAIN_A0,4d414f5f-4d41-4494-9e5f-41302e6b6963,A0*%
%TF.SameCoordinates,Original*%
%TF.FileFunction,Copper,L2,Inr*%
%TF.FilePolarity,Positive*%
%FSLAX46Y46*%
G04 Gerber Fmt 4.6, Leading zero omitted, Abs format (unit mm)*
G04 Created by KiCad (PCBNEW 10.0.6) date 2026-10-05 07:36:54*
%MOMM*%
%LPD*%
G01*
G04 APERTURE LIST*
%TA.AperFunction,ComponentPad*%
%ADD10C,0.600000*%
%TD*%
%TA.AperFunction,HeatsinkPad*%
%ADD11C,0.500000*%
%TD*%
%TA.AperFunction,ComponentPad*%
%ADD12O,1.000000X1.600000*%
%TD*%
%TA.AperFunction,ComponentPad*%
%ADD13O,1.000000X2.100000*%
%TD*%
%TA.AperFunction,HeatsinkPad*%
%ADD14C,0.600000*%
%TD*%
%TA.AperFunction,ViaPad*%
%ADD15C,0.600000*%
%TD*%
%TA.AperFunction,ViaPad*%
%ADD16C,0.500000*%
%TD*%
G04 APERTURE END LIST*
D10*
%TO.N,TOUCH_RIGHT_E*%
%TO.C,E302*%
X75497557Y-39698319D03*
X75497557Y-60301681D03*
%TD*%
D11*
%TO.N,GND*%
%TO.C,U102*%
X60000000Y-38815000D03*
X60000000Y-37635000D03*
X58820000Y-38815000D03*
X58820000Y-37635000D03*
%TD*%
D10*
%TO.N,TOUCH_LEFT_E*%
%TO.C,E301*%
X24502443Y-60301681D03*
X24502443Y-39698319D03*
%TD*%
D12*
%TO.N,GND*%
%TO.C,J101*%
X45680000Y-23000000D03*
D13*
X45680000Y-27180000D03*
D12*
X54320000Y-23000000D03*
D13*
X54320000Y-27180000D03*
%TD*%
D11*
%TO.N,GND*%
%TO.C,U202*%
X40525000Y-36425000D03*
X40525000Y-37375000D03*
X41475000Y-36425000D03*
X41475000Y-37375000D03*
%TD*%
D14*
%TO.N,GND*%
%TO.C,U201*%
X47100000Y-62790000D03*
X47100000Y-64190000D03*
X47800000Y-62090000D03*
X47800000Y-63490000D03*
X47800000Y-64890000D03*
X48500000Y-62790000D03*
X48500000Y-64190000D03*
X49200000Y-62090000D03*
X49200000Y-63490000D03*
X49200000Y-64890000D03*
X49900000Y-62790000D03*
X49900000Y-64190000D03*
%TD*%
D11*
%TO.N,GND*%
%TO.C,U501*%
X35235000Y-40935000D03*
X35235000Y-41665000D03*
X35965000Y-40935000D03*
X35965000Y-41665000D03*
%TD*%
D15*
%TO.N,VBAT*%
X63650000Y-37150000D03*
X62875000Y-37150000D03*
%TO.N,GND*%
X36350000Y-43750000D03*
D16*
X37700000Y-54250000D03*
D15*
X38262000Y-33530000D03*
X71550500Y-52616697D03*
X72070000Y-63860000D03*
X54600000Y-49350000D03*
X70260000Y-45800000D03*
X58660000Y-42500000D03*
X49676597Y-46700500D03*
X55300000Y-34820000D03*
X71200000Y-44285000D03*
X72500396Y-60259604D03*
X53900000Y-44180000D03*
X33550000Y-63800000D03*
X31000000Y-57300000D03*
D16*
X49500000Y-33400000D03*
D15*
X43750000Y-46637500D03*
X74375000Y-45100000D03*
D16*
X37700000Y-47750000D03*
D15*
X36400000Y-27941000D03*
X63600000Y-68870000D03*
X37975284Y-32297155D03*
X43750000Y-48562500D03*
X62150000Y-27817000D03*
X49660000Y-40550000D03*
X55250000Y-36625000D03*
X73300000Y-57620000D03*
X34825000Y-70150000D03*
X56100000Y-31750000D03*
X34250000Y-60000000D03*
D16*
X37700000Y-49750000D03*
D15*
X57200000Y-44300000D03*
X62076104Y-34063604D03*
X72798000Y-41198000D03*
X40080000Y-53100000D03*
X35600000Y-58020000D03*
X58650000Y-28437500D03*
X56100000Y-29300000D03*
X60420856Y-42680856D03*
X69500000Y-66032000D03*
X58203000Y-31282000D03*
X41050000Y-44278000D03*
X54000000Y-42800000D03*
X51792894Y-42717106D03*
X53520000Y-59250000D03*
X63270000Y-55570000D03*
X51100000Y-56250000D03*
X65375000Y-38220000D03*
X69485076Y-56665076D03*
X61337667Y-62610500D03*
X37200000Y-67820000D03*
X67850000Y-50030000D03*
X40050000Y-46637500D03*
X42400716Y-30794845D03*
X39110759Y-30424049D03*
X65175000Y-32100000D03*
D16*
X53250000Y-39350000D03*
D15*
X35200000Y-35820000D03*
X30300000Y-38800000D03*
X36382106Y-35892894D03*
X27600000Y-60100000D03*
%TO.N,+3V3*%
X47700000Y-37150000D03*
D16*
X60150000Y-35810000D03*
D15*
X60400000Y-51840000D03*
X63988000Y-33500000D03*
D16*
X58400000Y-34100000D03*
D15*
X50430000Y-37350000D03*
X37600000Y-71000000D03*
X56200000Y-59250000D03*
X39150861Y-35303513D03*
X59569000Y-30061000D03*
X36920000Y-37150000D03*
X70004000Y-60896000D03*
X66900000Y-67600000D03*
X62600000Y-52920000D03*
X42100000Y-39800000D03*
X50500000Y-42010000D03*
X38399707Y-30790796D03*
X74372170Y-63320994D03*
X50820000Y-59250000D03*
X48890000Y-37350000D03*
X58800000Y-45550000D03*
X68517000Y-63421000D03*
X72850934Y-65712279D03*
X44700000Y-32800000D03*
X36651000Y-33704000D03*
D16*
%TO.N,TOUCH_REAR*%
X39900000Y-64860000D03*
%TO.N,TOUCH_REAR_E*%
X29100000Y-42100000D03*
%TO.N,3V3_LCD*%
X37600000Y-53250000D03*
D15*
X41700000Y-42300000D03*
%TO.N,VBUS*%
X53200000Y-31800000D03*
X47550000Y-29450000D03*
D16*
%TO.N,AMP_SD_N*%
X37850000Y-36150000D03*
%TO.N,AMP_SD*%
X33400000Y-40550000D03*
%TO.N,USB_DP*%
X49750000Y-29250000D03*
X42400000Y-54700000D03*
X50750000Y-29250000D03*
%TO.N,USB_DN*%
X42400000Y-55970000D03*
X51200000Y-30600000D03*
D15*
%TO.N,TOUCH_RIGHT_E*%
X73250000Y-41900000D03*
D16*
X62650000Y-69600000D03*
D15*
%TO.N,BAT_NTC*%
X69700000Y-42975000D03*
D16*
%TO.N,CHG_CE_N*%
X43450000Y-36150000D03*
%TO.N,USB_PRESENT_N*%
X52200000Y-44250000D03*
X41750000Y-53450000D03*
X59900000Y-34600000D03*
%TO.N,VSYS*%
X36100000Y-39150000D03*
X57050000Y-38450000D03*
D15*
X33000000Y-58900000D03*
X56630000Y-27700000D03*
D16*
X40100000Y-48100000D03*
D15*
X37550000Y-27900000D03*
D16*
X57050000Y-37550000D03*
X41100000Y-45238000D03*
D15*
X62000000Y-30700000D03*
D16*
%TO.N,TOUCH_TOP*%
X39900000Y-66130000D03*
%TO.N,TOF_XSHUT*%
X43590000Y-29280000D03*
D15*
%TO.N,TOF_INT_N*%
X71950000Y-35450000D03*
X61350000Y-26700000D03*
D16*
X55715000Y-52000000D03*
%TO.N,I2C_SDA*%
X57400000Y-49000000D03*
X39500000Y-63590000D03*
D15*
X62150000Y-42000000D03*
X55000000Y-50300000D03*
D16*
X40940000Y-32960000D03*
X42550000Y-38900000D03*
X65450000Y-36200000D03*
D15*
%TO.N,I2C_SCL*%
X46150000Y-38500000D03*
X60950000Y-36200000D03*
D16*
X57100000Y-47300000D03*
D15*
X46000000Y-54750000D03*
D16*
X44150000Y-37650000D03*
X66100000Y-35200000D03*
X38800000Y-62320000D03*
X40240000Y-33330000D03*
X53450000Y-55000000D03*
%TO.N,TOUCH_LEFT*%
X39900000Y-67400000D03*
D15*
%TO.N,IR_RX_PWR*%
X48250000Y-44850000D03*
X46000000Y-34700000D03*
X46900000Y-39400000D03*
X54750000Y-44800000D03*
D16*
X41750000Y-34550000D03*
X73350000Y-56750000D03*
D15*
%TO.N,IR_RX_VCC*%
X72350000Y-51900000D03*
D16*
%TO.N,LCD_PWR_EN*%
X38550000Y-36650000D03*
%TO.N,IMU_INT1*%
X51905000Y-52000000D03*
%TO.N,IMU_INT2*%
X54445000Y-52000000D03*
D15*
%TO.N,PRESS_N*%
X61450000Y-65500000D03*
D16*
X66900000Y-66330000D03*
D15*
X57500000Y-54700000D03*
D16*
X61200000Y-53760000D03*
%TO.N,IR_RX*%
X60250000Y-62320000D03*
D15*
X66250000Y-56200000D03*
X73550000Y-54400000D03*
D16*
%TO.N,HALL_B*%
X60250000Y-64860000D03*
D15*
X67350000Y-64400000D03*
D16*
%TO.N,HALL_FAST*%
X60250000Y-68670000D03*
X71400000Y-66700000D03*
X73720000Y-64150000D03*
D15*
%TO.N,HALL_A*%
X71250000Y-62550000D03*
D16*
%TO.N,SENSE_ALRT_N*%
X61850000Y-31710000D03*
%TO.N,EXP_RST_N*%
X54800000Y-48500000D03*
D15*
X63650000Y-54850000D03*
D16*
X58800000Y-49300000D03*
X60950000Y-61050000D03*
D15*
%TO.N,IR_LED_K*%
X59600000Y-26400000D03*
X42400000Y-24800000D03*
D16*
%TO.N,LCD_RST_N*%
X37850000Y-37150000D03*
D15*
X37750000Y-34250000D03*
%TO.N,HAPTIC_EN*%
X32800000Y-37150000D03*
D16*
X34900000Y-65200000D03*
X40250000Y-34550000D03*
D15*
X34900000Y-60900000D03*
%TO.N,EXP_INT_N*%
X45620000Y-35450000D03*
D16*
X43450000Y-37150000D03*
D15*
X51550000Y-50450000D03*
D16*
%TO.N,MCU_EN*%
X37100000Y-68800000D03*
D15*
X67150000Y-52850000D03*
X62050000Y-68100000D03*
X66600000Y-69500000D03*
D16*
%TO.N,IR_TX*%
X60250000Y-59780000D03*
D15*
X60150000Y-46150000D03*
D16*
X59530000Y-32450000D03*
D15*
%TO.N,MIC_PWR*%
X62000000Y-56400000D03*
X62300000Y-59300000D03*
%TO.N,BOARD_ID*%
X57600000Y-36550000D03*
X60200000Y-33900000D03*
X34800000Y-58000000D03*
X56750000Y-33450000D03*
D16*
X39700000Y-57240000D03*
%TD*%
%TA.AperFunction,Conductor*%
%TO.N,GND*%
G36*
X50992921Y-21517331D02*
G01*
X50996370Y-21517451D01*
X51986360Y-21569334D01*
X51989751Y-21569572D01*
X52977373Y-21655977D01*
X52980728Y-21656329D01*
X53964749Y-21777153D01*
X53968111Y-21777625D01*
X54947291Y-21932712D01*
X54950641Y-21933303D01*
X55923818Y-22122469D01*
X55927111Y-22123169D01*
X56893101Y-22346184D01*
X56896431Y-22347015D01*
X57854045Y-22603607D01*
X57857288Y-22604537D01*
X58798107Y-22892175D01*
X58805339Y-22894386D01*
X58808625Y-22895454D01*
X59745944Y-23218199D01*
X59749191Y-23219381D01*
X59988115Y-23311095D01*
X60674702Y-23574651D01*
X60677825Y-23575912D01*
X61590456Y-23963301D01*
X61593526Y-23964668D01*
X62492035Y-24383650D01*
X62495052Y-24385120D01*
X63371833Y-24831863D01*
X63378416Y-24835217D01*
X63381467Y-24836840D01*
X64248466Y-25317425D01*
X64251459Y-25319152D01*
X65101241Y-25829753D01*
X65104171Y-25831585D01*
X65935558Y-26371494D01*
X65938384Y-26373400D01*
X66252271Y-26593186D01*
X66750455Y-26942018D01*
X66753251Y-26944049D01*
X67544981Y-27540660D01*
X67547704Y-27542788D01*
X68318101Y-28166644D01*
X68320748Y-28168865D01*
X69068914Y-28819235D01*
X69071482Y-28821547D01*
X69796488Y-29497626D01*
X69798974Y-29500026D01*
X70499972Y-30201024D01*
X70502372Y-30203510D01*
X71178451Y-30928516D01*
X71180763Y-30931084D01*
X71831133Y-31679250D01*
X71833354Y-31681897D01*
X72457210Y-32452294D01*
X72459338Y-32455017D01*
X73055949Y-33246747D01*
X73057980Y-33249543D01*
X73330057Y-33638109D01*
X73622428Y-34055659D01*
X73626585Y-34061595D01*
X73628517Y-34064460D01*
X74168413Y-34895827D01*
X74170245Y-34898757D01*
X74680846Y-35748540D01*
X74682573Y-35751533D01*
X75115163Y-36531946D01*
X75126838Y-36592007D01*
X75100980Y-36647460D01*
X75075054Y-36667354D01*
X72426867Y-38075421D01*
X72426867Y-38075422D01*
X72892848Y-38996574D01*
X72894594Y-39000207D01*
X73321851Y-39937735D01*
X73323448Y-39941437D01*
X73424515Y-40189507D01*
X73684080Y-40826613D01*
X73712180Y-40895583D01*
X73713621Y-40899336D01*
X73750109Y-41000500D01*
X74063191Y-41868535D01*
X74064481Y-41872354D01*
X74374294Y-42854955D01*
X74375428Y-42858824D01*
X74644985Y-43853245D01*
X74645960Y-43857157D01*
X74874804Y-44861711D01*
X74875619Y-44865659D01*
X75063373Y-45878692D01*
X75064027Y-45882670D01*
X75210386Y-46902528D01*
X75210877Y-46906529D01*
X75315591Y-47931483D01*
X75315919Y-47935501D01*
X75378817Y-48963877D01*
X75378981Y-48967905D01*
X75399958Y-49997983D01*
X75399958Y-50002015D01*
X75378981Y-51032093D01*
X75378817Y-51036121D01*
X75315919Y-52064497D01*
X75315591Y-52068515D01*
X75210877Y-53093469D01*
X75210386Y-53097470D01*
X75064027Y-54117328D01*
X75063373Y-54121306D01*
X74875619Y-55134339D01*
X74874804Y-55138287D01*
X74645960Y-56142841D01*
X74644985Y-56146753D01*
X74375428Y-57141174D01*
X74374294Y-57145043D01*
X74064481Y-58127644D01*
X74063191Y-58131463D01*
X73713625Y-59100651D01*
X73712180Y-59104415D01*
X73323448Y-60058561D01*
X73321851Y-60062263D01*
X72894594Y-60999791D01*
X72892848Y-61003424D01*
X72426867Y-61924576D01*
X72426867Y-61924577D01*
X73059008Y-62260692D01*
X74028324Y-62776086D01*
X74070826Y-62820098D01*
X74079341Y-62880688D01*
X74051849Y-62933500D01*
X73971670Y-63013679D01*
X73971666Y-63013684D01*
X73905779Y-63127803D01*
X73905778Y-63127808D01*
X73871670Y-63255102D01*
X73871670Y-63386886D01*
X73905778Y-63514180D01*
X73905779Y-63514182D01*
X73935995Y-63566517D01*
X73948717Y-63626366D01*
X73923831Y-63682261D01*
X73870843Y-63712854D01*
X73824637Y-63711645D01*
X73792197Y-63702953D01*
X73779309Y-63699500D01*
X73660691Y-63699500D01*
X73590567Y-63718289D01*
X73546109Y-63730202D01*
X73443391Y-63789507D01*
X73359507Y-63873391D01*
X73300202Y-63976109D01*
X73291175Y-64009799D01*
X73269500Y-64090691D01*
X73269500Y-64209309D01*
X73279137Y-64245273D01*
X73300202Y-64323890D01*
X73359507Y-64426608D01*
X73359509Y-64426610D01*
X73359511Y-64426613D01*
X73443387Y-64510489D01*
X73443389Y-64510490D01*
X73443391Y-64510492D01*
X73546110Y-64569797D01*
X73546111Y-64569797D01*
X73546114Y-64569799D01*
X73660691Y-64600500D01*
X73660693Y-64600500D01*
X73779307Y-64600500D01*
X73779309Y-64600500D01*
X73893886Y-64569799D01*
X73893888Y-64569797D01*
X73893890Y-64569797D01*
X73996608Y-64510492D01*
X73996608Y-64510491D01*
X73996613Y-64510489D01*
X74080489Y-64426613D01*
X74096385Y-64399080D01*
X74139797Y-64323890D01*
X74139797Y-64323888D01*
X74139799Y-64323886D01*
X74170500Y-64209309D01*
X74170500Y-64090691D01*
X74139799Y-63976114D01*
X74139797Y-63976111D01*
X74139797Y-63976109D01*
X74123228Y-63947411D01*
X74110506Y-63887563D01*
X74135392Y-63831667D01*
X74188380Y-63801074D01*
X74234584Y-63802283D01*
X74306278Y-63821494D01*
X74306280Y-63821494D01*
X74438060Y-63821494D01*
X74438062Y-63821494D01*
X74565356Y-63787386D01*
X74565358Y-63787384D01*
X74565360Y-63787384D01*
X74679479Y-63721497D01*
X74679479Y-63721496D01*
X74679484Y-63721494D01*
X74772670Y-63628308D01*
X74829029Y-63530692D01*
X74838560Y-63514184D01*
X74838560Y-63514182D01*
X74838562Y-63514180D01*
X74872670Y-63386886D01*
X74872670Y-63386883D01*
X74873517Y-63380452D01*
X74875616Y-63380728D01*
X74891577Y-63331605D01*
X74941077Y-63295641D01*
X75002263Y-63295641D01*
X75018143Y-63302382D01*
X75050649Y-63319666D01*
X75075056Y-63332644D01*
X75117558Y-63376657D01*
X75126073Y-63437248D01*
X75115164Y-63468051D01*
X74682573Y-64248466D01*
X74680846Y-64251459D01*
X74170245Y-65101241D01*
X74168413Y-65104171D01*
X73628517Y-65935538D01*
X73626585Y-65938403D01*
X73057980Y-66750455D01*
X73055949Y-66753251D01*
X72459338Y-67544981D01*
X72457210Y-67547704D01*
X71833354Y-68318101D01*
X71831133Y-68320748D01*
X71180763Y-69068914D01*
X71178451Y-69071482D01*
X70502372Y-69796488D01*
X70499972Y-69798974D01*
X69798974Y-70499972D01*
X69796488Y-70502372D01*
X69071482Y-71178451D01*
X69068914Y-71180763D01*
X68320748Y-71831133D01*
X68318101Y-71833354D01*
X67547704Y-72457210D01*
X67544981Y-72459338D01*
X67316392Y-72631593D01*
X67279769Y-72659191D01*
X67252068Y-72680065D01*
X67194216Y-72699985D01*
X67192488Y-72700000D01*
X65099000Y-72700000D01*
X65040809Y-72681093D01*
X65004845Y-72631593D01*
X65000000Y-72601000D01*
X65000000Y-72100001D01*
X65000000Y-72100000D01*
X35000000Y-72100000D01*
X35000000Y-72100001D01*
X35000000Y-72601000D01*
X34981093Y-72659191D01*
X34931593Y-72695155D01*
X34901000Y-72700000D01*
X32807563Y-72700000D01*
X32749372Y-72681093D01*
X32747999Y-72680076D01*
X32621832Y-72584953D01*
X32449392Y-72454942D01*
X32446670Y-72452814D01*
X31680749Y-71832266D01*
X31676408Y-71828749D01*
X31673794Y-71826555D01*
X30925739Y-71175951D01*
X30923218Y-71173680D01*
X30666438Y-70934108D01*
X37099500Y-70934108D01*
X37099500Y-71065892D01*
X37128381Y-71173680D01*
X37133609Y-71193190D01*
X37199496Y-71307309D01*
X37199498Y-71307311D01*
X37199500Y-71307314D01*
X37292686Y-71400500D01*
X37292688Y-71400501D01*
X37292690Y-71400503D01*
X37406810Y-71466390D01*
X37406808Y-71466390D01*
X37406812Y-71466391D01*
X37406814Y-71466392D01*
X37534108Y-71500500D01*
X37534110Y-71500500D01*
X37665890Y-71500500D01*
X37665892Y-71500500D01*
X37793186Y-71466392D01*
X37793188Y-71466390D01*
X37793190Y-71466390D01*
X37907309Y-71400503D01*
X37907309Y-71400502D01*
X37907314Y-71400500D01*
X38000500Y-71307314D01*
X38066392Y-71193186D01*
X38100500Y-71065892D01*
X38100500Y-70934108D01*
X38066392Y-70806814D01*
X38066390Y-70806811D01*
X38066390Y-70806809D01*
X38000503Y-70692690D01*
X38000501Y-70692688D01*
X38000500Y-70692686D01*
X37907314Y-70599500D01*
X37907311Y-70599498D01*
X37907309Y-70599496D01*
X37793189Y-70533609D01*
X37793191Y-70533609D01*
X37743799Y-70520375D01*
X37665892Y-70499500D01*
X37534108Y-70499500D01*
X37456200Y-70520375D01*
X37406809Y-70533609D01*
X37292690Y-70599496D01*
X37199496Y-70692690D01*
X37133609Y-70806809D01*
X37120123Y-70857140D01*
X37099500Y-70934108D01*
X30666438Y-70934108D01*
X30407679Y-70692690D01*
X30198358Y-70497396D01*
X30195873Y-70494995D01*
X29844333Y-70143279D01*
X29767635Y-70066542D01*
X64454200Y-70066542D01*
X64454200Y-70213457D01*
X64482860Y-70357541D01*
X64482860Y-70357543D01*
X64539078Y-70493266D01*
X64539078Y-70493267D01*
X64545162Y-70502372D01*
X64620699Y-70615420D01*
X64724580Y-70719301D01*
X64846731Y-70800920D01*
X64982458Y-70857140D01*
X65126545Y-70885800D01*
X65126547Y-70885800D01*
X65273453Y-70885800D01*
X65273455Y-70885800D01*
X65417542Y-70857140D01*
X65553269Y-70800920D01*
X65675420Y-70719301D01*
X65779301Y-70615420D01*
X65860920Y-70493269D01*
X65917140Y-70357542D01*
X65945800Y-70213455D01*
X65945800Y-70066545D01*
X65917140Y-69922458D01*
X65865991Y-69798974D01*
X65860921Y-69786733D01*
X65860921Y-69786732D01*
X65840585Y-69756298D01*
X65779301Y-69664580D01*
X65675420Y-69560699D01*
X65553269Y-69479080D01*
X65553268Y-69479079D01*
X65553266Y-69479078D01*
X65444697Y-69434108D01*
X66099500Y-69434108D01*
X66099500Y-69565892D01*
X66124530Y-69659307D01*
X66133609Y-69693190D01*
X66199496Y-69807309D01*
X66199498Y-69807311D01*
X66199500Y-69807314D01*
X66292686Y-69900500D01*
X66292688Y-69900501D01*
X66292690Y-69900503D01*
X66406810Y-69966390D01*
X66406808Y-69966390D01*
X66406812Y-69966391D01*
X66406814Y-69966392D01*
X66534108Y-70000500D01*
X66534110Y-70000500D01*
X66665890Y-70000500D01*
X66665892Y-70000500D01*
X66793186Y-69966392D01*
X66793188Y-69966390D01*
X66793190Y-69966390D01*
X66907309Y-69900503D01*
X66907309Y-69900502D01*
X66907314Y-69900500D01*
X67000500Y-69807314D01*
X67005315Y-69798974D01*
X67066390Y-69693190D01*
X67066390Y-69693188D01*
X67066392Y-69693186D01*
X67100500Y-69565892D01*
X67100500Y-69434108D01*
X67066392Y-69306814D01*
X67066390Y-69306811D01*
X67066390Y-69306809D01*
X67000503Y-69192690D01*
X67000501Y-69192688D01*
X67000500Y-69192686D01*
X66907314Y-69099500D01*
X66907311Y-69099498D01*
X66907309Y-69099496D01*
X66793189Y-69033609D01*
X66793191Y-69033609D01*
X66743799Y-69020375D01*
X66665892Y-68999500D01*
X66534108Y-68999500D01*
X66456200Y-69020375D01*
X66406809Y-69033609D01*
X66292690Y-69099496D01*
X66199496Y-69192690D01*
X66133609Y-69306809D01*
X66133608Y-69306814D01*
X66099500Y-69434108D01*
X65444697Y-69434108D01*
X65417542Y-69422860D01*
X65273457Y-69394200D01*
X65273455Y-69394200D01*
X65126545Y-69394200D01*
X65126542Y-69394200D01*
X64982458Y-69422860D01*
X64982456Y-69422860D01*
X64846733Y-69479078D01*
X64846732Y-69479078D01*
X64724580Y-69560699D01*
X64724576Y-69560702D01*
X64620702Y-69664576D01*
X64620699Y-69664580D01*
X64539078Y-69786732D01*
X64539078Y-69786733D01*
X64482860Y-69922456D01*
X64482860Y-69922458D01*
X64454200Y-70066542D01*
X29767635Y-70066542D01*
X29495069Y-69793839D01*
X29492680Y-69791365D01*
X29476392Y-69773890D01*
X28816766Y-69066171D01*
X28814458Y-69063606D01*
X28164262Y-68315263D01*
X28162060Y-68312638D01*
X27648135Y-67677668D01*
X30022330Y-67677668D01*
X30022330Y-67677669D01*
X30097705Y-68250202D01*
X30100701Y-68272953D01*
X30150588Y-68393391D01*
X30294444Y-68740691D01*
X30330472Y-68827669D01*
X30515585Y-69068914D01*
X30654920Y-69250500D01*
X30695984Y-69304015D01*
X31172330Y-69669527D01*
X31727046Y-69899298D01*
X32173509Y-69958076D01*
X32322329Y-69977669D01*
X32322330Y-69977669D01*
X32322331Y-69977669D01*
X32452824Y-69960489D01*
X32917614Y-69899298D01*
X33472330Y-69669527D01*
X33640233Y-69540691D01*
X62199500Y-69540691D01*
X62199500Y-69659309D01*
X62226574Y-69760351D01*
X62230202Y-69773890D01*
X62289507Y-69876608D01*
X62289509Y-69876610D01*
X62289511Y-69876613D01*
X62373387Y-69960489D01*
X62373389Y-69960490D01*
X62373391Y-69960492D01*
X62476110Y-70019797D01*
X62476111Y-70019797D01*
X62476114Y-70019799D01*
X62590691Y-70050500D01*
X62590693Y-70050500D01*
X62709307Y-70050500D01*
X62709309Y-70050500D01*
X62823886Y-70019799D01*
X62926613Y-69960489D01*
X63010489Y-69876613D01*
X63050502Y-69807309D01*
X63069797Y-69773890D01*
X63069797Y-69773888D01*
X63069799Y-69773886D01*
X63100500Y-69659309D01*
X63100500Y-69540691D01*
X63069799Y-69426114D01*
X63069797Y-69426111D01*
X63069797Y-69426109D01*
X63010492Y-69323391D01*
X63010490Y-69323389D01*
X63010489Y-69323387D01*
X62926613Y-69239511D01*
X62926610Y-69239509D01*
X62926608Y-69239507D01*
X62823889Y-69180202D01*
X62823890Y-69180202D01*
X62810351Y-69176574D01*
X62709309Y-69149500D01*
X62590691Y-69149500D01*
X62549669Y-69160492D01*
X62476109Y-69180202D01*
X62373391Y-69239507D01*
X62289507Y-69323391D01*
X62230202Y-69426109D01*
X62222284Y-69455660D01*
X62199500Y-69540691D01*
X33640233Y-69540691D01*
X33948676Y-69304015D01*
X34314188Y-68827669D01*
X34350215Y-68740692D01*
X34350215Y-68740691D01*
X36649500Y-68740691D01*
X36649500Y-68859309D01*
X36672892Y-68946608D01*
X36680202Y-68973890D01*
X36739507Y-69076608D01*
X36739509Y-69076610D01*
X36739511Y-69076613D01*
X36823387Y-69160489D01*
X36823389Y-69160490D01*
X36823391Y-69160492D01*
X36926110Y-69219797D01*
X36926111Y-69219797D01*
X36926114Y-69219799D01*
X37040691Y-69250500D01*
X37040693Y-69250500D01*
X37159307Y-69250500D01*
X37159309Y-69250500D01*
X37273886Y-69219799D01*
X37273888Y-69219797D01*
X37273890Y-69219797D01*
X37376608Y-69160492D01*
X37376608Y-69160491D01*
X37376613Y-69160489D01*
X37460489Y-69076613D01*
X37460492Y-69076608D01*
X37519797Y-68973890D01*
X37519797Y-68973888D01*
X37519799Y-68973886D01*
X37550500Y-68859309D01*
X37550500Y-68740691D01*
X37519799Y-68626114D01*
X37510895Y-68610692D01*
X37510894Y-68610691D01*
X59799500Y-68610691D01*
X59799500Y-68729309D01*
X59825855Y-68827666D01*
X59830202Y-68843890D01*
X59889507Y-68946608D01*
X59889509Y-68946610D01*
X59889511Y-68946613D01*
X59973387Y-69030489D01*
X59973389Y-69030490D01*
X59973391Y-69030492D01*
X60076110Y-69089797D01*
X60076111Y-69089797D01*
X60076114Y-69089799D01*
X60190691Y-69120500D01*
X60190693Y-69120500D01*
X60309307Y-69120500D01*
X60309309Y-69120500D01*
X60423886Y-69089799D01*
X60423888Y-69089797D01*
X60423890Y-69089797D01*
X60526608Y-69030492D01*
X60526608Y-69030491D01*
X60526613Y-69030489D01*
X60610489Y-68946613D01*
X60610492Y-68946608D01*
X60669797Y-68843890D01*
X60669797Y-68843888D01*
X60669799Y-68843886D01*
X60700500Y-68729309D01*
X60700500Y-68610691D01*
X60669799Y-68496114D01*
X60669797Y-68496111D01*
X60669797Y-68496109D01*
X60610492Y-68393391D01*
X60610490Y-68393389D01*
X60610489Y-68393387D01*
X60526613Y-68309511D01*
X60526610Y-68309509D01*
X60526608Y-68309507D01*
X60423889Y-68250202D01*
X60423890Y-68250202D01*
X60410351Y-68246574D01*
X60309309Y-68219500D01*
X60190691Y-68219500D01*
X60120567Y-68238289D01*
X60076109Y-68250202D01*
X59973391Y-68309507D01*
X59889507Y-68393391D01*
X59830202Y-68496109D01*
X59829025Y-68500503D01*
X59799500Y-68610691D01*
X37510894Y-68610691D01*
X37460492Y-68523391D01*
X37460490Y-68523389D01*
X37460489Y-68523387D01*
X37376613Y-68439511D01*
X37376610Y-68439509D01*
X37376608Y-68439507D01*
X37273889Y-68380202D01*
X37273890Y-68380202D01*
X37260351Y-68376574D01*
X37159309Y-68349500D01*
X37040691Y-68349500D01*
X36970567Y-68368289D01*
X36926109Y-68380202D01*
X36823391Y-68439507D01*
X36739507Y-68523391D01*
X36680202Y-68626109D01*
X36663037Y-68690169D01*
X36649500Y-68740691D01*
X34350215Y-68740691D01*
X34368596Y-68696317D01*
X34368596Y-68696316D01*
X34543959Y-68272953D01*
X34575404Y-68034108D01*
X61549500Y-68034108D01*
X61549500Y-68165892D01*
X61563864Y-68219500D01*
X61583609Y-68293190D01*
X61649496Y-68407309D01*
X61649498Y-68407311D01*
X61649500Y-68407314D01*
X61742686Y-68500500D01*
X61742688Y-68500501D01*
X61742690Y-68500503D01*
X61856810Y-68566390D01*
X61856808Y-68566390D01*
X61856812Y-68566391D01*
X61856814Y-68566392D01*
X61984108Y-68600500D01*
X61984110Y-68600500D01*
X62115890Y-68600500D01*
X62115892Y-68600500D01*
X62243186Y-68566392D01*
X62243188Y-68566390D01*
X62243190Y-68566390D01*
X62357309Y-68500503D01*
X62357309Y-68500502D01*
X62357314Y-68500500D01*
X62450500Y-68407314D01*
X62450503Y-68407309D01*
X62516390Y-68293190D01*
X62516390Y-68293188D01*
X62516392Y-68293186D01*
X62550500Y-68165892D01*
X62550500Y-68034108D01*
X62516392Y-67906814D01*
X62516390Y-67906811D01*
X62516390Y-67906809D01*
X62450503Y-67792690D01*
X62450501Y-67792688D01*
X62450500Y-67792686D01*
X62357314Y-67699500D01*
X62357311Y-67699498D01*
X62357309Y-67699496D01*
X62243189Y-67633609D01*
X62243191Y-67633609D01*
X62228722Y-67629732D01*
X62115892Y-67599500D01*
X61984108Y-67599500D01*
X61938185Y-67611805D01*
X61856809Y-67633609D01*
X61742690Y-67699496D01*
X61649496Y-67792690D01*
X61583609Y-67906809D01*
X61583608Y-67906814D01*
X61549500Y-68034108D01*
X34575404Y-68034108D01*
X34622330Y-67677669D01*
X34620779Y-67665890D01*
X34578813Y-67347124D01*
X34577966Y-67340691D01*
X39449500Y-67340691D01*
X39449500Y-67459309D01*
X39469543Y-67534109D01*
X39480202Y-67573890D01*
X39539507Y-67676608D01*
X39539509Y-67676610D01*
X39539511Y-67676613D01*
X39623387Y-67760489D01*
X39623389Y-67760490D01*
X39623391Y-67760492D01*
X39726110Y-67819797D01*
X39726111Y-67819797D01*
X39726114Y-67819799D01*
X39840691Y-67850500D01*
X39840693Y-67850500D01*
X39959307Y-67850500D01*
X39959309Y-67850500D01*
X40073886Y-67819799D01*
X40073888Y-67819797D01*
X40073890Y-67819797D01*
X40176608Y-67760492D01*
X40176608Y-67760491D01*
X40176613Y-67760489D01*
X40260489Y-67676613D01*
X40319799Y-67573886D01*
X40330458Y-67534108D01*
X66399500Y-67534108D01*
X66399500Y-67665892D01*
X66411082Y-67709117D01*
X66433609Y-67793190D01*
X66499496Y-67907309D01*
X66499498Y-67907311D01*
X66499500Y-67907314D01*
X66592686Y-68000500D01*
X66592688Y-68000501D01*
X66592690Y-68000503D01*
X66706810Y-68066390D01*
X66706808Y-68066390D01*
X66706812Y-68066391D01*
X66706814Y-68066392D01*
X66834108Y-68100500D01*
X66834110Y-68100500D01*
X66965890Y-68100500D01*
X66965892Y-68100500D01*
X67093186Y-68066392D01*
X67093188Y-68066390D01*
X67093190Y-68066390D01*
X67207309Y-68000503D01*
X67207309Y-68000502D01*
X67207314Y-68000500D01*
X67300500Y-67907314D01*
X67366392Y-67793186D01*
X67400500Y-67665892D01*
X67400500Y-67534108D01*
X67366392Y-67406814D01*
X67366390Y-67406811D01*
X67366390Y-67406809D01*
X67300503Y-67292690D01*
X67300501Y-67292688D01*
X67300500Y-67292686D01*
X67207314Y-67199500D01*
X67207311Y-67199498D01*
X67207309Y-67199496D01*
X67093189Y-67133609D01*
X67093191Y-67133609D01*
X67041642Y-67119797D01*
X66965892Y-67099500D01*
X66834108Y-67099500D01*
X66758358Y-67119797D01*
X66706809Y-67133609D01*
X66592690Y-67199496D01*
X66499496Y-67292690D01*
X66433609Y-67406809D01*
X66433608Y-67406814D01*
X66399500Y-67534108D01*
X40330458Y-67534108D01*
X40350500Y-67459309D01*
X40350500Y-67340691D01*
X40319799Y-67226114D01*
X40319797Y-67226111D01*
X40319797Y-67226109D01*
X40260492Y-67123391D01*
X40260490Y-67123389D01*
X40260489Y-67123387D01*
X40176613Y-67039511D01*
X40176610Y-67039509D01*
X40176608Y-67039507D01*
X40073889Y-66980202D01*
X40073890Y-66980202D01*
X40060351Y-66976574D01*
X39959309Y-66949500D01*
X39840691Y-66949500D01*
X39770567Y-66968289D01*
X39726109Y-66980202D01*
X39623391Y-67039507D01*
X39539507Y-67123391D01*
X39480202Y-67226109D01*
X39480201Y-67226114D01*
X39449500Y-67340691D01*
X34577966Y-67340691D01*
X34562881Y-67226109D01*
X34543959Y-67082385D01*
X34314188Y-66527669D01*
X33963538Y-66070692D01*
X33963537Y-66070691D01*
X39449500Y-66070691D01*
X39449500Y-66189309D01*
X39465628Y-66249500D01*
X39480202Y-66303890D01*
X39539507Y-66406608D01*
X39539509Y-66406610D01*
X39539511Y-66406613D01*
X39623387Y-66490489D01*
X39623389Y-66490490D01*
X39623391Y-66490492D01*
X39726110Y-66549797D01*
X39726111Y-66549797D01*
X39726114Y-66549799D01*
X39840691Y-66580500D01*
X39840693Y-66580500D01*
X39959307Y-66580500D01*
X39959309Y-66580500D01*
X40073886Y-66549799D01*
X40073888Y-66549797D01*
X40073890Y-66549797D01*
X40176608Y-66490492D01*
X40176608Y-66490491D01*
X40176613Y-66490489D01*
X40260489Y-66406613D01*
X40319799Y-66303886D01*
X40328694Y-66270691D01*
X66449500Y-66270691D01*
X66449500Y-66389309D01*
X66476574Y-66490351D01*
X66480202Y-66503890D01*
X66539507Y-66606608D01*
X66539509Y-66606610D01*
X66539511Y-66606613D01*
X66623387Y-66690489D01*
X66623389Y-66690490D01*
X66623391Y-66690492D01*
X66726110Y-66749797D01*
X66726111Y-66749797D01*
X66726114Y-66749799D01*
X66840691Y-66780500D01*
X66840693Y-66780500D01*
X66959307Y-66780500D01*
X66959309Y-66780500D01*
X67073886Y-66749799D01*
X67073888Y-66749797D01*
X67073890Y-66749797D01*
X67176608Y-66690492D01*
X67176608Y-66690491D01*
X67176613Y-66690489D01*
X67226411Y-66640691D01*
X70949500Y-66640691D01*
X70949500Y-66759309D01*
X70971316Y-66840727D01*
X70980202Y-66873890D01*
X71039507Y-66976608D01*
X71039509Y-66976610D01*
X71039511Y-66976613D01*
X71123387Y-67060489D01*
X71123389Y-67060490D01*
X71123391Y-67060492D01*
X71226110Y-67119797D01*
X71226111Y-67119797D01*
X71226114Y-67119799D01*
X71340691Y-67150500D01*
X71340693Y-67150500D01*
X71459307Y-67150500D01*
X71459309Y-67150500D01*
X71573886Y-67119799D01*
X71573888Y-67119797D01*
X71573890Y-67119797D01*
X71676608Y-67060492D01*
X71676608Y-67060491D01*
X71676613Y-67060489D01*
X71760489Y-66976613D01*
X71819799Y-66873886D01*
X71850500Y-66759309D01*
X71850500Y-66640691D01*
X71819799Y-66526114D01*
X71819797Y-66526111D01*
X71819797Y-66526109D01*
X71760492Y-66423391D01*
X71760490Y-66423389D01*
X71760489Y-66423387D01*
X71676613Y-66339511D01*
X71676610Y-66339509D01*
X71676608Y-66339507D01*
X71573889Y-66280202D01*
X71573890Y-66280202D01*
X71538394Y-66270691D01*
X71459309Y-66249500D01*
X71340691Y-66249500D01*
X71270567Y-66268289D01*
X71226109Y-66280202D01*
X71123391Y-66339507D01*
X71039507Y-66423391D01*
X70980202Y-66526109D01*
X70965628Y-66580500D01*
X70949500Y-66640691D01*
X67226411Y-66640691D01*
X67260489Y-66606613D01*
X67319799Y-66503886D01*
X67350500Y-66389309D01*
X67350500Y-66270691D01*
X67319799Y-66156114D01*
X67319797Y-66156111D01*
X67319797Y-66156109D01*
X67260492Y-66053391D01*
X67260490Y-66053389D01*
X67260489Y-66053387D01*
X67176613Y-65969511D01*
X67176610Y-65969509D01*
X67176608Y-65969507D01*
X67073889Y-65910202D01*
X67073890Y-65910202D01*
X67056211Y-65905465D01*
X66959309Y-65879500D01*
X66840691Y-65879500D01*
X66770567Y-65898289D01*
X66726109Y-65910202D01*
X66623391Y-65969507D01*
X66539507Y-66053391D01*
X66480202Y-66156109D01*
X66480201Y-66156114D01*
X66449500Y-66270691D01*
X40328694Y-66270691D01*
X40350500Y-66189309D01*
X40350500Y-66070691D01*
X40319799Y-65956114D01*
X40319797Y-65956111D01*
X40319797Y-65956109D01*
X40260492Y-65853391D01*
X40260490Y-65853389D01*
X40260489Y-65853387D01*
X40176613Y-65769511D01*
X40176610Y-65769509D01*
X40176608Y-65769507D01*
X40073889Y-65710202D01*
X40073890Y-65710202D01*
X40060351Y-65706574D01*
X39959309Y-65679500D01*
X39840691Y-65679500D01*
X39789600Y-65693190D01*
X39726109Y-65710202D01*
X39623391Y-65769507D01*
X39539507Y-65853391D01*
X39480202Y-65956109D01*
X39477447Y-65966392D01*
X39449500Y-66070691D01*
X33963537Y-66070691D01*
X33948680Y-66051328D01*
X33948679Y-66051327D01*
X33948676Y-66051323D01*
X33948671Y-66051319D01*
X33948670Y-66051318D01*
X33630676Y-65807314D01*
X33472330Y-65685811D01*
X33360035Y-65639297D01*
X33069825Y-65519088D01*
X32917614Y-65456040D01*
X32917612Y-65456039D01*
X32917610Y-65456039D01*
X32322331Y-65377669D01*
X32322329Y-65377669D01*
X31727049Y-65456039D01*
X31727043Y-65456041D01*
X31172331Y-65685810D01*
X30695989Y-66051318D01*
X30695979Y-66051328D01*
X30330471Y-66527670D01*
X30100702Y-67082382D01*
X30100700Y-67082388D01*
X30022330Y-67677668D01*
X27648135Y-67677668D01*
X27538390Y-67542074D01*
X27536263Y-67539351D01*
X27092011Y-66949500D01*
X26939847Y-66747466D01*
X26937820Y-66744674D01*
X26369407Y-65932464D01*
X26367505Y-65929644D01*
X25855436Y-65140691D01*
X34449500Y-65140691D01*
X34449500Y-65259309D01*
X34476574Y-65360351D01*
X34480202Y-65373890D01*
X34539507Y-65476608D01*
X34539509Y-65476610D01*
X34539511Y-65476613D01*
X34623387Y-65560489D01*
X34623389Y-65560490D01*
X34623391Y-65560492D01*
X34726110Y-65619797D01*
X34726111Y-65619797D01*
X34726114Y-65619799D01*
X34840691Y-65650500D01*
X34840693Y-65650500D01*
X34959307Y-65650500D01*
X34959309Y-65650500D01*
X35073886Y-65619799D01*
X35073888Y-65619797D01*
X35073890Y-65619797D01*
X35176608Y-65560492D01*
X35176608Y-65560491D01*
X35176613Y-65560489D01*
X35260489Y-65476613D01*
X35285030Y-65434108D01*
X60949500Y-65434108D01*
X60949500Y-65565892D01*
X60979579Y-65678151D01*
X60983609Y-65693190D01*
X61049496Y-65807309D01*
X61049498Y-65807311D01*
X61049500Y-65807314D01*
X61142686Y-65900500D01*
X61142688Y-65900501D01*
X61142690Y-65900503D01*
X61256810Y-65966390D01*
X61256808Y-65966390D01*
X61256812Y-65966391D01*
X61256814Y-65966392D01*
X61384108Y-66000500D01*
X61384110Y-66000500D01*
X61515890Y-66000500D01*
X61515892Y-66000500D01*
X61643186Y-65966392D01*
X61643188Y-65966390D01*
X61643190Y-65966390D01*
X61757309Y-65900503D01*
X61757309Y-65900502D01*
X61757314Y-65900500D01*
X61850500Y-65807314D01*
X61906568Y-65710202D01*
X61916390Y-65693190D01*
X61916390Y-65693188D01*
X61916392Y-65693186D01*
X61950500Y-65565892D01*
X61950500Y-65434108D01*
X61916392Y-65306814D01*
X61916390Y-65306811D01*
X61916390Y-65306809D01*
X61850503Y-65192690D01*
X61850501Y-65192688D01*
X61850500Y-65192686D01*
X61757314Y-65099500D01*
X61757311Y-65099498D01*
X61757309Y-65099496D01*
X61701748Y-65067418D01*
X61643189Y-65033609D01*
X61643191Y-65033609D01*
X61593799Y-65020375D01*
X61515892Y-64999500D01*
X61384108Y-64999500D01*
X61306200Y-65020375D01*
X61256809Y-65033609D01*
X61142690Y-65099496D01*
X61049496Y-65192690D01*
X60983609Y-65306809D01*
X60965636Y-65373886D01*
X60949500Y-65434108D01*
X35285030Y-65434108D01*
X35317351Y-65378126D01*
X35317355Y-65378119D01*
X35317615Y-65377669D01*
X35319799Y-65373886D01*
X35350500Y-65259309D01*
X35350500Y-65140691D01*
X35319799Y-65026114D01*
X35319797Y-65026111D01*
X35319797Y-65026109D01*
X35260492Y-64923391D01*
X35260490Y-64923389D01*
X35260489Y-64923387D01*
X35176613Y-64839511D01*
X35176610Y-64839509D01*
X35176608Y-64839507D01*
X35109377Y-64800691D01*
X39449500Y-64800691D01*
X39449500Y-64919309D01*
X39470987Y-64999500D01*
X39480202Y-65033890D01*
X39539507Y-65136608D01*
X39539509Y-65136610D01*
X39539511Y-65136613D01*
X39623387Y-65220489D01*
X39623389Y-65220490D01*
X39623391Y-65220492D01*
X39726110Y-65279797D01*
X39726111Y-65279797D01*
X39726114Y-65279799D01*
X39840691Y-65310500D01*
X39840693Y-65310500D01*
X39959307Y-65310500D01*
X39959309Y-65310500D01*
X40073886Y-65279799D01*
X40073888Y-65279797D01*
X40073890Y-65279797D01*
X40176608Y-65220492D01*
X40176608Y-65220491D01*
X40176613Y-65220489D01*
X40260489Y-65136613D01*
X40280911Y-65101241D01*
X40319797Y-65033890D01*
X40319797Y-65033888D01*
X40319799Y-65033886D01*
X40350500Y-64919309D01*
X40350500Y-64800691D01*
X59799500Y-64800691D01*
X59799500Y-64919309D01*
X59820987Y-64999500D01*
X59830202Y-65033890D01*
X59889507Y-65136608D01*
X59889509Y-65136610D01*
X59889511Y-65136613D01*
X59973387Y-65220489D01*
X59973389Y-65220490D01*
X59973391Y-65220492D01*
X60076110Y-65279797D01*
X60076111Y-65279797D01*
X60076114Y-65279799D01*
X60190691Y-65310500D01*
X60190693Y-65310500D01*
X60309307Y-65310500D01*
X60309309Y-65310500D01*
X60423886Y-65279799D01*
X60423888Y-65279797D01*
X60423890Y-65279797D01*
X60526608Y-65220492D01*
X60526608Y-65220491D01*
X60526613Y-65220489D01*
X60610489Y-65136613D01*
X60630911Y-65101241D01*
X60669797Y-65033890D01*
X60669797Y-65033888D01*
X60669799Y-65033886D01*
X60682485Y-64986542D01*
X63438200Y-64986542D01*
X63438200Y-65133457D01*
X63466860Y-65277541D01*
X63466860Y-65277543D01*
X63523078Y-65413266D01*
X63523078Y-65413267D01*
X63551658Y-65456039D01*
X63604699Y-65535420D01*
X63708580Y-65639301D01*
X63830731Y-65720920D01*
X63966458Y-65777140D01*
X64110545Y-65805800D01*
X64110547Y-65805800D01*
X64257453Y-65805800D01*
X64257455Y-65805800D01*
X64401542Y-65777140D01*
X64537269Y-65720920D01*
X64659420Y-65639301D01*
X64763301Y-65535420D01*
X64844920Y-65413269D01*
X64901140Y-65277542D01*
X64929800Y-65133455D01*
X64929800Y-64986545D01*
X64929799Y-64986542D01*
X65470200Y-64986542D01*
X65470200Y-65133457D01*
X65498860Y-65277541D01*
X65498860Y-65277543D01*
X65555078Y-65413266D01*
X65555078Y-65413267D01*
X65583658Y-65456039D01*
X65636699Y-65535420D01*
X65740580Y-65639301D01*
X65862731Y-65720920D01*
X65998458Y-65777140D01*
X66142545Y-65805800D01*
X66142547Y-65805800D01*
X66289453Y-65805800D01*
X66289455Y-65805800D01*
X66433542Y-65777140D01*
X66569269Y-65720920D01*
X66680815Y-65646387D01*
X72350434Y-65646387D01*
X72350434Y-65778171D01*
X72358243Y-65807314D01*
X72384543Y-65905469D01*
X72450430Y-66019588D01*
X72450432Y-66019590D01*
X72450434Y-66019593D01*
X72543620Y-66112779D01*
X72543622Y-66112780D01*
X72543624Y-66112782D01*
X72657744Y-66178669D01*
X72657742Y-66178669D01*
X72657746Y-66178670D01*
X72657748Y-66178671D01*
X72785042Y-66212779D01*
X72785044Y-66212779D01*
X72916824Y-66212779D01*
X72916826Y-66212779D01*
X73044120Y-66178671D01*
X73044122Y-66178669D01*
X73044124Y-66178669D01*
X73158243Y-66112782D01*
X73158243Y-66112781D01*
X73158248Y-66112779D01*
X73251434Y-66019593D01*
X73251437Y-66019588D01*
X73317324Y-65905469D01*
X73317324Y-65905467D01*
X73317326Y-65905465D01*
X73351434Y-65778171D01*
X73351434Y-65646387D01*
X73317326Y-65519093D01*
X73317324Y-65519090D01*
X73317324Y-65519088D01*
X73251437Y-65404969D01*
X73251435Y-65404967D01*
X73251434Y-65404965D01*
X73158248Y-65311779D01*
X73158245Y-65311777D01*
X73158243Y-65311775D01*
X73044123Y-65245888D01*
X73044125Y-65245888D01*
X72994733Y-65232654D01*
X72916826Y-65211779D01*
X72785042Y-65211779D01*
X72707134Y-65232654D01*
X72657743Y-65245888D01*
X72543624Y-65311775D01*
X72450430Y-65404969D01*
X72384543Y-65519088D01*
X72380167Y-65535420D01*
X72350434Y-65646387D01*
X66680815Y-65646387D01*
X66691420Y-65639301D01*
X66795301Y-65535420D01*
X66876920Y-65413269D01*
X66933140Y-65277542D01*
X66961800Y-65133455D01*
X66961800Y-64986545D01*
X66952124Y-64937901D01*
X66959315Y-64877142D01*
X67000848Y-64832212D01*
X67060857Y-64820275D01*
X67098722Y-64832853D01*
X67156810Y-64866390D01*
X67156808Y-64866390D01*
X67156812Y-64866391D01*
X67156814Y-64866392D01*
X67284108Y-64900500D01*
X67284110Y-64900500D01*
X67415890Y-64900500D01*
X67415892Y-64900500D01*
X67543186Y-64866392D01*
X67543188Y-64866390D01*
X67543190Y-64866390D01*
X67657309Y-64800503D01*
X67657309Y-64800502D01*
X67657314Y-64800500D01*
X67750500Y-64707314D01*
X67750503Y-64707309D01*
X67816390Y-64593190D01*
X67816390Y-64593188D01*
X67816392Y-64593186D01*
X67850500Y-64465892D01*
X67850500Y-64334108D01*
X67816392Y-64206814D01*
X67816390Y-64206811D01*
X67816390Y-64206809D01*
X67750503Y-64092690D01*
X67750501Y-64092688D01*
X67750500Y-64092686D01*
X67657314Y-63999500D01*
X67657311Y-63999498D01*
X67657309Y-63999496D01*
X67543189Y-63933609D01*
X67543191Y-63933609D01*
X67493799Y-63920375D01*
X67415892Y-63899500D01*
X67284108Y-63899500D01*
X67206200Y-63920375D01*
X67156809Y-63933609D01*
X67042690Y-63999496D01*
X66949496Y-64092690D01*
X66883609Y-64206809D01*
X66849500Y-64334109D01*
X66849500Y-64401114D01*
X66830593Y-64459305D01*
X66781093Y-64495269D01*
X66719907Y-64495269D01*
X66696106Y-64482437D01*
X66695463Y-64483401D01*
X66691421Y-64480700D01*
X66691420Y-64480699D01*
X66569269Y-64399080D01*
X66569268Y-64399079D01*
X66569266Y-64399078D01*
X66433542Y-64342860D01*
X66289457Y-64314200D01*
X66289455Y-64314200D01*
X66142545Y-64314200D01*
X66142542Y-64314200D01*
X65998458Y-64342860D01*
X65998456Y-64342860D01*
X65862733Y-64399078D01*
X65862732Y-64399078D01*
X65740580Y-64480699D01*
X65740576Y-64480702D01*
X65636702Y-64584576D01*
X65636699Y-64584580D01*
X65555078Y-64706732D01*
X65555078Y-64706733D01*
X65498860Y-64842456D01*
X65498860Y-64842458D01*
X65470200Y-64986542D01*
X64929799Y-64986542D01*
X64901140Y-64842458D01*
X64862636Y-64749500D01*
X64844921Y-64706733D01*
X64844921Y-64706732D01*
X64773938Y-64600500D01*
X64763301Y-64584580D01*
X64659420Y-64480699D01*
X64537269Y-64399080D01*
X64537268Y-64399079D01*
X64537266Y-64399078D01*
X64401542Y-64342860D01*
X64257457Y-64314200D01*
X64257455Y-64314200D01*
X64110545Y-64314200D01*
X64110542Y-64314200D01*
X63966458Y-64342860D01*
X63966456Y-64342860D01*
X63830733Y-64399078D01*
X63830732Y-64399078D01*
X63708580Y-64480699D01*
X63708576Y-64480702D01*
X63604702Y-64584576D01*
X63604699Y-64584580D01*
X63523078Y-64706732D01*
X63523078Y-64706733D01*
X63466860Y-64842456D01*
X63466860Y-64842458D01*
X63438200Y-64986542D01*
X60682485Y-64986542D01*
X60700500Y-64919309D01*
X60700500Y-64800691D01*
X60669799Y-64686114D01*
X60669797Y-64686111D01*
X60669797Y-64686109D01*
X60610492Y-64583391D01*
X60610490Y-64583389D01*
X60610489Y-64583387D01*
X60526613Y-64499511D01*
X60526610Y-64499509D01*
X60526608Y-64499507D01*
X60423889Y-64440202D01*
X60423890Y-64440202D01*
X60410351Y-64436574D01*
X60309309Y-64409500D01*
X60190691Y-64409500D01*
X60126825Y-64426613D01*
X60076109Y-64440202D01*
X59973391Y-64499507D01*
X59889507Y-64583391D01*
X59830202Y-64686109D01*
X59824676Y-64706732D01*
X59799500Y-64800691D01*
X40350500Y-64800691D01*
X40319799Y-64686114D01*
X40319797Y-64686111D01*
X40319797Y-64686109D01*
X40260492Y-64583391D01*
X40260490Y-64583389D01*
X40260489Y-64583387D01*
X40176613Y-64499511D01*
X40176610Y-64499509D01*
X40176608Y-64499507D01*
X40073889Y-64440202D01*
X40073890Y-64440202D01*
X40060351Y-64436574D01*
X39959309Y-64409500D01*
X39840691Y-64409500D01*
X39776825Y-64426613D01*
X39726109Y-64440202D01*
X39623391Y-64499507D01*
X39539507Y-64583391D01*
X39480202Y-64686109D01*
X39474676Y-64706732D01*
X39449500Y-64800691D01*
X35109377Y-64800691D01*
X35073889Y-64780202D01*
X35073890Y-64780202D01*
X35060351Y-64776574D01*
X34959309Y-64749500D01*
X34840691Y-64749500D01*
X34770567Y-64768289D01*
X34726109Y-64780202D01*
X34623391Y-64839507D01*
X34539507Y-64923391D01*
X34480202Y-65026109D01*
X34463037Y-65090169D01*
X34449500Y-65140691D01*
X25855436Y-65140691D01*
X25827774Y-65098072D01*
X25825955Y-65095160D01*
X25809295Y-65067418D01*
X25315580Y-64245273D01*
X25313858Y-64242286D01*
X25295588Y-64209307D01*
X24919648Y-63530691D01*
X39049500Y-63530691D01*
X39049500Y-63649309D01*
X39071175Y-63730201D01*
X39080202Y-63763890D01*
X39139507Y-63866608D01*
X39139509Y-63866610D01*
X39139511Y-63866613D01*
X39223387Y-63950489D01*
X39223389Y-63950490D01*
X39223391Y-63950492D01*
X39326110Y-64009797D01*
X39326111Y-64009797D01*
X39326114Y-64009799D01*
X39440691Y-64040500D01*
X39440693Y-64040500D01*
X39559307Y-64040500D01*
X39559309Y-64040500D01*
X39673886Y-64009799D01*
X39673888Y-64009797D01*
X39673890Y-64009797D01*
X39776608Y-63950492D01*
X39776608Y-63950491D01*
X39776613Y-63950489D01*
X39860489Y-63866613D01*
X39897630Y-63802284D01*
X39919797Y-63763890D01*
X39919797Y-63763888D01*
X39919799Y-63763886D01*
X39950500Y-63649309D01*
X39950500Y-63530691D01*
X39919799Y-63416114D01*
X39899369Y-63380728D01*
X39884577Y-63355108D01*
X68016500Y-63355108D01*
X68016500Y-63486892D01*
X68023813Y-63514184D01*
X68050609Y-63614190D01*
X68116496Y-63728309D01*
X68116498Y-63728311D01*
X68116500Y-63728314D01*
X68209686Y-63821500D01*
X68209688Y-63821501D01*
X68209690Y-63821503D01*
X68323810Y-63887390D01*
X68323808Y-63887390D01*
X68323812Y-63887391D01*
X68323814Y-63887392D01*
X68451108Y-63921500D01*
X68451110Y-63921500D01*
X68582890Y-63921500D01*
X68582892Y-63921500D01*
X68710186Y-63887392D01*
X68710188Y-63887390D01*
X68710190Y-63887390D01*
X68824309Y-63821503D01*
X68824309Y-63821502D01*
X68824314Y-63821500D01*
X68917500Y-63728314D01*
X68983392Y-63614186D01*
X69017500Y-63486892D01*
X69017500Y-63355108D01*
X68983392Y-63227814D01*
X68983390Y-63227811D01*
X68983390Y-63227809D01*
X68917503Y-63113690D01*
X68917501Y-63113688D01*
X68917500Y-63113686D01*
X68824314Y-63020500D01*
X68824311Y-63020498D01*
X68824309Y-63020496D01*
X68710189Y-62954609D01*
X68710191Y-62954609D01*
X68660799Y-62941375D01*
X68582892Y-62920500D01*
X68451108Y-62920500D01*
X68373200Y-62941375D01*
X68323809Y-62954609D01*
X68209690Y-63020496D01*
X68116496Y-63113690D01*
X68050609Y-63227809D01*
X68050608Y-63227814D01*
X68016500Y-63355108D01*
X39884577Y-63355108D01*
X39860492Y-63313391D01*
X39860490Y-63313389D01*
X39860489Y-63313387D01*
X39776613Y-63229511D01*
X39776610Y-63229509D01*
X39776608Y-63229507D01*
X39673889Y-63170202D01*
X39673890Y-63170202D01*
X39660351Y-63166574D01*
X39559309Y-63139500D01*
X39440691Y-63139500D01*
X39370567Y-63158289D01*
X39326109Y-63170202D01*
X39223391Y-63229507D01*
X39139507Y-63313391D01*
X39080202Y-63416109D01*
X39080201Y-63416114D01*
X39049500Y-63530691D01*
X24919648Y-63530691D01*
X24884906Y-63467977D01*
X24873247Y-63407917D01*
X24899119Y-63352471D01*
X24925019Y-63332601D01*
X26940992Y-62260691D01*
X38349500Y-62260691D01*
X38349500Y-62379309D01*
X38368977Y-62451996D01*
X38380202Y-62493890D01*
X38439507Y-62596608D01*
X38439509Y-62596610D01*
X38439511Y-62596613D01*
X38523387Y-62680489D01*
X38523389Y-62680490D01*
X38523391Y-62680492D01*
X38626110Y-62739797D01*
X38626111Y-62739797D01*
X38626114Y-62739799D01*
X38740691Y-62770500D01*
X38740693Y-62770500D01*
X38859307Y-62770500D01*
X38859309Y-62770500D01*
X38973886Y-62739799D01*
X38973888Y-62739797D01*
X38973890Y-62739797D01*
X39076608Y-62680492D01*
X39076608Y-62680491D01*
X39076613Y-62680489D01*
X39160489Y-62596613D01*
X39219799Y-62493886D01*
X39250500Y-62379309D01*
X39250500Y-62260691D01*
X59799500Y-62260691D01*
X59799500Y-62379309D01*
X59818977Y-62451996D01*
X59830202Y-62493890D01*
X59889507Y-62596608D01*
X59889509Y-62596610D01*
X59889511Y-62596613D01*
X59973387Y-62680489D01*
X59973389Y-62680490D01*
X59973391Y-62680492D01*
X60076110Y-62739797D01*
X60076111Y-62739797D01*
X60076114Y-62739799D01*
X60190691Y-62770500D01*
X60190693Y-62770500D01*
X60309307Y-62770500D01*
X60309309Y-62770500D01*
X60423886Y-62739799D01*
X60423888Y-62739797D01*
X60423890Y-62739797D01*
X60526608Y-62680492D01*
X60526608Y-62680491D01*
X60526613Y-62680489D01*
X60610489Y-62596613D01*
X60669799Y-62493886D01*
X60672419Y-62484108D01*
X70749500Y-62484108D01*
X70749500Y-62615892D01*
X70779579Y-62728151D01*
X70783609Y-62743190D01*
X70849496Y-62857309D01*
X70849498Y-62857311D01*
X70849500Y-62857314D01*
X70942686Y-62950500D01*
X70942688Y-62950501D01*
X70942690Y-62950503D01*
X71056810Y-63016390D01*
X71056808Y-63016390D01*
X71056812Y-63016391D01*
X71056814Y-63016392D01*
X71184108Y-63050500D01*
X71184110Y-63050500D01*
X71315890Y-63050500D01*
X71315892Y-63050500D01*
X71443186Y-63016392D01*
X71443188Y-63016390D01*
X71443190Y-63016390D01*
X71557309Y-62950503D01*
X71557309Y-62950502D01*
X71557314Y-62950500D01*
X71650500Y-62857314D01*
X71716392Y-62743186D01*
X71750500Y-62615892D01*
X71750500Y-62484108D01*
X71716392Y-62356814D01*
X71716390Y-62356811D01*
X71716390Y-62356809D01*
X71650503Y-62242690D01*
X71650501Y-62242688D01*
X71650500Y-62242686D01*
X71557314Y-62149500D01*
X71557311Y-62149498D01*
X71557309Y-62149496D01*
X71443189Y-62083609D01*
X71443191Y-62083609D01*
X71393799Y-62070375D01*
X71315892Y-62049500D01*
X71184108Y-62049500D01*
X71106200Y-62070375D01*
X71056809Y-62083609D01*
X70942690Y-62149496D01*
X70849496Y-62242690D01*
X70783609Y-62356809D01*
X70764539Y-62427978D01*
X70749500Y-62484108D01*
X60672419Y-62484108D01*
X60700500Y-62379309D01*
X60700500Y-62260691D01*
X60669799Y-62146114D01*
X60669797Y-62146111D01*
X60669797Y-62146109D01*
X60610492Y-62043391D01*
X60610490Y-62043389D01*
X60610489Y-62043387D01*
X60526613Y-61959511D01*
X60526610Y-61959509D01*
X60526608Y-61959507D01*
X60423889Y-61900202D01*
X60423890Y-61900202D01*
X60410351Y-61896574D01*
X60309309Y-61869500D01*
X60190691Y-61869500D01*
X60142578Y-61882392D01*
X60076109Y-61900202D01*
X59973391Y-61959507D01*
X59889507Y-62043391D01*
X59830202Y-62146109D01*
X59824661Y-62166790D01*
X59799500Y-62260691D01*
X39250500Y-62260691D01*
X39219799Y-62146114D01*
X39219797Y-62146111D01*
X39219797Y-62146109D01*
X39160492Y-62043391D01*
X39160490Y-62043389D01*
X39160489Y-62043387D01*
X39076613Y-61959511D01*
X39076610Y-61959509D01*
X39076608Y-61959507D01*
X38973889Y-61900202D01*
X38973890Y-61900202D01*
X38960351Y-61896574D01*
X38859309Y-61869500D01*
X38740691Y-61869500D01*
X38692578Y-61882392D01*
X38626109Y-61900202D01*
X38523391Y-61959507D01*
X38439507Y-62043391D01*
X38380202Y-62146109D01*
X38374661Y-62166790D01*
X38349500Y-62260691D01*
X26940992Y-62260691D01*
X27573131Y-61924577D01*
X27573130Y-61924576D01*
X27573131Y-61924576D01*
X27107150Y-61003424D01*
X27105404Y-60999791D01*
X27089955Y-60965892D01*
X27029897Y-60834108D01*
X34399500Y-60834108D01*
X34399500Y-60965892D01*
X34406145Y-60990691D01*
X34433609Y-61093190D01*
X34499496Y-61207309D01*
X34499498Y-61207311D01*
X34499500Y-61207314D01*
X34592686Y-61300500D01*
X34592688Y-61300501D01*
X34592690Y-61300503D01*
X34706810Y-61366390D01*
X34706808Y-61366390D01*
X34706812Y-61366391D01*
X34706814Y-61366392D01*
X34834108Y-61400500D01*
X34834110Y-61400500D01*
X34965890Y-61400500D01*
X34965892Y-61400500D01*
X35093186Y-61366392D01*
X35093188Y-61366390D01*
X35093190Y-61366390D01*
X35207309Y-61300503D01*
X35207309Y-61300502D01*
X35207314Y-61300500D01*
X35300500Y-61207314D01*
X35300503Y-61207309D01*
X35366390Y-61093190D01*
X35366390Y-61093188D01*
X35366392Y-61093186D01*
X35393855Y-60990691D01*
X60499500Y-60990691D01*
X60499500Y-61109309D01*
X60524687Y-61203309D01*
X60530202Y-61223890D01*
X60589507Y-61326608D01*
X60589509Y-61326610D01*
X60589511Y-61326613D01*
X60673387Y-61410489D01*
X60673389Y-61410490D01*
X60673391Y-61410492D01*
X60776110Y-61469797D01*
X60776111Y-61469797D01*
X60776114Y-61469799D01*
X60890691Y-61500500D01*
X60890693Y-61500500D01*
X61009307Y-61500500D01*
X61009309Y-61500500D01*
X61123886Y-61469799D01*
X61123888Y-61469797D01*
X61123890Y-61469797D01*
X61226608Y-61410492D01*
X61226608Y-61410491D01*
X61226613Y-61410489D01*
X61310489Y-61326613D01*
X61325564Y-61300503D01*
X61369797Y-61223890D01*
X61369797Y-61223888D01*
X61369799Y-61223886D01*
X61400500Y-61109309D01*
X61400500Y-60990691D01*
X61369799Y-60876114D01*
X61343237Y-60830108D01*
X69503500Y-60830108D01*
X69503500Y-60961892D01*
X69533579Y-61074151D01*
X69537609Y-61089190D01*
X69603496Y-61203309D01*
X69603498Y-61203311D01*
X69603500Y-61203314D01*
X69696686Y-61296500D01*
X69696688Y-61296501D01*
X69696690Y-61296503D01*
X69810810Y-61362390D01*
X69810808Y-61362390D01*
X69810812Y-61362391D01*
X69810814Y-61362392D01*
X69938108Y-61396500D01*
X69938110Y-61396500D01*
X70069890Y-61396500D01*
X70069892Y-61396500D01*
X70197186Y-61362392D01*
X70197188Y-61362390D01*
X70197190Y-61362390D01*
X70311309Y-61296503D01*
X70311309Y-61296502D01*
X70311314Y-61296500D01*
X70404500Y-61203314D01*
X70458775Y-61109307D01*
X70470390Y-61089190D01*
X70470390Y-61089188D01*
X70470392Y-61089186D01*
X70504500Y-60961892D01*
X70504500Y-60830108D01*
X70470392Y-60702814D01*
X70470390Y-60702811D01*
X70470390Y-60702809D01*
X70404503Y-60588690D01*
X70404501Y-60588688D01*
X70404500Y-60588686D01*
X70311314Y-60495500D01*
X70311311Y-60495498D01*
X70311309Y-60495496D01*
X70197189Y-60429609D01*
X70197191Y-60429609D01*
X70147799Y-60416375D01*
X70069892Y-60395500D01*
X69938108Y-60395500D01*
X69860200Y-60416375D01*
X69810809Y-60429609D01*
X69696690Y-60495496D01*
X69603496Y-60588690D01*
X69537609Y-60702809D01*
X69518698Y-60773387D01*
X69503500Y-60830108D01*
X61343237Y-60830108D01*
X61310489Y-60773387D01*
X61226613Y-60689511D01*
X61226610Y-60689509D01*
X61226608Y-60689507D01*
X61123889Y-60630202D01*
X61123890Y-60630202D01*
X61110351Y-60626574D01*
X61009309Y-60599500D01*
X60890691Y-60599500D01*
X60820567Y-60618289D01*
X60776109Y-60630202D01*
X60673391Y-60689507D01*
X60589507Y-60773391D01*
X60530202Y-60876109D01*
X60530201Y-60876114D01*
X60499500Y-60990691D01*
X35393855Y-60990691D01*
X35400500Y-60965892D01*
X35400500Y-60834108D01*
X35366392Y-60706814D01*
X35366390Y-60706811D01*
X35366390Y-60706809D01*
X35300503Y-60592690D01*
X35300501Y-60592688D01*
X35300500Y-60592686D01*
X35207314Y-60499500D01*
X35207311Y-60499498D01*
X35207309Y-60499496D01*
X35093189Y-60433609D01*
X35093191Y-60433609D01*
X35043799Y-60420375D01*
X34965892Y-60399500D01*
X34834108Y-60399500D01*
X34756200Y-60420375D01*
X34706809Y-60433609D01*
X34592690Y-60499496D01*
X34499496Y-60592690D01*
X34433609Y-60706809D01*
X34433608Y-60706814D01*
X34399500Y-60834108D01*
X27029897Y-60834108D01*
X26678143Y-60062255D01*
X26676550Y-60058561D01*
X26287803Y-59104378D01*
X26286387Y-59100688D01*
X26190237Y-58834108D01*
X32499500Y-58834108D01*
X32499500Y-58965892D01*
X32523861Y-59056809D01*
X32533609Y-59093190D01*
X32599496Y-59207309D01*
X32599498Y-59207311D01*
X32599500Y-59207314D01*
X32692686Y-59300500D01*
X32692688Y-59300501D01*
X32692690Y-59300503D01*
X32806810Y-59366390D01*
X32806808Y-59366390D01*
X32806812Y-59366391D01*
X32806814Y-59366392D01*
X32934108Y-59400500D01*
X32934110Y-59400500D01*
X33065890Y-59400500D01*
X33065892Y-59400500D01*
X33193186Y-59366392D01*
X33193188Y-59366390D01*
X33193190Y-59366390D01*
X33307309Y-59300503D01*
X33307309Y-59300502D01*
X33307314Y-59300500D01*
X33400500Y-59207314D01*
X33400503Y-59207309D01*
X33413898Y-59184108D01*
X50319500Y-59184108D01*
X50319500Y-59315892D01*
X50347263Y-59419507D01*
X50353609Y-59443190D01*
X50419496Y-59557309D01*
X50419498Y-59557311D01*
X50419500Y-59557314D01*
X50512686Y-59650500D01*
X50512688Y-59650501D01*
X50512690Y-59650503D01*
X50626810Y-59716390D01*
X50626808Y-59716390D01*
X50626812Y-59716391D01*
X50626814Y-59716392D01*
X50754108Y-59750500D01*
X50754110Y-59750500D01*
X50885890Y-59750500D01*
X50885892Y-59750500D01*
X51013186Y-59716392D01*
X51013188Y-59716390D01*
X51013190Y-59716390D01*
X51127309Y-59650503D01*
X51127309Y-59650502D01*
X51127314Y-59650500D01*
X51220500Y-59557314D01*
X51257522Y-59493190D01*
X51286390Y-59443190D01*
X51286390Y-59443188D01*
X51286392Y-59443186D01*
X51320500Y-59315892D01*
X51320500Y-59184108D01*
X55699500Y-59184108D01*
X55699500Y-59315892D01*
X55727263Y-59419507D01*
X55733609Y-59443190D01*
X55799496Y-59557309D01*
X55799498Y-59557311D01*
X55799500Y-59557314D01*
X55892686Y-59650500D01*
X55892688Y-59650501D01*
X55892690Y-59650503D01*
X56006810Y-59716390D01*
X56006808Y-59716390D01*
X56006812Y-59716391D01*
X56006814Y-59716392D01*
X56134108Y-59750500D01*
X56134110Y-59750500D01*
X56265890Y-59750500D01*
X56265892Y-59750500D01*
X56377142Y-59720691D01*
X59799500Y-59720691D01*
X59799500Y-59839309D01*
X59826574Y-59940351D01*
X59830202Y-59953890D01*
X59889507Y-60056608D01*
X59889509Y-60056610D01*
X59889511Y-60056613D01*
X59973387Y-60140489D01*
X59973389Y-60140490D01*
X59973391Y-60140492D01*
X60076110Y-60199797D01*
X60076111Y-60199797D01*
X60076114Y-60199799D01*
X60190691Y-60230500D01*
X60190693Y-60230500D01*
X60309307Y-60230500D01*
X60309309Y-60230500D01*
X60423886Y-60199799D01*
X60423888Y-60199797D01*
X60423890Y-60199797D01*
X60526608Y-60140492D01*
X60526608Y-60140491D01*
X60526613Y-60140489D01*
X60610489Y-60056613D01*
X60669799Y-59953886D01*
X60700500Y-59839309D01*
X60700500Y-59720691D01*
X60669799Y-59606114D01*
X60669797Y-59606111D01*
X60669797Y-59606109D01*
X60610492Y-59503391D01*
X60610490Y-59503389D01*
X60610489Y-59503387D01*
X60526613Y-59419511D01*
X60526610Y-59419509D01*
X60526608Y-59419507D01*
X60423889Y-59360202D01*
X60423890Y-59360202D01*
X60410351Y-59356574D01*
X60309309Y-59329500D01*
X60190691Y-59329500D01*
X60120567Y-59348289D01*
X60076109Y-59360202D01*
X59973391Y-59419507D01*
X59889507Y-59503391D01*
X59830202Y-59606109D01*
X59829879Y-59607314D01*
X59799500Y-59720691D01*
X56377142Y-59720691D01*
X56393186Y-59716392D01*
X56393188Y-59716390D01*
X56393190Y-59716390D01*
X56507309Y-59650503D01*
X56507309Y-59650502D01*
X56507314Y-59650500D01*
X56600500Y-59557314D01*
X56637522Y-59493190D01*
X56666390Y-59443190D01*
X56666390Y-59443188D01*
X56666392Y-59443186D01*
X56700500Y-59315892D01*
X56700500Y-59234108D01*
X61799500Y-59234108D01*
X61799500Y-59365892D01*
X61808773Y-59400500D01*
X61833609Y-59493190D01*
X61899496Y-59607309D01*
X61899498Y-59607311D01*
X61899500Y-59607314D01*
X61992686Y-59700500D01*
X61992688Y-59700501D01*
X61992690Y-59700503D01*
X62106810Y-59766390D01*
X62106808Y-59766390D01*
X62106812Y-59766391D01*
X62106814Y-59766392D01*
X62234108Y-59800500D01*
X62234110Y-59800500D01*
X62365890Y-59800500D01*
X62365892Y-59800500D01*
X62493186Y-59766392D01*
X62493188Y-59766390D01*
X62493190Y-59766390D01*
X62607309Y-59700503D01*
X62607309Y-59700502D01*
X62607314Y-59700500D01*
X62700500Y-59607314D01*
X62729370Y-59557310D01*
X62766390Y-59493190D01*
X62766390Y-59493188D01*
X62766392Y-59493186D01*
X62800500Y-59365892D01*
X62800500Y-59234108D01*
X62766392Y-59106814D01*
X62766390Y-59106811D01*
X62766390Y-59106809D01*
X62700503Y-58992690D01*
X62700501Y-58992688D01*
X62700500Y-58992686D01*
X62607314Y-58899500D01*
X62607311Y-58899498D01*
X62607309Y-58899496D01*
X62493189Y-58833609D01*
X62493191Y-58833609D01*
X62443799Y-58820375D01*
X62365892Y-58799500D01*
X62234108Y-58799500D01*
X62156200Y-58820375D01*
X62106809Y-58833609D01*
X61992690Y-58899496D01*
X61899496Y-58992690D01*
X61833609Y-59106809D01*
X61833608Y-59106814D01*
X61799500Y-59234108D01*
X56700500Y-59234108D01*
X56700500Y-59184108D01*
X56666392Y-59056814D01*
X56666390Y-59056811D01*
X56666390Y-59056809D01*
X56600503Y-58942690D01*
X56600501Y-58942688D01*
X56600500Y-58942686D01*
X56507314Y-58849500D01*
X56507311Y-58849498D01*
X56507309Y-58849496D01*
X56393189Y-58783609D01*
X56393191Y-58783609D01*
X56343799Y-58770375D01*
X56265892Y-58749500D01*
X56134108Y-58749500D01*
X56056200Y-58770375D01*
X56006809Y-58783609D01*
X55892690Y-58849496D01*
X55799496Y-58942690D01*
X55733609Y-59056809D01*
X55720853Y-59104415D01*
X55699500Y-59184108D01*
X51320500Y-59184108D01*
X51286392Y-59056814D01*
X51286390Y-59056811D01*
X51286390Y-59056809D01*
X51220503Y-58942690D01*
X51220501Y-58942688D01*
X51220500Y-58942686D01*
X51127314Y-58849500D01*
X51127311Y-58849498D01*
X51127309Y-58849496D01*
X51013189Y-58783609D01*
X51013191Y-58783609D01*
X50963799Y-58770375D01*
X50885892Y-58749500D01*
X50754108Y-58749500D01*
X50676200Y-58770375D01*
X50626809Y-58783609D01*
X50512690Y-58849496D01*
X50419496Y-58942690D01*
X50353609Y-59056809D01*
X50340853Y-59104415D01*
X50319500Y-59184108D01*
X33413898Y-59184108D01*
X33446224Y-59128119D01*
X33466390Y-59093190D01*
X33466390Y-59093188D01*
X33466392Y-59093186D01*
X33500500Y-58965892D01*
X33500500Y-58834108D01*
X33466392Y-58706814D01*
X33466390Y-58706811D01*
X33466390Y-58706809D01*
X33400503Y-58592690D01*
X33400501Y-58592688D01*
X33400500Y-58592686D01*
X33307314Y-58499500D01*
X33307311Y-58499498D01*
X33307309Y-58499496D01*
X33193189Y-58433609D01*
X33193191Y-58433609D01*
X33143799Y-58420375D01*
X33065892Y-58399500D01*
X32934108Y-58399500D01*
X32856200Y-58420375D01*
X32806809Y-58433609D01*
X32692690Y-58499496D01*
X32599496Y-58592690D01*
X32533609Y-58706809D01*
X32533608Y-58706814D01*
X32499500Y-58834108D01*
X26190237Y-58834108D01*
X25936801Y-58131445D01*
X25935517Y-58127644D01*
X25881836Y-57957389D01*
X25874496Y-57934108D01*
X34299500Y-57934108D01*
X34299500Y-58065892D01*
X34316046Y-58127644D01*
X34333609Y-58193190D01*
X34399496Y-58307309D01*
X34399498Y-58307311D01*
X34399500Y-58307314D01*
X34492686Y-58400500D01*
X34492688Y-58400501D01*
X34492690Y-58400503D01*
X34606810Y-58466390D01*
X34606808Y-58466390D01*
X34606812Y-58466391D01*
X34606814Y-58466392D01*
X34734108Y-58500500D01*
X34734110Y-58500500D01*
X34865890Y-58500500D01*
X34865892Y-58500500D01*
X34993186Y-58466392D01*
X34993188Y-58466390D01*
X34993190Y-58466390D01*
X35107309Y-58400503D01*
X35107309Y-58400502D01*
X35107314Y-58400500D01*
X35200500Y-58307314D01*
X35266392Y-58193186D01*
X35300500Y-58065892D01*
X35300500Y-57934108D01*
X35266392Y-57806814D01*
X35266390Y-57806811D01*
X35266390Y-57806809D01*
X35200503Y-57692690D01*
X35200501Y-57692688D01*
X35200500Y-57692686D01*
X35107314Y-57599500D01*
X35107311Y-57599498D01*
X35107309Y-57599496D01*
X34993189Y-57533609D01*
X34993191Y-57533609D01*
X34929759Y-57516613D01*
X34865892Y-57499500D01*
X34734108Y-57499500D01*
X34670241Y-57516613D01*
X34606809Y-57533609D01*
X34492690Y-57599496D01*
X34399496Y-57692690D01*
X34333609Y-57806809D01*
X34333608Y-57806814D01*
X34299500Y-57934108D01*
X25874496Y-57934108D01*
X25834360Y-57806814D01*
X25636944Y-57180691D01*
X39249500Y-57180691D01*
X39249500Y-57299309D01*
X39276574Y-57400351D01*
X39280202Y-57413890D01*
X39339507Y-57516608D01*
X39339509Y-57516610D01*
X39339511Y-57516613D01*
X39423387Y-57600489D01*
X39423389Y-57600490D01*
X39423391Y-57600492D01*
X39526110Y-57659797D01*
X39526111Y-57659797D01*
X39526114Y-57659799D01*
X39640691Y-57690500D01*
X39640693Y-57690500D01*
X39759307Y-57690500D01*
X39759309Y-57690500D01*
X39873886Y-57659799D01*
X39873888Y-57659797D01*
X39873890Y-57659797D01*
X39976608Y-57600492D01*
X39976608Y-57600491D01*
X39976613Y-57600489D01*
X40060489Y-57516613D01*
X40119799Y-57413886D01*
X40150500Y-57299309D01*
X40150500Y-57180691D01*
X40119799Y-57066114D01*
X40119797Y-57066111D01*
X40119797Y-57066109D01*
X40060492Y-56963391D01*
X40060490Y-56963389D01*
X40060489Y-56963387D01*
X39976613Y-56879511D01*
X39976610Y-56879509D01*
X39976608Y-56879507D01*
X39873889Y-56820202D01*
X39873890Y-56820202D01*
X39860351Y-56816574D01*
X39759309Y-56789500D01*
X39640691Y-56789500D01*
X39570567Y-56808289D01*
X39526109Y-56820202D01*
X39423391Y-56879507D01*
X39339507Y-56963391D01*
X39280202Y-57066109D01*
X39280201Y-57066114D01*
X39249500Y-57180691D01*
X25636944Y-57180691D01*
X25625696Y-57145016D01*
X25624577Y-57141200D01*
X25355012Y-56146750D01*
X25354038Y-56142841D01*
X25330000Y-56037320D01*
X25125186Y-55138252D01*
X25124386Y-55134373D01*
X24936622Y-54121293D01*
X24935971Y-54117328D01*
X24909646Y-53933890D01*
X24789609Y-53097448D01*
X24789121Y-53093469D01*
X24788717Y-53089511D01*
X24684403Y-52068474D01*
X24684082Y-52064539D01*
X24621179Y-51036078D01*
X24621018Y-51032136D01*
X24600041Y-50002013D01*
X24600041Y-49997983D01*
X24601028Y-49949500D01*
X24621018Y-48967860D01*
X24621179Y-48963922D01*
X24684082Y-47935455D01*
X24684403Y-47931528D01*
X24789124Y-46906502D01*
X24789608Y-46902556D01*
X24935974Y-45882650D01*
X24936625Y-45878692D01*
X25124387Y-44865615D01*
X25125184Y-44861755D01*
X25169809Y-44665864D01*
X30399500Y-44665864D01*
X30399500Y-44710438D01*
X30399500Y-55202405D01*
X30399500Y-55250000D01*
X30399500Y-55334136D01*
X30420794Y-55434314D01*
X30434485Y-55498727D01*
X30434488Y-55498737D01*
X30502922Y-55652444D01*
X30502926Y-55652451D01*
X30502928Y-55652455D01*
X30601836Y-55788589D01*
X30601838Y-55788591D01*
X30601839Y-55788592D01*
X30601840Y-55788593D01*
X30648526Y-55830629D01*
X30726886Y-55901185D01*
X30783046Y-55933609D01*
X30872604Y-55985316D01*
X30872608Y-55985317D01*
X30872614Y-55985321D01*
X31032650Y-56037320D01*
X31200000Y-56054909D01*
X31367350Y-56037320D01*
X31527386Y-55985321D01*
X31656649Y-55910691D01*
X41949500Y-55910691D01*
X41949500Y-56029309D01*
X41956360Y-56054909D01*
X41980202Y-56143890D01*
X42039507Y-56246608D01*
X42039509Y-56246610D01*
X42039511Y-56246613D01*
X42123387Y-56330489D01*
X42123389Y-56330490D01*
X42123391Y-56330492D01*
X42226110Y-56389797D01*
X42226111Y-56389797D01*
X42226114Y-56389799D01*
X42340691Y-56420500D01*
X42340693Y-56420500D01*
X42459307Y-56420500D01*
X42459309Y-56420500D01*
X42573886Y-56389799D01*
X42573888Y-56389797D01*
X42573890Y-56389797D01*
X42670345Y-56334108D01*
X61499500Y-56334108D01*
X61499500Y-56465892D01*
X61510598Y-56507309D01*
X61533609Y-56593190D01*
X61599496Y-56707309D01*
X61599498Y-56707311D01*
X61599500Y-56707314D01*
X61692686Y-56800500D01*
X61692688Y-56800501D01*
X61692690Y-56800503D01*
X61806810Y-56866390D01*
X61806808Y-56866390D01*
X61806812Y-56866391D01*
X61806814Y-56866392D01*
X61934108Y-56900500D01*
X61934110Y-56900500D01*
X62065890Y-56900500D01*
X62065892Y-56900500D01*
X62193186Y-56866392D01*
X62193188Y-56866390D01*
X62193190Y-56866390D01*
X62307309Y-56800503D01*
X62307309Y-56800502D01*
X62307314Y-56800500D01*
X62400500Y-56707314D01*
X62410097Y-56690691D01*
X62466390Y-56593190D01*
X62466390Y-56593188D01*
X62466392Y-56593186D01*
X62500500Y-56465892D01*
X62500500Y-56334108D01*
X62466392Y-56206814D01*
X62424415Y-56134108D01*
X65749500Y-56134108D01*
X65749500Y-56265892D01*
X65767778Y-56334108D01*
X65783609Y-56393190D01*
X65849496Y-56507309D01*
X65849498Y-56507311D01*
X65849500Y-56507314D01*
X65942686Y-56600500D01*
X65942688Y-56600501D01*
X65942690Y-56600503D01*
X66056810Y-56666390D01*
X66056808Y-56666390D01*
X66056812Y-56666391D01*
X66056814Y-56666392D01*
X66184108Y-56700500D01*
X66184110Y-56700500D01*
X66315890Y-56700500D01*
X66315892Y-56700500D01*
X66352500Y-56690691D01*
X72899500Y-56690691D01*
X72899500Y-56809309D01*
X72918310Y-56879507D01*
X72930202Y-56923890D01*
X72989507Y-57026608D01*
X72989509Y-57026610D01*
X72989511Y-57026613D01*
X73073387Y-57110489D01*
X73073389Y-57110490D01*
X73073391Y-57110492D01*
X73176110Y-57169797D01*
X73176111Y-57169797D01*
X73176114Y-57169799D01*
X73290691Y-57200500D01*
X73290693Y-57200500D01*
X73409307Y-57200500D01*
X73409309Y-57200500D01*
X73523886Y-57169799D01*
X73523888Y-57169797D01*
X73523890Y-57169797D01*
X73626608Y-57110492D01*
X73626608Y-57110491D01*
X73626613Y-57110489D01*
X73710489Y-57026613D01*
X73769799Y-56923886D01*
X73800500Y-56809309D01*
X73800500Y-56690691D01*
X73769799Y-56576114D01*
X73769797Y-56576111D01*
X73769797Y-56576109D01*
X73710492Y-56473391D01*
X73710490Y-56473389D01*
X73710489Y-56473387D01*
X73626613Y-56389511D01*
X73626610Y-56389509D01*
X73626608Y-56389507D01*
X73523889Y-56330202D01*
X73523890Y-56330202D01*
X73510351Y-56326574D01*
X73409309Y-56299500D01*
X73290691Y-56299500D01*
X73220567Y-56318289D01*
X73176109Y-56330202D01*
X73073391Y-56389507D01*
X72989507Y-56473391D01*
X72930202Y-56576109D01*
X72925625Y-56593190D01*
X72899500Y-56690691D01*
X66352500Y-56690691D01*
X66443186Y-56666392D01*
X66443188Y-56666390D01*
X66443190Y-56666390D01*
X66500250Y-56633446D01*
X66557314Y-56600500D01*
X66650500Y-56507314D01*
X66716392Y-56393186D01*
X66750500Y-56265892D01*
X66750500Y-56134108D01*
X66716392Y-56006814D01*
X66716390Y-56006811D01*
X66716390Y-56006809D01*
X66650503Y-55892690D01*
X66650501Y-55892688D01*
X66650500Y-55892686D01*
X66557314Y-55799500D01*
X66557311Y-55799498D01*
X66557309Y-55799496D01*
X66443189Y-55733609D01*
X66443191Y-55733609D01*
X66393799Y-55720375D01*
X66315892Y-55699500D01*
X66184108Y-55699500D01*
X66106200Y-55720375D01*
X66056809Y-55733609D01*
X65942690Y-55799496D01*
X65849496Y-55892690D01*
X65783609Y-56006809D01*
X65775434Y-56037319D01*
X65749500Y-56134108D01*
X62424415Y-56134108D01*
X62400500Y-56092686D01*
X62307314Y-55999500D01*
X62307311Y-55999498D01*
X62307309Y-55999496D01*
X62193189Y-55933609D01*
X62193191Y-55933609D01*
X62143799Y-55920375D01*
X62065892Y-55899500D01*
X61934108Y-55899500D01*
X61856200Y-55920375D01*
X61806809Y-55933609D01*
X61692690Y-55999496D01*
X61599496Y-56092690D01*
X61533609Y-56206809D01*
X61533608Y-56206814D01*
X61499500Y-56334108D01*
X42670345Y-56334108D01*
X42676608Y-56330492D01*
X42676608Y-56330491D01*
X42676613Y-56330489D01*
X42760489Y-56246613D01*
X42819799Y-56143886D01*
X42850500Y-56029309D01*
X42850500Y-55910691D01*
X42819799Y-55796114D01*
X42819797Y-55796111D01*
X42819797Y-55796109D01*
X42760492Y-55693391D01*
X42760490Y-55693389D01*
X42760489Y-55693387D01*
X42676613Y-55609511D01*
X42676610Y-55609509D01*
X42676608Y-55609507D01*
X42573889Y-55550202D01*
X42573890Y-55550202D01*
X42560351Y-55546574D01*
X42459309Y-55519500D01*
X42340691Y-55519500D01*
X42270567Y-55538289D01*
X42226109Y-55550202D01*
X42123391Y-55609507D01*
X42039507Y-55693391D01*
X41980202Y-55796109D01*
X41970953Y-55830629D01*
X41949500Y-55910691D01*
X31656649Y-55910691D01*
X31673114Y-55901185D01*
X31751473Y-55830630D01*
X31751475Y-55830629D01*
X31798159Y-55788594D01*
X31798159Y-55788593D01*
X31798164Y-55788589D01*
X31897072Y-55652455D01*
X31965514Y-55498731D01*
X32000500Y-55334136D01*
X32000500Y-55250000D01*
X32000500Y-55202405D01*
X32000500Y-54640691D01*
X41949500Y-54640691D01*
X41949500Y-54759309D01*
X41967801Y-54827608D01*
X41980202Y-54873890D01*
X42039507Y-54976608D01*
X42039509Y-54976610D01*
X42039511Y-54976613D01*
X42123387Y-55060489D01*
X42123389Y-55060490D01*
X42123391Y-55060492D01*
X42226110Y-55119797D01*
X42226111Y-55119797D01*
X42226114Y-55119799D01*
X42340691Y-55150500D01*
X42340693Y-55150500D01*
X42459307Y-55150500D01*
X42459309Y-55150500D01*
X42573886Y-55119799D01*
X42573888Y-55119797D01*
X42573890Y-55119797D01*
X42676608Y-55060492D01*
X42676608Y-55060491D01*
X42676613Y-55060489D01*
X42760489Y-54976613D01*
X42799769Y-54908579D01*
X42819797Y-54873890D01*
X42819797Y-54873888D01*
X42819799Y-54873886D01*
X42850500Y-54759309D01*
X42850500Y-54684108D01*
X45499500Y-54684108D01*
X45499500Y-54815892D01*
X45526294Y-54915890D01*
X45533609Y-54943190D01*
X45599496Y-55057309D01*
X45599498Y-55057311D01*
X45599500Y-55057314D01*
X45692686Y-55150500D01*
X45692688Y-55150501D01*
X45692690Y-55150503D01*
X45806810Y-55216390D01*
X45806808Y-55216390D01*
X45806812Y-55216391D01*
X45806814Y-55216392D01*
X45934108Y-55250500D01*
X45934110Y-55250500D01*
X46065890Y-55250500D01*
X46065892Y-55250500D01*
X46193186Y-55216392D01*
X46193188Y-55216390D01*
X46193190Y-55216390D01*
X46307309Y-55150503D01*
X46307309Y-55150502D01*
X46307314Y-55150500D01*
X46400500Y-55057314D01*
X46466392Y-54943186D01*
X46467061Y-54940691D01*
X52999500Y-54940691D01*
X52999500Y-55059309D01*
X53019604Y-55134339D01*
X53030202Y-55173890D01*
X53089507Y-55276608D01*
X53089509Y-55276610D01*
X53089511Y-55276613D01*
X53173387Y-55360489D01*
X53173389Y-55360490D01*
X53173391Y-55360492D01*
X53276110Y-55419797D01*
X53276111Y-55419797D01*
X53276114Y-55419799D01*
X53390691Y-55450500D01*
X53390693Y-55450500D01*
X53509307Y-55450500D01*
X53509309Y-55450500D01*
X53623886Y-55419799D01*
X53623888Y-55419797D01*
X53623890Y-55419797D01*
X53726608Y-55360492D01*
X53726608Y-55360491D01*
X53726613Y-55360489D01*
X53810489Y-55276613D01*
X53825564Y-55250503D01*
X53869797Y-55173890D01*
X53869797Y-55173888D01*
X53869799Y-55173886D01*
X53900500Y-55059309D01*
X53900500Y-54940691D01*
X53869799Y-54826114D01*
X53869797Y-54826111D01*
X53869797Y-54826109D01*
X53810492Y-54723391D01*
X53810490Y-54723389D01*
X53810489Y-54723387D01*
X53726613Y-54639511D01*
X53726610Y-54639509D01*
X53726608Y-54639507D01*
X53717257Y-54634108D01*
X56999500Y-54634108D01*
X56999500Y-54765892D01*
X57016037Y-54827608D01*
X57033609Y-54893190D01*
X57099496Y-55007309D01*
X57099498Y-55007311D01*
X57099500Y-55007314D01*
X57192686Y-55100500D01*
X57192688Y-55100501D01*
X57192690Y-55100503D01*
X57306810Y-55166390D01*
X57306808Y-55166390D01*
X57306812Y-55166391D01*
X57306814Y-55166392D01*
X57434108Y-55200500D01*
X57434110Y-55200500D01*
X57565890Y-55200500D01*
X57565892Y-55200500D01*
X57693186Y-55166392D01*
X57693188Y-55166390D01*
X57693190Y-55166390D01*
X57807309Y-55100503D01*
X57807309Y-55100502D01*
X57807314Y-55100500D01*
X57900500Y-55007314D01*
X57937523Y-54943189D01*
X57966390Y-54893190D01*
X57966390Y-54893188D01*
X57966392Y-54893186D01*
X57995619Y-54784108D01*
X63149500Y-54784108D01*
X63149500Y-54915892D01*
X63165769Y-54976608D01*
X63183609Y-55043190D01*
X63249496Y-55157309D01*
X63249498Y-55157311D01*
X63249500Y-55157314D01*
X63342686Y-55250500D01*
X63342688Y-55250501D01*
X63342690Y-55250503D01*
X63456810Y-55316390D01*
X63456808Y-55316390D01*
X63456812Y-55316391D01*
X63456814Y-55316392D01*
X63584108Y-55350500D01*
X63584110Y-55350500D01*
X63715890Y-55350500D01*
X63715892Y-55350500D01*
X63843186Y-55316392D01*
X63843188Y-55316390D01*
X63843190Y-55316390D01*
X63957309Y-55250503D01*
X63957309Y-55250502D01*
X63957314Y-55250500D01*
X63979706Y-55228108D01*
X70647500Y-55228108D01*
X70647500Y-55359892D01*
X70663552Y-55419799D01*
X70681609Y-55487190D01*
X70747496Y-55601309D01*
X70747498Y-55601311D01*
X70747500Y-55601314D01*
X70840686Y-55694500D01*
X70840688Y-55694501D01*
X70840690Y-55694503D01*
X70954810Y-55760390D01*
X70954808Y-55760390D01*
X70954812Y-55760391D01*
X70954814Y-55760392D01*
X71082108Y-55794500D01*
X71082110Y-55794500D01*
X71213890Y-55794500D01*
X71213892Y-55794500D01*
X71341186Y-55760392D01*
X71341188Y-55760390D01*
X71341190Y-55760390D01*
X71455309Y-55694503D01*
X71455309Y-55694502D01*
X71455314Y-55694500D01*
X71548500Y-55601314D01*
X71578010Y-55550201D01*
X71614390Y-55487190D01*
X71614390Y-55487188D01*
X71614392Y-55487186D01*
X71648500Y-55359892D01*
X71648500Y-55228108D01*
X71614392Y-55100814D01*
X71614390Y-55100811D01*
X71614390Y-55100809D01*
X71548503Y-54986690D01*
X71548501Y-54986688D01*
X71548500Y-54986686D01*
X71455314Y-54893500D01*
X71455311Y-54893498D01*
X71455309Y-54893496D01*
X71341189Y-54827609D01*
X71341191Y-54827609D01*
X71291799Y-54814375D01*
X71213892Y-54793500D01*
X71082108Y-54793500D01*
X71004200Y-54814375D01*
X70954809Y-54827609D01*
X70840690Y-54893496D01*
X70747496Y-54986690D01*
X70681609Y-55100809D01*
X70676521Y-55119799D01*
X70647500Y-55228108D01*
X63979706Y-55228108D01*
X64050500Y-55157314D01*
X64090035Y-55088837D01*
X64116390Y-55043190D01*
X64116390Y-55043188D01*
X64116392Y-55043186D01*
X64150500Y-54915892D01*
X64150500Y-54784108D01*
X64116392Y-54656814D01*
X64116390Y-54656811D01*
X64116390Y-54656809D01*
X64050503Y-54542690D01*
X64050501Y-54542688D01*
X64050500Y-54542686D01*
X63957314Y-54449500D01*
X63957311Y-54449498D01*
X63957309Y-54449496D01*
X63894714Y-54413356D01*
X63894711Y-54413356D01*
X63843187Y-54383608D01*
X63800754Y-54372238D01*
X63715892Y-54349500D01*
X63584108Y-54349500D01*
X63506200Y-54370375D01*
X63456809Y-54383609D01*
X63342690Y-54449496D01*
X63249496Y-54542690D01*
X63183609Y-54656809D01*
X63176294Y-54684109D01*
X63149500Y-54784108D01*
X57995619Y-54784108D01*
X58000500Y-54765892D01*
X58000500Y-54634108D01*
X57966392Y-54506814D01*
X57966390Y-54506811D01*
X57966390Y-54506809D01*
X57900503Y-54392690D01*
X57900501Y-54392688D01*
X57900500Y-54392686D01*
X57841922Y-54334108D01*
X73049500Y-54334108D01*
X73049500Y-54465892D01*
X73073861Y-54556809D01*
X73083609Y-54593190D01*
X73149496Y-54707309D01*
X73149498Y-54707311D01*
X73149500Y-54707314D01*
X73242686Y-54800500D01*
X73242688Y-54800501D01*
X73242690Y-54800503D01*
X73356810Y-54866390D01*
X73356808Y-54866390D01*
X73356812Y-54866391D01*
X73356814Y-54866392D01*
X73484108Y-54900500D01*
X73484110Y-54900500D01*
X73615890Y-54900500D01*
X73615892Y-54900500D01*
X73743186Y-54866392D01*
X73743188Y-54866390D01*
X73743190Y-54866390D01*
X73857309Y-54800503D01*
X73857309Y-54800502D01*
X73857314Y-54800500D01*
X73950500Y-54707314D01*
X73950503Y-54707309D01*
X74016390Y-54593190D01*
X74016390Y-54593188D01*
X74016392Y-54593186D01*
X74050500Y-54465892D01*
X74050500Y-54334108D01*
X74016392Y-54206814D01*
X74016390Y-54206811D01*
X74016390Y-54206809D01*
X73950503Y-54092690D01*
X73950501Y-54092688D01*
X73950500Y-54092686D01*
X73857314Y-53999500D01*
X73857311Y-53999498D01*
X73857309Y-53999496D01*
X73743189Y-53933609D01*
X73743191Y-53933609D01*
X73693799Y-53920375D01*
X73615892Y-53899500D01*
X73484108Y-53899500D01*
X73406200Y-53920375D01*
X73356809Y-53933609D01*
X73242690Y-53999496D01*
X73149496Y-54092690D01*
X73083609Y-54206809D01*
X73076428Y-54233609D01*
X73049500Y-54334108D01*
X57841922Y-54334108D01*
X57807314Y-54299500D01*
X57807311Y-54299498D01*
X57807309Y-54299496D01*
X57693189Y-54233609D01*
X57693191Y-54233609D01*
X57643799Y-54220375D01*
X57565892Y-54199500D01*
X57434108Y-54199500D01*
X57356200Y-54220375D01*
X57306809Y-54233609D01*
X57192690Y-54299496D01*
X57099496Y-54392690D01*
X57033609Y-54506809D01*
X57023996Y-54542686D01*
X56999500Y-54634108D01*
X53717257Y-54634108D01*
X53623889Y-54580202D01*
X53623890Y-54580202D01*
X53610351Y-54576574D01*
X53509309Y-54549500D01*
X53390691Y-54549500D01*
X53320567Y-54568289D01*
X53276109Y-54580202D01*
X53173391Y-54639507D01*
X53089507Y-54723391D01*
X53030202Y-54826109D01*
X53029800Y-54827609D01*
X52999500Y-54940691D01*
X46467061Y-54940691D01*
X46500500Y-54815892D01*
X46500500Y-54684108D01*
X46466392Y-54556814D01*
X46466390Y-54556811D01*
X46466390Y-54556809D01*
X46400503Y-54442690D01*
X46400501Y-54442688D01*
X46400500Y-54442686D01*
X46307314Y-54349500D01*
X46307311Y-54349498D01*
X46307309Y-54349496D01*
X46193189Y-54283609D01*
X46193191Y-54283609D01*
X46143799Y-54270375D01*
X46065892Y-54249500D01*
X45934108Y-54249500D01*
X45856200Y-54270375D01*
X45806809Y-54283609D01*
X45692690Y-54349496D01*
X45599496Y-54442690D01*
X45533609Y-54556809D01*
X45527341Y-54580202D01*
X45499500Y-54684108D01*
X42850500Y-54684108D01*
X42850500Y-54640691D01*
X42819799Y-54526114D01*
X42819797Y-54526111D01*
X42819797Y-54526109D01*
X42760492Y-54423391D01*
X42760490Y-54423389D01*
X42760489Y-54423387D01*
X42676613Y-54339511D01*
X42676610Y-54339509D01*
X42676608Y-54339507D01*
X42573889Y-54280202D01*
X42573890Y-54280202D01*
X42560351Y-54276574D01*
X42459309Y-54249500D01*
X42340691Y-54249500D01*
X42270567Y-54268289D01*
X42226109Y-54280202D01*
X42123391Y-54339507D01*
X42039507Y-54423391D01*
X41980202Y-54526109D01*
X41971976Y-54556809D01*
X41949500Y-54640691D01*
X32000500Y-54640691D01*
X32000500Y-53190691D01*
X37149500Y-53190691D01*
X37149500Y-53309309D01*
X37171306Y-53390691D01*
X37180202Y-53423890D01*
X37239507Y-53526608D01*
X37239509Y-53526610D01*
X37239511Y-53526613D01*
X37323387Y-53610489D01*
X37323389Y-53610490D01*
X37323391Y-53610492D01*
X37426110Y-53669797D01*
X37426111Y-53669797D01*
X37426114Y-53669799D01*
X37540691Y-53700500D01*
X37540693Y-53700500D01*
X37659307Y-53700500D01*
X37659309Y-53700500D01*
X37773886Y-53669799D01*
X37773888Y-53669797D01*
X37773890Y-53669797D01*
X37876608Y-53610492D01*
X37876608Y-53610491D01*
X37876613Y-53610489D01*
X37960489Y-53526613D01*
X38019799Y-53423886D01*
X38028694Y-53390691D01*
X41299500Y-53390691D01*
X41299500Y-53509309D01*
X41304137Y-53526613D01*
X41330202Y-53623890D01*
X41389507Y-53726608D01*
X41389509Y-53726610D01*
X41389511Y-53726613D01*
X41473387Y-53810489D01*
X41473389Y-53810490D01*
X41473391Y-53810492D01*
X41576110Y-53869797D01*
X41576111Y-53869797D01*
X41576114Y-53869799D01*
X41690691Y-53900500D01*
X41690693Y-53900500D01*
X41809307Y-53900500D01*
X41809309Y-53900500D01*
X41923886Y-53869799D01*
X41923888Y-53869797D01*
X41923890Y-53869797D01*
X42026608Y-53810492D01*
X42026608Y-53810491D01*
X42026613Y-53810489D01*
X42110489Y-53726613D01*
X42125455Y-53700691D01*
X60749500Y-53700691D01*
X60749500Y-53819309D01*
X60763029Y-53869799D01*
X60780202Y-53933890D01*
X60839507Y-54036608D01*
X60839509Y-54036610D01*
X60839511Y-54036613D01*
X60923387Y-54120489D01*
X60923389Y-54120490D01*
X60923391Y-54120492D01*
X61026110Y-54179797D01*
X61026111Y-54179797D01*
X61026114Y-54179799D01*
X61140691Y-54210500D01*
X61140693Y-54210500D01*
X61259307Y-54210500D01*
X61259309Y-54210500D01*
X61373886Y-54179799D01*
X61373888Y-54179797D01*
X61373890Y-54179797D01*
X61476608Y-54120492D01*
X61476608Y-54120491D01*
X61476613Y-54120489D01*
X61560489Y-54036613D01*
X61560492Y-54036608D01*
X61619797Y-53933890D01*
X61619797Y-53933888D01*
X61619799Y-53933886D01*
X61650500Y-53819309D01*
X61650500Y-53700691D01*
X61619799Y-53586114D01*
X61619797Y-53586111D01*
X61619797Y-53586109D01*
X61560492Y-53483391D01*
X61560490Y-53483389D01*
X61560489Y-53483387D01*
X61476613Y-53399511D01*
X61476610Y-53399509D01*
X61476608Y-53399507D01*
X61373889Y-53340202D01*
X61373890Y-53340202D01*
X61360351Y-53336574D01*
X61259309Y-53309500D01*
X61140691Y-53309500D01*
X61070567Y-53328289D01*
X61026109Y-53340202D01*
X60923391Y-53399507D01*
X60839507Y-53483391D01*
X60780202Y-53586109D01*
X60773669Y-53610492D01*
X60749500Y-53700691D01*
X42125455Y-53700691D01*
X42151212Y-53656080D01*
X42157782Y-53644701D01*
X42157782Y-53644700D01*
X42160482Y-53640021D01*
X42169799Y-53623886D01*
X42200500Y-53509309D01*
X42200500Y-53390691D01*
X42169799Y-53276114D01*
X42169797Y-53276111D01*
X42169797Y-53276109D01*
X42110492Y-53173391D01*
X42110490Y-53173389D01*
X42110489Y-53173387D01*
X42026613Y-53089511D01*
X42026610Y-53089509D01*
X42026608Y-53089507D01*
X41923889Y-53030202D01*
X41923890Y-53030202D01*
X41910351Y-53026574D01*
X41809309Y-52999500D01*
X41690691Y-52999500D01*
X41620567Y-53018289D01*
X41576109Y-53030202D01*
X41473391Y-53089507D01*
X41389507Y-53173391D01*
X41330202Y-53276109D01*
X41330201Y-53276114D01*
X41299500Y-53390691D01*
X38028694Y-53390691D01*
X38050500Y-53309309D01*
X38050500Y-53190691D01*
X38019799Y-53076114D01*
X38019797Y-53076111D01*
X38019797Y-53076109D01*
X37960492Y-52973391D01*
X37960490Y-52973389D01*
X37960489Y-52973387D01*
X37876613Y-52889511D01*
X37876610Y-52889509D01*
X37876608Y-52889507D01*
X37815295Y-52854108D01*
X62099500Y-52854108D01*
X62099500Y-52985892D01*
X62111373Y-53030202D01*
X62133609Y-53113190D01*
X62199496Y-53227309D01*
X62199498Y-53227311D01*
X62199500Y-53227314D01*
X62292686Y-53320500D01*
X62292688Y-53320501D01*
X62292690Y-53320503D01*
X62406810Y-53386390D01*
X62406808Y-53386390D01*
X62406812Y-53386391D01*
X62406814Y-53386392D01*
X62534108Y-53420500D01*
X62534110Y-53420500D01*
X62665890Y-53420500D01*
X62665892Y-53420500D01*
X62793186Y-53386392D01*
X62793188Y-53386390D01*
X62793190Y-53386390D01*
X62907309Y-53320503D01*
X62907309Y-53320502D01*
X62907314Y-53320500D01*
X63000500Y-53227314D01*
X63021644Y-53190692D01*
X63066390Y-53113190D01*
X63066390Y-53113188D01*
X63066392Y-53113186D01*
X63100500Y-52985892D01*
X63100500Y-52854108D01*
X63081744Y-52784108D01*
X66649500Y-52784108D01*
X66649500Y-52915892D01*
X66679579Y-53028151D01*
X66683609Y-53043190D01*
X66749496Y-53157309D01*
X66749498Y-53157311D01*
X66749500Y-53157314D01*
X66842686Y-53250500D01*
X66842688Y-53250501D01*
X66842690Y-53250503D01*
X66956810Y-53316390D01*
X66956808Y-53316390D01*
X66956812Y-53316391D01*
X66956814Y-53316392D01*
X67084108Y-53350500D01*
X67084110Y-53350500D01*
X67215890Y-53350500D01*
X67215892Y-53350500D01*
X67343186Y-53316392D01*
X67343188Y-53316390D01*
X67343190Y-53316390D01*
X67457309Y-53250503D01*
X67457309Y-53250502D01*
X67457314Y-53250500D01*
X67550500Y-53157314D01*
X67575975Y-53113190D01*
X67616390Y-53043190D01*
X67616390Y-53043188D01*
X67616392Y-53043186D01*
X67650500Y-52915892D01*
X67650500Y-52784108D01*
X67616392Y-52656814D01*
X67616390Y-52656811D01*
X67616390Y-52656809D01*
X67550503Y-52542690D01*
X67550501Y-52542688D01*
X67550500Y-52542686D01*
X67457314Y-52449500D01*
X67457311Y-52449498D01*
X67457309Y-52449496D01*
X67343189Y-52383609D01*
X67343191Y-52383609D01*
X67278927Y-52366390D01*
X67215892Y-52349500D01*
X67084108Y-52349500D01*
X67021073Y-52366390D01*
X66956809Y-52383609D01*
X66842690Y-52449496D01*
X66749496Y-52542690D01*
X66683609Y-52656809D01*
X66683608Y-52656814D01*
X66649500Y-52784108D01*
X63081744Y-52784108D01*
X63066392Y-52726814D01*
X63066390Y-52726811D01*
X63066390Y-52726809D01*
X63000503Y-52612690D01*
X63000501Y-52612688D01*
X63000500Y-52612686D01*
X62907314Y-52519500D01*
X62907311Y-52519498D01*
X62907309Y-52519496D01*
X62793189Y-52453609D01*
X62793191Y-52453609D01*
X62743799Y-52440375D01*
X62665892Y-52419500D01*
X62534108Y-52419500D01*
X62456200Y-52440375D01*
X62406809Y-52453609D01*
X62292690Y-52519496D01*
X62199496Y-52612690D01*
X62133609Y-52726809D01*
X62133608Y-52726814D01*
X62099500Y-52854108D01*
X37815295Y-52854108D01*
X37773889Y-52830202D01*
X37773890Y-52830202D01*
X37760351Y-52826574D01*
X37659309Y-52799500D01*
X37540691Y-52799500D01*
X37470567Y-52818289D01*
X37426109Y-52830202D01*
X37323391Y-52889507D01*
X37239507Y-52973391D01*
X37180202Y-53076109D01*
X37170266Y-53113190D01*
X37149500Y-53190691D01*
X32000500Y-53190691D01*
X32000500Y-51940691D01*
X51454500Y-51940691D01*
X51454500Y-52059309D01*
X51478080Y-52147309D01*
X51485202Y-52173890D01*
X51544507Y-52276608D01*
X51544509Y-52276610D01*
X51544511Y-52276613D01*
X51628387Y-52360489D01*
X51628389Y-52360490D01*
X51628391Y-52360492D01*
X51731110Y-52419797D01*
X51731111Y-52419797D01*
X51731114Y-52419799D01*
X51845691Y-52450500D01*
X51845693Y-52450500D01*
X51964307Y-52450500D01*
X51964309Y-52450500D01*
X52078886Y-52419799D01*
X52078888Y-52419797D01*
X52078890Y-52419797D01*
X52181608Y-52360492D01*
X52181608Y-52360491D01*
X52181613Y-52360489D01*
X52265489Y-52276613D01*
X52324799Y-52173886D01*
X52355500Y-52059309D01*
X52355500Y-51940691D01*
X53994500Y-51940691D01*
X53994500Y-52059309D01*
X54018080Y-52147309D01*
X54025202Y-52173890D01*
X54084507Y-52276608D01*
X54084509Y-52276610D01*
X54084511Y-52276613D01*
X54168387Y-52360489D01*
X54168389Y-52360490D01*
X54168391Y-52360492D01*
X54271110Y-52419797D01*
X54271111Y-52419797D01*
X54271114Y-52419799D01*
X54385691Y-52450500D01*
X54385693Y-52450500D01*
X54504307Y-52450500D01*
X54504309Y-52450500D01*
X54618886Y-52419799D01*
X54618888Y-52419797D01*
X54618890Y-52419797D01*
X54721608Y-52360492D01*
X54721608Y-52360491D01*
X54721613Y-52360489D01*
X54805489Y-52276613D01*
X54864799Y-52173886D01*
X54895500Y-52059309D01*
X54895500Y-51940691D01*
X55264500Y-51940691D01*
X55264500Y-52059309D01*
X55288080Y-52147309D01*
X55295202Y-52173890D01*
X55354507Y-52276608D01*
X55354509Y-52276610D01*
X55354511Y-52276613D01*
X55438387Y-52360489D01*
X55438389Y-52360490D01*
X55438391Y-52360492D01*
X55541110Y-52419797D01*
X55541111Y-52419797D01*
X55541114Y-52419799D01*
X55655691Y-52450500D01*
X55655693Y-52450500D01*
X55774307Y-52450500D01*
X55774309Y-52450500D01*
X55888886Y-52419799D01*
X55888888Y-52419797D01*
X55888890Y-52419797D01*
X55991608Y-52360492D01*
X55991608Y-52360491D01*
X55991613Y-52360489D01*
X56075489Y-52276613D01*
X56134799Y-52173886D01*
X56165500Y-52059309D01*
X56165500Y-51940691D01*
X56134799Y-51826114D01*
X56104773Y-51774108D01*
X59899500Y-51774108D01*
X59899500Y-51905892D01*
X59915577Y-51965892D01*
X59933609Y-52033190D01*
X59999496Y-52147309D01*
X59999498Y-52147311D01*
X59999500Y-52147314D01*
X60092686Y-52240500D01*
X60092688Y-52240501D01*
X60092690Y-52240503D01*
X60206810Y-52306390D01*
X60206808Y-52306390D01*
X60206812Y-52306391D01*
X60206814Y-52306392D01*
X60334108Y-52340500D01*
X60334110Y-52340500D01*
X60465890Y-52340500D01*
X60465892Y-52340500D01*
X60593186Y-52306392D01*
X60593188Y-52306390D01*
X60593190Y-52306390D01*
X60707309Y-52240503D01*
X60707309Y-52240502D01*
X60707314Y-52240500D01*
X60800500Y-52147314D01*
X60845995Y-52068515D01*
X60866390Y-52033190D01*
X60866390Y-52033188D01*
X60866392Y-52033186D01*
X60900500Y-51905892D01*
X60900500Y-51834108D01*
X71849500Y-51834108D01*
X71849500Y-51965892D01*
X71879579Y-52078151D01*
X71883609Y-52093190D01*
X71949496Y-52207309D01*
X71949498Y-52207311D01*
X71949500Y-52207314D01*
X72042686Y-52300500D01*
X72042688Y-52300501D01*
X72042690Y-52300503D01*
X72156810Y-52366390D01*
X72156808Y-52366390D01*
X72156812Y-52366391D01*
X72156814Y-52366392D01*
X72284108Y-52400500D01*
X72284110Y-52400500D01*
X72415890Y-52400500D01*
X72415892Y-52400500D01*
X72543186Y-52366392D01*
X72543188Y-52366390D01*
X72543190Y-52366390D01*
X72657309Y-52300503D01*
X72657309Y-52300502D01*
X72657314Y-52300500D01*
X72750500Y-52207314D01*
X72750503Y-52207309D01*
X72816390Y-52093190D01*
X72816390Y-52093188D01*
X72816392Y-52093186D01*
X72850500Y-51965892D01*
X72850500Y-51834108D01*
X72816392Y-51706814D01*
X72816390Y-51706811D01*
X72816390Y-51706809D01*
X72750503Y-51592690D01*
X72750501Y-51592688D01*
X72750500Y-51592686D01*
X72657314Y-51499500D01*
X72657311Y-51499498D01*
X72657309Y-51499496D01*
X72543189Y-51433609D01*
X72543191Y-51433609D01*
X72493799Y-51420375D01*
X72415892Y-51399500D01*
X72284108Y-51399500D01*
X72206200Y-51420375D01*
X72156809Y-51433609D01*
X72042690Y-51499496D01*
X71949496Y-51592690D01*
X71883609Y-51706809D01*
X71883608Y-51706814D01*
X71849500Y-51834108D01*
X60900500Y-51834108D01*
X60900500Y-51774108D01*
X60866392Y-51646814D01*
X60866390Y-51646811D01*
X60866390Y-51646809D01*
X60800503Y-51532690D01*
X60800501Y-51532688D01*
X60800500Y-51532686D01*
X60707314Y-51439500D01*
X60707311Y-51439498D01*
X60707309Y-51439496D01*
X60593189Y-51373609D01*
X60593191Y-51373609D01*
X60543799Y-51360375D01*
X60465892Y-51339500D01*
X60334108Y-51339500D01*
X60256200Y-51360375D01*
X60206809Y-51373609D01*
X60092690Y-51439496D01*
X59999496Y-51532690D01*
X59933609Y-51646809D01*
X59917531Y-51706814D01*
X59899500Y-51774108D01*
X56104773Y-51774108D01*
X56075489Y-51723387D01*
X55991613Y-51639511D01*
X55991610Y-51639509D01*
X55991608Y-51639507D01*
X55888889Y-51580202D01*
X55888890Y-51580202D01*
X55875351Y-51576574D01*
X55774309Y-51549500D01*
X55655691Y-51549500D01*
X55585567Y-51568289D01*
X55541109Y-51580202D01*
X55438391Y-51639507D01*
X55354507Y-51723391D01*
X55295202Y-51826109D01*
X55278037Y-51890169D01*
X55264500Y-51940691D01*
X54895500Y-51940691D01*
X54864799Y-51826114D01*
X54864797Y-51826111D01*
X54864797Y-51826109D01*
X54805492Y-51723391D01*
X54805490Y-51723389D01*
X54805489Y-51723387D01*
X54721613Y-51639511D01*
X54721610Y-51639509D01*
X54721608Y-51639507D01*
X54618889Y-51580202D01*
X54618890Y-51580202D01*
X54605351Y-51576574D01*
X54504309Y-51549500D01*
X54385691Y-51549500D01*
X54315567Y-51568289D01*
X54271109Y-51580202D01*
X54168391Y-51639507D01*
X54084507Y-51723391D01*
X54025202Y-51826109D01*
X54008037Y-51890169D01*
X53994500Y-51940691D01*
X52355500Y-51940691D01*
X52324799Y-51826114D01*
X52324797Y-51826111D01*
X52324797Y-51826109D01*
X52265492Y-51723391D01*
X52265490Y-51723389D01*
X52265489Y-51723387D01*
X52181613Y-51639511D01*
X52181610Y-51639509D01*
X52181608Y-51639507D01*
X52078889Y-51580202D01*
X52078890Y-51580202D01*
X52065351Y-51576574D01*
X51964309Y-51549500D01*
X51845691Y-51549500D01*
X51775567Y-51568289D01*
X51731109Y-51580202D01*
X51628391Y-51639507D01*
X51544507Y-51723391D01*
X51485202Y-51826109D01*
X51468037Y-51890169D01*
X51454500Y-51940691D01*
X32000500Y-51940691D01*
X32000500Y-50384108D01*
X51049500Y-50384108D01*
X51049500Y-50515892D01*
X51073995Y-50607309D01*
X51083609Y-50643190D01*
X51149496Y-50757309D01*
X51149498Y-50757311D01*
X51149500Y-50757314D01*
X51242686Y-50850500D01*
X51242688Y-50850501D01*
X51242690Y-50850503D01*
X51356810Y-50916390D01*
X51356808Y-50916390D01*
X51356812Y-50916391D01*
X51356814Y-50916392D01*
X51484108Y-50950500D01*
X51484110Y-50950500D01*
X51615890Y-50950500D01*
X51615892Y-50950500D01*
X51743186Y-50916392D01*
X51743188Y-50916390D01*
X51743190Y-50916390D01*
X51857309Y-50850503D01*
X51857309Y-50850502D01*
X51857314Y-50850500D01*
X51950500Y-50757314D01*
X52016392Y-50643186D01*
X52050500Y-50515892D01*
X52050500Y-50384108D01*
X52016392Y-50256814D01*
X52016389Y-50256808D01*
X52003283Y-50234108D01*
X54499500Y-50234108D01*
X54499500Y-50365892D01*
X54529579Y-50478151D01*
X54533609Y-50493190D01*
X54599496Y-50607309D01*
X54599498Y-50607311D01*
X54599500Y-50607314D01*
X54692686Y-50700500D01*
X54692688Y-50700501D01*
X54692690Y-50700503D01*
X54806810Y-50766390D01*
X54806808Y-50766390D01*
X54806812Y-50766391D01*
X54806814Y-50766392D01*
X54934108Y-50800500D01*
X54934110Y-50800500D01*
X55065890Y-50800500D01*
X55065892Y-50800500D01*
X55193186Y-50766392D01*
X55193188Y-50766390D01*
X55193190Y-50766390D01*
X55307309Y-50700503D01*
X55307309Y-50700502D01*
X55307314Y-50700500D01*
X55400500Y-50607314D01*
X55466392Y-50493186D01*
X55500500Y-50365892D01*
X55500500Y-50234108D01*
X55466392Y-50106814D01*
X55466390Y-50106811D01*
X55466390Y-50106809D01*
X55400503Y-49992690D01*
X55400501Y-49992688D01*
X55400500Y-49992686D01*
X55307314Y-49899500D01*
X55307311Y-49899498D01*
X55307309Y-49899496D01*
X55193189Y-49833609D01*
X55193191Y-49833609D01*
X55143799Y-49820375D01*
X55065892Y-49799500D01*
X54934108Y-49799500D01*
X54856200Y-49820375D01*
X54806809Y-49833609D01*
X54692690Y-49899496D01*
X54599496Y-49992690D01*
X54533609Y-50106809D01*
X54533608Y-50106814D01*
X54499500Y-50234108D01*
X52003283Y-50234108D01*
X51950503Y-50142690D01*
X51950501Y-50142688D01*
X51950500Y-50142686D01*
X51857314Y-50049500D01*
X51857311Y-50049498D01*
X51857309Y-50049496D01*
X51743189Y-49983609D01*
X51743191Y-49983609D01*
X51693799Y-49970375D01*
X51615892Y-49949500D01*
X51484108Y-49949500D01*
X51406200Y-49970375D01*
X51356809Y-49983609D01*
X51242690Y-50049496D01*
X51149496Y-50142690D01*
X51083609Y-50256809D01*
X51083608Y-50256814D01*
X51049500Y-50384108D01*
X32000500Y-50384108D01*
X32000500Y-48040691D01*
X39649500Y-48040691D01*
X39649500Y-48159309D01*
X39666670Y-48223387D01*
X39680202Y-48273890D01*
X39739507Y-48376608D01*
X39739509Y-48376610D01*
X39739511Y-48376613D01*
X39823387Y-48460489D01*
X39823389Y-48460490D01*
X39823391Y-48460492D01*
X39926110Y-48519797D01*
X39926111Y-48519797D01*
X39926114Y-48519799D01*
X40040691Y-48550500D01*
X40040693Y-48550500D01*
X40159307Y-48550500D01*
X40159309Y-48550500D01*
X40273886Y-48519799D01*
X40273888Y-48519797D01*
X40273890Y-48519797D01*
X40376608Y-48460492D01*
X40376608Y-48460491D01*
X40376613Y-48460489D01*
X40396411Y-48440691D01*
X54349500Y-48440691D01*
X54349500Y-48559309D01*
X54370989Y-48639507D01*
X54380202Y-48673890D01*
X54439507Y-48776608D01*
X54439509Y-48776610D01*
X54439511Y-48776613D01*
X54523387Y-48860489D01*
X54523389Y-48860490D01*
X54523391Y-48860492D01*
X54626110Y-48919797D01*
X54626111Y-48919797D01*
X54626114Y-48919799D01*
X54740691Y-48950500D01*
X54740693Y-48950500D01*
X54859307Y-48950500D01*
X54859309Y-48950500D01*
X54895916Y-48940691D01*
X56949500Y-48940691D01*
X56949500Y-49059309D01*
X56976574Y-49160351D01*
X56980202Y-49173890D01*
X57039507Y-49276608D01*
X57039509Y-49276610D01*
X57039511Y-49276613D01*
X57123387Y-49360489D01*
X57123389Y-49360490D01*
X57123391Y-49360492D01*
X57226110Y-49419797D01*
X57226111Y-49419797D01*
X57226114Y-49419799D01*
X57340691Y-49450500D01*
X57340693Y-49450500D01*
X57459307Y-49450500D01*
X57459309Y-49450500D01*
X57573886Y-49419799D01*
X57573888Y-49419797D01*
X57573890Y-49419797D01*
X57676608Y-49360492D01*
X57676608Y-49360491D01*
X57676613Y-49360489D01*
X57760489Y-49276613D01*
X57760492Y-49276608D01*
X57781229Y-49240691D01*
X58349500Y-49240691D01*
X58349500Y-49359309D01*
X58373935Y-49450500D01*
X58380202Y-49473890D01*
X58439507Y-49576608D01*
X58439509Y-49576610D01*
X58439511Y-49576613D01*
X58523387Y-49660489D01*
X58523389Y-49660490D01*
X58523391Y-49660492D01*
X58626110Y-49719797D01*
X58626111Y-49719797D01*
X58626114Y-49719799D01*
X58740691Y-49750500D01*
X58740693Y-49750500D01*
X58859307Y-49750500D01*
X58859309Y-49750500D01*
X58973886Y-49719799D01*
X58973888Y-49719797D01*
X58973890Y-49719797D01*
X59076608Y-49660492D01*
X59076608Y-49660491D01*
X59076613Y-49660489D01*
X59160489Y-49576613D01*
X59219799Y-49473886D01*
X59250500Y-49359309D01*
X59250500Y-49240691D01*
X59219799Y-49126114D01*
X59219797Y-49126111D01*
X59219797Y-49126109D01*
X59160492Y-49023391D01*
X59160490Y-49023389D01*
X59160489Y-49023387D01*
X59076613Y-48939511D01*
X59076610Y-48939509D01*
X59076608Y-48939507D01*
X58973889Y-48880202D01*
X58973890Y-48880202D01*
X58960351Y-48876574D01*
X58859309Y-48849500D01*
X58740691Y-48849500D01*
X58699669Y-48860492D01*
X58626109Y-48880202D01*
X58523391Y-48939507D01*
X58439507Y-49023391D01*
X58380202Y-49126109D01*
X58380201Y-49126114D01*
X58349500Y-49240691D01*
X57781229Y-49240691D01*
X57813555Y-49184702D01*
X57813555Y-49184701D01*
X57814214Y-49183558D01*
X57819799Y-49173886D01*
X57850500Y-49059309D01*
X57850500Y-48940691D01*
X57819799Y-48826114D01*
X57819797Y-48826111D01*
X57819797Y-48826109D01*
X57760492Y-48723391D01*
X57760490Y-48723389D01*
X57760489Y-48723387D01*
X57676613Y-48639511D01*
X57676610Y-48639509D01*
X57676608Y-48639507D01*
X57573889Y-48580202D01*
X57573890Y-48580202D01*
X57560351Y-48576574D01*
X57459309Y-48549500D01*
X57340691Y-48549500D01*
X57304084Y-48559309D01*
X57226109Y-48580202D01*
X57123391Y-48639507D01*
X57039507Y-48723391D01*
X56980202Y-48826109D01*
X56970990Y-48860489D01*
X56949500Y-48940691D01*
X54895916Y-48940691D01*
X54973886Y-48919799D01*
X54973888Y-48919797D01*
X54973890Y-48919797D01*
X55076608Y-48860492D01*
X55076608Y-48860491D01*
X55076613Y-48860489D01*
X55160489Y-48776613D01*
X55191217Y-48723391D01*
X55219797Y-48673890D01*
X55219797Y-48673888D01*
X55219799Y-48673886D01*
X55250500Y-48559309D01*
X55250500Y-48440691D01*
X55219799Y-48326114D01*
X55219797Y-48326111D01*
X55219797Y-48326109D01*
X55160492Y-48223391D01*
X55160490Y-48223389D01*
X55160489Y-48223387D01*
X55076613Y-48139511D01*
X55076610Y-48139509D01*
X55076608Y-48139507D01*
X54973889Y-48080202D01*
X54973890Y-48080202D01*
X54960351Y-48076574D01*
X54859309Y-48049500D01*
X54740691Y-48049500D01*
X54670567Y-48068289D01*
X54626109Y-48080202D01*
X54523391Y-48139507D01*
X54439507Y-48223391D01*
X54380202Y-48326109D01*
X54380201Y-48326114D01*
X54349500Y-48440691D01*
X40396411Y-48440691D01*
X40460489Y-48376613D01*
X40519799Y-48273886D01*
X40550500Y-48159309D01*
X40550500Y-48040691D01*
X40519799Y-47926114D01*
X40519797Y-47926111D01*
X40519797Y-47926109D01*
X40460492Y-47823391D01*
X40460490Y-47823389D01*
X40460489Y-47823387D01*
X40376613Y-47739511D01*
X40376610Y-47739509D01*
X40376608Y-47739507D01*
X40273889Y-47680202D01*
X40273890Y-47680202D01*
X40260351Y-47676574D01*
X40159309Y-47649500D01*
X40040691Y-47649500D01*
X39999669Y-47660492D01*
X39926109Y-47680202D01*
X39823391Y-47739507D01*
X39739507Y-47823391D01*
X39680202Y-47926109D01*
X39663037Y-47990169D01*
X39649500Y-48040691D01*
X32000500Y-48040691D01*
X32000500Y-47240691D01*
X56649500Y-47240691D01*
X56649500Y-47359309D01*
X56676574Y-47460351D01*
X56680202Y-47473890D01*
X56739507Y-47576608D01*
X56739509Y-47576610D01*
X56739511Y-47576613D01*
X56823387Y-47660489D01*
X56823389Y-47660490D01*
X56823391Y-47660492D01*
X56926110Y-47719797D01*
X56926111Y-47719797D01*
X56926114Y-47719799D01*
X57040691Y-47750500D01*
X57040693Y-47750500D01*
X57159307Y-47750500D01*
X57159309Y-47750500D01*
X57273886Y-47719799D01*
X57273888Y-47719797D01*
X57273890Y-47719797D01*
X57376608Y-47660492D01*
X57376608Y-47660491D01*
X57376613Y-47660489D01*
X57460489Y-47576613D01*
X57519799Y-47473886D01*
X57550500Y-47359309D01*
X57550500Y-47240691D01*
X57519799Y-47126114D01*
X57519797Y-47126111D01*
X57519797Y-47126109D01*
X57460492Y-47023391D01*
X57460490Y-47023389D01*
X57460489Y-47023387D01*
X57376613Y-46939511D01*
X57376610Y-46939509D01*
X57376608Y-46939507D01*
X57273889Y-46880202D01*
X57273890Y-46880202D01*
X57260351Y-46876574D01*
X57159309Y-46849500D01*
X57040691Y-46849500D01*
X56970567Y-46868289D01*
X56926109Y-46880202D01*
X56823391Y-46939507D01*
X56739507Y-47023391D01*
X56680202Y-47126109D01*
X56680201Y-47126114D01*
X56649500Y-47240691D01*
X32000500Y-47240691D01*
X32000500Y-46084108D01*
X59649500Y-46084108D01*
X59649500Y-46215892D01*
X59679579Y-46328151D01*
X59683609Y-46343190D01*
X59749496Y-46457309D01*
X59749498Y-46457311D01*
X59749500Y-46457314D01*
X59842686Y-46550500D01*
X59842688Y-46550501D01*
X59842690Y-46550503D01*
X59956810Y-46616390D01*
X59956808Y-46616390D01*
X59956812Y-46616391D01*
X59956814Y-46616392D01*
X60084108Y-46650500D01*
X60084110Y-46650500D01*
X60215890Y-46650500D01*
X60215892Y-46650500D01*
X60343186Y-46616392D01*
X60343188Y-46616390D01*
X60343190Y-46616390D01*
X60457309Y-46550503D01*
X60457309Y-46550502D01*
X60457314Y-46550500D01*
X60550500Y-46457314D01*
X60616392Y-46343186D01*
X60650500Y-46215892D01*
X60650500Y-46084108D01*
X60616392Y-45956814D01*
X60616390Y-45956811D01*
X60616390Y-45956809D01*
X60550503Y-45842690D01*
X60550501Y-45842688D01*
X60550500Y-45842686D01*
X60457314Y-45749500D01*
X60457311Y-45749498D01*
X60457309Y-45749496D01*
X60343189Y-45683609D01*
X60343191Y-45683609D01*
X60293799Y-45670375D01*
X60215892Y-45649500D01*
X60084108Y-45649500D01*
X60006200Y-45670375D01*
X59956809Y-45683609D01*
X59842690Y-45749496D01*
X59749496Y-45842690D01*
X59683609Y-45956809D01*
X59683608Y-45956814D01*
X59649500Y-46084108D01*
X32000500Y-46084108D01*
X32000500Y-45178691D01*
X40649500Y-45178691D01*
X40649500Y-45297309D01*
X40676574Y-45398351D01*
X40680202Y-45411890D01*
X40739507Y-45514608D01*
X40739509Y-45514610D01*
X40739511Y-45514613D01*
X40823387Y-45598489D01*
X40823389Y-45598490D01*
X40823391Y-45598492D01*
X40926110Y-45657797D01*
X40926111Y-45657797D01*
X40926114Y-45657799D01*
X41040691Y-45688500D01*
X41040693Y-45688500D01*
X41159307Y-45688500D01*
X41159309Y-45688500D01*
X41273886Y-45657799D01*
X41273888Y-45657797D01*
X41273890Y-45657797D01*
X41376608Y-45598492D01*
X41376608Y-45598491D01*
X41376613Y-45598489D01*
X41460489Y-45514613D01*
X41478101Y-45484108D01*
X58299500Y-45484108D01*
X58299500Y-45615892D01*
X58310729Y-45657799D01*
X58333609Y-45743190D01*
X58399496Y-45857309D01*
X58399498Y-45857311D01*
X58399500Y-45857314D01*
X58492686Y-45950500D01*
X58492688Y-45950501D01*
X58492690Y-45950503D01*
X58606810Y-46016390D01*
X58606808Y-46016390D01*
X58606812Y-46016391D01*
X58606814Y-46016392D01*
X58734108Y-46050500D01*
X58734110Y-46050500D01*
X58865890Y-46050500D01*
X58865892Y-46050500D01*
X58993186Y-46016392D01*
X58993188Y-46016390D01*
X58993190Y-46016390D01*
X59035638Y-45991883D01*
X59107309Y-45950503D01*
X59107309Y-45950502D01*
X59107314Y-45950500D01*
X59200500Y-45857314D01*
X59266392Y-45743186D01*
X59300500Y-45615892D01*
X59300500Y-45484108D01*
X59266392Y-45356814D01*
X59266390Y-45356811D01*
X59266390Y-45356809D01*
X59200503Y-45242690D01*
X59200501Y-45242688D01*
X59200500Y-45242686D01*
X59107314Y-45149500D01*
X59107311Y-45149498D01*
X59107309Y-45149496D01*
X58993189Y-45083609D01*
X58993191Y-45083609D01*
X58943799Y-45070375D01*
X58865892Y-45049500D01*
X58734108Y-45049500D01*
X58656200Y-45070375D01*
X58606809Y-45083609D01*
X58492690Y-45149496D01*
X58399496Y-45242690D01*
X58333609Y-45356809D01*
X58314539Y-45427978D01*
X58299500Y-45484108D01*
X41478101Y-45484108D01*
X41487237Y-45468283D01*
X41510428Y-45428118D01*
X41510428Y-45428117D01*
X41512080Y-45425255D01*
X41519799Y-45411886D01*
X41550500Y-45297309D01*
X41550500Y-45178691D01*
X41519799Y-45064114D01*
X41519797Y-45064111D01*
X41519797Y-45064109D01*
X41460492Y-44961391D01*
X41460490Y-44961389D01*
X41460489Y-44961387D01*
X41376613Y-44877511D01*
X41376610Y-44877509D01*
X41352095Y-44863355D01*
X41352093Y-44863353D01*
X41273889Y-44818202D01*
X41273890Y-44818202D01*
X41260351Y-44814574D01*
X41159309Y-44787500D01*
X41040691Y-44787500D01*
X40970567Y-44806289D01*
X40926109Y-44818202D01*
X40823391Y-44877507D01*
X40739507Y-44961391D01*
X40680202Y-45064109D01*
X40663037Y-45128169D01*
X40649500Y-45178691D01*
X32000500Y-45178691D01*
X32000500Y-44784108D01*
X47749500Y-44784108D01*
X47749500Y-44915892D01*
X47770211Y-44993186D01*
X47783609Y-45043190D01*
X47849496Y-45157309D01*
X47849498Y-45157311D01*
X47849500Y-45157314D01*
X47942686Y-45250500D01*
X47942688Y-45250501D01*
X47942690Y-45250503D01*
X48056810Y-45316390D01*
X48056808Y-45316390D01*
X48056812Y-45316391D01*
X48056814Y-45316392D01*
X48184108Y-45350500D01*
X48184110Y-45350500D01*
X48315890Y-45350500D01*
X48315892Y-45350500D01*
X48443186Y-45316392D01*
X48443188Y-45316390D01*
X48443190Y-45316390D01*
X48557309Y-45250503D01*
X48557309Y-45250502D01*
X48557314Y-45250500D01*
X48650500Y-45157314D01*
X48650503Y-45157309D01*
X48716390Y-45043190D01*
X48716390Y-45043188D01*
X48716392Y-45043186D01*
X48750500Y-44915892D01*
X48750500Y-44784108D01*
X48737103Y-44734108D01*
X54249500Y-44734108D01*
X54249500Y-44865892D01*
X54275088Y-44961387D01*
X54283609Y-44993190D01*
X54349496Y-45107309D01*
X54349498Y-45107311D01*
X54349500Y-45107314D01*
X54442686Y-45200500D01*
X54442688Y-45200501D01*
X54442690Y-45200503D01*
X54556810Y-45266390D01*
X54556808Y-45266390D01*
X54556812Y-45266391D01*
X54556814Y-45266392D01*
X54684108Y-45300500D01*
X54684110Y-45300500D01*
X54815890Y-45300500D01*
X54815892Y-45300500D01*
X54943186Y-45266392D01*
X54943188Y-45266390D01*
X54943190Y-45266390D01*
X55057309Y-45200503D01*
X55057309Y-45200502D01*
X55057314Y-45200500D01*
X55150500Y-45107314D01*
X55175442Y-45064114D01*
X55216390Y-44993190D01*
X55216390Y-44993188D01*
X55216392Y-44993186D01*
X55250500Y-44865892D01*
X55250500Y-44734108D01*
X55216392Y-44606814D01*
X55216390Y-44606811D01*
X55216390Y-44606809D01*
X55150503Y-44492690D01*
X55150501Y-44492688D01*
X55150500Y-44492686D01*
X55057314Y-44399500D01*
X55057311Y-44399498D01*
X55057309Y-44399496D01*
X54943189Y-44333609D01*
X54943191Y-44333609D01*
X54893799Y-44320375D01*
X54815892Y-44299500D01*
X54684108Y-44299500D01*
X54606200Y-44320375D01*
X54556809Y-44333609D01*
X54442690Y-44399496D01*
X54349496Y-44492690D01*
X54283609Y-44606809D01*
X54283608Y-44606814D01*
X54249500Y-44734108D01*
X48737103Y-44734108D01*
X48716392Y-44656814D01*
X48716390Y-44656811D01*
X48716390Y-44656809D01*
X48650503Y-44542690D01*
X48650501Y-44542688D01*
X48650500Y-44542686D01*
X48557314Y-44449500D01*
X48557311Y-44449498D01*
X48557309Y-44449496D01*
X48443189Y-44383609D01*
X48443191Y-44383609D01*
X48393799Y-44370375D01*
X48315892Y-44349500D01*
X48184108Y-44349500D01*
X48106200Y-44370375D01*
X48056809Y-44383609D01*
X47942690Y-44449496D01*
X47849496Y-44542690D01*
X47783609Y-44656809D01*
X47771902Y-44700500D01*
X47749500Y-44784108D01*
X32000500Y-44784108D01*
X32000500Y-44710438D01*
X32000500Y-44665864D01*
X31965514Y-44501269D01*
X31897072Y-44347546D01*
X31798164Y-44211411D01*
X31798160Y-44211407D01*
X31798159Y-44211406D01*
X31775153Y-44190691D01*
X51749500Y-44190691D01*
X51749500Y-44309309D01*
X51769409Y-44383609D01*
X51780202Y-44423890D01*
X51839507Y-44526608D01*
X51839509Y-44526610D01*
X51839511Y-44526613D01*
X51923387Y-44610489D01*
X51923389Y-44610490D01*
X51923391Y-44610492D01*
X52026110Y-44669797D01*
X52026111Y-44669797D01*
X52026114Y-44669799D01*
X52140691Y-44700500D01*
X52140693Y-44700500D01*
X52259307Y-44700500D01*
X52259309Y-44700500D01*
X52373886Y-44669799D01*
X52373888Y-44669797D01*
X52373890Y-44669797D01*
X52422239Y-44641883D01*
X52476608Y-44610492D01*
X52476608Y-44610491D01*
X52476613Y-44610489D01*
X52560489Y-44526613D01*
X52575120Y-44501272D01*
X52619797Y-44423890D01*
X52619797Y-44423888D01*
X52619799Y-44423886D01*
X52650500Y-44309309D01*
X52650500Y-44190691D01*
X52619799Y-44076114D01*
X52619797Y-44076111D01*
X52619797Y-44076109D01*
X52560492Y-43973391D01*
X52560490Y-43973389D01*
X52560489Y-43973387D01*
X52476613Y-43889511D01*
X52476610Y-43889509D01*
X52476608Y-43889507D01*
X52373889Y-43830202D01*
X52373890Y-43830202D01*
X52360351Y-43826574D01*
X52259309Y-43799500D01*
X52140691Y-43799500D01*
X52070567Y-43818289D01*
X52026109Y-43830202D01*
X51923391Y-43889507D01*
X51839507Y-43973391D01*
X51780202Y-44076109D01*
X51763037Y-44140169D01*
X51749500Y-44190691D01*
X31775153Y-44190691D01*
X31673116Y-44098817D01*
X31673114Y-44098815D01*
X31633786Y-44076109D01*
X31527395Y-44014683D01*
X31527390Y-44014681D01*
X31527388Y-44014680D01*
X31527386Y-44014679D01*
X31367350Y-43962680D01*
X31200000Y-43945091D01*
X31032649Y-43962680D01*
X30958396Y-43986806D01*
X30872614Y-44014679D01*
X30872612Y-44014679D01*
X30872609Y-44014681D01*
X30872604Y-44014683D01*
X30726889Y-44098813D01*
X30726883Y-44098817D01*
X30601840Y-44211406D01*
X30601839Y-44211406D01*
X30502926Y-44347549D01*
X30502924Y-44347552D01*
X30434487Y-44501266D01*
X30434485Y-44501272D01*
X30421809Y-44560909D01*
X30399500Y-44665864D01*
X25169809Y-44665864D01*
X25354044Y-43857130D01*
X25355013Y-43853245D01*
X25610939Y-42909108D01*
X69199500Y-42909108D01*
X69199500Y-43040892D01*
X69229579Y-43153151D01*
X69233609Y-43168190D01*
X69299496Y-43282309D01*
X69299498Y-43282311D01*
X69299500Y-43282314D01*
X69392686Y-43375500D01*
X69392688Y-43375501D01*
X69392690Y-43375503D01*
X69506810Y-43441390D01*
X69506808Y-43441390D01*
X69506812Y-43441391D01*
X69506814Y-43441392D01*
X69634108Y-43475500D01*
X69634110Y-43475500D01*
X69765890Y-43475500D01*
X69765892Y-43475500D01*
X69893186Y-43441392D01*
X69893188Y-43441390D01*
X69893190Y-43441390D01*
X70007309Y-43375503D01*
X70007309Y-43375502D01*
X70007314Y-43375500D01*
X70100500Y-43282314D01*
X70166392Y-43168186D01*
X70200500Y-43040892D01*
X70200500Y-42909108D01*
X70166392Y-42781814D01*
X70166390Y-42781811D01*
X70166390Y-42781809D01*
X70100503Y-42667690D01*
X70100501Y-42667688D01*
X70100500Y-42667686D01*
X70007314Y-42574500D01*
X70007311Y-42574498D01*
X70007309Y-42574496D01*
X69893189Y-42508609D01*
X69893191Y-42508609D01*
X69843799Y-42495375D01*
X69765892Y-42474500D01*
X69634108Y-42474500D01*
X69556200Y-42495375D01*
X69506809Y-42508609D01*
X69392690Y-42574496D01*
X69299496Y-42667690D01*
X69233609Y-42781809D01*
X69233608Y-42781814D01*
X69199500Y-42909108D01*
X25610939Y-42909108D01*
X25624579Y-42858790D01*
X25625692Y-42854995D01*
X25882441Y-42040691D01*
X28649500Y-42040691D01*
X28649500Y-42159309D01*
X28669543Y-42234109D01*
X28680202Y-42273890D01*
X28739507Y-42376608D01*
X28739509Y-42376610D01*
X28739511Y-42376613D01*
X28823387Y-42460489D01*
X28823389Y-42460490D01*
X28823391Y-42460492D01*
X28926110Y-42519797D01*
X28926111Y-42519797D01*
X28926114Y-42519799D01*
X29040691Y-42550500D01*
X29040693Y-42550500D01*
X29159307Y-42550500D01*
X29159309Y-42550500D01*
X29273886Y-42519799D01*
X29273888Y-42519797D01*
X29273890Y-42519797D01*
X29376608Y-42460492D01*
X29376608Y-42460491D01*
X29376613Y-42460489D01*
X29460489Y-42376613D01*
X29494726Y-42317314D01*
X29519797Y-42273890D01*
X29519797Y-42273888D01*
X29519799Y-42273886D01*
X29530458Y-42234108D01*
X41199500Y-42234108D01*
X41199500Y-42365892D01*
X41224847Y-42460489D01*
X41233609Y-42493190D01*
X41299496Y-42607309D01*
X41299498Y-42607311D01*
X41299500Y-42607314D01*
X41392686Y-42700500D01*
X41392688Y-42700501D01*
X41392690Y-42700503D01*
X41506810Y-42766390D01*
X41506808Y-42766390D01*
X41506812Y-42766391D01*
X41506814Y-42766392D01*
X41634108Y-42800500D01*
X41634110Y-42800500D01*
X41765890Y-42800500D01*
X41765892Y-42800500D01*
X41893186Y-42766392D01*
X41893188Y-42766390D01*
X41893190Y-42766390D01*
X42007309Y-42700503D01*
X42007309Y-42700502D01*
X42007314Y-42700500D01*
X42100500Y-42607314D01*
X42157488Y-42508608D01*
X42166390Y-42493190D01*
X42166390Y-42493188D01*
X42166392Y-42493186D01*
X42200500Y-42365892D01*
X42200500Y-42234108D01*
X42166392Y-42106814D01*
X42142764Y-42065890D01*
X42128216Y-42040691D01*
X42100500Y-41992686D01*
X42051922Y-41944108D01*
X49999500Y-41944108D01*
X49999500Y-42075892D01*
X50021851Y-42159307D01*
X50033609Y-42203190D01*
X50099496Y-42317309D01*
X50099498Y-42317311D01*
X50099500Y-42317314D01*
X50192686Y-42410500D01*
X50192688Y-42410501D01*
X50192690Y-42410503D01*
X50306810Y-42476390D01*
X50306808Y-42476390D01*
X50306812Y-42476391D01*
X50306814Y-42476392D01*
X50434108Y-42510500D01*
X50434110Y-42510500D01*
X50565890Y-42510500D01*
X50565892Y-42510500D01*
X50693186Y-42476392D01*
X50693188Y-42476390D01*
X50693190Y-42476390D01*
X50807309Y-42410503D01*
X50807309Y-42410502D01*
X50807314Y-42410500D01*
X50900500Y-42317314D01*
X50906274Y-42307314D01*
X50966390Y-42203190D01*
X50966390Y-42203188D01*
X50966392Y-42203186D01*
X51000500Y-42075892D01*
X51000500Y-41944108D01*
X50997821Y-41934108D01*
X61649500Y-41934108D01*
X61649500Y-42065892D01*
X61660465Y-42106814D01*
X61683609Y-42193190D01*
X61749496Y-42307309D01*
X61749498Y-42307311D01*
X61749500Y-42307314D01*
X61842686Y-42400500D01*
X61842688Y-42400501D01*
X61842690Y-42400503D01*
X61956810Y-42466390D01*
X61956808Y-42466390D01*
X61956812Y-42466391D01*
X61956814Y-42466392D01*
X62084108Y-42500500D01*
X62084110Y-42500500D01*
X62215890Y-42500500D01*
X62215892Y-42500500D01*
X62343186Y-42466392D01*
X62343188Y-42466390D01*
X62343190Y-42466390D01*
X62457309Y-42400503D01*
X62457309Y-42400502D01*
X62457314Y-42400500D01*
X62550500Y-42307314D01*
X62554434Y-42300500D01*
X62616390Y-42193190D01*
X62616390Y-42193188D01*
X62616392Y-42193186D01*
X62650500Y-42065892D01*
X62650500Y-41934108D01*
X62623705Y-41834108D01*
X72749500Y-41834108D01*
X72749500Y-41965892D01*
X72776294Y-42065890D01*
X72783609Y-42093190D01*
X72849496Y-42207309D01*
X72849498Y-42207311D01*
X72849500Y-42207314D01*
X72942686Y-42300500D01*
X72942688Y-42300501D01*
X72942690Y-42300503D01*
X73056810Y-42366390D01*
X73056808Y-42366390D01*
X73056812Y-42366391D01*
X73056814Y-42366392D01*
X73184108Y-42400500D01*
X73184110Y-42400500D01*
X73315890Y-42400500D01*
X73315892Y-42400500D01*
X73443186Y-42366392D01*
X73443188Y-42366390D01*
X73443190Y-42366390D01*
X73557309Y-42300503D01*
X73557309Y-42300502D01*
X73557314Y-42300500D01*
X73650500Y-42207314D01*
X73678216Y-42159309D01*
X73716390Y-42093190D01*
X73716390Y-42093188D01*
X73716392Y-42093186D01*
X73750500Y-41965892D01*
X73750500Y-41834108D01*
X73716392Y-41706814D01*
X73716390Y-41706811D01*
X73716390Y-41706809D01*
X73650503Y-41592690D01*
X73650501Y-41592688D01*
X73650500Y-41592686D01*
X73557314Y-41499500D01*
X73557311Y-41499498D01*
X73557309Y-41499496D01*
X73443189Y-41433609D01*
X73443191Y-41433609D01*
X73393799Y-41420375D01*
X73315892Y-41399500D01*
X73184108Y-41399500D01*
X73106200Y-41420375D01*
X73056809Y-41433609D01*
X72942690Y-41499496D01*
X72849496Y-41592690D01*
X72783609Y-41706809D01*
X72783608Y-41706814D01*
X72749500Y-41834108D01*
X62623705Y-41834108D01*
X62616392Y-41806814D01*
X62616390Y-41806811D01*
X62616390Y-41806809D01*
X62550503Y-41692690D01*
X62550501Y-41692688D01*
X62550500Y-41692686D01*
X62457314Y-41599500D01*
X62457311Y-41599498D01*
X62457309Y-41599496D01*
X62343189Y-41533609D01*
X62343191Y-41533609D01*
X62293799Y-41520375D01*
X62215892Y-41499500D01*
X62084108Y-41499500D01*
X62006200Y-41520375D01*
X61956809Y-41533609D01*
X61842690Y-41599496D01*
X61749496Y-41692690D01*
X61683609Y-41806809D01*
X61676294Y-41834109D01*
X61649500Y-41934108D01*
X50997821Y-41934108D01*
X50966392Y-41816814D01*
X50966390Y-41816811D01*
X50966390Y-41816809D01*
X50900503Y-41702690D01*
X50900501Y-41702688D01*
X50900500Y-41702686D01*
X50807314Y-41609500D01*
X50807311Y-41609498D01*
X50807309Y-41609496D01*
X50693189Y-41543609D01*
X50693191Y-41543609D01*
X50643799Y-41530375D01*
X50565892Y-41509500D01*
X50434108Y-41509500D01*
X50356200Y-41530375D01*
X50306809Y-41543609D01*
X50192690Y-41609496D01*
X50099496Y-41702690D01*
X50033609Y-41816809D01*
X50019242Y-41870428D01*
X49999500Y-41944108D01*
X42051922Y-41944108D01*
X42007314Y-41899500D01*
X42007311Y-41899498D01*
X42007309Y-41899496D01*
X41893189Y-41833609D01*
X41893191Y-41833609D01*
X41830509Y-41816814D01*
X41765892Y-41799500D01*
X41634108Y-41799500D01*
X41569491Y-41816814D01*
X41506809Y-41833609D01*
X41392690Y-41899496D01*
X41299496Y-41992690D01*
X41233609Y-42106809D01*
X41233608Y-42106814D01*
X41199500Y-42234108D01*
X29530458Y-42234108D01*
X29550500Y-42159309D01*
X29550500Y-42040691D01*
X29519799Y-41926114D01*
X29519797Y-41926111D01*
X29519797Y-41926109D01*
X29460492Y-41823391D01*
X29460490Y-41823389D01*
X29460489Y-41823387D01*
X29376613Y-41739511D01*
X29376610Y-41739509D01*
X29376608Y-41739507D01*
X29273889Y-41680202D01*
X29273890Y-41680202D01*
X29260351Y-41676574D01*
X29159309Y-41649500D01*
X29040691Y-41649500D01*
X28970567Y-41668289D01*
X28926109Y-41680202D01*
X28823391Y-41739507D01*
X28739507Y-41823391D01*
X28680202Y-41926109D01*
X28675379Y-41944108D01*
X28649500Y-42040691D01*
X25882441Y-42040691D01*
X25935528Y-41872321D01*
X25936795Y-41868568D01*
X26286393Y-40899293D01*
X26287797Y-40895636D01*
X26452777Y-40490691D01*
X32949500Y-40490691D01*
X32949500Y-40609309D01*
X32976574Y-40710351D01*
X32980202Y-40723890D01*
X33039507Y-40826608D01*
X33039509Y-40826610D01*
X33039511Y-40826613D01*
X33123387Y-40910489D01*
X33123389Y-40910490D01*
X33123391Y-40910492D01*
X33226110Y-40969797D01*
X33226111Y-40969797D01*
X33226114Y-40969799D01*
X33340691Y-41000500D01*
X33340693Y-41000500D01*
X33459307Y-41000500D01*
X33459309Y-41000500D01*
X33573886Y-40969799D01*
X33573888Y-40969797D01*
X33573890Y-40969797D01*
X33676608Y-40910492D01*
X33676608Y-40910491D01*
X33676613Y-40910489D01*
X33760489Y-40826613D01*
X33819799Y-40723886D01*
X33850500Y-40609309D01*
X33850500Y-40490691D01*
X33819799Y-40376114D01*
X33819797Y-40376111D01*
X33819797Y-40376109D01*
X33760492Y-40273391D01*
X33760490Y-40273389D01*
X33760489Y-40273387D01*
X33676613Y-40189511D01*
X33676610Y-40189509D01*
X33676608Y-40189507D01*
X33573889Y-40130202D01*
X33573890Y-40130202D01*
X33560351Y-40126574D01*
X33459309Y-40099500D01*
X33340691Y-40099500D01*
X33270567Y-40118289D01*
X33226109Y-40130202D01*
X33123391Y-40189507D01*
X33039507Y-40273391D01*
X32980202Y-40376109D01*
X32980201Y-40376114D01*
X32949500Y-40490691D01*
X26452777Y-40490691D01*
X26676560Y-39941412D01*
X26678135Y-39937760D01*
X26770945Y-39734108D01*
X41599500Y-39734108D01*
X41599500Y-39865892D01*
X41608773Y-39900500D01*
X41633609Y-39993190D01*
X41699496Y-40107309D01*
X41699498Y-40107311D01*
X41699500Y-40107314D01*
X41792686Y-40200500D01*
X41792688Y-40200501D01*
X41792690Y-40200503D01*
X41906810Y-40266390D01*
X41906808Y-40266390D01*
X41906812Y-40266391D01*
X41906814Y-40266392D01*
X42034108Y-40300500D01*
X42034110Y-40300500D01*
X42165890Y-40300500D01*
X42165892Y-40300500D01*
X42293186Y-40266392D01*
X42293188Y-40266390D01*
X42293190Y-40266390D01*
X42407309Y-40200503D01*
X42407309Y-40200502D01*
X42407314Y-40200500D01*
X42500500Y-40107314D01*
X42500503Y-40107309D01*
X42566390Y-39993190D01*
X42566390Y-39993188D01*
X42566392Y-39993186D01*
X42600500Y-39865892D01*
X42600500Y-39734108D01*
X42566392Y-39606814D01*
X42566390Y-39606811D01*
X42566390Y-39606809D01*
X42504146Y-39499000D01*
X42491424Y-39439152D01*
X42516310Y-39383256D01*
X42569298Y-39352663D01*
X42589882Y-39350500D01*
X42609307Y-39350500D01*
X42609309Y-39350500D01*
X42723886Y-39319799D01*
X42723888Y-39319797D01*
X42723890Y-39319797D01*
X42826608Y-39260492D01*
X42826608Y-39260491D01*
X42826613Y-39260489D01*
X42910489Y-39176613D01*
X42925277Y-39151000D01*
X42969797Y-39073890D01*
X42969797Y-39073888D01*
X42969799Y-39073886D01*
X43000500Y-38959309D01*
X43000500Y-38840691D01*
X42969799Y-38726114D01*
X42969797Y-38726111D01*
X42969797Y-38726109D01*
X42910492Y-38623391D01*
X42910490Y-38623389D01*
X42910489Y-38623387D01*
X42826613Y-38539511D01*
X42826610Y-38539509D01*
X42826608Y-38539507D01*
X42781311Y-38513355D01*
X42781310Y-38513355D01*
X42723888Y-38480202D01*
X42723887Y-38480201D01*
X42723886Y-38480201D01*
X42609309Y-38449500D01*
X42490691Y-38449500D01*
X42420567Y-38468289D01*
X42376109Y-38480202D01*
X42273391Y-38539507D01*
X42189507Y-38623391D01*
X42130202Y-38726109D01*
X42113215Y-38789507D01*
X42099500Y-38840691D01*
X42099500Y-38959309D01*
X42126574Y-39060351D01*
X42130202Y-39073890D01*
X42174722Y-39151000D01*
X42187444Y-39210848D01*
X42162557Y-39266744D01*
X42109569Y-39297337D01*
X42088986Y-39299500D01*
X42034108Y-39299500D01*
X41958358Y-39319797D01*
X41906809Y-39333609D01*
X41792690Y-39399496D01*
X41699496Y-39492690D01*
X41633609Y-39606809D01*
X41633608Y-39606814D01*
X41599500Y-39734108D01*
X26770945Y-39734108D01*
X27064167Y-39090691D01*
X35649500Y-39090691D01*
X35649500Y-39209309D01*
X35660125Y-39248961D01*
X35680202Y-39323890D01*
X35739507Y-39426608D01*
X35739509Y-39426610D01*
X35739511Y-39426613D01*
X35823387Y-39510489D01*
X35823389Y-39510490D01*
X35823391Y-39510492D01*
X35926110Y-39569797D01*
X35926111Y-39569797D01*
X35926114Y-39569799D01*
X36040691Y-39600500D01*
X36040693Y-39600500D01*
X36159307Y-39600500D01*
X36159309Y-39600500D01*
X36273886Y-39569799D01*
X36273888Y-39569797D01*
X36273890Y-39569797D01*
X36376608Y-39510492D01*
X36376608Y-39510491D01*
X36376613Y-39510489D01*
X36460489Y-39426613D01*
X36476145Y-39399496D01*
X36519797Y-39323890D01*
X36519797Y-39323888D01*
X36519799Y-39323886D01*
X36550500Y-39209309D01*
X36550500Y-39090691D01*
X36519799Y-38976114D01*
X36519797Y-38976111D01*
X36519797Y-38976109D01*
X36460492Y-38873391D01*
X36460490Y-38873389D01*
X36460489Y-38873387D01*
X36376613Y-38789511D01*
X36376610Y-38789509D01*
X36376608Y-38789507D01*
X36273889Y-38730202D01*
X36273890Y-38730202D01*
X36258615Y-38726109D01*
X36159309Y-38699500D01*
X36040691Y-38699500D01*
X35970567Y-38718289D01*
X35926109Y-38730202D01*
X35823391Y-38789507D01*
X35739507Y-38873391D01*
X35680202Y-38976109D01*
X35673745Y-39000207D01*
X35649500Y-39090691D01*
X27064167Y-39090691D01*
X27105414Y-39000184D01*
X27107139Y-38996596D01*
X27391683Y-38434108D01*
X45649500Y-38434108D01*
X45649500Y-38565892D01*
X45679579Y-38678151D01*
X45683609Y-38693190D01*
X45749496Y-38807309D01*
X45749498Y-38807311D01*
X45749500Y-38807314D01*
X45842686Y-38900500D01*
X45842688Y-38900501D01*
X45842690Y-38900503D01*
X45956810Y-38966390D01*
X45956808Y-38966390D01*
X45956812Y-38966391D01*
X45956814Y-38966392D01*
X46084108Y-39000500D01*
X46084110Y-39000500D01*
X46215890Y-39000500D01*
X46215892Y-39000500D01*
X46343186Y-38966392D01*
X46367055Y-38952610D01*
X46426903Y-38939888D01*
X46482799Y-38964773D01*
X46513393Y-39017760D01*
X46506999Y-39078611D01*
X46502294Y-39087846D01*
X46433608Y-39206812D01*
X46432939Y-39209309D01*
X46399500Y-39334108D01*
X46399500Y-39465892D01*
X46427341Y-39569797D01*
X46433609Y-39593190D01*
X46499496Y-39707309D01*
X46499498Y-39707311D01*
X46499500Y-39707314D01*
X46592686Y-39800500D01*
X46592688Y-39800501D01*
X46592690Y-39800503D01*
X46706810Y-39866390D01*
X46706808Y-39866390D01*
X46706812Y-39866391D01*
X46706814Y-39866392D01*
X46834108Y-39900500D01*
X46834110Y-39900500D01*
X46965890Y-39900500D01*
X46965892Y-39900500D01*
X47093186Y-39866392D01*
X47093188Y-39866390D01*
X47093190Y-39866390D01*
X47207309Y-39800503D01*
X47207309Y-39800502D01*
X47207314Y-39800500D01*
X47300500Y-39707314D01*
X47358527Y-39606809D01*
X47366390Y-39593190D01*
X47366390Y-39593188D01*
X47366392Y-39593186D01*
X47400500Y-39465892D01*
X47400500Y-39334108D01*
X47366392Y-39206814D01*
X47366390Y-39206811D01*
X47366390Y-39206809D01*
X47300503Y-39092690D01*
X47300501Y-39092688D01*
X47300500Y-39092686D01*
X47207314Y-38999500D01*
X47207311Y-38999498D01*
X47207309Y-38999496D01*
X47093189Y-38933609D01*
X47093191Y-38933609D01*
X47043799Y-38920375D01*
X46965892Y-38899500D01*
X46834108Y-38899500D01*
X46721848Y-38929579D01*
X46706810Y-38933609D01*
X46682941Y-38947390D01*
X46623092Y-38960111D01*
X46567197Y-38935223D01*
X46536605Y-38882235D01*
X46543002Y-38821385D01*
X46547706Y-38812152D01*
X46550498Y-38807315D01*
X46550500Y-38807314D01*
X46616392Y-38693186D01*
X46650500Y-38565892D01*
X46650500Y-38434108D01*
X46616392Y-38306814D01*
X46616390Y-38306811D01*
X46616390Y-38306809D01*
X46550503Y-38192690D01*
X46550501Y-38192688D01*
X46550500Y-38192686D01*
X46457314Y-38099500D01*
X46457311Y-38099498D01*
X46457309Y-38099496D01*
X46343189Y-38033609D01*
X46343191Y-38033609D01*
X46293799Y-38020375D01*
X46215892Y-37999500D01*
X46084108Y-37999500D01*
X46006200Y-38020375D01*
X45956809Y-38033609D01*
X45842690Y-38099496D01*
X45749496Y-38192690D01*
X45683609Y-38306809D01*
X45683608Y-38306814D01*
X45649500Y-38434108D01*
X27391683Y-38434108D01*
X27573131Y-38075422D01*
X27573131Y-38075421D01*
X25860935Y-37165031D01*
X25708741Y-37084108D01*
X32299500Y-37084108D01*
X32299500Y-37215892D01*
X32309118Y-37251787D01*
X32333609Y-37343190D01*
X32399496Y-37457309D01*
X32399498Y-37457311D01*
X32399500Y-37457314D01*
X32492686Y-37550500D01*
X32492688Y-37550501D01*
X32492690Y-37550503D01*
X32606810Y-37616390D01*
X32606808Y-37616390D01*
X32606812Y-37616391D01*
X32606814Y-37616392D01*
X32734108Y-37650500D01*
X32734110Y-37650500D01*
X32865890Y-37650500D01*
X32865892Y-37650500D01*
X32993186Y-37616392D01*
X32993188Y-37616390D01*
X32993190Y-37616390D01*
X33107309Y-37550503D01*
X33107309Y-37550502D01*
X33107314Y-37550500D01*
X33200500Y-37457314D01*
X33218228Y-37426608D01*
X33266390Y-37343190D01*
X33266390Y-37343188D01*
X33266392Y-37343186D01*
X33300500Y-37215892D01*
X33300500Y-37084108D01*
X36419500Y-37084108D01*
X36419500Y-37215892D01*
X36429118Y-37251787D01*
X36453609Y-37343190D01*
X36519496Y-37457309D01*
X36519498Y-37457311D01*
X36519500Y-37457314D01*
X36612686Y-37550500D01*
X36612688Y-37550501D01*
X36612690Y-37550503D01*
X36726810Y-37616390D01*
X36726808Y-37616390D01*
X36726812Y-37616391D01*
X36726814Y-37616392D01*
X36854108Y-37650500D01*
X36854110Y-37650500D01*
X36985890Y-37650500D01*
X36985892Y-37650500D01*
X37113186Y-37616392D01*
X37113188Y-37616390D01*
X37113190Y-37616390D01*
X37227309Y-37550503D01*
X37227309Y-37550502D01*
X37227314Y-37550500D01*
X37320500Y-37457314D01*
X37329098Y-37442420D01*
X37374564Y-37401480D01*
X37435414Y-37395081D01*
X37483884Y-37423062D01*
X37484923Y-37422024D01*
X37489509Y-37426610D01*
X37489511Y-37426613D01*
X37573387Y-37510489D01*
X37573389Y-37510490D01*
X37573391Y-37510492D01*
X37676110Y-37569797D01*
X37676111Y-37569797D01*
X37676114Y-37569799D01*
X37790691Y-37600500D01*
X37790693Y-37600500D01*
X37909307Y-37600500D01*
X37909309Y-37600500D01*
X38023886Y-37569799D01*
X38023888Y-37569797D01*
X38023890Y-37569797D01*
X38126608Y-37510492D01*
X38126608Y-37510491D01*
X38126613Y-37510489D01*
X38210489Y-37426613D01*
X38212539Y-37423062D01*
X38269797Y-37323890D01*
X38269797Y-37323888D01*
X38269799Y-37323886D01*
X38300500Y-37209309D01*
X38300500Y-37178557D01*
X38319407Y-37120366D01*
X38368907Y-37084402D01*
X38425123Y-37082931D01*
X38490691Y-37100500D01*
X38490692Y-37100500D01*
X38609307Y-37100500D01*
X38609309Y-37100500D01*
X38723886Y-37069799D01*
X38723888Y-37069797D01*
X38723890Y-37069797D01*
X38826608Y-37010492D01*
X38826608Y-37010491D01*
X38826613Y-37010489D01*
X38910489Y-36926613D01*
X38941217Y-36873391D01*
X38969797Y-36823890D01*
X38969797Y-36823888D01*
X38969799Y-36823886D01*
X39000500Y-36709309D01*
X39000500Y-36590691D01*
X38969799Y-36476114D01*
X38969797Y-36476111D01*
X38969797Y-36476109D01*
X38910492Y-36373391D01*
X38910490Y-36373389D01*
X38910489Y-36373387D01*
X38826613Y-36289511D01*
X38826610Y-36289509D01*
X38826608Y-36289507D01*
X38723889Y-36230202D01*
X38723890Y-36230202D01*
X38704371Y-36224972D01*
X38609309Y-36199500D01*
X38490691Y-36199500D01*
X38425123Y-36217069D01*
X38397042Y-36215597D01*
X38368907Y-36215597D01*
X38366719Y-36214007D01*
X38364021Y-36213866D01*
X38342168Y-36196169D01*
X38319407Y-36179633D01*
X38318571Y-36177062D01*
X38316471Y-36175361D01*
X38300500Y-36121442D01*
X38300500Y-36090692D01*
X38300500Y-36090691D01*
X42999500Y-36090691D01*
X42999500Y-36209309D01*
X43019961Y-36285670D01*
X43030202Y-36323890D01*
X43089507Y-36426608D01*
X43089509Y-36426610D01*
X43089511Y-36426613D01*
X43173387Y-36510489D01*
X43173389Y-36510490D01*
X43266526Y-36564264D01*
X43307466Y-36609734D01*
X43313861Y-36670584D01*
X43283268Y-36723572D01*
X43266526Y-36735736D01*
X43173389Y-36789509D01*
X43089507Y-36873391D01*
X43030202Y-36976109D01*
X43013037Y-37040169D01*
X42999500Y-37090691D01*
X42999500Y-37209309D01*
X43019543Y-37284109D01*
X43030202Y-37323890D01*
X43089507Y-37426608D01*
X43089509Y-37426610D01*
X43089511Y-37426613D01*
X43173387Y-37510489D01*
X43173389Y-37510490D01*
X43173391Y-37510492D01*
X43276110Y-37569797D01*
X43276111Y-37569797D01*
X43276114Y-37569799D01*
X43390691Y-37600500D01*
X43390693Y-37600500D01*
X43509308Y-37600500D01*
X43509309Y-37600500D01*
X43574876Y-37582931D01*
X43635978Y-37586132D01*
X43683528Y-37624637D01*
X43699500Y-37678557D01*
X43699500Y-37709309D01*
X43703406Y-37723886D01*
X43730202Y-37823890D01*
X43789507Y-37926608D01*
X43789509Y-37926610D01*
X43789511Y-37926613D01*
X43873387Y-38010489D01*
X43873389Y-38010490D01*
X43873391Y-38010492D01*
X43976110Y-38069797D01*
X43976111Y-38069797D01*
X43976114Y-38069799D01*
X44090691Y-38100500D01*
X44090693Y-38100500D01*
X44209307Y-38100500D01*
X44209309Y-38100500D01*
X44323886Y-38069799D01*
X44323888Y-38069797D01*
X44323890Y-38069797D01*
X44426608Y-38010492D01*
X44426608Y-38010491D01*
X44426613Y-38010489D01*
X44510489Y-37926613D01*
X44519798Y-37910489D01*
X44569797Y-37823890D01*
X44569797Y-37823888D01*
X44569799Y-37823886D01*
X44600500Y-37709309D01*
X44600500Y-37590691D01*
X44569799Y-37476114D01*
X44569797Y-37476111D01*
X44569797Y-37476109D01*
X44510492Y-37373391D01*
X44510490Y-37373389D01*
X44510489Y-37373387D01*
X44426613Y-37289511D01*
X44426610Y-37289509D01*
X44426608Y-37289507D01*
X44323889Y-37230202D01*
X44323890Y-37230202D01*
X44310351Y-37226574D01*
X44209309Y-37199500D01*
X44090691Y-37199500D01*
X44025123Y-37217069D01*
X43997962Y-37215645D01*
X43970776Y-37216183D01*
X43967729Y-37214060D01*
X43964021Y-37213866D01*
X43942886Y-37196751D01*
X43920574Y-37181206D01*
X43919410Y-37177741D01*
X43916471Y-37175361D01*
X43900519Y-37123400D01*
X43900500Y-37122440D01*
X43900500Y-37090691D01*
X43898736Y-37084108D01*
X47199500Y-37084108D01*
X47199500Y-37215892D01*
X47209118Y-37251787D01*
X47233609Y-37343190D01*
X47299496Y-37457309D01*
X47299498Y-37457311D01*
X47299500Y-37457314D01*
X47392686Y-37550500D01*
X47392688Y-37550501D01*
X47392690Y-37550503D01*
X47506810Y-37616390D01*
X47506808Y-37616390D01*
X47506812Y-37616391D01*
X47506814Y-37616392D01*
X47634108Y-37650500D01*
X47634110Y-37650500D01*
X47765890Y-37650500D01*
X47765892Y-37650500D01*
X47893186Y-37616392D01*
X47893188Y-37616390D01*
X47893190Y-37616390D01*
X48007309Y-37550503D01*
X48007309Y-37550502D01*
X48007314Y-37550500D01*
X48100500Y-37457314D01*
X48118228Y-37426608D01*
X48166390Y-37343190D01*
X48166390Y-37343188D01*
X48166392Y-37343186D01*
X48182222Y-37284108D01*
X48389500Y-37284108D01*
X48389500Y-37415892D01*
X48414847Y-37510489D01*
X48423609Y-37543190D01*
X48489496Y-37657309D01*
X48489498Y-37657311D01*
X48489500Y-37657314D01*
X48582686Y-37750500D01*
X48582688Y-37750501D01*
X48582690Y-37750503D01*
X48696810Y-37816390D01*
X48696808Y-37816390D01*
X48696812Y-37816391D01*
X48696814Y-37816392D01*
X48824108Y-37850500D01*
X48824110Y-37850500D01*
X48955890Y-37850500D01*
X48955892Y-37850500D01*
X49083186Y-37816392D01*
X49083188Y-37816390D01*
X49083190Y-37816390D01*
X49197309Y-37750503D01*
X49197309Y-37750502D01*
X49197314Y-37750500D01*
X49290500Y-37657314D01*
X49309366Y-37624637D01*
X49356390Y-37543190D01*
X49356390Y-37543188D01*
X49356392Y-37543186D01*
X49390500Y-37415892D01*
X49390500Y-37284108D01*
X49929500Y-37284108D01*
X49929500Y-37415892D01*
X49954847Y-37510489D01*
X49963609Y-37543190D01*
X50029496Y-37657309D01*
X50029498Y-37657311D01*
X50029500Y-37657314D01*
X50122686Y-37750500D01*
X50122688Y-37750501D01*
X50122690Y-37750503D01*
X50236810Y-37816390D01*
X50236808Y-37816390D01*
X50236812Y-37816391D01*
X50236814Y-37816392D01*
X50364108Y-37850500D01*
X50364110Y-37850500D01*
X50495890Y-37850500D01*
X50495892Y-37850500D01*
X50623186Y-37816392D01*
X50623188Y-37816390D01*
X50623190Y-37816390D01*
X50737309Y-37750503D01*
X50737309Y-37750502D01*
X50737314Y-37750500D01*
X50830500Y-37657314D01*
X50849366Y-37624637D01*
X50896390Y-37543190D01*
X50896390Y-37543188D01*
X50896392Y-37543186D01*
X50910458Y-37490691D01*
X56599500Y-37490691D01*
X56599500Y-37609309D01*
X56610537Y-37650500D01*
X56630202Y-37723890D01*
X56689507Y-37826608D01*
X56689509Y-37826610D01*
X56689511Y-37826613D01*
X56773387Y-37910489D01*
X56773389Y-37910490D01*
X56779925Y-37914264D01*
X56820865Y-37959734D01*
X56827260Y-38020584D01*
X56796667Y-38073572D01*
X56779925Y-38085736D01*
X56773389Y-38089509D01*
X56689507Y-38173391D01*
X56630202Y-38276109D01*
X56630201Y-38276114D01*
X56599500Y-38390691D01*
X56599500Y-38509309D01*
X56626574Y-38610351D01*
X56630202Y-38623890D01*
X56689507Y-38726608D01*
X56689509Y-38726610D01*
X56689511Y-38726613D01*
X56773387Y-38810489D01*
X56773389Y-38810490D01*
X56773391Y-38810492D01*
X56876110Y-38869797D01*
X56876111Y-38869797D01*
X56876114Y-38869799D01*
X56990691Y-38900500D01*
X56990693Y-38900500D01*
X57109307Y-38900500D01*
X57109309Y-38900500D01*
X57223886Y-38869799D01*
X57223888Y-38869797D01*
X57223890Y-38869797D01*
X57326608Y-38810492D01*
X57326608Y-38810491D01*
X57326613Y-38810489D01*
X57410489Y-38726613D01*
X57469799Y-38623886D01*
X57500500Y-38509309D01*
X57500500Y-38390691D01*
X57469799Y-38276114D01*
X57469797Y-38276111D01*
X57469797Y-38276109D01*
X57410492Y-38173391D01*
X57410490Y-38173389D01*
X57410489Y-38173387D01*
X57326613Y-38089511D01*
X57320075Y-38085736D01*
X57279135Y-38040269D01*
X57272738Y-37979419D01*
X57303329Y-37926430D01*
X57320073Y-37914264D01*
X57326613Y-37910489D01*
X57410489Y-37826613D01*
X57412061Y-37823890D01*
X57469797Y-37723890D01*
X57469797Y-37723888D01*
X57469799Y-37723886D01*
X57500500Y-37609309D01*
X57500500Y-37490691D01*
X57469799Y-37376114D01*
X57469797Y-37376111D01*
X57469797Y-37376109D01*
X57410492Y-37273391D01*
X57410490Y-37273389D01*
X57410489Y-37273387D01*
X57326613Y-37189511D01*
X57223886Y-37130201D01*
X57197675Y-37123177D01*
X57197674Y-37123177D01*
X57156228Y-37112072D01*
X57109309Y-37099500D01*
X56990691Y-37099500D01*
X56920567Y-37118289D01*
X56876109Y-37130202D01*
X56773391Y-37189507D01*
X56689507Y-37273391D01*
X56630202Y-37376109D01*
X56630201Y-37376114D01*
X56599500Y-37490691D01*
X50910458Y-37490691D01*
X50930500Y-37415892D01*
X50930500Y-37284108D01*
X50896392Y-37156814D01*
X50896390Y-37156811D01*
X50896390Y-37156809D01*
X50854416Y-37084108D01*
X62374500Y-37084108D01*
X62374500Y-37215892D01*
X62384118Y-37251787D01*
X62408609Y-37343190D01*
X62474496Y-37457309D01*
X62474498Y-37457311D01*
X62474500Y-37457314D01*
X62567686Y-37550500D01*
X62567688Y-37550501D01*
X62567690Y-37550503D01*
X62681810Y-37616390D01*
X62681808Y-37616390D01*
X62681812Y-37616391D01*
X62681814Y-37616392D01*
X62809108Y-37650500D01*
X62809110Y-37650500D01*
X62940890Y-37650500D01*
X62940892Y-37650500D01*
X63068186Y-37616392D01*
X63068188Y-37616390D01*
X63068190Y-37616390D01*
X63182309Y-37550503D01*
X63182309Y-37550502D01*
X63182314Y-37550500D01*
X63192498Y-37540315D01*
X63247013Y-37512540D01*
X63307445Y-37522111D01*
X63332500Y-37540314D01*
X63342686Y-37550500D01*
X63342688Y-37550501D01*
X63342690Y-37550503D01*
X63456810Y-37616390D01*
X63456808Y-37616390D01*
X63456812Y-37616391D01*
X63456814Y-37616392D01*
X63584108Y-37650500D01*
X63584110Y-37650500D01*
X63715890Y-37650500D01*
X63715892Y-37650500D01*
X63843186Y-37616392D01*
X63843188Y-37616390D01*
X63843190Y-37616390D01*
X63957309Y-37550503D01*
X63957309Y-37550502D01*
X63957314Y-37550500D01*
X64050500Y-37457314D01*
X64068228Y-37426608D01*
X64116390Y-37343190D01*
X64116390Y-37343188D01*
X64116392Y-37343186D01*
X64150500Y-37215892D01*
X64150500Y-37084108D01*
X64116392Y-36956814D01*
X64116390Y-36956811D01*
X64116390Y-36956809D01*
X64050503Y-36842690D01*
X64050501Y-36842688D01*
X64050500Y-36842686D01*
X63957314Y-36749500D01*
X63957311Y-36749498D01*
X63957309Y-36749496D01*
X63843189Y-36683609D01*
X63843191Y-36683609D01*
X63793799Y-36670375D01*
X63715892Y-36649500D01*
X63584108Y-36649500D01*
X63506200Y-36670375D01*
X63456809Y-36683609D01*
X63342690Y-36749496D01*
X63342686Y-36749500D01*
X63332501Y-36759684D01*
X63277984Y-36787460D01*
X63217552Y-36777886D01*
X63192499Y-36759684D01*
X63182314Y-36749500D01*
X63182309Y-36749496D01*
X63068189Y-36683609D01*
X63068191Y-36683609D01*
X63018799Y-36670375D01*
X62940892Y-36649500D01*
X62809108Y-36649500D01*
X62731200Y-36670375D01*
X62681809Y-36683609D01*
X62567690Y-36749496D01*
X62474496Y-36842690D01*
X62408609Y-36956809D01*
X62394226Y-37010489D01*
X62374500Y-37084108D01*
X50854416Y-37084108D01*
X50830503Y-37042690D01*
X50830501Y-37042688D01*
X50830500Y-37042686D01*
X50737314Y-36949500D01*
X50737311Y-36949498D01*
X50737309Y-36949496D01*
X50623189Y-36883609D01*
X50623191Y-36883609D01*
X50548585Y-36863619D01*
X50495892Y-36849500D01*
X50364108Y-36849500D01*
X50311415Y-36863619D01*
X50236809Y-36883609D01*
X50122690Y-36949496D01*
X50029496Y-37042690D01*
X49963609Y-37156809D01*
X49947778Y-37215892D01*
X49929500Y-37284108D01*
X49390500Y-37284108D01*
X49356392Y-37156814D01*
X49356390Y-37156811D01*
X49356390Y-37156809D01*
X49290503Y-37042690D01*
X49290501Y-37042688D01*
X49290500Y-37042686D01*
X49197314Y-36949500D01*
X49197311Y-36949498D01*
X49197309Y-36949496D01*
X49083189Y-36883609D01*
X49083191Y-36883609D01*
X49008585Y-36863619D01*
X48955892Y-36849500D01*
X48824108Y-36849500D01*
X48771415Y-36863619D01*
X48696809Y-36883609D01*
X48582690Y-36949496D01*
X48489496Y-37042690D01*
X48423609Y-37156809D01*
X48407778Y-37215892D01*
X48389500Y-37284108D01*
X48182222Y-37284108D01*
X48200500Y-37215892D01*
X48200500Y-37084108D01*
X48166392Y-36956814D01*
X48166390Y-36956811D01*
X48166390Y-36956809D01*
X48100503Y-36842690D01*
X48100501Y-36842688D01*
X48100500Y-36842686D01*
X48007314Y-36749500D01*
X48007311Y-36749498D01*
X48007309Y-36749496D01*
X47893189Y-36683609D01*
X47893191Y-36683609D01*
X47843799Y-36670375D01*
X47765892Y-36649500D01*
X47634108Y-36649500D01*
X47556200Y-36670375D01*
X47506809Y-36683609D01*
X47392690Y-36749496D01*
X47299496Y-36842690D01*
X47233609Y-36956809D01*
X47219226Y-37010489D01*
X47199500Y-37084108D01*
X43898736Y-37084108D01*
X43869799Y-36976114D01*
X43869797Y-36976111D01*
X43869797Y-36976109D01*
X43810492Y-36873391D01*
X43810490Y-36873389D01*
X43810489Y-36873387D01*
X43726613Y-36789511D01*
X43726610Y-36789509D01*
X43726608Y-36789507D01*
X43633474Y-36735736D01*
X43592533Y-36690267D01*
X43586137Y-36629416D01*
X43616730Y-36576428D01*
X43633474Y-36564264D01*
X43726608Y-36510492D01*
X43726608Y-36510491D01*
X43726613Y-36510489D01*
X43752994Y-36484108D01*
X57099500Y-36484108D01*
X57099500Y-36615892D01*
X57129579Y-36728151D01*
X57133609Y-36743190D01*
X57199496Y-36857309D01*
X57199498Y-36857311D01*
X57199500Y-36857314D01*
X57292686Y-36950500D01*
X57406814Y-37016392D01*
X57534108Y-37050500D01*
X57534110Y-37050500D01*
X57665890Y-37050500D01*
X57665892Y-37050500D01*
X57793186Y-37016392D01*
X57793188Y-37016390D01*
X57793190Y-37016390D01*
X57835638Y-36991883D01*
X57907309Y-36950503D01*
X57907309Y-36950502D01*
X57907314Y-36950500D01*
X58000500Y-36857314D01*
X58000503Y-36857309D01*
X58066390Y-36743190D01*
X58066390Y-36743188D01*
X58066392Y-36743186D01*
X58100500Y-36615892D01*
X58100500Y-36484108D01*
X58066392Y-36356814D01*
X58066390Y-36356811D01*
X58066390Y-36356809D01*
X58000503Y-36242690D01*
X58000501Y-36242688D01*
X58000500Y-36242686D01*
X57907314Y-36149500D01*
X57907311Y-36149498D01*
X57907309Y-36149496D01*
X57793189Y-36083609D01*
X57793191Y-36083609D01*
X57743799Y-36070375D01*
X57665892Y-36049500D01*
X57534108Y-36049500D01*
X57456200Y-36070375D01*
X57406809Y-36083609D01*
X57292690Y-36149496D01*
X57199496Y-36242690D01*
X57133609Y-36356809D01*
X57123862Y-36393186D01*
X57099500Y-36484108D01*
X43752994Y-36484108D01*
X43810489Y-36426613D01*
X43841217Y-36373391D01*
X43869797Y-36323890D01*
X43869797Y-36323888D01*
X43869799Y-36323886D01*
X43900500Y-36209309D01*
X43900500Y-36090691D01*
X43869799Y-35976114D01*
X43869797Y-35976111D01*
X43869797Y-35976109D01*
X43810492Y-35873391D01*
X43810490Y-35873389D01*
X43810489Y-35873387D01*
X43726613Y-35789511D01*
X43726610Y-35789509D01*
X43726608Y-35789507D01*
X43623889Y-35730202D01*
X43623890Y-35730202D01*
X43610351Y-35726574D01*
X43509309Y-35699500D01*
X43390691Y-35699500D01*
X43320567Y-35718289D01*
X43276109Y-35730202D01*
X43173391Y-35789507D01*
X43089507Y-35873391D01*
X43030202Y-35976109D01*
X43030201Y-35976114D01*
X42999500Y-36090691D01*
X38300500Y-36090691D01*
X38298602Y-36083608D01*
X38269799Y-35976114D01*
X38269797Y-35976111D01*
X38269797Y-35976109D01*
X38210492Y-35873391D01*
X38210490Y-35873389D01*
X38210489Y-35873387D01*
X38126613Y-35789511D01*
X38126610Y-35789509D01*
X38126608Y-35789507D01*
X38023889Y-35730202D01*
X38023890Y-35730202D01*
X38010351Y-35726574D01*
X37909309Y-35699500D01*
X37790691Y-35699500D01*
X37720567Y-35718289D01*
X37676109Y-35730202D01*
X37573391Y-35789507D01*
X37489507Y-35873391D01*
X37430202Y-35976109D01*
X37430201Y-35976114D01*
X37399500Y-36090691D01*
X37399500Y-36209309D01*
X37419961Y-36285670D01*
X37430202Y-36323890D01*
X37489507Y-36426608D01*
X37489509Y-36426610D01*
X37489511Y-36426613D01*
X37573387Y-36510489D01*
X37573389Y-36510490D01*
X37666526Y-36564264D01*
X37707466Y-36609734D01*
X37713861Y-36670584D01*
X37683268Y-36723572D01*
X37666526Y-36735736D01*
X37573389Y-36789509D01*
X37573387Y-36789510D01*
X37573387Y-36789511D01*
X37489511Y-36873387D01*
X37489509Y-36873389D01*
X37484923Y-36877976D01*
X37482744Y-36875797D01*
X37442331Y-36903185D01*
X37381178Y-36901183D01*
X37332881Y-36863619D01*
X37329108Y-36857596D01*
X37320500Y-36842686D01*
X37227314Y-36749500D01*
X37227311Y-36749498D01*
X37227309Y-36749496D01*
X37113189Y-36683609D01*
X37113191Y-36683609D01*
X37063799Y-36670375D01*
X36985892Y-36649500D01*
X36854108Y-36649500D01*
X36776200Y-36670375D01*
X36726809Y-36683609D01*
X36612690Y-36749496D01*
X36519496Y-36842690D01*
X36453609Y-36956809D01*
X36439226Y-37010489D01*
X36419500Y-37084108D01*
X33300500Y-37084108D01*
X33266392Y-36956814D01*
X33266390Y-36956811D01*
X33266390Y-36956809D01*
X33200503Y-36842690D01*
X33200501Y-36842688D01*
X33200500Y-36842686D01*
X33107314Y-36749500D01*
X33107311Y-36749498D01*
X33107309Y-36749496D01*
X32993189Y-36683609D01*
X32993191Y-36683609D01*
X32943799Y-36670375D01*
X32865892Y-36649500D01*
X32734108Y-36649500D01*
X32656200Y-36670375D01*
X32606809Y-36683609D01*
X32492690Y-36749496D01*
X32399496Y-36842690D01*
X32333609Y-36956809D01*
X32319226Y-37010489D01*
X32299500Y-37084108D01*
X25708741Y-37084108D01*
X24924855Y-36667308D01*
X24882352Y-36623295D01*
X24873837Y-36562705D01*
X24884756Y-36531881D01*
X25321029Y-35745289D01*
X25322709Y-35742379D01*
X25833537Y-34892701D01*
X25835359Y-34889789D01*
X25843924Y-34876608D01*
X26375514Y-34058479D01*
X26377388Y-34055702D01*
X26926623Y-33271733D01*
X29121379Y-33271733D01*
X29121379Y-33271734D01*
X29197574Y-33850503D01*
X29199749Y-33867018D01*
X29281532Y-34064460D01*
X29417489Y-34392690D01*
X29429520Y-34421734D01*
X29533554Y-34557314D01*
X29791280Y-34893190D01*
X29795033Y-34898080D01*
X29795037Y-34898083D01*
X29795038Y-34898084D01*
X29818813Y-34916327D01*
X30271379Y-35263593D01*
X30826095Y-35493364D01*
X31272558Y-35552141D01*
X31421378Y-35571734D01*
X31421379Y-35571734D01*
X31421380Y-35571734D01*
X31540435Y-35556060D01*
X32016663Y-35493364D01*
X32571379Y-35263593D01*
X32605226Y-35237621D01*
X38650361Y-35237621D01*
X38650361Y-35369405D01*
X38671824Y-35449507D01*
X38684470Y-35496703D01*
X38750357Y-35610822D01*
X38750359Y-35610824D01*
X38750361Y-35610827D01*
X38843547Y-35704013D01*
X38843549Y-35704014D01*
X38843551Y-35704016D01*
X38957671Y-35769903D01*
X38957669Y-35769903D01*
X38957673Y-35769904D01*
X38957675Y-35769905D01*
X39084969Y-35804013D01*
X39084971Y-35804013D01*
X39216751Y-35804013D01*
X39216753Y-35804013D01*
X39344047Y-35769905D01*
X39344049Y-35769903D01*
X39344051Y-35769903D01*
X39458170Y-35704016D01*
X39458170Y-35704015D01*
X39458175Y-35704013D01*
X39551361Y-35610827D01*
X39551364Y-35610822D01*
X39617251Y-35496703D01*
X39617251Y-35496701D01*
X39617253Y-35496699D01*
X39647421Y-35384108D01*
X45119500Y-35384108D01*
X45119500Y-35515892D01*
X45134463Y-35571734D01*
X45153609Y-35643190D01*
X45219496Y-35757309D01*
X45219498Y-35757311D01*
X45219500Y-35757314D01*
X45312686Y-35850500D01*
X45312688Y-35850501D01*
X45312690Y-35850503D01*
X45426810Y-35916390D01*
X45426808Y-35916390D01*
X45426812Y-35916391D01*
X45426814Y-35916392D01*
X45554108Y-35950500D01*
X45554110Y-35950500D01*
X45685890Y-35950500D01*
X45685892Y-35950500D01*
X45813186Y-35916392D01*
X45813188Y-35916390D01*
X45813190Y-35916390D01*
X45927309Y-35850503D01*
X45927309Y-35850502D01*
X45927314Y-35850500D01*
X46020500Y-35757314D01*
X46024324Y-35750691D01*
X59699500Y-35750691D01*
X59699500Y-35869309D01*
X59721255Y-35950500D01*
X59730202Y-35983890D01*
X59789507Y-36086608D01*
X59789509Y-36086610D01*
X59789511Y-36086613D01*
X59873387Y-36170489D01*
X59873389Y-36170490D01*
X59873391Y-36170492D01*
X59976110Y-36229797D01*
X59976111Y-36229797D01*
X59976114Y-36229799D01*
X60090691Y-36260500D01*
X60090693Y-36260500D01*
X60209307Y-36260500D01*
X60209309Y-36260500D01*
X60323886Y-36229799D01*
X60323889Y-36229796D01*
X60323953Y-36229771D01*
X60324003Y-36229767D01*
X60330154Y-36228119D01*
X60330459Y-36229259D01*
X60384950Y-36224972D01*
X60437118Y-36256942D01*
X60457463Y-36295611D01*
X60473861Y-36356809D01*
X60483609Y-36393190D01*
X60549496Y-36507309D01*
X60549498Y-36507311D01*
X60549500Y-36507314D01*
X60642686Y-36600500D01*
X60642688Y-36600501D01*
X60642690Y-36600503D01*
X60756810Y-36666390D01*
X60756808Y-36666390D01*
X60756812Y-36666391D01*
X60756814Y-36666392D01*
X60884108Y-36700500D01*
X60884110Y-36700500D01*
X61015890Y-36700500D01*
X61015892Y-36700500D01*
X61143186Y-36666392D01*
X61143188Y-36666390D01*
X61143190Y-36666390D01*
X61257309Y-36600503D01*
X61257309Y-36600502D01*
X61257314Y-36600500D01*
X61350500Y-36507314D01*
X61350503Y-36507309D01*
X61416390Y-36393190D01*
X61416390Y-36393188D01*
X61416392Y-36393186D01*
X61450500Y-36265892D01*
X61450500Y-36140691D01*
X64999500Y-36140691D01*
X64999500Y-36259309D01*
X65016805Y-36323890D01*
X65030202Y-36373890D01*
X65089507Y-36476608D01*
X65089509Y-36476610D01*
X65089511Y-36476613D01*
X65173387Y-36560489D01*
X65173389Y-36560490D01*
X65173391Y-36560492D01*
X65276110Y-36619797D01*
X65276111Y-36619797D01*
X65276114Y-36619799D01*
X65390691Y-36650500D01*
X65390693Y-36650500D01*
X65509307Y-36650500D01*
X65509309Y-36650500D01*
X65623886Y-36619799D01*
X65623888Y-36619797D01*
X65623890Y-36619797D01*
X65726608Y-36560492D01*
X65726608Y-36560491D01*
X65726613Y-36560489D01*
X65810489Y-36476613D01*
X65869799Y-36373886D01*
X65900500Y-36259309D01*
X65900500Y-36140691D01*
X65869799Y-36026114D01*
X65869797Y-36026111D01*
X65869797Y-36026109D01*
X65810492Y-35923391D01*
X65810490Y-35923389D01*
X65810489Y-35923387D01*
X65726613Y-35839511D01*
X65726610Y-35839509D01*
X65726608Y-35839507D01*
X65623889Y-35780202D01*
X65623890Y-35780202D01*
X65585461Y-35769905D01*
X65509309Y-35749500D01*
X65390691Y-35749500D01*
X65320567Y-35768289D01*
X65276109Y-35780202D01*
X65173391Y-35839507D01*
X65089507Y-35923391D01*
X65030202Y-36026109D01*
X65014795Y-36083608D01*
X64999500Y-36140691D01*
X61450500Y-36140691D01*
X61450500Y-36134108D01*
X61416392Y-36006814D01*
X61416390Y-36006811D01*
X61416390Y-36006809D01*
X61350503Y-35892690D01*
X61350501Y-35892688D01*
X61350500Y-35892686D01*
X61257314Y-35799500D01*
X61257311Y-35799498D01*
X61257309Y-35799496D01*
X61143189Y-35733609D01*
X61143191Y-35733609D01*
X61093799Y-35720375D01*
X61015892Y-35699500D01*
X60884108Y-35699500D01*
X60771848Y-35729579D01*
X60756810Y-35733609D01*
X60729210Y-35749544D01*
X60669361Y-35762264D01*
X60613466Y-35737377D01*
X60584085Y-35689431D01*
X60569799Y-35636114D01*
X60569796Y-35636109D01*
X60510492Y-35533391D01*
X60510490Y-35533389D01*
X60510489Y-35533387D01*
X60426613Y-35449511D01*
X60426610Y-35449509D01*
X60426608Y-35449507D01*
X60323889Y-35390202D01*
X60323890Y-35390202D01*
X60301147Y-35384108D01*
X60209309Y-35359500D01*
X60090691Y-35359500D01*
X60020567Y-35378289D01*
X59976109Y-35390202D01*
X59873391Y-35449507D01*
X59789507Y-35533391D01*
X59730202Y-35636109D01*
X59730201Y-35636114D01*
X59699500Y-35750691D01*
X46024324Y-35750691D01*
X46024986Y-35749544D01*
X46056650Y-35694702D01*
X46086390Y-35643190D01*
X46086390Y-35643188D01*
X46086392Y-35643186D01*
X46120500Y-35515892D01*
X46120500Y-35384108D01*
X46096562Y-35294770D01*
X46099764Y-35233673D01*
X46138269Y-35186123D01*
X46166564Y-35173525D01*
X46193186Y-35166392D01*
X46237701Y-35140691D01*
X65649500Y-35140691D01*
X65649500Y-35259309D01*
X65659003Y-35294775D01*
X65680202Y-35373890D01*
X65739507Y-35476608D01*
X65739509Y-35476610D01*
X65739511Y-35476613D01*
X65823387Y-35560489D01*
X65823389Y-35560490D01*
X65823391Y-35560492D01*
X65926110Y-35619797D01*
X65926111Y-35619797D01*
X65926114Y-35619799D01*
X66040691Y-35650500D01*
X66040693Y-35650500D01*
X66159307Y-35650500D01*
X66159309Y-35650500D01*
X66273886Y-35619799D01*
X66273888Y-35619797D01*
X66273890Y-35619797D01*
X66376608Y-35560492D01*
X66376608Y-35560491D01*
X66376613Y-35560489D01*
X66460489Y-35476613D01*
X66460492Y-35476608D01*
X66519797Y-35373890D01*
X66519797Y-35373888D01*
X66519799Y-35373886D01*
X66550500Y-35259309D01*
X66550500Y-35140691D01*
X66519799Y-35026114D01*
X66519797Y-35026111D01*
X66519797Y-35026109D01*
X66460492Y-34923391D01*
X66460490Y-34923389D01*
X66460489Y-34923387D01*
X66376613Y-34839511D01*
X66376610Y-34839509D01*
X66376608Y-34839507D01*
X66273889Y-34780202D01*
X66273890Y-34780202D01*
X66220484Y-34765892D01*
X66159309Y-34749500D01*
X66040691Y-34749500D01*
X65979523Y-34765890D01*
X65926109Y-34780202D01*
X65823391Y-34839507D01*
X65739507Y-34923391D01*
X65680202Y-35026109D01*
X65673667Y-35050500D01*
X65649500Y-35140691D01*
X46237701Y-35140691D01*
X46307314Y-35100500D01*
X46400500Y-35007314D01*
X46418306Y-34976474D01*
X46466390Y-34893190D01*
X46466390Y-34893188D01*
X46466392Y-34893186D01*
X46500500Y-34765892D01*
X46500500Y-34634108D01*
X46466392Y-34506814D01*
X46466390Y-34506811D01*
X46466390Y-34506809D01*
X46400503Y-34392690D01*
X46400501Y-34392688D01*
X46400500Y-34392686D01*
X46307314Y-34299500D01*
X46307311Y-34299498D01*
X46307309Y-34299496D01*
X46193189Y-34233609D01*
X46193191Y-34233609D01*
X46143799Y-34220375D01*
X46065892Y-34199500D01*
X45934108Y-34199500D01*
X45856200Y-34220375D01*
X45806809Y-34233609D01*
X45692690Y-34299496D01*
X45599496Y-34392690D01*
X45533609Y-34506809D01*
X45521902Y-34550500D01*
X45499500Y-34634108D01*
X45499500Y-34765892D01*
X45523436Y-34855226D01*
X45520234Y-34916327D01*
X45481729Y-34963876D01*
X45453436Y-34976474D01*
X45426811Y-34983608D01*
X45426810Y-34983609D01*
X45312690Y-35049496D01*
X45219496Y-35142690D01*
X45153609Y-35256809D01*
X45145746Y-35286155D01*
X45119500Y-35384108D01*
X39647421Y-35384108D01*
X39651361Y-35369405D01*
X39651361Y-35237621D01*
X39617253Y-35110327D01*
X39617251Y-35110324D01*
X39617251Y-35110322D01*
X39551364Y-34996203D01*
X39551362Y-34996201D01*
X39551361Y-34996199D01*
X39458175Y-34903013D01*
X39458172Y-34903011D01*
X39458170Y-34903009D01*
X39344050Y-34837122D01*
X39344052Y-34837122D01*
X39294660Y-34823888D01*
X39216753Y-34803013D01*
X39084969Y-34803013D01*
X39007061Y-34823888D01*
X38957670Y-34837122D01*
X38843551Y-34903009D01*
X38750357Y-34996203D01*
X38684470Y-35110322D01*
X38667536Y-35173524D01*
X38650361Y-35237621D01*
X32605226Y-35237621D01*
X33047724Y-34898080D01*
X33413237Y-34421734D01*
X33643008Y-33867018D01*
X33673145Y-33638108D01*
X36150500Y-33638108D01*
X36150500Y-33769892D01*
X36176524Y-33867014D01*
X36184609Y-33897190D01*
X36250496Y-34011309D01*
X36250498Y-34011311D01*
X36250500Y-34011314D01*
X36343686Y-34104500D01*
X36343688Y-34104501D01*
X36343690Y-34104503D01*
X36457810Y-34170390D01*
X36457808Y-34170390D01*
X36457812Y-34170391D01*
X36457814Y-34170392D01*
X36585108Y-34204500D01*
X36585110Y-34204500D01*
X36716890Y-34204500D01*
X36716892Y-34204500D01*
X36792997Y-34184108D01*
X37249500Y-34184108D01*
X37249500Y-34315892D01*
X37277860Y-34421734D01*
X37283609Y-34443190D01*
X37349496Y-34557309D01*
X37349498Y-34557311D01*
X37349500Y-34557314D01*
X37442686Y-34650500D01*
X37442688Y-34650501D01*
X37442690Y-34650503D01*
X37556810Y-34716390D01*
X37556808Y-34716390D01*
X37556812Y-34716391D01*
X37556814Y-34716392D01*
X37684108Y-34750500D01*
X37684110Y-34750500D01*
X37815890Y-34750500D01*
X37815892Y-34750500D01*
X37943186Y-34716392D01*
X37943188Y-34716390D01*
X37943190Y-34716390D01*
X38057309Y-34650503D01*
X38057309Y-34650502D01*
X38057314Y-34650500D01*
X38150500Y-34557314D01*
X38188965Y-34490691D01*
X39799500Y-34490691D01*
X39799500Y-34609309D01*
X39810537Y-34650500D01*
X39830202Y-34723890D01*
X39889507Y-34826608D01*
X39889509Y-34826610D01*
X39889511Y-34826613D01*
X39973387Y-34910489D01*
X39973389Y-34910490D01*
X39973391Y-34910492D01*
X40076110Y-34969797D01*
X40076111Y-34969797D01*
X40076114Y-34969799D01*
X40190691Y-35000500D01*
X40190693Y-35000500D01*
X40309307Y-35000500D01*
X40309309Y-35000500D01*
X40423886Y-34969799D01*
X40423888Y-34969797D01*
X40423890Y-34969797D01*
X40526608Y-34910492D01*
X40526608Y-34910491D01*
X40526613Y-34910489D01*
X40610489Y-34826613D01*
X40645548Y-34765890D01*
X40669797Y-34723890D01*
X40669797Y-34723888D01*
X40669799Y-34723886D01*
X40700500Y-34609309D01*
X40700500Y-34490691D01*
X41299500Y-34490691D01*
X41299500Y-34609309D01*
X41310537Y-34650500D01*
X41330202Y-34723890D01*
X41389507Y-34826608D01*
X41389509Y-34826610D01*
X41389511Y-34826613D01*
X41473387Y-34910489D01*
X41473389Y-34910490D01*
X41473391Y-34910492D01*
X41576110Y-34969797D01*
X41576111Y-34969797D01*
X41576114Y-34969799D01*
X41690691Y-35000500D01*
X41690693Y-35000500D01*
X41809307Y-35000500D01*
X41809309Y-35000500D01*
X41923886Y-34969799D01*
X41923888Y-34969797D01*
X41923890Y-34969797D01*
X42026608Y-34910492D01*
X42026608Y-34910491D01*
X42026613Y-34910489D01*
X42110489Y-34826613D01*
X42145548Y-34765890D01*
X42169797Y-34723890D01*
X42169797Y-34723888D01*
X42169799Y-34723886D01*
X42200500Y-34609309D01*
X42200500Y-34490691D01*
X42169799Y-34376114D01*
X42169797Y-34376111D01*
X42169797Y-34376109D01*
X42110492Y-34273391D01*
X42110490Y-34273389D01*
X42110489Y-34273387D01*
X42026613Y-34189511D01*
X42026610Y-34189509D01*
X42026608Y-34189507D01*
X41923889Y-34130202D01*
X41923890Y-34130202D01*
X41910351Y-34126574D01*
X41809309Y-34099500D01*
X41690691Y-34099500D01*
X41620567Y-34118289D01*
X41576109Y-34130202D01*
X41473391Y-34189507D01*
X41389507Y-34273391D01*
X41330202Y-34376109D01*
X41325759Y-34392690D01*
X41299500Y-34490691D01*
X40700500Y-34490691D01*
X40669799Y-34376114D01*
X40669797Y-34376111D01*
X40669797Y-34376109D01*
X40610492Y-34273391D01*
X40610490Y-34273389D01*
X40610489Y-34273387D01*
X40526613Y-34189511D01*
X40526610Y-34189509D01*
X40526608Y-34189507D01*
X40423889Y-34130202D01*
X40423890Y-34130202D01*
X40410351Y-34126574D01*
X40309309Y-34099500D01*
X40190691Y-34099500D01*
X40120567Y-34118289D01*
X40076109Y-34130202D01*
X39973391Y-34189507D01*
X39889507Y-34273391D01*
X39830202Y-34376109D01*
X39825759Y-34392690D01*
X39799500Y-34490691D01*
X38188965Y-34490691D01*
X38216392Y-34443186D01*
X38250500Y-34315892D01*
X38250500Y-34184108D01*
X38216392Y-34056814D01*
X38216390Y-34056811D01*
X38216390Y-34056809D01*
X38207084Y-34040691D01*
X57949500Y-34040691D01*
X57949500Y-34159309D01*
X57969409Y-34233609D01*
X57980202Y-34273890D01*
X58039507Y-34376608D01*
X58039509Y-34376610D01*
X58039511Y-34376613D01*
X58123387Y-34460489D01*
X58123389Y-34460490D01*
X58123391Y-34460492D01*
X58226110Y-34519797D01*
X58226111Y-34519797D01*
X58226114Y-34519799D01*
X58340691Y-34550500D01*
X58340693Y-34550500D01*
X58459307Y-34550500D01*
X58459309Y-34550500D01*
X58495916Y-34540691D01*
X59449500Y-34540691D01*
X59449500Y-34659309D01*
X59466805Y-34723890D01*
X59480202Y-34773890D01*
X59539507Y-34876608D01*
X59539509Y-34876610D01*
X59539511Y-34876613D01*
X59623387Y-34960489D01*
X59623389Y-34960490D01*
X59623391Y-34960492D01*
X59726110Y-35019797D01*
X59726111Y-35019797D01*
X59726114Y-35019799D01*
X59840691Y-35050500D01*
X59840693Y-35050500D01*
X59959307Y-35050500D01*
X59959309Y-35050500D01*
X60073886Y-35019799D01*
X60073888Y-35019797D01*
X60073890Y-35019797D01*
X60176608Y-34960492D01*
X60176608Y-34960491D01*
X60176613Y-34960489D01*
X60260489Y-34876613D01*
X60260492Y-34876608D01*
X60319797Y-34773890D01*
X60319797Y-34773888D01*
X60319799Y-34773886D01*
X60350500Y-34659309D01*
X60350500Y-34540691D01*
X60335197Y-34483580D01*
X60338398Y-34422481D01*
X60376903Y-34374930D01*
X60392949Y-34366489D01*
X60393171Y-34366395D01*
X60393186Y-34366392D01*
X60507314Y-34300500D01*
X60600500Y-34207314D01*
X60604682Y-34200071D01*
X60666390Y-34093190D01*
X60666390Y-34093188D01*
X60666392Y-34093186D01*
X60700500Y-33965892D01*
X60700500Y-33834108D01*
X60666392Y-33706814D01*
X60666390Y-33706811D01*
X60666390Y-33706809D01*
X60600503Y-33592690D01*
X60600501Y-33592688D01*
X60600500Y-33592686D01*
X60507314Y-33499500D01*
X60507311Y-33499498D01*
X60507309Y-33499496D01*
X60394053Y-33434108D01*
X63487500Y-33434108D01*
X63487500Y-33565892D01*
X63517579Y-33678151D01*
X63521609Y-33693190D01*
X63587496Y-33807309D01*
X63587498Y-33807311D01*
X63587500Y-33807314D01*
X63680686Y-33900500D01*
X63680688Y-33900501D01*
X63680690Y-33900503D01*
X63794810Y-33966390D01*
X63794808Y-33966390D01*
X63794812Y-33966391D01*
X63794814Y-33966392D01*
X63922108Y-34000500D01*
X63922110Y-34000500D01*
X64053890Y-34000500D01*
X64053892Y-34000500D01*
X64181186Y-33966392D01*
X64181188Y-33966390D01*
X64181190Y-33966390D01*
X64295309Y-33900503D01*
X64295309Y-33900502D01*
X64295314Y-33900500D01*
X64388500Y-33807314D01*
X64417368Y-33757314D01*
X64454390Y-33693190D01*
X64454390Y-33693188D01*
X64454392Y-33693186D01*
X64488500Y-33565892D01*
X64488500Y-33434108D01*
X64454392Y-33306814D01*
X64434138Y-33271733D01*
X66278620Y-33271733D01*
X66278620Y-33271734D01*
X66354816Y-33850503D01*
X66356991Y-33867018D01*
X66438774Y-34064460D01*
X66574731Y-34392690D01*
X66586762Y-34421734D01*
X66690796Y-34557314D01*
X66948522Y-34893190D01*
X66952275Y-34898080D01*
X66952279Y-34898083D01*
X66952280Y-34898084D01*
X67428618Y-35263592D01*
X67428619Y-35263593D01*
X67624740Y-35344828D01*
X67983336Y-35493364D01*
X68429799Y-35552141D01*
X68578619Y-35571734D01*
X68578620Y-35571734D01*
X68578621Y-35571734D01*
X68697676Y-35556060D01*
X69173904Y-35493364D01*
X69437671Y-35384108D01*
X71449500Y-35384108D01*
X71449500Y-35515892D01*
X71464463Y-35571734D01*
X71483609Y-35643190D01*
X71549496Y-35757309D01*
X71549498Y-35757311D01*
X71549500Y-35757314D01*
X71642686Y-35850500D01*
X71642688Y-35850501D01*
X71642690Y-35850503D01*
X71756810Y-35916390D01*
X71756808Y-35916390D01*
X71756812Y-35916391D01*
X71756814Y-35916392D01*
X71884108Y-35950500D01*
X71884110Y-35950500D01*
X72015890Y-35950500D01*
X72015892Y-35950500D01*
X72143186Y-35916392D01*
X72143188Y-35916390D01*
X72143190Y-35916390D01*
X72257309Y-35850503D01*
X72257309Y-35850502D01*
X72257314Y-35850500D01*
X72350500Y-35757314D01*
X72354986Y-35749544D01*
X72416390Y-35643190D01*
X72416390Y-35643188D01*
X72416392Y-35643186D01*
X72450500Y-35515892D01*
X72450500Y-35384108D01*
X72416392Y-35256814D01*
X72416390Y-35256811D01*
X72416390Y-35256809D01*
X72350503Y-35142690D01*
X72350501Y-35142688D01*
X72350500Y-35142686D01*
X72257314Y-35049500D01*
X72257311Y-35049498D01*
X72257309Y-35049496D01*
X72143189Y-34983609D01*
X72143191Y-34983609D01*
X72069544Y-34963876D01*
X72015892Y-34949500D01*
X71884108Y-34949500D01*
X71830456Y-34963876D01*
X71756809Y-34983609D01*
X71642690Y-35049496D01*
X71549496Y-35142690D01*
X71483609Y-35256809D01*
X71475746Y-35286155D01*
X71449500Y-35384108D01*
X69437671Y-35384108D01*
X69604118Y-35315163D01*
X69674151Y-35286155D01*
X69684343Y-35281932D01*
X69728620Y-35263593D01*
X70204966Y-34898080D01*
X70570479Y-34421734D01*
X70800250Y-33867018D01*
X70878620Y-33271734D01*
X70877916Y-33266390D01*
X70849874Y-33053387D01*
X70800250Y-32676451D01*
X70630398Y-32266392D01*
X70570479Y-32121733D01*
X70570478Y-32121732D01*
X70204970Y-31645394D01*
X70204969Y-31645393D01*
X70204966Y-31645389D01*
X70204961Y-31645385D01*
X70204960Y-31645384D01*
X69928685Y-31433391D01*
X69728620Y-31279876D01*
X69673846Y-31257188D01*
X69422314Y-31153000D01*
X69173904Y-31050105D01*
X69173902Y-31050104D01*
X69173900Y-31050104D01*
X68578621Y-30971734D01*
X68578619Y-30971734D01*
X67983339Y-31050104D01*
X67983333Y-31050106D01*
X67428619Y-31279875D01*
X67428618Y-31279876D01*
X66952280Y-31645384D01*
X66952270Y-31645394D01*
X66586762Y-32121732D01*
X66586761Y-32121733D01*
X66356992Y-32676448D01*
X66356990Y-32676454D01*
X66278620Y-33271733D01*
X64434138Y-33271733D01*
X64433537Y-33270692D01*
X64388503Y-33192690D01*
X64388501Y-33192688D01*
X64388500Y-33192686D01*
X64295314Y-33099500D01*
X64295311Y-33099498D01*
X64295309Y-33099496D01*
X64181189Y-33033609D01*
X64181191Y-33033609D01*
X64127813Y-33019307D01*
X64053892Y-32999500D01*
X63922108Y-32999500D01*
X63848187Y-33019307D01*
X63794809Y-33033609D01*
X63680690Y-33099496D01*
X63587496Y-33192690D01*
X63521609Y-33306809D01*
X63502539Y-33377978D01*
X63487500Y-33434108D01*
X60394053Y-33434108D01*
X60393189Y-33433609D01*
X60393191Y-33433609D01*
X60343799Y-33420375D01*
X60265892Y-33399500D01*
X60134108Y-33399500D01*
X60056200Y-33420375D01*
X60006809Y-33433609D01*
X59892690Y-33499496D01*
X59799496Y-33592690D01*
X59733609Y-33706809D01*
X59733608Y-33706814D01*
X59699500Y-33834108D01*
X59699500Y-33965892D01*
X59725911Y-34064460D01*
X59733135Y-34091419D01*
X59729932Y-34152521D01*
X59691427Y-34200071D01*
X59687009Y-34202778D01*
X59623389Y-34239509D01*
X59539507Y-34323391D01*
X59480202Y-34426109D01*
X59475626Y-34443187D01*
X59449500Y-34540691D01*
X58495916Y-34540691D01*
X58573886Y-34519799D01*
X58573888Y-34519797D01*
X58573890Y-34519797D01*
X58676608Y-34460492D01*
X58676608Y-34460491D01*
X58676613Y-34460489D01*
X58760489Y-34376613D01*
X58791217Y-34323391D01*
X58819797Y-34273890D01*
X58819797Y-34273888D01*
X58819799Y-34273886D01*
X58850500Y-34159309D01*
X58850500Y-34040691D01*
X58819799Y-33926114D01*
X58819797Y-33926111D01*
X58819797Y-33926109D01*
X58760492Y-33823391D01*
X58760490Y-33823389D01*
X58760489Y-33823387D01*
X58676613Y-33739511D01*
X58676610Y-33739509D01*
X58676608Y-33739507D01*
X58573889Y-33680202D01*
X58573890Y-33680202D01*
X58560351Y-33676574D01*
X58459309Y-33649500D01*
X58340691Y-33649500D01*
X58270567Y-33668289D01*
X58226109Y-33680202D01*
X58123391Y-33739507D01*
X58039507Y-33823391D01*
X57980202Y-33926109D01*
X57975759Y-33942690D01*
X57949500Y-34040691D01*
X38207084Y-34040691D01*
X38150503Y-33942690D01*
X38150501Y-33942688D01*
X38150500Y-33942686D01*
X38057314Y-33849500D01*
X38057311Y-33849498D01*
X38057309Y-33849496D01*
X37943189Y-33783609D01*
X37943191Y-33783609D01*
X37891989Y-33769890D01*
X37815892Y-33749500D01*
X37684108Y-33749500D01*
X37608011Y-33769890D01*
X37556809Y-33783609D01*
X37442690Y-33849496D01*
X37349496Y-33942690D01*
X37283609Y-34056809D01*
X37283608Y-34056814D01*
X37249500Y-34184108D01*
X36792997Y-34184108D01*
X36844186Y-34170392D01*
X36844188Y-34170390D01*
X36844190Y-34170390D01*
X36958309Y-34104503D01*
X36958309Y-34104502D01*
X36958314Y-34104500D01*
X37051500Y-34011314D01*
X37051503Y-34011309D01*
X37117390Y-33897190D01*
X37117390Y-33897188D01*
X37117392Y-33897186D01*
X37151500Y-33769892D01*
X37151500Y-33638108D01*
X37117392Y-33510814D01*
X37117390Y-33510811D01*
X37117390Y-33510809D01*
X37051503Y-33396690D01*
X37051501Y-33396688D01*
X37051500Y-33396686D01*
X36958314Y-33303500D01*
X36958311Y-33303498D01*
X36958309Y-33303496D01*
X36901489Y-33270691D01*
X39789500Y-33270691D01*
X39789500Y-33389309D01*
X39815997Y-33488197D01*
X39820202Y-33503890D01*
X39879507Y-33606608D01*
X39879509Y-33606610D01*
X39879511Y-33606613D01*
X39963387Y-33690489D01*
X39963389Y-33690490D01*
X39963391Y-33690492D01*
X40066110Y-33749797D01*
X40066111Y-33749797D01*
X40066114Y-33749799D01*
X40180691Y-33780500D01*
X40180693Y-33780500D01*
X40299307Y-33780500D01*
X40299309Y-33780500D01*
X40413886Y-33749799D01*
X40413888Y-33749797D01*
X40413890Y-33749797D01*
X40516608Y-33690492D01*
X40516608Y-33690491D01*
X40516613Y-33690489D01*
X40600489Y-33606613D01*
X40608530Y-33592686D01*
X40659797Y-33503890D01*
X40659797Y-33503888D01*
X40659799Y-33503886D01*
X40672319Y-33457157D01*
X40705643Y-33405845D01*
X40762765Y-33383918D01*
X40793565Y-33387154D01*
X40880691Y-33410500D01*
X40880693Y-33410500D01*
X40999307Y-33410500D01*
X40999309Y-33410500D01*
X41097805Y-33384108D01*
X56249500Y-33384108D01*
X56249500Y-33515892D01*
X56270077Y-33592686D01*
X56283609Y-33643190D01*
X56349496Y-33757309D01*
X56349498Y-33757311D01*
X56349500Y-33757314D01*
X56442686Y-33850500D01*
X56442688Y-33850501D01*
X56442690Y-33850503D01*
X56556810Y-33916390D01*
X56556808Y-33916390D01*
X56556812Y-33916391D01*
X56556814Y-33916392D01*
X56684108Y-33950500D01*
X56684110Y-33950500D01*
X56815890Y-33950500D01*
X56815892Y-33950500D01*
X56943186Y-33916392D01*
X56943188Y-33916390D01*
X56943190Y-33916390D01*
X57057309Y-33850503D01*
X57057309Y-33850502D01*
X57057314Y-33850500D01*
X57150500Y-33757314D01*
X57154840Y-33749797D01*
X57216390Y-33643190D01*
X57216390Y-33643188D01*
X57216392Y-33643186D01*
X57250500Y-33515892D01*
X57250500Y-33384108D01*
X57216392Y-33256814D01*
X57216390Y-33256811D01*
X57216390Y-33256809D01*
X57150503Y-33142690D01*
X57150501Y-33142688D01*
X57150500Y-33142686D01*
X57057314Y-33049500D01*
X57057311Y-33049498D01*
X57057309Y-33049496D01*
X56943189Y-32983609D01*
X56943191Y-32983609D01*
X56890560Y-32969507D01*
X56815892Y-32949500D01*
X56684108Y-32949500D01*
X56609440Y-32969507D01*
X56556809Y-32983609D01*
X56442690Y-33049496D01*
X56349496Y-33142690D01*
X56283609Y-33256809D01*
X56270212Y-33306809D01*
X56249500Y-33384108D01*
X41097805Y-33384108D01*
X41113886Y-33379799D01*
X41113888Y-33379797D01*
X41113890Y-33379797D01*
X41216608Y-33320492D01*
X41216608Y-33320491D01*
X41216613Y-33320489D01*
X41300489Y-33236613D01*
X41325848Y-33192690D01*
X41359797Y-33133890D01*
X41359797Y-33133888D01*
X41359799Y-33133886D01*
X41390500Y-33019309D01*
X41390500Y-32900691D01*
X41359799Y-32786114D01*
X41329773Y-32734108D01*
X44199500Y-32734108D01*
X44199500Y-32865892D01*
X44223070Y-32953857D01*
X44233609Y-32993190D01*
X44299496Y-33107309D01*
X44299498Y-33107311D01*
X44299500Y-33107314D01*
X44392686Y-33200500D01*
X44392688Y-33200501D01*
X44392690Y-33200503D01*
X44506810Y-33266390D01*
X44506808Y-33266390D01*
X44506812Y-33266391D01*
X44506814Y-33266392D01*
X44634108Y-33300500D01*
X44634110Y-33300500D01*
X44765890Y-33300500D01*
X44765892Y-33300500D01*
X44893186Y-33266392D01*
X44893188Y-33266390D01*
X44893190Y-33266390D01*
X45007309Y-33200503D01*
X45007309Y-33200502D01*
X45007314Y-33200500D01*
X45100500Y-33107314D01*
X45100503Y-33107309D01*
X45166390Y-32993190D01*
X45166390Y-32993188D01*
X45166392Y-32993186D01*
X45200500Y-32865892D01*
X45200500Y-32734108D01*
X45166392Y-32606814D01*
X45166390Y-32606811D01*
X45166390Y-32606809D01*
X45100503Y-32492690D01*
X45100501Y-32492688D01*
X45100500Y-32492686D01*
X45007314Y-32399500D01*
X45007311Y-32399498D01*
X45007309Y-32399496D01*
X44992058Y-32390691D01*
X59079500Y-32390691D01*
X59079500Y-32509309D01*
X59087778Y-32540201D01*
X59110202Y-32623890D01*
X59169507Y-32726608D01*
X59169509Y-32726610D01*
X59169511Y-32726613D01*
X59253387Y-32810489D01*
X59253389Y-32810490D01*
X59253391Y-32810492D01*
X59356110Y-32869797D01*
X59356111Y-32869797D01*
X59356114Y-32869799D01*
X59470691Y-32900500D01*
X59470693Y-32900500D01*
X59589307Y-32900500D01*
X59589309Y-32900500D01*
X59703886Y-32869799D01*
X59703888Y-32869797D01*
X59703890Y-32869797D01*
X59806608Y-32810492D01*
X59806608Y-32810491D01*
X59806613Y-32810489D01*
X59890489Y-32726613D01*
X59890492Y-32726608D01*
X59949797Y-32623890D01*
X59949797Y-32623888D01*
X59949799Y-32623886D01*
X59980500Y-32509309D01*
X59980500Y-32390691D01*
X59949799Y-32276114D01*
X59949797Y-32276111D01*
X59949797Y-32276109D01*
X59890492Y-32173391D01*
X59890490Y-32173389D01*
X59890489Y-32173387D01*
X59806613Y-32089511D01*
X59806610Y-32089509D01*
X59806608Y-32089507D01*
X59703889Y-32030202D01*
X59703890Y-32030202D01*
X59690351Y-32026574D01*
X59589309Y-31999500D01*
X59470691Y-31999500D01*
X59400567Y-32018289D01*
X59356109Y-32030202D01*
X59253391Y-32089507D01*
X59169507Y-32173391D01*
X59110202Y-32276109D01*
X59103667Y-32300500D01*
X59079500Y-32390691D01*
X44992058Y-32390691D01*
X44893189Y-32333609D01*
X44893191Y-32333609D01*
X44843799Y-32320375D01*
X44765892Y-32299500D01*
X44634108Y-32299500D01*
X44556200Y-32320375D01*
X44506809Y-32333609D01*
X44392690Y-32399496D01*
X44299496Y-32492690D01*
X44233609Y-32606809D01*
X44214950Y-32676448D01*
X44199500Y-32734108D01*
X41329773Y-32734108D01*
X41300489Y-32683387D01*
X41216613Y-32599511D01*
X41216610Y-32599509D01*
X41216608Y-32599507D01*
X41113889Y-32540202D01*
X41113890Y-32540202D01*
X41100351Y-32536574D01*
X40999309Y-32509500D01*
X40880691Y-32509500D01*
X40810567Y-32528289D01*
X40766109Y-32540202D01*
X40663391Y-32599507D01*
X40579507Y-32683391D01*
X40520202Y-32786110D01*
X40520201Y-32786113D01*
X40507679Y-32832842D01*
X40474354Y-32884156D01*
X40417232Y-32906081D01*
X40386430Y-32902844D01*
X40368124Y-32897939D01*
X40299309Y-32879500D01*
X40180691Y-32879500D01*
X40110567Y-32898289D01*
X40066109Y-32910202D01*
X39963391Y-32969507D01*
X39879507Y-33053391D01*
X39820202Y-33156109D01*
X39810400Y-33192690D01*
X39789500Y-33270691D01*
X36901489Y-33270691D01*
X36844189Y-33237609D01*
X36844191Y-33237609D01*
X36794799Y-33224375D01*
X36716892Y-33203500D01*
X36585108Y-33203500D01*
X36507200Y-33224375D01*
X36457809Y-33237609D01*
X36343690Y-33303496D01*
X36250496Y-33396690D01*
X36184609Y-33510809D01*
X36169850Y-33565892D01*
X36150500Y-33638108D01*
X33673145Y-33638108D01*
X33721379Y-33271734D01*
X33720675Y-33266390D01*
X33673782Y-32910201D01*
X33643008Y-32676451D01*
X33413237Y-32121734D01*
X33115800Y-31734108D01*
X52699500Y-31734108D01*
X52699500Y-31865892D01*
X52704323Y-31883890D01*
X52733609Y-31993190D01*
X52799496Y-32107309D01*
X52799498Y-32107311D01*
X52799500Y-32107314D01*
X52892686Y-32200500D01*
X52892688Y-32200501D01*
X52892690Y-32200503D01*
X53006810Y-32266390D01*
X53006808Y-32266390D01*
X53006812Y-32266391D01*
X53006814Y-32266392D01*
X53134108Y-32300500D01*
X53134110Y-32300500D01*
X53265890Y-32300500D01*
X53265892Y-32300500D01*
X53393186Y-32266392D01*
X53393188Y-32266390D01*
X53393190Y-32266390D01*
X53507309Y-32200503D01*
X53507309Y-32200502D01*
X53507314Y-32200500D01*
X53600500Y-32107314D01*
X53645021Y-32030202D01*
X53666390Y-31993190D01*
X53666390Y-31993188D01*
X53666392Y-31993186D01*
X53700500Y-31865892D01*
X53700500Y-31734108D01*
X53678149Y-31650691D01*
X61399500Y-31650691D01*
X61399500Y-31769309D01*
X61426574Y-31870351D01*
X61430202Y-31883890D01*
X61489507Y-31986608D01*
X61489509Y-31986610D01*
X61489511Y-31986613D01*
X61573387Y-32070489D01*
X61573389Y-32070490D01*
X61573391Y-32070492D01*
X61676110Y-32129797D01*
X61676111Y-32129797D01*
X61676114Y-32129799D01*
X61790691Y-32160500D01*
X61790693Y-32160500D01*
X61909307Y-32160500D01*
X61909309Y-32160500D01*
X62023886Y-32129799D01*
X62023888Y-32129797D01*
X62023890Y-32129797D01*
X62126608Y-32070492D01*
X62126608Y-32070491D01*
X62126613Y-32070489D01*
X62210489Y-31986613D01*
X62269799Y-31883886D01*
X62300500Y-31769309D01*
X62300500Y-31650691D01*
X62269799Y-31536114D01*
X62269797Y-31536111D01*
X62269797Y-31536109D01*
X62210492Y-31433391D01*
X62210490Y-31433389D01*
X62210489Y-31433387D01*
X62126613Y-31349511D01*
X62126610Y-31349509D01*
X62126603Y-31349502D01*
X62126225Y-31349212D01*
X62126031Y-31348930D01*
X62122024Y-31344923D01*
X62122767Y-31344179D01*
X62091573Y-31298785D01*
X62093179Y-31237621D01*
X62130430Y-31189082D01*
X62160873Y-31175049D01*
X62193186Y-31166392D01*
X62307314Y-31100500D01*
X62400500Y-31007314D01*
X62400503Y-31007309D01*
X62466390Y-30893190D01*
X62466390Y-30893188D01*
X62466392Y-30893186D01*
X62500500Y-30765892D01*
X62500500Y-30634108D01*
X62466392Y-30506814D01*
X62466390Y-30506811D01*
X62466390Y-30506809D01*
X62400503Y-30392690D01*
X62400501Y-30392688D01*
X62400500Y-30392686D01*
X62307314Y-30299500D01*
X62307311Y-30299498D01*
X62307309Y-30299496D01*
X62193189Y-30233609D01*
X62193191Y-30233609D01*
X62143799Y-30220375D01*
X62065892Y-30199500D01*
X61934108Y-30199500D01*
X61856200Y-30220375D01*
X61806809Y-30233609D01*
X61692690Y-30299496D01*
X61599496Y-30392690D01*
X61533609Y-30506809D01*
X61518955Y-30561500D01*
X61499500Y-30634108D01*
X61499500Y-30765892D01*
X61529166Y-30876608D01*
X61533609Y-30893190D01*
X61599496Y-31007309D01*
X61599498Y-31007311D01*
X61599500Y-31007314D01*
X61692686Y-31100500D01*
X61692688Y-31100501D01*
X61704864Y-31107531D01*
X61745806Y-31153000D01*
X61752202Y-31213850D01*
X61721610Y-31266839D01*
X61680992Y-31288894D01*
X61676110Y-31290202D01*
X61573391Y-31349507D01*
X61489507Y-31433391D01*
X61430202Y-31536109D01*
X61430201Y-31536114D01*
X61399500Y-31650691D01*
X53678149Y-31650691D01*
X53666392Y-31606814D01*
X53666390Y-31606811D01*
X53666390Y-31606809D01*
X53600503Y-31492690D01*
X53600501Y-31492688D01*
X53600500Y-31492686D01*
X53507314Y-31399500D01*
X53507311Y-31399498D01*
X53507309Y-31399496D01*
X53393189Y-31333609D01*
X53393191Y-31333609D01*
X53343799Y-31320375D01*
X53265892Y-31299500D01*
X53134108Y-31299500D01*
X53056200Y-31320375D01*
X53006809Y-31333609D01*
X52892690Y-31399496D01*
X52799496Y-31492690D01*
X52733609Y-31606809D01*
X52721851Y-31650691D01*
X52699500Y-31734108D01*
X33115800Y-31734108D01*
X33069545Y-31673827D01*
X33047728Y-31645394D01*
X33047727Y-31645393D01*
X33047724Y-31645389D01*
X33047719Y-31645385D01*
X33047718Y-31645384D01*
X32571380Y-31279876D01*
X32571379Y-31279875D01*
X32097900Y-31083754D01*
X32016663Y-31050105D01*
X32016661Y-31050104D01*
X32016659Y-31050104D01*
X31421380Y-30971734D01*
X31421378Y-30971734D01*
X30826098Y-31050104D01*
X30826092Y-31050106D01*
X30271380Y-31279875D01*
X29795038Y-31645384D01*
X29795028Y-31645394D01*
X29429520Y-32121732D01*
X29429519Y-32121733D01*
X29199750Y-32676448D01*
X29199748Y-32676454D01*
X29121379Y-33271733D01*
X26926623Y-33271733D01*
X26946255Y-33243710D01*
X26948211Y-33241019D01*
X27545065Y-32449380D01*
X27547184Y-32446670D01*
X28171277Y-31676374D01*
X28173415Y-31673827D01*
X28824075Y-30925707D01*
X28826289Y-30923250D01*
X29011343Y-30724904D01*
X37899207Y-30724904D01*
X37899207Y-30856688D01*
X37918453Y-30928516D01*
X37933316Y-30983986D01*
X37999203Y-31098105D01*
X37999205Y-31098107D01*
X37999207Y-31098110D01*
X38092393Y-31191296D01*
X38092395Y-31191297D01*
X38092397Y-31191299D01*
X38206517Y-31257186D01*
X38206515Y-31257186D01*
X38206519Y-31257187D01*
X38206521Y-31257188D01*
X38333815Y-31291296D01*
X38333817Y-31291296D01*
X38465597Y-31291296D01*
X38465599Y-31291296D01*
X38592893Y-31257188D01*
X38592895Y-31257186D01*
X38592897Y-31257186D01*
X38707016Y-31191299D01*
X38707016Y-31191298D01*
X38707021Y-31191296D01*
X38800207Y-31098110D01*
X38827923Y-31050105D01*
X38866097Y-30983986D01*
X38866097Y-30983984D01*
X38866099Y-30983982D01*
X38900207Y-30856688D01*
X38900207Y-30724904D01*
X38866099Y-30597610D01*
X38866097Y-30597607D01*
X38866097Y-30597605D01*
X38858070Y-30583702D01*
X38833237Y-30540691D01*
X50749500Y-30540691D01*
X50749500Y-30659309D01*
X50767076Y-30724904D01*
X50780202Y-30773890D01*
X50839507Y-30876608D01*
X50839509Y-30876610D01*
X50839511Y-30876613D01*
X50923387Y-30960489D01*
X50923389Y-30960490D01*
X50923391Y-30960492D01*
X51026110Y-31019797D01*
X51026111Y-31019797D01*
X51026114Y-31019799D01*
X51140691Y-31050500D01*
X51140693Y-31050500D01*
X51259307Y-31050500D01*
X51259309Y-31050500D01*
X51373886Y-31019799D01*
X51373888Y-31019797D01*
X51373890Y-31019797D01*
X51476608Y-30960492D01*
X51476608Y-30960491D01*
X51476613Y-30960489D01*
X51560489Y-30876613D01*
X51619799Y-30773886D01*
X51650500Y-30659309D01*
X51650500Y-30540691D01*
X51619799Y-30426114D01*
X51619797Y-30426111D01*
X51619797Y-30426109D01*
X51560492Y-30323391D01*
X51560490Y-30323389D01*
X51560489Y-30323387D01*
X51476613Y-30239511D01*
X51476610Y-30239509D01*
X51476608Y-30239507D01*
X51373889Y-30180202D01*
X51373890Y-30180202D01*
X51360351Y-30176574D01*
X51259309Y-30149500D01*
X51140691Y-30149500D01*
X51070567Y-30168289D01*
X51026109Y-30180202D01*
X50923391Y-30239507D01*
X50839507Y-30323391D01*
X50780202Y-30426109D01*
X50780201Y-30426114D01*
X50749500Y-30540691D01*
X38833237Y-30540691D01*
X38800210Y-30483486D01*
X38800208Y-30483484D01*
X38800207Y-30483482D01*
X38707021Y-30390296D01*
X38707018Y-30390294D01*
X38707016Y-30390292D01*
X38592896Y-30324405D01*
X38592898Y-30324405D01*
X38543506Y-30311171D01*
X38465599Y-30290296D01*
X38333815Y-30290296D01*
X38255907Y-30311171D01*
X38206516Y-30324405D01*
X38092397Y-30390292D01*
X37999203Y-30483486D01*
X37933316Y-30597605D01*
X37933315Y-30597610D01*
X37899207Y-30724904D01*
X29011343Y-30724904D01*
X29502618Y-30198340D01*
X29504985Y-30195890D01*
X29705868Y-29995108D01*
X59068500Y-29995108D01*
X59068500Y-30126892D01*
X59089030Y-30203510D01*
X59102609Y-30254190D01*
X59168496Y-30368309D01*
X59168498Y-30368311D01*
X59168500Y-30368314D01*
X59261686Y-30461500D01*
X59261688Y-30461501D01*
X59261690Y-30461503D01*
X59375810Y-30527390D01*
X59375808Y-30527390D01*
X59375812Y-30527391D01*
X59375814Y-30527392D01*
X59503108Y-30561500D01*
X59503110Y-30561500D01*
X59634890Y-30561500D01*
X59634892Y-30561500D01*
X59762186Y-30527392D01*
X59762188Y-30527390D01*
X59762190Y-30527390D01*
X59876309Y-30461503D01*
X59876309Y-30461502D01*
X59876314Y-30461500D01*
X59969500Y-30368314D01*
X59994852Y-30324404D01*
X60035390Y-30254190D01*
X60035390Y-30254188D01*
X60035392Y-30254186D01*
X60069500Y-30126892D01*
X60069500Y-29995108D01*
X60035392Y-29867814D01*
X60035390Y-29867811D01*
X60035390Y-29867809D01*
X59969503Y-29753690D01*
X59969501Y-29753688D01*
X59969500Y-29753686D01*
X59876314Y-29660500D01*
X59876311Y-29660498D01*
X59876309Y-29660496D01*
X59762189Y-29594609D01*
X59762191Y-29594609D01*
X59712799Y-29581375D01*
X59634892Y-29560500D01*
X59503108Y-29560500D01*
X59425200Y-29581375D01*
X59375809Y-29594609D01*
X59261690Y-29660496D01*
X59168496Y-29753690D01*
X59102609Y-29867809D01*
X59089592Y-29916390D01*
X59068500Y-29995108D01*
X29705868Y-29995108D01*
X30206187Y-29495040D01*
X30208592Y-29492719D01*
X30500453Y-29220691D01*
X43139500Y-29220691D01*
X43139500Y-29339309D01*
X43162164Y-29423890D01*
X43170202Y-29453890D01*
X43229507Y-29556608D01*
X43229509Y-29556610D01*
X43229511Y-29556613D01*
X43313387Y-29640489D01*
X43313389Y-29640490D01*
X43313391Y-29640492D01*
X43416110Y-29699797D01*
X43416111Y-29699797D01*
X43416114Y-29699799D01*
X43530691Y-29730500D01*
X43530693Y-29730500D01*
X43649307Y-29730500D01*
X43649309Y-29730500D01*
X43763886Y-29699799D01*
X43763888Y-29699797D01*
X43763890Y-29699797D01*
X43866608Y-29640492D01*
X43866608Y-29640491D01*
X43866613Y-29640489D01*
X43950489Y-29556613D01*
X43967813Y-29526608D01*
X44009797Y-29453890D01*
X44009797Y-29453888D01*
X44009799Y-29453886D01*
X44028496Y-29384108D01*
X47049500Y-29384108D01*
X47049500Y-29515892D01*
X47052373Y-29526613D01*
X47083609Y-29643190D01*
X47149496Y-29757309D01*
X47149498Y-29757311D01*
X47149500Y-29757314D01*
X47242686Y-29850500D01*
X47242688Y-29850501D01*
X47242690Y-29850503D01*
X47356810Y-29916390D01*
X47356808Y-29916390D01*
X47356812Y-29916391D01*
X47356814Y-29916392D01*
X47484108Y-29950500D01*
X47484110Y-29950500D01*
X47615890Y-29950500D01*
X47615892Y-29950500D01*
X47743186Y-29916392D01*
X47766586Y-29902882D01*
X47766589Y-29902881D01*
X47857309Y-29850503D01*
X47857309Y-29850502D01*
X47857314Y-29850500D01*
X47950500Y-29757314D01*
X47983302Y-29700500D01*
X48016390Y-29643190D01*
X48016390Y-29643188D01*
X48016392Y-29643186D01*
X48050500Y-29515892D01*
X48050500Y-29384108D01*
X48016392Y-29256814D01*
X48016390Y-29256811D01*
X48016390Y-29256809D01*
X48003049Y-29233702D01*
X47978216Y-29190691D01*
X49299500Y-29190691D01*
X49299500Y-29309309D01*
X49319543Y-29384109D01*
X49330202Y-29423890D01*
X49389507Y-29526608D01*
X49389509Y-29526610D01*
X49389511Y-29526613D01*
X49473387Y-29610489D01*
X49473389Y-29610490D01*
X49473391Y-29610492D01*
X49576110Y-29669797D01*
X49576111Y-29669797D01*
X49576114Y-29669799D01*
X49690691Y-29700500D01*
X49690693Y-29700500D01*
X49809307Y-29700500D01*
X49809309Y-29700500D01*
X49923886Y-29669799D01*
X49923888Y-29669797D01*
X49923890Y-29669797D01*
X50026608Y-29610492D01*
X50026608Y-29610491D01*
X50026613Y-29610489D01*
X50110489Y-29526613D01*
X50130058Y-29492719D01*
X50164264Y-29433474D01*
X50209733Y-29392533D01*
X50270584Y-29386137D01*
X50323572Y-29416730D01*
X50335736Y-29433474D01*
X50389507Y-29526608D01*
X50389509Y-29526610D01*
X50389511Y-29526613D01*
X50473387Y-29610489D01*
X50473389Y-29610490D01*
X50473391Y-29610492D01*
X50576110Y-29669797D01*
X50576111Y-29669797D01*
X50576114Y-29669799D01*
X50690691Y-29700500D01*
X50690693Y-29700500D01*
X50809307Y-29700500D01*
X50809309Y-29700500D01*
X50923886Y-29669799D01*
X50923888Y-29669797D01*
X50923890Y-29669797D01*
X51026608Y-29610492D01*
X51026608Y-29610491D01*
X51026613Y-29610489D01*
X51110489Y-29526613D01*
X51152476Y-29453890D01*
X51169797Y-29423890D01*
X51169797Y-29423888D01*
X51169799Y-29423886D01*
X51200500Y-29309309D01*
X51200500Y-29190691D01*
X51169799Y-29076114D01*
X51169797Y-29076111D01*
X51169797Y-29076109D01*
X51110492Y-28973391D01*
X51110490Y-28973389D01*
X51110489Y-28973387D01*
X51026613Y-28889511D01*
X51026610Y-28889509D01*
X51026608Y-28889507D01*
X50923889Y-28830202D01*
X50923890Y-28830202D01*
X50891589Y-28821547D01*
X50809309Y-28799500D01*
X50690691Y-28799500D01*
X50626351Y-28816740D01*
X50576109Y-28830202D01*
X50473391Y-28889507D01*
X50389509Y-28973389D01*
X50335736Y-29066526D01*
X50290266Y-29107466D01*
X50229416Y-29113861D01*
X50176428Y-29083268D01*
X50164264Y-29066526D01*
X50110490Y-28973389D01*
X50110489Y-28973387D01*
X50026613Y-28889511D01*
X50026610Y-28889509D01*
X50026608Y-28889507D01*
X49923889Y-28830202D01*
X49923890Y-28830202D01*
X49891589Y-28821547D01*
X49809309Y-28799500D01*
X49690691Y-28799500D01*
X49626351Y-28816740D01*
X49576109Y-28830202D01*
X49473391Y-28889507D01*
X49389507Y-28973391D01*
X49330202Y-29076109D01*
X49330201Y-29076114D01*
X49299500Y-29190691D01*
X47978216Y-29190691D01*
X47950503Y-29142690D01*
X47950501Y-29142688D01*
X47950500Y-29142686D01*
X47857314Y-29049500D01*
X47857311Y-29049498D01*
X47857309Y-29049496D01*
X47743189Y-28983609D01*
X47743191Y-28983609D01*
X47693799Y-28970375D01*
X47615892Y-28949500D01*
X47484108Y-28949500D01*
X47406200Y-28970375D01*
X47356809Y-28983609D01*
X47242690Y-29049496D01*
X47149496Y-29142690D01*
X47083609Y-29256809D01*
X47083608Y-29256814D01*
X47049500Y-29384108D01*
X44028496Y-29384108D01*
X44040500Y-29339309D01*
X44040500Y-29220691D01*
X44009799Y-29106114D01*
X44009797Y-29106111D01*
X44009797Y-29106109D01*
X43950492Y-29003391D01*
X43950490Y-29003389D01*
X43950489Y-29003387D01*
X43866613Y-28919511D01*
X43866610Y-28919509D01*
X43866608Y-28919507D01*
X43763889Y-28860202D01*
X43763890Y-28860202D01*
X43750351Y-28856574D01*
X43649309Y-28829500D01*
X43530691Y-28829500D01*
X43460567Y-28848289D01*
X43416109Y-28860202D01*
X43313391Y-28919507D01*
X43229507Y-29003391D01*
X43170202Y-29106109D01*
X43160400Y-29142690D01*
X43139500Y-29220691D01*
X30500453Y-29220691D01*
X30933855Y-28816740D01*
X30936392Y-28814458D01*
X31452096Y-28366390D01*
X31684753Y-28164246D01*
X31687332Y-28162083D01*
X32092555Y-27834108D01*
X37049500Y-27834108D01*
X37049500Y-27965892D01*
X37060598Y-28007309D01*
X37083609Y-28093190D01*
X37149496Y-28207309D01*
X37149498Y-28207311D01*
X37149500Y-28207314D01*
X37242686Y-28300500D01*
X37242688Y-28300501D01*
X37242690Y-28300503D01*
X37356810Y-28366390D01*
X37356808Y-28366390D01*
X37356812Y-28366391D01*
X37356814Y-28366392D01*
X37484108Y-28400500D01*
X37484110Y-28400500D01*
X37615890Y-28400500D01*
X37615892Y-28400500D01*
X37743186Y-28366392D01*
X37743188Y-28366390D01*
X37743190Y-28366390D01*
X37857309Y-28300503D01*
X37857309Y-28300502D01*
X37857314Y-28300500D01*
X37950500Y-28207314D01*
X37973981Y-28166644D01*
X38016390Y-28093190D01*
X38016390Y-28093188D01*
X38016392Y-28093186D01*
X38050500Y-27965892D01*
X38050500Y-27834108D01*
X38016392Y-27706814D01*
X37974415Y-27634108D01*
X56129500Y-27634108D01*
X56129500Y-27765892D01*
X56147778Y-27834108D01*
X56163609Y-27893190D01*
X56229496Y-28007309D01*
X56229498Y-28007311D01*
X56229500Y-28007314D01*
X56322686Y-28100500D01*
X56322688Y-28100501D01*
X56322690Y-28100503D01*
X56436810Y-28166390D01*
X56436808Y-28166390D01*
X56436812Y-28166391D01*
X56436814Y-28166392D01*
X56564108Y-28200500D01*
X56564110Y-28200500D01*
X56695890Y-28200500D01*
X56695892Y-28200500D01*
X56823186Y-28166392D01*
X56823188Y-28166390D01*
X56823190Y-28166390D01*
X56937309Y-28100503D01*
X56937309Y-28100502D01*
X56937314Y-28100500D01*
X57030500Y-28007314D01*
X57096392Y-27893186D01*
X57130500Y-27765892D01*
X57130500Y-27634108D01*
X57096392Y-27506814D01*
X57096390Y-27506811D01*
X57096390Y-27506809D01*
X57030503Y-27392690D01*
X57030501Y-27392688D01*
X57030500Y-27392686D01*
X56937314Y-27299500D01*
X56937311Y-27299498D01*
X56937309Y-27299496D01*
X56823189Y-27233609D01*
X56823191Y-27233609D01*
X56773799Y-27220375D01*
X56695892Y-27199500D01*
X56564108Y-27199500D01*
X56486200Y-27220375D01*
X56436809Y-27233609D01*
X56322690Y-27299496D01*
X56229496Y-27392690D01*
X56163609Y-27506809D01*
X56154539Y-27540660D01*
X56129500Y-27634108D01*
X37974415Y-27634108D01*
X37950500Y-27592686D01*
X37857314Y-27499500D01*
X37857311Y-27499498D01*
X37857309Y-27499496D01*
X37743189Y-27433609D01*
X37743191Y-27433609D01*
X37693799Y-27420375D01*
X37615892Y-27399500D01*
X37484108Y-27399500D01*
X37406200Y-27420375D01*
X37356809Y-27433609D01*
X37242690Y-27499496D01*
X37149496Y-27592690D01*
X37083609Y-27706809D01*
X37083608Y-27706814D01*
X37049500Y-27834108D01*
X32092555Y-27834108D01*
X32457948Y-27538370D01*
X32460622Y-27536281D01*
X33252559Y-26939827D01*
X33255292Y-26937843D01*
X33774855Y-26574234D01*
X46534500Y-26574234D01*
X46534500Y-26725766D01*
X46567305Y-26848196D01*
X46573720Y-26872139D01*
X46649481Y-27003360D01*
X46649483Y-27003362D01*
X46649485Y-27003365D01*
X46756635Y-27110515D01*
X46756637Y-27110516D01*
X46756639Y-27110518D01*
X46887861Y-27186279D01*
X46887859Y-27186279D01*
X46887863Y-27186280D01*
X46887865Y-27186281D01*
X47034234Y-27225500D01*
X47034236Y-27225500D01*
X47185764Y-27225500D01*
X47185766Y-27225500D01*
X47332135Y-27186281D01*
X47332137Y-27186279D01*
X47332139Y-27186279D01*
X47463360Y-27110518D01*
X47463360Y-27110517D01*
X47463365Y-27110515D01*
X47570515Y-27003365D01*
X47607199Y-26939827D01*
X47646279Y-26872139D01*
X47646279Y-26872137D01*
X47646281Y-26872135D01*
X47685500Y-26725766D01*
X47685500Y-26574234D01*
X52314500Y-26574234D01*
X52314500Y-26725766D01*
X52347305Y-26848196D01*
X52353720Y-26872139D01*
X52429481Y-27003360D01*
X52429483Y-27003362D01*
X52429485Y-27003365D01*
X52536635Y-27110515D01*
X52536637Y-27110516D01*
X52536639Y-27110518D01*
X52667861Y-27186279D01*
X52667859Y-27186279D01*
X52667863Y-27186280D01*
X52667865Y-27186281D01*
X52814234Y-27225500D01*
X52814236Y-27225500D01*
X52965764Y-27225500D01*
X52965766Y-27225500D01*
X53112135Y-27186281D01*
X53112137Y-27186279D01*
X53112139Y-27186279D01*
X53243360Y-27110518D01*
X53243360Y-27110517D01*
X53243365Y-27110515D01*
X53350515Y-27003365D01*
X53387199Y-26939827D01*
X53426279Y-26872139D01*
X53426279Y-26872137D01*
X53426281Y-26872135D01*
X53465500Y-26725766D01*
X53465500Y-26574234D01*
X53426281Y-26427865D01*
X53372150Y-26334108D01*
X59099500Y-26334108D01*
X59099500Y-26465892D01*
X59110464Y-26506809D01*
X59133609Y-26593190D01*
X59199496Y-26707309D01*
X59199498Y-26707311D01*
X59199500Y-26707314D01*
X59292686Y-26800500D01*
X59292688Y-26800501D01*
X59292690Y-26800503D01*
X59406810Y-26866390D01*
X59406808Y-26866390D01*
X59406812Y-26866391D01*
X59406814Y-26866392D01*
X59534108Y-26900500D01*
X59534110Y-26900500D01*
X59665890Y-26900500D01*
X59665892Y-26900500D01*
X59793186Y-26866392D01*
X59793188Y-26866390D01*
X59793190Y-26866390D01*
X59907309Y-26800503D01*
X59907309Y-26800502D01*
X59907314Y-26800500D01*
X60000500Y-26707314D01*
X60042766Y-26634108D01*
X60849500Y-26634108D01*
X60849500Y-26765892D01*
X60858773Y-26800500D01*
X60883609Y-26893190D01*
X60949496Y-27007309D01*
X60949498Y-27007311D01*
X60949500Y-27007314D01*
X61042686Y-27100500D01*
X61042688Y-27100501D01*
X61042690Y-27100503D01*
X61156810Y-27166390D01*
X61156808Y-27166390D01*
X61156812Y-27166391D01*
X61156814Y-27166392D01*
X61284108Y-27200500D01*
X61284110Y-27200500D01*
X61415890Y-27200500D01*
X61415892Y-27200500D01*
X61543186Y-27166392D01*
X61543188Y-27166390D01*
X61543190Y-27166390D01*
X61657309Y-27100503D01*
X61657309Y-27100502D01*
X61657314Y-27100500D01*
X61750500Y-27007314D01*
X61790609Y-26937843D01*
X61816390Y-26893190D01*
X61816390Y-26893188D01*
X61816392Y-26893186D01*
X61850500Y-26765892D01*
X61850500Y-26634108D01*
X61816392Y-26506814D01*
X61816390Y-26506811D01*
X61816390Y-26506809D01*
X61750503Y-26392690D01*
X61750501Y-26392688D01*
X61750500Y-26392686D01*
X61657314Y-26299500D01*
X61657311Y-26299498D01*
X61657309Y-26299496D01*
X61543189Y-26233609D01*
X61543191Y-26233609D01*
X61493799Y-26220375D01*
X61415892Y-26199500D01*
X61284108Y-26199500D01*
X61206200Y-26220375D01*
X61156809Y-26233609D01*
X61042690Y-26299496D01*
X60949496Y-26392690D01*
X60883609Y-26506809D01*
X60883608Y-26506814D01*
X60849500Y-26634108D01*
X60042766Y-26634108D01*
X60066392Y-26593186D01*
X60100500Y-26465892D01*
X60100500Y-26334108D01*
X60066392Y-26206814D01*
X60066390Y-26206811D01*
X60066390Y-26206809D01*
X60000503Y-26092690D01*
X60000501Y-26092688D01*
X60000500Y-26092686D01*
X59907314Y-25999500D01*
X59907311Y-25999498D01*
X59907309Y-25999496D01*
X59793189Y-25933609D01*
X59793191Y-25933609D01*
X59743799Y-25920375D01*
X59665892Y-25899500D01*
X59534108Y-25899500D01*
X59456200Y-25920375D01*
X59406809Y-25933609D01*
X59292690Y-25999496D01*
X59199496Y-26092690D01*
X59133609Y-26206809D01*
X59126428Y-26233609D01*
X59099500Y-26334108D01*
X53372150Y-26334108D01*
X53350515Y-26296635D01*
X53243365Y-26189485D01*
X53243362Y-26189483D01*
X53243360Y-26189481D01*
X53112138Y-26113720D01*
X53112140Y-26113720D01*
X53055347Y-26098503D01*
X52965766Y-26074500D01*
X52814234Y-26074500D01*
X52724652Y-26098503D01*
X52667860Y-26113720D01*
X52536639Y-26189481D01*
X52429481Y-26296639D01*
X52353720Y-26427860D01*
X52353719Y-26427865D01*
X52314500Y-26574234D01*
X47685500Y-26574234D01*
X47646281Y-26427865D01*
X47646279Y-26427862D01*
X47646279Y-26427860D01*
X47570518Y-26296639D01*
X47570516Y-26296637D01*
X47570515Y-26296635D01*
X47463365Y-26189485D01*
X47463362Y-26189483D01*
X47463360Y-26189481D01*
X47332138Y-26113720D01*
X47332140Y-26113720D01*
X47275347Y-26098503D01*
X47185766Y-26074500D01*
X47034234Y-26074500D01*
X46944652Y-26098503D01*
X46887860Y-26113720D01*
X46756639Y-26189481D01*
X46649481Y-26296639D01*
X46573720Y-26427860D01*
X46573719Y-26427865D01*
X46534500Y-26574234D01*
X33774855Y-26574234D01*
X34067560Y-26369388D01*
X34070327Y-26367523D01*
X34901951Y-25827757D01*
X34904795Y-25825981D01*
X35754750Y-25315566D01*
X35757679Y-25313876D01*
X36624863Y-24833473D01*
X36627871Y-24831874D01*
X36819867Y-24734108D01*
X41899500Y-24734108D01*
X41899500Y-24865892D01*
X41929579Y-24978151D01*
X41933609Y-24993190D01*
X41999496Y-25107309D01*
X41999498Y-25107311D01*
X41999500Y-25107314D01*
X42092686Y-25200500D01*
X42092688Y-25200501D01*
X42092690Y-25200503D01*
X42206810Y-25266390D01*
X42206808Y-25266390D01*
X42206812Y-25266391D01*
X42206814Y-25266392D01*
X42334108Y-25300500D01*
X42334110Y-25300500D01*
X42465890Y-25300500D01*
X42465892Y-25300500D01*
X42593186Y-25266392D01*
X42593188Y-25266390D01*
X42593190Y-25266390D01*
X42707309Y-25200503D01*
X42707309Y-25200502D01*
X42707314Y-25200500D01*
X42800500Y-25107314D01*
X42866392Y-24993186D01*
X42900500Y-24865892D01*
X42900500Y-24734108D01*
X42866392Y-24606814D01*
X42866390Y-24606811D01*
X42866390Y-24606809D01*
X42800503Y-24492690D01*
X42800501Y-24492688D01*
X42800500Y-24492686D01*
X42707314Y-24399500D01*
X42707311Y-24399498D01*
X42707309Y-24399496D01*
X42593189Y-24333609D01*
X42593191Y-24333609D01*
X42543799Y-24320375D01*
X42465892Y-24299500D01*
X42334108Y-24299500D01*
X42256200Y-24320375D01*
X42206809Y-24333609D01*
X42092690Y-24399496D01*
X41999496Y-24492690D01*
X41933609Y-24606809D01*
X41933608Y-24606814D01*
X41899500Y-24734108D01*
X36819867Y-24734108D01*
X37511358Y-24381994D01*
X37514354Y-24380533D01*
X38412982Y-23961770D01*
X38416092Y-23960387D01*
X39328825Y-23573225D01*
X39331918Y-23571977D01*
X40257568Y-23216920D01*
X40260728Y-23215770D01*
X41198205Y-22893233D01*
X41201442Y-22892182D01*
X42149577Y-22602568D01*
X42152829Y-22601636D01*
X43110503Y-22345286D01*
X43113834Y-22344456D01*
X44079815Y-22121697D01*
X44083184Y-22120982D01*
X45056396Y-21932062D01*
X45059760Y-21931470D01*
X45960900Y-21788975D01*
X46038942Y-21776635D01*
X46042356Y-21776155D01*
X47026352Y-21655586D01*
X47029758Y-21655229D01*
X48017333Y-21569077D01*
X48020761Y-21568837D01*
X49010854Y-21517198D01*
X49014187Y-21517082D01*
X49998326Y-21500029D01*
X50001661Y-21500029D01*
X50992921Y-21517331D01*
G37*
%TD.AperFunction*%
%TD*%
M02*
