%TF.GenerationSoftware,KiCad,Pcbnew,10.0.6*%
%TF.CreationDate,2026-10-04T10:06:22+02:00*%
%TF.ProjectId,MAO_MAIN_A0,4d414f5f-4d41-4494-9e5f-41302e6b6963,A0*%
%TF.SameCoordinates,Original*%
%TF.FileFunction,Soldermask,Bot*%
%TF.FilePolarity,Negative*%
%FSLAX46Y46*%
G04 Gerber Fmt 4.6, Leading zero omitted, Abs format (unit mm)*
G04 Created by KiCad (PCBNEW 10.0.6) date 2026-10-04 10:06:22*
%MOMM*%
%LPD*%
G01*
G04 APERTURE LIST*
G04 Aperture macros list*
%AMRoundRect*
0 Rectangle with rounded corners*
0 $1 Rounding radius*
0 $2 $3 $4 $5 $6 $7 $8 $9 X,Y pos of 4 corners*
0 Add a 4 corners polygon primitive as box body*
4,1,4,$2,$3,$4,$5,$6,$7,$8,$9,$2,$3,0*
0 Add four circle primitives for the rounded corners*
1,1,$1+$1,$2,$3*
1,1,$1+$1,$4,$5*
1,1,$1+$1,$6,$7*
1,1,$1+$1,$8,$9*
0 Add four rect primitives between the rounded corners*
20,1,$1+$1,$2,$3,$4,$5,0*
20,1,$1+$1,$4,$5,$6,$7,0*
20,1,$1+$1,$6,$7,$8,$9,0*
20,1,$1+$1,$8,$9,$2,$3,0*%
%AMRotRect*
0 Rectangle, with rotation*
0 The origin of the aperture is its center*
0 $1 length*
0 $2 width*
0 $3 Rotation angle, in degrees counterclockwise*
0 Add horizontal line*
21,1,$1,$2,0,0,$3*%
%AMFreePoly0*
4,1,64,0.031751,0.146088,0.079639,0.146088,0.235855,0.115014,0.383010,0.054061,0.515445,-0.034429,0.628071,-0.147055,0.716561,-0.279490,0.777513,-0.426644,0.808588,-0.582861,0.808588,-0.742139,0.777514,-0.898356,0.716561,-1.045510,0.628071,-1.177945,0.515445,-1.290571,0.383010,-1.379061,0.235856,-1.440014,0.079639,-1.471088,-0.079639,-1.471088,-0.235856,-1.440014,-0.383010,-1.379061,
-0.515445,-1.290571,-0.628071,-1.177945,-0.716561,-1.045510,-0.777514,-0.898356,-0.808588,-0.742139,-0.808588,-0.595029,-0.512501,-0.595028,-0.512500,-0.729972,-0.477574,-0.860317,-0.410102,-0.977182,-0.314682,-1.072602,-0.197817,-1.140074,-0.067472,-1.175000,0.067472,-1.175000,0.197817,-1.140074,0.314682,-1.072602,0.410102,-0.977182,0.477574,-0.860317,0.512500,-0.729972,0.512500,-0.595028,
0.477574,-0.464683,0.410102,-0.347818,0.314682,-0.252398,0.197817,-0.184926,0.067472,-0.150000,-0.067472,-0.150000,-0.197816,-0.184926,-0.314682,-0.252398,-0.410102,-0.347818,-0.477574,-0.464683,-0.512501,-0.595028,-0.808588,-0.595029,-0.808588,-0.582861,-0.777513,-0.426644,-0.716561,-0.279490,-0.628070,-0.147055,-0.515445,-0.034429,-0.383010,0.054061,-0.235856,0.115014,-0.079639,0.146088,
-0.031751,0.146088,-0.029264,0.147118,0.029264,0.147118,0.031751,0.146088,0.031751,0.146088,$1*%
G04 Aperture macros list end*
%ADD10C,2.200000*%
%ADD11C,2.000000*%
%ADD12C,1.000000*%
%ADD13RoundRect,0.150000X0.150000X0.625000X-0.150000X0.625000X-0.150000X-0.625000X0.150000X-0.625000X0*%
%ADD14RoundRect,0.250000X0.350000X0.650000X-0.350000X0.650000X-0.350000X-0.650000X0.350000X-0.650000X0*%
%ADD15RoundRect,0.135000X-0.185000X0.135000X-0.185000X-0.135000X0.185000X-0.135000X0.185000X0.135000X0*%
%ADD16RoundRect,0.050000X0.075000X-0.250000X0.075000X0.250000X-0.075000X0.250000X-0.075000X-0.250000X0*%
%ADD17RoundRect,0.050000X0.075000X-0.400000X0.075000X0.400000X-0.075000X0.400000X-0.075000X-0.400000X0*%
%ADD18RoundRect,0.050000X0.075000X-0.600000X0.075000X0.600000X-0.075000X0.600000X-0.075000X-0.600000X0*%
%ADD19C,0.990600*%
%ADD20C,0.787400*%
%ADD21RoundRect,0.135000X-0.135000X-0.185000X0.135000X-0.185000X0.135000X0.185000X-0.135000X0.185000X0*%
%ADD22RoundRect,0.150000X0.826526X0.043072X0.497896X0.661135X-0.826526X-0.043072X-0.497896X-0.661135X0*%
%ADD23C,1.200000*%
%ADD24RoundRect,0.062500X0.350000X0.062500X-0.350000X0.062500X-0.350000X-0.062500X0.350000X-0.062500X0*%
%ADD25RoundRect,0.062500X0.062500X0.350000X-0.062500X0.350000X-0.062500X-0.350000X0.062500X-0.350000X0*%
%ADD26R,1.230000X1.230000*%
%ADD27RoundRect,0.225000X-0.250000X0.225000X-0.250000X-0.225000X0.250000X-0.225000X0.250000X0.225000X0*%
%ADD28RoundRect,0.050000X0.093814X0.732256X-0.559692X0.481398X-0.093814X-0.732256X0.559692X-0.481398X0*%
%ADD29RoundRect,0.135000X0.135000X0.185000X-0.135000X0.185000X-0.135000X-0.185000X0.135000X-0.185000X0*%
%ADD30RoundRect,0.100000X-0.700000X-1.000000X0.700000X-1.000000X0.700000X1.000000X-0.700000X1.000000X0*%
%ADD31RoundRect,0.050000X0.559692X0.481398X-0.093814X0.732256X-0.559692X-0.481398X0.093814X-0.732256X0*%
%ADD32RoundRect,0.140000X0.140000X0.170000X-0.140000X0.170000X-0.140000X-0.170000X0.140000X-0.170000X0*%
%ADD33RoundRect,0.200000X-0.200000X-0.275000X0.200000X-0.275000X0.200000X0.275000X-0.200000X0.275000X0*%
%ADD34RoundRect,0.062500X-0.375000X-0.062500X0.375000X-0.062500X0.375000X0.062500X-0.375000X0.062500X0*%
%ADD35RoundRect,0.062500X-0.062500X-0.375000X0.062500X-0.375000X0.062500X0.375000X-0.062500X0.375000X0*%
%ADD36R,1.450000X1.450000*%
%ADD37RoundRect,0.140000X-0.140000X-0.170000X0.140000X-0.170000X0.140000X0.170000X-0.140000X0.170000X0*%
%ADD38RoundRect,0.135000X0.185000X-0.135000X0.185000X0.135000X-0.185000X0.135000X-0.185000X-0.135000X0*%
%ADD39RoundRect,0.140000X0.170000X-0.140000X0.170000X0.140000X-0.170000X0.140000X-0.170000X-0.140000X0*%
%ADD40C,0.500000*%
%ADD41RotRect,0.725000X0.522000X344.000000*%
%ADD42FreePoly0,344.000000*%
%ADD43RoundRect,0.250000X0.625000X-0.312500X0.625000X0.312500X-0.625000X0.312500X-0.625000X-0.312500X0*%
%ADD44RoundRect,0.062500X-0.325000X-0.062500X0.325000X-0.062500X0.325000X0.062500X-0.325000X0.062500X0*%
%ADD45R,0.800000X1.200000*%
%ADD46RoundRect,0.150000X-0.587500X-0.150000X0.587500X-0.150000X0.587500X0.150000X-0.587500X0.150000X0*%
%ADD47RoundRect,0.087500X0.662500X0.087500X-0.662500X0.087500X-0.662500X-0.087500X0.662500X-0.087500X0*%
%ADD48RoundRect,0.075000X0.075000X0.175000X-0.075000X0.175000X-0.075000X-0.175000X0.075000X-0.175000X0*%
%ADD49RoundRect,0.225000X0.250000X-0.225000X0.250000X0.225000X-0.250000X0.225000X-0.250000X-0.225000X0*%
%ADD50C,0.650000*%
%ADD51RoundRect,0.150000X-0.150000X-0.575000X0.150000X-0.575000X0.150000X0.575000X-0.150000X0.575000X0*%
%ADD52RoundRect,0.075000X-0.075000X-0.650000X0.075000X-0.650000X0.075000X0.650000X-0.075000X0.650000X0*%
%ADD53O,1.000000X1.600000*%
%ADD54O,1.000000X2.100000*%
%ADD55R,1.680000X1.680000*%
%ADD56RoundRect,0.140000X-0.170000X0.140000X-0.170000X-0.140000X0.170000X-0.140000X0.170000X0.140000X0*%
%ADD57RoundRect,0.225000X-0.225000X-0.250000X0.225000X-0.250000X0.225000X0.250000X-0.225000X0.250000X0*%
%ADD58RoundRect,0.250000X-0.400000X-0.450000X0.400000X-0.450000X0.400000X0.450000X-0.400000X0.450000X0*%
%ADD59R,1.500000X0.900000*%
%ADD60R,0.900000X1.500000*%
%ADD61C,0.600000*%
%ADD62R,3.900000X3.900000*%
%ADD63RoundRect,0.137500X0.137500X0.662500X-0.137500X0.662500X-0.137500X-0.662500X0.137500X-0.662500X0*%
%ADD64RoundRect,0.075000X-0.075000X-0.175000X0.075000X-0.175000X0.075000X0.175000X-0.075000X0.175000X0*%
G04 APERTURE END LIST*
D10*
%TO.C,H1*%
X31421000Y-33272000D03*
%TD*%
%TO.C,H2*%
X68579000Y-33272000D03*
%TD*%
D11*
%TO.C,H3*%
X32322000Y-67678000D03*
%TD*%
D12*
%TO.C,TP13*%
X41600000Y-45400000D03*
%TD*%
D13*
%TO.C,J102*%
X70260000Y-44285000D03*
X69260000Y-44285000D03*
X68260000Y-44285000D03*
D14*
X71560000Y-48160000D03*
X66960000Y-48160000D03*
%TD*%
D15*
%TO.C,R106*%
X59250000Y-41240000D03*
X59250000Y-42260000D03*
%TD*%
D16*
%TO.C,U104*%
X54000000Y-39900000D03*
X53500000Y-39900000D03*
X53000000Y-39900000D03*
X52500000Y-39900000D03*
X52000000Y-39900000D03*
D17*
X52000000Y-38250000D03*
X52500000Y-38250000D03*
D18*
X53000000Y-38450000D03*
D17*
X53500000Y-38250000D03*
X54000000Y-38250000D03*
%TD*%
D19*
%TO.C,J201*%
X60960000Y-68900000D03*
X66040000Y-67884000D03*
X66040000Y-69916000D03*
D20*
X62230000Y-68265000D03*
X62230000Y-69535000D03*
X63500000Y-68265000D03*
X63500000Y-69535000D03*
X64770000Y-68265000D03*
X64770000Y-69535000D03*
%TD*%
D21*
%TO.C,R103*%
X62040000Y-36200000D03*
X63060000Y-36200000D03*
%TD*%
D22*
%TO.C,J503*%
X29748839Y-62183684D03*
X28575161Y-59976316D03*
%TD*%
D12*
%TO.C,TP10*%
X54900000Y-47100000D03*
%TD*%
D23*
%TO.C,TP1*%
X60900000Y-47100000D03*
%TD*%
D24*
%TO.C,U501*%
X36437500Y-50250000D03*
X36437500Y-50750000D03*
X36437500Y-51250000D03*
X36437500Y-51750000D03*
D25*
X35750000Y-52437500D03*
X35250000Y-52437500D03*
X34750000Y-52437500D03*
X34250000Y-52437500D03*
D24*
X33562500Y-51750000D03*
X33562500Y-51250000D03*
X33562500Y-50750000D03*
X33562500Y-50250000D03*
D25*
X34250000Y-49562500D03*
X34750000Y-49562500D03*
X35250000Y-49562500D03*
X35750000Y-49562500D03*
D26*
X35000000Y-51000000D03*
%TD*%
D27*
%TO.C,C106*%
X50430000Y-38225000D03*
X50430000Y-39775000D03*
%TD*%
D28*
%TO.C,D501*%
X41473371Y-23602448D03*
X38672629Y-24677552D03*
%TD*%
D29*
%TO.C,R309*%
X39510000Y-66100000D03*
X38490000Y-66100000D03*
%TD*%
D21*
%TO.C,R105*%
X62040000Y-35160000D03*
X63060000Y-35160000D03*
%TD*%
D27*
%TO.C,C103*%
X62350000Y-38225000D03*
X62350000Y-39775000D03*
%TD*%
D30*
%TO.C,J501*%
X26400000Y-53200000D03*
%TD*%
D31*
%TO.C,D502*%
X61327371Y-24677552D03*
X58526629Y-23602448D03*
%TD*%
D12*
%TO.C,TP7*%
X35000000Y-68700000D03*
%TD*%
%TO.C,TP14*%
X69900000Y-61000000D03*
%TD*%
D32*
%TO.C,C104*%
X63750000Y-34000000D03*
X62790000Y-34000000D03*
%TD*%
D33*
%TO.C,R501*%
X37175000Y-27000000D03*
X38825000Y-27000000D03*
%TD*%
D15*
%TO.C,R402*%
X74250000Y-54490000D03*
X74250000Y-55510000D03*
%TD*%
D11*
%TO.C,FID5*%
X71000000Y-37000000D03*
%TD*%
D15*
%TO.C,R503*%
X61750000Y-30990000D03*
X61750000Y-32010000D03*
%TD*%
D32*
%TO.C,C205*%
X43880000Y-40150000D03*
X42920000Y-40150000D03*
%TD*%
D15*
%TO.C,R112*%
X54000000Y-40990000D03*
X54000000Y-42010000D03*
%TD*%
D34*
%TO.C,U202*%
X43062500Y-37950000D03*
X43062500Y-37450000D03*
X43062500Y-36950000D03*
X43062500Y-36450000D03*
D35*
X43750000Y-35762500D03*
X44250000Y-35762500D03*
X44750000Y-35762500D03*
X45250000Y-35762500D03*
D34*
X45937500Y-36450000D03*
X45937500Y-36950000D03*
X45937500Y-37450000D03*
X45937500Y-37950000D03*
D35*
X45250000Y-38637500D03*
X44750000Y-38637500D03*
X44250000Y-38637500D03*
X43750000Y-38637500D03*
D36*
X44500000Y-37200000D03*
%TD*%
D27*
%TO.C,C107*%
X48890000Y-38225000D03*
X48890000Y-39775000D03*
%TD*%
D12*
%TO.C,TP11*%
X57900000Y-50300000D03*
%TD*%
D23*
%TO.C,TP2*%
X54900000Y-44050000D03*
%TD*%
D15*
%TO.C,R109*%
X64250000Y-41490000D03*
X64250000Y-42510000D03*
%TD*%
D21*
%TO.C,R308*%
X60490000Y-71500000D03*
X61510000Y-71500000D03*
%TD*%
D37*
%TO.C,C407*%
X71770000Y-59500000D03*
X72730000Y-59500000D03*
%TD*%
D38*
%TO.C,R111*%
X55100000Y-42010000D03*
X55100000Y-40990000D03*
%TD*%
D11*
%TO.C,FID4*%
X30000000Y-46000000D03*
%TD*%
D39*
%TO.C,C504*%
X34800000Y-57080000D03*
X34800000Y-56120000D03*
%TD*%
D33*
%TO.C,R502*%
X57675000Y-27000000D03*
X59325000Y-27000000D03*
%TD*%
D40*
%TO.C,MK401*%
X71360241Y-55323828D03*
D41*
X69983512Y-57086639D03*
X70210086Y-56296482D03*
D42*
X71542851Y-54686993D03*
D41*
X71820199Y-56758174D03*
X71593627Y-57548332D03*
%TD*%
D23*
%TO.C,TP6*%
X55500000Y-33050000D03*
%TD*%
D43*
%TO.C,R108*%
X68260000Y-42097500D03*
X68260000Y-39172500D03*
%TD*%
D44*
%TO.C,U103*%
X64412500Y-36550000D03*
X64412500Y-36050000D03*
X64412500Y-35550000D03*
X64412500Y-35050000D03*
X66387500Y-35050000D03*
X66387500Y-35550000D03*
X66387500Y-36050000D03*
X66387500Y-36550000D03*
D45*
X65400000Y-35800000D03*
%TD*%
D27*
%TO.C,C501*%
X32400000Y-53925000D03*
X32400000Y-55475000D03*
%TD*%
D38*
%TO.C,R204*%
X43315000Y-51710000D03*
X43315000Y-50690000D03*
%TD*%
D15*
%TO.C,R101*%
X48400000Y-29990000D03*
X48400000Y-31010000D03*
%TD*%
D46*
%TO.C,Q101*%
X64162500Y-40125000D03*
X64162500Y-38225000D03*
X66037500Y-39175000D03*
%TD*%
D29*
%TO.C,R307*%
X39510000Y-67400000D03*
X38490000Y-67400000D03*
%TD*%
D47*
%TO.C,U502*%
X35700000Y-58600000D03*
X35700000Y-59100000D03*
X35700000Y-59600000D03*
X35700000Y-60100000D03*
X35700000Y-60600000D03*
X31500000Y-60600000D03*
X31500000Y-60100000D03*
X31500000Y-59600000D03*
X31500000Y-59100000D03*
X31500000Y-58600000D03*
%TD*%
D29*
%TO.C,R504*%
X61260000Y-33500000D03*
X60240000Y-33500000D03*
%TD*%
D12*
%TO.C,TP15*%
X72600000Y-50900000D03*
%TD*%
D15*
%TO.C,R114*%
X52500000Y-40990000D03*
X52500000Y-42010000D03*
%TD*%
D46*
%TO.C,Q501*%
X63662500Y-31950000D03*
X63662500Y-30050000D03*
X65537500Y-31000000D03*
%TD*%
D38*
%TO.C,R301*%
X49400000Y-51960000D03*
X49400000Y-50940000D03*
%TD*%
D48*
%TO.C,D304*%
X27100000Y-39500000D03*
X26400000Y-39500000D03*
%TD*%
D29*
%TO.C,R202*%
X61510000Y-54700000D03*
X60490000Y-54700000D03*
%TD*%
D32*
%TO.C,C202*%
X39480000Y-69950000D03*
X38520000Y-69950000D03*
%TD*%
D48*
%TO.C,D302*%
X76100000Y-50000000D03*
X75400000Y-50000000D03*
%TD*%
D12*
%TO.C,TP8*%
X60900000Y-50300000D03*
%TD*%
D11*
%TO.C,FID6*%
X28500000Y-56000000D03*
%TD*%
D15*
%TO.C,R102*%
X51900000Y-32240000D03*
X51900000Y-33260000D03*
%TD*%
D29*
%TO.C,R310*%
X39510000Y-64900000D03*
X38490000Y-64900000D03*
%TD*%
D49*
%TO.C,C102*%
X55570000Y-36715000D03*
X55570000Y-35165000D03*
%TD*%
D39*
%TO.C,C204*%
X42300000Y-51680000D03*
X42300000Y-50720000D03*
%TD*%
D50*
%TO.C,J101*%
X47110000Y-26650000D03*
X52890000Y-26650000D03*
D51*
X46750000Y-28095000D03*
X47550000Y-28095000D03*
D52*
X48750000Y-28095000D03*
X49750000Y-28095000D03*
X50250000Y-28095000D03*
X51250000Y-28095000D03*
D51*
X52450000Y-28095000D03*
X53250000Y-28095000D03*
X53250000Y-28095000D03*
X52450000Y-28095000D03*
D52*
X51750000Y-28095000D03*
X50750000Y-28095000D03*
X49250000Y-28095000D03*
X48250000Y-28095000D03*
D51*
X47550000Y-28095000D03*
X46750000Y-28095000D03*
D53*
X45680000Y-23000000D03*
D54*
X45680000Y-27180000D03*
D53*
X54320000Y-23000000D03*
D54*
X54320000Y-27180000D03*
%TD*%
D27*
%TO.C,C105*%
X55570000Y-38225000D03*
X55570000Y-39775000D03*
%TD*%
D23*
%TO.C,TP3*%
X57900000Y-44050000D03*
%TD*%
D27*
%TO.C,C201*%
X37000000Y-69725000D03*
X37000000Y-71275000D03*
%TD*%
D23*
%TO.C,TP5*%
X63900000Y-44050000D03*
%TD*%
D38*
%TO.C,R104*%
X57400000Y-35550000D03*
X57400000Y-34530000D03*
%TD*%
D12*
%TO.C,TP9*%
X54900000Y-50300000D03*
%TD*%
D37*
%TO.C,C503*%
X31920000Y-57100000D03*
X32880000Y-57100000D03*
%TD*%
%TO.C,C101*%
X58660000Y-35100000D03*
X59620000Y-35100000D03*
%TD*%
D23*
%TO.C,TP16*%
X63900000Y-47100000D03*
%TD*%
D29*
%TO.C,R403*%
X71760000Y-52750000D03*
X70740000Y-52750000D03*
%TD*%
D38*
%TO.C,R113*%
X51400000Y-42010000D03*
X51400000Y-40990000D03*
%TD*%
D24*
%TO.C,U102*%
X60872500Y-37475000D03*
X60872500Y-37975000D03*
X60872500Y-38475000D03*
X60872500Y-38975000D03*
D25*
X60160000Y-39687500D03*
X59660000Y-39687500D03*
X59160000Y-39687500D03*
X58660000Y-39687500D03*
D24*
X57947500Y-38975000D03*
X57947500Y-38475000D03*
X57947500Y-37975000D03*
X57947500Y-37475000D03*
D25*
X58660000Y-36762500D03*
X59160000Y-36762500D03*
X59660000Y-36762500D03*
X60160000Y-36762500D03*
D55*
X59410000Y-38225000D03*
%TD*%
D29*
%TO.C,R107*%
X57760000Y-41500000D03*
X56740000Y-41500000D03*
%TD*%
D15*
%TO.C,R203*%
X41250000Y-50690000D03*
X41250000Y-51710000D03*
%TD*%
D30*
%TO.C,J502*%
X26400000Y-46800000D03*
%TD*%
D12*
%TO.C,TP12*%
X63900000Y-50300000D03*
%TD*%
D23*
%TO.C,TP4*%
X60900000Y-44050000D03*
%TD*%
D30*
%TO.C,J303*%
X29000000Y-39600000D03*
%TD*%
D56*
%TO.C,C406*%
X74250000Y-57020000D03*
X74250000Y-57980000D03*
%TD*%
D57*
%TO.C,C505*%
X63725000Y-28000000D03*
X65275000Y-28000000D03*
%TD*%
D29*
%TO.C,R209*%
X34110000Y-62400000D03*
X33090000Y-62400000D03*
%TD*%
D38*
%TO.C,R208*%
X40400000Y-35910000D03*
X40400000Y-34890000D03*
%TD*%
%TO.C,R302*%
X48100000Y-51960000D03*
X48100000Y-50940000D03*
%TD*%
D58*
%TO.C,D101*%
X53200000Y-30500000D03*
X56100000Y-30500000D03*
%TD*%
D56*
%TO.C,C502*%
X34500000Y-53670000D03*
X34500000Y-54630000D03*
%TD*%
D21*
%TO.C,R110*%
X70240000Y-42250000D03*
X71260000Y-42250000D03*
%TD*%
D59*
%TO.C,U201*%
X41250000Y-71210000D03*
X41250000Y-69940000D03*
X41250000Y-68670000D03*
X41250000Y-67400000D03*
X41250000Y-66130000D03*
X41250000Y-64860000D03*
X41250000Y-63590000D03*
X41250000Y-62320000D03*
X41250000Y-61050000D03*
X41250000Y-59780000D03*
X41250000Y-58510000D03*
X41250000Y-57240000D03*
X41250000Y-55970000D03*
X41250000Y-54700000D03*
D60*
X43015000Y-53450000D03*
X44285000Y-53450000D03*
X45555000Y-53450000D03*
X46825000Y-53450000D03*
X48095000Y-53450000D03*
X49365000Y-53450000D03*
X50635000Y-53450000D03*
X51905000Y-53450000D03*
X53175000Y-53450000D03*
X54445000Y-53450000D03*
X55715000Y-53450000D03*
X56985000Y-53450000D03*
D59*
X58750000Y-54700000D03*
X58750000Y-55970000D03*
X58750000Y-57240000D03*
X58750000Y-58510000D03*
X58750000Y-59780000D03*
X58750000Y-61050000D03*
X58750000Y-62320000D03*
X58750000Y-63590000D03*
X58750000Y-64860000D03*
X58750000Y-66130000D03*
X58750000Y-67400000D03*
X58750000Y-68670000D03*
X58750000Y-69940000D03*
X58750000Y-71210000D03*
D61*
X47100000Y-62790000D03*
X47100000Y-64190000D03*
X47800000Y-62090000D03*
X47800000Y-63490000D03*
X47800000Y-64890000D03*
X48500000Y-62790000D03*
D62*
X48500000Y-63490000D03*
D61*
X48500000Y-64190000D03*
X49200000Y-62090000D03*
X49200000Y-63490000D03*
X49200000Y-64890000D03*
X49900000Y-62790000D03*
X49900000Y-64190000D03*
%TD*%
D63*
%TO.C,L101*%
X53725000Y-36410000D03*
X52275000Y-36410000D03*
%TD*%
D64*
%TO.C,D301*%
X23900000Y-50000000D03*
X24600000Y-50000000D03*
%TD*%
M02*
