%TF.GenerationSoftware,KiCad,Pcbnew,10.0.6*%
%TF.CreationDate,2026-10-06T16:17:56+02:00*%
%TF.ProjectId,MAO_MAIN_A1,4d414f5f-4d41-4494-9e5f-41312e6b6963,A1*%
%TF.SameCoordinates,Original*%
%TF.FileFunction,Legend,Bot*%
%TF.FilePolarity,Positive*%
%FSLAX46Y46*%
G04 Gerber Fmt 4.6, Leading zero omitted, Abs format (unit mm)*
G04 Created by KiCad (PCBNEW 10.0.6) date 2026-10-06 16:17:56*
%MOMM*%
%LPD*%
G01*
G04 APERTURE LIST*
G04 Aperture macros list*
%AMRoundRect*
0 Rectangle with rounded corners*
0 $1 Rounding radius*
0 $2 $3 $4 $5 $6 $7 $8 $9 X,Y pos of 4 corners*
0 Add a 4 corners polygon primitive as box body*
4,1,4,$2,$3,$4,$5,$6,$7,$8,$9,$2,$3,0*
0 Add four circle primitives for the rounded corners*
1,1,$1+$1,$2,$3*
1,1,$1+$1,$4,$5*
1,1,$1+$1,$6,$7*
1,1,$1+$1,$8,$9*
0 Add four rect primitives between the rounded corners*
20,1,$1+$1,$2,$3,$4,$5,0*
20,1,$1+$1,$4,$5,$6,$7,0*
20,1,$1+$1,$6,$7,$8,$9,0*
20,1,$1+$1,$8,$9,$2,$3,0*%
%AMOutline5P*
0 Free polygon, 5 corners , with rotation*
0 The origin of the aperture is its center*
0 number of corners: always 5*
0 $1 to $10 corner X, Y*
0 $11 Rotation angle, in degrees counterclockwise*
0 create outline with 5 corners*
4,1,5,$1,$2,$3,$4,$5,$6,$7,$8,$9,$10,$1,$2,$11*%
%AMOutline6P*
0 Free polygon, 6 corners , with rotation*
0 The origin of the aperture is its center*
0 number of corners: always 6*
0 $1 to $12 corner X, Y*
0 $13 Rotation angle, in degrees counterclockwise*
0 create outline with 6 corners*
4,1,6,$1,$2,$3,$4,$5,$6,$7,$8,$9,$10,$11,$12,$1,$2,$13*%
%AMOutline7P*
0 Free polygon, 7 corners , with rotation*
0 The origin of the aperture is its center*
0 number of corners: always 7*
0 $1 to $14 corner X, Y*
0 $15 Rotation angle, in degrees counterclockwise*
0 create outline with 7 corners*
4,1,7,$1,$2,$3,$4,$5,$6,$7,$8,$9,$10,$11,$12,$13,$14,$1,$2,$15*%
%AMOutline8P*
0 Free polygon, 8 corners , with rotation*
0 The origin of the aperture is its center*
0 number of corners: always 8*
0 $1 to $16 corner X, Y*
0 $17 Rotation angle, in degrees counterclockwise*
0 create outline with 8 corners*
4,1,8,$1,$2,$3,$4,$5,$6,$7,$8,$9,$10,$11,$12,$13,$14,$15,$16,$1,$2,$17*%
G04 Aperture macros list end*
%ADD10C,0.000000*%
%ADD11C,0.150000*%
%ADD12C,0.160000*%
%ADD13C,0.180000*%
%ADD14C,0.240000*%
%ADD15C,0.300000*%
%ADD16C,0.120000*%
%ADD17C,0.100001*%
%ADD18C,2.000000*%
%ADD19C,2.200000*%
%ADD20RoundRect,0.135000X-0.135000X-0.185000X0.135000X-0.185000X0.135000X0.185000X-0.135000X0.185000X0*%
%ADD21C,1.000000*%
%ADD22RoundRect,0.140000X0.170000X-0.140000X0.170000X0.140000X-0.170000X0.140000X-0.170000X-0.140000X0*%
%ADD23RoundRect,0.150000X-0.587500X-0.150000X0.587500X-0.150000X0.587500X0.150000X-0.587500X0.150000X0*%
%ADD24C,1.200000*%
%ADD25RoundRect,0.135000X0.185000X-0.135000X0.185000X0.135000X-0.185000X0.135000X-0.185000X-0.135000X0*%
%ADD26C,0.650000*%
%ADD27RoundRect,0.150000X-0.150000X-0.575000X0.150000X-0.575000X0.150000X0.575000X-0.150000X0.575000X0*%
%ADD28RoundRect,0.075000X-0.075000X-0.650000X0.075000X-0.650000X0.075000X0.650000X-0.075000X0.650000X0*%
%ADD29O,1.000000X1.600000*%
%ADD30O,1.000000X2.100000*%
%ADD31R,0.800000X0.300000*%
%ADD32R,0.800000X0.400000*%
%ADD33RoundRect,0.250000X0.625000X-0.312500X0.625000X0.312500X-0.625000X0.312500X-0.625000X-0.312500X0*%
%ADD34RoundRect,0.225000X-0.225000X-0.250000X0.225000X-0.250000X0.225000X0.250000X-0.225000X0.250000X0*%
%ADD35RoundRect,0.200000X0.275000X-0.200000X0.275000X0.200000X-0.275000X0.200000X-0.275000X-0.200000X0*%
%ADD36RoundRect,0.150000X0.150000X-0.587500X0.150000X0.587500X-0.150000X0.587500X-0.150000X-0.587500X0*%
%ADD37RoundRect,0.225000X0.250000X-0.225000X0.250000X0.225000X-0.250000X0.225000X-0.250000X-0.225000X0*%
%ADD38RoundRect,0.225000X-0.250000X0.225000X-0.250000X-0.225000X0.250000X-0.225000X0.250000X0.225000X0*%
%ADD39RoundRect,0.135000X-0.185000X0.135000X-0.185000X-0.135000X0.185000X-0.135000X0.185000X0.135000X0*%
%ADD40C,0.990600*%
%ADD41C,0.787400*%
%ADD42RoundRect,0.137500X0.137500X0.662500X-0.137500X0.662500X-0.137500X-0.662500X0.137500X-0.662500X0*%
%ADD43RoundRect,0.050000X0.093814X0.732256X-0.559692X0.481398X-0.093814X-0.732256X0.559692X-0.481398X0*%
%ADD44RoundRect,0.150000X0.587500X0.150000X-0.587500X0.150000X-0.587500X-0.150000X0.587500X-0.150000X0*%
%ADD45RoundRect,0.062500X0.237500X0.062500X-0.237500X0.062500X-0.237500X-0.062500X0.237500X-0.062500X0*%
%ADD46RoundRect,0.135000X0.135000X0.185000X-0.135000X0.185000X-0.135000X-0.185000X0.135000X-0.185000X0*%
%ADD47RoundRect,0.250000X-0.400000X-0.450000X0.400000X-0.450000X0.400000X0.450000X-0.400000X0.450000X0*%
%ADD48RoundRect,0.062500X-0.325000X-0.062500X0.325000X-0.062500X0.325000X0.062500X-0.325000X0.062500X0*%
%ADD49R,0.800000X1.200000*%
%ADD50RoundRect,0.150000X-0.512500X-0.150000X0.512500X-0.150000X0.512500X0.150000X-0.512500X0.150000X0*%
%ADD51RoundRect,0.140000X-0.140000X-0.170000X0.140000X-0.170000X0.140000X0.170000X-0.140000X0.170000X0*%
%ADD52RoundRect,0.150000X0.750000X-0.350000X0.750000X0.350000X-0.750000X0.350000X-0.750000X-0.350000X0*%
%ADD53RoundRect,0.200000X-0.800000X-0.800000X0.800000X-0.800000X0.800000X0.800000X-0.800000X0.800000X0*%
%ADD54RoundRect,0.050000X0.559692X0.481398X-0.093814X0.732256X-0.559692X-0.481398X0.093814X-0.732256X0*%
%ADD55R,0.400000X0.800000*%
%ADD56R,1.200000X1.200000*%
%ADD57Outline5P,-0.600000X0.600000X0.600000X0.600000X0.600000X-0.600000X-0.204000X-0.600000X-0.600000X-0.204000X0.000000*%
%ADD58R,0.800000X0.800000*%
%ADD59RoundRect,0.062500X-0.350000X-0.062500X0.350000X-0.062500X0.350000X0.062500X-0.350000X0.062500X0*%
%ADD60RoundRect,0.062500X-0.062500X-0.350000X0.062500X-0.350000X0.062500X0.350000X-0.062500X0.350000X0*%
%ADD61R,1.230000X1.230000*%
%ADD62RoundRect,0.200000X-0.200000X-0.275000X0.200000X-0.275000X0.200000X0.275000X-0.200000X0.275000X0*%
%ADD63RoundRect,0.087500X0.662500X0.087500X-0.662500X0.087500X-0.662500X-0.087500X0.662500X-0.087500X0*%
%ADD64RoundRect,0.150000X0.150000X0.625000X-0.150000X0.625000X-0.150000X-0.625000X0.150000X-0.625000X0*%
%ADD65RoundRect,0.250000X0.350000X0.650000X-0.350000X0.650000X-0.350000X-0.650000X0.350000X-0.650000X0*%
%ADD66RoundRect,0.140000X-0.170000X0.140000X-0.170000X-0.140000X0.170000X-0.140000X0.170000X0.140000X0*%
G04 APERTURE END LIST*
D10*
G36*
X49515476Y-41931250D02*
G01*
X49556547Y-41931250D01*
X49563392Y-41938095D01*
X49583928Y-41938095D01*
X49590773Y-41944940D01*
X49631845Y-41951785D01*
X49666071Y-41972321D01*
X49693452Y-41979166D01*
X49707142Y-41992857D01*
X49748214Y-42013392D01*
X49796130Y-42054464D01*
X49844047Y-42081845D01*
X49891964Y-42122916D01*
X49939880Y-42150297D01*
X49967261Y-42177678D01*
X50015178Y-42205059D01*
X50035714Y-42225595D01*
X50063095Y-42239285D01*
X50131547Y-42294047D01*
X50138392Y-42294047D01*
X50152083Y-42307738D01*
X50179464Y-42321428D01*
X50200000Y-42341964D01*
X50227380Y-42355654D01*
X50247916Y-42376190D01*
X50275297Y-42389880D01*
X50295833Y-42410416D01*
X50323214Y-42424107D01*
X50371130Y-42465178D01*
X50377976Y-42465178D01*
X50391666Y-42478869D01*
X50439583Y-42506250D01*
X50487500Y-42547321D01*
X50535416Y-42574702D01*
X50583333Y-42615773D01*
X50590178Y-42615773D01*
X50603869Y-42629464D01*
X50631250Y-42643154D01*
X50651785Y-42663690D01*
X50679166Y-42677380D01*
X50727083Y-42718452D01*
X50733928Y-42718452D01*
X50747619Y-42732142D01*
X50795535Y-42759523D01*
X50843452Y-42800595D01*
X50891369Y-42827976D01*
X50918750Y-42855357D01*
X50946130Y-42869047D01*
X50987202Y-42910119D01*
X50987202Y-42916964D01*
X51021428Y-42958035D01*
X51035119Y-42985416D01*
X51035119Y-42999107D01*
X51048809Y-43019642D01*
X51048809Y-43040178D01*
X51055654Y-43047023D01*
X51055654Y-43998511D01*
X51062500Y-44005357D01*
X51062500Y-44025892D01*
X51076190Y-44039583D01*
X51172023Y-44087500D01*
X51185714Y-44101190D01*
X51233630Y-44121726D01*
X51247321Y-44135416D01*
X51281547Y-44149107D01*
X51295238Y-44162797D01*
X51356845Y-44190178D01*
X51370535Y-44203869D01*
X51432142Y-44231249D01*
X51445833Y-44244940D01*
X51541666Y-44292857D01*
X51555357Y-44306547D01*
X51616964Y-44333928D01*
X51630654Y-44347619D01*
X51664880Y-44361309D01*
X51678571Y-44375000D01*
X51829166Y-44450297D01*
X51842857Y-44463988D01*
X51890773Y-44484523D01*
X51904464Y-44498214D01*
X51938690Y-44511904D01*
X51952380Y-44525595D01*
X52013988Y-44552976D01*
X52027678Y-44566666D01*
X52061904Y-44580357D01*
X52075595Y-44594047D01*
X52198809Y-44655654D01*
X52212500Y-44669345D01*
X52246726Y-44683035D01*
X52280952Y-44710416D01*
X52301488Y-44717261D01*
X52328869Y-44744642D01*
X52335714Y-44744642D01*
X52383630Y-44792559D01*
X52383630Y-44799404D01*
X52404166Y-44819940D01*
X52404166Y-44826785D01*
X52431547Y-44861011D01*
X52465773Y-44929464D01*
X52465773Y-44943154D01*
X52479464Y-44970535D01*
X52479464Y-44991071D01*
X52486309Y-44997916D01*
X52486309Y-45025297D01*
X52493154Y-45032142D01*
X52493154Y-45086904D01*
X52500000Y-45093750D01*
X52500000Y-45107440D01*
X52493154Y-45114285D01*
X52493154Y-45182738D01*
X52486309Y-45189583D01*
X52486309Y-45216964D01*
X52479464Y-45223809D01*
X52472619Y-45264880D01*
X52458928Y-45285416D01*
X52458928Y-45299107D01*
X52431547Y-45353869D01*
X52397321Y-45394940D01*
X52397321Y-45401785D01*
X52308333Y-45490773D01*
X52301488Y-45490773D01*
X52280952Y-45511309D01*
X52198809Y-45552380D01*
X52185119Y-45552380D01*
X52178273Y-45559226D01*
X52164583Y-45559226D01*
X52137202Y-45572916D01*
X52109821Y-45572916D01*
X52102976Y-45579761D01*
X52061904Y-45579761D01*
X52055059Y-45586607D01*
X51986607Y-45586607D01*
X51979761Y-45579761D01*
X51938690Y-45579761D01*
X51931845Y-45572916D01*
X51911309Y-45572916D01*
X51904464Y-45566071D01*
X51883928Y-45566071D01*
X51877083Y-45559226D01*
X51842857Y-45552380D01*
X51788095Y-45525000D01*
X51774404Y-45511309D01*
X51726488Y-45483928D01*
X51705952Y-45463392D01*
X51658035Y-45436011D01*
X51637500Y-45415476D01*
X51630654Y-45415476D01*
X51616964Y-45401785D01*
X51610119Y-45401785D01*
X51596428Y-45388095D01*
X51589583Y-45388095D01*
X51575892Y-45374404D01*
X51569047Y-45374404D01*
X51555357Y-45360714D01*
X51548511Y-45360714D01*
X51534821Y-45347023D01*
X51527976Y-45347023D01*
X51514285Y-45333333D01*
X51466369Y-45305952D01*
X51445833Y-45285416D01*
X51438988Y-45285416D01*
X51425297Y-45271726D01*
X51377380Y-45244345D01*
X51356845Y-45223809D01*
X51308928Y-45196428D01*
X51288392Y-45175892D01*
X51281547Y-45175892D01*
X51267857Y-45162202D01*
X51261011Y-45162202D01*
X51247321Y-45148511D01*
X51240476Y-45148511D01*
X51226785Y-45134821D01*
X51178869Y-45107440D01*
X51117261Y-45045833D01*
X51117261Y-45038988D01*
X51096726Y-45018452D01*
X51083035Y-44991071D01*
X51083035Y-44977380D01*
X51069345Y-44949999D01*
X51069345Y-44922619D01*
X51062500Y-44915773D01*
X51062500Y-44039583D01*
X51035119Y-44025892D01*
X51021428Y-44012202D01*
X50987202Y-43998511D01*
X50973511Y-43984821D01*
X50911904Y-43957440D01*
X50898214Y-43943750D01*
X50816071Y-43902678D01*
X50802380Y-43888988D01*
X50754464Y-43868452D01*
X50740773Y-43854761D01*
X50631250Y-43800000D01*
X50617559Y-43786309D01*
X50583333Y-43772619D01*
X50569642Y-43758928D01*
X50535416Y-43745238D01*
X50521726Y-43731547D01*
X50412202Y-43676785D01*
X50398511Y-43663095D01*
X50364285Y-43649404D01*
X50350595Y-43635714D01*
X50302678Y-43615178D01*
X50288988Y-43601488D01*
X50254761Y-43587797D01*
X50241071Y-43574107D01*
X50206845Y-43560416D01*
X50193154Y-43546726D01*
X50158928Y-43533035D01*
X50145238Y-43519345D01*
X50083630Y-43491964D01*
X50069940Y-43478273D01*
X49987797Y-43437202D01*
X49974107Y-43423511D01*
X49939880Y-43409821D01*
X49926190Y-43396130D01*
X49864583Y-43368750D01*
X49850892Y-43355059D01*
X49816666Y-43341369D01*
X49782440Y-43313988D01*
X49720833Y-43286607D01*
X49679761Y-43252380D01*
X49672916Y-43252380D01*
X49638690Y-43218154D01*
X49638690Y-43211309D01*
X49618154Y-43190773D01*
X49611309Y-43170238D01*
X49597619Y-43156547D01*
X49597619Y-43142857D01*
X49577083Y-43101785D01*
X49577083Y-43074404D01*
X49570238Y-43067559D01*
X49570238Y-42814285D01*
X49577083Y-42807440D01*
X49577083Y-42499404D01*
X49583928Y-42492559D01*
X49583928Y-42163988D01*
X49577083Y-42157142D01*
X49570238Y-42129761D01*
X49529166Y-42088690D01*
X49515476Y-42088690D01*
X49508630Y-42081845D01*
X49460714Y-42081845D01*
X49453869Y-42088690D01*
X49440178Y-42088690D01*
X49399107Y-42129761D01*
X49392261Y-42157142D01*
X49385416Y-42163988D01*
X49385416Y-42437797D01*
X49392261Y-42444642D01*
X49392261Y-42711607D01*
X49399107Y-42718452D01*
X49399107Y-43047023D01*
X49405952Y-43053869D01*
X49405952Y-45675595D01*
X49371726Y-45661904D01*
X49358035Y-45648214D01*
X49234821Y-45586607D01*
X49221130Y-45572916D01*
X49186904Y-45559226D01*
X49173214Y-45545535D01*
X49138988Y-45531845D01*
X49125297Y-45518154D01*
X49077380Y-45497619D01*
X49063690Y-45483928D01*
X49015773Y-45463392D01*
X49002083Y-45449702D01*
X48954166Y-45429166D01*
X48940476Y-45415476D01*
X48892559Y-45394940D01*
X48878869Y-45381250D01*
X48769345Y-45326488D01*
X48721428Y-45292261D01*
X48673511Y-45271726D01*
X48659821Y-45258035D01*
X48577678Y-45216964D01*
X48563988Y-45203273D01*
X48529761Y-45189583D01*
X48516071Y-45175892D01*
X48454464Y-45148511D01*
X48440773Y-45134821D01*
X48392857Y-45114285D01*
X48379166Y-45100595D01*
X48344940Y-45086904D01*
X48331250Y-45073214D01*
X48221726Y-45018452D01*
X48208035Y-45004761D01*
X48173809Y-44991071D01*
X48160119Y-44977380D01*
X48050595Y-44922619D01*
X48036904Y-44908928D01*
X48009523Y-44895238D01*
X47934226Y-44813095D01*
X47913690Y-44772023D01*
X47906845Y-44730952D01*
X47900000Y-44724107D01*
X47900000Y-43040178D01*
X47906845Y-43033333D01*
X47906845Y-43012797D01*
X47920535Y-42992261D01*
X47920535Y-42978571D01*
X47934226Y-42951190D01*
X47968452Y-42910119D01*
X47968452Y-42903273D01*
X48023214Y-42848511D01*
X48030059Y-42848511D01*
X48071130Y-42814285D01*
X48119047Y-42786904D01*
X48139583Y-42766369D01*
X48166964Y-42752678D01*
X48187500Y-42732142D01*
X48194345Y-42732142D01*
X48214880Y-42711607D01*
X48262797Y-42684226D01*
X48283333Y-42663690D01*
X48290178Y-42663690D01*
X48303869Y-42650000D01*
X48351785Y-42622619D01*
X48427083Y-42561011D01*
X48475000Y-42533630D01*
X48529761Y-42485714D01*
X48577678Y-42458333D01*
X48625595Y-42417261D01*
X48632440Y-42417261D01*
X48646130Y-42403571D01*
X48694047Y-42376190D01*
X48714583Y-42355654D01*
X48721428Y-42355654D01*
X48741964Y-42335119D01*
X48769345Y-42321428D01*
X48789880Y-42300892D01*
X48837797Y-42273511D01*
X48858333Y-42252976D01*
X48885714Y-42239285D01*
X48954166Y-42184523D01*
X49002083Y-42157142D01*
X49022619Y-42136607D01*
X49050000Y-42122916D01*
X49070535Y-42102380D01*
X49118452Y-42074999D01*
X49138988Y-42054464D01*
X49145833Y-42054464D01*
X49186904Y-42020238D01*
X49227976Y-41999702D01*
X49241666Y-41986011D01*
X49296428Y-41958630D01*
X49310119Y-41958630D01*
X49316964Y-41951785D01*
X49330654Y-41951785D01*
X49358035Y-41938095D01*
X49378571Y-41938095D01*
X49385416Y-41931250D01*
X49426488Y-41931250D01*
X49433333Y-41924404D01*
X49508630Y-41924404D01*
X49515476Y-41931250D01*
G37*
D11*
X39020000Y-61365000D02*
X37550000Y-61365000D01*
X50970000Y-31250000D02*
X51956850Y-31250000D01*
X58700000Y-51400000D02*
X58700000Y-47780000D01*
X61350000Y-32000000D02*
X61350000Y-30775000D01*
X62851000Y-26317392D02*
X62058229Y-26155560D01*
X36047619Y-34633723D02*
X35666666Y-34633723D01*
X36123809Y-34862295D02*
X35857142Y-34062295D01*
X35857142Y-34062295D02*
X35590476Y-34862295D01*
X35323809Y-34862295D02*
X35323809Y-34062295D01*
X35323809Y-34062295D02*
X35057143Y-34633723D01*
X35057143Y-34633723D02*
X34790476Y-34062295D01*
X34790476Y-34062295D02*
X34790476Y-34862295D01*
X34409523Y-34862295D02*
X34409523Y-34062295D01*
X34409523Y-34062295D02*
X34104761Y-34062295D01*
X34104761Y-34062295D02*
X34028571Y-34100390D01*
X34028571Y-34100390D02*
X33990476Y-34138485D01*
X33990476Y-34138485D02*
X33952380Y-34214676D01*
X33952380Y-34214676D02*
X33952380Y-34328961D01*
X33952380Y-34328961D02*
X33990476Y-34405152D01*
X33990476Y-34405152D02*
X34028571Y-34443247D01*
X34028571Y-34443247D02*
X34104761Y-34481342D01*
X34104761Y-34481342D02*
X34409523Y-34481342D01*
X38649999Y-67362295D02*
X38649999Y-66562295D01*
X38116666Y-66562295D02*
X37964285Y-66562295D01*
X37964285Y-66562295D02*
X37888095Y-66600390D01*
X37888095Y-66600390D02*
X37811904Y-66676580D01*
X37811904Y-66676580D02*
X37773809Y-66828961D01*
X37773809Y-66828961D02*
X37773809Y-67095628D01*
X37773809Y-67095628D02*
X37811904Y-67248009D01*
X37811904Y-67248009D02*
X37888095Y-67324200D01*
X37888095Y-67324200D02*
X37964285Y-67362295D01*
X37964285Y-67362295D02*
X38116666Y-67362295D01*
X38116666Y-67362295D02*
X38192857Y-67324200D01*
X38192857Y-67324200D02*
X38269047Y-67248009D01*
X38269047Y-67248009D02*
X38307143Y-67095628D01*
X38307143Y-67095628D02*
X38307143Y-66828961D01*
X38307143Y-66828961D02*
X38269047Y-66676580D01*
X38269047Y-66676580D02*
X38192857Y-66600390D01*
X38192857Y-66600390D02*
X38116666Y-66562295D01*
X37469048Y-66638485D02*
X37430952Y-66600390D01*
X37430952Y-66600390D02*
X37354762Y-66562295D01*
X37354762Y-66562295D02*
X37164286Y-66562295D01*
X37164286Y-66562295D02*
X37088095Y-66600390D01*
X37088095Y-66600390D02*
X37050000Y-66638485D01*
X37050000Y-66638485D02*
X37011905Y-66714676D01*
X37011905Y-66714676D02*
X37011905Y-66790866D01*
X37011905Y-66790866D02*
X37050000Y-66905152D01*
X37050000Y-66905152D02*
X37507143Y-67362295D01*
X37507143Y-67362295D02*
X37011905Y-67362295D01*
X47990475Y-52762295D02*
X47990475Y-51962295D01*
X47990475Y-51962295D02*
X47685713Y-51962295D01*
X47685713Y-51962295D02*
X47609523Y-52000390D01*
X47609523Y-52000390D02*
X47571428Y-52038485D01*
X47571428Y-52038485D02*
X47533332Y-52114676D01*
X47533332Y-52114676D02*
X47533332Y-52228961D01*
X47533332Y-52228961D02*
X47571428Y-52305152D01*
X47571428Y-52305152D02*
X47609523Y-52343247D01*
X47609523Y-52343247D02*
X47685713Y-52381342D01*
X47685713Y-52381342D02*
X47990475Y-52381342D01*
X46733332Y-52762295D02*
X46999999Y-52381342D01*
X47190475Y-52762295D02*
X47190475Y-51962295D01*
X47190475Y-51962295D02*
X46885713Y-51962295D01*
X46885713Y-51962295D02*
X46809523Y-52000390D01*
X46809523Y-52000390D02*
X46771428Y-52038485D01*
X46771428Y-52038485D02*
X46733332Y-52114676D01*
X46733332Y-52114676D02*
X46733332Y-52228961D01*
X46733332Y-52228961D02*
X46771428Y-52305152D01*
X46771428Y-52305152D02*
X46809523Y-52343247D01*
X46809523Y-52343247D02*
X46885713Y-52381342D01*
X46885713Y-52381342D02*
X47190475Y-52381342D01*
X46428571Y-52724200D02*
X46314285Y-52762295D01*
X46314285Y-52762295D02*
X46123809Y-52762295D01*
X46123809Y-52762295D02*
X46047618Y-52724200D01*
X46047618Y-52724200D02*
X46009523Y-52686104D01*
X46009523Y-52686104D02*
X45971428Y-52609914D01*
X45971428Y-52609914D02*
X45971428Y-52533723D01*
X45971428Y-52533723D02*
X46009523Y-52457533D01*
X46009523Y-52457533D02*
X46047618Y-52419438D01*
X46047618Y-52419438D02*
X46123809Y-52381342D01*
X46123809Y-52381342D02*
X46276190Y-52343247D01*
X46276190Y-52343247D02*
X46352380Y-52305152D01*
X46352380Y-52305152D02*
X46390475Y-52267057D01*
X46390475Y-52267057D02*
X46428571Y-52190866D01*
X46428571Y-52190866D02*
X46428571Y-52114676D01*
X46428571Y-52114676D02*
X46390475Y-52038485D01*
X46390475Y-52038485D02*
X46352380Y-52000390D01*
X46352380Y-52000390D02*
X46276190Y-51962295D01*
X46276190Y-51962295D02*
X46085713Y-51962295D01*
X46085713Y-51962295D02*
X45971428Y-52000390D01*
X52828572Y-48264080D02*
X52790476Y-48225985D01*
X52790476Y-48225985D02*
X52714286Y-48187890D01*
X52714286Y-48187890D02*
X52523810Y-48187890D01*
X52523810Y-48187890D02*
X52447619Y-48225985D01*
X52447619Y-48225985D02*
X52409524Y-48264080D01*
X52409524Y-48264080D02*
X52371429Y-48340271D01*
X52371429Y-48340271D02*
X52371429Y-48416461D01*
X52371429Y-48416461D02*
X52409524Y-48530747D01*
X52409524Y-48530747D02*
X52866667Y-48987890D01*
X52866667Y-48987890D02*
X52371429Y-48987890D01*
X51876190Y-48187890D02*
X51800000Y-48187890D01*
X51800000Y-48187890D02*
X51723809Y-48225985D01*
X51723809Y-48225985D02*
X51685714Y-48264080D01*
X51685714Y-48264080D02*
X51647619Y-48340271D01*
X51647619Y-48340271D02*
X51609524Y-48492652D01*
X51609524Y-48492652D02*
X51609524Y-48683128D01*
X51609524Y-48683128D02*
X51647619Y-48835509D01*
X51647619Y-48835509D02*
X51685714Y-48911699D01*
X51685714Y-48911699D02*
X51723809Y-48949795D01*
X51723809Y-48949795D02*
X51800000Y-48987890D01*
X51800000Y-48987890D02*
X51876190Y-48987890D01*
X51876190Y-48987890D02*
X51952381Y-48949795D01*
X51952381Y-48949795D02*
X51990476Y-48911699D01*
X51990476Y-48911699D02*
X52028571Y-48835509D01*
X52028571Y-48835509D02*
X52066667Y-48683128D01*
X52066667Y-48683128D02*
X52066667Y-48492652D01*
X52066667Y-48492652D02*
X52028571Y-48340271D01*
X52028571Y-48340271D02*
X51990476Y-48264080D01*
X51990476Y-48264080D02*
X51952381Y-48225985D01*
X51952381Y-48225985D02*
X51876190Y-48187890D01*
X51304762Y-48264080D02*
X51266666Y-48225985D01*
X51266666Y-48225985D02*
X51190476Y-48187890D01*
X51190476Y-48187890D02*
X51000000Y-48187890D01*
X51000000Y-48187890D02*
X50923809Y-48225985D01*
X50923809Y-48225985D02*
X50885714Y-48264080D01*
X50885714Y-48264080D02*
X50847619Y-48340271D01*
X50847619Y-48340271D02*
X50847619Y-48416461D01*
X50847619Y-48416461D02*
X50885714Y-48530747D01*
X50885714Y-48530747D02*
X51342857Y-48987890D01*
X51342857Y-48987890D02*
X50847619Y-48987890D01*
X50161904Y-48187890D02*
X50314285Y-48187890D01*
X50314285Y-48187890D02*
X50390476Y-48225985D01*
X50390476Y-48225985D02*
X50428571Y-48264080D01*
X50428571Y-48264080D02*
X50504761Y-48378366D01*
X50504761Y-48378366D02*
X50542857Y-48530747D01*
X50542857Y-48530747D02*
X50542857Y-48835509D01*
X50542857Y-48835509D02*
X50504761Y-48911699D01*
X50504761Y-48911699D02*
X50466666Y-48949795D01*
X50466666Y-48949795D02*
X50390476Y-48987890D01*
X50390476Y-48987890D02*
X50238095Y-48987890D01*
X50238095Y-48987890D02*
X50161904Y-48949795D01*
X50161904Y-48949795D02*
X50123809Y-48911699D01*
X50123809Y-48911699D02*
X50085714Y-48835509D01*
X50085714Y-48835509D02*
X50085714Y-48645033D01*
X50085714Y-48645033D02*
X50123809Y-48568842D01*
X50123809Y-48568842D02*
X50161904Y-48530747D01*
X50161904Y-48530747D02*
X50238095Y-48492652D01*
X50238095Y-48492652D02*
X50390476Y-48492652D01*
X50390476Y-48492652D02*
X50466666Y-48530747D01*
X50466666Y-48530747D02*
X50504761Y-48568842D01*
X50504761Y-48568842D02*
X50542857Y-48645033D01*
X49742856Y-48683128D02*
X49133333Y-48683128D01*
X48333333Y-48987890D02*
X48790476Y-48987890D01*
X48561904Y-48987890D02*
X48561904Y-48187890D01*
X48561904Y-48187890D02*
X48638095Y-48302175D01*
X48638095Y-48302175D02*
X48714285Y-48378366D01*
X48714285Y-48378366D02*
X48790476Y-48416461D01*
X47838094Y-48187890D02*
X47761904Y-48187890D01*
X47761904Y-48187890D02*
X47685713Y-48225985D01*
X47685713Y-48225985D02*
X47647618Y-48264080D01*
X47647618Y-48264080D02*
X47609523Y-48340271D01*
X47609523Y-48340271D02*
X47571428Y-48492652D01*
X47571428Y-48492652D02*
X47571428Y-48683128D01*
X47571428Y-48683128D02*
X47609523Y-48835509D01*
X47609523Y-48835509D02*
X47647618Y-48911699D01*
X47647618Y-48911699D02*
X47685713Y-48949795D01*
X47685713Y-48949795D02*
X47761904Y-48987890D01*
X47761904Y-48987890D02*
X47838094Y-48987890D01*
X47838094Y-48987890D02*
X47914285Y-48949795D01*
X47914285Y-48949795D02*
X47952380Y-48911699D01*
X47952380Y-48911699D02*
X47990475Y-48835509D01*
X47990475Y-48835509D02*
X48028571Y-48683128D01*
X48028571Y-48683128D02*
X48028571Y-48492652D01*
X48028571Y-48492652D02*
X47990475Y-48340271D01*
X47990475Y-48340271D02*
X47952380Y-48264080D01*
X47952380Y-48264080D02*
X47914285Y-48225985D01*
X47914285Y-48225985D02*
X47838094Y-48187890D01*
X51971713Y-52204888D02*
X51971713Y-51404888D01*
X51971713Y-51785840D02*
X51514570Y-51785840D01*
X51514570Y-52204888D02*
X51514570Y-51404888D01*
X50752666Y-52204888D02*
X51133618Y-52204888D01*
X51133618Y-52204888D02*
X51133618Y-51404888D01*
X50524095Y-51976316D02*
X50143142Y-51976316D01*
X50600285Y-52204888D02*
X50333618Y-51404888D01*
X50333618Y-51404888D02*
X50066952Y-52204888D01*
X55807692Y-56818756D02*
X55807692Y-56018756D01*
X55274359Y-56018756D02*
X55121978Y-56018756D01*
X55121978Y-56018756D02*
X55045788Y-56056851D01*
X55045788Y-56056851D02*
X54969597Y-56133041D01*
X54969597Y-56133041D02*
X54931502Y-56285422D01*
X54931502Y-56285422D02*
X54931502Y-56552089D01*
X54931502Y-56552089D02*
X54969597Y-56704470D01*
X54969597Y-56704470D02*
X55045788Y-56780661D01*
X55045788Y-56780661D02*
X55121978Y-56818756D01*
X55121978Y-56818756D02*
X55274359Y-56818756D01*
X55274359Y-56818756D02*
X55350550Y-56780661D01*
X55350550Y-56780661D02*
X55426740Y-56704470D01*
X55426740Y-56704470D02*
X55464836Y-56552089D01*
X55464836Y-56552089D02*
X55464836Y-56285422D01*
X55464836Y-56285422D02*
X55426740Y-56133041D01*
X55426740Y-56133041D02*
X55350550Y-56056851D01*
X55350550Y-56056851D02*
X55274359Y-56018756D01*
X54626741Y-56094946D02*
X54588645Y-56056851D01*
X54588645Y-56056851D02*
X54512455Y-56018756D01*
X54512455Y-56018756D02*
X54321979Y-56018756D01*
X54321979Y-56018756D02*
X54245788Y-56056851D01*
X54245788Y-56056851D02*
X54207693Y-56094946D01*
X54207693Y-56094946D02*
X54169598Y-56171137D01*
X54169598Y-56171137D02*
X54169598Y-56247327D01*
X54169598Y-56247327D02*
X54207693Y-56361613D01*
X54207693Y-56361613D02*
X54664836Y-56818756D01*
X54664836Y-56818756D02*
X54169598Y-56818756D01*
X53483883Y-56018756D02*
X53636264Y-56018756D01*
X53636264Y-56018756D02*
X53712455Y-56056851D01*
X53712455Y-56056851D02*
X53750550Y-56094946D01*
X53750550Y-56094946D02*
X53826740Y-56209232D01*
X53826740Y-56209232D02*
X53864836Y-56361613D01*
X53864836Y-56361613D02*
X53864836Y-56666375D01*
X53864836Y-56666375D02*
X53826740Y-56742565D01*
X53826740Y-56742565D02*
X53788645Y-56780661D01*
X53788645Y-56780661D02*
X53712455Y-56818756D01*
X53712455Y-56818756D02*
X53560074Y-56818756D01*
X53560074Y-56818756D02*
X53483883Y-56780661D01*
X53483883Y-56780661D02*
X53445788Y-56742565D01*
X53445788Y-56742565D02*
X53407693Y-56666375D01*
X53407693Y-56666375D02*
X53407693Y-56475899D01*
X53407693Y-56475899D02*
X53445788Y-56399708D01*
X53445788Y-56399708D02*
X53483883Y-56361613D01*
X53483883Y-56361613D02*
X53560074Y-56323518D01*
X53560074Y-56323518D02*
X53712455Y-56323518D01*
X53712455Y-56323518D02*
X53788645Y-56361613D01*
X53788645Y-56361613D02*
X53826740Y-56399708D01*
X53826740Y-56399708D02*
X53864836Y-56475899D01*
X56952381Y-48244200D02*
X56838095Y-48282295D01*
X56838095Y-48282295D02*
X56647619Y-48282295D01*
X56647619Y-48282295D02*
X56571428Y-48244200D01*
X56571428Y-48244200D02*
X56533333Y-48206104D01*
X56533333Y-48206104D02*
X56495238Y-48129914D01*
X56495238Y-48129914D02*
X56495238Y-48053723D01*
X56495238Y-48053723D02*
X56533333Y-47977533D01*
X56533333Y-47977533D02*
X56571428Y-47939438D01*
X56571428Y-47939438D02*
X56647619Y-47901342D01*
X56647619Y-47901342D02*
X56800000Y-47863247D01*
X56800000Y-47863247D02*
X56876190Y-47825152D01*
X56876190Y-47825152D02*
X56914285Y-47787057D01*
X56914285Y-47787057D02*
X56952381Y-47710866D01*
X56952381Y-47710866D02*
X56952381Y-47634676D01*
X56952381Y-47634676D02*
X56914285Y-47558485D01*
X56914285Y-47558485D02*
X56876190Y-47520390D01*
X56876190Y-47520390D02*
X56800000Y-47482295D01*
X56800000Y-47482295D02*
X56609523Y-47482295D01*
X56609523Y-47482295D02*
X56495238Y-47520390D01*
X55695237Y-48206104D02*
X55733333Y-48244200D01*
X55733333Y-48244200D02*
X55847618Y-48282295D01*
X55847618Y-48282295D02*
X55923809Y-48282295D01*
X55923809Y-48282295D02*
X56038095Y-48244200D01*
X56038095Y-48244200D02*
X56114285Y-48168009D01*
X56114285Y-48168009D02*
X56152380Y-48091819D01*
X56152380Y-48091819D02*
X56190476Y-47939438D01*
X56190476Y-47939438D02*
X56190476Y-47825152D01*
X56190476Y-47825152D02*
X56152380Y-47672771D01*
X56152380Y-47672771D02*
X56114285Y-47596580D01*
X56114285Y-47596580D02*
X56038095Y-47520390D01*
X56038095Y-47520390D02*
X55923809Y-47482295D01*
X55923809Y-47482295D02*
X55847618Y-47482295D01*
X55847618Y-47482295D02*
X55733333Y-47520390D01*
X55733333Y-47520390D02*
X55695237Y-47558485D01*
X54971428Y-48282295D02*
X55352380Y-48282295D01*
X55352380Y-48282295D02*
X55352380Y-47482295D01*
X57872211Y-35546112D02*
X57910307Y-35584208D01*
X57910307Y-35584208D02*
X58024592Y-35622303D01*
X58024592Y-35622303D02*
X58100783Y-35622303D01*
X58100783Y-35622303D02*
X58215069Y-35584208D01*
X58215069Y-35584208D02*
X58291259Y-35508017D01*
X58291259Y-35508017D02*
X58329354Y-35431827D01*
X58329354Y-35431827D02*
X58367450Y-35279446D01*
X58367450Y-35279446D02*
X58367450Y-35165160D01*
X58367450Y-35165160D02*
X58329354Y-35012779D01*
X58329354Y-35012779D02*
X58291259Y-34936588D01*
X58291259Y-34936588D02*
X58215069Y-34860398D01*
X58215069Y-34860398D02*
X58100783Y-34822303D01*
X58100783Y-34822303D02*
X58024592Y-34822303D01*
X58024592Y-34822303D02*
X57910307Y-34860398D01*
X57910307Y-34860398D02*
X57872211Y-34898493D01*
X57529354Y-35203255D02*
X57262688Y-35203255D01*
X57148402Y-35622303D02*
X57529354Y-35622303D01*
X57529354Y-35622303D02*
X57529354Y-34822303D01*
X57529354Y-34822303D02*
X57148402Y-34822303D01*
X63088571Y-50647295D02*
X62936190Y-50647295D01*
X62936190Y-50647295D02*
X62860000Y-50609200D01*
X62860000Y-50609200D02*
X62821904Y-50571104D01*
X62821904Y-50571104D02*
X62745714Y-50456819D01*
X62745714Y-50456819D02*
X62707619Y-50304438D01*
X62707619Y-50304438D02*
X62707619Y-49999676D01*
X62707619Y-49999676D02*
X62745714Y-49923485D01*
X62745714Y-49923485D02*
X62783809Y-49885390D01*
X62783809Y-49885390D02*
X62860000Y-49847295D01*
X62860000Y-49847295D02*
X63012381Y-49847295D01*
X63012381Y-49847295D02*
X63088571Y-49885390D01*
X63088571Y-49885390D02*
X63126666Y-49923485D01*
X63126666Y-49923485D02*
X63164762Y-49999676D01*
X63164762Y-49999676D02*
X63164762Y-50190152D01*
X63164762Y-50190152D02*
X63126666Y-50266342D01*
X63126666Y-50266342D02*
X63088571Y-50304438D01*
X63088571Y-50304438D02*
X63012381Y-50342533D01*
X63012381Y-50342533D02*
X62860000Y-50342533D01*
X62860000Y-50342533D02*
X62783809Y-50304438D01*
X62783809Y-50304438D02*
X62745714Y-50266342D01*
X62745714Y-50266342D02*
X62707619Y-50190152D01*
X61640952Y-50647295D02*
X61717142Y-50609200D01*
X61717142Y-50609200D02*
X61755237Y-50533009D01*
X61755237Y-50533009D02*
X61755237Y-49847295D01*
X61336189Y-50647295D02*
X61336189Y-50113961D01*
X61336189Y-49847295D02*
X61374285Y-49885390D01*
X61374285Y-49885390D02*
X61336189Y-49923485D01*
X61336189Y-49923485D02*
X61298094Y-49885390D01*
X61298094Y-49885390D02*
X61336189Y-49847295D01*
X61336189Y-49847295D02*
X61336189Y-49923485D01*
X61031428Y-50113961D02*
X60840952Y-50647295D01*
X60840952Y-50647295D02*
X60650475Y-50113961D01*
X60040951Y-50609200D02*
X60117142Y-50647295D01*
X60117142Y-50647295D02*
X60269523Y-50647295D01*
X60269523Y-50647295D02*
X60345713Y-50609200D01*
X60345713Y-50609200D02*
X60383809Y-50533009D01*
X60383809Y-50533009D02*
X60383809Y-50228247D01*
X60383809Y-50228247D02*
X60345713Y-50152057D01*
X60345713Y-50152057D02*
X60269523Y-50113961D01*
X60269523Y-50113961D02*
X60117142Y-50113961D01*
X60117142Y-50113961D02*
X60040951Y-50152057D01*
X60040951Y-50152057D02*
X60002856Y-50228247D01*
X60002856Y-50228247D02*
X60002856Y-50304438D01*
X60002856Y-50304438D02*
X60383809Y-50380628D01*
X59698095Y-50609200D02*
X59621904Y-50647295D01*
X59621904Y-50647295D02*
X59469523Y-50647295D01*
X59469523Y-50647295D02*
X59393333Y-50609200D01*
X59393333Y-50609200D02*
X59355237Y-50533009D01*
X59355237Y-50533009D02*
X59355237Y-50494914D01*
X59355237Y-50494914D02*
X59393333Y-50418723D01*
X59393333Y-50418723D02*
X59469523Y-50380628D01*
X59469523Y-50380628D02*
X59583809Y-50380628D01*
X59583809Y-50380628D02*
X59659999Y-50342533D01*
X59659999Y-50342533D02*
X59698095Y-50266342D01*
X59698095Y-50266342D02*
X59698095Y-50228247D01*
X59698095Y-50228247D02*
X59659999Y-50152057D01*
X59659999Y-50152057D02*
X59583809Y-50113961D01*
X59583809Y-50113961D02*
X59469523Y-50113961D01*
X59469523Y-50113961D02*
X59393333Y-50152057D01*
X71500476Y-39534270D02*
X71386190Y-39572365D01*
X71386190Y-39572365D02*
X71348095Y-39610461D01*
X71348095Y-39610461D02*
X71309999Y-39686651D01*
X71309999Y-39686651D02*
X71309999Y-39800937D01*
X71309999Y-39800937D02*
X71348095Y-39877127D01*
X71348095Y-39877127D02*
X71386190Y-39915223D01*
X71386190Y-39915223D02*
X71462380Y-39953318D01*
X71462380Y-39953318D02*
X71767142Y-39953318D01*
X71767142Y-39953318D02*
X71767142Y-39153318D01*
X71767142Y-39153318D02*
X71500476Y-39153318D01*
X71500476Y-39153318D02*
X71424285Y-39191413D01*
X71424285Y-39191413D02*
X71386190Y-39229508D01*
X71386190Y-39229508D02*
X71348095Y-39305699D01*
X71348095Y-39305699D02*
X71348095Y-39381889D01*
X71348095Y-39381889D02*
X71386190Y-39458080D01*
X71386190Y-39458080D02*
X71424285Y-39496175D01*
X71424285Y-39496175D02*
X71500476Y-39534270D01*
X71500476Y-39534270D02*
X71767142Y-39534270D01*
X71005238Y-39724746D02*
X70624285Y-39724746D01*
X71081428Y-39953318D02*
X70814761Y-39153318D01*
X70814761Y-39153318D02*
X70548095Y-39953318D01*
X70395714Y-39153318D02*
X69938571Y-39153318D01*
X70167143Y-39953318D02*
X70167143Y-39153318D01*
X71671904Y-41241273D02*
X72052856Y-41241273D01*
X72052856Y-41241273D02*
X72052856Y-40441273D01*
X71405237Y-41241273D02*
X71405237Y-40441273D01*
X71024285Y-41241273D02*
X71024285Y-40441273D01*
X71024285Y-40441273D02*
X70567142Y-41241273D01*
X70567142Y-41241273D02*
X70567142Y-40441273D01*
X70186190Y-41241273D02*
X70186190Y-40441273D01*
X69729047Y-41241273D02*
X70071905Y-40784130D01*
X69729047Y-40441273D02*
X70186190Y-40898416D01*
X28097704Y-55666666D02*
X28631038Y-55666666D01*
X28554847Y-55666666D02*
X28592942Y-55628571D01*
X28592942Y-55628571D02*
X28631038Y-55552381D01*
X28631038Y-55552381D02*
X28631038Y-55438095D01*
X28631038Y-55438095D02*
X28592942Y-55361904D01*
X28592942Y-55361904D02*
X28516752Y-55323809D01*
X28516752Y-55323809D02*
X28097704Y-55323809D01*
X28516752Y-55323809D02*
X28592942Y-55285714D01*
X28592942Y-55285714D02*
X28631038Y-55209523D01*
X28631038Y-55209523D02*
X28631038Y-55095238D01*
X28631038Y-55095238D02*
X28592942Y-55019047D01*
X28592942Y-55019047D02*
X28516752Y-54980952D01*
X28516752Y-54980952D02*
X28097704Y-54980952D01*
X28135800Y-54295237D02*
X28097704Y-54371428D01*
X28097704Y-54371428D02*
X28097704Y-54523809D01*
X28097704Y-54523809D02*
X28135800Y-54599999D01*
X28135800Y-54599999D02*
X28211990Y-54638095D01*
X28211990Y-54638095D02*
X28516752Y-54638095D01*
X28516752Y-54638095D02*
X28592942Y-54599999D01*
X28592942Y-54599999D02*
X28631038Y-54523809D01*
X28631038Y-54523809D02*
X28631038Y-54371428D01*
X28631038Y-54371428D02*
X28592942Y-54295237D01*
X28592942Y-54295237D02*
X28516752Y-54257142D01*
X28516752Y-54257142D02*
X28440561Y-54257142D01*
X28440561Y-54257142D02*
X28364371Y-54638095D01*
X28097704Y-53800000D02*
X28135800Y-53876190D01*
X28135800Y-53876190D02*
X28173895Y-53914285D01*
X28173895Y-53914285D02*
X28250085Y-53952381D01*
X28250085Y-53952381D02*
X28478657Y-53952381D01*
X28478657Y-53952381D02*
X28554847Y-53914285D01*
X28554847Y-53914285D02*
X28592942Y-53876190D01*
X28592942Y-53876190D02*
X28631038Y-53800000D01*
X28631038Y-53800000D02*
X28631038Y-53685714D01*
X28631038Y-53685714D02*
X28592942Y-53609523D01*
X28592942Y-53609523D02*
X28554847Y-53571428D01*
X28554847Y-53571428D02*
X28478657Y-53533333D01*
X28478657Y-53533333D02*
X28250085Y-53533333D01*
X28250085Y-53533333D02*
X28173895Y-53571428D01*
X28173895Y-53571428D02*
X28135800Y-53609523D01*
X28135800Y-53609523D02*
X28097704Y-53685714D01*
X28097704Y-53685714D02*
X28097704Y-53800000D01*
X28631038Y-53266666D02*
X28097704Y-53114285D01*
X28097704Y-53114285D02*
X28478657Y-52961904D01*
X28478657Y-52961904D02*
X28097704Y-52809523D01*
X28097704Y-52809523D02*
X28631038Y-52657142D01*
X48236752Y-37366666D02*
X48198657Y-37252380D01*
X48198657Y-37252380D02*
X48160561Y-37214285D01*
X48160561Y-37214285D02*
X48084371Y-37176189D01*
X48084371Y-37176189D02*
X47970085Y-37176189D01*
X47970085Y-37176189D02*
X47893895Y-37214285D01*
X47893895Y-37214285D02*
X47855800Y-37252380D01*
X47855800Y-37252380D02*
X47817704Y-37328570D01*
X47817704Y-37328570D02*
X47817704Y-37633332D01*
X47817704Y-37633332D02*
X48617704Y-37633332D01*
X48617704Y-37633332D02*
X48617704Y-37366666D01*
X48617704Y-37366666D02*
X48579609Y-37290475D01*
X48579609Y-37290475D02*
X48541514Y-37252380D01*
X48541514Y-37252380D02*
X48465323Y-37214285D01*
X48465323Y-37214285D02*
X48389133Y-37214285D01*
X48389133Y-37214285D02*
X48312942Y-37252380D01*
X48312942Y-37252380D02*
X48274847Y-37290475D01*
X48274847Y-37290475D02*
X48236752Y-37366666D01*
X48236752Y-37366666D02*
X48236752Y-37633332D01*
X47817704Y-36452380D02*
X47817704Y-36833332D01*
X47817704Y-36833332D02*
X48617704Y-36833332D01*
X47817704Y-40595237D02*
X47817704Y-40976189D01*
X47817704Y-40976189D02*
X48617704Y-40976189D01*
X47893895Y-39871427D02*
X47855800Y-39909523D01*
X47855800Y-39909523D02*
X47817704Y-40023808D01*
X47817704Y-40023808D02*
X47817704Y-40099999D01*
X47817704Y-40099999D02*
X47855800Y-40214285D01*
X47855800Y-40214285D02*
X47931990Y-40290475D01*
X47931990Y-40290475D02*
X48008180Y-40328570D01*
X48008180Y-40328570D02*
X48160561Y-40366666D01*
X48160561Y-40366666D02*
X48274847Y-40366666D01*
X48274847Y-40366666D02*
X48427228Y-40328570D01*
X48427228Y-40328570D02*
X48503419Y-40290475D01*
X48503419Y-40290475D02*
X48579609Y-40214285D01*
X48579609Y-40214285D02*
X48617704Y-40099999D01*
X48617704Y-40099999D02*
X48617704Y-40023808D01*
X48617704Y-40023808D02*
X48579609Y-39909523D01*
X48579609Y-39909523D02*
X48541514Y-39871427D01*
X47817704Y-39528570D02*
X48617704Y-39528570D01*
X48617704Y-39528570D02*
X48617704Y-39338094D01*
X48617704Y-39338094D02*
X48579609Y-39223808D01*
X48579609Y-39223808D02*
X48503419Y-39147618D01*
X48503419Y-39147618D02*
X48427228Y-39109523D01*
X48427228Y-39109523D02*
X48274847Y-39071427D01*
X48274847Y-39071427D02*
X48160561Y-39071427D01*
X48160561Y-39071427D02*
X48008180Y-39109523D01*
X48008180Y-39109523D02*
X47931990Y-39147618D01*
X47931990Y-39147618D02*
X47855800Y-39223808D01*
X47855800Y-39223808D02*
X47817704Y-39338094D01*
X47817704Y-39338094D02*
X47817704Y-39528570D01*
X48617704Y-38842856D02*
X47817704Y-38576189D01*
X47817704Y-38576189D02*
X48617704Y-38309523D01*
X54488815Y-34904895D02*
X53688815Y-34638228D01*
X53688815Y-34638228D02*
X54488815Y-34371562D01*
X54107863Y-33838229D02*
X54069768Y-33723943D01*
X54069768Y-33723943D02*
X54031672Y-33685848D01*
X54031672Y-33685848D02*
X53955482Y-33647752D01*
X53955482Y-33647752D02*
X53841196Y-33647752D01*
X53841196Y-33647752D02*
X53765006Y-33685848D01*
X53765006Y-33685848D02*
X53726911Y-33723943D01*
X53726911Y-33723943D02*
X53688815Y-33800133D01*
X53688815Y-33800133D02*
X53688815Y-34104895D01*
X53688815Y-34104895D02*
X54488815Y-34104895D01*
X54488815Y-34104895D02*
X54488815Y-33838229D01*
X54488815Y-33838229D02*
X54450720Y-33762038D01*
X54450720Y-33762038D02*
X54412625Y-33723943D01*
X54412625Y-33723943D02*
X54336434Y-33685848D01*
X54336434Y-33685848D02*
X54260244Y-33685848D01*
X54260244Y-33685848D02*
X54184053Y-33723943D01*
X54184053Y-33723943D02*
X54145958Y-33762038D01*
X54145958Y-33762038D02*
X54107863Y-33838229D01*
X54107863Y-33838229D02*
X54107863Y-34104895D01*
X54488815Y-33304895D02*
X53841196Y-33304895D01*
X53841196Y-33304895D02*
X53765006Y-33266800D01*
X53765006Y-33266800D02*
X53726911Y-33228705D01*
X53726911Y-33228705D02*
X53688815Y-33152514D01*
X53688815Y-33152514D02*
X53688815Y-33000133D01*
X53688815Y-33000133D02*
X53726911Y-32923943D01*
X53726911Y-32923943D02*
X53765006Y-32885848D01*
X53765006Y-32885848D02*
X53841196Y-32847752D01*
X53841196Y-32847752D02*
X54488815Y-32847752D01*
X53726911Y-32504896D02*
X53688815Y-32390610D01*
X53688815Y-32390610D02*
X53688815Y-32200134D01*
X53688815Y-32200134D02*
X53726911Y-32123943D01*
X53726911Y-32123943D02*
X53765006Y-32085848D01*
X53765006Y-32085848D02*
X53841196Y-32047753D01*
X53841196Y-32047753D02*
X53917387Y-32047753D01*
X53917387Y-32047753D02*
X53993577Y-32085848D01*
X53993577Y-32085848D02*
X54031672Y-32123943D01*
X54031672Y-32123943D02*
X54069768Y-32200134D01*
X54069768Y-32200134D02*
X54107863Y-32352515D01*
X54107863Y-32352515D02*
X54145958Y-32428705D01*
X54145958Y-32428705D02*
X54184053Y-32466800D01*
X54184053Y-32466800D02*
X54260244Y-32504896D01*
X54260244Y-32504896D02*
X54336434Y-32504896D01*
X54336434Y-32504896D02*
X54412625Y-32466800D01*
X54412625Y-32466800D02*
X54450720Y-32428705D01*
X54450720Y-32428705D02*
X54488815Y-32352515D01*
X54488815Y-32352515D02*
X54488815Y-32162038D01*
X54488815Y-32162038D02*
X54450720Y-32047753D01*
X56895800Y-50871428D02*
X56857704Y-50757142D01*
X56857704Y-50757142D02*
X56857704Y-50566666D01*
X56857704Y-50566666D02*
X56895800Y-50490475D01*
X56895800Y-50490475D02*
X56933895Y-50452380D01*
X56933895Y-50452380D02*
X57010085Y-50414285D01*
X57010085Y-50414285D02*
X57086276Y-50414285D01*
X57086276Y-50414285D02*
X57162466Y-50452380D01*
X57162466Y-50452380D02*
X57200561Y-50490475D01*
X57200561Y-50490475D02*
X57238657Y-50566666D01*
X57238657Y-50566666D02*
X57276752Y-50719047D01*
X57276752Y-50719047D02*
X57314847Y-50795237D01*
X57314847Y-50795237D02*
X57352942Y-50833332D01*
X57352942Y-50833332D02*
X57429133Y-50871428D01*
X57429133Y-50871428D02*
X57505323Y-50871428D01*
X57505323Y-50871428D02*
X57581514Y-50833332D01*
X57581514Y-50833332D02*
X57619609Y-50795237D01*
X57619609Y-50795237D02*
X57657704Y-50719047D01*
X57657704Y-50719047D02*
X57657704Y-50528570D01*
X57657704Y-50528570D02*
X57619609Y-50414285D01*
X56857704Y-50071427D02*
X57657704Y-50071427D01*
X57657704Y-50071427D02*
X57657704Y-49880951D01*
X57657704Y-49880951D02*
X57619609Y-49766665D01*
X57619609Y-49766665D02*
X57543419Y-49690475D01*
X57543419Y-49690475D02*
X57467228Y-49652380D01*
X57467228Y-49652380D02*
X57314847Y-49614284D01*
X57314847Y-49614284D02*
X57200561Y-49614284D01*
X57200561Y-49614284D02*
X57048180Y-49652380D01*
X57048180Y-49652380D02*
X56971990Y-49690475D01*
X56971990Y-49690475D02*
X56895800Y-49766665D01*
X56895800Y-49766665D02*
X56857704Y-49880951D01*
X56857704Y-49880951D02*
X56857704Y-50071427D01*
X57086276Y-49309523D02*
X57086276Y-48928570D01*
X56857704Y-49385713D02*
X57657704Y-49119046D01*
X57657704Y-49119046D02*
X56857704Y-48852380D01*
X57719609Y-44509523D02*
X57757704Y-44585713D01*
X57757704Y-44585713D02*
X57757704Y-44699999D01*
X57757704Y-44699999D02*
X57719609Y-44814285D01*
X57719609Y-44814285D02*
X57643419Y-44890475D01*
X57643419Y-44890475D02*
X57567228Y-44928570D01*
X57567228Y-44928570D02*
X57414847Y-44966666D01*
X57414847Y-44966666D02*
X57300561Y-44966666D01*
X57300561Y-44966666D02*
X57148180Y-44928570D01*
X57148180Y-44928570D02*
X57071990Y-44890475D01*
X57071990Y-44890475D02*
X56995800Y-44814285D01*
X56995800Y-44814285D02*
X56957704Y-44699999D01*
X56957704Y-44699999D02*
X56957704Y-44623808D01*
X56957704Y-44623808D02*
X56995800Y-44509523D01*
X56995800Y-44509523D02*
X57033895Y-44471427D01*
X57033895Y-44471427D02*
X57300561Y-44471427D01*
X57300561Y-44471427D02*
X57300561Y-44623808D01*
X56957704Y-44128570D02*
X57757704Y-44128570D01*
X57757704Y-44128570D02*
X56957704Y-43671427D01*
X56957704Y-43671427D02*
X57757704Y-43671427D01*
X56957704Y-43290475D02*
X57757704Y-43290475D01*
X57757704Y-43290475D02*
X57757704Y-43099999D01*
X57757704Y-43099999D02*
X57719609Y-42985713D01*
X57719609Y-42985713D02*
X57643419Y-42909523D01*
X57643419Y-42909523D02*
X57567228Y-42871428D01*
X57567228Y-42871428D02*
X57414847Y-42833332D01*
X57414847Y-42833332D02*
X57300561Y-42833332D01*
X57300561Y-42833332D02*
X57148180Y-42871428D01*
X57148180Y-42871428D02*
X57071990Y-42909523D01*
X57071990Y-42909523D02*
X56995800Y-42985713D01*
X56995800Y-42985713D02*
X56957704Y-43099999D01*
X56957704Y-43099999D02*
X56957704Y-43290475D01*
X59264894Y-68335714D02*
X59226799Y-68221428D01*
X59226799Y-68221428D02*
X59188703Y-68183333D01*
X59188703Y-68183333D02*
X59112513Y-68145237D01*
X59112513Y-68145237D02*
X58998227Y-68145237D01*
X58998227Y-68145237D02*
X58922037Y-68183333D01*
X58922037Y-68183333D02*
X58883942Y-68221428D01*
X58883942Y-68221428D02*
X58845846Y-68297618D01*
X58845846Y-68297618D02*
X58845846Y-68602380D01*
X58845846Y-68602380D02*
X59645846Y-68602380D01*
X59645846Y-68602380D02*
X59645846Y-68335714D01*
X59645846Y-68335714D02*
X59607751Y-68259523D01*
X59607751Y-68259523D02*
X59569656Y-68221428D01*
X59569656Y-68221428D02*
X59493465Y-68183333D01*
X59493465Y-68183333D02*
X59417275Y-68183333D01*
X59417275Y-68183333D02*
X59341084Y-68221428D01*
X59341084Y-68221428D02*
X59302989Y-68259523D01*
X59302989Y-68259523D02*
X59264894Y-68335714D01*
X59264894Y-68335714D02*
X59264894Y-68602380D01*
X59645846Y-67649999D02*
X59645846Y-67497618D01*
X59645846Y-67497618D02*
X59607751Y-67421428D01*
X59607751Y-67421428D02*
X59531561Y-67345237D01*
X59531561Y-67345237D02*
X59379180Y-67307142D01*
X59379180Y-67307142D02*
X59112513Y-67307142D01*
X59112513Y-67307142D02*
X58960132Y-67345237D01*
X58960132Y-67345237D02*
X58883942Y-67421428D01*
X58883942Y-67421428D02*
X58845846Y-67497618D01*
X58845846Y-67497618D02*
X58845846Y-67649999D01*
X58845846Y-67649999D02*
X58883942Y-67726190D01*
X58883942Y-67726190D02*
X58960132Y-67802380D01*
X58960132Y-67802380D02*
X59112513Y-67840476D01*
X59112513Y-67840476D02*
X59379180Y-67840476D01*
X59379180Y-67840476D02*
X59531561Y-67802380D01*
X59531561Y-67802380D02*
X59607751Y-67726190D01*
X59607751Y-67726190D02*
X59645846Y-67649999D01*
X59645846Y-66811904D02*
X59645846Y-66659523D01*
X59645846Y-66659523D02*
X59607751Y-66583333D01*
X59607751Y-66583333D02*
X59531561Y-66507142D01*
X59531561Y-66507142D02*
X59379180Y-66469047D01*
X59379180Y-66469047D02*
X59112513Y-66469047D01*
X59112513Y-66469047D02*
X58960132Y-66507142D01*
X58960132Y-66507142D02*
X58883942Y-66583333D01*
X58883942Y-66583333D02*
X58845846Y-66659523D01*
X58845846Y-66659523D02*
X58845846Y-66811904D01*
X58845846Y-66811904D02*
X58883942Y-66888095D01*
X58883942Y-66888095D02*
X58960132Y-66964285D01*
X58960132Y-66964285D02*
X59112513Y-67002381D01*
X59112513Y-67002381D02*
X59379180Y-67002381D01*
X59379180Y-67002381D02*
X59531561Y-66964285D01*
X59531561Y-66964285D02*
X59607751Y-66888095D01*
X59607751Y-66888095D02*
X59645846Y-66811904D01*
X59645846Y-66240476D02*
X59645846Y-65783333D01*
X58845846Y-66011905D02*
X59645846Y-66011905D01*
X60557704Y-44890476D02*
X60557704Y-44395238D01*
X60557704Y-44395238D02*
X60252942Y-44661904D01*
X60252942Y-44661904D02*
X60252942Y-44547619D01*
X60252942Y-44547619D02*
X60214847Y-44471428D01*
X60214847Y-44471428D02*
X60176752Y-44433333D01*
X60176752Y-44433333D02*
X60100561Y-44395238D01*
X60100561Y-44395238D02*
X59910085Y-44395238D01*
X59910085Y-44395238D02*
X59833895Y-44433333D01*
X59833895Y-44433333D02*
X59795800Y-44471428D01*
X59795800Y-44471428D02*
X59757704Y-44547619D01*
X59757704Y-44547619D02*
X59757704Y-44776190D01*
X59757704Y-44776190D02*
X59795800Y-44852381D01*
X59795800Y-44852381D02*
X59833895Y-44890476D01*
X60557704Y-44166666D02*
X59757704Y-43899999D01*
X59757704Y-43899999D02*
X60557704Y-43633333D01*
X60557704Y-43442857D02*
X60557704Y-42947619D01*
X60557704Y-42947619D02*
X60252942Y-43214285D01*
X60252942Y-43214285D02*
X60252942Y-43100000D01*
X60252942Y-43100000D02*
X60214847Y-43023809D01*
X60214847Y-43023809D02*
X60176752Y-42985714D01*
X60176752Y-42985714D02*
X60100561Y-42947619D01*
X60100561Y-42947619D02*
X59910085Y-42947619D01*
X59910085Y-42947619D02*
X59833895Y-42985714D01*
X59833895Y-42985714D02*
X59795800Y-43023809D01*
X59795800Y-43023809D02*
X59757704Y-43100000D01*
X59757704Y-43100000D02*
X59757704Y-43328571D01*
X59757704Y-43328571D02*
X59795800Y-43404762D01*
X59795800Y-43404762D02*
X59833895Y-43442857D01*
X61317704Y-57990476D02*
X61317704Y-57533333D01*
X60517704Y-57761905D02*
X61317704Y-57761905D01*
X60936752Y-57266666D02*
X60936752Y-57000000D01*
X60517704Y-56885714D02*
X60517704Y-57266666D01*
X60517704Y-57266666D02*
X61317704Y-57266666D01*
X61317704Y-57266666D02*
X61317704Y-56885714D01*
X62595800Y-44852381D02*
X62557704Y-44738095D01*
X62557704Y-44738095D02*
X62557704Y-44547619D01*
X62557704Y-44547619D02*
X62595800Y-44471428D01*
X62595800Y-44471428D02*
X62633895Y-44433333D01*
X62633895Y-44433333D02*
X62710085Y-44395238D01*
X62710085Y-44395238D02*
X62786276Y-44395238D01*
X62786276Y-44395238D02*
X62862466Y-44433333D01*
X62862466Y-44433333D02*
X62900561Y-44471428D01*
X62900561Y-44471428D02*
X62938657Y-44547619D01*
X62938657Y-44547619D02*
X62976752Y-44700000D01*
X62976752Y-44700000D02*
X63014847Y-44776190D01*
X63014847Y-44776190D02*
X63052942Y-44814285D01*
X63052942Y-44814285D02*
X63129133Y-44852381D01*
X63129133Y-44852381D02*
X63205323Y-44852381D01*
X63205323Y-44852381D02*
X63281514Y-44814285D01*
X63281514Y-44814285D02*
X63319609Y-44776190D01*
X63319609Y-44776190D02*
X63357704Y-44700000D01*
X63357704Y-44700000D02*
X63357704Y-44509523D01*
X63357704Y-44509523D02*
X63319609Y-44395238D01*
X62938657Y-43899999D02*
X62557704Y-43899999D01*
X63357704Y-44166666D02*
X62938657Y-43899999D01*
X62938657Y-43899999D02*
X63357704Y-43633333D01*
X62595800Y-43404762D02*
X62557704Y-43290476D01*
X62557704Y-43290476D02*
X62557704Y-43100000D01*
X62557704Y-43100000D02*
X62595800Y-43023809D01*
X62595800Y-43023809D02*
X62633895Y-42985714D01*
X62633895Y-42985714D02*
X62710085Y-42947619D01*
X62710085Y-42947619D02*
X62786276Y-42947619D01*
X62786276Y-42947619D02*
X62862466Y-42985714D01*
X62862466Y-42985714D02*
X62900561Y-43023809D01*
X62900561Y-43023809D02*
X62938657Y-43100000D01*
X62938657Y-43100000D02*
X62976752Y-43252381D01*
X62976752Y-43252381D02*
X63014847Y-43328571D01*
X63014847Y-43328571D02*
X63052942Y-43366666D01*
X63052942Y-43366666D02*
X63129133Y-43404762D01*
X63129133Y-43404762D02*
X63205323Y-43404762D01*
X63205323Y-43404762D02*
X63281514Y-43366666D01*
X63281514Y-43366666D02*
X63319609Y-43328571D01*
X63319609Y-43328571D02*
X63357704Y-43252381D01*
X63357704Y-43252381D02*
X63357704Y-43061904D01*
X63357704Y-43061904D02*
X63319609Y-42947619D01*
X63319609Y-47309523D02*
X63357704Y-47385713D01*
X63357704Y-47385713D02*
X63357704Y-47499999D01*
X63357704Y-47499999D02*
X63319609Y-47614285D01*
X63319609Y-47614285D02*
X63243419Y-47690475D01*
X63243419Y-47690475D02*
X63167228Y-47728570D01*
X63167228Y-47728570D02*
X63014847Y-47766666D01*
X63014847Y-47766666D02*
X62900561Y-47766666D01*
X62900561Y-47766666D02*
X62748180Y-47728570D01*
X62748180Y-47728570D02*
X62671990Y-47690475D01*
X62671990Y-47690475D02*
X62595800Y-47614285D01*
X62595800Y-47614285D02*
X62557704Y-47499999D01*
X62557704Y-47499999D02*
X62557704Y-47423808D01*
X62557704Y-47423808D02*
X62595800Y-47309523D01*
X62595800Y-47309523D02*
X62633895Y-47271427D01*
X62633895Y-47271427D02*
X62900561Y-47271427D01*
X62900561Y-47271427D02*
X62900561Y-47423808D01*
X62557704Y-46928570D02*
X63357704Y-46928570D01*
X63357704Y-46928570D02*
X62557704Y-46471427D01*
X62557704Y-46471427D02*
X63357704Y-46471427D01*
X62557704Y-46090475D02*
X63357704Y-46090475D01*
X63357704Y-46090475D02*
X63357704Y-45899999D01*
X63357704Y-45899999D02*
X63319609Y-45785713D01*
X63319609Y-45785713D02*
X63243419Y-45709523D01*
X63243419Y-45709523D02*
X63167228Y-45671428D01*
X63167228Y-45671428D02*
X63014847Y-45633332D01*
X63014847Y-45633332D02*
X62900561Y-45633332D01*
X62900561Y-45633332D02*
X62748180Y-45671428D01*
X62748180Y-45671428D02*
X62671990Y-45709523D01*
X62671990Y-45709523D02*
X62595800Y-45785713D01*
X62595800Y-45785713D02*
X62557704Y-45899999D01*
X62557704Y-45899999D02*
X62557704Y-46090475D01*
X65157704Y-49938094D02*
X65538657Y-50204761D01*
X65157704Y-50395237D02*
X65957704Y-50395237D01*
X65957704Y-50395237D02*
X65957704Y-50090475D01*
X65957704Y-50090475D02*
X65919609Y-50014285D01*
X65919609Y-50014285D02*
X65881514Y-49976190D01*
X65881514Y-49976190D02*
X65805323Y-49938094D01*
X65805323Y-49938094D02*
X65691038Y-49938094D01*
X65691038Y-49938094D02*
X65614847Y-49976190D01*
X65614847Y-49976190D02*
X65576752Y-50014285D01*
X65576752Y-50014285D02*
X65538657Y-50090475D01*
X65538657Y-50090475D02*
X65538657Y-50395237D01*
X65195800Y-49633333D02*
X65157704Y-49519047D01*
X65157704Y-49519047D02*
X65157704Y-49328571D01*
X65157704Y-49328571D02*
X65195800Y-49252380D01*
X65195800Y-49252380D02*
X65233895Y-49214285D01*
X65233895Y-49214285D02*
X65310085Y-49176190D01*
X65310085Y-49176190D02*
X65386276Y-49176190D01*
X65386276Y-49176190D02*
X65462466Y-49214285D01*
X65462466Y-49214285D02*
X65500561Y-49252380D01*
X65500561Y-49252380D02*
X65538657Y-49328571D01*
X65538657Y-49328571D02*
X65576752Y-49480952D01*
X65576752Y-49480952D02*
X65614847Y-49557142D01*
X65614847Y-49557142D02*
X65652942Y-49595237D01*
X65652942Y-49595237D02*
X65729133Y-49633333D01*
X65729133Y-49633333D02*
X65805323Y-49633333D01*
X65805323Y-49633333D02*
X65881514Y-49595237D01*
X65881514Y-49595237D02*
X65919609Y-49557142D01*
X65919609Y-49557142D02*
X65957704Y-49480952D01*
X65957704Y-49480952D02*
X65957704Y-49290475D01*
X65957704Y-49290475D02*
X65919609Y-49176190D01*
X65957704Y-48947618D02*
X65957704Y-48490475D01*
X65157704Y-48719047D02*
X65957704Y-48719047D01*
X65957704Y-53966666D02*
X65957704Y-53509523D01*
X65157704Y-53738095D02*
X65957704Y-53738095D01*
X65195800Y-53280952D02*
X65157704Y-53166666D01*
X65157704Y-53166666D02*
X65157704Y-52976190D01*
X65157704Y-52976190D02*
X65195800Y-52899999D01*
X65195800Y-52899999D02*
X65233895Y-52861904D01*
X65233895Y-52861904D02*
X65310085Y-52823809D01*
X65310085Y-52823809D02*
X65386276Y-52823809D01*
X65386276Y-52823809D02*
X65462466Y-52861904D01*
X65462466Y-52861904D02*
X65500561Y-52899999D01*
X65500561Y-52899999D02*
X65538657Y-52976190D01*
X65538657Y-52976190D02*
X65576752Y-53128571D01*
X65576752Y-53128571D02*
X65614847Y-53204761D01*
X65614847Y-53204761D02*
X65652942Y-53242856D01*
X65652942Y-53242856D02*
X65729133Y-53280952D01*
X65729133Y-53280952D02*
X65805323Y-53280952D01*
X65805323Y-53280952D02*
X65881514Y-53242856D01*
X65881514Y-53242856D02*
X65919609Y-53204761D01*
X65919609Y-53204761D02*
X65957704Y-53128571D01*
X65957704Y-53128571D02*
X65957704Y-52938094D01*
X65957704Y-52938094D02*
X65919609Y-52823809D01*
X65157704Y-52480951D02*
X65957704Y-52480951D01*
X65957704Y-52480951D02*
X65386276Y-52214285D01*
X65386276Y-52214285D02*
X65957704Y-51947618D01*
X65957704Y-51947618D02*
X65157704Y-51947618D01*
X65157704Y-51109522D02*
X65538657Y-51376189D01*
X65157704Y-51566665D02*
X65957704Y-51566665D01*
X65957704Y-51566665D02*
X65957704Y-51261903D01*
X65957704Y-51261903D02*
X65919609Y-51185713D01*
X65919609Y-51185713D02*
X65881514Y-51147618D01*
X65881514Y-51147618D02*
X65805323Y-51109522D01*
X65805323Y-51109522D02*
X65691038Y-51109522D01*
X65691038Y-51109522D02*
X65614847Y-51147618D01*
X65614847Y-51147618D02*
X65576752Y-51185713D01*
X65576752Y-51185713D02*
X65538657Y-51261903D01*
X65538657Y-51261903D02*
X65538657Y-51566665D01*
X65676752Y-44490476D02*
X65638657Y-44376190D01*
X65638657Y-44376190D02*
X65600561Y-44338095D01*
X65600561Y-44338095D02*
X65524371Y-44299999D01*
X65524371Y-44299999D02*
X65410085Y-44299999D01*
X65410085Y-44299999D02*
X65333895Y-44338095D01*
X65333895Y-44338095D02*
X65295800Y-44376190D01*
X65295800Y-44376190D02*
X65257704Y-44452380D01*
X65257704Y-44452380D02*
X65257704Y-44757142D01*
X65257704Y-44757142D02*
X66057704Y-44757142D01*
X66057704Y-44757142D02*
X66057704Y-44490476D01*
X66057704Y-44490476D02*
X66019609Y-44414285D01*
X66019609Y-44414285D02*
X65981514Y-44376190D01*
X65981514Y-44376190D02*
X65905323Y-44338095D01*
X65905323Y-44338095D02*
X65829133Y-44338095D01*
X65829133Y-44338095D02*
X65752942Y-44376190D01*
X65752942Y-44376190D02*
X65714847Y-44414285D01*
X65714847Y-44414285D02*
X65676752Y-44490476D01*
X65676752Y-44490476D02*
X65676752Y-44757142D01*
X65486276Y-43995238D02*
X65486276Y-43614285D01*
X65257704Y-44071428D02*
X66057704Y-43804761D01*
X66057704Y-43804761D02*
X65257704Y-43538095D01*
X66057704Y-43385714D02*
X66057704Y-42928571D01*
X65257704Y-43157143D02*
X66057704Y-43157143D01*
X66019609Y-47309523D02*
X66057704Y-47385713D01*
X66057704Y-47385713D02*
X66057704Y-47499999D01*
X66057704Y-47499999D02*
X66019609Y-47614285D01*
X66019609Y-47614285D02*
X65943419Y-47690475D01*
X65943419Y-47690475D02*
X65867228Y-47728570D01*
X65867228Y-47728570D02*
X65714847Y-47766666D01*
X65714847Y-47766666D02*
X65600561Y-47766666D01*
X65600561Y-47766666D02*
X65448180Y-47728570D01*
X65448180Y-47728570D02*
X65371990Y-47690475D01*
X65371990Y-47690475D02*
X65295800Y-47614285D01*
X65295800Y-47614285D02*
X65257704Y-47499999D01*
X65257704Y-47499999D02*
X65257704Y-47423808D01*
X65257704Y-47423808D02*
X65295800Y-47309523D01*
X65295800Y-47309523D02*
X65333895Y-47271427D01*
X65333895Y-47271427D02*
X65600561Y-47271427D01*
X65600561Y-47271427D02*
X65600561Y-47423808D01*
X65257704Y-46928570D02*
X66057704Y-46928570D01*
X66057704Y-46928570D02*
X65257704Y-46471427D01*
X65257704Y-46471427D02*
X66057704Y-46471427D01*
X65257704Y-46090475D02*
X66057704Y-46090475D01*
X66057704Y-46090475D02*
X66057704Y-45899999D01*
X66057704Y-45899999D02*
X66019609Y-45785713D01*
X66019609Y-45785713D02*
X65943419Y-45709523D01*
X65943419Y-45709523D02*
X65867228Y-45671428D01*
X65867228Y-45671428D02*
X65714847Y-45633332D01*
X65714847Y-45633332D02*
X65600561Y-45633332D01*
X65600561Y-45633332D02*
X65448180Y-45671428D01*
X65448180Y-45671428D02*
X65371990Y-45709523D01*
X65371990Y-45709523D02*
X65295800Y-45785713D01*
X65295800Y-45785713D02*
X65257704Y-45899999D01*
X65257704Y-45899999D02*
X65257704Y-46090475D01*
X74367704Y-51472856D02*
X75167704Y-51472856D01*
X74367704Y-50634761D02*
X74748657Y-50901428D01*
X74367704Y-51091904D02*
X75167704Y-51091904D01*
X75167704Y-51091904D02*
X75167704Y-50787142D01*
X75167704Y-50787142D02*
X75129609Y-50710952D01*
X75129609Y-50710952D02*
X75091514Y-50672857D01*
X75091514Y-50672857D02*
X75015323Y-50634761D01*
X75015323Y-50634761D02*
X74901038Y-50634761D01*
X74901038Y-50634761D02*
X74824847Y-50672857D01*
X74824847Y-50672857D02*
X74786752Y-50710952D01*
X74786752Y-50710952D02*
X74748657Y-50787142D01*
X74748657Y-50787142D02*
X74748657Y-51091904D01*
X75167704Y-50406190D02*
X74367704Y-50139523D01*
X74367704Y-50139523D02*
X75167704Y-49872857D01*
D12*
X70974285Y-50985238D02*
X70364762Y-50985238D01*
X69488571Y-50490000D02*
X69031428Y-50490000D01*
X69260000Y-51290000D02*
X69260000Y-50490000D01*
X68155237Y-50985238D02*
X67545714Y-50985238D01*
X67850475Y-51290000D02*
X67850475Y-50680476D01*
X69850476Y-52158907D02*
X69736190Y-52197002D01*
X69736190Y-52197002D02*
X69698095Y-52235098D01*
X69698095Y-52235098D02*
X69659999Y-52311288D01*
X69659999Y-52311288D02*
X69659999Y-52425574D01*
X69659999Y-52425574D02*
X69698095Y-52501764D01*
X69698095Y-52501764D02*
X69736190Y-52539860D01*
X69736190Y-52539860D02*
X69812380Y-52577955D01*
X69812380Y-52577955D02*
X70117142Y-52577955D01*
X70117142Y-52577955D02*
X70117142Y-51777955D01*
X70117142Y-51777955D02*
X69850476Y-51777955D01*
X69850476Y-51777955D02*
X69774285Y-51816050D01*
X69774285Y-51816050D02*
X69736190Y-51854145D01*
X69736190Y-51854145D02*
X69698095Y-51930336D01*
X69698095Y-51930336D02*
X69698095Y-52006526D01*
X69698095Y-52006526D02*
X69736190Y-52082717D01*
X69736190Y-52082717D02*
X69774285Y-52120812D01*
X69774285Y-52120812D02*
X69850476Y-52158907D01*
X69850476Y-52158907D02*
X70117142Y-52158907D01*
X69355238Y-52349383D02*
X68974285Y-52349383D01*
X69431428Y-52577955D02*
X69164761Y-51777955D01*
X69164761Y-51777955D02*
X68898095Y-52577955D01*
X68745714Y-51777955D02*
X68288571Y-51777955D01*
X68517143Y-52577955D02*
X68517143Y-51777955D01*
D13*
X26516217Y-61822857D02*
X26516217Y-62394285D01*
X26516217Y-62394285D02*
X27716217Y-62394285D01*
X26516217Y-60737142D02*
X27087645Y-61137142D01*
X26516217Y-61422856D02*
X27716217Y-61422856D01*
X27716217Y-61422856D02*
X27716217Y-60965713D01*
X27716217Y-60965713D02*
X27659074Y-60851428D01*
X27659074Y-60851428D02*
X27601931Y-60794285D01*
X27601931Y-60794285D02*
X27487645Y-60737142D01*
X27487645Y-60737142D02*
X27316217Y-60737142D01*
X27316217Y-60737142D02*
X27201931Y-60794285D01*
X27201931Y-60794285D02*
X27144788Y-60851428D01*
X27144788Y-60851428D02*
X27087645Y-60965713D01*
X27087645Y-60965713D02*
X27087645Y-61422856D01*
X26859074Y-60279999D02*
X26859074Y-59708571D01*
X26516217Y-60394285D02*
X27716217Y-59994285D01*
X27716217Y-59994285D02*
X26516217Y-59594285D01*
X27971360Y-49142856D02*
X27914217Y-48971428D01*
X27914217Y-48971428D02*
X27914217Y-48685713D01*
X27914217Y-48685713D02*
X27971360Y-48571428D01*
X27971360Y-48571428D02*
X28028502Y-48514285D01*
X28028502Y-48514285D02*
X28142788Y-48457142D01*
X28142788Y-48457142D02*
X28257074Y-48457142D01*
X28257074Y-48457142D02*
X28371360Y-48514285D01*
X28371360Y-48514285D02*
X28428502Y-48571428D01*
X28428502Y-48571428D02*
X28485645Y-48685713D01*
X28485645Y-48685713D02*
X28542788Y-48914285D01*
X28542788Y-48914285D02*
X28599931Y-49028570D01*
X28599931Y-49028570D02*
X28657074Y-49085713D01*
X28657074Y-49085713D02*
X28771360Y-49142856D01*
X28771360Y-49142856D02*
X28885645Y-49142856D01*
X28885645Y-49142856D02*
X28999931Y-49085713D01*
X28999931Y-49085713D02*
X29057074Y-49028570D01*
X29057074Y-49028570D02*
X29114217Y-48914285D01*
X29114217Y-48914285D02*
X29114217Y-48628570D01*
X29114217Y-48628570D02*
X29057074Y-48457142D01*
X27914217Y-47942856D02*
X29114217Y-47942856D01*
X29114217Y-47942856D02*
X29114217Y-47485713D01*
X29114217Y-47485713D02*
X29057074Y-47371428D01*
X29057074Y-47371428D02*
X28999931Y-47314285D01*
X28999931Y-47314285D02*
X28885645Y-47257142D01*
X28885645Y-47257142D02*
X28714217Y-47257142D01*
X28714217Y-47257142D02*
X28599931Y-47314285D01*
X28599931Y-47314285D02*
X28542788Y-47371428D01*
X28542788Y-47371428D02*
X28485645Y-47485713D01*
X28485645Y-47485713D02*
X28485645Y-47942856D01*
X27914217Y-46742856D02*
X29114217Y-46742856D01*
X27914217Y-46057142D02*
X28599931Y-46571428D01*
X29114217Y-46057142D02*
X28428502Y-46742856D01*
X41421908Y-52628571D02*
X41421908Y-53199999D01*
X41421908Y-53199999D02*
X42621908Y-53199999D01*
X41536193Y-51542856D02*
X41479051Y-51599999D01*
X41479051Y-51599999D02*
X41421908Y-51771427D01*
X41421908Y-51771427D02*
X41421908Y-51885713D01*
X41421908Y-51885713D02*
X41479051Y-52057142D01*
X41479051Y-52057142D02*
X41593336Y-52171427D01*
X41593336Y-52171427D02*
X41707622Y-52228570D01*
X41707622Y-52228570D02*
X41936193Y-52285713D01*
X41936193Y-52285713D02*
X42107622Y-52285713D01*
X42107622Y-52285713D02*
X42336193Y-52228570D01*
X42336193Y-52228570D02*
X42450479Y-52171427D01*
X42450479Y-52171427D02*
X42564765Y-52057142D01*
X42564765Y-52057142D02*
X42621908Y-51885713D01*
X42621908Y-51885713D02*
X42621908Y-51771427D01*
X42621908Y-51771427D02*
X42564765Y-51599999D01*
X42564765Y-51599999D02*
X42507622Y-51542856D01*
X41421908Y-51028570D02*
X42621908Y-51028570D01*
X42621908Y-51028570D02*
X42621908Y-50742856D01*
X42621908Y-50742856D02*
X42564765Y-50571427D01*
X42564765Y-50571427D02*
X42450479Y-50457142D01*
X42450479Y-50457142D02*
X42336193Y-50399999D01*
X42336193Y-50399999D02*
X42107622Y-50342856D01*
X42107622Y-50342856D02*
X41936193Y-50342856D01*
X41936193Y-50342856D02*
X41707622Y-50399999D01*
X41707622Y-50399999D02*
X41593336Y-50457142D01*
X41593336Y-50457142D02*
X41479051Y-50571427D01*
X41479051Y-50571427D02*
X41421908Y-50742856D01*
X41421908Y-50742856D02*
X41421908Y-51028570D01*
X61963254Y-67228921D02*
X61963254Y-66543207D01*
X60763254Y-66886064D02*
X61963254Y-66886064D01*
X61106111Y-66200349D02*
X61106111Y-65628921D01*
X60763254Y-66314635D02*
X61963254Y-65914635D01*
X61963254Y-65914635D02*
X60763254Y-65514635D01*
X61906111Y-64486064D02*
X61963254Y-64600350D01*
X61963254Y-64600350D02*
X61963254Y-64771778D01*
X61963254Y-64771778D02*
X61906111Y-64943207D01*
X61906111Y-64943207D02*
X61791825Y-65057492D01*
X61791825Y-65057492D02*
X61677539Y-65114635D01*
X61677539Y-65114635D02*
X61448968Y-65171778D01*
X61448968Y-65171778D02*
X61277539Y-65171778D01*
X61277539Y-65171778D02*
X61048968Y-65114635D01*
X61048968Y-65114635D02*
X60934682Y-65057492D01*
X60934682Y-65057492D02*
X60820397Y-64943207D01*
X60820397Y-64943207D02*
X60763254Y-64771778D01*
X60763254Y-64771778D02*
X60763254Y-64657492D01*
X60763254Y-64657492D02*
X60820397Y-64486064D01*
X60820397Y-64486064D02*
X60877539Y-64428921D01*
X60877539Y-64428921D02*
X61277539Y-64428921D01*
X61277539Y-64428921D02*
X61277539Y-64657492D01*
D14*
X47530568Y-30642662D02*
X47530568Y-31614091D01*
X47530568Y-31614091D02*
X47473425Y-31728377D01*
X47473425Y-31728377D02*
X47416283Y-31785520D01*
X47416283Y-31785520D02*
X47301997Y-31842662D01*
X47301997Y-31842662D02*
X47073425Y-31842662D01*
X47073425Y-31842662D02*
X46959140Y-31785520D01*
X46959140Y-31785520D02*
X46901997Y-31728377D01*
X46901997Y-31728377D02*
X46844854Y-31614091D01*
X46844854Y-31614091D02*
X46844854Y-30642662D01*
X46330568Y-31785520D02*
X46159140Y-31842662D01*
X46159140Y-31842662D02*
X45873425Y-31842662D01*
X45873425Y-31842662D02*
X45759140Y-31785520D01*
X45759140Y-31785520D02*
X45701997Y-31728377D01*
X45701997Y-31728377D02*
X45644854Y-31614091D01*
X45644854Y-31614091D02*
X45644854Y-31499805D01*
X45644854Y-31499805D02*
X45701997Y-31385520D01*
X45701997Y-31385520D02*
X45759140Y-31328377D01*
X45759140Y-31328377D02*
X45873425Y-31271234D01*
X45873425Y-31271234D02*
X46101997Y-31214091D01*
X46101997Y-31214091D02*
X46216282Y-31156948D01*
X46216282Y-31156948D02*
X46273425Y-31099805D01*
X46273425Y-31099805D02*
X46330568Y-30985520D01*
X46330568Y-30985520D02*
X46330568Y-30871234D01*
X46330568Y-30871234D02*
X46273425Y-30756948D01*
X46273425Y-30756948D02*
X46216282Y-30699805D01*
X46216282Y-30699805D02*
X46101997Y-30642662D01*
X46101997Y-30642662D02*
X45816282Y-30642662D01*
X45816282Y-30642662D02*
X45644854Y-30699805D01*
X44730568Y-31214091D02*
X44559140Y-31271234D01*
X44559140Y-31271234D02*
X44501997Y-31328377D01*
X44501997Y-31328377D02*
X44444854Y-31442662D01*
X44444854Y-31442662D02*
X44444854Y-31614091D01*
X44444854Y-31614091D02*
X44501997Y-31728377D01*
X44501997Y-31728377D02*
X44559140Y-31785520D01*
X44559140Y-31785520D02*
X44673425Y-31842662D01*
X44673425Y-31842662D02*
X45130568Y-31842662D01*
X45130568Y-31842662D02*
X45130568Y-30642662D01*
X45130568Y-30642662D02*
X44730568Y-30642662D01*
X44730568Y-30642662D02*
X44616283Y-30699805D01*
X44616283Y-30699805D02*
X44559140Y-30756948D01*
X44559140Y-30756948D02*
X44501997Y-30871234D01*
X44501997Y-30871234D02*
X44501997Y-30985520D01*
X44501997Y-30985520D02*
X44559140Y-31099805D01*
X44559140Y-31099805D02*
X44616283Y-31156948D01*
X44616283Y-31156948D02*
X44730568Y-31214091D01*
X44730568Y-31214091D02*
X45130568Y-31214091D01*
D15*
X54057142Y-47553923D02*
X54057142Y-46053923D01*
X54057142Y-46053923D02*
X53557142Y-47125352D01*
X53557142Y-47125352D02*
X53057142Y-46053923D01*
X53057142Y-46053923D02*
X53057142Y-47553923D01*
X52414284Y-47125352D02*
X51699999Y-47125352D01*
X52557141Y-47553923D02*
X52057141Y-46053923D01*
X52057141Y-46053923D02*
X51557141Y-47553923D01*
X50771427Y-46053923D02*
X50485713Y-46053923D01*
X50485713Y-46053923D02*
X50342856Y-46125352D01*
X50342856Y-46125352D02*
X50199999Y-46268209D01*
X50199999Y-46268209D02*
X50128570Y-46553923D01*
X50128570Y-46553923D02*
X50128570Y-47053923D01*
X50128570Y-47053923D02*
X50199999Y-47339637D01*
X50199999Y-47339637D02*
X50342856Y-47482495D01*
X50342856Y-47482495D02*
X50485713Y-47553923D01*
X50485713Y-47553923D02*
X50771427Y-47553923D01*
X50771427Y-47553923D02*
X50914285Y-47482495D01*
X50914285Y-47482495D02*
X51057142Y-47339637D01*
X51057142Y-47339637D02*
X51128570Y-47053923D01*
X51128570Y-47053923D02*
X51128570Y-46553923D01*
X51128570Y-46553923D02*
X51057142Y-46268209D01*
X51057142Y-46268209D02*
X50914285Y-46125352D01*
X50914285Y-46125352D02*
X50771427Y-46053923D01*
X48414284Y-47125352D02*
X47699999Y-47125352D01*
X48557141Y-47553923D02*
X48057141Y-46053923D01*
X48057141Y-46053923D02*
X47557141Y-47553923D01*
X46271427Y-47553923D02*
X47128570Y-47553923D01*
X46699999Y-47553923D02*
X46699999Y-46053923D01*
X46699999Y-46053923D02*
X46842856Y-46268209D01*
X46842856Y-46268209D02*
X46985713Y-46411066D01*
X46985713Y-46411066D02*
X47128570Y-46482495D01*
D11*
X44080000Y-25619524D02*
X43508572Y-25619524D01*
X43508572Y-25619524D02*
X43394286Y-25657619D01*
X43394286Y-25657619D02*
X43318096Y-25733810D01*
X43318096Y-25733810D02*
X43280000Y-25848095D01*
X43280000Y-25848095D02*
X43280000Y-25924286D01*
X43280000Y-24819524D02*
X43280000Y-25276667D01*
X43280000Y-25048095D02*
X44080000Y-25048095D01*
X44080000Y-25048095D02*
X43965715Y-25124286D01*
X43965715Y-25124286D02*
X43889524Y-25200476D01*
X43889524Y-25200476D02*
X43851429Y-25276667D01*
X44080000Y-24324285D02*
X44080000Y-24248095D01*
X44080000Y-24248095D02*
X44041905Y-24171904D01*
X44041905Y-24171904D02*
X44003810Y-24133809D01*
X44003810Y-24133809D02*
X43927619Y-24095714D01*
X43927619Y-24095714D02*
X43775238Y-24057619D01*
X43775238Y-24057619D02*
X43584762Y-24057619D01*
X43584762Y-24057619D02*
X43432381Y-24095714D01*
X43432381Y-24095714D02*
X43356191Y-24133809D01*
X43356191Y-24133809D02*
X43318096Y-24171904D01*
X43318096Y-24171904D02*
X43280000Y-24248095D01*
X43280000Y-24248095D02*
X43280000Y-24324285D01*
X43280000Y-24324285D02*
X43318096Y-24400476D01*
X43318096Y-24400476D02*
X43356191Y-24438571D01*
X43356191Y-24438571D02*
X43432381Y-24476666D01*
X43432381Y-24476666D02*
X43584762Y-24514762D01*
X43584762Y-24514762D02*
X43775238Y-24514762D01*
X43775238Y-24514762D02*
X43927619Y-24476666D01*
X43927619Y-24476666D02*
X44003810Y-24438571D01*
X44003810Y-24438571D02*
X44041905Y-24400476D01*
X44041905Y-24400476D02*
X44080000Y-24324285D01*
X43280000Y-23295714D02*
X43280000Y-23752857D01*
X43280000Y-23524285D02*
X44080000Y-23524285D01*
X44080000Y-23524285D02*
X43965715Y-23600476D01*
X43965715Y-23600476D02*
X43889524Y-23676666D01*
X43889524Y-23676666D02*
X43851429Y-23752857D01*
X39215000Y-58723810D02*
X38643572Y-58723810D01*
X38643572Y-58723810D02*
X38529286Y-58761905D01*
X38529286Y-58761905D02*
X38453096Y-58838096D01*
X38453096Y-58838096D02*
X38415000Y-58952381D01*
X38415000Y-58952381D02*
X38415000Y-59028572D01*
X39215000Y-58419048D02*
X39215000Y-57923810D01*
X39215000Y-57923810D02*
X38910238Y-58190476D01*
X38910238Y-58190476D02*
X38910238Y-58076191D01*
X38910238Y-58076191D02*
X38872143Y-58000000D01*
X38872143Y-58000000D02*
X38834048Y-57961905D01*
X38834048Y-57961905D02*
X38757857Y-57923810D01*
X38757857Y-57923810D02*
X38567381Y-57923810D01*
X38567381Y-57923810D02*
X38491191Y-57961905D01*
X38491191Y-57961905D02*
X38453096Y-58000000D01*
X38453096Y-58000000D02*
X38415000Y-58076191D01*
X38415000Y-58076191D02*
X38415000Y-58304762D01*
X38415000Y-58304762D02*
X38453096Y-58380953D01*
X38453096Y-58380953D02*
X38491191Y-58419048D01*
X39215000Y-57428571D02*
X39215000Y-57352381D01*
X39215000Y-57352381D02*
X39176905Y-57276190D01*
X39176905Y-57276190D02*
X39138810Y-57238095D01*
X39138810Y-57238095D02*
X39062619Y-57200000D01*
X39062619Y-57200000D02*
X38910238Y-57161905D01*
X38910238Y-57161905D02*
X38719762Y-57161905D01*
X38719762Y-57161905D02*
X38567381Y-57200000D01*
X38567381Y-57200000D02*
X38491191Y-57238095D01*
X38491191Y-57238095D02*
X38453096Y-57276190D01*
X38453096Y-57276190D02*
X38415000Y-57352381D01*
X38415000Y-57352381D02*
X38415000Y-57428571D01*
X38415000Y-57428571D02*
X38453096Y-57504762D01*
X38453096Y-57504762D02*
X38491191Y-57542857D01*
X38491191Y-57542857D02*
X38567381Y-57580952D01*
X38567381Y-57580952D02*
X38719762Y-57619048D01*
X38719762Y-57619048D02*
X38910238Y-57619048D01*
X38910238Y-57619048D02*
X39062619Y-57580952D01*
X39062619Y-57580952D02*
X39138810Y-57542857D01*
X39138810Y-57542857D02*
X39176905Y-57504762D01*
X39176905Y-57504762D02*
X39215000Y-57428571D01*
X38415000Y-56400000D02*
X38415000Y-56857143D01*
X38415000Y-56628571D02*
X39215000Y-56628571D01*
X39215000Y-56628571D02*
X39100715Y-56704762D01*
X39100715Y-56704762D02*
X39024524Y-56780952D01*
X39024524Y-56780952D02*
X38986429Y-56857143D01*
X62188095Y-33206190D02*
X62264285Y-33168095D01*
X62264285Y-33168095D02*
X62340476Y-33091905D01*
X62340476Y-33091905D02*
X62454762Y-32977619D01*
X62454762Y-32977619D02*
X62530952Y-32939524D01*
X62530952Y-32939524D02*
X62607143Y-32939524D01*
X62569047Y-33130000D02*
X62645238Y-33091905D01*
X62645238Y-33091905D02*
X62721428Y-33015714D01*
X62721428Y-33015714D02*
X62759524Y-32863333D01*
X62759524Y-32863333D02*
X62759524Y-32596666D01*
X62759524Y-32596666D02*
X62721428Y-32444285D01*
X62721428Y-32444285D02*
X62645238Y-32368095D01*
X62645238Y-32368095D02*
X62569047Y-32330000D01*
X62569047Y-32330000D02*
X62416666Y-32330000D01*
X62416666Y-32330000D02*
X62340476Y-32368095D01*
X62340476Y-32368095D02*
X62264285Y-32444285D01*
X62264285Y-32444285D02*
X62226190Y-32596666D01*
X62226190Y-32596666D02*
X62226190Y-32863333D01*
X62226190Y-32863333D02*
X62264285Y-33015714D01*
X62264285Y-33015714D02*
X62340476Y-33091905D01*
X62340476Y-33091905D02*
X62416666Y-33130000D01*
X62416666Y-33130000D02*
X62569047Y-33130000D01*
X61502381Y-32330000D02*
X61883333Y-32330000D01*
X61883333Y-32330000D02*
X61921429Y-32710952D01*
X61921429Y-32710952D02*
X61883333Y-32672857D01*
X61883333Y-32672857D02*
X61807143Y-32634762D01*
X61807143Y-32634762D02*
X61616667Y-32634762D01*
X61616667Y-32634762D02*
X61540476Y-32672857D01*
X61540476Y-32672857D02*
X61502381Y-32710952D01*
X61502381Y-32710952D02*
X61464286Y-32787143D01*
X61464286Y-32787143D02*
X61464286Y-32977619D01*
X61464286Y-32977619D02*
X61502381Y-33053809D01*
X61502381Y-33053809D02*
X61540476Y-33091905D01*
X61540476Y-33091905D02*
X61616667Y-33130000D01*
X61616667Y-33130000D02*
X61807143Y-33130000D01*
X61807143Y-33130000D02*
X61883333Y-33091905D01*
X61883333Y-33091905D02*
X61921429Y-33053809D01*
X60969047Y-32330000D02*
X60892857Y-32330000D01*
X60892857Y-32330000D02*
X60816666Y-32368095D01*
X60816666Y-32368095D02*
X60778571Y-32406190D01*
X60778571Y-32406190D02*
X60740476Y-32482381D01*
X60740476Y-32482381D02*
X60702381Y-32634762D01*
X60702381Y-32634762D02*
X60702381Y-32825238D01*
X60702381Y-32825238D02*
X60740476Y-32977619D01*
X60740476Y-32977619D02*
X60778571Y-33053809D01*
X60778571Y-33053809D02*
X60816666Y-33091905D01*
X60816666Y-33091905D02*
X60892857Y-33130000D01*
X60892857Y-33130000D02*
X60969047Y-33130000D01*
X60969047Y-33130000D02*
X61045238Y-33091905D01*
X61045238Y-33091905D02*
X61083333Y-33053809D01*
X61083333Y-33053809D02*
X61121428Y-32977619D01*
X61121428Y-32977619D02*
X61159524Y-32825238D01*
X61159524Y-32825238D02*
X61159524Y-32634762D01*
X61159524Y-32634762D02*
X61121428Y-32482381D01*
X61121428Y-32482381D02*
X61083333Y-32406190D01*
X61083333Y-32406190D02*
X61045238Y-32368095D01*
X61045238Y-32368095D02*
X60969047Y-32330000D01*
X59940476Y-33130000D02*
X60397619Y-33130000D01*
X60169047Y-33130000D02*
X60169047Y-32330000D01*
X60169047Y-32330000D02*
X60245238Y-32444285D01*
X60245238Y-32444285D02*
X60321428Y-32520476D01*
X60321428Y-32520476D02*
X60397619Y-32558571D01*
X65409524Y-70700000D02*
X65409524Y-71271428D01*
X65409524Y-71271428D02*
X65447619Y-71385714D01*
X65447619Y-71385714D02*
X65523810Y-71461905D01*
X65523810Y-71461905D02*
X65638095Y-71500000D01*
X65638095Y-71500000D02*
X65714286Y-71500000D01*
X65066667Y-70776190D02*
X65028571Y-70738095D01*
X65028571Y-70738095D02*
X64952381Y-70700000D01*
X64952381Y-70700000D02*
X64761905Y-70700000D01*
X64761905Y-70700000D02*
X64685714Y-70738095D01*
X64685714Y-70738095D02*
X64647619Y-70776190D01*
X64647619Y-70776190D02*
X64609524Y-70852381D01*
X64609524Y-70852381D02*
X64609524Y-70928571D01*
X64609524Y-70928571D02*
X64647619Y-71042857D01*
X64647619Y-71042857D02*
X65104762Y-71500000D01*
X65104762Y-71500000D02*
X64609524Y-71500000D01*
X64114285Y-70700000D02*
X64038095Y-70700000D01*
X64038095Y-70700000D02*
X63961904Y-70738095D01*
X63961904Y-70738095D02*
X63923809Y-70776190D01*
X63923809Y-70776190D02*
X63885714Y-70852381D01*
X63885714Y-70852381D02*
X63847619Y-71004762D01*
X63847619Y-71004762D02*
X63847619Y-71195238D01*
X63847619Y-71195238D02*
X63885714Y-71347619D01*
X63885714Y-71347619D02*
X63923809Y-71423809D01*
X63923809Y-71423809D02*
X63961904Y-71461905D01*
X63961904Y-71461905D02*
X64038095Y-71500000D01*
X64038095Y-71500000D02*
X64114285Y-71500000D01*
X64114285Y-71500000D02*
X64190476Y-71461905D01*
X64190476Y-71461905D02*
X64228571Y-71423809D01*
X64228571Y-71423809D02*
X64266666Y-71347619D01*
X64266666Y-71347619D02*
X64304762Y-71195238D01*
X64304762Y-71195238D02*
X64304762Y-71004762D01*
X64304762Y-71004762D02*
X64266666Y-70852381D01*
X64266666Y-70852381D02*
X64228571Y-70776190D01*
X64228571Y-70776190D02*
X64190476Y-70738095D01*
X64190476Y-70738095D02*
X64114285Y-70700000D01*
X63085714Y-71500000D02*
X63542857Y-71500000D01*
X63314285Y-71500000D02*
X63314285Y-70700000D01*
X63314285Y-70700000D02*
X63390476Y-70814285D01*
X63390476Y-70814285D02*
X63466666Y-70890476D01*
X63466666Y-70890476D02*
X63542857Y-70928571D01*
X50225000Y-40664286D02*
X50225000Y-41045238D01*
X50225000Y-41045238D02*
X51025000Y-41045238D01*
X50225000Y-39978572D02*
X50225000Y-40435715D01*
X50225000Y-40207143D02*
X51025000Y-40207143D01*
X51025000Y-40207143D02*
X50910715Y-40283334D01*
X50910715Y-40283334D02*
X50834524Y-40359524D01*
X50834524Y-40359524D02*
X50796429Y-40435715D01*
X51025000Y-39483333D02*
X51025000Y-39407143D01*
X51025000Y-39407143D02*
X50986905Y-39330952D01*
X50986905Y-39330952D02*
X50948810Y-39292857D01*
X50948810Y-39292857D02*
X50872619Y-39254762D01*
X50872619Y-39254762D02*
X50720238Y-39216667D01*
X50720238Y-39216667D02*
X50529762Y-39216667D01*
X50529762Y-39216667D02*
X50377381Y-39254762D01*
X50377381Y-39254762D02*
X50301191Y-39292857D01*
X50301191Y-39292857D02*
X50263096Y-39330952D01*
X50263096Y-39330952D02*
X50225000Y-39407143D01*
X50225000Y-39407143D02*
X50225000Y-39483333D01*
X50225000Y-39483333D02*
X50263096Y-39559524D01*
X50263096Y-39559524D02*
X50301191Y-39597619D01*
X50301191Y-39597619D02*
X50377381Y-39635714D01*
X50377381Y-39635714D02*
X50529762Y-39673810D01*
X50529762Y-39673810D02*
X50720238Y-39673810D01*
X50720238Y-39673810D02*
X50872619Y-39635714D01*
X50872619Y-39635714D02*
X50948810Y-39597619D01*
X50948810Y-39597619D02*
X50986905Y-39559524D01*
X50986905Y-39559524D02*
X51025000Y-39483333D01*
X50225000Y-38454762D02*
X50225000Y-38911905D01*
X50225000Y-38683333D02*
X51025000Y-38683333D01*
X51025000Y-38683333D02*
X50910715Y-38759524D01*
X50910715Y-38759524D02*
X50834524Y-38835714D01*
X50834524Y-38835714D02*
X50796429Y-38911905D01*
X40797571Y-28890249D02*
X41597571Y-28890249D01*
X41597571Y-28890249D02*
X41597571Y-28699773D01*
X41597571Y-28699773D02*
X41559476Y-28585487D01*
X41559476Y-28585487D02*
X41483286Y-28509297D01*
X41483286Y-28509297D02*
X41407095Y-28471202D01*
X41407095Y-28471202D02*
X41254714Y-28433106D01*
X41254714Y-28433106D02*
X41140428Y-28433106D01*
X41140428Y-28433106D02*
X40988047Y-28471202D01*
X40988047Y-28471202D02*
X40911857Y-28509297D01*
X40911857Y-28509297D02*
X40835667Y-28585487D01*
X40835667Y-28585487D02*
X40797571Y-28699773D01*
X40797571Y-28699773D02*
X40797571Y-28890249D01*
X41597571Y-27709297D02*
X41597571Y-28090249D01*
X41597571Y-28090249D02*
X41216619Y-28128345D01*
X41216619Y-28128345D02*
X41254714Y-28090249D01*
X41254714Y-28090249D02*
X41292809Y-28014059D01*
X41292809Y-28014059D02*
X41292809Y-27823583D01*
X41292809Y-27823583D02*
X41254714Y-27747392D01*
X41254714Y-27747392D02*
X41216619Y-27709297D01*
X41216619Y-27709297D02*
X41140428Y-27671202D01*
X41140428Y-27671202D02*
X40949952Y-27671202D01*
X40949952Y-27671202D02*
X40873762Y-27709297D01*
X40873762Y-27709297D02*
X40835667Y-27747392D01*
X40835667Y-27747392D02*
X40797571Y-27823583D01*
X40797571Y-27823583D02*
X40797571Y-28014059D01*
X40797571Y-28014059D02*
X40835667Y-28090249D01*
X40835667Y-28090249D02*
X40873762Y-28128345D01*
X41597571Y-27175963D02*
X41597571Y-27099773D01*
X41597571Y-27099773D02*
X41559476Y-27023582D01*
X41559476Y-27023582D02*
X41521381Y-26985487D01*
X41521381Y-26985487D02*
X41445190Y-26947392D01*
X41445190Y-26947392D02*
X41292809Y-26909297D01*
X41292809Y-26909297D02*
X41102333Y-26909297D01*
X41102333Y-26909297D02*
X40949952Y-26947392D01*
X40949952Y-26947392D02*
X40873762Y-26985487D01*
X40873762Y-26985487D02*
X40835667Y-27023582D01*
X40835667Y-27023582D02*
X40797571Y-27099773D01*
X40797571Y-27099773D02*
X40797571Y-27175963D01*
X40797571Y-27175963D02*
X40835667Y-27252154D01*
X40835667Y-27252154D02*
X40873762Y-27290249D01*
X40873762Y-27290249D02*
X40949952Y-27328344D01*
X40949952Y-27328344D02*
X41102333Y-27366440D01*
X41102333Y-27366440D02*
X41292809Y-27366440D01*
X41292809Y-27366440D02*
X41445190Y-27328344D01*
X41445190Y-27328344D02*
X41521381Y-27290249D01*
X41521381Y-27290249D02*
X41559476Y-27252154D01*
X41559476Y-27252154D02*
X41597571Y-27175963D01*
X40797571Y-26147392D02*
X40797571Y-26604535D01*
X40797571Y-26375963D02*
X41597571Y-26375963D01*
X41597571Y-26375963D02*
X41483286Y-26452154D01*
X41483286Y-26452154D02*
X41407095Y-26528344D01*
X41407095Y-26528344D02*
X41369000Y-26604535D01*
X49840000Y-32621428D02*
X50640000Y-32621428D01*
X50640000Y-32621428D02*
X50640000Y-32430952D01*
X50640000Y-32430952D02*
X50601905Y-32316666D01*
X50601905Y-32316666D02*
X50525715Y-32240476D01*
X50525715Y-32240476D02*
X50449524Y-32202381D01*
X50449524Y-32202381D02*
X50297143Y-32164285D01*
X50297143Y-32164285D02*
X50182857Y-32164285D01*
X50182857Y-32164285D02*
X50030476Y-32202381D01*
X50030476Y-32202381D02*
X49954286Y-32240476D01*
X49954286Y-32240476D02*
X49878096Y-32316666D01*
X49878096Y-32316666D02*
X49840000Y-32430952D01*
X49840000Y-32430952D02*
X49840000Y-32621428D01*
X49840000Y-31402381D02*
X49840000Y-31859524D01*
X49840000Y-31630952D02*
X50640000Y-31630952D01*
X50640000Y-31630952D02*
X50525715Y-31707143D01*
X50525715Y-31707143D02*
X50449524Y-31783333D01*
X50449524Y-31783333D02*
X50411429Y-31859524D01*
X50640000Y-30907142D02*
X50640000Y-30830952D01*
X50640000Y-30830952D02*
X50601905Y-30754761D01*
X50601905Y-30754761D02*
X50563810Y-30716666D01*
X50563810Y-30716666D02*
X50487619Y-30678571D01*
X50487619Y-30678571D02*
X50335238Y-30640476D01*
X50335238Y-30640476D02*
X50144762Y-30640476D01*
X50144762Y-30640476D02*
X49992381Y-30678571D01*
X49992381Y-30678571D02*
X49916191Y-30716666D01*
X49916191Y-30716666D02*
X49878096Y-30754761D01*
X49878096Y-30754761D02*
X49840000Y-30830952D01*
X49840000Y-30830952D02*
X49840000Y-30907142D01*
X49840000Y-30907142D02*
X49878096Y-30983333D01*
X49878096Y-30983333D02*
X49916191Y-31021428D01*
X49916191Y-31021428D02*
X49992381Y-31059523D01*
X49992381Y-31059523D02*
X50144762Y-31097619D01*
X50144762Y-31097619D02*
X50335238Y-31097619D01*
X50335238Y-31097619D02*
X50487619Y-31059523D01*
X50487619Y-31059523D02*
X50563810Y-31021428D01*
X50563810Y-31021428D02*
X50601905Y-30983333D01*
X50601905Y-30983333D02*
X50640000Y-30907142D01*
X49840000Y-29878571D02*
X49840000Y-30335714D01*
X49840000Y-30107142D02*
X50640000Y-30107142D01*
X50640000Y-30107142D02*
X50525715Y-30183333D01*
X50525715Y-30183333D02*
X50449524Y-30259523D01*
X50449524Y-30259523D02*
X50411429Y-30335714D01*
X61720000Y-39655476D02*
X61072381Y-39655476D01*
X61072381Y-39655476D02*
X60996191Y-39617381D01*
X60996191Y-39617381D02*
X60958096Y-39579286D01*
X60958096Y-39579286D02*
X60920000Y-39503095D01*
X60920000Y-39503095D02*
X60920000Y-39350714D01*
X60920000Y-39350714D02*
X60958096Y-39274524D01*
X60958096Y-39274524D02*
X60996191Y-39236429D01*
X60996191Y-39236429D02*
X61072381Y-39198333D01*
X61072381Y-39198333D02*
X61720000Y-39198333D01*
X60920000Y-38398334D02*
X60920000Y-38855477D01*
X60920000Y-38626905D02*
X61720000Y-38626905D01*
X61720000Y-38626905D02*
X61605715Y-38703096D01*
X61605715Y-38703096D02*
X61529524Y-38779286D01*
X61529524Y-38779286D02*
X61491429Y-38855477D01*
X61720000Y-37903095D02*
X61720000Y-37826905D01*
X61720000Y-37826905D02*
X61681905Y-37750714D01*
X61681905Y-37750714D02*
X61643810Y-37712619D01*
X61643810Y-37712619D02*
X61567619Y-37674524D01*
X61567619Y-37674524D02*
X61415238Y-37636429D01*
X61415238Y-37636429D02*
X61224762Y-37636429D01*
X61224762Y-37636429D02*
X61072381Y-37674524D01*
X61072381Y-37674524D02*
X60996191Y-37712619D01*
X60996191Y-37712619D02*
X60958096Y-37750714D01*
X60958096Y-37750714D02*
X60920000Y-37826905D01*
X60920000Y-37826905D02*
X60920000Y-37903095D01*
X60920000Y-37903095D02*
X60958096Y-37979286D01*
X60958096Y-37979286D02*
X60996191Y-38017381D01*
X60996191Y-38017381D02*
X61072381Y-38055476D01*
X61072381Y-38055476D02*
X61224762Y-38093572D01*
X61224762Y-38093572D02*
X61415238Y-38093572D01*
X61415238Y-38093572D02*
X61567619Y-38055476D01*
X61567619Y-38055476D02*
X61643810Y-38017381D01*
X61643810Y-38017381D02*
X61681905Y-37979286D01*
X61681905Y-37979286D02*
X61720000Y-37903095D01*
X61720000Y-37369762D02*
X61720000Y-36874524D01*
X61720000Y-36874524D02*
X61415238Y-37141190D01*
X61415238Y-37141190D02*
X61415238Y-37026905D01*
X61415238Y-37026905D02*
X61377143Y-36950714D01*
X61377143Y-36950714D02*
X61339048Y-36912619D01*
X61339048Y-36912619D02*
X61262857Y-36874524D01*
X61262857Y-36874524D02*
X61072381Y-36874524D01*
X61072381Y-36874524D02*
X60996191Y-36912619D01*
X60996191Y-36912619D02*
X60958096Y-36950714D01*
X60958096Y-36950714D02*
X60920000Y-37026905D01*
X60920000Y-37026905D02*
X60920000Y-37255476D01*
X60920000Y-37255476D02*
X60958096Y-37331667D01*
X60958096Y-37331667D02*
X60996191Y-37369762D01*
X39961904Y-41904524D02*
X39314285Y-41904524D01*
X39314285Y-41904524D02*
X39238095Y-41866429D01*
X39238095Y-41866429D02*
X39200000Y-41828334D01*
X39200000Y-41828334D02*
X39161904Y-41752143D01*
X39161904Y-41752143D02*
X39161904Y-41599762D01*
X39161904Y-41599762D02*
X39200000Y-41523572D01*
X39200000Y-41523572D02*
X39238095Y-41485477D01*
X39238095Y-41485477D02*
X39314285Y-41447381D01*
X39314285Y-41447381D02*
X39961904Y-41447381D01*
X39961904Y-41142620D02*
X39961904Y-40647382D01*
X39961904Y-40647382D02*
X39657142Y-40914048D01*
X39657142Y-40914048D02*
X39657142Y-40799763D01*
X39657142Y-40799763D02*
X39619047Y-40723572D01*
X39619047Y-40723572D02*
X39580952Y-40685477D01*
X39580952Y-40685477D02*
X39504761Y-40647382D01*
X39504761Y-40647382D02*
X39314285Y-40647382D01*
X39314285Y-40647382D02*
X39238095Y-40685477D01*
X39238095Y-40685477D02*
X39200000Y-40723572D01*
X39200000Y-40723572D02*
X39161904Y-40799763D01*
X39161904Y-40799763D02*
X39161904Y-41028334D01*
X39161904Y-41028334D02*
X39200000Y-41104525D01*
X39200000Y-41104525D02*
X39238095Y-41142620D01*
X39961904Y-40152143D02*
X39961904Y-40075953D01*
X39961904Y-40075953D02*
X39923809Y-39999762D01*
X39923809Y-39999762D02*
X39885714Y-39961667D01*
X39885714Y-39961667D02*
X39809523Y-39923572D01*
X39809523Y-39923572D02*
X39657142Y-39885477D01*
X39657142Y-39885477D02*
X39466666Y-39885477D01*
X39466666Y-39885477D02*
X39314285Y-39923572D01*
X39314285Y-39923572D02*
X39238095Y-39961667D01*
X39238095Y-39961667D02*
X39200000Y-39999762D01*
X39200000Y-39999762D02*
X39161904Y-40075953D01*
X39161904Y-40075953D02*
X39161904Y-40152143D01*
X39161904Y-40152143D02*
X39200000Y-40228334D01*
X39200000Y-40228334D02*
X39238095Y-40266429D01*
X39238095Y-40266429D02*
X39314285Y-40304524D01*
X39314285Y-40304524D02*
X39466666Y-40342620D01*
X39466666Y-40342620D02*
X39657142Y-40342620D01*
X39657142Y-40342620D02*
X39809523Y-40304524D01*
X39809523Y-40304524D02*
X39885714Y-40266429D01*
X39885714Y-40266429D02*
X39923809Y-40228334D01*
X39923809Y-40228334D02*
X39961904Y-40152143D01*
X39695238Y-39199762D02*
X39161904Y-39199762D01*
X40000000Y-39390238D02*
X39428571Y-39580715D01*
X39428571Y-39580715D02*
X39428571Y-39085476D01*
X28562000Y-66653810D02*
X27990572Y-66653810D01*
X27990572Y-66653810D02*
X27876286Y-66691905D01*
X27876286Y-66691905D02*
X27800096Y-66768096D01*
X27800096Y-66768096D02*
X27762000Y-66882381D01*
X27762000Y-66882381D02*
X27762000Y-66958572D01*
X28562000Y-65891905D02*
X28562000Y-66272857D01*
X28562000Y-66272857D02*
X28181048Y-66310953D01*
X28181048Y-66310953D02*
X28219143Y-66272857D01*
X28219143Y-66272857D02*
X28257238Y-66196667D01*
X28257238Y-66196667D02*
X28257238Y-66006191D01*
X28257238Y-66006191D02*
X28219143Y-65930000D01*
X28219143Y-65930000D02*
X28181048Y-65891905D01*
X28181048Y-65891905D02*
X28104857Y-65853810D01*
X28104857Y-65853810D02*
X27914381Y-65853810D01*
X27914381Y-65853810D02*
X27838191Y-65891905D01*
X27838191Y-65891905D02*
X27800096Y-65930000D01*
X27800096Y-65930000D02*
X27762000Y-66006191D01*
X27762000Y-66006191D02*
X27762000Y-66196667D01*
X27762000Y-66196667D02*
X27800096Y-66272857D01*
X27800096Y-66272857D02*
X27838191Y-66310953D01*
X28562000Y-65358571D02*
X28562000Y-65282381D01*
X28562000Y-65282381D02*
X28523905Y-65206190D01*
X28523905Y-65206190D02*
X28485810Y-65168095D01*
X28485810Y-65168095D02*
X28409619Y-65130000D01*
X28409619Y-65130000D02*
X28257238Y-65091905D01*
X28257238Y-65091905D02*
X28066762Y-65091905D01*
X28066762Y-65091905D02*
X27914381Y-65130000D01*
X27914381Y-65130000D02*
X27838191Y-65168095D01*
X27838191Y-65168095D02*
X27800096Y-65206190D01*
X27800096Y-65206190D02*
X27762000Y-65282381D01*
X27762000Y-65282381D02*
X27762000Y-65358571D01*
X27762000Y-65358571D02*
X27800096Y-65434762D01*
X27800096Y-65434762D02*
X27838191Y-65472857D01*
X27838191Y-65472857D02*
X27914381Y-65510952D01*
X27914381Y-65510952D02*
X28066762Y-65549048D01*
X28066762Y-65549048D02*
X28257238Y-65549048D01*
X28257238Y-65549048D02*
X28409619Y-65510952D01*
X28409619Y-65510952D02*
X28485810Y-65472857D01*
X28485810Y-65472857D02*
X28523905Y-65434762D01*
X28523905Y-65434762D02*
X28562000Y-65358571D01*
X27762000Y-64330000D02*
X27762000Y-64787143D01*
X27762000Y-64558571D02*
X28562000Y-64558571D01*
X28562000Y-64558571D02*
X28447715Y-64634762D01*
X28447715Y-64634762D02*
X28371524Y-64710952D01*
X28371524Y-64710952D02*
X28333429Y-64787143D01*
X59633334Y-52568095D02*
X59900001Y-52187142D01*
X60090477Y-52568095D02*
X60090477Y-51768095D01*
X60090477Y-51768095D02*
X59785715Y-51768095D01*
X59785715Y-51768095D02*
X59709525Y-51806190D01*
X59709525Y-51806190D02*
X59671430Y-51844285D01*
X59671430Y-51844285D02*
X59633334Y-51920476D01*
X59633334Y-51920476D02*
X59633334Y-52034761D01*
X59633334Y-52034761D02*
X59671430Y-52110952D01*
X59671430Y-52110952D02*
X59709525Y-52149047D01*
X59709525Y-52149047D02*
X59785715Y-52187142D01*
X59785715Y-52187142D02*
X60090477Y-52187142D01*
X59328573Y-51844285D02*
X59290477Y-51806190D01*
X59290477Y-51806190D02*
X59214287Y-51768095D01*
X59214287Y-51768095D02*
X59023811Y-51768095D01*
X59023811Y-51768095D02*
X58947620Y-51806190D01*
X58947620Y-51806190D02*
X58909525Y-51844285D01*
X58909525Y-51844285D02*
X58871430Y-51920476D01*
X58871430Y-51920476D02*
X58871430Y-51996666D01*
X58871430Y-51996666D02*
X58909525Y-52110952D01*
X58909525Y-52110952D02*
X59366668Y-52568095D01*
X59366668Y-52568095D02*
X58871430Y-52568095D01*
X58109525Y-52568095D02*
X58566668Y-52568095D01*
X58338096Y-52568095D02*
X58338096Y-51768095D01*
X58338096Y-51768095D02*
X58414287Y-51882380D01*
X58414287Y-51882380D02*
X58490477Y-51958571D01*
X58490477Y-51958571D02*
X58566668Y-51996666D01*
X57423810Y-52034761D02*
X57423810Y-52568095D01*
X57614286Y-51730000D02*
X57804763Y-52301428D01*
X57804763Y-52301428D02*
X57309524Y-52301428D01*
X65923858Y-27447392D02*
X65923858Y-26647392D01*
X65923858Y-26647392D02*
X65733382Y-26647392D01*
X65733382Y-26647392D02*
X65619096Y-26685487D01*
X65619096Y-26685487D02*
X65542906Y-26761677D01*
X65542906Y-26761677D02*
X65504811Y-26837868D01*
X65504811Y-26837868D02*
X65466715Y-26990249D01*
X65466715Y-26990249D02*
X65466715Y-27104535D01*
X65466715Y-27104535D02*
X65504811Y-27256916D01*
X65504811Y-27256916D02*
X65542906Y-27333106D01*
X65542906Y-27333106D02*
X65619096Y-27409297D01*
X65619096Y-27409297D02*
X65733382Y-27447392D01*
X65733382Y-27447392D02*
X65923858Y-27447392D01*
X64742906Y-26647392D02*
X65123858Y-26647392D01*
X65123858Y-26647392D02*
X65161954Y-27028344D01*
X65161954Y-27028344D02*
X65123858Y-26990249D01*
X65123858Y-26990249D02*
X65047668Y-26952154D01*
X65047668Y-26952154D02*
X64857192Y-26952154D01*
X64857192Y-26952154D02*
X64781001Y-26990249D01*
X64781001Y-26990249D02*
X64742906Y-27028344D01*
X64742906Y-27028344D02*
X64704811Y-27104535D01*
X64704811Y-27104535D02*
X64704811Y-27295011D01*
X64704811Y-27295011D02*
X64742906Y-27371201D01*
X64742906Y-27371201D02*
X64781001Y-27409297D01*
X64781001Y-27409297D02*
X64857192Y-27447392D01*
X64857192Y-27447392D02*
X65047668Y-27447392D01*
X65047668Y-27447392D02*
X65123858Y-27409297D01*
X65123858Y-27409297D02*
X65161954Y-27371201D01*
X64209572Y-26647392D02*
X64133382Y-26647392D01*
X64133382Y-26647392D02*
X64057191Y-26685487D01*
X64057191Y-26685487D02*
X64019096Y-26723582D01*
X64019096Y-26723582D02*
X63981001Y-26799773D01*
X63981001Y-26799773D02*
X63942906Y-26952154D01*
X63942906Y-26952154D02*
X63942906Y-27142630D01*
X63942906Y-27142630D02*
X63981001Y-27295011D01*
X63981001Y-27295011D02*
X64019096Y-27371201D01*
X64019096Y-27371201D02*
X64057191Y-27409297D01*
X64057191Y-27409297D02*
X64133382Y-27447392D01*
X64133382Y-27447392D02*
X64209572Y-27447392D01*
X64209572Y-27447392D02*
X64285763Y-27409297D01*
X64285763Y-27409297D02*
X64323858Y-27371201D01*
X64323858Y-27371201D02*
X64361953Y-27295011D01*
X64361953Y-27295011D02*
X64400049Y-27142630D01*
X64400049Y-27142630D02*
X64400049Y-26952154D01*
X64400049Y-26952154D02*
X64361953Y-26799773D01*
X64361953Y-26799773D02*
X64323858Y-26723582D01*
X64323858Y-26723582D02*
X64285763Y-26685487D01*
X64285763Y-26685487D02*
X64209572Y-26647392D01*
X63638144Y-26723582D02*
X63600048Y-26685487D01*
X63600048Y-26685487D02*
X63523858Y-26647392D01*
X63523858Y-26647392D02*
X63333382Y-26647392D01*
X63333382Y-26647392D02*
X63257191Y-26685487D01*
X63257191Y-26685487D02*
X63219096Y-26723582D01*
X63219096Y-26723582D02*
X63181001Y-26799773D01*
X63181001Y-26799773D02*
X63181001Y-26875963D01*
X63181001Y-26875963D02*
X63219096Y-26990249D01*
X63219096Y-26990249D02*
X63676239Y-27447392D01*
X63676239Y-27447392D02*
X63181001Y-27447392D01*
X49390476Y-55950000D02*
X49390476Y-56597619D01*
X49390476Y-56597619D02*
X49352381Y-56673809D01*
X49352381Y-56673809D02*
X49314286Y-56711905D01*
X49314286Y-56711905D02*
X49238095Y-56750000D01*
X49238095Y-56750000D02*
X49085714Y-56750000D01*
X49085714Y-56750000D02*
X49009524Y-56711905D01*
X49009524Y-56711905D02*
X48971429Y-56673809D01*
X48971429Y-56673809D02*
X48933333Y-56597619D01*
X48933333Y-56597619D02*
X48933333Y-55950000D01*
X48590477Y-56026190D02*
X48552381Y-55988095D01*
X48552381Y-55988095D02*
X48476191Y-55950000D01*
X48476191Y-55950000D02*
X48285715Y-55950000D01*
X48285715Y-55950000D02*
X48209524Y-55988095D01*
X48209524Y-55988095D02*
X48171429Y-56026190D01*
X48171429Y-56026190D02*
X48133334Y-56102381D01*
X48133334Y-56102381D02*
X48133334Y-56178571D01*
X48133334Y-56178571D02*
X48171429Y-56292857D01*
X48171429Y-56292857D02*
X48628572Y-56750000D01*
X48628572Y-56750000D02*
X48133334Y-56750000D01*
X47638095Y-55950000D02*
X47561905Y-55950000D01*
X47561905Y-55950000D02*
X47485714Y-55988095D01*
X47485714Y-55988095D02*
X47447619Y-56026190D01*
X47447619Y-56026190D02*
X47409524Y-56102381D01*
X47409524Y-56102381D02*
X47371429Y-56254762D01*
X47371429Y-56254762D02*
X47371429Y-56445238D01*
X47371429Y-56445238D02*
X47409524Y-56597619D01*
X47409524Y-56597619D02*
X47447619Y-56673809D01*
X47447619Y-56673809D02*
X47485714Y-56711905D01*
X47485714Y-56711905D02*
X47561905Y-56750000D01*
X47561905Y-56750000D02*
X47638095Y-56750000D01*
X47638095Y-56750000D02*
X47714286Y-56711905D01*
X47714286Y-56711905D02*
X47752381Y-56673809D01*
X47752381Y-56673809D02*
X47790476Y-56597619D01*
X47790476Y-56597619D02*
X47828572Y-56445238D01*
X47828572Y-56445238D02*
X47828572Y-56254762D01*
X47828572Y-56254762D02*
X47790476Y-56102381D01*
X47790476Y-56102381D02*
X47752381Y-56026190D01*
X47752381Y-56026190D02*
X47714286Y-55988095D01*
X47714286Y-55988095D02*
X47638095Y-55950000D01*
X46609524Y-56750000D02*
X47066667Y-56750000D01*
X46838095Y-56750000D02*
X46838095Y-55950000D01*
X46838095Y-55950000D02*
X46914286Y-56064285D01*
X46914286Y-56064285D02*
X46990476Y-56140476D01*
X46990476Y-56140476D02*
X47066667Y-56178571D01*
X36790476Y-37800000D02*
X36790476Y-38447619D01*
X36790476Y-38447619D02*
X36752381Y-38523809D01*
X36752381Y-38523809D02*
X36714286Y-38561905D01*
X36714286Y-38561905D02*
X36638095Y-38600000D01*
X36638095Y-38600000D02*
X36485714Y-38600000D01*
X36485714Y-38600000D02*
X36409524Y-38561905D01*
X36409524Y-38561905D02*
X36371429Y-38523809D01*
X36371429Y-38523809D02*
X36333333Y-38447619D01*
X36333333Y-38447619D02*
X36333333Y-37800000D01*
X35571429Y-37800000D02*
X35952381Y-37800000D01*
X35952381Y-37800000D02*
X35990477Y-38180952D01*
X35990477Y-38180952D02*
X35952381Y-38142857D01*
X35952381Y-38142857D02*
X35876191Y-38104762D01*
X35876191Y-38104762D02*
X35685715Y-38104762D01*
X35685715Y-38104762D02*
X35609524Y-38142857D01*
X35609524Y-38142857D02*
X35571429Y-38180952D01*
X35571429Y-38180952D02*
X35533334Y-38257143D01*
X35533334Y-38257143D02*
X35533334Y-38447619D01*
X35533334Y-38447619D02*
X35571429Y-38523809D01*
X35571429Y-38523809D02*
X35609524Y-38561905D01*
X35609524Y-38561905D02*
X35685715Y-38600000D01*
X35685715Y-38600000D02*
X35876191Y-38600000D01*
X35876191Y-38600000D02*
X35952381Y-38561905D01*
X35952381Y-38561905D02*
X35990477Y-38523809D01*
X35038095Y-37800000D02*
X34961905Y-37800000D01*
X34961905Y-37800000D02*
X34885714Y-37838095D01*
X34885714Y-37838095D02*
X34847619Y-37876190D01*
X34847619Y-37876190D02*
X34809524Y-37952381D01*
X34809524Y-37952381D02*
X34771429Y-38104762D01*
X34771429Y-38104762D02*
X34771429Y-38295238D01*
X34771429Y-38295238D02*
X34809524Y-38447619D01*
X34809524Y-38447619D02*
X34847619Y-38523809D01*
X34847619Y-38523809D02*
X34885714Y-38561905D01*
X34885714Y-38561905D02*
X34961905Y-38600000D01*
X34961905Y-38600000D02*
X35038095Y-38600000D01*
X35038095Y-38600000D02*
X35114286Y-38561905D01*
X35114286Y-38561905D02*
X35152381Y-38523809D01*
X35152381Y-38523809D02*
X35190476Y-38447619D01*
X35190476Y-38447619D02*
X35228572Y-38295238D01*
X35228572Y-38295238D02*
X35228572Y-38104762D01*
X35228572Y-38104762D02*
X35190476Y-37952381D01*
X35190476Y-37952381D02*
X35152381Y-37876190D01*
X35152381Y-37876190D02*
X35114286Y-37838095D01*
X35114286Y-37838095D02*
X35038095Y-37800000D01*
X34009524Y-38600000D02*
X34466667Y-38600000D01*
X34238095Y-38600000D02*
X34238095Y-37800000D01*
X34238095Y-37800000D02*
X34314286Y-37914285D01*
X34314286Y-37914285D02*
X34390476Y-37990476D01*
X34390476Y-37990476D02*
X34466667Y-38028571D01*
X40150000Y-62755476D02*
X39502381Y-62755476D01*
X39502381Y-62755476D02*
X39426191Y-62717381D01*
X39426191Y-62717381D02*
X39388096Y-62679286D01*
X39388096Y-62679286D02*
X39350000Y-62603095D01*
X39350000Y-62603095D02*
X39350000Y-62450714D01*
X39350000Y-62450714D02*
X39388096Y-62374524D01*
X39388096Y-62374524D02*
X39426191Y-62336429D01*
X39426191Y-62336429D02*
X39502381Y-62298333D01*
X39502381Y-62298333D02*
X40150000Y-62298333D01*
X40150000Y-61536429D02*
X40150000Y-61917381D01*
X40150000Y-61917381D02*
X39769048Y-61955477D01*
X39769048Y-61955477D02*
X39807143Y-61917381D01*
X39807143Y-61917381D02*
X39845238Y-61841191D01*
X39845238Y-61841191D02*
X39845238Y-61650715D01*
X39845238Y-61650715D02*
X39807143Y-61574524D01*
X39807143Y-61574524D02*
X39769048Y-61536429D01*
X39769048Y-61536429D02*
X39692857Y-61498334D01*
X39692857Y-61498334D02*
X39502381Y-61498334D01*
X39502381Y-61498334D02*
X39426191Y-61536429D01*
X39426191Y-61536429D02*
X39388096Y-61574524D01*
X39388096Y-61574524D02*
X39350000Y-61650715D01*
X39350000Y-61650715D02*
X39350000Y-61841191D01*
X39350000Y-61841191D02*
X39388096Y-61917381D01*
X39388096Y-61917381D02*
X39426191Y-61955477D01*
X40150000Y-61003095D02*
X40150000Y-60926905D01*
X40150000Y-60926905D02*
X40111905Y-60850714D01*
X40111905Y-60850714D02*
X40073810Y-60812619D01*
X40073810Y-60812619D02*
X39997619Y-60774524D01*
X39997619Y-60774524D02*
X39845238Y-60736429D01*
X39845238Y-60736429D02*
X39654762Y-60736429D01*
X39654762Y-60736429D02*
X39502381Y-60774524D01*
X39502381Y-60774524D02*
X39426191Y-60812619D01*
X39426191Y-60812619D02*
X39388096Y-60850714D01*
X39388096Y-60850714D02*
X39350000Y-60926905D01*
X39350000Y-60926905D02*
X39350000Y-61003095D01*
X39350000Y-61003095D02*
X39388096Y-61079286D01*
X39388096Y-61079286D02*
X39426191Y-61117381D01*
X39426191Y-61117381D02*
X39502381Y-61155476D01*
X39502381Y-61155476D02*
X39654762Y-61193572D01*
X39654762Y-61193572D02*
X39845238Y-61193572D01*
X39845238Y-61193572D02*
X39997619Y-61155476D01*
X39997619Y-61155476D02*
X40073810Y-61117381D01*
X40073810Y-61117381D02*
X40111905Y-61079286D01*
X40111905Y-61079286D02*
X40150000Y-61003095D01*
X40073810Y-60431667D02*
X40111905Y-60393571D01*
X40111905Y-60393571D02*
X40150000Y-60317381D01*
X40150000Y-60317381D02*
X40150000Y-60126905D01*
X40150000Y-60126905D02*
X40111905Y-60050714D01*
X40111905Y-60050714D02*
X40073810Y-60012619D01*
X40073810Y-60012619D02*
X39997619Y-59974524D01*
X39997619Y-59974524D02*
X39921429Y-59974524D01*
X39921429Y-59974524D02*
X39807143Y-60012619D01*
X39807143Y-60012619D02*
X39350000Y-60469762D01*
X39350000Y-60469762D02*
X39350000Y-59974524D01*
X73810000Y-47294524D02*
X73238572Y-47294524D01*
X73238572Y-47294524D02*
X73124286Y-47332619D01*
X73124286Y-47332619D02*
X73048096Y-47408810D01*
X73048096Y-47408810D02*
X73010000Y-47523095D01*
X73010000Y-47523095D02*
X73010000Y-47599286D01*
X73010000Y-46494524D02*
X73010000Y-46951667D01*
X73010000Y-46723095D02*
X73810000Y-46723095D01*
X73810000Y-46723095D02*
X73695715Y-46799286D01*
X73695715Y-46799286D02*
X73619524Y-46875476D01*
X73619524Y-46875476D02*
X73581429Y-46951667D01*
X73810000Y-45999285D02*
X73810000Y-45923095D01*
X73810000Y-45923095D02*
X73771905Y-45846904D01*
X73771905Y-45846904D02*
X73733810Y-45808809D01*
X73733810Y-45808809D02*
X73657619Y-45770714D01*
X73657619Y-45770714D02*
X73505238Y-45732619D01*
X73505238Y-45732619D02*
X73314762Y-45732619D01*
X73314762Y-45732619D02*
X73162381Y-45770714D01*
X73162381Y-45770714D02*
X73086191Y-45808809D01*
X73086191Y-45808809D02*
X73048096Y-45846904D01*
X73048096Y-45846904D02*
X73010000Y-45923095D01*
X73010000Y-45923095D02*
X73010000Y-45999285D01*
X73010000Y-45999285D02*
X73048096Y-46075476D01*
X73048096Y-46075476D02*
X73086191Y-46113571D01*
X73086191Y-46113571D02*
X73162381Y-46151666D01*
X73162381Y-46151666D02*
X73314762Y-46189762D01*
X73314762Y-46189762D02*
X73505238Y-46189762D01*
X73505238Y-46189762D02*
X73657619Y-46151666D01*
X73657619Y-46151666D02*
X73733810Y-46113571D01*
X73733810Y-46113571D02*
X73771905Y-46075476D01*
X73771905Y-46075476D02*
X73810000Y-45999285D01*
X73733810Y-45427857D02*
X73771905Y-45389761D01*
X73771905Y-45389761D02*
X73810000Y-45313571D01*
X73810000Y-45313571D02*
X73810000Y-45123095D01*
X73810000Y-45123095D02*
X73771905Y-45046904D01*
X73771905Y-45046904D02*
X73733810Y-45008809D01*
X73733810Y-45008809D02*
X73657619Y-44970714D01*
X73657619Y-44970714D02*
X73581429Y-44970714D01*
X73581429Y-44970714D02*
X73467143Y-45008809D01*
X73467143Y-45008809D02*
X73010000Y-45465952D01*
X73010000Y-45465952D02*
X73010000Y-44970714D01*
%TO.C,R207*%
X41446359Y-54020000D02*
X41753641Y-54020000D01*
X41446359Y-54780000D02*
X41753641Y-54780000D01*
%TO.C,C504*%
X35240000Y-58257836D02*
X35240000Y-58042164D01*
X35960000Y-58257836D02*
X35960000Y-58042164D01*
%TO.C,Q101*%
X64340000Y-37615000D02*
X64340000Y-37665000D01*
X64340000Y-38785000D02*
X64340000Y-39565000D01*
X64340000Y-40685000D02*
X64340000Y-40735000D01*
X64340000Y-40735000D02*
X65860000Y-40735000D01*
X65860000Y-37615000D02*
X64340000Y-37615000D01*
X65860000Y-38615000D02*
X65860000Y-37615000D01*
X65860000Y-40735000D02*
X65860000Y-39735000D01*
X63800000Y-39555000D02*
X64040000Y-39225000D01*
X63560000Y-39225000D01*
X63800000Y-39555000D01*
G36*
X63800000Y-39555000D02*
G01*
X63560000Y-39225000D01*
X64040000Y-39225000D01*
X63800000Y-39555000D01*
G37*
%TO.C,R120*%
X57020000Y-33553641D02*
X57020000Y-33246359D01*
X57780000Y-33553641D02*
X57780000Y-33246359D01*
%TO.C,J101*%
X45300000Y-22050000D02*
X45300000Y-21641500D01*
X45300000Y-25950000D02*
X45300000Y-23950000D01*
X54700000Y-22050000D02*
X54700000Y-21641500D01*
X54700000Y-25950000D02*
X54700000Y-23950000D01*
%TO.C,J301*%
X37850000Y-44400000D02*
X36950000Y-44400000D01*
X37850000Y-55600000D02*
X36950000Y-55600000D01*
D16*
X39860000Y-54250000D02*
G75*
G02*
X39740000Y-54250000I-60000J0D01*
G01*
X39740000Y-54250000D02*
G75*
G02*
X39860000Y-54250000I60000J0D01*
G01*
%TO.C,R316*%
D11*
X42620000Y-45553641D02*
X42620000Y-45246359D01*
X43380000Y-45553641D02*
X43380000Y-45246359D01*
%TO.C,R302*%
X41020000Y-58993641D02*
X41020000Y-58686359D01*
X41780000Y-58993641D02*
X41780000Y-58686359D01*
%TO.C,R108*%
X67350000Y-41362064D02*
X67350000Y-39907936D01*
X69170000Y-41362064D02*
X69170000Y-39907936D01*
%TO.C,C505*%
X64259420Y-30590000D02*
X64540580Y-30590000D01*
X64259420Y-31610000D02*
X64540580Y-31610000D01*
%TO.C,R502*%
X56104500Y-26164258D02*
X56104500Y-25689742D01*
X57149500Y-26164258D02*
X57149500Y-25689742D01*
%TO.C,Q501*%
X58040000Y-28040000D02*
X58040000Y-29560000D01*
X58040000Y-29560000D02*
X58090000Y-29560000D01*
X59040000Y-28040000D02*
X58040000Y-28040000D01*
X59210000Y-29560000D02*
X59990000Y-29560000D01*
X61110000Y-29560000D02*
X61160000Y-29560000D01*
X61160000Y-28040000D02*
X60160000Y-28040000D01*
X61160000Y-29560000D02*
X61160000Y-28040000D01*
X59980000Y-30100000D02*
X59650000Y-29860000D01*
X59650000Y-30340000D01*
X59980000Y-30100000D01*
G36*
X59980000Y-30100000D02*
G01*
X59650000Y-30340000D01*
X59650000Y-29860000D01*
X59980000Y-30100000D01*
G37*
%TO.C,C106*%
X51390000Y-36090580D02*
X51390000Y-35809420D01*
X52410000Y-36090580D02*
X52410000Y-35809420D01*
%TO.C,R501*%
X38150500Y-27740258D02*
X38150500Y-27265742D01*
X39195500Y-27740258D02*
X39195500Y-27265742D01*
%TO.C,C201*%
X39390000Y-70184420D02*
X39390000Y-70465580D01*
X40410000Y-70184420D02*
X40410000Y-70465580D01*
%TO.C,R312*%
X43546359Y-39520000D02*
X43853641Y-39520000D01*
X43546359Y-40280000D02*
X43853641Y-40280000D01*
%TO.C,R101*%
X48020000Y-30346359D02*
X48020000Y-30653641D01*
X48780000Y-30346359D02*
X48780000Y-30653641D01*
%TO.C,J201*%
X65670000Y-64695000D02*
X65035000Y-64695000D01*
X65670000Y-65330000D02*
X65670000Y-64695000D01*
%TO.C,R209*%
X37220000Y-63446359D02*
X37220000Y-63753641D01*
X37980000Y-63446359D02*
X37980000Y-63753641D01*
%TO.C,L101*%
X51515000Y-39810000D02*
X53735000Y-39810000D01*
X53735000Y-37690000D02*
X51515000Y-37690000D01*
%TO.C,R313*%
X41446359Y-39520000D02*
X41753641Y-39520000D01*
X41446359Y-40280000D02*
X41753641Y-40280000D01*
%TO.C,R503*%
X59886359Y-31058000D02*
X60193641Y-31058000D01*
X59886359Y-31818000D02*
X60193641Y-31818000D01*
%TO.C,D501*%
X41771818Y-22845198D02*
X42201860Y-23965494D01*
%TO.C,R314*%
X44846359Y-47420000D02*
X45153641Y-47420000D01*
X44846359Y-48180000D02*
X45153641Y-48180000D01*
%TO.C,Q302*%
X41040000Y-46740000D02*
X41040000Y-47740000D01*
X41040000Y-48860000D02*
X41040000Y-49860000D01*
X41040000Y-49860000D02*
X42560000Y-49860000D01*
X42560000Y-46740000D02*
X41040000Y-46740000D01*
X42560000Y-46790000D02*
X42560000Y-46740000D01*
X42560000Y-48690000D02*
X42560000Y-47910000D01*
X42560000Y-49860000D02*
X42560000Y-49810000D01*
X43100000Y-47920000D02*
X42860000Y-48250000D01*
X43340000Y-48250000D01*
X43100000Y-47920000D01*
G36*
X43340000Y-48250000D02*
G01*
X42860000Y-48250000D01*
X43100000Y-47920000D01*
X43340000Y-48250000D01*
G37*
%TO.C,C306*%
X44840000Y-43507836D02*
X44840000Y-43292164D01*
X45560000Y-43507836D02*
X45560000Y-43292164D01*
%TO.C,U104*%
X55050000Y-37850000D02*
X55350000Y-37850000D01*
X55050000Y-40150000D02*
X55350000Y-40150000D01*
X55950000Y-37850000D02*
X55650000Y-37850000D01*
X55950000Y-40150000D02*
X55650000Y-40150000D01*
D17*
X56730000Y-37770000D02*
G75*
G02*
X56630000Y-37770000I-50000J0D01*
G01*
X56630000Y-37770000D02*
G75*
G02*
X56730000Y-37770000I50000J0D01*
G01*
%TO.C,R111*%
D11*
X53303641Y-40220000D02*
X52996359Y-40220000D01*
X53303641Y-40980000D02*
X52996359Y-40980000D01*
%TO.C,D101*%
X52290000Y-29490000D02*
X56050000Y-29490000D01*
X52290000Y-31510000D02*
X52290000Y-29490000D01*
X52290000Y-31510000D02*
X56050000Y-31510000D01*
%TO.C,U103*%
X63004432Y-36585000D02*
X64810000Y-36585000D01*
X64810000Y-34315000D02*
X62590000Y-34315000D01*
X62710000Y-36590000D02*
X62570000Y-36780000D01*
X62850000Y-36780000D01*
X62710000Y-36590000D01*
G36*
X62850000Y-36780000D02*
G01*
X62570000Y-36780000D01*
X62710000Y-36590000D01*
X62850000Y-36780000D01*
G37*
%TO.C,R201*%
X59053641Y-69620000D02*
X58746359Y-69620000D01*
X59053641Y-70380000D02*
X58746359Y-70380000D01*
%TO.C,C104*%
X60940000Y-35057836D02*
X60940000Y-34842164D01*
X61660000Y-35057836D02*
X61660000Y-34842164D01*
%TO.C,U304*%
X41490000Y-40840000D02*
X41490000Y-40890000D01*
X41490000Y-43910000D02*
X41490000Y-43960000D01*
X41490000Y-43960000D02*
X43310000Y-43960000D01*
X43310000Y-40840000D02*
X41490000Y-40840000D01*
X43310000Y-40890000D02*
X43310000Y-40840000D01*
X43310000Y-42790000D02*
X43310000Y-42010000D01*
X43310000Y-43960000D02*
X43310000Y-43910000D01*
X40950000Y-43910000D02*
X40710000Y-44240000D01*
X41190000Y-44240000D01*
X40950000Y-43910000D01*
G36*
X41190000Y-44240000D02*
G01*
X40710000Y-44240000D01*
X40950000Y-43910000D01*
X41190000Y-44240000D01*
G37*
%TO.C,R102*%
X51520000Y-32596359D02*
X51520000Y-32903641D01*
X52280000Y-32596359D02*
X52280000Y-32903641D01*
%TO.C,C307*%
X44892164Y-46140000D02*
X45107836Y-46140000D01*
X44892164Y-46860000D02*
X45107836Y-46860000D01*
%TO.C,J501*%
X29162000Y-63930000D02*
X29162000Y-63230000D01*
X29512000Y-63580000D02*
X28812000Y-63580000D01*
%TO.C,LS501*%
X21910000Y-56095000D02*
X21910000Y-43927500D01*
X22184500Y-42750000D02*
X28010000Y-42750000D01*
X22520000Y-58450000D02*
X28010000Y-58450000D01*
X27160000Y-57550000D02*
X27960000Y-57550000D01*
X27560000Y-57950000D02*
X27560000Y-57150000D01*
%TO.C,R214*%
X57820000Y-46546359D02*
X57820000Y-46853641D01*
X58580000Y-46546359D02*
X58580000Y-46853641D01*
%TO.C,C105*%
X57240000Y-38365580D02*
X57240000Y-38084420D01*
X58260000Y-38365580D02*
X58260000Y-38084420D01*
%TO.C,R315*%
X41120000Y-45553641D02*
X41120000Y-45246359D01*
X41880000Y-45553641D02*
X41880000Y-45246359D01*
%TO.C,C503*%
X32892164Y-58390000D02*
X33107836Y-58390000D01*
X32892164Y-59110000D02*
X33107836Y-59110000D01*
%TO.C,D502*%
X62055860Y-24314506D02*
X61625818Y-25434802D01*
%TO.C,U201*%
X42200000Y-57500000D02*
X42200000Y-72818000D01*
X57800000Y-57500000D02*
X42200000Y-57500000D01*
X57800000Y-72818000D02*
X57800000Y-57500000D01*
X42025000Y-71250000D02*
X41689000Y-71010000D01*
X41689000Y-71490000D01*
X42025000Y-71250000D01*
G36*
X42025000Y-71250000D02*
G01*
X41689000Y-71490000D01*
X41689000Y-71010000D01*
X42025000Y-71250000D01*
G37*
%TO.C,C203*%
X60192164Y-70890000D02*
X60407836Y-70890000D01*
X60192164Y-71610000D02*
X60407836Y-71610000D01*
%TO.C,R213*%
X59060000Y-46546359D02*
X59060000Y-46853641D01*
X59820000Y-46546359D02*
X59820000Y-46853641D01*
%TO.C,U501*%
X33990000Y-39690000D02*
X33990000Y-40165000D01*
X33990000Y-42435000D02*
X33990000Y-42910000D01*
X33990000Y-42910000D02*
X34465000Y-42910000D01*
X34465000Y-39690000D02*
X33990000Y-39690000D01*
X36735000Y-42910000D02*
X37210000Y-42910000D01*
X37210000Y-39690000D02*
X36735000Y-39690000D01*
X37210000Y-40165000D02*
X37210000Y-39690000D01*
X37210000Y-42910000D02*
X37210000Y-42435000D01*
X33480000Y-42050000D02*
X33150000Y-41810000D01*
X33150000Y-42290000D01*
X33480000Y-42050000D01*
G36*
X33480000Y-42050000D02*
G01*
X33150000Y-42290000D01*
X33150000Y-41810000D01*
X33480000Y-42050000D01*
G37*
%TO.C,R317*%
X45362742Y-48777500D02*
X45837258Y-48777500D01*
X45362742Y-49822500D02*
X45837258Y-49822500D01*
%TO.C,R121*%
X58420000Y-33553641D02*
X58420000Y-33246359D01*
X59180000Y-33553641D02*
X59180000Y-33246359D01*
%TO.C,U502*%
X32790000Y-59540000D02*
X32790000Y-59715000D01*
X32790000Y-62585000D02*
X32790000Y-62760000D01*
X32790000Y-62760000D02*
X36010000Y-62760000D01*
X36010000Y-59540000D02*
X32790000Y-59540000D01*
X36010000Y-59715000D02*
X36010000Y-59540000D01*
X36010000Y-62760000D02*
X36010000Y-62585000D01*
X36560000Y-59710000D02*
X36800000Y-59380000D01*
X36320000Y-59380000D01*
X36560000Y-59710000D01*
G36*
X36560000Y-59710000D02*
G01*
X36320000Y-59380000D01*
X36800000Y-59380000D01*
X36560000Y-59710000D01*
G37*
%TO.C,R311*%
X43546359Y-38220000D02*
X43853641Y-38220000D01*
X43546359Y-38980000D02*
X43853641Y-38980000D01*
%TO.C,R110*%
X70596359Y-41870000D02*
X70903641Y-41870000D01*
X70596359Y-42630000D02*
X70903641Y-42630000D01*
%TO.C,J102*%
X66650000Y-44500000D02*
X67700000Y-44500000D01*
X66650000Y-47000000D02*
X66650000Y-44500000D01*
X70700000Y-48970000D02*
X67820000Y-48970000D01*
X70820000Y-44500000D02*
X70820000Y-43510000D01*
X71870000Y-44500000D02*
X70820000Y-44500000D01*
X71870000Y-47000000D02*
X71870000Y-44500000D01*
%TO.C,C206*%
X50490000Y-55357836D02*
X50490000Y-55142164D01*
X51210000Y-55357836D02*
X51210000Y-55142164D01*
%TO.C,R122*%
X58927500Y-40037258D02*
X58927500Y-39562742D01*
X59972500Y-40037258D02*
X59972500Y-39562742D01*
%TO.C,R109*%
X64096359Y-41620000D02*
X64403641Y-41620000D01*
X64096359Y-42380000D02*
X64403641Y-42380000D01*
%TO.C,R301*%
X44406359Y-56020000D02*
X44713641Y-56020000D01*
X44406359Y-56780000D02*
X44713641Y-56780000D01*
%TO.C,R504*%
X61770000Y-29380641D02*
X61770000Y-29073359D01*
X62530000Y-29380641D02*
X62530000Y-29073359D01*
%TO.C,C202*%
X41040000Y-69922164D02*
X41040000Y-70137836D01*
X41760000Y-69922164D02*
X41760000Y-70137836D01*
%TD*%
%LPC*%
D18*
%TO.C,H3*%
X32322000Y-67678000D03*
%TD*%
D19*
%TO.C,H2*%
X68579000Y-33272000D03*
%TD*%
%TO.C,H1*%
X31421000Y-33272000D03*
%TD*%
D20*
%TO.C,R207*%
X41090000Y-54400000D03*
X42110000Y-54400000D03*
%TD*%
D21*
%TO.C,TP23*%
X59400000Y-35700000D03*
%TD*%
D22*
%TO.C,C504*%
X35600000Y-58630000D03*
X35600000Y-57670000D03*
%TD*%
D23*
%TO.C,Q101*%
X64162500Y-40125000D03*
X64162500Y-38225000D03*
X66037500Y-39175000D03*
%TD*%
D24*
%TO.C,TP6*%
X55500000Y-33050000D03*
%TD*%
D21*
%TO.C,TP13*%
X47000000Y-39700000D03*
%TD*%
D25*
%TO.C,R120*%
X57400000Y-33910000D03*
X57400000Y-32890000D03*
%TD*%
D26*
%TO.C,J101*%
X47110000Y-26650000D03*
X52890000Y-26650000D03*
D27*
X46750000Y-28095000D03*
X47550000Y-28095000D03*
D28*
X48750000Y-28095000D03*
X49750000Y-28095000D03*
X50250000Y-28095000D03*
X51250000Y-28095000D03*
D27*
X52450000Y-28095000D03*
X53250000Y-28095000D03*
X53250000Y-28095000D03*
X52450000Y-28095000D03*
D28*
X51750000Y-28095000D03*
X50750000Y-28095000D03*
X49250000Y-28095000D03*
X48250000Y-28095000D03*
D27*
X47550000Y-28095000D03*
X46750000Y-28095000D03*
D29*
X45680000Y-23000000D03*
D30*
X45680000Y-27180000D03*
D29*
X54320000Y-23000000D03*
D30*
X54320000Y-27180000D03*
%TD*%
D21*
%TO.C,TP25*%
X52550000Y-55900000D03*
%TD*%
D31*
%TO.C,J301*%
X38850000Y-54250000D03*
X38850000Y-53750000D03*
X38850000Y-53250000D03*
X38850000Y-52750000D03*
X38850000Y-52250000D03*
X38850000Y-51750000D03*
X38850000Y-51250000D03*
X38850000Y-50750000D03*
X38850000Y-50250000D03*
X38850000Y-49750000D03*
X38850000Y-49250000D03*
X38850000Y-48750000D03*
X38850000Y-48250000D03*
X38850000Y-47750000D03*
X38850000Y-47250000D03*
X38850000Y-46750000D03*
X38850000Y-46250000D03*
X38850000Y-45750000D03*
D32*
X36350000Y-55250000D03*
X36350000Y-44750000D03*
%TD*%
D25*
%TO.C,R316*%
X43000000Y-45910000D03*
X43000000Y-44890000D03*
%TD*%
%TO.C,R302*%
X41400000Y-59350000D03*
X41400000Y-58330000D03*
%TD*%
D24*
%TO.C,TP1*%
X61600000Y-46700000D03*
%TD*%
D33*
%TO.C,R108*%
X68260000Y-42097500D03*
X68260000Y-39172500D03*
%TD*%
D34*
%TO.C,C505*%
X63625000Y-31100000D03*
X65175000Y-31100000D03*
%TD*%
D35*
%TO.C,R502*%
X56627000Y-26752000D03*
X56627000Y-25102000D03*
%TD*%
D21*
%TO.C,TP7*%
X64300000Y-49500000D03*
%TD*%
D36*
%TO.C,Q501*%
X60550000Y-29737500D03*
X58650000Y-29737500D03*
X59600000Y-27862500D03*
%TD*%
D37*
%TO.C,C106*%
X51900000Y-36725000D03*
X51900000Y-35175000D03*
%TD*%
D35*
%TO.C,R501*%
X38673000Y-28328000D03*
X38673000Y-26678000D03*
%TD*%
D38*
%TO.C,C201*%
X39900000Y-69550000D03*
X39900000Y-71100000D03*
%TD*%
D18*
%TO.C,FID4*%
X27300000Y-36100000D03*
%TD*%
D20*
%TO.C,R312*%
X43190000Y-39900000D03*
X44210000Y-39900000D03*
%TD*%
D39*
%TO.C,R101*%
X48400000Y-29990000D03*
X48400000Y-31010000D03*
%TD*%
D40*
%TO.C,J201*%
X64400000Y-64060000D03*
X65416000Y-69140000D03*
X63384000Y-69140000D03*
D41*
X65035000Y-65330000D03*
X63765000Y-65330000D03*
X65035000Y-66600000D03*
X63765000Y-66600000D03*
X65035000Y-67870000D03*
X63765000Y-67870000D03*
%TD*%
D39*
%TO.C,R209*%
X37600000Y-63090000D03*
X37600000Y-64110000D03*
%TD*%
D42*
%TO.C,L101*%
X53350000Y-38750000D03*
X51900000Y-38750000D03*
%TD*%
D20*
%TO.C,R313*%
X41090000Y-39900000D03*
X42110000Y-39900000D03*
%TD*%
D21*
%TO.C,TP24*%
X39800000Y-67000000D03*
%TD*%
D20*
%TO.C,R503*%
X59530000Y-31438000D03*
X60550000Y-31438000D03*
%TD*%
D24*
%TO.C,TP16*%
X64300000Y-46700000D03*
%TD*%
D43*
%TO.C,D501*%
X41473371Y-23602448D03*
X38672629Y-24677552D03*
%TD*%
D20*
%TO.C,R314*%
X44490000Y-47800000D03*
X45510000Y-47800000D03*
%TD*%
D44*
%TO.C,Q302*%
X42737500Y-47350000D03*
X42737500Y-49250000D03*
X40862500Y-48300000D03*
%TD*%
D21*
%TO.C,TP9*%
X56000000Y-49500000D03*
%TD*%
D22*
%TO.C,C306*%
X45200000Y-43880000D03*
X45200000Y-42920000D03*
%TD*%
D45*
%TO.C,U104*%
X56150000Y-38250000D03*
X56150000Y-38750000D03*
X56150000Y-39250000D03*
X56150000Y-39750000D03*
X54850000Y-39750000D03*
X54850000Y-39250000D03*
X54850000Y-38750000D03*
X54850000Y-38250000D03*
%TD*%
D21*
%TO.C,TP10*%
X56000000Y-46700000D03*
%TD*%
%TO.C,TP22*%
X64300000Y-52300000D03*
%TD*%
D46*
%TO.C,R111*%
X53660000Y-40600000D03*
X52640000Y-40600000D03*
%TD*%
D47*
%TO.C,D101*%
X53200000Y-30500000D03*
X56100000Y-30500000D03*
%TD*%
D48*
%TO.C,U103*%
X62712500Y-36200000D03*
X62712500Y-35700000D03*
X62712500Y-35200000D03*
X62712500Y-34700000D03*
X64687500Y-34700000D03*
X64687500Y-35200000D03*
X64687500Y-35700000D03*
X64687500Y-36200000D03*
D49*
X63700000Y-35450000D03*
%TD*%
D21*
%TO.C,TP8*%
X61200000Y-68400000D03*
%TD*%
D46*
%TO.C,R201*%
X59410000Y-70000000D03*
X58390000Y-70000000D03*
%TD*%
D22*
%TO.C,C104*%
X61300000Y-35430000D03*
X61300000Y-34470000D03*
%TD*%
D50*
%TO.C,U304*%
X41262500Y-43350000D03*
X41262500Y-42400000D03*
X41262500Y-41450000D03*
X43537500Y-41450000D03*
X43537500Y-43350000D03*
%TD*%
D39*
%TO.C,R102*%
X51900000Y-32240000D03*
X51900000Y-33260000D03*
%TD*%
D51*
%TO.C,C307*%
X44520000Y-46500000D03*
X45480000Y-46500000D03*
%TD*%
D52*
%TO.C,J501*%
X29162000Y-62330000D03*
X29162000Y-59830000D03*
%TD*%
D18*
%TO.C,FID5*%
X71000000Y-37000000D03*
%TD*%
D21*
%TO.C,TP20*%
X47000000Y-53600000D03*
%TD*%
D53*
%TO.C,LS501*%
X29350000Y-57550000D03*
X29350000Y-43650000D03*
%TD*%
D39*
%TO.C,R214*%
X58200000Y-46190000D03*
X58200000Y-47210000D03*
%TD*%
D24*
%TO.C,TP2*%
X56000000Y-43900000D03*
%TD*%
D37*
%TO.C,C105*%
X57750000Y-39000000D03*
X57750000Y-37450000D03*
%TD*%
D21*
%TO.C,TP21*%
X51400000Y-53050000D03*
%TD*%
D25*
%TO.C,R315*%
X41500000Y-45910000D03*
X41500000Y-44890000D03*
%TD*%
D24*
%TO.C,TP4*%
X61600000Y-43900000D03*
%TD*%
D51*
%TO.C,C503*%
X32520000Y-58750000D03*
X33480000Y-58750000D03*
%TD*%
D54*
%TO.C,D502*%
X61327371Y-24677552D03*
X58526629Y-23602448D03*
%TD*%
D32*
%TO.C,U201*%
X43000000Y-71250000D03*
X43000000Y-70400000D03*
X43000000Y-69550000D03*
X43000000Y-68700000D03*
X43000000Y-67850000D03*
X43000000Y-67000000D03*
X43000000Y-66150000D03*
X43000000Y-65300000D03*
X43000000Y-64450000D03*
X43000000Y-63600000D03*
X43000000Y-62750000D03*
X43000000Y-61900000D03*
X43000000Y-61050000D03*
X43000000Y-60200000D03*
X43000000Y-59350000D03*
D55*
X44050000Y-58300000D03*
X44900000Y-58300000D03*
X45750000Y-58300000D03*
X46600000Y-58300000D03*
X47450000Y-58300000D03*
X48300000Y-58300000D03*
X49150000Y-58300000D03*
X50000000Y-58300000D03*
X50850000Y-58300000D03*
X51700000Y-58300000D03*
X52550000Y-58300000D03*
X53400000Y-58300000D03*
X54250000Y-58300000D03*
X55100000Y-58300000D03*
X55950000Y-58300000D03*
D32*
X57000000Y-59350000D03*
X57000000Y-60200000D03*
X57000000Y-61050000D03*
X57000000Y-61900000D03*
X57000000Y-62750000D03*
X57000000Y-63600000D03*
X57000000Y-64450000D03*
X57000000Y-65300000D03*
X57000000Y-66150000D03*
X57000000Y-67000000D03*
X57000000Y-67850000D03*
X57000000Y-68700000D03*
X57000000Y-69550000D03*
X57000000Y-70400000D03*
X57000000Y-71250000D03*
D55*
X55950000Y-72300000D03*
X55100000Y-72300000D03*
X54250000Y-72300000D03*
X53400000Y-72300000D03*
X52550000Y-72300000D03*
X51700000Y-72300000D03*
X50850000Y-72300000D03*
X50000000Y-72300000D03*
X49150000Y-72300000D03*
X48300000Y-72300000D03*
X47450000Y-72300000D03*
X46600000Y-72300000D03*
X45750000Y-72300000D03*
X44900000Y-72300000D03*
X44050000Y-72300000D03*
D56*
X48350000Y-63650000D03*
X48350000Y-65300000D03*
D57*
X48350000Y-66950000D03*
D56*
X50000000Y-63650000D03*
X50000000Y-65300000D03*
X50000000Y-66950000D03*
X51650000Y-63650000D03*
X51650000Y-65300000D03*
X51650000Y-66950000D03*
D58*
X43000000Y-72300000D03*
X43000000Y-58300000D03*
X57000000Y-58300000D03*
X57000000Y-72300000D03*
%TD*%
D18*
%TO.C,FID6*%
X69000000Y-68200000D03*
%TD*%
D51*
%TO.C,C203*%
X59820000Y-71250000D03*
X60780000Y-71250000D03*
%TD*%
D39*
%TO.C,R213*%
X59440000Y-46190000D03*
X59440000Y-47210000D03*
%TD*%
D59*
%TO.C,U501*%
X34162500Y-42050000D03*
X34162500Y-41550000D03*
X34162500Y-41050000D03*
X34162500Y-40550000D03*
D60*
X34850000Y-39862500D03*
X35350000Y-39862500D03*
X35850000Y-39862500D03*
X36350000Y-39862500D03*
D59*
X37037500Y-40550000D03*
X37037500Y-41050000D03*
X37037500Y-41550000D03*
X37037500Y-42050000D03*
D60*
X36350000Y-42737500D03*
X35850000Y-42737500D03*
X35350000Y-42737500D03*
X34850000Y-42737500D03*
D61*
X35600000Y-41300000D03*
%TD*%
D24*
%TO.C,TP5*%
X64300000Y-43900000D03*
%TD*%
D62*
%TO.C,R317*%
X44775000Y-49300000D03*
X46425000Y-49300000D03*
%TD*%
D25*
%TO.C,R121*%
X58800000Y-33910000D03*
X58800000Y-32890000D03*
%TD*%
D63*
%TO.C,U502*%
X36500000Y-60150000D03*
X36500000Y-60650000D03*
X36500000Y-61150000D03*
X36500000Y-61650000D03*
X36500000Y-62150000D03*
X32300000Y-62150000D03*
X32300000Y-61650000D03*
X32300000Y-61150000D03*
X32300000Y-60650000D03*
X32300000Y-60150000D03*
%TD*%
D20*
%TO.C,R311*%
X43190000Y-38600000D03*
X44210000Y-38600000D03*
%TD*%
D21*
%TO.C,TP19*%
X59700000Y-57400000D03*
%TD*%
D24*
%TO.C,TP3*%
X58800000Y-43900000D03*
%TD*%
D21*
%TO.C,TP18*%
X35000000Y-35700000D03*
%TD*%
D20*
%TO.C,R110*%
X70240000Y-42250000D03*
X71260000Y-42250000D03*
%TD*%
D64*
%TO.C,J102*%
X70260000Y-44285000D03*
X69260000Y-44285000D03*
X68260000Y-44285000D03*
D65*
X71560000Y-48160000D03*
X66960000Y-48160000D03*
%TD*%
D21*
%TO.C,TP17*%
X47000000Y-37100000D03*
%TD*%
D22*
%TO.C,C206*%
X50850000Y-55730000D03*
X50850000Y-54770000D03*
%TD*%
D35*
%TO.C,R122*%
X59450000Y-40625000D03*
X59450000Y-38975000D03*
%TD*%
D20*
%TO.C,R109*%
X63740000Y-42000000D03*
X64760000Y-42000000D03*
%TD*%
%TO.C,R301*%
X44050000Y-56400000D03*
X45070000Y-56400000D03*
%TD*%
D25*
%TO.C,R504*%
X62150000Y-29737000D03*
X62150000Y-28717000D03*
%TD*%
D21*
%TO.C,TP15*%
X73550000Y-50730000D03*
%TD*%
D66*
%TO.C,C202*%
X41400000Y-69550000D03*
X41400000Y-70510000D03*
%TD*%
%LPD*%
M02*
