%TF.GenerationSoftware,KiCad,Pcbnew,10.0.6*%
%TF.CreationDate,2026-10-05T07:36:54+02:00*%
%TF.ProjectId,MAO_MAIN_A0,4d414f5f-4d41-4494-9e5f-41302e6b6963,A0*%
%TF.SameCoordinates,Original*%
%TF.FileFunction,Soldermask,Top*%
%TF.FilePolarity,Negative*%
%FSLAX46Y46*%
G04 Gerber Fmt 4.6, Leading zero omitted, Abs format (unit mm)*
G04 Created by KiCad (PCBNEW 10.0.6) date 2026-10-05 07:36:54*
%MOMM*%
%LPD*%
G01*
G04 APERTURE LIST*
G04 Aperture macros list*
%AMRoundRect*
0 Rectangle with rounded corners*
0 $1 Rounding radius*
0 $2 $3 $4 $5 $6 $7 $8 $9 X,Y pos of 4 corners*
0 Add a 4 corners polygon primitive as box body*
4,1,4,$2,$3,$4,$5,$6,$7,$8,$9,$2,$3,0*
0 Add four circle primitives for the rounded corners*
1,1,$1+$1,$2,$3*
1,1,$1+$1,$4,$5*
1,1,$1+$1,$6,$7*
1,1,$1+$1,$8,$9*
0 Add four rect primitives between the rounded corners*
20,1,$1+$1,$2,$3,$4,$5,0*
20,1,$1+$1,$4,$5,$6,$7,0*
20,1,$1+$1,$6,$7,$8,$9,0*
20,1,$1+$1,$8,$9,$2,$3,0*%
%AMRotRect*
0 Rectangle, with rotation*
0 The origin of the aperture is its center*
0 $1 length*
0 $2 width*
0 $3 Rotation angle, in degrees counterclockwise*
0 Add horizontal line*
21,1,$1,$2,0,0,$3*%
G04 Aperture macros list end*
%ADD10RoundRect,0.225000X-0.225000X-0.250000X0.225000X-0.250000X0.225000X0.250000X-0.225000X0.250000X0*%
%ADD11RoundRect,0.140000X-0.140000X-0.170000X0.140000X-0.170000X0.140000X0.170000X-0.140000X0.170000X0*%
%ADD12RoundRect,0.135000X0.135000X0.185000X-0.135000X0.185000X-0.135000X-0.185000X0.135000X-0.185000X0*%
%ADD13RoundRect,0.140000X-0.170000X0.140000X-0.170000X-0.140000X0.170000X-0.140000X0.170000X0.140000X0*%
%ADD14RoundRect,0.140000X0.170000X-0.140000X0.170000X0.140000X-0.170000X0.140000X-0.170000X-0.140000X0*%
%ADD15RoundRect,0.087500X-0.087500X0.250000X-0.087500X-0.250000X0.087500X-0.250000X0.087500X0.250000X0*%
%ADD16RoundRect,0.062500X0.350000X0.062500X-0.350000X0.062500X-0.350000X-0.062500X0.350000X-0.062500X0*%
%ADD17RoundRect,0.062500X0.062500X0.350000X-0.062500X0.350000X-0.062500X-0.350000X0.062500X-0.350000X0*%
%ADD18R,1.680000X1.680000*%
%ADD19RoundRect,0.225000X0.250000X-0.225000X0.250000X0.225000X-0.250000X0.225000X-0.250000X-0.225000X0*%
%ADD20RotRect,0.500000X0.500000X118.000000*%
%ADD21C,2.000000*%
%ADD22C,2.200000*%
%ADD23RoundRect,0.135000X0.185000X-0.135000X0.185000X0.135000X-0.185000X0.135000X-0.185000X-0.135000X0*%
%ADD24RoundRect,0.135000X-0.185000X0.135000X-0.185000X-0.135000X0.185000X-0.135000X0.185000X0.135000X0*%
%ADD25RoundRect,0.087500X-0.225000X-0.087500X0.225000X-0.087500X0.225000X0.087500X-0.225000X0.087500X0*%
%ADD26RoundRect,0.087500X-0.087500X-0.225000X0.087500X-0.225000X0.087500X0.225000X-0.087500X0.225000X0*%
%ADD27RoundRect,0.135000X-0.135000X-0.185000X0.135000X-0.185000X0.135000X0.185000X-0.135000X0.185000X0*%
%ADD28RoundRect,0.075000X-0.075000X-0.175000X0.075000X-0.175000X0.075000X0.175000X-0.075000X0.175000X0*%
%ADD29RoundRect,0.100000X-1.000000X0.700000X-1.000000X-0.700000X1.000000X-0.700000X1.000000X0.700000X0*%
%ADD30R,1.800000X1.100000*%
%ADD31RoundRect,0.087500X-0.425000X-0.087500X0.425000X-0.087500X0.425000X0.087500X-0.425000X0.087500X0*%
%ADD32RoundRect,0.275000X-0.475000X-0.275000X0.475000X-0.275000X0.475000X0.275000X-0.475000X0.275000X0*%
%ADD33RoundRect,0.062500X-0.135180X0.175468X-0.208653X0.074341X0.135180X-0.175468X0.208653X-0.074341X0*%
%ADD34RotRect,0.800000X0.600000X234.000000*%
%ADD35RoundRect,0.140000X0.140000X0.170000X-0.140000X0.170000X-0.140000X-0.170000X0.140000X-0.170000X0*%
%ADD36RoundRect,0.062500X-0.152780X0.160377X-0.215280X0.052123X0.152780X-0.160377X0.215280X-0.052123X0*%
%ADD37RotRect,0.800000X0.600000X240.000000*%
%ADD38RoundRect,0.075000X-0.175000X0.075000X-0.175000X-0.075000X0.175000X-0.075000X0.175000X0.075000X0*%
%ADD39RoundRect,0.125000X-0.125000X-0.000010X0.125000X-0.000010X0.125000X0.000010X-0.125000X0.000010X0*%
%ADD40RoundRect,0.050000X-0.275000X-0.625000X0.275000X-0.625000X0.275000X0.625000X-0.275000X0.625000X0*%
%ADD41RoundRect,0.075000X0.175000X-0.075000X0.175000X0.075000X-0.175000X0.075000X-0.175000X-0.075000X0*%
%ADD42C,0.650000*%
%ADD43O,1.000000X1.600000*%
%ADD44O,1.000000X2.100000*%
%ADD45C,0.990600*%
%ADD46C,0.500000*%
G04 APERTURE END LIST*
D10*
%TO.C,C103*%
X62425000Y-38220000D03*
X63975000Y-38220000D03*
%TD*%
D11*
%TO.C,C303*%
X70904000Y-60896000D03*
X71864000Y-60896000D03*
%TD*%
D12*
%TO.C,R310*%
X39010000Y-64860000D03*
X37990000Y-64860000D03*
%TD*%
D11*
%TO.C,C301*%
X38220000Y-53100000D03*
X39180000Y-53100000D03*
%TD*%
D13*
%TO.C,C101*%
X58660000Y-40920000D03*
X58660000Y-41880000D03*
%TD*%
D14*
%TO.C,C109*%
X41300000Y-39330000D03*
X41300000Y-38370000D03*
%TD*%
D12*
%TO.C,R507*%
X36910000Y-35100000D03*
X35890000Y-35100000D03*
%TD*%
D15*
%TO.C,U101*%
X50500000Y-31287500D03*
X50000000Y-31287500D03*
X49500000Y-31287500D03*
X49500000Y-32712500D03*
X50500000Y-32712500D03*
%TD*%
D16*
%TO.C,U102*%
X60872500Y-38975000D03*
X60872500Y-38475000D03*
X60872500Y-37975000D03*
X60872500Y-37475000D03*
D17*
X60160000Y-36762500D03*
X59660000Y-36762500D03*
X59160000Y-36762500D03*
X58660000Y-36762500D03*
D16*
X57947500Y-37475000D03*
X57947500Y-37975000D03*
X57947500Y-38475000D03*
X57947500Y-38975000D03*
D17*
X58660000Y-39687500D03*
X59160000Y-39687500D03*
X59660000Y-39687500D03*
X60160000Y-39687500D03*
D18*
X59410000Y-38225000D03*
%TD*%
D19*
%TO.C,C102*%
X56100000Y-38175000D03*
X56100000Y-36625000D03*
%TD*%
D12*
%TO.C,R104*%
X56810000Y-39950000D03*
X55790000Y-39950000D03*
%TD*%
%TO.C,R309*%
X39010000Y-66130000D03*
X37990000Y-66130000D03*
%TD*%
D20*
%TO.C,U402*%
X38399707Y-31590796D03*
X39110759Y-31224049D03*
X39812423Y-30839642D03*
X40518781Y-30464065D03*
X41225139Y-30088487D03*
X41600716Y-30794845D03*
X41976293Y-31501204D03*
X41269935Y-31876781D03*
X40563577Y-32252358D03*
X39857219Y-32627935D03*
X39150861Y-33003513D03*
X38775284Y-32297155D03*
%TD*%
D21*
%TO.C,FID1*%
X65600000Y-29800000D03*
%TD*%
D14*
%TO.C,C403*%
X36651000Y-32804000D03*
X36651000Y-31844000D03*
%TD*%
D22*
%TO.C,H2*%
X68579000Y-33272000D03*
%TD*%
D12*
%TO.C,R401*%
X44700000Y-31500000D03*
X43680000Y-31500000D03*
%TD*%
%TO.C,R307*%
X39010000Y-67400000D03*
X37990000Y-67400000D03*
%TD*%
%TO.C,R505*%
X72470000Y-56750000D03*
X71450000Y-56750000D03*
%TD*%
D23*
%TO.C,R208*%
X34050000Y-40550000D03*
X34050000Y-39530000D03*
%TD*%
D11*
%TO.C,C402*%
X51720000Y-59250000D03*
X52680000Y-59250000D03*
%TD*%
D19*
%TO.C,C404*%
X36400000Y-30491000D03*
X36400000Y-28941000D03*
%TD*%
D24*
%TO.C,R116*%
X37762500Y-42490000D03*
X37762500Y-43510000D03*
%TD*%
D10*
%TO.C,C302*%
X37625000Y-51500000D03*
X39175000Y-51500000D03*
%TD*%
D25*
%TO.C,U401*%
X52037500Y-56250000D03*
X52037500Y-56750000D03*
X52037500Y-57250000D03*
X52037500Y-57750000D03*
D26*
X52700000Y-57912500D03*
X53200000Y-57912500D03*
X53700000Y-57912500D03*
D25*
X54362500Y-57750000D03*
X54362500Y-57250000D03*
X54362500Y-56750000D03*
X54362500Y-56250000D03*
D26*
X53700000Y-56087500D03*
X53200000Y-56087500D03*
X52700000Y-56087500D03*
%TD*%
D27*
%TO.C,R211*%
X69950000Y-58150000D03*
X70970000Y-58150000D03*
%TD*%
D21*
%TO.C,FID3*%
X30000000Y-41000000D03*
%TD*%
D28*
%TO.C,D303*%
X30300000Y-58100000D03*
X31000000Y-58100000D03*
%TD*%
D29*
%TO.C,J302*%
X28400000Y-57300000D03*
%TD*%
D10*
%TO.C,C506*%
X72825000Y-46100000D03*
X74375000Y-46100000D03*
%TD*%
D23*
%TO.C,R117*%
X61900000Y-35910000D03*
X61900000Y-34890000D03*
%TD*%
D30*
%TO.C,SW301*%
X46900000Y-45650000D03*
X53100000Y-45650000D03*
X46900000Y-49350000D03*
X53100000Y-49350000D03*
%TD*%
D31*
%TO.C,U105*%
X37762500Y-40200000D03*
X37762500Y-40850000D03*
X37762500Y-41500000D03*
X39437500Y-41500000D03*
X39437500Y-40850000D03*
X39437500Y-40200000D03*
%TD*%
D32*
%TO.C,U503*%
X67850000Y-48730000D03*
X67850000Y-51270000D03*
X74150000Y-51270000D03*
X74150000Y-48730000D03*
%TD*%
D33*
%TO.C,U302*%
X72050934Y-65712279D03*
X70796958Y-64801212D03*
X70503066Y-65205721D03*
X71757042Y-66116788D03*
D34*
X71277000Y-65459000D03*
%TD*%
D10*
%TO.C,C501*%
X34125000Y-36600000D03*
X35675000Y-36600000D03*
%TD*%
D35*
%TO.C,C110*%
X36080000Y-40200000D03*
X35120000Y-40200000D03*
%TD*%
D23*
%TO.C,R210*%
X42825000Y-29288000D03*
X42825000Y-28268000D03*
%TD*%
D27*
%TO.C,R306*%
X67875000Y-65427000D03*
X68895000Y-65427000D03*
%TD*%
D22*
%TO.C,H1*%
X31421000Y-33272000D03*
%TD*%
D23*
%TO.C,R106*%
X59160000Y-35410000D03*
X59160000Y-34390000D03*
%TD*%
D36*
%TO.C,U301*%
X73572170Y-63320994D03*
X72229830Y-62545994D03*
X71979830Y-62979006D03*
X73322170Y-63754006D03*
D37*
X72776000Y-63150000D03*
%TD*%
D38*
%TO.C,D302*%
X72798000Y-39698000D03*
X72798000Y-40398000D03*
%TD*%
D39*
%TO.C,U403*%
X59003000Y-30632000D03*
X59003000Y-31282000D03*
X59003000Y-31932000D03*
X60903000Y-31932000D03*
X60903000Y-31282000D03*
X60903000Y-30632000D03*
D40*
X59953000Y-31282000D03*
%TD*%
D24*
%TO.C,R105*%
X59950000Y-41190000D03*
X59950000Y-42210000D03*
%TD*%
D41*
%TO.C,D301*%
X28400000Y-60800000D03*
X28400000Y-60100000D03*
%TD*%
D24*
%TO.C,R103*%
X61250000Y-41190000D03*
X61250000Y-42210000D03*
%TD*%
D21*
%TO.C,H3*%
X32322000Y-67678000D03*
%TD*%
%TO.C,FID2*%
X55500000Y-66000000D03*
%TD*%
D14*
%TO.C,C502*%
X35200000Y-38880000D03*
X35200000Y-37920000D03*
%TD*%
%TO.C,C405*%
X57803000Y-30132000D03*
X57803000Y-29172000D03*
%TD*%
D35*
%TO.C,C401*%
X55323000Y-59250000D03*
X54363000Y-59250000D03*
%TD*%
D27*
%TO.C,R506*%
X73090000Y-53600000D03*
X74110000Y-53600000D03*
%TD*%
D11*
%TO.C,C304*%
X69417000Y-63421000D03*
X70377000Y-63421000D03*
%TD*%
D23*
%TO.C,R115*%
X41300000Y-41510000D03*
X41300000Y-40490000D03*
%TD*%
D42*
%TO.C,J101*%
X47110000Y-26650000D03*
X52890000Y-26650000D03*
D43*
X45680000Y-23000000D03*
D44*
X45680000Y-27180000D03*
D43*
X54320000Y-23000000D03*
D44*
X54320000Y-27180000D03*
%TD*%
D45*
%TO.C,J201*%
X65200000Y-70140000D03*
X64184000Y-65060000D03*
X66216000Y-65060000D03*
%TD*%
D46*
%TO.C,MK401*%
X71148000Y-55294000D03*
%TD*%
M02*
