%TF.GenerationSoftware,KiCad,Pcbnew,10.0.6*%
%TF.CreationDate,2026-10-05T07:36:54+02:00*%
%TF.ProjectId,MAO_MAIN_A0,4d414f5f-4d41-4494-9e5f-41302e6b6963,A0*%
%TF.SameCoordinates,Original*%
%TF.FileFunction,Soldermask,Bot*%
%TF.FilePolarity,Negative*%
%FSLAX46Y46*%
G04 Gerber Fmt 4.6, Leading zero omitted, Abs format (unit mm)*
G04 Created by KiCad (PCBNEW 10.0.6) date 2026-10-05 07:36:54*
%MOMM*%
%LPD*%
G01*
G04 APERTURE LIST*
G04 Aperture macros list*
%AMRoundRect*
0 Rectangle with rounded corners*
0 $1 Rounding radius*
0 $2 $3 $4 $5 $6 $7 $8 $9 X,Y pos of 4 corners*
0 Add a 4 corners polygon primitive as box body*
4,1,4,$2,$3,$4,$5,$6,$7,$8,$9,$2,$3,0*
0 Add four circle primitives for the rounded corners*
1,1,$1+$1,$2,$3*
1,1,$1+$1,$4,$5*
1,1,$1+$1,$6,$7*
1,1,$1+$1,$8,$9*
0 Add four rect primitives between the rounded corners*
20,1,$1+$1,$2,$3,$4,$5,0*
20,1,$1+$1,$4,$5,$6,$7,0*
20,1,$1+$1,$6,$7,$8,$9,0*
20,1,$1+$1,$8,$9,$2,$3,0*%
%AMFreePoly0*
4,1,64,0.031751,0.146088,0.079639,0.146088,0.235856,0.115014,0.383010,0.054061,0.515445,-0.034429,0.628071,-0.147055,0.716561,-0.279490,0.777514,-0.426644,0.808588,-0.582861,0.808588,-0.742139,0.777514,-0.898356,0.716561,-1.045510,0.628071,-1.177945,0.515445,-1.290571,0.383010,-1.379061,0.235856,-1.440014,0.079639,-1.471088,-0.079639,-1.471088,-0.235856,-1.440014,-0.383010,-1.379061,
-0.515445,-1.290571,-0.628071,-1.177945,-0.716561,-1.045510,-0.777514,-0.898356,-0.808588,-0.742139,-0.808588,-0.595028,-0.512500,-0.595028,-0.512500,-0.729972,-0.477574,-0.860317,-0.410102,-0.977182,-0.314682,-1.072602,-0.197817,-1.140074,-0.067472,-1.175000,0.067472,-1.175000,0.197817,-1.140074,0.314682,-1.072602,0.410102,-0.977182,0.477574,-0.860317,0.512500,-0.729972,0.512500,-0.595028,
0.477574,-0.464683,0.410102,-0.347818,0.314682,-0.252398,0.197817,-0.184926,0.067472,-0.150000,-0.067472,-0.150000,-0.197817,-0.184926,-0.314682,-0.252398,-0.410102,-0.347818,-0.477574,-0.464683,-0.512500,-0.595028,-0.808588,-0.595028,-0.808588,-0.582861,-0.777514,-0.426644,-0.716561,-0.279490,-0.628071,-0.147055,-0.515445,-0.034429,-0.383010,0.054061,-0.235856,0.115014,-0.079639,0.146088,
-0.031751,0.146088,-0.029264,0.147118,0.029264,0.147118,0.031751,0.146088,0.031751,0.146088,$1*%
G04 Aperture macros list end*
%ADD10C,2.200000*%
%ADD11C,2.000000*%
%ADD12C,1.000000*%
%ADD13RoundRect,0.135000X-0.185000X0.135000X-0.185000X-0.135000X0.185000X-0.135000X0.185000X0.135000X0*%
%ADD14RoundRect,0.140000X0.170000X-0.140000X0.170000X0.140000X-0.170000X0.140000X-0.170000X-0.140000X0*%
%ADD15RoundRect,0.062500X-0.062500X0.325000X-0.062500X-0.325000X0.062500X-0.325000X0.062500X0.325000X0*%
%ADD16R,1.200000X0.600000*%
%ADD17RoundRect,0.100000X-0.700000X-1.000000X0.700000X-1.000000X0.700000X1.000000X-0.700000X1.000000X0*%
%ADD18C,0.650000*%
%ADD19RoundRect,0.150000X-0.150000X-0.575000X0.150000X-0.575000X0.150000X0.575000X-0.150000X0.575000X0*%
%ADD20RoundRect,0.075000X-0.075000X-0.650000X0.075000X-0.650000X0.075000X0.650000X-0.075000X0.650000X0*%
%ADD21O,1.000000X1.600000*%
%ADD22O,1.000000X2.100000*%
%ADD23C,1.200000*%
%ADD24RoundRect,0.225000X-0.250000X0.225000X-0.250000X-0.225000X0.250000X-0.225000X0.250000X0.225000X0*%
%ADD25RoundRect,0.225000X0.225000X0.250000X-0.225000X0.250000X-0.225000X-0.250000X0.225000X-0.250000X0*%
%ADD26RoundRect,0.150000X0.150000X-0.587500X0.150000X0.587500X-0.150000X0.587500X-0.150000X-0.587500X0*%
%ADD27RoundRect,0.062500X-0.375000X-0.062500X0.375000X-0.062500X0.375000X0.062500X-0.375000X0.062500X0*%
%ADD28RoundRect,0.062500X-0.062500X-0.375000X0.062500X-0.375000X0.062500X0.375000X-0.062500X0.375000X0*%
%ADD29R,1.450000X1.450000*%
%ADD30RoundRect,0.200000X0.275000X-0.200000X0.275000X0.200000X-0.275000X0.200000X-0.275000X-0.200000X0*%
%ADD31RoundRect,0.137500X0.137500X0.662500X-0.137500X0.662500X-0.137500X-0.662500X0.137500X-0.662500X0*%
%ADD32RoundRect,0.140000X-0.170000X0.140000X-0.170000X-0.140000X0.170000X-0.140000X0.170000X0.140000X0*%
%ADD33RoundRect,0.140000X0.140000X0.170000X-0.140000X0.170000X-0.140000X-0.170000X0.140000X-0.170000X0*%
%ADD34RoundRect,0.135000X-0.135000X-0.185000X0.135000X-0.185000X0.135000X0.185000X-0.135000X0.185000X0*%
%ADD35RoundRect,0.135000X0.185000X-0.135000X0.185000X0.135000X-0.185000X0.135000X-0.185000X-0.135000X0*%
%ADD36C,0.990600*%
%ADD37C,0.787400*%
%ADD38RoundRect,0.087500X0.662500X0.087500X-0.662500X0.087500X-0.662500X-0.087500X0.662500X-0.087500X0*%
%ADD39RoundRect,0.250000X-0.400000X-0.450000X0.400000X-0.450000X0.400000X0.450000X-0.400000X0.450000X0*%
%ADD40RoundRect,0.150000X0.750000X-0.350000X0.750000X0.350000X-0.750000X0.350000X-0.750000X-0.350000X0*%
%ADD41C,0.500000*%
%ADD42R,0.725000X0.522000*%
%ADD43FreePoly0,0.000000*%
%ADD44RoundRect,0.062500X-0.325000X-0.062500X0.325000X-0.062500X0.325000X0.062500X-0.325000X0.062500X0*%
%ADD45R,0.800000X1.200000*%
%ADD46RoundRect,0.075000X-0.075000X-0.175000X0.075000X-0.175000X0.075000X0.175000X-0.075000X0.175000X0*%
%ADD47RoundRect,0.140000X-0.140000X-0.170000X0.140000X-0.170000X0.140000X0.170000X-0.140000X0.170000X0*%
%ADD48R,1.500000X0.900000*%
%ADD49R,0.900000X1.500000*%
%ADD50C,0.600000*%
%ADD51R,3.900000X3.900000*%
%ADD52R,0.800000X0.300000*%
%ADD53R,0.800000X0.400000*%
%ADD54RoundRect,0.200000X-0.800000X-0.800000X0.800000X-0.800000X0.800000X0.800000X-0.800000X0.800000X0*%
%ADD55RoundRect,0.062500X-0.350000X-0.062500X0.350000X-0.062500X0.350000X0.062500X-0.350000X0.062500X0*%
%ADD56RoundRect,0.062500X-0.062500X-0.350000X0.062500X-0.350000X0.062500X0.350000X-0.062500X0.350000X0*%
%ADD57R,1.230000X1.230000*%
%ADD58RoundRect,0.150000X-0.587500X-0.150000X0.587500X-0.150000X0.587500X0.150000X-0.587500X0.150000X0*%
%ADD59RoundRect,0.225000X-0.225000X-0.250000X0.225000X-0.250000X0.225000X0.250000X-0.225000X0.250000X0*%
%ADD60RoundRect,0.050000X0.075000X-0.250000X0.075000X0.250000X-0.075000X0.250000X-0.075000X-0.250000X0*%
%ADD61RoundRect,0.050000X0.075000X-0.400000X0.075000X0.400000X-0.075000X0.400000X-0.075000X-0.400000X0*%
%ADD62RoundRect,0.050000X0.075000X-0.600000X0.075000X0.600000X-0.075000X0.600000X-0.075000X-0.600000X0*%
%ADD63RoundRect,0.050000X0.559692X0.481398X-0.093814X0.732256X-0.559692X-0.481398X0.093814X-0.732256X0*%
%ADD64RoundRect,0.050000X0.093814X0.732256X-0.559692X0.481398X-0.093814X-0.732256X0.559692X-0.481398X0*%
%ADD65RoundRect,0.150000X0.150000X0.625000X-0.150000X0.625000X-0.150000X-0.625000X0.150000X-0.625000X0*%
%ADD66RoundRect,0.250000X0.350000X0.650000X-0.350000X0.650000X-0.350000X-0.650000X0.350000X-0.650000X0*%
%ADD67RoundRect,0.250000X0.625000X-0.312500X0.625000X0.312500X-0.625000X0.312500X-0.625000X-0.312500X0*%
%ADD68RoundRect,0.135000X0.135000X0.185000X-0.135000X0.185000X-0.135000X-0.185000X0.135000X-0.185000X0*%
G04 APERTURE END LIST*
D10*
%TO.C,H2*%
X68579000Y-33272000D03*
%TD*%
%TO.C,H1*%
X31421000Y-33272000D03*
%TD*%
D11*
%TO.C,H3*%
X32322000Y-67678000D03*
%TD*%
D12*
%TO.C,TP13*%
X43600000Y-42800000D03*
%TD*%
D13*
%TO.C,R214*%
X58200000Y-46790000D03*
X58200000Y-47810000D03*
%TD*%
D11*
%TO.C,FID4*%
X27300000Y-36100000D03*
%TD*%
D14*
%TO.C,C406*%
X73300000Y-59480000D03*
X73300000Y-58520000D03*
%TD*%
D15*
%TO.C,U303*%
X40950000Y-46637500D03*
X41450000Y-46637500D03*
X41950000Y-46637500D03*
X42450000Y-46637500D03*
X42450000Y-48562500D03*
X41950000Y-48562500D03*
X41450000Y-48562500D03*
X40950000Y-48562500D03*
D16*
X41700000Y-47600000D03*
%TD*%
D17*
%TO.C,J303*%
X27600000Y-41200000D03*
%TD*%
D18*
%TO.C,J101*%
X47110000Y-26650000D03*
X52890000Y-26650000D03*
D19*
X46750000Y-28095000D03*
X47550000Y-28095000D03*
D20*
X48750000Y-28095000D03*
X49750000Y-28095000D03*
X50250000Y-28095000D03*
X51250000Y-28095000D03*
D19*
X52450000Y-28095000D03*
X53250000Y-28095000D03*
X53250000Y-28095000D03*
X52450000Y-28095000D03*
D20*
X51750000Y-28095000D03*
X50750000Y-28095000D03*
X49250000Y-28095000D03*
X48250000Y-28095000D03*
D19*
X47550000Y-28095000D03*
X46750000Y-28095000D03*
D21*
X45680000Y-23000000D03*
D22*
X45680000Y-27180000D03*
D21*
X54320000Y-23000000D03*
D22*
X54320000Y-27180000D03*
%TD*%
D23*
%TO.C,TP16*%
X64400000Y-47300000D03*
%TD*%
D24*
%TO.C,C105*%
X55570000Y-38225000D03*
X55570000Y-39775000D03*
%TD*%
D23*
%TO.C,TP4*%
X61600000Y-44300000D03*
%TD*%
D24*
%TO.C,C107*%
X48890000Y-38225000D03*
X48890000Y-39775000D03*
%TD*%
D25*
%TO.C,C201*%
X37375000Y-70150000D03*
X35825000Y-70150000D03*
%TD*%
D12*
%TO.C,TP11*%
X58800000Y-50300000D03*
%TD*%
D26*
%TO.C,Q501*%
X60550000Y-29737500D03*
X58650000Y-29737500D03*
X59600000Y-27862500D03*
%TD*%
D27*
%TO.C,U202*%
X39562500Y-37650000D03*
X39562500Y-37150000D03*
X39562500Y-36650000D03*
X39562500Y-36150000D03*
D28*
X40250000Y-35462500D03*
X40750000Y-35462500D03*
X41250000Y-35462500D03*
X41750000Y-35462500D03*
D27*
X42437500Y-36150000D03*
X42437500Y-36650000D03*
X42437500Y-37150000D03*
X42437500Y-37650000D03*
D28*
X41750000Y-38337500D03*
X41250000Y-38337500D03*
X40750000Y-38337500D03*
X40250000Y-38337500D03*
D29*
X41000000Y-36900000D03*
%TD*%
D23*
%TO.C,TP3*%
X58800000Y-44300000D03*
%TD*%
D12*
%TO.C,TP10*%
X56000000Y-47300000D03*
%TD*%
D30*
%TO.C,R501*%
X38673000Y-28328000D03*
X38673000Y-26678000D03*
%TD*%
D31*
%TO.C,L101*%
X53725000Y-36410000D03*
X52275000Y-36410000D03*
%TD*%
D32*
%TO.C,C407*%
X71590000Y-59040000D03*
X71590000Y-60000000D03*
%TD*%
D13*
%TO.C,R109*%
X64250000Y-41490000D03*
X64250000Y-42510000D03*
%TD*%
D33*
%TO.C,C205*%
X41210000Y-39800000D03*
X40250000Y-39800000D03*
%TD*%
D34*
%TO.C,R308*%
X61090000Y-69600000D03*
X62110000Y-69600000D03*
%TD*%
D35*
%TO.C,R207*%
X39162000Y-34550000D03*
X39162000Y-33530000D03*
%TD*%
%TO.C,R212*%
X63088000Y-33500000D03*
X63088000Y-32480000D03*
%TD*%
D11*
%TO.C,FID6*%
X69000000Y-68200000D03*
%TD*%
D35*
%TO.C,R113*%
X51400000Y-42010000D03*
X51400000Y-40990000D03*
%TD*%
%TO.C,R301*%
X49365000Y-51750000D03*
X49365000Y-50730000D03*
%TD*%
D36*
%TO.C,J201*%
X65200000Y-70140000D03*
X64184000Y-65060000D03*
X66216000Y-65060000D03*
D37*
X64565000Y-68870000D03*
X65835000Y-68870000D03*
X64565000Y-67600000D03*
X65835000Y-67600000D03*
X64565000Y-66330000D03*
X65835000Y-66330000D03*
%TD*%
D34*
%TO.C,R503*%
X59530000Y-31438000D03*
X60550000Y-31438000D03*
%TD*%
D12*
%TO.C,TP9*%
X56000000Y-50300000D03*
%TD*%
%TO.C,TP15*%
X72350000Y-50930000D03*
%TD*%
D34*
%TO.C,R403*%
X61350000Y-55570000D03*
X62370000Y-55570000D03*
%TD*%
D30*
%TO.C,R502*%
X56627000Y-26752000D03*
X56627000Y-25102000D03*
%TD*%
D35*
%TO.C,R203*%
X58400000Y-35810000D03*
X58400000Y-34790000D03*
%TD*%
D38*
%TO.C,U502*%
X36500000Y-61400000D03*
X36500000Y-61900000D03*
X36500000Y-62400000D03*
X36500000Y-62900000D03*
X36500000Y-63400000D03*
X32300000Y-63400000D03*
X32300000Y-62900000D03*
X32300000Y-62400000D03*
X32300000Y-61900000D03*
X32300000Y-61400000D03*
%TD*%
D13*
%TO.C,R213*%
X59440000Y-46790000D03*
X59440000Y-47810000D03*
%TD*%
D39*
%TO.C,D101*%
X53200000Y-30500000D03*
X56100000Y-30500000D03*
%TD*%
D34*
%TO.C,R110*%
X70240000Y-42250000D03*
X71260000Y-42250000D03*
%TD*%
D23*
%TO.C,TP2*%
X56000000Y-44300000D03*
%TD*%
D40*
%TO.C,J501*%
X29162000Y-62330000D03*
X29162000Y-59830000D03*
%TD*%
D14*
%TO.C,C204*%
X56200000Y-35780000D03*
X56200000Y-34820000D03*
%TD*%
D41*
%TO.C,MK401*%
X71148000Y-55294000D03*
D42*
X70310500Y-57368000D03*
X70310500Y-56546000D03*
D43*
X71148000Y-54631500D03*
D42*
X71985500Y-56546000D03*
X71985500Y-57368000D03*
%TD*%
D13*
%TO.C,R209*%
X37600000Y-64340000D03*
X37600000Y-65360000D03*
%TD*%
D35*
%TO.C,R111*%
X55100000Y-42010000D03*
X55100000Y-40990000D03*
%TD*%
D12*
%TO.C,TP8*%
X61600000Y-50300000D03*
%TD*%
D14*
%TO.C,C203*%
X38300000Y-68780000D03*
X38300000Y-67820000D03*
%TD*%
D35*
%TO.C,R201*%
X39550000Y-69810000D03*
X39550000Y-68790000D03*
%TD*%
D14*
%TO.C,C104*%
X61300000Y-35430000D03*
X61300000Y-34470000D03*
%TD*%
%TO.C,C504*%
X35600000Y-59880000D03*
X35600000Y-58920000D03*
%TD*%
D44*
%TO.C,U103*%
X62712500Y-36200000D03*
X62712500Y-35700000D03*
X62712500Y-35200000D03*
X62712500Y-34700000D03*
X64687500Y-34700000D03*
X64687500Y-35200000D03*
X64687500Y-35700000D03*
X64687500Y-36200000D03*
D45*
X63700000Y-35450000D03*
%TD*%
D13*
%TO.C,R102*%
X51900000Y-32240000D03*
X51900000Y-33260000D03*
%TD*%
%TO.C,R114*%
X52500000Y-40990000D03*
X52500000Y-42010000D03*
%TD*%
D35*
%TO.C,R302*%
X48095000Y-51750000D03*
X48095000Y-50730000D03*
%TD*%
D23*
%TO.C,TP1*%
X61600000Y-47300000D03*
%TD*%
D46*
%TO.C,D304*%
X29600000Y-41200000D03*
X30300000Y-41200000D03*
%TD*%
D13*
%TO.C,R101*%
X48400000Y-29990000D03*
X48400000Y-31010000D03*
%TD*%
D47*
%TO.C,C202*%
X38770000Y-71050000D03*
X39730000Y-71050000D03*
%TD*%
D32*
%TO.C,C111*%
X53000000Y-43220000D03*
X53000000Y-44180000D03*
%TD*%
D48*
%TO.C,U201*%
X41250000Y-71210000D03*
X41250000Y-69940000D03*
X41250000Y-68670000D03*
X41250000Y-67400000D03*
X41250000Y-66130000D03*
X41250000Y-64860000D03*
X41250000Y-63590000D03*
X41250000Y-62320000D03*
X41250000Y-61050000D03*
X41250000Y-59780000D03*
X41250000Y-58510000D03*
X41250000Y-57240000D03*
X41250000Y-55970000D03*
X41250000Y-54700000D03*
D49*
X43015000Y-53450000D03*
X44285000Y-53450000D03*
X45555000Y-53450000D03*
X46825000Y-53450000D03*
X48095000Y-53450000D03*
X49365000Y-53450000D03*
X50635000Y-53450000D03*
X51905000Y-53450000D03*
X53175000Y-53450000D03*
X54445000Y-53450000D03*
X55715000Y-53450000D03*
X56985000Y-53450000D03*
D48*
X58750000Y-54700000D03*
X58750000Y-55970000D03*
X58750000Y-57240000D03*
X58750000Y-58510000D03*
X58750000Y-59780000D03*
X58750000Y-61050000D03*
X58750000Y-62320000D03*
X58750000Y-63590000D03*
X58750000Y-64860000D03*
X58750000Y-66130000D03*
X58750000Y-67400000D03*
X58750000Y-68670000D03*
X58750000Y-69940000D03*
X58750000Y-71210000D03*
D50*
X47100000Y-62790000D03*
X47100000Y-64190000D03*
X47800000Y-62090000D03*
X47800000Y-63490000D03*
X47800000Y-64890000D03*
X48500000Y-62790000D03*
D51*
X48500000Y-63490000D03*
D50*
X48500000Y-64190000D03*
X49200000Y-62090000D03*
X49200000Y-63490000D03*
X49200000Y-64890000D03*
X49900000Y-62790000D03*
X49900000Y-64190000D03*
%TD*%
D13*
%TO.C,R112*%
X54000000Y-40990000D03*
X54000000Y-42010000D03*
%TD*%
D12*
%TO.C,TP7*%
X64400000Y-50300000D03*
%TD*%
D13*
%TO.C,R202*%
X60400000Y-52740000D03*
X60400000Y-53760000D03*
%TD*%
D52*
%TO.C,J301*%
X38850000Y-54250000D03*
X38850000Y-53750000D03*
X38850000Y-53250000D03*
X38850000Y-52750000D03*
X38850000Y-52250000D03*
X38850000Y-51750000D03*
X38850000Y-51250000D03*
X38850000Y-50750000D03*
X38850000Y-50250000D03*
X38850000Y-49750000D03*
X38850000Y-49250000D03*
X38850000Y-48750000D03*
X38850000Y-48250000D03*
X38850000Y-47750000D03*
X38850000Y-47250000D03*
X38850000Y-46750000D03*
X38850000Y-46250000D03*
X38850000Y-45750000D03*
D53*
X36350000Y-55250000D03*
X36350000Y-44750000D03*
%TD*%
D54*
%TO.C,LS501*%
X29350000Y-57550000D03*
X29350000Y-43650000D03*
%TD*%
D12*
%TO.C,TP14*%
X72300000Y-62080000D03*
%TD*%
D11*
%TO.C,FID5*%
X71000000Y-37000000D03*
%TD*%
D35*
%TO.C,R504*%
X62150000Y-29737000D03*
X62150000Y-28717000D03*
%TD*%
D47*
%TO.C,C503*%
X32520000Y-60000000D03*
X33480000Y-60000000D03*
%TD*%
D35*
%TO.C,R204*%
X57300000Y-35810000D03*
X57300000Y-34790000D03*
%TD*%
D55*
%TO.C,U501*%
X34162500Y-42050000D03*
X34162500Y-41550000D03*
X34162500Y-41050000D03*
X34162500Y-40550000D03*
D56*
X34850000Y-39862500D03*
X35350000Y-39862500D03*
X35850000Y-39862500D03*
X36350000Y-39862500D03*
D55*
X37037500Y-40550000D03*
X37037500Y-41050000D03*
X37037500Y-41550000D03*
X37037500Y-42050000D03*
D56*
X36350000Y-42737500D03*
X35850000Y-42737500D03*
X35350000Y-42737500D03*
X34850000Y-42737500D03*
D57*
X35600000Y-41300000D03*
%TD*%
D23*
%TO.C,TP5*%
X64400000Y-44300000D03*
%TD*%
D14*
%TO.C,C305*%
X41950000Y-45238000D03*
X41950000Y-44278000D03*
%TD*%
D35*
%TO.C,R205*%
X61700000Y-52920000D03*
X61700000Y-51900000D03*
%TD*%
D58*
%TO.C,Q101*%
X64162500Y-40125000D03*
X64162500Y-38225000D03*
X66037500Y-39175000D03*
%TD*%
D59*
%TO.C,C505*%
X63625000Y-31100000D03*
X65175000Y-31100000D03*
%TD*%
D35*
%TO.C,R402*%
X70390000Y-60170000D03*
X70390000Y-59150000D03*
%TD*%
D60*
%TO.C,U104*%
X54000000Y-39900000D03*
X53500000Y-39900000D03*
X53000000Y-39900000D03*
X52500000Y-39900000D03*
X52000000Y-39900000D03*
D61*
X52000000Y-38250000D03*
X52500000Y-38250000D03*
D62*
X53000000Y-38450000D03*
D61*
X53500000Y-38250000D03*
X54000000Y-38250000D03*
%TD*%
D63*
%TO.C,D502*%
X61327371Y-24677552D03*
X58526629Y-23602448D03*
%TD*%
D23*
%TO.C,TP6*%
X55500000Y-33050000D03*
%TD*%
D64*
%TO.C,D501*%
X41473371Y-23602448D03*
X38672629Y-24677552D03*
%TD*%
D65*
%TO.C,J102*%
X70260000Y-44285000D03*
X69260000Y-44285000D03*
X68260000Y-44285000D03*
D66*
X71560000Y-48160000D03*
X66960000Y-48160000D03*
%TD*%
D67*
%TO.C,R108*%
X68260000Y-42097500D03*
X68260000Y-39172500D03*
%TD*%
D24*
%TO.C,C106*%
X50430000Y-38225000D03*
X50430000Y-39775000D03*
%TD*%
D68*
%TO.C,R206*%
X46640000Y-37150000D03*
X45620000Y-37150000D03*
%TD*%
M02*
