%TF.GenerationSoftware,KiCad,Pcbnew,10.0.6*%
%TF.CreationDate,2026-10-05T01:23:28+02:00*%
%TF.ProjectId,MAO_MAIN_A0,4d414f5f-4d41-4494-9e5f-41302e6b6963,A0*%
%TF.SameCoordinates,Original*%
%TF.FileFunction,Paste,Top*%
%TF.FilePolarity,Positive*%
%FSLAX46Y46*%
G04 Gerber Fmt 4.6, Leading zero omitted, Abs format (unit mm)*
G04 Created by KiCad (PCBNEW 10.0.6) date 2026-10-05 01:23:28*
%MOMM*%
%LPD*%
G01*
G04 APERTURE LIST*
G04 Aperture macros list*
%AMRoundRect*
0 Rectangle with rounded corners*
0 $1 Rounding radius*
0 $2 $3 $4 $5 $6 $7 $8 $9 X,Y pos of 4 corners*
0 Add a 4 corners polygon primitive as box body*
4,1,4,$2,$3,$4,$5,$6,$7,$8,$9,$2,$3,0*
0 Add four circle primitives for the rounded corners*
1,1,$1+$1,$2,$3*
1,1,$1+$1,$4,$5*
1,1,$1+$1,$6,$7*
1,1,$1+$1,$8,$9*
0 Add four rect primitives between the rounded corners*
20,1,$1+$1,$2,$3,$4,$5,0*
20,1,$1+$1,$4,$5,$6,$7,0*
20,1,$1+$1,$6,$7,$8,$9,0*
20,1,$1+$1,$8,$9,$2,$3,0*%
%AMRotRect*
0 Rectangle, with rotation*
0 The origin of the aperture is its center*
0 $1 length*
0 $2 width*
0 $3 Rotation angle, in degrees counterclockwise*
0 Add horizontal line*
21,1,$1,$2,0,0,$3*%
G04 Aperture macros list end*
%ADD10RoundRect,0.135000X-0.135000X-0.185000X0.135000X-0.185000X0.135000X0.185000X-0.135000X0.185000X0*%
%ADD11RoundRect,0.140000X0.170000X-0.140000X0.170000X0.140000X-0.170000X0.140000X-0.170000X-0.140000X0*%
%ADD12R,0.800000X0.300000*%
%ADD13R,0.800000X0.400000*%
%ADD14RoundRect,0.140000X0.140000X0.170000X-0.140000X0.170000X-0.140000X-0.170000X0.140000X-0.170000X0*%
%ADD15RoundRect,0.075000X-0.175000X0.075000X-0.175000X-0.075000X0.175000X-0.075000X0.175000X0.075000X0*%
%ADD16RoundRect,0.225000X0.250000X-0.225000X0.250000X0.225000X-0.250000X0.225000X-0.250000X-0.225000X0*%
%ADD17RoundRect,0.135000X0.185000X-0.135000X0.185000X0.135000X-0.185000X0.135000X-0.185000X-0.135000X0*%
%ADD18RoundRect,0.135000X0.135000X0.185000X-0.135000X0.185000X-0.135000X-0.185000X0.135000X-0.185000X0*%
%ADD19RoundRect,0.100000X0.315765X1.179107X-0.999805X0.700279X-0.315765X-1.179107X0.999805X-0.700279X0*%
%ADD20RoundRect,0.125000X-0.110373X0.058675X0.110364X-0.058693X0.110373X-0.058675X-0.110364X0.058693X0*%
%ADD21RoundRect,0.035000X-0.375361X-0.295916X-0.035426X-0.476663X0.375361X0.295916X0.035426X0.476663X0*%
%ADD22RoundRect,0.140000X-0.140000X-0.170000X0.140000X-0.170000X0.140000X0.170000X-0.140000X0.170000X0*%
%ADD23RoundRect,0.120000X0.020475X0.232338X-0.214639X-0.091269X-0.020475X-0.232338X0.214639X0.091269X0*%
%ADD24RoundRect,0.062500X-0.135180X0.175468X-0.208653X0.074341X0.135180X-0.175468X0.208653X-0.074341X0*%
%ADD25R,1.800000X1.100000*%
%ADD26RoundRect,0.087500X-0.087500X0.250000X-0.087500X-0.250000X0.087500X-0.250000X0.087500X0.250000X0*%
%ADD27RoundRect,0.120000X-0.003923X0.233205X-0.203923X-0.113205X0.003923X-0.233205X0.203923X0.113205X0*%
%ADD28RoundRect,0.062500X-0.152780X0.160377X-0.215280X0.052123X0.152780X-0.160377X0.215280X-0.052123X0*%
%ADD29RoundRect,0.075000X-0.075000X-0.175000X0.075000X-0.175000X0.075000X0.175000X-0.075000X0.175000X0*%
%ADD30RotRect,0.500000X0.500000X118.000000*%
%ADD31RoundRect,0.275000X-0.275000X0.475000X-0.275000X-0.475000X0.275000X-0.475000X0.275000X0.475000X0*%
%ADD32RoundRect,0.075000X0.175000X-0.075000X0.175000X0.075000X-0.175000X0.075000X-0.175000X-0.075000X0*%
%ADD33RoundRect,0.087500X-0.225000X-0.087500X0.225000X-0.087500X0.225000X0.087500X-0.225000X0.087500X0*%
%ADD34RoundRect,0.087500X-0.087500X-0.225000X0.087500X-0.225000X0.087500X0.225000X-0.087500X0.225000X0*%
G04 APERTURE END LIST*
D10*
%TO.C,R211*%
X69950000Y-58150000D03*
X70970000Y-58150000D03*
%TD*%
D11*
%TO.C,C301*%
X39600000Y-54650000D03*
X39600000Y-53690000D03*
%TD*%
D12*
%TO.C,J301*%
X38000000Y-45750000D03*
X38000000Y-46250000D03*
X38000000Y-46750000D03*
X38000000Y-47250000D03*
X38000000Y-47750000D03*
X38000000Y-48250000D03*
X38000000Y-48750000D03*
X38000000Y-49250000D03*
X38000000Y-49750000D03*
X38000000Y-50250000D03*
X38000000Y-50750000D03*
X38000000Y-51250000D03*
X38000000Y-51750000D03*
X38000000Y-52250000D03*
X38000000Y-52750000D03*
X38000000Y-53250000D03*
X38000000Y-53750000D03*
X38000000Y-54250000D03*
D13*
X35500000Y-44750000D03*
X35500000Y-55250000D03*
%TD*%
D14*
%TO.C,C401*%
X55323000Y-59250000D03*
X54363000Y-59250000D03*
%TD*%
D15*
%TO.C,D302*%
X72845000Y-42113000D03*
X72845000Y-42813000D03*
%TD*%
D16*
%TO.C,C302*%
X39800000Y-47150000D03*
X39800000Y-45600000D03*
%TD*%
D17*
%TO.C,R210*%
X42684000Y-29024000D03*
X42684000Y-28004000D03*
%TD*%
D18*
%TO.C,R401*%
X44560000Y-31240000D03*
X43540000Y-31240000D03*
%TD*%
D10*
%TO.C,R506*%
X67630000Y-54950000D03*
X68650000Y-54950000D03*
%TD*%
D19*
%TO.C,J302*%
X30079000Y-57251000D03*
%TD*%
D20*
%TO.C,U403*%
X59419356Y-30262086D03*
X59114200Y-30836002D03*
X58809043Y-31409918D03*
X60486644Y-32301914D03*
X60791800Y-31727998D03*
X61096957Y-31154082D03*
D21*
X59953000Y-31282000D03*
%TD*%
D22*
%TO.C,C402*%
X51720000Y-59250000D03*
X52680000Y-59250000D03*
%TD*%
D16*
%TO.C,C404*%
X36259000Y-30227000D03*
X36259000Y-28677000D03*
%TD*%
D23*
%TO.C,U302*%
X71277000Y-65459000D03*
D24*
X72050934Y-65712279D03*
X70796958Y-64801212D03*
X70503066Y-65205721D03*
X71757042Y-66116788D03*
%TD*%
D18*
%TO.C,R310*%
X39010000Y-64860000D03*
X37990000Y-64860000D03*
%TD*%
D10*
%TO.C,R306*%
X69557000Y-68817000D03*
X70577000Y-68817000D03*
%TD*%
D25*
%TO.C,SW301*%
X46900000Y-45650000D03*
X53100000Y-45650000D03*
X46900000Y-49350000D03*
X53100000Y-49350000D03*
%TD*%
D16*
%TO.C,C506*%
X70070000Y-56650000D03*
X70070000Y-55100000D03*
%TD*%
D26*
%TO.C,U101*%
X50500000Y-31287500D03*
X50000000Y-31287500D03*
X49500000Y-31287500D03*
X49500000Y-32712500D03*
X50500000Y-32712500D03*
%TD*%
D27*
%TO.C,U301*%
X72776000Y-63150000D03*
D28*
X73572170Y-63320994D03*
X72229830Y-62545994D03*
X71979830Y-62979006D03*
X73322170Y-63754006D03*
%TD*%
D11*
%TO.C,C403*%
X36510000Y-32540000D03*
X36510000Y-31580000D03*
%TD*%
D29*
%TO.C,D303*%
X28979000Y-53551000D03*
X29679000Y-53551000D03*
%TD*%
D22*
%TO.C,C304*%
X70751000Y-67512000D03*
X71711000Y-67512000D03*
%TD*%
D18*
%TO.C,R307*%
X39010000Y-67400000D03*
X37990000Y-67400000D03*
%TD*%
%TO.C,R505*%
X72470000Y-56750000D03*
X71450000Y-56750000D03*
%TD*%
D22*
%TO.C,C303*%
X71972000Y-61121000D03*
X72932000Y-61121000D03*
%TD*%
D11*
%TO.C,C405*%
X58119000Y-29662000D03*
X58119000Y-28702000D03*
%TD*%
D30*
%TO.C,U402*%
X38258707Y-31326796D03*
X38969759Y-30960049D03*
X39671423Y-30575642D03*
X40377781Y-30200065D03*
X41084139Y-29824487D03*
X41459716Y-30530845D03*
X41835293Y-31237204D03*
X41128935Y-31612781D03*
X40422577Y-31988358D03*
X39716219Y-32363935D03*
X39009861Y-32739513D03*
X38634284Y-32033155D03*
%TD*%
D31*
%TO.C,U503*%
X72670000Y-46850000D03*
X70130000Y-46850000D03*
X70130000Y-53150000D03*
X72670000Y-53150000D03*
%TD*%
D18*
%TO.C,R309*%
X39010000Y-66130000D03*
X37990000Y-66130000D03*
%TD*%
D32*
%TO.C,D301*%
X27155000Y-57887000D03*
X27155000Y-57187000D03*
%TD*%
D33*
%TO.C,U401*%
X52037500Y-56250000D03*
X52037500Y-56750000D03*
X52037500Y-57250000D03*
X52037500Y-57750000D03*
D34*
X52700000Y-57912500D03*
X53200000Y-57912500D03*
X53700000Y-57912500D03*
D33*
X54362500Y-57750000D03*
X54362500Y-57250000D03*
X54362500Y-56750000D03*
X54362500Y-56250000D03*
D34*
X53700000Y-56087500D03*
X53200000Y-56087500D03*
X52700000Y-56087500D03*
%TD*%
M02*
