%TF.GenerationSoftware,KiCad,Pcbnew,10.0.6*%
%TF.CreationDate,2026-10-06T21:25:36+02:00*%
%TF.ProjectId,MAO_MAIN_A1,4d414f5f-4d41-4494-9e5f-41312e6b6963,A1*%
%TF.SameCoordinates,Original*%
%TF.FileFunction,Legend,Bot*%
%TF.FilePolarity,Positive*%
%FSLAX46Y46*%
G04 Gerber Fmt 4.6, Leading zero omitted, Abs format (unit mm)*
G04 Created by KiCad (PCBNEW 10.0.6) date 2026-10-06 21:25:36*
%MOMM*%
%LPD*%
G01*
G04 APERTURE LIST*
G04 Aperture macros list*
%AMRoundRect*
0 Rectangle with rounded corners*
0 $1 Rounding radius*
0 $2 $3 $4 $5 $6 $7 $8 $9 X,Y pos of 4 corners*
0 Add a 4 corners polygon primitive as box body*
4,1,4,$2,$3,$4,$5,$6,$7,$8,$9,$2,$3,0*
0 Add four circle primitives for the rounded corners*
1,1,$1+$1,$2,$3*
1,1,$1+$1,$4,$5*
1,1,$1+$1,$6,$7*
1,1,$1+$1,$8,$9*
0 Add four rect primitives between the rounded corners*
20,1,$1+$1,$2,$3,$4,$5,0*
20,1,$1+$1,$4,$5,$6,$7,0*
20,1,$1+$1,$6,$7,$8,$9,0*
20,1,$1+$1,$8,$9,$2,$3,0*%
%AMOutline5P*
0 Free polygon, 5 corners , with rotation*
0 The origin of the aperture is its center*
0 number of corners: always 5*
0 $1 to $10 corner X, Y*
0 $11 Rotation angle, in degrees counterclockwise*
0 create outline with 5 corners*
4,1,5,$1,$2,$3,$4,$5,$6,$7,$8,$9,$10,$1,$2,$11*%
%AMOutline6P*
0 Free polygon, 6 corners , with rotation*
0 The origin of the aperture is its center*
0 number of corners: always 6*
0 $1 to $12 corner X, Y*
0 $13 Rotation angle, in degrees counterclockwise*
0 create outline with 6 corners*
4,1,6,$1,$2,$3,$4,$5,$6,$7,$8,$9,$10,$11,$12,$1,$2,$13*%
%AMOutline7P*
0 Free polygon, 7 corners , with rotation*
0 The origin of the aperture is its center*
0 number of corners: always 7*
0 $1 to $14 corner X, Y*
0 $15 Rotation angle, in degrees counterclockwise*
0 create outline with 7 corners*
4,1,7,$1,$2,$3,$4,$5,$6,$7,$8,$9,$10,$11,$12,$13,$14,$1,$2,$15*%
%AMOutline8P*
0 Free polygon, 8 corners , with rotation*
0 The origin of the aperture is its center*
0 number of corners: always 8*
0 $1 to $16 corner X, Y*
0 $17 Rotation angle, in degrees counterclockwise*
0 create outline with 8 corners*
4,1,8,$1,$2,$3,$4,$5,$6,$7,$8,$9,$10,$11,$12,$13,$14,$15,$16,$1,$2,$17*%
G04 Aperture macros list end*
%ADD10C,0.000000*%
%ADD11C,0.150000*%
%ADD12C,0.160000*%
%ADD13C,0.180000*%
%ADD14C,0.240000*%
%ADD15C,0.300000*%
%ADD16C,0.120000*%
%ADD17C,0.100001*%
%ADD18C,2.000000*%
%ADD19C,2.200000*%
%ADD20RoundRect,0.135000X-0.135000X-0.185000X0.135000X-0.185000X0.135000X0.185000X-0.135000X0.185000X0*%
%ADD21C,1.000000*%
%ADD22RoundRect,0.140000X0.170000X-0.140000X0.170000X0.140000X-0.170000X0.140000X-0.170000X-0.140000X0*%
%ADD23RoundRect,0.150000X-0.587500X-0.150000X0.587500X-0.150000X0.587500X0.150000X-0.587500X0.150000X0*%
%ADD24C,1.200000*%
%ADD25RoundRect,0.135000X0.185000X-0.135000X0.185000X0.135000X-0.185000X0.135000X-0.185000X-0.135000X0*%
%ADD26C,0.650000*%
%ADD27RoundRect,0.150000X-0.150000X-0.575000X0.150000X-0.575000X0.150000X0.575000X-0.150000X0.575000X0*%
%ADD28RoundRect,0.075000X-0.075000X-0.650000X0.075000X-0.650000X0.075000X0.650000X-0.075000X0.650000X0*%
%ADD29O,1.000000X1.600000*%
%ADD30O,1.000000X2.100000*%
%ADD31R,0.800000X0.300000*%
%ADD32R,0.800000X0.400000*%
%ADD33RoundRect,0.250000X0.625000X-0.312500X0.625000X0.312500X-0.625000X0.312500X-0.625000X-0.312500X0*%
%ADD34RoundRect,0.225000X-0.225000X-0.250000X0.225000X-0.250000X0.225000X0.250000X-0.225000X0.250000X0*%
%ADD35RoundRect,0.200000X0.275000X-0.200000X0.275000X0.200000X-0.275000X0.200000X-0.275000X-0.200000X0*%
%ADD36RoundRect,0.150000X0.150000X-0.587500X0.150000X0.587500X-0.150000X0.587500X-0.150000X-0.587500X0*%
%ADD37RoundRect,0.225000X0.250000X-0.225000X0.250000X0.225000X-0.250000X0.225000X-0.250000X-0.225000X0*%
%ADD38RoundRect,0.225000X-0.250000X0.225000X-0.250000X-0.225000X0.250000X-0.225000X0.250000X0.225000X0*%
%ADD39RoundRect,0.135000X-0.185000X0.135000X-0.185000X-0.135000X0.185000X-0.135000X0.185000X0.135000X0*%
%ADD40C,0.990600*%
%ADD41C,0.787400*%
%ADD42RoundRect,0.137500X0.137500X0.662500X-0.137500X0.662500X-0.137500X-0.662500X0.137500X-0.662500X0*%
%ADD43RoundRect,0.050000X0.093814X0.732256X-0.559692X0.481398X-0.093814X-0.732256X0.559692X-0.481398X0*%
%ADD44RoundRect,0.150000X0.587500X0.150000X-0.587500X0.150000X-0.587500X-0.150000X0.587500X-0.150000X0*%
%ADD45RoundRect,0.062500X0.237500X0.062500X-0.237500X0.062500X-0.237500X-0.062500X0.237500X-0.062500X0*%
%ADD46RoundRect,0.135000X0.135000X0.185000X-0.135000X0.185000X-0.135000X-0.185000X0.135000X-0.185000X0*%
%ADD47RoundRect,0.250000X-0.400000X-0.450000X0.400000X-0.450000X0.400000X0.450000X-0.400000X0.450000X0*%
%ADD48RoundRect,0.062500X-0.325000X-0.062500X0.325000X-0.062500X0.325000X0.062500X-0.325000X0.062500X0*%
%ADD49R,0.800000X1.200000*%
%ADD50RoundRect,0.150000X-0.512500X-0.150000X0.512500X-0.150000X0.512500X0.150000X-0.512500X0.150000X0*%
%ADD51RoundRect,0.140000X-0.140000X-0.170000X0.140000X-0.170000X0.140000X0.170000X-0.140000X0.170000X0*%
%ADD52RoundRect,0.150000X0.750000X-0.350000X0.750000X0.350000X-0.750000X0.350000X-0.750000X-0.350000X0*%
%ADD53RoundRect,0.200000X-0.800000X-0.800000X0.800000X-0.800000X0.800000X0.800000X-0.800000X0.800000X0*%
%ADD54RoundRect,0.050000X0.559692X0.481398X-0.093814X0.732256X-0.559692X-0.481398X0.093814X-0.732256X0*%
%ADD55R,0.400000X0.800000*%
%ADD56R,1.200000X1.200000*%
%ADD57Outline5P,-0.600000X0.600000X0.600000X0.600000X0.600000X-0.600000X-0.204000X-0.600000X-0.600000X-0.204000X0.000000*%
%ADD58R,0.800000X0.800000*%
%ADD59RoundRect,0.062500X-0.350000X-0.062500X0.350000X-0.062500X0.350000X0.062500X-0.350000X0.062500X0*%
%ADD60RoundRect,0.062500X-0.062500X-0.350000X0.062500X-0.350000X0.062500X0.350000X-0.062500X0.350000X0*%
%ADD61R,1.230000X1.230000*%
%ADD62RoundRect,0.200000X-0.200000X-0.275000X0.200000X-0.275000X0.200000X0.275000X-0.200000X0.275000X0*%
%ADD63RoundRect,0.087500X0.662500X0.087500X-0.662500X0.087500X-0.662500X-0.087500X0.662500X-0.087500X0*%
%ADD64RoundRect,0.150000X0.150000X0.625000X-0.150000X0.625000X-0.150000X-0.625000X0.150000X-0.625000X0*%
%ADD65RoundRect,0.250000X0.350000X0.650000X-0.350000X0.650000X-0.350000X-0.650000X0.350000X-0.650000X0*%
%ADD66RoundRect,0.140000X-0.170000X0.140000X-0.170000X-0.140000X0.170000X-0.140000X0.170000X0.140000X0*%
G04 APERTURE END LIST*
D10*
G36*
X62975500Y-49458500D02*
G01*
X62893399Y-49612000D01*
X62809900Y-49728200D01*
X62723499Y-49816300D01*
X62675399Y-49852100D01*
X62606899Y-49891200D01*
X62552299Y-49912600D01*
X62514399Y-49920500D01*
X62455199Y-49922500D01*
X62393199Y-49912600D01*
X62386599Y-49867900D01*
X62384999Y-49804800D01*
X62389399Y-49765400D01*
X62398199Y-49728100D01*
X62418699Y-49675900D01*
X62466599Y-49597800D01*
X62503199Y-49556200D01*
X62543899Y-49519200D01*
X62636799Y-49455100D01*
X62716599Y-49415800D01*
X62860699Y-49364300D01*
X63031200Y-49318600D01*
X62975500Y-49458500D01*
G37*
G36*
X63482800Y-50427600D02*
G01*
X63457300Y-50467400D01*
X63289300Y-50647000D01*
X63218199Y-50742000D01*
X63185799Y-50812999D01*
X63172000Y-50898199D01*
X63023099Y-51010400D01*
X62916799Y-51080800D01*
X62831399Y-51127700D01*
X62738899Y-51165500D01*
X62604400Y-51201800D01*
X62566900Y-51171400D01*
X62522999Y-51117700D01*
X62494400Y-51096199D01*
X62554900Y-50993400D01*
X62655599Y-50765499D01*
X62711999Y-50661699D01*
X62763899Y-50597600D01*
X62841699Y-50536400D01*
X62926799Y-50489500D01*
X63022299Y-50456100D01*
X63091599Y-50441300D01*
X63315000Y-50408699D01*
X63506400Y-50370200D01*
X63482800Y-50427600D01*
G37*
G36*
X75659000Y-44266500D02*
G01*
X75654200Y-44312700D01*
X75586000Y-44583000D01*
X75576500Y-44650000D01*
X75576000Y-44715000D01*
X75454100Y-44825500D01*
X75386800Y-44875099D01*
X75331700Y-44901900D01*
X75272600Y-44919300D01*
X75252000Y-44923000D01*
X75260000Y-44833000D01*
X75292200Y-44696400D01*
X75303000Y-44620100D01*
X75302900Y-44583100D01*
X75282400Y-44541100D01*
X75279400Y-44522300D01*
X75292200Y-44472100D01*
X75314600Y-44427300D01*
X75347000Y-44384699D01*
X75387800Y-44344800D01*
X75477800Y-44277600D01*
X75572700Y-44230800D01*
X75616000Y-44219000D01*
X75656000Y-44215000D01*
X75659000Y-44266500D01*
G37*
G36*
X74584500Y-43970500D02*
G01*
X74600500Y-43980399D01*
X74620000Y-44007000D01*
X74564000Y-44135000D01*
X74562400Y-44209900D01*
X74571900Y-44290500D01*
X74592600Y-44376900D01*
X74622400Y-44467600D01*
X74744000Y-44791000D01*
X74697900Y-44785900D01*
X74625300Y-44760700D01*
X74586000Y-44753000D01*
X74559500Y-44759500D01*
X74532000Y-44783000D01*
X74402900Y-44619800D01*
X74312000Y-44479000D01*
X74285100Y-44425200D01*
X74266900Y-44374400D01*
X74257300Y-44326400D01*
X74257800Y-44292300D01*
X74277600Y-44235700D01*
X74318500Y-44166500D01*
X74360700Y-44111500D01*
X74423100Y-44046600D01*
X74474000Y-44005500D01*
X74534000Y-43973000D01*
X74566100Y-43966800D01*
X74584500Y-43970500D01*
G37*
G36*
X62759100Y-52130200D02*
G01*
X62832199Y-52248100D01*
X62894800Y-52328199D01*
X63083999Y-52247400D01*
X63205899Y-52205900D01*
X63263299Y-52198899D01*
X63297699Y-52202900D01*
X63328799Y-52213699D01*
X63356799Y-52231400D01*
X63322999Y-52289100D01*
X63218599Y-52406000D01*
X63162699Y-52482500D01*
X63142900Y-52533400D01*
X63136799Y-52609800D01*
X63060399Y-52636200D01*
X63021300Y-52660500D01*
X62949600Y-52717500D01*
X62907199Y-52739000D01*
X62859599Y-52754999D01*
X62795300Y-52696300D01*
X62757299Y-52650500D01*
X62723199Y-52599500D01*
X62666399Y-52482099D01*
X62612700Y-52324999D01*
X62575599Y-52161400D01*
X62547099Y-51967000D01*
X62540600Y-51879400D01*
X62539899Y-51785800D01*
X62545399Y-51740500D01*
X62556000Y-51716600D01*
X62759100Y-52130200D01*
G37*
G36*
X65555800Y-61174800D02*
G01*
X65589900Y-61191000D01*
X65664900Y-61196300D01*
X65699299Y-61208800D01*
X65733000Y-61228899D01*
X65768900Y-61234100D01*
X65806500Y-61217200D01*
X65841700Y-61194600D01*
X65876099Y-61185500D01*
X65945100Y-61194400D01*
X66011699Y-61170100D01*
X66049300Y-61174700D01*
X66133399Y-61201400D01*
X66172699Y-61198400D01*
X66208599Y-61179700D01*
X66261900Y-61341100D01*
X66226000Y-61359800D01*
X66182900Y-61364000D01*
X66089800Y-61343100D01*
X66052099Y-61366400D01*
X66015099Y-61404000D01*
X65974400Y-61432600D01*
X65929999Y-61443100D01*
X65884000Y-61443900D01*
X65838799Y-61454400D01*
X65791100Y-61472400D01*
X65744100Y-61478899D01*
X65699400Y-61457800D01*
X65624100Y-61378100D01*
X65584800Y-61359600D01*
X65542500Y-61354300D01*
X65503800Y-61336700D01*
X65454800Y-61296700D01*
X65508100Y-61135300D01*
X65555800Y-61174800D01*
G37*
G36*
X66131800Y-59903200D02*
G01*
X66295999Y-59923300D01*
X66417700Y-59944100D01*
X66538399Y-59970900D01*
X66698700Y-60015600D01*
X66931199Y-60098100D01*
X66900999Y-60177500D01*
X67003500Y-60192100D01*
X66953400Y-60359800D01*
X66921200Y-60440500D01*
X66862600Y-60562000D01*
X66791000Y-60678100D01*
X66760899Y-60716200D01*
X66700300Y-60780400D01*
X66663500Y-60811800D01*
X66591500Y-60860500D01*
X66508900Y-60902900D01*
X66429400Y-60938100D01*
X66140400Y-61048000D01*
X66013600Y-61089800D01*
X65925299Y-61106500D01*
X65834400Y-61113700D01*
X65702500Y-61100899D01*
X65655400Y-61090199D01*
X65401600Y-61013500D01*
X65276500Y-60968600D01*
X65154200Y-60912400D01*
X65111800Y-60887600D01*
X65041900Y-60834100D01*
X65004800Y-60801000D01*
X64918200Y-60692000D01*
X64851599Y-60571600D01*
X64798000Y-60449100D01*
X64752600Y-60325000D01*
X64728108Y-60222900D01*
X64921099Y-60222900D01*
X64944500Y-60278300D01*
X65039999Y-60443400D01*
X65092699Y-60524500D01*
X65160799Y-60599300D01*
X65216899Y-60639300D01*
X65276200Y-60671300D01*
X65345900Y-60697700D01*
X65618600Y-60775700D01*
X65727300Y-60803200D01*
X65839000Y-60813800D01*
X65912000Y-60807100D01*
X65984600Y-60792800D01*
X66255699Y-60698300D01*
X66424000Y-60646600D01*
X66516099Y-60600400D01*
X66567800Y-60560100D01*
X66613400Y-60515900D01*
X66672100Y-60439900D01*
X66778799Y-60274000D01*
X66798900Y-60229700D01*
X66650099Y-60182400D01*
X66500100Y-60149000D01*
X66269900Y-60113700D01*
X66116000Y-60099400D01*
X65844500Y-60090199D01*
X65573100Y-60100300D01*
X65303799Y-60131100D01*
X65075999Y-60176500D01*
X64921099Y-60222900D01*
X64728108Y-60222900D01*
X64720000Y-60189099D01*
X64801000Y-60177500D01*
X64770900Y-60098100D01*
X64989599Y-60020300D01*
X65149500Y-59974100D01*
X65351800Y-59932500D01*
X65555899Y-59904600D01*
X65720699Y-59893100D01*
X65885899Y-59890800D01*
X66131800Y-59903200D01*
G37*
G36*
X25420400Y-46705100D02*
G01*
X25352500Y-46949100D01*
X25323400Y-47085300D01*
X25319500Y-47153900D01*
X25323000Y-47199700D01*
X25344800Y-47291200D01*
X25487400Y-47290400D01*
X25802200Y-47315700D01*
X25940000Y-47316500D01*
X26031200Y-47302700D01*
X26183200Y-47243100D01*
X26243600Y-47230000D01*
X26272100Y-47234000D01*
X26308400Y-47251600D01*
X26307100Y-47288200D01*
X26293600Y-47341800D01*
X26253900Y-47410800D01*
X26164900Y-47510100D01*
X26004800Y-47669600D01*
X25969600Y-47658000D01*
X25956900Y-47644300D01*
X25938600Y-47610400D01*
X25904100Y-47596000D01*
X25545300Y-47566800D01*
X25322800Y-47564000D01*
X25314000Y-47713600D01*
X25475900Y-47719200D01*
X25998500Y-47760900D01*
X26115500Y-47760600D01*
X26202800Y-47753200D01*
X26140100Y-47845400D01*
X26064800Y-47925000D01*
X25976600Y-47990600D01*
X25901400Y-48026000D01*
X25846800Y-48042500D01*
X25758400Y-48056800D01*
X25737600Y-48034100D01*
X25710500Y-48015300D01*
X25637300Y-47989200D01*
X25496200Y-47973600D01*
X25283200Y-47964400D01*
X25261200Y-48109600D01*
X25614400Y-48131000D01*
X26061500Y-48171100D01*
X26426800Y-48189200D01*
X26451400Y-48197600D01*
X26493300Y-48238900D01*
X26515600Y-48245600D01*
X26524000Y-48246000D01*
X26583800Y-48215700D01*
X26650700Y-48202400D01*
X26738700Y-48205000D01*
X26832000Y-48215200D01*
X26813700Y-48265800D01*
X26785000Y-48312100D01*
X26746100Y-48354000D01*
X26698100Y-48391800D01*
X26645000Y-48426400D01*
X26566900Y-48467600D01*
X26339200Y-48562800D01*
X26310900Y-48530100D01*
X26278700Y-48502300D01*
X26242600Y-48479400D01*
X26202600Y-48461400D01*
X26061800Y-48427200D01*
X25918400Y-48407000D01*
X25717700Y-48393600D01*
X25155000Y-48371900D01*
X24744700Y-48346100D01*
X24533000Y-48338400D01*
X24064800Y-48339400D01*
X23907600Y-48346100D01*
X23688700Y-48363000D01*
X23612000Y-48362200D01*
X23526900Y-48350300D01*
X23450900Y-48318700D01*
X23395600Y-48276800D01*
X23461900Y-48205300D01*
X23512200Y-48166200D01*
X23596900Y-48120500D01*
X23659600Y-48098600D01*
X23726000Y-48082000D01*
X23866000Y-48059800D01*
X23977600Y-48052900D01*
X24133000Y-48055600D01*
X24791800Y-48106100D01*
X24915700Y-48104300D01*
X25036800Y-48092000D01*
X25044600Y-48076800D01*
X25046300Y-48050400D01*
X25019200Y-47955600D01*
X24924500Y-47938000D01*
X24830500Y-47927400D01*
X24441100Y-47919400D01*
X24302500Y-47904900D01*
X24240000Y-47890700D01*
X24184900Y-47866600D01*
X24138100Y-47831100D01*
X24099600Y-47784000D01*
X24181000Y-47737800D01*
X24304700Y-47686600D01*
X24388300Y-47664600D01*
X24472800Y-47652300D01*
X24558800Y-47648900D01*
X24698400Y-47651900D01*
X24851900Y-47663200D01*
X25019200Y-47682800D01*
X25004000Y-47587900D01*
X24988400Y-47555200D01*
X24688000Y-47536700D01*
X24274700Y-47495200D01*
X23963200Y-47480400D01*
X23961100Y-47464900D01*
X23952500Y-47451500D01*
X23914800Y-47433700D01*
X23876300Y-47404500D01*
X23868600Y-47386300D01*
X23870800Y-47352800D01*
X23903000Y-47321400D01*
X23939800Y-47294000D01*
X24003500Y-47260600D01*
X24332800Y-47163600D01*
X24570400Y-47224200D01*
X24762200Y-47259400D01*
X24898200Y-47269700D01*
X24997200Y-47260400D01*
X24972200Y-47200600D01*
X24957100Y-47141100D01*
X24952800Y-47052000D01*
X24962400Y-46992900D01*
X24981300Y-46934400D01*
X25007000Y-46878900D01*
X25039000Y-46827000D01*
X25077400Y-46778600D01*
X25122100Y-46733700D01*
X25172700Y-46692900D01*
X25226500Y-46659100D01*
X25312600Y-46622600D01*
X25373500Y-46607700D01*
X25437200Y-46600400D01*
X25420400Y-46705100D01*
G37*
G36*
X75197000Y-41998599D02*
G01*
X75308000Y-42047000D01*
X75258000Y-42096500D01*
X75182700Y-42159200D01*
X75139300Y-42216500D01*
X75120000Y-42259000D01*
X75151000Y-42328800D01*
X75269700Y-42551400D01*
X75423000Y-42817499D01*
X75595800Y-43100400D01*
X75764600Y-43361300D01*
X75906100Y-43557100D01*
X75953100Y-43610500D01*
X75988000Y-43638999D01*
X76001000Y-43684500D01*
X76040000Y-43741000D01*
X76106700Y-43814700D01*
X76256000Y-43963000D01*
X76226700Y-43996900D01*
X76204000Y-44014500D01*
X76150900Y-44037700D01*
X76106100Y-44045400D01*
X76049100Y-44047000D01*
X75996000Y-44039000D01*
X75978400Y-44029199D01*
X75899800Y-43953900D01*
X75760800Y-43792600D01*
X75628000Y-43625000D01*
X75444000Y-43379000D01*
X75344500Y-43423000D01*
X75266400Y-43449200D01*
X75216800Y-43451200D01*
X75164000Y-43439000D01*
X75148700Y-43465300D01*
X75116800Y-43537400D01*
X75097800Y-43601700D01*
X75082100Y-43695600D01*
X75076000Y-43783000D01*
X75131700Y-43802800D01*
X75196300Y-43817600D01*
X75479400Y-43852300D01*
X75585400Y-43874300D01*
X75633300Y-43889900D01*
X75674500Y-43911000D01*
X75728000Y-43958999D01*
X75692600Y-44000800D01*
X75653800Y-44033600D01*
X75588800Y-44065500D01*
X75541200Y-44075500D01*
X75387000Y-44073499D01*
X75131600Y-44045899D01*
X75068000Y-44043000D01*
X75070900Y-44588600D01*
X75079800Y-44824799D01*
X75092000Y-44995000D01*
X75344000Y-45049000D01*
X75471000Y-45065500D01*
X75538600Y-45066300D01*
X75589400Y-45061200D01*
X75700000Y-45021000D01*
X75743300Y-45009699D01*
X75774000Y-45010999D01*
X75816000Y-45027000D01*
X75805800Y-45072100D01*
X75781400Y-45124300D01*
X75744000Y-45182400D01*
X75699200Y-45239599D01*
X75648000Y-45295000D01*
X75592600Y-45344600D01*
X75535400Y-45384600D01*
X75491300Y-45408000D01*
X75449000Y-45421499D01*
X75422200Y-45424300D01*
X75396600Y-45422100D01*
X75360900Y-45410700D01*
X75308400Y-45378800D01*
X75241100Y-45310900D01*
X75198700Y-45278099D01*
X75138200Y-45246700D01*
X75058400Y-45216400D01*
X74946400Y-45191199D01*
X74651200Y-45165200D01*
X74533600Y-45150000D01*
X74421600Y-45116800D01*
X74316000Y-45063000D01*
X74347500Y-45022900D01*
X74405000Y-44974500D01*
X74474700Y-44940100D01*
X74528000Y-44925000D01*
X74585900Y-44916399D01*
X74680000Y-44916500D01*
X74747500Y-44925100D01*
X74856000Y-44951000D01*
X74808000Y-43986999D01*
X74477800Y-43907900D01*
X74392200Y-43867900D01*
X74336000Y-43827000D01*
X74367500Y-43777000D01*
X74414000Y-43731000D01*
X74463900Y-43701200D01*
X74527300Y-43682400D01*
X74583800Y-43675700D01*
X74649800Y-43680200D01*
X74725800Y-43697300D01*
X74812000Y-43727000D01*
X74803700Y-43606200D01*
X74803200Y-43509699D01*
X74817600Y-43430700D01*
X74848000Y-43351000D01*
X74746600Y-43338499D01*
X74640500Y-43314800D01*
X74548400Y-43281500D01*
X74432000Y-43227000D01*
X74507500Y-43155500D01*
X74598000Y-43101000D01*
X74702500Y-43062500D01*
X74820000Y-43039000D01*
X74851300Y-43072700D01*
X74892200Y-43101600D01*
X74942900Y-43125900D01*
X75001500Y-43145900D01*
X75144900Y-43179600D01*
X75348000Y-43202999D01*
X75056000Y-42736999D01*
X74984000Y-42609500D01*
X74928000Y-42495000D01*
X74876000Y-42449000D01*
X74848500Y-42431700D01*
X74800000Y-42419000D01*
X74741700Y-42503699D01*
X74677400Y-42575500D01*
X74606900Y-42634299D01*
X74501500Y-42694300D01*
X74411400Y-42728300D01*
X74276000Y-42759000D01*
X74279000Y-42704400D01*
X74287800Y-42652800D01*
X74312300Y-42580600D01*
X74350000Y-42515000D01*
X74396700Y-42455700D01*
X74466300Y-42386100D01*
X74524000Y-42341000D01*
X74621000Y-42278500D01*
X74712000Y-42231000D01*
X74744600Y-42162700D01*
X74785000Y-42104900D01*
X74808000Y-42080000D01*
X74859800Y-42038100D01*
X74919400Y-42006699D01*
X74985800Y-41986200D01*
X75020000Y-41980400D01*
X75089600Y-41978400D01*
X75197000Y-41998599D01*
G37*
G36*
X73072200Y-42233999D02*
G01*
X73142900Y-42258700D01*
X73216000Y-42299000D01*
X73436100Y-42313199D01*
X73750500Y-42358500D01*
X73902400Y-42375600D01*
X73984000Y-42367599D01*
X74212900Y-42298500D01*
X74269000Y-42295000D01*
X74316000Y-42303000D01*
X74321400Y-42349100D01*
X74312200Y-42391300D01*
X74271500Y-42457000D01*
X74216000Y-42527000D01*
X74193100Y-42613600D01*
X74159700Y-42780400D01*
X74137800Y-42932600D01*
X74123000Y-43092600D01*
X74115800Y-43261300D01*
X74110200Y-43270500D01*
X74092200Y-43280500D01*
X74087200Y-43292899D01*
X74091800Y-43773100D01*
X74104500Y-44333100D01*
X74121100Y-44626500D01*
X74148000Y-44927000D01*
X74206300Y-44899400D01*
X74255900Y-44893100D01*
X74301000Y-44907199D01*
X74332000Y-44935000D01*
X74206000Y-45132999D01*
X74173700Y-45172799D01*
X74136600Y-45208400D01*
X74064400Y-45257700D01*
X74030800Y-45272099D01*
X73974400Y-45286200D01*
X73888000Y-45291000D01*
X73836000Y-45202999D01*
X73642100Y-45064000D01*
X73354000Y-44826499D01*
X73180000Y-44691000D01*
X73074600Y-44822800D01*
X72952600Y-44986399D01*
X72876200Y-45104400D01*
X72808000Y-45227000D01*
X72709400Y-45252800D01*
X72584600Y-45270399D01*
X72496000Y-45271000D01*
X72414600Y-45254999D01*
X72343400Y-45216800D01*
X72301400Y-45178799D01*
X72264000Y-45131000D01*
X72274900Y-45050599D01*
X72298100Y-44977399D01*
X72333500Y-44911400D01*
X72379800Y-44851900D01*
X72452200Y-44778900D01*
X72514000Y-44728800D01*
X72604600Y-44666700D01*
X72901500Y-44488500D01*
X72951541Y-44455000D01*
X73356000Y-44455000D01*
X73388600Y-44503299D01*
X73426600Y-44544200D01*
X73553400Y-44651399D01*
X73729800Y-44775200D01*
X73900000Y-44875000D01*
X73862100Y-44352700D01*
X73836000Y-43839000D01*
X73718900Y-43937599D01*
X73617100Y-44054000D01*
X73356000Y-44455000D01*
X72951541Y-44455000D01*
X73045200Y-44392300D01*
X73149900Y-44299800D01*
X73220000Y-44215000D01*
X73099500Y-44170500D01*
X72839500Y-44096000D01*
X72692400Y-44043400D01*
X72626400Y-44010100D01*
X72586400Y-43984100D01*
X72516000Y-43923000D01*
X72535900Y-43867700D01*
X72561800Y-43821700D01*
X72576096Y-43805400D01*
X72957100Y-43805400D01*
X72964700Y-43833800D01*
X72977400Y-43850699D01*
X73092300Y-43916900D01*
X73256000Y-44021000D01*
X73340000Y-44067000D01*
X73400000Y-44018000D01*
X73540600Y-43878400D01*
X73628000Y-43803000D01*
X73196800Y-43767700D01*
X72972000Y-43739000D01*
X72958500Y-43775500D01*
X72957100Y-43805400D01*
X72576096Y-43805400D01*
X72593900Y-43785100D01*
X72631300Y-43757100D01*
X72684700Y-43728899D01*
X72727300Y-43714500D01*
X72799600Y-43700100D01*
X72880000Y-43691000D01*
X72834500Y-43624500D01*
X72818200Y-43574700D01*
X72803900Y-43353200D01*
X72799314Y-43312200D01*
X73091300Y-43312200D01*
X73108000Y-43527000D01*
X73340900Y-43558099D01*
X73495500Y-43573499D01*
X73682200Y-43583500D01*
X73832000Y-43583000D01*
X73824700Y-43518900D01*
X73820000Y-43247000D01*
X73353500Y-43186200D01*
X73092000Y-43138999D01*
X73091300Y-43312200D01*
X72799314Y-43312200D01*
X72782300Y-43160100D01*
X72753500Y-42985800D01*
X72719800Y-42855300D01*
X72678100Y-42748400D01*
X72676808Y-42746500D01*
X73089300Y-42746500D01*
X73092000Y-42995000D01*
X73187500Y-42951499D01*
X73248200Y-42941199D01*
X73290000Y-42941000D01*
X73423700Y-42954700D01*
X73698700Y-42999300D01*
X73828000Y-43007000D01*
X73825400Y-42922799D01*
X73830600Y-42836800D01*
X73864000Y-42619000D01*
X73707500Y-42582000D01*
X73558500Y-42556700D01*
X73354200Y-42530500D01*
X73112000Y-42507000D01*
X73094500Y-42600400D01*
X73089300Y-42746500D01*
X72676808Y-42746500D01*
X72640300Y-42692800D01*
X72600300Y-42664300D01*
X72519900Y-42638100D01*
X72476000Y-42599000D01*
X72521400Y-42534000D01*
X72619400Y-42416100D01*
X72668000Y-42368700D01*
X72720200Y-42326299D01*
X72776000Y-42289000D01*
X72834900Y-42258900D01*
X72896200Y-42238099D01*
X72938600Y-42229500D01*
X73004100Y-42224700D01*
X73072200Y-42233999D01*
G37*
G36*
X24416400Y-48462600D02*
G01*
X24531200Y-48491800D01*
X25168900Y-48537900D01*
X25704500Y-48561900D01*
X26111500Y-48563900D01*
X26121400Y-48571600D01*
X26127700Y-48595500D01*
X26126800Y-48631300D01*
X26118800Y-48663600D01*
X26098400Y-48703100D01*
X26047700Y-48765200D01*
X26010700Y-48821900D01*
X25993300Y-48879600D01*
X25992700Y-48930300D01*
X26012500Y-49025700D01*
X26046800Y-49122500D01*
X26101500Y-49234400D01*
X26158800Y-49328400D01*
X26489900Y-49370900D01*
X26740300Y-49390400D01*
X26950800Y-49391600D01*
X27245600Y-49372400D01*
X27173100Y-49473600D01*
X27132600Y-49520900D01*
X27043200Y-49608900D01*
X26942500Y-49688100D01*
X26830600Y-49758500D01*
X26770400Y-49790400D01*
X26737600Y-49758300D01*
X26697300Y-49730500D01*
X26649400Y-49707000D01*
X26576900Y-49681800D01*
X26423000Y-49646300D01*
X26330900Y-49634800D01*
X26264400Y-49632000D01*
X26326500Y-49781400D01*
X26352000Y-49821900D01*
X26387200Y-49859000D01*
X26424000Y-49879900D01*
X26458200Y-49888700D01*
X26497600Y-49889400D01*
X26559000Y-49879100D01*
X26603200Y-49904800D01*
X26616400Y-49927000D01*
X26616400Y-49948800D01*
X26606000Y-49966400D01*
X26601000Y-49992800D01*
X26606000Y-50134800D01*
X26603400Y-50171100D01*
X26596100Y-50194600D01*
X26583600Y-50214600D01*
X26560300Y-50237000D01*
X26471200Y-50310100D01*
X26421600Y-50343300D01*
X26393100Y-50353200D01*
X26356800Y-50353600D01*
X26289700Y-50299100D01*
X26238000Y-50232600D01*
X26158800Y-50080800D01*
X25234300Y-50223500D01*
X25032000Y-50267500D01*
X24777200Y-50340400D01*
X24794200Y-50378900D01*
X24808200Y-50392500D01*
X24840800Y-50411000D01*
X24869600Y-50454800D01*
X24845500Y-50496900D01*
X24815500Y-50533500D01*
X24715500Y-50613000D01*
X24682600Y-50648100D01*
X24654000Y-50688000D01*
X24613700Y-50685700D01*
X24589100Y-50678700D01*
X24545100Y-50651400D01*
X24487900Y-50586200D01*
X24376800Y-50428400D01*
X24224700Y-50484900D01*
X24083800Y-50529200D01*
X23968700Y-50553800D01*
X23883300Y-50563000D01*
X23799100Y-50564000D01*
X23721900Y-50552100D01*
X23653400Y-50526000D01*
X23593600Y-50485600D01*
X23616600Y-50440500D01*
X23648800Y-50400100D01*
X23690000Y-50364400D01*
X23756800Y-50323300D01*
X23871900Y-50271000D01*
X24192200Y-50160500D01*
X24302000Y-50107200D01*
X24232100Y-49807100D01*
X24217000Y-49671600D01*
X24214553Y-49616300D01*
X24572700Y-49616300D01*
X24574400Y-49702300D01*
X24583200Y-49789600D01*
X24615300Y-49937100D01*
X24642600Y-50006600D01*
X24667200Y-50050000D01*
X24671100Y-50041200D01*
X24668600Y-50021800D01*
X24595400Y-49758200D01*
X24591200Y-49717000D01*
X24596800Y-49689200D01*
X24621600Y-49732100D01*
X24643000Y-49790400D01*
X24698000Y-50023600D01*
X24844500Y-50008300D01*
X25031800Y-49975200D01*
X25142400Y-49966400D01*
X25131400Y-49859700D01*
X25069500Y-49631100D01*
X25065652Y-49606100D01*
X25356900Y-49606100D01*
X25367100Y-49690500D01*
X25389500Y-49800700D01*
X25419600Y-49909200D01*
X25856600Y-49862100D01*
X26048800Y-49847600D01*
X26013700Y-49739500D01*
X25925600Y-49561600D01*
X25798000Y-49555000D01*
X25480900Y-49513900D01*
X25358000Y-49517600D01*
X25356900Y-49606100D01*
X25065652Y-49606100D01*
X25050000Y-49504400D01*
X24712800Y-49485100D01*
X24592400Y-49486800D01*
X24578700Y-49543800D01*
X24572700Y-49616300D01*
X24214553Y-49616300D01*
X24209600Y-49504400D01*
X24119500Y-49510000D01*
X23935200Y-49490500D01*
X23825900Y-49487700D01*
X23699200Y-49502200D01*
X23373600Y-49558000D01*
X23242000Y-49571600D01*
X23164600Y-49566600D01*
X23088800Y-49549200D01*
X23039200Y-49530800D01*
X23073200Y-49447400D01*
X23112800Y-49386100D01*
X23155700Y-49340900D01*
X23208900Y-49304800D01*
X23250100Y-49285800D01*
X23341800Y-49256700D01*
X23604300Y-49198000D01*
X23730000Y-49156800D01*
X23767000Y-49198000D01*
X23806200Y-49218200D01*
X23837900Y-49226700D01*
X23946100Y-49237600D01*
X24148000Y-49244800D01*
X24147000Y-49177100D01*
X24112800Y-49027000D01*
X24111700Y-48990100D01*
X24117200Y-48954400D01*
X24065800Y-48910800D01*
X24044838Y-48899200D01*
X24533900Y-48899200D01*
X24552100Y-49078300D01*
X24574800Y-49227200D01*
X24709000Y-49242600D01*
X24928600Y-49240400D01*
X25006000Y-49244800D01*
X24970200Y-49049000D01*
X24959400Y-48930200D01*
X24969000Y-48876800D01*
X24974200Y-48866400D01*
X25296400Y-48866400D01*
X25304100Y-48970400D01*
X25308000Y-49148100D01*
X25327200Y-49258000D01*
X25447800Y-49257200D01*
X25720400Y-49278100D01*
X25802400Y-49271200D01*
X25793000Y-49207900D01*
X25775200Y-49139500D01*
X25727300Y-49014800D01*
X25703000Y-48967700D01*
X25662300Y-48905800D01*
X25632300Y-48870500D01*
X25587500Y-48829100D01*
X25547900Y-48803000D01*
X25505100Y-48786900D01*
X25459200Y-48780600D01*
X25427300Y-48783300D01*
X25378900Y-48800900D01*
X25346200Y-48821700D01*
X25296400Y-48866400D01*
X24974200Y-48866400D01*
X24984400Y-48846000D01*
X25007000Y-48819100D01*
X25036800Y-48796000D01*
X25015700Y-48779900D01*
X24977400Y-48761300D01*
X24896000Y-48745400D01*
X24764500Y-48739400D01*
X24561600Y-48738800D01*
X24537400Y-48823500D01*
X24533900Y-48899200D01*
X24044838Y-48899200D01*
X24019900Y-48885400D01*
X23791600Y-48809200D01*
X23804200Y-48741800D01*
X23820700Y-48704100D01*
X23843800Y-48672300D01*
X23873400Y-48646200D01*
X23927900Y-48616200D01*
X24032000Y-48577500D01*
X24332800Y-48505600D01*
X24376800Y-48461600D01*
X24390000Y-48459900D01*
X24416400Y-48462600D01*
G37*
G36*
X24865500Y-51362600D02*
G01*
X24918000Y-51383200D01*
X25226000Y-51392700D01*
X25454700Y-51407700D01*
X26057100Y-51467400D01*
X26431600Y-51497600D01*
X26473400Y-51543300D01*
X26504800Y-51563800D01*
X26574200Y-51597800D01*
X26629600Y-51647200D01*
X26606100Y-51682000D01*
X26567400Y-51721600D01*
X26532800Y-51746200D01*
X26368000Y-51841900D01*
X26335500Y-51869000D01*
X26299600Y-51911200D01*
X26288100Y-52029800D01*
X26280300Y-52210400D01*
X26284100Y-52394100D01*
X26293000Y-52518400D01*
X26307000Y-52639500D01*
X26337600Y-52806600D01*
X26379600Y-52956300D01*
X26414000Y-53046400D01*
X26365100Y-53111300D01*
X26282400Y-53186300D01*
X26261800Y-53211000D01*
X26237400Y-53254500D01*
X26220400Y-53306000D01*
X26354400Y-53319700D01*
X26460800Y-53341700D01*
X26500100Y-53360500D01*
X26536100Y-53386400D01*
X26569100Y-53419600D01*
X26598800Y-53460000D01*
X26514700Y-53518900D01*
X26420600Y-53572200D01*
X26360400Y-53598600D01*
X26277700Y-53621500D01*
X26192300Y-53630000D01*
X26128600Y-53623800D01*
X26066100Y-53605200D01*
X26004800Y-53574400D01*
X25992200Y-53604100D01*
X25954900Y-53636900D01*
X25938800Y-53671200D01*
X26298900Y-54222300D01*
X26427000Y-54398700D01*
X26528700Y-54525400D01*
X26636300Y-54646200D01*
X26753900Y-54757400D01*
X26881800Y-54858800D01*
X26972800Y-54920800D01*
X26933800Y-54926400D01*
X26883600Y-54943100D01*
X26744000Y-55022000D01*
X26636800Y-54958100D01*
X26556600Y-54902800D01*
X26299600Y-54692000D01*
X26290700Y-54705900D01*
X26273800Y-54697200D01*
X26242600Y-54661600D01*
X26204600Y-54605600D01*
X26176400Y-54552300D01*
X26172000Y-54529200D01*
X26075800Y-54463800D01*
X25998200Y-54381800D01*
X25932200Y-54288300D01*
X25809000Y-54087000D01*
X25729000Y-53971700D01*
X25649300Y-53890100D01*
X25573600Y-53838400D01*
X25563600Y-53770800D01*
X25525200Y-53640400D01*
X25538500Y-53610500D01*
X25595400Y-53533900D01*
X25595500Y-53513800D01*
X25591200Y-53508400D01*
X25552500Y-53500700D01*
X25416800Y-53480900D01*
X25360800Y-53481300D01*
X25314000Y-53490800D01*
X25284400Y-53591100D01*
X25269600Y-53677900D01*
X25258600Y-53842300D01*
X25261200Y-54044200D01*
X25279700Y-54237200D01*
X25314000Y-54397200D01*
X25307700Y-54418100D01*
X25281400Y-54472000D01*
X25191100Y-54609300D01*
X25178300Y-54645900D01*
X25177600Y-54674400D01*
X25090600Y-54733400D01*
X24943800Y-54812500D01*
X24835300Y-54858700D01*
X24718000Y-54899900D01*
X24593200Y-54935800D01*
X24403500Y-54977000D01*
X24276300Y-54996000D01*
X24084600Y-55011500D01*
X23960100Y-55013100D01*
X23783900Y-55001600D01*
X23614800Y-54973000D01*
X23506000Y-54944500D01*
X23352700Y-54887000D01*
X23263400Y-54838000D01*
X23222900Y-54810300D01*
X23150000Y-54748300D01*
X23117700Y-54714100D01*
X23061200Y-54639200D01*
X23107400Y-54595200D01*
X23145700Y-54547600D01*
X23176000Y-54496400D01*
X23274900Y-54259900D01*
X23327900Y-54177400D01*
X23369200Y-54133200D01*
X23363400Y-54172500D01*
X23368300Y-54214900D01*
X23385900Y-54232800D01*
X23417600Y-54238800D01*
X23417000Y-54198400D01*
X23422200Y-54161700D01*
X23433200Y-54128700D01*
X23450000Y-54099400D01*
X23472600Y-54073800D01*
X23521200Y-54033700D01*
X23554400Y-54013300D01*
X23584800Y-54001200D01*
X23641600Y-53912200D01*
X23706600Y-53825900D01*
X23756900Y-53777000D01*
X23813600Y-53737200D01*
X23780900Y-53839600D01*
X23760100Y-53949800D01*
X23751600Y-54066100D01*
X23756800Y-54178300D01*
X23776200Y-54285000D01*
X23800600Y-54358300D01*
X23834000Y-54422500D01*
X23892800Y-54494000D01*
X24020200Y-54529200D01*
X24191400Y-54563300D01*
X24335000Y-54580900D01*
X24442100Y-54585400D01*
X24583600Y-54579800D01*
X24686000Y-54565600D01*
X24782100Y-54541500D01*
X24900400Y-54494000D01*
X24922900Y-54391200D01*
X24934200Y-54272900D01*
X24927100Y-53599600D01*
X24936300Y-53500800D01*
X24953200Y-53442400D01*
X24882100Y-53423700D01*
X24816400Y-53420500D01*
X24756400Y-53432700D01*
X24701600Y-53458400D01*
X24635400Y-53503800D01*
X24590900Y-53545700D01*
X24524900Y-53624600D01*
X24456000Y-53719600D01*
X24438900Y-53680000D01*
X24413400Y-53661000D01*
X24369500Y-53651000D01*
X24306400Y-53653600D01*
X24269000Y-53307600D01*
X24258200Y-53108600D01*
X24254100Y-52903900D01*
X24259600Y-52578900D01*
X24268327Y-52491800D01*
X24688800Y-52491800D01*
X24689300Y-52883400D01*
X24702400Y-53257600D01*
X24819400Y-53222700D01*
X24937900Y-53202400D01*
X25058000Y-53196800D01*
X25301900Y-53213100D01*
X25837100Y-53270600D01*
X25921200Y-53275200D01*
X25941800Y-53256400D01*
X25956000Y-53231600D01*
X25965200Y-53189400D01*
X25969600Y-52980400D01*
X25717700Y-52932500D01*
X25485600Y-52898600D01*
X25245800Y-52873900D01*
X24887200Y-52848400D01*
X24897700Y-52809600D01*
X24888400Y-52802300D01*
X24869600Y-52800000D01*
X24931200Y-52735200D01*
X24996300Y-52688800D01*
X25065100Y-52659700D01*
X25157900Y-52640400D01*
X25230400Y-52637300D01*
X25324200Y-52642800D01*
X25767700Y-52705800D01*
X25861700Y-52707600D01*
X25956400Y-52698800D01*
X25948000Y-52639700D01*
X25950500Y-52507000D01*
X25946300Y-52459400D01*
X25921200Y-52404000D01*
X25873100Y-52381300D01*
X25773100Y-52347500D01*
X25694900Y-52332300D01*
X25080100Y-52285600D01*
X24981200Y-52262000D01*
X24887200Y-52223600D01*
X24940700Y-52153200D01*
X25002700Y-52103900D01*
X25072900Y-52074500D01*
X25170800Y-52055200D01*
X25248900Y-52052100D01*
X25348800Y-52057600D01*
X25767700Y-52110600D01*
X25845900Y-52113100D01*
X25921200Y-52109200D01*
X25930000Y-52060300D01*
X25930700Y-52014000D01*
X25903600Y-51744000D01*
X25726300Y-51697600D01*
X25553300Y-51658700D01*
X25274500Y-51611200D01*
X25165000Y-51602400D01*
X25056000Y-51601600D01*
X24947600Y-51608600D01*
X24786000Y-51634000D01*
X24734800Y-51888100D01*
X24704600Y-52157600D01*
X24688800Y-52491800D01*
X24268327Y-52491800D01*
X24296300Y-52212600D01*
X24303300Y-52110400D01*
X24302000Y-52038400D01*
X24287900Y-51951200D01*
X24270900Y-51898300D01*
X24253100Y-51863300D01*
X24211100Y-51817300D01*
X24078500Y-51721300D01*
X24048600Y-51682200D01*
X24033000Y-51646900D01*
X24029200Y-51634000D01*
X24061900Y-51569500D01*
X24090800Y-51531200D01*
X24125300Y-51496500D01*
X24165400Y-51465500D01*
X24234900Y-51425400D01*
X24366100Y-51372100D01*
X24545900Y-51328900D01*
X24768400Y-51299600D01*
X24865500Y-51362600D01*
G37*
G36*
X69291699Y-55302600D02*
G01*
X69375400Y-55314300D01*
X69544900Y-55353500D01*
X69667300Y-55398500D01*
X69745300Y-55435200D01*
X69853800Y-55500600D01*
X69799300Y-55598700D01*
X69848199Y-55635300D01*
X69792100Y-55726000D01*
X69737200Y-55859800D01*
X69699000Y-56003600D01*
X69669000Y-56190300D01*
X69649800Y-56459100D01*
X69647800Y-56730900D01*
X69654500Y-56959000D01*
X69663500Y-57019200D01*
X69680900Y-57075500D01*
X69707000Y-57132400D01*
X69740900Y-57189600D01*
X69802100Y-57275100D01*
X69849700Y-57331500D01*
X69926200Y-57415200D01*
X70266200Y-57752000D01*
X70407800Y-57900600D01*
X70545200Y-58061099D01*
X70646800Y-58197400D01*
X70717400Y-58303700D01*
X70782299Y-58412900D01*
X70859700Y-58566900D01*
X70925600Y-58726200D01*
X70979700Y-58889400D01*
X71011400Y-59010300D01*
X71053400Y-59221700D01*
X71076900Y-59434200D01*
X71083900Y-59644500D01*
X71078900Y-59811400D01*
X71060499Y-60018300D01*
X71028200Y-60224300D01*
X70990100Y-60388500D01*
X70954700Y-60509299D01*
X70913000Y-60628400D01*
X70829700Y-60821300D01*
X70770700Y-60933400D01*
X70657800Y-61111500D01*
X70557300Y-61247500D01*
X70441600Y-61372600D01*
X70310600Y-61483500D01*
X70239300Y-61532200D01*
X70164200Y-61575400D01*
X70085200Y-61612800D01*
X70006800Y-61642300D01*
X70018900Y-61715500D01*
X69896200Y-61713200D01*
X69735000Y-61740100D01*
X69655300Y-61760900D01*
X69451000Y-61766800D01*
X69370000Y-61784400D01*
X69207700Y-61838100D01*
X69124000Y-61844500D01*
X68959000Y-61827000D01*
X68794300Y-61826600D01*
X68754500Y-61822200D01*
X68713200Y-61812500D01*
X68672400Y-61796000D01*
X68557099Y-61726200D01*
X68479400Y-61698100D01*
X68398600Y-61685900D01*
X68289099Y-61680000D01*
X68295500Y-61640800D01*
X68177900Y-61593700D01*
X68101000Y-61553500D01*
X67991500Y-61483600D01*
X67923400Y-61430900D01*
X67798600Y-61313600D01*
X67689300Y-61183300D01*
X67571600Y-61007300D01*
X67472700Y-60821100D01*
X67394600Y-60626700D01*
X67356400Y-60507000D01*
X67324100Y-60385900D01*
X67288800Y-60222100D01*
X67246500Y-59934000D01*
X67226035Y-59647800D01*
X67518100Y-59647800D01*
X67521000Y-59917400D01*
X67541900Y-60184400D01*
X67562900Y-60334400D01*
X67601100Y-60521700D01*
X67641700Y-60666700D01*
X67708700Y-60843700D01*
X67777099Y-60978500D01*
X67839500Y-61071900D01*
X67935400Y-61186200D01*
X68015400Y-61263200D01*
X68101300Y-61332200D01*
X68162100Y-61372800D01*
X68257399Y-61424500D01*
X68323600Y-61452800D01*
X68425500Y-61483800D01*
X68416699Y-61517600D01*
X68501900Y-61529600D01*
X68615600Y-61568300D01*
X68694000Y-61583100D01*
X68772100Y-61582200D01*
X68931199Y-61546500D01*
X69009700Y-61539800D01*
X69164700Y-61544100D01*
X69243300Y-61531400D01*
X69357800Y-61503200D01*
X69397200Y-61499800D01*
X69473400Y-61509200D01*
X69634400Y-61558700D01*
X69714900Y-61571100D01*
X69831200Y-61549400D01*
X69892400Y-61544500D01*
X69876800Y-61484700D01*
X69945799Y-61465600D01*
X70012100Y-61440700D01*
X70140400Y-61373500D01*
X70200800Y-61332200D01*
X70285600Y-61262000D01*
X70364499Y-61184100D01*
X70413299Y-61128200D01*
X70502100Y-61007900D01*
X70591500Y-60842700D01*
X70636100Y-60739000D01*
X70674600Y-60632500D01*
X70735400Y-60412900D01*
X70775100Y-60186600D01*
X70793900Y-59955500D01*
X70796300Y-59801500D01*
X70791500Y-59647700D01*
X70774400Y-59458000D01*
X70744700Y-59273500D01*
X70710500Y-59126800D01*
X70667900Y-58983800D01*
X70603600Y-58813000D01*
X70557000Y-58709400D01*
X70488200Y-58578400D01*
X70410000Y-58452100D01*
X70345200Y-58358700D01*
X70263700Y-58253400D01*
X70164999Y-58286200D01*
X69975200Y-58374500D01*
X69856500Y-58413200D01*
X69734299Y-58432600D01*
X69527600Y-58447500D01*
X69282700Y-58478899D01*
X69159500Y-58472200D01*
X68955400Y-58426700D01*
X68874699Y-58415300D01*
X68588000Y-58409600D01*
X68467000Y-58388100D01*
X68266700Y-58342600D01*
X67998800Y-58302700D01*
X67892400Y-58452300D01*
X67813500Y-58578100D01*
X67742899Y-58708400D01*
X67681100Y-58843000D01*
X67628600Y-58982100D01*
X67586000Y-59125500D01*
X67553900Y-59272900D01*
X67529000Y-59458100D01*
X67518100Y-59647800D01*
X67226035Y-59647800D01*
X67225799Y-59644500D01*
X67226599Y-59434300D01*
X67245100Y-59221100D01*
X67274300Y-59053700D01*
X67316800Y-58887700D01*
X67372300Y-58724600D01*
X67440200Y-58565900D01*
X67519399Y-58412700D01*
X67608900Y-58266000D01*
X67687610Y-58152900D01*
X68116999Y-58152900D01*
X68304200Y-58176800D01*
X68494599Y-58220300D01*
X68533000Y-58225000D01*
X68612800Y-58223200D01*
X68810700Y-58193300D01*
X68888800Y-58188500D01*
X68966299Y-58193400D01*
X69158800Y-58232200D01*
X69237400Y-58240500D01*
X69510600Y-58231500D01*
X69708599Y-58249500D01*
X69789099Y-58252000D01*
X69827700Y-58245700D01*
X69904100Y-58222800D01*
X70083200Y-58138000D01*
X70143800Y-58113700D01*
X69717500Y-57664800D01*
X69634400Y-57569800D01*
X69553500Y-57467200D01*
X69479100Y-57353100D01*
X69434900Y-57269500D01*
X69398500Y-57178100D01*
X69373500Y-57079300D01*
X69363700Y-56980000D01*
X69371100Y-56727900D01*
X69388700Y-56481700D01*
X69413700Y-56276300D01*
X69452200Y-56070600D01*
X69510200Y-55867200D01*
X69577400Y-55707600D01*
X69642000Y-55597000D01*
X69490600Y-55551500D01*
X69381900Y-55531500D01*
X69271700Y-55519700D01*
X69160600Y-55515500D01*
X69049600Y-55518500D01*
X68904100Y-55534400D01*
X68795800Y-55555600D01*
X68723600Y-55574100D01*
X68662500Y-55596100D01*
X68726000Y-55707000D01*
X68793399Y-55866800D01*
X68843200Y-56029400D01*
X68888399Y-56234100D01*
X68918800Y-56439800D01*
X68939100Y-56686700D01*
X68943800Y-56980400D01*
X68931600Y-57079900D01*
X68904100Y-57178300D01*
X68865100Y-57268500D01*
X68818800Y-57350500D01*
X68741700Y-57461900D01*
X68603500Y-57624600D01*
X68273200Y-57975100D01*
X68116999Y-58152900D01*
X67687610Y-58152900D01*
X67706400Y-58125900D01*
X67834700Y-57962200D01*
X67944300Y-57835600D01*
X68113900Y-57657300D01*
X68366300Y-57406300D01*
X68493100Y-57269800D01*
X68537300Y-57214200D01*
X68593000Y-57131400D01*
X68621700Y-57075700D01*
X68641600Y-57019800D01*
X68655300Y-56926200D01*
X68665400Y-56652800D01*
X68661700Y-56458400D01*
X68647300Y-56265900D01*
X68620100Y-56076600D01*
X68577200Y-55894400D01*
X68527000Y-55757200D01*
X68495400Y-55693800D01*
X68456700Y-55633200D01*
X68502800Y-55598700D01*
X68448300Y-55500600D01*
X68538400Y-55444800D01*
X68656900Y-55388500D01*
X68780200Y-55346400D01*
X68906399Y-55317200D01*
X68990200Y-55305300D01*
X69163000Y-55295500D01*
X69291699Y-55302600D01*
G37*
G36*
X60327699Y-49427500D02*
G01*
X60394899Y-49457800D01*
X60493399Y-49481000D01*
X60641999Y-49507799D01*
X60870400Y-49536300D01*
X61121100Y-49558099D01*
X61333499Y-49567800D01*
X61543600Y-49568700D01*
X61740999Y-49560800D01*
X61893499Y-49546200D01*
X61953199Y-49529800D01*
X62135400Y-49461600D01*
X62225500Y-49438100D01*
X62288099Y-49438500D01*
X62353599Y-49455000D01*
X62324699Y-49558099D01*
X62304499Y-49605200D01*
X62266899Y-49670200D01*
X62237199Y-49709700D01*
X62188300Y-49761500D01*
X62153099Y-49791000D01*
X62096399Y-49827600D01*
X62004200Y-49863099D01*
X61947799Y-49873799D01*
X61889399Y-49877400D01*
X61789799Y-49865300D01*
X61689199Y-49829000D01*
X61654999Y-49932000D01*
X61607800Y-50115000D01*
X61598699Y-50164800D01*
X61594100Y-50241500D01*
X61596899Y-50293900D01*
X61609999Y-50374600D01*
X61738099Y-50371100D01*
X61869099Y-50374600D01*
X62001200Y-50385000D01*
X62124399Y-50401199D01*
X62236999Y-50423000D01*
X62311799Y-50443500D01*
X62393599Y-50476900D01*
X62441599Y-50506600D01*
X62410299Y-50600100D01*
X62368999Y-50678200D01*
X62313499Y-50746400D01*
X62239200Y-50810200D01*
X62218799Y-51099500D01*
X62209799Y-51351600D01*
X62219300Y-51472699D01*
X62243599Y-51567000D01*
X62232099Y-51580800D01*
X62200900Y-51591000D01*
X62186399Y-51606600D01*
X62210300Y-51689000D01*
X62225799Y-51781200D01*
X62249999Y-52111500D01*
X62263400Y-52208300D01*
X62291999Y-52319400D01*
X62345899Y-52424499D01*
X62359299Y-52464800D01*
X62352700Y-52503100D01*
X62318699Y-52557700D01*
X62273199Y-52610500D01*
X62237100Y-52643900D01*
X62151199Y-52706600D01*
X62031299Y-52771499D01*
X61909200Y-52816600D01*
X61890499Y-52796800D01*
X61867799Y-52754999D01*
X61838799Y-52741800D01*
X61115700Y-52692200D01*
X60868799Y-52679700D01*
X60692199Y-52676800D01*
X60527199Y-52681300D01*
X60373599Y-52693400D01*
X60346899Y-52738299D01*
X60293799Y-52786899D01*
X60272399Y-52825400D01*
X60226699Y-52829000D01*
X60161599Y-52844699D01*
X60070100Y-52856800D01*
X60029199Y-52850400D01*
X59999599Y-52834199D01*
X59975699Y-52721700D01*
X59949000Y-52540500D01*
X59933399Y-52344200D01*
X59929199Y-52205000D01*
X59931799Y-51777300D01*
X59940851Y-51522300D01*
X60311600Y-51522300D01*
X60314399Y-51783100D01*
X60325700Y-52012400D01*
X60345299Y-52235400D01*
X60370299Y-52398100D01*
X60404399Y-52543800D01*
X60435199Y-52533400D01*
X60512100Y-52475200D01*
X60542899Y-52464000D01*
X60575999Y-52460200D01*
X61041099Y-52465599D01*
X61913599Y-52491000D01*
X61932599Y-52422000D01*
X61940400Y-52348800D01*
X61935099Y-52234600D01*
X61917999Y-52077400D01*
X61821199Y-52090100D01*
X61715799Y-52096399D01*
X61601599Y-52096399D01*
X61440600Y-52088499D01*
X61097799Y-52058099D01*
X60671399Y-52004500D01*
X60585899Y-51998200D01*
X60489599Y-51997900D01*
X60474700Y-51992599D01*
X60469899Y-51982200D01*
X60481899Y-51933000D01*
X60490399Y-51917400D01*
X60519200Y-51888700D01*
X60560099Y-51863600D01*
X60673399Y-51824200D01*
X60818000Y-51798000D01*
X60940000Y-51794500D01*
X61050000Y-51814299D01*
X61163500Y-51827500D01*
X61671600Y-51859000D01*
X61819799Y-51856899D01*
X61953199Y-51839800D01*
X61950499Y-51754600D01*
X61931400Y-51638100D01*
X61924699Y-51521900D01*
X61945100Y-51072600D01*
X61943000Y-50945400D01*
X61935499Y-50871700D01*
X61920700Y-50797100D01*
X61898199Y-50728800D01*
X61874999Y-50684500D01*
X61833699Y-50639600D01*
X61794799Y-50616600D01*
X61762100Y-50627200D01*
X61728100Y-50630500D01*
X61605599Y-50599000D01*
X61626200Y-50922700D01*
X61646100Y-51049900D01*
X61674200Y-51166000D01*
X61709499Y-51269100D01*
X61744899Y-51346000D01*
X61801099Y-51435200D01*
X61856399Y-51501000D01*
X61790399Y-51535600D01*
X61685499Y-51577100D01*
X61623200Y-51615400D01*
X61596499Y-51599300D01*
X61590199Y-51582400D01*
X61589400Y-51508700D01*
X61585199Y-51486300D01*
X61583600Y-51483399D01*
X61552799Y-51496600D01*
X61528200Y-51473700D01*
X61503499Y-51433200D01*
X61451299Y-51300399D01*
X61391200Y-51098700D01*
X61358499Y-50923400D01*
X61338300Y-50684799D01*
X61319599Y-50550599D01*
X61034699Y-50544700D01*
X61020399Y-50546200D01*
X61020799Y-50709700D01*
X61029199Y-50909700D01*
X61029199Y-51047799D01*
X61023999Y-51131100D01*
X60998099Y-51290500D01*
X60976000Y-51365700D01*
X60955199Y-51411899D01*
X60914300Y-51475400D01*
X60861999Y-51531800D01*
X60810300Y-51545000D01*
X60714199Y-51581700D01*
X60647800Y-51600800D01*
X60569700Y-51614300D01*
X60490199Y-51615400D01*
X60423599Y-51602200D01*
X60360400Y-51571400D01*
X60471599Y-51444199D01*
X60559299Y-51358399D01*
X60636699Y-51309200D01*
X60721199Y-51281000D01*
X60748999Y-51222200D01*
X60769099Y-51158500D01*
X60786099Y-51054400D01*
X60791599Y-50942200D01*
X60773999Y-50528600D01*
X60679300Y-50516100D01*
X60558399Y-50516500D01*
X60523699Y-50521699D01*
X60462799Y-50539899D01*
X60413199Y-50568200D01*
X60425499Y-50608000D01*
X60426099Y-50660700D01*
X60363199Y-50940000D01*
X60342199Y-51080300D01*
X60326199Y-51233900D01*
X60311600Y-51522300D01*
X59940851Y-51522300D01*
X59943499Y-51447700D01*
X59965499Y-51126500D01*
X59968799Y-50948800D01*
X59965300Y-50882900D01*
X59954699Y-50824200D01*
X59937099Y-50772700D01*
X59912499Y-50728400D01*
X59880799Y-50691400D01*
X59812400Y-50678500D01*
X59745499Y-50657399D01*
X59682799Y-50629799D01*
X59689299Y-50599300D01*
X59701499Y-50585100D01*
X59752100Y-50555000D01*
X59766399Y-50541800D01*
X59733599Y-50526100D01*
X59726499Y-50512100D01*
X59726800Y-50497800D01*
X59770799Y-50435100D01*
X59825399Y-50388000D01*
X59889299Y-50355300D01*
X59955899Y-50331400D01*
X59979119Y-50326200D01*
X61038000Y-50326200D01*
X61142999Y-50334399D01*
X61251699Y-50335400D01*
X61310799Y-50343800D01*
X61307499Y-50071000D01*
X61318600Y-49950700D01*
X61337700Y-49895900D01*
X61358000Y-49861599D01*
X61416399Y-49798200D01*
X61086400Y-49793800D01*
X61055600Y-49881800D01*
X61043600Y-49958500D01*
X61038000Y-50153600D01*
X61042399Y-50259299D01*
X61038000Y-50326200D01*
X59979119Y-50326200D01*
X60175599Y-50282199D01*
X60235800Y-50239799D01*
X60264699Y-50227500D01*
X60276799Y-50225000D01*
X60358599Y-50234400D01*
X60499799Y-50258400D01*
X60519299Y-50266900D01*
X60551999Y-50305000D01*
X60575999Y-50317400D01*
X60609799Y-50320200D01*
X60715099Y-50313100D01*
X60760799Y-50321799D01*
X60774800Y-50167600D01*
X60775064Y-50153600D01*
X60779000Y-49945200D01*
X60800399Y-49776199D01*
X60529799Y-49736599D01*
X60073199Y-49699100D01*
X59779599Y-49657399D01*
X59810799Y-49609300D01*
X59869199Y-49548000D01*
X59915899Y-49514300D01*
X59968700Y-49486500D01*
X60112199Y-49434000D01*
X60272399Y-49384600D01*
X60327699Y-49427500D01*
G37*
G36*
X49515476Y-41931250D02*
G01*
X49556547Y-41931250D01*
X49563392Y-41938095D01*
X49583928Y-41938095D01*
X49590773Y-41944940D01*
X49631845Y-41951785D01*
X49666071Y-41972321D01*
X49693452Y-41979166D01*
X49707142Y-41992857D01*
X49748214Y-42013392D01*
X49796130Y-42054464D01*
X49844047Y-42081845D01*
X49891964Y-42122916D01*
X49939880Y-42150297D01*
X49967261Y-42177678D01*
X50015178Y-42205059D01*
X50035714Y-42225595D01*
X50063095Y-42239285D01*
X50131547Y-42294047D01*
X50138392Y-42294047D01*
X50152083Y-42307738D01*
X50179464Y-42321428D01*
X50200000Y-42341964D01*
X50227380Y-42355654D01*
X50247916Y-42376190D01*
X50275297Y-42389880D01*
X50295833Y-42410416D01*
X50323214Y-42424107D01*
X50371130Y-42465178D01*
X50377976Y-42465178D01*
X50391666Y-42478869D01*
X50439583Y-42506250D01*
X50487500Y-42547321D01*
X50535416Y-42574702D01*
X50583333Y-42615773D01*
X50590178Y-42615773D01*
X50603869Y-42629464D01*
X50631250Y-42643154D01*
X50651785Y-42663690D01*
X50679166Y-42677380D01*
X50727083Y-42718452D01*
X50733928Y-42718452D01*
X50747619Y-42732142D01*
X50795535Y-42759523D01*
X50843452Y-42800595D01*
X50891369Y-42827976D01*
X50918750Y-42855357D01*
X50946130Y-42869047D01*
X50987202Y-42910119D01*
X50987202Y-42916964D01*
X51021428Y-42958035D01*
X51035119Y-42985416D01*
X51035119Y-42999107D01*
X51048809Y-43019642D01*
X51048809Y-43040178D01*
X51055654Y-43047023D01*
X51055654Y-43998511D01*
X51062500Y-44005357D01*
X51062500Y-44025892D01*
X51076190Y-44039583D01*
X51172023Y-44087500D01*
X51185714Y-44101190D01*
X51233630Y-44121726D01*
X51247321Y-44135416D01*
X51281547Y-44149107D01*
X51295238Y-44162797D01*
X51356845Y-44190178D01*
X51370535Y-44203869D01*
X51432142Y-44231249D01*
X51445833Y-44244940D01*
X51541666Y-44292857D01*
X51555357Y-44306547D01*
X51616964Y-44333928D01*
X51630654Y-44347619D01*
X51664880Y-44361309D01*
X51678571Y-44375000D01*
X51829166Y-44450297D01*
X51842857Y-44463988D01*
X51890773Y-44484523D01*
X51904464Y-44498214D01*
X51938690Y-44511904D01*
X51952380Y-44525595D01*
X52013988Y-44552976D01*
X52027678Y-44566666D01*
X52061904Y-44580357D01*
X52075595Y-44594047D01*
X52198809Y-44655654D01*
X52212500Y-44669345D01*
X52246726Y-44683035D01*
X52280952Y-44710416D01*
X52301488Y-44717261D01*
X52328869Y-44744642D01*
X52335714Y-44744642D01*
X52383630Y-44792559D01*
X52383630Y-44799404D01*
X52404166Y-44819940D01*
X52404166Y-44826785D01*
X52431547Y-44861011D01*
X52465773Y-44929464D01*
X52465773Y-44943154D01*
X52479464Y-44970535D01*
X52479464Y-44991071D01*
X52486309Y-44997916D01*
X52486309Y-45025297D01*
X52493154Y-45032142D01*
X52493154Y-45086904D01*
X52500000Y-45093750D01*
X52500000Y-45107440D01*
X52493154Y-45114285D01*
X52493154Y-45182738D01*
X52486309Y-45189583D01*
X52486309Y-45216964D01*
X52479464Y-45223809D01*
X52472619Y-45264880D01*
X52458928Y-45285416D01*
X52458928Y-45299107D01*
X52431547Y-45353869D01*
X52397321Y-45394940D01*
X52397321Y-45401785D01*
X52308333Y-45490773D01*
X52301488Y-45490773D01*
X52280952Y-45511309D01*
X52198809Y-45552380D01*
X52185119Y-45552380D01*
X52178273Y-45559226D01*
X52164583Y-45559226D01*
X52137202Y-45572916D01*
X52109821Y-45572916D01*
X52102976Y-45579761D01*
X52061904Y-45579761D01*
X52055059Y-45586607D01*
X51986607Y-45586607D01*
X51979761Y-45579761D01*
X51938690Y-45579761D01*
X51931845Y-45572916D01*
X51911309Y-45572916D01*
X51904464Y-45566071D01*
X51883928Y-45566071D01*
X51877083Y-45559226D01*
X51842857Y-45552380D01*
X51788095Y-45525000D01*
X51774404Y-45511309D01*
X51726488Y-45483928D01*
X51705952Y-45463392D01*
X51658035Y-45436011D01*
X51637500Y-45415476D01*
X51630654Y-45415476D01*
X51616964Y-45401785D01*
X51610119Y-45401785D01*
X51596428Y-45388095D01*
X51589583Y-45388095D01*
X51575892Y-45374404D01*
X51569047Y-45374404D01*
X51555357Y-45360714D01*
X51548511Y-45360714D01*
X51534821Y-45347023D01*
X51527976Y-45347023D01*
X51514285Y-45333333D01*
X51466369Y-45305952D01*
X51445833Y-45285416D01*
X51438988Y-45285416D01*
X51425297Y-45271726D01*
X51377380Y-45244345D01*
X51356845Y-45223809D01*
X51308928Y-45196428D01*
X51288392Y-45175892D01*
X51281547Y-45175892D01*
X51267857Y-45162202D01*
X51261011Y-45162202D01*
X51247321Y-45148511D01*
X51240476Y-45148511D01*
X51226785Y-45134821D01*
X51178869Y-45107440D01*
X51117261Y-45045833D01*
X51117261Y-45038988D01*
X51096726Y-45018452D01*
X51083035Y-44991071D01*
X51083035Y-44977380D01*
X51069345Y-44949999D01*
X51069345Y-44922619D01*
X51062500Y-44915773D01*
X51062500Y-44039583D01*
X51035119Y-44025892D01*
X51021428Y-44012202D01*
X50987202Y-43998511D01*
X50973511Y-43984821D01*
X50911904Y-43957440D01*
X50898214Y-43943750D01*
X50816071Y-43902678D01*
X50802380Y-43888988D01*
X50754464Y-43868452D01*
X50740773Y-43854761D01*
X50631250Y-43800000D01*
X50617559Y-43786309D01*
X50583333Y-43772619D01*
X50569642Y-43758928D01*
X50535416Y-43745238D01*
X50521726Y-43731547D01*
X50412202Y-43676785D01*
X50398511Y-43663095D01*
X50364285Y-43649404D01*
X50350595Y-43635714D01*
X50302678Y-43615178D01*
X50288988Y-43601488D01*
X50254761Y-43587797D01*
X50241071Y-43574107D01*
X50206845Y-43560416D01*
X50193154Y-43546726D01*
X50158928Y-43533035D01*
X50145238Y-43519345D01*
X50083630Y-43491964D01*
X50069940Y-43478273D01*
X49987797Y-43437202D01*
X49974107Y-43423511D01*
X49939880Y-43409821D01*
X49926190Y-43396130D01*
X49864583Y-43368750D01*
X49850892Y-43355059D01*
X49816666Y-43341369D01*
X49782440Y-43313988D01*
X49720833Y-43286607D01*
X49679761Y-43252380D01*
X49672916Y-43252380D01*
X49638690Y-43218154D01*
X49638690Y-43211309D01*
X49618154Y-43190773D01*
X49611309Y-43170238D01*
X49597619Y-43156547D01*
X49597619Y-43142857D01*
X49577083Y-43101785D01*
X49577083Y-43074404D01*
X49570238Y-43067559D01*
X49570238Y-42814285D01*
X49577083Y-42807440D01*
X49577083Y-42499404D01*
X49583928Y-42492559D01*
X49583928Y-42163988D01*
X49577083Y-42157142D01*
X49570238Y-42129761D01*
X49529166Y-42088690D01*
X49515476Y-42088690D01*
X49508630Y-42081845D01*
X49460714Y-42081845D01*
X49453869Y-42088690D01*
X49440178Y-42088690D01*
X49399107Y-42129761D01*
X49392261Y-42157142D01*
X49385416Y-42163988D01*
X49385416Y-42437797D01*
X49392261Y-42444642D01*
X49392261Y-42711607D01*
X49399107Y-42718452D01*
X49399107Y-43047023D01*
X49405952Y-43053869D01*
X49405952Y-45675595D01*
X49371726Y-45661904D01*
X49358035Y-45648214D01*
X49234821Y-45586607D01*
X49221130Y-45572916D01*
X49186904Y-45559226D01*
X49173214Y-45545535D01*
X49138988Y-45531845D01*
X49125297Y-45518154D01*
X49077380Y-45497619D01*
X49063690Y-45483928D01*
X49015773Y-45463392D01*
X49002083Y-45449702D01*
X48954166Y-45429166D01*
X48940476Y-45415476D01*
X48892559Y-45394940D01*
X48878869Y-45381250D01*
X48769345Y-45326488D01*
X48721428Y-45292261D01*
X48673511Y-45271726D01*
X48659821Y-45258035D01*
X48577678Y-45216964D01*
X48563988Y-45203273D01*
X48529761Y-45189583D01*
X48516071Y-45175892D01*
X48454464Y-45148511D01*
X48440773Y-45134821D01*
X48392857Y-45114285D01*
X48379166Y-45100595D01*
X48344940Y-45086904D01*
X48331250Y-45073214D01*
X48221726Y-45018452D01*
X48208035Y-45004761D01*
X48173809Y-44991071D01*
X48160119Y-44977380D01*
X48050595Y-44922619D01*
X48036904Y-44908928D01*
X48009523Y-44895238D01*
X47934226Y-44813095D01*
X47913690Y-44772023D01*
X47906845Y-44730952D01*
X47900000Y-44724107D01*
X47900000Y-43040178D01*
X47906845Y-43033333D01*
X47906845Y-43012797D01*
X47920535Y-42992261D01*
X47920535Y-42978571D01*
X47934226Y-42951190D01*
X47968452Y-42910119D01*
X47968452Y-42903273D01*
X48023214Y-42848511D01*
X48030059Y-42848511D01*
X48071130Y-42814285D01*
X48119047Y-42786904D01*
X48139583Y-42766369D01*
X48166964Y-42752678D01*
X48187500Y-42732142D01*
X48194345Y-42732142D01*
X48214880Y-42711607D01*
X48262797Y-42684226D01*
X48283333Y-42663690D01*
X48290178Y-42663690D01*
X48303869Y-42650000D01*
X48351785Y-42622619D01*
X48427083Y-42561011D01*
X48475000Y-42533630D01*
X48529761Y-42485714D01*
X48577678Y-42458333D01*
X48625595Y-42417261D01*
X48632440Y-42417261D01*
X48646130Y-42403571D01*
X48694047Y-42376190D01*
X48714583Y-42355654D01*
X48721428Y-42355654D01*
X48741964Y-42335119D01*
X48769345Y-42321428D01*
X48789880Y-42300892D01*
X48837797Y-42273511D01*
X48858333Y-42252976D01*
X48885714Y-42239285D01*
X48954166Y-42184523D01*
X49002083Y-42157142D01*
X49022619Y-42136607D01*
X49050000Y-42122916D01*
X49070535Y-42102380D01*
X49118452Y-42074999D01*
X49138988Y-42054464D01*
X49145833Y-42054464D01*
X49186904Y-42020238D01*
X49227976Y-41999702D01*
X49241666Y-41986011D01*
X49296428Y-41958630D01*
X49310119Y-41958630D01*
X49316964Y-41951785D01*
X49330654Y-41951785D01*
X49358035Y-41938095D01*
X49378571Y-41938095D01*
X49385416Y-41931250D01*
X49426488Y-41931250D01*
X49433333Y-41924404D01*
X49508630Y-41924404D01*
X49515476Y-41931250D01*
G37*
D11*
X39020000Y-61365000D02*
X37550000Y-61365000D01*
X50970000Y-31250000D02*
X51956850Y-31250000D01*
X58940000Y-54150000D02*
X58940000Y-47780000D01*
X61350000Y-32000000D02*
X61350000Y-30775000D01*
X62851000Y-26317392D02*
X62058229Y-26155560D01*
X36047619Y-34633723D02*
X35666666Y-34633723D01*
X36123809Y-34862295D02*
X35857142Y-34062295D01*
X35857142Y-34062295D02*
X35590476Y-34862295D01*
X35323809Y-34862295D02*
X35323809Y-34062295D01*
X35323809Y-34062295D02*
X35057143Y-34633723D01*
X35057143Y-34633723D02*
X34790476Y-34062295D01*
X34790476Y-34062295D02*
X34790476Y-34862295D01*
X34409523Y-34862295D02*
X34409523Y-34062295D01*
X34409523Y-34062295D02*
X34104761Y-34062295D01*
X34104761Y-34062295D02*
X34028571Y-34100390D01*
X34028571Y-34100390D02*
X33990476Y-34138485D01*
X33990476Y-34138485D02*
X33952380Y-34214676D01*
X33952380Y-34214676D02*
X33952380Y-34328961D01*
X33952380Y-34328961D02*
X33990476Y-34405152D01*
X33990476Y-34405152D02*
X34028571Y-34443247D01*
X34028571Y-34443247D02*
X34104761Y-34481342D01*
X34104761Y-34481342D02*
X34409523Y-34481342D01*
X38859523Y-66562295D02*
X38859523Y-67209914D01*
X38859523Y-67209914D02*
X38821428Y-67286104D01*
X38821428Y-67286104D02*
X38783333Y-67324200D01*
X38783333Y-67324200D02*
X38707142Y-67362295D01*
X38707142Y-67362295D02*
X38554761Y-67362295D01*
X38554761Y-67362295D02*
X38478571Y-67324200D01*
X38478571Y-67324200D02*
X38440476Y-67286104D01*
X38440476Y-67286104D02*
X38402380Y-67209914D01*
X38402380Y-67209914D02*
X38402380Y-66562295D01*
X38059524Y-67324200D02*
X37945238Y-67362295D01*
X37945238Y-67362295D02*
X37754762Y-67362295D01*
X37754762Y-67362295D02*
X37678571Y-67324200D01*
X37678571Y-67324200D02*
X37640476Y-67286104D01*
X37640476Y-67286104D02*
X37602381Y-67209914D01*
X37602381Y-67209914D02*
X37602381Y-67133723D01*
X37602381Y-67133723D02*
X37640476Y-67057533D01*
X37640476Y-67057533D02*
X37678571Y-67019438D01*
X37678571Y-67019438D02*
X37754762Y-66981342D01*
X37754762Y-66981342D02*
X37907143Y-66943247D01*
X37907143Y-66943247D02*
X37983333Y-66905152D01*
X37983333Y-66905152D02*
X38021428Y-66867057D01*
X38021428Y-66867057D02*
X38059524Y-66790866D01*
X38059524Y-66790866D02*
X38059524Y-66714676D01*
X38059524Y-66714676D02*
X38021428Y-66638485D01*
X38021428Y-66638485D02*
X37983333Y-66600390D01*
X37983333Y-66600390D02*
X37907143Y-66562295D01*
X37907143Y-66562295D02*
X37716666Y-66562295D01*
X37716666Y-66562295D02*
X37602381Y-66600390D01*
X36992857Y-66943247D02*
X36878571Y-66981342D01*
X36878571Y-66981342D02*
X36840476Y-67019438D01*
X36840476Y-67019438D02*
X36802380Y-67095628D01*
X36802380Y-67095628D02*
X36802380Y-67209914D01*
X36802380Y-67209914D02*
X36840476Y-67286104D01*
X36840476Y-67286104D02*
X36878571Y-67324200D01*
X36878571Y-67324200D02*
X36954761Y-67362295D01*
X36954761Y-67362295D02*
X37259523Y-67362295D01*
X37259523Y-67362295D02*
X37259523Y-66562295D01*
X37259523Y-66562295D02*
X36992857Y-66562295D01*
X36992857Y-66562295D02*
X36916666Y-66600390D01*
X36916666Y-66600390D02*
X36878571Y-66638485D01*
X36878571Y-66638485D02*
X36840476Y-66714676D01*
X36840476Y-66714676D02*
X36840476Y-66790866D01*
X36840476Y-66790866D02*
X36878571Y-66867057D01*
X36878571Y-66867057D02*
X36916666Y-66905152D01*
X36916666Y-66905152D02*
X36992857Y-66943247D01*
X36992857Y-66943247D02*
X37259523Y-66943247D01*
X47990475Y-52762295D02*
X47990475Y-51962295D01*
X47990475Y-51962295D02*
X47685713Y-51962295D01*
X47685713Y-51962295D02*
X47609523Y-52000390D01*
X47609523Y-52000390D02*
X47571428Y-52038485D01*
X47571428Y-52038485D02*
X47533332Y-52114676D01*
X47533332Y-52114676D02*
X47533332Y-52228961D01*
X47533332Y-52228961D02*
X47571428Y-52305152D01*
X47571428Y-52305152D02*
X47609523Y-52343247D01*
X47609523Y-52343247D02*
X47685713Y-52381342D01*
X47685713Y-52381342D02*
X47990475Y-52381342D01*
X46733332Y-52762295D02*
X46999999Y-52381342D01*
X47190475Y-52762295D02*
X47190475Y-51962295D01*
X47190475Y-51962295D02*
X46885713Y-51962295D01*
X46885713Y-51962295D02*
X46809523Y-52000390D01*
X46809523Y-52000390D02*
X46771428Y-52038485D01*
X46771428Y-52038485D02*
X46733332Y-52114676D01*
X46733332Y-52114676D02*
X46733332Y-52228961D01*
X46733332Y-52228961D02*
X46771428Y-52305152D01*
X46771428Y-52305152D02*
X46809523Y-52343247D01*
X46809523Y-52343247D02*
X46885713Y-52381342D01*
X46885713Y-52381342D02*
X47190475Y-52381342D01*
X46428571Y-52724200D02*
X46314285Y-52762295D01*
X46314285Y-52762295D02*
X46123809Y-52762295D01*
X46123809Y-52762295D02*
X46047618Y-52724200D01*
X46047618Y-52724200D02*
X46009523Y-52686104D01*
X46009523Y-52686104D02*
X45971428Y-52609914D01*
X45971428Y-52609914D02*
X45971428Y-52533723D01*
X45971428Y-52533723D02*
X46009523Y-52457533D01*
X46009523Y-52457533D02*
X46047618Y-52419438D01*
X46047618Y-52419438D02*
X46123809Y-52381342D01*
X46123809Y-52381342D02*
X46276190Y-52343247D01*
X46276190Y-52343247D02*
X46352380Y-52305152D01*
X46352380Y-52305152D02*
X46390475Y-52267057D01*
X46390475Y-52267057D02*
X46428571Y-52190866D01*
X46428571Y-52190866D02*
X46428571Y-52114676D01*
X46428571Y-52114676D02*
X46390475Y-52038485D01*
X46390475Y-52038485D02*
X46352380Y-52000390D01*
X46352380Y-52000390D02*
X46276190Y-51962295D01*
X46276190Y-51962295D02*
X46085713Y-51962295D01*
X46085713Y-51962295D02*
X45971428Y-52000390D01*
X52828572Y-48264080D02*
X52790476Y-48225985D01*
X52790476Y-48225985D02*
X52714286Y-48187890D01*
X52714286Y-48187890D02*
X52523810Y-48187890D01*
X52523810Y-48187890D02*
X52447619Y-48225985D01*
X52447619Y-48225985D02*
X52409524Y-48264080D01*
X52409524Y-48264080D02*
X52371429Y-48340271D01*
X52371429Y-48340271D02*
X52371429Y-48416461D01*
X52371429Y-48416461D02*
X52409524Y-48530747D01*
X52409524Y-48530747D02*
X52866667Y-48987890D01*
X52866667Y-48987890D02*
X52371429Y-48987890D01*
X51876190Y-48187890D02*
X51800000Y-48187890D01*
X51800000Y-48187890D02*
X51723809Y-48225985D01*
X51723809Y-48225985D02*
X51685714Y-48264080D01*
X51685714Y-48264080D02*
X51647619Y-48340271D01*
X51647619Y-48340271D02*
X51609524Y-48492652D01*
X51609524Y-48492652D02*
X51609524Y-48683128D01*
X51609524Y-48683128D02*
X51647619Y-48835509D01*
X51647619Y-48835509D02*
X51685714Y-48911699D01*
X51685714Y-48911699D02*
X51723809Y-48949795D01*
X51723809Y-48949795D02*
X51800000Y-48987890D01*
X51800000Y-48987890D02*
X51876190Y-48987890D01*
X51876190Y-48987890D02*
X51952381Y-48949795D01*
X51952381Y-48949795D02*
X51990476Y-48911699D01*
X51990476Y-48911699D02*
X52028571Y-48835509D01*
X52028571Y-48835509D02*
X52066667Y-48683128D01*
X52066667Y-48683128D02*
X52066667Y-48492652D01*
X52066667Y-48492652D02*
X52028571Y-48340271D01*
X52028571Y-48340271D02*
X51990476Y-48264080D01*
X51990476Y-48264080D02*
X51952381Y-48225985D01*
X51952381Y-48225985D02*
X51876190Y-48187890D01*
X51304762Y-48264080D02*
X51266666Y-48225985D01*
X51266666Y-48225985D02*
X51190476Y-48187890D01*
X51190476Y-48187890D02*
X51000000Y-48187890D01*
X51000000Y-48187890D02*
X50923809Y-48225985D01*
X50923809Y-48225985D02*
X50885714Y-48264080D01*
X50885714Y-48264080D02*
X50847619Y-48340271D01*
X50847619Y-48340271D02*
X50847619Y-48416461D01*
X50847619Y-48416461D02*
X50885714Y-48530747D01*
X50885714Y-48530747D02*
X51342857Y-48987890D01*
X51342857Y-48987890D02*
X50847619Y-48987890D01*
X50161904Y-48187890D02*
X50314285Y-48187890D01*
X50314285Y-48187890D02*
X50390476Y-48225985D01*
X50390476Y-48225985D02*
X50428571Y-48264080D01*
X50428571Y-48264080D02*
X50504761Y-48378366D01*
X50504761Y-48378366D02*
X50542857Y-48530747D01*
X50542857Y-48530747D02*
X50542857Y-48835509D01*
X50542857Y-48835509D02*
X50504761Y-48911699D01*
X50504761Y-48911699D02*
X50466666Y-48949795D01*
X50466666Y-48949795D02*
X50390476Y-48987890D01*
X50390476Y-48987890D02*
X50238095Y-48987890D01*
X50238095Y-48987890D02*
X50161904Y-48949795D01*
X50161904Y-48949795D02*
X50123809Y-48911699D01*
X50123809Y-48911699D02*
X50085714Y-48835509D01*
X50085714Y-48835509D02*
X50085714Y-48645033D01*
X50085714Y-48645033D02*
X50123809Y-48568842D01*
X50123809Y-48568842D02*
X50161904Y-48530747D01*
X50161904Y-48530747D02*
X50238095Y-48492652D01*
X50238095Y-48492652D02*
X50390476Y-48492652D01*
X50390476Y-48492652D02*
X50466666Y-48530747D01*
X50466666Y-48530747D02*
X50504761Y-48568842D01*
X50504761Y-48568842D02*
X50542857Y-48645033D01*
X49742856Y-48683128D02*
X49133333Y-48683128D01*
X48333333Y-48987890D02*
X48790476Y-48987890D01*
X48561904Y-48987890D02*
X48561904Y-48187890D01*
X48561904Y-48187890D02*
X48638095Y-48302175D01*
X48638095Y-48302175D02*
X48714285Y-48378366D01*
X48714285Y-48378366D02*
X48790476Y-48416461D01*
X47838094Y-48187890D02*
X47761904Y-48187890D01*
X47761904Y-48187890D02*
X47685713Y-48225985D01*
X47685713Y-48225985D02*
X47647618Y-48264080D01*
X47647618Y-48264080D02*
X47609523Y-48340271D01*
X47609523Y-48340271D02*
X47571428Y-48492652D01*
X47571428Y-48492652D02*
X47571428Y-48683128D01*
X47571428Y-48683128D02*
X47609523Y-48835509D01*
X47609523Y-48835509D02*
X47647618Y-48911699D01*
X47647618Y-48911699D02*
X47685713Y-48949795D01*
X47685713Y-48949795D02*
X47761904Y-48987890D01*
X47761904Y-48987890D02*
X47838094Y-48987890D01*
X47838094Y-48987890D02*
X47914285Y-48949795D01*
X47914285Y-48949795D02*
X47952380Y-48911699D01*
X47952380Y-48911699D02*
X47990475Y-48835509D01*
X47990475Y-48835509D02*
X48028571Y-48683128D01*
X48028571Y-48683128D02*
X48028571Y-48492652D01*
X48028571Y-48492652D02*
X47990475Y-48340271D01*
X47990475Y-48340271D02*
X47952380Y-48264080D01*
X47952380Y-48264080D02*
X47914285Y-48225985D01*
X47914285Y-48225985D02*
X47838094Y-48187890D01*
X51932890Y-52059999D02*
X51932890Y-51259999D01*
X51932890Y-51640951D02*
X51475747Y-51640951D01*
X51475747Y-52059999D02*
X51475747Y-51259999D01*
X50713843Y-52059999D02*
X51094795Y-52059999D01*
X51094795Y-52059999D02*
X51094795Y-51259999D01*
X50485272Y-51831427D02*
X50104319Y-51831427D01*
X50561462Y-52059999D02*
X50294795Y-51259999D01*
X50294795Y-51259999D02*
X50028129Y-52059999D01*
X55807692Y-56818756D02*
X55807692Y-56018756D01*
X55274359Y-56018756D02*
X55121978Y-56018756D01*
X55121978Y-56018756D02*
X55045788Y-56056851D01*
X55045788Y-56056851D02*
X54969597Y-56133041D01*
X54969597Y-56133041D02*
X54931502Y-56285422D01*
X54931502Y-56285422D02*
X54931502Y-56552089D01*
X54931502Y-56552089D02*
X54969597Y-56704470D01*
X54969597Y-56704470D02*
X55045788Y-56780661D01*
X55045788Y-56780661D02*
X55121978Y-56818756D01*
X55121978Y-56818756D02*
X55274359Y-56818756D01*
X55274359Y-56818756D02*
X55350550Y-56780661D01*
X55350550Y-56780661D02*
X55426740Y-56704470D01*
X55426740Y-56704470D02*
X55464836Y-56552089D01*
X55464836Y-56552089D02*
X55464836Y-56285422D01*
X55464836Y-56285422D02*
X55426740Y-56133041D01*
X55426740Y-56133041D02*
X55350550Y-56056851D01*
X55350550Y-56056851D02*
X55274359Y-56018756D01*
X54626741Y-56094946D02*
X54588645Y-56056851D01*
X54588645Y-56056851D02*
X54512455Y-56018756D01*
X54512455Y-56018756D02*
X54321979Y-56018756D01*
X54321979Y-56018756D02*
X54245788Y-56056851D01*
X54245788Y-56056851D02*
X54207693Y-56094946D01*
X54207693Y-56094946D02*
X54169598Y-56171137D01*
X54169598Y-56171137D02*
X54169598Y-56247327D01*
X54169598Y-56247327D02*
X54207693Y-56361613D01*
X54207693Y-56361613D02*
X54664836Y-56818756D01*
X54664836Y-56818756D02*
X54169598Y-56818756D01*
X53483883Y-56018756D02*
X53636264Y-56018756D01*
X53636264Y-56018756D02*
X53712455Y-56056851D01*
X53712455Y-56056851D02*
X53750550Y-56094946D01*
X53750550Y-56094946D02*
X53826740Y-56209232D01*
X53826740Y-56209232D02*
X53864836Y-56361613D01*
X53864836Y-56361613D02*
X53864836Y-56666375D01*
X53864836Y-56666375D02*
X53826740Y-56742565D01*
X53826740Y-56742565D02*
X53788645Y-56780661D01*
X53788645Y-56780661D02*
X53712455Y-56818756D01*
X53712455Y-56818756D02*
X53560074Y-56818756D01*
X53560074Y-56818756D02*
X53483883Y-56780661D01*
X53483883Y-56780661D02*
X53445788Y-56742565D01*
X53445788Y-56742565D02*
X53407693Y-56666375D01*
X53407693Y-56666375D02*
X53407693Y-56475899D01*
X53407693Y-56475899D02*
X53445788Y-56399708D01*
X53445788Y-56399708D02*
X53483883Y-56361613D01*
X53483883Y-56361613D02*
X53560074Y-56323518D01*
X53560074Y-56323518D02*
X53712455Y-56323518D01*
X53712455Y-56323518D02*
X53788645Y-56361613D01*
X53788645Y-56361613D02*
X53826740Y-56399708D01*
X53826740Y-56399708D02*
X53864836Y-56475899D01*
X56952381Y-48244200D02*
X56838095Y-48282295D01*
X56838095Y-48282295D02*
X56647619Y-48282295D01*
X56647619Y-48282295D02*
X56571428Y-48244200D01*
X56571428Y-48244200D02*
X56533333Y-48206104D01*
X56533333Y-48206104D02*
X56495238Y-48129914D01*
X56495238Y-48129914D02*
X56495238Y-48053723D01*
X56495238Y-48053723D02*
X56533333Y-47977533D01*
X56533333Y-47977533D02*
X56571428Y-47939438D01*
X56571428Y-47939438D02*
X56647619Y-47901342D01*
X56647619Y-47901342D02*
X56800000Y-47863247D01*
X56800000Y-47863247D02*
X56876190Y-47825152D01*
X56876190Y-47825152D02*
X56914285Y-47787057D01*
X56914285Y-47787057D02*
X56952381Y-47710866D01*
X56952381Y-47710866D02*
X56952381Y-47634676D01*
X56952381Y-47634676D02*
X56914285Y-47558485D01*
X56914285Y-47558485D02*
X56876190Y-47520390D01*
X56876190Y-47520390D02*
X56800000Y-47482295D01*
X56800000Y-47482295D02*
X56609523Y-47482295D01*
X56609523Y-47482295D02*
X56495238Y-47520390D01*
X55695237Y-48206104D02*
X55733333Y-48244200D01*
X55733333Y-48244200D02*
X55847618Y-48282295D01*
X55847618Y-48282295D02*
X55923809Y-48282295D01*
X55923809Y-48282295D02*
X56038095Y-48244200D01*
X56038095Y-48244200D02*
X56114285Y-48168009D01*
X56114285Y-48168009D02*
X56152380Y-48091819D01*
X56152380Y-48091819D02*
X56190476Y-47939438D01*
X56190476Y-47939438D02*
X56190476Y-47825152D01*
X56190476Y-47825152D02*
X56152380Y-47672771D01*
X56152380Y-47672771D02*
X56114285Y-47596580D01*
X56114285Y-47596580D02*
X56038095Y-47520390D01*
X56038095Y-47520390D02*
X55923809Y-47482295D01*
X55923809Y-47482295D02*
X55847618Y-47482295D01*
X55847618Y-47482295D02*
X55733333Y-47520390D01*
X55733333Y-47520390D02*
X55695237Y-47558485D01*
X54971428Y-48282295D02*
X55352380Y-48282295D01*
X55352380Y-48282295D02*
X55352380Y-47482295D01*
X57872211Y-35546112D02*
X57910307Y-35584208D01*
X57910307Y-35584208D02*
X58024592Y-35622303D01*
X58024592Y-35622303D02*
X58100783Y-35622303D01*
X58100783Y-35622303D02*
X58215069Y-35584208D01*
X58215069Y-35584208D02*
X58291259Y-35508017D01*
X58291259Y-35508017D02*
X58329354Y-35431827D01*
X58329354Y-35431827D02*
X58367450Y-35279446D01*
X58367450Y-35279446D02*
X58367450Y-35165160D01*
X58367450Y-35165160D02*
X58329354Y-35012779D01*
X58329354Y-35012779D02*
X58291259Y-34936588D01*
X58291259Y-34936588D02*
X58215069Y-34860398D01*
X58215069Y-34860398D02*
X58100783Y-34822303D01*
X58100783Y-34822303D02*
X58024592Y-34822303D01*
X58024592Y-34822303D02*
X57910307Y-34860398D01*
X57910307Y-34860398D02*
X57872211Y-34898493D01*
X57529354Y-35203255D02*
X57262688Y-35203255D01*
X57148402Y-35622303D02*
X57529354Y-35622303D01*
X57529354Y-35622303D02*
X57529354Y-34822303D01*
X57529354Y-34822303D02*
X57148402Y-34822303D01*
X71500476Y-39534270D02*
X71386190Y-39572365D01*
X71386190Y-39572365D02*
X71348095Y-39610461D01*
X71348095Y-39610461D02*
X71309999Y-39686651D01*
X71309999Y-39686651D02*
X71309999Y-39800937D01*
X71309999Y-39800937D02*
X71348095Y-39877127D01*
X71348095Y-39877127D02*
X71386190Y-39915223D01*
X71386190Y-39915223D02*
X71462380Y-39953318D01*
X71462380Y-39953318D02*
X71767142Y-39953318D01*
X71767142Y-39953318D02*
X71767142Y-39153318D01*
X71767142Y-39153318D02*
X71500476Y-39153318D01*
X71500476Y-39153318D02*
X71424285Y-39191413D01*
X71424285Y-39191413D02*
X71386190Y-39229508D01*
X71386190Y-39229508D02*
X71348095Y-39305699D01*
X71348095Y-39305699D02*
X71348095Y-39381889D01*
X71348095Y-39381889D02*
X71386190Y-39458080D01*
X71386190Y-39458080D02*
X71424285Y-39496175D01*
X71424285Y-39496175D02*
X71500476Y-39534270D01*
X71500476Y-39534270D02*
X71767142Y-39534270D01*
X71005238Y-39724746D02*
X70624285Y-39724746D01*
X71081428Y-39953318D02*
X70814761Y-39153318D01*
X70814761Y-39153318D02*
X70548095Y-39953318D01*
X70395714Y-39153318D02*
X69938571Y-39153318D01*
X70167143Y-39953318D02*
X70167143Y-39153318D01*
X71671904Y-41241273D02*
X72052856Y-41241273D01*
X72052856Y-41241273D02*
X72052856Y-40441273D01*
X71405237Y-41241273D02*
X71405237Y-40441273D01*
X71024285Y-41241273D02*
X71024285Y-40441273D01*
X71024285Y-40441273D02*
X70567142Y-41241273D01*
X70567142Y-41241273D02*
X70567142Y-40441273D01*
X70186190Y-41241273D02*
X70186190Y-40441273D01*
X69729047Y-41241273D02*
X70071905Y-40784130D01*
X69729047Y-40441273D02*
X70186190Y-40898416D01*
X48236752Y-37366666D02*
X48198657Y-37252380D01*
X48198657Y-37252380D02*
X48160561Y-37214285D01*
X48160561Y-37214285D02*
X48084371Y-37176189D01*
X48084371Y-37176189D02*
X47970085Y-37176189D01*
X47970085Y-37176189D02*
X47893895Y-37214285D01*
X47893895Y-37214285D02*
X47855800Y-37252380D01*
X47855800Y-37252380D02*
X47817704Y-37328570D01*
X47817704Y-37328570D02*
X47817704Y-37633332D01*
X47817704Y-37633332D02*
X48617704Y-37633332D01*
X48617704Y-37633332D02*
X48617704Y-37366666D01*
X48617704Y-37366666D02*
X48579609Y-37290475D01*
X48579609Y-37290475D02*
X48541514Y-37252380D01*
X48541514Y-37252380D02*
X48465323Y-37214285D01*
X48465323Y-37214285D02*
X48389133Y-37214285D01*
X48389133Y-37214285D02*
X48312942Y-37252380D01*
X48312942Y-37252380D02*
X48274847Y-37290475D01*
X48274847Y-37290475D02*
X48236752Y-37366666D01*
X48236752Y-37366666D02*
X48236752Y-37633332D01*
X47817704Y-36452380D02*
X47817704Y-36833332D01*
X47817704Y-36833332D02*
X48617704Y-36833332D01*
X47817704Y-40595237D02*
X47817704Y-40976189D01*
X47817704Y-40976189D02*
X48617704Y-40976189D01*
X47893895Y-39871427D02*
X47855800Y-39909523D01*
X47855800Y-39909523D02*
X47817704Y-40023808D01*
X47817704Y-40023808D02*
X47817704Y-40099999D01*
X47817704Y-40099999D02*
X47855800Y-40214285D01*
X47855800Y-40214285D02*
X47931990Y-40290475D01*
X47931990Y-40290475D02*
X48008180Y-40328570D01*
X48008180Y-40328570D02*
X48160561Y-40366666D01*
X48160561Y-40366666D02*
X48274847Y-40366666D01*
X48274847Y-40366666D02*
X48427228Y-40328570D01*
X48427228Y-40328570D02*
X48503419Y-40290475D01*
X48503419Y-40290475D02*
X48579609Y-40214285D01*
X48579609Y-40214285D02*
X48617704Y-40099999D01*
X48617704Y-40099999D02*
X48617704Y-40023808D01*
X48617704Y-40023808D02*
X48579609Y-39909523D01*
X48579609Y-39909523D02*
X48541514Y-39871427D01*
X47817704Y-39528570D02*
X48617704Y-39528570D01*
X48617704Y-39528570D02*
X48617704Y-39338094D01*
X48617704Y-39338094D02*
X48579609Y-39223808D01*
X48579609Y-39223808D02*
X48503419Y-39147618D01*
X48503419Y-39147618D02*
X48427228Y-39109523D01*
X48427228Y-39109523D02*
X48274847Y-39071427D01*
X48274847Y-39071427D02*
X48160561Y-39071427D01*
X48160561Y-39071427D02*
X48008180Y-39109523D01*
X48008180Y-39109523D02*
X47931990Y-39147618D01*
X47931990Y-39147618D02*
X47855800Y-39223808D01*
X47855800Y-39223808D02*
X47817704Y-39338094D01*
X47817704Y-39338094D02*
X47817704Y-39528570D01*
X48617704Y-38842856D02*
X47817704Y-38576189D01*
X47817704Y-38576189D02*
X48617704Y-38309523D01*
X54488815Y-34904895D02*
X53688815Y-34638228D01*
X53688815Y-34638228D02*
X54488815Y-34371562D01*
X54107863Y-33838229D02*
X54069768Y-33723943D01*
X54069768Y-33723943D02*
X54031672Y-33685848D01*
X54031672Y-33685848D02*
X53955482Y-33647752D01*
X53955482Y-33647752D02*
X53841196Y-33647752D01*
X53841196Y-33647752D02*
X53765006Y-33685848D01*
X53765006Y-33685848D02*
X53726911Y-33723943D01*
X53726911Y-33723943D02*
X53688815Y-33800133D01*
X53688815Y-33800133D02*
X53688815Y-34104895D01*
X53688815Y-34104895D02*
X54488815Y-34104895D01*
X54488815Y-34104895D02*
X54488815Y-33838229D01*
X54488815Y-33838229D02*
X54450720Y-33762038D01*
X54450720Y-33762038D02*
X54412625Y-33723943D01*
X54412625Y-33723943D02*
X54336434Y-33685848D01*
X54336434Y-33685848D02*
X54260244Y-33685848D01*
X54260244Y-33685848D02*
X54184053Y-33723943D01*
X54184053Y-33723943D02*
X54145958Y-33762038D01*
X54145958Y-33762038D02*
X54107863Y-33838229D01*
X54107863Y-33838229D02*
X54107863Y-34104895D01*
X54488815Y-33304895D02*
X53841196Y-33304895D01*
X53841196Y-33304895D02*
X53765006Y-33266800D01*
X53765006Y-33266800D02*
X53726911Y-33228705D01*
X53726911Y-33228705D02*
X53688815Y-33152514D01*
X53688815Y-33152514D02*
X53688815Y-33000133D01*
X53688815Y-33000133D02*
X53726911Y-32923943D01*
X53726911Y-32923943D02*
X53765006Y-32885848D01*
X53765006Y-32885848D02*
X53841196Y-32847752D01*
X53841196Y-32847752D02*
X54488815Y-32847752D01*
X53726911Y-32504896D02*
X53688815Y-32390610D01*
X53688815Y-32390610D02*
X53688815Y-32200134D01*
X53688815Y-32200134D02*
X53726911Y-32123943D01*
X53726911Y-32123943D02*
X53765006Y-32085848D01*
X53765006Y-32085848D02*
X53841196Y-32047753D01*
X53841196Y-32047753D02*
X53917387Y-32047753D01*
X53917387Y-32047753D02*
X53993577Y-32085848D01*
X53993577Y-32085848D02*
X54031672Y-32123943D01*
X54031672Y-32123943D02*
X54069768Y-32200134D01*
X54069768Y-32200134D02*
X54107863Y-32352515D01*
X54107863Y-32352515D02*
X54145958Y-32428705D01*
X54145958Y-32428705D02*
X54184053Y-32466800D01*
X54184053Y-32466800D02*
X54260244Y-32504896D01*
X54260244Y-32504896D02*
X54336434Y-32504896D01*
X54336434Y-32504896D02*
X54412625Y-32466800D01*
X54412625Y-32466800D02*
X54450720Y-32428705D01*
X54450720Y-32428705D02*
X54488815Y-32352515D01*
X54488815Y-32352515D02*
X54488815Y-32162038D01*
X54488815Y-32162038D02*
X54450720Y-32047753D01*
X56895800Y-50871428D02*
X56857704Y-50757142D01*
X56857704Y-50757142D02*
X56857704Y-50566666D01*
X56857704Y-50566666D02*
X56895800Y-50490475D01*
X56895800Y-50490475D02*
X56933895Y-50452380D01*
X56933895Y-50452380D02*
X57010085Y-50414285D01*
X57010085Y-50414285D02*
X57086276Y-50414285D01*
X57086276Y-50414285D02*
X57162466Y-50452380D01*
X57162466Y-50452380D02*
X57200561Y-50490475D01*
X57200561Y-50490475D02*
X57238657Y-50566666D01*
X57238657Y-50566666D02*
X57276752Y-50719047D01*
X57276752Y-50719047D02*
X57314847Y-50795237D01*
X57314847Y-50795237D02*
X57352942Y-50833332D01*
X57352942Y-50833332D02*
X57429133Y-50871428D01*
X57429133Y-50871428D02*
X57505323Y-50871428D01*
X57505323Y-50871428D02*
X57581514Y-50833332D01*
X57581514Y-50833332D02*
X57619609Y-50795237D01*
X57619609Y-50795237D02*
X57657704Y-50719047D01*
X57657704Y-50719047D02*
X57657704Y-50528570D01*
X57657704Y-50528570D02*
X57619609Y-50414285D01*
X56857704Y-50071427D02*
X57657704Y-50071427D01*
X57657704Y-50071427D02*
X57657704Y-49880951D01*
X57657704Y-49880951D02*
X57619609Y-49766665D01*
X57619609Y-49766665D02*
X57543419Y-49690475D01*
X57543419Y-49690475D02*
X57467228Y-49652380D01*
X57467228Y-49652380D02*
X57314847Y-49614284D01*
X57314847Y-49614284D02*
X57200561Y-49614284D01*
X57200561Y-49614284D02*
X57048180Y-49652380D01*
X57048180Y-49652380D02*
X56971990Y-49690475D01*
X56971990Y-49690475D02*
X56895800Y-49766665D01*
X56895800Y-49766665D02*
X56857704Y-49880951D01*
X56857704Y-49880951D02*
X56857704Y-50071427D01*
X57086276Y-49309523D02*
X57086276Y-48928570D01*
X56857704Y-49385713D02*
X57657704Y-49119046D01*
X57657704Y-49119046D02*
X56857704Y-48852380D01*
X57719609Y-44509523D02*
X57757704Y-44585713D01*
X57757704Y-44585713D02*
X57757704Y-44699999D01*
X57757704Y-44699999D02*
X57719609Y-44814285D01*
X57719609Y-44814285D02*
X57643419Y-44890475D01*
X57643419Y-44890475D02*
X57567228Y-44928570D01*
X57567228Y-44928570D02*
X57414847Y-44966666D01*
X57414847Y-44966666D02*
X57300561Y-44966666D01*
X57300561Y-44966666D02*
X57148180Y-44928570D01*
X57148180Y-44928570D02*
X57071990Y-44890475D01*
X57071990Y-44890475D02*
X56995800Y-44814285D01*
X56995800Y-44814285D02*
X56957704Y-44699999D01*
X56957704Y-44699999D02*
X56957704Y-44623808D01*
X56957704Y-44623808D02*
X56995800Y-44509523D01*
X56995800Y-44509523D02*
X57033895Y-44471427D01*
X57033895Y-44471427D02*
X57300561Y-44471427D01*
X57300561Y-44471427D02*
X57300561Y-44623808D01*
X56957704Y-44128570D02*
X57757704Y-44128570D01*
X57757704Y-44128570D02*
X56957704Y-43671427D01*
X56957704Y-43671427D02*
X57757704Y-43671427D01*
X56957704Y-43290475D02*
X57757704Y-43290475D01*
X57757704Y-43290475D02*
X57757704Y-43099999D01*
X57757704Y-43099999D02*
X57719609Y-42985713D01*
X57719609Y-42985713D02*
X57643419Y-42909523D01*
X57643419Y-42909523D02*
X57567228Y-42871428D01*
X57567228Y-42871428D02*
X57414847Y-42833332D01*
X57414847Y-42833332D02*
X57300561Y-42833332D01*
X57300561Y-42833332D02*
X57148180Y-42871428D01*
X57148180Y-42871428D02*
X57071990Y-42909523D01*
X57071990Y-42909523D02*
X56995800Y-42985713D01*
X56995800Y-42985713D02*
X56957704Y-43099999D01*
X56957704Y-43099999D02*
X56957704Y-43290475D01*
X59264894Y-68335714D02*
X59226799Y-68221428D01*
X59226799Y-68221428D02*
X59188703Y-68183333D01*
X59188703Y-68183333D02*
X59112513Y-68145237D01*
X59112513Y-68145237D02*
X58998227Y-68145237D01*
X58998227Y-68145237D02*
X58922037Y-68183333D01*
X58922037Y-68183333D02*
X58883942Y-68221428D01*
X58883942Y-68221428D02*
X58845846Y-68297618D01*
X58845846Y-68297618D02*
X58845846Y-68602380D01*
X58845846Y-68602380D02*
X59645846Y-68602380D01*
X59645846Y-68602380D02*
X59645846Y-68335714D01*
X59645846Y-68335714D02*
X59607751Y-68259523D01*
X59607751Y-68259523D02*
X59569656Y-68221428D01*
X59569656Y-68221428D02*
X59493465Y-68183333D01*
X59493465Y-68183333D02*
X59417275Y-68183333D01*
X59417275Y-68183333D02*
X59341084Y-68221428D01*
X59341084Y-68221428D02*
X59302989Y-68259523D01*
X59302989Y-68259523D02*
X59264894Y-68335714D01*
X59264894Y-68335714D02*
X59264894Y-68602380D01*
X59645846Y-67649999D02*
X59645846Y-67497618D01*
X59645846Y-67497618D02*
X59607751Y-67421428D01*
X59607751Y-67421428D02*
X59531561Y-67345237D01*
X59531561Y-67345237D02*
X59379180Y-67307142D01*
X59379180Y-67307142D02*
X59112513Y-67307142D01*
X59112513Y-67307142D02*
X58960132Y-67345237D01*
X58960132Y-67345237D02*
X58883942Y-67421428D01*
X58883942Y-67421428D02*
X58845846Y-67497618D01*
X58845846Y-67497618D02*
X58845846Y-67649999D01*
X58845846Y-67649999D02*
X58883942Y-67726190D01*
X58883942Y-67726190D02*
X58960132Y-67802380D01*
X58960132Y-67802380D02*
X59112513Y-67840476D01*
X59112513Y-67840476D02*
X59379180Y-67840476D01*
X59379180Y-67840476D02*
X59531561Y-67802380D01*
X59531561Y-67802380D02*
X59607751Y-67726190D01*
X59607751Y-67726190D02*
X59645846Y-67649999D01*
X59645846Y-66811904D02*
X59645846Y-66659523D01*
X59645846Y-66659523D02*
X59607751Y-66583333D01*
X59607751Y-66583333D02*
X59531561Y-66507142D01*
X59531561Y-66507142D02*
X59379180Y-66469047D01*
X59379180Y-66469047D02*
X59112513Y-66469047D01*
X59112513Y-66469047D02*
X58960132Y-66507142D01*
X58960132Y-66507142D02*
X58883942Y-66583333D01*
X58883942Y-66583333D02*
X58845846Y-66659523D01*
X58845846Y-66659523D02*
X58845846Y-66811904D01*
X58845846Y-66811904D02*
X58883942Y-66888095D01*
X58883942Y-66888095D02*
X58960132Y-66964285D01*
X58960132Y-66964285D02*
X59112513Y-67002381D01*
X59112513Y-67002381D02*
X59379180Y-67002381D01*
X59379180Y-67002381D02*
X59531561Y-66964285D01*
X59531561Y-66964285D02*
X59607751Y-66888095D01*
X59607751Y-66888095D02*
X59645846Y-66811904D01*
X59645846Y-66240476D02*
X59645846Y-65783333D01*
X58845846Y-66011905D02*
X59645846Y-66011905D01*
X60557704Y-44890476D02*
X60557704Y-44395238D01*
X60557704Y-44395238D02*
X60252942Y-44661904D01*
X60252942Y-44661904D02*
X60252942Y-44547619D01*
X60252942Y-44547619D02*
X60214847Y-44471428D01*
X60214847Y-44471428D02*
X60176752Y-44433333D01*
X60176752Y-44433333D02*
X60100561Y-44395238D01*
X60100561Y-44395238D02*
X59910085Y-44395238D01*
X59910085Y-44395238D02*
X59833895Y-44433333D01*
X59833895Y-44433333D02*
X59795800Y-44471428D01*
X59795800Y-44471428D02*
X59757704Y-44547619D01*
X59757704Y-44547619D02*
X59757704Y-44776190D01*
X59757704Y-44776190D02*
X59795800Y-44852381D01*
X59795800Y-44852381D02*
X59833895Y-44890476D01*
X60557704Y-44166666D02*
X59757704Y-43899999D01*
X59757704Y-43899999D02*
X60557704Y-43633333D01*
X60557704Y-43442857D02*
X60557704Y-42947619D01*
X60557704Y-42947619D02*
X60252942Y-43214285D01*
X60252942Y-43214285D02*
X60252942Y-43100000D01*
X60252942Y-43100000D02*
X60214847Y-43023809D01*
X60214847Y-43023809D02*
X60176752Y-42985714D01*
X60176752Y-42985714D02*
X60100561Y-42947619D01*
X60100561Y-42947619D02*
X59910085Y-42947619D01*
X59910085Y-42947619D02*
X59833895Y-42985714D01*
X59833895Y-42985714D02*
X59795800Y-43023809D01*
X59795800Y-43023809D02*
X59757704Y-43100000D01*
X59757704Y-43100000D02*
X59757704Y-43328571D01*
X59757704Y-43328571D02*
X59795800Y-43404762D01*
X59795800Y-43404762D02*
X59833895Y-43442857D01*
X60494165Y-62554210D02*
X61294165Y-62554210D01*
X61294165Y-62020877D02*
X61294165Y-61868496D01*
X61294165Y-61868496D02*
X61256070Y-61792306D01*
X61256070Y-61792306D02*
X61179880Y-61716115D01*
X61179880Y-61716115D02*
X61027499Y-61678020D01*
X61027499Y-61678020D02*
X60760832Y-61678020D01*
X60760832Y-61678020D02*
X60608451Y-61716115D01*
X60608451Y-61716115D02*
X60532261Y-61792306D01*
X60532261Y-61792306D02*
X60494165Y-61868496D01*
X60494165Y-61868496D02*
X60494165Y-62020877D01*
X60494165Y-62020877D02*
X60532261Y-62097068D01*
X60532261Y-62097068D02*
X60608451Y-62173258D01*
X60608451Y-62173258D02*
X60760832Y-62211354D01*
X60760832Y-62211354D02*
X61027499Y-62211354D01*
X61027499Y-62211354D02*
X61179880Y-62173258D01*
X61179880Y-62173258D02*
X61256070Y-62097068D01*
X61256070Y-62097068D02*
X61294165Y-62020877D01*
X61294165Y-61411354D02*
X61294165Y-60916116D01*
X61294165Y-60916116D02*
X60989403Y-61182782D01*
X60989403Y-61182782D02*
X60989403Y-61068497D01*
X60989403Y-61068497D02*
X60951308Y-60992306D01*
X60951308Y-60992306D02*
X60913213Y-60954211D01*
X60913213Y-60954211D02*
X60837022Y-60916116D01*
X60837022Y-60916116D02*
X60646546Y-60916116D01*
X60646546Y-60916116D02*
X60570356Y-60954211D01*
X60570356Y-60954211D02*
X60532261Y-60992306D01*
X60532261Y-60992306D02*
X60494165Y-61068497D01*
X60494165Y-61068497D02*
X60494165Y-61297068D01*
X60494165Y-61297068D02*
X60532261Y-61373259D01*
X60532261Y-61373259D02*
X60570356Y-61411354D01*
X60494165Y-60535163D02*
X60494165Y-60382782D01*
X60494165Y-60382782D02*
X60532261Y-60306592D01*
X60532261Y-60306592D02*
X60570356Y-60268496D01*
X60570356Y-60268496D02*
X60684641Y-60192306D01*
X60684641Y-60192306D02*
X60837022Y-60154211D01*
X60837022Y-60154211D02*
X61141784Y-60154211D01*
X61141784Y-60154211D02*
X61217975Y-60192306D01*
X61217975Y-60192306D02*
X61256070Y-60230401D01*
X61256070Y-60230401D02*
X61294165Y-60306592D01*
X61294165Y-60306592D02*
X61294165Y-60458973D01*
X61294165Y-60458973D02*
X61256070Y-60535163D01*
X61256070Y-60535163D02*
X61217975Y-60573258D01*
X61217975Y-60573258D02*
X61141784Y-60611354D01*
X61141784Y-60611354D02*
X60951308Y-60611354D01*
X60951308Y-60611354D02*
X60875118Y-60573258D01*
X60875118Y-60573258D02*
X60837022Y-60535163D01*
X60837022Y-60535163D02*
X60798927Y-60458973D01*
X60798927Y-60458973D02*
X60798927Y-60306592D01*
X60798927Y-60306592D02*
X60837022Y-60230401D01*
X60837022Y-60230401D02*
X60875118Y-60192306D01*
X60875118Y-60192306D02*
X60951308Y-60154211D01*
X61317704Y-57990476D02*
X61317704Y-57533333D01*
X60517704Y-57761905D02*
X61317704Y-57761905D01*
X60936752Y-57266666D02*
X60936752Y-57000000D01*
X60517704Y-56885714D02*
X60517704Y-57266666D01*
X60517704Y-57266666D02*
X61317704Y-57266666D01*
X61317704Y-57266666D02*
X61317704Y-56885714D01*
X62595800Y-44852381D02*
X62557704Y-44738095D01*
X62557704Y-44738095D02*
X62557704Y-44547619D01*
X62557704Y-44547619D02*
X62595800Y-44471428D01*
X62595800Y-44471428D02*
X62633895Y-44433333D01*
X62633895Y-44433333D02*
X62710085Y-44395238D01*
X62710085Y-44395238D02*
X62786276Y-44395238D01*
X62786276Y-44395238D02*
X62862466Y-44433333D01*
X62862466Y-44433333D02*
X62900561Y-44471428D01*
X62900561Y-44471428D02*
X62938657Y-44547619D01*
X62938657Y-44547619D02*
X62976752Y-44700000D01*
X62976752Y-44700000D02*
X63014847Y-44776190D01*
X63014847Y-44776190D02*
X63052942Y-44814285D01*
X63052942Y-44814285D02*
X63129133Y-44852381D01*
X63129133Y-44852381D02*
X63205323Y-44852381D01*
X63205323Y-44852381D02*
X63281514Y-44814285D01*
X63281514Y-44814285D02*
X63319609Y-44776190D01*
X63319609Y-44776190D02*
X63357704Y-44700000D01*
X63357704Y-44700000D02*
X63357704Y-44509523D01*
X63357704Y-44509523D02*
X63319609Y-44395238D01*
X62938657Y-43899999D02*
X62557704Y-43899999D01*
X63357704Y-44166666D02*
X62938657Y-43899999D01*
X62938657Y-43899999D02*
X63357704Y-43633333D01*
X62595800Y-43404762D02*
X62557704Y-43290476D01*
X62557704Y-43290476D02*
X62557704Y-43100000D01*
X62557704Y-43100000D02*
X62595800Y-43023809D01*
X62595800Y-43023809D02*
X62633895Y-42985714D01*
X62633895Y-42985714D02*
X62710085Y-42947619D01*
X62710085Y-42947619D02*
X62786276Y-42947619D01*
X62786276Y-42947619D02*
X62862466Y-42985714D01*
X62862466Y-42985714D02*
X62900561Y-43023809D01*
X62900561Y-43023809D02*
X62938657Y-43100000D01*
X62938657Y-43100000D02*
X62976752Y-43252381D01*
X62976752Y-43252381D02*
X63014847Y-43328571D01*
X63014847Y-43328571D02*
X63052942Y-43366666D01*
X63052942Y-43366666D02*
X63129133Y-43404762D01*
X63129133Y-43404762D02*
X63205323Y-43404762D01*
X63205323Y-43404762D02*
X63281514Y-43366666D01*
X63281514Y-43366666D02*
X63319609Y-43328571D01*
X63319609Y-43328571D02*
X63357704Y-43252381D01*
X63357704Y-43252381D02*
X63357704Y-43061904D01*
X63357704Y-43061904D02*
X63319609Y-42947619D01*
X63319609Y-47309523D02*
X63357704Y-47385713D01*
X63357704Y-47385713D02*
X63357704Y-47499999D01*
X63357704Y-47499999D02*
X63319609Y-47614285D01*
X63319609Y-47614285D02*
X63243419Y-47690475D01*
X63243419Y-47690475D02*
X63167228Y-47728570D01*
X63167228Y-47728570D02*
X63014847Y-47766666D01*
X63014847Y-47766666D02*
X62900561Y-47766666D01*
X62900561Y-47766666D02*
X62748180Y-47728570D01*
X62748180Y-47728570D02*
X62671990Y-47690475D01*
X62671990Y-47690475D02*
X62595800Y-47614285D01*
X62595800Y-47614285D02*
X62557704Y-47499999D01*
X62557704Y-47499999D02*
X62557704Y-47423808D01*
X62557704Y-47423808D02*
X62595800Y-47309523D01*
X62595800Y-47309523D02*
X62633895Y-47271427D01*
X62633895Y-47271427D02*
X62900561Y-47271427D01*
X62900561Y-47271427D02*
X62900561Y-47423808D01*
X62557704Y-46928570D02*
X63357704Y-46928570D01*
X63357704Y-46928570D02*
X62557704Y-46471427D01*
X62557704Y-46471427D02*
X63357704Y-46471427D01*
X62557704Y-46090475D02*
X63357704Y-46090475D01*
X63357704Y-46090475D02*
X63357704Y-45899999D01*
X63357704Y-45899999D02*
X63319609Y-45785713D01*
X63319609Y-45785713D02*
X63243419Y-45709523D01*
X63243419Y-45709523D02*
X63167228Y-45671428D01*
X63167228Y-45671428D02*
X63014847Y-45633332D01*
X63014847Y-45633332D02*
X62900561Y-45633332D01*
X62900561Y-45633332D02*
X62748180Y-45671428D01*
X62748180Y-45671428D02*
X62671990Y-45709523D01*
X62671990Y-45709523D02*
X62595800Y-45785713D01*
X62595800Y-45785713D02*
X62557704Y-45899999D01*
X62557704Y-45899999D02*
X62557704Y-46090475D01*
X65157704Y-49938094D02*
X65538657Y-50204761D01*
X65157704Y-50395237D02*
X65957704Y-50395237D01*
X65957704Y-50395237D02*
X65957704Y-50090475D01*
X65957704Y-50090475D02*
X65919609Y-50014285D01*
X65919609Y-50014285D02*
X65881514Y-49976190D01*
X65881514Y-49976190D02*
X65805323Y-49938094D01*
X65805323Y-49938094D02*
X65691038Y-49938094D01*
X65691038Y-49938094D02*
X65614847Y-49976190D01*
X65614847Y-49976190D02*
X65576752Y-50014285D01*
X65576752Y-50014285D02*
X65538657Y-50090475D01*
X65538657Y-50090475D02*
X65538657Y-50395237D01*
X65195800Y-49633333D02*
X65157704Y-49519047D01*
X65157704Y-49519047D02*
X65157704Y-49328571D01*
X65157704Y-49328571D02*
X65195800Y-49252380D01*
X65195800Y-49252380D02*
X65233895Y-49214285D01*
X65233895Y-49214285D02*
X65310085Y-49176190D01*
X65310085Y-49176190D02*
X65386276Y-49176190D01*
X65386276Y-49176190D02*
X65462466Y-49214285D01*
X65462466Y-49214285D02*
X65500561Y-49252380D01*
X65500561Y-49252380D02*
X65538657Y-49328571D01*
X65538657Y-49328571D02*
X65576752Y-49480952D01*
X65576752Y-49480952D02*
X65614847Y-49557142D01*
X65614847Y-49557142D02*
X65652942Y-49595237D01*
X65652942Y-49595237D02*
X65729133Y-49633333D01*
X65729133Y-49633333D02*
X65805323Y-49633333D01*
X65805323Y-49633333D02*
X65881514Y-49595237D01*
X65881514Y-49595237D02*
X65919609Y-49557142D01*
X65919609Y-49557142D02*
X65957704Y-49480952D01*
X65957704Y-49480952D02*
X65957704Y-49290475D01*
X65957704Y-49290475D02*
X65919609Y-49176190D01*
X65957704Y-48947618D02*
X65957704Y-48490475D01*
X65157704Y-48719047D02*
X65957704Y-48719047D01*
X65957704Y-53966666D02*
X65957704Y-53509523D01*
X65157704Y-53738095D02*
X65957704Y-53738095D01*
X65195800Y-53280952D02*
X65157704Y-53166666D01*
X65157704Y-53166666D02*
X65157704Y-52976190D01*
X65157704Y-52976190D02*
X65195800Y-52899999D01*
X65195800Y-52899999D02*
X65233895Y-52861904D01*
X65233895Y-52861904D02*
X65310085Y-52823809D01*
X65310085Y-52823809D02*
X65386276Y-52823809D01*
X65386276Y-52823809D02*
X65462466Y-52861904D01*
X65462466Y-52861904D02*
X65500561Y-52899999D01*
X65500561Y-52899999D02*
X65538657Y-52976190D01*
X65538657Y-52976190D02*
X65576752Y-53128571D01*
X65576752Y-53128571D02*
X65614847Y-53204761D01*
X65614847Y-53204761D02*
X65652942Y-53242856D01*
X65652942Y-53242856D02*
X65729133Y-53280952D01*
X65729133Y-53280952D02*
X65805323Y-53280952D01*
X65805323Y-53280952D02*
X65881514Y-53242856D01*
X65881514Y-53242856D02*
X65919609Y-53204761D01*
X65919609Y-53204761D02*
X65957704Y-53128571D01*
X65957704Y-53128571D02*
X65957704Y-52938094D01*
X65957704Y-52938094D02*
X65919609Y-52823809D01*
X65157704Y-52480951D02*
X65957704Y-52480951D01*
X65957704Y-52480951D02*
X65386276Y-52214285D01*
X65386276Y-52214285D02*
X65957704Y-51947618D01*
X65957704Y-51947618D02*
X65157704Y-51947618D01*
X65157704Y-51109522D02*
X65538657Y-51376189D01*
X65157704Y-51566665D02*
X65957704Y-51566665D01*
X65957704Y-51566665D02*
X65957704Y-51261903D01*
X65957704Y-51261903D02*
X65919609Y-51185713D01*
X65919609Y-51185713D02*
X65881514Y-51147618D01*
X65881514Y-51147618D02*
X65805323Y-51109522D01*
X65805323Y-51109522D02*
X65691038Y-51109522D01*
X65691038Y-51109522D02*
X65614847Y-51147618D01*
X65614847Y-51147618D02*
X65576752Y-51185713D01*
X65576752Y-51185713D02*
X65538657Y-51261903D01*
X65538657Y-51261903D02*
X65538657Y-51566665D01*
X65676752Y-44490476D02*
X65638657Y-44376190D01*
X65638657Y-44376190D02*
X65600561Y-44338095D01*
X65600561Y-44338095D02*
X65524371Y-44299999D01*
X65524371Y-44299999D02*
X65410085Y-44299999D01*
X65410085Y-44299999D02*
X65333895Y-44338095D01*
X65333895Y-44338095D02*
X65295800Y-44376190D01*
X65295800Y-44376190D02*
X65257704Y-44452380D01*
X65257704Y-44452380D02*
X65257704Y-44757142D01*
X65257704Y-44757142D02*
X66057704Y-44757142D01*
X66057704Y-44757142D02*
X66057704Y-44490476D01*
X66057704Y-44490476D02*
X66019609Y-44414285D01*
X66019609Y-44414285D02*
X65981514Y-44376190D01*
X65981514Y-44376190D02*
X65905323Y-44338095D01*
X65905323Y-44338095D02*
X65829133Y-44338095D01*
X65829133Y-44338095D02*
X65752942Y-44376190D01*
X65752942Y-44376190D02*
X65714847Y-44414285D01*
X65714847Y-44414285D02*
X65676752Y-44490476D01*
X65676752Y-44490476D02*
X65676752Y-44757142D01*
X65486276Y-43995238D02*
X65486276Y-43614285D01*
X65257704Y-44071428D02*
X66057704Y-43804761D01*
X66057704Y-43804761D02*
X65257704Y-43538095D01*
X66057704Y-43385714D02*
X66057704Y-42928571D01*
X65257704Y-43157143D02*
X66057704Y-43157143D01*
X66019609Y-47309523D02*
X66057704Y-47385713D01*
X66057704Y-47385713D02*
X66057704Y-47499999D01*
X66057704Y-47499999D02*
X66019609Y-47614285D01*
X66019609Y-47614285D02*
X65943419Y-47690475D01*
X65943419Y-47690475D02*
X65867228Y-47728570D01*
X65867228Y-47728570D02*
X65714847Y-47766666D01*
X65714847Y-47766666D02*
X65600561Y-47766666D01*
X65600561Y-47766666D02*
X65448180Y-47728570D01*
X65448180Y-47728570D02*
X65371990Y-47690475D01*
X65371990Y-47690475D02*
X65295800Y-47614285D01*
X65295800Y-47614285D02*
X65257704Y-47499999D01*
X65257704Y-47499999D02*
X65257704Y-47423808D01*
X65257704Y-47423808D02*
X65295800Y-47309523D01*
X65295800Y-47309523D02*
X65333895Y-47271427D01*
X65333895Y-47271427D02*
X65600561Y-47271427D01*
X65600561Y-47271427D02*
X65600561Y-47423808D01*
X65257704Y-46928570D02*
X66057704Y-46928570D01*
X66057704Y-46928570D02*
X65257704Y-46471427D01*
X65257704Y-46471427D02*
X66057704Y-46471427D01*
X65257704Y-46090475D02*
X66057704Y-46090475D01*
X66057704Y-46090475D02*
X66057704Y-45899999D01*
X66057704Y-45899999D02*
X66019609Y-45785713D01*
X66019609Y-45785713D02*
X65943419Y-45709523D01*
X65943419Y-45709523D02*
X65867228Y-45671428D01*
X65867228Y-45671428D02*
X65714847Y-45633332D01*
X65714847Y-45633332D02*
X65600561Y-45633332D01*
X65600561Y-45633332D02*
X65448180Y-45671428D01*
X65448180Y-45671428D02*
X65371990Y-45709523D01*
X65371990Y-45709523D02*
X65295800Y-45785713D01*
X65295800Y-45785713D02*
X65257704Y-45899999D01*
X65257704Y-45899999D02*
X65257704Y-46090475D01*
X74367704Y-51472856D02*
X75167704Y-51472856D01*
X74367704Y-50634761D02*
X74748657Y-50901428D01*
X74367704Y-51091904D02*
X75167704Y-51091904D01*
X75167704Y-51091904D02*
X75167704Y-50787142D01*
X75167704Y-50787142D02*
X75129609Y-50710952D01*
X75129609Y-50710952D02*
X75091514Y-50672857D01*
X75091514Y-50672857D02*
X75015323Y-50634761D01*
X75015323Y-50634761D02*
X74901038Y-50634761D01*
X74901038Y-50634761D02*
X74824847Y-50672857D01*
X74824847Y-50672857D02*
X74786752Y-50710952D01*
X74786752Y-50710952D02*
X74748657Y-50787142D01*
X74748657Y-50787142D02*
X74748657Y-51091904D01*
X75167704Y-50406190D02*
X74367704Y-50139523D01*
X74367704Y-50139523D02*
X75167704Y-49872857D01*
D12*
X70974285Y-50985238D02*
X70364762Y-50985238D01*
X69488571Y-50490000D02*
X69031428Y-50490000D01*
X69260000Y-51290000D02*
X69260000Y-50490000D01*
X68155237Y-50985238D02*
X67545714Y-50985238D01*
X67850475Y-51290000D02*
X67850475Y-50680476D01*
X69850476Y-52158907D02*
X69736190Y-52197002D01*
X69736190Y-52197002D02*
X69698095Y-52235098D01*
X69698095Y-52235098D02*
X69659999Y-52311288D01*
X69659999Y-52311288D02*
X69659999Y-52425574D01*
X69659999Y-52425574D02*
X69698095Y-52501764D01*
X69698095Y-52501764D02*
X69736190Y-52539860D01*
X69736190Y-52539860D02*
X69812380Y-52577955D01*
X69812380Y-52577955D02*
X70117142Y-52577955D01*
X70117142Y-52577955D02*
X70117142Y-51777955D01*
X70117142Y-51777955D02*
X69850476Y-51777955D01*
X69850476Y-51777955D02*
X69774285Y-51816050D01*
X69774285Y-51816050D02*
X69736190Y-51854145D01*
X69736190Y-51854145D02*
X69698095Y-51930336D01*
X69698095Y-51930336D02*
X69698095Y-52006526D01*
X69698095Y-52006526D02*
X69736190Y-52082717D01*
X69736190Y-52082717D02*
X69774285Y-52120812D01*
X69774285Y-52120812D02*
X69850476Y-52158907D01*
X69850476Y-52158907D02*
X70117142Y-52158907D01*
X69355238Y-52349383D02*
X68974285Y-52349383D01*
X69431428Y-52577955D02*
X69164761Y-51777955D01*
X69164761Y-51777955D02*
X68898095Y-52577955D01*
X68745714Y-51777955D02*
X68288571Y-51777955D01*
X68517143Y-52577955D02*
X68517143Y-51777955D01*
D13*
X26516217Y-61822857D02*
X26516217Y-62394285D01*
X26516217Y-62394285D02*
X27716217Y-62394285D01*
X26516217Y-60737142D02*
X27087645Y-61137142D01*
X26516217Y-61422856D02*
X27716217Y-61422856D01*
X27716217Y-61422856D02*
X27716217Y-60965713D01*
X27716217Y-60965713D02*
X27659074Y-60851428D01*
X27659074Y-60851428D02*
X27601931Y-60794285D01*
X27601931Y-60794285D02*
X27487645Y-60737142D01*
X27487645Y-60737142D02*
X27316217Y-60737142D01*
X27316217Y-60737142D02*
X27201931Y-60794285D01*
X27201931Y-60794285D02*
X27144788Y-60851428D01*
X27144788Y-60851428D02*
X27087645Y-60965713D01*
X27087645Y-60965713D02*
X27087645Y-61422856D01*
X26859074Y-60279999D02*
X26859074Y-59708571D01*
X26516217Y-60394285D02*
X27716217Y-59994285D01*
X27716217Y-59994285D02*
X26516217Y-59594285D01*
X27971360Y-49142856D02*
X27914217Y-48971428D01*
X27914217Y-48971428D02*
X27914217Y-48685713D01*
X27914217Y-48685713D02*
X27971360Y-48571428D01*
X27971360Y-48571428D02*
X28028502Y-48514285D01*
X28028502Y-48514285D02*
X28142788Y-48457142D01*
X28142788Y-48457142D02*
X28257074Y-48457142D01*
X28257074Y-48457142D02*
X28371360Y-48514285D01*
X28371360Y-48514285D02*
X28428502Y-48571428D01*
X28428502Y-48571428D02*
X28485645Y-48685713D01*
X28485645Y-48685713D02*
X28542788Y-48914285D01*
X28542788Y-48914285D02*
X28599931Y-49028570D01*
X28599931Y-49028570D02*
X28657074Y-49085713D01*
X28657074Y-49085713D02*
X28771360Y-49142856D01*
X28771360Y-49142856D02*
X28885645Y-49142856D01*
X28885645Y-49142856D02*
X28999931Y-49085713D01*
X28999931Y-49085713D02*
X29057074Y-49028570D01*
X29057074Y-49028570D02*
X29114217Y-48914285D01*
X29114217Y-48914285D02*
X29114217Y-48628570D01*
X29114217Y-48628570D02*
X29057074Y-48457142D01*
X27914217Y-47942856D02*
X29114217Y-47942856D01*
X29114217Y-47942856D02*
X29114217Y-47485713D01*
X29114217Y-47485713D02*
X29057074Y-47371428D01*
X29057074Y-47371428D02*
X28999931Y-47314285D01*
X28999931Y-47314285D02*
X28885645Y-47257142D01*
X28885645Y-47257142D02*
X28714217Y-47257142D01*
X28714217Y-47257142D02*
X28599931Y-47314285D01*
X28599931Y-47314285D02*
X28542788Y-47371428D01*
X28542788Y-47371428D02*
X28485645Y-47485713D01*
X28485645Y-47485713D02*
X28485645Y-47942856D01*
X27914217Y-46742856D02*
X29114217Y-46742856D01*
X27914217Y-46057142D02*
X28599931Y-46571428D01*
X29114217Y-46057142D02*
X28428502Y-46742856D01*
X41421908Y-52628571D02*
X41421908Y-53199999D01*
X41421908Y-53199999D02*
X42621908Y-53199999D01*
X41536193Y-51542856D02*
X41479051Y-51599999D01*
X41479051Y-51599999D02*
X41421908Y-51771427D01*
X41421908Y-51771427D02*
X41421908Y-51885713D01*
X41421908Y-51885713D02*
X41479051Y-52057142D01*
X41479051Y-52057142D02*
X41593336Y-52171427D01*
X41593336Y-52171427D02*
X41707622Y-52228570D01*
X41707622Y-52228570D02*
X41936193Y-52285713D01*
X41936193Y-52285713D02*
X42107622Y-52285713D01*
X42107622Y-52285713D02*
X42336193Y-52228570D01*
X42336193Y-52228570D02*
X42450479Y-52171427D01*
X42450479Y-52171427D02*
X42564765Y-52057142D01*
X42564765Y-52057142D02*
X42621908Y-51885713D01*
X42621908Y-51885713D02*
X42621908Y-51771427D01*
X42621908Y-51771427D02*
X42564765Y-51599999D01*
X42564765Y-51599999D02*
X42507622Y-51542856D01*
X41421908Y-51028570D02*
X42621908Y-51028570D01*
X42621908Y-51028570D02*
X42621908Y-50742856D01*
X42621908Y-50742856D02*
X42564765Y-50571427D01*
X42564765Y-50571427D02*
X42450479Y-50457142D01*
X42450479Y-50457142D02*
X42336193Y-50399999D01*
X42336193Y-50399999D02*
X42107622Y-50342856D01*
X42107622Y-50342856D02*
X41936193Y-50342856D01*
X41936193Y-50342856D02*
X41707622Y-50399999D01*
X41707622Y-50399999D02*
X41593336Y-50457142D01*
X41593336Y-50457142D02*
X41479051Y-50571427D01*
X41479051Y-50571427D02*
X41421908Y-50742856D01*
X41421908Y-50742856D02*
X41421908Y-51028570D01*
X61963254Y-67228921D02*
X61963254Y-66543207D01*
X60763254Y-66886064D02*
X61963254Y-66886064D01*
X61106111Y-66200349D02*
X61106111Y-65628921D01*
X60763254Y-66314635D02*
X61963254Y-65914635D01*
X61963254Y-65914635D02*
X60763254Y-65514635D01*
X61906111Y-64486064D02*
X61963254Y-64600350D01*
X61963254Y-64600350D02*
X61963254Y-64771778D01*
X61963254Y-64771778D02*
X61906111Y-64943207D01*
X61906111Y-64943207D02*
X61791825Y-65057492D01*
X61791825Y-65057492D02*
X61677539Y-65114635D01*
X61677539Y-65114635D02*
X61448968Y-65171778D01*
X61448968Y-65171778D02*
X61277539Y-65171778D01*
X61277539Y-65171778D02*
X61048968Y-65114635D01*
X61048968Y-65114635D02*
X60934682Y-65057492D01*
X60934682Y-65057492D02*
X60820397Y-64943207D01*
X60820397Y-64943207D02*
X60763254Y-64771778D01*
X60763254Y-64771778D02*
X60763254Y-64657492D01*
X60763254Y-64657492D02*
X60820397Y-64486064D01*
X60820397Y-64486064D02*
X60877539Y-64428921D01*
X60877539Y-64428921D02*
X61277539Y-64428921D01*
X61277539Y-64428921D02*
X61277539Y-64657492D01*
D14*
X47530568Y-30642662D02*
X47530568Y-31614091D01*
X47530568Y-31614091D02*
X47473425Y-31728377D01*
X47473425Y-31728377D02*
X47416283Y-31785520D01*
X47416283Y-31785520D02*
X47301997Y-31842662D01*
X47301997Y-31842662D02*
X47073425Y-31842662D01*
X47073425Y-31842662D02*
X46959140Y-31785520D01*
X46959140Y-31785520D02*
X46901997Y-31728377D01*
X46901997Y-31728377D02*
X46844854Y-31614091D01*
X46844854Y-31614091D02*
X46844854Y-30642662D01*
X46330568Y-31785520D02*
X46159140Y-31842662D01*
X46159140Y-31842662D02*
X45873425Y-31842662D01*
X45873425Y-31842662D02*
X45759140Y-31785520D01*
X45759140Y-31785520D02*
X45701997Y-31728377D01*
X45701997Y-31728377D02*
X45644854Y-31614091D01*
X45644854Y-31614091D02*
X45644854Y-31499805D01*
X45644854Y-31499805D02*
X45701997Y-31385520D01*
X45701997Y-31385520D02*
X45759140Y-31328377D01*
X45759140Y-31328377D02*
X45873425Y-31271234D01*
X45873425Y-31271234D02*
X46101997Y-31214091D01*
X46101997Y-31214091D02*
X46216282Y-31156948D01*
X46216282Y-31156948D02*
X46273425Y-31099805D01*
X46273425Y-31099805D02*
X46330568Y-30985520D01*
X46330568Y-30985520D02*
X46330568Y-30871234D01*
X46330568Y-30871234D02*
X46273425Y-30756948D01*
X46273425Y-30756948D02*
X46216282Y-30699805D01*
X46216282Y-30699805D02*
X46101997Y-30642662D01*
X46101997Y-30642662D02*
X45816282Y-30642662D01*
X45816282Y-30642662D02*
X45644854Y-30699805D01*
X44730568Y-31214091D02*
X44559140Y-31271234D01*
X44559140Y-31271234D02*
X44501997Y-31328377D01*
X44501997Y-31328377D02*
X44444854Y-31442662D01*
X44444854Y-31442662D02*
X44444854Y-31614091D01*
X44444854Y-31614091D02*
X44501997Y-31728377D01*
X44501997Y-31728377D02*
X44559140Y-31785520D01*
X44559140Y-31785520D02*
X44673425Y-31842662D01*
X44673425Y-31842662D02*
X45130568Y-31842662D01*
X45130568Y-31842662D02*
X45130568Y-30642662D01*
X45130568Y-30642662D02*
X44730568Y-30642662D01*
X44730568Y-30642662D02*
X44616283Y-30699805D01*
X44616283Y-30699805D02*
X44559140Y-30756948D01*
X44559140Y-30756948D02*
X44501997Y-30871234D01*
X44501997Y-30871234D02*
X44501997Y-30985520D01*
X44501997Y-30985520D02*
X44559140Y-31099805D01*
X44559140Y-31099805D02*
X44616283Y-31156948D01*
X44616283Y-31156948D02*
X44730568Y-31214091D01*
X44730568Y-31214091D02*
X45130568Y-31214091D01*
D15*
X54057142Y-47553923D02*
X54057142Y-46053923D01*
X54057142Y-46053923D02*
X53557142Y-47125352D01*
X53557142Y-47125352D02*
X53057142Y-46053923D01*
X53057142Y-46053923D02*
X53057142Y-47553923D01*
X52414284Y-47125352D02*
X51699999Y-47125352D01*
X52557141Y-47553923D02*
X52057141Y-46053923D01*
X52057141Y-46053923D02*
X51557141Y-47553923D01*
X50771427Y-46053923D02*
X50485713Y-46053923D01*
X50485713Y-46053923D02*
X50342856Y-46125352D01*
X50342856Y-46125352D02*
X50199999Y-46268209D01*
X50199999Y-46268209D02*
X50128570Y-46553923D01*
X50128570Y-46553923D02*
X50128570Y-47053923D01*
X50128570Y-47053923D02*
X50199999Y-47339637D01*
X50199999Y-47339637D02*
X50342856Y-47482495D01*
X50342856Y-47482495D02*
X50485713Y-47553923D01*
X50485713Y-47553923D02*
X50771427Y-47553923D01*
X50771427Y-47553923D02*
X50914285Y-47482495D01*
X50914285Y-47482495D02*
X51057142Y-47339637D01*
X51057142Y-47339637D02*
X51128570Y-47053923D01*
X51128570Y-47053923D02*
X51128570Y-46553923D01*
X51128570Y-46553923D02*
X51057142Y-46268209D01*
X51057142Y-46268209D02*
X50914285Y-46125352D01*
X50914285Y-46125352D02*
X50771427Y-46053923D01*
X48414284Y-47125352D02*
X47699999Y-47125352D01*
X48557141Y-47553923D02*
X48057141Y-46053923D01*
X48057141Y-46053923D02*
X47557141Y-47553923D01*
X46271427Y-47553923D02*
X47128570Y-47553923D01*
X46699999Y-47553923D02*
X46699999Y-46053923D01*
X46699999Y-46053923D02*
X46842856Y-46268209D01*
X46842856Y-46268209D02*
X46985713Y-46411066D01*
X46985713Y-46411066D02*
X47128570Y-46482495D01*
D11*
X44080000Y-25619524D02*
X43508572Y-25619524D01*
X43508572Y-25619524D02*
X43394286Y-25657619D01*
X43394286Y-25657619D02*
X43318096Y-25733810D01*
X43318096Y-25733810D02*
X43280000Y-25848095D01*
X43280000Y-25848095D02*
X43280000Y-25924286D01*
X43280000Y-24819524D02*
X43280000Y-25276667D01*
X43280000Y-25048095D02*
X44080000Y-25048095D01*
X44080000Y-25048095D02*
X43965715Y-25124286D01*
X43965715Y-25124286D02*
X43889524Y-25200476D01*
X43889524Y-25200476D02*
X43851429Y-25276667D01*
X44080000Y-24324285D02*
X44080000Y-24248095D01*
X44080000Y-24248095D02*
X44041905Y-24171904D01*
X44041905Y-24171904D02*
X44003810Y-24133809D01*
X44003810Y-24133809D02*
X43927619Y-24095714D01*
X43927619Y-24095714D02*
X43775238Y-24057619D01*
X43775238Y-24057619D02*
X43584762Y-24057619D01*
X43584762Y-24057619D02*
X43432381Y-24095714D01*
X43432381Y-24095714D02*
X43356191Y-24133809D01*
X43356191Y-24133809D02*
X43318096Y-24171904D01*
X43318096Y-24171904D02*
X43280000Y-24248095D01*
X43280000Y-24248095D02*
X43280000Y-24324285D01*
X43280000Y-24324285D02*
X43318096Y-24400476D01*
X43318096Y-24400476D02*
X43356191Y-24438571D01*
X43356191Y-24438571D02*
X43432381Y-24476666D01*
X43432381Y-24476666D02*
X43584762Y-24514762D01*
X43584762Y-24514762D02*
X43775238Y-24514762D01*
X43775238Y-24514762D02*
X43927619Y-24476666D01*
X43927619Y-24476666D02*
X44003810Y-24438571D01*
X44003810Y-24438571D02*
X44041905Y-24400476D01*
X44041905Y-24400476D02*
X44080000Y-24324285D01*
X43280000Y-23295714D02*
X43280000Y-23752857D01*
X43280000Y-23524285D02*
X44080000Y-23524285D01*
X44080000Y-23524285D02*
X43965715Y-23600476D01*
X43965715Y-23600476D02*
X43889524Y-23676666D01*
X43889524Y-23676666D02*
X43851429Y-23752857D01*
X39215000Y-58723810D02*
X38643572Y-58723810D01*
X38643572Y-58723810D02*
X38529286Y-58761905D01*
X38529286Y-58761905D02*
X38453096Y-58838096D01*
X38453096Y-58838096D02*
X38415000Y-58952381D01*
X38415000Y-58952381D02*
X38415000Y-59028572D01*
X39215000Y-58419048D02*
X39215000Y-57923810D01*
X39215000Y-57923810D02*
X38910238Y-58190476D01*
X38910238Y-58190476D02*
X38910238Y-58076191D01*
X38910238Y-58076191D02*
X38872143Y-58000000D01*
X38872143Y-58000000D02*
X38834048Y-57961905D01*
X38834048Y-57961905D02*
X38757857Y-57923810D01*
X38757857Y-57923810D02*
X38567381Y-57923810D01*
X38567381Y-57923810D02*
X38491191Y-57961905D01*
X38491191Y-57961905D02*
X38453096Y-58000000D01*
X38453096Y-58000000D02*
X38415000Y-58076191D01*
X38415000Y-58076191D02*
X38415000Y-58304762D01*
X38415000Y-58304762D02*
X38453096Y-58380953D01*
X38453096Y-58380953D02*
X38491191Y-58419048D01*
X39215000Y-57428571D02*
X39215000Y-57352381D01*
X39215000Y-57352381D02*
X39176905Y-57276190D01*
X39176905Y-57276190D02*
X39138810Y-57238095D01*
X39138810Y-57238095D02*
X39062619Y-57200000D01*
X39062619Y-57200000D02*
X38910238Y-57161905D01*
X38910238Y-57161905D02*
X38719762Y-57161905D01*
X38719762Y-57161905D02*
X38567381Y-57200000D01*
X38567381Y-57200000D02*
X38491191Y-57238095D01*
X38491191Y-57238095D02*
X38453096Y-57276190D01*
X38453096Y-57276190D02*
X38415000Y-57352381D01*
X38415000Y-57352381D02*
X38415000Y-57428571D01*
X38415000Y-57428571D02*
X38453096Y-57504762D01*
X38453096Y-57504762D02*
X38491191Y-57542857D01*
X38491191Y-57542857D02*
X38567381Y-57580952D01*
X38567381Y-57580952D02*
X38719762Y-57619048D01*
X38719762Y-57619048D02*
X38910238Y-57619048D01*
X38910238Y-57619048D02*
X39062619Y-57580952D01*
X39062619Y-57580952D02*
X39138810Y-57542857D01*
X39138810Y-57542857D02*
X39176905Y-57504762D01*
X39176905Y-57504762D02*
X39215000Y-57428571D01*
X38415000Y-56400000D02*
X38415000Y-56857143D01*
X38415000Y-56628571D02*
X39215000Y-56628571D01*
X39215000Y-56628571D02*
X39100715Y-56704762D01*
X39100715Y-56704762D02*
X39024524Y-56780952D01*
X39024524Y-56780952D02*
X38986429Y-56857143D01*
X62188095Y-33206190D02*
X62264285Y-33168095D01*
X62264285Y-33168095D02*
X62340476Y-33091905D01*
X62340476Y-33091905D02*
X62454762Y-32977619D01*
X62454762Y-32977619D02*
X62530952Y-32939524D01*
X62530952Y-32939524D02*
X62607143Y-32939524D01*
X62569047Y-33130000D02*
X62645238Y-33091905D01*
X62645238Y-33091905D02*
X62721428Y-33015714D01*
X62721428Y-33015714D02*
X62759524Y-32863333D01*
X62759524Y-32863333D02*
X62759524Y-32596666D01*
X62759524Y-32596666D02*
X62721428Y-32444285D01*
X62721428Y-32444285D02*
X62645238Y-32368095D01*
X62645238Y-32368095D02*
X62569047Y-32330000D01*
X62569047Y-32330000D02*
X62416666Y-32330000D01*
X62416666Y-32330000D02*
X62340476Y-32368095D01*
X62340476Y-32368095D02*
X62264285Y-32444285D01*
X62264285Y-32444285D02*
X62226190Y-32596666D01*
X62226190Y-32596666D02*
X62226190Y-32863333D01*
X62226190Y-32863333D02*
X62264285Y-33015714D01*
X62264285Y-33015714D02*
X62340476Y-33091905D01*
X62340476Y-33091905D02*
X62416666Y-33130000D01*
X62416666Y-33130000D02*
X62569047Y-33130000D01*
X61502381Y-32330000D02*
X61883333Y-32330000D01*
X61883333Y-32330000D02*
X61921429Y-32710952D01*
X61921429Y-32710952D02*
X61883333Y-32672857D01*
X61883333Y-32672857D02*
X61807143Y-32634762D01*
X61807143Y-32634762D02*
X61616667Y-32634762D01*
X61616667Y-32634762D02*
X61540476Y-32672857D01*
X61540476Y-32672857D02*
X61502381Y-32710952D01*
X61502381Y-32710952D02*
X61464286Y-32787143D01*
X61464286Y-32787143D02*
X61464286Y-32977619D01*
X61464286Y-32977619D02*
X61502381Y-33053809D01*
X61502381Y-33053809D02*
X61540476Y-33091905D01*
X61540476Y-33091905D02*
X61616667Y-33130000D01*
X61616667Y-33130000D02*
X61807143Y-33130000D01*
X61807143Y-33130000D02*
X61883333Y-33091905D01*
X61883333Y-33091905D02*
X61921429Y-33053809D01*
X60969047Y-32330000D02*
X60892857Y-32330000D01*
X60892857Y-32330000D02*
X60816666Y-32368095D01*
X60816666Y-32368095D02*
X60778571Y-32406190D01*
X60778571Y-32406190D02*
X60740476Y-32482381D01*
X60740476Y-32482381D02*
X60702381Y-32634762D01*
X60702381Y-32634762D02*
X60702381Y-32825238D01*
X60702381Y-32825238D02*
X60740476Y-32977619D01*
X60740476Y-32977619D02*
X60778571Y-33053809D01*
X60778571Y-33053809D02*
X60816666Y-33091905D01*
X60816666Y-33091905D02*
X60892857Y-33130000D01*
X60892857Y-33130000D02*
X60969047Y-33130000D01*
X60969047Y-33130000D02*
X61045238Y-33091905D01*
X61045238Y-33091905D02*
X61083333Y-33053809D01*
X61083333Y-33053809D02*
X61121428Y-32977619D01*
X61121428Y-32977619D02*
X61159524Y-32825238D01*
X61159524Y-32825238D02*
X61159524Y-32634762D01*
X61159524Y-32634762D02*
X61121428Y-32482381D01*
X61121428Y-32482381D02*
X61083333Y-32406190D01*
X61083333Y-32406190D02*
X61045238Y-32368095D01*
X61045238Y-32368095D02*
X60969047Y-32330000D01*
X59940476Y-33130000D02*
X60397619Y-33130000D01*
X60169047Y-33130000D02*
X60169047Y-32330000D01*
X60169047Y-32330000D02*
X60245238Y-32444285D01*
X60245238Y-32444285D02*
X60321428Y-32520476D01*
X60321428Y-32520476D02*
X60397619Y-32558571D01*
X65409524Y-70700000D02*
X65409524Y-71271428D01*
X65409524Y-71271428D02*
X65447619Y-71385714D01*
X65447619Y-71385714D02*
X65523810Y-71461905D01*
X65523810Y-71461905D02*
X65638095Y-71500000D01*
X65638095Y-71500000D02*
X65714286Y-71500000D01*
X65066667Y-70776190D02*
X65028571Y-70738095D01*
X65028571Y-70738095D02*
X64952381Y-70700000D01*
X64952381Y-70700000D02*
X64761905Y-70700000D01*
X64761905Y-70700000D02*
X64685714Y-70738095D01*
X64685714Y-70738095D02*
X64647619Y-70776190D01*
X64647619Y-70776190D02*
X64609524Y-70852381D01*
X64609524Y-70852381D02*
X64609524Y-70928571D01*
X64609524Y-70928571D02*
X64647619Y-71042857D01*
X64647619Y-71042857D02*
X65104762Y-71500000D01*
X65104762Y-71500000D02*
X64609524Y-71500000D01*
X64114285Y-70700000D02*
X64038095Y-70700000D01*
X64038095Y-70700000D02*
X63961904Y-70738095D01*
X63961904Y-70738095D02*
X63923809Y-70776190D01*
X63923809Y-70776190D02*
X63885714Y-70852381D01*
X63885714Y-70852381D02*
X63847619Y-71004762D01*
X63847619Y-71004762D02*
X63847619Y-71195238D01*
X63847619Y-71195238D02*
X63885714Y-71347619D01*
X63885714Y-71347619D02*
X63923809Y-71423809D01*
X63923809Y-71423809D02*
X63961904Y-71461905D01*
X63961904Y-71461905D02*
X64038095Y-71500000D01*
X64038095Y-71500000D02*
X64114285Y-71500000D01*
X64114285Y-71500000D02*
X64190476Y-71461905D01*
X64190476Y-71461905D02*
X64228571Y-71423809D01*
X64228571Y-71423809D02*
X64266666Y-71347619D01*
X64266666Y-71347619D02*
X64304762Y-71195238D01*
X64304762Y-71195238D02*
X64304762Y-71004762D01*
X64304762Y-71004762D02*
X64266666Y-70852381D01*
X64266666Y-70852381D02*
X64228571Y-70776190D01*
X64228571Y-70776190D02*
X64190476Y-70738095D01*
X64190476Y-70738095D02*
X64114285Y-70700000D01*
X63085714Y-71500000D02*
X63542857Y-71500000D01*
X63314285Y-71500000D02*
X63314285Y-70700000D01*
X63314285Y-70700000D02*
X63390476Y-70814285D01*
X63390476Y-70814285D02*
X63466666Y-70890476D01*
X63466666Y-70890476D02*
X63542857Y-70928571D01*
X50225000Y-40664286D02*
X50225000Y-41045238D01*
X50225000Y-41045238D02*
X51025000Y-41045238D01*
X50225000Y-39978572D02*
X50225000Y-40435715D01*
X50225000Y-40207143D02*
X51025000Y-40207143D01*
X51025000Y-40207143D02*
X50910715Y-40283334D01*
X50910715Y-40283334D02*
X50834524Y-40359524D01*
X50834524Y-40359524D02*
X50796429Y-40435715D01*
X51025000Y-39483333D02*
X51025000Y-39407143D01*
X51025000Y-39407143D02*
X50986905Y-39330952D01*
X50986905Y-39330952D02*
X50948810Y-39292857D01*
X50948810Y-39292857D02*
X50872619Y-39254762D01*
X50872619Y-39254762D02*
X50720238Y-39216667D01*
X50720238Y-39216667D02*
X50529762Y-39216667D01*
X50529762Y-39216667D02*
X50377381Y-39254762D01*
X50377381Y-39254762D02*
X50301191Y-39292857D01*
X50301191Y-39292857D02*
X50263096Y-39330952D01*
X50263096Y-39330952D02*
X50225000Y-39407143D01*
X50225000Y-39407143D02*
X50225000Y-39483333D01*
X50225000Y-39483333D02*
X50263096Y-39559524D01*
X50263096Y-39559524D02*
X50301191Y-39597619D01*
X50301191Y-39597619D02*
X50377381Y-39635714D01*
X50377381Y-39635714D02*
X50529762Y-39673810D01*
X50529762Y-39673810D02*
X50720238Y-39673810D01*
X50720238Y-39673810D02*
X50872619Y-39635714D01*
X50872619Y-39635714D02*
X50948810Y-39597619D01*
X50948810Y-39597619D02*
X50986905Y-39559524D01*
X50986905Y-39559524D02*
X51025000Y-39483333D01*
X50225000Y-38454762D02*
X50225000Y-38911905D01*
X50225000Y-38683333D02*
X51025000Y-38683333D01*
X51025000Y-38683333D02*
X50910715Y-38759524D01*
X50910715Y-38759524D02*
X50834524Y-38835714D01*
X50834524Y-38835714D02*
X50796429Y-38911905D01*
X40797571Y-28890249D02*
X41597571Y-28890249D01*
X41597571Y-28890249D02*
X41597571Y-28699773D01*
X41597571Y-28699773D02*
X41559476Y-28585487D01*
X41559476Y-28585487D02*
X41483286Y-28509297D01*
X41483286Y-28509297D02*
X41407095Y-28471202D01*
X41407095Y-28471202D02*
X41254714Y-28433106D01*
X41254714Y-28433106D02*
X41140428Y-28433106D01*
X41140428Y-28433106D02*
X40988047Y-28471202D01*
X40988047Y-28471202D02*
X40911857Y-28509297D01*
X40911857Y-28509297D02*
X40835667Y-28585487D01*
X40835667Y-28585487D02*
X40797571Y-28699773D01*
X40797571Y-28699773D02*
X40797571Y-28890249D01*
X41597571Y-27709297D02*
X41597571Y-28090249D01*
X41597571Y-28090249D02*
X41216619Y-28128345D01*
X41216619Y-28128345D02*
X41254714Y-28090249D01*
X41254714Y-28090249D02*
X41292809Y-28014059D01*
X41292809Y-28014059D02*
X41292809Y-27823583D01*
X41292809Y-27823583D02*
X41254714Y-27747392D01*
X41254714Y-27747392D02*
X41216619Y-27709297D01*
X41216619Y-27709297D02*
X41140428Y-27671202D01*
X41140428Y-27671202D02*
X40949952Y-27671202D01*
X40949952Y-27671202D02*
X40873762Y-27709297D01*
X40873762Y-27709297D02*
X40835667Y-27747392D01*
X40835667Y-27747392D02*
X40797571Y-27823583D01*
X40797571Y-27823583D02*
X40797571Y-28014059D01*
X40797571Y-28014059D02*
X40835667Y-28090249D01*
X40835667Y-28090249D02*
X40873762Y-28128345D01*
X41597571Y-27175963D02*
X41597571Y-27099773D01*
X41597571Y-27099773D02*
X41559476Y-27023582D01*
X41559476Y-27023582D02*
X41521381Y-26985487D01*
X41521381Y-26985487D02*
X41445190Y-26947392D01*
X41445190Y-26947392D02*
X41292809Y-26909297D01*
X41292809Y-26909297D02*
X41102333Y-26909297D01*
X41102333Y-26909297D02*
X40949952Y-26947392D01*
X40949952Y-26947392D02*
X40873762Y-26985487D01*
X40873762Y-26985487D02*
X40835667Y-27023582D01*
X40835667Y-27023582D02*
X40797571Y-27099773D01*
X40797571Y-27099773D02*
X40797571Y-27175963D01*
X40797571Y-27175963D02*
X40835667Y-27252154D01*
X40835667Y-27252154D02*
X40873762Y-27290249D01*
X40873762Y-27290249D02*
X40949952Y-27328344D01*
X40949952Y-27328344D02*
X41102333Y-27366440D01*
X41102333Y-27366440D02*
X41292809Y-27366440D01*
X41292809Y-27366440D02*
X41445190Y-27328344D01*
X41445190Y-27328344D02*
X41521381Y-27290249D01*
X41521381Y-27290249D02*
X41559476Y-27252154D01*
X41559476Y-27252154D02*
X41597571Y-27175963D01*
X40797571Y-26147392D02*
X40797571Y-26604535D01*
X40797571Y-26375963D02*
X41597571Y-26375963D01*
X41597571Y-26375963D02*
X41483286Y-26452154D01*
X41483286Y-26452154D02*
X41407095Y-26528344D01*
X41407095Y-26528344D02*
X41369000Y-26604535D01*
X49840000Y-32621428D02*
X50640000Y-32621428D01*
X50640000Y-32621428D02*
X50640000Y-32430952D01*
X50640000Y-32430952D02*
X50601905Y-32316666D01*
X50601905Y-32316666D02*
X50525715Y-32240476D01*
X50525715Y-32240476D02*
X50449524Y-32202381D01*
X50449524Y-32202381D02*
X50297143Y-32164285D01*
X50297143Y-32164285D02*
X50182857Y-32164285D01*
X50182857Y-32164285D02*
X50030476Y-32202381D01*
X50030476Y-32202381D02*
X49954286Y-32240476D01*
X49954286Y-32240476D02*
X49878096Y-32316666D01*
X49878096Y-32316666D02*
X49840000Y-32430952D01*
X49840000Y-32430952D02*
X49840000Y-32621428D01*
X49840000Y-31402381D02*
X49840000Y-31859524D01*
X49840000Y-31630952D02*
X50640000Y-31630952D01*
X50640000Y-31630952D02*
X50525715Y-31707143D01*
X50525715Y-31707143D02*
X50449524Y-31783333D01*
X50449524Y-31783333D02*
X50411429Y-31859524D01*
X50640000Y-30907142D02*
X50640000Y-30830952D01*
X50640000Y-30830952D02*
X50601905Y-30754761D01*
X50601905Y-30754761D02*
X50563810Y-30716666D01*
X50563810Y-30716666D02*
X50487619Y-30678571D01*
X50487619Y-30678571D02*
X50335238Y-30640476D01*
X50335238Y-30640476D02*
X50144762Y-30640476D01*
X50144762Y-30640476D02*
X49992381Y-30678571D01*
X49992381Y-30678571D02*
X49916191Y-30716666D01*
X49916191Y-30716666D02*
X49878096Y-30754761D01*
X49878096Y-30754761D02*
X49840000Y-30830952D01*
X49840000Y-30830952D02*
X49840000Y-30907142D01*
X49840000Y-30907142D02*
X49878096Y-30983333D01*
X49878096Y-30983333D02*
X49916191Y-31021428D01*
X49916191Y-31021428D02*
X49992381Y-31059523D01*
X49992381Y-31059523D02*
X50144762Y-31097619D01*
X50144762Y-31097619D02*
X50335238Y-31097619D01*
X50335238Y-31097619D02*
X50487619Y-31059523D01*
X50487619Y-31059523D02*
X50563810Y-31021428D01*
X50563810Y-31021428D02*
X50601905Y-30983333D01*
X50601905Y-30983333D02*
X50640000Y-30907142D01*
X49840000Y-29878571D02*
X49840000Y-30335714D01*
X49840000Y-30107142D02*
X50640000Y-30107142D01*
X50640000Y-30107142D02*
X50525715Y-30183333D01*
X50525715Y-30183333D02*
X50449524Y-30259523D01*
X50449524Y-30259523D02*
X50411429Y-30335714D01*
X61720000Y-39655476D02*
X61072381Y-39655476D01*
X61072381Y-39655476D02*
X60996191Y-39617381D01*
X60996191Y-39617381D02*
X60958096Y-39579286D01*
X60958096Y-39579286D02*
X60920000Y-39503095D01*
X60920000Y-39503095D02*
X60920000Y-39350714D01*
X60920000Y-39350714D02*
X60958096Y-39274524D01*
X60958096Y-39274524D02*
X60996191Y-39236429D01*
X60996191Y-39236429D02*
X61072381Y-39198333D01*
X61072381Y-39198333D02*
X61720000Y-39198333D01*
X60920000Y-38398334D02*
X60920000Y-38855477D01*
X60920000Y-38626905D02*
X61720000Y-38626905D01*
X61720000Y-38626905D02*
X61605715Y-38703096D01*
X61605715Y-38703096D02*
X61529524Y-38779286D01*
X61529524Y-38779286D02*
X61491429Y-38855477D01*
X61720000Y-37903095D02*
X61720000Y-37826905D01*
X61720000Y-37826905D02*
X61681905Y-37750714D01*
X61681905Y-37750714D02*
X61643810Y-37712619D01*
X61643810Y-37712619D02*
X61567619Y-37674524D01*
X61567619Y-37674524D02*
X61415238Y-37636429D01*
X61415238Y-37636429D02*
X61224762Y-37636429D01*
X61224762Y-37636429D02*
X61072381Y-37674524D01*
X61072381Y-37674524D02*
X60996191Y-37712619D01*
X60996191Y-37712619D02*
X60958096Y-37750714D01*
X60958096Y-37750714D02*
X60920000Y-37826905D01*
X60920000Y-37826905D02*
X60920000Y-37903095D01*
X60920000Y-37903095D02*
X60958096Y-37979286D01*
X60958096Y-37979286D02*
X60996191Y-38017381D01*
X60996191Y-38017381D02*
X61072381Y-38055476D01*
X61072381Y-38055476D02*
X61224762Y-38093572D01*
X61224762Y-38093572D02*
X61415238Y-38093572D01*
X61415238Y-38093572D02*
X61567619Y-38055476D01*
X61567619Y-38055476D02*
X61643810Y-38017381D01*
X61643810Y-38017381D02*
X61681905Y-37979286D01*
X61681905Y-37979286D02*
X61720000Y-37903095D01*
X61720000Y-37369762D02*
X61720000Y-36874524D01*
X61720000Y-36874524D02*
X61415238Y-37141190D01*
X61415238Y-37141190D02*
X61415238Y-37026905D01*
X61415238Y-37026905D02*
X61377143Y-36950714D01*
X61377143Y-36950714D02*
X61339048Y-36912619D01*
X61339048Y-36912619D02*
X61262857Y-36874524D01*
X61262857Y-36874524D02*
X61072381Y-36874524D01*
X61072381Y-36874524D02*
X60996191Y-36912619D01*
X60996191Y-36912619D02*
X60958096Y-36950714D01*
X60958096Y-36950714D02*
X60920000Y-37026905D01*
X60920000Y-37026905D02*
X60920000Y-37255476D01*
X60920000Y-37255476D02*
X60958096Y-37331667D01*
X60958096Y-37331667D02*
X60996191Y-37369762D01*
X39961904Y-43404524D02*
X39314285Y-43404524D01*
X39314285Y-43404524D02*
X39238095Y-43366429D01*
X39238095Y-43366429D02*
X39200000Y-43328334D01*
X39200000Y-43328334D02*
X39161904Y-43252143D01*
X39161904Y-43252143D02*
X39161904Y-43099762D01*
X39161904Y-43099762D02*
X39200000Y-43023572D01*
X39200000Y-43023572D02*
X39238095Y-42985477D01*
X39238095Y-42985477D02*
X39314285Y-42947381D01*
X39314285Y-42947381D02*
X39961904Y-42947381D01*
X39961904Y-42642620D02*
X39961904Y-42147382D01*
X39961904Y-42147382D02*
X39657142Y-42414048D01*
X39657142Y-42414048D02*
X39657142Y-42299763D01*
X39657142Y-42299763D02*
X39619047Y-42223572D01*
X39619047Y-42223572D02*
X39580952Y-42185477D01*
X39580952Y-42185477D02*
X39504761Y-42147382D01*
X39504761Y-42147382D02*
X39314285Y-42147382D01*
X39314285Y-42147382D02*
X39238095Y-42185477D01*
X39238095Y-42185477D02*
X39200000Y-42223572D01*
X39200000Y-42223572D02*
X39161904Y-42299763D01*
X39161904Y-42299763D02*
X39161904Y-42528334D01*
X39161904Y-42528334D02*
X39200000Y-42604525D01*
X39200000Y-42604525D02*
X39238095Y-42642620D01*
X39961904Y-41652143D02*
X39961904Y-41575953D01*
X39961904Y-41575953D02*
X39923809Y-41499762D01*
X39923809Y-41499762D02*
X39885714Y-41461667D01*
X39885714Y-41461667D02*
X39809523Y-41423572D01*
X39809523Y-41423572D02*
X39657142Y-41385477D01*
X39657142Y-41385477D02*
X39466666Y-41385477D01*
X39466666Y-41385477D02*
X39314285Y-41423572D01*
X39314285Y-41423572D02*
X39238095Y-41461667D01*
X39238095Y-41461667D02*
X39200000Y-41499762D01*
X39200000Y-41499762D02*
X39161904Y-41575953D01*
X39161904Y-41575953D02*
X39161904Y-41652143D01*
X39161904Y-41652143D02*
X39200000Y-41728334D01*
X39200000Y-41728334D02*
X39238095Y-41766429D01*
X39238095Y-41766429D02*
X39314285Y-41804524D01*
X39314285Y-41804524D02*
X39466666Y-41842620D01*
X39466666Y-41842620D02*
X39657142Y-41842620D01*
X39657142Y-41842620D02*
X39809523Y-41804524D01*
X39809523Y-41804524D02*
X39885714Y-41766429D01*
X39885714Y-41766429D02*
X39923809Y-41728334D01*
X39923809Y-41728334D02*
X39961904Y-41652143D01*
X39695238Y-40699762D02*
X39161904Y-40699762D01*
X40000000Y-40890238D02*
X39428571Y-41080715D01*
X39428571Y-41080715D02*
X39428571Y-40585476D01*
X28562000Y-66653810D02*
X27990572Y-66653810D01*
X27990572Y-66653810D02*
X27876286Y-66691905D01*
X27876286Y-66691905D02*
X27800096Y-66768096D01*
X27800096Y-66768096D02*
X27762000Y-66882381D01*
X27762000Y-66882381D02*
X27762000Y-66958572D01*
X28562000Y-65891905D02*
X28562000Y-66272857D01*
X28562000Y-66272857D02*
X28181048Y-66310953D01*
X28181048Y-66310953D02*
X28219143Y-66272857D01*
X28219143Y-66272857D02*
X28257238Y-66196667D01*
X28257238Y-66196667D02*
X28257238Y-66006191D01*
X28257238Y-66006191D02*
X28219143Y-65930000D01*
X28219143Y-65930000D02*
X28181048Y-65891905D01*
X28181048Y-65891905D02*
X28104857Y-65853810D01*
X28104857Y-65853810D02*
X27914381Y-65853810D01*
X27914381Y-65853810D02*
X27838191Y-65891905D01*
X27838191Y-65891905D02*
X27800096Y-65930000D01*
X27800096Y-65930000D02*
X27762000Y-66006191D01*
X27762000Y-66006191D02*
X27762000Y-66196667D01*
X27762000Y-66196667D02*
X27800096Y-66272857D01*
X27800096Y-66272857D02*
X27838191Y-66310953D01*
X28562000Y-65358571D02*
X28562000Y-65282381D01*
X28562000Y-65282381D02*
X28523905Y-65206190D01*
X28523905Y-65206190D02*
X28485810Y-65168095D01*
X28485810Y-65168095D02*
X28409619Y-65130000D01*
X28409619Y-65130000D02*
X28257238Y-65091905D01*
X28257238Y-65091905D02*
X28066762Y-65091905D01*
X28066762Y-65091905D02*
X27914381Y-65130000D01*
X27914381Y-65130000D02*
X27838191Y-65168095D01*
X27838191Y-65168095D02*
X27800096Y-65206190D01*
X27800096Y-65206190D02*
X27762000Y-65282381D01*
X27762000Y-65282381D02*
X27762000Y-65358571D01*
X27762000Y-65358571D02*
X27800096Y-65434762D01*
X27800096Y-65434762D02*
X27838191Y-65472857D01*
X27838191Y-65472857D02*
X27914381Y-65510952D01*
X27914381Y-65510952D02*
X28066762Y-65549048D01*
X28066762Y-65549048D02*
X28257238Y-65549048D01*
X28257238Y-65549048D02*
X28409619Y-65510952D01*
X28409619Y-65510952D02*
X28485810Y-65472857D01*
X28485810Y-65472857D02*
X28523905Y-65434762D01*
X28523905Y-65434762D02*
X28562000Y-65358571D01*
X27762000Y-64330000D02*
X27762000Y-64787143D01*
X27762000Y-64558571D02*
X28562000Y-64558571D01*
X28562000Y-64558571D02*
X28447715Y-64634762D01*
X28447715Y-64634762D02*
X28371524Y-64710952D01*
X28371524Y-64710952D02*
X28333429Y-64787143D01*
X65923858Y-27447392D02*
X65923858Y-26647392D01*
X65923858Y-26647392D02*
X65733382Y-26647392D01*
X65733382Y-26647392D02*
X65619096Y-26685487D01*
X65619096Y-26685487D02*
X65542906Y-26761677D01*
X65542906Y-26761677D02*
X65504811Y-26837868D01*
X65504811Y-26837868D02*
X65466715Y-26990249D01*
X65466715Y-26990249D02*
X65466715Y-27104535D01*
X65466715Y-27104535D02*
X65504811Y-27256916D01*
X65504811Y-27256916D02*
X65542906Y-27333106D01*
X65542906Y-27333106D02*
X65619096Y-27409297D01*
X65619096Y-27409297D02*
X65733382Y-27447392D01*
X65733382Y-27447392D02*
X65923858Y-27447392D01*
X64742906Y-26647392D02*
X65123858Y-26647392D01*
X65123858Y-26647392D02*
X65161954Y-27028344D01*
X65161954Y-27028344D02*
X65123858Y-26990249D01*
X65123858Y-26990249D02*
X65047668Y-26952154D01*
X65047668Y-26952154D02*
X64857192Y-26952154D01*
X64857192Y-26952154D02*
X64781001Y-26990249D01*
X64781001Y-26990249D02*
X64742906Y-27028344D01*
X64742906Y-27028344D02*
X64704811Y-27104535D01*
X64704811Y-27104535D02*
X64704811Y-27295011D01*
X64704811Y-27295011D02*
X64742906Y-27371201D01*
X64742906Y-27371201D02*
X64781001Y-27409297D01*
X64781001Y-27409297D02*
X64857192Y-27447392D01*
X64857192Y-27447392D02*
X65047668Y-27447392D01*
X65047668Y-27447392D02*
X65123858Y-27409297D01*
X65123858Y-27409297D02*
X65161954Y-27371201D01*
X64209572Y-26647392D02*
X64133382Y-26647392D01*
X64133382Y-26647392D02*
X64057191Y-26685487D01*
X64057191Y-26685487D02*
X64019096Y-26723582D01*
X64019096Y-26723582D02*
X63981001Y-26799773D01*
X63981001Y-26799773D02*
X63942906Y-26952154D01*
X63942906Y-26952154D02*
X63942906Y-27142630D01*
X63942906Y-27142630D02*
X63981001Y-27295011D01*
X63981001Y-27295011D02*
X64019096Y-27371201D01*
X64019096Y-27371201D02*
X64057191Y-27409297D01*
X64057191Y-27409297D02*
X64133382Y-27447392D01*
X64133382Y-27447392D02*
X64209572Y-27447392D01*
X64209572Y-27447392D02*
X64285763Y-27409297D01*
X64285763Y-27409297D02*
X64323858Y-27371201D01*
X64323858Y-27371201D02*
X64361953Y-27295011D01*
X64361953Y-27295011D02*
X64400049Y-27142630D01*
X64400049Y-27142630D02*
X64400049Y-26952154D01*
X64400049Y-26952154D02*
X64361953Y-26799773D01*
X64361953Y-26799773D02*
X64323858Y-26723582D01*
X64323858Y-26723582D02*
X64285763Y-26685487D01*
X64285763Y-26685487D02*
X64209572Y-26647392D01*
X63638144Y-26723582D02*
X63600048Y-26685487D01*
X63600048Y-26685487D02*
X63523858Y-26647392D01*
X63523858Y-26647392D02*
X63333382Y-26647392D01*
X63333382Y-26647392D02*
X63257191Y-26685487D01*
X63257191Y-26685487D02*
X63219096Y-26723582D01*
X63219096Y-26723582D02*
X63181001Y-26799773D01*
X63181001Y-26799773D02*
X63181001Y-26875963D01*
X63181001Y-26875963D02*
X63219096Y-26990249D01*
X63219096Y-26990249D02*
X63676239Y-27447392D01*
X63676239Y-27447392D02*
X63181001Y-27447392D01*
X49390476Y-55950000D02*
X49390476Y-56597619D01*
X49390476Y-56597619D02*
X49352381Y-56673809D01*
X49352381Y-56673809D02*
X49314286Y-56711905D01*
X49314286Y-56711905D02*
X49238095Y-56750000D01*
X49238095Y-56750000D02*
X49085714Y-56750000D01*
X49085714Y-56750000D02*
X49009524Y-56711905D01*
X49009524Y-56711905D02*
X48971429Y-56673809D01*
X48971429Y-56673809D02*
X48933333Y-56597619D01*
X48933333Y-56597619D02*
X48933333Y-55950000D01*
X48590477Y-56026190D02*
X48552381Y-55988095D01*
X48552381Y-55988095D02*
X48476191Y-55950000D01*
X48476191Y-55950000D02*
X48285715Y-55950000D01*
X48285715Y-55950000D02*
X48209524Y-55988095D01*
X48209524Y-55988095D02*
X48171429Y-56026190D01*
X48171429Y-56026190D02*
X48133334Y-56102381D01*
X48133334Y-56102381D02*
X48133334Y-56178571D01*
X48133334Y-56178571D02*
X48171429Y-56292857D01*
X48171429Y-56292857D02*
X48628572Y-56750000D01*
X48628572Y-56750000D02*
X48133334Y-56750000D01*
X47638095Y-55950000D02*
X47561905Y-55950000D01*
X47561905Y-55950000D02*
X47485714Y-55988095D01*
X47485714Y-55988095D02*
X47447619Y-56026190D01*
X47447619Y-56026190D02*
X47409524Y-56102381D01*
X47409524Y-56102381D02*
X47371429Y-56254762D01*
X47371429Y-56254762D02*
X47371429Y-56445238D01*
X47371429Y-56445238D02*
X47409524Y-56597619D01*
X47409524Y-56597619D02*
X47447619Y-56673809D01*
X47447619Y-56673809D02*
X47485714Y-56711905D01*
X47485714Y-56711905D02*
X47561905Y-56750000D01*
X47561905Y-56750000D02*
X47638095Y-56750000D01*
X47638095Y-56750000D02*
X47714286Y-56711905D01*
X47714286Y-56711905D02*
X47752381Y-56673809D01*
X47752381Y-56673809D02*
X47790476Y-56597619D01*
X47790476Y-56597619D02*
X47828572Y-56445238D01*
X47828572Y-56445238D02*
X47828572Y-56254762D01*
X47828572Y-56254762D02*
X47790476Y-56102381D01*
X47790476Y-56102381D02*
X47752381Y-56026190D01*
X47752381Y-56026190D02*
X47714286Y-55988095D01*
X47714286Y-55988095D02*
X47638095Y-55950000D01*
X46609524Y-56750000D02*
X47066667Y-56750000D01*
X46838095Y-56750000D02*
X46838095Y-55950000D01*
X46838095Y-55950000D02*
X46914286Y-56064285D01*
X46914286Y-56064285D02*
X46990476Y-56140476D01*
X46990476Y-56140476D02*
X47066667Y-56178571D01*
X59854285Y-55280000D02*
X60120952Y-54899047D01*
X60311428Y-55280000D02*
X60311428Y-54480000D01*
X60311428Y-54480000D02*
X60006666Y-54480000D01*
X60006666Y-54480000D02*
X59930476Y-54518095D01*
X59930476Y-54518095D02*
X59892381Y-54556190D01*
X59892381Y-54556190D02*
X59854285Y-54632381D01*
X59854285Y-54632381D02*
X59854285Y-54746666D01*
X59854285Y-54746666D02*
X59892381Y-54822857D01*
X59892381Y-54822857D02*
X59930476Y-54860952D01*
X59930476Y-54860952D02*
X60006666Y-54899047D01*
X60006666Y-54899047D02*
X60311428Y-54899047D01*
X59549524Y-54556190D02*
X59511428Y-54518095D01*
X59511428Y-54518095D02*
X59435238Y-54480000D01*
X59435238Y-54480000D02*
X59244762Y-54480000D01*
X59244762Y-54480000D02*
X59168571Y-54518095D01*
X59168571Y-54518095D02*
X59130476Y-54556190D01*
X59130476Y-54556190D02*
X59092381Y-54632381D01*
X59092381Y-54632381D02*
X59092381Y-54708571D01*
X59092381Y-54708571D02*
X59130476Y-54822857D01*
X59130476Y-54822857D02*
X59587619Y-55280000D01*
X59587619Y-55280000D02*
X59092381Y-55280000D01*
X58330476Y-55280000D02*
X58787619Y-55280000D01*
X58559047Y-55280000D02*
X58559047Y-54480000D01*
X58559047Y-54480000D02*
X58635238Y-54594285D01*
X58635238Y-54594285D02*
X58711428Y-54670476D01*
X58711428Y-54670476D02*
X58787619Y-54708571D01*
X58063809Y-54480000D02*
X57568571Y-54480000D01*
X57568571Y-54480000D02*
X57835237Y-54784762D01*
X57835237Y-54784762D02*
X57720952Y-54784762D01*
X57720952Y-54784762D02*
X57644761Y-54822857D01*
X57644761Y-54822857D02*
X57606666Y-54860952D01*
X57606666Y-54860952D02*
X57568571Y-54937143D01*
X57568571Y-54937143D02*
X57568571Y-55127619D01*
X57568571Y-55127619D02*
X57606666Y-55203809D01*
X57606666Y-55203809D02*
X57644761Y-55241905D01*
X57644761Y-55241905D02*
X57720952Y-55280000D01*
X57720952Y-55280000D02*
X57949523Y-55280000D01*
X57949523Y-55280000D02*
X58025714Y-55241905D01*
X58025714Y-55241905D02*
X58063809Y-55203809D01*
X36790476Y-37800000D02*
X36790476Y-38447619D01*
X36790476Y-38447619D02*
X36752381Y-38523809D01*
X36752381Y-38523809D02*
X36714286Y-38561905D01*
X36714286Y-38561905D02*
X36638095Y-38600000D01*
X36638095Y-38600000D02*
X36485714Y-38600000D01*
X36485714Y-38600000D02*
X36409524Y-38561905D01*
X36409524Y-38561905D02*
X36371429Y-38523809D01*
X36371429Y-38523809D02*
X36333333Y-38447619D01*
X36333333Y-38447619D02*
X36333333Y-37800000D01*
X35571429Y-37800000D02*
X35952381Y-37800000D01*
X35952381Y-37800000D02*
X35990477Y-38180952D01*
X35990477Y-38180952D02*
X35952381Y-38142857D01*
X35952381Y-38142857D02*
X35876191Y-38104762D01*
X35876191Y-38104762D02*
X35685715Y-38104762D01*
X35685715Y-38104762D02*
X35609524Y-38142857D01*
X35609524Y-38142857D02*
X35571429Y-38180952D01*
X35571429Y-38180952D02*
X35533334Y-38257143D01*
X35533334Y-38257143D02*
X35533334Y-38447619D01*
X35533334Y-38447619D02*
X35571429Y-38523809D01*
X35571429Y-38523809D02*
X35609524Y-38561905D01*
X35609524Y-38561905D02*
X35685715Y-38600000D01*
X35685715Y-38600000D02*
X35876191Y-38600000D01*
X35876191Y-38600000D02*
X35952381Y-38561905D01*
X35952381Y-38561905D02*
X35990477Y-38523809D01*
X35038095Y-37800000D02*
X34961905Y-37800000D01*
X34961905Y-37800000D02*
X34885714Y-37838095D01*
X34885714Y-37838095D02*
X34847619Y-37876190D01*
X34847619Y-37876190D02*
X34809524Y-37952381D01*
X34809524Y-37952381D02*
X34771429Y-38104762D01*
X34771429Y-38104762D02*
X34771429Y-38295238D01*
X34771429Y-38295238D02*
X34809524Y-38447619D01*
X34809524Y-38447619D02*
X34847619Y-38523809D01*
X34847619Y-38523809D02*
X34885714Y-38561905D01*
X34885714Y-38561905D02*
X34961905Y-38600000D01*
X34961905Y-38600000D02*
X35038095Y-38600000D01*
X35038095Y-38600000D02*
X35114286Y-38561905D01*
X35114286Y-38561905D02*
X35152381Y-38523809D01*
X35152381Y-38523809D02*
X35190476Y-38447619D01*
X35190476Y-38447619D02*
X35228572Y-38295238D01*
X35228572Y-38295238D02*
X35228572Y-38104762D01*
X35228572Y-38104762D02*
X35190476Y-37952381D01*
X35190476Y-37952381D02*
X35152381Y-37876190D01*
X35152381Y-37876190D02*
X35114286Y-37838095D01*
X35114286Y-37838095D02*
X35038095Y-37800000D01*
X34009524Y-38600000D02*
X34466667Y-38600000D01*
X34238095Y-38600000D02*
X34238095Y-37800000D01*
X34238095Y-37800000D02*
X34314286Y-37914285D01*
X34314286Y-37914285D02*
X34390476Y-37990476D01*
X34390476Y-37990476D02*
X34466667Y-38028571D01*
X40150000Y-62755476D02*
X39502381Y-62755476D01*
X39502381Y-62755476D02*
X39426191Y-62717381D01*
X39426191Y-62717381D02*
X39388096Y-62679286D01*
X39388096Y-62679286D02*
X39350000Y-62603095D01*
X39350000Y-62603095D02*
X39350000Y-62450714D01*
X39350000Y-62450714D02*
X39388096Y-62374524D01*
X39388096Y-62374524D02*
X39426191Y-62336429D01*
X39426191Y-62336429D02*
X39502381Y-62298333D01*
X39502381Y-62298333D02*
X40150000Y-62298333D01*
X40150000Y-61536429D02*
X40150000Y-61917381D01*
X40150000Y-61917381D02*
X39769048Y-61955477D01*
X39769048Y-61955477D02*
X39807143Y-61917381D01*
X39807143Y-61917381D02*
X39845238Y-61841191D01*
X39845238Y-61841191D02*
X39845238Y-61650715D01*
X39845238Y-61650715D02*
X39807143Y-61574524D01*
X39807143Y-61574524D02*
X39769048Y-61536429D01*
X39769048Y-61536429D02*
X39692857Y-61498334D01*
X39692857Y-61498334D02*
X39502381Y-61498334D01*
X39502381Y-61498334D02*
X39426191Y-61536429D01*
X39426191Y-61536429D02*
X39388096Y-61574524D01*
X39388096Y-61574524D02*
X39350000Y-61650715D01*
X39350000Y-61650715D02*
X39350000Y-61841191D01*
X39350000Y-61841191D02*
X39388096Y-61917381D01*
X39388096Y-61917381D02*
X39426191Y-61955477D01*
X40150000Y-61003095D02*
X40150000Y-60926905D01*
X40150000Y-60926905D02*
X40111905Y-60850714D01*
X40111905Y-60850714D02*
X40073810Y-60812619D01*
X40073810Y-60812619D02*
X39997619Y-60774524D01*
X39997619Y-60774524D02*
X39845238Y-60736429D01*
X39845238Y-60736429D02*
X39654762Y-60736429D01*
X39654762Y-60736429D02*
X39502381Y-60774524D01*
X39502381Y-60774524D02*
X39426191Y-60812619D01*
X39426191Y-60812619D02*
X39388096Y-60850714D01*
X39388096Y-60850714D02*
X39350000Y-60926905D01*
X39350000Y-60926905D02*
X39350000Y-61003095D01*
X39350000Y-61003095D02*
X39388096Y-61079286D01*
X39388096Y-61079286D02*
X39426191Y-61117381D01*
X39426191Y-61117381D02*
X39502381Y-61155476D01*
X39502381Y-61155476D02*
X39654762Y-61193572D01*
X39654762Y-61193572D02*
X39845238Y-61193572D01*
X39845238Y-61193572D02*
X39997619Y-61155476D01*
X39997619Y-61155476D02*
X40073810Y-61117381D01*
X40073810Y-61117381D02*
X40111905Y-61079286D01*
X40111905Y-61079286D02*
X40150000Y-61003095D01*
X40073810Y-60431667D02*
X40111905Y-60393571D01*
X40111905Y-60393571D02*
X40150000Y-60317381D01*
X40150000Y-60317381D02*
X40150000Y-60126905D01*
X40150000Y-60126905D02*
X40111905Y-60050714D01*
X40111905Y-60050714D02*
X40073810Y-60012619D01*
X40073810Y-60012619D02*
X39997619Y-59974524D01*
X39997619Y-59974524D02*
X39921429Y-59974524D01*
X39921429Y-59974524D02*
X39807143Y-60012619D01*
X39807143Y-60012619D02*
X39350000Y-60469762D01*
X39350000Y-60469762D02*
X39350000Y-59974524D01*
X75333810Y-46635000D02*
X75333810Y-47206428D01*
X75333810Y-47206428D02*
X75371905Y-47320714D01*
X75371905Y-47320714D02*
X75448096Y-47396905D01*
X75448096Y-47396905D02*
X75562381Y-47435000D01*
X75562381Y-47435000D02*
X75638572Y-47435000D01*
X74533810Y-47435000D02*
X74990953Y-47435000D01*
X74762381Y-47435000D02*
X74762381Y-46635000D01*
X74762381Y-46635000D02*
X74838572Y-46749285D01*
X74838572Y-46749285D02*
X74914762Y-46825476D01*
X74914762Y-46825476D02*
X74990953Y-46863571D01*
X74038571Y-46635000D02*
X73962381Y-46635000D01*
X73962381Y-46635000D02*
X73886190Y-46673095D01*
X73886190Y-46673095D02*
X73848095Y-46711190D01*
X73848095Y-46711190D02*
X73810000Y-46787381D01*
X73810000Y-46787381D02*
X73771905Y-46939762D01*
X73771905Y-46939762D02*
X73771905Y-47130238D01*
X73771905Y-47130238D02*
X73810000Y-47282619D01*
X73810000Y-47282619D02*
X73848095Y-47358809D01*
X73848095Y-47358809D02*
X73886190Y-47396905D01*
X73886190Y-47396905D02*
X73962381Y-47435000D01*
X73962381Y-47435000D02*
X74038571Y-47435000D01*
X74038571Y-47435000D02*
X74114762Y-47396905D01*
X74114762Y-47396905D02*
X74152857Y-47358809D01*
X74152857Y-47358809D02*
X74190952Y-47282619D01*
X74190952Y-47282619D02*
X74229048Y-47130238D01*
X74229048Y-47130238D02*
X74229048Y-46939762D01*
X74229048Y-46939762D02*
X74190952Y-46787381D01*
X74190952Y-46787381D02*
X74152857Y-46711190D01*
X74152857Y-46711190D02*
X74114762Y-46673095D01*
X74114762Y-46673095D02*
X74038571Y-46635000D01*
X73467143Y-46711190D02*
X73429047Y-46673095D01*
X73429047Y-46673095D02*
X73352857Y-46635000D01*
X73352857Y-46635000D02*
X73162381Y-46635000D01*
X73162381Y-46635000D02*
X73086190Y-46673095D01*
X73086190Y-46673095D02*
X73048095Y-46711190D01*
X73048095Y-46711190D02*
X73010000Y-46787381D01*
X73010000Y-46787381D02*
X73010000Y-46863571D01*
X73010000Y-46863571D02*
X73048095Y-46977857D01*
X73048095Y-46977857D02*
X73505238Y-47435000D01*
X73505238Y-47435000D02*
X73010000Y-47435000D01*
%TO.C,R207*%
X41446359Y-54020000D02*
X41753641Y-54020000D01*
X41446359Y-54780000D02*
X41753641Y-54780000D01*
%TO.C,C504*%
X35240000Y-58257836D02*
X35240000Y-58042164D01*
X35960000Y-58257836D02*
X35960000Y-58042164D01*
%TO.C,Q101*%
X64340000Y-37615000D02*
X64340000Y-37665000D01*
X64340000Y-38785000D02*
X64340000Y-39565000D01*
X64340000Y-40685000D02*
X64340000Y-40735000D01*
X64340000Y-40735000D02*
X65860000Y-40735000D01*
X65860000Y-37615000D02*
X64340000Y-37615000D01*
X65860000Y-38615000D02*
X65860000Y-37615000D01*
X65860000Y-40735000D02*
X65860000Y-39735000D01*
X63800000Y-39555000D02*
X64040000Y-39225000D01*
X63560000Y-39225000D01*
X63800000Y-39555000D01*
G36*
X63800000Y-39555000D02*
G01*
X63560000Y-39225000D01*
X64040000Y-39225000D01*
X63800000Y-39555000D01*
G37*
%TO.C,R120*%
X57020000Y-33553641D02*
X57020000Y-33246359D01*
X57780000Y-33553641D02*
X57780000Y-33246359D01*
%TO.C,J101*%
X45300000Y-22050000D02*
X45300000Y-21641500D01*
X45300000Y-25950000D02*
X45300000Y-23950000D01*
X54700000Y-22050000D02*
X54700000Y-21641500D01*
X54700000Y-25950000D02*
X54700000Y-23950000D01*
%TO.C,J301*%
X37850000Y-44400000D02*
X36950000Y-44400000D01*
X37850000Y-55600000D02*
X36950000Y-55600000D01*
D16*
X39860000Y-54250000D02*
G75*
G02*
X39740000Y-54250000I-60000J0D01*
G01*
X39740000Y-54250000D02*
G75*
G02*
X39860000Y-54250000I60000J0D01*
G01*
%TO.C,R316*%
D11*
X42620000Y-45553641D02*
X42620000Y-45246359D01*
X43380000Y-45553641D02*
X43380000Y-45246359D01*
%TO.C,R302*%
X41020000Y-58993641D02*
X41020000Y-58686359D01*
X41780000Y-58993641D02*
X41780000Y-58686359D01*
%TO.C,R108*%
X67350000Y-41362064D02*
X67350000Y-39907936D01*
X69170000Y-41362064D02*
X69170000Y-39907936D01*
%TO.C,C505*%
X64259420Y-30590000D02*
X64540580Y-30590000D01*
X64259420Y-31610000D02*
X64540580Y-31610000D01*
%TO.C,R502*%
X56104500Y-26164258D02*
X56104500Y-25689742D01*
X57149500Y-26164258D02*
X57149500Y-25689742D01*
%TO.C,Q501*%
X58040000Y-28040000D02*
X58040000Y-29560000D01*
X58040000Y-29560000D02*
X58090000Y-29560000D01*
X59040000Y-28040000D02*
X58040000Y-28040000D01*
X59210000Y-29560000D02*
X59990000Y-29560000D01*
X61110000Y-29560000D02*
X61160000Y-29560000D01*
X61160000Y-28040000D02*
X60160000Y-28040000D01*
X61160000Y-29560000D02*
X61160000Y-28040000D01*
X59980000Y-30100000D02*
X59650000Y-29860000D01*
X59650000Y-30340000D01*
X59980000Y-30100000D01*
G36*
X59980000Y-30100000D02*
G01*
X59650000Y-30340000D01*
X59650000Y-29860000D01*
X59980000Y-30100000D01*
G37*
%TO.C,C106*%
X51390000Y-36090580D02*
X51390000Y-35809420D01*
X52410000Y-36090580D02*
X52410000Y-35809420D01*
%TO.C,R501*%
X38150500Y-27740258D02*
X38150500Y-27265742D01*
X39195500Y-27740258D02*
X39195500Y-27265742D01*
%TO.C,C201*%
X39390000Y-70184420D02*
X39390000Y-70465580D01*
X40410000Y-70184420D02*
X40410000Y-70465580D01*
%TO.C,R312*%
X43546359Y-39520000D02*
X43853641Y-39520000D01*
X43546359Y-40280000D02*
X43853641Y-40280000D01*
%TO.C,R101*%
X48020000Y-30346359D02*
X48020000Y-30653641D01*
X48780000Y-30346359D02*
X48780000Y-30653641D01*
%TO.C,J201*%
X65670000Y-64695000D02*
X65035000Y-64695000D01*
X65670000Y-65330000D02*
X65670000Y-64695000D01*
%TO.C,R209*%
X37220000Y-63446359D02*
X37220000Y-63753641D01*
X37980000Y-63446359D02*
X37980000Y-63753641D01*
%TO.C,L101*%
X51515000Y-39810000D02*
X53735000Y-39810000D01*
X53735000Y-37690000D02*
X51515000Y-37690000D01*
%TO.C,R313*%
X41446359Y-39520000D02*
X41753641Y-39520000D01*
X41446359Y-40280000D02*
X41753641Y-40280000D01*
%TO.C,R503*%
X59886359Y-31058000D02*
X60193641Y-31058000D01*
X59886359Y-31818000D02*
X60193641Y-31818000D01*
%TO.C,D501*%
X41771818Y-22845198D02*
X42201860Y-23965494D01*
%TO.C,R314*%
X44846359Y-47420000D02*
X45153641Y-47420000D01*
X44846359Y-48180000D02*
X45153641Y-48180000D01*
%TO.C,Q302*%
X41040000Y-46740000D02*
X41040000Y-47740000D01*
X41040000Y-48860000D02*
X41040000Y-49860000D01*
X41040000Y-49860000D02*
X42560000Y-49860000D01*
X42560000Y-46740000D02*
X41040000Y-46740000D01*
X42560000Y-46790000D02*
X42560000Y-46740000D01*
X42560000Y-48690000D02*
X42560000Y-47910000D01*
X42560000Y-49860000D02*
X42560000Y-49810000D01*
X43100000Y-47920000D02*
X42860000Y-48250000D01*
X43340000Y-48250000D01*
X43100000Y-47920000D01*
G36*
X43340000Y-48250000D02*
G01*
X42860000Y-48250000D01*
X43100000Y-47920000D01*
X43340000Y-48250000D01*
G37*
%TO.C,C306*%
X44840000Y-43507836D02*
X44840000Y-43292164D01*
X45560000Y-43507836D02*
X45560000Y-43292164D01*
%TO.C,U104*%
X55050000Y-37850000D02*
X55350000Y-37850000D01*
X55050000Y-40150000D02*
X55350000Y-40150000D01*
X55950000Y-37850000D02*
X55650000Y-37850000D01*
X55950000Y-40150000D02*
X55650000Y-40150000D01*
D17*
X56730000Y-37770000D02*
G75*
G02*
X56630000Y-37770000I-50000J0D01*
G01*
X56630000Y-37770000D02*
G75*
G02*
X56730000Y-37770000I50000J0D01*
G01*
%TO.C,R111*%
D11*
X53303641Y-40220000D02*
X52996359Y-40220000D01*
X53303641Y-40980000D02*
X52996359Y-40980000D01*
%TO.C,D101*%
X52290000Y-29490000D02*
X56050000Y-29490000D01*
X52290000Y-31510000D02*
X52290000Y-29490000D01*
X52290000Y-31510000D02*
X56050000Y-31510000D01*
%TO.C,U103*%
X63004432Y-36585000D02*
X64810000Y-36585000D01*
X64810000Y-34315000D02*
X62590000Y-34315000D01*
X62710000Y-36590000D02*
X62570000Y-36780000D01*
X62850000Y-36780000D01*
X62710000Y-36590000D01*
G36*
X62850000Y-36780000D02*
G01*
X62570000Y-36780000D01*
X62710000Y-36590000D01*
X62850000Y-36780000D01*
G37*
%TO.C,R201*%
X59053641Y-69620000D02*
X58746359Y-69620000D01*
X59053641Y-70380000D02*
X58746359Y-70380000D01*
%TO.C,C104*%
X60940000Y-35057836D02*
X60940000Y-34842164D01*
X61660000Y-35057836D02*
X61660000Y-34842164D01*
%TO.C,U304*%
X41490000Y-40840000D02*
X41490000Y-40890000D01*
X41490000Y-43910000D02*
X41490000Y-43960000D01*
X41490000Y-43960000D02*
X43310000Y-43960000D01*
X43310000Y-40840000D02*
X41490000Y-40840000D01*
X43310000Y-40890000D02*
X43310000Y-40840000D01*
X43310000Y-42790000D02*
X43310000Y-42010000D01*
X43310000Y-43960000D02*
X43310000Y-43910000D01*
X40950000Y-43910000D02*
X40710000Y-44240000D01*
X41190000Y-44240000D01*
X40950000Y-43910000D01*
G36*
X41190000Y-44240000D02*
G01*
X40710000Y-44240000D01*
X40950000Y-43910000D01*
X41190000Y-44240000D01*
G37*
%TO.C,R102*%
X51520000Y-32596359D02*
X51520000Y-32903641D01*
X52280000Y-32596359D02*
X52280000Y-32903641D01*
%TO.C,C307*%
X44892164Y-46140000D02*
X45107836Y-46140000D01*
X44892164Y-46860000D02*
X45107836Y-46860000D01*
%TO.C,J501*%
X29162000Y-63930000D02*
X29162000Y-63230000D01*
X29512000Y-63580000D02*
X28812000Y-63580000D01*
%TO.C,LS501*%
X21910000Y-56095000D02*
X21910000Y-43927500D01*
X22184500Y-42750000D02*
X28010000Y-42750000D01*
X22520000Y-58450000D02*
X28010000Y-58450000D01*
X27160000Y-57550000D02*
X27960000Y-57550000D01*
X27560000Y-57950000D02*
X27560000Y-57150000D01*
%TO.C,R214*%
X57820000Y-46546359D02*
X57820000Y-46853641D01*
X58580000Y-46546359D02*
X58580000Y-46853641D01*
%TO.C,C105*%
X57240000Y-38365580D02*
X57240000Y-38084420D01*
X58260000Y-38365580D02*
X58260000Y-38084420D01*
%TO.C,R315*%
X41120000Y-45553641D02*
X41120000Y-45246359D01*
X41880000Y-45553641D02*
X41880000Y-45246359D01*
%TO.C,C503*%
X32892164Y-58390000D02*
X33107836Y-58390000D01*
X32892164Y-59110000D02*
X33107836Y-59110000D01*
%TO.C,D502*%
X62055860Y-24314506D02*
X61625818Y-25434802D01*
%TO.C,U201*%
X42200000Y-57500000D02*
X42200000Y-72818000D01*
X57800000Y-57500000D02*
X42200000Y-57500000D01*
X57800000Y-72818000D02*
X57800000Y-57500000D01*
X42025000Y-71250000D02*
X41689000Y-71010000D01*
X41689000Y-71490000D01*
X42025000Y-71250000D01*
G36*
X42025000Y-71250000D02*
G01*
X41689000Y-71490000D01*
X41689000Y-71010000D01*
X42025000Y-71250000D01*
G37*
%TO.C,C203*%
X60192164Y-70890000D02*
X60407836Y-70890000D01*
X60192164Y-71610000D02*
X60407836Y-71610000D01*
%TO.C,R213*%
X59060000Y-46546359D02*
X59060000Y-46853641D01*
X59820000Y-46546359D02*
X59820000Y-46853641D01*
%TO.C,U501*%
X33990000Y-39690000D02*
X33990000Y-40165000D01*
X33990000Y-42435000D02*
X33990000Y-42910000D01*
X33990000Y-42910000D02*
X34465000Y-42910000D01*
X34465000Y-39690000D02*
X33990000Y-39690000D01*
X36735000Y-42910000D02*
X37210000Y-42910000D01*
X37210000Y-39690000D02*
X36735000Y-39690000D01*
X37210000Y-40165000D02*
X37210000Y-39690000D01*
X37210000Y-42910000D02*
X37210000Y-42435000D01*
X33480000Y-42050000D02*
X33150000Y-41810000D01*
X33150000Y-42290000D01*
X33480000Y-42050000D01*
G36*
X33480000Y-42050000D02*
G01*
X33150000Y-42290000D01*
X33150000Y-41810000D01*
X33480000Y-42050000D01*
G37*
%TO.C,R317*%
X45362742Y-48777500D02*
X45837258Y-48777500D01*
X45362742Y-49822500D02*
X45837258Y-49822500D01*
%TO.C,R121*%
X58420000Y-33553641D02*
X58420000Y-33246359D01*
X59180000Y-33553641D02*
X59180000Y-33246359D01*
%TO.C,U502*%
X32790000Y-59540000D02*
X32790000Y-59715000D01*
X32790000Y-62585000D02*
X32790000Y-62760000D01*
X32790000Y-62760000D02*
X36010000Y-62760000D01*
X36010000Y-59540000D02*
X32790000Y-59540000D01*
X36010000Y-59715000D02*
X36010000Y-59540000D01*
X36010000Y-62760000D02*
X36010000Y-62585000D01*
X36560000Y-59710000D02*
X36800000Y-59380000D01*
X36320000Y-59380000D01*
X36560000Y-59710000D01*
G36*
X36560000Y-59710000D02*
G01*
X36320000Y-59380000D01*
X36800000Y-59380000D01*
X36560000Y-59710000D01*
G37*
%TO.C,R311*%
X43546359Y-38220000D02*
X43853641Y-38220000D01*
X43546359Y-38980000D02*
X43853641Y-38980000D01*
%TO.C,R110*%
X70596359Y-41870000D02*
X70903641Y-41870000D01*
X70596359Y-42630000D02*
X70903641Y-42630000D01*
%TO.C,J102*%
X66650000Y-44500000D02*
X67700000Y-44500000D01*
X66650000Y-47000000D02*
X66650000Y-44500000D01*
X70700000Y-48970000D02*
X67820000Y-48970000D01*
X70820000Y-44500000D02*
X70820000Y-43510000D01*
X71870000Y-44500000D02*
X70820000Y-44500000D01*
X71870000Y-47000000D02*
X71870000Y-44500000D01*
%TO.C,C206*%
X50490000Y-55357836D02*
X50490000Y-55142164D01*
X51210000Y-55357836D02*
X51210000Y-55142164D01*
%TO.C,R122*%
X58927500Y-40037258D02*
X58927500Y-39562742D01*
X59972500Y-40037258D02*
X59972500Y-39562742D01*
%TO.C,R109*%
X64096359Y-41620000D02*
X64403641Y-41620000D01*
X64096359Y-42380000D02*
X64403641Y-42380000D01*
%TO.C,R301*%
X44406359Y-56020000D02*
X44713641Y-56020000D01*
X44406359Y-56780000D02*
X44713641Y-56780000D01*
%TO.C,R504*%
X61770000Y-29380641D02*
X61770000Y-29073359D01*
X62530000Y-29380641D02*
X62530000Y-29073359D01*
%TO.C,C202*%
X41040000Y-69922164D02*
X41040000Y-70137836D01*
X41760000Y-69922164D02*
X41760000Y-70137836D01*
%TD*%
%LPC*%
D18*
%TO.C,H3*%
X32322000Y-67678000D03*
%TD*%
D19*
%TO.C,H2*%
X68579000Y-33272000D03*
%TD*%
%TO.C,H1*%
X31421000Y-33272000D03*
%TD*%
D20*
%TO.C,R207*%
X41090000Y-54400000D03*
X42110000Y-54400000D03*
%TD*%
D21*
%TO.C,TP23*%
X59400000Y-35700000D03*
%TD*%
D22*
%TO.C,C504*%
X35600000Y-58630000D03*
X35600000Y-57670000D03*
%TD*%
D23*
%TO.C,Q101*%
X64162500Y-40125000D03*
X64162500Y-38225000D03*
X66037500Y-39175000D03*
%TD*%
D24*
%TO.C,TP6*%
X55500000Y-33050000D03*
%TD*%
D21*
%TO.C,TP13*%
X47000000Y-39700000D03*
%TD*%
D25*
%TO.C,R120*%
X57400000Y-33910000D03*
X57400000Y-32890000D03*
%TD*%
D26*
%TO.C,J101*%
X47110000Y-26650000D03*
X52890000Y-26650000D03*
D27*
X46750000Y-28095000D03*
X47550000Y-28095000D03*
D28*
X48750000Y-28095000D03*
X49750000Y-28095000D03*
X50250000Y-28095000D03*
X51250000Y-28095000D03*
D27*
X52450000Y-28095000D03*
X53250000Y-28095000D03*
X53250000Y-28095000D03*
X52450000Y-28095000D03*
D28*
X51750000Y-28095000D03*
X50750000Y-28095000D03*
X49250000Y-28095000D03*
X48250000Y-28095000D03*
D27*
X47550000Y-28095000D03*
X46750000Y-28095000D03*
D29*
X45680000Y-23000000D03*
D30*
X45680000Y-27180000D03*
D29*
X54320000Y-23000000D03*
D30*
X54320000Y-27180000D03*
%TD*%
D21*
%TO.C,TP25*%
X52550000Y-55900000D03*
%TD*%
D31*
%TO.C,J301*%
X38850000Y-54250000D03*
X38850000Y-53750000D03*
X38850000Y-53250000D03*
X38850000Y-52750000D03*
X38850000Y-52250000D03*
X38850000Y-51750000D03*
X38850000Y-51250000D03*
X38850000Y-50750000D03*
X38850000Y-50250000D03*
X38850000Y-49750000D03*
X38850000Y-49250000D03*
X38850000Y-48750000D03*
X38850000Y-48250000D03*
X38850000Y-47750000D03*
X38850000Y-47250000D03*
X38850000Y-46750000D03*
X38850000Y-46250000D03*
X38850000Y-45750000D03*
D32*
X36350000Y-55250000D03*
X36350000Y-44750000D03*
%TD*%
D25*
%TO.C,R316*%
X43000000Y-45910000D03*
X43000000Y-44890000D03*
%TD*%
%TO.C,R302*%
X41400000Y-59350000D03*
X41400000Y-58330000D03*
%TD*%
D24*
%TO.C,TP1*%
X61600000Y-46700000D03*
%TD*%
D33*
%TO.C,R108*%
X68260000Y-42097500D03*
X68260000Y-39172500D03*
%TD*%
D34*
%TO.C,C505*%
X63625000Y-31100000D03*
X65175000Y-31100000D03*
%TD*%
D35*
%TO.C,R502*%
X56627000Y-26752000D03*
X56627000Y-25102000D03*
%TD*%
D21*
%TO.C,TP7*%
X64300000Y-49500000D03*
%TD*%
D36*
%TO.C,Q501*%
X60550000Y-29737500D03*
X58650000Y-29737500D03*
X59600000Y-27862500D03*
%TD*%
D37*
%TO.C,C106*%
X51900000Y-36725000D03*
X51900000Y-35175000D03*
%TD*%
D35*
%TO.C,R501*%
X38673000Y-28328000D03*
X38673000Y-26678000D03*
%TD*%
D38*
%TO.C,C201*%
X39900000Y-69550000D03*
X39900000Y-71100000D03*
%TD*%
D18*
%TO.C,FID4*%
X27300000Y-36100000D03*
%TD*%
D20*
%TO.C,R312*%
X43190000Y-39900000D03*
X44210000Y-39900000D03*
%TD*%
D39*
%TO.C,R101*%
X48400000Y-29990000D03*
X48400000Y-31010000D03*
%TD*%
D40*
%TO.C,J201*%
X64400000Y-64060000D03*
X65416000Y-69140000D03*
X63384000Y-69140000D03*
D41*
X65035000Y-65330000D03*
X63765000Y-65330000D03*
X65035000Y-66600000D03*
X63765000Y-66600000D03*
X65035000Y-67870000D03*
X63765000Y-67870000D03*
%TD*%
D39*
%TO.C,R209*%
X37600000Y-63090000D03*
X37600000Y-64110000D03*
%TD*%
D42*
%TO.C,L101*%
X53350000Y-38750000D03*
X51900000Y-38750000D03*
%TD*%
D20*
%TO.C,R313*%
X41090000Y-39900000D03*
X42110000Y-39900000D03*
%TD*%
D21*
%TO.C,TP24*%
X39800000Y-67000000D03*
%TD*%
D20*
%TO.C,R503*%
X59530000Y-31438000D03*
X60550000Y-31438000D03*
%TD*%
D24*
%TO.C,TP16*%
X64300000Y-46700000D03*
%TD*%
D43*
%TO.C,D501*%
X41473371Y-23602448D03*
X38672629Y-24677552D03*
%TD*%
D20*
%TO.C,R314*%
X44490000Y-47800000D03*
X45510000Y-47800000D03*
%TD*%
D44*
%TO.C,Q302*%
X42737500Y-47350000D03*
X42737500Y-49250000D03*
X40862500Y-48300000D03*
%TD*%
D21*
%TO.C,TP9*%
X56000000Y-49500000D03*
%TD*%
D22*
%TO.C,C306*%
X45200000Y-43880000D03*
X45200000Y-42920000D03*
%TD*%
D45*
%TO.C,U104*%
X56150000Y-38250000D03*
X56150000Y-38750000D03*
X56150000Y-39250000D03*
X56150000Y-39750000D03*
X54850000Y-39750000D03*
X54850000Y-39250000D03*
X54850000Y-38750000D03*
X54850000Y-38250000D03*
%TD*%
D21*
%TO.C,TP10*%
X56000000Y-46700000D03*
%TD*%
%TO.C,TP22*%
X64300000Y-52300000D03*
%TD*%
D46*
%TO.C,R111*%
X53660000Y-40600000D03*
X52640000Y-40600000D03*
%TD*%
D47*
%TO.C,D101*%
X53200000Y-30500000D03*
X56100000Y-30500000D03*
%TD*%
D48*
%TO.C,U103*%
X62712500Y-36200000D03*
X62712500Y-35700000D03*
X62712500Y-35200000D03*
X62712500Y-34700000D03*
X64687500Y-34700000D03*
X64687500Y-35200000D03*
X64687500Y-35700000D03*
X64687500Y-36200000D03*
D49*
X63700000Y-35450000D03*
%TD*%
D21*
%TO.C,TP8*%
X61200000Y-68400000D03*
%TD*%
D46*
%TO.C,R201*%
X59410000Y-70000000D03*
X58390000Y-70000000D03*
%TD*%
D22*
%TO.C,C104*%
X61300000Y-35430000D03*
X61300000Y-34470000D03*
%TD*%
D50*
%TO.C,U304*%
X41262500Y-43350000D03*
X41262500Y-42400000D03*
X41262500Y-41450000D03*
X43537500Y-41450000D03*
X43537500Y-43350000D03*
%TD*%
D39*
%TO.C,R102*%
X51900000Y-32240000D03*
X51900000Y-33260000D03*
%TD*%
D51*
%TO.C,C307*%
X44520000Y-46500000D03*
X45480000Y-46500000D03*
%TD*%
D52*
%TO.C,J501*%
X29162000Y-62330000D03*
X29162000Y-59830000D03*
%TD*%
D18*
%TO.C,FID5*%
X71000000Y-37000000D03*
%TD*%
D21*
%TO.C,TP20*%
X47000000Y-53600000D03*
%TD*%
D53*
%TO.C,LS501*%
X29350000Y-57550000D03*
X29350000Y-43650000D03*
%TD*%
D39*
%TO.C,R214*%
X58200000Y-46190000D03*
X58200000Y-47210000D03*
%TD*%
D24*
%TO.C,TP2*%
X56000000Y-43900000D03*
%TD*%
D37*
%TO.C,C105*%
X57750000Y-39000000D03*
X57750000Y-37450000D03*
%TD*%
D21*
%TO.C,TP21*%
X51400000Y-53050000D03*
%TD*%
D25*
%TO.C,R315*%
X41500000Y-45910000D03*
X41500000Y-44890000D03*
%TD*%
D24*
%TO.C,TP4*%
X61600000Y-43900000D03*
%TD*%
D51*
%TO.C,C503*%
X32520000Y-58750000D03*
X33480000Y-58750000D03*
%TD*%
D54*
%TO.C,D502*%
X61327371Y-24677552D03*
X58526629Y-23602448D03*
%TD*%
D32*
%TO.C,U201*%
X43000000Y-71250000D03*
X43000000Y-70400000D03*
X43000000Y-69550000D03*
X43000000Y-68700000D03*
X43000000Y-67850000D03*
X43000000Y-67000000D03*
X43000000Y-66150000D03*
X43000000Y-65300000D03*
X43000000Y-64450000D03*
X43000000Y-63600000D03*
X43000000Y-62750000D03*
X43000000Y-61900000D03*
X43000000Y-61050000D03*
X43000000Y-60200000D03*
X43000000Y-59350000D03*
D55*
X44050000Y-58300000D03*
X44900000Y-58300000D03*
X45750000Y-58300000D03*
X46600000Y-58300000D03*
X47450000Y-58300000D03*
X48300000Y-58300000D03*
X49150000Y-58300000D03*
X50000000Y-58300000D03*
X50850000Y-58300000D03*
X51700000Y-58300000D03*
X52550000Y-58300000D03*
X53400000Y-58300000D03*
X54250000Y-58300000D03*
X55100000Y-58300000D03*
X55950000Y-58300000D03*
D32*
X57000000Y-59350000D03*
X57000000Y-60200000D03*
X57000000Y-61050000D03*
X57000000Y-61900000D03*
X57000000Y-62750000D03*
X57000000Y-63600000D03*
X57000000Y-64450000D03*
X57000000Y-65300000D03*
X57000000Y-66150000D03*
X57000000Y-67000000D03*
X57000000Y-67850000D03*
X57000000Y-68700000D03*
X57000000Y-69550000D03*
X57000000Y-70400000D03*
X57000000Y-71250000D03*
D55*
X55950000Y-72300000D03*
X55100000Y-72300000D03*
X54250000Y-72300000D03*
X53400000Y-72300000D03*
X52550000Y-72300000D03*
X51700000Y-72300000D03*
X50850000Y-72300000D03*
X50000000Y-72300000D03*
X49150000Y-72300000D03*
X48300000Y-72300000D03*
X47450000Y-72300000D03*
X46600000Y-72300000D03*
X45750000Y-72300000D03*
X44900000Y-72300000D03*
X44050000Y-72300000D03*
D56*
X48350000Y-63650000D03*
X48350000Y-65300000D03*
D57*
X48350000Y-66950000D03*
D56*
X50000000Y-63650000D03*
X50000000Y-65300000D03*
X50000000Y-66950000D03*
X51650000Y-63650000D03*
X51650000Y-65300000D03*
X51650000Y-66950000D03*
D58*
X43000000Y-72300000D03*
X43000000Y-58300000D03*
X57000000Y-58300000D03*
X57000000Y-72300000D03*
%TD*%
D18*
%TO.C,FID6*%
X69000000Y-68200000D03*
%TD*%
D51*
%TO.C,C203*%
X59820000Y-71250000D03*
X60780000Y-71250000D03*
%TD*%
D21*
%TO.C,TP26*%
X60300000Y-63450000D03*
%TD*%
D39*
%TO.C,R213*%
X59440000Y-46190000D03*
X59440000Y-47210000D03*
%TD*%
D59*
%TO.C,U501*%
X34162500Y-42050000D03*
X34162500Y-41550000D03*
X34162500Y-41050000D03*
X34162500Y-40550000D03*
D60*
X34850000Y-39862500D03*
X35350000Y-39862500D03*
X35850000Y-39862500D03*
X36350000Y-39862500D03*
D59*
X37037500Y-40550000D03*
X37037500Y-41050000D03*
X37037500Y-41550000D03*
X37037500Y-42050000D03*
D60*
X36350000Y-42737500D03*
X35850000Y-42737500D03*
X35350000Y-42737500D03*
X34850000Y-42737500D03*
D61*
X35600000Y-41300000D03*
%TD*%
D24*
%TO.C,TP5*%
X64300000Y-43900000D03*
%TD*%
D62*
%TO.C,R317*%
X44775000Y-49300000D03*
X46425000Y-49300000D03*
%TD*%
D25*
%TO.C,R121*%
X58800000Y-33910000D03*
X58800000Y-32890000D03*
%TD*%
D63*
%TO.C,U502*%
X36500000Y-60150000D03*
X36500000Y-60650000D03*
X36500000Y-61150000D03*
X36500000Y-61650000D03*
X36500000Y-62150000D03*
X32300000Y-62150000D03*
X32300000Y-61650000D03*
X32300000Y-61150000D03*
X32300000Y-60650000D03*
X32300000Y-60150000D03*
%TD*%
D20*
%TO.C,R311*%
X43190000Y-38600000D03*
X44210000Y-38600000D03*
%TD*%
D21*
%TO.C,TP19*%
X59700000Y-57400000D03*
%TD*%
D24*
%TO.C,TP3*%
X58800000Y-43900000D03*
%TD*%
D21*
%TO.C,TP18*%
X35000000Y-35700000D03*
%TD*%
D20*
%TO.C,R110*%
X70240000Y-42250000D03*
X71260000Y-42250000D03*
%TD*%
D64*
%TO.C,J102*%
X70260000Y-44285000D03*
X69260000Y-44285000D03*
X68260000Y-44285000D03*
D65*
X71560000Y-48160000D03*
X66960000Y-48160000D03*
%TD*%
D21*
%TO.C,TP17*%
X47000000Y-37100000D03*
%TD*%
D22*
%TO.C,C206*%
X50850000Y-55730000D03*
X50850000Y-54770000D03*
%TD*%
D35*
%TO.C,R122*%
X59450000Y-40625000D03*
X59450000Y-38975000D03*
%TD*%
D20*
%TO.C,R109*%
X63740000Y-42000000D03*
X64760000Y-42000000D03*
%TD*%
%TO.C,R301*%
X44050000Y-56400000D03*
X45070000Y-56400000D03*
%TD*%
D25*
%TO.C,R504*%
X62150000Y-29737000D03*
X62150000Y-28717000D03*
%TD*%
D21*
%TO.C,TP15*%
X73550000Y-50730000D03*
%TD*%
D66*
%TO.C,C202*%
X41400000Y-69550000D03*
X41400000Y-70510000D03*
%TD*%
%LPD*%
M02*
