%TF.GenerationSoftware,KiCad,Pcbnew,10.0.6*%
%TF.CreationDate,2026-10-04T10:06:22+02:00*%
%TF.ProjectId,MAO_MAIN_A0,4d414f5f-4d41-4494-9e5f-41302e6b6963,A0*%
%TF.SameCoordinates,Original*%
%TF.FileFunction,Legend,Top*%
%TF.FilePolarity,Positive*%
%FSLAX46Y46*%
G04 Gerber Fmt 4.6, Leading zero omitted, Abs format (unit mm)*
G04 Created by KiCad (PCBNEW 10.0.6) date 2026-10-04 10:06:22*
%MOMM*%
%LPD*%
G01*
G04 APERTURE LIST*
G04 Aperture macros list*
%AMRoundRect*
0 Rectangle with rounded corners*
0 $1 Rounding radius*
0 $2 $3 $4 $5 $6 $7 $8 $9 X,Y pos of 4 corners*
0 Add a 4 corners polygon primitive as box body*
4,1,4,$2,$3,$4,$5,$6,$7,$8,$9,$2,$3,0*
0 Add four circle primitives for the rounded corners*
1,1,$1+$1,$2,$3*
1,1,$1+$1,$4,$5*
1,1,$1+$1,$6,$7*
1,1,$1+$1,$8,$9*
0 Add four rect primitives between the rounded corners*
20,1,$1+$1,$2,$3,$4,$5,0*
20,1,$1+$1,$4,$5,$6,$7,0*
20,1,$1+$1,$6,$7,$8,$9,0*
20,1,$1+$1,$8,$9,$2,$3,0*%
%AMRotRect*
0 Rectangle, with rotation*
0 The origin of the aperture is its center*
0 $1 length*
0 $2 width*
0 $3 Rotation angle, in degrees counterclockwise*
0 Add horizontal line*
21,1,$1,$2,0,0,$3*%
G04 Aperture macros list end*
%ADD10C,0.000000*%
%ADD11C,0.150000*%
%ADD12C,0.260000*%
%ADD13C,0.120000*%
%ADD14C,0.160000*%
%ADD15C,0.100001*%
%ADD16RoundRect,0.200000X-0.275000X0.200000X-0.275000X-0.200000X0.275000X-0.200000X0.275000X0.200000X0*%
%ADD17RoundRect,0.140000X-0.140000X-0.170000X0.140000X-0.170000X0.140000X0.170000X-0.140000X0.170000X0*%
%ADD18RoundRect,0.135000X-0.135000X-0.185000X0.135000X-0.185000X0.135000X0.185000X-0.135000X0.185000X0*%
%ADD19RoundRect,0.075000X0.175000X-0.075000X0.175000X0.075000X-0.175000X0.075000X-0.175000X-0.075000X0*%
%ADD20RoundRect,0.140000X-0.170000X0.140000X-0.170000X-0.140000X0.170000X-0.140000X0.170000X0.140000X0*%
%ADD21RoundRect,0.135000X0.185000X-0.135000X0.185000X0.135000X-0.185000X0.135000X-0.185000X-0.135000X0*%
%ADD22RoundRect,0.225000X0.225000X0.250000X-0.225000X0.250000X-0.225000X-0.250000X0.225000X-0.250000X0*%
%ADD23RoundRect,0.135000X0.135000X0.185000X-0.135000X0.185000X-0.135000X-0.185000X0.135000X-0.185000X0*%
%ADD24C,2.000000*%
%ADD25RoundRect,0.050000X-1.750000X0.150000X-1.750000X-0.150000X1.750000X-0.150000X1.750000X0.150000X0*%
%ADD26RoundRect,0.140000X0.140000X0.170000X-0.140000X0.170000X-0.140000X-0.170000X0.140000X-0.170000X0*%
%ADD27RoundRect,0.135000X-0.185000X0.135000X-0.185000X-0.135000X0.185000X-0.135000X0.185000X0.135000X0*%
%ADD28RotRect,0.500000X0.500000X118.000000*%
%ADD29RoundRect,0.150000X-0.512500X-0.150000X0.512500X-0.150000X0.512500X0.150000X-0.512500X0.150000X0*%
%ADD30C,2.200000*%
%ADD31RoundRect,0.100000X0.315765X1.179107X-0.999805X0.700279X-0.315765X-1.179107X0.999805X-0.700279X0*%
%ADD32RoundRect,0.140000X0.170000X-0.140000X0.170000X0.140000X-0.170000X0.140000X-0.170000X-0.140000X0*%
%ADD33RoundRect,0.062500X-0.152780X0.160377X-0.215280X0.052123X0.152780X-0.160377X0.215280X-0.052123X0*%
%ADD34RotRect,0.800000X0.600000X240.000000*%
%ADD35R,1.800000X1.100000*%
%ADD36RoundRect,0.275000X-0.275000X0.475000X-0.275000X-0.475000X0.275000X-0.475000X0.275000X0.475000X0*%
%ADD37RoundRect,0.150000X-0.587500X-0.150000X0.587500X-0.150000X0.587500X0.150000X-0.587500X0.150000X0*%
%ADD38RoundRect,0.125000X-0.110373X0.058675X0.110364X-0.058693X0.110373X-0.058675X-0.110364X0.058693X0*%
%ADD39RoundRect,0.050000X-0.536230X-0.422738X-0.050609X-0.680947X0.536230X0.422738X0.050609X0.680947X0*%
%ADD40RoundRect,0.087500X0.087500X-0.250000X0.087500X0.250000X-0.087500X0.250000X-0.087500X-0.250000X0*%
%ADD41RoundRect,0.062500X-0.135180X0.175468X-0.208653X0.074341X0.135180X-0.175468X0.208653X-0.074341X0*%
%ADD42RotRect,0.800000X0.600000X234.000000*%
%ADD43RoundRect,0.087500X-0.225000X-0.087500X0.225000X-0.087500X0.225000X0.087500X-0.225000X0.087500X0*%
%ADD44RoundRect,0.087500X-0.087500X-0.225000X0.087500X-0.225000X0.087500X0.225000X-0.087500X0.225000X0*%
%ADD45C,0.990600*%
%ADD46C,0.500000*%
%ADD47C,0.650000*%
%ADD48O,1.000000X1.600000*%
%ADD49O,1.000000X2.100000*%
G04 APERTURE END LIST*
D10*
G36*
X56340773Y-61568750D02*
G01*
X56385416Y-61568750D01*
X56392857Y-61576190D01*
X56415178Y-61576190D01*
X56444940Y-61591071D01*
X56459821Y-61591071D01*
X56467261Y-61598511D01*
X56482142Y-61598511D01*
X56541666Y-61628273D01*
X56556547Y-61643154D01*
X56601190Y-61665476D01*
X56645833Y-61702678D01*
X56653273Y-61702678D01*
X56675595Y-61725000D01*
X56727678Y-61754761D01*
X56750000Y-61777083D01*
X56779761Y-61791964D01*
X56802083Y-61814285D01*
X56854166Y-61844047D01*
X56928571Y-61903571D01*
X56958333Y-61918452D01*
X56980654Y-61940773D01*
X57032738Y-61970535D01*
X57055059Y-61992857D01*
X57084821Y-62007738D01*
X57107142Y-62030059D01*
X57114583Y-62030059D01*
X57136904Y-62052380D01*
X57188988Y-62082142D01*
X57203869Y-62097023D01*
X57211309Y-62097023D01*
X57263392Y-62141666D01*
X57315476Y-62171428D01*
X57375000Y-62223511D01*
X57427083Y-62253273D01*
X57508928Y-62320238D01*
X57561011Y-62350000D01*
X57575892Y-62364880D01*
X57583333Y-62364880D01*
X57605654Y-62387202D01*
X57657738Y-62416964D01*
X57680059Y-62439285D01*
X57687500Y-62439285D01*
X57709821Y-62461607D01*
X57739583Y-62476488D01*
X57761904Y-62498809D01*
X57813988Y-62528571D01*
X57858630Y-62565773D01*
X57866071Y-62565773D01*
X57925595Y-62625297D01*
X57925595Y-62632738D01*
X57962797Y-62677380D01*
X57977678Y-62707142D01*
X57977678Y-62722023D01*
X57992559Y-62744345D01*
X57992559Y-62766666D01*
X58000000Y-62774107D01*
X58000000Y-64604464D01*
X57992559Y-64611904D01*
X57985119Y-64656547D01*
X57962797Y-64701190D01*
X57880952Y-64790476D01*
X57851190Y-64805357D01*
X57836309Y-64820238D01*
X57717261Y-64879761D01*
X57702380Y-64894642D01*
X57665178Y-64909523D01*
X57650297Y-64924404D01*
X57531250Y-64983928D01*
X57516369Y-64998809D01*
X57479166Y-65013690D01*
X57464285Y-65028571D01*
X57412202Y-65050892D01*
X57397321Y-65065773D01*
X57330357Y-65095535D01*
X57315476Y-65110416D01*
X57278273Y-65125297D01*
X57263392Y-65140178D01*
X57174107Y-65184821D01*
X57159226Y-65199702D01*
X57107142Y-65222023D01*
X57055059Y-65259226D01*
X56936011Y-65318750D01*
X56921130Y-65333630D01*
X56869047Y-65355952D01*
X56854166Y-65370833D01*
X56802083Y-65393154D01*
X56787202Y-65408035D01*
X56735119Y-65430357D01*
X56720238Y-65445238D01*
X56668154Y-65467559D01*
X56653273Y-65482440D01*
X56616071Y-65497321D01*
X56601190Y-65512202D01*
X56563988Y-65527083D01*
X56549107Y-65541964D01*
X56415178Y-65608928D01*
X56400297Y-65623809D01*
X56363095Y-65638690D01*
X56363095Y-62788988D01*
X56370535Y-62781547D01*
X56370535Y-62424404D01*
X56377976Y-62416964D01*
X56377976Y-62126785D01*
X56385416Y-62119345D01*
X56385416Y-61821726D01*
X56377976Y-61814285D01*
X56370535Y-61784523D01*
X56325892Y-61739880D01*
X56311011Y-61739880D01*
X56303571Y-61732440D01*
X56251488Y-61732440D01*
X56244047Y-61739880D01*
X56229166Y-61739880D01*
X56184523Y-61784523D01*
X56177083Y-61814285D01*
X56169642Y-61821726D01*
X56169642Y-62178869D01*
X56177083Y-62186309D01*
X56177083Y-62521130D01*
X56184523Y-62528571D01*
X56184523Y-62803869D01*
X56177083Y-62811309D01*
X56177083Y-62841071D01*
X56154761Y-62885714D01*
X56154761Y-62900595D01*
X56139880Y-62915476D01*
X56132440Y-62937797D01*
X56110119Y-62960119D01*
X56110119Y-62967559D01*
X56072916Y-63004761D01*
X56065476Y-63004761D01*
X56020833Y-63041964D01*
X55953869Y-63071726D01*
X55916666Y-63101488D01*
X55879464Y-63116369D01*
X55864583Y-63131250D01*
X55797619Y-63161011D01*
X55782738Y-63175892D01*
X55745535Y-63190773D01*
X55730654Y-63205654D01*
X55641369Y-63250297D01*
X55626488Y-63265178D01*
X55559523Y-63294940D01*
X55544642Y-63309821D01*
X55507440Y-63324702D01*
X55492559Y-63339583D01*
X55455357Y-63354464D01*
X55440476Y-63369345D01*
X55403273Y-63384226D01*
X55388392Y-63399107D01*
X55336309Y-63421428D01*
X55321428Y-63436309D01*
X55284226Y-63451190D01*
X55269345Y-63466071D01*
X55150297Y-63525595D01*
X55135416Y-63540476D01*
X55098214Y-63555357D01*
X55083333Y-63570238D01*
X55046130Y-63585119D01*
X55031250Y-63600000D01*
X54912202Y-63659523D01*
X54897321Y-63674404D01*
X54845238Y-63696726D01*
X54830357Y-63711607D01*
X54741071Y-63756250D01*
X54726190Y-63771130D01*
X54659226Y-63800892D01*
X54644345Y-63815773D01*
X54607142Y-63830654D01*
X54592261Y-63845535D01*
X54562500Y-63860416D01*
X54562500Y-64812797D01*
X54555059Y-64820238D01*
X54555059Y-64850000D01*
X54540178Y-64879761D01*
X54540178Y-64894642D01*
X54525297Y-64924404D01*
X54502976Y-64946726D01*
X54502976Y-64954166D01*
X54436011Y-65021130D01*
X54383928Y-65050892D01*
X54369047Y-65065773D01*
X54361607Y-65065773D01*
X54346726Y-65080654D01*
X54339285Y-65080654D01*
X54324404Y-65095535D01*
X54316964Y-65095535D01*
X54294642Y-65117857D01*
X54242559Y-65147619D01*
X54220238Y-65169940D01*
X54168154Y-65199702D01*
X54153273Y-65214583D01*
X54145833Y-65214583D01*
X54123511Y-65236904D01*
X54071428Y-65266666D01*
X54056547Y-65281547D01*
X54049107Y-65281547D01*
X54034226Y-65296428D01*
X54026785Y-65296428D01*
X54011904Y-65311309D01*
X54004464Y-65311309D01*
X53989583Y-65326190D01*
X53982142Y-65326190D01*
X53967261Y-65341071D01*
X53959821Y-65341071D01*
X53944940Y-65355952D01*
X53937500Y-65355952D01*
X53915178Y-65378273D01*
X53863095Y-65408035D01*
X53840773Y-65430357D01*
X53788690Y-65460119D01*
X53773809Y-65475000D01*
X53714285Y-65504761D01*
X53677083Y-65512202D01*
X53669642Y-65519642D01*
X53647321Y-65519642D01*
X53639880Y-65527083D01*
X53617559Y-65527083D01*
X53610119Y-65534523D01*
X53565476Y-65534523D01*
X53558035Y-65541964D01*
X53483630Y-65541964D01*
X53476190Y-65534523D01*
X53431547Y-65534523D01*
X53424107Y-65527083D01*
X53394345Y-65527083D01*
X53364583Y-65512202D01*
X53349702Y-65512202D01*
X53342261Y-65504761D01*
X53327380Y-65504761D01*
X53238095Y-65460119D01*
X53215773Y-65437797D01*
X53208333Y-65437797D01*
X53111607Y-65341071D01*
X53111607Y-65333630D01*
X53074404Y-65288988D01*
X53044642Y-65229464D01*
X53044642Y-65214583D01*
X53029761Y-65192261D01*
X53022321Y-65147619D01*
X53014880Y-65140178D01*
X53014880Y-65110416D01*
X53007440Y-65102976D01*
X53007440Y-65028571D01*
X53000000Y-65021130D01*
X53000000Y-65006250D01*
X53007440Y-64998809D01*
X53007440Y-64939285D01*
X53014880Y-64931845D01*
X53014880Y-64902083D01*
X53022321Y-64894642D01*
X53022321Y-64872321D01*
X53037202Y-64842559D01*
X53037202Y-64827678D01*
X53074404Y-64753273D01*
X53104166Y-64716071D01*
X53104166Y-64708630D01*
X53126488Y-64686309D01*
X53126488Y-64678869D01*
X53178571Y-64626785D01*
X53186011Y-64626785D01*
X53215773Y-64597023D01*
X53238095Y-64589583D01*
X53275297Y-64559821D01*
X53312500Y-64544940D01*
X53327380Y-64530059D01*
X53461309Y-64463095D01*
X53476190Y-64448214D01*
X53513392Y-64433333D01*
X53528273Y-64418452D01*
X53595238Y-64388690D01*
X53610119Y-64373809D01*
X53647321Y-64358928D01*
X53662202Y-64344047D01*
X53714285Y-64321726D01*
X53729166Y-64306845D01*
X53892857Y-64225000D01*
X53907738Y-64210119D01*
X53944940Y-64195238D01*
X53959821Y-64180357D01*
X54026785Y-64150595D01*
X54041666Y-64135714D01*
X54145833Y-64083630D01*
X54160714Y-64068750D01*
X54227678Y-64038988D01*
X54242559Y-64024107D01*
X54309523Y-63994345D01*
X54324404Y-63979464D01*
X54361607Y-63964583D01*
X54376488Y-63949702D01*
X54428571Y-63927380D01*
X54443452Y-63912500D01*
X54547619Y-63860416D01*
X54562500Y-63845535D01*
X54562500Y-63823214D01*
X54569940Y-63815773D01*
X54569940Y-62781547D01*
X54577380Y-62774107D01*
X54577380Y-62751785D01*
X54592261Y-62729464D01*
X54592261Y-62714583D01*
X54607142Y-62684821D01*
X54644345Y-62640178D01*
X54644345Y-62632738D01*
X54688988Y-62588095D01*
X54718750Y-62573214D01*
X54748511Y-62543452D01*
X54800595Y-62513690D01*
X54852678Y-62469047D01*
X54904761Y-62439285D01*
X54919642Y-62424404D01*
X54927083Y-62424404D01*
X54979166Y-62379761D01*
X55008928Y-62364880D01*
X55031250Y-62342559D01*
X55061011Y-62327678D01*
X55075892Y-62312797D01*
X55083333Y-62312797D01*
X55135416Y-62268154D01*
X55187500Y-62238392D01*
X55239583Y-62193750D01*
X55291666Y-62163988D01*
X55306547Y-62149107D01*
X55313988Y-62149107D01*
X55366071Y-62104464D01*
X55395833Y-62089583D01*
X55418154Y-62067261D01*
X55447916Y-62052380D01*
X55470238Y-62030059D01*
X55500000Y-62015178D01*
X55522321Y-61992857D01*
X55552083Y-61977976D01*
X55566964Y-61963095D01*
X55574404Y-61963095D01*
X55648809Y-61903571D01*
X55678571Y-61888690D01*
X55700892Y-61866369D01*
X55752976Y-61836607D01*
X55782738Y-61806845D01*
X55834821Y-61777083D01*
X55886904Y-61732440D01*
X55938988Y-61702678D01*
X55991071Y-61658035D01*
X56035714Y-61635714D01*
X56050595Y-61620833D01*
X56080357Y-61613392D01*
X56117559Y-61591071D01*
X56162202Y-61583630D01*
X56169642Y-61576190D01*
X56191964Y-61576190D01*
X56199404Y-61568750D01*
X56244047Y-61568750D01*
X56251488Y-61561309D01*
X56333333Y-61561309D01*
X56340773Y-61568750D01*
G37*
D11*
X29031381Y-59113295D02*
X29488524Y-59113295D01*
X29259952Y-59913295D02*
X29259952Y-59113295D01*
X29907572Y-59113295D02*
X30059953Y-59113295D01*
X30059953Y-59113295D02*
X30136143Y-59151390D01*
X30136143Y-59151390D02*
X30212334Y-59227580D01*
X30212334Y-59227580D02*
X30250429Y-59379961D01*
X30250429Y-59379961D02*
X30250429Y-59646628D01*
X30250429Y-59646628D02*
X30212334Y-59799009D01*
X30212334Y-59799009D02*
X30136143Y-59875200D01*
X30136143Y-59875200D02*
X30059953Y-59913295D01*
X30059953Y-59913295D02*
X29907572Y-59913295D01*
X29907572Y-59913295D02*
X29831381Y-59875200D01*
X29831381Y-59875200D02*
X29755191Y-59799009D01*
X29755191Y-59799009D02*
X29717095Y-59646628D01*
X29717095Y-59646628D02*
X29717095Y-59379961D01*
X29717095Y-59379961D02*
X29755191Y-59227580D01*
X29755191Y-59227580D02*
X29831381Y-59151390D01*
X29831381Y-59151390D02*
X29907572Y-59113295D01*
X30593286Y-59913295D02*
X30593286Y-59113295D01*
X30593286Y-59113295D02*
X30898048Y-59113295D01*
X30898048Y-59113295D02*
X30974238Y-59151390D01*
X30974238Y-59151390D02*
X31012333Y-59189485D01*
X31012333Y-59189485D02*
X31050429Y-59265676D01*
X31050429Y-59265676D02*
X31050429Y-59379961D01*
X31050429Y-59379961D02*
X31012333Y-59456152D01*
X31012333Y-59456152D02*
X30974238Y-59494247D01*
X30974238Y-59494247D02*
X30898048Y-59532342D01*
X30898048Y-59532342D02*
X30593286Y-59532342D01*
X38676189Y-71633723D02*
X39057142Y-71633723D01*
X38599999Y-71862295D02*
X38866666Y-71062295D01*
X38866666Y-71062295D02*
X39133332Y-71862295D01*
X39399999Y-71862295D02*
X39399999Y-71062295D01*
X39399999Y-71062295D02*
X39857142Y-71862295D01*
X39857142Y-71862295D02*
X39857142Y-71062295D01*
X40123808Y-71062295D02*
X40580951Y-71062295D01*
X40352379Y-71862295D02*
X40352379Y-71062295D01*
X40847618Y-71443247D02*
X41114284Y-71443247D01*
X41228570Y-71862295D02*
X40847618Y-71862295D01*
X40847618Y-71862295D02*
X40847618Y-71062295D01*
X40847618Y-71062295D02*
X41228570Y-71062295D01*
X41571428Y-71862295D02*
X41571428Y-71062295D01*
X41571428Y-71062295D02*
X42028571Y-71862295D01*
X42028571Y-71862295D02*
X42028571Y-71062295D01*
X42409523Y-71862295D02*
X42409523Y-71062295D01*
X42409523Y-71062295D02*
X42866666Y-71862295D01*
X42866666Y-71862295D02*
X42866666Y-71062295D01*
X43209522Y-71633723D02*
X43590475Y-71633723D01*
X43133332Y-71862295D02*
X43399999Y-71062295D01*
X43399999Y-71062295D02*
X43666665Y-71862295D01*
X45152380Y-71862295D02*
X45152380Y-71062295D01*
X45609523Y-71862295D02*
X45266665Y-71405152D01*
X45609523Y-71062295D02*
X45152380Y-71519438D01*
X45952380Y-71443247D02*
X46219046Y-71443247D01*
X46333332Y-71862295D02*
X45952380Y-71862295D01*
X45952380Y-71862295D02*
X45952380Y-71062295D01*
X45952380Y-71062295D02*
X46333332Y-71062295D01*
X46676190Y-71443247D02*
X46942856Y-71443247D01*
X47057142Y-71862295D02*
X46676190Y-71862295D01*
X46676190Y-71862295D02*
X46676190Y-71062295D01*
X46676190Y-71062295D02*
X47057142Y-71062295D01*
X47400000Y-71862295D02*
X47400000Y-71062295D01*
X47400000Y-71062295D02*
X47704762Y-71062295D01*
X47704762Y-71062295D02*
X47780952Y-71100390D01*
X47780952Y-71100390D02*
X47819047Y-71138485D01*
X47819047Y-71138485D02*
X47857143Y-71214676D01*
X47857143Y-71214676D02*
X47857143Y-71328961D01*
X47857143Y-71328961D02*
X47819047Y-71405152D01*
X47819047Y-71405152D02*
X47780952Y-71443247D01*
X47780952Y-71443247D02*
X47704762Y-71481342D01*
X47704762Y-71481342D02*
X47400000Y-71481342D01*
X49266667Y-71786104D02*
X49228571Y-71824200D01*
X49228571Y-71824200D02*
X49114286Y-71862295D01*
X49114286Y-71862295D02*
X49038095Y-71862295D01*
X49038095Y-71862295D02*
X48923809Y-71824200D01*
X48923809Y-71824200D02*
X48847619Y-71748009D01*
X48847619Y-71748009D02*
X48809524Y-71671819D01*
X48809524Y-71671819D02*
X48771428Y-71519438D01*
X48771428Y-71519438D02*
X48771428Y-71405152D01*
X48771428Y-71405152D02*
X48809524Y-71252771D01*
X48809524Y-71252771D02*
X48847619Y-71176580D01*
X48847619Y-71176580D02*
X48923809Y-71100390D01*
X48923809Y-71100390D02*
X49038095Y-71062295D01*
X49038095Y-71062295D02*
X49114286Y-71062295D01*
X49114286Y-71062295D02*
X49228571Y-71100390D01*
X49228571Y-71100390D02*
X49266667Y-71138485D01*
X49990476Y-71862295D02*
X49609524Y-71862295D01*
X49609524Y-71862295D02*
X49609524Y-71062295D01*
X50257143Y-71443247D02*
X50523809Y-71443247D01*
X50638095Y-71862295D02*
X50257143Y-71862295D01*
X50257143Y-71862295D02*
X50257143Y-71062295D01*
X50257143Y-71062295D02*
X50638095Y-71062295D01*
X50942857Y-71633723D02*
X51323810Y-71633723D01*
X50866667Y-71862295D02*
X51133334Y-71062295D01*
X51133334Y-71062295D02*
X51400000Y-71862295D01*
X52123810Y-71862295D02*
X51857143Y-71481342D01*
X51666667Y-71862295D02*
X51666667Y-71062295D01*
X51666667Y-71062295D02*
X51971429Y-71062295D01*
X51971429Y-71062295D02*
X52047619Y-71100390D01*
X52047619Y-71100390D02*
X52085714Y-71138485D01*
X52085714Y-71138485D02*
X52123810Y-71214676D01*
X52123810Y-71214676D02*
X52123810Y-71328961D01*
X52123810Y-71328961D02*
X52085714Y-71405152D01*
X52085714Y-71405152D02*
X52047619Y-71443247D01*
X52047619Y-71443247D02*
X51971429Y-71481342D01*
X51971429Y-71481342D02*
X51666667Y-71481342D01*
X52871427Y-69627175D02*
X52909523Y-69589080D01*
X52909523Y-69589080D02*
X52985713Y-69550985D01*
X52985713Y-69550985D02*
X53176189Y-69550985D01*
X53176189Y-69550985D02*
X53252380Y-69589080D01*
X53252380Y-69589080D02*
X53290475Y-69627175D01*
X53290475Y-69627175D02*
X53328570Y-69703366D01*
X53328570Y-69703366D02*
X53328570Y-69779556D01*
X53328570Y-69779556D02*
X53290475Y-69893842D01*
X53290475Y-69893842D02*
X52833332Y-70350985D01*
X52833332Y-70350985D02*
X53328570Y-70350985D01*
X53823809Y-69550985D02*
X53899999Y-69550985D01*
X53899999Y-69550985D02*
X53976190Y-69589080D01*
X53976190Y-69589080D02*
X54014285Y-69627175D01*
X54014285Y-69627175D02*
X54052380Y-69703366D01*
X54052380Y-69703366D02*
X54090475Y-69855747D01*
X54090475Y-69855747D02*
X54090475Y-70046223D01*
X54090475Y-70046223D02*
X54052380Y-70198604D01*
X54052380Y-70198604D02*
X54014285Y-70274794D01*
X54014285Y-70274794D02*
X53976190Y-70312890D01*
X53976190Y-70312890D02*
X53899999Y-70350985D01*
X53899999Y-70350985D02*
X53823809Y-70350985D01*
X53823809Y-70350985D02*
X53747618Y-70312890D01*
X53747618Y-70312890D02*
X53709523Y-70274794D01*
X53709523Y-70274794D02*
X53671428Y-70198604D01*
X53671428Y-70198604D02*
X53633332Y-70046223D01*
X53633332Y-70046223D02*
X53633332Y-69855747D01*
X53633332Y-69855747D02*
X53671428Y-69703366D01*
X53671428Y-69703366D02*
X53709523Y-69627175D01*
X53709523Y-69627175D02*
X53747618Y-69589080D01*
X53747618Y-69589080D02*
X53823809Y-69550985D01*
X54395237Y-69627175D02*
X54433333Y-69589080D01*
X54433333Y-69589080D02*
X54509523Y-69550985D01*
X54509523Y-69550985D02*
X54699999Y-69550985D01*
X54699999Y-69550985D02*
X54776190Y-69589080D01*
X54776190Y-69589080D02*
X54814285Y-69627175D01*
X54814285Y-69627175D02*
X54852380Y-69703366D01*
X54852380Y-69703366D02*
X54852380Y-69779556D01*
X54852380Y-69779556D02*
X54814285Y-69893842D01*
X54814285Y-69893842D02*
X54357142Y-70350985D01*
X54357142Y-70350985D02*
X54852380Y-70350985D01*
X55538095Y-69550985D02*
X55385714Y-69550985D01*
X55385714Y-69550985D02*
X55309523Y-69589080D01*
X55309523Y-69589080D02*
X55271428Y-69627175D01*
X55271428Y-69627175D02*
X55195238Y-69741461D01*
X55195238Y-69741461D02*
X55157142Y-69893842D01*
X55157142Y-69893842D02*
X55157142Y-70198604D01*
X55157142Y-70198604D02*
X55195238Y-70274794D01*
X55195238Y-70274794D02*
X55233333Y-70312890D01*
X55233333Y-70312890D02*
X55309523Y-70350985D01*
X55309523Y-70350985D02*
X55461904Y-70350985D01*
X55461904Y-70350985D02*
X55538095Y-70312890D01*
X55538095Y-70312890D02*
X55576190Y-70274794D01*
X55576190Y-70274794D02*
X55614285Y-70198604D01*
X55614285Y-70198604D02*
X55614285Y-70008128D01*
X55614285Y-70008128D02*
X55576190Y-69931937D01*
X55576190Y-69931937D02*
X55538095Y-69893842D01*
X55538095Y-69893842D02*
X55461904Y-69855747D01*
X55461904Y-69855747D02*
X55309523Y-69855747D01*
X55309523Y-69855747D02*
X55233333Y-69893842D01*
X55233333Y-69893842D02*
X55195238Y-69931937D01*
X55195238Y-69931937D02*
X55157142Y-70008128D01*
X55957143Y-70046223D02*
X56566667Y-70046223D01*
X57366666Y-70350985D02*
X56909523Y-70350985D01*
X57138095Y-70350985D02*
X57138095Y-69550985D01*
X57138095Y-69550985D02*
X57061904Y-69665270D01*
X57061904Y-69665270D02*
X56985714Y-69741461D01*
X56985714Y-69741461D02*
X56909523Y-69779556D01*
X57861905Y-69550985D02*
X57938095Y-69550985D01*
X57938095Y-69550985D02*
X58014286Y-69589080D01*
X58014286Y-69589080D02*
X58052381Y-69627175D01*
X58052381Y-69627175D02*
X58090476Y-69703366D01*
X58090476Y-69703366D02*
X58128571Y-69855747D01*
X58128571Y-69855747D02*
X58128571Y-70046223D01*
X58128571Y-70046223D02*
X58090476Y-70198604D01*
X58090476Y-70198604D02*
X58052381Y-70274794D01*
X58052381Y-70274794D02*
X58014286Y-70312890D01*
X58014286Y-70312890D02*
X57938095Y-70350985D01*
X57938095Y-70350985D02*
X57861905Y-70350985D01*
X57861905Y-70350985D02*
X57785714Y-70312890D01*
X57785714Y-70312890D02*
X57747619Y-70274794D01*
X57747619Y-70274794D02*
X57709524Y-70198604D01*
X57709524Y-70198604D02*
X57671428Y-70046223D01*
X57671428Y-70046223D02*
X57671428Y-69855747D01*
X57671428Y-69855747D02*
X57709524Y-69703366D01*
X57709524Y-69703366D02*
X57747619Y-69627175D01*
X57747619Y-69627175D02*
X57785714Y-69589080D01*
X57785714Y-69589080D02*
X57861905Y-69550985D01*
X52971428Y-69047247D02*
X52971428Y-68147247D01*
X52971428Y-68147247D02*
X53271428Y-68790104D01*
X53271428Y-68790104D02*
X53571428Y-68147247D01*
X53571428Y-68147247D02*
X53571428Y-69047247D01*
X53957142Y-68790104D02*
X54385714Y-68790104D01*
X53871428Y-69047247D02*
X54171428Y-68147247D01*
X54171428Y-68147247D02*
X54471428Y-69047247D01*
X54771428Y-69047247D02*
X54771428Y-68147247D01*
X55199999Y-69047247D02*
X55199999Y-68147247D01*
X55199999Y-68147247D02*
X55714285Y-69047247D01*
X55714285Y-69047247D02*
X55714285Y-68147247D01*
X56785713Y-68790104D02*
X57214285Y-68790104D01*
X56699999Y-69047247D02*
X56999999Y-68147247D01*
X56999999Y-68147247D02*
X57299999Y-69047247D01*
X57771428Y-68147247D02*
X57857142Y-68147247D01*
X57857142Y-68147247D02*
X57942856Y-68190104D01*
X57942856Y-68190104D02*
X57985714Y-68232961D01*
X57985714Y-68232961D02*
X58028571Y-68318675D01*
X58028571Y-68318675D02*
X58071428Y-68490104D01*
X58071428Y-68490104D02*
X58071428Y-68704390D01*
X58071428Y-68704390D02*
X58028571Y-68875818D01*
X58028571Y-68875818D02*
X57985714Y-68961532D01*
X57985714Y-68961532D02*
X57942856Y-69004390D01*
X57942856Y-69004390D02*
X57857142Y-69047247D01*
X57857142Y-69047247D02*
X57771428Y-69047247D01*
X57771428Y-69047247D02*
X57685714Y-69004390D01*
X57685714Y-69004390D02*
X57642856Y-68961532D01*
X57642856Y-68961532D02*
X57599999Y-68875818D01*
X57599999Y-68875818D02*
X57557142Y-68704390D01*
X57557142Y-68704390D02*
X57557142Y-68490104D01*
X57557142Y-68490104D02*
X57599999Y-68318675D01*
X57599999Y-68318675D02*
X57642856Y-68232961D01*
X57642856Y-68232961D02*
X57685714Y-68190104D01*
X57685714Y-68190104D02*
X57771428Y-68147247D01*
X35654819Y-50690476D02*
X35654819Y-51166666D01*
X35654819Y-51166666D02*
X34654819Y-51166666D01*
X35559580Y-49785714D02*
X35607200Y-49833333D01*
X35607200Y-49833333D02*
X35654819Y-49976190D01*
X35654819Y-49976190D02*
X35654819Y-50071428D01*
X35654819Y-50071428D02*
X35607200Y-50214285D01*
X35607200Y-50214285D02*
X35511961Y-50309523D01*
X35511961Y-50309523D02*
X35416723Y-50357142D01*
X35416723Y-50357142D02*
X35226247Y-50404761D01*
X35226247Y-50404761D02*
X35083390Y-50404761D01*
X35083390Y-50404761D02*
X34892914Y-50357142D01*
X34892914Y-50357142D02*
X34797676Y-50309523D01*
X34797676Y-50309523D02*
X34702438Y-50214285D01*
X34702438Y-50214285D02*
X34654819Y-50071428D01*
X34654819Y-50071428D02*
X34654819Y-49976190D01*
X34654819Y-49976190D02*
X34702438Y-49833333D01*
X34702438Y-49833333D02*
X34750057Y-49785714D01*
X35654819Y-49357142D02*
X34654819Y-49357142D01*
X34654819Y-49357142D02*
X34654819Y-49119047D01*
X34654819Y-49119047D02*
X34702438Y-48976190D01*
X34702438Y-48976190D02*
X34797676Y-48880952D01*
X34797676Y-48880952D02*
X34892914Y-48833333D01*
X34892914Y-48833333D02*
X35083390Y-48785714D01*
X35083390Y-48785714D02*
X35226247Y-48785714D01*
X35226247Y-48785714D02*
X35416723Y-48833333D01*
X35416723Y-48833333D02*
X35511961Y-48880952D01*
X35511961Y-48880952D02*
X35607200Y-48976190D01*
X35607200Y-48976190D02*
X35654819Y-49119047D01*
X35654819Y-49119047D02*
X35654819Y-49357142D01*
D12*
X53828571Y-67526574D02*
X53828571Y-66226574D01*
X53828571Y-66226574D02*
X54261905Y-67155146D01*
X54261905Y-67155146D02*
X54695238Y-66226574D01*
X54695238Y-66226574D02*
X54695238Y-67526574D01*
X55252381Y-67155146D02*
X55871428Y-67155146D01*
X55128571Y-67526574D02*
X55561904Y-66226574D01*
X55561904Y-66226574D02*
X55995238Y-67526574D01*
X56676190Y-66226574D02*
X56923809Y-66226574D01*
X56923809Y-66226574D02*
X57047619Y-66288479D01*
X57047619Y-66288479D02*
X57171428Y-66412289D01*
X57171428Y-66412289D02*
X57233333Y-66659908D01*
X57233333Y-66659908D02*
X57233333Y-67093241D01*
X57233333Y-67093241D02*
X57171428Y-67340860D01*
X57171428Y-67340860D02*
X57047619Y-67464670D01*
X57047619Y-67464670D02*
X56923809Y-67526574D01*
X56923809Y-67526574D02*
X56676190Y-67526574D01*
X56676190Y-67526574D02*
X56552381Y-67464670D01*
X56552381Y-67464670D02*
X56428571Y-67340860D01*
X56428571Y-67340860D02*
X56366667Y-67093241D01*
X56366667Y-67093241D02*
X56366667Y-66659908D01*
X56366667Y-66659908D02*
X56428571Y-66412289D01*
X56428571Y-66412289D02*
X56552381Y-66288479D01*
X56552381Y-66288479D02*
X56676190Y-66226574D01*
D11*
X58051428Y-59010000D02*
X57718095Y-58533809D01*
X57480000Y-59010000D02*
X57480000Y-58010000D01*
X57480000Y-58010000D02*
X57860952Y-58010000D01*
X57860952Y-58010000D02*
X57956190Y-58057619D01*
X57956190Y-58057619D02*
X58003809Y-58105238D01*
X58003809Y-58105238D02*
X58051428Y-58200476D01*
X58051428Y-58200476D02*
X58051428Y-58343333D01*
X58051428Y-58343333D02*
X58003809Y-58438571D01*
X58003809Y-58438571D02*
X57956190Y-58486190D01*
X57956190Y-58486190D02*
X57860952Y-58533809D01*
X57860952Y-58533809D02*
X57480000Y-58533809D01*
X58432381Y-58105238D02*
X58480000Y-58057619D01*
X58480000Y-58057619D02*
X58575238Y-58010000D01*
X58575238Y-58010000D02*
X58813333Y-58010000D01*
X58813333Y-58010000D02*
X58908571Y-58057619D01*
X58908571Y-58057619D02*
X58956190Y-58105238D01*
X58956190Y-58105238D02*
X59003809Y-58200476D01*
X59003809Y-58200476D02*
X59003809Y-58295714D01*
X59003809Y-58295714D02*
X58956190Y-58438571D01*
X58956190Y-58438571D02*
X58384762Y-59010000D01*
X58384762Y-59010000D02*
X59003809Y-59010000D01*
X59622857Y-58010000D02*
X59718095Y-58010000D01*
X59718095Y-58010000D02*
X59813333Y-58057619D01*
X59813333Y-58057619D02*
X59860952Y-58105238D01*
X59860952Y-58105238D02*
X59908571Y-58200476D01*
X59908571Y-58200476D02*
X59956190Y-58390952D01*
X59956190Y-58390952D02*
X59956190Y-58629047D01*
X59956190Y-58629047D02*
X59908571Y-58819523D01*
X59908571Y-58819523D02*
X59860952Y-58914761D01*
X59860952Y-58914761D02*
X59813333Y-58962381D01*
X59813333Y-58962381D02*
X59718095Y-59010000D01*
X59718095Y-59010000D02*
X59622857Y-59010000D01*
X59622857Y-59010000D02*
X59527619Y-58962381D01*
X59527619Y-58962381D02*
X59480000Y-58914761D01*
X59480000Y-58914761D02*
X59432381Y-58819523D01*
X59432381Y-58819523D02*
X59384762Y-58629047D01*
X59384762Y-58629047D02*
X59384762Y-58390952D01*
X59384762Y-58390952D02*
X59432381Y-58200476D01*
X59432381Y-58200476D02*
X59480000Y-58105238D01*
X59480000Y-58105238D02*
X59527619Y-58057619D01*
X59527619Y-58057619D02*
X59622857Y-58010000D01*
X60860952Y-58010000D02*
X60384762Y-58010000D01*
X60384762Y-58010000D02*
X60337143Y-58486190D01*
X60337143Y-58486190D02*
X60384762Y-58438571D01*
X60384762Y-58438571D02*
X60480000Y-58390952D01*
X60480000Y-58390952D02*
X60718095Y-58390952D01*
X60718095Y-58390952D02*
X60813333Y-58438571D01*
X60813333Y-58438571D02*
X60860952Y-58486190D01*
X60860952Y-58486190D02*
X60908571Y-58581428D01*
X60908571Y-58581428D02*
X60908571Y-58819523D01*
X60908571Y-58819523D02*
X60860952Y-58914761D01*
X60860952Y-58914761D02*
X60813333Y-58962381D01*
X60813333Y-58962381D02*
X60718095Y-59010000D01*
X60718095Y-59010000D02*
X60480000Y-59010000D01*
X60480000Y-59010000D02*
X60384762Y-58962381D01*
X60384762Y-58962381D02*
X60337143Y-58914761D01*
X33000000Y-55750000D02*
X32000000Y-55750000D01*
X32000000Y-55750000D02*
X32000000Y-55511905D01*
X32000000Y-55511905D02*
X32047619Y-55369048D01*
X32047619Y-55369048D02*
X32142857Y-55273810D01*
X32142857Y-55273810D02*
X32238095Y-55226191D01*
X32238095Y-55226191D02*
X32428571Y-55178572D01*
X32428571Y-55178572D02*
X32571428Y-55178572D01*
X32571428Y-55178572D02*
X32761904Y-55226191D01*
X32761904Y-55226191D02*
X32857142Y-55273810D01*
X32857142Y-55273810D02*
X32952381Y-55369048D01*
X32952381Y-55369048D02*
X33000000Y-55511905D01*
X33000000Y-55511905D02*
X33000000Y-55750000D01*
X32000000Y-54845238D02*
X32000000Y-54226191D01*
X32000000Y-54226191D02*
X32380952Y-54559524D01*
X32380952Y-54559524D02*
X32380952Y-54416667D01*
X32380952Y-54416667D02*
X32428571Y-54321429D01*
X32428571Y-54321429D02*
X32476190Y-54273810D01*
X32476190Y-54273810D02*
X32571428Y-54226191D01*
X32571428Y-54226191D02*
X32809523Y-54226191D01*
X32809523Y-54226191D02*
X32904761Y-54273810D01*
X32904761Y-54273810D02*
X32952381Y-54321429D01*
X32952381Y-54321429D02*
X33000000Y-54416667D01*
X33000000Y-54416667D02*
X33000000Y-54702381D01*
X33000000Y-54702381D02*
X32952381Y-54797619D01*
X32952381Y-54797619D02*
X32904761Y-54845238D01*
X32000000Y-53607143D02*
X32000000Y-53511905D01*
X32000000Y-53511905D02*
X32047619Y-53416667D01*
X32047619Y-53416667D02*
X32095238Y-53369048D01*
X32095238Y-53369048D02*
X32190476Y-53321429D01*
X32190476Y-53321429D02*
X32380952Y-53273810D01*
X32380952Y-53273810D02*
X32619047Y-53273810D01*
X32619047Y-53273810D02*
X32809523Y-53321429D01*
X32809523Y-53321429D02*
X32904761Y-53369048D01*
X32904761Y-53369048D02*
X32952381Y-53416667D01*
X32952381Y-53416667D02*
X33000000Y-53511905D01*
X33000000Y-53511905D02*
X33000000Y-53607143D01*
X33000000Y-53607143D02*
X32952381Y-53702381D01*
X32952381Y-53702381D02*
X32904761Y-53750000D01*
X32904761Y-53750000D02*
X32809523Y-53797619D01*
X32809523Y-53797619D02*
X32619047Y-53845238D01*
X32619047Y-53845238D02*
X32380952Y-53845238D01*
X32380952Y-53845238D02*
X32190476Y-53797619D01*
X32190476Y-53797619D02*
X32095238Y-53750000D01*
X32095238Y-53750000D02*
X32047619Y-53702381D01*
X32047619Y-53702381D02*
X32000000Y-53607143D01*
X32000000Y-52940476D02*
X32000000Y-52321429D01*
X32000000Y-52321429D02*
X32380952Y-52654762D01*
X32380952Y-52654762D02*
X32380952Y-52511905D01*
X32380952Y-52511905D02*
X32428571Y-52416667D01*
X32428571Y-52416667D02*
X32476190Y-52369048D01*
X32476190Y-52369048D02*
X32571428Y-52321429D01*
X32571428Y-52321429D02*
X32809523Y-52321429D01*
X32809523Y-52321429D02*
X32904761Y-52369048D01*
X32904761Y-52369048D02*
X32952381Y-52416667D01*
X32952381Y-52416667D02*
X33000000Y-52511905D01*
X33000000Y-52511905D02*
X33000000Y-52797619D01*
X33000000Y-52797619D02*
X32952381Y-52892857D01*
X32952381Y-52892857D02*
X32904761Y-52940476D01*
X70380952Y-58984761D02*
X70333333Y-59032381D01*
X70333333Y-59032381D02*
X70190476Y-59080000D01*
X70190476Y-59080000D02*
X70095238Y-59080000D01*
X70095238Y-59080000D02*
X69952381Y-59032381D01*
X69952381Y-59032381D02*
X69857143Y-58937142D01*
X69857143Y-58937142D02*
X69809524Y-58841904D01*
X69809524Y-58841904D02*
X69761905Y-58651428D01*
X69761905Y-58651428D02*
X69761905Y-58508571D01*
X69761905Y-58508571D02*
X69809524Y-58318095D01*
X69809524Y-58318095D02*
X69857143Y-58222857D01*
X69857143Y-58222857D02*
X69952381Y-58127619D01*
X69952381Y-58127619D02*
X70095238Y-58080000D01*
X70095238Y-58080000D02*
X70190476Y-58080000D01*
X70190476Y-58080000D02*
X70333333Y-58127619D01*
X70333333Y-58127619D02*
X70380952Y-58175238D01*
X71285714Y-58080000D02*
X70809524Y-58080000D01*
X70809524Y-58080000D02*
X70761905Y-58556190D01*
X70761905Y-58556190D02*
X70809524Y-58508571D01*
X70809524Y-58508571D02*
X70904762Y-58460952D01*
X70904762Y-58460952D02*
X71142857Y-58460952D01*
X71142857Y-58460952D02*
X71238095Y-58508571D01*
X71238095Y-58508571D02*
X71285714Y-58556190D01*
X71285714Y-58556190D02*
X71333333Y-58651428D01*
X71333333Y-58651428D02*
X71333333Y-58889523D01*
X71333333Y-58889523D02*
X71285714Y-58984761D01*
X71285714Y-58984761D02*
X71238095Y-59032381D01*
X71238095Y-59032381D02*
X71142857Y-59080000D01*
X71142857Y-59080000D02*
X70904762Y-59080000D01*
X70904762Y-59080000D02*
X70809524Y-59032381D01*
X70809524Y-59032381D02*
X70761905Y-58984761D01*
X71952381Y-58080000D02*
X72047619Y-58080000D01*
X72047619Y-58080000D02*
X72142857Y-58127619D01*
X72142857Y-58127619D02*
X72190476Y-58175238D01*
X72190476Y-58175238D02*
X72238095Y-58270476D01*
X72238095Y-58270476D02*
X72285714Y-58460952D01*
X72285714Y-58460952D02*
X72285714Y-58699047D01*
X72285714Y-58699047D02*
X72238095Y-58889523D01*
X72238095Y-58889523D02*
X72190476Y-58984761D01*
X72190476Y-58984761D02*
X72142857Y-59032381D01*
X72142857Y-59032381D02*
X72047619Y-59080000D01*
X72047619Y-59080000D02*
X71952381Y-59080000D01*
X71952381Y-59080000D02*
X71857143Y-59032381D01*
X71857143Y-59032381D02*
X71809524Y-58984761D01*
X71809524Y-58984761D02*
X71761905Y-58889523D01*
X71761905Y-58889523D02*
X71714286Y-58699047D01*
X71714286Y-58699047D02*
X71714286Y-58460952D01*
X71714286Y-58460952D02*
X71761905Y-58270476D01*
X71761905Y-58270476D02*
X71809524Y-58175238D01*
X71809524Y-58175238D02*
X71857143Y-58127619D01*
X71857143Y-58127619D02*
X71952381Y-58080000D01*
X73142857Y-58080000D02*
X72952381Y-58080000D01*
X72952381Y-58080000D02*
X72857143Y-58127619D01*
X72857143Y-58127619D02*
X72809524Y-58175238D01*
X72809524Y-58175238D02*
X72714286Y-58318095D01*
X72714286Y-58318095D02*
X72666667Y-58508571D01*
X72666667Y-58508571D02*
X72666667Y-58889523D01*
X72666667Y-58889523D02*
X72714286Y-58984761D01*
X72714286Y-58984761D02*
X72761905Y-59032381D01*
X72761905Y-59032381D02*
X72857143Y-59080000D01*
X72857143Y-59080000D02*
X73047619Y-59080000D01*
X73047619Y-59080000D02*
X73142857Y-59032381D01*
X73142857Y-59032381D02*
X73190476Y-58984761D01*
X73190476Y-58984761D02*
X73238095Y-58889523D01*
X73238095Y-58889523D02*
X73238095Y-58651428D01*
X73238095Y-58651428D02*
X73190476Y-58556190D01*
X73190476Y-58556190D02*
X73142857Y-58508571D01*
X73142857Y-58508571D02*
X73047619Y-58460952D01*
X73047619Y-58460952D02*
X72857143Y-58460952D01*
X72857143Y-58460952D02*
X72761905Y-58508571D01*
X72761905Y-58508571D02*
X72714286Y-58556190D01*
X72714286Y-58556190D02*
X72666667Y-58651428D01*
X40980952Y-49500000D02*
X40980952Y-50214285D01*
X40980952Y-50214285D02*
X40933333Y-50357142D01*
X40933333Y-50357142D02*
X40838095Y-50452381D01*
X40838095Y-50452381D02*
X40695238Y-50500000D01*
X40695238Y-50500000D02*
X40600000Y-50500000D01*
X41361905Y-49500000D02*
X41980952Y-49500000D01*
X41980952Y-49500000D02*
X41647619Y-49880952D01*
X41647619Y-49880952D02*
X41790476Y-49880952D01*
X41790476Y-49880952D02*
X41885714Y-49928571D01*
X41885714Y-49928571D02*
X41933333Y-49976190D01*
X41933333Y-49976190D02*
X41980952Y-50071428D01*
X41980952Y-50071428D02*
X41980952Y-50309523D01*
X41980952Y-50309523D02*
X41933333Y-50404761D01*
X41933333Y-50404761D02*
X41885714Y-50452381D01*
X41885714Y-50452381D02*
X41790476Y-50500000D01*
X41790476Y-50500000D02*
X41504762Y-50500000D01*
X41504762Y-50500000D02*
X41409524Y-50452381D01*
X41409524Y-50452381D02*
X41361905Y-50404761D01*
X42600000Y-49500000D02*
X42695238Y-49500000D01*
X42695238Y-49500000D02*
X42790476Y-49547619D01*
X42790476Y-49547619D02*
X42838095Y-49595238D01*
X42838095Y-49595238D02*
X42885714Y-49690476D01*
X42885714Y-49690476D02*
X42933333Y-49880952D01*
X42933333Y-49880952D02*
X42933333Y-50119047D01*
X42933333Y-50119047D02*
X42885714Y-50309523D01*
X42885714Y-50309523D02*
X42838095Y-50404761D01*
X42838095Y-50404761D02*
X42790476Y-50452381D01*
X42790476Y-50452381D02*
X42695238Y-50500000D01*
X42695238Y-50500000D02*
X42600000Y-50500000D01*
X42600000Y-50500000D02*
X42504762Y-50452381D01*
X42504762Y-50452381D02*
X42457143Y-50404761D01*
X42457143Y-50404761D02*
X42409524Y-50309523D01*
X42409524Y-50309523D02*
X42361905Y-50119047D01*
X42361905Y-50119047D02*
X42361905Y-49880952D01*
X42361905Y-49880952D02*
X42409524Y-49690476D01*
X42409524Y-49690476D02*
X42457143Y-49595238D01*
X42457143Y-49595238D02*
X42504762Y-49547619D01*
X42504762Y-49547619D02*
X42600000Y-49500000D01*
X43885714Y-50500000D02*
X43314286Y-50500000D01*
X43600000Y-50500000D02*
X43600000Y-49500000D01*
X43600000Y-49500000D02*
X43504762Y-49642857D01*
X43504762Y-49642857D02*
X43409524Y-49738095D01*
X43409524Y-49738095D02*
X43314286Y-49785714D01*
X41075504Y-37547499D02*
X41885027Y-37547499D01*
X41885027Y-37547499D02*
X41980265Y-37499880D01*
X41980265Y-37499880D02*
X42027885Y-37452261D01*
X42027885Y-37452261D02*
X42075504Y-37357023D01*
X42075504Y-37357023D02*
X42075504Y-37166547D01*
X42075504Y-37166547D02*
X42027885Y-37071309D01*
X42027885Y-37071309D02*
X41980265Y-37023690D01*
X41980265Y-37023690D02*
X41885027Y-36976071D01*
X41885027Y-36976071D02*
X41075504Y-36976071D01*
X41408837Y-36071309D02*
X42075504Y-36071309D01*
X41027885Y-36309404D02*
X41742170Y-36547499D01*
X41742170Y-36547499D02*
X41742170Y-35928452D01*
X41075504Y-35357023D02*
X41075504Y-35261785D01*
X41075504Y-35261785D02*
X41123123Y-35166547D01*
X41123123Y-35166547D02*
X41170742Y-35118928D01*
X41170742Y-35118928D02*
X41265980Y-35071309D01*
X41265980Y-35071309D02*
X41456456Y-35023690D01*
X41456456Y-35023690D02*
X41694551Y-35023690D01*
X41694551Y-35023690D02*
X41885027Y-35071309D01*
X41885027Y-35071309D02*
X41980265Y-35118928D01*
X41980265Y-35118928D02*
X42027885Y-35166547D01*
X42027885Y-35166547D02*
X42075504Y-35261785D01*
X42075504Y-35261785D02*
X42075504Y-35357023D01*
X42075504Y-35357023D02*
X42027885Y-35452261D01*
X42027885Y-35452261D02*
X41980265Y-35499880D01*
X41980265Y-35499880D02*
X41885027Y-35547499D01*
X41885027Y-35547499D02*
X41694551Y-35595118D01*
X41694551Y-35595118D02*
X41456456Y-35595118D01*
X41456456Y-35595118D02*
X41265980Y-35547499D01*
X41265980Y-35547499D02*
X41170742Y-35499880D01*
X41170742Y-35499880D02*
X41123123Y-35452261D01*
X41123123Y-35452261D02*
X41075504Y-35357023D01*
X41170742Y-34642737D02*
X41123123Y-34595118D01*
X41123123Y-34595118D02*
X41075504Y-34499880D01*
X41075504Y-34499880D02*
X41075504Y-34261785D01*
X41075504Y-34261785D02*
X41123123Y-34166547D01*
X41123123Y-34166547D02*
X41170742Y-34118928D01*
X41170742Y-34118928D02*
X41265980Y-34071309D01*
X41265980Y-34071309D02*
X41361218Y-34071309D01*
X41361218Y-34071309D02*
X41504075Y-34118928D01*
X41504075Y-34118928D02*
X42075504Y-34690356D01*
X42075504Y-34690356D02*
X42075504Y-34071309D01*
X44200000Y-40862500D02*
X44200000Y-41672023D01*
X44200000Y-41672023D02*
X44247619Y-41767261D01*
X44247619Y-41767261D02*
X44295238Y-41814881D01*
X44295238Y-41814881D02*
X44390476Y-41862500D01*
X44390476Y-41862500D02*
X44580952Y-41862500D01*
X44580952Y-41862500D02*
X44676190Y-41814881D01*
X44676190Y-41814881D02*
X44723809Y-41767261D01*
X44723809Y-41767261D02*
X44771428Y-41672023D01*
X44771428Y-41672023D02*
X44771428Y-40862500D01*
X45771428Y-41862500D02*
X45200000Y-41862500D01*
X45485714Y-41862500D02*
X45485714Y-40862500D01*
X45485714Y-40862500D02*
X45390476Y-41005357D01*
X45390476Y-41005357D02*
X45295238Y-41100595D01*
X45295238Y-41100595D02*
X45200000Y-41148214D01*
X46390476Y-40862500D02*
X46485714Y-40862500D01*
X46485714Y-40862500D02*
X46580952Y-40910119D01*
X46580952Y-40910119D02*
X46628571Y-40957738D01*
X46628571Y-40957738D02*
X46676190Y-41052976D01*
X46676190Y-41052976D02*
X46723809Y-41243452D01*
X46723809Y-41243452D02*
X46723809Y-41481547D01*
X46723809Y-41481547D02*
X46676190Y-41672023D01*
X46676190Y-41672023D02*
X46628571Y-41767261D01*
X46628571Y-41767261D02*
X46580952Y-41814881D01*
X46580952Y-41814881D02*
X46485714Y-41862500D01*
X46485714Y-41862500D02*
X46390476Y-41862500D01*
X46390476Y-41862500D02*
X46295238Y-41814881D01*
X46295238Y-41814881D02*
X46247619Y-41767261D01*
X46247619Y-41767261D02*
X46200000Y-41672023D01*
X46200000Y-41672023D02*
X46152381Y-41481547D01*
X46152381Y-41481547D02*
X46152381Y-41243452D01*
X46152381Y-41243452D02*
X46200000Y-41052976D01*
X46200000Y-41052976D02*
X46247619Y-40957738D01*
X46247619Y-40957738D02*
X46295238Y-40910119D01*
X46295238Y-40910119D02*
X46390476Y-40862500D01*
X47628571Y-40862500D02*
X47152381Y-40862500D01*
X47152381Y-40862500D02*
X47104762Y-41338690D01*
X47104762Y-41338690D02*
X47152381Y-41291071D01*
X47152381Y-41291071D02*
X47247619Y-41243452D01*
X47247619Y-41243452D02*
X47485714Y-41243452D01*
X47485714Y-41243452D02*
X47580952Y-41291071D01*
X47580952Y-41291071D02*
X47628571Y-41338690D01*
X47628571Y-41338690D02*
X47676190Y-41433928D01*
X47676190Y-41433928D02*
X47676190Y-41672023D01*
X47676190Y-41672023D02*
X47628571Y-41767261D01*
X47628571Y-41767261D02*
X47580952Y-41814881D01*
X47580952Y-41814881D02*
X47485714Y-41862500D01*
X47485714Y-41862500D02*
X47247619Y-41862500D01*
X47247619Y-41862500D02*
X47152381Y-41814881D01*
X47152381Y-41814881D02*
X47104762Y-41767261D01*
X65362857Y-56000000D02*
X65029524Y-55523809D01*
X64791429Y-56000000D02*
X64791429Y-55000000D01*
X64791429Y-55000000D02*
X65172381Y-55000000D01*
X65172381Y-55000000D02*
X65267619Y-55047619D01*
X65267619Y-55047619D02*
X65315238Y-55095238D01*
X65315238Y-55095238D02*
X65362857Y-55190476D01*
X65362857Y-55190476D02*
X65362857Y-55333333D01*
X65362857Y-55333333D02*
X65315238Y-55428571D01*
X65315238Y-55428571D02*
X65267619Y-55476190D01*
X65267619Y-55476190D02*
X65172381Y-55523809D01*
X65172381Y-55523809D02*
X64791429Y-55523809D01*
X66267619Y-55000000D02*
X65791429Y-55000000D01*
X65791429Y-55000000D02*
X65743810Y-55476190D01*
X65743810Y-55476190D02*
X65791429Y-55428571D01*
X65791429Y-55428571D02*
X65886667Y-55380952D01*
X65886667Y-55380952D02*
X66124762Y-55380952D01*
X66124762Y-55380952D02*
X66220000Y-55428571D01*
X66220000Y-55428571D02*
X66267619Y-55476190D01*
X66267619Y-55476190D02*
X66315238Y-55571428D01*
X66315238Y-55571428D02*
X66315238Y-55809523D01*
X66315238Y-55809523D02*
X66267619Y-55904761D01*
X66267619Y-55904761D02*
X66220000Y-55952381D01*
X66220000Y-55952381D02*
X66124762Y-56000000D01*
X66124762Y-56000000D02*
X65886667Y-56000000D01*
X65886667Y-56000000D02*
X65791429Y-55952381D01*
X65791429Y-55952381D02*
X65743810Y-55904761D01*
X66934286Y-55000000D02*
X67029524Y-55000000D01*
X67029524Y-55000000D02*
X67124762Y-55047619D01*
X67124762Y-55047619D02*
X67172381Y-55095238D01*
X67172381Y-55095238D02*
X67220000Y-55190476D01*
X67220000Y-55190476D02*
X67267619Y-55380952D01*
X67267619Y-55380952D02*
X67267619Y-55619047D01*
X67267619Y-55619047D02*
X67220000Y-55809523D01*
X67220000Y-55809523D02*
X67172381Y-55904761D01*
X67172381Y-55904761D02*
X67124762Y-55952381D01*
X67124762Y-55952381D02*
X67029524Y-56000000D01*
X67029524Y-56000000D02*
X66934286Y-56000000D01*
X66934286Y-56000000D02*
X66839048Y-55952381D01*
X66839048Y-55952381D02*
X66791429Y-55904761D01*
X66791429Y-55904761D02*
X66743810Y-55809523D01*
X66743810Y-55809523D02*
X66696191Y-55619047D01*
X66696191Y-55619047D02*
X66696191Y-55380952D01*
X66696191Y-55380952D02*
X66743810Y-55190476D01*
X66743810Y-55190476D02*
X66791429Y-55095238D01*
X66791429Y-55095238D02*
X66839048Y-55047619D01*
X66839048Y-55047619D02*
X66934286Y-55000000D01*
X68124762Y-55000000D02*
X67934286Y-55000000D01*
X67934286Y-55000000D02*
X67839048Y-55047619D01*
X67839048Y-55047619D02*
X67791429Y-55095238D01*
X67791429Y-55095238D02*
X67696191Y-55238095D01*
X67696191Y-55238095D02*
X67648572Y-55428571D01*
X67648572Y-55428571D02*
X67648572Y-55809523D01*
X67648572Y-55809523D02*
X67696191Y-55904761D01*
X67696191Y-55904761D02*
X67743810Y-55952381D01*
X67743810Y-55952381D02*
X67839048Y-56000000D01*
X67839048Y-56000000D02*
X68029524Y-56000000D01*
X68029524Y-56000000D02*
X68124762Y-55952381D01*
X68124762Y-55952381D02*
X68172381Y-55904761D01*
X68172381Y-55904761D02*
X68220000Y-55809523D01*
X68220000Y-55809523D02*
X68220000Y-55571428D01*
X68220000Y-55571428D02*
X68172381Y-55476190D01*
X68172381Y-55476190D02*
X68124762Y-55428571D01*
X68124762Y-55428571D02*
X68029524Y-55380952D01*
X68029524Y-55380952D02*
X67839048Y-55380952D01*
X67839048Y-55380952D02*
X67743810Y-55428571D01*
X67743810Y-55428571D02*
X67696191Y-55476190D01*
X67696191Y-55476190D02*
X67648572Y-55571428D01*
X26801767Y-57855120D02*
X27516052Y-57855120D01*
X27516052Y-57855120D02*
X27658909Y-57902739D01*
X27658909Y-57902739D02*
X27754148Y-57997977D01*
X27754148Y-57997977D02*
X27801767Y-58140834D01*
X27801767Y-58140834D02*
X27801767Y-58236072D01*
X26801767Y-57474167D02*
X26801767Y-56855120D01*
X26801767Y-56855120D02*
X27182719Y-57188453D01*
X27182719Y-57188453D02*
X27182719Y-57045596D01*
X27182719Y-57045596D02*
X27230338Y-56950358D01*
X27230338Y-56950358D02*
X27277957Y-56902739D01*
X27277957Y-56902739D02*
X27373195Y-56855120D01*
X27373195Y-56855120D02*
X27611290Y-56855120D01*
X27611290Y-56855120D02*
X27706528Y-56902739D01*
X27706528Y-56902739D02*
X27754148Y-56950358D01*
X27754148Y-56950358D02*
X27801767Y-57045596D01*
X27801767Y-57045596D02*
X27801767Y-57331310D01*
X27801767Y-57331310D02*
X27754148Y-57426548D01*
X27754148Y-57426548D02*
X27706528Y-57474167D01*
X26801767Y-56236072D02*
X26801767Y-56140834D01*
X26801767Y-56140834D02*
X26849386Y-56045596D01*
X26849386Y-56045596D02*
X26897005Y-55997977D01*
X26897005Y-55997977D02*
X26992243Y-55950358D01*
X26992243Y-55950358D02*
X27182719Y-55902739D01*
X27182719Y-55902739D02*
X27420814Y-55902739D01*
X27420814Y-55902739D02*
X27611290Y-55950358D01*
X27611290Y-55950358D02*
X27706528Y-55997977D01*
X27706528Y-55997977D02*
X27754148Y-56045596D01*
X27754148Y-56045596D02*
X27801767Y-56140834D01*
X27801767Y-56140834D02*
X27801767Y-56236072D01*
X27801767Y-56236072D02*
X27754148Y-56331310D01*
X27754148Y-56331310D02*
X27706528Y-56378929D01*
X27706528Y-56378929D02*
X27611290Y-56426548D01*
X27611290Y-56426548D02*
X27420814Y-56474167D01*
X27420814Y-56474167D02*
X27182719Y-56474167D01*
X27182719Y-56474167D02*
X26992243Y-56426548D01*
X26992243Y-56426548D02*
X26897005Y-56378929D01*
X26897005Y-56378929D02*
X26849386Y-56331310D01*
X26849386Y-56331310D02*
X26801767Y-56236072D01*
X26897005Y-55521786D02*
X26849386Y-55474167D01*
X26849386Y-55474167D02*
X26801767Y-55378929D01*
X26801767Y-55378929D02*
X26801767Y-55140834D01*
X26801767Y-55140834D02*
X26849386Y-55045596D01*
X26849386Y-55045596D02*
X26897005Y-54997977D01*
X26897005Y-54997977D02*
X26992243Y-54950358D01*
X26992243Y-54950358D02*
X27087481Y-54950358D01*
X27087481Y-54950358D02*
X27230338Y-54997977D01*
X27230338Y-54997977D02*
X27801767Y-55569405D01*
X27801767Y-55569405D02*
X27801767Y-54950358D01*
X27223584Y-51416666D02*
X27223584Y-51083333D01*
X27747394Y-50940476D02*
X27747394Y-51416666D01*
X27747394Y-51416666D02*
X26747394Y-51416666D01*
X26747394Y-51416666D02*
X26747394Y-50940476D01*
X26747394Y-50607142D02*
X26747394Y-49988095D01*
X26747394Y-49988095D02*
X27128346Y-50321428D01*
X27128346Y-50321428D02*
X27128346Y-50178571D01*
X27128346Y-50178571D02*
X27175965Y-50083333D01*
X27175965Y-50083333D02*
X27223584Y-50035714D01*
X27223584Y-50035714D02*
X27318822Y-49988095D01*
X27318822Y-49988095D02*
X27556917Y-49988095D01*
X27556917Y-49988095D02*
X27652155Y-50035714D01*
X27652155Y-50035714D02*
X27699775Y-50083333D01*
X27699775Y-50083333D02*
X27747394Y-50178571D01*
X27747394Y-50178571D02*
X27747394Y-50464285D01*
X27747394Y-50464285D02*
X27699775Y-50559523D01*
X27699775Y-50559523D02*
X27652155Y-50607142D01*
X26747394Y-49369047D02*
X26747394Y-49273809D01*
X26747394Y-49273809D02*
X26795013Y-49178571D01*
X26795013Y-49178571D02*
X26842632Y-49130952D01*
X26842632Y-49130952D02*
X26937870Y-49083333D01*
X26937870Y-49083333D02*
X27128346Y-49035714D01*
X27128346Y-49035714D02*
X27366441Y-49035714D01*
X27366441Y-49035714D02*
X27556917Y-49083333D01*
X27556917Y-49083333D02*
X27652155Y-49130952D01*
X27652155Y-49130952D02*
X27699775Y-49178571D01*
X27699775Y-49178571D02*
X27747394Y-49273809D01*
X27747394Y-49273809D02*
X27747394Y-49369047D01*
X27747394Y-49369047D02*
X27699775Y-49464285D01*
X27699775Y-49464285D02*
X27652155Y-49511904D01*
X27652155Y-49511904D02*
X27556917Y-49559523D01*
X27556917Y-49559523D02*
X27366441Y-49607142D01*
X27366441Y-49607142D02*
X27128346Y-49607142D01*
X27128346Y-49607142D02*
X26937870Y-49559523D01*
X26937870Y-49559523D02*
X26842632Y-49511904D01*
X26842632Y-49511904D02*
X26795013Y-49464285D01*
X26795013Y-49464285D02*
X26747394Y-49369047D01*
X27747394Y-48083333D02*
X27747394Y-48654761D01*
X27747394Y-48369047D02*
X26747394Y-48369047D01*
X26747394Y-48369047D02*
X26890251Y-48464285D01*
X26890251Y-48464285D02*
X26985489Y-48559523D01*
X26985489Y-48559523D02*
X27033108Y-48654761D01*
X47714286Y-44002381D02*
X47857143Y-44050000D01*
X47857143Y-44050000D02*
X48095238Y-44050000D01*
X48095238Y-44050000D02*
X48190476Y-44002381D01*
X48190476Y-44002381D02*
X48238095Y-43954761D01*
X48238095Y-43954761D02*
X48285714Y-43859523D01*
X48285714Y-43859523D02*
X48285714Y-43764285D01*
X48285714Y-43764285D02*
X48238095Y-43669047D01*
X48238095Y-43669047D02*
X48190476Y-43621428D01*
X48190476Y-43621428D02*
X48095238Y-43573809D01*
X48095238Y-43573809D02*
X47904762Y-43526190D01*
X47904762Y-43526190D02*
X47809524Y-43478571D01*
X47809524Y-43478571D02*
X47761905Y-43430952D01*
X47761905Y-43430952D02*
X47714286Y-43335714D01*
X47714286Y-43335714D02*
X47714286Y-43240476D01*
X47714286Y-43240476D02*
X47761905Y-43145238D01*
X47761905Y-43145238D02*
X47809524Y-43097619D01*
X47809524Y-43097619D02*
X47904762Y-43050000D01*
X47904762Y-43050000D02*
X48142857Y-43050000D01*
X48142857Y-43050000D02*
X48285714Y-43097619D01*
X48619048Y-43050000D02*
X48857143Y-44050000D01*
X48857143Y-44050000D02*
X49047619Y-43335714D01*
X49047619Y-43335714D02*
X49238095Y-44050000D01*
X49238095Y-44050000D02*
X49476191Y-43050000D01*
X49761905Y-43050000D02*
X50380952Y-43050000D01*
X50380952Y-43050000D02*
X50047619Y-43430952D01*
X50047619Y-43430952D02*
X50190476Y-43430952D01*
X50190476Y-43430952D02*
X50285714Y-43478571D01*
X50285714Y-43478571D02*
X50333333Y-43526190D01*
X50333333Y-43526190D02*
X50380952Y-43621428D01*
X50380952Y-43621428D02*
X50380952Y-43859523D01*
X50380952Y-43859523D02*
X50333333Y-43954761D01*
X50333333Y-43954761D02*
X50285714Y-44002381D01*
X50285714Y-44002381D02*
X50190476Y-44050000D01*
X50190476Y-44050000D02*
X49904762Y-44050000D01*
X49904762Y-44050000D02*
X49809524Y-44002381D01*
X49809524Y-44002381D02*
X49761905Y-43954761D01*
X51000000Y-43050000D02*
X51095238Y-43050000D01*
X51095238Y-43050000D02*
X51190476Y-43097619D01*
X51190476Y-43097619D02*
X51238095Y-43145238D01*
X51238095Y-43145238D02*
X51285714Y-43240476D01*
X51285714Y-43240476D02*
X51333333Y-43430952D01*
X51333333Y-43430952D02*
X51333333Y-43669047D01*
X51333333Y-43669047D02*
X51285714Y-43859523D01*
X51285714Y-43859523D02*
X51238095Y-43954761D01*
X51238095Y-43954761D02*
X51190476Y-44002381D01*
X51190476Y-44002381D02*
X51095238Y-44050000D01*
X51095238Y-44050000D02*
X51000000Y-44050000D01*
X51000000Y-44050000D02*
X50904762Y-44002381D01*
X50904762Y-44002381D02*
X50857143Y-43954761D01*
X50857143Y-43954761D02*
X50809524Y-43859523D01*
X50809524Y-43859523D02*
X50761905Y-43669047D01*
X50761905Y-43669047D02*
X50761905Y-43430952D01*
X50761905Y-43430952D02*
X50809524Y-43240476D01*
X50809524Y-43240476D02*
X50857143Y-43145238D01*
X50857143Y-43145238D02*
X50904762Y-43097619D01*
X50904762Y-43097619D02*
X51000000Y-43050000D01*
X52285714Y-44050000D02*
X51714286Y-44050000D01*
X52000000Y-44050000D02*
X52000000Y-43050000D01*
X52000000Y-43050000D02*
X51904762Y-43192857D01*
X51904762Y-43192857D02*
X51809524Y-43288095D01*
X51809524Y-43288095D02*
X51714286Y-43335714D01*
X70400000Y-45250000D02*
X71209523Y-45250000D01*
X71209523Y-45250000D02*
X71304761Y-45202381D01*
X71304761Y-45202381D02*
X71352381Y-45154762D01*
X71352381Y-45154762D02*
X71400000Y-45059524D01*
X71400000Y-45059524D02*
X71400000Y-44869048D01*
X71400000Y-44869048D02*
X71352381Y-44773810D01*
X71352381Y-44773810D02*
X71304761Y-44726191D01*
X71304761Y-44726191D02*
X71209523Y-44678572D01*
X71209523Y-44678572D02*
X70400000Y-44678572D01*
X70400000Y-43726191D02*
X70400000Y-44202381D01*
X70400000Y-44202381D02*
X70876190Y-44250000D01*
X70876190Y-44250000D02*
X70828571Y-44202381D01*
X70828571Y-44202381D02*
X70780952Y-44107143D01*
X70780952Y-44107143D02*
X70780952Y-43869048D01*
X70780952Y-43869048D02*
X70828571Y-43773810D01*
X70828571Y-43773810D02*
X70876190Y-43726191D01*
X70876190Y-43726191D02*
X70971428Y-43678572D01*
X70971428Y-43678572D02*
X71209523Y-43678572D01*
X71209523Y-43678572D02*
X71304761Y-43726191D01*
X71304761Y-43726191D02*
X71352381Y-43773810D01*
X71352381Y-43773810D02*
X71400000Y-43869048D01*
X71400000Y-43869048D02*
X71400000Y-44107143D01*
X71400000Y-44107143D02*
X71352381Y-44202381D01*
X71352381Y-44202381D02*
X71304761Y-44250000D01*
X70400000Y-43059524D02*
X70400000Y-42964286D01*
X70400000Y-42964286D02*
X70447619Y-42869048D01*
X70447619Y-42869048D02*
X70495238Y-42821429D01*
X70495238Y-42821429D02*
X70590476Y-42773810D01*
X70590476Y-42773810D02*
X70780952Y-42726191D01*
X70780952Y-42726191D02*
X71019047Y-42726191D01*
X71019047Y-42726191D02*
X71209523Y-42773810D01*
X71209523Y-42773810D02*
X71304761Y-42821429D01*
X71304761Y-42821429D02*
X71352381Y-42869048D01*
X71352381Y-42869048D02*
X71400000Y-42964286D01*
X71400000Y-42964286D02*
X71400000Y-43059524D01*
X71400000Y-43059524D02*
X71352381Y-43154762D01*
X71352381Y-43154762D02*
X71304761Y-43202381D01*
X71304761Y-43202381D02*
X71209523Y-43250000D01*
X71209523Y-43250000D02*
X71019047Y-43297619D01*
X71019047Y-43297619D02*
X70780952Y-43297619D01*
X70780952Y-43297619D02*
X70590476Y-43250000D01*
X70590476Y-43250000D02*
X70495238Y-43202381D01*
X70495238Y-43202381D02*
X70447619Y-43154762D01*
X70447619Y-43154762D02*
X70400000Y-43059524D01*
X70400000Y-42392857D02*
X70400000Y-41773810D01*
X70400000Y-41773810D02*
X70780952Y-42107143D01*
X70780952Y-42107143D02*
X70780952Y-41964286D01*
X70780952Y-41964286D02*
X70828571Y-41869048D01*
X70828571Y-41869048D02*
X70876190Y-41821429D01*
X70876190Y-41821429D02*
X70971428Y-41773810D01*
X70971428Y-41773810D02*
X71209523Y-41773810D01*
X71209523Y-41773810D02*
X71304761Y-41821429D01*
X71304761Y-41821429D02*
X71352381Y-41869048D01*
X71352381Y-41869048D02*
X71400000Y-41964286D01*
X71400000Y-41964286D02*
X71400000Y-42250000D01*
X71400000Y-42250000D02*
X71352381Y-42345238D01*
X71352381Y-42345238D02*
X71304761Y-42392857D01*
X44975238Y-58047619D02*
X44927619Y-58142857D01*
X44927619Y-58142857D02*
X44832381Y-58238095D01*
X44832381Y-58238095D02*
X44689523Y-58380952D01*
X44689523Y-58380952D02*
X44641904Y-58476190D01*
X44641904Y-58476190D02*
X44641904Y-58571428D01*
X44880000Y-58523809D02*
X44832381Y-58619047D01*
X44832381Y-58619047D02*
X44737142Y-58714285D01*
X44737142Y-58714285D02*
X44546666Y-58761904D01*
X44546666Y-58761904D02*
X44213333Y-58761904D01*
X44213333Y-58761904D02*
X44022857Y-58714285D01*
X44022857Y-58714285D02*
X43927619Y-58619047D01*
X43927619Y-58619047D02*
X43880000Y-58523809D01*
X43880000Y-58523809D02*
X43880000Y-58333333D01*
X43880000Y-58333333D02*
X43927619Y-58238095D01*
X43927619Y-58238095D02*
X44022857Y-58142857D01*
X44022857Y-58142857D02*
X44213333Y-58095238D01*
X44213333Y-58095238D02*
X44546666Y-58095238D01*
X44546666Y-58095238D02*
X44737142Y-58142857D01*
X44737142Y-58142857D02*
X44832381Y-58238095D01*
X44832381Y-58238095D02*
X44880000Y-58333333D01*
X44880000Y-58333333D02*
X44880000Y-58523809D01*
X43880000Y-57761904D02*
X43880000Y-57142857D01*
X43880000Y-57142857D02*
X44260952Y-57476190D01*
X44260952Y-57476190D02*
X44260952Y-57333333D01*
X44260952Y-57333333D02*
X44308571Y-57238095D01*
X44308571Y-57238095D02*
X44356190Y-57190476D01*
X44356190Y-57190476D02*
X44451428Y-57142857D01*
X44451428Y-57142857D02*
X44689523Y-57142857D01*
X44689523Y-57142857D02*
X44784761Y-57190476D01*
X44784761Y-57190476D02*
X44832381Y-57238095D01*
X44832381Y-57238095D02*
X44880000Y-57333333D01*
X44880000Y-57333333D02*
X44880000Y-57619047D01*
X44880000Y-57619047D02*
X44832381Y-57714285D01*
X44832381Y-57714285D02*
X44784761Y-57761904D01*
X43880000Y-56523809D02*
X43880000Y-56428571D01*
X43880000Y-56428571D02*
X43927619Y-56333333D01*
X43927619Y-56333333D02*
X43975238Y-56285714D01*
X43975238Y-56285714D02*
X44070476Y-56238095D01*
X44070476Y-56238095D02*
X44260952Y-56190476D01*
X44260952Y-56190476D02*
X44499047Y-56190476D01*
X44499047Y-56190476D02*
X44689523Y-56238095D01*
X44689523Y-56238095D02*
X44784761Y-56285714D01*
X44784761Y-56285714D02*
X44832381Y-56333333D01*
X44832381Y-56333333D02*
X44880000Y-56428571D01*
X44880000Y-56428571D02*
X44880000Y-56523809D01*
X44880000Y-56523809D02*
X44832381Y-56619047D01*
X44832381Y-56619047D02*
X44784761Y-56666666D01*
X44784761Y-56666666D02*
X44689523Y-56714285D01*
X44689523Y-56714285D02*
X44499047Y-56761904D01*
X44499047Y-56761904D02*
X44260952Y-56761904D01*
X44260952Y-56761904D02*
X44070476Y-56714285D01*
X44070476Y-56714285D02*
X43975238Y-56666666D01*
X43975238Y-56666666D02*
X43927619Y-56619047D01*
X43927619Y-56619047D02*
X43880000Y-56523809D01*
X44880000Y-55238095D02*
X44880000Y-55809523D01*
X44880000Y-55523809D02*
X43880000Y-55523809D01*
X43880000Y-55523809D02*
X44022857Y-55619047D01*
X44022857Y-55619047D02*
X44118095Y-55714285D01*
X44118095Y-55714285D02*
X44165714Y-55809523D01*
X54259697Y-30781833D02*
X54259697Y-31591356D01*
X54259697Y-31591356D02*
X54307316Y-31686594D01*
X54307316Y-31686594D02*
X54354935Y-31734214D01*
X54354935Y-31734214D02*
X54450173Y-31781833D01*
X54450173Y-31781833D02*
X54640649Y-31781833D01*
X54640649Y-31781833D02*
X54735887Y-31734214D01*
X54735887Y-31734214D02*
X54783506Y-31686594D01*
X54783506Y-31686594D02*
X54831125Y-31591356D01*
X54831125Y-31591356D02*
X54831125Y-30781833D01*
X55735887Y-31115166D02*
X55735887Y-31781833D01*
X55497792Y-30734214D02*
X55259697Y-31448499D01*
X55259697Y-31448499D02*
X55878744Y-31448499D01*
X56450173Y-30781833D02*
X56545411Y-30781833D01*
X56545411Y-30781833D02*
X56640649Y-30829452D01*
X56640649Y-30829452D02*
X56688268Y-30877071D01*
X56688268Y-30877071D02*
X56735887Y-30972309D01*
X56735887Y-30972309D02*
X56783506Y-31162785D01*
X56783506Y-31162785D02*
X56783506Y-31400880D01*
X56783506Y-31400880D02*
X56735887Y-31591356D01*
X56735887Y-31591356D02*
X56688268Y-31686594D01*
X56688268Y-31686594D02*
X56640649Y-31734214D01*
X56640649Y-31734214D02*
X56545411Y-31781833D01*
X56545411Y-31781833D02*
X56450173Y-31781833D01*
X56450173Y-31781833D02*
X56354935Y-31734214D01*
X56354935Y-31734214D02*
X56307316Y-31686594D01*
X56307316Y-31686594D02*
X56259697Y-31591356D01*
X56259697Y-31591356D02*
X56212078Y-31400880D01*
X56212078Y-31400880D02*
X56212078Y-31162785D01*
X56212078Y-31162785D02*
X56259697Y-30972309D01*
X56259697Y-30972309D02*
X56307316Y-30877071D01*
X56307316Y-30877071D02*
X56354935Y-30829452D01*
X56354935Y-30829452D02*
X56450173Y-30781833D01*
X57116840Y-30781833D02*
X57735887Y-30781833D01*
X57735887Y-30781833D02*
X57402554Y-31162785D01*
X57402554Y-31162785D02*
X57545411Y-31162785D01*
X57545411Y-31162785D02*
X57640649Y-31210404D01*
X57640649Y-31210404D02*
X57688268Y-31258023D01*
X57688268Y-31258023D02*
X57735887Y-31353261D01*
X57735887Y-31353261D02*
X57735887Y-31591356D01*
X57735887Y-31591356D02*
X57688268Y-31686594D01*
X57688268Y-31686594D02*
X57640649Y-31734214D01*
X57640649Y-31734214D02*
X57545411Y-31781833D01*
X57545411Y-31781833D02*
X57259697Y-31781833D01*
X57259697Y-31781833D02*
X57164459Y-31734214D01*
X57164459Y-31734214D02*
X57116840Y-31686594D01*
X51320000Y-33738095D02*
X52129523Y-33738095D01*
X52129523Y-33738095D02*
X52224761Y-33690476D01*
X52224761Y-33690476D02*
X52272381Y-33642857D01*
X52272381Y-33642857D02*
X52320000Y-33547619D01*
X52320000Y-33547619D02*
X52320000Y-33357143D01*
X52320000Y-33357143D02*
X52272381Y-33261905D01*
X52272381Y-33261905D02*
X52224761Y-33214286D01*
X52224761Y-33214286D02*
X52129523Y-33166667D01*
X52129523Y-33166667D02*
X51320000Y-33166667D01*
X52320000Y-32166667D02*
X52320000Y-32738095D01*
X52320000Y-32452381D02*
X51320000Y-32452381D01*
X51320000Y-32452381D02*
X51462857Y-32547619D01*
X51462857Y-32547619D02*
X51558095Y-32642857D01*
X51558095Y-32642857D02*
X51605714Y-32738095D01*
X51320000Y-31547619D02*
X51320000Y-31452381D01*
X51320000Y-31452381D02*
X51367619Y-31357143D01*
X51367619Y-31357143D02*
X51415238Y-31309524D01*
X51415238Y-31309524D02*
X51510476Y-31261905D01*
X51510476Y-31261905D02*
X51700952Y-31214286D01*
X51700952Y-31214286D02*
X51939047Y-31214286D01*
X51939047Y-31214286D02*
X52129523Y-31261905D01*
X52129523Y-31261905D02*
X52224761Y-31309524D01*
X52224761Y-31309524D02*
X52272381Y-31357143D01*
X52272381Y-31357143D02*
X52320000Y-31452381D01*
X52320000Y-31452381D02*
X52320000Y-31547619D01*
X52320000Y-31547619D02*
X52272381Y-31642857D01*
X52272381Y-31642857D02*
X52224761Y-31690476D01*
X52224761Y-31690476D02*
X52129523Y-31738095D01*
X52129523Y-31738095D02*
X51939047Y-31785714D01*
X51939047Y-31785714D02*
X51700952Y-31785714D01*
X51700952Y-31785714D02*
X51510476Y-31738095D01*
X51510476Y-31738095D02*
X51415238Y-31690476D01*
X51415238Y-31690476D02*
X51367619Y-31642857D01*
X51367619Y-31642857D02*
X51320000Y-31547619D01*
X52320000Y-30261905D02*
X52320000Y-30833333D01*
X52320000Y-30547619D02*
X51320000Y-30547619D01*
X51320000Y-30547619D02*
X51462857Y-30642857D01*
X51462857Y-30642857D02*
X51558095Y-30738095D01*
X51558095Y-30738095D02*
X51605714Y-30833333D01*
X66028782Y-64959000D02*
X66028782Y-65768523D01*
X66028782Y-65768523D02*
X66076401Y-65863761D01*
X66076401Y-65863761D02*
X66124020Y-65911381D01*
X66124020Y-65911381D02*
X66219258Y-65959000D01*
X66219258Y-65959000D02*
X66409734Y-65959000D01*
X66409734Y-65959000D02*
X66504972Y-65911381D01*
X66504972Y-65911381D02*
X66552591Y-65863761D01*
X66552591Y-65863761D02*
X66600210Y-65768523D01*
X66600210Y-65768523D02*
X66600210Y-64959000D01*
X66981163Y-64959000D02*
X67600210Y-64959000D01*
X67600210Y-64959000D02*
X67266877Y-65339952D01*
X67266877Y-65339952D02*
X67409734Y-65339952D01*
X67409734Y-65339952D02*
X67504972Y-65387571D01*
X67504972Y-65387571D02*
X67552591Y-65435190D01*
X67552591Y-65435190D02*
X67600210Y-65530428D01*
X67600210Y-65530428D02*
X67600210Y-65768523D01*
X67600210Y-65768523D02*
X67552591Y-65863761D01*
X67552591Y-65863761D02*
X67504972Y-65911381D01*
X67504972Y-65911381D02*
X67409734Y-65959000D01*
X67409734Y-65959000D02*
X67124020Y-65959000D01*
X67124020Y-65959000D02*
X67028782Y-65911381D01*
X67028782Y-65911381D02*
X66981163Y-65863761D01*
X68219258Y-64959000D02*
X68314496Y-64959000D01*
X68314496Y-64959000D02*
X68409734Y-65006619D01*
X68409734Y-65006619D02*
X68457353Y-65054238D01*
X68457353Y-65054238D02*
X68504972Y-65149476D01*
X68504972Y-65149476D02*
X68552591Y-65339952D01*
X68552591Y-65339952D02*
X68552591Y-65578047D01*
X68552591Y-65578047D02*
X68504972Y-65768523D01*
X68504972Y-65768523D02*
X68457353Y-65863761D01*
X68457353Y-65863761D02*
X68409734Y-65911381D01*
X68409734Y-65911381D02*
X68314496Y-65959000D01*
X68314496Y-65959000D02*
X68219258Y-65959000D01*
X68219258Y-65959000D02*
X68124020Y-65911381D01*
X68124020Y-65911381D02*
X68076401Y-65863761D01*
X68076401Y-65863761D02*
X68028782Y-65768523D01*
X68028782Y-65768523D02*
X67981163Y-65578047D01*
X67981163Y-65578047D02*
X67981163Y-65339952D01*
X67981163Y-65339952D02*
X68028782Y-65149476D01*
X68028782Y-65149476D02*
X68076401Y-65054238D01*
X68076401Y-65054238D02*
X68124020Y-65006619D01*
X68124020Y-65006619D02*
X68219258Y-64959000D01*
X68933544Y-65054238D02*
X68981163Y-65006619D01*
X68981163Y-65006619D02*
X69076401Y-64959000D01*
X69076401Y-64959000D02*
X69314496Y-64959000D01*
X69314496Y-64959000D02*
X69409734Y-65006619D01*
X69409734Y-65006619D02*
X69457353Y-65054238D01*
X69457353Y-65054238D02*
X69504972Y-65149476D01*
X69504972Y-65149476D02*
X69504972Y-65244714D01*
X69504972Y-65244714D02*
X69457353Y-65387571D01*
X69457353Y-65387571D02*
X68885925Y-65959000D01*
X68885925Y-65959000D02*
X69504972Y-65959000D01*
X67750000Y-47898572D02*
X67273809Y-48231905D01*
X67750000Y-48470000D02*
X66750000Y-48470000D01*
X66750000Y-48470000D02*
X66750000Y-48089048D01*
X66750000Y-48089048D02*
X66797619Y-47993810D01*
X66797619Y-47993810D02*
X66845238Y-47946191D01*
X66845238Y-47946191D02*
X66940476Y-47898572D01*
X66940476Y-47898572D02*
X67083333Y-47898572D01*
X67083333Y-47898572D02*
X67178571Y-47946191D01*
X67178571Y-47946191D02*
X67226190Y-47993810D01*
X67226190Y-47993810D02*
X67273809Y-48089048D01*
X67273809Y-48089048D02*
X67273809Y-48470000D01*
X66750000Y-46993810D02*
X66750000Y-47470000D01*
X66750000Y-47470000D02*
X67226190Y-47517619D01*
X67226190Y-47517619D02*
X67178571Y-47470000D01*
X67178571Y-47470000D02*
X67130952Y-47374762D01*
X67130952Y-47374762D02*
X67130952Y-47136667D01*
X67130952Y-47136667D02*
X67178571Y-47041429D01*
X67178571Y-47041429D02*
X67226190Y-46993810D01*
X67226190Y-46993810D02*
X67321428Y-46946191D01*
X67321428Y-46946191D02*
X67559523Y-46946191D01*
X67559523Y-46946191D02*
X67654761Y-46993810D01*
X67654761Y-46993810D02*
X67702381Y-47041429D01*
X67702381Y-47041429D02*
X67750000Y-47136667D01*
X67750000Y-47136667D02*
X67750000Y-47374762D01*
X67750000Y-47374762D02*
X67702381Y-47470000D01*
X67702381Y-47470000D02*
X67654761Y-47517619D01*
X66750000Y-46327143D02*
X66750000Y-46231905D01*
X66750000Y-46231905D02*
X66797619Y-46136667D01*
X66797619Y-46136667D02*
X66845238Y-46089048D01*
X66845238Y-46089048D02*
X66940476Y-46041429D01*
X66940476Y-46041429D02*
X67130952Y-45993810D01*
X67130952Y-45993810D02*
X67369047Y-45993810D01*
X67369047Y-45993810D02*
X67559523Y-46041429D01*
X67559523Y-46041429D02*
X67654761Y-46089048D01*
X67654761Y-46089048D02*
X67702381Y-46136667D01*
X67702381Y-46136667D02*
X67750000Y-46231905D01*
X67750000Y-46231905D02*
X67750000Y-46327143D01*
X67750000Y-46327143D02*
X67702381Y-46422381D01*
X67702381Y-46422381D02*
X67654761Y-46470000D01*
X67654761Y-46470000D02*
X67559523Y-46517619D01*
X67559523Y-46517619D02*
X67369047Y-46565238D01*
X67369047Y-46565238D02*
X67130952Y-46565238D01*
X67130952Y-46565238D02*
X66940476Y-46517619D01*
X66940476Y-46517619D02*
X66845238Y-46470000D01*
X66845238Y-46470000D02*
X66797619Y-46422381D01*
X66797619Y-46422381D02*
X66750000Y-46327143D01*
X66750000Y-45089048D02*
X66750000Y-45565238D01*
X66750000Y-45565238D02*
X67226190Y-45612857D01*
X67226190Y-45612857D02*
X67178571Y-45565238D01*
X67178571Y-45565238D02*
X67130952Y-45470000D01*
X67130952Y-45470000D02*
X67130952Y-45231905D01*
X67130952Y-45231905D02*
X67178571Y-45136667D01*
X67178571Y-45136667D02*
X67226190Y-45089048D01*
X67226190Y-45089048D02*
X67321428Y-45041429D01*
X67321428Y-45041429D02*
X67559523Y-45041429D01*
X67559523Y-45041429D02*
X67654761Y-45089048D01*
X67654761Y-45089048D02*
X67702381Y-45136667D01*
X67702381Y-45136667D02*
X67750000Y-45231905D01*
X67750000Y-45231905D02*
X67750000Y-45470000D01*
X67750000Y-45470000D02*
X67702381Y-45565238D01*
X67702381Y-45565238D02*
X67654761Y-45612857D01*
X72728796Y-44166666D02*
X72728796Y-43833333D01*
X73252606Y-43690476D02*
X73252606Y-44166666D01*
X73252606Y-44166666D02*
X72252606Y-44166666D01*
X72252606Y-44166666D02*
X72252606Y-43690476D01*
X72252606Y-43357142D02*
X72252606Y-42738095D01*
X72252606Y-42738095D02*
X72633558Y-43071428D01*
X72633558Y-43071428D02*
X72633558Y-42928571D01*
X72633558Y-42928571D02*
X72681177Y-42833333D01*
X72681177Y-42833333D02*
X72728796Y-42785714D01*
X72728796Y-42785714D02*
X72824034Y-42738095D01*
X72824034Y-42738095D02*
X73062129Y-42738095D01*
X73062129Y-42738095D02*
X73157367Y-42785714D01*
X73157367Y-42785714D02*
X73204987Y-42833333D01*
X73204987Y-42833333D02*
X73252606Y-42928571D01*
X73252606Y-42928571D02*
X73252606Y-43214285D01*
X73252606Y-43214285D02*
X73204987Y-43309523D01*
X73204987Y-43309523D02*
X73157367Y-43357142D01*
X72252606Y-42119047D02*
X72252606Y-42023809D01*
X72252606Y-42023809D02*
X72300225Y-41928571D01*
X72300225Y-41928571D02*
X72347844Y-41880952D01*
X72347844Y-41880952D02*
X72443082Y-41833333D01*
X72443082Y-41833333D02*
X72633558Y-41785714D01*
X72633558Y-41785714D02*
X72871653Y-41785714D01*
X72871653Y-41785714D02*
X73062129Y-41833333D01*
X73062129Y-41833333D02*
X73157367Y-41880952D01*
X73157367Y-41880952D02*
X73204987Y-41928571D01*
X73204987Y-41928571D02*
X73252606Y-42023809D01*
X73252606Y-42023809D02*
X73252606Y-42119047D01*
X73252606Y-42119047D02*
X73204987Y-42214285D01*
X73204987Y-42214285D02*
X73157367Y-42261904D01*
X73157367Y-42261904D02*
X73062129Y-42309523D01*
X73062129Y-42309523D02*
X72871653Y-42357142D01*
X72871653Y-42357142D02*
X72633558Y-42357142D01*
X72633558Y-42357142D02*
X72443082Y-42309523D01*
X72443082Y-42309523D02*
X72347844Y-42261904D01*
X72347844Y-42261904D02*
X72300225Y-42214285D01*
X72300225Y-42214285D02*
X72252606Y-42119047D01*
X72347844Y-41404761D02*
X72300225Y-41357142D01*
X72300225Y-41357142D02*
X72252606Y-41261904D01*
X72252606Y-41261904D02*
X72252606Y-41023809D01*
X72252606Y-41023809D02*
X72300225Y-40928571D01*
X72300225Y-40928571D02*
X72347844Y-40880952D01*
X72347844Y-40880952D02*
X72443082Y-40833333D01*
X72443082Y-40833333D02*
X72538320Y-40833333D01*
X72538320Y-40833333D02*
X72681177Y-40880952D01*
X72681177Y-40880952D02*
X73252606Y-41452380D01*
X73252606Y-41452380D02*
X73252606Y-40833333D01*
X46834405Y-60497619D02*
X46834405Y-61307142D01*
X46834405Y-61307142D02*
X46882024Y-61402380D01*
X46882024Y-61402380D02*
X46929643Y-61450000D01*
X46929643Y-61450000D02*
X47024881Y-61497619D01*
X47024881Y-61497619D02*
X47215357Y-61497619D01*
X47215357Y-61497619D02*
X47310595Y-61450000D01*
X47310595Y-61450000D02*
X47358214Y-61402380D01*
X47358214Y-61402380D02*
X47405833Y-61307142D01*
X47405833Y-61307142D02*
X47405833Y-60497619D01*
X48310595Y-60830952D02*
X48310595Y-61497619D01*
X48072500Y-60450000D02*
X47834405Y-61164285D01*
X47834405Y-61164285D02*
X48453452Y-61164285D01*
X49024881Y-60497619D02*
X49120119Y-60497619D01*
X49120119Y-60497619D02*
X49215357Y-60545238D01*
X49215357Y-60545238D02*
X49262976Y-60592857D01*
X49262976Y-60592857D02*
X49310595Y-60688095D01*
X49310595Y-60688095D02*
X49358214Y-60878571D01*
X49358214Y-60878571D02*
X49358214Y-61116666D01*
X49358214Y-61116666D02*
X49310595Y-61307142D01*
X49310595Y-61307142D02*
X49262976Y-61402380D01*
X49262976Y-61402380D02*
X49215357Y-61450000D01*
X49215357Y-61450000D02*
X49120119Y-61497619D01*
X49120119Y-61497619D02*
X49024881Y-61497619D01*
X49024881Y-61497619D02*
X48929643Y-61450000D01*
X48929643Y-61450000D02*
X48882024Y-61402380D01*
X48882024Y-61402380D02*
X48834405Y-61307142D01*
X48834405Y-61307142D02*
X48786786Y-61116666D01*
X48786786Y-61116666D02*
X48786786Y-60878571D01*
X48786786Y-60878571D02*
X48834405Y-60688095D01*
X48834405Y-60688095D02*
X48882024Y-60592857D01*
X48882024Y-60592857D02*
X48929643Y-60545238D01*
X48929643Y-60545238D02*
X49024881Y-60497619D01*
X50310595Y-61497619D02*
X49739167Y-61497619D01*
X50024881Y-61497619D02*
X50024881Y-60497619D01*
X50024881Y-60497619D02*
X49929643Y-60640476D01*
X49929643Y-60640476D02*
X49834405Y-60735714D01*
X49834405Y-60735714D02*
X49739167Y-60783333D01*
%TO.C,R303*%
D13*
X34477500Y-56762742D02*
X34477500Y-57237258D01*
X35522500Y-56762742D02*
X35522500Y-57237258D01*
%TO.C,C401*%
X51892164Y-60390000D02*
X52107836Y-60390000D01*
X51892164Y-61110000D02*
X52107836Y-61110000D01*
%TO.C,R205*%
X56046359Y-58130000D02*
X56353641Y-58130000D01*
X56046359Y-58890000D02*
X56353641Y-58890000D01*
%TO.C,R210*%
X41346359Y-27370000D02*
X41653641Y-27370000D01*
X41346359Y-28130000D02*
X41653641Y-28130000D01*
%TO.C,D303*%
D14*
X32580000Y-57800000D02*
G75*
G02*
X32420000Y-57800000I-80000J0D01*
G01*
X32420000Y-57800000D02*
G75*
G02*
X32580000Y-57800000I80000J0D01*
G01*
%TO.C,C108*%
D13*
X42640000Y-46142164D02*
X42640000Y-46357836D01*
X43360000Y-46142164D02*
X43360000Y-46357836D01*
%TO.C,R306*%
X69870000Y-62903641D02*
X69870000Y-62596359D01*
X70630000Y-62903641D02*
X70630000Y-62596359D01*
%TO.C,C506*%
X71640580Y-56490000D02*
X71359420Y-56490000D01*
X71640580Y-57510000D02*
X71359420Y-57510000D01*
%TO.C,R305*%
X38403641Y-57620000D02*
X38096359Y-57620000D01*
X38403641Y-58380000D02*
X38096359Y-58380000D01*
%TO.C,J301*%
D11*
X40200000Y-54450000D02*
X39400000Y-54450000D01*
%TO.C,C304*%
D13*
X70357836Y-67390000D02*
X70142164Y-67390000D01*
X70357836Y-68110000D02*
X70142164Y-68110000D01*
%TO.C,R304*%
X42370000Y-53596359D02*
X42370000Y-53903641D01*
X43130000Y-53596359D02*
X43130000Y-53903641D01*
%TO.C,C109*%
X42607836Y-40140000D02*
X42392164Y-40140000D01*
X42607836Y-40860000D02*
X42392164Y-40860000D01*
%TO.C,R212*%
X63053641Y-31320000D02*
X62746359Y-31320000D01*
X63053641Y-32080000D02*
X62746359Y-32080000D01*
%TO.C,U402*%
X37530770Y-31555287D02*
X37812453Y-32085056D01*
X37766796Y-30976762D02*
X38049339Y-30826531D01*
X38610554Y-33586067D02*
X38328872Y-33056298D01*
X39140323Y-33304384D02*
X38610554Y-33586067D01*
X40963066Y-29277275D02*
X41492835Y-28995592D01*
X41492835Y-28995592D02*
X41774518Y-29525361D01*
X42478725Y-30849782D02*
X42760408Y-31379551D01*
X42760408Y-31379551D02*
X42230640Y-31661233D01*
X37495882Y-31234067D02*
X37248657Y-31365519D01*
X37364430Y-30986841D01*
X37495882Y-31234067D01*
G36*
X37495882Y-31234067D02*
G01*
X37248657Y-31365519D01*
X37364430Y-30986841D01*
X37495882Y-31234067D01*
G37*
%TO.C,U105*%
X40890000Y-41640000D02*
X42710000Y-41640000D01*
X40890000Y-41690000D02*
X40890000Y-41640000D01*
X40890000Y-44760000D02*
X40890000Y-44710000D01*
X42710000Y-41640000D02*
X42710000Y-41690000D01*
X42710000Y-44710000D02*
X42710000Y-44760000D01*
X42710000Y-44760000D02*
X40890000Y-44760000D01*
X40350000Y-41690000D02*
X40110000Y-41360000D01*
X40590000Y-41360000D01*
X40350000Y-41690000D01*
G36*
X40350000Y-41690000D02*
G01*
X40110000Y-41360000D01*
X40590000Y-41360000D01*
X40350000Y-41690000D01*
G37*
%TO.C,R213*%
X48846359Y-55620000D02*
X49153641Y-55620000D01*
X48846359Y-56380000D02*
X49153641Y-56380000D01*
%TO.C,R506*%
X69346359Y-54870000D02*
X69653641Y-54870000D01*
X69346359Y-55630000D02*
X69653641Y-55630000D01*
%TO.C,R401*%
X43620000Y-30596359D02*
X43620000Y-30903641D01*
X44380000Y-30596359D02*
X44380000Y-30903641D01*
%TO.C,C402*%
X46740000Y-58207836D02*
X46740000Y-57992164D01*
X47460000Y-58207836D02*
X47460000Y-57992164D01*
%TO.C,C303*%
X72357836Y-60640000D02*
X72142164Y-60640000D01*
X72357836Y-61360000D02*
X72142164Y-61360000D01*
%TO.C,C301*%
X40890000Y-52392164D02*
X40890000Y-52607836D01*
X41610000Y-52392164D02*
X41610000Y-52607836D01*
%TO.C,U301*%
X71744519Y-63316577D02*
X71757019Y-63294926D01*
X72392019Y-62195074D02*
X72404519Y-62173423D01*
X72404519Y-62173423D02*
X73657785Y-62896997D01*
X73147481Y-64126577D02*
X71744519Y-63316577D01*
X73159981Y-64104926D02*
X73147481Y-64126577D01*
X73918724Y-63070744D02*
X73892481Y-62836199D01*
X74134968Y-62976199D01*
X73918724Y-63070744D01*
G36*
X74134968Y-62976199D02*
G01*
X73918724Y-63070744D01*
X73892481Y-62836199D01*
X74134968Y-62976199D01*
G37*
%TO.C,SW301*%
X47280000Y-48540000D02*
X47280000Y-46460000D01*
X48550000Y-44780000D02*
X48060000Y-45270000D01*
X48550000Y-44780000D02*
X51450000Y-44780000D01*
X48550000Y-50220000D02*
X48060000Y-49730000D01*
X48550000Y-50220000D02*
X51450000Y-50220000D01*
X51450000Y-44780000D02*
X51940000Y-45270000D01*
X51450000Y-50220000D02*
X51940000Y-49730000D01*
X52720000Y-48540000D02*
X52720000Y-46460000D01*
%TO.C,R211*%
X67153641Y-51620000D02*
X66846359Y-51620000D01*
X67153641Y-52380000D02*
X66846359Y-52380000D01*
%TO.C,U503*%
X68800000Y-47900000D02*
X74000000Y-47900000D01*
X68800000Y-52100000D02*
X68800000Y-47900000D01*
X74000000Y-47900000D02*
X74000000Y-52100000D01*
X74000000Y-52100000D02*
X68800000Y-52100000D01*
X73900000Y-46700000D02*
X73900000Y-47300000D01*
X73400000Y-47000000D01*
X73900000Y-46700000D01*
G36*
X73900000Y-47300000D02*
G01*
X73400000Y-47000000D01*
X73900000Y-46700000D01*
X73900000Y-47300000D01*
G37*
%TO.C,C404*%
X38140580Y-34490000D02*
X37859420Y-34490000D01*
X38140580Y-35510000D02*
X37859420Y-35510000D01*
%TO.C,Q301*%
X40840000Y-55440000D02*
X42360000Y-55440000D01*
X40840000Y-55490000D02*
X40840000Y-55440000D01*
X40840000Y-57390000D02*
X40840000Y-56610000D01*
X40840000Y-58560000D02*
X40840000Y-58510000D01*
X42360000Y-55440000D02*
X42360000Y-56440000D01*
X42360000Y-57560000D02*
X42360000Y-58560000D01*
X42360000Y-58560000D02*
X40840000Y-58560000D01*
X40300000Y-56620000D02*
X40540000Y-56950000D01*
X40060000Y-56950000D01*
X40300000Y-56620000D01*
G36*
X40540000Y-56950000D02*
G01*
X40060000Y-56950000D01*
X40300000Y-56620000D01*
X40540000Y-56950000D01*
G37*
%TO.C,C405*%
X59107836Y-28140000D02*
X58892164Y-28140000D01*
X59107836Y-28860000D02*
X58892164Y-28860000D01*
%TO.C,C302*%
X37890580Y-55740000D02*
X37609420Y-55740000D01*
X37890580Y-56760000D02*
X37609420Y-56760000D01*
%TO.C,R201*%
X41853641Y-67620000D02*
X41546359Y-67620000D01*
X41853641Y-68380000D02*
X41546359Y-68380000D01*
%TO.C,U403*%
D15*
X59317835Y-29524630D02*
G75*
G02*
X59217835Y-29524630I-50000J0D01*
G01*
X59217835Y-29524630D02*
G75*
G02*
X59317835Y-29524630I50000J0D01*
G01*
%TO.C,R116*%
D13*
X38370000Y-43903641D02*
X38370000Y-43596359D01*
X39130000Y-43903641D02*
X39130000Y-43596359D01*
%TO.C,R206*%
X54053641Y-50920000D02*
X53746359Y-50920000D01*
X54053641Y-51680000D02*
X53746359Y-51680000D01*
%TO.C,R115*%
X45096359Y-42870000D02*
X45403641Y-42870000D01*
X45096359Y-43630000D02*
X45403641Y-43630000D01*
%TO.C,R207*%
X36903641Y-43620000D02*
X36596359Y-43620000D01*
X36903641Y-44380000D02*
X36596359Y-44380000D01*
%TO.C,R214*%
X51653641Y-55620000D02*
X51346359Y-55620000D01*
X51653641Y-56380000D02*
X51346359Y-56380000D01*
%TO.C,U101*%
X49065000Y-32425568D02*
X49065000Y-31290000D01*
X49935000Y-31290000D02*
X50065000Y-31290000D01*
X50935000Y-31290000D02*
X50935000Y-32710000D01*
X49060000Y-32720000D02*
X48870000Y-32860000D01*
X48870000Y-32580000D01*
X49060000Y-32720000D01*
G36*
X49060000Y-32720000D02*
G01*
X48870000Y-32860000D01*
X48870000Y-32580000D01*
X49060000Y-32720000D01*
G37*
%TO.C,U302*%
X70233758Y-65516845D02*
X70248453Y-65496620D01*
X70994940Y-64469168D02*
X71009635Y-64448943D01*
X71009635Y-64448943D02*
X72180401Y-65299554D01*
X71544365Y-66469057D02*
X70233758Y-65516845D01*
X71559060Y-66448832D02*
X71544365Y-66469057D01*
X72421749Y-65499625D02*
X72420166Y-65263622D01*
X72646690Y-65428202D01*
X72421749Y-65499625D01*
G36*
X72646690Y-65428202D02*
G01*
X72421749Y-65499625D01*
X72420166Y-65263622D01*
X72646690Y-65428202D01*
G37*
%TO.C,R505*%
X67120000Y-50153641D02*
X67120000Y-49846359D01*
X67880000Y-50153641D02*
X67880000Y-49846359D01*
%TO.C,C403*%
X35890000Y-31607836D02*
X35890000Y-31392164D01*
X36610000Y-31607836D02*
X36610000Y-31392164D01*
%TO.C,C203*%
X41592164Y-68940000D02*
X41807836Y-68940000D01*
X41592164Y-69660000D02*
X41807836Y-69660000D01*
%TO.C,U401*%
X48390000Y-57240000D02*
X49065000Y-57240000D01*
X48390000Y-57415000D02*
X48390000Y-57240000D01*
X48390000Y-59960000D02*
X48390000Y-59785000D01*
X49065000Y-59960000D02*
X48390000Y-59960000D01*
X50935000Y-57240000D02*
X51610000Y-57240000D01*
X51610000Y-57240000D02*
X51610000Y-57415000D01*
X51610000Y-59785000D02*
X51610000Y-59960000D01*
X51610000Y-59960000D02*
X50935000Y-59960000D01*
X48260000Y-57850000D02*
X47930000Y-58090000D01*
X47930000Y-57610000D01*
X48260000Y-57850000D01*
G36*
X48260000Y-57850000D02*
G01*
X47930000Y-58090000D01*
X47930000Y-57610000D01*
X48260000Y-57850000D01*
G37*
%TD*%
%LPC*%
D16*
%TO.C,R303*%
X35000000Y-56175000D03*
X35000000Y-57825000D03*
%TD*%
D17*
%TO.C,C401*%
X51520000Y-60750000D03*
X52480000Y-60750000D03*
%TD*%
D18*
%TO.C,R205*%
X55690000Y-58510000D03*
X56710000Y-58510000D03*
%TD*%
%TO.C,R210*%
X40990000Y-27750000D03*
X42010000Y-27750000D03*
%TD*%
D19*
%TO.C,D303*%
X32500000Y-57350000D03*
X32500000Y-56650000D03*
%TD*%
D20*
%TO.C,C108*%
X43000000Y-45770000D03*
X43000000Y-46730000D03*
%TD*%
D21*
%TO.C,R306*%
X70250000Y-63260000D03*
X70250000Y-62240000D03*
%TD*%
D22*
%TO.C,C506*%
X72275000Y-57000000D03*
X70725000Y-57000000D03*
%TD*%
D23*
%TO.C,R305*%
X38760000Y-58000000D03*
X37740000Y-58000000D03*
%TD*%
D24*
%TO.C,FID1*%
X64500000Y-34500000D03*
%TD*%
D25*
%TO.C,J301*%
X38100000Y-53849999D03*
X38100000Y-53150000D03*
X38100000Y-52449999D03*
X38100000Y-51750000D03*
X38100000Y-51049999D03*
X38100000Y-50350000D03*
X38100000Y-49650000D03*
X38100000Y-48950001D03*
X38100000Y-48250000D03*
X38100000Y-47550001D03*
X38100000Y-46850000D03*
X38100000Y-46150001D03*
%TD*%
D26*
%TO.C,C304*%
X70730000Y-67750000D03*
X69770000Y-67750000D03*
%TD*%
D27*
%TO.C,R304*%
X42750000Y-53240000D03*
X42750000Y-54260000D03*
%TD*%
D26*
%TO.C,C109*%
X42980000Y-40500000D03*
X42020000Y-40500000D03*
%TD*%
D23*
%TO.C,R212*%
X63410000Y-31700000D03*
X62390000Y-31700000D03*
%TD*%
D28*
%TO.C,U402*%
X38258707Y-31326796D03*
X38969759Y-30960049D03*
X39671423Y-30575642D03*
X40377781Y-30200065D03*
X41084139Y-29824487D03*
X41459716Y-30530845D03*
X41835293Y-31237204D03*
X41128935Y-31612781D03*
X40422577Y-31988358D03*
X39716219Y-32363935D03*
X39009861Y-32739513D03*
X38634284Y-32033155D03*
%TD*%
D29*
%TO.C,U105*%
X40662500Y-42250000D03*
X40662500Y-43200000D03*
X40662500Y-44150000D03*
X42937500Y-44150000D03*
X42937500Y-43200000D03*
X42937500Y-42250000D03*
%TD*%
D18*
%TO.C,R213*%
X48490000Y-56000000D03*
X49510000Y-56000000D03*
%TD*%
D24*
%TO.C,FID3*%
X30000000Y-41000000D03*
%TD*%
D30*
%TO.C,H1*%
X31421000Y-33272000D03*
%TD*%
D18*
%TO.C,R506*%
X68990000Y-55250000D03*
X70010000Y-55250000D03*
%TD*%
D31*
%TO.C,J302*%
X30079000Y-57251000D03*
%TD*%
D24*
%TO.C,FID2*%
X68000000Y-70200000D03*
%TD*%
D27*
%TO.C,R401*%
X44000000Y-30240000D03*
X44000000Y-31260000D03*
%TD*%
D32*
%TO.C,C402*%
X47100000Y-58580000D03*
X47100000Y-57620000D03*
%TD*%
D26*
%TO.C,C303*%
X72730000Y-61000000D03*
X71770000Y-61000000D03*
%TD*%
D20*
%TO.C,C301*%
X41250000Y-52020000D03*
X41250000Y-52980000D03*
%TD*%
D33*
%TO.C,U301*%
X73572170Y-63320994D03*
X72229830Y-62545994D03*
X71979830Y-62979006D03*
X73322170Y-63754006D03*
D34*
X72776000Y-63150000D03*
%TD*%
D35*
%TO.C,SW301*%
X46900000Y-45650000D03*
X53100000Y-45650000D03*
X46900000Y-49350000D03*
X53100000Y-49350000D03*
%TD*%
D23*
%TO.C,R211*%
X67510000Y-52000000D03*
X66490000Y-52000000D03*
%TD*%
D36*
%TO.C,U503*%
X72670000Y-46850000D03*
X70130000Y-46850000D03*
X70130000Y-53150000D03*
X72670000Y-53150000D03*
%TD*%
D22*
%TO.C,C404*%
X38775000Y-35000000D03*
X37225000Y-35000000D03*
%TD*%
D37*
%TO.C,Q301*%
X40662500Y-56050000D03*
X40662500Y-57950000D03*
X42537500Y-57000000D03*
%TD*%
D26*
%TO.C,C405*%
X59480000Y-28500000D03*
X58520000Y-28500000D03*
%TD*%
D22*
%TO.C,C302*%
X38525000Y-56250000D03*
X36975000Y-56250000D03*
%TD*%
D23*
%TO.C,R201*%
X42210000Y-68000000D03*
X41190000Y-68000000D03*
%TD*%
D38*
%TO.C,U403*%
X59419356Y-30262086D03*
X59114200Y-30836002D03*
X58809043Y-31409918D03*
X60486644Y-32301914D03*
X60791800Y-31727998D03*
X61096957Y-31154082D03*
D39*
X59953000Y-31282000D03*
%TD*%
D21*
%TO.C,R116*%
X38750000Y-44260000D03*
X38750000Y-43240000D03*
%TD*%
D23*
%TO.C,R206*%
X54410000Y-51300000D03*
X53390000Y-51300000D03*
%TD*%
D18*
%TO.C,R115*%
X44740000Y-43250000D03*
X45760000Y-43250000D03*
%TD*%
D23*
%TO.C,R207*%
X37260000Y-44000000D03*
X36240000Y-44000000D03*
%TD*%
%TO.C,R214*%
X52010000Y-56000000D03*
X50990000Y-56000000D03*
%TD*%
D30*
%TO.C,H2*%
X68579000Y-33272000D03*
%TD*%
D40*
%TO.C,U101*%
X49500000Y-32712500D03*
X50000000Y-32712500D03*
X50500000Y-32712500D03*
X50500000Y-31287500D03*
X49500000Y-31287500D03*
%TD*%
D41*
%TO.C,U302*%
X72050934Y-65712279D03*
X70796958Y-64801212D03*
X70503066Y-65205721D03*
X71757042Y-66116788D03*
D42*
X71277000Y-65459000D03*
%TD*%
D21*
%TO.C,R505*%
X67500000Y-50510000D03*
X67500000Y-49490000D03*
%TD*%
D32*
%TO.C,C403*%
X36250000Y-31980000D03*
X36250000Y-31020000D03*
%TD*%
D24*
%TO.C,H3*%
X32322000Y-67678000D03*
%TD*%
D17*
%TO.C,C203*%
X41220000Y-69300000D03*
X42180000Y-69300000D03*
%TD*%
D43*
%TO.C,U401*%
X48837500Y-57850000D03*
X48837500Y-58350000D03*
X48837500Y-58850000D03*
X48837500Y-59350000D03*
D44*
X49500000Y-59512500D03*
X50000000Y-59512500D03*
X50500000Y-59512500D03*
D43*
X51162500Y-59350000D03*
X51162500Y-58850000D03*
X51162500Y-58350000D03*
X51162500Y-57850000D03*
D44*
X50500000Y-57687500D03*
X50000000Y-57687500D03*
X49500000Y-57687500D03*
%TD*%
D45*
%TO.C,J201*%
X60960000Y-68900000D03*
X66040000Y-67884000D03*
X66040000Y-69916000D03*
%TD*%
D46*
%TO.C,MK401*%
X71360241Y-55323828D03*
%TD*%
D47*
%TO.C,J101*%
X47110000Y-26650000D03*
X52890000Y-26650000D03*
D48*
X45680000Y-23000000D03*
D49*
X45680000Y-27180000D03*
D48*
X54320000Y-23000000D03*
D49*
X54320000Y-27180000D03*
%TD*%
%LPD*%
M02*
