%TF.GenerationSoftware,KiCad,Pcbnew,10.0.6*%
%TF.CreationDate,2026-10-05T07:36:54+02:00*%
%TF.ProjectId,MAO_MAIN_A0,4d414f5f-4d41-4494-9e5f-41302e6b6963,A0*%
%TF.SameCoordinates,Original*%
%TF.FileFunction,Paste,Bot*%
%TF.FilePolarity,Positive*%
%FSLAX46Y46*%
G04 Gerber Fmt 4.6, Leading zero omitted, Abs format (unit mm)*
G04 Created by KiCad (PCBNEW 10.0.6) date 2026-10-05 07:36:54*
%MOMM*%
%LPD*%
G01*
G04 APERTURE LIST*
G04 Aperture macros list*
%AMRoundRect*
0 Rectangle with rounded corners*
0 $1 Rounding radius*
0 $2 $3 $4 $5 $6 $7 $8 $9 X,Y pos of 4 corners*
0 Add a 4 corners polygon primitive as box body*
4,1,4,$2,$3,$4,$5,$6,$7,$8,$9,$2,$3,0*
0 Add four circle primitives for the rounded corners*
1,1,$1+$1,$2,$3*
1,1,$1+$1,$4,$5*
1,1,$1+$1,$6,$7*
1,1,$1+$1,$8,$9*
0 Add four rect primitives between the rounded corners*
20,1,$1+$1,$2,$3,$4,$5,0*
20,1,$1+$1,$4,$5,$6,$7,0*
20,1,$1+$1,$6,$7,$8,$9,0*
20,1,$1+$1,$8,$9,$2,$3,0*%
G04 Aperture macros list end*
%ADD10C,0.300000*%
%ADD11RoundRect,0.135000X-0.185000X0.135000X-0.185000X-0.135000X0.185000X-0.135000X0.185000X0.135000X0*%
%ADD12RoundRect,0.140000X0.170000X-0.140000X0.170000X0.140000X-0.170000X0.140000X-0.170000X-0.140000X0*%
%ADD13RoundRect,0.060000X-0.180000X0.060000X-0.180000X-0.060000X0.180000X-0.060000X0.180000X0.060000X0*%
%ADD14RoundRect,0.062500X-0.062500X0.325000X-0.062500X-0.325000X0.062500X-0.325000X0.062500X0.325000X0*%
%ADD15RoundRect,0.100000X-0.700000X-1.000000X0.700000X-1.000000X0.700000X1.000000X-0.700000X1.000000X0*%
%ADD16RoundRect,0.150000X-0.150000X-0.575000X0.150000X-0.575000X0.150000X0.575000X-0.150000X0.575000X0*%
%ADD17RoundRect,0.075000X-0.075000X-0.650000X0.075000X-0.650000X0.075000X0.650000X-0.075000X0.650000X0*%
%ADD18RoundRect,0.225000X-0.250000X0.225000X-0.250000X-0.225000X0.250000X-0.225000X0.250000X0.225000X0*%
%ADD19RoundRect,0.225000X0.225000X0.250000X-0.225000X0.250000X-0.225000X-0.250000X0.225000X-0.250000X0*%
%ADD20RoundRect,0.150000X0.150000X-0.587500X0.150000X0.587500X-0.150000X0.587500X-0.150000X-0.587500X0*%
%ADD21RoundRect,0.157500X-0.157500X-0.157500X0.157500X-0.157500X0.157500X0.157500X-0.157500X0.157500X0*%
%ADD22RoundRect,0.062500X-0.375000X-0.062500X0.375000X-0.062500X0.375000X0.062500X-0.375000X0.062500X0*%
%ADD23RoundRect,0.062500X-0.062500X-0.375000X0.062500X-0.375000X0.062500X0.375000X-0.062500X0.375000X0*%
%ADD24RoundRect,0.200000X0.275000X-0.200000X0.275000X0.200000X-0.275000X0.200000X-0.275000X-0.200000X0*%
%ADD25RoundRect,0.137500X0.137500X0.662500X-0.137500X0.662500X-0.137500X-0.662500X0.137500X-0.662500X0*%
%ADD26RoundRect,0.140000X-0.170000X0.140000X-0.170000X-0.140000X0.170000X-0.140000X0.170000X0.140000X0*%
%ADD27RoundRect,0.140000X0.140000X0.170000X-0.140000X0.170000X-0.140000X-0.170000X0.140000X-0.170000X0*%
%ADD28RoundRect,0.135000X-0.135000X-0.185000X0.135000X-0.185000X0.135000X0.185000X-0.135000X0.185000X0*%
%ADD29RoundRect,0.135000X0.185000X-0.135000X0.185000X0.135000X-0.185000X0.135000X-0.185000X-0.135000X0*%
%ADD30RoundRect,0.087500X0.662500X0.087500X-0.662500X0.087500X-0.662500X-0.087500X0.662500X-0.087500X0*%
%ADD31RoundRect,0.250000X-0.400000X-0.450000X0.400000X-0.450000X0.400000X0.450000X-0.400000X0.450000X0*%
%ADD32RoundRect,0.150000X0.750000X-0.350000X0.750000X0.350000X-0.750000X0.350000X-0.750000X-0.350000X0*%
%ADD33R,0.725000X0.522000*%
%ADD34RoundRect,0.080000X-0.080000X-0.160000X0.080000X-0.160000X0.080000X0.160000X-0.080000X0.160000X0*%
%ADD35RoundRect,0.062500X-0.325000X-0.062500X0.325000X-0.062500X0.325000X0.062500X-0.325000X0.062500X0*%
%ADD36RoundRect,0.075000X-0.075000X-0.175000X0.075000X-0.175000X0.075000X0.175000X-0.075000X0.175000X0*%
%ADD37RoundRect,0.140000X-0.140000X-0.170000X0.140000X-0.170000X0.140000X0.170000X-0.140000X0.170000X0*%
%ADD38R,0.900000X0.900000*%
%ADD39R,1.500000X0.900000*%
%ADD40R,0.900000X1.500000*%
%ADD41R,0.800000X0.300000*%
%ADD42R,0.800000X0.400000*%
%ADD43RoundRect,0.200000X-0.800000X-0.800000X0.800000X-0.800000X0.800000X0.800000X-0.800000X0.800000X0*%
%ADD44RoundRect,0.132500X-0.132500X-0.132500X0.132500X-0.132500X0.132500X0.132500X-0.132500X0.132500X0*%
%ADD45RoundRect,0.062500X-0.350000X-0.062500X0.350000X-0.062500X0.350000X0.062500X-0.350000X0.062500X0*%
%ADD46RoundRect,0.062500X-0.062500X-0.350000X0.062500X-0.350000X0.062500X0.350000X-0.062500X0.350000X0*%
%ADD47RoundRect,0.150000X-0.587500X-0.150000X0.587500X-0.150000X0.587500X0.150000X-0.587500X0.150000X0*%
%ADD48RoundRect,0.225000X-0.225000X-0.250000X0.225000X-0.250000X0.225000X0.250000X-0.225000X0.250000X0*%
%ADD49RoundRect,0.050000X0.075000X-0.250000X0.075000X0.250000X-0.075000X0.250000X-0.075000X-0.250000X0*%
%ADD50RoundRect,0.050000X0.075000X-0.400000X0.075000X0.400000X-0.075000X0.400000X-0.075000X-0.400000X0*%
%ADD51RoundRect,0.042000X0.063000X-0.504000X0.063000X0.504000X-0.063000X0.504000X-0.063000X-0.504000X0*%
%ADD52RoundRect,0.050000X0.559692X0.481398X-0.093814X0.732256X-0.559692X-0.481398X0.093814X-0.732256X0*%
%ADD53RoundRect,0.050000X0.093814X0.732256X-0.559692X0.481398X-0.093814X-0.732256X0.559692X-0.481398X0*%
%ADD54RoundRect,0.150000X0.150000X0.625000X-0.150000X0.625000X-0.150000X-0.625000X0.150000X-0.625000X0*%
%ADD55RoundRect,0.250000X0.350000X0.650000X-0.350000X0.650000X-0.350000X-0.650000X0.350000X-0.650000X0*%
%ADD56RoundRect,0.250000X0.625000X-0.312500X0.625000X0.312500X-0.625000X0.312500X-0.625000X-0.312500X0*%
%ADD57RoundRect,0.135000X0.135000X0.185000X-0.135000X0.185000X-0.135000X-0.185000X0.135000X-0.185000X0*%
G04 APERTURE END LIST*
%TO.C,MK401*%
D10*
X70543989Y-55022761D02*
G75*
G02*
X70868000Y-54694000I604011J-271239D01*
G01*
X70876761Y-55898011D02*
G75*
G02*
X70548000Y-55574000I271239J604011D01*
G01*
X71419239Y-54689989D02*
G75*
G02*
X71748000Y-55014000I-271240J-604012D01*
G01*
X71751799Y-55565710D02*
G75*
G02*
X71428000Y-55894000I-603796J271706D01*
G01*
%TD*%
D11*
%TO.C,R214*%
X58200000Y-46790000D03*
X58200000Y-47810000D03*
%TD*%
D12*
%TO.C,C406*%
X73300000Y-59480000D03*
X73300000Y-58520000D03*
%TD*%
D13*
%TO.C,U303*%
X42000000Y-47450000D03*
X41400000Y-47450000D03*
X42000000Y-47750000D03*
X41400000Y-47750000D03*
D14*
X40950000Y-46637500D03*
X41450000Y-46637500D03*
X41950000Y-46637500D03*
X42450000Y-46637500D03*
X42450000Y-48562500D03*
X41950000Y-48562500D03*
X41450000Y-48562500D03*
X40950000Y-48562500D03*
%TD*%
D15*
%TO.C,J303*%
X27600000Y-41200000D03*
%TD*%
D16*
%TO.C,J101*%
X46750000Y-28095000D03*
X47550000Y-28095000D03*
D17*
X48750000Y-28095000D03*
X49750000Y-28095000D03*
X50250000Y-28095000D03*
X51250000Y-28095000D03*
D16*
X52450000Y-28095000D03*
X53250000Y-28095000D03*
X53250000Y-28095000D03*
X52450000Y-28095000D03*
D17*
X51750000Y-28095000D03*
X50750000Y-28095000D03*
X49250000Y-28095000D03*
X48250000Y-28095000D03*
D16*
X47550000Y-28095000D03*
X46750000Y-28095000D03*
%TD*%
D18*
%TO.C,C105*%
X55570000Y-38225000D03*
X55570000Y-39775000D03*
%TD*%
%TO.C,C107*%
X48890000Y-38225000D03*
X48890000Y-39775000D03*
%TD*%
D19*
%TO.C,C201*%
X37375000Y-70150000D03*
X35825000Y-70150000D03*
%TD*%
D20*
%TO.C,Q501*%
X60550000Y-29737500D03*
X58650000Y-29737500D03*
X59600000Y-27862500D03*
%TD*%
D21*
%TO.C,U202*%
X40640000Y-36540000D03*
X40640000Y-37260000D03*
X41360000Y-36540000D03*
X41360000Y-37260000D03*
D22*
X39562500Y-37650000D03*
X39562500Y-37150000D03*
X39562500Y-36650000D03*
X39562500Y-36150000D03*
D23*
X40250000Y-35462500D03*
X40750000Y-35462500D03*
X41250000Y-35462500D03*
X41750000Y-35462500D03*
D22*
X42437500Y-36150000D03*
X42437500Y-36650000D03*
X42437500Y-37150000D03*
X42437500Y-37650000D03*
D23*
X41750000Y-38337500D03*
X41250000Y-38337500D03*
X40750000Y-38337500D03*
X40250000Y-38337500D03*
%TD*%
D24*
%TO.C,R501*%
X38673000Y-28328000D03*
X38673000Y-26678000D03*
%TD*%
D25*
%TO.C,L101*%
X53725000Y-36410000D03*
X52275000Y-36410000D03*
%TD*%
D26*
%TO.C,C407*%
X71590000Y-59040000D03*
X71590000Y-60000000D03*
%TD*%
D11*
%TO.C,R109*%
X64250000Y-41490000D03*
X64250000Y-42510000D03*
%TD*%
D27*
%TO.C,C205*%
X41210000Y-39800000D03*
X40250000Y-39800000D03*
%TD*%
D28*
%TO.C,R308*%
X61090000Y-69600000D03*
X62110000Y-69600000D03*
%TD*%
D29*
%TO.C,R207*%
X39162000Y-34550000D03*
X39162000Y-33530000D03*
%TD*%
%TO.C,R212*%
X63088000Y-33500000D03*
X63088000Y-32480000D03*
%TD*%
%TO.C,R113*%
X51400000Y-42010000D03*
X51400000Y-40990000D03*
%TD*%
%TO.C,R301*%
X49365000Y-51750000D03*
X49365000Y-50730000D03*
%TD*%
D28*
%TO.C,R503*%
X59530000Y-31438000D03*
X60550000Y-31438000D03*
%TD*%
%TO.C,R403*%
X61350000Y-55570000D03*
X62370000Y-55570000D03*
%TD*%
D24*
%TO.C,R502*%
X56627000Y-26752000D03*
X56627000Y-25102000D03*
%TD*%
D29*
%TO.C,R203*%
X58400000Y-35810000D03*
X58400000Y-34790000D03*
%TD*%
D30*
%TO.C,U502*%
X36500000Y-61400000D03*
X36500000Y-61900000D03*
X36500000Y-62400000D03*
X36500000Y-62900000D03*
X36500000Y-63400000D03*
X32300000Y-63400000D03*
X32300000Y-62900000D03*
X32300000Y-62400000D03*
X32300000Y-61900000D03*
X32300000Y-61400000D03*
%TD*%
D11*
%TO.C,R213*%
X59440000Y-46790000D03*
X59440000Y-47810000D03*
%TD*%
D31*
%TO.C,D101*%
X53200000Y-30500000D03*
X56100000Y-30500000D03*
%TD*%
D28*
%TO.C,R110*%
X70240000Y-42250000D03*
X71260000Y-42250000D03*
%TD*%
D32*
%TO.C,J501*%
X29162000Y-62330000D03*
X29162000Y-59830000D03*
%TD*%
D12*
%TO.C,C204*%
X56200000Y-35780000D03*
X56200000Y-34820000D03*
%TD*%
D33*
%TO.C,MK401*%
X70310500Y-57368000D03*
X70310500Y-56546000D03*
X71985500Y-56546000D03*
X71985500Y-57368000D03*
%TD*%
D11*
%TO.C,R209*%
X37600000Y-64340000D03*
X37600000Y-65360000D03*
%TD*%
D29*
%TO.C,R111*%
X55100000Y-42010000D03*
X55100000Y-40990000D03*
%TD*%
D12*
%TO.C,C203*%
X38300000Y-68780000D03*
X38300000Y-67820000D03*
%TD*%
D29*
%TO.C,R201*%
X39550000Y-69810000D03*
X39550000Y-68790000D03*
%TD*%
D12*
%TO.C,C104*%
X61300000Y-35430000D03*
X61300000Y-34470000D03*
%TD*%
%TO.C,C504*%
X35600000Y-59880000D03*
X35600000Y-58920000D03*
%TD*%
D34*
%TO.C,U103*%
X63500000Y-35150000D03*
X63500000Y-35750000D03*
X63900000Y-35150000D03*
X63900000Y-35750000D03*
D35*
X62712500Y-36200000D03*
X62712500Y-35700000D03*
X62712500Y-35200000D03*
X62712500Y-34700000D03*
X64687500Y-34700000D03*
X64687500Y-35200000D03*
X64687500Y-35700000D03*
X64687500Y-36200000D03*
%TD*%
D11*
%TO.C,R102*%
X51900000Y-32240000D03*
X51900000Y-33260000D03*
%TD*%
%TO.C,R114*%
X52500000Y-40990000D03*
X52500000Y-42010000D03*
%TD*%
D29*
%TO.C,R302*%
X48095000Y-51750000D03*
X48095000Y-50730000D03*
%TD*%
D36*
%TO.C,D304*%
X29600000Y-41200000D03*
X30300000Y-41200000D03*
%TD*%
D11*
%TO.C,R101*%
X48400000Y-29990000D03*
X48400000Y-31010000D03*
%TD*%
D37*
%TO.C,C202*%
X38770000Y-71050000D03*
X39730000Y-71050000D03*
%TD*%
D26*
%TO.C,C111*%
X53000000Y-43220000D03*
X53000000Y-44180000D03*
%TD*%
D38*
%TO.C,U201*%
X47100000Y-62090000D03*
X47100000Y-63490000D03*
X47100000Y-64890000D03*
X48500000Y-62090000D03*
X48500000Y-63490000D03*
X48500000Y-64890000D03*
X49900000Y-62090000D03*
X49900000Y-63490000D03*
X49900000Y-64890000D03*
D39*
X41250000Y-71210000D03*
X41250000Y-69940000D03*
X41250000Y-68670000D03*
X41250000Y-67400000D03*
X41250000Y-66130000D03*
X41250000Y-64860000D03*
X41250000Y-63590000D03*
X41250000Y-62320000D03*
X41250000Y-61050000D03*
X41250000Y-59780000D03*
X41250000Y-58510000D03*
X41250000Y-57240000D03*
X41250000Y-55970000D03*
X41250000Y-54700000D03*
D40*
X43015000Y-53450000D03*
X44285000Y-53450000D03*
X45555000Y-53450000D03*
X46825000Y-53450000D03*
X48095000Y-53450000D03*
X49365000Y-53450000D03*
X50635000Y-53450000D03*
X51905000Y-53450000D03*
X53175000Y-53450000D03*
X54445000Y-53450000D03*
X55715000Y-53450000D03*
X56985000Y-53450000D03*
D39*
X58750000Y-54700000D03*
X58750000Y-55970000D03*
X58750000Y-57240000D03*
X58750000Y-58510000D03*
X58750000Y-59780000D03*
X58750000Y-61050000D03*
X58750000Y-62320000D03*
X58750000Y-63590000D03*
X58750000Y-64860000D03*
X58750000Y-66130000D03*
X58750000Y-67400000D03*
X58750000Y-68670000D03*
X58750000Y-69940000D03*
X58750000Y-71210000D03*
%TD*%
D11*
%TO.C,R112*%
X54000000Y-40990000D03*
X54000000Y-42010000D03*
%TD*%
%TO.C,R202*%
X60400000Y-52740000D03*
X60400000Y-53760000D03*
%TD*%
D41*
%TO.C,J301*%
X38850000Y-54250000D03*
X38850000Y-53750000D03*
X38850000Y-53250000D03*
X38850000Y-52750000D03*
X38850000Y-52250000D03*
X38850000Y-51750000D03*
X38850000Y-51250000D03*
X38850000Y-50750000D03*
X38850000Y-50250000D03*
X38850000Y-49750000D03*
X38850000Y-49250000D03*
X38850000Y-48750000D03*
X38850000Y-48250000D03*
X38850000Y-47750000D03*
X38850000Y-47250000D03*
X38850000Y-46750000D03*
X38850000Y-46250000D03*
X38850000Y-45750000D03*
D42*
X36350000Y-55250000D03*
X36350000Y-44750000D03*
%TD*%
D43*
%TO.C,LS501*%
X29350000Y-57550000D03*
X29350000Y-43650000D03*
%TD*%
D29*
%TO.C,R504*%
X62150000Y-29737000D03*
X62150000Y-28717000D03*
%TD*%
D37*
%TO.C,C503*%
X32520000Y-60000000D03*
X33480000Y-60000000D03*
%TD*%
D29*
%TO.C,R204*%
X57300000Y-35810000D03*
X57300000Y-34790000D03*
%TD*%
D44*
%TO.C,U501*%
X35290000Y-40990000D03*
X35290000Y-41610000D03*
X35910000Y-40990000D03*
X35910000Y-41610000D03*
D45*
X34162500Y-42050000D03*
X34162500Y-41550000D03*
X34162500Y-41050000D03*
X34162500Y-40550000D03*
D46*
X34850000Y-39862500D03*
X35350000Y-39862500D03*
X35850000Y-39862500D03*
X36350000Y-39862500D03*
D45*
X37037500Y-40550000D03*
X37037500Y-41050000D03*
X37037500Y-41550000D03*
X37037500Y-42050000D03*
D46*
X36350000Y-42737500D03*
X35850000Y-42737500D03*
X35350000Y-42737500D03*
X34850000Y-42737500D03*
%TD*%
D12*
%TO.C,C305*%
X41950000Y-45238000D03*
X41950000Y-44278000D03*
%TD*%
D29*
%TO.C,R205*%
X61700000Y-52920000D03*
X61700000Y-51900000D03*
%TD*%
D47*
%TO.C,Q101*%
X64162500Y-40125000D03*
X64162500Y-38225000D03*
X66037500Y-39175000D03*
%TD*%
D48*
%TO.C,C505*%
X63625000Y-31100000D03*
X65175000Y-31100000D03*
%TD*%
D29*
%TO.C,R402*%
X70390000Y-60170000D03*
X70390000Y-59150000D03*
%TD*%
D49*
%TO.C,U104*%
X54000000Y-39900000D03*
X53500000Y-39900000D03*
X53000000Y-39900000D03*
X52500000Y-39900000D03*
X52000000Y-39900000D03*
D50*
X52000000Y-38250000D03*
X52500000Y-38250000D03*
D51*
X53000000Y-38450000D03*
D50*
X53500000Y-38250000D03*
X54000000Y-38250000D03*
%TD*%
D52*
%TO.C,D502*%
X61327371Y-24677552D03*
X58526629Y-23602448D03*
%TD*%
D53*
%TO.C,D501*%
X41473371Y-23602448D03*
X38672629Y-24677552D03*
%TD*%
D54*
%TO.C,J102*%
X70260000Y-44285000D03*
X69260000Y-44285000D03*
X68260000Y-44285000D03*
D55*
X71560000Y-48160000D03*
X66960000Y-48160000D03*
%TD*%
D56*
%TO.C,R108*%
X68260000Y-42097500D03*
X68260000Y-39172500D03*
%TD*%
D18*
%TO.C,C106*%
X50430000Y-38225000D03*
X50430000Y-39775000D03*
%TD*%
D57*
%TO.C,R206*%
X46640000Y-37150000D03*
X45620000Y-37150000D03*
%TD*%
M02*
