%TF.GenerationSoftware,KiCad,Pcbnew,10.0.6*%
%TF.CreationDate,2026-10-05T02:41:01+02:00*%
%TF.ProjectId,MAO_MAIN_A0,4d414f5f-4d41-4494-9e5f-41302e6b6963,A0*%
%TF.SameCoordinates,Original*%
%TF.FileFunction,Copper,L2,Inr*%
%TF.FilePolarity,Positive*%
%FSLAX46Y46*%
G04 Gerber Fmt 4.6, Leading zero omitted, Abs format (unit mm)*
G04 Created by KiCad (PCBNEW 10.0.6) date 2026-10-05 02:41:01*
%MOMM*%
%LPD*%
G01*
G04 APERTURE LIST*
%TA.AperFunction,ComponentPad*%
%ADD10C,0.600000*%
%TD*%
%TA.AperFunction,HeatsinkPad*%
%ADD11C,0.600000*%
%TD*%
%TA.AperFunction,HeatsinkPad*%
%ADD12C,0.500000*%
%TD*%
%TA.AperFunction,ComponentPad*%
%ADD13O,1.000000X1.600000*%
%TD*%
%TA.AperFunction,ComponentPad*%
%ADD14O,1.000000X2.100000*%
%TD*%
%TA.AperFunction,ViaPad*%
%ADD15C,0.600000*%
%TD*%
%TA.AperFunction,ViaPad*%
%ADD16C,0.500000*%
%TD*%
G04 APERTURE END LIST*
D10*
%TO.N,TOUCH_LEFT_E*%
%TO.C,E301*%
X24502443Y-60301681D03*
X24502443Y-39698319D03*
%TD*%
%TO.N,TOUCH_RIGHT_E*%
%TO.C,E302*%
X75497557Y-39698319D03*
X75497557Y-60301681D03*
%TD*%
D11*
%TO.N,GND*%
%TO.C,U201*%
X47100000Y-62790000D03*
X47100000Y-64190000D03*
X47800000Y-62090000D03*
X47800000Y-63490000D03*
X47800000Y-64890000D03*
X48500000Y-62790000D03*
X48500000Y-64190000D03*
X49200000Y-62090000D03*
X49200000Y-63490000D03*
X49200000Y-64890000D03*
X49900000Y-62790000D03*
X49900000Y-64190000D03*
%TD*%
D12*
%TO.N,GND*%
%TO.C,U501*%
X32635000Y-54365000D03*
X33365000Y-54365000D03*
X32635000Y-53635000D03*
X33365000Y-53635000D03*
%TD*%
%TO.N,GND*%
%TO.C,U202*%
X40525000Y-36425000D03*
X40525000Y-37375000D03*
X41475000Y-36425000D03*
X41475000Y-37375000D03*
%TD*%
D13*
%TO.N,GND*%
%TO.C,J101*%
X45680000Y-23000000D03*
D14*
X45680000Y-27180000D03*
D13*
X54320000Y-23000000D03*
D14*
X54320000Y-27180000D03*
%TD*%
D12*
%TO.N,GND*%
%TO.C,U102*%
X60000000Y-38815000D03*
X60000000Y-37635000D03*
X58820000Y-38815000D03*
X58820000Y-37635000D03*
%TD*%
D15*
%TO.N,GND*%
X34825000Y-70150000D03*
X54600000Y-49350000D03*
X72070000Y-63860000D03*
X42259716Y-30530845D03*
X45275499Y-39825500D03*
X33150000Y-56767000D03*
X37834284Y-32033155D03*
X63060000Y-36860000D03*
X61890000Y-34000000D03*
X57100000Y-31250000D03*
X72154183Y-60343183D03*
X28000000Y-50425000D03*
X72670000Y-45550000D03*
X59033762Y-32201238D03*
X53520000Y-59250000D03*
X36259000Y-27677000D03*
X39350000Y-39800000D03*
X37200000Y-67820000D03*
X34062500Y-42600000D03*
X73300000Y-55300000D03*
X37000000Y-49750000D03*
X27202000Y-58802000D03*
X70260000Y-45800000D03*
X72347396Y-66875604D03*
X30245685Y-54115685D03*
X40500000Y-53690000D03*
X30400000Y-50220000D03*
X63600000Y-68870000D03*
X35500000Y-56250000D03*
X52500000Y-42910000D03*
X36163000Y-34690000D03*
X38000000Y-55250000D03*
X36100000Y-47750000D03*
X65048896Y-37186396D03*
X62150000Y-27817000D03*
X34500000Y-44750000D03*
D16*
X53250000Y-39350000D03*
D15*
X40300000Y-41840000D03*
X49660000Y-40550000D03*
X65048896Y-34413604D03*
X72798000Y-41198000D03*
X62837667Y-54816428D03*
X62350000Y-40550000D03*
X58314200Y-30836002D03*
X35263000Y-38230000D03*
X67510086Y-56296482D03*
X57200000Y-44300000D03*
X58119000Y-27802000D03*
X69362894Y-54392894D03*
D16*
X49500000Y-33400000D03*
D15*
X33550000Y-63800000D03*
X56400000Y-34500000D03*
X71200000Y-44285000D03*
X57100000Y-30500000D03*
X34250000Y-60000000D03*
X40762500Y-45450000D03*
X32200000Y-41200000D03*
X38969759Y-30160049D03*
X34700000Y-58920000D03*
X59620000Y-34250000D03*
X56400000Y-39775000D03*
X51100000Y-56250000D03*
X72457604Y-57551604D03*
%TO.N,+3V3*%
X66900000Y-67600000D03*
X56200000Y-59250000D03*
X47700000Y-37150000D03*
X69151000Y-67512000D03*
X44560000Y-33680000D03*
X59419356Y-29462086D03*
X72850934Y-65712279D03*
X37600000Y-71000000D03*
X34062500Y-43550000D03*
X38258707Y-30526796D03*
X74372170Y-63320994D03*
X48890000Y-37350000D03*
X50820000Y-59250000D03*
X58800000Y-45550000D03*
X37540000Y-38570000D03*
X33663000Y-38470000D03*
X50430000Y-37350000D03*
X60400000Y-51840000D03*
X64790000Y-32400000D03*
X36510000Y-33440000D03*
X71072000Y-61121000D03*
X42100000Y-39800000D03*
X51400000Y-42910000D03*
X62600000Y-52920000D03*
X39009861Y-33539513D03*
D16*
%TO.N,IMU_INT1*%
X51905000Y-52000000D03*
%TO.N,IMU_INT2*%
X54445000Y-52000000D03*
%TO.N,I2C_SCL*%
X57100000Y-47300000D03*
X38800000Y-62320000D03*
X44150000Y-37650000D03*
X53450000Y-55000000D03*
X67300000Y-35900000D03*
X40100000Y-33070000D03*
%TO.N,I2C_SDA*%
X42550000Y-38900000D03*
X52700000Y-55000000D03*
D15*
X49800000Y-55100000D03*
D16*
X39500000Y-63590000D03*
X67300000Y-36750000D03*
X57400000Y-49000000D03*
%TO.N,PRESS_N*%
X66900000Y-66330000D03*
X61200000Y-53760000D03*
%TO.N,USB_DP*%
X49750000Y-29250000D03*
X50750000Y-29250000D03*
X42400000Y-54700000D03*
%TO.N,USB_DN*%
X42400000Y-55970000D03*
X51200000Y-30600000D03*
%TO.N,IR_RX_PWR*%
X41750000Y-34550000D03*
D15*
X66650000Y-56450000D03*
X59500000Y-48600000D03*
%TO.N,IR_RX_VCC*%
X72670000Y-51600000D03*
D16*
%TO.N,IR_RX*%
X60250000Y-62320000D03*
D15*
%TO.N,3V3_LCD*%
X35300000Y-49850000D03*
X41550000Y-42250000D03*
X40950000Y-43700000D03*
%TO.N,LCD_BL_K*%
X41800000Y-47200000D03*
D16*
%TO.N,LCD_CS*%
X39050000Y-50250000D03*
%TO.N,LCD_SCLK_P*%
X39700000Y-50750000D03*
%TO.N,LCD_MOSI_P*%
X39050000Y-51250000D03*
%TO.N,LCD_DC*%
X39700000Y-51750000D03*
%TO.N,LCD_TE*%
X39050000Y-52250000D03*
%TO.N,LCD_RST_N*%
X37850000Y-37150000D03*
D15*
X37100000Y-52750000D03*
%TO.N,HALL_FAST*%
X68800000Y-68817000D03*
D16*
X73720000Y-64150000D03*
X71400000Y-66700000D03*
X60250000Y-68670000D03*
D15*
%TO.N,SENSE_ALRT_N*%
X60400000Y-28500000D03*
D16*
X44150000Y-36650000D03*
D15*
X57300000Y-28500000D03*
X62950000Y-29100000D03*
D16*
X61600000Y-31730000D03*
%TO.N,TOUCH_TOP*%
X39900000Y-66130000D03*
%TO.N,TOF_XSHUT*%
X43450000Y-29020000D03*
D15*
%TO.N,TOF_INT_N*%
X48000000Y-44600000D03*
X49650000Y-37000000D03*
D16*
X43540000Y-32150000D03*
%TO.N,TOUCH_RIGHT_E*%
X68200000Y-60500000D03*
%TO.N,TOUCH_LEFT*%
X39900000Y-67400000D03*
D15*
%TO.N,VSYS*%
X62000000Y-30700000D03*
X60250000Y-40790000D03*
X62150000Y-32450000D03*
X56600000Y-36900000D03*
X37550000Y-27900000D03*
X33000000Y-58900000D03*
X56630000Y-27700000D03*
D16*
X30700000Y-53500000D03*
D15*
X56790000Y-38225000D03*
X55100000Y-42800000D03*
D16*
%TO.N,HALL_A*%
X60950000Y-63590000D03*
%TO.N,TOUCH_REAR*%
X39900000Y-64860000D03*
%TO.N,TOUCH_REAR_E*%
X31900000Y-43100000D03*
%TO.N,HALL_B*%
X60250000Y-64860000D03*
D15*
%TO.N,MCU_EN*%
X67150000Y-70700000D03*
X66650000Y-55600000D03*
X67350000Y-60250000D03*
D16*
X37100000Y-68800000D03*
D15*
%TO.N,BOARD_ID*%
X33900000Y-49000000D03*
X32850000Y-37363000D03*
D16*
%TO.N,USB_PRESENT_N*%
X58100000Y-41240000D03*
D15*
X50500000Y-45000000D03*
D16*
X41750000Y-53450000D03*
D15*
%TO.N,EXP_INT_N*%
X46300000Y-38350000D03*
X45620000Y-35450000D03*
X45000000Y-41600000D03*
D16*
X43450000Y-37150000D03*
D15*
%TO.N,LCD_BL_PWM*%
X43800000Y-48950000D03*
D16*
X56985000Y-52000000D03*
D15*
%TO.N,MIC_PWR*%
X64550000Y-59100000D03*
X61650000Y-56500000D03*
D16*
%TO.N,EXP_RST_N*%
X38550000Y-37650000D03*
X60250000Y-59780000D03*
D15*
X54450000Y-48100000D03*
X58250000Y-53750000D03*
D16*
%TO.N,IR_TX*%
X60950000Y-61050000D03*
D15*
X57800000Y-31750000D03*
%TO.N,VBUS*%
X54500000Y-32500000D03*
X47550000Y-29450000D03*
%TO.N,HAPTIC_EN*%
X34900000Y-60850000D03*
X39050000Y-56700000D03*
D16*
X40250000Y-34550000D03*
X34900000Y-65200000D03*
D15*
%TO.N,IR_LED_K*%
X59600000Y-26400000D03*
X42400000Y-24800000D03*
%TO.N,AMP_SD_N*%
X33500000Y-57500000D03*
X36200000Y-40950000D03*
%TO.N,LCD_PWR_EN*%
X36050000Y-39363000D03*
D16*
X38550000Y-36650000D03*
D15*
%TO.N,CHG_N*%
X48200000Y-36500000D03*
D16*
X57250000Y-39250000D03*
D15*
%TO.N,BAT_NTC*%
X69700000Y-43000000D03*
X61950000Y-37025000D03*
%TD*%
%TA.AperFunction,Conductor*%
%TO.N,GND*%
G36*
X51048620Y-21320001D02*
G01*
X51051918Y-21320119D01*
X51232821Y-21329599D01*
X52084094Y-21377138D01*
X52087040Y-21377350D01*
X52392098Y-21404039D01*
X52392484Y-21404074D01*
X53116984Y-21471631D01*
X53119847Y-21471940D01*
X53475387Y-21515595D01*
X53475814Y-21515649D01*
X54146382Y-21603434D01*
X54148960Y-21603807D01*
X54529480Y-21664075D01*
X54530133Y-21664181D01*
X55170979Y-21772447D01*
X55173195Y-21772850D01*
X55566622Y-21849324D01*
X55567508Y-21849502D01*
X56189392Y-21978515D01*
X56191415Y-21978958D01*
X56590485Y-22071090D01*
X56591805Y-22071406D01*
X57200660Y-22221529D01*
X57202461Y-22221992D01*
X57602174Y-22329095D01*
X57603739Y-22329528D01*
X58203943Y-22501428D01*
X58205500Y-22501890D01*
X58601662Y-22623008D01*
X58603393Y-22623556D01*
X59198316Y-22818153D01*
X59199608Y-22818587D01*
X59588407Y-22952462D01*
X59590174Y-22953091D01*
X60183576Y-23171935D01*
X60184445Y-23172262D01*
X60561414Y-23316967D01*
X60563513Y-23317801D01*
X61159882Y-23563298D01*
X61160375Y-23563504D01*
X61519968Y-23716142D01*
X61522257Y-23717150D01*
X62129293Y-23993862D01*
X62129930Y-23994156D01*
X62462818Y-24149384D01*
X62465318Y-24150592D01*
X62762207Y-24299500D01*
X63099295Y-24468570D01*
X63099855Y-24468853D01*
X63244729Y-24542669D01*
X63389059Y-24616209D01*
X63391698Y-24617605D01*
X63622947Y-24744564D01*
X64095790Y-25004161D01*
X64096142Y-25004355D01*
X64297502Y-25115970D01*
X64300267Y-25117564D01*
X65191436Y-25650880D01*
X65194526Y-25652809D01*
X66079388Y-26228084D01*
X66082173Y-26229964D01*
X66155145Y-26281059D01*
X66172142Y-26292961D01*
X66760394Y-26707314D01*
X66927272Y-26824859D01*
X66929835Y-26826726D01*
X67156025Y-26997172D01*
X67753399Y-27452101D01*
X67755689Y-27453898D01*
X67978231Y-27634109D01*
X68025299Y-27672224D01*
X68025831Y-27672657D01*
X68556645Y-28109012D01*
X68558692Y-28110744D01*
X68844852Y-28359499D01*
X68845429Y-28360005D01*
X69335972Y-28794807D01*
X69337813Y-28796481D01*
X69622099Y-29061582D01*
X69628299Y-29067363D01*
X69629138Y-29068155D01*
X70090536Y-29508826D01*
X70092163Y-29510415D01*
X70380377Y-29798629D01*
X70381365Y-29799632D01*
X70819462Y-30250367D01*
X70820868Y-30251844D01*
X71090223Y-30540692D01*
X71102502Y-30553859D01*
X71103588Y-30555044D01*
X71252387Y-30719986D01*
X71521909Y-31018749D01*
X71523117Y-31020113D01*
X71795007Y-31332887D01*
X71796214Y-31334302D01*
X72197230Y-31813511D01*
X72198244Y-31814743D01*
X72457727Y-32135178D01*
X72459023Y-32136813D01*
X72844929Y-32634453D01*
X72845761Y-32635541D01*
X73090236Y-32959970D01*
X73091606Y-32961833D01*
X73464892Y-33482048D01*
X73465553Y-33482981D01*
X73691994Y-33806372D01*
X73693423Y-33808470D01*
X74057613Y-34358059D01*
X74058116Y-34358826D01*
X74262400Y-34673397D01*
X74263874Y-34675736D01*
X74625685Y-35268479D01*
X74626043Y-35269070D01*
X74800870Y-35560031D01*
X74802371Y-35562618D01*
X75176526Y-36230201D01*
X75177536Y-36232002D01*
X75177708Y-36232310D01*
X75204174Y-36280055D01*
X75291753Y-36438054D01*
X75303427Y-36498116D01*
X75277569Y-36553568D01*
X75251643Y-36573462D01*
X72426867Y-38075421D01*
X72426867Y-38075422D01*
X72892848Y-38996574D01*
X72894594Y-39000207D01*
X73321851Y-39937735D01*
X73323448Y-39941437D01*
X73391029Y-40107314D01*
X73696008Y-40855890D01*
X73712180Y-40895583D01*
X73713621Y-40899336D01*
X73821884Y-41199500D01*
X74063191Y-41868535D01*
X74064481Y-41872354D01*
X74374294Y-42854955D01*
X74375428Y-42858824D01*
X74644985Y-43853245D01*
X74645960Y-43857157D01*
X74874804Y-44861711D01*
X74875619Y-44865659D01*
X75063373Y-45878692D01*
X75064027Y-45882670D01*
X75210386Y-46902528D01*
X75210877Y-46906529D01*
X75315591Y-47931483D01*
X75315919Y-47935501D01*
X75378817Y-48963877D01*
X75378981Y-48967905D01*
X75399958Y-49997983D01*
X75399958Y-50002015D01*
X75378981Y-51032093D01*
X75378817Y-51036121D01*
X75315919Y-52064497D01*
X75315591Y-52068515D01*
X75210877Y-53093469D01*
X75210386Y-53097470D01*
X75064027Y-54117328D01*
X75063373Y-54121306D01*
X74875619Y-55134339D01*
X74874804Y-55138287D01*
X74645960Y-56142841D01*
X74644985Y-56146753D01*
X74375428Y-57141174D01*
X74374294Y-57145043D01*
X74064481Y-58127644D01*
X74063191Y-58131463D01*
X73713625Y-59100651D01*
X73712180Y-59104415D01*
X73323448Y-60058561D01*
X73321851Y-60062263D01*
X72894594Y-60999791D01*
X72892848Y-61003424D01*
X72426867Y-61924576D01*
X72426867Y-61924577D01*
X73059008Y-62260692D01*
X74028324Y-62776086D01*
X74070826Y-62820098D01*
X74079341Y-62880688D01*
X74051849Y-62933500D01*
X73971670Y-63013679D01*
X73971666Y-63013684D01*
X73905779Y-63127803D01*
X73905778Y-63127808D01*
X73871670Y-63255102D01*
X73871670Y-63386886D01*
X73893601Y-63468733D01*
X73905779Y-63514182D01*
X73935995Y-63566517D01*
X73948717Y-63626366D01*
X73923831Y-63682261D01*
X73870843Y-63712854D01*
X73824637Y-63711645D01*
X73792197Y-63702953D01*
X73779309Y-63699500D01*
X73660691Y-63699500D01*
X73590567Y-63718289D01*
X73546109Y-63730202D01*
X73443391Y-63789507D01*
X73359507Y-63873391D01*
X73300202Y-63976109D01*
X73291175Y-64009799D01*
X73269500Y-64090691D01*
X73269500Y-64209309D01*
X73288891Y-64281676D01*
X73300202Y-64323890D01*
X73359507Y-64426608D01*
X73359509Y-64426610D01*
X73359511Y-64426613D01*
X73443387Y-64510489D01*
X73443389Y-64510490D01*
X73443391Y-64510492D01*
X73546110Y-64569797D01*
X73546111Y-64569797D01*
X73546114Y-64569799D01*
X73660691Y-64600500D01*
X73660693Y-64600500D01*
X73779307Y-64600500D01*
X73779309Y-64600500D01*
X73893886Y-64569799D01*
X73893888Y-64569797D01*
X73893890Y-64569797D01*
X73996608Y-64510492D01*
X73996608Y-64510491D01*
X73996613Y-64510489D01*
X74080489Y-64426613D01*
X74096385Y-64399080D01*
X74139797Y-64323890D01*
X74139797Y-64323888D01*
X74139799Y-64323886D01*
X74170500Y-64209309D01*
X74170500Y-64090691D01*
X74139799Y-63976114D01*
X74139797Y-63976111D01*
X74139797Y-63976109D01*
X74123228Y-63947411D01*
X74110506Y-63887563D01*
X74135392Y-63831667D01*
X74188380Y-63801074D01*
X74234584Y-63802283D01*
X74306278Y-63821494D01*
X74306280Y-63821494D01*
X74438060Y-63821494D01*
X74438062Y-63821494D01*
X74565356Y-63787386D01*
X74565358Y-63787384D01*
X74565360Y-63787384D01*
X74679479Y-63721497D01*
X74679479Y-63721496D01*
X74679484Y-63721494D01*
X74772670Y-63628308D01*
X74808345Y-63566517D01*
X74838560Y-63514184D01*
X74838560Y-63514182D01*
X74838562Y-63514180D01*
X74872670Y-63386886D01*
X74872670Y-63386883D01*
X74873517Y-63380452D01*
X74875616Y-63380728D01*
X74891577Y-63331606D01*
X74941077Y-63295642D01*
X75002263Y-63295642D01*
X75018147Y-63302384D01*
X75248227Y-63424720D01*
X75290730Y-63468733D01*
X75299245Y-63529323D01*
X75288944Y-63559015D01*
X75145968Y-63824931D01*
X75145360Y-63826044D01*
X74950468Y-64177638D01*
X74949273Y-64179734D01*
X74621776Y-64738016D01*
X74621244Y-64738913D01*
X74421651Y-65071091D01*
X74420261Y-65073335D01*
X74058853Y-65640033D01*
X74058411Y-65640719D01*
X73861273Y-65944285D01*
X73859678Y-65946666D01*
X73450485Y-66538533D01*
X73450148Y-66539017D01*
X73269953Y-66796361D01*
X73268140Y-66798866D01*
X72770833Y-67463887D01*
X72770615Y-67464177D01*
X72648506Y-67626223D01*
X72646465Y-67628840D01*
X71990849Y-68440767D01*
X71988483Y-68443588D01*
X71298764Y-69235588D01*
X71296510Y-69238089D01*
X71189590Y-69352747D01*
X71189375Y-69352977D01*
X70589578Y-69992096D01*
X70587393Y-69994352D01*
X70376710Y-70205035D01*
X70376326Y-70205416D01*
X69853313Y-70722746D01*
X69851211Y-70724765D01*
X69592258Y-70966243D01*
X69591695Y-70966764D01*
X69090827Y-71426628D01*
X69088822Y-71428419D01*
X68799757Y-71679698D01*
X68799004Y-71680346D01*
X68302989Y-72102865D01*
X68301095Y-72104438D01*
X67990637Y-72355842D01*
X67989685Y-72356604D01*
X67773500Y-72527302D01*
X67581758Y-72678699D01*
X67524372Y-72699921D01*
X67520409Y-72700000D01*
X65099000Y-72700000D01*
X65040809Y-72681093D01*
X65004845Y-72631593D01*
X65000000Y-72601000D01*
X65000000Y-72100001D01*
X65000000Y-72100000D01*
X35000000Y-72100000D01*
X35000000Y-72100001D01*
X35000000Y-72601000D01*
X34981093Y-72659191D01*
X34931593Y-72695155D01*
X34901000Y-72700000D01*
X32479591Y-72700000D01*
X32421400Y-72681093D01*
X32418241Y-72678699D01*
X31800592Y-72191009D01*
X31797745Y-72188674D01*
X30997714Y-71507187D01*
X30995185Y-71504957D01*
X30883694Y-71403235D01*
X30883465Y-71403026D01*
X30779213Y-71307309D01*
X30372736Y-70934108D01*
X37099500Y-70934108D01*
X37099500Y-71065892D01*
X37108773Y-71100500D01*
X37133609Y-71193190D01*
X37199496Y-71307309D01*
X37199498Y-71307311D01*
X37199500Y-71307314D01*
X37292686Y-71400500D01*
X37292688Y-71400501D01*
X37292690Y-71400503D01*
X37406810Y-71466390D01*
X37406808Y-71466390D01*
X37406812Y-71466391D01*
X37406814Y-71466392D01*
X37534108Y-71500500D01*
X37534110Y-71500500D01*
X37665890Y-71500500D01*
X37665892Y-71500500D01*
X37793186Y-71466392D01*
X37793188Y-71466390D01*
X37793190Y-71466390D01*
X37907309Y-71400503D01*
X37907309Y-71400502D01*
X37907314Y-71400500D01*
X38000500Y-71307314D01*
X38000503Y-71307309D01*
X38066390Y-71193190D01*
X38066390Y-71193188D01*
X38066392Y-71193186D01*
X38100500Y-71065892D01*
X38100500Y-70934108D01*
X38066392Y-70806814D01*
X38066390Y-70806811D01*
X38066390Y-70806809D01*
X38000503Y-70692690D01*
X38000501Y-70692688D01*
X38000500Y-70692686D01*
X37907314Y-70599500D01*
X37907311Y-70599498D01*
X37907309Y-70599496D01*
X37793189Y-70533609D01*
X37793191Y-70533609D01*
X37743799Y-70520375D01*
X37665892Y-70499500D01*
X37534108Y-70499500D01*
X37456200Y-70520375D01*
X37406809Y-70533609D01*
X37292690Y-70599496D01*
X37199496Y-70692690D01*
X37133609Y-70806809D01*
X37120123Y-70857140D01*
X37099500Y-70934108D01*
X30372736Y-70934108D01*
X30233510Y-70806280D01*
X30231276Y-70804163D01*
X30019691Y-70597130D01*
X30019309Y-70596754D01*
X29494906Y-70078048D01*
X29492861Y-70075964D01*
X29483881Y-70066542D01*
X64454200Y-70066542D01*
X64454200Y-70213457D01*
X64482860Y-70357541D01*
X64482860Y-70357543D01*
X64539078Y-70493266D01*
X64539078Y-70493267D01*
X64566034Y-70533608D01*
X64620699Y-70615420D01*
X64724580Y-70719301D01*
X64846731Y-70800920D01*
X64846732Y-70800920D01*
X64846733Y-70800921D01*
X64860948Y-70806809D01*
X64982458Y-70857140D01*
X65126545Y-70885800D01*
X65126547Y-70885800D01*
X65273453Y-70885800D01*
X65273455Y-70885800D01*
X65417542Y-70857140D01*
X65553269Y-70800920D01*
X65675420Y-70719301D01*
X65760613Y-70634108D01*
X66649500Y-70634108D01*
X66649500Y-70765892D01*
X66658886Y-70800920D01*
X66683609Y-70893190D01*
X66749496Y-71007309D01*
X66749498Y-71007311D01*
X66749500Y-71007314D01*
X66842686Y-71100500D01*
X66842688Y-71100501D01*
X66842690Y-71100503D01*
X66956810Y-71166390D01*
X66956808Y-71166390D01*
X66956812Y-71166391D01*
X66956814Y-71166392D01*
X67084108Y-71200500D01*
X67084110Y-71200500D01*
X67215890Y-71200500D01*
X67215892Y-71200500D01*
X67343186Y-71166392D01*
X67343188Y-71166390D01*
X67343190Y-71166390D01*
X67457309Y-71100503D01*
X67457309Y-71100502D01*
X67457314Y-71100500D01*
X67550500Y-71007314D01*
X67573912Y-70966764D01*
X67616390Y-70893190D01*
X67616390Y-70893188D01*
X67616392Y-70893186D01*
X67650500Y-70765892D01*
X67650500Y-70634108D01*
X67616392Y-70506814D01*
X67616390Y-70506811D01*
X67616390Y-70506809D01*
X67550503Y-70392690D01*
X67550501Y-70392688D01*
X67550500Y-70392686D01*
X67457314Y-70299500D01*
X67457311Y-70299498D01*
X67457309Y-70299496D01*
X67343189Y-70233609D01*
X67343191Y-70233609D01*
X67293799Y-70220375D01*
X67215892Y-70199500D01*
X67084108Y-70199500D01*
X67006200Y-70220375D01*
X66956809Y-70233609D01*
X66842690Y-70299496D01*
X66749496Y-70392690D01*
X66683609Y-70506809D01*
X66676428Y-70533609D01*
X66649500Y-70634108D01*
X65760613Y-70634108D01*
X65779301Y-70615420D01*
X65860920Y-70493269D01*
X65917140Y-70357542D01*
X65945800Y-70213455D01*
X65945800Y-70066545D01*
X65917140Y-69922458D01*
X65860921Y-69786733D01*
X65860921Y-69786732D01*
X65782606Y-69669527D01*
X65779301Y-69664580D01*
X65675420Y-69560699D01*
X65553269Y-69479080D01*
X65553268Y-69479079D01*
X65553266Y-69479078D01*
X65417542Y-69422860D01*
X65273457Y-69394200D01*
X65273455Y-69394200D01*
X65126545Y-69394200D01*
X65126542Y-69394200D01*
X64982458Y-69422860D01*
X64982456Y-69422860D01*
X64846733Y-69479078D01*
X64846732Y-69479078D01*
X64724580Y-69560699D01*
X64724576Y-69560702D01*
X64620702Y-69664576D01*
X64620699Y-69664580D01*
X64539078Y-69786732D01*
X64539078Y-69786733D01*
X64482860Y-69922456D01*
X64482860Y-69922458D01*
X64454200Y-70066542D01*
X29483881Y-70066542D01*
X29249218Y-69820320D01*
X29248694Y-69819767D01*
X28782769Y-69323297D01*
X28780952Y-69321307D01*
X28747260Y-69283390D01*
X28526900Y-69035393D01*
X28526248Y-69034652D01*
X28157039Y-68610691D01*
X28097963Y-68542854D01*
X28096425Y-68541043D01*
X27841839Y-68233555D01*
X27841101Y-68232651D01*
X27532520Y-67850500D01*
X27441379Y-67737629D01*
X27440014Y-67735898D01*
X27436715Y-67731618D01*
X27395133Y-67677668D01*
X30022330Y-67677668D01*
X30022330Y-67677669D01*
X30097705Y-68250202D01*
X30100701Y-68272953D01*
X30160160Y-68416500D01*
X30294444Y-68740691D01*
X30330472Y-68827669D01*
X30372846Y-68882892D01*
X30654920Y-69250500D01*
X30695984Y-69304015D01*
X31172330Y-69669527D01*
X31727046Y-69899298D01*
X32173509Y-69958076D01*
X32322329Y-69977669D01*
X32322330Y-69977669D01*
X32322331Y-69977669D01*
X32429734Y-69963529D01*
X32488732Y-69955761D01*
X32917614Y-69899298D01*
X33472330Y-69669527D01*
X33948676Y-69304015D01*
X34314188Y-68827669D01*
X34350215Y-68740692D01*
X34350215Y-68740691D01*
X36649500Y-68740691D01*
X36649500Y-68859309D01*
X36655819Y-68882890D01*
X36680202Y-68973890D01*
X36739507Y-69076608D01*
X36739509Y-69076610D01*
X36739511Y-69076613D01*
X36823387Y-69160489D01*
X36823389Y-69160490D01*
X36823391Y-69160492D01*
X36926110Y-69219797D01*
X36926111Y-69219797D01*
X36926114Y-69219799D01*
X37040691Y-69250500D01*
X37040693Y-69250500D01*
X37159307Y-69250500D01*
X37159309Y-69250500D01*
X37273886Y-69219799D01*
X37273888Y-69219797D01*
X37273890Y-69219797D01*
X37376608Y-69160492D01*
X37376608Y-69160491D01*
X37376613Y-69160489D01*
X37460489Y-69076613D01*
X37484288Y-69035393D01*
X37519797Y-68973890D01*
X37519797Y-68973888D01*
X37519799Y-68973886D01*
X37550500Y-68859309D01*
X37550500Y-68740691D01*
X37519799Y-68626114D01*
X37518471Y-68623814D01*
X37510894Y-68610691D01*
X59799500Y-68610691D01*
X59799500Y-68729309D01*
X59825855Y-68827666D01*
X59830202Y-68843890D01*
X59889507Y-68946608D01*
X59889509Y-68946610D01*
X59889511Y-68946613D01*
X59973387Y-69030489D01*
X59973389Y-69030490D01*
X59973391Y-69030492D01*
X60076110Y-69089797D01*
X60076111Y-69089797D01*
X60076114Y-69089799D01*
X60190691Y-69120500D01*
X60190693Y-69120500D01*
X60309307Y-69120500D01*
X60309309Y-69120500D01*
X60423886Y-69089799D01*
X60423888Y-69089797D01*
X60423890Y-69089797D01*
X60526608Y-69030492D01*
X60526608Y-69030491D01*
X60526613Y-69030489D01*
X60610489Y-68946613D01*
X60647280Y-68882890D01*
X60669797Y-68843890D01*
X60669797Y-68843888D01*
X60669799Y-68843886D01*
X60694659Y-68751108D01*
X68299500Y-68751108D01*
X68299500Y-68882892D01*
X68316574Y-68946613D01*
X68333609Y-69010190D01*
X68399496Y-69124309D01*
X68399498Y-69124311D01*
X68399500Y-69124314D01*
X68492686Y-69217500D01*
X68492688Y-69217501D01*
X68492690Y-69217503D01*
X68606810Y-69283390D01*
X68606808Y-69283390D01*
X68606812Y-69283391D01*
X68606814Y-69283392D01*
X68734108Y-69317500D01*
X68734110Y-69317500D01*
X68865890Y-69317500D01*
X68865892Y-69317500D01*
X68993186Y-69283392D01*
X68993188Y-69283390D01*
X68993190Y-69283390D01*
X69107309Y-69217503D01*
X69107309Y-69217502D01*
X69107314Y-69217500D01*
X69200500Y-69124314D01*
X69220427Y-69089799D01*
X69266390Y-69010190D01*
X69266390Y-69010188D01*
X69266392Y-69010186D01*
X69300500Y-68882892D01*
X69300500Y-68751108D01*
X69266392Y-68623814D01*
X69266390Y-68623811D01*
X69266390Y-68623809D01*
X69200503Y-68509690D01*
X69200501Y-68509688D01*
X69200500Y-68509686D01*
X69107314Y-68416500D01*
X69107311Y-68416498D01*
X69107309Y-68416496D01*
X68993189Y-68350609D01*
X68993191Y-68350609D01*
X68943799Y-68337375D01*
X68865892Y-68316500D01*
X68734108Y-68316500D01*
X68656200Y-68337375D01*
X68606809Y-68350609D01*
X68492690Y-68416496D01*
X68399496Y-68509690D01*
X68333609Y-68623809D01*
X68331998Y-68629822D01*
X68299500Y-68751108D01*
X60694659Y-68751108D01*
X60700500Y-68729309D01*
X60700500Y-68610691D01*
X60669799Y-68496114D01*
X60669797Y-68496111D01*
X60669797Y-68496109D01*
X60610492Y-68393391D01*
X60610490Y-68393389D01*
X60610489Y-68393387D01*
X60526613Y-68309511D01*
X60526610Y-68309509D01*
X60526608Y-68309507D01*
X60423889Y-68250202D01*
X60423890Y-68250202D01*
X60410351Y-68246574D01*
X60309309Y-68219500D01*
X60190691Y-68219500D01*
X60120567Y-68238289D01*
X60076109Y-68250202D01*
X59973391Y-68309507D01*
X59889507Y-68393391D01*
X59830202Y-68496109D01*
X59830201Y-68496114D01*
X59799500Y-68610691D01*
X37510894Y-68610691D01*
X37460492Y-68523391D01*
X37460490Y-68523389D01*
X37460489Y-68523387D01*
X37376613Y-68439511D01*
X37376610Y-68439509D01*
X37376608Y-68439507D01*
X37273889Y-68380202D01*
X37273890Y-68380202D01*
X37260351Y-68376574D01*
X37159309Y-68349500D01*
X37040691Y-68349500D01*
X36970567Y-68368289D01*
X36926109Y-68380202D01*
X36823391Y-68439507D01*
X36739507Y-68523391D01*
X36680202Y-68626109D01*
X36663037Y-68690169D01*
X36649500Y-68740691D01*
X34350215Y-68740691D01*
X34368596Y-68696317D01*
X34368596Y-68696316D01*
X34543959Y-68272953D01*
X34622330Y-67677669D01*
X34599202Y-67501994D01*
X34578813Y-67347124D01*
X34577966Y-67340691D01*
X39449500Y-67340691D01*
X39449500Y-67459309D01*
X39469543Y-67534109D01*
X39480202Y-67573890D01*
X39539507Y-67676608D01*
X39539509Y-67676610D01*
X39539511Y-67676613D01*
X39623387Y-67760489D01*
X39623389Y-67760490D01*
X39623391Y-67760492D01*
X39726110Y-67819797D01*
X39726111Y-67819797D01*
X39726114Y-67819799D01*
X39840691Y-67850500D01*
X39840693Y-67850500D01*
X39959307Y-67850500D01*
X39959309Y-67850500D01*
X40073886Y-67819799D01*
X40073888Y-67819797D01*
X40073890Y-67819797D01*
X40176608Y-67760492D01*
X40176608Y-67760491D01*
X40176613Y-67760489D01*
X40260489Y-67676613D01*
X40317486Y-67577892D01*
X40319797Y-67573890D01*
X40319797Y-67573888D01*
X40319799Y-67573886D01*
X40330458Y-67534108D01*
X66399500Y-67534108D01*
X66399500Y-67665892D01*
X66402656Y-67677669D01*
X66433609Y-67793190D01*
X66499496Y-67907309D01*
X66499498Y-67907311D01*
X66499500Y-67907314D01*
X66592686Y-68000500D01*
X66592688Y-68000501D01*
X66592690Y-68000503D01*
X66706810Y-68066390D01*
X66706808Y-68066390D01*
X66706812Y-68066391D01*
X66706814Y-68066392D01*
X66834108Y-68100500D01*
X66834110Y-68100500D01*
X66965890Y-68100500D01*
X66965892Y-68100500D01*
X67093186Y-68066392D01*
X67093188Y-68066390D01*
X67093190Y-68066390D01*
X67207309Y-68000503D01*
X67207309Y-68000502D01*
X67207314Y-68000500D01*
X67300500Y-67907314D01*
X67366392Y-67793186D01*
X67400500Y-67665892D01*
X67400500Y-67534108D01*
X67376921Y-67446108D01*
X68650500Y-67446108D01*
X68650500Y-67577892D01*
X68674079Y-67665890D01*
X68684609Y-67705190D01*
X68750496Y-67819309D01*
X68750498Y-67819311D01*
X68750500Y-67819314D01*
X68843686Y-67912500D01*
X68843688Y-67912501D01*
X68843690Y-67912503D01*
X68957810Y-67978390D01*
X68957808Y-67978390D01*
X68957812Y-67978391D01*
X68957814Y-67978392D01*
X69085108Y-68012500D01*
X69085110Y-68012500D01*
X69216890Y-68012500D01*
X69216892Y-68012500D01*
X69344186Y-67978392D01*
X69344188Y-67978390D01*
X69344190Y-67978390D01*
X69458309Y-67912503D01*
X69458309Y-67912502D01*
X69458314Y-67912500D01*
X69551500Y-67819314D01*
X69585463Y-67760489D01*
X69617390Y-67705190D01*
X69617390Y-67705188D01*
X69617392Y-67705186D01*
X69651500Y-67577892D01*
X69651500Y-67446108D01*
X69617392Y-67318814D01*
X69617390Y-67318811D01*
X69617390Y-67318809D01*
X69551503Y-67204690D01*
X69551501Y-67204688D01*
X69551500Y-67204686D01*
X69458314Y-67111500D01*
X69458311Y-67111498D01*
X69458309Y-67111496D01*
X69344189Y-67045609D01*
X69344191Y-67045609D01*
X69294799Y-67032375D01*
X69216892Y-67011500D01*
X69085108Y-67011500D01*
X69007200Y-67032375D01*
X68957809Y-67045609D01*
X68843690Y-67111496D01*
X68750496Y-67204690D01*
X68684609Y-67318809D01*
X68684608Y-67318814D01*
X68650500Y-67446108D01*
X67376921Y-67446108D01*
X67366392Y-67406814D01*
X67366390Y-67406811D01*
X67366390Y-67406809D01*
X67300503Y-67292690D01*
X67300501Y-67292688D01*
X67300500Y-67292686D01*
X67207314Y-67199500D01*
X67207311Y-67199498D01*
X67207309Y-67199496D01*
X67093189Y-67133609D01*
X67093191Y-67133609D01*
X67041642Y-67119797D01*
X66965892Y-67099500D01*
X66834108Y-67099500D01*
X66758358Y-67119797D01*
X66706809Y-67133609D01*
X66592690Y-67199496D01*
X66499496Y-67292690D01*
X66433609Y-67406809D01*
X66423079Y-67446108D01*
X66399500Y-67534108D01*
X40330458Y-67534108D01*
X40350500Y-67459309D01*
X40350500Y-67340691D01*
X40319799Y-67226114D01*
X40319797Y-67226111D01*
X40319797Y-67226109D01*
X40260492Y-67123391D01*
X40260490Y-67123389D01*
X40260489Y-67123387D01*
X40176613Y-67039511D01*
X40176610Y-67039509D01*
X40176608Y-67039507D01*
X40073889Y-66980202D01*
X40073890Y-66980202D01*
X40060351Y-66976574D01*
X39959309Y-66949500D01*
X39840691Y-66949500D01*
X39770567Y-66968289D01*
X39726109Y-66980202D01*
X39623391Y-67039507D01*
X39539507Y-67123391D01*
X39480202Y-67226109D01*
X39480201Y-67226114D01*
X39449500Y-67340691D01*
X34577966Y-67340691D01*
X34560060Y-67204686D01*
X34543959Y-67082385D01*
X34314188Y-66527669D01*
X33963538Y-66070692D01*
X33963537Y-66070691D01*
X39449500Y-66070691D01*
X39449500Y-66189309D01*
X39465628Y-66249500D01*
X39480202Y-66303890D01*
X39539507Y-66406608D01*
X39539509Y-66406610D01*
X39539511Y-66406613D01*
X39623387Y-66490489D01*
X39623389Y-66490490D01*
X39623391Y-66490492D01*
X39726110Y-66549797D01*
X39726111Y-66549797D01*
X39726114Y-66549799D01*
X39840691Y-66580500D01*
X39840693Y-66580500D01*
X39959307Y-66580500D01*
X39959309Y-66580500D01*
X40073886Y-66549799D01*
X40073888Y-66549797D01*
X40073890Y-66549797D01*
X40176608Y-66490492D01*
X40176608Y-66490491D01*
X40176613Y-66490489D01*
X40260489Y-66406613D01*
X40319799Y-66303886D01*
X40328694Y-66270691D01*
X66449500Y-66270691D01*
X66449500Y-66389309D01*
X66476574Y-66490351D01*
X66480202Y-66503890D01*
X66539507Y-66606608D01*
X66539509Y-66606610D01*
X66539511Y-66606613D01*
X66623387Y-66690489D01*
X66623389Y-66690490D01*
X66623391Y-66690492D01*
X66726110Y-66749797D01*
X66726111Y-66749797D01*
X66726114Y-66749799D01*
X66840691Y-66780500D01*
X66840693Y-66780500D01*
X66959307Y-66780500D01*
X66959309Y-66780500D01*
X67073886Y-66749799D01*
X67073888Y-66749797D01*
X67073890Y-66749797D01*
X67176608Y-66690492D01*
X67176608Y-66690491D01*
X67176613Y-66690489D01*
X67226411Y-66640691D01*
X70949500Y-66640691D01*
X70949500Y-66759309D01*
X70971316Y-66840727D01*
X70980202Y-66873890D01*
X71039507Y-66976608D01*
X71039509Y-66976610D01*
X71039511Y-66976613D01*
X71123387Y-67060489D01*
X71123389Y-67060490D01*
X71123391Y-67060492D01*
X71226110Y-67119797D01*
X71226111Y-67119797D01*
X71226114Y-67119799D01*
X71340691Y-67150500D01*
X71340693Y-67150500D01*
X71459307Y-67150500D01*
X71459309Y-67150500D01*
X71573886Y-67119799D01*
X71573888Y-67119797D01*
X71573890Y-67119797D01*
X71676608Y-67060492D01*
X71676608Y-67060491D01*
X71676613Y-67060489D01*
X71760489Y-66976613D01*
X71819799Y-66873886D01*
X71850500Y-66759309D01*
X71850500Y-66640691D01*
X71819799Y-66526114D01*
X71819797Y-66526111D01*
X71819797Y-66526109D01*
X71760492Y-66423391D01*
X71760490Y-66423389D01*
X71760489Y-66423387D01*
X71676613Y-66339511D01*
X71676610Y-66339509D01*
X71676608Y-66339507D01*
X71573889Y-66280202D01*
X71573890Y-66280202D01*
X71538394Y-66270691D01*
X71459309Y-66249500D01*
X71340691Y-66249500D01*
X71270567Y-66268289D01*
X71226109Y-66280202D01*
X71123391Y-66339507D01*
X71039507Y-66423391D01*
X70980202Y-66526109D01*
X70968616Y-66569349D01*
X70949500Y-66640691D01*
X67226411Y-66640691D01*
X67260489Y-66606613D01*
X67319799Y-66503886D01*
X67350500Y-66389309D01*
X67350500Y-66270691D01*
X67319799Y-66156114D01*
X67319797Y-66156111D01*
X67319797Y-66156109D01*
X67260492Y-66053391D01*
X67260490Y-66053389D01*
X67260489Y-66053387D01*
X67176613Y-65969511D01*
X67176610Y-65969509D01*
X67176608Y-65969507D01*
X67073889Y-65910202D01*
X67073890Y-65910202D01*
X67056211Y-65905465D01*
X66959309Y-65879500D01*
X66840691Y-65879500D01*
X66770567Y-65898289D01*
X66726109Y-65910202D01*
X66623391Y-65969507D01*
X66539507Y-66053391D01*
X66480202Y-66156109D01*
X66480201Y-66156114D01*
X66449500Y-66270691D01*
X40328694Y-66270691D01*
X40350500Y-66189309D01*
X40350500Y-66070691D01*
X40319799Y-65956114D01*
X40319797Y-65956111D01*
X40319797Y-65956109D01*
X40260492Y-65853391D01*
X40260490Y-65853389D01*
X40260489Y-65853387D01*
X40176613Y-65769511D01*
X40176610Y-65769509D01*
X40176608Y-65769507D01*
X40073889Y-65710202D01*
X40073890Y-65710202D01*
X40060351Y-65706574D01*
X39959309Y-65679500D01*
X39840691Y-65679500D01*
X39770567Y-65698289D01*
X39726109Y-65710202D01*
X39623391Y-65769507D01*
X39539507Y-65853391D01*
X39480202Y-65956109D01*
X39480201Y-65956114D01*
X39449500Y-66070691D01*
X33963537Y-66070691D01*
X33948680Y-66051328D01*
X33948679Y-66051327D01*
X33948676Y-66051323D01*
X33948671Y-66051319D01*
X33948670Y-66051318D01*
X33592696Y-65778171D01*
X33472330Y-65685811D01*
X33363468Y-65640719D01*
X33069825Y-65519088D01*
X32917614Y-65456040D01*
X32917612Y-65456039D01*
X32917610Y-65456039D01*
X32322331Y-65377669D01*
X32322329Y-65377669D01*
X31727049Y-65456039D01*
X31727043Y-65456041D01*
X31172331Y-65685810D01*
X30695989Y-66051318D01*
X30695979Y-66051328D01*
X30330471Y-66527670D01*
X30100702Y-67082382D01*
X30100700Y-67082388D01*
X30022330Y-67677668D01*
X27395133Y-67677668D01*
X27190506Y-67412175D01*
X27189661Y-67411062D01*
X27186484Y-67406814D01*
X26813812Y-66908459D01*
X26812628Y-66906842D01*
X26621921Y-66640692D01*
X26571769Y-66570699D01*
X26570819Y-66569349D01*
X26516300Y-66490492D01*
X26300720Y-66178671D01*
X26215866Y-66055936D01*
X26214862Y-66054455D01*
X26049511Y-65805800D01*
X25985342Y-65709302D01*
X25984374Y-65707815D01*
X25648109Y-65180544D01*
X25647397Y-65179408D01*
X25623557Y-65140691D01*
X34449500Y-65140691D01*
X34449500Y-65259309D01*
X34476574Y-65360351D01*
X34480202Y-65373890D01*
X34539507Y-65476608D01*
X34539509Y-65476610D01*
X34539511Y-65476613D01*
X34623387Y-65560489D01*
X34623389Y-65560490D01*
X34623391Y-65560492D01*
X34726110Y-65619797D01*
X34726111Y-65619797D01*
X34726114Y-65619799D01*
X34840691Y-65650500D01*
X34840693Y-65650500D01*
X34959307Y-65650500D01*
X34959309Y-65650500D01*
X35073886Y-65619799D01*
X35073888Y-65619797D01*
X35073890Y-65619797D01*
X35176608Y-65560492D01*
X35176608Y-65560491D01*
X35176613Y-65560489D01*
X35260489Y-65476613D01*
X35260492Y-65476608D01*
X35319797Y-65373890D01*
X35319797Y-65373888D01*
X35319799Y-65373886D01*
X35350500Y-65259309D01*
X35350500Y-65140691D01*
X35319799Y-65026114D01*
X35319797Y-65026111D01*
X35319797Y-65026109D01*
X35260492Y-64923391D01*
X35260490Y-64923389D01*
X35260489Y-64923387D01*
X35176613Y-64839511D01*
X35176610Y-64839509D01*
X35176608Y-64839507D01*
X35109377Y-64800691D01*
X39449500Y-64800691D01*
X39449500Y-64919309D01*
X39476574Y-65020351D01*
X39480202Y-65033890D01*
X39539507Y-65136608D01*
X39539509Y-65136610D01*
X39539511Y-65136613D01*
X39623387Y-65220489D01*
X39623389Y-65220490D01*
X39623391Y-65220492D01*
X39726110Y-65279797D01*
X39726111Y-65279797D01*
X39726114Y-65279799D01*
X39840691Y-65310500D01*
X39840693Y-65310500D01*
X39959307Y-65310500D01*
X39959309Y-65310500D01*
X40073886Y-65279799D01*
X40073888Y-65279797D01*
X40073890Y-65279797D01*
X40176608Y-65220492D01*
X40176608Y-65220491D01*
X40176613Y-65220489D01*
X40260489Y-65136613D01*
X40297023Y-65073335D01*
X40319797Y-65033890D01*
X40319797Y-65033888D01*
X40319799Y-65033886D01*
X40350500Y-64919309D01*
X40350500Y-64800691D01*
X59799500Y-64800691D01*
X59799500Y-64919309D01*
X59826574Y-65020351D01*
X59830202Y-65033890D01*
X59889507Y-65136608D01*
X59889509Y-65136610D01*
X59889511Y-65136613D01*
X59973387Y-65220489D01*
X59973389Y-65220490D01*
X59973391Y-65220492D01*
X60076110Y-65279797D01*
X60076111Y-65279797D01*
X60076114Y-65279799D01*
X60190691Y-65310500D01*
X60190693Y-65310500D01*
X60309307Y-65310500D01*
X60309309Y-65310500D01*
X60423886Y-65279799D01*
X60423888Y-65279797D01*
X60423890Y-65279797D01*
X60526608Y-65220492D01*
X60526608Y-65220491D01*
X60526613Y-65220489D01*
X60610489Y-65136613D01*
X60647023Y-65073335D01*
X60669797Y-65033890D01*
X60669797Y-65033888D01*
X60669799Y-65033886D01*
X60682485Y-64986542D01*
X63438200Y-64986542D01*
X63438200Y-65133457D01*
X63466860Y-65277541D01*
X63466860Y-65277543D01*
X63523078Y-65413266D01*
X63523078Y-65413267D01*
X63551658Y-65456039D01*
X63604699Y-65535420D01*
X63708580Y-65639301D01*
X63830731Y-65720920D01*
X63966458Y-65777140D01*
X64110545Y-65805800D01*
X64110547Y-65805800D01*
X64257453Y-65805800D01*
X64257455Y-65805800D01*
X64401542Y-65777140D01*
X64537269Y-65720920D01*
X64659420Y-65639301D01*
X64763301Y-65535420D01*
X64844920Y-65413269D01*
X64901140Y-65277542D01*
X64929800Y-65133455D01*
X64929800Y-64986545D01*
X64929799Y-64986542D01*
X65470200Y-64986542D01*
X65470200Y-65133457D01*
X65498860Y-65277541D01*
X65498860Y-65277543D01*
X65555078Y-65413266D01*
X65555078Y-65413267D01*
X65583658Y-65456039D01*
X65636699Y-65535420D01*
X65740580Y-65639301D01*
X65862731Y-65720920D01*
X65998458Y-65777140D01*
X66142545Y-65805800D01*
X66142547Y-65805800D01*
X66289453Y-65805800D01*
X66289455Y-65805800D01*
X66433542Y-65777140D01*
X66569269Y-65720920D01*
X66680815Y-65646387D01*
X72350434Y-65646387D01*
X72350434Y-65778171D01*
X72370588Y-65853387D01*
X72384543Y-65905469D01*
X72450430Y-66019588D01*
X72450432Y-66019590D01*
X72450434Y-66019593D01*
X72543620Y-66112779D01*
X72543622Y-66112780D01*
X72543624Y-66112782D01*
X72657744Y-66178669D01*
X72657742Y-66178669D01*
X72657746Y-66178670D01*
X72657748Y-66178671D01*
X72785042Y-66212779D01*
X72785044Y-66212779D01*
X72916824Y-66212779D01*
X72916826Y-66212779D01*
X73044120Y-66178671D01*
X73044122Y-66178669D01*
X73044124Y-66178669D01*
X73158243Y-66112782D01*
X73158243Y-66112781D01*
X73158248Y-66112779D01*
X73251434Y-66019593D01*
X73317326Y-65905465D01*
X73351434Y-65778171D01*
X73351434Y-65646387D01*
X73317326Y-65519093D01*
X73317324Y-65519090D01*
X73317324Y-65519088D01*
X73251437Y-65404969D01*
X73251435Y-65404967D01*
X73251434Y-65404965D01*
X73158248Y-65311779D01*
X73158245Y-65311777D01*
X73158243Y-65311775D01*
X73044123Y-65245888D01*
X73044125Y-65245888D01*
X72994733Y-65232654D01*
X72916826Y-65211779D01*
X72785042Y-65211779D01*
X72707134Y-65232654D01*
X72657743Y-65245888D01*
X72543624Y-65311775D01*
X72450430Y-65404969D01*
X72384543Y-65519088D01*
X72380167Y-65535420D01*
X72350434Y-65646387D01*
X66680815Y-65646387D01*
X66691420Y-65639301D01*
X66795301Y-65535420D01*
X66876920Y-65413269D01*
X66933140Y-65277542D01*
X66961800Y-65133455D01*
X66961800Y-64986545D01*
X66933140Y-64842458D01*
X66876921Y-64706733D01*
X66876921Y-64706732D01*
X66805938Y-64600500D01*
X66795301Y-64584580D01*
X66691420Y-64480699D01*
X66569269Y-64399080D01*
X66569268Y-64399079D01*
X66569266Y-64399078D01*
X66433542Y-64342860D01*
X66289457Y-64314200D01*
X66289455Y-64314200D01*
X66142545Y-64314200D01*
X66142542Y-64314200D01*
X65998458Y-64342860D01*
X65998456Y-64342860D01*
X65862733Y-64399078D01*
X65862732Y-64399078D01*
X65740580Y-64480699D01*
X65740576Y-64480702D01*
X65636702Y-64584576D01*
X65636699Y-64584580D01*
X65555078Y-64706732D01*
X65555078Y-64706733D01*
X65498860Y-64842456D01*
X65498860Y-64842458D01*
X65470200Y-64986542D01*
X64929799Y-64986542D01*
X64901140Y-64842458D01*
X64844921Y-64706733D01*
X64844921Y-64706732D01*
X64773938Y-64600500D01*
X64763301Y-64584580D01*
X64659420Y-64480699D01*
X64537269Y-64399080D01*
X64537268Y-64399079D01*
X64537266Y-64399078D01*
X64401542Y-64342860D01*
X64257457Y-64314200D01*
X64257455Y-64314200D01*
X64110545Y-64314200D01*
X64110542Y-64314200D01*
X63966458Y-64342860D01*
X63966456Y-64342860D01*
X63830733Y-64399078D01*
X63830732Y-64399078D01*
X63708580Y-64480699D01*
X63708576Y-64480702D01*
X63604702Y-64584576D01*
X63604699Y-64584580D01*
X63523078Y-64706732D01*
X63523078Y-64706733D01*
X63466860Y-64842456D01*
X63466860Y-64842458D01*
X63438200Y-64986542D01*
X60682485Y-64986542D01*
X60700500Y-64919309D01*
X60700500Y-64800691D01*
X60669799Y-64686114D01*
X60669797Y-64686111D01*
X60669797Y-64686109D01*
X60610492Y-64583391D01*
X60610490Y-64583389D01*
X60610489Y-64583387D01*
X60526613Y-64499511D01*
X60526610Y-64499509D01*
X60526608Y-64499507D01*
X60423889Y-64440202D01*
X60423890Y-64440202D01*
X60410351Y-64436574D01*
X60309309Y-64409500D01*
X60190691Y-64409500D01*
X60126825Y-64426613D01*
X60076109Y-64440202D01*
X59973391Y-64499507D01*
X59889507Y-64583391D01*
X59830202Y-64686109D01*
X59824676Y-64706732D01*
X59799500Y-64800691D01*
X40350500Y-64800691D01*
X40319799Y-64686114D01*
X40319797Y-64686111D01*
X40319797Y-64686109D01*
X40260492Y-64583391D01*
X40260490Y-64583389D01*
X40260489Y-64583387D01*
X40176613Y-64499511D01*
X40176610Y-64499509D01*
X40176608Y-64499507D01*
X40073889Y-64440202D01*
X40073890Y-64440202D01*
X40060351Y-64436574D01*
X39959309Y-64409500D01*
X39840691Y-64409500D01*
X39776825Y-64426613D01*
X39726109Y-64440202D01*
X39623391Y-64499507D01*
X39539507Y-64583391D01*
X39480202Y-64686109D01*
X39474676Y-64706732D01*
X39449500Y-64800691D01*
X35109377Y-64800691D01*
X35073889Y-64780202D01*
X35073890Y-64780202D01*
X35060351Y-64776574D01*
X34959309Y-64749500D01*
X34840691Y-64749500D01*
X34770567Y-64768289D01*
X34726109Y-64780202D01*
X34623391Y-64839507D01*
X34539507Y-64923391D01*
X34480202Y-65026109D01*
X34480201Y-65026114D01*
X34449500Y-65140691D01*
X25623557Y-65140691D01*
X25431443Y-64828695D01*
X25430353Y-64826883D01*
X25359871Y-64706733D01*
X25111111Y-64282673D01*
X25110535Y-64281676D01*
X24910308Y-63929544D01*
X24909184Y-63927511D01*
X24876438Y-63866608D01*
X24711051Y-63559010D01*
X24705923Y-63530691D01*
X39049500Y-63530691D01*
X39049500Y-63649309D01*
X39058330Y-63682261D01*
X39080202Y-63763890D01*
X39139507Y-63866608D01*
X39139509Y-63866610D01*
X39139511Y-63866613D01*
X39223387Y-63950489D01*
X39223389Y-63950490D01*
X39223391Y-63950492D01*
X39326110Y-64009797D01*
X39326111Y-64009797D01*
X39326114Y-64009799D01*
X39440691Y-64040500D01*
X39440693Y-64040500D01*
X39559307Y-64040500D01*
X39559309Y-64040500D01*
X39673886Y-64009799D01*
X39673888Y-64009797D01*
X39673890Y-64009797D01*
X39776608Y-63950492D01*
X39776608Y-63950491D01*
X39776613Y-63950489D01*
X39860489Y-63866613D01*
X39883912Y-63826044D01*
X39919797Y-63763890D01*
X39919797Y-63763888D01*
X39919799Y-63763886D01*
X39950500Y-63649309D01*
X39950500Y-63530691D01*
X60499500Y-63530691D01*
X60499500Y-63649309D01*
X60508330Y-63682261D01*
X60530202Y-63763890D01*
X60589507Y-63866608D01*
X60589509Y-63866610D01*
X60589511Y-63866613D01*
X60673387Y-63950489D01*
X60673389Y-63950490D01*
X60673391Y-63950492D01*
X60776110Y-64009797D01*
X60776111Y-64009797D01*
X60776114Y-64009799D01*
X60890691Y-64040500D01*
X60890693Y-64040500D01*
X61009307Y-64040500D01*
X61009309Y-64040500D01*
X61123886Y-64009799D01*
X61123888Y-64009797D01*
X61123890Y-64009797D01*
X61226608Y-63950492D01*
X61226608Y-63950491D01*
X61226613Y-63950489D01*
X61310489Y-63866613D01*
X61333912Y-63826044D01*
X61369797Y-63763890D01*
X61369797Y-63763888D01*
X61369799Y-63763886D01*
X61400500Y-63649309D01*
X61400500Y-63530691D01*
X61369799Y-63416114D01*
X61369797Y-63416111D01*
X61369797Y-63416109D01*
X61310492Y-63313391D01*
X61310490Y-63313389D01*
X61310489Y-63313387D01*
X61226613Y-63229511D01*
X61226610Y-63229509D01*
X61226608Y-63229507D01*
X61123889Y-63170202D01*
X61123890Y-63170202D01*
X61110351Y-63166574D01*
X61009309Y-63139500D01*
X60890691Y-63139500D01*
X60820567Y-63158289D01*
X60776109Y-63170202D01*
X60673391Y-63229507D01*
X60589507Y-63313391D01*
X60530202Y-63416109D01*
X60530201Y-63416114D01*
X60499500Y-63530691D01*
X39950500Y-63530691D01*
X39919799Y-63416114D01*
X39919797Y-63416111D01*
X39919797Y-63416109D01*
X39860492Y-63313391D01*
X39860490Y-63313389D01*
X39860489Y-63313387D01*
X39776613Y-63229511D01*
X39776610Y-63229509D01*
X39776608Y-63229507D01*
X39673889Y-63170202D01*
X39673890Y-63170202D01*
X39660351Y-63166574D01*
X39559309Y-63139500D01*
X39440691Y-63139500D01*
X39370567Y-63158289D01*
X39326109Y-63170202D01*
X39223391Y-63229507D01*
X39139507Y-63313391D01*
X39080202Y-63416109D01*
X39080201Y-63416114D01*
X39049500Y-63530691D01*
X24705923Y-63530691D01*
X24700149Y-63498806D01*
X24726716Y-63443690D01*
X24751765Y-63424722D01*
X26940992Y-62260691D01*
X38349500Y-62260691D01*
X38349500Y-62379309D01*
X38376574Y-62480351D01*
X38380202Y-62493890D01*
X38439507Y-62596608D01*
X38439509Y-62596610D01*
X38439511Y-62596613D01*
X38523387Y-62680489D01*
X38523389Y-62680490D01*
X38523391Y-62680492D01*
X38626110Y-62739797D01*
X38626111Y-62739797D01*
X38626114Y-62739799D01*
X38740691Y-62770500D01*
X38740693Y-62770500D01*
X38859307Y-62770500D01*
X38859309Y-62770500D01*
X38973886Y-62739799D01*
X38973888Y-62739797D01*
X38973890Y-62739797D01*
X39076608Y-62680492D01*
X39076608Y-62680491D01*
X39076613Y-62680489D01*
X39160489Y-62596613D01*
X39219799Y-62493886D01*
X39250500Y-62379309D01*
X39250500Y-62260691D01*
X59799500Y-62260691D01*
X59799500Y-62379309D01*
X59826574Y-62480351D01*
X59830202Y-62493890D01*
X59889507Y-62596608D01*
X59889509Y-62596610D01*
X59889511Y-62596613D01*
X59973387Y-62680489D01*
X59973389Y-62680490D01*
X59973391Y-62680492D01*
X60076110Y-62739797D01*
X60076111Y-62739797D01*
X60076114Y-62739799D01*
X60190691Y-62770500D01*
X60190693Y-62770500D01*
X60309307Y-62770500D01*
X60309309Y-62770500D01*
X60423886Y-62739799D01*
X60423888Y-62739797D01*
X60423890Y-62739797D01*
X60526608Y-62680492D01*
X60526608Y-62680491D01*
X60526613Y-62680489D01*
X60610489Y-62596613D01*
X60669799Y-62493886D01*
X60700500Y-62379309D01*
X60700500Y-62260691D01*
X60669799Y-62146114D01*
X60669797Y-62146111D01*
X60669797Y-62146109D01*
X60610492Y-62043391D01*
X60610490Y-62043389D01*
X60610489Y-62043387D01*
X60526613Y-61959511D01*
X60526610Y-61959509D01*
X60526608Y-61959507D01*
X60423889Y-61900202D01*
X60423890Y-61900202D01*
X60410351Y-61896574D01*
X60309309Y-61869500D01*
X60190691Y-61869500D01*
X60142578Y-61882392D01*
X60076109Y-61900202D01*
X59973391Y-61959507D01*
X59889507Y-62043391D01*
X59830202Y-62146109D01*
X59830201Y-62146114D01*
X59799500Y-62260691D01*
X39250500Y-62260691D01*
X39219799Y-62146114D01*
X39219797Y-62146111D01*
X39219797Y-62146109D01*
X39160492Y-62043391D01*
X39160490Y-62043389D01*
X39160489Y-62043387D01*
X39076613Y-61959511D01*
X39076610Y-61959509D01*
X39076608Y-61959507D01*
X38973889Y-61900202D01*
X38973890Y-61900202D01*
X38960351Y-61896574D01*
X38859309Y-61869500D01*
X38740691Y-61869500D01*
X38692578Y-61882392D01*
X38626109Y-61900202D01*
X38523391Y-61959507D01*
X38439507Y-62043391D01*
X38380202Y-62146109D01*
X38380201Y-62146114D01*
X38349500Y-62260691D01*
X26940992Y-62260691D01*
X27573131Y-61924577D01*
X27573130Y-61924576D01*
X27573131Y-61924576D01*
X27107150Y-61003424D01*
X27105404Y-60999791D01*
X27072600Y-60927809D01*
X27007111Y-60784108D01*
X34399500Y-60784108D01*
X34399500Y-60915892D01*
X34422471Y-61001623D01*
X34433609Y-61043190D01*
X34499496Y-61157309D01*
X34499498Y-61157311D01*
X34499500Y-61157314D01*
X34592686Y-61250500D01*
X34592688Y-61250501D01*
X34592690Y-61250503D01*
X34706810Y-61316390D01*
X34706808Y-61316390D01*
X34706812Y-61316391D01*
X34706814Y-61316392D01*
X34834108Y-61350500D01*
X34834110Y-61350500D01*
X34965890Y-61350500D01*
X34965892Y-61350500D01*
X35093186Y-61316392D01*
X35093188Y-61316390D01*
X35093190Y-61316390D01*
X35207309Y-61250503D01*
X35207309Y-61250502D01*
X35207314Y-61250500D01*
X35300500Y-61157314D01*
X35328217Y-61109307D01*
X35366390Y-61043190D01*
X35366390Y-61043188D01*
X35366392Y-61043186D01*
X35380458Y-60990691D01*
X60499500Y-60990691D01*
X60499500Y-61109309D01*
X60526574Y-61210351D01*
X60530202Y-61223890D01*
X60589507Y-61326608D01*
X60589509Y-61326610D01*
X60589511Y-61326613D01*
X60673387Y-61410489D01*
X60673389Y-61410490D01*
X60673391Y-61410492D01*
X60776110Y-61469797D01*
X60776111Y-61469797D01*
X60776114Y-61469799D01*
X60890691Y-61500500D01*
X60890693Y-61500500D01*
X61009307Y-61500500D01*
X61009309Y-61500500D01*
X61123886Y-61469799D01*
X61123888Y-61469797D01*
X61123890Y-61469797D01*
X61226608Y-61410492D01*
X61226608Y-61410491D01*
X61226613Y-61410489D01*
X61310489Y-61326613D01*
X61316391Y-61316390D01*
X61369797Y-61223890D01*
X61369797Y-61223888D01*
X61369799Y-61223886D01*
X61400500Y-61109309D01*
X61400500Y-61055108D01*
X70571500Y-61055108D01*
X70571500Y-61186892D01*
X70601579Y-61299151D01*
X70605609Y-61314190D01*
X70671496Y-61428309D01*
X70671498Y-61428311D01*
X70671500Y-61428314D01*
X70764686Y-61521500D01*
X70764688Y-61521501D01*
X70764690Y-61521503D01*
X70878810Y-61587390D01*
X70878808Y-61587390D01*
X70878812Y-61587391D01*
X70878814Y-61587392D01*
X71006108Y-61621500D01*
X71006110Y-61621500D01*
X71137890Y-61621500D01*
X71137892Y-61621500D01*
X71265186Y-61587392D01*
X71265188Y-61587390D01*
X71265190Y-61587390D01*
X71379309Y-61521503D01*
X71379309Y-61521502D01*
X71379314Y-61521500D01*
X71472500Y-61428314D01*
X71517426Y-61350500D01*
X71538390Y-61314190D01*
X71538390Y-61314188D01*
X71538392Y-61314186D01*
X71572500Y-61186892D01*
X71572500Y-61055108D01*
X71538392Y-60927814D01*
X71538390Y-60927811D01*
X71538390Y-60927809D01*
X71472503Y-60813690D01*
X71472501Y-60813688D01*
X71472500Y-60813686D01*
X71379314Y-60720500D01*
X71379311Y-60720498D01*
X71379309Y-60720496D01*
X71265189Y-60654609D01*
X71265191Y-60654609D01*
X71210343Y-60639913D01*
X71137892Y-60620500D01*
X71006108Y-60620500D01*
X70933657Y-60639913D01*
X70878809Y-60654609D01*
X70764690Y-60720496D01*
X70671496Y-60813690D01*
X70605609Y-60927809D01*
X70588760Y-60990691D01*
X70571500Y-61055108D01*
X61400500Y-61055108D01*
X61400500Y-60990691D01*
X61369799Y-60876114D01*
X61369797Y-60876111D01*
X61369797Y-60876109D01*
X61310492Y-60773391D01*
X61310490Y-60773389D01*
X61310489Y-60773387D01*
X61226613Y-60689511D01*
X61226610Y-60689509D01*
X61226608Y-60689507D01*
X61123889Y-60630202D01*
X61123890Y-60630202D01*
X61110351Y-60626574D01*
X61009309Y-60599500D01*
X60890691Y-60599500D01*
X60820567Y-60618289D01*
X60776109Y-60630202D01*
X60673391Y-60689507D01*
X60589507Y-60773391D01*
X60530202Y-60876109D01*
X60516349Y-60927809D01*
X60499500Y-60990691D01*
X35380458Y-60990691D01*
X35400500Y-60915892D01*
X35400500Y-60784108D01*
X35366392Y-60656814D01*
X35366390Y-60656811D01*
X35366390Y-60656809D01*
X35300503Y-60542690D01*
X35300501Y-60542688D01*
X35300500Y-60542686D01*
X35207314Y-60449500D01*
X35207311Y-60449498D01*
X35207309Y-60449496D01*
X35093189Y-60383609D01*
X35093191Y-60383609D01*
X35043799Y-60370375D01*
X34965892Y-60349500D01*
X34834108Y-60349500D01*
X34756200Y-60370375D01*
X34706809Y-60383609D01*
X34592690Y-60449496D01*
X34499496Y-60542690D01*
X34433609Y-60656809D01*
X34425018Y-60688871D01*
X34399500Y-60784108D01*
X27007111Y-60784108D01*
X26678143Y-60062255D01*
X26676550Y-60058561D01*
X26675836Y-60056809D01*
X26287803Y-59104378D01*
X26286387Y-59100688D01*
X26190237Y-58834108D01*
X32499500Y-58834108D01*
X32499500Y-58965892D01*
X32517778Y-59034108D01*
X32533609Y-59093190D01*
X32599496Y-59207309D01*
X32599498Y-59207311D01*
X32599500Y-59207314D01*
X32692686Y-59300500D01*
X32692688Y-59300501D01*
X32692690Y-59300503D01*
X32806810Y-59366390D01*
X32806808Y-59366390D01*
X32806812Y-59366391D01*
X32806814Y-59366392D01*
X32934108Y-59400500D01*
X32934110Y-59400500D01*
X33065890Y-59400500D01*
X33065892Y-59400500D01*
X33193186Y-59366392D01*
X33193188Y-59366390D01*
X33193190Y-59366390D01*
X33307309Y-59300503D01*
X33307309Y-59300502D01*
X33307314Y-59300500D01*
X33400500Y-59207314D01*
X33400503Y-59207309D01*
X33413898Y-59184108D01*
X50319500Y-59184108D01*
X50319500Y-59315892D01*
X50343995Y-59407309D01*
X50353609Y-59443190D01*
X50419496Y-59557309D01*
X50419498Y-59557311D01*
X50419500Y-59557314D01*
X50512686Y-59650500D01*
X50512688Y-59650501D01*
X50512690Y-59650503D01*
X50626810Y-59716390D01*
X50626808Y-59716390D01*
X50626812Y-59716391D01*
X50626814Y-59716392D01*
X50754108Y-59750500D01*
X50754110Y-59750500D01*
X50885890Y-59750500D01*
X50885892Y-59750500D01*
X51013186Y-59716392D01*
X51013188Y-59716390D01*
X51013190Y-59716390D01*
X51127309Y-59650503D01*
X51127309Y-59650502D01*
X51127314Y-59650500D01*
X51220500Y-59557314D01*
X51286392Y-59443186D01*
X51320500Y-59315892D01*
X51320500Y-59184108D01*
X55699500Y-59184108D01*
X55699500Y-59315892D01*
X55723995Y-59407309D01*
X55733609Y-59443190D01*
X55799496Y-59557309D01*
X55799498Y-59557311D01*
X55799500Y-59557314D01*
X55892686Y-59650500D01*
X55892688Y-59650501D01*
X55892690Y-59650503D01*
X56006810Y-59716390D01*
X56006808Y-59716390D01*
X56006812Y-59716391D01*
X56006814Y-59716392D01*
X56134108Y-59750500D01*
X56134110Y-59750500D01*
X56265890Y-59750500D01*
X56265892Y-59750500D01*
X56377142Y-59720691D01*
X59799500Y-59720691D01*
X59799500Y-59839309D01*
X59802230Y-59849496D01*
X59830202Y-59953890D01*
X59889507Y-60056608D01*
X59889509Y-60056610D01*
X59889511Y-60056613D01*
X59973387Y-60140489D01*
X59973389Y-60140490D01*
X59973391Y-60140492D01*
X60076110Y-60199797D01*
X60076111Y-60199797D01*
X60076114Y-60199799D01*
X60190691Y-60230500D01*
X60190693Y-60230500D01*
X60309307Y-60230500D01*
X60309309Y-60230500D01*
X60423886Y-60199799D01*
X60423888Y-60199797D01*
X60423890Y-60199797D01*
X60451064Y-60184108D01*
X66849500Y-60184108D01*
X66849500Y-60315892D01*
X66867644Y-60383608D01*
X66883609Y-60443190D01*
X66949496Y-60557309D01*
X66949498Y-60557311D01*
X66949500Y-60557314D01*
X67042686Y-60650500D01*
X67042688Y-60650501D01*
X67042690Y-60650503D01*
X67156810Y-60716390D01*
X67156808Y-60716390D01*
X67156812Y-60716391D01*
X67156814Y-60716392D01*
X67284108Y-60750500D01*
X67284110Y-60750500D01*
X67415890Y-60750500D01*
X67415892Y-60750500D01*
X67543186Y-60716392D01*
X67653616Y-60652634D01*
X67713464Y-60639913D01*
X67769359Y-60664799D01*
X67788852Y-60688871D01*
X67839507Y-60776608D01*
X67839509Y-60776610D01*
X67839511Y-60776613D01*
X67923387Y-60860489D01*
X67923389Y-60860490D01*
X67923391Y-60860492D01*
X68026110Y-60919797D01*
X68026111Y-60919797D01*
X68026114Y-60919799D01*
X68140691Y-60950500D01*
X68140693Y-60950500D01*
X68259307Y-60950500D01*
X68259309Y-60950500D01*
X68373886Y-60919799D01*
X68373888Y-60919797D01*
X68373890Y-60919797D01*
X68476608Y-60860492D01*
X68476608Y-60860491D01*
X68476613Y-60860489D01*
X68560489Y-60776613D01*
X68575255Y-60751038D01*
X68619797Y-60673890D01*
X68619797Y-60673888D01*
X68619799Y-60673886D01*
X68650500Y-60559309D01*
X68650500Y-60440691D01*
X68619799Y-60326114D01*
X68619797Y-60326111D01*
X68619797Y-60326109D01*
X68560492Y-60223391D01*
X68560490Y-60223389D01*
X68560489Y-60223387D01*
X68476613Y-60139511D01*
X68476610Y-60139509D01*
X68476608Y-60139507D01*
X68373889Y-60080202D01*
X68373890Y-60080202D01*
X68360351Y-60076574D01*
X68259309Y-60049500D01*
X68140691Y-60049500D01*
X68099915Y-60060426D01*
X68026112Y-60080201D01*
X67961650Y-60117419D01*
X67901801Y-60130140D01*
X67845906Y-60105253D01*
X67819688Y-60062468D01*
X67818874Y-60062806D01*
X67816745Y-60057667D01*
X67816523Y-60057304D01*
X67816392Y-60056814D01*
X67816273Y-60056608D01*
X67750503Y-59942690D01*
X67750501Y-59942688D01*
X67750500Y-59942686D01*
X67657314Y-59849500D01*
X67657311Y-59849498D01*
X67657309Y-59849496D01*
X67543189Y-59783609D01*
X67543191Y-59783609D01*
X67493799Y-59770375D01*
X67415892Y-59749500D01*
X67284108Y-59749500D01*
X67206200Y-59770375D01*
X67156809Y-59783609D01*
X67042690Y-59849496D01*
X66949496Y-59942690D01*
X66883609Y-60056809D01*
X66877341Y-60080202D01*
X66849500Y-60184108D01*
X60451064Y-60184108D01*
X60526608Y-60140492D01*
X60526608Y-60140491D01*
X60526613Y-60140489D01*
X60610489Y-60056613D01*
X60669799Y-59953886D01*
X60700500Y-59839309D01*
X60700500Y-59720691D01*
X60669799Y-59606114D01*
X60669797Y-59606111D01*
X60669797Y-59606109D01*
X60610492Y-59503391D01*
X60610490Y-59503389D01*
X60610489Y-59503387D01*
X60526613Y-59419511D01*
X60526610Y-59419509D01*
X60526608Y-59419507D01*
X60423889Y-59360202D01*
X60423890Y-59360202D01*
X60410351Y-59356574D01*
X60309309Y-59329500D01*
X60190691Y-59329500D01*
X60120567Y-59348289D01*
X60076109Y-59360202D01*
X59973391Y-59419507D01*
X59889507Y-59503391D01*
X59830202Y-59606109D01*
X59830201Y-59606114D01*
X59799500Y-59720691D01*
X56377142Y-59720691D01*
X56393186Y-59716392D01*
X56393188Y-59716390D01*
X56393190Y-59716390D01*
X56507309Y-59650503D01*
X56507309Y-59650502D01*
X56507314Y-59650500D01*
X56600500Y-59557314D01*
X56666392Y-59443186D01*
X56700500Y-59315892D01*
X56700500Y-59184108D01*
X56666392Y-59056814D01*
X56666389Y-59056808D01*
X56653283Y-59034108D01*
X64049500Y-59034108D01*
X64049500Y-59165892D01*
X64060598Y-59207309D01*
X64083609Y-59293190D01*
X64149496Y-59407309D01*
X64149498Y-59407311D01*
X64149500Y-59407314D01*
X64242686Y-59500500D01*
X64242688Y-59500501D01*
X64242690Y-59500503D01*
X64356810Y-59566390D01*
X64356808Y-59566390D01*
X64356812Y-59566391D01*
X64356814Y-59566392D01*
X64484108Y-59600500D01*
X64484110Y-59600500D01*
X64615890Y-59600500D01*
X64615892Y-59600500D01*
X64743186Y-59566392D01*
X64743188Y-59566390D01*
X64743190Y-59566390D01*
X64857309Y-59500503D01*
X64857309Y-59500502D01*
X64857314Y-59500500D01*
X64950500Y-59407314D01*
X64954434Y-59400500D01*
X65016390Y-59293190D01*
X65016390Y-59293188D01*
X65016392Y-59293186D01*
X65050500Y-59165892D01*
X65050500Y-59034108D01*
X65016392Y-58906814D01*
X65016390Y-58906811D01*
X65016390Y-58906809D01*
X64950503Y-58792690D01*
X64950501Y-58792688D01*
X64950500Y-58792686D01*
X64857314Y-58699500D01*
X64857311Y-58699498D01*
X64857309Y-58699496D01*
X64743189Y-58633609D01*
X64743191Y-58633609D01*
X64693799Y-58620375D01*
X64615892Y-58599500D01*
X64484108Y-58599500D01*
X64406200Y-58620375D01*
X64356809Y-58633609D01*
X64242690Y-58699496D01*
X64149496Y-58792690D01*
X64083609Y-58906809D01*
X64083608Y-58906814D01*
X64049500Y-59034108D01*
X56653283Y-59034108D01*
X56600503Y-58942690D01*
X56600501Y-58942688D01*
X56600500Y-58942686D01*
X56507314Y-58849500D01*
X56507311Y-58849498D01*
X56507309Y-58849496D01*
X56393189Y-58783609D01*
X56393191Y-58783609D01*
X56343799Y-58770375D01*
X56265892Y-58749500D01*
X56134108Y-58749500D01*
X56056200Y-58770375D01*
X56006809Y-58783609D01*
X55892690Y-58849496D01*
X55799496Y-58942690D01*
X55733609Y-59056809D01*
X55720853Y-59104415D01*
X55699500Y-59184108D01*
X51320500Y-59184108D01*
X51286392Y-59056814D01*
X51286390Y-59056811D01*
X51286390Y-59056809D01*
X51220503Y-58942690D01*
X51220501Y-58942688D01*
X51220500Y-58942686D01*
X51127314Y-58849500D01*
X51127311Y-58849498D01*
X51127309Y-58849496D01*
X51013189Y-58783609D01*
X51013191Y-58783609D01*
X50963799Y-58770375D01*
X50885892Y-58749500D01*
X50754108Y-58749500D01*
X50676200Y-58770375D01*
X50626809Y-58783609D01*
X50512690Y-58849496D01*
X50419496Y-58942690D01*
X50353609Y-59056809D01*
X50340853Y-59104415D01*
X50319500Y-59184108D01*
X33413898Y-59184108D01*
X33446224Y-59128119D01*
X33466390Y-59093190D01*
X33466390Y-59093188D01*
X33466392Y-59093186D01*
X33500500Y-58965892D01*
X33500500Y-58834108D01*
X33466392Y-58706814D01*
X33466390Y-58706811D01*
X33466390Y-58706809D01*
X33400503Y-58592690D01*
X33400501Y-58592688D01*
X33400500Y-58592686D01*
X33307314Y-58499500D01*
X33307311Y-58499498D01*
X33307309Y-58499496D01*
X33193189Y-58433609D01*
X33193191Y-58433609D01*
X33143799Y-58420375D01*
X33065892Y-58399500D01*
X32934108Y-58399500D01*
X32856200Y-58420375D01*
X32806809Y-58433609D01*
X32692690Y-58499496D01*
X32599496Y-58592690D01*
X32533609Y-58706809D01*
X32533608Y-58706814D01*
X32499500Y-58834108D01*
X26190237Y-58834108D01*
X25936801Y-58131445D01*
X25935517Y-58127644D01*
X25895429Y-58000500D01*
X25716846Y-57434108D01*
X32999500Y-57434108D01*
X32999500Y-57565892D01*
X33029579Y-57678151D01*
X33033609Y-57693190D01*
X33099496Y-57807309D01*
X33099498Y-57807311D01*
X33099500Y-57807314D01*
X33192686Y-57900500D01*
X33192688Y-57900501D01*
X33192690Y-57900503D01*
X33306810Y-57966390D01*
X33306808Y-57966390D01*
X33306812Y-57966391D01*
X33306814Y-57966392D01*
X33434108Y-58000500D01*
X33434110Y-58000500D01*
X33565890Y-58000500D01*
X33565892Y-58000500D01*
X33693186Y-57966392D01*
X33693188Y-57966390D01*
X33693190Y-57966390D01*
X33807309Y-57900503D01*
X33807309Y-57900502D01*
X33807314Y-57900500D01*
X33900500Y-57807314D01*
X33966392Y-57693186D01*
X34000500Y-57565892D01*
X34000500Y-57434108D01*
X33966392Y-57306814D01*
X33966390Y-57306811D01*
X33966390Y-57306809D01*
X33900503Y-57192690D01*
X33900501Y-57192688D01*
X33900500Y-57192686D01*
X33807314Y-57099500D01*
X33807311Y-57099498D01*
X33807309Y-57099496D01*
X33693189Y-57033609D01*
X33693191Y-57033609D01*
X33643799Y-57020375D01*
X33565892Y-56999500D01*
X33434108Y-56999500D01*
X33356200Y-57020375D01*
X33306809Y-57033609D01*
X33192690Y-57099496D01*
X33099496Y-57192690D01*
X33033609Y-57306809D01*
X33033608Y-57306814D01*
X32999500Y-57434108D01*
X25716846Y-57434108D01*
X25625696Y-57145016D01*
X25624577Y-57141200D01*
X25487120Y-56634108D01*
X38549500Y-56634108D01*
X38549500Y-56765892D01*
X38572171Y-56850503D01*
X38583609Y-56893190D01*
X38649496Y-57007309D01*
X38649498Y-57007311D01*
X38649500Y-57007314D01*
X38742686Y-57100500D01*
X38742688Y-57100501D01*
X38742690Y-57100503D01*
X38856810Y-57166390D01*
X38856808Y-57166390D01*
X38856812Y-57166391D01*
X38856814Y-57166392D01*
X38984108Y-57200500D01*
X38984110Y-57200500D01*
X39115890Y-57200500D01*
X39115892Y-57200500D01*
X39243186Y-57166392D01*
X39243188Y-57166390D01*
X39243190Y-57166390D01*
X39357309Y-57100503D01*
X39357309Y-57100502D01*
X39357314Y-57100500D01*
X39450500Y-57007314D01*
X39454434Y-57000500D01*
X39516390Y-56893190D01*
X39516390Y-56893188D01*
X39516392Y-56893186D01*
X39550500Y-56765892D01*
X39550500Y-56634108D01*
X39516392Y-56506814D01*
X39516390Y-56506811D01*
X39516390Y-56506809D01*
X39474416Y-56434108D01*
X61149500Y-56434108D01*
X61149500Y-56565892D01*
X61167778Y-56634108D01*
X61183609Y-56693190D01*
X61249496Y-56807309D01*
X61249498Y-56807311D01*
X61249500Y-56807314D01*
X61342686Y-56900500D01*
X61342688Y-56900501D01*
X61342690Y-56900503D01*
X61456810Y-56966390D01*
X61456808Y-56966390D01*
X61456812Y-56966391D01*
X61456814Y-56966392D01*
X61584108Y-57000500D01*
X61584110Y-57000500D01*
X61715890Y-57000500D01*
X61715892Y-57000500D01*
X61843186Y-56966392D01*
X61843188Y-56966390D01*
X61843190Y-56966390D01*
X61957309Y-56900503D01*
X61957309Y-56900502D01*
X61957314Y-56900500D01*
X62050500Y-56807314D01*
X62079368Y-56757314D01*
X62116390Y-56693190D01*
X62116390Y-56693188D01*
X62116392Y-56693186D01*
X62150500Y-56565892D01*
X62150500Y-56434108D01*
X62116392Y-56306814D01*
X62116390Y-56306811D01*
X62116390Y-56306809D01*
X62050503Y-56192690D01*
X62050501Y-56192688D01*
X62050500Y-56192686D01*
X61957314Y-56099500D01*
X61957311Y-56099498D01*
X61957309Y-56099496D01*
X61843189Y-56033609D01*
X61843191Y-56033609D01*
X61793799Y-56020375D01*
X61715892Y-55999500D01*
X61584108Y-55999500D01*
X61506200Y-56020375D01*
X61456809Y-56033609D01*
X61342690Y-56099496D01*
X61249496Y-56192690D01*
X61183609Y-56306809D01*
X61174211Y-56341883D01*
X61149500Y-56434108D01*
X39474416Y-56434108D01*
X39450503Y-56392690D01*
X39450501Y-56392688D01*
X39450500Y-56392686D01*
X39357314Y-56299500D01*
X39357311Y-56299498D01*
X39357309Y-56299496D01*
X39243189Y-56233609D01*
X39243191Y-56233609D01*
X39193799Y-56220375D01*
X39115892Y-56199500D01*
X38984108Y-56199500D01*
X38906200Y-56220375D01*
X38856809Y-56233609D01*
X38742690Y-56299496D01*
X38649496Y-56392690D01*
X38583609Y-56506809D01*
X38567779Y-56565890D01*
X38549500Y-56634108D01*
X25487120Y-56634108D01*
X25355012Y-56146750D01*
X25354038Y-56142841D01*
X25343140Y-56095004D01*
X25321384Y-55999500D01*
X25304684Y-55926191D01*
X25301153Y-55910691D01*
X41949500Y-55910691D01*
X41949500Y-56029309D01*
X41967103Y-56095004D01*
X41980202Y-56143890D01*
X42039507Y-56246608D01*
X42039509Y-56246610D01*
X42039511Y-56246613D01*
X42123387Y-56330489D01*
X42123389Y-56330490D01*
X42123391Y-56330492D01*
X42226110Y-56389797D01*
X42226111Y-56389797D01*
X42226114Y-56389799D01*
X42340691Y-56420500D01*
X42340693Y-56420500D01*
X42459307Y-56420500D01*
X42459309Y-56420500D01*
X42573886Y-56389799D01*
X42573888Y-56389797D01*
X42573890Y-56389797D01*
X42656870Y-56341888D01*
X42656879Y-56341883D01*
X42664556Y-56337450D01*
X42676613Y-56330489D01*
X42760489Y-56246613D01*
X42819799Y-56143886D01*
X42850500Y-56029309D01*
X42850500Y-55910691D01*
X42819799Y-55796114D01*
X42819797Y-55796111D01*
X42819797Y-55796109D01*
X42760492Y-55693391D01*
X42760490Y-55693389D01*
X42760489Y-55693387D01*
X42676613Y-55609511D01*
X42676610Y-55609509D01*
X42676608Y-55609507D01*
X42573889Y-55550202D01*
X42573890Y-55550202D01*
X42560351Y-55546574D01*
X42459309Y-55519500D01*
X42340691Y-55519500D01*
X42286174Y-55534108D01*
X42226109Y-55550202D01*
X42123391Y-55609507D01*
X42039507Y-55693391D01*
X41980202Y-55796109D01*
X41980201Y-55796114D01*
X41949500Y-55910691D01*
X25301153Y-55910691D01*
X25275050Y-55796109D01*
X25125184Y-55138243D01*
X25124386Y-55134373D01*
X25032887Y-54640691D01*
X41949500Y-54640691D01*
X41949500Y-54759309D01*
X41975793Y-54857436D01*
X41980202Y-54873890D01*
X42039507Y-54976608D01*
X42039509Y-54976610D01*
X42039511Y-54976613D01*
X42123387Y-55060489D01*
X42123389Y-55060490D01*
X42123391Y-55060492D01*
X42226110Y-55119797D01*
X42226111Y-55119797D01*
X42226114Y-55119799D01*
X42340691Y-55150500D01*
X42340693Y-55150500D01*
X42459307Y-55150500D01*
X42459309Y-55150500D01*
X42573886Y-55119799D01*
X42573888Y-55119797D01*
X42573890Y-55119797D01*
X42676608Y-55060492D01*
X42676608Y-55060491D01*
X42676613Y-55060489D01*
X42702994Y-55034108D01*
X49299500Y-55034108D01*
X49299500Y-55165892D01*
X49322433Y-55251479D01*
X49333609Y-55293190D01*
X49399496Y-55407309D01*
X49399498Y-55407311D01*
X49399500Y-55407314D01*
X49492686Y-55500500D01*
X49492688Y-55500501D01*
X49492690Y-55500503D01*
X49606810Y-55566390D01*
X49606808Y-55566390D01*
X49606812Y-55566391D01*
X49606814Y-55566392D01*
X49734108Y-55600500D01*
X49734110Y-55600500D01*
X49865890Y-55600500D01*
X49865892Y-55600500D01*
X49993186Y-55566392D01*
X49993188Y-55566390D01*
X49993190Y-55566390D01*
X50049104Y-55534108D01*
X66149500Y-55534108D01*
X66149500Y-55665892D01*
X66165158Y-55724328D01*
X66183609Y-55793190D01*
X66249496Y-55907309D01*
X66249498Y-55907311D01*
X66249500Y-55907314D01*
X66297184Y-55954998D01*
X66324960Y-56009513D01*
X66315389Y-56069945D01*
X66297185Y-56095000D01*
X66249500Y-56142686D01*
X66249497Y-56142689D01*
X66249496Y-56142690D01*
X66183609Y-56256809D01*
X66172170Y-56299500D01*
X66149500Y-56384108D01*
X66149500Y-56515892D01*
X66179579Y-56628151D01*
X66183609Y-56643190D01*
X66249496Y-56757309D01*
X66249498Y-56757311D01*
X66249500Y-56757314D01*
X66342686Y-56850500D01*
X66342688Y-56850501D01*
X66342690Y-56850503D01*
X66456810Y-56916390D01*
X66456808Y-56916390D01*
X66456812Y-56916391D01*
X66456814Y-56916392D01*
X66584108Y-56950500D01*
X66584110Y-56950500D01*
X66715890Y-56950500D01*
X66715892Y-56950500D01*
X66843186Y-56916392D01*
X66843188Y-56916390D01*
X66843190Y-56916390D01*
X66957309Y-56850503D01*
X66957309Y-56850502D01*
X66957314Y-56850500D01*
X67050500Y-56757314D01*
X67087522Y-56693190D01*
X67116390Y-56643190D01*
X67116390Y-56643188D01*
X67116392Y-56643186D01*
X67150500Y-56515892D01*
X67150500Y-56384108D01*
X67116392Y-56256814D01*
X67116390Y-56256811D01*
X67116390Y-56256809D01*
X67050503Y-56142690D01*
X67050501Y-56142688D01*
X67050500Y-56142686D01*
X67002815Y-56095001D01*
X66975040Y-56040487D01*
X66984611Y-55980055D01*
X67002814Y-55954999D01*
X67050500Y-55907314D01*
X67114702Y-55796114D01*
X67116390Y-55793190D01*
X67116390Y-55793188D01*
X67116392Y-55793186D01*
X67150500Y-55665892D01*
X67150500Y-55534108D01*
X67116392Y-55406814D01*
X67116390Y-55406811D01*
X67116390Y-55406809D01*
X67055270Y-55300947D01*
X67055269Y-55300946D01*
X67050501Y-55292688D01*
X67050500Y-55292686D01*
X67015750Y-55257936D01*
X70859741Y-55257936D01*
X70859741Y-55389720D01*
X70867800Y-55419797D01*
X70893850Y-55517018D01*
X70959737Y-55631137D01*
X70959739Y-55631139D01*
X70959741Y-55631142D01*
X71052927Y-55724328D01*
X71052929Y-55724329D01*
X71052931Y-55724331D01*
X71167051Y-55790218D01*
X71167049Y-55790218D01*
X71167053Y-55790219D01*
X71167055Y-55790220D01*
X71294349Y-55824328D01*
X71294351Y-55824328D01*
X71426131Y-55824328D01*
X71426133Y-55824328D01*
X71553427Y-55790220D01*
X71553429Y-55790218D01*
X71553431Y-55790218D01*
X71667550Y-55724331D01*
X71667550Y-55724330D01*
X71667555Y-55724328D01*
X71760741Y-55631142D01*
X71807472Y-55550202D01*
X71826631Y-55517018D01*
X71826631Y-55517016D01*
X71826633Y-55517014D01*
X71860741Y-55389720D01*
X71860741Y-55257936D01*
X71826633Y-55130642D01*
X71826631Y-55130639D01*
X71826631Y-55130637D01*
X71760744Y-55016518D01*
X71760742Y-55016516D01*
X71760741Y-55016514D01*
X71667555Y-54923328D01*
X71667552Y-54923326D01*
X71667550Y-54923324D01*
X71553430Y-54857437D01*
X71553432Y-54857437D01*
X71504040Y-54844203D01*
X71426133Y-54823328D01*
X71294349Y-54823328D01*
X71216441Y-54844203D01*
X71167050Y-54857437D01*
X71052931Y-54923324D01*
X70959737Y-55016518D01*
X70893850Y-55130637D01*
X70891800Y-55138288D01*
X70859741Y-55257936D01*
X67015750Y-55257936D01*
X66957314Y-55199500D01*
X66957311Y-55199498D01*
X66957309Y-55199496D01*
X66843189Y-55133609D01*
X66843191Y-55133609D01*
X66791642Y-55119797D01*
X66715892Y-55099500D01*
X66584108Y-55099500D01*
X66508358Y-55119797D01*
X66456809Y-55133609D01*
X66342690Y-55199496D01*
X66249496Y-55292690D01*
X66183609Y-55406809D01*
X66171902Y-55450500D01*
X66149500Y-55534108D01*
X50049104Y-55534108D01*
X50107309Y-55500503D01*
X50107309Y-55500502D01*
X50107314Y-55500500D01*
X50200500Y-55407314D01*
X50227533Y-55360492D01*
X50266390Y-55293190D01*
X50266390Y-55293188D01*
X50266392Y-55293186D01*
X50300500Y-55165892D01*
X50300500Y-55034108D01*
X50275469Y-54940691D01*
X52249500Y-54940691D01*
X52249500Y-55059309D01*
X52273935Y-55150500D01*
X52280202Y-55173890D01*
X52339507Y-55276608D01*
X52339509Y-55276610D01*
X52339511Y-55276613D01*
X52423387Y-55360489D01*
X52423389Y-55360490D01*
X52423391Y-55360492D01*
X52526110Y-55419797D01*
X52526111Y-55419797D01*
X52526114Y-55419799D01*
X52640691Y-55450500D01*
X52640693Y-55450500D01*
X52759307Y-55450500D01*
X52759309Y-55450500D01*
X52873886Y-55419799D01*
X52873888Y-55419797D01*
X52873890Y-55419797D01*
X52976608Y-55360492D01*
X52976608Y-55360491D01*
X52976613Y-55360489D01*
X53004998Y-55332103D01*
X53059513Y-55304328D01*
X53119945Y-55313899D01*
X53145000Y-55332102D01*
X53173387Y-55360489D01*
X53173389Y-55360490D01*
X53173391Y-55360492D01*
X53276110Y-55419797D01*
X53276111Y-55419797D01*
X53276114Y-55419799D01*
X53390691Y-55450500D01*
X53390693Y-55450500D01*
X53509307Y-55450500D01*
X53509309Y-55450500D01*
X53623886Y-55419799D01*
X53623888Y-55419797D01*
X53623890Y-55419797D01*
X53726608Y-55360492D01*
X53726608Y-55360491D01*
X53726613Y-55360489D01*
X53810489Y-55276613D01*
X53869799Y-55173886D01*
X53900500Y-55059309D01*
X53900500Y-54940691D01*
X53869799Y-54826114D01*
X53869797Y-54826111D01*
X53869797Y-54826109D01*
X53810492Y-54723391D01*
X53810490Y-54723389D01*
X53810489Y-54723387D01*
X53726613Y-54639511D01*
X53726610Y-54639509D01*
X53726608Y-54639507D01*
X53623889Y-54580202D01*
X53623890Y-54580202D01*
X53610351Y-54576574D01*
X53509309Y-54549500D01*
X53390691Y-54549500D01*
X53320567Y-54568289D01*
X53276109Y-54580202D01*
X53173391Y-54639507D01*
X53145003Y-54667895D01*
X53090486Y-54695671D01*
X53030054Y-54686099D01*
X53004997Y-54667895D01*
X52976613Y-54639511D01*
X52976610Y-54639509D01*
X52976609Y-54639508D01*
X52976608Y-54639507D01*
X52873889Y-54580202D01*
X52873890Y-54580202D01*
X52860351Y-54576574D01*
X52759309Y-54549500D01*
X52640691Y-54549500D01*
X52570567Y-54568289D01*
X52526109Y-54580202D01*
X52423391Y-54639507D01*
X52339507Y-54723391D01*
X52280202Y-54826109D01*
X52280201Y-54826114D01*
X52249500Y-54940691D01*
X50275469Y-54940691D01*
X50266392Y-54906814D01*
X50266390Y-54906811D01*
X50266390Y-54906809D01*
X50200503Y-54792690D01*
X50200501Y-54792688D01*
X50200500Y-54792686D01*
X50107314Y-54699500D01*
X50107311Y-54699498D01*
X50107309Y-54699496D01*
X49993189Y-54633609D01*
X49993191Y-54633609D01*
X49943799Y-54620375D01*
X49865892Y-54599500D01*
X49734108Y-54599500D01*
X49656200Y-54620375D01*
X49606809Y-54633609D01*
X49492690Y-54699496D01*
X49399496Y-54792690D01*
X49333609Y-54906809D01*
X49319404Y-54959824D01*
X49299500Y-55034108D01*
X42702994Y-55034108D01*
X42760489Y-54976613D01*
X42819799Y-54873886D01*
X42850500Y-54759309D01*
X42850500Y-54640691D01*
X42819799Y-54526114D01*
X42819797Y-54526111D01*
X42819797Y-54526109D01*
X42760492Y-54423391D01*
X42760490Y-54423389D01*
X42760489Y-54423387D01*
X42676613Y-54339511D01*
X42676610Y-54339509D01*
X42676608Y-54339507D01*
X42573889Y-54280202D01*
X42573890Y-54280202D01*
X42560351Y-54276574D01*
X42459309Y-54249500D01*
X42340691Y-54249500D01*
X42270567Y-54268289D01*
X42226109Y-54280202D01*
X42123391Y-54339507D01*
X42039507Y-54423391D01*
X41980202Y-54526109D01*
X41965708Y-54580201D01*
X41949500Y-54640691D01*
X25032887Y-54640691D01*
X24936622Y-54121293D01*
X24935971Y-54117328D01*
X24838867Y-53440691D01*
X30249500Y-53440691D01*
X30249500Y-53559309D01*
X30266804Y-53623887D01*
X30280202Y-53673890D01*
X30339507Y-53776608D01*
X30339509Y-53776610D01*
X30339511Y-53776613D01*
X30423387Y-53860489D01*
X30423389Y-53860490D01*
X30423391Y-53860492D01*
X30526110Y-53919797D01*
X30526111Y-53919797D01*
X30526114Y-53919799D01*
X30640691Y-53950500D01*
X30640693Y-53950500D01*
X30759307Y-53950500D01*
X30759309Y-53950500D01*
X30873886Y-53919799D01*
X30873888Y-53919797D01*
X30873890Y-53919797D01*
X30976608Y-53860492D01*
X30976608Y-53860491D01*
X30976613Y-53860489D01*
X31060489Y-53776613D01*
X31089360Y-53726608D01*
X31119797Y-53673890D01*
X31119797Y-53673888D01*
X31119799Y-53673886D01*
X31150500Y-53559309D01*
X31150500Y-53440691D01*
X31137102Y-53390691D01*
X41299500Y-53390691D01*
X41299500Y-53509309D01*
X41312228Y-53556809D01*
X41330202Y-53623890D01*
X41389507Y-53726608D01*
X41389509Y-53726610D01*
X41389511Y-53726613D01*
X41473387Y-53810489D01*
X41473389Y-53810490D01*
X41473391Y-53810492D01*
X41576110Y-53869797D01*
X41576111Y-53869797D01*
X41576114Y-53869799D01*
X41690691Y-53900500D01*
X41690693Y-53900500D01*
X41809307Y-53900500D01*
X41809309Y-53900500D01*
X41923886Y-53869799D01*
X41923888Y-53869797D01*
X41923890Y-53869797D01*
X42026608Y-53810492D01*
X42026608Y-53810491D01*
X42026613Y-53810489D01*
X42110489Y-53726613D01*
X42135030Y-53684108D01*
X57749500Y-53684108D01*
X57749500Y-53815892D01*
X57777341Y-53919797D01*
X57783609Y-53943190D01*
X57849496Y-54057309D01*
X57849498Y-54057311D01*
X57849500Y-54057314D01*
X57942686Y-54150500D01*
X57942688Y-54150501D01*
X57942690Y-54150503D01*
X58056810Y-54216390D01*
X58056808Y-54216390D01*
X58056812Y-54216391D01*
X58056814Y-54216392D01*
X58184108Y-54250500D01*
X58184110Y-54250500D01*
X58315890Y-54250500D01*
X58315892Y-54250500D01*
X58443186Y-54216392D01*
X58443188Y-54216390D01*
X58443190Y-54216390D01*
X58557309Y-54150503D01*
X58557309Y-54150502D01*
X58557314Y-54150500D01*
X58650500Y-54057314D01*
X58662455Y-54036608D01*
X58716390Y-53943190D01*
X58716390Y-53943188D01*
X58716392Y-53943186D01*
X58750500Y-53815892D01*
X58750500Y-53700691D01*
X60749500Y-53700691D01*
X60749500Y-53819309D01*
X60763029Y-53869799D01*
X60780202Y-53933890D01*
X60839507Y-54036608D01*
X60839509Y-54036610D01*
X60839511Y-54036613D01*
X60923387Y-54120489D01*
X60923389Y-54120490D01*
X60923391Y-54120492D01*
X61026110Y-54179797D01*
X61026111Y-54179797D01*
X61026114Y-54179799D01*
X61140691Y-54210500D01*
X61140693Y-54210500D01*
X61259307Y-54210500D01*
X61259309Y-54210500D01*
X61373886Y-54179799D01*
X61373888Y-54179797D01*
X61373890Y-54179797D01*
X61476608Y-54120492D01*
X61476608Y-54120491D01*
X61476613Y-54120489D01*
X61560489Y-54036613D01*
X61610207Y-53950500D01*
X61619797Y-53933890D01*
X61619797Y-53933888D01*
X61619799Y-53933886D01*
X61650500Y-53819309D01*
X61650500Y-53700691D01*
X61619799Y-53586114D01*
X61619797Y-53586111D01*
X61619797Y-53586109D01*
X61560492Y-53483391D01*
X61560490Y-53483389D01*
X61560489Y-53483387D01*
X61476613Y-53399511D01*
X61476610Y-53399509D01*
X61476608Y-53399507D01*
X61373889Y-53340202D01*
X61373890Y-53340202D01*
X61360351Y-53336574D01*
X61259309Y-53309500D01*
X61140691Y-53309500D01*
X61078706Y-53326109D01*
X61026109Y-53340202D01*
X60923391Y-53399507D01*
X60839507Y-53483391D01*
X60780202Y-53586109D01*
X60780201Y-53586114D01*
X60749500Y-53700691D01*
X58750500Y-53700691D01*
X58750500Y-53684108D01*
X58716392Y-53556814D01*
X58716390Y-53556811D01*
X58716390Y-53556809D01*
X58650503Y-53442690D01*
X58650501Y-53442688D01*
X58650500Y-53442686D01*
X58557314Y-53349500D01*
X58557311Y-53349498D01*
X58557309Y-53349496D01*
X58443189Y-53283609D01*
X58443191Y-53283609D01*
X58393799Y-53270375D01*
X58315892Y-53249500D01*
X58184108Y-53249500D01*
X58106200Y-53270375D01*
X58056809Y-53283609D01*
X57942690Y-53349496D01*
X57849496Y-53442690D01*
X57783609Y-53556809D01*
X57775757Y-53586114D01*
X57749500Y-53684108D01*
X42135030Y-53684108D01*
X42167351Y-53628126D01*
X42167355Y-53628119D01*
X42169799Y-53623886D01*
X42200500Y-53509309D01*
X42200500Y-53390691D01*
X42169799Y-53276114D01*
X42169797Y-53276111D01*
X42169797Y-53276109D01*
X42110492Y-53173391D01*
X42110490Y-53173389D01*
X42110489Y-53173387D01*
X42026613Y-53089511D01*
X42026610Y-53089509D01*
X42026608Y-53089507D01*
X41923889Y-53030202D01*
X41923890Y-53030202D01*
X41910351Y-53026574D01*
X41809309Y-52999500D01*
X41690691Y-52999500D01*
X41620567Y-53018289D01*
X41576109Y-53030202D01*
X41473391Y-53089507D01*
X41389507Y-53173391D01*
X41330202Y-53276109D01*
X41321255Y-53309500D01*
X41299500Y-53390691D01*
X31137102Y-53390691D01*
X31119799Y-53326114D01*
X31119797Y-53326111D01*
X31119797Y-53326109D01*
X31060492Y-53223391D01*
X31060490Y-53223389D01*
X31060489Y-53223387D01*
X30976613Y-53139511D01*
X30976610Y-53139509D01*
X30976608Y-53139507D01*
X30873889Y-53080202D01*
X30873890Y-53080202D01*
X30860351Y-53076574D01*
X30759309Y-53049500D01*
X30640691Y-53049500D01*
X30570567Y-53068289D01*
X30526109Y-53080202D01*
X30423391Y-53139507D01*
X30339507Y-53223391D01*
X30280202Y-53326109D01*
X30264050Y-53386390D01*
X30249500Y-53440691D01*
X24838867Y-53440691D01*
X24789609Y-53097448D01*
X24789121Y-53093469D01*
X24788716Y-53089507D01*
X24747299Y-52684108D01*
X36599500Y-52684108D01*
X36599500Y-52815892D01*
X36601136Y-52821996D01*
X36633609Y-52943190D01*
X36699496Y-53057309D01*
X36699498Y-53057311D01*
X36699500Y-53057314D01*
X36792686Y-53150500D01*
X36792688Y-53150501D01*
X36792690Y-53150503D01*
X36906810Y-53216390D01*
X36906808Y-53216390D01*
X36906812Y-53216391D01*
X36906814Y-53216392D01*
X37034108Y-53250500D01*
X37034110Y-53250500D01*
X37165890Y-53250500D01*
X37165892Y-53250500D01*
X37293186Y-53216392D01*
X37293188Y-53216390D01*
X37293190Y-53216390D01*
X37407309Y-53150503D01*
X37407309Y-53150502D01*
X37407314Y-53150500D01*
X37500500Y-53057314D01*
X37500503Y-53057309D01*
X37566390Y-52943190D01*
X37566390Y-52943188D01*
X37566392Y-52943186D01*
X37590260Y-52854108D01*
X62099500Y-52854108D01*
X62099500Y-52985892D01*
X62111373Y-53030202D01*
X62133609Y-53113190D01*
X62199496Y-53227309D01*
X62199498Y-53227311D01*
X62199500Y-53227314D01*
X62292686Y-53320500D01*
X62292688Y-53320501D01*
X62292690Y-53320503D01*
X62406810Y-53386390D01*
X62406808Y-53386390D01*
X62406812Y-53386391D01*
X62406814Y-53386392D01*
X62534108Y-53420500D01*
X62534110Y-53420500D01*
X62665890Y-53420500D01*
X62665892Y-53420500D01*
X62793186Y-53386392D01*
X62793188Y-53386390D01*
X62793190Y-53386390D01*
X62907309Y-53320503D01*
X62907309Y-53320502D01*
X62907314Y-53320500D01*
X63000500Y-53227314D01*
X63066392Y-53113186D01*
X63100500Y-52985892D01*
X63100500Y-52854108D01*
X63066392Y-52726814D01*
X63066390Y-52726811D01*
X63066390Y-52726809D01*
X63000503Y-52612690D01*
X63000501Y-52612688D01*
X63000500Y-52612686D01*
X62907314Y-52519500D01*
X62907311Y-52519498D01*
X62907309Y-52519496D01*
X62793189Y-52453609D01*
X62793191Y-52453609D01*
X62743799Y-52440375D01*
X62665892Y-52419500D01*
X62534108Y-52419500D01*
X62456200Y-52440375D01*
X62406809Y-52453609D01*
X62292690Y-52519496D01*
X62199496Y-52612690D01*
X62133609Y-52726809D01*
X62133608Y-52726814D01*
X62099500Y-52854108D01*
X37590260Y-52854108D01*
X37600500Y-52815892D01*
X37600500Y-52684108D01*
X37566392Y-52556814D01*
X37566390Y-52556811D01*
X37566390Y-52556809D01*
X37500503Y-52442690D01*
X37500501Y-52442688D01*
X37500500Y-52442686D01*
X37407314Y-52349500D01*
X37407311Y-52349498D01*
X37407309Y-52349496D01*
X37293189Y-52283609D01*
X37293191Y-52283609D01*
X37243799Y-52270375D01*
X37165892Y-52249500D01*
X37034108Y-52249500D01*
X36956200Y-52270375D01*
X36906809Y-52283609D01*
X36792690Y-52349496D01*
X36699496Y-52442690D01*
X36633609Y-52556809D01*
X36633608Y-52556814D01*
X36599500Y-52684108D01*
X24747299Y-52684108D01*
X24684403Y-52068474D01*
X24684082Y-52064539D01*
X24621179Y-51036078D01*
X24621018Y-51032136D01*
X24600041Y-50002013D01*
X24600041Y-49997984D01*
X24602250Y-49889507D01*
X24604396Y-49784108D01*
X34799500Y-49784108D01*
X34799500Y-49915892D01*
X34822576Y-50002015D01*
X34833609Y-50043190D01*
X34899496Y-50157309D01*
X34899498Y-50157311D01*
X34899500Y-50157314D01*
X34992686Y-50250500D01*
X34992688Y-50250501D01*
X34992690Y-50250503D01*
X35106810Y-50316390D01*
X35106808Y-50316390D01*
X35106812Y-50316391D01*
X35106814Y-50316392D01*
X35234108Y-50350500D01*
X35234110Y-50350500D01*
X35365890Y-50350500D01*
X35365892Y-50350500D01*
X35493186Y-50316392D01*
X35493188Y-50316390D01*
X35493190Y-50316390D01*
X35607309Y-50250503D01*
X35607309Y-50250502D01*
X35607314Y-50250500D01*
X35667123Y-50190691D01*
X38599500Y-50190691D01*
X38599500Y-50309309D01*
X38620989Y-50389507D01*
X38630202Y-50423890D01*
X38689507Y-50526608D01*
X38689509Y-50526610D01*
X38689511Y-50526613D01*
X38773387Y-50610489D01*
X38773389Y-50610490D01*
X38866526Y-50664264D01*
X38907466Y-50709734D01*
X38913861Y-50770584D01*
X38883268Y-50823572D01*
X38866526Y-50835736D01*
X38773389Y-50889509D01*
X38689507Y-50973391D01*
X38630202Y-51076109D01*
X38620990Y-51110489D01*
X38599500Y-51190691D01*
X38599500Y-51309309D01*
X38616729Y-51373608D01*
X38630202Y-51423890D01*
X38689507Y-51526608D01*
X38689509Y-51526610D01*
X38689511Y-51526613D01*
X38773387Y-51610489D01*
X38773389Y-51610490D01*
X38866526Y-51664264D01*
X38907466Y-51709734D01*
X38913861Y-51770584D01*
X38883268Y-51823572D01*
X38866526Y-51835736D01*
X38773389Y-51889509D01*
X38689507Y-51973391D01*
X38630202Y-52076109D01*
X38630201Y-52076114D01*
X38599500Y-52190691D01*
X38599500Y-52309309D01*
X38613214Y-52360489D01*
X38630202Y-52423890D01*
X38689507Y-52526608D01*
X38689509Y-52526610D01*
X38689511Y-52526613D01*
X38773387Y-52610489D01*
X38773389Y-52610490D01*
X38773391Y-52610492D01*
X38876110Y-52669797D01*
X38876111Y-52669797D01*
X38876114Y-52669799D01*
X38990691Y-52700500D01*
X38990693Y-52700500D01*
X39109307Y-52700500D01*
X39109309Y-52700500D01*
X39223886Y-52669799D01*
X39223888Y-52669797D01*
X39223890Y-52669797D01*
X39326608Y-52610492D01*
X39326608Y-52610491D01*
X39326613Y-52610489D01*
X39410489Y-52526613D01*
X39414598Y-52519496D01*
X39469797Y-52423890D01*
X39469797Y-52423888D01*
X39469799Y-52423886D01*
X39500500Y-52309309D01*
X39500500Y-52291955D01*
X39519407Y-52233764D01*
X39568907Y-52197800D01*
X39625121Y-52196328D01*
X39640691Y-52200500D01*
X39640693Y-52200500D01*
X39759307Y-52200500D01*
X39759309Y-52200500D01*
X39873886Y-52169799D01*
X39873888Y-52169797D01*
X39873890Y-52169797D01*
X39976608Y-52110492D01*
X39976608Y-52110491D01*
X39976613Y-52110489D01*
X40060489Y-52026613D01*
X40075564Y-52000503D01*
X40110097Y-51940691D01*
X51454500Y-51940691D01*
X51454500Y-52059309D01*
X51481574Y-52160351D01*
X51485202Y-52173890D01*
X51544507Y-52276608D01*
X51544509Y-52276610D01*
X51544511Y-52276613D01*
X51628387Y-52360489D01*
X51628389Y-52360490D01*
X51628391Y-52360492D01*
X51731110Y-52419797D01*
X51731111Y-52419797D01*
X51731114Y-52419799D01*
X51845691Y-52450500D01*
X51845693Y-52450500D01*
X51964307Y-52450500D01*
X51964309Y-52450500D01*
X52078886Y-52419799D01*
X52078888Y-52419797D01*
X52078890Y-52419797D01*
X52181608Y-52360492D01*
X52181608Y-52360491D01*
X52181613Y-52360489D01*
X52265489Y-52276613D01*
X52290228Y-52233764D01*
X52324797Y-52173890D01*
X52324797Y-52173888D01*
X52324799Y-52173886D01*
X52355500Y-52059309D01*
X52355500Y-51940691D01*
X53994500Y-51940691D01*
X53994500Y-52059309D01*
X54021574Y-52160351D01*
X54025202Y-52173890D01*
X54084507Y-52276608D01*
X54084509Y-52276610D01*
X54084511Y-52276613D01*
X54168387Y-52360489D01*
X54168389Y-52360490D01*
X54168391Y-52360492D01*
X54271110Y-52419797D01*
X54271111Y-52419797D01*
X54271114Y-52419799D01*
X54385691Y-52450500D01*
X54385693Y-52450500D01*
X54504307Y-52450500D01*
X54504309Y-52450500D01*
X54618886Y-52419799D01*
X54618888Y-52419797D01*
X54618890Y-52419797D01*
X54721608Y-52360492D01*
X54721608Y-52360491D01*
X54721613Y-52360489D01*
X54805489Y-52276613D01*
X54830228Y-52233764D01*
X54864797Y-52173890D01*
X54864797Y-52173888D01*
X54864799Y-52173886D01*
X54895500Y-52059309D01*
X54895500Y-51940691D01*
X56534500Y-51940691D01*
X56534500Y-52059309D01*
X56561574Y-52160351D01*
X56565202Y-52173890D01*
X56624507Y-52276608D01*
X56624509Y-52276610D01*
X56624511Y-52276613D01*
X56708387Y-52360489D01*
X56708389Y-52360490D01*
X56708391Y-52360492D01*
X56811110Y-52419797D01*
X56811111Y-52419797D01*
X56811114Y-52419799D01*
X56925691Y-52450500D01*
X56925693Y-52450500D01*
X57044307Y-52450500D01*
X57044309Y-52450500D01*
X57158886Y-52419799D01*
X57158888Y-52419797D01*
X57158890Y-52419797D01*
X57261608Y-52360492D01*
X57261608Y-52360491D01*
X57261613Y-52360489D01*
X57345489Y-52276613D01*
X57370228Y-52233764D01*
X57404797Y-52173890D01*
X57404797Y-52173888D01*
X57404799Y-52173886D01*
X57435500Y-52059309D01*
X57435500Y-51940691D01*
X57404799Y-51826114D01*
X57374773Y-51774108D01*
X59899500Y-51774108D01*
X59899500Y-51905892D01*
X59908825Y-51940692D01*
X59933609Y-52033190D01*
X59999496Y-52147309D01*
X59999498Y-52147311D01*
X59999500Y-52147314D01*
X60092686Y-52240500D01*
X60092688Y-52240501D01*
X60092690Y-52240503D01*
X60206810Y-52306390D01*
X60206808Y-52306390D01*
X60206812Y-52306391D01*
X60206814Y-52306392D01*
X60334108Y-52340500D01*
X60334110Y-52340500D01*
X60465890Y-52340500D01*
X60465892Y-52340500D01*
X60593186Y-52306392D01*
X60593188Y-52306390D01*
X60593190Y-52306390D01*
X60707309Y-52240503D01*
X60707309Y-52240502D01*
X60707314Y-52240500D01*
X60800500Y-52147314D01*
X60827528Y-52100500D01*
X60866390Y-52033190D01*
X60866390Y-52033188D01*
X60866392Y-52033186D01*
X60900500Y-51905892D01*
X60900500Y-51774108D01*
X60866392Y-51646814D01*
X60866390Y-51646811D01*
X60866390Y-51646809D01*
X60826155Y-51577122D01*
X60826153Y-51577119D01*
X60825570Y-51576109D01*
X60801321Y-51534108D01*
X72169500Y-51534108D01*
X72169500Y-51665892D01*
X72184906Y-51723387D01*
X72203609Y-51793190D01*
X72269496Y-51907309D01*
X72269498Y-51907311D01*
X72269500Y-51907314D01*
X72362686Y-52000500D01*
X72362688Y-52000501D01*
X72362690Y-52000503D01*
X72476810Y-52066390D01*
X72476808Y-52066390D01*
X72476812Y-52066391D01*
X72476814Y-52066392D01*
X72604108Y-52100500D01*
X72604110Y-52100500D01*
X72735890Y-52100500D01*
X72735892Y-52100500D01*
X72863186Y-52066392D01*
X72863188Y-52066390D01*
X72863190Y-52066390D01*
X72977309Y-52000503D01*
X72977309Y-52000502D01*
X72977314Y-52000500D01*
X73070500Y-51907314D01*
X73080780Y-51889509D01*
X73136390Y-51793190D01*
X73136390Y-51793188D01*
X73136392Y-51793186D01*
X73170500Y-51665892D01*
X73170500Y-51534108D01*
X73136392Y-51406814D01*
X73136390Y-51406811D01*
X73136390Y-51406809D01*
X73070503Y-51292690D01*
X73070501Y-51292688D01*
X73070500Y-51292686D01*
X72977314Y-51199500D01*
X72977311Y-51199498D01*
X72977309Y-51199496D01*
X72863189Y-51133609D01*
X72863191Y-51133609D01*
X72813799Y-51120375D01*
X72735892Y-51099500D01*
X72604108Y-51099500D01*
X72526200Y-51120375D01*
X72476809Y-51133609D01*
X72362690Y-51199496D01*
X72269496Y-51292690D01*
X72203609Y-51406809D01*
X72194851Y-51439496D01*
X72169500Y-51534108D01*
X60801321Y-51534108D01*
X60800500Y-51532686D01*
X60707314Y-51439500D01*
X60707311Y-51439498D01*
X60707309Y-51439496D01*
X60593189Y-51373609D01*
X60593191Y-51373609D01*
X60543799Y-51360375D01*
X60465892Y-51339500D01*
X60334108Y-51339500D01*
X60256200Y-51360375D01*
X60206809Y-51373609D01*
X60092690Y-51439496D01*
X59999496Y-51532690D01*
X59933609Y-51646809D01*
X59928496Y-51665892D01*
X59899500Y-51774108D01*
X57374773Y-51774108D01*
X57345489Y-51723387D01*
X57261613Y-51639511D01*
X57261610Y-51639509D01*
X57261608Y-51639507D01*
X57158889Y-51580202D01*
X57158890Y-51580202D01*
X57143615Y-51576109D01*
X57044309Y-51549500D01*
X56925691Y-51549500D01*
X56855567Y-51568289D01*
X56811109Y-51580202D01*
X56708391Y-51639507D01*
X56624507Y-51723391D01*
X56565202Y-51826109D01*
X56558394Y-51851519D01*
X56534500Y-51940691D01*
X54895500Y-51940691D01*
X54864799Y-51826114D01*
X54864797Y-51826111D01*
X54864797Y-51826109D01*
X54805492Y-51723391D01*
X54805490Y-51723389D01*
X54805489Y-51723387D01*
X54721613Y-51639511D01*
X54721610Y-51639509D01*
X54721608Y-51639507D01*
X54618889Y-51580202D01*
X54618890Y-51580202D01*
X54603615Y-51576109D01*
X54504309Y-51549500D01*
X54385691Y-51549500D01*
X54315567Y-51568289D01*
X54271109Y-51580202D01*
X54168391Y-51639507D01*
X54084507Y-51723391D01*
X54025202Y-51826109D01*
X54018394Y-51851519D01*
X53994500Y-51940691D01*
X52355500Y-51940691D01*
X52324799Y-51826114D01*
X52324797Y-51826111D01*
X52324797Y-51826109D01*
X52265492Y-51723391D01*
X52265490Y-51723389D01*
X52265489Y-51723387D01*
X52181613Y-51639511D01*
X52181610Y-51639509D01*
X52181608Y-51639507D01*
X52078889Y-51580202D01*
X52078890Y-51580202D01*
X52063615Y-51576109D01*
X51964309Y-51549500D01*
X51845691Y-51549500D01*
X51775567Y-51568289D01*
X51731109Y-51580202D01*
X51628391Y-51639507D01*
X51544507Y-51723391D01*
X51485202Y-51826109D01*
X51478394Y-51851519D01*
X51454500Y-51940691D01*
X40110097Y-51940691D01*
X40119797Y-51923890D01*
X40119797Y-51923888D01*
X40119799Y-51923886D01*
X40150500Y-51809309D01*
X40150500Y-51690691D01*
X40119799Y-51576114D01*
X40119797Y-51576111D01*
X40119797Y-51576109D01*
X40060492Y-51473391D01*
X40060490Y-51473389D01*
X40060489Y-51473387D01*
X39976613Y-51389511D01*
X39976610Y-51389509D01*
X39976608Y-51389507D01*
X39883474Y-51335736D01*
X39842533Y-51290267D01*
X39836137Y-51229416D01*
X39866730Y-51176428D01*
X39883474Y-51164264D01*
X39976608Y-51110492D01*
X39976608Y-51110491D01*
X39976613Y-51110489D01*
X40060489Y-51026613D01*
X40091217Y-50973391D01*
X40119797Y-50923890D01*
X40119797Y-50923888D01*
X40119799Y-50923886D01*
X40150500Y-50809309D01*
X40150500Y-50690691D01*
X40119799Y-50576114D01*
X40119797Y-50576111D01*
X40119797Y-50576109D01*
X40060492Y-50473391D01*
X40060490Y-50473389D01*
X40060489Y-50473387D01*
X39976613Y-50389511D01*
X39976610Y-50389509D01*
X39976608Y-50389507D01*
X39873889Y-50330202D01*
X39873890Y-50330202D01*
X39822350Y-50316392D01*
X39759309Y-50299500D01*
X39640691Y-50299500D01*
X39637082Y-50300467D01*
X39625119Y-50303672D01*
X39564018Y-50300467D01*
X39516469Y-50261960D01*
X39500500Y-50208044D01*
X39500500Y-50190692D01*
X39500500Y-50190691D01*
X39469799Y-50076114D01*
X39469797Y-50076111D01*
X39469797Y-50076109D01*
X39410492Y-49973391D01*
X39410490Y-49973389D01*
X39410489Y-49973387D01*
X39326613Y-49889511D01*
X39326610Y-49889509D01*
X39326608Y-49889507D01*
X39223889Y-49830202D01*
X39223890Y-49830202D01*
X39210351Y-49826574D01*
X39109309Y-49799500D01*
X38990691Y-49799500D01*
X38920567Y-49818289D01*
X38876109Y-49830202D01*
X38773391Y-49889507D01*
X38689507Y-49973391D01*
X38630202Y-50076109D01*
X38630201Y-50076114D01*
X38599500Y-50190691D01*
X35667123Y-50190691D01*
X35700500Y-50157314D01*
X35766392Y-50043186D01*
X35800500Y-49915892D01*
X35800500Y-49784108D01*
X35766392Y-49656814D01*
X35766390Y-49656811D01*
X35766390Y-49656809D01*
X35700503Y-49542690D01*
X35700501Y-49542688D01*
X35700500Y-49542686D01*
X35607314Y-49449500D01*
X35607311Y-49449498D01*
X35607309Y-49449496D01*
X35493189Y-49383609D01*
X35493191Y-49383609D01*
X35443799Y-49370375D01*
X35365892Y-49349500D01*
X35234108Y-49349500D01*
X35156200Y-49370375D01*
X35106809Y-49383609D01*
X34992690Y-49449496D01*
X34899496Y-49542690D01*
X34833609Y-49656809D01*
X34833608Y-49656814D01*
X34799500Y-49784108D01*
X24604396Y-49784108D01*
X24621018Y-48967860D01*
X24621179Y-48963920D01*
X24623002Y-48934108D01*
X33399500Y-48934108D01*
X33399500Y-49065892D01*
X33408773Y-49100500D01*
X33433609Y-49193190D01*
X33499496Y-49307309D01*
X33499498Y-49307311D01*
X33499500Y-49307314D01*
X33592686Y-49400500D01*
X33592688Y-49400501D01*
X33592690Y-49400503D01*
X33706810Y-49466390D01*
X33706808Y-49466390D01*
X33706812Y-49466391D01*
X33706814Y-49466392D01*
X33834108Y-49500500D01*
X33834110Y-49500500D01*
X33965890Y-49500500D01*
X33965892Y-49500500D01*
X34093186Y-49466392D01*
X34093188Y-49466390D01*
X34093190Y-49466390D01*
X34207309Y-49400503D01*
X34207309Y-49400502D01*
X34207314Y-49400500D01*
X34300500Y-49307314D01*
X34329368Y-49257314D01*
X34366390Y-49193190D01*
X34366390Y-49193188D01*
X34366392Y-49193186D01*
X34400500Y-49065892D01*
X34400500Y-48934108D01*
X34387103Y-48884108D01*
X43299500Y-48884108D01*
X43299500Y-49015892D01*
X43329579Y-49128151D01*
X43333609Y-49143190D01*
X43399496Y-49257309D01*
X43399498Y-49257311D01*
X43399500Y-49257314D01*
X43492686Y-49350500D01*
X43492688Y-49350501D01*
X43492690Y-49350503D01*
X43606810Y-49416390D01*
X43606808Y-49416390D01*
X43606812Y-49416391D01*
X43606814Y-49416392D01*
X43734108Y-49450500D01*
X43734110Y-49450500D01*
X43865890Y-49450500D01*
X43865892Y-49450500D01*
X43993186Y-49416392D01*
X43993188Y-49416390D01*
X43993190Y-49416390D01*
X44107309Y-49350503D01*
X44107309Y-49350502D01*
X44107314Y-49350500D01*
X44200500Y-49257314D01*
X44237522Y-49193190D01*
X44266390Y-49143190D01*
X44266390Y-49143188D01*
X44266392Y-49143186D01*
X44300500Y-49015892D01*
X44300500Y-48940691D01*
X56949500Y-48940691D01*
X56949500Y-49059309D01*
X56951398Y-49066392D01*
X56980202Y-49173890D01*
X57039507Y-49276608D01*
X57039509Y-49276610D01*
X57039511Y-49276613D01*
X57123387Y-49360489D01*
X57123389Y-49360490D01*
X57123391Y-49360492D01*
X57226110Y-49419797D01*
X57226111Y-49419797D01*
X57226114Y-49419799D01*
X57340691Y-49450500D01*
X57340693Y-49450500D01*
X57459307Y-49450500D01*
X57459309Y-49450500D01*
X57573886Y-49419799D01*
X57573888Y-49419797D01*
X57573890Y-49419797D01*
X57676608Y-49360492D01*
X57676608Y-49360491D01*
X57676613Y-49360489D01*
X57760489Y-49276613D01*
X57760492Y-49276608D01*
X57819797Y-49173890D01*
X57819797Y-49173888D01*
X57819799Y-49173886D01*
X57850500Y-49059309D01*
X57850500Y-48940691D01*
X57819799Y-48826114D01*
X57819797Y-48826111D01*
X57819797Y-48826109D01*
X57760492Y-48723391D01*
X57760490Y-48723389D01*
X57760489Y-48723387D01*
X57676613Y-48639511D01*
X57676610Y-48639509D01*
X57676608Y-48639507D01*
X57631311Y-48613355D01*
X57631310Y-48613355D01*
X57573888Y-48580202D01*
X57573887Y-48580201D01*
X57573886Y-48580201D01*
X57459309Y-48549500D01*
X57340691Y-48549500D01*
X57277657Y-48566390D01*
X57226109Y-48580202D01*
X57123391Y-48639507D01*
X57039507Y-48723391D01*
X56980202Y-48826109D01*
X56980201Y-48826114D01*
X56949500Y-48940691D01*
X44300500Y-48940691D01*
X44300500Y-48884108D01*
X44266392Y-48756814D01*
X44266390Y-48756811D01*
X44266390Y-48756809D01*
X44200503Y-48642690D01*
X44200501Y-48642688D01*
X44200500Y-48642686D01*
X44107314Y-48549500D01*
X44107311Y-48549498D01*
X44107309Y-48549496D01*
X43993189Y-48483609D01*
X43993191Y-48483609D01*
X43943799Y-48470375D01*
X43865892Y-48449500D01*
X43734108Y-48449500D01*
X43656200Y-48470375D01*
X43606809Y-48483609D01*
X43492690Y-48549496D01*
X43399496Y-48642690D01*
X43333609Y-48756809D01*
X43323862Y-48793186D01*
X43299500Y-48884108D01*
X34387103Y-48884108D01*
X34366392Y-48806814D01*
X34366390Y-48806811D01*
X34366390Y-48806809D01*
X34300503Y-48692690D01*
X34300501Y-48692688D01*
X34300500Y-48692686D01*
X34207314Y-48599500D01*
X34207311Y-48599498D01*
X34207309Y-48599496D01*
X34093189Y-48533609D01*
X34093191Y-48533609D01*
X34043799Y-48520375D01*
X33965892Y-48499500D01*
X33834108Y-48499500D01*
X33756200Y-48520375D01*
X33706809Y-48533609D01*
X33592690Y-48599496D01*
X33499496Y-48692690D01*
X33433609Y-48806809D01*
X33414539Y-48877978D01*
X33399500Y-48934108D01*
X24623002Y-48934108D01*
X24678048Y-48034108D01*
X53949500Y-48034108D01*
X53949500Y-48165892D01*
X53979579Y-48278151D01*
X53983609Y-48293190D01*
X54049496Y-48407309D01*
X54049498Y-48407311D01*
X54049500Y-48407314D01*
X54142686Y-48500500D01*
X54142688Y-48500501D01*
X54142690Y-48500503D01*
X54256810Y-48566390D01*
X54256808Y-48566390D01*
X54256812Y-48566391D01*
X54256814Y-48566392D01*
X54384108Y-48600500D01*
X54384110Y-48600500D01*
X54515890Y-48600500D01*
X54515892Y-48600500D01*
X54643186Y-48566392D01*
X54643188Y-48566390D01*
X54643190Y-48566390D01*
X54699104Y-48534108D01*
X58999500Y-48534108D01*
X58999500Y-48665892D01*
X59014906Y-48723387D01*
X59033609Y-48793190D01*
X59099496Y-48907309D01*
X59099498Y-48907311D01*
X59099500Y-48907314D01*
X59192686Y-49000500D01*
X59192688Y-49000501D01*
X59192690Y-49000503D01*
X59306810Y-49066390D01*
X59306808Y-49066390D01*
X59306812Y-49066391D01*
X59306814Y-49066392D01*
X59434108Y-49100500D01*
X59434110Y-49100500D01*
X59565890Y-49100500D01*
X59565892Y-49100500D01*
X59693186Y-49066392D01*
X59693188Y-49066390D01*
X59693190Y-49066390D01*
X59807309Y-49000503D01*
X59807309Y-49000502D01*
X59807314Y-49000500D01*
X59900500Y-48907314D01*
X59902851Y-48903242D01*
X59966390Y-48793190D01*
X59966390Y-48793188D01*
X59966392Y-48793186D01*
X60000500Y-48665892D01*
X60000500Y-48534108D01*
X59966392Y-48406814D01*
X59966390Y-48406811D01*
X59966390Y-48406809D01*
X59900503Y-48292690D01*
X59900501Y-48292688D01*
X59900500Y-48292686D01*
X59807314Y-48199500D01*
X59807311Y-48199498D01*
X59807309Y-48199496D01*
X59693189Y-48133609D01*
X59693191Y-48133609D01*
X59643799Y-48120375D01*
X59565892Y-48099500D01*
X59434108Y-48099500D01*
X59356200Y-48120375D01*
X59306809Y-48133609D01*
X59192690Y-48199496D01*
X59099496Y-48292690D01*
X59033609Y-48406809D01*
X59033608Y-48406814D01*
X58999500Y-48534108D01*
X54699104Y-48534108D01*
X54757309Y-48500503D01*
X54757309Y-48500502D01*
X54757314Y-48500500D01*
X54850500Y-48407314D01*
X54916392Y-48293186D01*
X54950500Y-48165892D01*
X54950500Y-48034108D01*
X54916392Y-47906814D01*
X54916390Y-47906811D01*
X54916390Y-47906809D01*
X54850503Y-47792690D01*
X54850501Y-47792688D01*
X54850500Y-47792686D01*
X54757314Y-47699500D01*
X54757311Y-47699498D01*
X54757309Y-47699496D01*
X54643189Y-47633609D01*
X54643191Y-47633609D01*
X54593799Y-47620375D01*
X54515892Y-47599500D01*
X54384108Y-47599500D01*
X54306200Y-47620375D01*
X54256809Y-47633609D01*
X54142690Y-47699496D01*
X54049496Y-47792690D01*
X53983609Y-47906809D01*
X53975921Y-47935501D01*
X53949500Y-48034108D01*
X24678048Y-48034108D01*
X24684082Y-47935455D01*
X24684403Y-47931528D01*
X24765871Y-47134108D01*
X41299500Y-47134108D01*
X41299500Y-47265892D01*
X41324530Y-47359307D01*
X41333609Y-47393190D01*
X41399496Y-47507309D01*
X41399498Y-47507311D01*
X41399500Y-47507314D01*
X41492686Y-47600500D01*
X41492688Y-47600501D01*
X41492690Y-47600503D01*
X41606810Y-47666390D01*
X41606808Y-47666390D01*
X41606812Y-47666391D01*
X41606814Y-47666392D01*
X41734108Y-47700500D01*
X41734110Y-47700500D01*
X41865890Y-47700500D01*
X41865892Y-47700500D01*
X41993186Y-47666392D01*
X41993188Y-47666390D01*
X41993190Y-47666390D01*
X42107309Y-47600503D01*
X42107309Y-47600502D01*
X42107314Y-47600500D01*
X42200500Y-47507314D01*
X42200503Y-47507309D01*
X42266390Y-47393190D01*
X42266390Y-47393188D01*
X42266392Y-47393186D01*
X42300500Y-47265892D01*
X42300500Y-47240691D01*
X56649500Y-47240691D01*
X56649500Y-47359309D01*
X56676574Y-47460351D01*
X56680202Y-47473890D01*
X56739507Y-47576608D01*
X56739509Y-47576610D01*
X56739511Y-47576613D01*
X56823387Y-47660489D01*
X56823389Y-47660490D01*
X56823391Y-47660492D01*
X56926110Y-47719797D01*
X56926111Y-47719797D01*
X56926114Y-47719799D01*
X57040691Y-47750500D01*
X57040693Y-47750500D01*
X57159307Y-47750500D01*
X57159309Y-47750500D01*
X57273886Y-47719799D01*
X57273888Y-47719797D01*
X57273890Y-47719797D01*
X57376608Y-47660492D01*
X57376608Y-47660491D01*
X57376613Y-47660489D01*
X57460489Y-47576613D01*
X57519799Y-47473886D01*
X57550500Y-47359309D01*
X57550500Y-47240691D01*
X57519799Y-47126114D01*
X57519797Y-47126111D01*
X57519797Y-47126109D01*
X57460492Y-47023391D01*
X57460490Y-47023389D01*
X57460489Y-47023387D01*
X57376613Y-46939511D01*
X57376610Y-46939509D01*
X57376608Y-46939507D01*
X57273889Y-46880202D01*
X57273890Y-46880202D01*
X57260351Y-46876574D01*
X57159309Y-46849500D01*
X57040691Y-46849500D01*
X56970567Y-46868289D01*
X56926109Y-46880202D01*
X56823391Y-46939507D01*
X56739507Y-47023391D01*
X56680202Y-47126109D01*
X56663037Y-47190169D01*
X56649500Y-47240691D01*
X42300500Y-47240691D01*
X42300500Y-47134108D01*
X42266392Y-47006814D01*
X42266390Y-47006811D01*
X42266390Y-47006809D01*
X42200503Y-46892690D01*
X42200501Y-46892688D01*
X42200500Y-46892686D01*
X42107314Y-46799500D01*
X42107311Y-46799498D01*
X42107309Y-46799496D01*
X41993189Y-46733609D01*
X41993191Y-46733609D01*
X41943799Y-46720375D01*
X41865892Y-46699500D01*
X41734108Y-46699500D01*
X41656200Y-46720375D01*
X41606809Y-46733609D01*
X41492690Y-46799496D01*
X41399496Y-46892690D01*
X41333609Y-47006809D01*
X41333608Y-47006814D01*
X41299500Y-47134108D01*
X24765871Y-47134108D01*
X24789124Y-46906502D01*
X24789608Y-46902556D01*
X24935974Y-45882650D01*
X24936625Y-45878692D01*
X25124387Y-44865615D01*
X25125182Y-44861765D01*
X25199824Y-44534108D01*
X47499500Y-44534108D01*
X47499500Y-44665892D01*
X47529579Y-44778151D01*
X47533609Y-44793190D01*
X47599496Y-44907309D01*
X47599498Y-44907311D01*
X47599500Y-44907314D01*
X47692686Y-45000500D01*
X47692688Y-45000501D01*
X47692690Y-45000503D01*
X47806810Y-45066390D01*
X47806808Y-45066390D01*
X47806812Y-45066391D01*
X47806814Y-45066392D01*
X47934108Y-45100500D01*
X47934110Y-45100500D01*
X48065890Y-45100500D01*
X48065892Y-45100500D01*
X48193186Y-45066392D01*
X48193188Y-45066390D01*
X48193190Y-45066390D01*
X48307309Y-45000503D01*
X48307309Y-45000502D01*
X48307314Y-45000500D01*
X48373706Y-44934108D01*
X49999500Y-44934108D01*
X49999500Y-45065892D01*
X50029579Y-45178151D01*
X50033609Y-45193190D01*
X50099496Y-45307309D01*
X50099498Y-45307311D01*
X50099500Y-45307314D01*
X50192686Y-45400500D01*
X50192688Y-45400501D01*
X50192690Y-45400503D01*
X50306810Y-45466390D01*
X50306808Y-45466390D01*
X50306812Y-45466391D01*
X50306814Y-45466392D01*
X50434108Y-45500500D01*
X50434110Y-45500500D01*
X50565890Y-45500500D01*
X50565892Y-45500500D01*
X50627068Y-45484108D01*
X58299500Y-45484108D01*
X58299500Y-45615892D01*
X58329579Y-45728151D01*
X58333609Y-45743190D01*
X58399496Y-45857309D01*
X58399498Y-45857311D01*
X58399500Y-45857314D01*
X58492686Y-45950500D01*
X58492688Y-45950501D01*
X58492690Y-45950503D01*
X58606810Y-46016390D01*
X58606808Y-46016390D01*
X58606812Y-46016391D01*
X58606814Y-46016392D01*
X58734108Y-46050500D01*
X58734110Y-46050500D01*
X58865890Y-46050500D01*
X58865892Y-46050500D01*
X58993186Y-46016392D01*
X58993188Y-46016390D01*
X58993190Y-46016390D01*
X59107309Y-45950503D01*
X59107309Y-45950502D01*
X59107314Y-45950500D01*
X59200500Y-45857314D01*
X59266392Y-45743186D01*
X59300500Y-45615892D01*
X59300500Y-45484108D01*
X59266392Y-45356814D01*
X59266390Y-45356811D01*
X59266390Y-45356809D01*
X59200503Y-45242690D01*
X59200501Y-45242688D01*
X59200500Y-45242686D01*
X59107314Y-45149500D01*
X59107311Y-45149498D01*
X59107309Y-45149496D01*
X58993189Y-45083609D01*
X58993191Y-45083609D01*
X58927068Y-45065892D01*
X58865892Y-45049500D01*
X58734108Y-45049500D01*
X58672932Y-45065892D01*
X58606809Y-45083609D01*
X58492690Y-45149496D01*
X58399496Y-45242690D01*
X58333609Y-45356809D01*
X58333608Y-45356814D01*
X58299500Y-45484108D01*
X50627068Y-45484108D01*
X50693186Y-45466392D01*
X50693188Y-45466390D01*
X50693190Y-45466390D01*
X50807309Y-45400503D01*
X50807309Y-45400502D01*
X50807314Y-45400500D01*
X50900500Y-45307314D01*
X50966392Y-45193186D01*
X51000500Y-45065892D01*
X51000500Y-44934108D01*
X50966392Y-44806814D01*
X50966390Y-44806811D01*
X50966390Y-44806809D01*
X50900503Y-44692690D01*
X50900501Y-44692688D01*
X50900500Y-44692686D01*
X50807314Y-44599500D01*
X50807311Y-44599498D01*
X50807309Y-44599496D01*
X50693189Y-44533609D01*
X50693191Y-44533609D01*
X50643799Y-44520375D01*
X50565892Y-44499500D01*
X50434108Y-44499500D01*
X50356200Y-44520375D01*
X50306809Y-44533609D01*
X50192690Y-44599496D01*
X50099496Y-44692690D01*
X50033609Y-44806809D01*
X50018373Y-44863673D01*
X49999500Y-44934108D01*
X48373706Y-44934108D01*
X48400500Y-44907314D01*
X48409504Y-44891717D01*
X48417357Y-44878118D01*
X48458524Y-44806814D01*
X48466392Y-44793186D01*
X48500500Y-44665892D01*
X48500500Y-44534108D01*
X48466392Y-44406814D01*
X48466390Y-44406811D01*
X48466390Y-44406809D01*
X48400503Y-44292690D01*
X48400501Y-44292688D01*
X48400500Y-44292686D01*
X48307314Y-44199500D01*
X48307311Y-44199498D01*
X48307309Y-44199496D01*
X48193189Y-44133609D01*
X48193191Y-44133609D01*
X48143799Y-44120375D01*
X48065892Y-44099500D01*
X47934108Y-44099500D01*
X47856200Y-44120375D01*
X47806809Y-44133609D01*
X47692690Y-44199496D01*
X47599496Y-44292690D01*
X47533609Y-44406809D01*
X47533608Y-44406814D01*
X47499500Y-44534108D01*
X25199824Y-44534108D01*
X25354041Y-43857142D01*
X25355013Y-43853245D01*
X25378692Y-43765892D01*
X25575272Y-43040691D01*
X31449500Y-43040691D01*
X31449500Y-43159309D01*
X31469409Y-43233609D01*
X31480202Y-43273890D01*
X31539507Y-43376608D01*
X31539509Y-43376610D01*
X31539511Y-43376613D01*
X31623387Y-43460489D01*
X31623389Y-43460490D01*
X31623391Y-43460492D01*
X31726110Y-43519797D01*
X31726111Y-43519797D01*
X31726114Y-43519799D01*
X31840691Y-43550500D01*
X31840693Y-43550500D01*
X31959307Y-43550500D01*
X31959309Y-43550500D01*
X32073886Y-43519799D01*
X32073888Y-43519797D01*
X32073890Y-43519797D01*
X32135704Y-43484108D01*
X33562000Y-43484108D01*
X33562000Y-43615892D01*
X33592079Y-43728151D01*
X33596109Y-43743190D01*
X33661996Y-43857309D01*
X33661998Y-43857311D01*
X33662000Y-43857314D01*
X33755186Y-43950500D01*
X33755188Y-43950501D01*
X33755190Y-43950503D01*
X33869310Y-44016390D01*
X33869308Y-44016390D01*
X33869312Y-44016391D01*
X33869314Y-44016392D01*
X33996608Y-44050500D01*
X33996610Y-44050500D01*
X34128390Y-44050500D01*
X34128392Y-44050500D01*
X34255686Y-44016392D01*
X34255688Y-44016390D01*
X34255690Y-44016390D01*
X34369809Y-43950503D01*
X34369809Y-43950502D01*
X34369814Y-43950500D01*
X34463000Y-43857314D01*
X34528892Y-43743186D01*
X34558119Y-43634108D01*
X40449500Y-43634108D01*
X40449500Y-43765892D01*
X40472906Y-43853245D01*
X40483609Y-43893190D01*
X40549496Y-44007309D01*
X40549498Y-44007311D01*
X40549500Y-44007314D01*
X40642686Y-44100500D01*
X40642688Y-44100501D01*
X40642690Y-44100503D01*
X40756810Y-44166390D01*
X40756808Y-44166390D01*
X40756812Y-44166391D01*
X40756814Y-44166392D01*
X40884108Y-44200500D01*
X40884110Y-44200500D01*
X41015890Y-44200500D01*
X41015892Y-44200500D01*
X41143186Y-44166392D01*
X41143188Y-44166390D01*
X41143190Y-44166390D01*
X41257309Y-44100503D01*
X41257309Y-44100502D01*
X41257314Y-44100500D01*
X41350500Y-44007314D01*
X41416392Y-43893186D01*
X41450500Y-43765892D01*
X41450500Y-43634108D01*
X41416392Y-43506814D01*
X41416390Y-43506811D01*
X41416390Y-43506809D01*
X41350503Y-43392690D01*
X41350501Y-43392688D01*
X41350500Y-43392686D01*
X41257314Y-43299500D01*
X41257311Y-43299498D01*
X41257309Y-43299496D01*
X41143189Y-43233609D01*
X41143191Y-43233609D01*
X41082375Y-43217314D01*
X41015892Y-43199500D01*
X40884108Y-43199500D01*
X40817625Y-43217314D01*
X40756809Y-43233609D01*
X40642690Y-43299496D01*
X40549496Y-43392690D01*
X40483609Y-43506809D01*
X40471902Y-43550500D01*
X40449500Y-43634108D01*
X34558119Y-43634108D01*
X34563000Y-43615892D01*
X34563000Y-43484108D01*
X34528892Y-43356814D01*
X34528890Y-43356811D01*
X34528890Y-43356809D01*
X34463003Y-43242690D01*
X34463001Y-43242688D01*
X34463000Y-43242686D01*
X34369814Y-43149500D01*
X34369811Y-43149498D01*
X34369809Y-43149496D01*
X34255689Y-43083609D01*
X34255691Y-43083609D01*
X34189568Y-43065892D01*
X34128392Y-43049500D01*
X33996608Y-43049500D01*
X33935432Y-43065892D01*
X33869309Y-43083609D01*
X33755190Y-43149496D01*
X33661996Y-43242690D01*
X33596109Y-43356809D01*
X33590862Y-43376392D01*
X33562000Y-43484108D01*
X32135704Y-43484108D01*
X32176608Y-43460492D01*
X32176608Y-43460491D01*
X32176613Y-43460489D01*
X32260489Y-43376613D01*
X32300502Y-43307309D01*
X32319797Y-43273890D01*
X32319797Y-43273888D01*
X32319799Y-43273886D01*
X32350500Y-43159309D01*
X32350500Y-43040691D01*
X32319799Y-42926114D01*
X32319797Y-42926111D01*
X32319797Y-42926109D01*
X32272453Y-42844108D01*
X50899500Y-42844108D01*
X50899500Y-42975892D01*
X50904134Y-42993186D01*
X50933609Y-43103190D01*
X50999496Y-43217309D01*
X50999498Y-43217311D01*
X50999500Y-43217314D01*
X51092686Y-43310500D01*
X51092688Y-43310501D01*
X51092690Y-43310503D01*
X51206810Y-43376390D01*
X51206808Y-43376390D01*
X51206812Y-43376391D01*
X51206814Y-43376392D01*
X51334108Y-43410500D01*
X51334110Y-43410500D01*
X51465890Y-43410500D01*
X51465892Y-43410500D01*
X51593186Y-43376392D01*
X51593188Y-43376390D01*
X51593190Y-43376390D01*
X51707309Y-43310503D01*
X51707309Y-43310502D01*
X51707314Y-43310500D01*
X51800500Y-43217314D01*
X51814430Y-43193186D01*
X51866390Y-43103190D01*
X51866390Y-43103188D01*
X51866392Y-43103186D01*
X51900500Y-42975892D01*
X51900500Y-42844108D01*
X51871026Y-42734108D01*
X54599500Y-42734108D01*
X54599500Y-42865892D01*
X54617778Y-42934108D01*
X54633609Y-42993190D01*
X54699496Y-43107309D01*
X54699498Y-43107311D01*
X54699500Y-43107314D01*
X54792686Y-43200500D01*
X54792688Y-43200501D01*
X54792690Y-43200503D01*
X54906810Y-43266390D01*
X54906808Y-43266390D01*
X54906812Y-43266391D01*
X54906814Y-43266392D01*
X55034108Y-43300500D01*
X55034110Y-43300500D01*
X55165890Y-43300500D01*
X55165892Y-43300500D01*
X55293186Y-43266392D01*
X55293188Y-43266390D01*
X55293190Y-43266390D01*
X55407309Y-43200503D01*
X55407309Y-43200502D01*
X55407314Y-43200500D01*
X55500500Y-43107314D01*
X55533879Y-43049500D01*
X55566390Y-42993190D01*
X55566390Y-42993188D01*
X55566392Y-42993186D01*
X55582222Y-42934108D01*
X69199500Y-42934108D01*
X69199500Y-43065892D01*
X69224530Y-43159307D01*
X69233609Y-43193190D01*
X69299496Y-43307309D01*
X69299498Y-43307311D01*
X69299500Y-43307314D01*
X69392686Y-43400500D01*
X69392688Y-43400501D01*
X69392690Y-43400503D01*
X69506810Y-43466390D01*
X69506808Y-43466390D01*
X69506812Y-43466391D01*
X69506814Y-43466392D01*
X69634108Y-43500500D01*
X69634110Y-43500500D01*
X69765890Y-43500500D01*
X69765892Y-43500500D01*
X69893186Y-43466392D01*
X69893188Y-43466390D01*
X69893190Y-43466390D01*
X70007309Y-43400503D01*
X70007309Y-43400502D01*
X70007314Y-43400500D01*
X70100500Y-43307314D01*
X70104434Y-43300500D01*
X70166390Y-43193190D01*
X70166390Y-43193188D01*
X70166392Y-43193186D01*
X70200500Y-43065892D01*
X70200500Y-42934108D01*
X70166392Y-42806814D01*
X70166390Y-42806811D01*
X70166390Y-42806809D01*
X70100503Y-42692690D01*
X70100501Y-42692688D01*
X70100500Y-42692686D01*
X70007314Y-42599500D01*
X70007311Y-42599498D01*
X70007309Y-42599496D01*
X69893189Y-42533609D01*
X69893191Y-42533609D01*
X69843799Y-42520375D01*
X69765892Y-42499500D01*
X69634108Y-42499500D01*
X69556200Y-42520375D01*
X69506809Y-42533609D01*
X69392690Y-42599496D01*
X69299496Y-42692690D01*
X69233609Y-42806809D01*
X69217778Y-42865892D01*
X69199500Y-42934108D01*
X55582222Y-42934108D01*
X55600500Y-42865892D01*
X55600500Y-42734108D01*
X55566392Y-42606814D01*
X55566390Y-42606811D01*
X55566390Y-42606809D01*
X55500503Y-42492690D01*
X55500501Y-42492688D01*
X55500500Y-42492686D01*
X55407314Y-42399500D01*
X55407311Y-42399498D01*
X55407309Y-42399496D01*
X55293189Y-42333609D01*
X55293191Y-42333609D01*
X55227068Y-42315892D01*
X55165892Y-42299500D01*
X55034108Y-42299500D01*
X54972932Y-42315892D01*
X54906809Y-42333609D01*
X54792690Y-42399496D01*
X54699496Y-42492690D01*
X54633609Y-42606809D01*
X54633608Y-42606814D01*
X54599500Y-42734108D01*
X51871026Y-42734108D01*
X51866392Y-42716814D01*
X51866389Y-42716809D01*
X51800503Y-42602690D01*
X51800501Y-42602688D01*
X51800500Y-42602686D01*
X51707314Y-42509500D01*
X51707311Y-42509498D01*
X51707309Y-42509496D01*
X51593189Y-42443609D01*
X51593191Y-42443609D01*
X51543799Y-42430375D01*
X51465892Y-42409500D01*
X51334108Y-42409500D01*
X51256200Y-42430375D01*
X51206809Y-42443609D01*
X51092690Y-42509496D01*
X50999496Y-42602690D01*
X50933609Y-42716809D01*
X50923847Y-42753242D01*
X50899500Y-42844108D01*
X32272453Y-42844108D01*
X32260492Y-42823391D01*
X32260490Y-42823389D01*
X32260489Y-42823387D01*
X32176613Y-42739511D01*
X32176610Y-42739509D01*
X32176608Y-42739507D01*
X32073889Y-42680202D01*
X32073890Y-42680202D01*
X32060351Y-42676574D01*
X31959309Y-42649500D01*
X31840691Y-42649500D01*
X31770567Y-42668289D01*
X31726109Y-42680202D01*
X31623391Y-42739507D01*
X31539507Y-42823391D01*
X31480202Y-42926109D01*
X31466863Y-42975890D01*
X31449500Y-43040691D01*
X25575272Y-43040691D01*
X25624581Y-42858785D01*
X25625692Y-42854995D01*
X25837222Y-42184108D01*
X41049500Y-42184108D01*
X41049500Y-42315892D01*
X41074582Y-42409500D01*
X41083609Y-42443190D01*
X41149496Y-42557309D01*
X41149498Y-42557311D01*
X41149500Y-42557314D01*
X41242686Y-42650500D01*
X41242688Y-42650501D01*
X41242690Y-42650503D01*
X41356810Y-42716390D01*
X41356808Y-42716390D01*
X41356812Y-42716391D01*
X41356814Y-42716392D01*
X41484108Y-42750500D01*
X41484110Y-42750500D01*
X41615890Y-42750500D01*
X41615892Y-42750500D01*
X41743186Y-42716392D01*
X41743188Y-42716390D01*
X41743190Y-42716390D01*
X41857309Y-42650503D01*
X41857309Y-42650502D01*
X41857314Y-42650500D01*
X41950500Y-42557314D01*
X41964187Y-42533608D01*
X42016390Y-42443190D01*
X42016390Y-42443188D01*
X42016392Y-42443186D01*
X42050500Y-42315892D01*
X42050500Y-42184108D01*
X42016392Y-42056814D01*
X42016390Y-42056811D01*
X42016390Y-42056809D01*
X41950503Y-41942690D01*
X41950501Y-41942688D01*
X41950500Y-41942686D01*
X41857314Y-41849500D01*
X41857311Y-41849498D01*
X41857309Y-41849496D01*
X41743189Y-41783609D01*
X41743191Y-41783609D01*
X41693799Y-41770375D01*
X41615892Y-41749500D01*
X41484108Y-41749500D01*
X41406200Y-41770375D01*
X41356809Y-41783609D01*
X41242690Y-41849496D01*
X41149496Y-41942690D01*
X41083609Y-42056809D01*
X41071902Y-42100500D01*
X41049500Y-42184108D01*
X25837222Y-42184108D01*
X25935528Y-41872321D01*
X25936795Y-41868568D01*
X26057428Y-41534108D01*
X44499500Y-41534108D01*
X44499500Y-41665892D01*
X44529579Y-41778151D01*
X44533609Y-41793190D01*
X44599496Y-41907309D01*
X44599498Y-41907311D01*
X44599500Y-41907314D01*
X44692686Y-42000500D01*
X44692688Y-42000501D01*
X44692690Y-42000503D01*
X44806810Y-42066390D01*
X44806808Y-42066390D01*
X44806812Y-42066391D01*
X44806814Y-42066392D01*
X44934108Y-42100500D01*
X44934110Y-42100500D01*
X45065890Y-42100500D01*
X45065892Y-42100500D01*
X45193186Y-42066392D01*
X45193188Y-42066390D01*
X45193190Y-42066390D01*
X45307309Y-42000503D01*
X45307309Y-42000502D01*
X45307314Y-42000500D01*
X45400500Y-41907314D01*
X45433879Y-41849500D01*
X45466390Y-41793190D01*
X45466390Y-41793188D01*
X45466392Y-41793186D01*
X45500500Y-41665892D01*
X45500500Y-41534108D01*
X45466392Y-41406814D01*
X45466390Y-41406811D01*
X45466390Y-41406809D01*
X45400503Y-41292690D01*
X45400501Y-41292688D01*
X45400500Y-41292686D01*
X45307314Y-41199500D01*
X45307311Y-41199498D01*
X45307309Y-41199496D01*
X45274738Y-41180691D01*
X57649500Y-41180691D01*
X57649500Y-41299309D01*
X57676574Y-41400351D01*
X57680202Y-41413890D01*
X57739507Y-41516608D01*
X57739509Y-41516610D01*
X57739511Y-41516613D01*
X57823387Y-41600489D01*
X57823389Y-41600490D01*
X57823391Y-41600492D01*
X57926110Y-41659797D01*
X57926111Y-41659797D01*
X57926114Y-41659799D01*
X58040691Y-41690500D01*
X58040693Y-41690500D01*
X58159307Y-41690500D01*
X58159309Y-41690500D01*
X58273886Y-41659799D01*
X58273888Y-41659797D01*
X58273890Y-41659797D01*
X58376608Y-41600492D01*
X58376608Y-41600491D01*
X58376613Y-41600489D01*
X58460489Y-41516613D01*
X58498660Y-41450500D01*
X58519797Y-41413890D01*
X58519797Y-41413888D01*
X58519799Y-41413886D01*
X58550500Y-41299309D01*
X58550500Y-41180691D01*
X58519799Y-41066114D01*
X58519797Y-41066111D01*
X58519797Y-41066109D01*
X58460492Y-40963391D01*
X58460490Y-40963389D01*
X58460489Y-40963387D01*
X58376613Y-40879511D01*
X58376610Y-40879509D01*
X58376608Y-40879507D01*
X58273889Y-40820202D01*
X58273890Y-40820202D01*
X58270431Y-40819275D01*
X58159309Y-40789500D01*
X58040691Y-40789500D01*
X57970567Y-40808289D01*
X57926109Y-40820202D01*
X57823391Y-40879507D01*
X57739507Y-40963391D01*
X57680202Y-41066109D01*
X57680201Y-41066114D01*
X57649500Y-41180691D01*
X45274738Y-41180691D01*
X45193189Y-41133609D01*
X45193191Y-41133609D01*
X45143799Y-41120375D01*
X45065892Y-41099500D01*
X44934108Y-41099500D01*
X44856200Y-41120375D01*
X44806809Y-41133609D01*
X44692690Y-41199496D01*
X44599496Y-41292690D01*
X44533609Y-41406809D01*
X44521902Y-41450500D01*
X44499500Y-41534108D01*
X26057428Y-41534108D01*
X26286393Y-40899293D01*
X26287797Y-40895636D01*
X26292494Y-40884108D01*
X35699500Y-40884108D01*
X35699500Y-41015892D01*
X35729579Y-41128151D01*
X35733609Y-41143190D01*
X35799496Y-41257309D01*
X35799498Y-41257311D01*
X35799500Y-41257314D01*
X35892686Y-41350500D01*
X35892688Y-41350501D01*
X35892690Y-41350503D01*
X36006810Y-41416390D01*
X36006808Y-41416390D01*
X36006812Y-41416391D01*
X36006814Y-41416392D01*
X36134108Y-41450500D01*
X36134110Y-41450500D01*
X36265890Y-41450500D01*
X36265892Y-41450500D01*
X36393186Y-41416392D01*
X36393188Y-41416390D01*
X36393190Y-41416390D01*
X36507309Y-41350503D01*
X36507309Y-41350502D01*
X36507314Y-41350500D01*
X36600500Y-41257314D01*
X36601032Y-41256392D01*
X36666390Y-41143190D01*
X36666390Y-41143188D01*
X36666392Y-41143186D01*
X36700500Y-41015892D01*
X36700500Y-40884108D01*
X36666392Y-40756814D01*
X36666390Y-40756811D01*
X36666390Y-40756809D01*
X36647510Y-40724108D01*
X59749500Y-40724108D01*
X59749500Y-40855892D01*
X59761144Y-40899347D01*
X59783609Y-40983190D01*
X59849496Y-41097309D01*
X59849498Y-41097311D01*
X59849500Y-41097314D01*
X59942686Y-41190500D01*
X59942688Y-41190501D01*
X59942690Y-41190503D01*
X60056810Y-41256390D01*
X60056808Y-41256390D01*
X60056812Y-41256391D01*
X60056814Y-41256392D01*
X60184108Y-41290500D01*
X60184110Y-41290500D01*
X60315890Y-41290500D01*
X60315892Y-41290500D01*
X60443186Y-41256392D01*
X60443188Y-41256390D01*
X60443190Y-41256390D01*
X60557309Y-41190503D01*
X60557309Y-41190502D01*
X60557314Y-41190500D01*
X60650500Y-41097314D01*
X60650503Y-41097309D01*
X60716390Y-40983190D01*
X60716390Y-40983188D01*
X60716392Y-40983186D01*
X60750500Y-40855892D01*
X60750500Y-40724108D01*
X60716392Y-40596814D01*
X60716390Y-40596811D01*
X60716390Y-40596809D01*
X60650503Y-40482690D01*
X60650501Y-40482688D01*
X60650500Y-40482686D01*
X60557314Y-40389500D01*
X60557311Y-40389498D01*
X60557309Y-40389496D01*
X60443189Y-40323609D01*
X60443191Y-40323609D01*
X60393799Y-40310375D01*
X60315892Y-40289500D01*
X60184108Y-40289500D01*
X60106200Y-40310375D01*
X60056809Y-40323609D01*
X59942690Y-40389496D01*
X59849496Y-40482690D01*
X59783609Y-40596809D01*
X59783608Y-40596814D01*
X59749500Y-40724108D01*
X36647510Y-40724108D01*
X36600503Y-40642690D01*
X36600501Y-40642688D01*
X36600500Y-40642686D01*
X36507314Y-40549500D01*
X36507311Y-40549498D01*
X36507309Y-40549496D01*
X36393189Y-40483609D01*
X36393191Y-40483609D01*
X36343799Y-40470375D01*
X36265892Y-40449500D01*
X36134108Y-40449500D01*
X36056200Y-40470375D01*
X36006809Y-40483609D01*
X35892690Y-40549496D01*
X35799496Y-40642690D01*
X35733609Y-40756809D01*
X35733608Y-40756814D01*
X35699500Y-40884108D01*
X26292494Y-40884108D01*
X26676560Y-39941412D01*
X26678135Y-39937760D01*
X26970098Y-39297108D01*
X35549500Y-39297108D01*
X35549500Y-39428892D01*
X35568285Y-39499000D01*
X35583609Y-39556190D01*
X35649496Y-39670309D01*
X35649498Y-39670311D01*
X35649500Y-39670314D01*
X35742686Y-39763500D01*
X35742688Y-39763501D01*
X35742690Y-39763503D01*
X35856810Y-39829390D01*
X35856808Y-39829390D01*
X35856812Y-39829391D01*
X35856814Y-39829392D01*
X35984108Y-39863500D01*
X35984110Y-39863500D01*
X36115890Y-39863500D01*
X36115892Y-39863500D01*
X36243186Y-39829392D01*
X36243188Y-39829390D01*
X36243190Y-39829390D01*
X36357309Y-39763503D01*
X36357309Y-39763502D01*
X36357314Y-39763500D01*
X36386706Y-39734108D01*
X41599500Y-39734108D01*
X41599500Y-39865892D01*
X41618750Y-39937735D01*
X41633609Y-39993190D01*
X41699496Y-40107309D01*
X41699498Y-40107311D01*
X41699500Y-40107314D01*
X41792686Y-40200500D01*
X41792688Y-40200501D01*
X41792690Y-40200503D01*
X41906810Y-40266390D01*
X41906808Y-40266390D01*
X41906812Y-40266391D01*
X41906814Y-40266392D01*
X42034108Y-40300500D01*
X42034110Y-40300500D01*
X42165890Y-40300500D01*
X42165892Y-40300500D01*
X42293186Y-40266392D01*
X42293188Y-40266390D01*
X42293190Y-40266390D01*
X42407309Y-40200503D01*
X42407309Y-40200502D01*
X42407314Y-40200500D01*
X42500500Y-40107314D01*
X42566392Y-39993186D01*
X42600500Y-39865892D01*
X42600500Y-39734108D01*
X42566392Y-39606814D01*
X42566390Y-39606811D01*
X42566390Y-39606809D01*
X42504146Y-39499000D01*
X42491424Y-39439152D01*
X42516310Y-39383256D01*
X42569298Y-39352663D01*
X42589882Y-39350500D01*
X42609307Y-39350500D01*
X42609309Y-39350500D01*
X42723886Y-39319799D01*
X42723888Y-39319797D01*
X42723890Y-39319797D01*
X42826608Y-39260492D01*
X42826608Y-39260491D01*
X42826613Y-39260489D01*
X42910489Y-39176613D01*
X42910492Y-39176608D01*
X42969797Y-39073890D01*
X42969797Y-39073888D01*
X42969799Y-39073886D01*
X43000500Y-38959309D01*
X43000500Y-38840691D01*
X42969799Y-38726114D01*
X42969797Y-38726111D01*
X42969797Y-38726109D01*
X42910492Y-38623391D01*
X42910490Y-38623389D01*
X42910489Y-38623387D01*
X42826613Y-38539511D01*
X42826610Y-38539509D01*
X42826608Y-38539507D01*
X42723889Y-38480202D01*
X42723890Y-38480202D01*
X42710351Y-38476574D01*
X42609309Y-38449500D01*
X42490691Y-38449500D01*
X42420567Y-38468289D01*
X42376109Y-38480202D01*
X42273391Y-38539507D01*
X42189507Y-38623391D01*
X42130202Y-38726109D01*
X42120266Y-38763190D01*
X42099500Y-38840691D01*
X42099500Y-38959309D01*
X42125324Y-39055686D01*
X42130202Y-39073890D01*
X42174722Y-39151000D01*
X42187444Y-39210848D01*
X42162557Y-39266744D01*
X42109569Y-39297337D01*
X42088986Y-39299500D01*
X42034108Y-39299500D01*
X41958358Y-39319797D01*
X41906809Y-39333609D01*
X41792690Y-39399496D01*
X41699496Y-39492690D01*
X41633609Y-39606809D01*
X41633608Y-39606814D01*
X41599500Y-39734108D01*
X36386706Y-39734108D01*
X36450500Y-39670314D01*
X36450797Y-39669799D01*
X36516390Y-39556190D01*
X36516390Y-39556188D01*
X36516392Y-39556186D01*
X36550500Y-39428892D01*
X36550500Y-39297108D01*
X36516392Y-39169814D01*
X36516390Y-39169811D01*
X36516390Y-39169809D01*
X36450503Y-39055690D01*
X36450501Y-39055688D01*
X36450500Y-39055686D01*
X36357314Y-38962500D01*
X36357311Y-38962498D01*
X36357309Y-38962496D01*
X36243189Y-38896609D01*
X36243191Y-38896609D01*
X36171160Y-38877309D01*
X36115892Y-38862500D01*
X35984108Y-38862500D01*
X35928840Y-38877309D01*
X35856809Y-38896609D01*
X35742690Y-38962496D01*
X35649496Y-39055690D01*
X35583609Y-39169809D01*
X35581786Y-39176613D01*
X35549500Y-39297108D01*
X26970098Y-39297108D01*
X27105414Y-39000184D01*
X27107139Y-38996596D01*
X27406859Y-38404108D01*
X33162500Y-38404108D01*
X33162500Y-38535892D01*
X33192579Y-38648151D01*
X33196609Y-38663190D01*
X33262496Y-38777309D01*
X33262498Y-38777311D01*
X33262500Y-38777314D01*
X33355686Y-38870500D01*
X33355688Y-38870501D01*
X33355690Y-38870503D01*
X33469810Y-38936390D01*
X33469808Y-38936390D01*
X33469812Y-38936391D01*
X33469814Y-38936392D01*
X33597108Y-38970500D01*
X33597110Y-38970500D01*
X33728890Y-38970500D01*
X33728892Y-38970500D01*
X33856186Y-38936392D01*
X33856188Y-38936390D01*
X33856190Y-38936390D01*
X33970309Y-38870503D01*
X33970309Y-38870502D01*
X33970314Y-38870500D01*
X34063500Y-38777314D01*
X34073702Y-38759644D01*
X34129390Y-38663190D01*
X34129390Y-38663188D01*
X34129392Y-38663186D01*
X34163500Y-38535892D01*
X34163500Y-38504108D01*
X37039500Y-38504108D01*
X37039500Y-38635892D01*
X37054371Y-38691390D01*
X37073609Y-38763190D01*
X37139496Y-38877309D01*
X37139498Y-38877311D01*
X37139500Y-38877314D01*
X37232686Y-38970500D01*
X37232688Y-38970501D01*
X37232690Y-38970503D01*
X37346810Y-39036390D01*
X37346808Y-39036390D01*
X37346812Y-39036391D01*
X37346814Y-39036392D01*
X37474108Y-39070500D01*
X37474110Y-39070500D01*
X37605890Y-39070500D01*
X37605892Y-39070500D01*
X37733186Y-39036392D01*
X37733188Y-39036390D01*
X37733190Y-39036390D01*
X37847309Y-38970503D01*
X37847309Y-38970502D01*
X37847314Y-38970500D01*
X37940500Y-38877314D01*
X37961644Y-38840692D01*
X38006390Y-38763190D01*
X38006390Y-38763188D01*
X38006392Y-38763186D01*
X38040500Y-38635892D01*
X38040500Y-38504108D01*
X38006392Y-38376814D01*
X37952868Y-38284108D01*
X45799500Y-38284108D01*
X45799500Y-38415892D01*
X45829579Y-38528151D01*
X45833609Y-38543190D01*
X45899496Y-38657309D01*
X45899498Y-38657311D01*
X45899500Y-38657314D01*
X45992686Y-38750500D01*
X45992688Y-38750501D01*
X45992690Y-38750503D01*
X46106810Y-38816390D01*
X46106808Y-38816390D01*
X46106812Y-38816391D01*
X46106814Y-38816392D01*
X46234108Y-38850500D01*
X46234110Y-38850500D01*
X46365890Y-38850500D01*
X46365892Y-38850500D01*
X46493186Y-38816392D01*
X46493188Y-38816390D01*
X46493190Y-38816390D01*
X46607309Y-38750503D01*
X46607309Y-38750502D01*
X46607314Y-38750500D01*
X46700500Y-38657314D01*
X46766392Y-38543186D01*
X46800500Y-38415892D01*
X46800500Y-38284108D01*
X46767007Y-38159108D01*
X56289500Y-38159108D01*
X56289500Y-38290892D01*
X56306123Y-38352931D01*
X56323609Y-38418190D01*
X56389496Y-38532309D01*
X56389498Y-38532311D01*
X56389500Y-38532314D01*
X56482686Y-38625500D01*
X56482688Y-38625501D01*
X56482690Y-38625503D01*
X56596810Y-38691390D01*
X56596808Y-38691390D01*
X56596812Y-38691391D01*
X56596814Y-38691392D01*
X56724108Y-38725500D01*
X56724110Y-38725500D01*
X56855891Y-38725500D01*
X56855892Y-38725500D01*
X56884113Y-38717938D01*
X56945214Y-38721139D01*
X56992765Y-38759644D01*
X57008601Y-38818744D01*
X56986675Y-38875866D01*
X56977681Y-38884628D01*
X56977976Y-38884923D01*
X56973389Y-38889509D01*
X56973387Y-38889511D01*
X56926508Y-38936390D01*
X56889508Y-38973390D01*
X56889507Y-38973391D01*
X56830202Y-39076109D01*
X56830201Y-39076114D01*
X56799500Y-39190691D01*
X56799500Y-39309309D01*
X56810537Y-39350500D01*
X56830202Y-39423890D01*
X56889507Y-39526608D01*
X56889509Y-39526610D01*
X56889511Y-39526613D01*
X56973387Y-39610489D01*
X56973389Y-39610490D01*
X56973391Y-39610492D01*
X57076110Y-39669797D01*
X57076111Y-39669797D01*
X57076114Y-39669799D01*
X57190691Y-39700500D01*
X57190693Y-39700500D01*
X57309307Y-39700500D01*
X57309309Y-39700500D01*
X57423886Y-39669799D01*
X57423888Y-39669797D01*
X57423890Y-39669797D01*
X57526608Y-39610492D01*
X57526608Y-39610491D01*
X57526613Y-39610489D01*
X57610489Y-39526613D01*
X57669799Y-39423886D01*
X57700500Y-39309309D01*
X57700500Y-39190691D01*
X57669799Y-39076114D01*
X57669797Y-39076111D01*
X57669797Y-39076109D01*
X57610492Y-38973391D01*
X57610490Y-38973389D01*
X57610489Y-38973387D01*
X57526613Y-38889511D01*
X57526610Y-38889509D01*
X57526608Y-38889507D01*
X57423889Y-38830202D01*
X57423890Y-38830202D01*
X57372350Y-38816392D01*
X57309309Y-38799500D01*
X57190691Y-38799500D01*
X57190688Y-38799500D01*
X57179523Y-38802492D01*
X57118421Y-38799289D01*
X57070872Y-38760782D01*
X57055038Y-38701681D01*
X57076966Y-38644561D01*
X57093636Y-38628322D01*
X57097308Y-38625503D01*
X57097314Y-38625500D01*
X57190500Y-38532314D01*
X57256392Y-38418186D01*
X57290500Y-38290892D01*
X57290500Y-38159108D01*
X57256392Y-38031814D01*
X57256390Y-38031811D01*
X57256390Y-38031809D01*
X57190503Y-37917690D01*
X57190501Y-37917688D01*
X57190500Y-37917686D01*
X57097314Y-37824500D01*
X57097311Y-37824498D01*
X57097309Y-37824496D01*
X56983189Y-37758609D01*
X56983191Y-37758609D01*
X56933799Y-37745375D01*
X56855892Y-37724500D01*
X56724108Y-37724500D01*
X56646200Y-37745375D01*
X56596809Y-37758609D01*
X56482690Y-37824496D01*
X56389496Y-37917690D01*
X56323609Y-38031809D01*
X56313430Y-38069799D01*
X56289500Y-38159108D01*
X46767007Y-38159108D01*
X46766392Y-38156814D01*
X46766390Y-38156811D01*
X46766390Y-38156809D01*
X46700503Y-38042690D01*
X46700501Y-38042688D01*
X46700500Y-38042686D01*
X46607314Y-37949500D01*
X46607311Y-37949498D01*
X46607309Y-37949496D01*
X46493189Y-37883609D01*
X46493191Y-37883609D01*
X46418141Y-37863500D01*
X46365892Y-37849500D01*
X46234108Y-37849500D01*
X46181859Y-37863500D01*
X46106809Y-37883609D01*
X45992690Y-37949496D01*
X45899496Y-38042690D01*
X45833609Y-38156809D01*
X45830210Y-38169496D01*
X45799500Y-38284108D01*
X37952868Y-38284108D01*
X37940500Y-38262686D01*
X37847314Y-38169500D01*
X37847311Y-38169498D01*
X37847309Y-38169496D01*
X37733189Y-38103609D01*
X37733191Y-38103609D01*
X37683799Y-38090375D01*
X37605892Y-38069500D01*
X37474108Y-38069500D01*
X37396200Y-38090375D01*
X37346809Y-38103609D01*
X37232690Y-38169496D01*
X37139496Y-38262690D01*
X37073609Y-38376809D01*
X37062521Y-38418190D01*
X37039500Y-38504108D01*
X34163500Y-38504108D01*
X34163500Y-38404108D01*
X34129392Y-38276814D01*
X34129390Y-38276811D01*
X34129390Y-38276809D01*
X34063503Y-38162690D01*
X34063501Y-38162688D01*
X34063500Y-38162686D01*
X33970314Y-38069500D01*
X33970311Y-38069498D01*
X33970309Y-38069496D01*
X33856189Y-38003609D01*
X33856191Y-38003609D01*
X33806799Y-37990375D01*
X33728892Y-37969500D01*
X33597108Y-37969500D01*
X33519200Y-37990375D01*
X33469809Y-38003609D01*
X33355690Y-38069496D01*
X33262496Y-38162690D01*
X33196609Y-38276809D01*
X33194653Y-38284109D01*
X33162500Y-38404108D01*
X27406859Y-38404108D01*
X27573131Y-38075422D01*
X27573131Y-38075421D01*
X26261530Y-37378031D01*
X26109336Y-37297108D01*
X32349500Y-37297108D01*
X32349500Y-37428892D01*
X32372393Y-37514329D01*
X32383609Y-37556190D01*
X32449496Y-37670309D01*
X32449498Y-37670311D01*
X32449500Y-37670314D01*
X32542686Y-37763500D01*
X32542688Y-37763501D01*
X32542690Y-37763503D01*
X32656810Y-37829390D01*
X32656808Y-37829390D01*
X32656812Y-37829391D01*
X32656814Y-37829392D01*
X32784108Y-37863500D01*
X32784110Y-37863500D01*
X32915890Y-37863500D01*
X32915892Y-37863500D01*
X33043186Y-37829392D01*
X33043188Y-37829390D01*
X33043190Y-37829390D01*
X33157309Y-37763503D01*
X33157309Y-37763502D01*
X33157314Y-37763500D01*
X33250500Y-37670314D01*
X33258007Y-37657312D01*
X33316390Y-37556190D01*
X33316390Y-37556188D01*
X33316392Y-37556186D01*
X33350500Y-37428892D01*
X33350500Y-37297108D01*
X33316392Y-37169814D01*
X33270710Y-37090691D01*
X37399500Y-37090691D01*
X37399500Y-37209309D01*
X37419543Y-37284109D01*
X37430202Y-37323890D01*
X37489507Y-37426608D01*
X37489509Y-37426610D01*
X37489511Y-37426613D01*
X37573387Y-37510489D01*
X37573389Y-37510490D01*
X37573391Y-37510492D01*
X37676110Y-37569797D01*
X37676111Y-37569797D01*
X37676114Y-37569799D01*
X37790691Y-37600500D01*
X37790693Y-37600500D01*
X37909308Y-37600500D01*
X37909309Y-37600500D01*
X37974876Y-37582931D01*
X38035978Y-37586132D01*
X38083528Y-37624637D01*
X38099500Y-37678557D01*
X38099500Y-37709309D01*
X38126574Y-37810351D01*
X38130202Y-37823890D01*
X38189507Y-37926608D01*
X38189509Y-37926610D01*
X38189511Y-37926613D01*
X38273387Y-38010489D01*
X38273389Y-38010490D01*
X38273391Y-38010492D01*
X38376110Y-38069797D01*
X38376111Y-38069797D01*
X38376114Y-38069799D01*
X38490691Y-38100500D01*
X38490693Y-38100500D01*
X38609307Y-38100500D01*
X38609309Y-38100500D01*
X38723886Y-38069799D01*
X38723888Y-38069797D01*
X38723890Y-38069797D01*
X38826608Y-38010492D01*
X38826608Y-38010491D01*
X38826613Y-38010489D01*
X38910489Y-37926613D01*
X38946928Y-37863500D01*
X38969797Y-37823890D01*
X38969797Y-37823888D01*
X38969799Y-37823886D01*
X39000500Y-37709309D01*
X39000500Y-37590691D01*
X38969799Y-37476114D01*
X38969797Y-37476111D01*
X38969797Y-37476109D01*
X38910492Y-37373391D01*
X38910490Y-37373389D01*
X38910489Y-37373387D01*
X38826613Y-37289511D01*
X38826610Y-37289509D01*
X38826608Y-37289507D01*
X38733474Y-37235736D01*
X38726914Y-37228451D01*
X38717896Y-37224605D01*
X38706881Y-37206202D01*
X38692533Y-37190267D01*
X38691508Y-37180517D01*
X38686473Y-37172105D01*
X38688378Y-37150745D01*
X38686137Y-37129416D01*
X38691039Y-37120924D01*
X38691911Y-37111161D01*
X38705583Y-37095733D01*
X38708494Y-37090691D01*
X42999500Y-37090691D01*
X42999500Y-37209309D01*
X43019543Y-37284109D01*
X43030202Y-37323890D01*
X43089507Y-37426608D01*
X43089509Y-37426610D01*
X43089511Y-37426613D01*
X43173387Y-37510489D01*
X43173389Y-37510490D01*
X43173391Y-37510492D01*
X43276110Y-37569797D01*
X43276111Y-37569797D01*
X43276114Y-37569799D01*
X43390691Y-37600500D01*
X43390693Y-37600500D01*
X43509308Y-37600500D01*
X43509309Y-37600500D01*
X43574876Y-37582931D01*
X43635978Y-37586132D01*
X43683528Y-37624637D01*
X43699500Y-37678557D01*
X43699500Y-37709309D01*
X43726574Y-37810351D01*
X43730202Y-37823890D01*
X43789507Y-37926608D01*
X43789509Y-37926610D01*
X43789511Y-37926613D01*
X43873387Y-38010489D01*
X43873389Y-38010490D01*
X43873391Y-38010492D01*
X43976110Y-38069797D01*
X43976111Y-38069797D01*
X43976114Y-38069799D01*
X44090691Y-38100500D01*
X44090693Y-38100500D01*
X44209307Y-38100500D01*
X44209309Y-38100500D01*
X44323886Y-38069799D01*
X44323888Y-38069797D01*
X44323890Y-38069797D01*
X44426608Y-38010492D01*
X44426608Y-38010491D01*
X44426613Y-38010489D01*
X44510489Y-37926613D01*
X44546928Y-37863500D01*
X44569797Y-37823890D01*
X44569797Y-37823888D01*
X44569799Y-37823886D01*
X44600500Y-37709309D01*
X44600500Y-37590691D01*
X44569799Y-37476114D01*
X44569797Y-37476111D01*
X44569797Y-37476109D01*
X44510492Y-37373391D01*
X44510490Y-37373389D01*
X44510489Y-37373387D01*
X44426613Y-37289511D01*
X44426610Y-37289509D01*
X44426608Y-37289507D01*
X44333474Y-37235736D01*
X44327461Y-37229058D01*
X44319138Y-37225670D01*
X44307407Y-37206786D01*
X44292533Y-37190267D01*
X44291593Y-37181329D01*
X44286852Y-37173697D01*
X44288461Y-37151526D01*
X44286137Y-37129416D01*
X44290630Y-37121632D01*
X44291281Y-37112672D01*
X44304679Y-37097300D01*
X44312296Y-37084108D01*
X47199500Y-37084108D01*
X47199500Y-37215892D01*
X47222171Y-37300503D01*
X47233609Y-37343190D01*
X47299496Y-37457309D01*
X47299498Y-37457311D01*
X47299500Y-37457314D01*
X47392686Y-37550500D01*
X47392688Y-37550501D01*
X47392690Y-37550503D01*
X47506810Y-37616390D01*
X47506808Y-37616390D01*
X47506812Y-37616391D01*
X47506814Y-37616392D01*
X47634108Y-37650500D01*
X47634110Y-37650500D01*
X47765890Y-37650500D01*
X47765892Y-37650500D01*
X47893186Y-37616392D01*
X47893188Y-37616390D01*
X47893190Y-37616390D01*
X48007309Y-37550503D01*
X48007309Y-37550502D01*
X48007314Y-37550500D01*
X48100500Y-37457314D01*
X48100503Y-37457309D01*
X48166390Y-37343190D01*
X48166390Y-37343188D01*
X48166392Y-37343186D01*
X48200500Y-37215892D01*
X48200500Y-37093986D01*
X48219407Y-37035795D01*
X48268907Y-36999831D01*
X48273825Y-36998374D01*
X48328377Y-36983757D01*
X48389475Y-36986960D01*
X48437025Y-37025465D01*
X48452860Y-37084566D01*
X48439733Y-37128883D01*
X48423609Y-37156810D01*
X48423608Y-37156814D01*
X48389500Y-37284108D01*
X48389500Y-37415892D01*
X48414384Y-37508761D01*
X48423609Y-37543190D01*
X48489496Y-37657309D01*
X48489498Y-37657311D01*
X48489500Y-37657314D01*
X48582686Y-37750500D01*
X48582688Y-37750501D01*
X48582690Y-37750503D01*
X48696810Y-37816390D01*
X48696808Y-37816390D01*
X48696812Y-37816391D01*
X48696814Y-37816392D01*
X48824108Y-37850500D01*
X48824110Y-37850500D01*
X48955890Y-37850500D01*
X48955892Y-37850500D01*
X49083186Y-37816392D01*
X49083188Y-37816390D01*
X49083190Y-37816390D01*
X49197309Y-37750503D01*
X49197309Y-37750502D01*
X49197314Y-37750500D01*
X49290500Y-37657314D01*
X49356392Y-37543186D01*
X49356692Y-37542063D01*
X49357145Y-37541365D01*
X49358874Y-37537193D01*
X49359647Y-37537513D01*
X49390010Y-37490748D01*
X49447129Y-37468816D01*
X49477940Y-37472052D01*
X49584108Y-37500500D01*
X49584110Y-37500500D01*
X49715890Y-37500500D01*
X49715892Y-37500500D01*
X49840718Y-37467053D01*
X49901817Y-37470256D01*
X49949367Y-37508761D01*
X49961965Y-37537055D01*
X49963608Y-37543187D01*
X49963609Y-37543189D01*
X50029496Y-37657309D01*
X50029498Y-37657311D01*
X50029500Y-37657314D01*
X50122686Y-37750500D01*
X50122688Y-37750501D01*
X50122690Y-37750503D01*
X50236810Y-37816390D01*
X50236808Y-37816390D01*
X50236812Y-37816391D01*
X50236814Y-37816392D01*
X50364108Y-37850500D01*
X50364110Y-37850500D01*
X50495890Y-37850500D01*
X50495892Y-37850500D01*
X50623186Y-37816392D01*
X50623188Y-37816390D01*
X50623190Y-37816390D01*
X50737309Y-37750503D01*
X50737309Y-37750502D01*
X50737314Y-37750500D01*
X50830500Y-37657314D01*
X50849366Y-37624637D01*
X50896390Y-37543190D01*
X50896391Y-37543187D01*
X50896392Y-37543186D01*
X50930500Y-37415892D01*
X50930500Y-37284108D01*
X50896392Y-37156814D01*
X50896390Y-37156810D01*
X50896390Y-37156809D01*
X50830503Y-37042690D01*
X50830501Y-37042688D01*
X50830500Y-37042686D01*
X50737314Y-36949500D01*
X50737311Y-36949498D01*
X50737309Y-36949496D01*
X50674714Y-36913356D01*
X50674711Y-36913356D01*
X50623187Y-36883608D01*
X50580754Y-36872238D01*
X50495892Y-36849500D01*
X50364108Y-36849500D01*
X50329826Y-36858685D01*
X50239282Y-36882946D01*
X50178181Y-36879743D01*
X50130631Y-36841238D01*
X50127457Y-36834108D01*
X56099500Y-36834108D01*
X56099500Y-36965892D01*
X56115769Y-37026608D01*
X56133609Y-37093190D01*
X56199496Y-37207309D01*
X56199498Y-37207311D01*
X56199500Y-37207314D01*
X56292686Y-37300500D01*
X56292688Y-37300501D01*
X56292690Y-37300503D01*
X56406810Y-37366390D01*
X56406808Y-37366390D01*
X56406812Y-37366391D01*
X56406814Y-37366392D01*
X56534108Y-37400500D01*
X56534110Y-37400500D01*
X56665890Y-37400500D01*
X56665892Y-37400500D01*
X56793186Y-37366392D01*
X56793188Y-37366390D01*
X56793190Y-37366390D01*
X56907309Y-37300503D01*
X56907309Y-37300502D01*
X56907314Y-37300500D01*
X57000500Y-37207314D01*
X57004434Y-37200500D01*
X57066390Y-37093190D01*
X57066390Y-37093188D01*
X57066392Y-37093186D01*
X57100500Y-36965892D01*
X57100500Y-36959108D01*
X61449500Y-36959108D01*
X61449500Y-37090892D01*
X61465747Y-37151526D01*
X61483609Y-37218190D01*
X61549496Y-37332309D01*
X61549498Y-37332311D01*
X61549500Y-37332314D01*
X61642686Y-37425500D01*
X61642688Y-37425501D01*
X61642690Y-37425503D01*
X61756810Y-37491390D01*
X61756808Y-37491390D01*
X61756812Y-37491391D01*
X61756814Y-37491392D01*
X61884108Y-37525500D01*
X61884110Y-37525500D01*
X62015890Y-37525500D01*
X62015892Y-37525500D01*
X62143186Y-37491392D01*
X62143188Y-37491390D01*
X62143190Y-37491390D01*
X62257309Y-37425503D01*
X62257309Y-37425502D01*
X62257314Y-37425500D01*
X62350500Y-37332314D01*
X62370826Y-37297108D01*
X62416390Y-37218190D01*
X62416390Y-37218188D01*
X62416392Y-37218186D01*
X62450500Y-37090892D01*
X62450500Y-36959108D01*
X62416392Y-36831814D01*
X62416390Y-36831811D01*
X62416390Y-36831809D01*
X62350503Y-36717690D01*
X62350501Y-36717688D01*
X62350500Y-36717686D01*
X62257314Y-36624500D01*
X62257311Y-36624498D01*
X62257309Y-36624496D01*
X62143189Y-36558609D01*
X62143191Y-36558609D01*
X62093799Y-36545375D01*
X62015892Y-36524500D01*
X61884108Y-36524500D01*
X61806200Y-36545375D01*
X61756809Y-36558609D01*
X61642690Y-36624496D01*
X61549496Y-36717690D01*
X61483609Y-36831809D01*
X61470379Y-36881184D01*
X61449500Y-36959108D01*
X57100500Y-36959108D01*
X57100500Y-36834108D01*
X57066392Y-36706814D01*
X57066390Y-36706811D01*
X57066390Y-36706809D01*
X57000503Y-36592690D01*
X57000501Y-36592688D01*
X57000500Y-36592686D01*
X56907314Y-36499500D01*
X56907311Y-36499498D01*
X56907309Y-36499496D01*
X56793189Y-36433609D01*
X56793191Y-36433609D01*
X56743799Y-36420375D01*
X56665892Y-36399500D01*
X56534108Y-36399500D01*
X56456200Y-36420375D01*
X56406809Y-36433609D01*
X56292690Y-36499496D01*
X56199496Y-36592690D01*
X56133609Y-36706809D01*
X56122170Y-36749500D01*
X56099500Y-36834108D01*
X50127457Y-36834108D01*
X50118034Y-36812943D01*
X50116392Y-36806814D01*
X50116390Y-36806810D01*
X50116390Y-36806809D01*
X50050503Y-36692690D01*
X50050501Y-36692688D01*
X50050500Y-36692686D01*
X49957314Y-36599500D01*
X49957311Y-36599498D01*
X49957309Y-36599496D01*
X49843189Y-36533609D01*
X49843191Y-36533609D01*
X49793799Y-36520375D01*
X49715892Y-36499500D01*
X49584108Y-36499500D01*
X49506200Y-36520375D01*
X49456809Y-36533609D01*
X49342690Y-36599496D01*
X49249496Y-36692690D01*
X49183609Y-36806810D01*
X49183606Y-36806816D01*
X49183301Y-36807957D01*
X49182841Y-36808664D01*
X49181126Y-36812806D01*
X49180357Y-36812487D01*
X49149969Y-36859266D01*
X49092844Y-36881184D01*
X49062056Y-36877946D01*
X49004409Y-36862500D01*
X48955892Y-36849500D01*
X48824108Y-36849500D01*
X48761625Y-36866242D01*
X48700524Y-36863039D01*
X48652974Y-36824534D01*
X48637139Y-36765433D01*
X48650268Y-36721113D01*
X48652245Y-36717690D01*
X48666392Y-36693186D01*
X48700500Y-36565892D01*
X48700500Y-36434108D01*
X48666392Y-36306814D01*
X48666390Y-36306811D01*
X48666390Y-36306809D01*
X48600503Y-36192690D01*
X48600501Y-36192688D01*
X48600500Y-36192686D01*
X48507314Y-36099500D01*
X48507311Y-36099498D01*
X48507309Y-36099496D01*
X48393189Y-36033609D01*
X48393191Y-36033609D01*
X48343799Y-36020375D01*
X48265892Y-35999500D01*
X48134108Y-35999500D01*
X48056200Y-36020375D01*
X48006809Y-36033609D01*
X47892690Y-36099496D01*
X47799496Y-36192690D01*
X47733609Y-36306809D01*
X47699500Y-36434109D01*
X47699500Y-36556013D01*
X47680593Y-36614204D01*
X47631093Y-36650168D01*
X47626138Y-36651635D01*
X47558394Y-36669787D01*
X47506809Y-36683609D01*
X47392690Y-36749496D01*
X47299496Y-36842690D01*
X47233609Y-36956809D01*
X47219226Y-37010489D01*
X47199500Y-37084108D01*
X44312296Y-37084108D01*
X44316730Y-37076428D01*
X44330733Y-37065905D01*
X44332081Y-37065067D01*
X44426613Y-37010489D01*
X44510489Y-36926613D01*
X44512061Y-36923890D01*
X44569797Y-36823890D01*
X44569797Y-36823888D01*
X44569799Y-36823886D01*
X44600500Y-36709309D01*
X44600500Y-36590691D01*
X44569799Y-36476114D01*
X44569797Y-36476111D01*
X44569797Y-36476109D01*
X44510492Y-36373391D01*
X44510490Y-36373389D01*
X44510489Y-36373387D01*
X44426613Y-36289511D01*
X44426610Y-36289509D01*
X44426608Y-36289507D01*
X44323889Y-36230202D01*
X44323890Y-36230202D01*
X44309301Y-36226293D01*
X44209309Y-36199500D01*
X44090691Y-36199500D01*
X44020567Y-36218289D01*
X43976109Y-36230202D01*
X43873391Y-36289507D01*
X43789507Y-36373391D01*
X43730202Y-36476109D01*
X43717236Y-36524500D01*
X43706146Y-36565890D01*
X43699500Y-36590692D01*
X43699500Y-36621442D01*
X43680593Y-36679633D01*
X43631093Y-36715597D01*
X43574877Y-36717069D01*
X43509309Y-36699500D01*
X43390691Y-36699500D01*
X43354084Y-36709309D01*
X43276109Y-36730202D01*
X43173391Y-36789507D01*
X43089507Y-36873391D01*
X43030202Y-36976109D01*
X43030201Y-36976114D01*
X42999500Y-37090691D01*
X38708494Y-37090691D01*
X38716730Y-37076428D01*
X38732131Y-37065053D01*
X38732805Y-37064648D01*
X38826613Y-37010489D01*
X38910489Y-36926613D01*
X38912061Y-36923890D01*
X38969797Y-36823890D01*
X38969797Y-36823888D01*
X38969799Y-36823886D01*
X39000500Y-36709309D01*
X39000500Y-36590691D01*
X38969799Y-36476114D01*
X38969797Y-36476111D01*
X38969797Y-36476109D01*
X38910492Y-36373391D01*
X38910490Y-36373389D01*
X38910489Y-36373387D01*
X38826613Y-36289511D01*
X38826610Y-36289509D01*
X38826608Y-36289507D01*
X38723889Y-36230202D01*
X38723890Y-36230202D01*
X38709301Y-36226293D01*
X38609309Y-36199500D01*
X38490691Y-36199500D01*
X38420567Y-36218289D01*
X38376109Y-36230202D01*
X38273391Y-36289507D01*
X38189507Y-36373391D01*
X38130202Y-36476109D01*
X38117236Y-36524500D01*
X38106146Y-36565890D01*
X38099500Y-36590692D01*
X38099500Y-36621442D01*
X38080593Y-36679633D01*
X38031093Y-36715597D01*
X37974877Y-36717069D01*
X37909309Y-36699500D01*
X37790691Y-36699500D01*
X37754084Y-36709309D01*
X37676109Y-36730202D01*
X37573391Y-36789507D01*
X37489507Y-36873391D01*
X37430202Y-36976109D01*
X37430201Y-36976114D01*
X37399500Y-37090691D01*
X33270710Y-37090691D01*
X33250500Y-37055686D01*
X33157314Y-36962500D01*
X33157311Y-36962498D01*
X33157309Y-36962496D01*
X33043189Y-36896609D01*
X33043191Y-36896609D01*
X32980244Y-36879743D01*
X32915892Y-36862500D01*
X32784108Y-36862500D01*
X32719756Y-36879743D01*
X32656809Y-36896609D01*
X32542690Y-36962496D01*
X32449496Y-37055690D01*
X32383609Y-37169809D01*
X32365944Y-37235736D01*
X32349500Y-37297108D01*
X26109336Y-37297108D01*
X24750703Y-36574710D01*
X24708200Y-36530697D01*
X24699685Y-36470107D01*
X24710075Y-36440250D01*
X24824981Y-36227531D01*
X24825596Y-36226413D01*
X25131645Y-35680347D01*
X25132418Y-35678999D01*
X25342012Y-35321426D01*
X25342788Y-35320128D01*
X25668251Y-34786931D01*
X25668876Y-34785927D01*
X25890524Y-34436355D01*
X25891502Y-34434847D01*
X26238133Y-33911755D01*
X26238687Y-33910932D01*
X26469936Y-33572910D01*
X26471095Y-33571256D01*
X26686021Y-33271733D01*
X29121379Y-33271733D01*
X29121379Y-33271734D01*
X29197090Y-33846827D01*
X29199749Y-33867018D01*
X29216058Y-33906392D01*
X29415290Y-34387381D01*
X29429520Y-34421734D01*
X29562022Y-34594414D01*
X29740190Y-34826608D01*
X29795033Y-34898080D01*
X29795037Y-34898083D01*
X29795038Y-34898084D01*
X29862045Y-34949500D01*
X30271379Y-35263593D01*
X30826095Y-35493364D01*
X31272558Y-35552141D01*
X31421378Y-35571734D01*
X31421379Y-35571734D01*
X31421380Y-35571734D01*
X31540435Y-35556060D01*
X32016663Y-35493364D01*
X32280430Y-35384108D01*
X45119500Y-35384108D01*
X45119500Y-35515892D01*
X45125829Y-35539511D01*
X45153609Y-35643190D01*
X45219496Y-35757309D01*
X45219498Y-35757311D01*
X45219500Y-35757314D01*
X45312686Y-35850500D01*
X45312688Y-35850501D01*
X45312690Y-35850503D01*
X45426810Y-35916390D01*
X45426808Y-35916390D01*
X45426812Y-35916391D01*
X45426814Y-35916392D01*
X45554108Y-35950500D01*
X45554110Y-35950500D01*
X45685890Y-35950500D01*
X45685892Y-35950500D01*
X45813186Y-35916392D01*
X45813188Y-35916390D01*
X45813190Y-35916390D01*
X45927309Y-35850503D01*
X45927309Y-35850502D01*
X45927314Y-35850500D01*
X46020500Y-35757314D01*
X46020503Y-35757309D01*
X46086390Y-35643190D01*
X46086390Y-35643188D01*
X46086392Y-35643186D01*
X46120500Y-35515892D01*
X46120500Y-35384108D01*
X46086392Y-35256814D01*
X46086390Y-35256811D01*
X46086390Y-35256809D01*
X46020503Y-35142690D01*
X46020501Y-35142688D01*
X46020500Y-35142686D01*
X45927314Y-35049500D01*
X45927311Y-35049498D01*
X45927309Y-35049496D01*
X45813189Y-34983609D01*
X45813191Y-34983609D01*
X45761642Y-34969797D01*
X45685892Y-34949500D01*
X45554108Y-34949500D01*
X45478358Y-34969797D01*
X45426809Y-34983609D01*
X45312690Y-35049496D01*
X45219496Y-35142690D01*
X45153609Y-35256809D01*
X45151511Y-35264640D01*
X45119500Y-35384108D01*
X32280430Y-35384108D01*
X32446877Y-35315163D01*
X32516910Y-35286155D01*
X32571379Y-35263593D01*
X32571380Y-35263592D01*
X32571383Y-35263590D01*
X33047724Y-34898080D01*
X33360324Y-34490691D01*
X39799500Y-34490691D01*
X39799500Y-34609309D01*
X39817299Y-34675736D01*
X39830202Y-34723890D01*
X39889507Y-34826608D01*
X39889509Y-34826610D01*
X39889511Y-34826613D01*
X39973387Y-34910489D01*
X39973389Y-34910490D01*
X39973391Y-34910492D01*
X40076110Y-34969797D01*
X40076111Y-34969797D01*
X40076114Y-34969799D01*
X40190691Y-35000500D01*
X40190693Y-35000500D01*
X40309307Y-35000500D01*
X40309309Y-35000500D01*
X40423886Y-34969799D01*
X40423888Y-34969797D01*
X40423890Y-34969797D01*
X40526608Y-34910492D01*
X40526608Y-34910491D01*
X40526613Y-34910489D01*
X40610489Y-34826613D01*
X40610492Y-34826608D01*
X40669797Y-34723890D01*
X40669797Y-34723888D01*
X40669799Y-34723886D01*
X40700500Y-34609309D01*
X40700500Y-34490691D01*
X41299500Y-34490691D01*
X41299500Y-34609309D01*
X41317299Y-34675736D01*
X41330202Y-34723890D01*
X41389507Y-34826608D01*
X41389509Y-34826610D01*
X41389511Y-34826613D01*
X41473387Y-34910489D01*
X41473389Y-34910490D01*
X41473391Y-34910492D01*
X41576110Y-34969797D01*
X41576111Y-34969797D01*
X41576114Y-34969799D01*
X41690691Y-35000500D01*
X41690693Y-35000500D01*
X41809307Y-35000500D01*
X41809309Y-35000500D01*
X41923886Y-34969799D01*
X41923888Y-34969797D01*
X41923890Y-34969797D01*
X42026608Y-34910492D01*
X42026608Y-34910491D01*
X42026613Y-34910489D01*
X42110489Y-34826613D01*
X42110492Y-34826608D01*
X42169797Y-34723890D01*
X42169797Y-34723888D01*
X42169799Y-34723886D01*
X42200500Y-34609309D01*
X42200500Y-34490691D01*
X42169799Y-34376114D01*
X42169797Y-34376111D01*
X42169797Y-34376109D01*
X42110492Y-34273391D01*
X42110490Y-34273389D01*
X42110489Y-34273387D01*
X42026613Y-34189511D01*
X42026610Y-34189509D01*
X42026608Y-34189507D01*
X41923889Y-34130202D01*
X41923890Y-34130202D01*
X41910351Y-34126574D01*
X41809309Y-34099500D01*
X41690691Y-34099500D01*
X41620567Y-34118289D01*
X41576109Y-34130202D01*
X41473391Y-34189507D01*
X41389507Y-34273391D01*
X41330202Y-34376109D01*
X41330201Y-34376114D01*
X41299500Y-34490691D01*
X40700500Y-34490691D01*
X40669799Y-34376114D01*
X40669797Y-34376111D01*
X40669797Y-34376109D01*
X40610492Y-34273391D01*
X40610490Y-34273389D01*
X40610489Y-34273387D01*
X40526613Y-34189511D01*
X40526610Y-34189509D01*
X40526608Y-34189507D01*
X40423889Y-34130202D01*
X40423890Y-34130202D01*
X40410351Y-34126574D01*
X40309309Y-34099500D01*
X40190691Y-34099500D01*
X40120567Y-34118289D01*
X40076109Y-34130202D01*
X39973391Y-34189507D01*
X39889507Y-34273391D01*
X39830202Y-34376109D01*
X39830201Y-34376114D01*
X39799500Y-34490691D01*
X33360324Y-34490691D01*
X33413237Y-34421734D01*
X33643008Y-33867018D01*
X33700478Y-33430492D01*
X33707901Y-33374108D01*
X36009500Y-33374108D01*
X36009500Y-33505892D01*
X36026992Y-33571173D01*
X36043609Y-33633190D01*
X36109496Y-33747309D01*
X36109498Y-33747311D01*
X36109500Y-33747314D01*
X36202686Y-33840500D01*
X36202688Y-33840501D01*
X36202690Y-33840503D01*
X36316810Y-33906390D01*
X36316808Y-33906390D01*
X36316812Y-33906391D01*
X36316814Y-33906392D01*
X36444108Y-33940500D01*
X36444110Y-33940500D01*
X36575890Y-33940500D01*
X36575892Y-33940500D01*
X36703186Y-33906392D01*
X36703188Y-33906390D01*
X36703190Y-33906390D01*
X36817309Y-33840503D01*
X36817309Y-33840502D01*
X36817314Y-33840500D01*
X36910500Y-33747314D01*
X36918938Y-33732699D01*
X36976390Y-33633190D01*
X36976390Y-33633188D01*
X36976392Y-33633186D01*
X37010500Y-33505892D01*
X37010500Y-33473621D01*
X38509361Y-33473621D01*
X38509361Y-33605405D01*
X38516805Y-33633186D01*
X38543470Y-33732703D01*
X38609357Y-33846822D01*
X38609359Y-33846824D01*
X38609361Y-33846827D01*
X38702547Y-33940013D01*
X38702549Y-33940014D01*
X38702551Y-33940016D01*
X38816671Y-34005903D01*
X38816669Y-34005903D01*
X38816673Y-34005904D01*
X38816675Y-34005905D01*
X38943969Y-34040013D01*
X38943971Y-34040013D01*
X39075751Y-34040013D01*
X39075753Y-34040013D01*
X39203047Y-34005905D01*
X39203049Y-34005903D01*
X39203051Y-34005903D01*
X39317170Y-33940016D01*
X39317170Y-33940015D01*
X39317175Y-33940013D01*
X39410361Y-33846827D01*
X39414014Y-33840500D01*
X39476251Y-33732703D01*
X39476251Y-33732701D01*
X39476253Y-33732699D01*
X39508029Y-33614108D01*
X44059500Y-33614108D01*
X44059500Y-33745892D01*
X44076268Y-33808470D01*
X44093609Y-33873190D01*
X44159496Y-33987309D01*
X44159498Y-33987311D01*
X44159500Y-33987314D01*
X44252686Y-34080500D01*
X44252688Y-34080501D01*
X44252690Y-34080503D01*
X44366810Y-34146390D01*
X44366808Y-34146390D01*
X44366812Y-34146391D01*
X44366814Y-34146392D01*
X44494108Y-34180500D01*
X44494110Y-34180500D01*
X44625890Y-34180500D01*
X44625892Y-34180500D01*
X44753186Y-34146392D01*
X44753188Y-34146390D01*
X44753190Y-34146390D01*
X44867309Y-34080503D01*
X44867309Y-34080502D01*
X44867314Y-34080500D01*
X44960500Y-33987314D01*
X44987808Y-33940016D01*
X45026390Y-33873190D01*
X45026390Y-33873188D01*
X45026392Y-33873186D01*
X45060500Y-33745892D01*
X45060500Y-33614108D01*
X45026392Y-33486814D01*
X45026390Y-33486811D01*
X45026390Y-33486809D01*
X44960503Y-33372690D01*
X44960501Y-33372688D01*
X44960500Y-33372686D01*
X44867314Y-33279500D01*
X44867311Y-33279498D01*
X44867309Y-33279496D01*
X44853863Y-33271733D01*
X66278620Y-33271733D01*
X66278620Y-33271734D01*
X66354332Y-33846827D01*
X66356991Y-33867018D01*
X66373300Y-33906392D01*
X66572532Y-34387381D01*
X66586762Y-34421734D01*
X66719264Y-34594414D01*
X66897432Y-34826608D01*
X66952275Y-34898080D01*
X66952279Y-34898083D01*
X66952280Y-34898084D01*
X67019287Y-34949500D01*
X67428620Y-35263593D01*
X67431152Y-35264641D01*
X67432646Y-35265917D01*
X67434240Y-35266838D01*
X67434069Y-35267133D01*
X67477678Y-35304374D01*
X67491965Y-35363868D01*
X67468554Y-35420397D01*
X67416387Y-35452370D01*
X67367651Y-35451735D01*
X67363660Y-35450665D01*
X67359309Y-35449500D01*
X67240691Y-35449500D01*
X67170567Y-35468289D01*
X67126109Y-35480202D01*
X67023391Y-35539507D01*
X66939507Y-35623391D01*
X66880202Y-35726109D01*
X66880201Y-35726114D01*
X66849500Y-35840691D01*
X66849500Y-35959309D01*
X66869409Y-36033609D01*
X66880202Y-36073890D01*
X66939507Y-36176608D01*
X66939509Y-36176610D01*
X66939511Y-36176613D01*
X67017896Y-36254998D01*
X67045672Y-36309513D01*
X67036101Y-36369945D01*
X67017897Y-36395000D01*
X66976421Y-36436477D01*
X66939508Y-36473390D01*
X66939507Y-36473391D01*
X66880202Y-36576109D01*
X66869995Y-36614204D01*
X66849500Y-36690691D01*
X66849500Y-36809309D01*
X66872892Y-36896608D01*
X66880202Y-36923890D01*
X66939507Y-37026608D01*
X66939509Y-37026610D01*
X66939511Y-37026613D01*
X67023387Y-37110489D01*
X67023389Y-37110490D01*
X67023391Y-37110492D01*
X67126110Y-37169797D01*
X67126111Y-37169797D01*
X67126114Y-37169799D01*
X67240691Y-37200500D01*
X67240693Y-37200500D01*
X67359307Y-37200500D01*
X67359309Y-37200500D01*
X67473886Y-37169799D01*
X67473888Y-37169797D01*
X67473890Y-37169797D01*
X67576608Y-37110492D01*
X67576608Y-37110491D01*
X67576613Y-37110489D01*
X67660489Y-37026613D01*
X67669798Y-37010489D01*
X67719797Y-36923890D01*
X67719797Y-36923888D01*
X67719799Y-36923886D01*
X67750500Y-36809309D01*
X67750500Y-36690691D01*
X67719799Y-36576114D01*
X67719797Y-36576111D01*
X67719797Y-36576109D01*
X67660492Y-36473391D01*
X67660490Y-36473389D01*
X67660489Y-36473387D01*
X67582103Y-36395001D01*
X67554328Y-36340487D01*
X67563899Y-36280055D01*
X67582102Y-36254999D01*
X67660489Y-36176613D01*
X67719799Y-36073886D01*
X67750500Y-35959309D01*
X67750500Y-35840691D01*
X67719799Y-35726114D01*
X67719797Y-35726111D01*
X67719797Y-35726109D01*
X67660492Y-35623391D01*
X67660490Y-35623389D01*
X67660489Y-35623387D01*
X67576613Y-35539511D01*
X67576610Y-35539509D01*
X67569133Y-35535192D01*
X67528192Y-35489721D01*
X67521798Y-35428871D01*
X67552391Y-35375884D01*
X67608287Y-35350998D01*
X67656518Y-35357991D01*
X67983336Y-35493364D01*
X68429799Y-35552141D01*
X68578619Y-35571734D01*
X68578620Y-35571734D01*
X68578621Y-35571734D01*
X68697676Y-35556060D01*
X69173904Y-35493364D01*
X69728620Y-35263593D01*
X70204966Y-34898080D01*
X70570479Y-34421734D01*
X70800250Y-33867018D01*
X70878620Y-33271734D01*
X70800250Y-32676451D01*
X70599870Y-32192690D01*
X70570479Y-32121733D01*
X70570478Y-32121732D01*
X70204970Y-31645394D01*
X70204969Y-31645393D01*
X70204966Y-31645389D01*
X70204961Y-31645385D01*
X70204960Y-31645384D01*
X69874954Y-31392162D01*
X69728620Y-31279876D01*
X69727712Y-31279500D01*
X69307412Y-31105406D01*
X69173904Y-31050105D01*
X69173902Y-31050104D01*
X69173900Y-31050104D01*
X68578621Y-30971734D01*
X68578619Y-30971734D01*
X67983339Y-31050104D01*
X67983333Y-31050106D01*
X67428619Y-31279875D01*
X67428618Y-31279876D01*
X66952280Y-31645384D01*
X66952270Y-31645394D01*
X66586762Y-32121732D01*
X66586761Y-32121733D01*
X66356992Y-32676448D01*
X66356990Y-32676454D01*
X66278620Y-33271733D01*
X44853863Y-33271733D01*
X44753189Y-33213609D01*
X44753191Y-33213609D01*
X44703799Y-33200375D01*
X44625892Y-33179500D01*
X44494108Y-33179500D01*
X44416200Y-33200375D01*
X44366809Y-33213609D01*
X44252690Y-33279496D01*
X44159496Y-33372690D01*
X44093609Y-33486809D01*
X44084582Y-33520500D01*
X44059500Y-33614108D01*
X39508029Y-33614108D01*
X39510361Y-33605405D01*
X39510361Y-33473621D01*
X39476253Y-33346327D01*
X39476251Y-33346324D01*
X39476251Y-33346322D01*
X39410364Y-33232203D01*
X39410362Y-33232201D01*
X39410361Y-33232199D01*
X39317175Y-33139013D01*
X39317172Y-33139011D01*
X39317170Y-33139009D01*
X39232176Y-33089938D01*
X39203050Y-33073122D01*
X39203052Y-33073122D01*
X39135466Y-33055013D01*
X39075753Y-33039013D01*
X38943969Y-33039013D01*
X38884256Y-33055013D01*
X38816670Y-33073122D01*
X38702551Y-33139009D01*
X38609357Y-33232203D01*
X38543470Y-33346322D01*
X38543392Y-33346613D01*
X38509361Y-33473621D01*
X37010500Y-33473621D01*
X37010500Y-33374108D01*
X36976392Y-33246814D01*
X36976390Y-33246811D01*
X36976390Y-33246809D01*
X36910503Y-33132690D01*
X36910501Y-33132688D01*
X36910500Y-33132686D01*
X36817314Y-33039500D01*
X36817311Y-33039498D01*
X36817309Y-33039496D01*
X36767418Y-33010691D01*
X39649500Y-33010691D01*
X39649500Y-33129309D01*
X39662949Y-33179500D01*
X39680202Y-33243890D01*
X39739507Y-33346608D01*
X39739509Y-33346610D01*
X39739511Y-33346613D01*
X39823387Y-33430489D01*
X39823389Y-33430490D01*
X39823391Y-33430492D01*
X39926110Y-33489797D01*
X39926111Y-33489797D01*
X39926114Y-33489799D01*
X40040691Y-33520500D01*
X40040693Y-33520500D01*
X40159307Y-33520500D01*
X40159309Y-33520500D01*
X40273886Y-33489799D01*
X40273888Y-33489797D01*
X40273890Y-33489797D01*
X40376608Y-33430492D01*
X40376608Y-33430491D01*
X40376613Y-33430489D01*
X40460489Y-33346613D01*
X40499237Y-33279500D01*
X40519797Y-33243890D01*
X40519797Y-33243888D01*
X40519799Y-33243886D01*
X40550500Y-33129309D01*
X40550500Y-33010691D01*
X40519799Y-32896114D01*
X40519797Y-32896111D01*
X40519797Y-32896109D01*
X40460492Y-32793391D01*
X40460490Y-32793389D01*
X40460489Y-32793387D01*
X40376613Y-32709511D01*
X40376610Y-32709509D01*
X40376608Y-32709507D01*
X40273889Y-32650202D01*
X40273890Y-32650202D01*
X40260351Y-32646574D01*
X40159309Y-32619500D01*
X40040691Y-32619500D01*
X39984886Y-32634453D01*
X39926109Y-32650202D01*
X39823391Y-32709507D01*
X39739507Y-32793391D01*
X39680202Y-32896109D01*
X39679025Y-32900503D01*
X39649500Y-33010691D01*
X36767418Y-33010691D01*
X36703190Y-32973609D01*
X36676248Y-32966390D01*
X36575892Y-32939500D01*
X36444108Y-32939500D01*
X36367712Y-32959970D01*
X36316809Y-32973609D01*
X36202690Y-33039496D01*
X36109496Y-33132690D01*
X36043609Y-33246809D01*
X36043608Y-33246814D01*
X36009500Y-33374108D01*
X33707901Y-33374108D01*
X33710457Y-33354697D01*
X33721379Y-33271734D01*
X33721379Y-33271733D01*
X33692847Y-33055013D01*
X33643008Y-32676451D01*
X33428603Y-32158830D01*
X33413384Y-32122088D01*
X33413383Y-32122087D01*
X33413238Y-32121735D01*
X33413236Y-32121732D01*
X33389417Y-32090691D01*
X43089500Y-32090691D01*
X43089500Y-32209309D01*
X43100537Y-32250500D01*
X43120202Y-32323890D01*
X43179507Y-32426608D01*
X43179509Y-32426610D01*
X43179511Y-32426613D01*
X43263387Y-32510489D01*
X43263389Y-32510490D01*
X43263391Y-32510492D01*
X43366110Y-32569797D01*
X43366111Y-32569797D01*
X43366114Y-32569799D01*
X43480691Y-32600500D01*
X43480693Y-32600500D01*
X43599307Y-32600500D01*
X43599309Y-32600500D01*
X43713886Y-32569799D01*
X43713888Y-32569797D01*
X43713890Y-32569797D01*
X43816608Y-32510492D01*
X43816608Y-32510491D01*
X43816613Y-32510489D01*
X43892994Y-32434108D01*
X53999500Y-32434108D01*
X53999500Y-32565892D01*
X54008773Y-32600500D01*
X54033609Y-32693190D01*
X54099496Y-32807309D01*
X54099498Y-32807311D01*
X54099500Y-32807314D01*
X54192686Y-32900500D01*
X54192688Y-32900501D01*
X54192690Y-32900503D01*
X54306810Y-32966390D01*
X54306808Y-32966390D01*
X54306812Y-32966391D01*
X54306814Y-32966392D01*
X54434108Y-33000500D01*
X54434110Y-33000500D01*
X54565890Y-33000500D01*
X54565892Y-33000500D01*
X54693186Y-32966392D01*
X54693188Y-32966390D01*
X54693190Y-32966390D01*
X54807309Y-32900503D01*
X54807309Y-32900502D01*
X54807314Y-32900500D01*
X54900500Y-32807314D01*
X54904434Y-32800500D01*
X54966390Y-32693190D01*
X54966390Y-32693188D01*
X54966392Y-32693186D01*
X55000500Y-32565892D01*
X55000500Y-32434108D01*
X54966392Y-32306814D01*
X54966390Y-32306811D01*
X54966390Y-32306809D01*
X54900503Y-32192690D01*
X54900501Y-32192688D01*
X54900500Y-32192686D01*
X54807314Y-32099500D01*
X54807311Y-32099498D01*
X54807309Y-32099496D01*
X54693189Y-32033609D01*
X54693191Y-32033609D01*
X54643799Y-32020375D01*
X54565892Y-31999500D01*
X54434108Y-31999500D01*
X54356200Y-32020375D01*
X54306809Y-32033609D01*
X54192690Y-32099496D01*
X54099496Y-32192690D01*
X54033609Y-32306809D01*
X54026294Y-32334109D01*
X53999500Y-32434108D01*
X43892994Y-32434108D01*
X43900489Y-32426613D01*
X43900492Y-32426608D01*
X43928488Y-32378119D01*
X43959797Y-32323890D01*
X43959797Y-32323888D01*
X43959799Y-32323886D01*
X43990500Y-32209309D01*
X43990500Y-32090691D01*
X43959799Y-31976114D01*
X43959797Y-31976111D01*
X43959797Y-31976109D01*
X43900492Y-31873391D01*
X43900490Y-31873389D01*
X43900489Y-31873387D01*
X43816613Y-31789511D01*
X43816610Y-31789509D01*
X43816608Y-31789507D01*
X43771311Y-31763355D01*
X43771310Y-31763355D01*
X43713888Y-31730202D01*
X43713887Y-31730201D01*
X43713886Y-31730201D01*
X43599309Y-31699500D01*
X43480691Y-31699500D01*
X43410567Y-31718289D01*
X43366109Y-31730202D01*
X43263391Y-31789507D01*
X43179507Y-31873391D01*
X43120202Y-31976109D01*
X43112030Y-32006608D01*
X43089500Y-32090691D01*
X33389417Y-32090691D01*
X33077434Y-31684108D01*
X57299500Y-31684108D01*
X57299500Y-31815892D01*
X57323078Y-31903886D01*
X57333609Y-31943190D01*
X57399496Y-32057309D01*
X57399498Y-32057311D01*
X57399500Y-32057314D01*
X57492686Y-32150500D01*
X57492688Y-32150501D01*
X57492690Y-32150503D01*
X57606810Y-32216390D01*
X57606808Y-32216390D01*
X57606812Y-32216391D01*
X57606814Y-32216392D01*
X57734108Y-32250500D01*
X57734110Y-32250500D01*
X57865890Y-32250500D01*
X57865892Y-32250500D01*
X57993186Y-32216392D01*
X57993188Y-32216390D01*
X57993190Y-32216390D01*
X58107309Y-32150503D01*
X58107309Y-32150502D01*
X58107314Y-32150500D01*
X58200500Y-32057314D01*
X58200503Y-32057309D01*
X58266390Y-31943190D01*
X58266390Y-31943188D01*
X58266392Y-31943186D01*
X58300500Y-31815892D01*
X58300500Y-31684108D01*
X58296905Y-31670691D01*
X61149500Y-31670691D01*
X61149500Y-31789309D01*
X61172029Y-31873387D01*
X61180202Y-31903890D01*
X61239507Y-32006608D01*
X61239509Y-32006610D01*
X61239511Y-32006613D01*
X61323387Y-32090489D01*
X61323389Y-32090490D01*
X61323391Y-32090492D01*
X61426110Y-32149797D01*
X61426111Y-32149797D01*
X61426114Y-32149799D01*
X61540691Y-32180500D01*
X61540693Y-32180500D01*
X61575037Y-32180500D01*
X61633228Y-32199407D01*
X61669192Y-32248907D01*
X61670663Y-32305122D01*
X61649500Y-32384108D01*
X61649500Y-32515892D01*
X61675047Y-32611236D01*
X61683609Y-32643190D01*
X61749496Y-32757309D01*
X61749498Y-32757311D01*
X61749500Y-32757314D01*
X61842686Y-32850500D01*
X61842688Y-32850501D01*
X61842690Y-32850503D01*
X61956810Y-32916390D01*
X61956808Y-32916390D01*
X61956812Y-32916391D01*
X61956814Y-32916392D01*
X62084108Y-32950500D01*
X62084110Y-32950500D01*
X62215890Y-32950500D01*
X62215892Y-32950500D01*
X62343186Y-32916392D01*
X62343188Y-32916390D01*
X62343190Y-32916390D01*
X62457309Y-32850503D01*
X62457309Y-32850502D01*
X62457314Y-32850500D01*
X62550500Y-32757314D01*
X62550503Y-32757309D01*
X62616390Y-32643190D01*
X62616390Y-32643188D01*
X62616392Y-32643186D01*
X62650500Y-32515892D01*
X62650500Y-32384108D01*
X62637103Y-32334108D01*
X64289500Y-32334108D01*
X64289500Y-32465892D01*
X64316294Y-32565890D01*
X64323609Y-32593190D01*
X64389496Y-32707309D01*
X64389498Y-32707311D01*
X64389500Y-32707314D01*
X64482686Y-32800500D01*
X64482688Y-32800501D01*
X64482690Y-32800503D01*
X64596810Y-32866390D01*
X64596808Y-32866390D01*
X64596812Y-32866391D01*
X64596814Y-32866392D01*
X64724108Y-32900500D01*
X64724110Y-32900500D01*
X64855890Y-32900500D01*
X64855892Y-32900500D01*
X64983186Y-32866392D01*
X64983188Y-32866390D01*
X64983190Y-32866390D01*
X65097309Y-32800503D01*
X65097309Y-32800502D01*
X65097314Y-32800500D01*
X65190500Y-32707314D01*
X65223474Y-32650202D01*
X65256390Y-32593190D01*
X65256390Y-32593188D01*
X65256392Y-32593186D01*
X65290500Y-32465892D01*
X65290500Y-32334108D01*
X65256392Y-32206814D01*
X65256390Y-32206811D01*
X65256390Y-32206809D01*
X65190503Y-32092690D01*
X65190501Y-32092688D01*
X65190500Y-32092686D01*
X65097314Y-31999500D01*
X65097311Y-31999498D01*
X65097309Y-31999496D01*
X64983189Y-31933609D01*
X64983191Y-31933609D01*
X64933799Y-31920375D01*
X64855892Y-31899500D01*
X64724108Y-31899500D01*
X64646200Y-31920375D01*
X64596809Y-31933609D01*
X64482690Y-31999496D01*
X64389496Y-32092690D01*
X64323609Y-32206809D01*
X64312329Y-32248907D01*
X64289500Y-32334108D01*
X62637103Y-32334108D01*
X62616392Y-32256814D01*
X62616390Y-32256811D01*
X62616390Y-32256809D01*
X62550503Y-32142690D01*
X62550501Y-32142688D01*
X62550500Y-32142686D01*
X62457314Y-32049500D01*
X62457311Y-32049498D01*
X62457309Y-32049496D01*
X62343189Y-31983609D01*
X62343191Y-31983609D01*
X62293799Y-31970375D01*
X62215892Y-31949500D01*
X62136596Y-31949500D01*
X62078405Y-31930593D01*
X62042441Y-31881093D01*
X62040969Y-31824878D01*
X62050500Y-31789309D01*
X62050500Y-31670691D01*
X62019799Y-31556114D01*
X62019797Y-31556111D01*
X62019797Y-31556109D01*
X61960492Y-31453391D01*
X61960490Y-31453389D01*
X61960489Y-31453387D01*
X61876613Y-31369511D01*
X61876610Y-31369509D01*
X61876605Y-31369504D01*
X61848828Y-31314987D01*
X61858399Y-31254555D01*
X61901664Y-31211290D01*
X61946609Y-31200500D01*
X62065890Y-31200500D01*
X62065892Y-31200500D01*
X62193186Y-31166392D01*
X62193188Y-31166390D01*
X62193190Y-31166390D01*
X62307309Y-31100503D01*
X62307309Y-31100502D01*
X62307314Y-31100500D01*
X62400500Y-31007314D01*
X62427533Y-30960492D01*
X62466390Y-30893190D01*
X62466390Y-30893188D01*
X62466392Y-30893186D01*
X62500500Y-30765892D01*
X62500500Y-30634108D01*
X62466392Y-30506814D01*
X62466390Y-30506811D01*
X62466390Y-30506809D01*
X62400503Y-30392690D01*
X62400501Y-30392688D01*
X62400500Y-30392686D01*
X62307314Y-30299500D01*
X62307311Y-30299498D01*
X62307309Y-30299496D01*
X62193189Y-30233609D01*
X62193191Y-30233609D01*
X62140481Y-30219486D01*
X62065892Y-30199500D01*
X61934108Y-30199500D01*
X61859519Y-30219486D01*
X61806809Y-30233609D01*
X61692690Y-30299496D01*
X61599496Y-30392690D01*
X61533609Y-30506809D01*
X61521002Y-30553859D01*
X61499500Y-30634108D01*
X61499500Y-30765892D01*
X61517779Y-30834110D01*
X61533609Y-30893190D01*
X61599496Y-31007309D01*
X61599498Y-31007311D01*
X61599500Y-31007314D01*
X61692686Y-31100500D01*
X61692691Y-31100503D01*
X61694586Y-31101957D01*
X61695557Y-31103370D01*
X61697275Y-31105088D01*
X61696956Y-31105406D01*
X61729242Y-31152381D01*
X61727641Y-31213546D01*
X61690394Y-31262088D01*
X61634319Y-31279500D01*
X61540691Y-31279500D01*
X61470567Y-31298289D01*
X61426109Y-31310202D01*
X61323391Y-31369507D01*
X61239507Y-31453391D01*
X61180202Y-31556109D01*
X61180013Y-31556814D01*
X61149500Y-31670691D01*
X58296905Y-31670691D01*
X58266392Y-31556814D01*
X58266390Y-31556811D01*
X58266390Y-31556809D01*
X58200503Y-31442690D01*
X58200501Y-31442688D01*
X58200500Y-31442686D01*
X58107314Y-31349500D01*
X58107311Y-31349498D01*
X58107309Y-31349496D01*
X57993189Y-31283609D01*
X57993191Y-31283609D01*
X57943799Y-31270375D01*
X57865892Y-31249500D01*
X57734108Y-31249500D01*
X57656200Y-31270375D01*
X57606809Y-31283609D01*
X57492690Y-31349496D01*
X57399496Y-31442690D01*
X57333609Y-31556809D01*
X57333608Y-31556814D01*
X57299500Y-31684108D01*
X33077434Y-31684108D01*
X33047728Y-31645394D01*
X33047727Y-31645393D01*
X33047724Y-31645389D01*
X33047719Y-31645385D01*
X33047718Y-31645384D01*
X32571380Y-31279876D01*
X32571379Y-31279875D01*
X32097900Y-31083754D01*
X32016663Y-31050105D01*
X32016661Y-31050104D01*
X32016659Y-31050104D01*
X31421380Y-30971734D01*
X31421378Y-30971734D01*
X30826098Y-31050104D01*
X30826092Y-31050106D01*
X30271380Y-31279875D01*
X29795038Y-31645384D01*
X29795028Y-31645394D01*
X29429520Y-32121732D01*
X29429519Y-32121733D01*
X29199750Y-32676448D01*
X29199748Y-32676454D01*
X29121379Y-33271733D01*
X26686021Y-33271733D01*
X26841671Y-33054817D01*
X26842078Y-33054258D01*
X27079588Y-32731835D01*
X27080975Y-32730001D01*
X27479749Y-32215767D01*
X27480019Y-32215424D01*
X27718828Y-31913872D01*
X27720386Y-31911957D01*
X28155597Y-31391886D01*
X28386812Y-31119989D01*
X28388606Y-31117941D01*
X28878044Y-30575403D01*
X28878193Y-30575240D01*
X28982511Y-30460904D01*
X37758207Y-30460904D01*
X37758207Y-30592688D01*
X37776058Y-30659309D01*
X37792316Y-30719986D01*
X37858203Y-30834105D01*
X37858205Y-30834107D01*
X37858207Y-30834110D01*
X37951393Y-30927296D01*
X37951395Y-30927297D01*
X37951397Y-30927299D01*
X38065517Y-30993186D01*
X38065515Y-30993186D01*
X38065519Y-30993187D01*
X38065521Y-30993188D01*
X38192815Y-31027296D01*
X38192817Y-31027296D01*
X38324597Y-31027296D01*
X38324599Y-31027296D01*
X38451893Y-30993188D01*
X38451895Y-30993186D01*
X38451897Y-30993186D01*
X38566016Y-30927299D01*
X38566016Y-30927298D01*
X38566021Y-30927296D01*
X38659207Y-30834110D01*
X38693975Y-30773890D01*
X38725097Y-30719986D01*
X38725097Y-30719984D01*
X38725099Y-30719982D01*
X38759207Y-30592688D01*
X38759207Y-30540691D01*
X50749500Y-30540691D01*
X50749500Y-30659309D01*
X50776574Y-30760351D01*
X50780202Y-30773890D01*
X50839507Y-30876608D01*
X50839509Y-30876610D01*
X50839511Y-30876613D01*
X50923387Y-30960489D01*
X50923389Y-30960490D01*
X50923391Y-30960492D01*
X51026110Y-31019797D01*
X51026111Y-31019797D01*
X51026114Y-31019799D01*
X51140691Y-31050500D01*
X51140693Y-31050500D01*
X51259307Y-31050500D01*
X51259309Y-31050500D01*
X51373886Y-31019799D01*
X51373888Y-31019797D01*
X51373890Y-31019797D01*
X51476608Y-30960492D01*
X51476608Y-30960491D01*
X51476613Y-30960489D01*
X51560489Y-30876613D01*
X51560492Y-30876608D01*
X51619797Y-30773890D01*
X51619797Y-30773888D01*
X51619799Y-30773886D01*
X51650500Y-30659309D01*
X51650500Y-30540691D01*
X51619799Y-30426114D01*
X51619797Y-30426111D01*
X51619797Y-30426109D01*
X51560492Y-30323391D01*
X51560490Y-30323389D01*
X51560489Y-30323387D01*
X51476613Y-30239511D01*
X51476610Y-30239509D01*
X51476608Y-30239507D01*
X51373889Y-30180202D01*
X51373890Y-30180202D01*
X51360351Y-30176574D01*
X51259309Y-30149500D01*
X51140691Y-30149500D01*
X51070567Y-30168289D01*
X51026109Y-30180202D01*
X50923391Y-30239507D01*
X50839507Y-30323391D01*
X50780202Y-30426109D01*
X50780201Y-30426114D01*
X50749500Y-30540691D01*
X38759207Y-30540691D01*
X38759207Y-30460904D01*
X38725099Y-30333610D01*
X38725097Y-30333607D01*
X38725097Y-30333605D01*
X38659210Y-30219486D01*
X38659208Y-30219484D01*
X38659207Y-30219482D01*
X38566021Y-30126296D01*
X38566018Y-30126294D01*
X38566016Y-30126292D01*
X38451896Y-30060405D01*
X38451898Y-30060405D01*
X38402506Y-30047171D01*
X38324599Y-30026296D01*
X38192815Y-30026296D01*
X38114907Y-30047171D01*
X38065516Y-30060405D01*
X37951397Y-30126292D01*
X37858203Y-30219486D01*
X37792316Y-30333605D01*
X37779053Y-30383104D01*
X37758207Y-30460904D01*
X28982511Y-30460904D01*
X29082691Y-30351104D01*
X29084754Y-30348913D01*
X29684632Y-29731730D01*
X29805726Y-29607974D01*
X29807902Y-29605824D01*
X30483379Y-28960691D01*
X42999500Y-28960691D01*
X42999500Y-29079309D01*
X43022700Y-29165892D01*
X43030202Y-29193890D01*
X43089507Y-29296608D01*
X43089509Y-29296610D01*
X43089511Y-29296613D01*
X43173387Y-29380489D01*
X43173389Y-29380490D01*
X43173391Y-29380492D01*
X43276110Y-29439797D01*
X43276111Y-29439797D01*
X43276114Y-29439799D01*
X43390691Y-29470500D01*
X43390693Y-29470500D01*
X43509307Y-29470500D01*
X43509309Y-29470500D01*
X43623886Y-29439799D01*
X43623888Y-29439797D01*
X43623890Y-29439797D01*
X43720345Y-29384108D01*
X47049500Y-29384108D01*
X47049500Y-29515892D01*
X47073569Y-29605721D01*
X47083609Y-29643190D01*
X47149496Y-29757309D01*
X47149498Y-29757311D01*
X47149500Y-29757314D01*
X47242686Y-29850500D01*
X47242688Y-29850501D01*
X47242690Y-29850503D01*
X47356810Y-29916390D01*
X47356808Y-29916390D01*
X47356812Y-29916391D01*
X47356814Y-29916392D01*
X47484108Y-29950500D01*
X47484110Y-29950500D01*
X47615890Y-29950500D01*
X47615892Y-29950500D01*
X47743186Y-29916392D01*
X47743188Y-29916390D01*
X47743190Y-29916390D01*
X47857309Y-29850503D01*
X47857309Y-29850502D01*
X47857314Y-29850500D01*
X47950500Y-29757314D01*
X47950503Y-29757309D01*
X48016390Y-29643190D01*
X48016390Y-29643188D01*
X48016392Y-29643186D01*
X48050500Y-29515892D01*
X48050500Y-29384108D01*
X48016392Y-29256814D01*
X48016390Y-29256811D01*
X48016390Y-29256809D01*
X48003049Y-29233702D01*
X47978216Y-29190691D01*
X49299500Y-29190691D01*
X49299500Y-29309309D01*
X49319543Y-29384109D01*
X49330202Y-29423890D01*
X49389507Y-29526608D01*
X49389509Y-29526610D01*
X49389511Y-29526613D01*
X49473387Y-29610489D01*
X49473389Y-29610490D01*
X49473391Y-29610492D01*
X49576110Y-29669797D01*
X49576111Y-29669797D01*
X49576114Y-29669799D01*
X49690691Y-29700500D01*
X49690693Y-29700500D01*
X49809307Y-29700500D01*
X49809309Y-29700500D01*
X49923886Y-29669799D01*
X49923888Y-29669797D01*
X49923890Y-29669797D01*
X50026608Y-29610492D01*
X50026608Y-29610491D01*
X50026613Y-29610489D01*
X50110489Y-29526613D01*
X50119841Y-29510415D01*
X50164264Y-29433474D01*
X50209733Y-29392533D01*
X50270584Y-29386137D01*
X50323572Y-29416730D01*
X50335736Y-29433474D01*
X50389507Y-29526608D01*
X50389509Y-29526610D01*
X50389511Y-29526613D01*
X50473387Y-29610489D01*
X50473389Y-29610490D01*
X50473391Y-29610492D01*
X50576110Y-29669797D01*
X50576111Y-29669797D01*
X50576114Y-29669799D01*
X50690691Y-29700500D01*
X50690693Y-29700500D01*
X50809307Y-29700500D01*
X50809309Y-29700500D01*
X50923886Y-29669799D01*
X50923888Y-29669797D01*
X50923890Y-29669797D01*
X51026608Y-29610492D01*
X51026608Y-29610491D01*
X51026613Y-29610489D01*
X51110489Y-29526613D01*
X51119841Y-29510415D01*
X51169797Y-29423890D01*
X51169797Y-29423888D01*
X51169799Y-29423886D01*
X51177219Y-29396194D01*
X58918856Y-29396194D01*
X58918856Y-29527978D01*
X58929149Y-29566392D01*
X58952965Y-29655276D01*
X59018852Y-29769395D01*
X59018854Y-29769397D01*
X59018856Y-29769400D01*
X59112042Y-29862586D01*
X59112044Y-29862587D01*
X59112046Y-29862589D01*
X59226166Y-29928476D01*
X59226164Y-29928476D01*
X59226168Y-29928477D01*
X59226170Y-29928478D01*
X59353464Y-29962586D01*
X59353466Y-29962586D01*
X59485246Y-29962586D01*
X59485248Y-29962586D01*
X59612542Y-29928478D01*
X59612544Y-29928476D01*
X59612546Y-29928476D01*
X59726665Y-29862589D01*
X59726665Y-29862588D01*
X59726670Y-29862586D01*
X59819856Y-29769400D01*
X59885748Y-29655272D01*
X59919856Y-29527978D01*
X59919856Y-29396194D01*
X59885748Y-29268900D01*
X59885746Y-29268897D01*
X59885746Y-29268895D01*
X59819859Y-29154776D01*
X59819857Y-29154774D01*
X59819856Y-29154772D01*
X59726670Y-29061586D01*
X59726667Y-29061584D01*
X59726665Y-29061582D01*
X59679078Y-29034108D01*
X62449500Y-29034108D01*
X62449500Y-29165892D01*
X62473861Y-29256809D01*
X62483609Y-29293190D01*
X62549496Y-29407309D01*
X62549498Y-29407311D01*
X62549500Y-29407314D01*
X62642686Y-29500500D01*
X62642688Y-29500501D01*
X62642690Y-29500503D01*
X62756810Y-29566390D01*
X62756808Y-29566390D01*
X62756812Y-29566391D01*
X62756814Y-29566392D01*
X62884108Y-29600500D01*
X62884110Y-29600500D01*
X63015890Y-29600500D01*
X63015892Y-29600500D01*
X63143186Y-29566392D01*
X63143188Y-29566390D01*
X63143190Y-29566390D01*
X63257309Y-29500503D01*
X63257309Y-29500502D01*
X63257314Y-29500500D01*
X63350500Y-29407314D01*
X63362727Y-29386137D01*
X63416390Y-29293190D01*
X63416390Y-29293188D01*
X63416392Y-29293186D01*
X63450500Y-29165892D01*
X63450500Y-29034108D01*
X63416392Y-28906814D01*
X63416390Y-28906811D01*
X63416390Y-28906809D01*
X63350503Y-28792690D01*
X63350501Y-28792688D01*
X63350500Y-28792686D01*
X63257314Y-28699500D01*
X63257311Y-28699498D01*
X63257309Y-28699496D01*
X63143189Y-28633609D01*
X63143191Y-28633609D01*
X63093799Y-28620375D01*
X63015892Y-28599500D01*
X62884108Y-28599500D01*
X62806200Y-28620375D01*
X62756809Y-28633609D01*
X62642690Y-28699496D01*
X62549496Y-28792690D01*
X62483609Y-28906809D01*
X62468932Y-28961586D01*
X62449500Y-29034108D01*
X59679078Y-29034108D01*
X59612545Y-28995695D01*
X59612547Y-28995695D01*
X59563155Y-28982461D01*
X59485248Y-28961586D01*
X59353464Y-28961586D01*
X59275556Y-28982461D01*
X59226165Y-28995695D01*
X59112046Y-29061582D01*
X59018852Y-29154776D01*
X58952965Y-29268895D01*
X58933895Y-29340064D01*
X58918856Y-29396194D01*
X51177219Y-29396194D01*
X51200500Y-29309309D01*
X51200500Y-29190691D01*
X51169799Y-29076114D01*
X51169797Y-29076111D01*
X51169797Y-29076109D01*
X51110492Y-28973391D01*
X51110490Y-28973389D01*
X51110489Y-28973387D01*
X51026613Y-28889511D01*
X51026610Y-28889509D01*
X51026608Y-28889507D01*
X50923889Y-28830202D01*
X50923890Y-28830202D01*
X50910351Y-28826574D01*
X50809309Y-28799500D01*
X50690691Y-28799500D01*
X50620567Y-28818289D01*
X50576109Y-28830202D01*
X50473391Y-28889507D01*
X50389509Y-28973389D01*
X50335736Y-29066526D01*
X50290266Y-29107466D01*
X50229416Y-29113861D01*
X50176428Y-29083268D01*
X50164264Y-29066526D01*
X50110490Y-28973389D01*
X50110489Y-28973387D01*
X50026613Y-28889511D01*
X50026610Y-28889509D01*
X50026608Y-28889507D01*
X49923889Y-28830202D01*
X49923890Y-28830202D01*
X49910351Y-28826574D01*
X49809309Y-28799500D01*
X49690691Y-28799500D01*
X49620567Y-28818289D01*
X49576109Y-28830202D01*
X49473391Y-28889507D01*
X49389507Y-28973391D01*
X49330202Y-29076109D01*
X49330201Y-29076114D01*
X49299500Y-29190691D01*
X47978216Y-29190691D01*
X47950503Y-29142690D01*
X47950501Y-29142688D01*
X47950500Y-29142686D01*
X47857314Y-29049500D01*
X47857311Y-29049498D01*
X47857309Y-29049496D01*
X47743189Y-28983609D01*
X47743191Y-28983609D01*
X47678927Y-28966390D01*
X47615892Y-28949500D01*
X47484108Y-28949500D01*
X47421073Y-28966390D01*
X47356809Y-28983609D01*
X47242690Y-29049496D01*
X47149496Y-29142690D01*
X47083609Y-29256809D01*
X47073862Y-29293186D01*
X47049500Y-29384108D01*
X43720345Y-29384108D01*
X43726608Y-29380492D01*
X43726608Y-29380491D01*
X43726613Y-29380489D01*
X43810489Y-29296613D01*
X43869799Y-29193886D01*
X43900500Y-29079309D01*
X43900500Y-28960691D01*
X43869799Y-28846114D01*
X43869797Y-28846111D01*
X43869797Y-28846109D01*
X43810492Y-28743391D01*
X43810490Y-28743389D01*
X43810489Y-28743387D01*
X43726613Y-28659511D01*
X43726610Y-28659509D01*
X43726608Y-28659507D01*
X43623889Y-28600202D01*
X43623890Y-28600202D01*
X43610351Y-28596574D01*
X43509309Y-28569500D01*
X43390691Y-28569500D01*
X43320567Y-28588289D01*
X43276109Y-28600202D01*
X43173391Y-28659507D01*
X43089507Y-28743391D01*
X43030202Y-28846109D01*
X43030201Y-28846114D01*
X42999500Y-28960691D01*
X30483379Y-28960691D01*
X30565962Y-28881818D01*
X30568610Y-28879382D01*
X31351374Y-28185564D01*
X31353742Y-28183535D01*
X31498865Y-28063379D01*
X31777767Y-27834108D01*
X37049500Y-27834108D01*
X37049500Y-27965892D01*
X37060598Y-28007309D01*
X37083609Y-28093190D01*
X37149496Y-28207309D01*
X37149498Y-28207311D01*
X37149500Y-28207314D01*
X37242686Y-28300500D01*
X37242688Y-28300501D01*
X37242690Y-28300503D01*
X37356810Y-28366390D01*
X37356808Y-28366390D01*
X37356812Y-28366391D01*
X37356814Y-28366392D01*
X37484108Y-28400500D01*
X37484110Y-28400500D01*
X37615890Y-28400500D01*
X37615892Y-28400500D01*
X37743186Y-28366392D01*
X37743188Y-28366390D01*
X37743190Y-28366390D01*
X37857309Y-28300503D01*
X37857309Y-28300502D01*
X37857314Y-28300500D01*
X37950500Y-28207314D01*
X37954663Y-28200103D01*
X38016390Y-28093190D01*
X38016390Y-28093188D01*
X38016392Y-28093186D01*
X38050500Y-27965892D01*
X38050500Y-27834108D01*
X38016392Y-27706814D01*
X37974415Y-27634108D01*
X56129500Y-27634108D01*
X56129500Y-27765892D01*
X56147778Y-27834108D01*
X56163609Y-27893190D01*
X56229496Y-28007309D01*
X56229498Y-28007311D01*
X56229500Y-28007314D01*
X56322686Y-28100500D01*
X56322688Y-28100501D01*
X56322690Y-28100503D01*
X56436810Y-28166390D01*
X56436808Y-28166390D01*
X56436812Y-28166391D01*
X56436814Y-28166392D01*
X56564108Y-28200500D01*
X56564110Y-28200500D01*
X56695891Y-28200500D01*
X56695892Y-28200500D01*
X56709319Y-28196902D01*
X56770419Y-28200103D01*
X56817970Y-28238607D01*
X56833807Y-28297707D01*
X56830570Y-28318150D01*
X56817644Y-28366392D01*
X56799500Y-28434108D01*
X56799500Y-28565892D01*
X56817644Y-28633608D01*
X56833609Y-28693190D01*
X56899496Y-28807309D01*
X56899498Y-28807311D01*
X56899500Y-28807314D01*
X56992686Y-28900500D01*
X56992688Y-28900501D01*
X56992690Y-28900503D01*
X57106810Y-28966390D01*
X57106808Y-28966390D01*
X57106812Y-28966391D01*
X57106814Y-28966392D01*
X57234108Y-29000500D01*
X57234110Y-29000500D01*
X57365890Y-29000500D01*
X57365892Y-29000500D01*
X57493186Y-28966392D01*
X57493188Y-28966390D01*
X57493190Y-28966390D01*
X57607309Y-28900503D01*
X57607309Y-28900502D01*
X57607314Y-28900500D01*
X57700500Y-28807314D01*
X57700503Y-28807309D01*
X57766390Y-28693190D01*
X57766390Y-28693188D01*
X57766392Y-28693186D01*
X57800500Y-28565892D01*
X57800500Y-28434108D01*
X59899500Y-28434108D01*
X59899500Y-28565892D01*
X59917644Y-28633608D01*
X59933609Y-28693190D01*
X59999496Y-28807309D01*
X59999498Y-28807311D01*
X59999500Y-28807314D01*
X60092686Y-28900500D01*
X60092688Y-28900501D01*
X60092690Y-28900503D01*
X60206810Y-28966390D01*
X60206808Y-28966390D01*
X60206812Y-28966391D01*
X60206814Y-28966392D01*
X60334108Y-29000500D01*
X60334110Y-29000500D01*
X60465890Y-29000500D01*
X60465892Y-29000500D01*
X60593186Y-28966392D01*
X60593188Y-28966390D01*
X60593190Y-28966390D01*
X60635638Y-28941883D01*
X60707309Y-28900503D01*
X60707309Y-28900502D01*
X60707314Y-28900500D01*
X60800500Y-28807314D01*
X60800503Y-28807309D01*
X60866390Y-28693190D01*
X60866390Y-28693188D01*
X60866392Y-28693186D01*
X60900500Y-28565892D01*
X60900500Y-28434108D01*
X60866392Y-28306814D01*
X60866390Y-28306811D01*
X60866390Y-28306809D01*
X60800503Y-28192690D01*
X60800501Y-28192688D01*
X60800500Y-28192686D01*
X60707314Y-28099500D01*
X60707311Y-28099498D01*
X60707309Y-28099496D01*
X60593189Y-28033609D01*
X60593191Y-28033609D01*
X60543799Y-28020375D01*
X60465892Y-27999500D01*
X60334108Y-27999500D01*
X60256200Y-28020375D01*
X60206809Y-28033609D01*
X60092690Y-28099496D01*
X59999496Y-28192690D01*
X59933609Y-28306809D01*
X59919491Y-28359499D01*
X59899500Y-28434108D01*
X57800500Y-28434108D01*
X57766392Y-28306814D01*
X57766390Y-28306811D01*
X57766390Y-28306809D01*
X57700503Y-28192690D01*
X57700501Y-28192688D01*
X57700500Y-28192686D01*
X57607314Y-28099500D01*
X57607311Y-28099498D01*
X57607309Y-28099496D01*
X57493189Y-28033609D01*
X57493191Y-28033609D01*
X57443799Y-28020375D01*
X57365892Y-27999500D01*
X57234108Y-27999500D01*
X57232638Y-27999894D01*
X57220675Y-28003099D01*
X57159574Y-27999894D01*
X57112026Y-27961387D01*
X57096192Y-27902286D01*
X57099427Y-27881856D01*
X57130500Y-27765892D01*
X57130500Y-27634108D01*
X57096392Y-27506814D01*
X57096390Y-27506811D01*
X57096390Y-27506809D01*
X57030503Y-27392690D01*
X57030501Y-27392688D01*
X57030500Y-27392686D01*
X56937314Y-27299500D01*
X56937311Y-27299498D01*
X56937309Y-27299496D01*
X56823189Y-27233609D01*
X56823191Y-27233609D01*
X56773799Y-27220375D01*
X56695892Y-27199500D01*
X56564108Y-27199500D01*
X56486200Y-27220375D01*
X56436809Y-27233609D01*
X56322690Y-27299496D01*
X56229496Y-27392690D01*
X56163609Y-27506809D01*
X56163608Y-27506814D01*
X56129500Y-27634108D01*
X37974415Y-27634108D01*
X37950500Y-27592686D01*
X37857314Y-27499500D01*
X37857311Y-27499498D01*
X37857309Y-27499496D01*
X37743189Y-27433609D01*
X37743191Y-27433609D01*
X37693799Y-27420375D01*
X37615892Y-27399500D01*
X37484108Y-27399500D01*
X37406200Y-27420375D01*
X37356809Y-27433609D01*
X37242690Y-27499496D01*
X37149496Y-27592690D01*
X37083609Y-27706809D01*
X37083608Y-27706814D01*
X37049500Y-27834108D01*
X31777767Y-27834108D01*
X32151960Y-27526503D01*
X32154291Y-27524649D01*
X32398949Y-27336079D01*
X32976060Y-26896582D01*
X32978246Y-26894966D01*
X33270620Y-26685468D01*
X33428537Y-26574234D01*
X46534500Y-26574234D01*
X46534500Y-26725766D01*
X46561052Y-26824859D01*
X46573720Y-26872139D01*
X46649481Y-27003360D01*
X46649483Y-27003362D01*
X46649485Y-27003365D01*
X46756635Y-27110515D01*
X46756637Y-27110516D01*
X46756639Y-27110518D01*
X46887861Y-27186279D01*
X46887859Y-27186279D01*
X46887863Y-27186280D01*
X46887865Y-27186281D01*
X47034234Y-27225500D01*
X47034236Y-27225500D01*
X47185764Y-27225500D01*
X47185766Y-27225500D01*
X47332135Y-27186281D01*
X47332137Y-27186279D01*
X47332139Y-27186279D01*
X47463360Y-27110518D01*
X47463360Y-27110517D01*
X47463365Y-27110515D01*
X47570515Y-27003365D01*
X47574062Y-26997222D01*
X47646279Y-26872139D01*
X47646279Y-26872137D01*
X47646281Y-26872135D01*
X47685500Y-26725766D01*
X47685500Y-26574234D01*
X52314500Y-26574234D01*
X52314500Y-26725766D01*
X52341052Y-26824859D01*
X52353720Y-26872139D01*
X52429481Y-27003360D01*
X52429483Y-27003362D01*
X52429485Y-27003365D01*
X52536635Y-27110515D01*
X52536637Y-27110516D01*
X52536639Y-27110518D01*
X52667861Y-27186279D01*
X52667859Y-27186279D01*
X52667863Y-27186280D01*
X52667865Y-27186281D01*
X52814234Y-27225500D01*
X52814236Y-27225500D01*
X52965764Y-27225500D01*
X52965766Y-27225500D01*
X53112135Y-27186281D01*
X53112137Y-27186279D01*
X53112139Y-27186279D01*
X53243360Y-27110518D01*
X53243360Y-27110517D01*
X53243365Y-27110515D01*
X53350515Y-27003365D01*
X53354062Y-26997222D01*
X53426279Y-26872139D01*
X53426279Y-26872137D01*
X53426281Y-26872135D01*
X53465500Y-26725766D01*
X53465500Y-26574234D01*
X53426281Y-26427865D01*
X53372150Y-26334108D01*
X59099500Y-26334108D01*
X59099500Y-26465892D01*
X59116743Y-26530243D01*
X59133609Y-26593190D01*
X59199496Y-26707309D01*
X59199498Y-26707311D01*
X59199500Y-26707314D01*
X59292686Y-26800500D01*
X59292688Y-26800501D01*
X59292690Y-26800503D01*
X59406810Y-26866390D01*
X59406808Y-26866390D01*
X59406812Y-26866391D01*
X59406814Y-26866392D01*
X59534108Y-26900500D01*
X59534110Y-26900500D01*
X59665890Y-26900500D01*
X59665892Y-26900500D01*
X59793186Y-26866392D01*
X59793188Y-26866390D01*
X59793190Y-26866390D01*
X59907309Y-26800503D01*
X59907309Y-26800502D01*
X59907314Y-26800500D01*
X60000500Y-26707314D01*
X60066392Y-26593186D01*
X60100500Y-26465892D01*
X60100500Y-26334108D01*
X60066392Y-26206814D01*
X60066390Y-26206811D01*
X60066390Y-26206809D01*
X60000503Y-26092690D01*
X60000501Y-26092688D01*
X60000500Y-26092686D01*
X59907314Y-25999500D01*
X59907311Y-25999498D01*
X59907309Y-25999496D01*
X59793189Y-25933609D01*
X59793191Y-25933609D01*
X59743799Y-25920375D01*
X59665892Y-25899500D01*
X59534108Y-25899500D01*
X59456200Y-25920375D01*
X59406809Y-25933609D01*
X59292690Y-25999496D01*
X59199496Y-26092690D01*
X59133609Y-26206809D01*
X59133608Y-26206814D01*
X59099500Y-26334108D01*
X53372150Y-26334108D01*
X53350515Y-26296635D01*
X53243365Y-26189485D01*
X53243362Y-26189483D01*
X53243360Y-26189481D01*
X53112138Y-26113720D01*
X53112140Y-26113720D01*
X53055347Y-26098503D01*
X52965766Y-26074500D01*
X52814234Y-26074500D01*
X52724652Y-26098503D01*
X52667860Y-26113720D01*
X52536639Y-26189481D01*
X52429481Y-26296639D01*
X52353720Y-26427860D01*
X52353719Y-26427865D01*
X52314500Y-26574234D01*
X47685500Y-26574234D01*
X47646281Y-26427865D01*
X47646279Y-26427862D01*
X47646279Y-26427860D01*
X47570518Y-26296639D01*
X47570516Y-26296637D01*
X47570515Y-26296635D01*
X47463365Y-26189485D01*
X47463362Y-26189483D01*
X47463360Y-26189481D01*
X47332138Y-26113720D01*
X47332140Y-26113720D01*
X47275347Y-26098503D01*
X47185766Y-26074500D01*
X47034234Y-26074500D01*
X46944652Y-26098503D01*
X46887860Y-26113720D01*
X46756639Y-26189481D01*
X46649481Y-26296639D01*
X46573720Y-26427860D01*
X46573719Y-26427865D01*
X46534500Y-26574234D01*
X33428537Y-26574234D01*
X33822796Y-26296526D01*
X33824823Y-26295138D01*
X34146367Y-26081318D01*
X34146933Y-26080945D01*
X34691159Y-25727128D01*
X34693072Y-25725917D01*
X35034662Y-25515580D01*
X35035524Y-25515057D01*
X35580159Y-25189122D01*
X35581934Y-25188087D01*
X35938192Y-24985514D01*
X35939192Y-24984955D01*
X36396097Y-24734108D01*
X41899500Y-24734108D01*
X41899500Y-24865892D01*
X41929579Y-24978151D01*
X41933609Y-24993190D01*
X41999496Y-25107309D01*
X41999498Y-25107311D01*
X41999500Y-25107314D01*
X42092686Y-25200500D01*
X42092688Y-25200501D01*
X42092690Y-25200503D01*
X42206810Y-25266390D01*
X42206808Y-25266390D01*
X42206812Y-25266391D01*
X42206814Y-25266392D01*
X42334108Y-25300500D01*
X42334110Y-25300500D01*
X42465890Y-25300500D01*
X42465892Y-25300500D01*
X42593186Y-25266392D01*
X42593188Y-25266390D01*
X42593190Y-25266390D01*
X42707309Y-25200503D01*
X42707309Y-25200502D01*
X42707314Y-25200500D01*
X42800500Y-25107314D01*
X42866392Y-24993186D01*
X42900500Y-24865892D01*
X42900500Y-24734108D01*
X42866392Y-24606814D01*
X42866390Y-24606811D01*
X42866390Y-24606809D01*
X42800503Y-24492690D01*
X42800501Y-24492688D01*
X42800500Y-24492686D01*
X42707314Y-24399500D01*
X42707311Y-24399498D01*
X42707309Y-24399496D01*
X42593189Y-24333609D01*
X42593191Y-24333609D01*
X42543799Y-24320375D01*
X42465892Y-24299500D01*
X42334108Y-24299500D01*
X42256200Y-24320375D01*
X42206809Y-24333609D01*
X42092690Y-24399496D01*
X41999496Y-24492690D01*
X41933609Y-24606809D01*
X41930712Y-24617621D01*
X41899500Y-24734108D01*
X36396097Y-24734108D01*
X36488958Y-24683126D01*
X36490540Y-24682278D01*
X36857315Y-24490344D01*
X36858575Y-24489699D01*
X37416843Y-24209695D01*
X37418101Y-24209078D01*
X37791743Y-24029874D01*
X37793238Y-24029175D01*
X38363004Y-23769452D01*
X38364210Y-23768913D01*
X38740783Y-23604212D01*
X38742625Y-23603430D01*
X39327763Y-23362558D01*
X39328535Y-23362246D01*
X39703593Y-23213575D01*
X39705693Y-23212772D01*
X40311397Y-22989391D01*
X40312012Y-22989168D01*
X40679245Y-22858236D01*
X40681525Y-22857457D01*
X41317049Y-22649579D01*
X41317209Y-22649528D01*
X41666388Y-22538607D01*
X41668998Y-22537818D01*
X42353438Y-22341793D01*
X42664083Y-22254924D01*
X42666853Y-22254196D01*
X43452615Y-22060453D01*
X43670949Y-22007540D01*
X43673974Y-22006860D01*
X44692060Y-21795654D01*
X44695584Y-21794990D01*
X45735295Y-21619339D01*
X45738520Y-21618852D01*
X45857837Y-21602881D01*
X45858151Y-21602840D01*
X45858157Y-21602887D01*
X45858420Y-21602805D01*
X46763292Y-21484347D01*
X46766342Y-21483997D01*
X47051463Y-21455924D01*
X47795945Y-21386503D01*
X47798699Y-21386288D01*
X48147066Y-21364229D01*
X48831785Y-21325991D01*
X48834414Y-21325880D01*
X49214429Y-21315112D01*
X49214941Y-21315100D01*
X49998172Y-21300534D01*
X50001828Y-21300534D01*
X51048620Y-21320001D01*
G37*
%TD.AperFunction*%
%TD*%
M02*
