%TF.GenerationSoftware,KiCad,Pcbnew,10.0.6*%
%TF.CreationDate,2026-10-06T21:25:36+02:00*%
%TF.ProjectId,MAO_MAIN_A1,4d414f5f-4d41-4494-9e5f-41312e6b6963,A1*%
%TF.SameCoordinates,Original*%
%TF.FileFunction,Soldermask,Top*%
%TF.FilePolarity,Negative*%
%FSLAX46Y46*%
G04 Gerber Fmt 4.6, Leading zero omitted, Abs format (unit mm)*
G04 Created by KiCad (PCBNEW 10.0.6) date 2026-10-06 21:25:36*
%MOMM*%
%LPD*%
G01*
G04 APERTURE LIST*
G04 Aperture macros list*
%AMRoundRect*
0 Rectangle with rounded corners*
0 $1 Rounding radius*
0 $2 $3 $4 $5 $6 $7 $8 $9 X,Y pos of 4 corners*
0 Add a 4 corners polygon primitive as box body*
4,1,4,$2,$3,$4,$5,$6,$7,$8,$9,$2,$3,0*
0 Add four circle primitives for the rounded corners*
1,1,$1+$1,$2,$3*
1,1,$1+$1,$4,$5*
1,1,$1+$1,$6,$7*
1,1,$1+$1,$8,$9*
0 Add four rect primitives between the rounded corners*
20,1,$1+$1,$2,$3,$4,$5,0*
20,1,$1+$1,$4,$5,$6,$7,0*
20,1,$1+$1,$6,$7,$8,$9,0*
20,1,$1+$1,$8,$9,$2,$3,0*%
%AMRotRect*
0 Rectangle, with rotation*
0 The origin of the aperture is its center*
0 $1 length*
0 $2 width*
0 $3 Rotation angle, in degrees counterclockwise*
0 Add horizontal line*
21,1,$1,$2,0,0,$3*%
G04 Aperture macros list end*
%ADD10C,2.000000*%
%ADD11RoundRect,0.135000X-0.135000X-0.185000X0.135000X-0.185000X0.135000X0.185000X-0.135000X0.185000X0*%
%ADD12RoundRect,0.225000X-0.225000X-0.250000X0.225000X-0.250000X0.225000X0.250000X-0.225000X0.250000X0*%
%ADD13RoundRect,0.140000X-0.140000X-0.170000X0.140000X-0.170000X0.140000X0.170000X-0.140000X0.170000X0*%
%ADD14RoundRect,0.225000X0.250000X-0.225000X0.250000X0.225000X-0.250000X0.225000X-0.250000X-0.225000X0*%
%ADD15RoundRect,0.135000X0.185000X-0.135000X0.185000X0.135000X-0.185000X0.135000X-0.185000X-0.135000X0*%
%ADD16RoundRect,0.135000X-0.185000X0.135000X-0.185000X-0.135000X0.185000X-0.135000X0.185000X0.135000X0*%
%ADD17C,0.330000*%
%ADD18RoundRect,0.140000X0.140000X0.170000X-0.140000X0.170000X-0.140000X-0.170000X0.140000X-0.170000X0*%
%ADD19RoundRect,0.135000X0.135000X0.185000X-0.135000X0.185000X-0.135000X-0.185000X0.135000X-0.185000X0*%
%ADD20RoundRect,0.140000X0.170000X-0.140000X0.170000X0.140000X-0.170000X0.140000X-0.170000X-0.140000X0*%
%ADD21RoundRect,0.050000X0.325000X0.050000X-0.325000X0.050000X-0.325000X-0.050000X0.325000X-0.050000X0*%
%ADD22R,0.900000X1.500000*%
%ADD23RotRect,1.800000X1.100000X260.000000*%
%ADD24RoundRect,0.225000X-0.250000X0.225000X-0.250000X-0.225000X0.250000X-0.225000X0.250000X0.225000X0*%
%ADD25RoundRect,0.087500X-0.087500X0.250000X-0.087500X-0.250000X0.087500X-0.250000X0.087500X0.250000X0*%
%ADD26RoundRect,0.275000X-0.475000X-0.275000X0.475000X-0.275000X0.475000X0.275000X-0.475000X0.275000X0*%
%ADD27RoundRect,0.140000X-0.170000X0.140000X-0.170000X-0.140000X0.170000X-0.140000X0.170000X0.140000X0*%
%ADD28RoundRect,0.087500X-0.225000X-0.087500X0.225000X-0.087500X0.225000X0.087500X-0.225000X0.087500X0*%
%ADD29RoundRect,0.087500X-0.087500X-0.225000X0.087500X-0.225000X0.087500X0.225000X-0.087500X0.225000X0*%
%ADD30RoundRect,0.062500X-0.152780X0.160377X-0.215280X0.052123X0.152780X-0.160377X0.215280X-0.052123X0*%
%ADD31RotRect,0.800000X0.600000X240.000000*%
%ADD32RotRect,0.500000X0.500000X118.000000*%
%ADD33R,1.100000X1.800000*%
%ADD34C,2.200000*%
%ADD35RoundRect,0.062500X-0.135180X0.175468X-0.208653X0.074341X0.135180X-0.175468X0.208653X-0.074341X0*%
%ADD36RotRect,0.800000X0.600000X234.000000*%
%ADD37RoundRect,0.150000X0.150000X-0.587500X0.150000X0.587500X-0.150000X0.587500X-0.150000X-0.587500X0*%
%ADD38RotRect,1.800000X1.100000X200.000000*%
%ADD39C,0.650000*%
%ADD40O,1.000000X1.600000*%
%ADD41O,1.000000X2.100000*%
%ADD42C,0.990600*%
G04 APERTURE END LIST*
D10*
%TO.C,FID1*%
X65600000Y-29800000D03*
%TD*%
D11*
%TO.C,R116*%
X43040000Y-55150000D03*
X44060000Y-55150000D03*
%TD*%
D12*
%TO.C,C408*%
X56125000Y-57000000D03*
X57675000Y-57000000D03*
%TD*%
D11*
%TO.C,R306*%
X67875000Y-65427000D03*
X68895000Y-65427000D03*
%TD*%
D13*
%TO.C,C301*%
X37620000Y-52000000D03*
X38580000Y-52000000D03*
%TD*%
D11*
%TO.C,R505*%
X71450000Y-56750000D03*
X72470000Y-56750000D03*
%TD*%
D13*
%TO.C,C303*%
X70904000Y-60896000D03*
X71864000Y-60896000D03*
%TD*%
D14*
%TO.C,C404*%
X36400000Y-30491000D03*
X36400000Y-28941000D03*
%TD*%
D15*
%TO.C,R208*%
X34050000Y-40550000D03*
X34050000Y-39530000D03*
%TD*%
D16*
%TO.C,R211*%
X66050000Y-53490000D03*
X66050000Y-54510000D03*
%TD*%
D17*
%TO.C,U105*%
X40800000Y-54000000D03*
X41200000Y-54000000D03*
X40800000Y-54400000D03*
X41200000Y-54400000D03*
%TD*%
D12*
%TO.C,C506*%
X72825000Y-46100000D03*
X74375000Y-46100000D03*
%TD*%
D11*
%TO.C,R506*%
X73090000Y-53600000D03*
X74110000Y-53600000D03*
%TD*%
D12*
%TO.C,C501*%
X34125000Y-36600000D03*
X35675000Y-36600000D03*
%TD*%
D10*
%TO.C,H3*%
X32322000Y-67678000D03*
%TD*%
D18*
%TO.C,C401*%
X55323000Y-59250000D03*
X54363000Y-59250000D03*
%TD*%
D15*
%TO.C,R117*%
X61900000Y-36910000D03*
X61900000Y-35890000D03*
%TD*%
D19*
%TO.C,R401*%
X44700000Y-31500000D03*
X43680000Y-31500000D03*
%TD*%
%TO.C,R119*%
X65410000Y-38225000D03*
X64390000Y-38225000D03*
%TD*%
D13*
%TO.C,C304*%
X69417000Y-63421000D03*
X70377000Y-63421000D03*
%TD*%
D20*
%TO.C,C207*%
X48250000Y-55980000D03*
X48250000Y-55020000D03*
%TD*%
D21*
%TO.C,U102*%
X60510000Y-39025000D03*
X60510000Y-38625000D03*
X60510000Y-38225000D03*
X60510000Y-37825000D03*
X60510000Y-37425000D03*
X58310000Y-37425000D03*
X58310000Y-37825000D03*
X58310000Y-38225000D03*
X58310000Y-38625000D03*
X58310000Y-39025000D03*
D22*
X59410000Y-38225000D03*
%TD*%
D23*
%TO.C,SW303*%
X41252204Y-37948345D03*
X40175585Y-44054153D03*
X37608415Y-37305847D03*
X36531796Y-43411655D03*
%TD*%
D20*
%TO.C,C508*%
X67300000Y-55080000D03*
X67300000Y-54120000D03*
%TD*%
D24*
%TO.C,C102*%
X60510000Y-40475000D03*
X60510000Y-42025000D03*
%TD*%
D15*
%TO.C,R318*%
X46900000Y-43970000D03*
X46900000Y-42950000D03*
%TD*%
D20*
%TO.C,C308*%
X45600000Y-43950000D03*
X45600000Y-42990000D03*
%TD*%
D13*
%TO.C,C110*%
X43070000Y-53850000D03*
X44030000Y-53850000D03*
%TD*%
D19*
%TO.C,R123*%
X62410000Y-60850000D03*
X61390000Y-60850000D03*
%TD*%
%TO.C,R104*%
X57060000Y-37025000D03*
X56040000Y-37025000D03*
%TD*%
D25*
%TO.C,U101*%
X50500000Y-31287500D03*
X50000000Y-31287500D03*
X49500000Y-31287500D03*
X49500000Y-32712500D03*
X50500000Y-32712500D03*
%TD*%
D20*
%TO.C,C502*%
X35200000Y-38880000D03*
X35200000Y-37920000D03*
%TD*%
%TO.C,C403*%
X36651000Y-32804000D03*
X36651000Y-31844000D03*
%TD*%
D26*
%TO.C,U503*%
X67850000Y-48730000D03*
X67850000Y-51270000D03*
X74150000Y-51270000D03*
X74150000Y-48730000D03*
%TD*%
D27*
%TO.C,C103*%
X63200000Y-39020000D03*
X63200000Y-39980000D03*
%TD*%
D28*
%TO.C,U401*%
X52037500Y-56250000D03*
X52037500Y-56750000D03*
X52037500Y-57250000D03*
X52037500Y-57750000D03*
D29*
X52700000Y-57912500D03*
X53200000Y-57912500D03*
X53700000Y-57912500D03*
D28*
X54362500Y-57750000D03*
X54362500Y-57250000D03*
X54362500Y-56750000D03*
X54362500Y-56250000D03*
D29*
X53700000Y-56087500D03*
X53200000Y-56087500D03*
X52700000Y-56087500D03*
%TD*%
D18*
%TO.C,C109*%
X38980000Y-54750000D03*
X38020000Y-54750000D03*
%TD*%
D30*
%TO.C,U301*%
X73572170Y-63320994D03*
X72229830Y-62545994D03*
X71979830Y-62979006D03*
X73322170Y-63754006D03*
D31*
X72776000Y-63150000D03*
%TD*%
D27*
%TO.C,C101*%
X58310000Y-40220000D03*
X58310000Y-41180000D03*
%TD*%
D11*
%TO.C,R404*%
X48590000Y-59400000D03*
X49610000Y-59400000D03*
%TD*%
D32*
%TO.C,U402*%
X38399707Y-31590796D03*
X39110759Y-31224049D03*
X39812423Y-30839642D03*
X40518781Y-30464065D03*
X41225139Y-30088487D03*
X41600716Y-30794845D03*
X41976293Y-31501204D03*
X41269935Y-31876781D03*
X40563577Y-32252358D03*
X39857219Y-32627935D03*
X39150861Y-33003513D03*
X38775284Y-32297155D03*
%TD*%
D13*
%TO.C,C305*%
X38220000Y-49100000D03*
X39180000Y-49100000D03*
%TD*%
D33*
%TO.C,SW302*%
X45632000Y-67380000D03*
X45632000Y-61180000D03*
X49332000Y-67380000D03*
X49332000Y-61180000D03*
%TD*%
D34*
%TO.C,H2*%
X68579000Y-33272000D03*
%TD*%
%TO.C,H1*%
X31421000Y-33272000D03*
%TD*%
D13*
%TO.C,C402*%
X51720000Y-59250000D03*
X52680000Y-59250000D03*
%TD*%
D15*
%TO.C,R210*%
X42825000Y-29288000D03*
X42825000Y-28268000D03*
%TD*%
D35*
%TO.C,U302*%
X72050934Y-65712279D03*
X70796958Y-64801212D03*
X70503066Y-65205721D03*
X71757042Y-66116788D03*
D36*
X71277000Y-65459000D03*
%TD*%
D16*
%TO.C,R215*%
X50650000Y-54690000D03*
X50650000Y-55710000D03*
%TD*%
D37*
%TO.C,Q102*%
X60050000Y-64237500D03*
X61950000Y-64237500D03*
X61000000Y-62362500D03*
%TD*%
D19*
%TO.C,R103*%
X57060000Y-38225000D03*
X56040000Y-38225000D03*
%TD*%
D11*
%TO.C,R202*%
X40090000Y-68700000D03*
X41110000Y-68700000D03*
%TD*%
D16*
%TO.C,R216*%
X49450000Y-55090000D03*
X49450000Y-56110000D03*
%TD*%
D11*
%TO.C,R118*%
X55790000Y-40400000D03*
X56810000Y-40400000D03*
%TD*%
D10*
%TO.C,FID3*%
X30000000Y-41000000D03*
%TD*%
%TO.C,FID2*%
X55500000Y-66000000D03*
%TD*%
D17*
%TO.C,U504*%
X69600000Y-54800000D03*
X69200000Y-54800000D03*
X69600000Y-54400000D03*
X69200000Y-54400000D03*
%TD*%
D38*
%TO.C,SW301*%
X70084374Y-44658614D03*
X64258280Y-46779139D03*
X68818900Y-41181751D03*
X62992806Y-43302276D03*
%TD*%
D39*
%TO.C,J101*%
X47110000Y-26650000D03*
X52890000Y-26650000D03*
D40*
X45680000Y-23000000D03*
D41*
X45680000Y-27180000D03*
D40*
X54320000Y-23000000D03*
D41*
X54320000Y-27180000D03*
%TD*%
D42*
%TO.C,J201*%
X64400000Y-64060000D03*
X65416000Y-69140000D03*
X63384000Y-69140000D03*
%TD*%
M02*
