%TF.GenerationSoftware,KiCad,Pcbnew,10.0.6*%
%TF.CreationDate,2026-10-05T01:23:28+02:00*%
%TF.ProjectId,MAO_MAIN_A0,4d414f5f-4d41-4494-9e5f-41302e6b6963,A0*%
%TF.SameCoordinates,Original*%
%TF.FileFunction,Legend,Bot*%
%TF.FilePolarity,Positive*%
%FSLAX46Y46*%
G04 Gerber Fmt 4.6, Leading zero omitted, Abs format (unit mm)*
G04 Created by KiCad (PCBNEW 10.0.6) date 2026-10-05 01:23:28*
%MOMM*%
%LPD*%
G01*
G04 APERTURE LIST*
G04 Aperture macros list*
%AMRoundRect*
0 Rectangle with rounded corners*
0 $1 Rounding radius*
0 $2 $3 $4 $5 $6 $7 $8 $9 X,Y pos of 4 corners*
0 Add a 4 corners polygon primitive as box body*
4,1,4,$2,$3,$4,$5,$6,$7,$8,$9,$2,$3,0*
0 Add four circle primitives for the rounded corners*
1,1,$1+$1,$2,$3*
1,1,$1+$1,$4,$5*
1,1,$1+$1,$6,$7*
1,1,$1+$1,$8,$9*
0 Add four rect primitives between the rounded corners*
20,1,$1+$1,$2,$3,$4,$5,0*
20,1,$1+$1,$4,$5,$6,$7,0*
20,1,$1+$1,$6,$7,$8,$9,0*
20,1,$1+$1,$8,$9,$2,$3,0*%
%AMRotRect*
0 Rectangle, with rotation*
0 The origin of the aperture is its center*
0 $1 length*
0 $2 width*
0 $3 Rotation angle, in degrees counterclockwise*
0 Add horizontal line*
21,1,$1,$2,0,0,$3*%
%AMFreePoly0*
4,1,64,0.031751,0.146088,0.079639,0.146088,0.235855,0.115014,0.383010,0.054061,0.515445,-0.034429,0.628071,-0.147055,0.716561,-0.279490,0.777513,-0.426644,0.808588,-0.582861,0.808588,-0.742139,0.777514,-0.898356,0.716561,-1.045510,0.628071,-1.177945,0.515445,-1.290571,0.383010,-1.379061,0.235856,-1.440014,0.079639,-1.471088,-0.079639,-1.471088,-0.235856,-1.440014,-0.383010,-1.379061,
-0.515445,-1.290571,-0.628071,-1.177945,-0.716561,-1.045510,-0.777514,-0.898356,-0.808588,-0.742139,-0.808588,-0.595029,-0.512501,-0.595028,-0.512500,-0.729972,-0.477574,-0.860317,-0.410102,-0.977182,-0.314682,-1.072602,-0.197817,-1.140074,-0.067472,-1.175000,0.067472,-1.175000,0.197817,-1.140074,0.314682,-1.072602,0.410102,-0.977182,0.477574,-0.860317,0.512500,-0.729972,0.512500,-0.595028,
0.477574,-0.464683,0.410102,-0.347818,0.314682,-0.252398,0.197817,-0.184926,0.067472,-0.150000,-0.067472,-0.150000,-0.197816,-0.184926,-0.314682,-0.252398,-0.410102,-0.347818,-0.477574,-0.464683,-0.512501,-0.595028,-0.808588,-0.595029,-0.808588,-0.582861,-0.777513,-0.426644,-0.716561,-0.279490,-0.628070,-0.147055,-0.515445,-0.034429,-0.383010,0.054061,-0.235856,0.115014,-0.079639,0.146088,
-0.031751,0.146088,-0.029264,0.147118,0.029264,0.147118,0.031751,0.146088,0.031751,0.146088,$1*%
G04 Aperture macros list end*
%ADD10C,0.000000*%
%ADD11C,0.150000*%
%ADD12C,0.160000*%
%ADD13C,0.200000*%
%ADD14C,0.120000*%
%ADD15C,0.100001*%
%ADD16C,2.200000*%
%ADD17C,2.000000*%
%ADD18RoundRect,0.150000X-0.587500X-0.150000X0.587500X-0.150000X0.587500X0.150000X-0.587500X0.150000X0*%
%ADD19RoundRect,0.225000X0.250000X-0.225000X0.250000X0.225000X-0.250000X0.225000X-0.250000X-0.225000X0*%
%ADD20C,1.200000*%
%ADD21RoundRect,0.140000X0.170000X-0.140000X0.170000X0.140000X-0.170000X0.140000X-0.170000X-0.140000X0*%
%ADD22RoundRect,0.250000X0.625000X-0.312500X0.625000X0.312500X-0.625000X0.312500X-0.625000X-0.312500X0*%
%ADD23RoundRect,0.135000X-0.185000X0.135000X-0.185000X-0.135000X0.185000X-0.135000X0.185000X0.135000X0*%
%ADD24RoundRect,0.050000X0.559692X0.481398X-0.093814X0.732256X-0.559692X-0.481398X0.093814X-0.732256X0*%
%ADD25RoundRect,0.135000X-0.135000X-0.185000X0.135000X-0.185000X0.135000X0.185000X-0.135000X0.185000X0*%
%ADD26RoundRect,0.050000X0.075000X-0.250000X0.075000X0.250000X-0.075000X0.250000X-0.075000X-0.250000X0*%
%ADD27RoundRect,0.050000X0.075000X-0.400000X0.075000X0.400000X-0.075000X0.400000X-0.075000X-0.400000X0*%
%ADD28RoundRect,0.050000X0.075000X-0.600000X0.075000X0.600000X-0.075000X0.600000X-0.075000X-0.600000X0*%
%ADD29RoundRect,0.135000X0.185000X-0.135000X0.185000X0.135000X-0.185000X0.135000X-0.185000X-0.135000X0*%
%ADD30RoundRect,0.062500X-0.325000X-0.062500X0.325000X-0.062500X0.325000X0.062500X-0.325000X0.062500X0*%
%ADD31R,0.800000X1.200000*%
%ADD32RoundRect,0.140000X-0.140000X-0.170000X0.140000X-0.170000X0.140000X0.170000X-0.140000X0.170000X0*%
%ADD33C,1.000000*%
%ADD34RoundRect,0.140000X0.140000X0.170000X-0.140000X0.170000X-0.140000X-0.170000X0.140000X-0.170000X0*%
%ADD35RoundRect,0.225000X-0.250000X0.225000X-0.250000X-0.225000X0.250000X-0.225000X0.250000X0.225000X0*%
%ADD36RoundRect,0.087500X0.662500X0.087500X-0.662500X0.087500X-0.662500X-0.087500X0.662500X-0.087500X0*%
%ADD37RoundRect,0.100000X-0.700000X-1.000000X0.700000X-1.000000X0.700000X1.000000X-0.700000X1.000000X0*%
%ADD38RoundRect,0.225000X0.225000X0.250000X-0.225000X0.250000X-0.225000X-0.250000X0.225000X-0.250000X0*%
%ADD39RoundRect,0.140000X-0.170000X0.140000X-0.170000X-0.140000X0.170000X-0.140000X0.170000X0.140000X0*%
%ADD40RoundRect,0.150000X0.150000X-0.587500X0.150000X0.587500X-0.150000X0.587500X-0.150000X-0.587500X0*%
%ADD41RoundRect,0.150000X0.150000X0.625000X-0.150000X0.625000X-0.150000X-0.625000X0.150000X-0.625000X0*%
%ADD42RoundRect,0.250000X0.350000X0.650000X-0.350000X0.650000X-0.350000X-0.650000X0.350000X-0.650000X0*%
%ADD43RoundRect,0.150000X0.826526X0.043072X0.497896X0.661135X-0.826526X-0.043072X-0.497896X-0.661135X0*%
%ADD44C,0.990600*%
%ADD45C,0.787400*%
%ADD46RoundRect,0.050000X0.093814X0.732256X-0.559692X0.481398X-0.093814X-0.732256X0.559692X-0.481398X0*%
%ADD47RoundRect,0.200000X0.275000X-0.200000X0.275000X0.200000X-0.275000X0.200000X-0.275000X-0.200000X0*%
%ADD48RoundRect,0.150000X-0.512500X-0.150000X0.512500X-0.150000X0.512500X0.150000X-0.512500X0.150000X0*%
%ADD49RoundRect,0.062500X-0.375000X-0.062500X0.375000X-0.062500X0.375000X0.062500X-0.375000X0.062500X0*%
%ADD50RoundRect,0.062500X-0.062500X-0.375000X0.062500X-0.375000X0.062500X0.375000X-0.062500X0.375000X0*%
%ADD51R,1.450000X1.450000*%
%ADD52RoundRect,0.062500X0.350000X0.062500X-0.350000X0.062500X-0.350000X-0.062500X0.350000X-0.062500X0*%
%ADD53RoundRect,0.062500X0.062500X0.350000X-0.062500X0.350000X-0.062500X-0.350000X0.062500X-0.350000X0*%
%ADD54R,1.680000X1.680000*%
%ADD55R,1.500000X0.900000*%
%ADD56R,0.900000X1.500000*%
%ADD57C,0.600000*%
%ADD58R,3.900000X3.900000*%
%ADD59RoundRect,0.250000X-0.400000X-0.450000X0.400000X-0.450000X0.400000X0.450000X-0.400000X0.450000X0*%
%ADD60RoundRect,0.062500X0.062500X-0.350000X0.062500X0.350000X-0.062500X0.350000X-0.062500X-0.350000X0*%
%ADD61RoundRect,0.062500X0.350000X-0.062500X0.350000X0.062500X-0.350000X0.062500X-0.350000X-0.062500X0*%
%ADD62R,1.230000X1.230000*%
%ADD63RoundRect,0.137500X0.137500X0.662500X-0.137500X0.662500X-0.137500X-0.662500X0.137500X-0.662500X0*%
%ADD64C,0.500000*%
%ADD65RotRect,0.725000X0.522000X344.000000*%
%ADD66FreePoly0,344.000000*%
%ADD67RoundRect,0.135000X0.135000X0.185000X-0.135000X0.185000X-0.135000X-0.185000X0.135000X-0.185000X0*%
%ADD68RoundRect,0.075000X-0.075000X-0.175000X0.075000X-0.175000X0.075000X0.175000X-0.075000X0.175000X0*%
%ADD69C,0.650000*%
%ADD70RoundRect,0.150000X-0.150000X-0.575000X0.150000X-0.575000X0.150000X0.575000X-0.150000X0.575000X0*%
%ADD71RoundRect,0.075000X-0.075000X-0.650000X0.075000X-0.650000X0.075000X0.650000X-0.075000X0.650000X0*%
%ADD72O,1.000000X1.600000*%
%ADD73O,1.000000X2.100000*%
G04 APERTURE END LIST*
D10*
G36*
X69102380Y-61187500D02*
G01*
X69120238Y-61187500D01*
X69123214Y-61190476D01*
X69132142Y-61190476D01*
X69135119Y-61193452D01*
X69152976Y-61196428D01*
X69167857Y-61205357D01*
X69179761Y-61208333D01*
X69185714Y-61214285D01*
X69203571Y-61223214D01*
X69224404Y-61241071D01*
X69245238Y-61252976D01*
X69266071Y-61270833D01*
X69286904Y-61282738D01*
X69298809Y-61294642D01*
X69319642Y-61306547D01*
X69328571Y-61315476D01*
X69340476Y-61321428D01*
X69370238Y-61345238D01*
X69373214Y-61345238D01*
X69379166Y-61351190D01*
X69391071Y-61357142D01*
X69400000Y-61366071D01*
X69411904Y-61372023D01*
X69420833Y-61380952D01*
X69432738Y-61386904D01*
X69441666Y-61395833D01*
X69453571Y-61401785D01*
X69474404Y-61419642D01*
X69477380Y-61419642D01*
X69483333Y-61425595D01*
X69504166Y-61437500D01*
X69525000Y-61455357D01*
X69545833Y-61467261D01*
X69566666Y-61485119D01*
X69569642Y-61485119D01*
X69575595Y-61491071D01*
X69587500Y-61497023D01*
X69596428Y-61505952D01*
X69608333Y-61511904D01*
X69629166Y-61529761D01*
X69632142Y-61529761D01*
X69638095Y-61535714D01*
X69658928Y-61547619D01*
X69679761Y-61565476D01*
X69700595Y-61577380D01*
X69712500Y-61589285D01*
X69724404Y-61595238D01*
X69742261Y-61613095D01*
X69742261Y-61616071D01*
X69757142Y-61633928D01*
X69763095Y-61645833D01*
X69763095Y-61651785D01*
X69769047Y-61660714D01*
X69769047Y-61669642D01*
X69772023Y-61672619D01*
X69772023Y-62086309D01*
X69775000Y-62089285D01*
X69775000Y-62098214D01*
X69780952Y-62104166D01*
X69822619Y-62125000D01*
X69828571Y-62130952D01*
X69849404Y-62139880D01*
X69855357Y-62145833D01*
X69870238Y-62151785D01*
X69876190Y-62157738D01*
X69902976Y-62169642D01*
X69908928Y-62175595D01*
X69935714Y-62187500D01*
X69941666Y-62193452D01*
X69983333Y-62214285D01*
X69989285Y-62220238D01*
X70016071Y-62232142D01*
X70022023Y-62238095D01*
X70036904Y-62244047D01*
X70042857Y-62250000D01*
X70108333Y-62282738D01*
X70114285Y-62288690D01*
X70135119Y-62297619D01*
X70141071Y-62303571D01*
X70155952Y-62309523D01*
X70161904Y-62315476D01*
X70188690Y-62327380D01*
X70194642Y-62333333D01*
X70209523Y-62339285D01*
X70215476Y-62345238D01*
X70269047Y-62372023D01*
X70275000Y-62377976D01*
X70289880Y-62383928D01*
X70304761Y-62395833D01*
X70313690Y-62398809D01*
X70325595Y-62410714D01*
X70328571Y-62410714D01*
X70349404Y-62431547D01*
X70349404Y-62434523D01*
X70358333Y-62443452D01*
X70358333Y-62446428D01*
X70370238Y-62461309D01*
X70385119Y-62491071D01*
X70385119Y-62497023D01*
X70391071Y-62508928D01*
X70391071Y-62517857D01*
X70394047Y-62520833D01*
X70394047Y-62532738D01*
X70397023Y-62535714D01*
X70397023Y-62559523D01*
X70400000Y-62562500D01*
X70400000Y-62568452D01*
X70397023Y-62571428D01*
X70397023Y-62601190D01*
X70394047Y-62604166D01*
X70394047Y-62616071D01*
X70391071Y-62619047D01*
X70388095Y-62636904D01*
X70382142Y-62645833D01*
X70382142Y-62651785D01*
X70370238Y-62675595D01*
X70355357Y-62693452D01*
X70355357Y-62696428D01*
X70316666Y-62735119D01*
X70313690Y-62735119D01*
X70304761Y-62744047D01*
X70269047Y-62761904D01*
X70263095Y-62761904D01*
X70260119Y-62764880D01*
X70254166Y-62764880D01*
X70242261Y-62770833D01*
X70230357Y-62770833D01*
X70227380Y-62773809D01*
X70209523Y-62773809D01*
X70206547Y-62776785D01*
X70176785Y-62776785D01*
X70173809Y-62773809D01*
X70155952Y-62773809D01*
X70152976Y-62770833D01*
X70144047Y-62770833D01*
X70141071Y-62767857D01*
X70132142Y-62767857D01*
X70129166Y-62764880D01*
X70114285Y-62761904D01*
X70090476Y-62750000D01*
X70084523Y-62744047D01*
X70063690Y-62732142D01*
X70054761Y-62723214D01*
X70033928Y-62711309D01*
X70025000Y-62702380D01*
X70022023Y-62702380D01*
X70016071Y-62696428D01*
X70013095Y-62696428D01*
X70007142Y-62690476D01*
X70004166Y-62690476D01*
X69998214Y-62684523D01*
X69995238Y-62684523D01*
X69989285Y-62678571D01*
X69986309Y-62678571D01*
X69980357Y-62672619D01*
X69977380Y-62672619D01*
X69971428Y-62666666D01*
X69950595Y-62654761D01*
X69941666Y-62645833D01*
X69938690Y-62645833D01*
X69932738Y-62639880D01*
X69911904Y-62627976D01*
X69902976Y-62619047D01*
X69882142Y-62607142D01*
X69873214Y-62598214D01*
X69870238Y-62598214D01*
X69864285Y-62592261D01*
X69861309Y-62592261D01*
X69855357Y-62586309D01*
X69852380Y-62586309D01*
X69846428Y-62580357D01*
X69825595Y-62568452D01*
X69798809Y-62541666D01*
X69798809Y-62538690D01*
X69789880Y-62529761D01*
X69783928Y-62517857D01*
X69783928Y-62511904D01*
X69777976Y-62500000D01*
X69777976Y-62488095D01*
X69775000Y-62485119D01*
X69775000Y-62104166D01*
X69763095Y-62098214D01*
X69757142Y-62092261D01*
X69742261Y-62086309D01*
X69736309Y-62080357D01*
X69709523Y-62068452D01*
X69703571Y-62062500D01*
X69667857Y-62044642D01*
X69661904Y-62038690D01*
X69641071Y-62029761D01*
X69635119Y-62023809D01*
X69587500Y-62000000D01*
X69581547Y-61994047D01*
X69566666Y-61988095D01*
X69560714Y-61982142D01*
X69545833Y-61976190D01*
X69539880Y-61970238D01*
X69492261Y-61946428D01*
X69486309Y-61940476D01*
X69471428Y-61934523D01*
X69465476Y-61928571D01*
X69444642Y-61919642D01*
X69438690Y-61913690D01*
X69423809Y-61907738D01*
X69417857Y-61901785D01*
X69402976Y-61895833D01*
X69397023Y-61889880D01*
X69382142Y-61883928D01*
X69376190Y-61877976D01*
X69349404Y-61866071D01*
X69343452Y-61860119D01*
X69307738Y-61842261D01*
X69301785Y-61836309D01*
X69286904Y-61830357D01*
X69280952Y-61824404D01*
X69254166Y-61812500D01*
X69248214Y-61806547D01*
X69233333Y-61800595D01*
X69218452Y-61788690D01*
X69191666Y-61776785D01*
X69173809Y-61761904D01*
X69170833Y-61761904D01*
X69155952Y-61747023D01*
X69155952Y-61744047D01*
X69147023Y-61735119D01*
X69144047Y-61726190D01*
X69138095Y-61720238D01*
X69138095Y-61714285D01*
X69129166Y-61696428D01*
X69129166Y-61684523D01*
X69126190Y-61681547D01*
X69126190Y-61571428D01*
X69129166Y-61568452D01*
X69129166Y-61434523D01*
X69132142Y-61431547D01*
X69132142Y-61288690D01*
X69129166Y-61285714D01*
X69126190Y-61273809D01*
X69108333Y-61255952D01*
X69102380Y-61255952D01*
X69099404Y-61252976D01*
X69078571Y-61252976D01*
X69075595Y-61255952D01*
X69069642Y-61255952D01*
X69051785Y-61273809D01*
X69048809Y-61285714D01*
X69045833Y-61288690D01*
X69045833Y-61407738D01*
X69048809Y-61410714D01*
X69048809Y-61526785D01*
X69051785Y-61529761D01*
X69051785Y-61672619D01*
X69054761Y-61675595D01*
X69054761Y-62815476D01*
X69039880Y-62809523D01*
X69033928Y-62803571D01*
X68980357Y-62776785D01*
X68974404Y-62770833D01*
X68959523Y-62764880D01*
X68953571Y-62758928D01*
X68938690Y-62752976D01*
X68932738Y-62747023D01*
X68911904Y-62738095D01*
X68905952Y-62732142D01*
X68885119Y-62723214D01*
X68879166Y-62717261D01*
X68858333Y-62708333D01*
X68852380Y-62702380D01*
X68831547Y-62693452D01*
X68825595Y-62687500D01*
X68777976Y-62663690D01*
X68757142Y-62648809D01*
X68736309Y-62639880D01*
X68730357Y-62633928D01*
X68694642Y-62616071D01*
X68688690Y-62610119D01*
X68673809Y-62604166D01*
X68667857Y-62598214D01*
X68641071Y-62586309D01*
X68635119Y-62580357D01*
X68614285Y-62571428D01*
X68608333Y-62565476D01*
X68593452Y-62559523D01*
X68587500Y-62553571D01*
X68539880Y-62529761D01*
X68533928Y-62523809D01*
X68519047Y-62517857D01*
X68513095Y-62511904D01*
X68465476Y-62488095D01*
X68459523Y-62482142D01*
X68447619Y-62476190D01*
X68414880Y-62440476D01*
X68405952Y-62422619D01*
X68402976Y-62404761D01*
X68400000Y-62401785D01*
X68400000Y-61669642D01*
X68402976Y-61666666D01*
X68402976Y-61657738D01*
X68408928Y-61648809D01*
X68408928Y-61642857D01*
X68414880Y-61630952D01*
X68429761Y-61613095D01*
X68429761Y-61610119D01*
X68453571Y-61586309D01*
X68456547Y-61586309D01*
X68474404Y-61571428D01*
X68495238Y-61559523D01*
X68504166Y-61550595D01*
X68516071Y-61544642D01*
X68525000Y-61535714D01*
X68527976Y-61535714D01*
X68536904Y-61526785D01*
X68557738Y-61514880D01*
X68566666Y-61505952D01*
X68569642Y-61505952D01*
X68575595Y-61500000D01*
X68596428Y-61488095D01*
X68629166Y-61461309D01*
X68650000Y-61449404D01*
X68673809Y-61428571D01*
X68694642Y-61416666D01*
X68715476Y-61398809D01*
X68718452Y-61398809D01*
X68724404Y-61392857D01*
X68745238Y-61380952D01*
X68754166Y-61372023D01*
X68757142Y-61372023D01*
X68766071Y-61363095D01*
X68777976Y-61357142D01*
X68786904Y-61348214D01*
X68807738Y-61336309D01*
X68816666Y-61327380D01*
X68828571Y-61321428D01*
X68858333Y-61297619D01*
X68879166Y-61285714D01*
X68888095Y-61276785D01*
X68900000Y-61270833D01*
X68908928Y-61261904D01*
X68929761Y-61250000D01*
X68938690Y-61241071D01*
X68941666Y-61241071D01*
X68959523Y-61226190D01*
X68977380Y-61217261D01*
X68983333Y-61211309D01*
X69007142Y-61199404D01*
X69013095Y-61199404D01*
X69016071Y-61196428D01*
X69022023Y-61196428D01*
X69033928Y-61190476D01*
X69042857Y-61190476D01*
X69045833Y-61187500D01*
X69063690Y-61187500D01*
X69066666Y-61184523D01*
X69099404Y-61184523D01*
X69102380Y-61187500D01*
G37*
D11*
X27607237Y-63742295D02*
X27988189Y-63742295D01*
X27988189Y-63742295D02*
X27988189Y-62942295D01*
X26883427Y-63742295D02*
X27150094Y-63361342D01*
X27340570Y-63742295D02*
X27340570Y-62942295D01*
X27340570Y-62942295D02*
X27035808Y-62942295D01*
X27035808Y-62942295D02*
X26959618Y-62980390D01*
X26959618Y-62980390D02*
X26921523Y-63018485D01*
X26921523Y-63018485D02*
X26883427Y-63094676D01*
X26883427Y-63094676D02*
X26883427Y-63208961D01*
X26883427Y-63208961D02*
X26921523Y-63285152D01*
X26921523Y-63285152D02*
X26959618Y-63323247D01*
X26959618Y-63323247D02*
X27035808Y-63361342D01*
X27035808Y-63361342D02*
X27340570Y-63361342D01*
X26578666Y-63513723D02*
X26197713Y-63513723D01*
X26654856Y-63742295D02*
X26388189Y-62942295D01*
X26388189Y-62942295D02*
X26121523Y-63742295D01*
X28457142Y-43562295D02*
X28723809Y-43181342D01*
X28914285Y-43562295D02*
X28914285Y-42762295D01*
X28914285Y-42762295D02*
X28609523Y-42762295D01*
X28609523Y-42762295D02*
X28533333Y-42800390D01*
X28533333Y-42800390D02*
X28495238Y-42838485D01*
X28495238Y-42838485D02*
X28457142Y-42914676D01*
X28457142Y-42914676D02*
X28457142Y-43028961D01*
X28457142Y-43028961D02*
X28495238Y-43105152D01*
X28495238Y-43105152D02*
X28533333Y-43143247D01*
X28533333Y-43143247D02*
X28609523Y-43181342D01*
X28609523Y-43181342D02*
X28914285Y-43181342D01*
X28114285Y-43143247D02*
X27847619Y-43143247D01*
X27733333Y-43562295D02*
X28114285Y-43562295D01*
X28114285Y-43562295D02*
X28114285Y-42762295D01*
X28114285Y-42762295D02*
X27733333Y-42762295D01*
X27428571Y-43333723D02*
X27047618Y-43333723D01*
X27504761Y-43562295D02*
X27238094Y-42762295D01*
X27238094Y-42762295D02*
X26971428Y-43562295D01*
X26247618Y-43562295D02*
X26514285Y-43181342D01*
X26704761Y-43562295D02*
X26704761Y-42762295D01*
X26704761Y-42762295D02*
X26399999Y-42762295D01*
X26399999Y-42762295D02*
X26323809Y-42800390D01*
X26323809Y-42800390D02*
X26285714Y-42838485D01*
X26285714Y-42838485D02*
X26247618Y-42914676D01*
X26247618Y-42914676D02*
X26247618Y-43028961D01*
X26247618Y-43028961D02*
X26285714Y-43105152D01*
X26285714Y-43105152D02*
X26323809Y-43143247D01*
X26323809Y-43143247D02*
X26399999Y-43181342D01*
X26399999Y-43181342D02*
X26704761Y-43181342D01*
X30623809Y-53524200D02*
X30509523Y-53562295D01*
X30509523Y-53562295D02*
X30319047Y-53562295D01*
X30319047Y-53562295D02*
X30242856Y-53524200D01*
X30242856Y-53524200D02*
X30204761Y-53486104D01*
X30204761Y-53486104D02*
X30166666Y-53409914D01*
X30166666Y-53409914D02*
X30166666Y-53333723D01*
X30166666Y-53333723D02*
X30204761Y-53257533D01*
X30204761Y-53257533D02*
X30242856Y-53219438D01*
X30242856Y-53219438D02*
X30319047Y-53181342D01*
X30319047Y-53181342D02*
X30471428Y-53143247D01*
X30471428Y-53143247D02*
X30547618Y-53105152D01*
X30547618Y-53105152D02*
X30585713Y-53067057D01*
X30585713Y-53067057D02*
X30623809Y-52990866D01*
X30623809Y-52990866D02*
X30623809Y-52914676D01*
X30623809Y-52914676D02*
X30585713Y-52838485D01*
X30585713Y-52838485D02*
X30547618Y-52800390D01*
X30547618Y-52800390D02*
X30471428Y-52762295D01*
X30471428Y-52762295D02*
X30280951Y-52762295D01*
X30280951Y-52762295D02*
X30166666Y-52800390D01*
X29823808Y-53562295D02*
X29823808Y-52762295D01*
X29823808Y-52762295D02*
X29519046Y-52762295D01*
X29519046Y-52762295D02*
X29442856Y-52800390D01*
X29442856Y-52800390D02*
X29404761Y-52838485D01*
X29404761Y-52838485D02*
X29366665Y-52914676D01*
X29366665Y-52914676D02*
X29366665Y-53028961D01*
X29366665Y-53028961D02*
X29404761Y-53105152D01*
X29404761Y-53105152D02*
X29442856Y-53143247D01*
X29442856Y-53143247D02*
X29519046Y-53181342D01*
X29519046Y-53181342D02*
X29823808Y-53181342D01*
X29023808Y-53562295D02*
X29023808Y-52762295D01*
X28566665Y-53562295D02*
X28909523Y-53105152D01*
X28566665Y-52762295D02*
X29023808Y-53219438D01*
X28223808Y-53257533D02*
X27614285Y-53257533D01*
X27919046Y-53562295D02*
X27919046Y-52952771D01*
X31223809Y-47124200D02*
X31109523Y-47162295D01*
X31109523Y-47162295D02*
X30919047Y-47162295D01*
X30919047Y-47162295D02*
X30842856Y-47124200D01*
X30842856Y-47124200D02*
X30804761Y-47086104D01*
X30804761Y-47086104D02*
X30766666Y-47009914D01*
X30766666Y-47009914D02*
X30766666Y-46933723D01*
X30766666Y-46933723D02*
X30804761Y-46857533D01*
X30804761Y-46857533D02*
X30842856Y-46819438D01*
X30842856Y-46819438D02*
X30919047Y-46781342D01*
X30919047Y-46781342D02*
X31071428Y-46743247D01*
X31071428Y-46743247D02*
X31147618Y-46705152D01*
X31147618Y-46705152D02*
X31185713Y-46667057D01*
X31185713Y-46667057D02*
X31223809Y-46590866D01*
X31223809Y-46590866D02*
X31223809Y-46514676D01*
X31223809Y-46514676D02*
X31185713Y-46438485D01*
X31185713Y-46438485D02*
X31147618Y-46400390D01*
X31147618Y-46400390D02*
X31071428Y-46362295D01*
X31071428Y-46362295D02*
X30880951Y-46362295D01*
X30880951Y-46362295D02*
X30766666Y-46400390D01*
X30423808Y-47162295D02*
X30423808Y-46362295D01*
X30423808Y-46362295D02*
X30119046Y-46362295D01*
X30119046Y-46362295D02*
X30042856Y-46400390D01*
X30042856Y-46400390D02*
X30004761Y-46438485D01*
X30004761Y-46438485D02*
X29966665Y-46514676D01*
X29966665Y-46514676D02*
X29966665Y-46628961D01*
X29966665Y-46628961D02*
X30004761Y-46705152D01*
X30004761Y-46705152D02*
X30042856Y-46743247D01*
X30042856Y-46743247D02*
X30119046Y-46781342D01*
X30119046Y-46781342D02*
X30423808Y-46781342D01*
X29623808Y-47162295D02*
X29623808Y-46362295D01*
X29166665Y-47162295D02*
X29509523Y-46705152D01*
X29166665Y-46362295D02*
X29623808Y-46819438D01*
X28823808Y-46857533D02*
X28214285Y-46857533D01*
X63609523Y-48220390D02*
X63685713Y-48182295D01*
X63685713Y-48182295D02*
X63799999Y-48182295D01*
X63799999Y-48182295D02*
X63914285Y-48220390D01*
X63914285Y-48220390D02*
X63990475Y-48296580D01*
X63990475Y-48296580D02*
X64028570Y-48372771D01*
X64028570Y-48372771D02*
X64066666Y-48525152D01*
X64066666Y-48525152D02*
X64066666Y-48639438D01*
X64066666Y-48639438D02*
X64028570Y-48791819D01*
X64028570Y-48791819D02*
X63990475Y-48868009D01*
X63990475Y-48868009D02*
X63914285Y-48944200D01*
X63914285Y-48944200D02*
X63799999Y-48982295D01*
X63799999Y-48982295D02*
X63723808Y-48982295D01*
X63723808Y-48982295D02*
X63609523Y-48944200D01*
X63609523Y-48944200D02*
X63571427Y-48906104D01*
X63571427Y-48906104D02*
X63571427Y-48639438D01*
X63571427Y-48639438D02*
X63723808Y-48639438D01*
X63228570Y-48982295D02*
X63228570Y-48182295D01*
X63228570Y-48182295D02*
X62771427Y-48982295D01*
X62771427Y-48982295D02*
X62771427Y-48182295D01*
X62390475Y-48982295D02*
X62390475Y-48182295D01*
X62390475Y-48182295D02*
X62199999Y-48182295D01*
X62199999Y-48182295D02*
X62085713Y-48220390D01*
X62085713Y-48220390D02*
X62009523Y-48296580D01*
X62009523Y-48296580D02*
X61971428Y-48372771D01*
X61971428Y-48372771D02*
X61933332Y-48525152D01*
X61933332Y-48525152D02*
X61933332Y-48639438D01*
X61933332Y-48639438D02*
X61971428Y-48791819D01*
X61971428Y-48791819D02*
X62009523Y-48868009D01*
X62009523Y-48868009D02*
X62085713Y-48944200D01*
X62085713Y-48944200D02*
X62199999Y-48982295D01*
X62199999Y-48982295D02*
X62390475Y-48982295D01*
X67955953Y-62388485D02*
X67917857Y-62350390D01*
X67917857Y-62350390D02*
X67841667Y-62312295D01*
X67841667Y-62312295D02*
X67651191Y-62312295D01*
X67651191Y-62312295D02*
X67575000Y-62350390D01*
X67575000Y-62350390D02*
X67536905Y-62388485D01*
X67536905Y-62388485D02*
X67498810Y-62464676D01*
X67498810Y-62464676D02*
X67498810Y-62540866D01*
X67498810Y-62540866D02*
X67536905Y-62655152D01*
X67536905Y-62655152D02*
X67994048Y-63112295D01*
X67994048Y-63112295D02*
X67498810Y-63112295D01*
X67003571Y-62312295D02*
X66927381Y-62312295D01*
X66927381Y-62312295D02*
X66851190Y-62350390D01*
X66851190Y-62350390D02*
X66813095Y-62388485D01*
X66813095Y-62388485D02*
X66775000Y-62464676D01*
X66775000Y-62464676D02*
X66736905Y-62617057D01*
X66736905Y-62617057D02*
X66736905Y-62807533D01*
X66736905Y-62807533D02*
X66775000Y-62959914D01*
X66775000Y-62959914D02*
X66813095Y-63036104D01*
X66813095Y-63036104D02*
X66851190Y-63074200D01*
X66851190Y-63074200D02*
X66927381Y-63112295D01*
X66927381Y-63112295D02*
X67003571Y-63112295D01*
X67003571Y-63112295D02*
X67079762Y-63074200D01*
X67079762Y-63074200D02*
X67117857Y-63036104D01*
X67117857Y-63036104D02*
X67155952Y-62959914D01*
X67155952Y-62959914D02*
X67194048Y-62807533D01*
X67194048Y-62807533D02*
X67194048Y-62617057D01*
X67194048Y-62617057D02*
X67155952Y-62464676D01*
X67155952Y-62464676D02*
X67117857Y-62388485D01*
X67117857Y-62388485D02*
X67079762Y-62350390D01*
X67079762Y-62350390D02*
X67003571Y-62312295D01*
X66432143Y-62388485D02*
X66394047Y-62350390D01*
X66394047Y-62350390D02*
X66317857Y-62312295D01*
X66317857Y-62312295D02*
X66127381Y-62312295D01*
X66127381Y-62312295D02*
X66051190Y-62350390D01*
X66051190Y-62350390D02*
X66013095Y-62388485D01*
X66013095Y-62388485D02*
X65975000Y-62464676D01*
X65975000Y-62464676D02*
X65975000Y-62540866D01*
X65975000Y-62540866D02*
X66013095Y-62655152D01*
X66013095Y-62655152D02*
X66470238Y-63112295D01*
X66470238Y-63112295D02*
X65975000Y-63112295D01*
X65289285Y-62312295D02*
X65441666Y-62312295D01*
X65441666Y-62312295D02*
X65517857Y-62350390D01*
X65517857Y-62350390D02*
X65555952Y-62388485D01*
X65555952Y-62388485D02*
X65632142Y-62502771D01*
X65632142Y-62502771D02*
X65670238Y-62655152D01*
X65670238Y-62655152D02*
X65670238Y-62959914D01*
X65670238Y-62959914D02*
X65632142Y-63036104D01*
X65632142Y-63036104D02*
X65594047Y-63074200D01*
X65594047Y-63074200D02*
X65517857Y-63112295D01*
X65517857Y-63112295D02*
X65365476Y-63112295D01*
X65365476Y-63112295D02*
X65289285Y-63074200D01*
X65289285Y-63074200D02*
X65251190Y-63036104D01*
X65251190Y-63036104D02*
X65213095Y-62959914D01*
X65213095Y-62959914D02*
X65213095Y-62769438D01*
X65213095Y-62769438D02*
X65251190Y-62693247D01*
X65251190Y-62693247D02*
X65289285Y-62655152D01*
X65289285Y-62655152D02*
X65365476Y-62617057D01*
X65365476Y-62617057D02*
X65517857Y-62617057D01*
X65517857Y-62617057D02*
X65594047Y-62655152D01*
X65594047Y-62655152D02*
X65632142Y-62693247D01*
X65632142Y-62693247D02*
X65670238Y-62769438D01*
X64870237Y-62807533D02*
X64260714Y-62807533D01*
X63460714Y-63112295D02*
X63917857Y-63112295D01*
X63689285Y-63112295D02*
X63689285Y-62312295D01*
X63689285Y-62312295D02*
X63765476Y-62426580D01*
X63765476Y-62426580D02*
X63841666Y-62502771D01*
X63841666Y-62502771D02*
X63917857Y-62540866D01*
X62965475Y-62312295D02*
X62889285Y-62312295D01*
X62889285Y-62312295D02*
X62813094Y-62350390D01*
X62813094Y-62350390D02*
X62774999Y-62388485D01*
X62774999Y-62388485D02*
X62736904Y-62464676D01*
X62736904Y-62464676D02*
X62698809Y-62617057D01*
X62698809Y-62617057D02*
X62698809Y-62807533D01*
X62698809Y-62807533D02*
X62736904Y-62959914D01*
X62736904Y-62959914D02*
X62774999Y-63036104D01*
X62774999Y-63036104D02*
X62813094Y-63074200D01*
X62813094Y-63074200D02*
X62889285Y-63112295D01*
X62889285Y-63112295D02*
X62965475Y-63112295D01*
X62965475Y-63112295D02*
X63041666Y-63074200D01*
X63041666Y-63074200D02*
X63079761Y-63036104D01*
X63079761Y-63036104D02*
X63117856Y-62959914D01*
X63117856Y-62959914D02*
X63155952Y-62807533D01*
X63155952Y-62807533D02*
X63155952Y-62617057D01*
X63155952Y-62617057D02*
X63117856Y-62464676D01*
X63117856Y-62464676D02*
X63079761Y-62388485D01*
X63079761Y-62388485D02*
X63041666Y-62350390D01*
X63041666Y-62350390D02*
X62965475Y-62312295D01*
X71500476Y-39534270D02*
X71386190Y-39572365D01*
X71386190Y-39572365D02*
X71348095Y-39610461D01*
X71348095Y-39610461D02*
X71309999Y-39686651D01*
X71309999Y-39686651D02*
X71309999Y-39800937D01*
X71309999Y-39800937D02*
X71348095Y-39877127D01*
X71348095Y-39877127D02*
X71386190Y-39915223D01*
X71386190Y-39915223D02*
X71462380Y-39953318D01*
X71462380Y-39953318D02*
X71767142Y-39953318D01*
X71767142Y-39953318D02*
X71767142Y-39153318D01*
X71767142Y-39153318D02*
X71500476Y-39153318D01*
X71500476Y-39153318D02*
X71424285Y-39191413D01*
X71424285Y-39191413D02*
X71386190Y-39229508D01*
X71386190Y-39229508D02*
X71348095Y-39305699D01*
X71348095Y-39305699D02*
X71348095Y-39381889D01*
X71348095Y-39381889D02*
X71386190Y-39458080D01*
X71386190Y-39458080D02*
X71424285Y-39496175D01*
X71424285Y-39496175D02*
X71500476Y-39534270D01*
X71500476Y-39534270D02*
X71767142Y-39534270D01*
X71005238Y-39724746D02*
X70624285Y-39724746D01*
X71081428Y-39953318D02*
X70814761Y-39153318D01*
X70814761Y-39153318D02*
X70548095Y-39953318D01*
X70395714Y-39153318D02*
X69938571Y-39153318D01*
X70167143Y-39953318D02*
X70167143Y-39153318D01*
X71671904Y-41241273D02*
X72052856Y-41241273D01*
X72052856Y-41241273D02*
X72052856Y-40441273D01*
X71405237Y-41241273D02*
X71405237Y-40441273D01*
X71024285Y-41241273D02*
X71024285Y-40441273D01*
X71024285Y-40441273D02*
X70567142Y-41241273D01*
X70567142Y-41241273D02*
X70567142Y-40441273D01*
X70186190Y-41241273D02*
X70186190Y-40441273D01*
X69729047Y-41241273D02*
X70071905Y-40784130D01*
X69729047Y-40441273D02*
X70186190Y-40898416D01*
X74762856Y-52812295D02*
X74762856Y-52012295D01*
X73924761Y-52812295D02*
X74191428Y-52431342D01*
X74381904Y-52812295D02*
X74381904Y-52012295D01*
X74381904Y-52012295D02*
X74077142Y-52012295D01*
X74077142Y-52012295D02*
X74000952Y-52050390D01*
X74000952Y-52050390D02*
X73962857Y-52088485D01*
X73962857Y-52088485D02*
X73924761Y-52164676D01*
X73924761Y-52164676D02*
X73924761Y-52278961D01*
X73924761Y-52278961D02*
X73962857Y-52355152D01*
X73962857Y-52355152D02*
X74000952Y-52393247D01*
X74000952Y-52393247D02*
X74077142Y-52431342D01*
X74077142Y-52431342D02*
X74381904Y-52431342D01*
X73696190Y-52012295D02*
X73429523Y-52812295D01*
X73429523Y-52812295D02*
X73162857Y-52012295D01*
X74901142Y-62110295D02*
X74901142Y-61310295D01*
X74901142Y-61310295D02*
X74634476Y-61881723D01*
X74634476Y-61881723D02*
X74367809Y-61310295D01*
X74367809Y-61310295D02*
X74367809Y-62110295D01*
X73986856Y-62110295D02*
X73986856Y-61310295D01*
X73148761Y-62034104D02*
X73186857Y-62072200D01*
X73186857Y-62072200D02*
X73301142Y-62110295D01*
X73301142Y-62110295D02*
X73377333Y-62110295D01*
X73377333Y-62110295D02*
X73491619Y-62072200D01*
X73491619Y-62072200D02*
X73567809Y-61996009D01*
X73567809Y-61996009D02*
X73605904Y-61919819D01*
X73605904Y-61919819D02*
X73644000Y-61767438D01*
X73644000Y-61767438D02*
X73644000Y-61653152D01*
X73644000Y-61653152D02*
X73605904Y-61500771D01*
X73605904Y-61500771D02*
X73567809Y-61424580D01*
X73567809Y-61424580D02*
X73491619Y-61348390D01*
X73491619Y-61348390D02*
X73377333Y-61310295D01*
X73377333Y-61310295D02*
X73301142Y-61310295D01*
X73301142Y-61310295D02*
X73186857Y-61348390D01*
X73186857Y-61348390D02*
X73148761Y-61386485D01*
X43317704Y-41852380D02*
X43317704Y-42233332D01*
X43317704Y-42233332D02*
X44117704Y-42233332D01*
X43393895Y-41128570D02*
X43355800Y-41166666D01*
X43355800Y-41166666D02*
X43317704Y-41280951D01*
X43317704Y-41280951D02*
X43317704Y-41357142D01*
X43317704Y-41357142D02*
X43355800Y-41471428D01*
X43355800Y-41471428D02*
X43431990Y-41547618D01*
X43431990Y-41547618D02*
X43508180Y-41585713D01*
X43508180Y-41585713D02*
X43660561Y-41623809D01*
X43660561Y-41623809D02*
X43774847Y-41623809D01*
X43774847Y-41623809D02*
X43927228Y-41585713D01*
X43927228Y-41585713D02*
X44003419Y-41547618D01*
X44003419Y-41547618D02*
X44079609Y-41471428D01*
X44079609Y-41471428D02*
X44117704Y-41357142D01*
X44117704Y-41357142D02*
X44117704Y-41280951D01*
X44117704Y-41280951D02*
X44079609Y-41166666D01*
X44079609Y-41166666D02*
X44041514Y-41128570D01*
X43317704Y-40785713D02*
X44117704Y-40785713D01*
X44117704Y-40785713D02*
X44117704Y-40595237D01*
X44117704Y-40595237D02*
X44079609Y-40480951D01*
X44079609Y-40480951D02*
X44003419Y-40404761D01*
X44003419Y-40404761D02*
X43927228Y-40366666D01*
X43927228Y-40366666D02*
X43774847Y-40328570D01*
X43774847Y-40328570D02*
X43660561Y-40328570D01*
X43660561Y-40328570D02*
X43508180Y-40366666D01*
X43508180Y-40366666D02*
X43431990Y-40404761D01*
X43431990Y-40404761D02*
X43355800Y-40480951D01*
X43355800Y-40480951D02*
X43317704Y-40595237D01*
X43317704Y-40595237D02*
X43317704Y-40785713D01*
X54054149Y-35021363D02*
X53254149Y-34754696D01*
X53254149Y-34754696D02*
X54054149Y-34488030D01*
X53673197Y-33954697D02*
X53635102Y-33840411D01*
X53635102Y-33840411D02*
X53597006Y-33802316D01*
X53597006Y-33802316D02*
X53520816Y-33764220D01*
X53520816Y-33764220D02*
X53406530Y-33764220D01*
X53406530Y-33764220D02*
X53330340Y-33802316D01*
X53330340Y-33802316D02*
X53292245Y-33840411D01*
X53292245Y-33840411D02*
X53254149Y-33916601D01*
X53254149Y-33916601D02*
X53254149Y-34221363D01*
X53254149Y-34221363D02*
X54054149Y-34221363D01*
X54054149Y-34221363D02*
X54054149Y-33954697D01*
X54054149Y-33954697D02*
X54016054Y-33878506D01*
X54016054Y-33878506D02*
X53977959Y-33840411D01*
X53977959Y-33840411D02*
X53901768Y-33802316D01*
X53901768Y-33802316D02*
X53825578Y-33802316D01*
X53825578Y-33802316D02*
X53749387Y-33840411D01*
X53749387Y-33840411D02*
X53711292Y-33878506D01*
X53711292Y-33878506D02*
X53673197Y-33954697D01*
X53673197Y-33954697D02*
X53673197Y-34221363D01*
X54054149Y-33421363D02*
X53406530Y-33421363D01*
X53406530Y-33421363D02*
X53330340Y-33383268D01*
X53330340Y-33383268D02*
X53292245Y-33345173D01*
X53292245Y-33345173D02*
X53254149Y-33268982D01*
X53254149Y-33268982D02*
X53254149Y-33116601D01*
X53254149Y-33116601D02*
X53292245Y-33040411D01*
X53292245Y-33040411D02*
X53330340Y-33002316D01*
X53330340Y-33002316D02*
X53406530Y-32964220D01*
X53406530Y-32964220D02*
X54054149Y-32964220D01*
X53292245Y-32621364D02*
X53254149Y-32507078D01*
X53254149Y-32507078D02*
X53254149Y-32316602D01*
X53254149Y-32316602D02*
X53292245Y-32240411D01*
X53292245Y-32240411D02*
X53330340Y-32202316D01*
X53330340Y-32202316D02*
X53406530Y-32164221D01*
X53406530Y-32164221D02*
X53482721Y-32164221D01*
X53482721Y-32164221D02*
X53558911Y-32202316D01*
X53558911Y-32202316D02*
X53597006Y-32240411D01*
X53597006Y-32240411D02*
X53635102Y-32316602D01*
X53635102Y-32316602D02*
X53673197Y-32468983D01*
X53673197Y-32468983D02*
X53711292Y-32545173D01*
X53711292Y-32545173D02*
X53749387Y-32583268D01*
X53749387Y-32583268D02*
X53825578Y-32621364D01*
X53825578Y-32621364D02*
X53901768Y-32621364D01*
X53901768Y-32621364D02*
X53977959Y-32583268D01*
X53977959Y-32583268D02*
X54016054Y-32545173D01*
X54016054Y-32545173D02*
X54054149Y-32468983D01*
X54054149Y-32468983D02*
X54054149Y-32278506D01*
X54054149Y-32278506D02*
X54016054Y-32164221D01*
X54629609Y-44509523D02*
X54667704Y-44585713D01*
X54667704Y-44585713D02*
X54667704Y-44699999D01*
X54667704Y-44699999D02*
X54629609Y-44814285D01*
X54629609Y-44814285D02*
X54553419Y-44890475D01*
X54553419Y-44890475D02*
X54477228Y-44928570D01*
X54477228Y-44928570D02*
X54324847Y-44966666D01*
X54324847Y-44966666D02*
X54210561Y-44966666D01*
X54210561Y-44966666D02*
X54058180Y-44928570D01*
X54058180Y-44928570D02*
X53981990Y-44890475D01*
X53981990Y-44890475D02*
X53905800Y-44814285D01*
X53905800Y-44814285D02*
X53867704Y-44699999D01*
X53867704Y-44699999D02*
X53867704Y-44623808D01*
X53867704Y-44623808D02*
X53905800Y-44509523D01*
X53905800Y-44509523D02*
X53943895Y-44471427D01*
X53943895Y-44471427D02*
X54210561Y-44471427D01*
X54210561Y-44471427D02*
X54210561Y-44623808D01*
X53867704Y-44128570D02*
X54667704Y-44128570D01*
X54667704Y-44128570D02*
X53867704Y-43671427D01*
X53867704Y-43671427D02*
X54667704Y-43671427D01*
X53867704Y-43290475D02*
X54667704Y-43290475D01*
X54667704Y-43290475D02*
X54667704Y-43099999D01*
X54667704Y-43099999D02*
X54629609Y-42985713D01*
X54629609Y-42985713D02*
X54553419Y-42909523D01*
X54553419Y-42909523D02*
X54477228Y-42871428D01*
X54477228Y-42871428D02*
X54324847Y-42833332D01*
X54324847Y-42833332D02*
X54210561Y-42833332D01*
X54210561Y-42833332D02*
X54058180Y-42871428D01*
X54058180Y-42871428D02*
X53981990Y-42909523D01*
X53981990Y-42909523D02*
X53905800Y-42985713D01*
X53905800Y-42985713D02*
X53867704Y-43099999D01*
X53867704Y-43099999D02*
X53867704Y-43290475D01*
X54455800Y-47652381D02*
X54417704Y-47538095D01*
X54417704Y-47538095D02*
X54417704Y-47347619D01*
X54417704Y-47347619D02*
X54455800Y-47271428D01*
X54455800Y-47271428D02*
X54493895Y-47233333D01*
X54493895Y-47233333D02*
X54570085Y-47195238D01*
X54570085Y-47195238D02*
X54646276Y-47195238D01*
X54646276Y-47195238D02*
X54722466Y-47233333D01*
X54722466Y-47233333D02*
X54760561Y-47271428D01*
X54760561Y-47271428D02*
X54798657Y-47347619D01*
X54798657Y-47347619D02*
X54836752Y-47500000D01*
X54836752Y-47500000D02*
X54874847Y-47576190D01*
X54874847Y-47576190D02*
X54912942Y-47614285D01*
X54912942Y-47614285D02*
X54989133Y-47652381D01*
X54989133Y-47652381D02*
X55065323Y-47652381D01*
X55065323Y-47652381D02*
X55141514Y-47614285D01*
X55141514Y-47614285D02*
X55179609Y-47576190D01*
X55179609Y-47576190D02*
X55217704Y-47500000D01*
X55217704Y-47500000D02*
X55217704Y-47309523D01*
X55217704Y-47309523D02*
X55179609Y-47195238D01*
X54493895Y-46395237D02*
X54455800Y-46433333D01*
X54455800Y-46433333D02*
X54417704Y-46547618D01*
X54417704Y-46547618D02*
X54417704Y-46623809D01*
X54417704Y-46623809D02*
X54455800Y-46738095D01*
X54455800Y-46738095D02*
X54531990Y-46814285D01*
X54531990Y-46814285D02*
X54608180Y-46852380D01*
X54608180Y-46852380D02*
X54760561Y-46890476D01*
X54760561Y-46890476D02*
X54874847Y-46890476D01*
X54874847Y-46890476D02*
X55027228Y-46852380D01*
X55027228Y-46852380D02*
X55103419Y-46814285D01*
X55103419Y-46814285D02*
X55179609Y-46738095D01*
X55179609Y-46738095D02*
X55217704Y-46623809D01*
X55217704Y-46623809D02*
X55217704Y-46547618D01*
X55217704Y-46547618D02*
X55179609Y-46433333D01*
X55179609Y-46433333D02*
X55141514Y-46395237D01*
X54417704Y-45671428D02*
X54417704Y-46052380D01*
X54417704Y-46052380D02*
X55217704Y-46052380D01*
X56895800Y-51471428D02*
X56857704Y-51357142D01*
X56857704Y-51357142D02*
X56857704Y-51166666D01*
X56857704Y-51166666D02*
X56895800Y-51090475D01*
X56895800Y-51090475D02*
X56933895Y-51052380D01*
X56933895Y-51052380D02*
X57010085Y-51014285D01*
X57010085Y-51014285D02*
X57086276Y-51014285D01*
X57086276Y-51014285D02*
X57162466Y-51052380D01*
X57162466Y-51052380D02*
X57200561Y-51090475D01*
X57200561Y-51090475D02*
X57238657Y-51166666D01*
X57238657Y-51166666D02*
X57276752Y-51319047D01*
X57276752Y-51319047D02*
X57314847Y-51395237D01*
X57314847Y-51395237D02*
X57352942Y-51433332D01*
X57352942Y-51433332D02*
X57429133Y-51471428D01*
X57429133Y-51471428D02*
X57505323Y-51471428D01*
X57505323Y-51471428D02*
X57581514Y-51433332D01*
X57581514Y-51433332D02*
X57619609Y-51395237D01*
X57619609Y-51395237D02*
X57657704Y-51319047D01*
X57657704Y-51319047D02*
X57657704Y-51128570D01*
X57657704Y-51128570D02*
X57619609Y-51014285D01*
X56857704Y-50671427D02*
X57657704Y-50671427D01*
X57657704Y-50671427D02*
X57657704Y-50480951D01*
X57657704Y-50480951D02*
X57619609Y-50366665D01*
X57619609Y-50366665D02*
X57543419Y-50290475D01*
X57543419Y-50290475D02*
X57467228Y-50252380D01*
X57467228Y-50252380D02*
X57314847Y-50214284D01*
X57314847Y-50214284D02*
X57200561Y-50214284D01*
X57200561Y-50214284D02*
X57048180Y-50252380D01*
X57048180Y-50252380D02*
X56971990Y-50290475D01*
X56971990Y-50290475D02*
X56895800Y-50366665D01*
X56895800Y-50366665D02*
X56857704Y-50480951D01*
X56857704Y-50480951D02*
X56857704Y-50671427D01*
X57086276Y-49909523D02*
X57086276Y-49528570D01*
X56857704Y-49985713D02*
X57657704Y-49719046D01*
X57657704Y-49719046D02*
X56857704Y-49452380D01*
X60557704Y-45290476D02*
X60557704Y-44795238D01*
X60557704Y-44795238D02*
X60252942Y-45061904D01*
X60252942Y-45061904D02*
X60252942Y-44947619D01*
X60252942Y-44947619D02*
X60214847Y-44871428D01*
X60214847Y-44871428D02*
X60176752Y-44833333D01*
X60176752Y-44833333D02*
X60100561Y-44795238D01*
X60100561Y-44795238D02*
X59910085Y-44795238D01*
X59910085Y-44795238D02*
X59833895Y-44833333D01*
X59833895Y-44833333D02*
X59795800Y-44871428D01*
X59795800Y-44871428D02*
X59757704Y-44947619D01*
X59757704Y-44947619D02*
X59757704Y-45176190D01*
X59757704Y-45176190D02*
X59795800Y-45252381D01*
X59795800Y-45252381D02*
X59833895Y-45290476D01*
X60557704Y-44566666D02*
X59757704Y-44299999D01*
X59757704Y-44299999D02*
X60557704Y-44033333D01*
X60557704Y-43842857D02*
X60557704Y-43347619D01*
X60557704Y-43347619D02*
X60252942Y-43614285D01*
X60252942Y-43614285D02*
X60252942Y-43500000D01*
X60252942Y-43500000D02*
X60214847Y-43423809D01*
X60214847Y-43423809D02*
X60176752Y-43385714D01*
X60176752Y-43385714D02*
X60100561Y-43347619D01*
X60100561Y-43347619D02*
X59910085Y-43347619D01*
X59910085Y-43347619D02*
X59833895Y-43385714D01*
X59833895Y-43385714D02*
X59795800Y-43423809D01*
X59795800Y-43423809D02*
X59757704Y-43500000D01*
X59757704Y-43500000D02*
X59757704Y-43728571D01*
X59757704Y-43728571D02*
X59795800Y-43804762D01*
X59795800Y-43804762D02*
X59833895Y-43842857D01*
X60757704Y-51352381D02*
X59957704Y-50819047D01*
X60757704Y-50819047D02*
X59957704Y-51352381D01*
X59957704Y-50057142D02*
X60338657Y-50323809D01*
X59957704Y-50514285D02*
X60757704Y-50514285D01*
X60757704Y-50514285D02*
X60757704Y-50209523D01*
X60757704Y-50209523D02*
X60719609Y-50133333D01*
X60719609Y-50133333D02*
X60681514Y-50095238D01*
X60681514Y-50095238D02*
X60605323Y-50057142D01*
X60605323Y-50057142D02*
X60491038Y-50057142D01*
X60491038Y-50057142D02*
X60414847Y-50095238D01*
X60414847Y-50095238D02*
X60376752Y-50133333D01*
X60376752Y-50133333D02*
X60338657Y-50209523D01*
X60338657Y-50209523D02*
X60338657Y-50514285D01*
X59995800Y-49752381D02*
X59957704Y-49638095D01*
X59957704Y-49638095D02*
X59957704Y-49447619D01*
X59957704Y-49447619D02*
X59995800Y-49371428D01*
X59995800Y-49371428D02*
X60033895Y-49333333D01*
X60033895Y-49333333D02*
X60110085Y-49295238D01*
X60110085Y-49295238D02*
X60186276Y-49295238D01*
X60186276Y-49295238D02*
X60262466Y-49333333D01*
X60262466Y-49333333D02*
X60300561Y-49371428D01*
X60300561Y-49371428D02*
X60338657Y-49447619D01*
X60338657Y-49447619D02*
X60376752Y-49600000D01*
X60376752Y-49600000D02*
X60414847Y-49676190D01*
X60414847Y-49676190D02*
X60452942Y-49714285D01*
X60452942Y-49714285D02*
X60529133Y-49752381D01*
X60529133Y-49752381D02*
X60605323Y-49752381D01*
X60605323Y-49752381D02*
X60681514Y-49714285D01*
X60681514Y-49714285D02*
X60719609Y-49676190D01*
X60719609Y-49676190D02*
X60757704Y-49600000D01*
X60757704Y-49600000D02*
X60757704Y-49409523D01*
X60757704Y-49409523D02*
X60719609Y-49295238D01*
X60757704Y-49066666D02*
X60757704Y-48609523D01*
X59957704Y-48838095D02*
X60757704Y-48838095D01*
X62275800Y-69885714D02*
X62237704Y-69771428D01*
X62237704Y-69771428D02*
X62237704Y-69580952D01*
X62237704Y-69580952D02*
X62275800Y-69504761D01*
X62275800Y-69504761D02*
X62313895Y-69466666D01*
X62313895Y-69466666D02*
X62390085Y-69428571D01*
X62390085Y-69428571D02*
X62466276Y-69428571D01*
X62466276Y-69428571D02*
X62542466Y-69466666D01*
X62542466Y-69466666D02*
X62580561Y-69504761D01*
X62580561Y-69504761D02*
X62618657Y-69580952D01*
X62618657Y-69580952D02*
X62656752Y-69733333D01*
X62656752Y-69733333D02*
X62694847Y-69809523D01*
X62694847Y-69809523D02*
X62732942Y-69847618D01*
X62732942Y-69847618D02*
X62809133Y-69885714D01*
X62809133Y-69885714D02*
X62885323Y-69885714D01*
X62885323Y-69885714D02*
X62961514Y-69847618D01*
X62961514Y-69847618D02*
X62999609Y-69809523D01*
X62999609Y-69809523D02*
X63037704Y-69733333D01*
X63037704Y-69733333D02*
X63037704Y-69542856D01*
X63037704Y-69542856D02*
X62999609Y-69428571D01*
X62656752Y-69085713D02*
X62656752Y-68819047D01*
X62237704Y-68704761D02*
X62237704Y-69085713D01*
X62237704Y-69085713D02*
X63037704Y-69085713D01*
X63037704Y-69085713D02*
X63037704Y-68704761D01*
X62237704Y-67904760D02*
X62618657Y-68171427D01*
X62237704Y-68361903D02*
X63037704Y-68361903D01*
X63037704Y-68361903D02*
X63037704Y-68057141D01*
X63037704Y-68057141D02*
X62999609Y-67980951D01*
X62999609Y-67980951D02*
X62961514Y-67942856D01*
X62961514Y-67942856D02*
X62885323Y-67904760D01*
X62885323Y-67904760D02*
X62771038Y-67904760D01*
X62771038Y-67904760D02*
X62694847Y-67942856D01*
X62694847Y-67942856D02*
X62656752Y-67980951D01*
X62656752Y-67980951D02*
X62618657Y-68057141D01*
X62618657Y-68057141D02*
X62618657Y-68361903D01*
X63037704Y-67676189D02*
X62237704Y-67409522D01*
X62237704Y-67409522D02*
X63037704Y-67142856D01*
X62237704Y-66876189D02*
X63037704Y-66876189D01*
X62313895Y-66038094D02*
X62275800Y-66076190D01*
X62275800Y-66076190D02*
X62237704Y-66190475D01*
X62237704Y-66190475D02*
X62237704Y-66266666D01*
X62237704Y-66266666D02*
X62275800Y-66380952D01*
X62275800Y-66380952D02*
X62351990Y-66457142D01*
X62351990Y-66457142D02*
X62428180Y-66495237D01*
X62428180Y-66495237D02*
X62580561Y-66533333D01*
X62580561Y-66533333D02*
X62694847Y-66533333D01*
X62694847Y-66533333D02*
X62847228Y-66495237D01*
X62847228Y-66495237D02*
X62923419Y-66457142D01*
X62923419Y-66457142D02*
X62999609Y-66380952D01*
X62999609Y-66380952D02*
X63037704Y-66266666D01*
X63037704Y-66266666D02*
X63037704Y-66190475D01*
X63037704Y-66190475D02*
X62999609Y-66076190D01*
X62999609Y-66076190D02*
X62961514Y-66038094D01*
X62656752Y-65695237D02*
X62656752Y-65428571D01*
X62237704Y-65314285D02*
X62237704Y-65695237D01*
X62237704Y-65695237D02*
X63037704Y-65695237D01*
X63037704Y-65695237D02*
X63037704Y-65314285D01*
X62876752Y-52185714D02*
X62838657Y-52071428D01*
X62838657Y-52071428D02*
X62800561Y-52033333D01*
X62800561Y-52033333D02*
X62724371Y-51995237D01*
X62724371Y-51995237D02*
X62610085Y-51995237D01*
X62610085Y-51995237D02*
X62533895Y-52033333D01*
X62533895Y-52033333D02*
X62495800Y-52071428D01*
X62495800Y-52071428D02*
X62457704Y-52147618D01*
X62457704Y-52147618D02*
X62457704Y-52452380D01*
X62457704Y-52452380D02*
X63257704Y-52452380D01*
X63257704Y-52452380D02*
X63257704Y-52185714D01*
X63257704Y-52185714D02*
X63219609Y-52109523D01*
X63219609Y-52109523D02*
X63181514Y-52071428D01*
X63181514Y-52071428D02*
X63105323Y-52033333D01*
X63105323Y-52033333D02*
X63029133Y-52033333D01*
X63029133Y-52033333D02*
X62952942Y-52071428D01*
X62952942Y-52071428D02*
X62914847Y-52109523D01*
X62914847Y-52109523D02*
X62876752Y-52185714D01*
X62876752Y-52185714D02*
X62876752Y-52452380D01*
X63257704Y-51499999D02*
X63257704Y-51347618D01*
X63257704Y-51347618D02*
X63219609Y-51271428D01*
X63219609Y-51271428D02*
X63143419Y-51195237D01*
X63143419Y-51195237D02*
X62991038Y-51157142D01*
X62991038Y-51157142D02*
X62724371Y-51157142D01*
X62724371Y-51157142D02*
X62571990Y-51195237D01*
X62571990Y-51195237D02*
X62495800Y-51271428D01*
X62495800Y-51271428D02*
X62457704Y-51347618D01*
X62457704Y-51347618D02*
X62457704Y-51499999D01*
X62457704Y-51499999D02*
X62495800Y-51576190D01*
X62495800Y-51576190D02*
X62571990Y-51652380D01*
X62571990Y-51652380D02*
X62724371Y-51690476D01*
X62724371Y-51690476D02*
X62991038Y-51690476D01*
X62991038Y-51690476D02*
X63143419Y-51652380D01*
X63143419Y-51652380D02*
X63219609Y-51576190D01*
X63219609Y-51576190D02*
X63257704Y-51499999D01*
X63257704Y-50661904D02*
X63257704Y-50509523D01*
X63257704Y-50509523D02*
X63219609Y-50433333D01*
X63219609Y-50433333D02*
X63143419Y-50357142D01*
X63143419Y-50357142D02*
X62991038Y-50319047D01*
X62991038Y-50319047D02*
X62724371Y-50319047D01*
X62724371Y-50319047D02*
X62571990Y-50357142D01*
X62571990Y-50357142D02*
X62495800Y-50433333D01*
X62495800Y-50433333D02*
X62457704Y-50509523D01*
X62457704Y-50509523D02*
X62457704Y-50661904D01*
X62457704Y-50661904D02*
X62495800Y-50738095D01*
X62495800Y-50738095D02*
X62571990Y-50814285D01*
X62571990Y-50814285D02*
X62724371Y-50852381D01*
X62724371Y-50852381D02*
X62991038Y-50852381D01*
X62991038Y-50852381D02*
X63143419Y-50814285D01*
X63143419Y-50814285D02*
X63219609Y-50738095D01*
X63219609Y-50738095D02*
X63257704Y-50661904D01*
X63257704Y-50090476D02*
X63257704Y-49633333D01*
X62457704Y-49861905D02*
X63257704Y-49861905D01*
X62595800Y-45252381D02*
X62557704Y-45138095D01*
X62557704Y-45138095D02*
X62557704Y-44947619D01*
X62557704Y-44947619D02*
X62595800Y-44871428D01*
X62595800Y-44871428D02*
X62633895Y-44833333D01*
X62633895Y-44833333D02*
X62710085Y-44795238D01*
X62710085Y-44795238D02*
X62786276Y-44795238D01*
X62786276Y-44795238D02*
X62862466Y-44833333D01*
X62862466Y-44833333D02*
X62900561Y-44871428D01*
X62900561Y-44871428D02*
X62938657Y-44947619D01*
X62938657Y-44947619D02*
X62976752Y-45100000D01*
X62976752Y-45100000D02*
X63014847Y-45176190D01*
X63014847Y-45176190D02*
X63052942Y-45214285D01*
X63052942Y-45214285D02*
X63129133Y-45252381D01*
X63129133Y-45252381D02*
X63205323Y-45252381D01*
X63205323Y-45252381D02*
X63281514Y-45214285D01*
X63281514Y-45214285D02*
X63319609Y-45176190D01*
X63319609Y-45176190D02*
X63357704Y-45100000D01*
X63357704Y-45100000D02*
X63357704Y-44909523D01*
X63357704Y-44909523D02*
X63319609Y-44795238D01*
X62938657Y-44299999D02*
X62557704Y-44299999D01*
X63357704Y-44566666D02*
X62938657Y-44299999D01*
X62938657Y-44299999D02*
X63357704Y-44033333D01*
X62595800Y-43804762D02*
X62557704Y-43690476D01*
X62557704Y-43690476D02*
X62557704Y-43500000D01*
X62557704Y-43500000D02*
X62595800Y-43423809D01*
X62595800Y-43423809D02*
X62633895Y-43385714D01*
X62633895Y-43385714D02*
X62710085Y-43347619D01*
X62710085Y-43347619D02*
X62786276Y-43347619D01*
X62786276Y-43347619D02*
X62862466Y-43385714D01*
X62862466Y-43385714D02*
X62900561Y-43423809D01*
X62900561Y-43423809D02*
X62938657Y-43500000D01*
X62938657Y-43500000D02*
X62976752Y-43652381D01*
X62976752Y-43652381D02*
X63014847Y-43728571D01*
X63014847Y-43728571D02*
X63052942Y-43766666D01*
X63052942Y-43766666D02*
X63129133Y-43804762D01*
X63129133Y-43804762D02*
X63205323Y-43804762D01*
X63205323Y-43804762D02*
X63281514Y-43766666D01*
X63281514Y-43766666D02*
X63319609Y-43728571D01*
X63319609Y-43728571D02*
X63357704Y-43652381D01*
X63357704Y-43652381D02*
X63357704Y-43461904D01*
X63357704Y-43461904D02*
X63319609Y-43347619D01*
X65257704Y-51138094D02*
X65638657Y-51404761D01*
X65257704Y-51595237D02*
X66057704Y-51595237D01*
X66057704Y-51595237D02*
X66057704Y-51290475D01*
X66057704Y-51290475D02*
X66019609Y-51214285D01*
X66019609Y-51214285D02*
X65981514Y-51176190D01*
X65981514Y-51176190D02*
X65905323Y-51138094D01*
X65905323Y-51138094D02*
X65791038Y-51138094D01*
X65791038Y-51138094D02*
X65714847Y-51176190D01*
X65714847Y-51176190D02*
X65676752Y-51214285D01*
X65676752Y-51214285D02*
X65638657Y-51290475D01*
X65638657Y-51290475D02*
X65638657Y-51595237D01*
X65295800Y-50833333D02*
X65257704Y-50719047D01*
X65257704Y-50719047D02*
X65257704Y-50528571D01*
X65257704Y-50528571D02*
X65295800Y-50452380D01*
X65295800Y-50452380D02*
X65333895Y-50414285D01*
X65333895Y-50414285D02*
X65410085Y-50376190D01*
X65410085Y-50376190D02*
X65486276Y-50376190D01*
X65486276Y-50376190D02*
X65562466Y-50414285D01*
X65562466Y-50414285D02*
X65600561Y-50452380D01*
X65600561Y-50452380D02*
X65638657Y-50528571D01*
X65638657Y-50528571D02*
X65676752Y-50680952D01*
X65676752Y-50680952D02*
X65714847Y-50757142D01*
X65714847Y-50757142D02*
X65752942Y-50795237D01*
X65752942Y-50795237D02*
X65829133Y-50833333D01*
X65829133Y-50833333D02*
X65905323Y-50833333D01*
X65905323Y-50833333D02*
X65981514Y-50795237D01*
X65981514Y-50795237D02*
X66019609Y-50757142D01*
X66019609Y-50757142D02*
X66057704Y-50680952D01*
X66057704Y-50680952D02*
X66057704Y-50490475D01*
X66057704Y-50490475D02*
X66019609Y-50376190D01*
X66057704Y-50147618D02*
X66057704Y-49690475D01*
X65257704Y-49919047D02*
X66057704Y-49919047D01*
X65776752Y-44890476D02*
X65738657Y-44776190D01*
X65738657Y-44776190D02*
X65700561Y-44738095D01*
X65700561Y-44738095D02*
X65624371Y-44699999D01*
X65624371Y-44699999D02*
X65510085Y-44699999D01*
X65510085Y-44699999D02*
X65433895Y-44738095D01*
X65433895Y-44738095D02*
X65395800Y-44776190D01*
X65395800Y-44776190D02*
X65357704Y-44852380D01*
X65357704Y-44852380D02*
X65357704Y-45157142D01*
X65357704Y-45157142D02*
X66157704Y-45157142D01*
X66157704Y-45157142D02*
X66157704Y-44890476D01*
X66157704Y-44890476D02*
X66119609Y-44814285D01*
X66119609Y-44814285D02*
X66081514Y-44776190D01*
X66081514Y-44776190D02*
X66005323Y-44738095D01*
X66005323Y-44738095D02*
X65929133Y-44738095D01*
X65929133Y-44738095D02*
X65852942Y-44776190D01*
X65852942Y-44776190D02*
X65814847Y-44814285D01*
X65814847Y-44814285D02*
X65776752Y-44890476D01*
X65776752Y-44890476D02*
X65776752Y-45157142D01*
X65586276Y-44395238D02*
X65586276Y-44014285D01*
X65357704Y-44471428D02*
X66157704Y-44204761D01*
X66157704Y-44204761D02*
X65357704Y-43938095D01*
X66157704Y-43785714D02*
X66157704Y-43328571D01*
X65357704Y-43557143D02*
X66157704Y-43557143D01*
D12*
X67950951Y-61761775D02*
X67950951Y-60961775D01*
X67950951Y-60961775D02*
X67684285Y-61533203D01*
X67684285Y-61533203D02*
X67417618Y-60961775D01*
X67417618Y-60961775D02*
X67417618Y-61761775D01*
X67074761Y-61533203D02*
X66693808Y-61533203D01*
X67150951Y-61761775D02*
X66884284Y-60961775D01*
X66884284Y-60961775D02*
X66617618Y-61761775D01*
X66198570Y-60961775D02*
X66046189Y-60961775D01*
X66046189Y-60961775D02*
X65969999Y-60999870D01*
X65969999Y-60999870D02*
X65893808Y-61076060D01*
X65893808Y-61076060D02*
X65855713Y-61228441D01*
X65855713Y-61228441D02*
X65855713Y-61495108D01*
X65855713Y-61495108D02*
X65893808Y-61647489D01*
X65893808Y-61647489D02*
X65969999Y-61723680D01*
X65969999Y-61723680D02*
X66046189Y-61761775D01*
X66046189Y-61761775D02*
X66198570Y-61761775D01*
X66198570Y-61761775D02*
X66274761Y-61723680D01*
X66274761Y-61723680D02*
X66350951Y-61647489D01*
X66350951Y-61647489D02*
X66389047Y-61495108D01*
X66389047Y-61495108D02*
X66389047Y-61228441D01*
X66389047Y-61228441D02*
X66350951Y-61076060D01*
X66350951Y-61076060D02*
X66274761Y-60999870D01*
X66274761Y-60999870D02*
X66198570Y-60961775D01*
X64903332Y-61761775D02*
X64903332Y-60961775D01*
X64903332Y-60961775D02*
X64636666Y-61533203D01*
X64636666Y-61533203D02*
X64369999Y-60961775D01*
X64369999Y-60961775D02*
X64369999Y-61761775D01*
X64027142Y-61533203D02*
X63646189Y-61533203D01*
X64103332Y-61761775D02*
X63836665Y-60961775D01*
X63836665Y-60961775D02*
X63569999Y-61761775D01*
X63303332Y-61761775D02*
X63303332Y-60961775D01*
X62922380Y-61761775D02*
X62922380Y-60961775D01*
X62922380Y-60961775D02*
X62465237Y-61761775D01*
X62465237Y-61761775D02*
X62465237Y-60961775D01*
X61512857Y-61533203D02*
X61131904Y-61533203D01*
X61589047Y-61761775D02*
X61322380Y-60961775D01*
X61322380Y-60961775D02*
X61055714Y-61761775D01*
X60636666Y-60961775D02*
X60560476Y-60961775D01*
X60560476Y-60961775D02*
X60484285Y-60999870D01*
X60484285Y-60999870D02*
X60446190Y-61037965D01*
X60446190Y-61037965D02*
X60408095Y-61114156D01*
X60408095Y-61114156D02*
X60370000Y-61266537D01*
X60370000Y-61266537D02*
X60370000Y-61457013D01*
X60370000Y-61457013D02*
X60408095Y-61609394D01*
X60408095Y-61609394D02*
X60446190Y-61685584D01*
X60446190Y-61685584D02*
X60484285Y-61723680D01*
X60484285Y-61723680D02*
X60560476Y-61761775D01*
X60560476Y-61761775D02*
X60636666Y-61761775D01*
X60636666Y-61761775D02*
X60712857Y-61723680D01*
X60712857Y-61723680D02*
X60750952Y-61685584D01*
X60750952Y-61685584D02*
X60789047Y-61609394D01*
X60789047Y-61609394D02*
X60827143Y-61457013D01*
X60827143Y-61457013D02*
X60827143Y-61266537D01*
X60827143Y-61266537D02*
X60789047Y-61114156D01*
X60789047Y-61114156D02*
X60750952Y-61037965D01*
X60750952Y-61037965D02*
X60712857Y-60999870D01*
X60712857Y-60999870D02*
X60636666Y-60961775D01*
X70974285Y-50435238D02*
X70364762Y-50435238D01*
X69488571Y-49940000D02*
X69031428Y-49940000D01*
X69260000Y-50740000D02*
X69260000Y-49940000D01*
X68155237Y-50435238D02*
X67545714Y-50435238D01*
X67850475Y-50740000D02*
X67850475Y-50130476D01*
X69850476Y-51608907D02*
X69736190Y-51647002D01*
X69736190Y-51647002D02*
X69698095Y-51685098D01*
X69698095Y-51685098D02*
X69659999Y-51761288D01*
X69659999Y-51761288D02*
X69659999Y-51875574D01*
X69659999Y-51875574D02*
X69698095Y-51951764D01*
X69698095Y-51951764D02*
X69736190Y-51989860D01*
X69736190Y-51989860D02*
X69812380Y-52027955D01*
X69812380Y-52027955D02*
X70117142Y-52027955D01*
X70117142Y-52027955D02*
X70117142Y-51227955D01*
X70117142Y-51227955D02*
X69850476Y-51227955D01*
X69850476Y-51227955D02*
X69774285Y-51266050D01*
X69774285Y-51266050D02*
X69736190Y-51304145D01*
X69736190Y-51304145D02*
X69698095Y-51380336D01*
X69698095Y-51380336D02*
X69698095Y-51456526D01*
X69698095Y-51456526D02*
X69736190Y-51532717D01*
X69736190Y-51532717D02*
X69774285Y-51570812D01*
X69774285Y-51570812D02*
X69850476Y-51608907D01*
X69850476Y-51608907D02*
X70117142Y-51608907D01*
X69355238Y-51799383D02*
X68974285Y-51799383D01*
X69431428Y-52027955D02*
X69164761Y-51227955D01*
X69164761Y-51227955D02*
X68898095Y-52027955D01*
X68745714Y-51227955D02*
X68288571Y-51227955D01*
X68517143Y-52027955D02*
X68517143Y-51227955D01*
D13*
X46861904Y-29652219D02*
X46861904Y-30461742D01*
X46861904Y-30461742D02*
X46814285Y-30556980D01*
X46814285Y-30556980D02*
X46766666Y-30604600D01*
X46766666Y-30604600D02*
X46671428Y-30652219D01*
X46671428Y-30652219D02*
X46480952Y-30652219D01*
X46480952Y-30652219D02*
X46385714Y-30604600D01*
X46385714Y-30604600D02*
X46338095Y-30556980D01*
X46338095Y-30556980D02*
X46290476Y-30461742D01*
X46290476Y-30461742D02*
X46290476Y-29652219D01*
X45861904Y-30604600D02*
X45719047Y-30652219D01*
X45719047Y-30652219D02*
X45480952Y-30652219D01*
X45480952Y-30652219D02*
X45385714Y-30604600D01*
X45385714Y-30604600D02*
X45338095Y-30556980D01*
X45338095Y-30556980D02*
X45290476Y-30461742D01*
X45290476Y-30461742D02*
X45290476Y-30366504D01*
X45290476Y-30366504D02*
X45338095Y-30271266D01*
X45338095Y-30271266D02*
X45385714Y-30223647D01*
X45385714Y-30223647D02*
X45480952Y-30176028D01*
X45480952Y-30176028D02*
X45671428Y-30128409D01*
X45671428Y-30128409D02*
X45766666Y-30080790D01*
X45766666Y-30080790D02*
X45814285Y-30033171D01*
X45814285Y-30033171D02*
X45861904Y-29937933D01*
X45861904Y-29937933D02*
X45861904Y-29842695D01*
X45861904Y-29842695D02*
X45814285Y-29747457D01*
X45814285Y-29747457D02*
X45766666Y-29699838D01*
X45766666Y-29699838D02*
X45671428Y-29652219D01*
X45671428Y-29652219D02*
X45433333Y-29652219D01*
X45433333Y-29652219D02*
X45290476Y-29699838D01*
X44528571Y-30128409D02*
X44385714Y-30176028D01*
X44385714Y-30176028D02*
X44338095Y-30223647D01*
X44338095Y-30223647D02*
X44290476Y-30318885D01*
X44290476Y-30318885D02*
X44290476Y-30461742D01*
X44290476Y-30461742D02*
X44338095Y-30556980D01*
X44338095Y-30556980D02*
X44385714Y-30604600D01*
X44385714Y-30604600D02*
X44480952Y-30652219D01*
X44480952Y-30652219D02*
X44861904Y-30652219D01*
X44861904Y-30652219D02*
X44861904Y-29652219D01*
X44861904Y-29652219D02*
X44528571Y-29652219D01*
X44528571Y-29652219D02*
X44433333Y-29699838D01*
X44433333Y-29699838D02*
X44385714Y-29747457D01*
X44385714Y-29747457D02*
X44338095Y-29842695D01*
X44338095Y-29842695D02*
X44338095Y-29937933D01*
X44338095Y-29937933D02*
X44385714Y-30033171D01*
X44385714Y-30033171D02*
X44433333Y-30080790D01*
X44433333Y-30080790D02*
X44528571Y-30128409D01*
X44528571Y-30128409D02*
X44861904Y-30128409D01*
D11*
X45489524Y-47447619D02*
X45584762Y-47400000D01*
X45584762Y-47400000D02*
X45680000Y-47304762D01*
X45680000Y-47304762D02*
X45822857Y-47161904D01*
X45822857Y-47161904D02*
X45918095Y-47114285D01*
X45918095Y-47114285D02*
X46013333Y-47114285D01*
X45965714Y-47352381D02*
X46060952Y-47304762D01*
X46060952Y-47304762D02*
X46156190Y-47209523D01*
X46156190Y-47209523D02*
X46203809Y-47019047D01*
X46203809Y-47019047D02*
X46203809Y-46685714D01*
X46203809Y-46685714D02*
X46156190Y-46495238D01*
X46156190Y-46495238D02*
X46060952Y-46400000D01*
X46060952Y-46400000D02*
X45965714Y-46352381D01*
X45965714Y-46352381D02*
X45775238Y-46352381D01*
X45775238Y-46352381D02*
X45680000Y-46400000D01*
X45680000Y-46400000D02*
X45584762Y-46495238D01*
X45584762Y-46495238D02*
X45537143Y-46685714D01*
X45537143Y-46685714D02*
X45537143Y-47019047D01*
X45537143Y-47019047D02*
X45584762Y-47209523D01*
X45584762Y-47209523D02*
X45680000Y-47304762D01*
X45680000Y-47304762D02*
X45775238Y-47352381D01*
X45775238Y-47352381D02*
X45965714Y-47352381D01*
X45203809Y-46352381D02*
X44584762Y-46352381D01*
X44584762Y-46352381D02*
X44918095Y-46733333D01*
X44918095Y-46733333D02*
X44775238Y-46733333D01*
X44775238Y-46733333D02*
X44680000Y-46780952D01*
X44680000Y-46780952D02*
X44632381Y-46828571D01*
X44632381Y-46828571D02*
X44584762Y-46923809D01*
X44584762Y-46923809D02*
X44584762Y-47161904D01*
X44584762Y-47161904D02*
X44632381Y-47257142D01*
X44632381Y-47257142D02*
X44680000Y-47304762D01*
X44680000Y-47304762D02*
X44775238Y-47352381D01*
X44775238Y-47352381D02*
X45060952Y-47352381D01*
X45060952Y-47352381D02*
X45156190Y-47304762D01*
X45156190Y-47304762D02*
X45203809Y-47257142D01*
X43965714Y-46352381D02*
X43870476Y-46352381D01*
X43870476Y-46352381D02*
X43775238Y-46400000D01*
X43775238Y-46400000D02*
X43727619Y-46447619D01*
X43727619Y-46447619D02*
X43680000Y-46542857D01*
X43680000Y-46542857D02*
X43632381Y-46733333D01*
X43632381Y-46733333D02*
X43632381Y-46971428D01*
X43632381Y-46971428D02*
X43680000Y-47161904D01*
X43680000Y-47161904D02*
X43727619Y-47257142D01*
X43727619Y-47257142D02*
X43775238Y-47304762D01*
X43775238Y-47304762D02*
X43870476Y-47352381D01*
X43870476Y-47352381D02*
X43965714Y-47352381D01*
X43965714Y-47352381D02*
X44060952Y-47304762D01*
X44060952Y-47304762D02*
X44108571Y-47257142D01*
X44108571Y-47257142D02*
X44156190Y-47161904D01*
X44156190Y-47161904D02*
X44203809Y-46971428D01*
X44203809Y-46971428D02*
X44203809Y-46733333D01*
X44203809Y-46733333D02*
X44156190Y-46542857D01*
X44156190Y-46542857D02*
X44108571Y-46447619D01*
X44108571Y-46447619D02*
X44060952Y-46400000D01*
X44060952Y-46400000D02*
X43965714Y-46352381D01*
X42680000Y-47352381D02*
X43251428Y-47352381D01*
X42965714Y-47352381D02*
X42965714Y-46352381D01*
X42965714Y-46352381D02*
X43060952Y-46495238D01*
X43060952Y-46495238D02*
X43156190Y-46590476D01*
X43156190Y-46590476D02*
X43251428Y-46638095D01*
X64266715Y-27147392D02*
X64266715Y-26147392D01*
X64266715Y-26147392D02*
X64028620Y-26147392D01*
X64028620Y-26147392D02*
X63885763Y-26195011D01*
X63885763Y-26195011D02*
X63790525Y-26290249D01*
X63790525Y-26290249D02*
X63742906Y-26385487D01*
X63742906Y-26385487D02*
X63695287Y-26575963D01*
X63695287Y-26575963D02*
X63695287Y-26718820D01*
X63695287Y-26718820D02*
X63742906Y-26909296D01*
X63742906Y-26909296D02*
X63790525Y-27004534D01*
X63790525Y-27004534D02*
X63885763Y-27099773D01*
X63885763Y-27099773D02*
X64028620Y-27147392D01*
X64028620Y-27147392D02*
X64266715Y-27147392D01*
X62790525Y-26147392D02*
X63266715Y-26147392D01*
X63266715Y-26147392D02*
X63314334Y-26623582D01*
X63314334Y-26623582D02*
X63266715Y-26575963D01*
X63266715Y-26575963D02*
X63171477Y-26528344D01*
X63171477Y-26528344D02*
X62933382Y-26528344D01*
X62933382Y-26528344D02*
X62838144Y-26575963D01*
X62838144Y-26575963D02*
X62790525Y-26623582D01*
X62790525Y-26623582D02*
X62742906Y-26718820D01*
X62742906Y-26718820D02*
X62742906Y-26956915D01*
X62742906Y-26956915D02*
X62790525Y-27052153D01*
X62790525Y-27052153D02*
X62838144Y-27099773D01*
X62838144Y-27099773D02*
X62933382Y-27147392D01*
X62933382Y-27147392D02*
X63171477Y-27147392D01*
X63171477Y-27147392D02*
X63266715Y-27099773D01*
X63266715Y-27099773D02*
X63314334Y-27052153D01*
X62123858Y-26147392D02*
X62028620Y-26147392D01*
X62028620Y-26147392D02*
X61933382Y-26195011D01*
X61933382Y-26195011D02*
X61885763Y-26242630D01*
X61885763Y-26242630D02*
X61838144Y-26337868D01*
X61838144Y-26337868D02*
X61790525Y-26528344D01*
X61790525Y-26528344D02*
X61790525Y-26766439D01*
X61790525Y-26766439D02*
X61838144Y-26956915D01*
X61838144Y-26956915D02*
X61885763Y-27052153D01*
X61885763Y-27052153D02*
X61933382Y-27099773D01*
X61933382Y-27099773D02*
X62028620Y-27147392D01*
X62028620Y-27147392D02*
X62123858Y-27147392D01*
X62123858Y-27147392D02*
X62219096Y-27099773D01*
X62219096Y-27099773D02*
X62266715Y-27052153D01*
X62266715Y-27052153D02*
X62314334Y-26956915D01*
X62314334Y-26956915D02*
X62361953Y-26766439D01*
X62361953Y-26766439D02*
X62361953Y-26528344D01*
X62361953Y-26528344D02*
X62314334Y-26337868D01*
X62314334Y-26337868D02*
X62266715Y-26242630D01*
X62266715Y-26242630D02*
X62219096Y-26195011D01*
X62219096Y-26195011D02*
X62123858Y-26147392D01*
X61409572Y-26242630D02*
X61361953Y-26195011D01*
X61361953Y-26195011D02*
X61266715Y-26147392D01*
X61266715Y-26147392D02*
X61028620Y-26147392D01*
X61028620Y-26147392D02*
X60933382Y-26195011D01*
X60933382Y-26195011D02*
X60885763Y-26242630D01*
X60885763Y-26242630D02*
X60838144Y-26337868D01*
X60838144Y-26337868D02*
X60838144Y-26433106D01*
X60838144Y-26433106D02*
X60885763Y-26575963D01*
X60885763Y-26575963D02*
X61457191Y-27147392D01*
X61457191Y-27147392D02*
X60838144Y-27147392D01*
X73999239Y-59787048D02*
X73951620Y-59834667D01*
X73951620Y-59834667D02*
X73904000Y-59977524D01*
X73904000Y-59977524D02*
X73904000Y-60072762D01*
X73904000Y-60072762D02*
X73951620Y-60215619D01*
X73951620Y-60215619D02*
X74046858Y-60310857D01*
X74046858Y-60310857D02*
X74142096Y-60358476D01*
X74142096Y-60358476D02*
X74332572Y-60406095D01*
X74332572Y-60406095D02*
X74475429Y-60406095D01*
X74475429Y-60406095D02*
X74665905Y-60358476D01*
X74665905Y-60358476D02*
X74761143Y-60310857D01*
X74761143Y-60310857D02*
X74856381Y-60215619D01*
X74856381Y-60215619D02*
X74904000Y-60072762D01*
X74904000Y-60072762D02*
X74904000Y-59977524D01*
X74904000Y-59977524D02*
X74856381Y-59834667D01*
X74856381Y-59834667D02*
X74808762Y-59787048D01*
X74570667Y-58929905D02*
X73904000Y-58929905D01*
X74951620Y-59168000D02*
X74237334Y-59406095D01*
X74237334Y-59406095D02*
X74237334Y-58787048D01*
X74904000Y-58215619D02*
X74904000Y-58120381D01*
X74904000Y-58120381D02*
X74856381Y-58025143D01*
X74856381Y-58025143D02*
X74808762Y-57977524D01*
X74808762Y-57977524D02*
X74713524Y-57929905D01*
X74713524Y-57929905D02*
X74523048Y-57882286D01*
X74523048Y-57882286D02*
X74284953Y-57882286D01*
X74284953Y-57882286D02*
X74094477Y-57929905D01*
X74094477Y-57929905D02*
X73999239Y-57977524D01*
X73999239Y-57977524D02*
X73951620Y-58025143D01*
X73951620Y-58025143D02*
X73904000Y-58120381D01*
X73904000Y-58120381D02*
X73904000Y-58215619D01*
X73904000Y-58215619D02*
X73951620Y-58310857D01*
X73951620Y-58310857D02*
X73999239Y-58358476D01*
X73999239Y-58358476D02*
X74094477Y-58406095D01*
X74094477Y-58406095D02*
X74284953Y-58453714D01*
X74284953Y-58453714D02*
X74523048Y-58453714D01*
X74523048Y-58453714D02*
X74713524Y-58406095D01*
X74713524Y-58406095D02*
X74808762Y-58358476D01*
X74808762Y-58358476D02*
X74856381Y-58310857D01*
X74856381Y-58310857D02*
X74904000Y-58215619D01*
X74904000Y-57025143D02*
X74904000Y-57215619D01*
X74904000Y-57215619D02*
X74856381Y-57310857D01*
X74856381Y-57310857D02*
X74808762Y-57358476D01*
X74808762Y-57358476D02*
X74665905Y-57453714D01*
X74665905Y-57453714D02*
X74475429Y-57501333D01*
X74475429Y-57501333D02*
X74094477Y-57501333D01*
X74094477Y-57501333D02*
X73999239Y-57453714D01*
X73999239Y-57453714D02*
X73951620Y-57406095D01*
X73951620Y-57406095D02*
X73904000Y-57310857D01*
X73904000Y-57310857D02*
X73904000Y-57120381D01*
X73904000Y-57120381D02*
X73951620Y-57025143D01*
X73951620Y-57025143D02*
X73999239Y-56977524D01*
X73999239Y-56977524D02*
X74094477Y-56929905D01*
X74094477Y-56929905D02*
X74332572Y-56929905D01*
X74332572Y-56929905D02*
X74427810Y-56977524D01*
X74427810Y-56977524D02*
X74475429Y-57025143D01*
X74475429Y-57025143D02*
X74523048Y-57120381D01*
X74523048Y-57120381D02*
X74523048Y-57310857D01*
X74523048Y-57310857D02*
X74475429Y-57406095D01*
X74475429Y-57406095D02*
X74427810Y-57453714D01*
X74427810Y-57453714D02*
X74332572Y-57501333D01*
X38850000Y-63110595D02*
X38040477Y-63110595D01*
X38040477Y-63110595D02*
X37945239Y-63062976D01*
X37945239Y-63062976D02*
X37897620Y-63015357D01*
X37897620Y-63015357D02*
X37850000Y-62920119D01*
X37850000Y-62920119D02*
X37850000Y-62729643D01*
X37850000Y-62729643D02*
X37897620Y-62634405D01*
X37897620Y-62634405D02*
X37945239Y-62586786D01*
X37945239Y-62586786D02*
X38040477Y-62539167D01*
X38040477Y-62539167D02*
X38850000Y-62539167D01*
X38850000Y-61586786D02*
X38850000Y-62062976D01*
X38850000Y-62062976D02*
X38373810Y-62110595D01*
X38373810Y-62110595D02*
X38421429Y-62062976D01*
X38421429Y-62062976D02*
X38469048Y-61967738D01*
X38469048Y-61967738D02*
X38469048Y-61729643D01*
X38469048Y-61729643D02*
X38421429Y-61634405D01*
X38421429Y-61634405D02*
X38373810Y-61586786D01*
X38373810Y-61586786D02*
X38278572Y-61539167D01*
X38278572Y-61539167D02*
X38040477Y-61539167D01*
X38040477Y-61539167D02*
X37945239Y-61586786D01*
X37945239Y-61586786D02*
X37897620Y-61634405D01*
X37897620Y-61634405D02*
X37850000Y-61729643D01*
X37850000Y-61729643D02*
X37850000Y-61967738D01*
X37850000Y-61967738D02*
X37897620Y-62062976D01*
X37897620Y-62062976D02*
X37945239Y-62110595D01*
X38850000Y-60920119D02*
X38850000Y-60824881D01*
X38850000Y-60824881D02*
X38802381Y-60729643D01*
X38802381Y-60729643D02*
X38754762Y-60682024D01*
X38754762Y-60682024D02*
X38659524Y-60634405D01*
X38659524Y-60634405D02*
X38469048Y-60586786D01*
X38469048Y-60586786D02*
X38230953Y-60586786D01*
X38230953Y-60586786D02*
X38040477Y-60634405D01*
X38040477Y-60634405D02*
X37945239Y-60682024D01*
X37945239Y-60682024D02*
X37897620Y-60729643D01*
X37897620Y-60729643D02*
X37850000Y-60824881D01*
X37850000Y-60824881D02*
X37850000Y-60920119D01*
X37850000Y-60920119D02*
X37897620Y-61015357D01*
X37897620Y-61015357D02*
X37945239Y-61062976D01*
X37945239Y-61062976D02*
X38040477Y-61110595D01*
X38040477Y-61110595D02*
X38230953Y-61158214D01*
X38230953Y-61158214D02*
X38469048Y-61158214D01*
X38469048Y-61158214D02*
X38659524Y-61110595D01*
X38659524Y-61110595D02*
X38754762Y-61062976D01*
X38754762Y-61062976D02*
X38802381Y-61015357D01*
X38802381Y-61015357D02*
X38850000Y-60920119D01*
X38754762Y-60205833D02*
X38802381Y-60158214D01*
X38802381Y-60158214D02*
X38850000Y-60062976D01*
X38850000Y-60062976D02*
X38850000Y-59824881D01*
X38850000Y-59824881D02*
X38802381Y-59729643D01*
X38802381Y-59729643D02*
X38754762Y-59682024D01*
X38754762Y-59682024D02*
X38659524Y-59634405D01*
X38659524Y-59634405D02*
X38564286Y-59634405D01*
X38564286Y-59634405D02*
X38421429Y-59682024D01*
X38421429Y-59682024D02*
X37850000Y-60253452D01*
X37850000Y-60253452D02*
X37850000Y-59634405D01*
X25000000Y-47361905D02*
X24285715Y-47361905D01*
X24285715Y-47361905D02*
X24142858Y-47409524D01*
X24142858Y-47409524D02*
X24047620Y-47504762D01*
X24047620Y-47504762D02*
X24000000Y-47647619D01*
X24000000Y-47647619D02*
X24000000Y-47742857D01*
X25000000Y-46409524D02*
X25000000Y-46885714D01*
X25000000Y-46885714D02*
X24523810Y-46933333D01*
X24523810Y-46933333D02*
X24571429Y-46885714D01*
X24571429Y-46885714D02*
X24619048Y-46790476D01*
X24619048Y-46790476D02*
X24619048Y-46552381D01*
X24619048Y-46552381D02*
X24571429Y-46457143D01*
X24571429Y-46457143D02*
X24523810Y-46409524D01*
X24523810Y-46409524D02*
X24428572Y-46361905D01*
X24428572Y-46361905D02*
X24190477Y-46361905D01*
X24190477Y-46361905D02*
X24095239Y-46409524D01*
X24095239Y-46409524D02*
X24047620Y-46457143D01*
X24047620Y-46457143D02*
X24000000Y-46552381D01*
X24000000Y-46552381D02*
X24000000Y-46790476D01*
X24000000Y-46790476D02*
X24047620Y-46885714D01*
X24047620Y-46885714D02*
X24095239Y-46933333D01*
X25000000Y-45742857D02*
X25000000Y-45647619D01*
X25000000Y-45647619D02*
X24952381Y-45552381D01*
X24952381Y-45552381D02*
X24904762Y-45504762D01*
X24904762Y-45504762D02*
X24809524Y-45457143D01*
X24809524Y-45457143D02*
X24619048Y-45409524D01*
X24619048Y-45409524D02*
X24380953Y-45409524D01*
X24380953Y-45409524D02*
X24190477Y-45457143D01*
X24190477Y-45457143D02*
X24095239Y-45504762D01*
X24095239Y-45504762D02*
X24047620Y-45552381D01*
X24047620Y-45552381D02*
X24000000Y-45647619D01*
X24000000Y-45647619D02*
X24000000Y-45742857D01*
X24000000Y-45742857D02*
X24047620Y-45838095D01*
X24047620Y-45838095D02*
X24095239Y-45885714D01*
X24095239Y-45885714D02*
X24190477Y-45933333D01*
X24190477Y-45933333D02*
X24380953Y-45980952D01*
X24380953Y-45980952D02*
X24619048Y-45980952D01*
X24619048Y-45980952D02*
X24809524Y-45933333D01*
X24809524Y-45933333D02*
X24904762Y-45885714D01*
X24904762Y-45885714D02*
X24952381Y-45838095D01*
X24952381Y-45838095D02*
X25000000Y-45742857D01*
X24904762Y-45028571D02*
X24952381Y-44980952D01*
X24952381Y-44980952D02*
X25000000Y-44885714D01*
X25000000Y-44885714D02*
X25000000Y-44647619D01*
X25000000Y-44647619D02*
X24952381Y-44552381D01*
X24952381Y-44552381D02*
X24904762Y-44504762D01*
X24904762Y-44504762D02*
X24809524Y-44457143D01*
X24809524Y-44457143D02*
X24714286Y-44457143D01*
X24714286Y-44457143D02*
X24571429Y-44504762D01*
X24571429Y-44504762D02*
X24000000Y-45076190D01*
X24000000Y-45076190D02*
X24000000Y-44457143D01*
X75914762Y-45785000D02*
X75914762Y-46499285D01*
X75914762Y-46499285D02*
X75962381Y-46642142D01*
X75962381Y-46642142D02*
X76057619Y-46737381D01*
X76057619Y-46737381D02*
X76200476Y-46785000D01*
X76200476Y-46785000D02*
X76295714Y-46785000D01*
X74914762Y-46785000D02*
X75486190Y-46785000D01*
X75200476Y-46785000D02*
X75200476Y-45785000D01*
X75200476Y-45785000D02*
X75295714Y-45927857D01*
X75295714Y-45927857D02*
X75390952Y-46023095D01*
X75390952Y-46023095D02*
X75486190Y-46070714D01*
X74295714Y-45785000D02*
X74200476Y-45785000D01*
X74200476Y-45785000D02*
X74105238Y-45832619D01*
X74105238Y-45832619D02*
X74057619Y-45880238D01*
X74057619Y-45880238D02*
X74010000Y-45975476D01*
X74010000Y-45975476D02*
X73962381Y-46165952D01*
X73962381Y-46165952D02*
X73962381Y-46404047D01*
X73962381Y-46404047D02*
X74010000Y-46594523D01*
X74010000Y-46594523D02*
X74057619Y-46689761D01*
X74057619Y-46689761D02*
X74105238Y-46737381D01*
X74105238Y-46737381D02*
X74200476Y-46785000D01*
X74200476Y-46785000D02*
X74295714Y-46785000D01*
X74295714Y-46785000D02*
X74390952Y-46737381D01*
X74390952Y-46737381D02*
X74438571Y-46689761D01*
X74438571Y-46689761D02*
X74486190Y-46594523D01*
X74486190Y-46594523D02*
X74533809Y-46404047D01*
X74533809Y-46404047D02*
X74533809Y-46165952D01*
X74533809Y-46165952D02*
X74486190Y-45975476D01*
X74486190Y-45975476D02*
X74438571Y-45880238D01*
X74438571Y-45880238D02*
X74390952Y-45832619D01*
X74390952Y-45832619D02*
X74295714Y-45785000D01*
X73581428Y-45880238D02*
X73533809Y-45832619D01*
X73533809Y-45832619D02*
X73438571Y-45785000D01*
X73438571Y-45785000D02*
X73200476Y-45785000D01*
X73200476Y-45785000D02*
X73105238Y-45832619D01*
X73105238Y-45832619D02*
X73057619Y-45880238D01*
X73057619Y-45880238D02*
X73010000Y-45975476D01*
X73010000Y-45975476D02*
X73010000Y-46070714D01*
X73010000Y-46070714D02*
X73057619Y-46213571D01*
X73057619Y-46213571D02*
X73629047Y-46785000D01*
X73629047Y-46785000D02*
X73010000Y-46785000D01*
X26857667Y-61722212D02*
X26143382Y-61722212D01*
X26143382Y-61722212D02*
X26000525Y-61769831D01*
X26000525Y-61769831D02*
X25905287Y-61865069D01*
X25905287Y-61865069D02*
X25857667Y-62007926D01*
X25857667Y-62007926D02*
X25857667Y-62103164D01*
X26857667Y-60769831D02*
X26857667Y-61246021D01*
X26857667Y-61246021D02*
X26381477Y-61293640D01*
X26381477Y-61293640D02*
X26429096Y-61246021D01*
X26429096Y-61246021D02*
X26476715Y-61150783D01*
X26476715Y-61150783D02*
X26476715Y-60912688D01*
X26476715Y-60912688D02*
X26429096Y-60817450D01*
X26429096Y-60817450D02*
X26381477Y-60769831D01*
X26381477Y-60769831D02*
X26286239Y-60722212D01*
X26286239Y-60722212D02*
X26048144Y-60722212D01*
X26048144Y-60722212D02*
X25952906Y-60769831D01*
X25952906Y-60769831D02*
X25905287Y-60817450D01*
X25905287Y-60817450D02*
X25857667Y-60912688D01*
X25857667Y-60912688D02*
X25857667Y-61150783D01*
X25857667Y-61150783D02*
X25905287Y-61246021D01*
X25905287Y-61246021D02*
X25952906Y-61293640D01*
X26857667Y-60103164D02*
X26857667Y-60007926D01*
X26857667Y-60007926D02*
X26810048Y-59912688D01*
X26810048Y-59912688D02*
X26762429Y-59865069D01*
X26762429Y-59865069D02*
X26667191Y-59817450D01*
X26667191Y-59817450D02*
X26476715Y-59769831D01*
X26476715Y-59769831D02*
X26238620Y-59769831D01*
X26238620Y-59769831D02*
X26048144Y-59817450D01*
X26048144Y-59817450D02*
X25952906Y-59865069D01*
X25952906Y-59865069D02*
X25905287Y-59912688D01*
X25905287Y-59912688D02*
X25857667Y-60007926D01*
X25857667Y-60007926D02*
X25857667Y-60103164D01*
X25857667Y-60103164D02*
X25905287Y-60198402D01*
X25905287Y-60198402D02*
X25952906Y-60246021D01*
X25952906Y-60246021D02*
X26048144Y-60293640D01*
X26048144Y-60293640D02*
X26238620Y-60341259D01*
X26238620Y-60341259D02*
X26476715Y-60341259D01*
X26476715Y-60341259D02*
X26667191Y-60293640D01*
X26667191Y-60293640D02*
X26762429Y-60246021D01*
X26762429Y-60246021D02*
X26810048Y-60198402D01*
X26810048Y-60198402D02*
X26857667Y-60103164D01*
X26857667Y-59436497D02*
X26857667Y-58817450D01*
X26857667Y-58817450D02*
X26476715Y-59150783D01*
X26476715Y-59150783D02*
X26476715Y-59007926D01*
X26476715Y-59007926D02*
X26429096Y-58912688D01*
X26429096Y-58912688D02*
X26381477Y-58865069D01*
X26381477Y-58865069D02*
X26286239Y-58817450D01*
X26286239Y-58817450D02*
X26048144Y-58817450D01*
X26048144Y-58817450D02*
X25952906Y-58865069D01*
X25952906Y-58865069D02*
X25905287Y-58912688D01*
X25905287Y-58912688D02*
X25857667Y-59007926D01*
X25857667Y-59007926D02*
X25857667Y-59293640D01*
X25857667Y-59293640D02*
X25905287Y-59388878D01*
X25905287Y-59388878D02*
X25952906Y-59436497D01*
X70704762Y-67850000D02*
X70704762Y-68564285D01*
X70704762Y-68564285D02*
X70752381Y-68707142D01*
X70752381Y-68707142D02*
X70847619Y-68802381D01*
X70847619Y-68802381D02*
X70990476Y-68850000D01*
X70990476Y-68850000D02*
X71085714Y-68850000D01*
X70276190Y-67945238D02*
X70228571Y-67897619D01*
X70228571Y-67897619D02*
X70133333Y-67850000D01*
X70133333Y-67850000D02*
X69895238Y-67850000D01*
X69895238Y-67850000D02*
X69800000Y-67897619D01*
X69800000Y-67897619D02*
X69752381Y-67945238D01*
X69752381Y-67945238D02*
X69704762Y-68040476D01*
X69704762Y-68040476D02*
X69704762Y-68135714D01*
X69704762Y-68135714D02*
X69752381Y-68278571D01*
X69752381Y-68278571D02*
X70323809Y-68850000D01*
X70323809Y-68850000D02*
X69704762Y-68850000D01*
X69085714Y-67850000D02*
X68990476Y-67850000D01*
X68990476Y-67850000D02*
X68895238Y-67897619D01*
X68895238Y-67897619D02*
X68847619Y-67945238D01*
X68847619Y-67945238D02*
X68800000Y-68040476D01*
X68800000Y-68040476D02*
X68752381Y-68230952D01*
X68752381Y-68230952D02*
X68752381Y-68469047D01*
X68752381Y-68469047D02*
X68800000Y-68659523D01*
X68800000Y-68659523D02*
X68847619Y-68754761D01*
X68847619Y-68754761D02*
X68895238Y-68802381D01*
X68895238Y-68802381D02*
X68990476Y-68850000D01*
X68990476Y-68850000D02*
X69085714Y-68850000D01*
X69085714Y-68850000D02*
X69180952Y-68802381D01*
X69180952Y-68802381D02*
X69228571Y-68754761D01*
X69228571Y-68754761D02*
X69276190Y-68659523D01*
X69276190Y-68659523D02*
X69323809Y-68469047D01*
X69323809Y-68469047D02*
X69323809Y-68230952D01*
X69323809Y-68230952D02*
X69276190Y-68040476D01*
X69276190Y-68040476D02*
X69228571Y-67945238D01*
X69228571Y-67945238D02*
X69180952Y-67897619D01*
X69180952Y-67897619D02*
X69085714Y-67850000D01*
X67800000Y-68850000D02*
X68371428Y-68850000D01*
X68085714Y-68850000D02*
X68085714Y-67850000D01*
X68085714Y-67850000D02*
X68180952Y-67992857D01*
X68180952Y-67992857D02*
X68276190Y-68088095D01*
X68276190Y-68088095D02*
X68371428Y-68135714D01*
X42770648Y-26027532D02*
X43770648Y-26027532D01*
X43770648Y-26027532D02*
X43770648Y-25789437D01*
X43770648Y-25789437D02*
X43723029Y-25646580D01*
X43723029Y-25646580D02*
X43627791Y-25551342D01*
X43627791Y-25551342D02*
X43532553Y-25503723D01*
X43532553Y-25503723D02*
X43342077Y-25456104D01*
X43342077Y-25456104D02*
X43199220Y-25456104D01*
X43199220Y-25456104D02*
X43008744Y-25503723D01*
X43008744Y-25503723D02*
X42913506Y-25551342D01*
X42913506Y-25551342D02*
X42818268Y-25646580D01*
X42818268Y-25646580D02*
X42770648Y-25789437D01*
X42770648Y-25789437D02*
X42770648Y-26027532D01*
X43770648Y-24551342D02*
X43770648Y-25027532D01*
X43770648Y-25027532D02*
X43294458Y-25075151D01*
X43294458Y-25075151D02*
X43342077Y-25027532D01*
X43342077Y-25027532D02*
X43389696Y-24932294D01*
X43389696Y-24932294D02*
X43389696Y-24694199D01*
X43389696Y-24694199D02*
X43342077Y-24598961D01*
X43342077Y-24598961D02*
X43294458Y-24551342D01*
X43294458Y-24551342D02*
X43199220Y-24503723D01*
X43199220Y-24503723D02*
X42961125Y-24503723D01*
X42961125Y-24503723D02*
X42865887Y-24551342D01*
X42865887Y-24551342D02*
X42818268Y-24598961D01*
X42818268Y-24598961D02*
X42770648Y-24694199D01*
X42770648Y-24694199D02*
X42770648Y-24932294D01*
X42770648Y-24932294D02*
X42818268Y-25027532D01*
X42818268Y-25027532D02*
X42865887Y-25075151D01*
X43770648Y-23884675D02*
X43770648Y-23789437D01*
X43770648Y-23789437D02*
X43723029Y-23694199D01*
X43723029Y-23694199D02*
X43675410Y-23646580D01*
X43675410Y-23646580D02*
X43580172Y-23598961D01*
X43580172Y-23598961D02*
X43389696Y-23551342D01*
X43389696Y-23551342D02*
X43151601Y-23551342D01*
X43151601Y-23551342D02*
X42961125Y-23598961D01*
X42961125Y-23598961D02*
X42865887Y-23646580D01*
X42865887Y-23646580D02*
X42818268Y-23694199D01*
X42818268Y-23694199D02*
X42770648Y-23789437D01*
X42770648Y-23789437D02*
X42770648Y-23884675D01*
X42770648Y-23884675D02*
X42818268Y-23979913D01*
X42818268Y-23979913D02*
X42865887Y-24027532D01*
X42865887Y-24027532D02*
X42961125Y-24075151D01*
X42961125Y-24075151D02*
X43151601Y-24122770D01*
X43151601Y-24122770D02*
X43389696Y-24122770D01*
X43389696Y-24122770D02*
X43580172Y-24075151D01*
X43580172Y-24075151D02*
X43675410Y-24027532D01*
X43675410Y-24027532D02*
X43723029Y-23979913D01*
X43723029Y-23979913D02*
X43770648Y-23884675D01*
X42770648Y-22598961D02*
X42770648Y-23170389D01*
X42770648Y-22884675D02*
X43770648Y-22884675D01*
X43770648Y-22884675D02*
X43627791Y-22979913D01*
X43627791Y-22979913D02*
X43532553Y-23075151D01*
X43532553Y-23075151D02*
X43484934Y-23170389D01*
X35400000Y-48301190D02*
X34590477Y-48301190D01*
X34590477Y-48301190D02*
X34495239Y-48253571D01*
X34495239Y-48253571D02*
X34447620Y-48205952D01*
X34447620Y-48205952D02*
X34400000Y-48110714D01*
X34400000Y-48110714D02*
X34400000Y-47920238D01*
X34400000Y-47920238D02*
X34447620Y-47825000D01*
X34447620Y-47825000D02*
X34495239Y-47777381D01*
X34495239Y-47777381D02*
X34590477Y-47729762D01*
X34590477Y-47729762D02*
X35400000Y-47729762D01*
X34400000Y-46729762D02*
X34400000Y-47301190D01*
X34400000Y-47015476D02*
X35400000Y-47015476D01*
X35400000Y-47015476D02*
X35257143Y-47110714D01*
X35257143Y-47110714D02*
X35161905Y-47205952D01*
X35161905Y-47205952D02*
X35114286Y-47301190D01*
X35400000Y-46110714D02*
X35400000Y-46015476D01*
X35400000Y-46015476D02*
X35352381Y-45920238D01*
X35352381Y-45920238D02*
X35304762Y-45872619D01*
X35304762Y-45872619D02*
X35209524Y-45825000D01*
X35209524Y-45825000D02*
X35019048Y-45777381D01*
X35019048Y-45777381D02*
X34780953Y-45777381D01*
X34780953Y-45777381D02*
X34590477Y-45825000D01*
X34590477Y-45825000D02*
X34495239Y-45872619D01*
X34495239Y-45872619D02*
X34447620Y-45920238D01*
X34447620Y-45920238D02*
X34400000Y-46015476D01*
X34400000Y-46015476D02*
X34400000Y-46110714D01*
X34400000Y-46110714D02*
X34447620Y-46205952D01*
X34447620Y-46205952D02*
X34495239Y-46253571D01*
X34495239Y-46253571D02*
X34590477Y-46301190D01*
X34590477Y-46301190D02*
X34780953Y-46348809D01*
X34780953Y-46348809D02*
X35019048Y-46348809D01*
X35019048Y-46348809D02*
X35209524Y-46301190D01*
X35209524Y-46301190D02*
X35304762Y-46253571D01*
X35304762Y-46253571D02*
X35352381Y-46205952D01*
X35352381Y-46205952D02*
X35400000Y-46110714D01*
X35400000Y-44872619D02*
X35400000Y-45348809D01*
X35400000Y-45348809D02*
X34923810Y-45396428D01*
X34923810Y-45396428D02*
X34971429Y-45348809D01*
X34971429Y-45348809D02*
X35019048Y-45253571D01*
X35019048Y-45253571D02*
X35019048Y-45015476D01*
X35019048Y-45015476D02*
X34971429Y-44920238D01*
X34971429Y-44920238D02*
X34923810Y-44872619D01*
X34923810Y-44872619D02*
X34828572Y-44825000D01*
X34828572Y-44825000D02*
X34590477Y-44825000D01*
X34590477Y-44825000D02*
X34495239Y-44872619D01*
X34495239Y-44872619D02*
X34447620Y-44920238D01*
X34447620Y-44920238D02*
X34400000Y-45015476D01*
X34400000Y-45015476D02*
X34400000Y-45253571D01*
X34400000Y-45253571D02*
X34447620Y-45348809D01*
X34447620Y-45348809D02*
X34495239Y-45396428D01*
X42300595Y-33170000D02*
X42300595Y-33979523D01*
X42300595Y-33979523D02*
X42252976Y-34074761D01*
X42252976Y-34074761D02*
X42205357Y-34122381D01*
X42205357Y-34122381D02*
X42110119Y-34170000D01*
X42110119Y-34170000D02*
X41919643Y-34170000D01*
X41919643Y-34170000D02*
X41824405Y-34122381D01*
X41824405Y-34122381D02*
X41776786Y-34074761D01*
X41776786Y-34074761D02*
X41729167Y-33979523D01*
X41729167Y-33979523D02*
X41729167Y-33170000D01*
X41300595Y-33265238D02*
X41252976Y-33217619D01*
X41252976Y-33217619D02*
X41157738Y-33170000D01*
X41157738Y-33170000D02*
X40919643Y-33170000D01*
X40919643Y-33170000D02*
X40824405Y-33217619D01*
X40824405Y-33217619D02*
X40776786Y-33265238D01*
X40776786Y-33265238D02*
X40729167Y-33360476D01*
X40729167Y-33360476D02*
X40729167Y-33455714D01*
X40729167Y-33455714D02*
X40776786Y-33598571D01*
X40776786Y-33598571D02*
X41348214Y-34170000D01*
X41348214Y-34170000D02*
X40729167Y-34170000D01*
X40110119Y-33170000D02*
X40014881Y-33170000D01*
X40014881Y-33170000D02*
X39919643Y-33217619D01*
X39919643Y-33217619D02*
X39872024Y-33265238D01*
X39872024Y-33265238D02*
X39824405Y-33360476D01*
X39824405Y-33360476D02*
X39776786Y-33550952D01*
X39776786Y-33550952D02*
X39776786Y-33789047D01*
X39776786Y-33789047D02*
X39824405Y-33979523D01*
X39824405Y-33979523D02*
X39872024Y-34074761D01*
X39872024Y-34074761D02*
X39919643Y-34122381D01*
X39919643Y-34122381D02*
X40014881Y-34170000D01*
X40014881Y-34170000D02*
X40110119Y-34170000D01*
X40110119Y-34170000D02*
X40205357Y-34122381D01*
X40205357Y-34122381D02*
X40252976Y-34074761D01*
X40252976Y-34074761D02*
X40300595Y-33979523D01*
X40300595Y-33979523D02*
X40348214Y-33789047D01*
X40348214Y-33789047D02*
X40348214Y-33550952D01*
X40348214Y-33550952D02*
X40300595Y-33360476D01*
X40300595Y-33360476D02*
X40252976Y-33265238D01*
X40252976Y-33265238D02*
X40205357Y-33217619D01*
X40205357Y-33217619D02*
X40110119Y-33170000D01*
X39395833Y-33265238D02*
X39348214Y-33217619D01*
X39348214Y-33217619D02*
X39252976Y-33170000D01*
X39252976Y-33170000D02*
X39014881Y-33170000D01*
X39014881Y-33170000D02*
X38919643Y-33217619D01*
X38919643Y-33217619D02*
X38872024Y-33265238D01*
X38872024Y-33265238D02*
X38824405Y-33360476D01*
X38824405Y-33360476D02*
X38824405Y-33455714D01*
X38824405Y-33455714D02*
X38872024Y-33598571D01*
X38872024Y-33598571D02*
X39443452Y-34170000D01*
X39443452Y-34170000D02*
X38824405Y-34170000D01*
X51750000Y-51900000D02*
X50940477Y-51900000D01*
X50940477Y-51900000D02*
X50845239Y-51852381D01*
X50845239Y-51852381D02*
X50797620Y-51804762D01*
X50797620Y-51804762D02*
X50750000Y-51709524D01*
X50750000Y-51709524D02*
X50750000Y-51519048D01*
X50750000Y-51519048D02*
X50797620Y-51423810D01*
X50797620Y-51423810D02*
X50845239Y-51376191D01*
X50845239Y-51376191D02*
X50940477Y-51328572D01*
X50940477Y-51328572D02*
X51750000Y-51328572D01*
X51654762Y-50900000D02*
X51702381Y-50852381D01*
X51702381Y-50852381D02*
X51750000Y-50757143D01*
X51750000Y-50757143D02*
X51750000Y-50519048D01*
X51750000Y-50519048D02*
X51702381Y-50423810D01*
X51702381Y-50423810D02*
X51654762Y-50376191D01*
X51654762Y-50376191D02*
X51559524Y-50328572D01*
X51559524Y-50328572D02*
X51464286Y-50328572D01*
X51464286Y-50328572D02*
X51321429Y-50376191D01*
X51321429Y-50376191D02*
X50750000Y-50947619D01*
X50750000Y-50947619D02*
X50750000Y-50328572D01*
X51750000Y-49709524D02*
X51750000Y-49614286D01*
X51750000Y-49614286D02*
X51702381Y-49519048D01*
X51702381Y-49519048D02*
X51654762Y-49471429D01*
X51654762Y-49471429D02*
X51559524Y-49423810D01*
X51559524Y-49423810D02*
X51369048Y-49376191D01*
X51369048Y-49376191D02*
X51130953Y-49376191D01*
X51130953Y-49376191D02*
X50940477Y-49423810D01*
X50940477Y-49423810D02*
X50845239Y-49471429D01*
X50845239Y-49471429D02*
X50797620Y-49519048D01*
X50797620Y-49519048D02*
X50750000Y-49614286D01*
X50750000Y-49614286D02*
X50750000Y-49709524D01*
X50750000Y-49709524D02*
X50797620Y-49804762D01*
X50797620Y-49804762D02*
X50845239Y-49852381D01*
X50845239Y-49852381D02*
X50940477Y-49900000D01*
X50940477Y-49900000D02*
X51130953Y-49947619D01*
X51130953Y-49947619D02*
X51369048Y-49947619D01*
X51369048Y-49947619D02*
X51559524Y-49900000D01*
X51559524Y-49900000D02*
X51654762Y-49852381D01*
X51654762Y-49852381D02*
X51702381Y-49804762D01*
X51702381Y-49804762D02*
X51750000Y-49709524D01*
X50750000Y-48423810D02*
X50750000Y-48995238D01*
X50750000Y-48709524D02*
X51750000Y-48709524D01*
X51750000Y-48709524D02*
X51607143Y-48804762D01*
X51607143Y-48804762D02*
X51511905Y-48900000D01*
X51511905Y-48900000D02*
X51464286Y-48995238D01*
X69002572Y-60181809D02*
X69335905Y-59705618D01*
X69574000Y-60181809D02*
X69574000Y-59181809D01*
X69574000Y-59181809D02*
X69193048Y-59181809D01*
X69193048Y-59181809D02*
X69097810Y-59229428D01*
X69097810Y-59229428D02*
X69050191Y-59277047D01*
X69050191Y-59277047D02*
X69002572Y-59372285D01*
X69002572Y-59372285D02*
X69002572Y-59515142D01*
X69002572Y-59515142D02*
X69050191Y-59610380D01*
X69050191Y-59610380D02*
X69097810Y-59657999D01*
X69097810Y-59657999D02*
X69193048Y-59705618D01*
X69193048Y-59705618D02*
X69574000Y-59705618D01*
X68145429Y-59515142D02*
X68145429Y-60181809D01*
X68383524Y-59134190D02*
X68621619Y-59848475D01*
X68621619Y-59848475D02*
X68002572Y-59848475D01*
X67431143Y-59181809D02*
X67335905Y-59181809D01*
X67335905Y-59181809D02*
X67240667Y-59229428D01*
X67240667Y-59229428D02*
X67193048Y-59277047D01*
X67193048Y-59277047D02*
X67145429Y-59372285D01*
X67145429Y-59372285D02*
X67097810Y-59562761D01*
X67097810Y-59562761D02*
X67097810Y-59800856D01*
X67097810Y-59800856D02*
X67145429Y-59991332D01*
X67145429Y-59991332D02*
X67193048Y-60086570D01*
X67193048Y-60086570D02*
X67240667Y-60134190D01*
X67240667Y-60134190D02*
X67335905Y-60181809D01*
X67335905Y-60181809D02*
X67431143Y-60181809D01*
X67431143Y-60181809D02*
X67526381Y-60134190D01*
X67526381Y-60134190D02*
X67574000Y-60086570D01*
X67574000Y-60086570D02*
X67621619Y-59991332D01*
X67621619Y-59991332D02*
X67669238Y-59800856D01*
X67669238Y-59800856D02*
X67669238Y-59562761D01*
X67669238Y-59562761D02*
X67621619Y-59372285D01*
X67621619Y-59372285D02*
X67574000Y-59277047D01*
X67574000Y-59277047D02*
X67526381Y-59229428D01*
X67526381Y-59229428D02*
X67431143Y-59181809D01*
X66716857Y-59277047D02*
X66669238Y-59229428D01*
X66669238Y-59229428D02*
X66574000Y-59181809D01*
X66574000Y-59181809D02*
X66335905Y-59181809D01*
X66335905Y-59181809D02*
X66240667Y-59229428D01*
X66240667Y-59229428D02*
X66193048Y-59277047D01*
X66193048Y-59277047D02*
X66145429Y-59372285D01*
X66145429Y-59372285D02*
X66145429Y-59467523D01*
X66145429Y-59467523D02*
X66193048Y-59610380D01*
X66193048Y-59610380D02*
X66764476Y-60181809D01*
X66764476Y-60181809D02*
X66145429Y-60181809D01*
X36450000Y-55930595D02*
X35640477Y-55930595D01*
X35640477Y-55930595D02*
X35545239Y-55882976D01*
X35545239Y-55882976D02*
X35497620Y-55835357D01*
X35497620Y-55835357D02*
X35450000Y-55740119D01*
X35450000Y-55740119D02*
X35450000Y-55549643D01*
X35450000Y-55549643D02*
X35497620Y-55454405D01*
X35497620Y-55454405D02*
X35545239Y-55406786D01*
X35545239Y-55406786D02*
X35640477Y-55359167D01*
X35640477Y-55359167D02*
X36450000Y-55359167D01*
X36450000Y-54406786D02*
X36450000Y-54882976D01*
X36450000Y-54882976D02*
X35973810Y-54930595D01*
X35973810Y-54930595D02*
X36021429Y-54882976D01*
X36021429Y-54882976D02*
X36069048Y-54787738D01*
X36069048Y-54787738D02*
X36069048Y-54549643D01*
X36069048Y-54549643D02*
X36021429Y-54454405D01*
X36021429Y-54454405D02*
X35973810Y-54406786D01*
X35973810Y-54406786D02*
X35878572Y-54359167D01*
X35878572Y-54359167D02*
X35640477Y-54359167D01*
X35640477Y-54359167D02*
X35545239Y-54406786D01*
X35545239Y-54406786D02*
X35497620Y-54454405D01*
X35497620Y-54454405D02*
X35450000Y-54549643D01*
X35450000Y-54549643D02*
X35450000Y-54787738D01*
X35450000Y-54787738D02*
X35497620Y-54882976D01*
X35497620Y-54882976D02*
X35545239Y-54930595D01*
X36450000Y-53740119D02*
X36450000Y-53644881D01*
X36450000Y-53644881D02*
X36402381Y-53549643D01*
X36402381Y-53549643D02*
X36354762Y-53502024D01*
X36354762Y-53502024D02*
X36259524Y-53454405D01*
X36259524Y-53454405D02*
X36069048Y-53406786D01*
X36069048Y-53406786D02*
X35830953Y-53406786D01*
X35830953Y-53406786D02*
X35640477Y-53454405D01*
X35640477Y-53454405D02*
X35545239Y-53502024D01*
X35545239Y-53502024D02*
X35497620Y-53549643D01*
X35497620Y-53549643D02*
X35450000Y-53644881D01*
X35450000Y-53644881D02*
X35450000Y-53740119D01*
X35450000Y-53740119D02*
X35497620Y-53835357D01*
X35497620Y-53835357D02*
X35545239Y-53882976D01*
X35545239Y-53882976D02*
X35640477Y-53930595D01*
X35640477Y-53930595D02*
X35830953Y-53978214D01*
X35830953Y-53978214D02*
X36069048Y-53978214D01*
X36069048Y-53978214D02*
X36259524Y-53930595D01*
X36259524Y-53930595D02*
X36354762Y-53882976D01*
X36354762Y-53882976D02*
X36402381Y-53835357D01*
X36402381Y-53835357D02*
X36450000Y-53740119D01*
X35450000Y-52454405D02*
X35450000Y-53025833D01*
X35450000Y-52740119D02*
X36450000Y-52740119D01*
X36450000Y-52740119D02*
X36307143Y-52835357D01*
X36307143Y-52835357D02*
X36211905Y-52930595D01*
X36211905Y-52930595D02*
X36164286Y-53025833D01*
X25000000Y-53761905D02*
X24285715Y-53761905D01*
X24285715Y-53761905D02*
X24142858Y-53809524D01*
X24142858Y-53809524D02*
X24047620Y-53904762D01*
X24047620Y-53904762D02*
X24000000Y-54047619D01*
X24000000Y-54047619D02*
X24000000Y-54142857D01*
X25000000Y-52809524D02*
X25000000Y-53285714D01*
X25000000Y-53285714D02*
X24523810Y-53333333D01*
X24523810Y-53333333D02*
X24571429Y-53285714D01*
X24571429Y-53285714D02*
X24619048Y-53190476D01*
X24619048Y-53190476D02*
X24619048Y-52952381D01*
X24619048Y-52952381D02*
X24571429Y-52857143D01*
X24571429Y-52857143D02*
X24523810Y-52809524D01*
X24523810Y-52809524D02*
X24428572Y-52761905D01*
X24428572Y-52761905D02*
X24190477Y-52761905D01*
X24190477Y-52761905D02*
X24095239Y-52809524D01*
X24095239Y-52809524D02*
X24047620Y-52857143D01*
X24047620Y-52857143D02*
X24000000Y-52952381D01*
X24000000Y-52952381D02*
X24000000Y-53190476D01*
X24000000Y-53190476D02*
X24047620Y-53285714D01*
X24047620Y-53285714D02*
X24095239Y-53333333D01*
X25000000Y-52142857D02*
X25000000Y-52047619D01*
X25000000Y-52047619D02*
X24952381Y-51952381D01*
X24952381Y-51952381D02*
X24904762Y-51904762D01*
X24904762Y-51904762D02*
X24809524Y-51857143D01*
X24809524Y-51857143D02*
X24619048Y-51809524D01*
X24619048Y-51809524D02*
X24380953Y-51809524D01*
X24380953Y-51809524D02*
X24190477Y-51857143D01*
X24190477Y-51857143D02*
X24095239Y-51904762D01*
X24095239Y-51904762D02*
X24047620Y-51952381D01*
X24047620Y-51952381D02*
X24000000Y-52047619D01*
X24000000Y-52047619D02*
X24000000Y-52142857D01*
X24000000Y-52142857D02*
X24047620Y-52238095D01*
X24047620Y-52238095D02*
X24095239Y-52285714D01*
X24095239Y-52285714D02*
X24190477Y-52333333D01*
X24190477Y-52333333D02*
X24380953Y-52380952D01*
X24380953Y-52380952D02*
X24619048Y-52380952D01*
X24619048Y-52380952D02*
X24809524Y-52333333D01*
X24809524Y-52333333D02*
X24904762Y-52285714D01*
X24904762Y-52285714D02*
X24952381Y-52238095D01*
X24952381Y-52238095D02*
X25000000Y-52142857D01*
X24000000Y-50857143D02*
X24000000Y-51428571D01*
X24000000Y-51142857D02*
X25000000Y-51142857D01*
X25000000Y-51142857D02*
X24857143Y-51238095D01*
X24857143Y-51238095D02*
X24761905Y-51333333D01*
X24761905Y-51333333D02*
X24714286Y-51428571D01*
X50923810Y-36660000D02*
X51400000Y-36660000D01*
X51400000Y-36660000D02*
X51400000Y-35660000D01*
X50066667Y-36660000D02*
X50638095Y-36660000D01*
X50352381Y-36660000D02*
X50352381Y-35660000D01*
X50352381Y-35660000D02*
X50447619Y-35802857D01*
X50447619Y-35802857D02*
X50542857Y-35898095D01*
X50542857Y-35898095D02*
X50638095Y-35945714D01*
X49447619Y-35660000D02*
X49352381Y-35660000D01*
X49352381Y-35660000D02*
X49257143Y-35707619D01*
X49257143Y-35707619D02*
X49209524Y-35755238D01*
X49209524Y-35755238D02*
X49161905Y-35850476D01*
X49161905Y-35850476D02*
X49114286Y-36040952D01*
X49114286Y-36040952D02*
X49114286Y-36279047D01*
X49114286Y-36279047D02*
X49161905Y-36469523D01*
X49161905Y-36469523D02*
X49209524Y-36564761D01*
X49209524Y-36564761D02*
X49257143Y-36612381D01*
X49257143Y-36612381D02*
X49352381Y-36660000D01*
X49352381Y-36660000D02*
X49447619Y-36660000D01*
X49447619Y-36660000D02*
X49542857Y-36612381D01*
X49542857Y-36612381D02*
X49590476Y-36564761D01*
X49590476Y-36564761D02*
X49638095Y-36469523D01*
X49638095Y-36469523D02*
X49685714Y-36279047D01*
X49685714Y-36279047D02*
X49685714Y-36040952D01*
X49685714Y-36040952D02*
X49638095Y-35850476D01*
X49638095Y-35850476D02*
X49590476Y-35755238D01*
X49590476Y-35755238D02*
X49542857Y-35707619D01*
X49542857Y-35707619D02*
X49447619Y-35660000D01*
X48161905Y-36660000D02*
X48733333Y-36660000D01*
X48447619Y-36660000D02*
X48447619Y-35660000D01*
X48447619Y-35660000D02*
X48542857Y-35802857D01*
X48542857Y-35802857D02*
X48638095Y-35898095D01*
X48638095Y-35898095D02*
X48733333Y-35945714D01*
X68596944Y-56587809D02*
X68596944Y-55587809D01*
X68596944Y-55587809D02*
X68263611Y-56302094D01*
X68263611Y-56302094D02*
X67930278Y-55587809D01*
X67930278Y-55587809D02*
X67930278Y-56587809D01*
X67454087Y-56587809D02*
X67454087Y-55587809D01*
X66882659Y-56587809D02*
X67311230Y-56016380D01*
X66882659Y-55587809D02*
X67454087Y-56159237D01*
X66025516Y-55921142D02*
X66025516Y-56587809D01*
X66263611Y-55540190D02*
X66501706Y-56254475D01*
X66501706Y-56254475D02*
X65882659Y-56254475D01*
X65311230Y-55587809D02*
X65215992Y-55587809D01*
X65215992Y-55587809D02*
X65120754Y-55635428D01*
X65120754Y-55635428D02*
X65073135Y-55683047D01*
X65073135Y-55683047D02*
X65025516Y-55778285D01*
X65025516Y-55778285D02*
X64977897Y-55968761D01*
X64977897Y-55968761D02*
X64977897Y-56206856D01*
X64977897Y-56206856D02*
X65025516Y-56397332D01*
X65025516Y-56397332D02*
X65073135Y-56492570D01*
X65073135Y-56492570D02*
X65120754Y-56540190D01*
X65120754Y-56540190D02*
X65215992Y-56587809D01*
X65215992Y-56587809D02*
X65311230Y-56587809D01*
X65311230Y-56587809D02*
X65406468Y-56540190D01*
X65406468Y-56540190D02*
X65454087Y-56492570D01*
X65454087Y-56492570D02*
X65501706Y-56397332D01*
X65501706Y-56397332D02*
X65549325Y-56206856D01*
X65549325Y-56206856D02*
X65549325Y-55968761D01*
X65549325Y-55968761D02*
X65501706Y-55778285D01*
X65501706Y-55778285D02*
X65454087Y-55683047D01*
X65454087Y-55683047D02*
X65406468Y-55635428D01*
X65406468Y-55635428D02*
X65311230Y-55587809D01*
X64025516Y-56587809D02*
X64596944Y-56587809D01*
X64311230Y-56587809D02*
X64311230Y-55587809D01*
X64311230Y-55587809D02*
X64406468Y-55730666D01*
X64406468Y-55730666D02*
X64501706Y-55825904D01*
X64501706Y-55825904D02*
X64596944Y-55873523D01*
X26200000Y-41511905D02*
X25485715Y-41511905D01*
X25485715Y-41511905D02*
X25342858Y-41559524D01*
X25342858Y-41559524D02*
X25247620Y-41654762D01*
X25247620Y-41654762D02*
X25200000Y-41797619D01*
X25200000Y-41797619D02*
X25200000Y-41892857D01*
X26200000Y-41130952D02*
X26200000Y-40511905D01*
X26200000Y-40511905D02*
X25819048Y-40845238D01*
X25819048Y-40845238D02*
X25819048Y-40702381D01*
X25819048Y-40702381D02*
X25771429Y-40607143D01*
X25771429Y-40607143D02*
X25723810Y-40559524D01*
X25723810Y-40559524D02*
X25628572Y-40511905D01*
X25628572Y-40511905D02*
X25390477Y-40511905D01*
X25390477Y-40511905D02*
X25295239Y-40559524D01*
X25295239Y-40559524D02*
X25247620Y-40607143D01*
X25247620Y-40607143D02*
X25200000Y-40702381D01*
X25200000Y-40702381D02*
X25200000Y-40988095D01*
X25200000Y-40988095D02*
X25247620Y-41083333D01*
X25247620Y-41083333D02*
X25295239Y-41130952D01*
X26200000Y-39892857D02*
X26200000Y-39797619D01*
X26200000Y-39797619D02*
X26152381Y-39702381D01*
X26152381Y-39702381D02*
X26104762Y-39654762D01*
X26104762Y-39654762D02*
X26009524Y-39607143D01*
X26009524Y-39607143D02*
X25819048Y-39559524D01*
X25819048Y-39559524D02*
X25580953Y-39559524D01*
X25580953Y-39559524D02*
X25390477Y-39607143D01*
X25390477Y-39607143D02*
X25295239Y-39654762D01*
X25295239Y-39654762D02*
X25247620Y-39702381D01*
X25247620Y-39702381D02*
X25200000Y-39797619D01*
X25200000Y-39797619D02*
X25200000Y-39892857D01*
X25200000Y-39892857D02*
X25247620Y-39988095D01*
X25247620Y-39988095D02*
X25295239Y-40035714D01*
X25295239Y-40035714D02*
X25390477Y-40083333D01*
X25390477Y-40083333D02*
X25580953Y-40130952D01*
X25580953Y-40130952D02*
X25819048Y-40130952D01*
X25819048Y-40130952D02*
X26009524Y-40083333D01*
X26009524Y-40083333D02*
X26104762Y-40035714D01*
X26104762Y-40035714D02*
X26152381Y-39988095D01*
X26152381Y-39988095D02*
X26200000Y-39892857D01*
X26200000Y-39226190D02*
X26200000Y-38607143D01*
X26200000Y-38607143D02*
X25819048Y-38940476D01*
X25819048Y-38940476D02*
X25819048Y-38797619D01*
X25819048Y-38797619D02*
X25771429Y-38702381D01*
X25771429Y-38702381D02*
X25723810Y-38654762D01*
X25723810Y-38654762D02*
X25628572Y-38607143D01*
X25628572Y-38607143D02*
X25390477Y-38607143D01*
X25390477Y-38607143D02*
X25295239Y-38654762D01*
X25295239Y-38654762D02*
X25247620Y-38702381D01*
X25247620Y-38702381D02*
X25200000Y-38797619D01*
X25200000Y-38797619D02*
X25200000Y-39083333D01*
X25200000Y-39083333D02*
X25247620Y-39178571D01*
X25247620Y-39178571D02*
X25295239Y-39226190D01*
X65377143Y-54160000D02*
X65710476Y-53683809D01*
X65948571Y-54160000D02*
X65948571Y-53160000D01*
X65948571Y-53160000D02*
X65567619Y-53160000D01*
X65567619Y-53160000D02*
X65472381Y-53207619D01*
X65472381Y-53207619D02*
X65424762Y-53255238D01*
X65424762Y-53255238D02*
X65377143Y-53350476D01*
X65377143Y-53350476D02*
X65377143Y-53493333D01*
X65377143Y-53493333D02*
X65424762Y-53588571D01*
X65424762Y-53588571D02*
X65472381Y-53636190D01*
X65472381Y-53636190D02*
X65567619Y-53683809D01*
X65567619Y-53683809D02*
X65948571Y-53683809D01*
X64996190Y-53255238D02*
X64948571Y-53207619D01*
X64948571Y-53207619D02*
X64853333Y-53160000D01*
X64853333Y-53160000D02*
X64615238Y-53160000D01*
X64615238Y-53160000D02*
X64520000Y-53207619D01*
X64520000Y-53207619D02*
X64472381Y-53255238D01*
X64472381Y-53255238D02*
X64424762Y-53350476D01*
X64424762Y-53350476D02*
X64424762Y-53445714D01*
X64424762Y-53445714D02*
X64472381Y-53588571D01*
X64472381Y-53588571D02*
X65043809Y-54160000D01*
X65043809Y-54160000D02*
X64424762Y-54160000D01*
X63805714Y-53160000D02*
X63710476Y-53160000D01*
X63710476Y-53160000D02*
X63615238Y-53207619D01*
X63615238Y-53207619D02*
X63567619Y-53255238D01*
X63567619Y-53255238D02*
X63520000Y-53350476D01*
X63520000Y-53350476D02*
X63472381Y-53540952D01*
X63472381Y-53540952D02*
X63472381Y-53779047D01*
X63472381Y-53779047D02*
X63520000Y-53969523D01*
X63520000Y-53969523D02*
X63567619Y-54064761D01*
X63567619Y-54064761D02*
X63615238Y-54112381D01*
X63615238Y-54112381D02*
X63710476Y-54160000D01*
X63710476Y-54160000D02*
X63805714Y-54160000D01*
X63805714Y-54160000D02*
X63900952Y-54112381D01*
X63900952Y-54112381D02*
X63948571Y-54064761D01*
X63948571Y-54064761D02*
X63996190Y-53969523D01*
X63996190Y-53969523D02*
X64043809Y-53779047D01*
X64043809Y-53779047D02*
X64043809Y-53540952D01*
X64043809Y-53540952D02*
X63996190Y-53350476D01*
X63996190Y-53350476D02*
X63948571Y-53255238D01*
X63948571Y-53255238D02*
X63900952Y-53207619D01*
X63900952Y-53207619D02*
X63805714Y-53160000D01*
X62567619Y-53160000D02*
X63043809Y-53160000D01*
X63043809Y-53160000D02*
X63091428Y-53636190D01*
X63091428Y-53636190D02*
X63043809Y-53588571D01*
X63043809Y-53588571D02*
X62948571Y-53540952D01*
X62948571Y-53540952D02*
X62710476Y-53540952D01*
X62710476Y-53540952D02*
X62615238Y-53588571D01*
X62615238Y-53588571D02*
X62567619Y-53636190D01*
X62567619Y-53636190D02*
X62520000Y-53731428D01*
X62520000Y-53731428D02*
X62520000Y-53969523D01*
X62520000Y-53969523D02*
X62567619Y-54064761D01*
X62567619Y-54064761D02*
X62615238Y-54112381D01*
X62615238Y-54112381D02*
X62710476Y-54160000D01*
X62710476Y-54160000D02*
X62948571Y-54160000D01*
X62948571Y-54160000D02*
X63043809Y-54112381D01*
X63043809Y-54112381D02*
X63091428Y-54064761D01*
X33045595Y-43297619D02*
X33045595Y-42297619D01*
X33045595Y-42297619D02*
X32807500Y-42297619D01*
X32807500Y-42297619D02*
X32664643Y-42345238D01*
X32664643Y-42345238D02*
X32569405Y-42440476D01*
X32569405Y-42440476D02*
X32521786Y-42535714D01*
X32521786Y-42535714D02*
X32474167Y-42726190D01*
X32474167Y-42726190D02*
X32474167Y-42869047D01*
X32474167Y-42869047D02*
X32521786Y-43059523D01*
X32521786Y-43059523D02*
X32569405Y-43154761D01*
X32569405Y-43154761D02*
X32664643Y-43250000D01*
X32664643Y-43250000D02*
X32807500Y-43297619D01*
X32807500Y-43297619D02*
X33045595Y-43297619D01*
X32140833Y-42297619D02*
X31521786Y-42297619D01*
X31521786Y-42297619D02*
X31855119Y-42678571D01*
X31855119Y-42678571D02*
X31712262Y-42678571D01*
X31712262Y-42678571D02*
X31617024Y-42726190D01*
X31617024Y-42726190D02*
X31569405Y-42773809D01*
X31569405Y-42773809D02*
X31521786Y-42869047D01*
X31521786Y-42869047D02*
X31521786Y-43107142D01*
X31521786Y-43107142D02*
X31569405Y-43202380D01*
X31569405Y-43202380D02*
X31617024Y-43250000D01*
X31617024Y-43250000D02*
X31712262Y-43297619D01*
X31712262Y-43297619D02*
X31997976Y-43297619D01*
X31997976Y-43297619D02*
X32093214Y-43250000D01*
X32093214Y-43250000D02*
X32140833Y-43202380D01*
X30902738Y-42297619D02*
X30807500Y-42297619D01*
X30807500Y-42297619D02*
X30712262Y-42345238D01*
X30712262Y-42345238D02*
X30664643Y-42392857D01*
X30664643Y-42392857D02*
X30617024Y-42488095D01*
X30617024Y-42488095D02*
X30569405Y-42678571D01*
X30569405Y-42678571D02*
X30569405Y-42916666D01*
X30569405Y-42916666D02*
X30617024Y-43107142D01*
X30617024Y-43107142D02*
X30664643Y-43202380D01*
X30664643Y-43202380D02*
X30712262Y-43250000D01*
X30712262Y-43250000D02*
X30807500Y-43297619D01*
X30807500Y-43297619D02*
X30902738Y-43297619D01*
X30902738Y-43297619D02*
X30997976Y-43250000D01*
X30997976Y-43250000D02*
X31045595Y-43202380D01*
X31045595Y-43202380D02*
X31093214Y-43107142D01*
X31093214Y-43107142D02*
X31140833Y-42916666D01*
X31140833Y-42916666D02*
X31140833Y-42678571D01*
X31140833Y-42678571D02*
X31093214Y-42488095D01*
X31093214Y-42488095D02*
X31045595Y-42392857D01*
X31045595Y-42392857D02*
X30997976Y-42345238D01*
X30997976Y-42345238D02*
X30902738Y-42297619D01*
X29712262Y-42630952D02*
X29712262Y-43297619D01*
X29950357Y-42250000D02*
X30188452Y-42964285D01*
X30188452Y-42964285D02*
X29569405Y-42964285D01*
X43699048Y-26860000D02*
X43699048Y-27574285D01*
X43699048Y-27574285D02*
X43746667Y-27717142D01*
X43746667Y-27717142D02*
X43841905Y-27812381D01*
X43841905Y-27812381D02*
X43984762Y-27860000D01*
X43984762Y-27860000D02*
X44080000Y-27860000D01*
X42699048Y-27860000D02*
X43270476Y-27860000D01*
X42984762Y-27860000D02*
X42984762Y-26860000D01*
X42984762Y-26860000D02*
X43080000Y-27002857D01*
X43080000Y-27002857D02*
X43175238Y-27098095D01*
X43175238Y-27098095D02*
X43270476Y-27145714D01*
X42080000Y-26860000D02*
X41984762Y-26860000D01*
X41984762Y-26860000D02*
X41889524Y-26907619D01*
X41889524Y-26907619D02*
X41841905Y-26955238D01*
X41841905Y-26955238D02*
X41794286Y-27050476D01*
X41794286Y-27050476D02*
X41746667Y-27240952D01*
X41746667Y-27240952D02*
X41746667Y-27479047D01*
X41746667Y-27479047D02*
X41794286Y-27669523D01*
X41794286Y-27669523D02*
X41841905Y-27764761D01*
X41841905Y-27764761D02*
X41889524Y-27812381D01*
X41889524Y-27812381D02*
X41984762Y-27860000D01*
X41984762Y-27860000D02*
X42080000Y-27860000D01*
X42080000Y-27860000D02*
X42175238Y-27812381D01*
X42175238Y-27812381D02*
X42222857Y-27764761D01*
X42222857Y-27764761D02*
X42270476Y-27669523D01*
X42270476Y-27669523D02*
X42318095Y-27479047D01*
X42318095Y-27479047D02*
X42318095Y-27240952D01*
X42318095Y-27240952D02*
X42270476Y-27050476D01*
X42270476Y-27050476D02*
X42222857Y-26955238D01*
X42222857Y-26955238D02*
X42175238Y-26907619D01*
X42175238Y-26907619D02*
X42080000Y-26860000D01*
X40794286Y-27860000D02*
X41365714Y-27860000D01*
X41080000Y-27860000D02*
X41080000Y-26860000D01*
X41080000Y-26860000D02*
X41175238Y-27002857D01*
X41175238Y-27002857D02*
X41270476Y-27098095D01*
X41270476Y-27098095D02*
X41365714Y-27145714D01*
%TO.C,Q301*%
D14*
X39640000Y-44840000D02*
X39640000Y-44890000D01*
X39640000Y-46010000D02*
X39640000Y-46790000D01*
X39640000Y-47910000D02*
X39640000Y-47960000D01*
X39640000Y-47960000D02*
X41160000Y-47960000D01*
X41160000Y-44840000D02*
X39640000Y-44840000D01*
X41160000Y-45840000D02*
X41160000Y-44840000D01*
X41160000Y-47960000D02*
X41160000Y-46960000D01*
X39100000Y-46780000D02*
X39340000Y-46450000D01*
X38860000Y-46450000D01*
X39100000Y-46780000D01*
G36*
X39100000Y-46780000D02*
G01*
X38860000Y-46450000D01*
X39340000Y-46450000D01*
X39100000Y-46780000D01*
G37*
%TO.C,C501*%
X28290000Y-55540580D02*
X28290000Y-55259420D01*
X29310000Y-55540580D02*
X29310000Y-55259420D01*
%TO.C,C203*%
X37940000Y-68407836D02*
X37940000Y-68192164D01*
X38660000Y-68407836D02*
X38660000Y-68192164D01*
%TO.C,C504*%
X35240000Y-59507836D02*
X35240000Y-59292164D01*
X35960000Y-59507836D02*
X35960000Y-59292164D01*
%TO.C,R108*%
X67350000Y-41362064D02*
X67350000Y-39907936D01*
X69170000Y-41362064D02*
X69170000Y-39907936D01*
%TO.C,R101*%
X48020000Y-30346359D02*
X48020000Y-30653641D01*
X48780000Y-30346359D02*
X48780000Y-30653641D01*
%TO.C,D502*%
D11*
X62055860Y-24314506D02*
X61625818Y-25434802D01*
%TO.C,C109*%
D14*
X39940000Y-43327836D02*
X39940000Y-43112164D01*
X40660000Y-43327836D02*
X40660000Y-43112164D01*
%TO.C,R110*%
X70596359Y-41870000D02*
X70903641Y-41870000D01*
X70596359Y-42630000D02*
X70903641Y-42630000D01*
%TO.C,U104*%
X51380000Y-38500000D02*
X51380000Y-38800000D01*
X51380000Y-39500000D02*
X51380000Y-39200000D01*
X54620000Y-38500000D02*
X54620000Y-38800000D01*
X54620000Y-39500000D02*
X54620000Y-39200000D01*
D15*
X54780000Y-40430000D02*
G75*
G02*
X54680000Y-40430000I-50000J0D01*
G01*
X54680000Y-40430000D02*
G75*
G02*
X54780000Y-40430000I50000J0D01*
G01*
%TO.C,R111*%
D14*
X54720000Y-41653641D02*
X54720000Y-41346359D01*
X55480000Y-41653641D02*
X55480000Y-41346359D01*
%TO.C,R114*%
X52120000Y-41346359D02*
X52120000Y-41653641D01*
X52880000Y-41346359D02*
X52880000Y-41653641D01*
%TO.C,R105*%
X62396359Y-34780000D02*
X62703641Y-34780000D01*
X62396359Y-35540000D02*
X62703641Y-35540000D01*
%TO.C,C406*%
X72734000Y-58775836D02*
X72734000Y-58560164D01*
X73454000Y-58775836D02*
X73454000Y-58560164D01*
%TO.C,U103*%
X64704432Y-36935000D02*
X66510000Y-36935000D01*
X66510000Y-34665000D02*
X64290000Y-34665000D01*
X64410000Y-36940000D02*
X64270000Y-37130000D01*
X64550000Y-37130000D01*
X64410000Y-36940000D01*
G36*
X64550000Y-37130000D02*
G01*
X64270000Y-37130000D01*
X64410000Y-36940000D01*
X64550000Y-37130000D01*
G37*
%TO.C,C101*%
X59032164Y-34740000D02*
X59247836Y-34740000D01*
X59032164Y-35460000D02*
X59247836Y-35460000D01*
%TO.C,R203*%
X33283000Y-37213641D02*
X33283000Y-36906359D01*
X34043000Y-37213641D02*
X34043000Y-36906359D01*
%TO.C,Q101*%
X64340000Y-37615000D02*
X64340000Y-37665000D01*
X64340000Y-38785000D02*
X64340000Y-39565000D01*
X64340000Y-40685000D02*
X64340000Y-40735000D01*
X64340000Y-40735000D02*
X65860000Y-40735000D01*
X65860000Y-37615000D02*
X64340000Y-37615000D01*
X65860000Y-38615000D02*
X65860000Y-37615000D01*
X65860000Y-40735000D02*
X65860000Y-39735000D01*
X63800000Y-39555000D02*
X64040000Y-39225000D01*
X63560000Y-39225000D01*
X63800000Y-39555000D01*
G36*
X63800000Y-39555000D02*
G01*
X63560000Y-39225000D01*
X64040000Y-39225000D01*
X63800000Y-39555000D01*
G37*
%TO.C,C102*%
X55060000Y-36080580D02*
X55060000Y-35799420D01*
X56080000Y-36080580D02*
X56080000Y-35799420D01*
%TO.C,R212*%
X65146359Y-32920000D02*
X65453641Y-32920000D01*
X65146359Y-33680000D02*
X65453641Y-33680000D01*
%TO.C,R109*%
X63870000Y-41846359D02*
X63870000Y-42153641D01*
X64630000Y-41846359D02*
X64630000Y-42153641D01*
%TO.C,C205*%
X40837836Y-39440000D02*
X40622164Y-39440000D01*
X40837836Y-40160000D02*
X40622164Y-40160000D01*
%TO.C,C106*%
X49920000Y-38859420D02*
X49920000Y-39140580D01*
X50940000Y-38859420D02*
X50940000Y-39140580D01*
%TO.C,U502*%
X32790000Y-60790000D02*
X32790000Y-60965000D01*
X32790000Y-63835000D02*
X32790000Y-64010000D01*
X32790000Y-64010000D02*
X36010000Y-64010000D01*
X36010000Y-60790000D02*
X32790000Y-60790000D01*
X36010000Y-60965000D02*
X36010000Y-60790000D01*
X36010000Y-64010000D02*
X36010000Y-63835000D01*
X36560000Y-60960000D02*
X36800000Y-60630000D01*
X36320000Y-60630000D01*
X36560000Y-60960000D01*
G36*
X36560000Y-60960000D02*
G01*
X36320000Y-60630000D01*
X36800000Y-60630000D01*
X36560000Y-60960000D01*
G37*
%TO.C,R104*%
X57020000Y-35193641D02*
X57020000Y-34886359D01*
X57780000Y-35193641D02*
X57780000Y-34886359D01*
%TO.C,R209*%
X37220000Y-64696359D02*
X37220000Y-65003641D01*
X37980000Y-64696359D02*
X37980000Y-65003641D01*
%TO.C,C201*%
X36740580Y-69640000D02*
X36459420Y-69640000D01*
X36740580Y-70660000D02*
X36459420Y-70660000D01*
%TO.C,C505*%
X60540580Y-32590000D02*
X60259420Y-32590000D01*
X60540580Y-33610000D02*
X60259420Y-33610000D01*
%TO.C,C407*%
X71230000Y-59412164D02*
X71230000Y-59627836D01*
X71950000Y-59412164D02*
X71950000Y-59627836D01*
%TO.C,Q501*%
X58040000Y-28040000D02*
X58040000Y-29560000D01*
X58040000Y-29560000D02*
X58090000Y-29560000D01*
X59040000Y-28040000D02*
X58040000Y-28040000D01*
X59210000Y-29560000D02*
X59990000Y-29560000D01*
X61110000Y-29560000D02*
X61160000Y-29560000D01*
X61160000Y-28040000D02*
X60160000Y-28040000D01*
X61160000Y-29560000D02*
X61160000Y-28040000D01*
X59980000Y-30100000D02*
X59650000Y-29860000D01*
X59650000Y-30340000D01*
X59980000Y-30100000D01*
G36*
X59980000Y-30100000D02*
G01*
X59650000Y-30340000D01*
X59650000Y-29860000D01*
X59980000Y-30100000D01*
G37*
%TO.C,R112*%
X53620000Y-41346359D02*
X53620000Y-41653641D01*
X54380000Y-41346359D02*
X54380000Y-41653641D01*
%TO.C,J102*%
X66650000Y-44500000D02*
X67700000Y-44500000D01*
X66650000Y-47000000D02*
X66650000Y-44500000D01*
X70700000Y-48970000D02*
X67820000Y-48970000D01*
X70820000Y-44500000D02*
X70820000Y-43510000D01*
X71870000Y-44500000D02*
X70820000Y-44500000D01*
X71870000Y-47000000D02*
X71870000Y-44500000D01*
%TO.C,C502*%
X29940000Y-54707836D02*
X29940000Y-54492164D01*
X30660000Y-54707836D02*
X30660000Y-54492164D01*
%TO.C,C104*%
X63377836Y-33640000D02*
X63162164Y-33640000D01*
X63377836Y-34360000D02*
X63162164Y-34360000D01*
%TO.C,R213*%
X59060000Y-47146359D02*
X59060000Y-47453641D01*
X59820000Y-47146359D02*
X59820000Y-47453641D01*
%TO.C,R103*%
X62396359Y-35820000D02*
X62703641Y-35820000D01*
X62396359Y-36580000D02*
X62703641Y-36580000D01*
%TO.C,J503*%
D11*
X30499994Y-63596401D02*
X30171364Y-62978337D01*
X30644711Y-63123054D02*
X30026647Y-63451684D01*
%TO.C,R106*%
D14*
X58870000Y-41596359D02*
X58870000Y-41903641D01*
X59630000Y-41596359D02*
X59630000Y-41903641D01*
%TO.C,J201*%
X63930000Y-68870000D02*
X63930000Y-69505000D01*
X63930000Y-69505000D02*
X64565000Y-69505000D01*
%TO.C,C503*%
X32892164Y-59640000D02*
X33107836Y-59640000D01*
X32892164Y-60360000D02*
X33107836Y-60360000D01*
%TO.C,R204*%
X34583000Y-36193641D02*
X34583000Y-35886359D01*
X35343000Y-36193641D02*
X35343000Y-35886359D01*
%TO.C,D501*%
D11*
X41771818Y-22845198D02*
X42201860Y-23965494D01*
%TO.C,R502*%
D14*
X56104500Y-26164258D02*
X56104500Y-25689742D01*
X57149500Y-26164258D02*
X57149500Y-25689742D01*
%TO.C,C202*%
X39142164Y-70690000D02*
X39357836Y-70690000D01*
X39142164Y-71410000D02*
X39357836Y-71410000D01*
%TO.C,U105*%
X35490000Y-41040000D02*
X35490000Y-41090000D01*
X35490000Y-44110000D02*
X35490000Y-44160000D01*
X35490000Y-44160000D02*
X37310000Y-44160000D01*
X37310000Y-41040000D02*
X35490000Y-41040000D01*
X37310000Y-41090000D02*
X37310000Y-41040000D01*
X37310000Y-44160000D02*
X37310000Y-44110000D01*
X34950000Y-44110000D02*
X34710000Y-44440000D01*
X35190000Y-44440000D01*
X34950000Y-44110000D01*
G36*
X35190000Y-44440000D02*
G01*
X34710000Y-44440000D01*
X34950000Y-44110000D01*
X35190000Y-44440000D01*
G37*
%TO.C,R504*%
X61770000Y-29380641D02*
X61770000Y-29073359D01*
X62530000Y-29380641D02*
X62530000Y-29073359D01*
%TO.C,U202*%
X39390000Y-35290000D02*
X39390000Y-35765000D01*
X39390000Y-38035000D02*
X39390000Y-38510000D01*
X39390000Y-38510000D02*
X39865000Y-38510000D01*
X39865000Y-35290000D02*
X39390000Y-35290000D01*
X42135000Y-38510000D02*
X42610000Y-38510000D01*
X42610000Y-35290000D02*
X42135000Y-35290000D01*
X42610000Y-35765000D02*
X42610000Y-35290000D01*
X42610000Y-38510000D02*
X42610000Y-38035000D01*
X38860000Y-37650000D02*
X38530000Y-37410000D01*
X38530000Y-37890000D01*
X38860000Y-37650000D01*
G36*
X38860000Y-37650000D02*
G01*
X38530000Y-37890000D01*
X38530000Y-37410000D01*
X38860000Y-37650000D01*
G37*
%TO.C,C107*%
X48380000Y-38859420D02*
X48380000Y-39140580D01*
X49400000Y-38859420D02*
X49400000Y-39140580D01*
%TO.C,U102*%
X57800000Y-36615000D02*
X57800000Y-37090000D01*
X57800000Y-39360000D02*
X57800000Y-39835000D01*
X57800000Y-39835000D02*
X58275000Y-39835000D01*
X58275000Y-36615000D02*
X57800000Y-36615000D01*
X60545000Y-39835000D02*
X61020000Y-39835000D01*
X61020000Y-36615000D02*
X60545000Y-36615000D01*
X61020000Y-37090000D02*
X61020000Y-36615000D01*
X61020000Y-39835000D02*
X61020000Y-39360000D01*
X61550000Y-37475000D02*
X61880000Y-37715000D01*
X61880000Y-37235000D01*
X61550000Y-37475000D01*
G36*
X61880000Y-37715000D02*
G01*
X61550000Y-37475000D01*
X61880000Y-37235000D01*
X61880000Y-37715000D01*
G37*
%TO.C,U201*%
X40800000Y-53000000D02*
X42300000Y-53000000D01*
X40800000Y-54000000D02*
X40800000Y-53000000D01*
X59200000Y-53000000D02*
X57700000Y-53000000D01*
X59200000Y-53000000D02*
X59200000Y-54000000D01*
%TO.C,D101*%
X52290000Y-29490000D02*
X56050000Y-29490000D01*
X52290000Y-31510000D02*
X52290000Y-29490000D01*
X52290000Y-31510000D02*
X56050000Y-31510000D01*
%TO.C,R402*%
X70014000Y-59811641D02*
X70014000Y-59504359D01*
X70774000Y-59811641D02*
X70774000Y-59504359D01*
%TO.C,U501*%
X31390000Y-52390000D02*
X31390000Y-52865000D01*
X31390000Y-55135000D02*
X31390000Y-55610000D01*
X31390000Y-55610000D02*
X31865000Y-55610000D01*
X31865000Y-52390000D02*
X31390000Y-52390000D01*
X34135000Y-55610000D02*
X34610000Y-55610000D01*
X34610000Y-52390000D02*
X34135000Y-52390000D01*
X34610000Y-52865000D02*
X34610000Y-52390000D01*
X34610000Y-55610000D02*
X34610000Y-55135000D01*
X33750000Y-56120000D02*
X33510000Y-56450000D01*
X33990000Y-56450000D01*
X33750000Y-56120000D01*
G36*
X33990000Y-56450000D02*
G01*
X33510000Y-56450000D01*
X33750000Y-56120000D01*
X33990000Y-56450000D01*
G37*
%TO.C,R304*%
X37149359Y-46970000D02*
X37456641Y-46970000D01*
X37149359Y-47730000D02*
X37456641Y-47730000D01*
%TO.C,C204*%
X35803000Y-36177836D02*
X35803000Y-35962164D01*
X36523000Y-36177836D02*
X36523000Y-35962164D01*
%TO.C,C105*%
X55060000Y-38859420D02*
X55060000Y-39140580D01*
X56080000Y-38859420D02*
X56080000Y-39140580D01*
%TO.C,R303*%
X41815500Y-44212258D02*
X41815500Y-43737742D01*
X42860500Y-44212258D02*
X42860500Y-43737742D01*
%TO.C,R305*%
X37383000Y-45743641D02*
X37383000Y-45436359D01*
X38143000Y-45743641D02*
X38143000Y-45436359D01*
%TO.C,R116*%
X34883000Y-39793641D02*
X34883000Y-39486359D01*
X35643000Y-39793641D02*
X35643000Y-39486359D01*
%TO.C,R308*%
X60696359Y-70920000D02*
X61003641Y-70920000D01*
X60696359Y-71680000D02*
X61003641Y-71680000D01*
%TO.C,R107*%
X43470000Y-35053641D02*
X43470000Y-34746359D01*
X44230000Y-35053641D02*
X44230000Y-34746359D01*
%TO.C,R115*%
X38670000Y-42926359D02*
X38670000Y-43233641D01*
X39430000Y-42926359D02*
X39430000Y-43233641D01*
%TO.C,R301*%
X48985000Y-51393641D02*
X48985000Y-51086359D01*
X49745000Y-51393641D02*
X49745000Y-51086359D01*
%TO.C,R207*%
X39220000Y-53893641D02*
X39220000Y-53586359D01*
X39980000Y-53893641D02*
X39980000Y-53586359D01*
%TO.C,R113*%
X51020000Y-41653641D02*
X51020000Y-41346359D01*
X51780000Y-41653641D02*
X51780000Y-41346359D01*
%TO.C,R501*%
X38150500Y-27740258D02*
X38150500Y-27265742D01*
X39195500Y-27740258D02*
X39195500Y-27265742D01*
%TO.C,L101*%
X51890000Y-37470000D02*
X54110000Y-37470000D01*
X54110000Y-35350000D02*
X51890000Y-35350000D01*
%TO.C,R208*%
X31870000Y-57430641D02*
X31870000Y-57123359D01*
X32630000Y-57430641D02*
X32630000Y-57123359D01*
%TO.C,R302*%
X47715000Y-51393641D02*
X47715000Y-51086359D01*
X48475000Y-51393641D02*
X48475000Y-51086359D01*
%TO.C,MK401*%
X69539476Y-57537720D02*
X72019531Y-58248866D01*
X70276469Y-53879134D02*
X69333789Y-57166650D01*
X72019531Y-58248866D02*
X73044902Y-54672971D01*
X73044902Y-54672971D02*
X70276469Y-53879134D01*
X69251098Y-57455029D02*
X68981944Y-57377851D01*
X69173919Y-57724182D01*
X69251098Y-57455029D01*
G36*
X69251098Y-57455029D02*
G01*
X69173919Y-57724182D01*
X68981944Y-57377851D01*
X69251098Y-57455029D01*
G37*
%TO.C,R201*%
X39170000Y-69453641D02*
X39170000Y-69146359D01*
X39930000Y-69453641D02*
X39930000Y-69146359D01*
%TO.C,R202*%
X60020000Y-53096359D02*
X60020000Y-53403641D01*
X60780000Y-53096359D02*
X60780000Y-53403641D01*
%TO.C,R205*%
X61320000Y-52563641D02*
X61320000Y-52256359D01*
X62080000Y-52563641D02*
X62080000Y-52256359D01*
%TO.C,R403*%
X61706359Y-55190000D02*
X62013641Y-55190000D01*
X61706359Y-55950000D02*
X62013641Y-55950000D01*
%TO.C,R214*%
X57820000Y-47146359D02*
X57820000Y-47453641D01*
X58580000Y-47146359D02*
X58580000Y-47453641D01*
%TO.C,C108*%
X37180000Y-40057836D02*
X37180000Y-39842164D01*
X37900000Y-40057836D02*
X37900000Y-39842164D01*
%TO.C,R206*%
X46283641Y-36770000D02*
X45976359Y-36770000D01*
X46283641Y-37530000D02*
X45976359Y-37530000D01*
%TO.C,D304*%
D12*
X29230000Y-41200000D02*
G75*
G02*
X29070000Y-41200000I-80000J0D01*
G01*
X29070000Y-41200000D02*
G75*
G02*
X29230000Y-41200000I80000J0D01*
G01*
%TO.C,J101*%
D14*
X45300000Y-22050000D02*
X45300000Y-21641500D01*
X45300000Y-25950000D02*
X45300000Y-23950000D01*
X54700000Y-22050000D02*
X54700000Y-21641500D01*
X54700000Y-25950000D02*
X54700000Y-23950000D01*
%TO.C,R503*%
X59886359Y-31058000D02*
X60193641Y-31058000D01*
X59886359Y-31818000D02*
X60193641Y-31818000D01*
%TO.C,C103*%
X61840000Y-38859420D02*
X61840000Y-39140580D01*
X62860000Y-38859420D02*
X62860000Y-39140580D01*
%TO.C,R102*%
X51520000Y-32596359D02*
X51520000Y-32903641D01*
X52280000Y-32596359D02*
X52280000Y-32903641D01*
%TD*%
%LPC*%
D16*
%TO.C,H2*%
X68579000Y-33272000D03*
%TD*%
D17*
%TO.C,H3*%
X32322000Y-67678000D03*
%TD*%
D16*
%TO.C,H1*%
X31421000Y-33272000D03*
%TD*%
D18*
%TO.C,Q301*%
X39462500Y-47350000D03*
X39462500Y-45450000D03*
X41337500Y-46400000D03*
%TD*%
D19*
%TO.C,C501*%
X28800000Y-56175000D03*
X28800000Y-54625000D03*
%TD*%
D20*
%TO.C,TP2*%
X56000000Y-44300000D03*
%TD*%
D21*
%TO.C,C203*%
X38300000Y-68780000D03*
X38300000Y-67820000D03*
%TD*%
%TO.C,C504*%
X35600000Y-59880000D03*
X35600000Y-58920000D03*
%TD*%
D22*
%TO.C,R108*%
X68260000Y-42097500D03*
X68260000Y-39172500D03*
%TD*%
D23*
%TO.C,R101*%
X48400000Y-29990000D03*
X48400000Y-31010000D03*
%TD*%
D24*
%TO.C,D502*%
X61327371Y-24677552D03*
X58526629Y-23602448D03*
%TD*%
D21*
%TO.C,C109*%
X40300000Y-43700000D03*
X40300000Y-42740000D03*
%TD*%
D25*
%TO.C,R110*%
X70240000Y-42250000D03*
X71260000Y-42250000D03*
%TD*%
D26*
%TO.C,U104*%
X54000000Y-39900000D03*
X53500000Y-39900000D03*
X53000000Y-39900000D03*
X52500000Y-39900000D03*
X52000000Y-39900000D03*
D27*
X52000000Y-38250000D03*
X52500000Y-38250000D03*
D28*
X53000000Y-38450000D03*
D27*
X53500000Y-38250000D03*
X54000000Y-38250000D03*
%TD*%
D20*
%TO.C,TP6*%
X55500000Y-33050000D03*
%TD*%
D29*
%TO.C,R111*%
X55100000Y-42010000D03*
X55100000Y-40990000D03*
%TD*%
D23*
%TO.C,R114*%
X52500000Y-40990000D03*
X52500000Y-42010000D03*
%TD*%
D25*
%TO.C,R105*%
X62040000Y-35160000D03*
X63060000Y-35160000D03*
%TD*%
D21*
%TO.C,C406*%
X73094000Y-59148000D03*
X73094000Y-58188000D03*
%TD*%
D30*
%TO.C,U103*%
X64412500Y-36550000D03*
X64412500Y-36050000D03*
X64412500Y-35550000D03*
X64412500Y-35050000D03*
X66387500Y-35050000D03*
X66387500Y-35550000D03*
X66387500Y-36050000D03*
X66387500Y-36550000D03*
D31*
X65400000Y-35800000D03*
%TD*%
D32*
%TO.C,C101*%
X58660000Y-35100000D03*
X59620000Y-35100000D03*
%TD*%
D33*
%TO.C,TP14*%
X72094000Y-61748000D03*
%TD*%
%TO.C,TP10*%
X56000000Y-47300000D03*
%TD*%
D29*
%TO.C,R203*%
X33663000Y-37570000D03*
X33663000Y-36550000D03*
%TD*%
D18*
%TO.C,Q101*%
X64162500Y-40125000D03*
X64162500Y-38225000D03*
X66037500Y-39175000D03*
%TD*%
D19*
%TO.C,C102*%
X55570000Y-36715000D03*
X55570000Y-35165000D03*
%TD*%
D25*
%TO.C,R212*%
X64790000Y-33300000D03*
X65810000Y-33300000D03*
%TD*%
D17*
%TO.C,FID6*%
X69800000Y-65400000D03*
%TD*%
D23*
%TO.C,R109*%
X64250000Y-41490000D03*
X64250000Y-42510000D03*
%TD*%
D34*
%TO.C,C205*%
X41210000Y-39800000D03*
X40250000Y-39800000D03*
%TD*%
D35*
%TO.C,C106*%
X50430000Y-38225000D03*
X50430000Y-39775000D03*
%TD*%
D36*
%TO.C,U502*%
X36500000Y-61400000D03*
X36500000Y-61900000D03*
X36500000Y-62400000D03*
X36500000Y-62900000D03*
X36500000Y-63400000D03*
X32300000Y-63400000D03*
X32300000Y-62900000D03*
X32300000Y-62400000D03*
X32300000Y-61900000D03*
X32300000Y-61400000D03*
%TD*%
D37*
%TO.C,J502*%
X26400000Y-46800000D03*
%TD*%
D29*
%TO.C,R104*%
X57400000Y-35550000D03*
X57400000Y-34530000D03*
%TD*%
D33*
%TO.C,TP8*%
X61600000Y-50300000D03*
%TD*%
D20*
%TO.C,TP4*%
X61600000Y-44300000D03*
%TD*%
D23*
%TO.C,R209*%
X37600000Y-64340000D03*
X37600000Y-65360000D03*
%TD*%
D38*
%TO.C,C201*%
X37375000Y-70150000D03*
X35825000Y-70150000D03*
%TD*%
%TO.C,C505*%
X61175000Y-33100000D03*
X59625000Y-33100000D03*
%TD*%
D39*
%TO.C,C407*%
X71590000Y-59040000D03*
X71590000Y-60000000D03*
%TD*%
D40*
%TO.C,Q501*%
X60550000Y-29737500D03*
X58650000Y-29737500D03*
X59600000Y-27862500D03*
%TD*%
D23*
%TO.C,R112*%
X54000000Y-40990000D03*
X54000000Y-42010000D03*
%TD*%
D41*
%TO.C,J102*%
X70260000Y-44285000D03*
X69260000Y-44285000D03*
X68260000Y-44285000D03*
D42*
X71560000Y-48160000D03*
X66960000Y-48160000D03*
%TD*%
D21*
%TO.C,C502*%
X30300000Y-55080000D03*
X30300000Y-54120000D03*
%TD*%
D34*
%TO.C,C104*%
X63750000Y-34000000D03*
X62790000Y-34000000D03*
%TD*%
D23*
%TO.C,R213*%
X59440000Y-46790000D03*
X59440000Y-47810000D03*
%TD*%
D25*
%TO.C,R103*%
X62040000Y-36200000D03*
X63060000Y-36200000D03*
%TD*%
D43*
%TO.C,J503*%
X29748839Y-62183684D03*
X28575161Y-59976316D03*
%TD*%
D33*
%TO.C,TP13*%
X42500000Y-41300000D03*
%TD*%
D23*
%TO.C,R106*%
X59250000Y-41240000D03*
X59250000Y-42260000D03*
%TD*%
D44*
%TO.C,J201*%
X65200000Y-70140000D03*
X64184000Y-65060000D03*
X66216000Y-65060000D03*
D45*
X64565000Y-68870000D03*
X65835000Y-68870000D03*
X64565000Y-67600000D03*
X65835000Y-67600000D03*
X64565000Y-66330000D03*
X65835000Y-66330000D03*
%TD*%
D20*
%TO.C,TP3*%
X58800000Y-44300000D03*
%TD*%
%TO.C,TP16*%
X64400000Y-47300000D03*
%TD*%
D32*
%TO.C,C503*%
X32520000Y-60000000D03*
X33480000Y-60000000D03*
%TD*%
D29*
%TO.C,R204*%
X34963000Y-36550000D03*
X34963000Y-35530000D03*
%TD*%
D17*
%TO.C,FID5*%
X71000000Y-37000000D03*
%TD*%
D46*
%TO.C,D501*%
X41473371Y-23602448D03*
X38672629Y-24677552D03*
%TD*%
D47*
%TO.C,R502*%
X56627000Y-26752000D03*
X56627000Y-25102000D03*
%TD*%
D32*
%TO.C,C202*%
X38770000Y-71050000D03*
X39730000Y-71050000D03*
%TD*%
D48*
%TO.C,U105*%
X35262500Y-43550000D03*
X35262500Y-42600000D03*
X35262500Y-41650000D03*
X37537500Y-41650000D03*
X37537500Y-42600000D03*
X37537500Y-43550000D03*
%TD*%
D29*
%TO.C,R504*%
X62150000Y-29737000D03*
X62150000Y-28717000D03*
%TD*%
D49*
%TO.C,U202*%
X39562500Y-37650000D03*
X39562500Y-37150000D03*
X39562500Y-36650000D03*
X39562500Y-36150000D03*
D50*
X40250000Y-35462500D03*
X40750000Y-35462500D03*
X41250000Y-35462500D03*
X41750000Y-35462500D03*
D49*
X42437500Y-36150000D03*
X42437500Y-36650000D03*
X42437500Y-37150000D03*
X42437500Y-37650000D03*
D50*
X41750000Y-38337500D03*
X41250000Y-38337500D03*
X40750000Y-38337500D03*
X40250000Y-38337500D03*
D51*
X41000000Y-36900000D03*
%TD*%
D35*
%TO.C,C107*%
X48890000Y-38225000D03*
X48890000Y-39775000D03*
%TD*%
D52*
%TO.C,U102*%
X60872500Y-37475000D03*
X60872500Y-37975000D03*
X60872500Y-38475000D03*
X60872500Y-38975000D03*
D53*
X60160000Y-39687500D03*
X59660000Y-39687500D03*
X59160000Y-39687500D03*
X58660000Y-39687500D03*
D52*
X57947500Y-38975000D03*
X57947500Y-38475000D03*
X57947500Y-37975000D03*
X57947500Y-37475000D03*
D53*
X58660000Y-36762500D03*
X59160000Y-36762500D03*
X59660000Y-36762500D03*
X60160000Y-36762500D03*
D54*
X59410000Y-38225000D03*
%TD*%
D55*
%TO.C,U201*%
X41250000Y-71210000D03*
X41250000Y-69940000D03*
X41250000Y-68670000D03*
X41250000Y-67400000D03*
X41250000Y-66130000D03*
X41250000Y-64860000D03*
X41250000Y-63590000D03*
X41250000Y-62320000D03*
X41250000Y-61050000D03*
X41250000Y-59780000D03*
X41250000Y-58510000D03*
X41250000Y-57240000D03*
X41250000Y-55970000D03*
X41250000Y-54700000D03*
D56*
X43015000Y-53450000D03*
X44285000Y-53450000D03*
X45555000Y-53450000D03*
X46825000Y-53450000D03*
X48095000Y-53450000D03*
X49365000Y-53450000D03*
X50635000Y-53450000D03*
X51905000Y-53450000D03*
X53175000Y-53450000D03*
X54445000Y-53450000D03*
X55715000Y-53450000D03*
X56985000Y-53450000D03*
D55*
X58750000Y-54700000D03*
X58750000Y-55970000D03*
X58750000Y-57240000D03*
X58750000Y-58510000D03*
X58750000Y-59780000D03*
X58750000Y-61050000D03*
X58750000Y-62320000D03*
X58750000Y-63590000D03*
X58750000Y-64860000D03*
X58750000Y-66130000D03*
X58750000Y-67400000D03*
X58750000Y-68670000D03*
X58750000Y-69940000D03*
X58750000Y-71210000D03*
D57*
X47100000Y-62790000D03*
X47100000Y-64190000D03*
X47800000Y-62090000D03*
X47800000Y-63490000D03*
X47800000Y-64890000D03*
X48500000Y-62790000D03*
D58*
X48500000Y-63490000D03*
D57*
X48500000Y-64190000D03*
X49200000Y-62090000D03*
X49200000Y-63490000D03*
X49200000Y-64890000D03*
X49900000Y-62790000D03*
X49900000Y-64190000D03*
%TD*%
D59*
%TO.C,D101*%
X53200000Y-30500000D03*
X56100000Y-30500000D03*
%TD*%
D29*
%TO.C,R402*%
X70394000Y-60168000D03*
X70394000Y-59148000D03*
%TD*%
D17*
%TO.C,FID4*%
X31200000Y-38400000D03*
%TD*%
D60*
%TO.C,U501*%
X33750000Y-55437500D03*
X33250000Y-55437500D03*
X32750000Y-55437500D03*
X32250000Y-55437500D03*
D61*
X31562500Y-54750000D03*
X31562500Y-54250000D03*
X31562500Y-53750000D03*
X31562500Y-53250000D03*
D60*
X32250000Y-52562500D03*
X32750000Y-52562500D03*
X33250000Y-52562500D03*
X33750000Y-52562500D03*
D61*
X34437500Y-53250000D03*
X34437500Y-53750000D03*
X34437500Y-54250000D03*
X34437500Y-54750000D03*
D62*
X33000000Y-54000000D03*
%TD*%
D25*
%TO.C,R304*%
X36793000Y-47350000D03*
X37813000Y-47350000D03*
%TD*%
D21*
%TO.C,C204*%
X36163000Y-36550000D03*
X36163000Y-35590000D03*
%TD*%
D35*
%TO.C,C105*%
X55570000Y-38225000D03*
X55570000Y-39775000D03*
%TD*%
D47*
%TO.C,R303*%
X42338000Y-44800000D03*
X42338000Y-43150000D03*
%TD*%
D29*
%TO.C,R305*%
X37763000Y-46100000D03*
X37763000Y-45080000D03*
%TD*%
%TO.C,R116*%
X35263000Y-40150000D03*
X35263000Y-39130000D03*
%TD*%
D25*
%TO.C,R308*%
X60340000Y-71300000D03*
X61360000Y-71300000D03*
%TD*%
D29*
%TO.C,R107*%
X43850000Y-35410000D03*
X43850000Y-34390000D03*
%TD*%
D20*
%TO.C,TP1*%
X61600000Y-47300000D03*
%TD*%
D23*
%TO.C,R115*%
X39050000Y-42570000D03*
X39050000Y-43590000D03*
%TD*%
D29*
%TO.C,R301*%
X49365000Y-51750000D03*
X49365000Y-50730000D03*
%TD*%
D20*
%TO.C,TP5*%
X64400000Y-44300000D03*
%TD*%
D29*
%TO.C,R207*%
X39600000Y-54250000D03*
X39600000Y-53230000D03*
%TD*%
%TO.C,R113*%
X51400000Y-42010000D03*
X51400000Y-40990000D03*
%TD*%
D47*
%TO.C,R501*%
X38673000Y-28328000D03*
X38673000Y-26678000D03*
%TD*%
D37*
%TO.C,J501*%
X26400000Y-53200000D03*
%TD*%
D33*
%TO.C,TP15*%
X72070000Y-52450000D03*
%TD*%
D63*
%TO.C,L101*%
X53725000Y-36410000D03*
X52275000Y-36410000D03*
%TD*%
D33*
%TO.C,TP9*%
X56000000Y-50300000D03*
%TD*%
D29*
%TO.C,R208*%
X32250000Y-57787000D03*
X32250000Y-56767000D03*
%TD*%
%TO.C,R302*%
X48095000Y-51750000D03*
X48095000Y-50730000D03*
%TD*%
D64*
%TO.C,MK401*%
X71360241Y-55323828D03*
D65*
X69983512Y-57086639D03*
X70210086Y-56296482D03*
D66*
X71542851Y-54686993D03*
D65*
X71820199Y-56758174D03*
X71593627Y-57548332D03*
%TD*%
D29*
%TO.C,R201*%
X39550000Y-69810000D03*
X39550000Y-68790000D03*
%TD*%
D33*
%TO.C,TP11*%
X58800000Y-50300000D03*
%TD*%
D23*
%TO.C,R202*%
X60400000Y-52740000D03*
X60400000Y-53760000D03*
%TD*%
D37*
%TO.C,J303*%
X27600000Y-41200000D03*
%TD*%
D29*
%TO.C,R205*%
X61700000Y-52920000D03*
X61700000Y-51900000D03*
%TD*%
D25*
%TO.C,R403*%
X61350000Y-55570000D03*
X62370000Y-55570000D03*
%TD*%
D33*
%TO.C,TP7*%
X64400000Y-50300000D03*
%TD*%
D23*
%TO.C,R214*%
X58200000Y-46790000D03*
X58200000Y-47810000D03*
%TD*%
D21*
%TO.C,C108*%
X37540000Y-40430000D03*
X37540000Y-39470000D03*
%TD*%
D67*
%TO.C,R206*%
X46640000Y-37150000D03*
X45620000Y-37150000D03*
%TD*%
D68*
%TO.C,D304*%
X29600000Y-41200000D03*
X30300000Y-41200000D03*
%TD*%
D69*
%TO.C,J101*%
X47110000Y-26650000D03*
X52890000Y-26650000D03*
D70*
X46750000Y-28095000D03*
X47550000Y-28095000D03*
D71*
X48750000Y-28095000D03*
X49750000Y-28095000D03*
X50250000Y-28095000D03*
X51250000Y-28095000D03*
D70*
X52450000Y-28095000D03*
X53250000Y-28095000D03*
X53250000Y-28095000D03*
X52450000Y-28095000D03*
D71*
X51750000Y-28095000D03*
X50750000Y-28095000D03*
X49250000Y-28095000D03*
X48250000Y-28095000D03*
D70*
X47550000Y-28095000D03*
X46750000Y-28095000D03*
D72*
X45680000Y-23000000D03*
D73*
X45680000Y-27180000D03*
D72*
X54320000Y-23000000D03*
D73*
X54320000Y-27180000D03*
%TD*%
D25*
%TO.C,R503*%
X59530000Y-31438000D03*
X60550000Y-31438000D03*
%TD*%
D35*
%TO.C,C103*%
X62350000Y-38225000D03*
X62350000Y-39775000D03*
%TD*%
D23*
%TO.C,R102*%
X51900000Y-32240000D03*
X51900000Y-33260000D03*
%TD*%
%LPD*%
M02*
