%TF.GenerationSoftware,KiCad,Pcbnew,10.0.6*%
%TF.CreationDate,2026-10-05T03:53:02+02:00*%
%TF.ProjectId,MAO_MAIN_A0,4d414f5f-4d41-4494-9e5f-41302e6b6963,A0*%
%TF.SameCoordinates,Original*%
%TF.FileFunction,Legend,Top*%
%TF.FilePolarity,Positive*%
%FSLAX46Y46*%
G04 Gerber Fmt 4.6, Leading zero omitted, Abs format (unit mm)*
G04 Created by KiCad (PCBNEW 10.0.6) date 2026-10-05 03:53:02*
%MOMM*%
%LPD*%
G01*
G04 APERTURE LIST*
G04 Aperture macros list*
%AMRoundRect*
0 Rectangle with rounded corners*
0 $1 Rounding radius*
0 $2 $3 $4 $5 $6 $7 $8 $9 X,Y pos of 4 corners*
0 Add a 4 corners polygon primitive as box body*
4,1,4,$2,$3,$4,$5,$6,$7,$8,$9,$2,$3,0*
0 Add four circle primitives for the rounded corners*
1,1,$1+$1,$2,$3*
1,1,$1+$1,$4,$5*
1,1,$1+$1,$6,$7*
1,1,$1+$1,$8,$9*
0 Add four rect primitives between the rounded corners*
20,1,$1+$1,$2,$3,$4,$5,0*
20,1,$1+$1,$4,$5,$6,$7,0*
20,1,$1+$1,$6,$7,$8,$9,0*
20,1,$1+$1,$8,$9,$2,$3,0*%
%AMRotRect*
0 Rectangle, with rotation*
0 The origin of the aperture is its center*
0 $1 length*
0 $2 width*
0 $3 Rotation angle, in degrees counterclockwise*
0 Add horizontal line*
21,1,$1,$2,0,0,$3*%
G04 Aperture macros list end*
%ADD10C,0.000000*%
%ADD11C,0.150000*%
%ADD12C,0.260000*%
%ADD13C,0.120000*%
%ADD14C,0.160000*%
%ADD15C,0.100001*%
%ADD16RoundRect,0.087500X-0.225000X-0.087500X0.225000X-0.087500X0.225000X0.087500X-0.225000X0.087500X0*%
%ADD17RoundRect,0.087500X-0.087500X-0.225000X0.087500X-0.225000X0.087500X0.225000X-0.087500X0.225000X0*%
%ADD18RoundRect,0.075000X-0.075000X-0.175000X0.075000X-0.175000X0.075000X0.175000X-0.075000X0.175000X0*%
%ADD19C,2.000000*%
%ADD20R,1.800000X1.100000*%
%ADD21RoundRect,0.140000X0.170000X-0.140000X0.170000X0.140000X-0.170000X0.140000X-0.170000X-0.140000X0*%
%ADD22RoundRect,0.087500X-0.087500X0.250000X-0.087500X-0.250000X0.087500X-0.250000X0.087500X0.250000X0*%
%ADD23RoundRect,0.135000X-0.135000X-0.185000X0.135000X-0.185000X0.135000X0.185000X-0.135000X0.185000X0*%
%ADD24RoundRect,0.140000X-0.140000X-0.170000X0.140000X-0.170000X0.140000X0.170000X-0.140000X0.170000X0*%
%ADD25R,0.800000X0.300000*%
%ADD26R,0.800000X0.400000*%
%ADD27RoundRect,0.275000X-0.275000X0.475000X-0.275000X-0.475000X0.275000X-0.475000X0.275000X0.475000X0*%
%ADD28RoundRect,0.125000X-0.110373X0.058675X0.110364X-0.058693X0.110373X-0.058675X-0.110364X0.058693X0*%
%ADD29RoundRect,0.050000X-0.536230X-0.422738X-0.050609X-0.680947X0.536230X0.422738X0.050609X0.680947X0*%
%ADD30RoundRect,0.135000X0.135000X0.185000X-0.135000X0.185000X-0.135000X-0.185000X0.135000X-0.185000X0*%
%ADD31RoundRect,0.135000X0.185000X-0.135000X0.185000X0.135000X-0.185000X0.135000X-0.185000X-0.135000X0*%
%ADD32RotRect,0.500000X0.500000X118.000000*%
%ADD33RoundRect,0.075000X-0.175000X0.075000X-0.175000X-0.075000X0.175000X-0.075000X0.175000X0.075000X0*%
%ADD34RoundRect,0.140000X0.140000X0.170000X-0.140000X0.170000X-0.140000X-0.170000X0.140000X-0.170000X0*%
%ADD35RoundRect,0.225000X0.250000X-0.225000X0.250000X0.225000X-0.250000X0.225000X-0.250000X-0.225000X0*%
%ADD36RoundRect,0.062500X-0.152780X0.160377X-0.215280X0.052123X0.152780X-0.160377X0.215280X-0.052123X0*%
%ADD37RotRect,0.800000X0.600000X240.000000*%
%ADD38RoundRect,0.075000X0.175000X-0.075000X0.175000X0.075000X-0.175000X0.075000X-0.175000X-0.075000X0*%
%ADD39C,2.200000*%
%ADD40RoundRect,0.100000X0.315765X1.179107X-0.999805X0.700279X-0.315765X-1.179107X0.999805X-0.700279X0*%
%ADD41RoundRect,0.062500X-0.135180X0.175468X-0.208653X0.074341X0.135180X-0.175468X0.208653X-0.074341X0*%
%ADD42RotRect,0.800000X0.600000X234.000000*%
%ADD43C,0.990600*%
%ADD44C,0.650000*%
%ADD45O,1.000000X1.600000*%
%ADD46O,1.000000X2.100000*%
%ADD47C,0.500000*%
G04 APERTURE END LIST*
D10*
G36*
X44173511Y-56731250D02*
G01*
X44214583Y-56731250D01*
X44221428Y-56738095D01*
X44241964Y-56738095D01*
X44269345Y-56751785D01*
X44283035Y-56751785D01*
X44289880Y-56758630D01*
X44303571Y-56758630D01*
X44358333Y-56786011D01*
X44372023Y-56799702D01*
X44413095Y-56820238D01*
X44454166Y-56854464D01*
X44461011Y-56854464D01*
X44481547Y-56875000D01*
X44529464Y-56902380D01*
X44550000Y-56922916D01*
X44577380Y-56936607D01*
X44597916Y-56957142D01*
X44645833Y-56984523D01*
X44714285Y-57039285D01*
X44741666Y-57052976D01*
X44762202Y-57073511D01*
X44810119Y-57100892D01*
X44830654Y-57121428D01*
X44858035Y-57135119D01*
X44878571Y-57155654D01*
X44885416Y-57155654D01*
X44905952Y-57176190D01*
X44953869Y-57203571D01*
X44967559Y-57217261D01*
X44974404Y-57217261D01*
X45022321Y-57258333D01*
X45070238Y-57285714D01*
X45125000Y-57333630D01*
X45172916Y-57361011D01*
X45248214Y-57422619D01*
X45296130Y-57450000D01*
X45309821Y-57463690D01*
X45316666Y-57463690D01*
X45337202Y-57484226D01*
X45385119Y-57511607D01*
X45405654Y-57532142D01*
X45412500Y-57532142D01*
X45433035Y-57552678D01*
X45460416Y-57566369D01*
X45480952Y-57586904D01*
X45528869Y-57614285D01*
X45569940Y-57648511D01*
X45576785Y-57648511D01*
X45631547Y-57703273D01*
X45631547Y-57710119D01*
X45665773Y-57751190D01*
X45679464Y-57778571D01*
X45679464Y-57792261D01*
X45693154Y-57812797D01*
X45693154Y-57833333D01*
X45700000Y-57840178D01*
X45700000Y-59524107D01*
X45693154Y-59530952D01*
X45686309Y-59572023D01*
X45665773Y-59613095D01*
X45590476Y-59695238D01*
X45563095Y-59708928D01*
X45549404Y-59722619D01*
X45439880Y-59777380D01*
X45426190Y-59791071D01*
X45391964Y-59804761D01*
X45378273Y-59818452D01*
X45268750Y-59873214D01*
X45255059Y-59886904D01*
X45220833Y-59900595D01*
X45207142Y-59914285D01*
X45159226Y-59934821D01*
X45145535Y-59948511D01*
X45083928Y-59975892D01*
X45070238Y-59989583D01*
X45036011Y-60003273D01*
X45022321Y-60016964D01*
X44940178Y-60058035D01*
X44926488Y-60071726D01*
X44878571Y-60092261D01*
X44830654Y-60126488D01*
X44721130Y-60181250D01*
X44707440Y-60194940D01*
X44659523Y-60215476D01*
X44645833Y-60229166D01*
X44597916Y-60249702D01*
X44584226Y-60263392D01*
X44536309Y-60283928D01*
X44522619Y-60297619D01*
X44474702Y-60318154D01*
X44461011Y-60331845D01*
X44426785Y-60345535D01*
X44413095Y-60359226D01*
X44378869Y-60372916D01*
X44365178Y-60386607D01*
X44241964Y-60448214D01*
X44228273Y-60461904D01*
X44194047Y-60475595D01*
X44194047Y-57853869D01*
X44200892Y-57847023D01*
X44200892Y-57518452D01*
X44207738Y-57511607D01*
X44207738Y-57244642D01*
X44214583Y-57237797D01*
X44214583Y-56963988D01*
X44207738Y-56957142D01*
X44200892Y-56929761D01*
X44159821Y-56888690D01*
X44146130Y-56888690D01*
X44139285Y-56881845D01*
X44091369Y-56881845D01*
X44084523Y-56888690D01*
X44070833Y-56888690D01*
X44029761Y-56929761D01*
X44022916Y-56957142D01*
X44016071Y-56963988D01*
X44016071Y-57292559D01*
X44022916Y-57299404D01*
X44022916Y-57607440D01*
X44029761Y-57614285D01*
X44029761Y-57867559D01*
X44022916Y-57874404D01*
X44022916Y-57901785D01*
X44002380Y-57942857D01*
X44002380Y-57956547D01*
X43988690Y-57970238D01*
X43981845Y-57990773D01*
X43961309Y-58011309D01*
X43961309Y-58018154D01*
X43927083Y-58052380D01*
X43920238Y-58052380D01*
X43879166Y-58086607D01*
X43817559Y-58113988D01*
X43783333Y-58141369D01*
X43749107Y-58155059D01*
X43735416Y-58168750D01*
X43673809Y-58196130D01*
X43660119Y-58209821D01*
X43625892Y-58223511D01*
X43612202Y-58237202D01*
X43530059Y-58278273D01*
X43516369Y-58291964D01*
X43454761Y-58319345D01*
X43441071Y-58333035D01*
X43406845Y-58346726D01*
X43393154Y-58360416D01*
X43358928Y-58374107D01*
X43345238Y-58387797D01*
X43311011Y-58401488D01*
X43297321Y-58415178D01*
X43249404Y-58435714D01*
X43235714Y-58449404D01*
X43201488Y-58463095D01*
X43187797Y-58476785D01*
X43078273Y-58531547D01*
X43064583Y-58545238D01*
X43030357Y-58558928D01*
X43016666Y-58572619D01*
X42982440Y-58586309D01*
X42968750Y-58600000D01*
X42859226Y-58654761D01*
X42845535Y-58668452D01*
X42797619Y-58688988D01*
X42783928Y-58702678D01*
X42701785Y-58743750D01*
X42688095Y-58757440D01*
X42626488Y-58784821D01*
X42612797Y-58798511D01*
X42578571Y-58812202D01*
X42564880Y-58825892D01*
X42537500Y-58839583D01*
X42537500Y-59715773D01*
X42530654Y-59722619D01*
X42530654Y-59750000D01*
X42516964Y-59777380D01*
X42516964Y-59791071D01*
X42503273Y-59818452D01*
X42482738Y-59838988D01*
X42482738Y-59845833D01*
X42421130Y-59907440D01*
X42373214Y-59934821D01*
X42359523Y-59948511D01*
X42352678Y-59948511D01*
X42338988Y-59962202D01*
X42332142Y-59962202D01*
X42318452Y-59975892D01*
X42311607Y-59975892D01*
X42291071Y-59996428D01*
X42243154Y-60023809D01*
X42222619Y-60044345D01*
X42174702Y-60071726D01*
X42161011Y-60085416D01*
X42154166Y-60085416D01*
X42133630Y-60105952D01*
X42085714Y-60133333D01*
X42072023Y-60147023D01*
X42065178Y-60147023D01*
X42051488Y-60160714D01*
X42044642Y-60160714D01*
X42030952Y-60174404D01*
X42024107Y-60174404D01*
X42010416Y-60188095D01*
X42003571Y-60188095D01*
X41989880Y-60201785D01*
X41983035Y-60201785D01*
X41969345Y-60215476D01*
X41962500Y-60215476D01*
X41941964Y-60236011D01*
X41894047Y-60263392D01*
X41873511Y-60283928D01*
X41825595Y-60311309D01*
X41811904Y-60325000D01*
X41757142Y-60352380D01*
X41722916Y-60359226D01*
X41716071Y-60366071D01*
X41695535Y-60366071D01*
X41688690Y-60372916D01*
X41668154Y-60372916D01*
X41661309Y-60379761D01*
X41620238Y-60379761D01*
X41613392Y-60386607D01*
X41544940Y-60386607D01*
X41538095Y-60379761D01*
X41497023Y-60379761D01*
X41490178Y-60372916D01*
X41462797Y-60372916D01*
X41435416Y-60359226D01*
X41421726Y-60359226D01*
X41414880Y-60352380D01*
X41401190Y-60352380D01*
X41319047Y-60311309D01*
X41298511Y-60290773D01*
X41291666Y-60290773D01*
X41202678Y-60201785D01*
X41202678Y-60194940D01*
X41168452Y-60153869D01*
X41141071Y-60099107D01*
X41141071Y-60085416D01*
X41127380Y-60064880D01*
X41120535Y-60023809D01*
X41113690Y-60016964D01*
X41113690Y-59989583D01*
X41106845Y-59982738D01*
X41106845Y-59914285D01*
X41100000Y-59907440D01*
X41100000Y-59893750D01*
X41106845Y-59886904D01*
X41106845Y-59832142D01*
X41113690Y-59825297D01*
X41113690Y-59797916D01*
X41120535Y-59791071D01*
X41120535Y-59770535D01*
X41134226Y-59743154D01*
X41134226Y-59729464D01*
X41168452Y-59661011D01*
X41195833Y-59626785D01*
X41195833Y-59619940D01*
X41216369Y-59599404D01*
X41216369Y-59592559D01*
X41264285Y-59544642D01*
X41271130Y-59544642D01*
X41298511Y-59517261D01*
X41319047Y-59510416D01*
X41353273Y-59483035D01*
X41387500Y-59469345D01*
X41401190Y-59455654D01*
X41524404Y-59394047D01*
X41538095Y-59380357D01*
X41572321Y-59366666D01*
X41586011Y-59352976D01*
X41647619Y-59325595D01*
X41661309Y-59311904D01*
X41695535Y-59298214D01*
X41709226Y-59284523D01*
X41757142Y-59263988D01*
X41770833Y-59250297D01*
X41921428Y-59175000D01*
X41935119Y-59161309D01*
X41969345Y-59147619D01*
X41983035Y-59133928D01*
X42044642Y-59106547D01*
X42058333Y-59092857D01*
X42154166Y-59044940D01*
X42167857Y-59031250D01*
X42229464Y-59003869D01*
X42243154Y-58990178D01*
X42304761Y-58962797D01*
X42318452Y-58949107D01*
X42352678Y-58935416D01*
X42366369Y-58921726D01*
X42414285Y-58901190D01*
X42427976Y-58887500D01*
X42523809Y-58839583D01*
X42537500Y-58825892D01*
X42537500Y-58805357D01*
X42544345Y-58798511D01*
X42544345Y-57847023D01*
X42551190Y-57840178D01*
X42551190Y-57819642D01*
X42564880Y-57799107D01*
X42564880Y-57785416D01*
X42578571Y-57758035D01*
X42612797Y-57716964D01*
X42612797Y-57710119D01*
X42653869Y-57669047D01*
X42681250Y-57655357D01*
X42708630Y-57627976D01*
X42756547Y-57600595D01*
X42804464Y-57559523D01*
X42852380Y-57532142D01*
X42866071Y-57518452D01*
X42872916Y-57518452D01*
X42920833Y-57477380D01*
X42948214Y-57463690D01*
X42968750Y-57443154D01*
X42996130Y-57429464D01*
X43009821Y-57415773D01*
X43016666Y-57415773D01*
X43064583Y-57374702D01*
X43112500Y-57347321D01*
X43160416Y-57306250D01*
X43208333Y-57278869D01*
X43222023Y-57265178D01*
X43228869Y-57265178D01*
X43276785Y-57224107D01*
X43304166Y-57210416D01*
X43324702Y-57189880D01*
X43352083Y-57176190D01*
X43372619Y-57155654D01*
X43400000Y-57141964D01*
X43420535Y-57121428D01*
X43447916Y-57107738D01*
X43461607Y-57094047D01*
X43468452Y-57094047D01*
X43536904Y-57039285D01*
X43564285Y-57025595D01*
X43584821Y-57005059D01*
X43632738Y-56977678D01*
X43660119Y-56950297D01*
X43708035Y-56922916D01*
X43755952Y-56881845D01*
X43803869Y-56854464D01*
X43851785Y-56813392D01*
X43892857Y-56792857D01*
X43906547Y-56779166D01*
X43933928Y-56772321D01*
X43968154Y-56751785D01*
X44009226Y-56744940D01*
X44016071Y-56738095D01*
X44036607Y-56738095D01*
X44043452Y-56731250D01*
X44084523Y-56731250D01*
X44091369Y-56724404D01*
X44166666Y-56724404D01*
X44173511Y-56731250D01*
G37*
D11*
X43200000Y-65875595D02*
X46450000Y-65875595D01*
X46450000Y-67475595D01*
X43200000Y-67475595D01*
X43200000Y-65875595D01*
X56400000Y-57000000D02*
X56100000Y-57350000D01*
X56400000Y-57000000D02*
X56700000Y-57350000D01*
X56400000Y-58500000D02*
X56400000Y-57000000D01*
X56400000Y-58500000D02*
X57900000Y-58500000D01*
X57900000Y-58500000D02*
X57550000Y-58200000D01*
X57900000Y-58500000D02*
X57550000Y-58800000D01*
X29031381Y-59113295D02*
X29488524Y-59113295D01*
X29259952Y-59913295D02*
X29259952Y-59113295D01*
X29907572Y-59113295D02*
X30059953Y-59113295D01*
X30059953Y-59113295D02*
X30136143Y-59151390D01*
X30136143Y-59151390D02*
X30212334Y-59227580D01*
X30212334Y-59227580D02*
X30250429Y-59379961D01*
X30250429Y-59379961D02*
X30250429Y-59646628D01*
X30250429Y-59646628D02*
X30212334Y-59799009D01*
X30212334Y-59799009D02*
X30136143Y-59875200D01*
X30136143Y-59875200D02*
X30059953Y-59913295D01*
X30059953Y-59913295D02*
X29907572Y-59913295D01*
X29907572Y-59913295D02*
X29831381Y-59875200D01*
X29831381Y-59875200D02*
X29755191Y-59799009D01*
X29755191Y-59799009D02*
X29717095Y-59646628D01*
X29717095Y-59646628D02*
X29717095Y-59379961D01*
X29717095Y-59379961D02*
X29755191Y-59227580D01*
X29755191Y-59227580D02*
X29831381Y-59151390D01*
X29831381Y-59151390D02*
X29907572Y-59113295D01*
X30593286Y-59913295D02*
X30593286Y-59113295D01*
X30593286Y-59113295D02*
X30898048Y-59113295D01*
X30898048Y-59113295D02*
X30974238Y-59151390D01*
X30974238Y-59151390D02*
X31012333Y-59189485D01*
X31012333Y-59189485D02*
X31050429Y-59265676D01*
X31050429Y-59265676D02*
X31050429Y-59379961D01*
X31050429Y-59379961D02*
X31012333Y-59456152D01*
X31012333Y-59456152D02*
X30974238Y-59494247D01*
X30974238Y-59494247D02*
X30898048Y-59532342D01*
X30898048Y-59532342D02*
X30593286Y-59532342D01*
X40483333Y-66999795D02*
X40597619Y-67037890D01*
X40597619Y-67037890D02*
X40788095Y-67037890D01*
X40788095Y-67037890D02*
X40864286Y-66999795D01*
X40864286Y-66999795D02*
X40902381Y-66961699D01*
X40902381Y-66961699D02*
X40940476Y-66885509D01*
X40940476Y-66885509D02*
X40940476Y-66809318D01*
X40940476Y-66809318D02*
X40902381Y-66733128D01*
X40902381Y-66733128D02*
X40864286Y-66695033D01*
X40864286Y-66695033D02*
X40788095Y-66656937D01*
X40788095Y-66656937D02*
X40635714Y-66618842D01*
X40635714Y-66618842D02*
X40559524Y-66580747D01*
X40559524Y-66580747D02*
X40521429Y-66542652D01*
X40521429Y-66542652D02*
X40483333Y-66466461D01*
X40483333Y-66466461D02*
X40483333Y-66390271D01*
X40483333Y-66390271D02*
X40521429Y-66314080D01*
X40521429Y-66314080D02*
X40559524Y-66275985D01*
X40559524Y-66275985D02*
X40635714Y-66237890D01*
X40635714Y-66237890D02*
X40826191Y-66237890D01*
X40826191Y-66237890D02*
X40940476Y-66275985D01*
X41854762Y-66199795D02*
X41169048Y-67228366D01*
X42121429Y-67037890D02*
X42121429Y-66237890D01*
X42121429Y-66237890D02*
X42578572Y-67037890D01*
X42578572Y-67037890D02*
X42578572Y-66237890D01*
X40771427Y-64464080D02*
X40809523Y-64425985D01*
X40809523Y-64425985D02*
X40885713Y-64387890D01*
X40885713Y-64387890D02*
X41076189Y-64387890D01*
X41076189Y-64387890D02*
X41152380Y-64425985D01*
X41152380Y-64425985D02*
X41190475Y-64464080D01*
X41190475Y-64464080D02*
X41228570Y-64540271D01*
X41228570Y-64540271D02*
X41228570Y-64616461D01*
X41228570Y-64616461D02*
X41190475Y-64730747D01*
X41190475Y-64730747D02*
X40733332Y-65187890D01*
X40733332Y-65187890D02*
X41228570Y-65187890D01*
X41723809Y-64387890D02*
X41799999Y-64387890D01*
X41799999Y-64387890D02*
X41876190Y-64425985D01*
X41876190Y-64425985D02*
X41914285Y-64464080D01*
X41914285Y-64464080D02*
X41952380Y-64540271D01*
X41952380Y-64540271D02*
X41990475Y-64692652D01*
X41990475Y-64692652D02*
X41990475Y-64883128D01*
X41990475Y-64883128D02*
X41952380Y-65035509D01*
X41952380Y-65035509D02*
X41914285Y-65111699D01*
X41914285Y-65111699D02*
X41876190Y-65149795D01*
X41876190Y-65149795D02*
X41799999Y-65187890D01*
X41799999Y-65187890D02*
X41723809Y-65187890D01*
X41723809Y-65187890D02*
X41647618Y-65149795D01*
X41647618Y-65149795D02*
X41609523Y-65111699D01*
X41609523Y-65111699D02*
X41571428Y-65035509D01*
X41571428Y-65035509D02*
X41533332Y-64883128D01*
X41533332Y-64883128D02*
X41533332Y-64692652D01*
X41533332Y-64692652D02*
X41571428Y-64540271D01*
X41571428Y-64540271D02*
X41609523Y-64464080D01*
X41609523Y-64464080D02*
X41647618Y-64425985D01*
X41647618Y-64425985D02*
X41723809Y-64387890D01*
X42295237Y-64464080D02*
X42333333Y-64425985D01*
X42333333Y-64425985D02*
X42409523Y-64387890D01*
X42409523Y-64387890D02*
X42599999Y-64387890D01*
X42599999Y-64387890D02*
X42676190Y-64425985D01*
X42676190Y-64425985D02*
X42714285Y-64464080D01*
X42714285Y-64464080D02*
X42752380Y-64540271D01*
X42752380Y-64540271D02*
X42752380Y-64616461D01*
X42752380Y-64616461D02*
X42714285Y-64730747D01*
X42714285Y-64730747D02*
X42257142Y-65187890D01*
X42257142Y-65187890D02*
X42752380Y-65187890D01*
X43438095Y-64387890D02*
X43285714Y-64387890D01*
X43285714Y-64387890D02*
X43209523Y-64425985D01*
X43209523Y-64425985D02*
X43171428Y-64464080D01*
X43171428Y-64464080D02*
X43095238Y-64578366D01*
X43095238Y-64578366D02*
X43057142Y-64730747D01*
X43057142Y-64730747D02*
X43057142Y-65035509D01*
X43057142Y-65035509D02*
X43095238Y-65111699D01*
X43095238Y-65111699D02*
X43133333Y-65149795D01*
X43133333Y-65149795D02*
X43209523Y-65187890D01*
X43209523Y-65187890D02*
X43361904Y-65187890D01*
X43361904Y-65187890D02*
X43438095Y-65149795D01*
X43438095Y-65149795D02*
X43476190Y-65111699D01*
X43476190Y-65111699D02*
X43514285Y-65035509D01*
X43514285Y-65035509D02*
X43514285Y-64845033D01*
X43514285Y-64845033D02*
X43476190Y-64768842D01*
X43476190Y-64768842D02*
X43438095Y-64730747D01*
X43438095Y-64730747D02*
X43361904Y-64692652D01*
X43361904Y-64692652D02*
X43209523Y-64692652D01*
X43209523Y-64692652D02*
X43133333Y-64730747D01*
X43133333Y-64730747D02*
X43095238Y-64768842D01*
X43095238Y-64768842D02*
X43057142Y-64845033D01*
X43857143Y-64883128D02*
X44466667Y-64883128D01*
X45266666Y-65187890D02*
X44809523Y-65187890D01*
X45038095Y-65187890D02*
X45038095Y-64387890D01*
X45038095Y-64387890D02*
X44961904Y-64502175D01*
X44961904Y-64502175D02*
X44885714Y-64578366D01*
X44885714Y-64578366D02*
X44809523Y-64616461D01*
X45761905Y-64387890D02*
X45838095Y-64387890D01*
X45838095Y-64387890D02*
X45914286Y-64425985D01*
X45914286Y-64425985D02*
X45952381Y-64464080D01*
X45952381Y-64464080D02*
X45990476Y-64540271D01*
X45990476Y-64540271D02*
X46028571Y-64692652D01*
X46028571Y-64692652D02*
X46028571Y-64883128D01*
X46028571Y-64883128D02*
X45990476Y-65035509D01*
X45990476Y-65035509D02*
X45952381Y-65111699D01*
X45952381Y-65111699D02*
X45914286Y-65149795D01*
X45914286Y-65149795D02*
X45838095Y-65187890D01*
X45838095Y-65187890D02*
X45761905Y-65187890D01*
X45761905Y-65187890D02*
X45685714Y-65149795D01*
X45685714Y-65149795D02*
X45647619Y-65111699D01*
X45647619Y-65111699D02*
X45609524Y-65035509D01*
X45609524Y-65035509D02*
X45571428Y-64883128D01*
X45571428Y-64883128D02*
X45571428Y-64692652D01*
X45571428Y-64692652D02*
X45609524Y-64540271D01*
X45609524Y-64540271D02*
X45647619Y-64464080D01*
X45647619Y-64464080D02*
X45685714Y-64425985D01*
X45685714Y-64425985D02*
X45761905Y-64387890D01*
X46676189Y-71633723D02*
X47057142Y-71633723D01*
X46599999Y-71862295D02*
X46866666Y-71062295D01*
X46866666Y-71062295D02*
X47133332Y-71862295D01*
X47399999Y-71862295D02*
X47399999Y-71062295D01*
X47399999Y-71062295D02*
X47857142Y-71862295D01*
X47857142Y-71862295D02*
X47857142Y-71062295D01*
X48123808Y-71062295D02*
X48580951Y-71062295D01*
X48352379Y-71862295D02*
X48352379Y-71062295D01*
X48847618Y-71443247D02*
X49114284Y-71443247D01*
X49228570Y-71862295D02*
X48847618Y-71862295D01*
X48847618Y-71862295D02*
X48847618Y-71062295D01*
X48847618Y-71062295D02*
X49228570Y-71062295D01*
X49571428Y-71862295D02*
X49571428Y-71062295D01*
X49571428Y-71062295D02*
X50028571Y-71862295D01*
X50028571Y-71862295D02*
X50028571Y-71062295D01*
X50409523Y-71862295D02*
X50409523Y-71062295D01*
X50409523Y-71062295D02*
X50866666Y-71862295D01*
X50866666Y-71862295D02*
X50866666Y-71062295D01*
X51209522Y-71633723D02*
X51590475Y-71633723D01*
X51133332Y-71862295D02*
X51399999Y-71062295D01*
X51399999Y-71062295D02*
X51666665Y-71862295D01*
X53152380Y-71862295D02*
X53152380Y-71062295D01*
X53609523Y-71862295D02*
X53266665Y-71405152D01*
X53609523Y-71062295D02*
X53152380Y-71519438D01*
X53952380Y-71443247D02*
X54219046Y-71443247D01*
X54333332Y-71862295D02*
X53952380Y-71862295D01*
X53952380Y-71862295D02*
X53952380Y-71062295D01*
X53952380Y-71062295D02*
X54333332Y-71062295D01*
X54676190Y-71443247D02*
X54942856Y-71443247D01*
X55057142Y-71862295D02*
X54676190Y-71862295D01*
X54676190Y-71862295D02*
X54676190Y-71062295D01*
X54676190Y-71062295D02*
X55057142Y-71062295D01*
X55400000Y-71862295D02*
X55400000Y-71062295D01*
X55400000Y-71062295D02*
X55704762Y-71062295D01*
X55704762Y-71062295D02*
X55780952Y-71100390D01*
X55780952Y-71100390D02*
X55819047Y-71138485D01*
X55819047Y-71138485D02*
X55857143Y-71214676D01*
X55857143Y-71214676D02*
X55857143Y-71328961D01*
X55857143Y-71328961D02*
X55819047Y-71405152D01*
X55819047Y-71405152D02*
X55780952Y-71443247D01*
X55780952Y-71443247D02*
X55704762Y-71481342D01*
X55704762Y-71481342D02*
X55400000Y-71481342D01*
X57266667Y-71786104D02*
X57228571Y-71824200D01*
X57228571Y-71824200D02*
X57114286Y-71862295D01*
X57114286Y-71862295D02*
X57038095Y-71862295D01*
X57038095Y-71862295D02*
X56923809Y-71824200D01*
X56923809Y-71824200D02*
X56847619Y-71748009D01*
X56847619Y-71748009D02*
X56809524Y-71671819D01*
X56809524Y-71671819D02*
X56771428Y-71519438D01*
X56771428Y-71519438D02*
X56771428Y-71405152D01*
X56771428Y-71405152D02*
X56809524Y-71252771D01*
X56809524Y-71252771D02*
X56847619Y-71176580D01*
X56847619Y-71176580D02*
X56923809Y-71100390D01*
X56923809Y-71100390D02*
X57038095Y-71062295D01*
X57038095Y-71062295D02*
X57114286Y-71062295D01*
X57114286Y-71062295D02*
X57228571Y-71100390D01*
X57228571Y-71100390D02*
X57266667Y-71138485D01*
X57990476Y-71862295D02*
X57609524Y-71862295D01*
X57609524Y-71862295D02*
X57609524Y-71062295D01*
X58257143Y-71443247D02*
X58523809Y-71443247D01*
X58638095Y-71862295D02*
X58257143Y-71862295D01*
X58257143Y-71862295D02*
X58257143Y-71062295D01*
X58257143Y-71062295D02*
X58638095Y-71062295D01*
X58942857Y-71633723D02*
X59323810Y-71633723D01*
X58866667Y-71862295D02*
X59133334Y-71062295D01*
X59133334Y-71062295D02*
X59400000Y-71862295D01*
X60123810Y-71862295D02*
X59857143Y-71481342D01*
X59666667Y-71862295D02*
X59666667Y-71062295D01*
X59666667Y-71062295D02*
X59971429Y-71062295D01*
X59971429Y-71062295D02*
X60047619Y-71100390D01*
X60047619Y-71100390D02*
X60085714Y-71138485D01*
X60085714Y-71138485D02*
X60123810Y-71214676D01*
X60123810Y-71214676D02*
X60123810Y-71328961D01*
X60123810Y-71328961D02*
X60085714Y-71405152D01*
X60085714Y-71405152D02*
X60047619Y-71443247D01*
X60047619Y-71443247D02*
X59971429Y-71481342D01*
X59971429Y-71481342D02*
X59666667Y-71481342D01*
X55752381Y-56107533D02*
X56361905Y-56107533D01*
X56057143Y-56412295D02*
X56057143Y-55802771D01*
X56895238Y-56031342D02*
X56895238Y-56412295D01*
X56628571Y-55612295D02*
X56895238Y-56031342D01*
X56895238Y-56031342D02*
X57161904Y-55612295D01*
X58264286Y-58557533D02*
X58873810Y-58557533D01*
X58569048Y-58862295D02*
X58569048Y-58252771D01*
X59178571Y-58062295D02*
X59711905Y-58862295D01*
X59711905Y-58062295D02*
X59178571Y-58862295D01*
X40871428Y-63884152D02*
X40871428Y-62984152D01*
X40871428Y-62984152D02*
X41171428Y-63627009D01*
X41171428Y-63627009D02*
X41471428Y-62984152D01*
X41471428Y-62984152D02*
X41471428Y-63884152D01*
X41857142Y-63627009D02*
X42285714Y-63627009D01*
X41771428Y-63884152D02*
X42071428Y-62984152D01*
X42071428Y-62984152D02*
X42371428Y-63884152D01*
X42671428Y-63884152D02*
X42671428Y-62984152D01*
X43099999Y-63884152D02*
X43099999Y-62984152D01*
X43099999Y-62984152D02*
X43614285Y-63884152D01*
X43614285Y-63884152D02*
X43614285Y-62984152D01*
X44685713Y-63627009D02*
X45114285Y-63627009D01*
X44599999Y-63884152D02*
X44899999Y-62984152D01*
X44899999Y-62984152D02*
X45199999Y-63884152D01*
X45671428Y-62984152D02*
X45757142Y-62984152D01*
X45757142Y-62984152D02*
X45842856Y-63027009D01*
X45842856Y-63027009D02*
X45885714Y-63069866D01*
X45885714Y-63069866D02*
X45928571Y-63155580D01*
X45928571Y-63155580D02*
X45971428Y-63327009D01*
X45971428Y-63327009D02*
X45971428Y-63541295D01*
X45971428Y-63541295D02*
X45928571Y-63712723D01*
X45928571Y-63712723D02*
X45885714Y-63798437D01*
X45885714Y-63798437D02*
X45842856Y-63841295D01*
X45842856Y-63841295D02*
X45757142Y-63884152D01*
X45757142Y-63884152D02*
X45671428Y-63884152D01*
X45671428Y-63884152D02*
X45585714Y-63841295D01*
X45585714Y-63841295D02*
X45542856Y-63798437D01*
X45542856Y-63798437D02*
X45499999Y-63712723D01*
X45499999Y-63712723D02*
X45457142Y-63541295D01*
X45457142Y-63541295D02*
X45457142Y-63327009D01*
X45457142Y-63327009D02*
X45499999Y-63155580D01*
X45499999Y-63155580D02*
X45542856Y-63069866D01*
X45542856Y-63069866D02*
X45585714Y-63027009D01*
X45585714Y-63027009D02*
X45671428Y-62984152D01*
X35709523Y-43454819D02*
X35233333Y-43454819D01*
X35233333Y-43454819D02*
X35233333Y-42454819D01*
X36614285Y-43359580D02*
X36566666Y-43407200D01*
X36566666Y-43407200D02*
X36423809Y-43454819D01*
X36423809Y-43454819D02*
X36328571Y-43454819D01*
X36328571Y-43454819D02*
X36185714Y-43407200D01*
X36185714Y-43407200D02*
X36090476Y-43311961D01*
X36090476Y-43311961D02*
X36042857Y-43216723D01*
X36042857Y-43216723D02*
X35995238Y-43026247D01*
X35995238Y-43026247D02*
X35995238Y-42883390D01*
X35995238Y-42883390D02*
X36042857Y-42692914D01*
X36042857Y-42692914D02*
X36090476Y-42597676D01*
X36090476Y-42597676D02*
X36185714Y-42502438D01*
X36185714Y-42502438D02*
X36328571Y-42454819D01*
X36328571Y-42454819D02*
X36423809Y-42454819D01*
X36423809Y-42454819D02*
X36566666Y-42502438D01*
X36566666Y-42502438D02*
X36614285Y-42550057D01*
X37042857Y-43454819D02*
X37042857Y-42454819D01*
X37042857Y-42454819D02*
X37280952Y-42454819D01*
X37280952Y-42454819D02*
X37423809Y-42502438D01*
X37423809Y-42502438D02*
X37519047Y-42597676D01*
X37519047Y-42597676D02*
X37566666Y-42692914D01*
X37566666Y-42692914D02*
X37614285Y-42883390D01*
X37614285Y-42883390D02*
X37614285Y-43026247D01*
X37614285Y-43026247D02*
X37566666Y-43216723D01*
X37566666Y-43216723D02*
X37519047Y-43311961D01*
X37519047Y-43311961D02*
X37423809Y-43407200D01*
X37423809Y-43407200D02*
X37280952Y-43454819D01*
X37280952Y-43454819D02*
X37042857Y-43454819D01*
D12*
X41728571Y-62363479D02*
X41728571Y-61063479D01*
X41728571Y-61063479D02*
X42161905Y-61992051D01*
X42161905Y-61992051D02*
X42595238Y-61063479D01*
X42595238Y-61063479D02*
X42595238Y-62363479D01*
X43152381Y-61992051D02*
X43771428Y-61992051D01*
X43028571Y-62363479D02*
X43461904Y-61063479D01*
X43461904Y-61063479D02*
X43895238Y-62363479D01*
X44576190Y-61063479D02*
X44823809Y-61063479D01*
X44823809Y-61063479D02*
X44947619Y-61125384D01*
X44947619Y-61125384D02*
X45071428Y-61249194D01*
X45071428Y-61249194D02*
X45133333Y-61496813D01*
X45133333Y-61496813D02*
X45133333Y-61930146D01*
X45133333Y-61930146D02*
X45071428Y-62177765D01*
X45071428Y-62177765D02*
X44947619Y-62301575D01*
X44947619Y-62301575D02*
X44823809Y-62363479D01*
X44823809Y-62363479D02*
X44576190Y-62363479D01*
X44576190Y-62363479D02*
X44452381Y-62301575D01*
X44452381Y-62301575D02*
X44328571Y-62177765D01*
X44328571Y-62177765D02*
X44266667Y-61930146D01*
X44266667Y-61930146D02*
X44266667Y-61496813D01*
X44266667Y-61496813D02*
X44328571Y-61249194D01*
X44328571Y-61249194D02*
X44452381Y-61125384D01*
X44452381Y-61125384D02*
X44576190Y-61063479D01*
D11*
X51284405Y-53900000D02*
X51284405Y-54709523D01*
X51284405Y-54709523D02*
X51332024Y-54804761D01*
X51332024Y-54804761D02*
X51379643Y-54852381D01*
X51379643Y-54852381D02*
X51474881Y-54900000D01*
X51474881Y-54900000D02*
X51665357Y-54900000D01*
X51665357Y-54900000D02*
X51760595Y-54852381D01*
X51760595Y-54852381D02*
X51808214Y-54804761D01*
X51808214Y-54804761D02*
X51855833Y-54709523D01*
X51855833Y-54709523D02*
X51855833Y-53900000D01*
X52760595Y-54233333D02*
X52760595Y-54900000D01*
X52522500Y-53852381D02*
X52284405Y-54566666D01*
X52284405Y-54566666D02*
X52903452Y-54566666D01*
X53474881Y-53900000D02*
X53570119Y-53900000D01*
X53570119Y-53900000D02*
X53665357Y-53947619D01*
X53665357Y-53947619D02*
X53712976Y-53995238D01*
X53712976Y-53995238D02*
X53760595Y-54090476D01*
X53760595Y-54090476D02*
X53808214Y-54280952D01*
X53808214Y-54280952D02*
X53808214Y-54519047D01*
X53808214Y-54519047D02*
X53760595Y-54709523D01*
X53760595Y-54709523D02*
X53712976Y-54804761D01*
X53712976Y-54804761D02*
X53665357Y-54852381D01*
X53665357Y-54852381D02*
X53570119Y-54900000D01*
X53570119Y-54900000D02*
X53474881Y-54900000D01*
X53474881Y-54900000D02*
X53379643Y-54852381D01*
X53379643Y-54852381D02*
X53332024Y-54804761D01*
X53332024Y-54804761D02*
X53284405Y-54709523D01*
X53284405Y-54709523D02*
X53236786Y-54519047D01*
X53236786Y-54519047D02*
X53236786Y-54280952D01*
X53236786Y-54280952D02*
X53284405Y-54090476D01*
X53284405Y-54090476D02*
X53332024Y-53995238D01*
X53332024Y-53995238D02*
X53379643Y-53947619D01*
X53379643Y-53947619D02*
X53474881Y-53900000D01*
X54760595Y-54900000D02*
X54189167Y-54900000D01*
X54474881Y-54900000D02*
X54474881Y-53900000D01*
X54474881Y-53900000D02*
X54379643Y-54042857D01*
X54379643Y-54042857D02*
X54284405Y-54138095D01*
X54284405Y-54138095D02*
X54189167Y-54185714D01*
X47714286Y-51902381D02*
X47857143Y-51950000D01*
X47857143Y-51950000D02*
X48095238Y-51950000D01*
X48095238Y-51950000D02*
X48190476Y-51902381D01*
X48190476Y-51902381D02*
X48238095Y-51854761D01*
X48238095Y-51854761D02*
X48285714Y-51759523D01*
X48285714Y-51759523D02*
X48285714Y-51664285D01*
X48285714Y-51664285D02*
X48238095Y-51569047D01*
X48238095Y-51569047D02*
X48190476Y-51521428D01*
X48190476Y-51521428D02*
X48095238Y-51473809D01*
X48095238Y-51473809D02*
X47904762Y-51426190D01*
X47904762Y-51426190D02*
X47809524Y-51378571D01*
X47809524Y-51378571D02*
X47761905Y-51330952D01*
X47761905Y-51330952D02*
X47714286Y-51235714D01*
X47714286Y-51235714D02*
X47714286Y-51140476D01*
X47714286Y-51140476D02*
X47761905Y-51045238D01*
X47761905Y-51045238D02*
X47809524Y-50997619D01*
X47809524Y-50997619D02*
X47904762Y-50950000D01*
X47904762Y-50950000D02*
X48142857Y-50950000D01*
X48142857Y-50950000D02*
X48285714Y-50997619D01*
X48619048Y-50950000D02*
X48857143Y-51950000D01*
X48857143Y-51950000D02*
X49047619Y-51235714D01*
X49047619Y-51235714D02*
X49238095Y-51950000D01*
X49238095Y-51950000D02*
X49476191Y-50950000D01*
X49761905Y-50950000D02*
X50380952Y-50950000D01*
X50380952Y-50950000D02*
X50047619Y-51330952D01*
X50047619Y-51330952D02*
X50190476Y-51330952D01*
X50190476Y-51330952D02*
X50285714Y-51378571D01*
X50285714Y-51378571D02*
X50333333Y-51426190D01*
X50333333Y-51426190D02*
X50380952Y-51521428D01*
X50380952Y-51521428D02*
X50380952Y-51759523D01*
X50380952Y-51759523D02*
X50333333Y-51854761D01*
X50333333Y-51854761D02*
X50285714Y-51902381D01*
X50285714Y-51902381D02*
X50190476Y-51950000D01*
X50190476Y-51950000D02*
X49904762Y-51950000D01*
X49904762Y-51950000D02*
X49809524Y-51902381D01*
X49809524Y-51902381D02*
X49761905Y-51854761D01*
X51000000Y-50950000D02*
X51095238Y-50950000D01*
X51095238Y-50950000D02*
X51190476Y-50997619D01*
X51190476Y-50997619D02*
X51238095Y-51045238D01*
X51238095Y-51045238D02*
X51285714Y-51140476D01*
X51285714Y-51140476D02*
X51333333Y-51330952D01*
X51333333Y-51330952D02*
X51333333Y-51569047D01*
X51333333Y-51569047D02*
X51285714Y-51759523D01*
X51285714Y-51759523D02*
X51238095Y-51854761D01*
X51238095Y-51854761D02*
X51190476Y-51902381D01*
X51190476Y-51902381D02*
X51095238Y-51950000D01*
X51095238Y-51950000D02*
X51000000Y-51950000D01*
X51000000Y-51950000D02*
X50904762Y-51902381D01*
X50904762Y-51902381D02*
X50857143Y-51854761D01*
X50857143Y-51854761D02*
X50809524Y-51759523D01*
X50809524Y-51759523D02*
X50761905Y-51569047D01*
X50761905Y-51569047D02*
X50761905Y-51330952D01*
X50761905Y-51330952D02*
X50809524Y-51140476D01*
X50809524Y-51140476D02*
X50857143Y-51045238D01*
X50857143Y-51045238D02*
X50904762Y-50997619D01*
X50904762Y-50997619D02*
X51000000Y-50950000D01*
X52285714Y-51950000D02*
X51714286Y-51950000D01*
X52000000Y-51950000D02*
X52000000Y-50950000D01*
X52000000Y-50950000D02*
X51904762Y-51092857D01*
X51904762Y-51092857D02*
X51809524Y-51188095D01*
X51809524Y-51188095D02*
X51714286Y-51235714D01*
X47680000Y-33738095D02*
X48489523Y-33738095D01*
X48489523Y-33738095D02*
X48584761Y-33690476D01*
X48584761Y-33690476D02*
X48632381Y-33642857D01*
X48632381Y-33642857D02*
X48680000Y-33547619D01*
X48680000Y-33547619D02*
X48680000Y-33357143D01*
X48680000Y-33357143D02*
X48632381Y-33261905D01*
X48632381Y-33261905D02*
X48584761Y-33214286D01*
X48584761Y-33214286D02*
X48489523Y-33166667D01*
X48489523Y-33166667D02*
X47680000Y-33166667D01*
X48680000Y-32166667D02*
X48680000Y-32738095D01*
X48680000Y-32452381D02*
X47680000Y-32452381D01*
X47680000Y-32452381D02*
X47822857Y-32547619D01*
X47822857Y-32547619D02*
X47918095Y-32642857D01*
X47918095Y-32642857D02*
X47965714Y-32738095D01*
X47680000Y-31547619D02*
X47680000Y-31452381D01*
X47680000Y-31452381D02*
X47727619Y-31357143D01*
X47727619Y-31357143D02*
X47775238Y-31309524D01*
X47775238Y-31309524D02*
X47870476Y-31261905D01*
X47870476Y-31261905D02*
X48060952Y-31214286D01*
X48060952Y-31214286D02*
X48299047Y-31214286D01*
X48299047Y-31214286D02*
X48489523Y-31261905D01*
X48489523Y-31261905D02*
X48584761Y-31309524D01*
X48584761Y-31309524D02*
X48632381Y-31357143D01*
X48632381Y-31357143D02*
X48680000Y-31452381D01*
X48680000Y-31452381D02*
X48680000Y-31547619D01*
X48680000Y-31547619D02*
X48632381Y-31642857D01*
X48632381Y-31642857D02*
X48584761Y-31690476D01*
X48584761Y-31690476D02*
X48489523Y-31738095D01*
X48489523Y-31738095D02*
X48299047Y-31785714D01*
X48299047Y-31785714D02*
X48060952Y-31785714D01*
X48060952Y-31785714D02*
X47870476Y-31738095D01*
X47870476Y-31738095D02*
X47775238Y-31690476D01*
X47775238Y-31690476D02*
X47727619Y-31642857D01*
X47727619Y-31642857D02*
X47680000Y-31547619D01*
X48680000Y-30261905D02*
X48680000Y-30833333D01*
X48680000Y-30547619D02*
X47680000Y-30547619D01*
X47680000Y-30547619D02*
X47822857Y-30642857D01*
X47822857Y-30642857D02*
X47918095Y-30738095D01*
X47918095Y-30738095D02*
X47965714Y-30833333D01*
X26747394Y-46226190D02*
X27080727Y-46226190D01*
X27223584Y-46750000D02*
X26747394Y-46750000D01*
X26747394Y-46750000D02*
X26747394Y-45750000D01*
X26747394Y-45750000D02*
X27223584Y-45750000D01*
X27556918Y-45750000D02*
X28175965Y-45750000D01*
X28175965Y-45750000D02*
X27842632Y-46130952D01*
X27842632Y-46130952D02*
X27985489Y-46130952D01*
X27985489Y-46130952D02*
X28080727Y-46178571D01*
X28080727Y-46178571D02*
X28128346Y-46226190D01*
X28128346Y-46226190D02*
X28175965Y-46321428D01*
X28175965Y-46321428D02*
X28175965Y-46559523D01*
X28175965Y-46559523D02*
X28128346Y-46654761D01*
X28128346Y-46654761D02*
X28080727Y-46702381D01*
X28080727Y-46702381D02*
X27985489Y-46750000D01*
X27985489Y-46750000D02*
X27699775Y-46750000D01*
X27699775Y-46750000D02*
X27604537Y-46702381D01*
X27604537Y-46702381D02*
X27556918Y-46654761D01*
X28795013Y-45750000D02*
X28890251Y-45750000D01*
X28890251Y-45750000D02*
X28985489Y-45797619D01*
X28985489Y-45797619D02*
X29033108Y-45845238D01*
X29033108Y-45845238D02*
X29080727Y-45940476D01*
X29080727Y-45940476D02*
X29128346Y-46130952D01*
X29128346Y-46130952D02*
X29128346Y-46369047D01*
X29128346Y-46369047D02*
X29080727Y-46559523D01*
X29080727Y-46559523D02*
X29033108Y-46654761D01*
X29033108Y-46654761D02*
X28985489Y-46702381D01*
X28985489Y-46702381D02*
X28890251Y-46750000D01*
X28890251Y-46750000D02*
X28795013Y-46750000D01*
X28795013Y-46750000D02*
X28699775Y-46702381D01*
X28699775Y-46702381D02*
X28652156Y-46654761D01*
X28652156Y-46654761D02*
X28604537Y-46559523D01*
X28604537Y-46559523D02*
X28556918Y-46369047D01*
X28556918Y-46369047D02*
X28556918Y-46130952D01*
X28556918Y-46130952D02*
X28604537Y-45940476D01*
X28604537Y-45940476D02*
X28652156Y-45845238D01*
X28652156Y-45845238D02*
X28699775Y-45797619D01*
X28699775Y-45797619D02*
X28795013Y-45750000D01*
X30080727Y-46750000D02*
X29509299Y-46750000D01*
X29795013Y-46750000D02*
X29795013Y-45750000D01*
X29795013Y-45750000D02*
X29699775Y-45892857D01*
X29699775Y-45892857D02*
X29604537Y-45988095D01*
X29604537Y-45988095D02*
X29509299Y-46035714D01*
X64002857Y-55450000D02*
X63669524Y-54973809D01*
X63431429Y-55450000D02*
X63431429Y-54450000D01*
X63431429Y-54450000D02*
X63812381Y-54450000D01*
X63812381Y-54450000D02*
X63907619Y-54497619D01*
X63907619Y-54497619D02*
X63955238Y-54545238D01*
X63955238Y-54545238D02*
X64002857Y-54640476D01*
X64002857Y-54640476D02*
X64002857Y-54783333D01*
X64002857Y-54783333D02*
X63955238Y-54878571D01*
X63955238Y-54878571D02*
X63907619Y-54926190D01*
X63907619Y-54926190D02*
X63812381Y-54973809D01*
X63812381Y-54973809D02*
X63431429Y-54973809D01*
X64907619Y-54450000D02*
X64431429Y-54450000D01*
X64431429Y-54450000D02*
X64383810Y-54926190D01*
X64383810Y-54926190D02*
X64431429Y-54878571D01*
X64431429Y-54878571D02*
X64526667Y-54830952D01*
X64526667Y-54830952D02*
X64764762Y-54830952D01*
X64764762Y-54830952D02*
X64860000Y-54878571D01*
X64860000Y-54878571D02*
X64907619Y-54926190D01*
X64907619Y-54926190D02*
X64955238Y-55021428D01*
X64955238Y-55021428D02*
X64955238Y-55259523D01*
X64955238Y-55259523D02*
X64907619Y-55354761D01*
X64907619Y-55354761D02*
X64860000Y-55402381D01*
X64860000Y-55402381D02*
X64764762Y-55450000D01*
X64764762Y-55450000D02*
X64526667Y-55450000D01*
X64526667Y-55450000D02*
X64431429Y-55402381D01*
X64431429Y-55402381D02*
X64383810Y-55354761D01*
X65574286Y-54450000D02*
X65669524Y-54450000D01*
X65669524Y-54450000D02*
X65764762Y-54497619D01*
X65764762Y-54497619D02*
X65812381Y-54545238D01*
X65812381Y-54545238D02*
X65860000Y-54640476D01*
X65860000Y-54640476D02*
X65907619Y-54830952D01*
X65907619Y-54830952D02*
X65907619Y-55069047D01*
X65907619Y-55069047D02*
X65860000Y-55259523D01*
X65860000Y-55259523D02*
X65812381Y-55354761D01*
X65812381Y-55354761D02*
X65764762Y-55402381D01*
X65764762Y-55402381D02*
X65669524Y-55450000D01*
X65669524Y-55450000D02*
X65574286Y-55450000D01*
X65574286Y-55450000D02*
X65479048Y-55402381D01*
X65479048Y-55402381D02*
X65431429Y-55354761D01*
X65431429Y-55354761D02*
X65383810Y-55259523D01*
X65383810Y-55259523D02*
X65336191Y-55069047D01*
X65336191Y-55069047D02*
X65336191Y-54830952D01*
X65336191Y-54830952D02*
X65383810Y-54640476D01*
X65383810Y-54640476D02*
X65431429Y-54545238D01*
X65431429Y-54545238D02*
X65479048Y-54497619D01*
X65479048Y-54497619D02*
X65574286Y-54450000D01*
X66764762Y-54450000D02*
X66574286Y-54450000D01*
X66574286Y-54450000D02*
X66479048Y-54497619D01*
X66479048Y-54497619D02*
X66431429Y-54545238D01*
X66431429Y-54545238D02*
X66336191Y-54688095D01*
X66336191Y-54688095D02*
X66288572Y-54878571D01*
X66288572Y-54878571D02*
X66288572Y-55259523D01*
X66288572Y-55259523D02*
X66336191Y-55354761D01*
X66336191Y-55354761D02*
X66383810Y-55402381D01*
X66383810Y-55402381D02*
X66479048Y-55450000D01*
X66479048Y-55450000D02*
X66669524Y-55450000D01*
X66669524Y-55450000D02*
X66764762Y-55402381D01*
X66764762Y-55402381D02*
X66812381Y-55354761D01*
X66812381Y-55354761D02*
X66860000Y-55259523D01*
X66860000Y-55259523D02*
X66860000Y-55021428D01*
X66860000Y-55021428D02*
X66812381Y-54926190D01*
X66812381Y-54926190D02*
X66764762Y-54878571D01*
X66764762Y-54878571D02*
X66669524Y-54830952D01*
X66669524Y-54830952D02*
X66479048Y-54830952D01*
X66479048Y-54830952D02*
X66383810Y-54878571D01*
X66383810Y-54878571D02*
X66336191Y-54926190D01*
X66336191Y-54926190D02*
X66288572Y-55021428D01*
X35715000Y-59304762D02*
X36429285Y-59304762D01*
X36429285Y-59304762D02*
X36572142Y-59352381D01*
X36572142Y-59352381D02*
X36667381Y-59447619D01*
X36667381Y-59447619D02*
X36715000Y-59590476D01*
X36715000Y-59590476D02*
X36715000Y-59685714D01*
X35715000Y-58923809D02*
X35715000Y-58304762D01*
X35715000Y-58304762D02*
X36095952Y-58638095D01*
X36095952Y-58638095D02*
X36095952Y-58495238D01*
X36095952Y-58495238D02*
X36143571Y-58400000D01*
X36143571Y-58400000D02*
X36191190Y-58352381D01*
X36191190Y-58352381D02*
X36286428Y-58304762D01*
X36286428Y-58304762D02*
X36524523Y-58304762D01*
X36524523Y-58304762D02*
X36619761Y-58352381D01*
X36619761Y-58352381D02*
X36667381Y-58400000D01*
X36667381Y-58400000D02*
X36715000Y-58495238D01*
X36715000Y-58495238D02*
X36715000Y-58780952D01*
X36715000Y-58780952D02*
X36667381Y-58876190D01*
X36667381Y-58876190D02*
X36619761Y-58923809D01*
X35715000Y-57685714D02*
X35715000Y-57590476D01*
X35715000Y-57590476D02*
X35762619Y-57495238D01*
X35762619Y-57495238D02*
X35810238Y-57447619D01*
X35810238Y-57447619D02*
X35905476Y-57400000D01*
X35905476Y-57400000D02*
X36095952Y-57352381D01*
X36095952Y-57352381D02*
X36334047Y-57352381D01*
X36334047Y-57352381D02*
X36524523Y-57400000D01*
X36524523Y-57400000D02*
X36619761Y-57447619D01*
X36619761Y-57447619D02*
X36667381Y-57495238D01*
X36667381Y-57495238D02*
X36715000Y-57590476D01*
X36715000Y-57590476D02*
X36715000Y-57685714D01*
X36715000Y-57685714D02*
X36667381Y-57780952D01*
X36667381Y-57780952D02*
X36619761Y-57828571D01*
X36619761Y-57828571D02*
X36524523Y-57876190D01*
X36524523Y-57876190D02*
X36334047Y-57923809D01*
X36334047Y-57923809D02*
X36095952Y-57923809D01*
X36095952Y-57923809D02*
X35905476Y-57876190D01*
X35905476Y-57876190D02*
X35810238Y-57828571D01*
X35810238Y-57828571D02*
X35762619Y-57780952D01*
X35762619Y-57780952D02*
X35715000Y-57685714D01*
X36715000Y-56400000D02*
X36715000Y-56971428D01*
X36715000Y-56685714D02*
X35715000Y-56685714D01*
X35715000Y-56685714D02*
X35857857Y-56780952D01*
X35857857Y-56780952D02*
X35953095Y-56876190D01*
X35953095Y-56876190D02*
X36000714Y-56971428D01*
X67050000Y-51738095D02*
X67859523Y-51738095D01*
X67859523Y-51738095D02*
X67954761Y-51690476D01*
X67954761Y-51690476D02*
X68002381Y-51642857D01*
X68002381Y-51642857D02*
X68050000Y-51547619D01*
X68050000Y-51547619D02*
X68050000Y-51357143D01*
X68050000Y-51357143D02*
X68002381Y-51261905D01*
X68002381Y-51261905D02*
X67954761Y-51214286D01*
X67954761Y-51214286D02*
X67859523Y-51166667D01*
X67859523Y-51166667D02*
X67050000Y-51166667D01*
X67050000Y-50214286D02*
X67050000Y-50690476D01*
X67050000Y-50690476D02*
X67526190Y-50738095D01*
X67526190Y-50738095D02*
X67478571Y-50690476D01*
X67478571Y-50690476D02*
X67430952Y-50595238D01*
X67430952Y-50595238D02*
X67430952Y-50357143D01*
X67430952Y-50357143D02*
X67478571Y-50261905D01*
X67478571Y-50261905D02*
X67526190Y-50214286D01*
X67526190Y-50214286D02*
X67621428Y-50166667D01*
X67621428Y-50166667D02*
X67859523Y-50166667D01*
X67859523Y-50166667D02*
X67954761Y-50214286D01*
X67954761Y-50214286D02*
X68002381Y-50261905D01*
X68002381Y-50261905D02*
X68050000Y-50357143D01*
X68050000Y-50357143D02*
X68050000Y-50595238D01*
X68050000Y-50595238D02*
X68002381Y-50690476D01*
X68002381Y-50690476D02*
X67954761Y-50738095D01*
X67050000Y-49547619D02*
X67050000Y-49452381D01*
X67050000Y-49452381D02*
X67097619Y-49357143D01*
X67097619Y-49357143D02*
X67145238Y-49309524D01*
X67145238Y-49309524D02*
X67240476Y-49261905D01*
X67240476Y-49261905D02*
X67430952Y-49214286D01*
X67430952Y-49214286D02*
X67669047Y-49214286D01*
X67669047Y-49214286D02*
X67859523Y-49261905D01*
X67859523Y-49261905D02*
X67954761Y-49309524D01*
X67954761Y-49309524D02*
X68002381Y-49357143D01*
X68002381Y-49357143D02*
X68050000Y-49452381D01*
X68050000Y-49452381D02*
X68050000Y-49547619D01*
X68050000Y-49547619D02*
X68002381Y-49642857D01*
X68002381Y-49642857D02*
X67954761Y-49690476D01*
X67954761Y-49690476D02*
X67859523Y-49738095D01*
X67859523Y-49738095D02*
X67669047Y-49785714D01*
X67669047Y-49785714D02*
X67430952Y-49785714D01*
X67430952Y-49785714D02*
X67240476Y-49738095D01*
X67240476Y-49738095D02*
X67145238Y-49690476D01*
X67145238Y-49690476D02*
X67097619Y-49642857D01*
X67097619Y-49642857D02*
X67050000Y-49547619D01*
X67050000Y-48880952D02*
X67050000Y-48261905D01*
X67050000Y-48261905D02*
X67430952Y-48595238D01*
X67430952Y-48595238D02*
X67430952Y-48452381D01*
X67430952Y-48452381D02*
X67478571Y-48357143D01*
X67478571Y-48357143D02*
X67526190Y-48309524D01*
X67526190Y-48309524D02*
X67621428Y-48261905D01*
X67621428Y-48261905D02*
X67859523Y-48261905D01*
X67859523Y-48261905D02*
X67954761Y-48309524D01*
X67954761Y-48309524D02*
X68002381Y-48357143D01*
X68002381Y-48357143D02*
X68050000Y-48452381D01*
X68050000Y-48452381D02*
X68050000Y-48738095D01*
X68050000Y-48738095D02*
X68002381Y-48833333D01*
X68002381Y-48833333D02*
X67954761Y-48880952D01*
X59476809Y-29099629D02*
X60286332Y-29099629D01*
X60286332Y-29099629D02*
X60381570Y-29052010D01*
X60381570Y-29052010D02*
X60429190Y-29004391D01*
X60429190Y-29004391D02*
X60476809Y-28909153D01*
X60476809Y-28909153D02*
X60476809Y-28718677D01*
X60476809Y-28718677D02*
X60429190Y-28623439D01*
X60429190Y-28623439D02*
X60381570Y-28575820D01*
X60381570Y-28575820D02*
X60286332Y-28528201D01*
X60286332Y-28528201D02*
X59476809Y-28528201D01*
X59810142Y-27623439D02*
X60476809Y-27623439D01*
X59429190Y-27861534D02*
X60143475Y-28099629D01*
X60143475Y-28099629D02*
X60143475Y-27480582D01*
X59476809Y-26909153D02*
X59476809Y-26813915D01*
X59476809Y-26813915D02*
X59524428Y-26718677D01*
X59524428Y-26718677D02*
X59572047Y-26671058D01*
X59572047Y-26671058D02*
X59667285Y-26623439D01*
X59667285Y-26623439D02*
X59857761Y-26575820D01*
X59857761Y-26575820D02*
X60095856Y-26575820D01*
X60095856Y-26575820D02*
X60286332Y-26623439D01*
X60286332Y-26623439D02*
X60381570Y-26671058D01*
X60381570Y-26671058D02*
X60429190Y-26718677D01*
X60429190Y-26718677D02*
X60476809Y-26813915D01*
X60476809Y-26813915D02*
X60476809Y-26909153D01*
X60476809Y-26909153D02*
X60429190Y-27004391D01*
X60429190Y-27004391D02*
X60381570Y-27052010D01*
X60381570Y-27052010D02*
X60286332Y-27099629D01*
X60286332Y-27099629D02*
X60095856Y-27147248D01*
X60095856Y-27147248D02*
X59857761Y-27147248D01*
X59857761Y-27147248D02*
X59667285Y-27099629D01*
X59667285Y-27099629D02*
X59572047Y-27052010D01*
X59572047Y-27052010D02*
X59524428Y-27004391D01*
X59524428Y-27004391D02*
X59476809Y-26909153D01*
X59476809Y-26242486D02*
X59476809Y-25623439D01*
X59476809Y-25623439D02*
X59857761Y-25956772D01*
X59857761Y-25956772D02*
X59857761Y-25813915D01*
X59857761Y-25813915D02*
X59905380Y-25718677D01*
X59905380Y-25718677D02*
X59952999Y-25671058D01*
X59952999Y-25671058D02*
X60048237Y-25623439D01*
X60048237Y-25623439D02*
X60286332Y-25623439D01*
X60286332Y-25623439D02*
X60381570Y-25671058D01*
X60381570Y-25671058D02*
X60429190Y-25718677D01*
X60429190Y-25718677D02*
X60476809Y-25813915D01*
X60476809Y-25813915D02*
X60476809Y-26099629D01*
X60476809Y-26099629D02*
X60429190Y-26194867D01*
X60429190Y-26194867D02*
X60381570Y-26242486D01*
X38313599Y-34368928D02*
X38313599Y-35178451D01*
X38313599Y-35178451D02*
X38361218Y-35273689D01*
X38361218Y-35273689D02*
X38408837Y-35321309D01*
X38408837Y-35321309D02*
X38504075Y-35368928D01*
X38504075Y-35368928D02*
X38694551Y-35368928D01*
X38694551Y-35368928D02*
X38789789Y-35321309D01*
X38789789Y-35321309D02*
X38837408Y-35273689D01*
X38837408Y-35273689D02*
X38885027Y-35178451D01*
X38885027Y-35178451D02*
X38885027Y-34368928D01*
X39789789Y-34702261D02*
X39789789Y-35368928D01*
X39551694Y-34321309D02*
X39313599Y-35035594D01*
X39313599Y-35035594D02*
X39932646Y-35035594D01*
X40504075Y-34368928D02*
X40599313Y-34368928D01*
X40599313Y-34368928D02*
X40694551Y-34416547D01*
X40694551Y-34416547D02*
X40742170Y-34464166D01*
X40742170Y-34464166D02*
X40789789Y-34559404D01*
X40789789Y-34559404D02*
X40837408Y-34749880D01*
X40837408Y-34749880D02*
X40837408Y-34987975D01*
X40837408Y-34987975D02*
X40789789Y-35178451D01*
X40789789Y-35178451D02*
X40742170Y-35273689D01*
X40742170Y-35273689D02*
X40694551Y-35321309D01*
X40694551Y-35321309D02*
X40599313Y-35368928D01*
X40599313Y-35368928D02*
X40504075Y-35368928D01*
X40504075Y-35368928D02*
X40408837Y-35321309D01*
X40408837Y-35321309D02*
X40361218Y-35273689D01*
X40361218Y-35273689D02*
X40313599Y-35178451D01*
X40313599Y-35178451D02*
X40265980Y-34987975D01*
X40265980Y-34987975D02*
X40265980Y-34749880D01*
X40265980Y-34749880D02*
X40313599Y-34559404D01*
X40313599Y-34559404D02*
X40361218Y-34464166D01*
X40361218Y-34464166D02*
X40408837Y-34416547D01*
X40408837Y-34416547D02*
X40504075Y-34368928D01*
X41218361Y-34464166D02*
X41265980Y-34416547D01*
X41265980Y-34416547D02*
X41361218Y-34368928D01*
X41361218Y-34368928D02*
X41599313Y-34368928D01*
X41599313Y-34368928D02*
X41694551Y-34416547D01*
X41694551Y-34416547D02*
X41742170Y-34464166D01*
X41742170Y-34464166D02*
X41789789Y-34559404D01*
X41789789Y-34559404D02*
X41789789Y-34654642D01*
X41789789Y-34654642D02*
X41742170Y-34797499D01*
X41742170Y-34797499D02*
X41170742Y-35368928D01*
X41170742Y-35368928D02*
X41789789Y-35368928D01*
X71998000Y-41619786D02*
X70998000Y-41619786D01*
X70998000Y-41619786D02*
X70998000Y-41381691D01*
X70998000Y-41381691D02*
X71045619Y-41238834D01*
X71045619Y-41238834D02*
X71140857Y-41143596D01*
X71140857Y-41143596D02*
X71236095Y-41095977D01*
X71236095Y-41095977D02*
X71426571Y-41048358D01*
X71426571Y-41048358D02*
X71569428Y-41048358D01*
X71569428Y-41048358D02*
X71759904Y-41095977D01*
X71759904Y-41095977D02*
X71855142Y-41143596D01*
X71855142Y-41143596D02*
X71950381Y-41238834D01*
X71950381Y-41238834D02*
X71998000Y-41381691D01*
X71998000Y-41381691D02*
X71998000Y-41619786D01*
X70998000Y-40715024D02*
X70998000Y-40095977D01*
X70998000Y-40095977D02*
X71378952Y-40429310D01*
X71378952Y-40429310D02*
X71378952Y-40286453D01*
X71378952Y-40286453D02*
X71426571Y-40191215D01*
X71426571Y-40191215D02*
X71474190Y-40143596D01*
X71474190Y-40143596D02*
X71569428Y-40095977D01*
X71569428Y-40095977D02*
X71807523Y-40095977D01*
X71807523Y-40095977D02*
X71902761Y-40143596D01*
X71902761Y-40143596D02*
X71950381Y-40191215D01*
X71950381Y-40191215D02*
X71998000Y-40286453D01*
X71998000Y-40286453D02*
X71998000Y-40572167D01*
X71998000Y-40572167D02*
X71950381Y-40667405D01*
X71950381Y-40667405D02*
X71902761Y-40715024D01*
X70998000Y-39476929D02*
X70998000Y-39381691D01*
X70998000Y-39381691D02*
X71045619Y-39286453D01*
X71045619Y-39286453D02*
X71093238Y-39238834D01*
X71093238Y-39238834D02*
X71188476Y-39191215D01*
X71188476Y-39191215D02*
X71378952Y-39143596D01*
X71378952Y-39143596D02*
X71617047Y-39143596D01*
X71617047Y-39143596D02*
X71807523Y-39191215D01*
X71807523Y-39191215D02*
X71902761Y-39238834D01*
X71902761Y-39238834D02*
X71950381Y-39286453D01*
X71950381Y-39286453D02*
X71998000Y-39381691D01*
X71998000Y-39381691D02*
X71998000Y-39476929D01*
X71998000Y-39476929D02*
X71950381Y-39572167D01*
X71950381Y-39572167D02*
X71902761Y-39619786D01*
X71902761Y-39619786D02*
X71807523Y-39667405D01*
X71807523Y-39667405D02*
X71617047Y-39715024D01*
X71617047Y-39715024D02*
X71378952Y-39715024D01*
X71378952Y-39715024D02*
X71188476Y-39667405D01*
X71188476Y-39667405D02*
X71093238Y-39619786D01*
X71093238Y-39619786D02*
X71045619Y-39572167D01*
X71045619Y-39572167D02*
X70998000Y-39476929D01*
X71093238Y-38762643D02*
X71045619Y-38715024D01*
X71045619Y-38715024D02*
X70998000Y-38619786D01*
X70998000Y-38619786D02*
X70998000Y-38381691D01*
X70998000Y-38381691D02*
X71045619Y-38286453D01*
X71045619Y-38286453D02*
X71093238Y-38238834D01*
X71093238Y-38238834D02*
X71188476Y-38191215D01*
X71188476Y-38191215D02*
X71283714Y-38191215D01*
X71283714Y-38191215D02*
X71426571Y-38238834D01*
X71426571Y-38238834D02*
X71998000Y-38810262D01*
X71998000Y-38810262D02*
X71998000Y-38191215D01*
X69919273Y-43226190D02*
X70252606Y-43226190D01*
X70395463Y-43750000D02*
X69919273Y-43750000D01*
X69919273Y-43750000D02*
X69919273Y-42750000D01*
X69919273Y-42750000D02*
X70395463Y-42750000D01*
X70728797Y-42750000D02*
X71347844Y-42750000D01*
X71347844Y-42750000D02*
X71014511Y-43130952D01*
X71014511Y-43130952D02*
X71157368Y-43130952D01*
X71157368Y-43130952D02*
X71252606Y-43178571D01*
X71252606Y-43178571D02*
X71300225Y-43226190D01*
X71300225Y-43226190D02*
X71347844Y-43321428D01*
X71347844Y-43321428D02*
X71347844Y-43559523D01*
X71347844Y-43559523D02*
X71300225Y-43654761D01*
X71300225Y-43654761D02*
X71252606Y-43702381D01*
X71252606Y-43702381D02*
X71157368Y-43750000D01*
X71157368Y-43750000D02*
X70871654Y-43750000D01*
X70871654Y-43750000D02*
X70776416Y-43702381D01*
X70776416Y-43702381D02*
X70728797Y-43654761D01*
X71966892Y-42750000D02*
X72062130Y-42750000D01*
X72062130Y-42750000D02*
X72157368Y-42797619D01*
X72157368Y-42797619D02*
X72204987Y-42845238D01*
X72204987Y-42845238D02*
X72252606Y-42940476D01*
X72252606Y-42940476D02*
X72300225Y-43130952D01*
X72300225Y-43130952D02*
X72300225Y-43369047D01*
X72300225Y-43369047D02*
X72252606Y-43559523D01*
X72252606Y-43559523D02*
X72204987Y-43654761D01*
X72204987Y-43654761D02*
X72157368Y-43702381D01*
X72157368Y-43702381D02*
X72062130Y-43750000D01*
X72062130Y-43750000D02*
X71966892Y-43750000D01*
X71966892Y-43750000D02*
X71871654Y-43702381D01*
X71871654Y-43702381D02*
X71824035Y-43654761D01*
X71824035Y-43654761D02*
X71776416Y-43559523D01*
X71776416Y-43559523D02*
X71728797Y-43369047D01*
X71728797Y-43369047D02*
X71728797Y-43130952D01*
X71728797Y-43130952D02*
X71776416Y-42940476D01*
X71776416Y-42940476D02*
X71824035Y-42845238D01*
X71824035Y-42845238D02*
X71871654Y-42797619D01*
X71871654Y-42797619D02*
X71966892Y-42750000D01*
X72681178Y-42845238D02*
X72728797Y-42797619D01*
X72728797Y-42797619D02*
X72824035Y-42750000D01*
X72824035Y-42750000D02*
X73062130Y-42750000D01*
X73062130Y-42750000D02*
X73157368Y-42797619D01*
X73157368Y-42797619D02*
X73204987Y-42845238D01*
X73204987Y-42845238D02*
X73252606Y-42940476D01*
X73252606Y-42940476D02*
X73252606Y-43035714D01*
X73252606Y-43035714D02*
X73204987Y-43178571D01*
X73204987Y-43178571D02*
X72633559Y-43750000D01*
X72633559Y-43750000D02*
X73252606Y-43750000D01*
X28202000Y-64665571D02*
X27202000Y-64665571D01*
X27202000Y-64665571D02*
X27202000Y-64427476D01*
X27202000Y-64427476D02*
X27249619Y-64284619D01*
X27249619Y-64284619D02*
X27344857Y-64189381D01*
X27344857Y-64189381D02*
X27440095Y-64141762D01*
X27440095Y-64141762D02*
X27630571Y-64094143D01*
X27630571Y-64094143D02*
X27773428Y-64094143D01*
X27773428Y-64094143D02*
X27963904Y-64141762D01*
X27963904Y-64141762D02*
X28059142Y-64189381D01*
X28059142Y-64189381D02*
X28154381Y-64284619D01*
X28154381Y-64284619D02*
X28202000Y-64427476D01*
X28202000Y-64427476D02*
X28202000Y-64665571D01*
X27202000Y-63760809D02*
X27202000Y-63141762D01*
X27202000Y-63141762D02*
X27582952Y-63475095D01*
X27582952Y-63475095D02*
X27582952Y-63332238D01*
X27582952Y-63332238D02*
X27630571Y-63237000D01*
X27630571Y-63237000D02*
X27678190Y-63189381D01*
X27678190Y-63189381D02*
X27773428Y-63141762D01*
X27773428Y-63141762D02*
X28011523Y-63141762D01*
X28011523Y-63141762D02*
X28106761Y-63189381D01*
X28106761Y-63189381D02*
X28154381Y-63237000D01*
X28154381Y-63237000D02*
X28202000Y-63332238D01*
X28202000Y-63332238D02*
X28202000Y-63617952D01*
X28202000Y-63617952D02*
X28154381Y-63713190D01*
X28154381Y-63713190D02*
X28106761Y-63760809D01*
X27202000Y-62522714D02*
X27202000Y-62427476D01*
X27202000Y-62427476D02*
X27249619Y-62332238D01*
X27249619Y-62332238D02*
X27297238Y-62284619D01*
X27297238Y-62284619D02*
X27392476Y-62237000D01*
X27392476Y-62237000D02*
X27582952Y-62189381D01*
X27582952Y-62189381D02*
X27821047Y-62189381D01*
X27821047Y-62189381D02*
X28011523Y-62237000D01*
X28011523Y-62237000D02*
X28106761Y-62284619D01*
X28106761Y-62284619D02*
X28154381Y-62332238D01*
X28154381Y-62332238D02*
X28202000Y-62427476D01*
X28202000Y-62427476D02*
X28202000Y-62522714D01*
X28202000Y-62522714D02*
X28154381Y-62617952D01*
X28154381Y-62617952D02*
X28106761Y-62665571D01*
X28106761Y-62665571D02*
X28011523Y-62713190D01*
X28011523Y-62713190D02*
X27821047Y-62760809D01*
X27821047Y-62760809D02*
X27582952Y-62760809D01*
X27582952Y-62760809D02*
X27392476Y-62713190D01*
X27392476Y-62713190D02*
X27297238Y-62665571D01*
X27297238Y-62665571D02*
X27249619Y-62617952D01*
X27249619Y-62617952D02*
X27202000Y-62522714D01*
X28202000Y-61237000D02*
X28202000Y-61808428D01*
X28202000Y-61522714D02*
X27202000Y-61522714D01*
X27202000Y-61522714D02*
X27344857Y-61617952D01*
X27344857Y-61617952D02*
X27440095Y-61713190D01*
X27440095Y-61713190D02*
X27487714Y-61808428D01*
X74040000Y-57664285D02*
X73659047Y-57930952D01*
X74040000Y-58121428D02*
X73240000Y-58121428D01*
X73240000Y-58121428D02*
X73240000Y-57816666D01*
X73240000Y-57816666D02*
X73278095Y-57740476D01*
X73278095Y-57740476D02*
X73316190Y-57702381D01*
X73316190Y-57702381D02*
X73392381Y-57664285D01*
X73392381Y-57664285D02*
X73506666Y-57664285D01*
X73506666Y-57664285D02*
X73582857Y-57702381D01*
X73582857Y-57702381D02*
X73620952Y-57740476D01*
X73620952Y-57740476D02*
X73659047Y-57816666D01*
X73659047Y-57816666D02*
X73659047Y-58121428D01*
X73240000Y-56940476D02*
X73240000Y-57321428D01*
X73240000Y-57321428D02*
X73620952Y-57359524D01*
X73620952Y-57359524D02*
X73582857Y-57321428D01*
X73582857Y-57321428D02*
X73544762Y-57245238D01*
X73544762Y-57245238D02*
X73544762Y-57054762D01*
X73544762Y-57054762D02*
X73582857Y-56978571D01*
X73582857Y-56978571D02*
X73620952Y-56940476D01*
X73620952Y-56940476D02*
X73697143Y-56902381D01*
X73697143Y-56902381D02*
X73887619Y-56902381D01*
X73887619Y-56902381D02*
X73963809Y-56940476D01*
X73963809Y-56940476D02*
X74001905Y-56978571D01*
X74001905Y-56978571D02*
X74040000Y-57054762D01*
X74040000Y-57054762D02*
X74040000Y-57245238D01*
X74040000Y-57245238D02*
X74001905Y-57321428D01*
X74001905Y-57321428D02*
X73963809Y-57359524D01*
X73240000Y-56407142D02*
X73240000Y-56330952D01*
X73240000Y-56330952D02*
X73278095Y-56254761D01*
X73278095Y-56254761D02*
X73316190Y-56216666D01*
X73316190Y-56216666D02*
X73392381Y-56178571D01*
X73392381Y-56178571D02*
X73544762Y-56140476D01*
X73544762Y-56140476D02*
X73735238Y-56140476D01*
X73735238Y-56140476D02*
X73887619Y-56178571D01*
X73887619Y-56178571D02*
X73963809Y-56216666D01*
X73963809Y-56216666D02*
X74001905Y-56254761D01*
X74001905Y-56254761D02*
X74040000Y-56330952D01*
X74040000Y-56330952D02*
X74040000Y-56407142D01*
X74040000Y-56407142D02*
X74001905Y-56483333D01*
X74001905Y-56483333D02*
X73963809Y-56521428D01*
X73963809Y-56521428D02*
X73887619Y-56559523D01*
X73887619Y-56559523D02*
X73735238Y-56597619D01*
X73735238Y-56597619D02*
X73544762Y-56597619D01*
X73544762Y-56597619D02*
X73392381Y-56559523D01*
X73392381Y-56559523D02*
X73316190Y-56521428D01*
X73316190Y-56521428D02*
X73278095Y-56483333D01*
X73278095Y-56483333D02*
X73240000Y-56407142D01*
X73240000Y-55416666D02*
X73240000Y-55797618D01*
X73240000Y-55797618D02*
X73620952Y-55835714D01*
X73620952Y-55835714D02*
X73582857Y-55797618D01*
X73582857Y-55797618D02*
X73544762Y-55721428D01*
X73544762Y-55721428D02*
X73544762Y-55530952D01*
X73544762Y-55530952D02*
X73582857Y-55454761D01*
X73582857Y-55454761D02*
X73620952Y-55416666D01*
X73620952Y-55416666D02*
X73697143Y-55378571D01*
X73697143Y-55378571D02*
X73887619Y-55378571D01*
X73887619Y-55378571D02*
X73963809Y-55416666D01*
X73963809Y-55416666D02*
X74001905Y-55454761D01*
X74001905Y-55454761D02*
X74040000Y-55530952D01*
X74040000Y-55530952D02*
X74040000Y-55721428D01*
X74040000Y-55721428D02*
X74001905Y-55797618D01*
X74001905Y-55797618D02*
X73963809Y-55835714D01*
X26801767Y-57855120D02*
X27516052Y-57855120D01*
X27516052Y-57855120D02*
X27658909Y-57902739D01*
X27658909Y-57902739D02*
X27754148Y-57997977D01*
X27754148Y-57997977D02*
X27801767Y-58140834D01*
X27801767Y-58140834D02*
X27801767Y-58236072D01*
X26801767Y-57474167D02*
X26801767Y-56855120D01*
X26801767Y-56855120D02*
X27182719Y-57188453D01*
X27182719Y-57188453D02*
X27182719Y-57045596D01*
X27182719Y-57045596D02*
X27230338Y-56950358D01*
X27230338Y-56950358D02*
X27277957Y-56902739D01*
X27277957Y-56902739D02*
X27373195Y-56855120D01*
X27373195Y-56855120D02*
X27611290Y-56855120D01*
X27611290Y-56855120D02*
X27706528Y-56902739D01*
X27706528Y-56902739D02*
X27754148Y-56950358D01*
X27754148Y-56950358D02*
X27801767Y-57045596D01*
X27801767Y-57045596D02*
X27801767Y-57331310D01*
X27801767Y-57331310D02*
X27754148Y-57426548D01*
X27754148Y-57426548D02*
X27706528Y-57474167D01*
X26801767Y-56236072D02*
X26801767Y-56140834D01*
X26801767Y-56140834D02*
X26849386Y-56045596D01*
X26849386Y-56045596D02*
X26897005Y-55997977D01*
X26897005Y-55997977D02*
X26992243Y-55950358D01*
X26992243Y-55950358D02*
X27182719Y-55902739D01*
X27182719Y-55902739D02*
X27420814Y-55902739D01*
X27420814Y-55902739D02*
X27611290Y-55950358D01*
X27611290Y-55950358D02*
X27706528Y-55997977D01*
X27706528Y-55997977D02*
X27754148Y-56045596D01*
X27754148Y-56045596D02*
X27801767Y-56140834D01*
X27801767Y-56140834D02*
X27801767Y-56236072D01*
X27801767Y-56236072D02*
X27754148Y-56331310D01*
X27754148Y-56331310D02*
X27706528Y-56378929D01*
X27706528Y-56378929D02*
X27611290Y-56426548D01*
X27611290Y-56426548D02*
X27420814Y-56474167D01*
X27420814Y-56474167D02*
X27182719Y-56474167D01*
X27182719Y-56474167D02*
X26992243Y-56426548D01*
X26992243Y-56426548D02*
X26897005Y-56378929D01*
X26897005Y-56378929D02*
X26849386Y-56331310D01*
X26849386Y-56331310D02*
X26801767Y-56236072D01*
X26897005Y-55521786D02*
X26849386Y-55474167D01*
X26849386Y-55474167D02*
X26801767Y-55378929D01*
X26801767Y-55378929D02*
X26801767Y-55140834D01*
X26801767Y-55140834D02*
X26849386Y-55045596D01*
X26849386Y-55045596D02*
X26897005Y-54997977D01*
X26897005Y-54997977D02*
X26992243Y-54950358D01*
X26992243Y-54950358D02*
X27087481Y-54950358D01*
X27087481Y-54950358D02*
X27230338Y-54997977D01*
X27230338Y-54997977D02*
X27801767Y-55569405D01*
X27801767Y-55569405D02*
X27801767Y-54950358D01*
X66132857Y-57029761D02*
X66085238Y-57077381D01*
X66085238Y-57077381D02*
X65942381Y-57125000D01*
X65942381Y-57125000D02*
X65847143Y-57125000D01*
X65847143Y-57125000D02*
X65704286Y-57077381D01*
X65704286Y-57077381D02*
X65609048Y-56982142D01*
X65609048Y-56982142D02*
X65561429Y-56886904D01*
X65561429Y-56886904D02*
X65513810Y-56696428D01*
X65513810Y-56696428D02*
X65513810Y-56553571D01*
X65513810Y-56553571D02*
X65561429Y-56363095D01*
X65561429Y-56363095D02*
X65609048Y-56267857D01*
X65609048Y-56267857D02*
X65704286Y-56172619D01*
X65704286Y-56172619D02*
X65847143Y-56125000D01*
X65847143Y-56125000D02*
X65942381Y-56125000D01*
X65942381Y-56125000D02*
X66085238Y-56172619D01*
X66085238Y-56172619D02*
X66132857Y-56220238D01*
X67037619Y-56125000D02*
X66561429Y-56125000D01*
X66561429Y-56125000D02*
X66513810Y-56601190D01*
X66513810Y-56601190D02*
X66561429Y-56553571D01*
X66561429Y-56553571D02*
X66656667Y-56505952D01*
X66656667Y-56505952D02*
X66894762Y-56505952D01*
X66894762Y-56505952D02*
X66990000Y-56553571D01*
X66990000Y-56553571D02*
X67037619Y-56601190D01*
X67037619Y-56601190D02*
X67085238Y-56696428D01*
X67085238Y-56696428D02*
X67085238Y-56934523D01*
X67085238Y-56934523D02*
X67037619Y-57029761D01*
X67037619Y-57029761D02*
X66990000Y-57077381D01*
X66990000Y-57077381D02*
X66894762Y-57125000D01*
X66894762Y-57125000D02*
X66656667Y-57125000D01*
X66656667Y-57125000D02*
X66561429Y-57077381D01*
X66561429Y-57077381D02*
X66513810Y-57029761D01*
X67704286Y-56125000D02*
X67799524Y-56125000D01*
X67799524Y-56125000D02*
X67894762Y-56172619D01*
X67894762Y-56172619D02*
X67942381Y-56220238D01*
X67942381Y-56220238D02*
X67990000Y-56315476D01*
X67990000Y-56315476D02*
X68037619Y-56505952D01*
X68037619Y-56505952D02*
X68037619Y-56744047D01*
X68037619Y-56744047D02*
X67990000Y-56934523D01*
X67990000Y-56934523D02*
X67942381Y-57029761D01*
X67942381Y-57029761D02*
X67894762Y-57077381D01*
X67894762Y-57077381D02*
X67799524Y-57125000D01*
X67799524Y-57125000D02*
X67704286Y-57125000D01*
X67704286Y-57125000D02*
X67609048Y-57077381D01*
X67609048Y-57077381D02*
X67561429Y-57029761D01*
X67561429Y-57029761D02*
X67513810Y-56934523D01*
X67513810Y-56934523D02*
X67466191Y-56744047D01*
X67466191Y-56744047D02*
X67466191Y-56505952D01*
X67466191Y-56505952D02*
X67513810Y-56315476D01*
X67513810Y-56315476D02*
X67561429Y-56220238D01*
X67561429Y-56220238D02*
X67609048Y-56172619D01*
X67609048Y-56172619D02*
X67704286Y-56125000D01*
X68894762Y-56125000D02*
X68704286Y-56125000D01*
X68704286Y-56125000D02*
X68609048Y-56172619D01*
X68609048Y-56172619D02*
X68561429Y-56220238D01*
X68561429Y-56220238D02*
X68466191Y-56363095D01*
X68466191Y-56363095D02*
X68418572Y-56553571D01*
X68418572Y-56553571D02*
X68418572Y-56934523D01*
X68418572Y-56934523D02*
X68466191Y-57029761D01*
X68466191Y-57029761D02*
X68513810Y-57077381D01*
X68513810Y-57077381D02*
X68609048Y-57125000D01*
X68609048Y-57125000D02*
X68799524Y-57125000D01*
X68799524Y-57125000D02*
X68894762Y-57077381D01*
X68894762Y-57077381D02*
X68942381Y-57029761D01*
X68942381Y-57029761D02*
X68990000Y-56934523D01*
X68990000Y-56934523D02*
X68990000Y-56696428D01*
X68990000Y-56696428D02*
X68942381Y-56601190D01*
X68942381Y-56601190D02*
X68894762Y-56553571D01*
X68894762Y-56553571D02*
X68799524Y-56505952D01*
X68799524Y-56505952D02*
X68609048Y-56505952D01*
X68609048Y-56505952D02*
X68513810Y-56553571D01*
X68513810Y-56553571D02*
X68466191Y-56601190D01*
X68466191Y-56601190D02*
X68418572Y-56696428D01*
X68504973Y-66447095D02*
X69314496Y-66447095D01*
X69314496Y-66447095D02*
X69409734Y-66399476D01*
X69409734Y-66399476D02*
X69457354Y-66351857D01*
X69457354Y-66351857D02*
X69504973Y-66256619D01*
X69504973Y-66256619D02*
X69504973Y-66066143D01*
X69504973Y-66066143D02*
X69457354Y-65970905D01*
X69457354Y-65970905D02*
X69409734Y-65923286D01*
X69409734Y-65923286D02*
X69314496Y-65875667D01*
X69314496Y-65875667D02*
X68504973Y-65875667D01*
X68504973Y-65494714D02*
X68504973Y-64875667D01*
X68504973Y-64875667D02*
X68885925Y-65209000D01*
X68885925Y-65209000D02*
X68885925Y-65066143D01*
X68885925Y-65066143D02*
X68933544Y-64970905D01*
X68933544Y-64970905D02*
X68981163Y-64923286D01*
X68981163Y-64923286D02*
X69076401Y-64875667D01*
X69076401Y-64875667D02*
X69314496Y-64875667D01*
X69314496Y-64875667D02*
X69409734Y-64923286D01*
X69409734Y-64923286D02*
X69457354Y-64970905D01*
X69457354Y-64970905D02*
X69504973Y-65066143D01*
X69504973Y-65066143D02*
X69504973Y-65351857D01*
X69504973Y-65351857D02*
X69457354Y-65447095D01*
X69457354Y-65447095D02*
X69409734Y-65494714D01*
X68504973Y-64256619D02*
X68504973Y-64161381D01*
X68504973Y-64161381D02*
X68552592Y-64066143D01*
X68552592Y-64066143D02*
X68600211Y-64018524D01*
X68600211Y-64018524D02*
X68695449Y-63970905D01*
X68695449Y-63970905D02*
X68885925Y-63923286D01*
X68885925Y-63923286D02*
X69124020Y-63923286D01*
X69124020Y-63923286D02*
X69314496Y-63970905D01*
X69314496Y-63970905D02*
X69409734Y-64018524D01*
X69409734Y-64018524D02*
X69457354Y-64066143D01*
X69457354Y-64066143D02*
X69504973Y-64161381D01*
X69504973Y-64161381D02*
X69504973Y-64256619D01*
X69504973Y-64256619D02*
X69457354Y-64351857D01*
X69457354Y-64351857D02*
X69409734Y-64399476D01*
X69409734Y-64399476D02*
X69314496Y-64447095D01*
X69314496Y-64447095D02*
X69124020Y-64494714D01*
X69124020Y-64494714D02*
X68885925Y-64494714D01*
X68885925Y-64494714D02*
X68695449Y-64447095D01*
X68695449Y-64447095D02*
X68600211Y-64399476D01*
X68600211Y-64399476D02*
X68552592Y-64351857D01*
X68552592Y-64351857D02*
X68504973Y-64256619D01*
X68600211Y-63542333D02*
X68552592Y-63494714D01*
X68552592Y-63494714D02*
X68504973Y-63399476D01*
X68504973Y-63399476D02*
X68504973Y-63161381D01*
X68504973Y-63161381D02*
X68552592Y-63066143D01*
X68552592Y-63066143D02*
X68600211Y-63018524D01*
X68600211Y-63018524D02*
X68695449Y-62970905D01*
X68695449Y-62970905D02*
X68790687Y-62970905D01*
X68790687Y-62970905D02*
X68933544Y-63018524D01*
X68933544Y-63018524D02*
X69504973Y-63589952D01*
X69504973Y-63589952D02*
X69504973Y-62970905D01*
%TO.C,U401*%
D13*
X51590000Y-55640000D02*
X52265000Y-55640000D01*
X51590000Y-55815000D02*
X51590000Y-55640000D01*
X51590000Y-58360000D02*
X51590000Y-58185000D01*
X52265000Y-58360000D02*
X51590000Y-58360000D01*
X54135000Y-55640000D02*
X54810000Y-55640000D01*
X54810000Y-55640000D02*
X54810000Y-55815000D01*
X54810000Y-58185000D02*
X54810000Y-58360000D01*
X54810000Y-58360000D02*
X54135000Y-58360000D01*
X51460000Y-56250000D02*
X51130000Y-56490000D01*
X51130000Y-56010000D01*
X51460000Y-56250000D01*
G36*
X51460000Y-56250000D02*
G01*
X51130000Y-56490000D01*
X51130000Y-56010000D01*
X51460000Y-56250000D01*
G37*
%TO.C,D303*%
D14*
X28610000Y-53550000D02*
G75*
G02*
X28450000Y-53550000I-80000J0D01*
G01*
X28450000Y-53550000D02*
G75*
G02*
X28610000Y-53550000I80000J0D01*
G01*
%TO.C,SW301*%
D13*
X47280000Y-48540000D02*
X47280000Y-46460000D01*
X48550000Y-44780000D02*
X48060000Y-45270000D01*
X48550000Y-44780000D02*
X51450000Y-44780000D01*
X48550000Y-50220000D02*
X48060000Y-49730000D01*
X48550000Y-50220000D02*
X51450000Y-50220000D01*
X51450000Y-44780000D02*
X51940000Y-45270000D01*
X51450000Y-50220000D02*
X51940000Y-49730000D01*
X52720000Y-48540000D02*
X52720000Y-46460000D01*
%TO.C,C403*%
X36150000Y-32167836D02*
X36150000Y-31952164D01*
X36870000Y-32167836D02*
X36870000Y-31952164D01*
%TO.C,U101*%
X49065000Y-32710000D02*
X49065000Y-31290000D01*
X50065000Y-32710000D02*
X49935000Y-32710000D01*
X50935000Y-31574432D02*
X50935000Y-32710000D01*
X50940000Y-31280000D02*
X51130000Y-31140000D01*
X51130000Y-31420000D01*
X50940000Y-31280000D01*
G36*
X51130000Y-31420000D02*
G01*
X50940000Y-31280000D01*
X51130000Y-31140000D01*
X51130000Y-31420000D01*
G37*
%TO.C,R211*%
X70306359Y-57770000D02*
X70613641Y-57770000D01*
X70306359Y-58530000D02*
X70613641Y-58530000D01*
%TO.C,C402*%
X52092164Y-58890000D02*
X52307836Y-58890000D01*
X52092164Y-59610000D02*
X52307836Y-59610000D01*
%TO.C,C303*%
X72344164Y-60761000D02*
X72559836Y-60761000D01*
X72344164Y-61481000D02*
X72559836Y-61481000D01*
%TO.C,R506*%
X67986359Y-54570000D02*
X68293641Y-54570000D01*
X67986359Y-55330000D02*
X68293641Y-55330000D01*
%TO.C,J301*%
X37000000Y-44400000D02*
X36100000Y-44400000D01*
X37000000Y-55600000D02*
X36100000Y-55600000D01*
X39010000Y-45750000D02*
G75*
G02*
X38890000Y-45750000I-60000J0D01*
G01*
X38890000Y-45750000D02*
G75*
G02*
X39010000Y-45750000I60000J0D01*
G01*
%TO.C,R306*%
X69913359Y-68437000D02*
X70220641Y-68437000D01*
X69913359Y-69197000D02*
X70220641Y-69197000D01*
%TO.C,U503*%
X68800000Y-47900000D02*
X74000000Y-47900000D01*
X68800000Y-52100000D02*
X68800000Y-47900000D01*
X74000000Y-47900000D02*
X74000000Y-52100000D01*
X74000000Y-52100000D02*
X68800000Y-52100000D01*
X73900000Y-46700000D02*
X73900000Y-47300000D01*
X73400000Y-47000000D01*
X73900000Y-46700000D01*
G36*
X73900000Y-47300000D02*
G01*
X73400000Y-47000000D01*
X73900000Y-46700000D01*
X73900000Y-47300000D01*
G37*
%TO.C,U403*%
D15*
X59317835Y-29524630D02*
G75*
G02*
X59217835Y-29524630I-50000J0D01*
G01*
X59217835Y-29524630D02*
G75*
G02*
X59317835Y-29524630I50000J0D01*
G01*
%TO.C,R309*%
D13*
X38653641Y-65750000D02*
X38346359Y-65750000D01*
X38653641Y-66510000D02*
X38346359Y-66510000D01*
%TO.C,R210*%
X42304000Y-28667641D02*
X42304000Y-28360359D01*
X43064000Y-28667641D02*
X43064000Y-28360359D01*
%TO.C,U402*%
X37530770Y-31555287D02*
X37812453Y-32085056D01*
X37766796Y-30976762D02*
X38049339Y-30826531D01*
X38610554Y-33586067D02*
X38328872Y-33056298D01*
X39140323Y-33304384D02*
X38610554Y-33586067D01*
X40963066Y-29277275D02*
X41492835Y-28995592D01*
X41492835Y-28995592D02*
X41774518Y-29525361D01*
X42478725Y-30849782D02*
X42760408Y-31379551D01*
X42760408Y-31379551D02*
X42230640Y-31661233D01*
X37495882Y-31234067D02*
X37248657Y-31365519D01*
X37364430Y-30986841D01*
X37495882Y-31234067D01*
G36*
X37495882Y-31234067D02*
G01*
X37248657Y-31365519D01*
X37364430Y-30986841D01*
X37495882Y-31234067D01*
G37*
%TO.C,C304*%
X71123164Y-67152000D02*
X71338836Y-67152000D01*
X71123164Y-67872000D02*
X71338836Y-67872000D01*
%TO.C,C301*%
X39240000Y-54277836D02*
X39240000Y-54062164D01*
X39960000Y-54277836D02*
X39960000Y-54062164D01*
%TO.C,D302*%
D14*
X72878000Y-39248000D02*
G75*
G02*
X72718000Y-39248000I-80000J0D01*
G01*
X72718000Y-39248000D02*
G75*
G02*
X72878000Y-39248000I80000J0D01*
G01*
%TO.C,C401*%
D13*
X54950836Y-58890000D02*
X54735164Y-58890000D01*
X54950836Y-59610000D02*
X54735164Y-59610000D01*
%TO.C,R307*%
X38653641Y-67020000D02*
X38346359Y-67020000D01*
X38653641Y-67780000D02*
X38346359Y-67780000D01*
%TO.C,C302*%
X39290000Y-46515580D02*
X39290000Y-46234420D01*
X40310000Y-46515580D02*
X40310000Y-46234420D01*
%TO.C,C501*%
X28490000Y-51340580D02*
X28490000Y-51059420D01*
X29510000Y-51340580D02*
X29510000Y-51059420D01*
%TO.C,U301*%
X71744519Y-63316577D02*
X71757019Y-63294926D01*
X72392019Y-62195074D02*
X72404519Y-62173423D01*
X72404519Y-62173423D02*
X73657785Y-62896997D01*
X73147481Y-64126577D02*
X71744519Y-63316577D01*
X73159981Y-64104926D02*
X73147481Y-64126577D01*
X73918724Y-63070744D02*
X73892481Y-62836199D01*
X74134968Y-62976199D01*
X73918724Y-63070744D01*
G36*
X74134968Y-62976199D02*
G01*
X73918724Y-63070744D01*
X73892481Y-62836199D01*
X74134968Y-62976199D01*
G37*
%TO.C,C502*%
X30040000Y-51807836D02*
X30040000Y-51592164D01*
X30760000Y-51807836D02*
X30760000Y-51592164D01*
%TO.C,C405*%
X57759000Y-29289836D02*
X57759000Y-29074164D01*
X58479000Y-29289836D02*
X58479000Y-29074164D01*
%TO.C,D301*%
D14*
X27282000Y-60752000D02*
G75*
G02*
X27122000Y-60752000I-80000J0D01*
G01*
X27122000Y-60752000D02*
G75*
G02*
X27282000Y-60752000I80000J0D01*
G01*
%TO.C,R310*%
D13*
X38653641Y-64480000D02*
X38346359Y-64480000D01*
X38653641Y-65240000D02*
X38346359Y-65240000D01*
%TO.C,R401*%
X44203641Y-30860000D02*
X43896359Y-30860000D01*
X44203641Y-31620000D02*
X43896359Y-31620000D01*
%TO.C,R505*%
X72113641Y-56370000D02*
X71806359Y-56370000D01*
X72113641Y-57130000D02*
X71806359Y-57130000D01*
%TO.C,C506*%
X69560000Y-56015580D02*
X69560000Y-55734420D01*
X70580000Y-56015580D02*
X70580000Y-55734420D01*
%TO.C,C404*%
X35749000Y-29592580D02*
X35749000Y-29311420D01*
X36769000Y-29592580D02*
X36769000Y-29311420D01*
%TO.C,U302*%
X70233758Y-65516845D02*
X70248453Y-65496620D01*
X70994940Y-64469168D02*
X71009635Y-64448943D01*
X71009635Y-64448943D02*
X72180401Y-65299554D01*
X71544365Y-66469057D02*
X70233758Y-65516845D01*
X71559060Y-66448832D02*
X71544365Y-66469057D01*
X72421749Y-65499625D02*
X72420166Y-65263622D01*
X72646690Y-65428202D01*
X72421749Y-65499625D01*
G36*
X72646690Y-65428202D02*
G01*
X72421749Y-65499625D01*
X72420166Y-65263622D01*
X72646690Y-65428202D01*
G37*
%TD*%
%LPC*%
D16*
%TO.C,U401*%
X52037500Y-56250000D03*
X52037500Y-56750000D03*
X52037500Y-57250000D03*
X52037500Y-57750000D03*
D17*
X52700000Y-57912500D03*
X53200000Y-57912500D03*
X53700000Y-57912500D03*
D16*
X54362500Y-57750000D03*
X54362500Y-57250000D03*
X54362500Y-56750000D03*
X54362500Y-56250000D03*
D17*
X53700000Y-56087500D03*
X53200000Y-56087500D03*
X52700000Y-56087500D03*
%TD*%
D18*
%TO.C,D303*%
X28980000Y-53550000D03*
X29680000Y-53550000D03*
%TD*%
D19*
%TO.C,H3*%
X32322000Y-67678000D03*
%TD*%
D20*
%TO.C,SW301*%
X46900000Y-45650000D03*
X53100000Y-45650000D03*
X46900000Y-49350000D03*
X53100000Y-49350000D03*
%TD*%
D21*
%TO.C,C403*%
X36510000Y-32540000D03*
X36510000Y-31580000D03*
%TD*%
D22*
%TO.C,U101*%
X50500000Y-31287500D03*
X50000000Y-31287500D03*
X49500000Y-31287500D03*
X49500000Y-32712500D03*
X50500000Y-32712500D03*
%TD*%
D19*
%TO.C,FID1*%
X65600000Y-29800000D03*
%TD*%
D23*
%TO.C,R211*%
X69950000Y-58150000D03*
X70970000Y-58150000D03*
%TD*%
D24*
%TO.C,C402*%
X51720000Y-59250000D03*
X52680000Y-59250000D03*
%TD*%
%TO.C,C303*%
X71972000Y-61121000D03*
X72932000Y-61121000D03*
%TD*%
D23*
%TO.C,R506*%
X67630000Y-54950000D03*
X68650000Y-54950000D03*
%TD*%
D19*
%TO.C,FID3*%
X30000000Y-41000000D03*
%TD*%
D25*
%TO.C,J301*%
X38000000Y-45750000D03*
X38000000Y-46250000D03*
X38000000Y-46750000D03*
X38000000Y-47250000D03*
X38000000Y-47750000D03*
X38000000Y-48250000D03*
X38000000Y-48750000D03*
X38000000Y-49250000D03*
X38000000Y-49750000D03*
X38000000Y-50250000D03*
X38000000Y-50750000D03*
X38000000Y-51250000D03*
X38000000Y-51750000D03*
X38000000Y-52250000D03*
X38000000Y-52750000D03*
X38000000Y-53250000D03*
X38000000Y-53750000D03*
X38000000Y-54250000D03*
D26*
X35500000Y-44750000D03*
X35500000Y-55250000D03*
%TD*%
D23*
%TO.C,R306*%
X69557000Y-68817000D03*
X70577000Y-68817000D03*
%TD*%
D27*
%TO.C,U503*%
X72670000Y-46850000D03*
X70130000Y-46850000D03*
X70130000Y-53150000D03*
X72670000Y-53150000D03*
%TD*%
D28*
%TO.C,U403*%
X59419356Y-30262086D03*
X59114200Y-30836002D03*
X58809043Y-31409918D03*
X60486644Y-32301914D03*
X60791800Y-31727998D03*
X61096957Y-31154082D03*
D29*
X59953000Y-31282000D03*
%TD*%
D30*
%TO.C,R309*%
X39010000Y-66130000D03*
X37990000Y-66130000D03*
%TD*%
D31*
%TO.C,R210*%
X42684000Y-29024000D03*
X42684000Y-28004000D03*
%TD*%
D32*
%TO.C,U402*%
X38258707Y-31326796D03*
X38969759Y-30960049D03*
X39671423Y-30575642D03*
X40377781Y-30200065D03*
X41084139Y-29824487D03*
X41459716Y-30530845D03*
X41835293Y-31237204D03*
X41128935Y-31612781D03*
X40422577Y-31988358D03*
X39716219Y-32363935D03*
X39009861Y-32739513D03*
X38634284Y-32033155D03*
%TD*%
D24*
%TO.C,C304*%
X70751000Y-67512000D03*
X71711000Y-67512000D03*
%TD*%
D21*
%TO.C,C301*%
X39600000Y-54650000D03*
X39600000Y-53690000D03*
%TD*%
D33*
%TO.C,D302*%
X72798000Y-39698000D03*
X72798000Y-40398000D03*
%TD*%
D34*
%TO.C,C401*%
X55323000Y-59250000D03*
X54363000Y-59250000D03*
%TD*%
D30*
%TO.C,R307*%
X39010000Y-67400000D03*
X37990000Y-67400000D03*
%TD*%
D35*
%TO.C,C302*%
X39800000Y-47150000D03*
X39800000Y-45600000D03*
%TD*%
D19*
%TO.C,FID2*%
X55500000Y-66000000D03*
%TD*%
D35*
%TO.C,C501*%
X29000000Y-51975000D03*
X29000000Y-50425000D03*
%TD*%
D36*
%TO.C,U301*%
X73572170Y-63320994D03*
X72229830Y-62545994D03*
X71979830Y-62979006D03*
X73322170Y-63754006D03*
D37*
X72776000Y-63150000D03*
%TD*%
D21*
%TO.C,C502*%
X30400000Y-52180000D03*
X30400000Y-51220000D03*
%TD*%
%TO.C,C405*%
X58119000Y-29662000D03*
X58119000Y-28702000D03*
%TD*%
D38*
%TO.C,D301*%
X27202000Y-60302000D03*
X27202000Y-59602000D03*
%TD*%
D30*
%TO.C,R310*%
X39010000Y-64860000D03*
X37990000Y-64860000D03*
%TD*%
D39*
%TO.C,H2*%
X68579000Y-33272000D03*
%TD*%
D30*
%TO.C,R401*%
X44560000Y-31240000D03*
X43540000Y-31240000D03*
%TD*%
%TO.C,R505*%
X72470000Y-56750000D03*
X71450000Y-56750000D03*
%TD*%
D39*
%TO.C,H1*%
X31421000Y-33272000D03*
%TD*%
D40*
%TO.C,J302*%
X30079000Y-57251000D03*
%TD*%
D35*
%TO.C,C506*%
X70070000Y-56650000D03*
X70070000Y-55100000D03*
%TD*%
%TO.C,C404*%
X36259000Y-30227000D03*
X36259000Y-28677000D03*
%TD*%
D41*
%TO.C,U302*%
X72050934Y-65712279D03*
X70796958Y-64801212D03*
X70503066Y-65205721D03*
X71757042Y-66116788D03*
D42*
X71277000Y-65459000D03*
%TD*%
D43*
%TO.C,J201*%
X65200000Y-70140000D03*
X64184000Y-65060000D03*
X66216000Y-65060000D03*
%TD*%
D44*
%TO.C,J101*%
X47110000Y-26650000D03*
X52890000Y-26650000D03*
D45*
X45680000Y-23000000D03*
D46*
X45680000Y-27180000D03*
D45*
X54320000Y-23000000D03*
D46*
X54320000Y-27180000D03*
%TD*%
D47*
%TO.C,MK401*%
X71360241Y-55323828D03*
%TD*%
%LPD*%
M02*
