%TF.GenerationSoftware,KiCad,Pcbnew,10.0.6*%
%TF.CreationDate,2026-10-06T18:19:45+02:00*%
%TF.ProjectId,MAO_MAIN_A1,4d414f5f-4d41-4494-9e5f-41312e6b6963,A1*%
%TF.SameCoordinates,Original*%
%TF.FileFunction,Soldermask,Bot*%
%TF.FilePolarity,Negative*%
%FSLAX46Y46*%
G04 Gerber Fmt 4.6, Leading zero omitted, Abs format (unit mm)*
G04 Created by KiCad (PCBNEW 10.0.6) date 2026-10-06 18:19:45*
%MOMM*%
%LPD*%
G01*
G04 APERTURE LIST*
G04 Aperture macros list*
%AMRoundRect*
0 Rectangle with rounded corners*
0 $1 Rounding radius*
0 $2 $3 $4 $5 $6 $7 $8 $9 X,Y pos of 4 corners*
0 Add a 4 corners polygon primitive as box body*
4,1,4,$2,$3,$4,$5,$6,$7,$8,$9,$2,$3,0*
0 Add four circle primitives for the rounded corners*
1,1,$1+$1,$2,$3*
1,1,$1+$1,$4,$5*
1,1,$1+$1,$6,$7*
1,1,$1+$1,$8,$9*
0 Add four rect primitives between the rounded corners*
20,1,$1+$1,$2,$3,$4,$5,0*
20,1,$1+$1,$4,$5,$6,$7,0*
20,1,$1+$1,$6,$7,$8,$9,0*
20,1,$1+$1,$8,$9,$2,$3,0*%
%AMOutline5P*
0 Free polygon, 5 corners , with rotation*
0 The origin of the aperture is its center*
0 number of corners: always 5*
0 $1 to $10 corner X, Y*
0 $11 Rotation angle, in degrees counterclockwise*
0 create outline with 5 corners*
4,1,5,$1,$2,$3,$4,$5,$6,$7,$8,$9,$10,$1,$2,$11*%
%AMOutline6P*
0 Free polygon, 6 corners , with rotation*
0 The origin of the aperture is its center*
0 number of corners: always 6*
0 $1 to $12 corner X, Y*
0 $13 Rotation angle, in degrees counterclockwise*
0 create outline with 6 corners*
4,1,6,$1,$2,$3,$4,$5,$6,$7,$8,$9,$10,$11,$12,$1,$2,$13*%
%AMOutline7P*
0 Free polygon, 7 corners , with rotation*
0 The origin of the aperture is its center*
0 number of corners: always 7*
0 $1 to $14 corner X, Y*
0 $15 Rotation angle, in degrees counterclockwise*
0 create outline with 7 corners*
4,1,7,$1,$2,$3,$4,$5,$6,$7,$8,$9,$10,$11,$12,$13,$14,$1,$2,$15*%
%AMOutline8P*
0 Free polygon, 8 corners , with rotation*
0 The origin of the aperture is its center*
0 number of corners: always 8*
0 $1 to $16 corner X, Y*
0 $17 Rotation angle, in degrees counterclockwise*
0 create outline with 8 corners*
4,1,8,$1,$2,$3,$4,$5,$6,$7,$8,$9,$10,$11,$12,$13,$14,$15,$16,$1,$2,$17*%
G04 Aperture macros list end*
%ADD10C,2.000000*%
%ADD11C,2.200000*%
%ADD12RoundRect,0.135000X-0.135000X-0.185000X0.135000X-0.185000X0.135000X0.185000X-0.135000X0.185000X0*%
%ADD13C,1.000000*%
%ADD14RoundRect,0.140000X0.170000X-0.140000X0.170000X0.140000X-0.170000X0.140000X-0.170000X-0.140000X0*%
%ADD15RoundRect,0.150000X-0.587500X-0.150000X0.587500X-0.150000X0.587500X0.150000X-0.587500X0.150000X0*%
%ADD16C,1.200000*%
%ADD17RoundRect,0.135000X0.185000X-0.135000X0.185000X0.135000X-0.185000X0.135000X-0.185000X-0.135000X0*%
%ADD18C,0.650000*%
%ADD19RoundRect,0.150000X-0.150000X-0.575000X0.150000X-0.575000X0.150000X0.575000X-0.150000X0.575000X0*%
%ADD20RoundRect,0.075000X-0.075000X-0.650000X0.075000X-0.650000X0.075000X0.650000X-0.075000X0.650000X0*%
%ADD21O,1.000000X1.600000*%
%ADD22O,1.000000X2.100000*%
%ADD23R,0.800000X0.300000*%
%ADD24R,0.800000X0.400000*%
%ADD25RoundRect,0.250000X0.625000X-0.312500X0.625000X0.312500X-0.625000X0.312500X-0.625000X-0.312500X0*%
%ADD26RoundRect,0.225000X-0.225000X-0.250000X0.225000X-0.250000X0.225000X0.250000X-0.225000X0.250000X0*%
%ADD27RoundRect,0.200000X0.275000X-0.200000X0.275000X0.200000X-0.275000X0.200000X-0.275000X-0.200000X0*%
%ADD28RoundRect,0.150000X0.150000X-0.587500X0.150000X0.587500X-0.150000X0.587500X-0.150000X-0.587500X0*%
%ADD29RoundRect,0.225000X0.250000X-0.225000X0.250000X0.225000X-0.250000X0.225000X-0.250000X-0.225000X0*%
%ADD30RoundRect,0.225000X-0.250000X0.225000X-0.250000X-0.225000X0.250000X-0.225000X0.250000X0.225000X0*%
%ADD31RoundRect,0.135000X-0.185000X0.135000X-0.185000X-0.135000X0.185000X-0.135000X0.185000X0.135000X0*%
%ADD32C,0.990600*%
%ADD33C,0.787400*%
%ADD34RoundRect,0.137500X0.137500X0.662500X-0.137500X0.662500X-0.137500X-0.662500X0.137500X-0.662500X0*%
%ADD35RoundRect,0.050000X0.093814X0.732256X-0.559692X0.481398X-0.093814X-0.732256X0.559692X-0.481398X0*%
%ADD36RoundRect,0.150000X0.587500X0.150000X-0.587500X0.150000X-0.587500X-0.150000X0.587500X-0.150000X0*%
%ADD37RoundRect,0.062500X0.237500X0.062500X-0.237500X0.062500X-0.237500X-0.062500X0.237500X-0.062500X0*%
%ADD38RoundRect,0.135000X0.135000X0.185000X-0.135000X0.185000X-0.135000X-0.185000X0.135000X-0.185000X0*%
%ADD39RoundRect,0.250000X-0.400000X-0.450000X0.400000X-0.450000X0.400000X0.450000X-0.400000X0.450000X0*%
%ADD40RoundRect,0.062500X-0.325000X-0.062500X0.325000X-0.062500X0.325000X0.062500X-0.325000X0.062500X0*%
%ADD41R,0.800000X1.200000*%
%ADD42RoundRect,0.150000X-0.512500X-0.150000X0.512500X-0.150000X0.512500X0.150000X-0.512500X0.150000X0*%
%ADD43RoundRect,0.140000X-0.140000X-0.170000X0.140000X-0.170000X0.140000X0.170000X-0.140000X0.170000X0*%
%ADD44RoundRect,0.150000X0.750000X-0.350000X0.750000X0.350000X-0.750000X0.350000X-0.750000X-0.350000X0*%
%ADD45RoundRect,0.200000X-0.800000X-0.800000X0.800000X-0.800000X0.800000X0.800000X-0.800000X0.800000X0*%
%ADD46RoundRect,0.050000X0.559692X0.481398X-0.093814X0.732256X-0.559692X-0.481398X0.093814X-0.732256X0*%
%ADD47R,0.400000X0.800000*%
%ADD48R,1.200000X1.200000*%
%ADD49Outline5P,-0.600000X0.600000X0.600000X0.600000X0.600000X-0.600000X-0.204000X-0.600000X-0.600000X-0.204000X0.000000*%
%ADD50R,0.800000X0.800000*%
%ADD51RoundRect,0.062500X-0.350000X-0.062500X0.350000X-0.062500X0.350000X0.062500X-0.350000X0.062500X0*%
%ADD52RoundRect,0.062500X-0.062500X-0.350000X0.062500X-0.350000X0.062500X0.350000X-0.062500X0.350000X0*%
%ADD53R,1.230000X1.230000*%
%ADD54RoundRect,0.200000X-0.200000X-0.275000X0.200000X-0.275000X0.200000X0.275000X-0.200000X0.275000X0*%
%ADD55RoundRect,0.087500X0.662500X0.087500X-0.662500X0.087500X-0.662500X-0.087500X0.662500X-0.087500X0*%
%ADD56RoundRect,0.150000X0.150000X0.625000X-0.150000X0.625000X-0.150000X-0.625000X0.150000X-0.625000X0*%
%ADD57RoundRect,0.250000X0.350000X0.650000X-0.350000X0.650000X-0.350000X-0.650000X0.350000X-0.650000X0*%
%ADD58RoundRect,0.140000X-0.170000X0.140000X-0.170000X-0.140000X0.170000X-0.140000X0.170000X0.140000X0*%
G04 APERTURE END LIST*
D10*
%TO.C,H3*%
X32322000Y-67678000D03*
%TD*%
D11*
%TO.C,H2*%
X68579000Y-33272000D03*
%TD*%
%TO.C,H1*%
X31421000Y-33272000D03*
%TD*%
D12*
%TO.C,R207*%
X41090000Y-54400000D03*
X42110000Y-54400000D03*
%TD*%
D13*
%TO.C,TP23*%
X59400000Y-35700000D03*
%TD*%
D14*
%TO.C,C504*%
X35600000Y-58630000D03*
X35600000Y-57670000D03*
%TD*%
D15*
%TO.C,Q101*%
X64162500Y-40125000D03*
X64162500Y-38225000D03*
X66037500Y-39175000D03*
%TD*%
D16*
%TO.C,TP6*%
X55500000Y-33050000D03*
%TD*%
D13*
%TO.C,TP13*%
X47000000Y-39700000D03*
%TD*%
D17*
%TO.C,R120*%
X57400000Y-33910000D03*
X57400000Y-32890000D03*
%TD*%
D18*
%TO.C,J101*%
X47110000Y-26650000D03*
X52890000Y-26650000D03*
D19*
X46750000Y-28095000D03*
X47550000Y-28095000D03*
D20*
X48750000Y-28095000D03*
X49750000Y-28095000D03*
X50250000Y-28095000D03*
X51250000Y-28095000D03*
D19*
X52450000Y-28095000D03*
X53250000Y-28095000D03*
X53250000Y-28095000D03*
X52450000Y-28095000D03*
D20*
X51750000Y-28095000D03*
X50750000Y-28095000D03*
X49250000Y-28095000D03*
X48250000Y-28095000D03*
D19*
X47550000Y-28095000D03*
X46750000Y-28095000D03*
D21*
X45680000Y-23000000D03*
D22*
X45680000Y-27180000D03*
D21*
X54320000Y-23000000D03*
D22*
X54320000Y-27180000D03*
%TD*%
D13*
%TO.C,TP25*%
X52550000Y-55900000D03*
%TD*%
D23*
%TO.C,J301*%
X38850000Y-54250000D03*
X38850000Y-53750000D03*
X38850000Y-53250000D03*
X38850000Y-52750000D03*
X38850000Y-52250000D03*
X38850000Y-51750000D03*
X38850000Y-51250000D03*
X38850000Y-50750000D03*
X38850000Y-50250000D03*
X38850000Y-49750000D03*
X38850000Y-49250000D03*
X38850000Y-48750000D03*
X38850000Y-48250000D03*
X38850000Y-47750000D03*
X38850000Y-47250000D03*
X38850000Y-46750000D03*
X38850000Y-46250000D03*
X38850000Y-45750000D03*
D24*
X36350000Y-55250000D03*
X36350000Y-44750000D03*
%TD*%
D17*
%TO.C,R316*%
X43000000Y-45910000D03*
X43000000Y-44890000D03*
%TD*%
%TO.C,R302*%
X41400000Y-59350000D03*
X41400000Y-58330000D03*
%TD*%
D16*
%TO.C,TP1*%
X61600000Y-46700000D03*
%TD*%
D25*
%TO.C,R108*%
X68260000Y-42097500D03*
X68260000Y-39172500D03*
%TD*%
D26*
%TO.C,C505*%
X63625000Y-31100000D03*
X65175000Y-31100000D03*
%TD*%
D27*
%TO.C,R502*%
X56627000Y-26752000D03*
X56627000Y-25102000D03*
%TD*%
D13*
%TO.C,TP7*%
X64300000Y-49500000D03*
%TD*%
D28*
%TO.C,Q501*%
X60550000Y-29737500D03*
X58650000Y-29737500D03*
X59600000Y-27862500D03*
%TD*%
D29*
%TO.C,C106*%
X51900000Y-36725000D03*
X51900000Y-35175000D03*
%TD*%
D27*
%TO.C,R501*%
X38673000Y-28328000D03*
X38673000Y-26678000D03*
%TD*%
D30*
%TO.C,C201*%
X39900000Y-69550000D03*
X39900000Y-71100000D03*
%TD*%
D10*
%TO.C,FID4*%
X27300000Y-36100000D03*
%TD*%
D12*
%TO.C,R312*%
X43190000Y-39900000D03*
X44210000Y-39900000D03*
%TD*%
D31*
%TO.C,R101*%
X48400000Y-29990000D03*
X48400000Y-31010000D03*
%TD*%
D32*
%TO.C,J201*%
X64400000Y-64060000D03*
X65416000Y-69140000D03*
X63384000Y-69140000D03*
D33*
X65035000Y-65330000D03*
X63765000Y-65330000D03*
X65035000Y-66600000D03*
X63765000Y-66600000D03*
X65035000Y-67870000D03*
X63765000Y-67870000D03*
%TD*%
D31*
%TO.C,R209*%
X37600000Y-63090000D03*
X37600000Y-64110000D03*
%TD*%
D34*
%TO.C,L101*%
X53350000Y-38750000D03*
X51900000Y-38750000D03*
%TD*%
D12*
%TO.C,R313*%
X41090000Y-39900000D03*
X42110000Y-39900000D03*
%TD*%
D13*
%TO.C,TP24*%
X39800000Y-67000000D03*
%TD*%
D12*
%TO.C,R503*%
X59530000Y-31438000D03*
X60550000Y-31438000D03*
%TD*%
D16*
%TO.C,TP16*%
X64300000Y-46700000D03*
%TD*%
D35*
%TO.C,D501*%
X41473371Y-23602448D03*
X38672629Y-24677552D03*
%TD*%
D12*
%TO.C,R314*%
X44490000Y-47800000D03*
X45510000Y-47800000D03*
%TD*%
D36*
%TO.C,Q302*%
X42737500Y-47350000D03*
X42737500Y-49250000D03*
X40862500Y-48300000D03*
%TD*%
D13*
%TO.C,TP9*%
X56000000Y-49500000D03*
%TD*%
D14*
%TO.C,C306*%
X45200000Y-43880000D03*
X45200000Y-42920000D03*
%TD*%
D37*
%TO.C,U104*%
X56150000Y-38250000D03*
X56150000Y-38750000D03*
X56150000Y-39250000D03*
X56150000Y-39750000D03*
X54850000Y-39750000D03*
X54850000Y-39250000D03*
X54850000Y-38750000D03*
X54850000Y-38250000D03*
%TD*%
D13*
%TO.C,TP10*%
X56000000Y-46700000D03*
%TD*%
%TO.C,TP22*%
X64300000Y-52300000D03*
%TD*%
D38*
%TO.C,R111*%
X53660000Y-40600000D03*
X52640000Y-40600000D03*
%TD*%
D39*
%TO.C,D101*%
X53200000Y-30500000D03*
X56100000Y-30500000D03*
%TD*%
D40*
%TO.C,U103*%
X62712500Y-36200000D03*
X62712500Y-35700000D03*
X62712500Y-35200000D03*
X62712500Y-34700000D03*
X64687500Y-34700000D03*
X64687500Y-35200000D03*
X64687500Y-35700000D03*
X64687500Y-36200000D03*
D41*
X63700000Y-35450000D03*
%TD*%
D13*
%TO.C,TP8*%
X61200000Y-68400000D03*
%TD*%
D38*
%TO.C,R201*%
X59410000Y-70000000D03*
X58390000Y-70000000D03*
%TD*%
D14*
%TO.C,C104*%
X61300000Y-35430000D03*
X61300000Y-34470000D03*
%TD*%
D42*
%TO.C,U304*%
X41262500Y-43350000D03*
X41262500Y-42400000D03*
X41262500Y-41450000D03*
X43537500Y-41450000D03*
X43537500Y-43350000D03*
%TD*%
D31*
%TO.C,R102*%
X51900000Y-32240000D03*
X51900000Y-33260000D03*
%TD*%
D43*
%TO.C,C307*%
X44520000Y-46500000D03*
X45480000Y-46500000D03*
%TD*%
D44*
%TO.C,J501*%
X29162000Y-62330000D03*
X29162000Y-59830000D03*
%TD*%
D10*
%TO.C,FID5*%
X71000000Y-37000000D03*
%TD*%
D13*
%TO.C,TP20*%
X47000000Y-53600000D03*
%TD*%
D45*
%TO.C,LS501*%
X29350000Y-57550000D03*
X29350000Y-43650000D03*
%TD*%
D31*
%TO.C,R214*%
X58200000Y-46190000D03*
X58200000Y-47210000D03*
%TD*%
D16*
%TO.C,TP2*%
X56000000Y-43900000D03*
%TD*%
D29*
%TO.C,C105*%
X57750000Y-39000000D03*
X57750000Y-37450000D03*
%TD*%
D13*
%TO.C,TP21*%
X51400000Y-53050000D03*
%TD*%
D17*
%TO.C,R315*%
X41500000Y-45910000D03*
X41500000Y-44890000D03*
%TD*%
D16*
%TO.C,TP4*%
X61600000Y-43900000D03*
%TD*%
D43*
%TO.C,C503*%
X32520000Y-58750000D03*
X33480000Y-58750000D03*
%TD*%
D46*
%TO.C,D502*%
X61327371Y-24677552D03*
X58526629Y-23602448D03*
%TD*%
D24*
%TO.C,U201*%
X43000000Y-71250000D03*
X43000000Y-70400000D03*
X43000000Y-69550000D03*
X43000000Y-68700000D03*
X43000000Y-67850000D03*
X43000000Y-67000000D03*
X43000000Y-66150000D03*
X43000000Y-65300000D03*
X43000000Y-64450000D03*
X43000000Y-63600000D03*
X43000000Y-62750000D03*
X43000000Y-61900000D03*
X43000000Y-61050000D03*
X43000000Y-60200000D03*
X43000000Y-59350000D03*
D47*
X44050000Y-58300000D03*
X44900000Y-58300000D03*
X45750000Y-58300000D03*
X46600000Y-58300000D03*
X47450000Y-58300000D03*
X48300000Y-58300000D03*
X49150000Y-58300000D03*
X50000000Y-58300000D03*
X50850000Y-58300000D03*
X51700000Y-58300000D03*
X52550000Y-58300000D03*
X53400000Y-58300000D03*
X54250000Y-58300000D03*
X55100000Y-58300000D03*
X55950000Y-58300000D03*
D24*
X57000000Y-59350000D03*
X57000000Y-60200000D03*
X57000000Y-61050000D03*
X57000000Y-61900000D03*
X57000000Y-62750000D03*
X57000000Y-63600000D03*
X57000000Y-64450000D03*
X57000000Y-65300000D03*
X57000000Y-66150000D03*
X57000000Y-67000000D03*
X57000000Y-67850000D03*
X57000000Y-68700000D03*
X57000000Y-69550000D03*
X57000000Y-70400000D03*
X57000000Y-71250000D03*
D47*
X55950000Y-72300000D03*
X55100000Y-72300000D03*
X54250000Y-72300000D03*
X53400000Y-72300000D03*
X52550000Y-72300000D03*
X51700000Y-72300000D03*
X50850000Y-72300000D03*
X50000000Y-72300000D03*
X49150000Y-72300000D03*
X48300000Y-72300000D03*
X47450000Y-72300000D03*
X46600000Y-72300000D03*
X45750000Y-72300000D03*
X44900000Y-72300000D03*
X44050000Y-72300000D03*
D48*
X48350000Y-63650000D03*
X48350000Y-65300000D03*
D49*
X48350000Y-66950000D03*
D48*
X50000000Y-63650000D03*
X50000000Y-65300000D03*
X50000000Y-66950000D03*
X51650000Y-63650000D03*
X51650000Y-65300000D03*
X51650000Y-66950000D03*
D50*
X43000000Y-72300000D03*
X43000000Y-58300000D03*
X57000000Y-58300000D03*
X57000000Y-72300000D03*
%TD*%
D10*
%TO.C,FID6*%
X69000000Y-68200000D03*
%TD*%
D43*
%TO.C,C203*%
X59820000Y-71250000D03*
X60780000Y-71250000D03*
%TD*%
D13*
%TO.C,TP26*%
X60300000Y-63450000D03*
%TD*%
D31*
%TO.C,R213*%
X59440000Y-46190000D03*
X59440000Y-47210000D03*
%TD*%
D51*
%TO.C,U501*%
X34162500Y-42050000D03*
X34162500Y-41550000D03*
X34162500Y-41050000D03*
X34162500Y-40550000D03*
D52*
X34850000Y-39862500D03*
X35350000Y-39862500D03*
X35850000Y-39862500D03*
X36350000Y-39862500D03*
D51*
X37037500Y-40550000D03*
X37037500Y-41050000D03*
X37037500Y-41550000D03*
X37037500Y-42050000D03*
D52*
X36350000Y-42737500D03*
X35850000Y-42737500D03*
X35350000Y-42737500D03*
X34850000Y-42737500D03*
D53*
X35600000Y-41300000D03*
%TD*%
D16*
%TO.C,TP5*%
X64300000Y-43900000D03*
%TD*%
D54*
%TO.C,R317*%
X44775000Y-49300000D03*
X46425000Y-49300000D03*
%TD*%
D17*
%TO.C,R121*%
X58800000Y-33910000D03*
X58800000Y-32890000D03*
%TD*%
D55*
%TO.C,U502*%
X36500000Y-60150000D03*
X36500000Y-60650000D03*
X36500000Y-61150000D03*
X36500000Y-61650000D03*
X36500000Y-62150000D03*
X32300000Y-62150000D03*
X32300000Y-61650000D03*
X32300000Y-61150000D03*
X32300000Y-60650000D03*
X32300000Y-60150000D03*
%TD*%
D12*
%TO.C,R311*%
X43190000Y-38600000D03*
X44210000Y-38600000D03*
%TD*%
D13*
%TO.C,TP19*%
X59700000Y-57400000D03*
%TD*%
D16*
%TO.C,TP3*%
X58800000Y-43900000D03*
%TD*%
D13*
%TO.C,TP18*%
X35000000Y-35700000D03*
%TD*%
D12*
%TO.C,R110*%
X70240000Y-42250000D03*
X71260000Y-42250000D03*
%TD*%
D56*
%TO.C,J102*%
X70260000Y-44285000D03*
X69260000Y-44285000D03*
X68260000Y-44285000D03*
D57*
X71560000Y-48160000D03*
X66960000Y-48160000D03*
%TD*%
D13*
%TO.C,TP17*%
X47000000Y-37100000D03*
%TD*%
D14*
%TO.C,C206*%
X50850000Y-55730000D03*
X50850000Y-54770000D03*
%TD*%
D27*
%TO.C,R122*%
X59450000Y-40625000D03*
X59450000Y-38975000D03*
%TD*%
D12*
%TO.C,R109*%
X63740000Y-42000000D03*
X64760000Y-42000000D03*
%TD*%
%TO.C,R301*%
X44050000Y-56400000D03*
X45070000Y-56400000D03*
%TD*%
D17*
%TO.C,R504*%
X62150000Y-29737000D03*
X62150000Y-28717000D03*
%TD*%
D13*
%TO.C,TP15*%
X73550000Y-50730000D03*
%TD*%
D58*
%TO.C,C202*%
X41400000Y-69550000D03*
X41400000Y-70510000D03*
%TD*%
M02*
