%TF.GenerationSoftware,KiCad,Pcbnew,10.0.6*%
%TF.CreationDate,2026-10-05T16:19:25+02:00*%
%TF.ProjectId,MAO_MAIN_A0,4d414f5f-4d41-4494-9e5f-41302e6b6963,A0*%
%TF.SameCoordinates,Original*%
%TF.FileFunction,Copper,L2,Inr*%
%TF.FilePolarity,Positive*%
%FSLAX46Y46*%
G04 Gerber Fmt 4.6, Leading zero omitted, Abs format (unit mm)*
G04 Created by KiCad (PCBNEW 10.0.6) date 2026-10-05 16:19:25*
%MOMM*%
%LPD*%
G01*
G04 APERTURE LIST*
%TA.AperFunction,ComponentPad*%
%ADD10C,0.600000*%
%TD*%
%TA.AperFunction,HeatsinkPad*%
%ADD11C,0.500000*%
%TD*%
%TA.AperFunction,HeatsinkPad*%
%ADD12C,0.600000*%
%TD*%
%TA.AperFunction,ComponentPad*%
%ADD13O,1.000000X1.600000*%
%TD*%
%TA.AperFunction,ComponentPad*%
%ADD14O,1.000000X2.100000*%
%TD*%
%TA.AperFunction,ViaPad*%
%ADD15C,0.600000*%
%TD*%
%TA.AperFunction,ViaPad*%
%ADD16C,0.500000*%
%TD*%
G04 APERTURE END LIST*
D10*
%TO.N,TOUCH_LEFT_E*%
%TO.C,E301*%
X24502443Y-60301681D03*
X24502443Y-39698319D03*
%TD*%
%TO.N,TOUCH_RIGHT_E*%
%TO.C,E302*%
X75497557Y-39698319D03*
X75497557Y-60301681D03*
%TD*%
D11*
%TO.N,GND*%
%TO.C,U102*%
X60000000Y-38815000D03*
X60000000Y-37635000D03*
X58820000Y-38815000D03*
X58820000Y-37635000D03*
%TD*%
D12*
%TO.N,GND*%
%TO.C,U201*%
X47100000Y-61540000D03*
X47100000Y-62940000D03*
X47800000Y-60840000D03*
X47800000Y-62240000D03*
X47800000Y-63640000D03*
X48500000Y-61540000D03*
X48500000Y-62940000D03*
X49200000Y-60840000D03*
X49200000Y-62240000D03*
X49200000Y-63640000D03*
X49900000Y-61540000D03*
X49900000Y-62940000D03*
%TD*%
D11*
%TO.N,GND*%
%TO.C,U202*%
X40525000Y-36425000D03*
X40525000Y-37375000D03*
X41475000Y-36425000D03*
X41475000Y-37375000D03*
%TD*%
D13*
%TO.N,GND*%
%TO.C,J101*%
X45680000Y-23000000D03*
D14*
X45680000Y-27180000D03*
D13*
X54320000Y-23000000D03*
D14*
X54320000Y-27180000D03*
%TD*%
D11*
%TO.N,GND*%
%TO.C,U501*%
X35235000Y-40935000D03*
X35235000Y-41665000D03*
X35965000Y-40935000D03*
X35965000Y-41665000D03*
%TD*%
D15*
%TO.N,VSYS*%
X57050000Y-38450000D03*
X37550000Y-27900000D03*
X57050000Y-37550000D03*
X36100000Y-39150000D03*
X33000000Y-57650000D03*
D16*
X40100000Y-48100000D03*
D15*
X62000000Y-30700000D03*
X56627000Y-27700000D03*
D16*
X41100000Y-43988000D03*
D15*
%TO.N,GND*%
X51100000Y-56250000D03*
X40050000Y-45387500D03*
X38262000Y-33530000D03*
X62150000Y-27817000D03*
X63600000Y-67620000D03*
X34700000Y-57670000D03*
X72798000Y-41198000D03*
X74375000Y-45100000D03*
X41050000Y-43028000D03*
X49660000Y-40550000D03*
X30300000Y-38800000D03*
X53520000Y-59250000D03*
X32075233Y-70987204D03*
X31000000Y-57300000D03*
X50000000Y-22400000D03*
X43750000Y-47312500D03*
X56000000Y-42700000D03*
X36400000Y-27941000D03*
X37920000Y-55090000D03*
X70260000Y-45800000D03*
X70377000Y-64321000D03*
D16*
X37700000Y-54250000D03*
D15*
X39816396Y-53736396D03*
X35579039Y-26467131D03*
X51792894Y-42717106D03*
X34250000Y-58750000D03*
D16*
X37700000Y-49750000D03*
D15*
X44000000Y-70000000D03*
X63270000Y-54320000D03*
X56100000Y-29300000D03*
D16*
X53250000Y-39350000D03*
D15*
X58660000Y-42500000D03*
X72070000Y-63860000D03*
X42400716Y-30794845D03*
X56100000Y-31750000D03*
X27254117Y-65632812D03*
X36382106Y-35892894D03*
X53000000Y-69000000D03*
X27000000Y-48000000D03*
X60600000Y-42210000D03*
X35200000Y-35820000D03*
X29489202Y-68468004D03*
X62076104Y-34063604D03*
X58650000Y-28437500D03*
X37975284Y-32297155D03*
X63800000Y-26097698D03*
X68468004Y-70510797D03*
X34825000Y-68900000D03*
X54000000Y-42800000D03*
X27600000Y-60100000D03*
X43750000Y-45387500D03*
X27671130Y-33777127D03*
X37310051Y-65580051D03*
X73300000Y-57620000D03*
X36350000Y-43750000D03*
D16*
X49500000Y-33400000D03*
D15*
X72500396Y-60259604D03*
X39110759Y-30424049D03*
X72745882Y-34367187D03*
X55250000Y-36625000D03*
X39613604Y-39163604D03*
X65375000Y-38220000D03*
X71200000Y-44285000D03*
X67850000Y-50030000D03*
X58203000Y-31282000D03*
X60100000Y-69410000D03*
X69485076Y-56665076D03*
X33550000Y-63800000D03*
X53900000Y-44180000D03*
X41601472Y-48161028D03*
X69500000Y-66032000D03*
D16*
X37700000Y-47750000D03*
D15*
X54600000Y-49350000D03*
X65175000Y-32100000D03*
%TO.N,+3V3*%
X73111594Y-64651619D03*
X42100000Y-39800000D03*
X66900000Y-66350000D03*
X59569000Y-30061000D03*
X37182894Y-59097106D03*
X56200000Y-59250000D03*
X48890000Y-37350000D03*
X59600000Y-51490000D03*
X58800000Y-45150000D03*
X36920000Y-37150000D03*
X50430000Y-37350000D03*
X68517000Y-63421000D03*
X38850000Y-68690000D03*
D16*
X58400000Y-34100000D03*
D15*
X70004000Y-60896000D03*
X36651000Y-33704000D03*
X74372170Y-63320994D03*
X50820000Y-59250000D03*
X44700000Y-32800000D03*
X47700000Y-37150000D03*
D16*
X60150000Y-35810000D03*
D15*
X39150861Y-35303513D03*
X61700000Y-53020000D03*
X38399707Y-30790796D03*
X50500000Y-42010000D03*
X63988000Y-33500000D03*
X37600000Y-69750000D03*
%TO.N,HALL_A*%
X64650000Y-62550000D03*
%TO.N,HALL_FAST*%
X70650000Y-66650000D03*
D16*
X71400000Y-66700000D03*
X60250000Y-67420000D03*
X73720000Y-64150000D03*
%TO.N,I2C_SCL*%
X66100000Y-35200000D03*
D15*
X58850000Y-50750000D03*
X45450000Y-32050000D03*
D16*
X40240000Y-33330000D03*
X55500000Y-45400000D03*
X53450000Y-55000000D03*
X44150000Y-37650000D03*
X38800000Y-61070000D03*
D15*
X62100000Y-41550000D03*
X60500000Y-34000000D03*
X47100000Y-37950000D03*
D16*
%TO.N,SENSE_ALRT_N*%
X61850000Y-31710000D03*
D15*
X64687500Y-34000000D03*
D16*
%TO.N,I2C_SDA*%
X52700000Y-55000000D03*
D15*
X49750000Y-53800000D03*
X58050000Y-52200000D03*
D16*
X39500000Y-62340000D03*
D15*
X68050000Y-40300000D03*
D16*
X65450000Y-36200000D03*
D15*
X44850000Y-34800000D03*
D16*
%TO.N,3V3_LCD*%
X37600000Y-53250000D03*
D15*
X40700000Y-42250000D03*
D16*
%TO.N,IMU_INT1*%
X51905000Y-50750000D03*
%TO.N,IMU_INT2*%
X54445000Y-50750000D03*
%TO.N,IR_RX*%
X60250000Y-61070000D03*
D15*
X73600000Y-54400000D03*
X63400000Y-56600000D03*
%TO.N,IR_RX_VCC*%
X72350000Y-51900000D03*
D16*
%TO.N,IR_RX_PWR*%
X41750000Y-34550000D03*
D15*
X40600000Y-29450000D03*
X57750000Y-27150000D03*
%TO.N,CHG_CE_N*%
X47150000Y-33200000D03*
X65050000Y-36900000D03*
X63850000Y-29950000D03*
D16*
%TO.N,TOUCH_RIGHT_E*%
X62650000Y-68350000D03*
D15*
X73250000Y-41950000D03*
D16*
%TO.N,TOUCH_LEFT*%
X39900000Y-66150000D03*
D15*
%TO.N,BAT_NTC*%
X69700000Y-42975000D03*
%TO.N,VBAT*%
X63650000Y-37150000D03*
X62875000Y-37150000D03*
D16*
%TO.N,USB_PRESENT_N*%
X41750000Y-52200000D03*
X59900000Y-34600000D03*
X52200000Y-44250000D03*
D15*
%TO.N,VBUS*%
X53200000Y-31800000D03*
X47550000Y-29450000D03*
D16*
%TO.N,TOUCH_REAR*%
X39900000Y-63610000D03*
%TO.N,TOUCH_REAR_E*%
X29100000Y-42100000D03*
%TO.N,LCD_PWR_EN*%
X38550000Y-36650000D03*
%TO.N,USB_DP*%
X49750000Y-29250000D03*
X50750000Y-29250000D03*
X42400000Y-53450000D03*
%TO.N,USB_DN*%
X42400000Y-54720000D03*
X51200000Y-30600000D03*
%TO.N,HALL_B*%
X60250000Y-63610000D03*
D15*
X62450000Y-61400000D03*
X68400000Y-64400000D03*
%TO.N,TOF_XSHUT*%
X42000000Y-32350000D03*
D16*
X43590000Y-29280000D03*
%TO.N,TOF_INT_N*%
X55715000Y-50750000D03*
X43680000Y-32410000D03*
%TO.N,BOARD_ID*%
X39700000Y-55990000D03*
%TO.N,AMP_SD*%
X33400000Y-40550000D03*
%TO.N,AMP_SD_N*%
X37850000Y-36150000D03*
D15*
%TO.N,PRESS_N*%
X62000000Y-66800000D03*
D16*
X66900000Y-65080000D03*
X60600000Y-53450000D03*
%TO.N,TOUCH_TOP*%
X39900000Y-64880000D03*
D15*
%TO.N,EXP_RST_N*%
X59100000Y-48550000D03*
X63250000Y-51250000D03*
D16*
X60950000Y-59800000D03*
X54450000Y-47400000D03*
D15*
%TO.N,HAPTIC_EN*%
X43800000Y-53500000D03*
X36800000Y-62800000D03*
D16*
X40250000Y-34550000D03*
D15*
X39800000Y-57900000D03*
X44400000Y-42150000D03*
%TO.N,MCU_EN*%
X71250000Y-61750000D03*
D16*
X37100000Y-67550000D03*
D15*
X72200000Y-53350000D03*
X65650000Y-70200000D03*
%TO.N,IR_LED_K*%
X42400000Y-24800000D03*
X59600000Y-26400000D03*
%TO.N,IR_TX*%
X62450000Y-53350000D03*
D16*
X60250000Y-58530000D03*
X59530000Y-32450000D03*
%TO.N,EXP_INT_N*%
X43450000Y-37150000D03*
D15*
X45620000Y-35450000D03*
D16*
X53175000Y-50750000D03*
%TO.N,LCD_BL_CTRL*%
X56985000Y-50750000D03*
D15*
X54700000Y-48500000D03*
%TO.N,MIC_PWR*%
X62350000Y-55450000D03*
X65850000Y-59200000D03*
D16*
%TO.N,LCD_RST_N*%
X37850000Y-37150000D03*
D15*
X38350000Y-34950000D03*
%TD*%
%TA.AperFunction,Conductor*%
%TO.N,GND*%
G36*
X50992921Y-21517331D02*
G01*
X50996370Y-21517451D01*
X51986360Y-21569334D01*
X51989751Y-21569572D01*
X52977373Y-21655977D01*
X52980728Y-21656329D01*
X53964749Y-21777153D01*
X53968111Y-21777625D01*
X54947291Y-21932712D01*
X54950641Y-21933303D01*
X55923818Y-22122469D01*
X55927111Y-22123169D01*
X56893101Y-22346184D01*
X56896431Y-22347015D01*
X57854045Y-22603607D01*
X57857288Y-22604537D01*
X58798107Y-22892175D01*
X58805339Y-22894386D01*
X58808625Y-22895454D01*
X59745944Y-23218199D01*
X59749191Y-23219381D01*
X59988115Y-23311095D01*
X60674702Y-23574651D01*
X60677825Y-23575912D01*
X61590456Y-23963301D01*
X61593526Y-23964668D01*
X62492035Y-24383650D01*
X62495052Y-24385120D01*
X63371833Y-24831863D01*
X63378416Y-24835217D01*
X63381467Y-24836840D01*
X64248466Y-25317425D01*
X64251459Y-25319152D01*
X65101241Y-25829753D01*
X65104171Y-25831585D01*
X65935558Y-26371494D01*
X65938384Y-26373400D01*
X66252277Y-26593190D01*
X66750455Y-26942018D01*
X66753251Y-26944049D01*
X67544981Y-27540660D01*
X67547704Y-27542788D01*
X68318101Y-28166644D01*
X68320748Y-28168865D01*
X69068914Y-28819235D01*
X69071482Y-28821547D01*
X69796488Y-29497626D01*
X69798974Y-29500026D01*
X70499972Y-30201024D01*
X70502372Y-30203510D01*
X71178451Y-30928516D01*
X71180763Y-30931084D01*
X71831133Y-31679250D01*
X71833354Y-31681897D01*
X72457210Y-32452294D01*
X72459338Y-32455017D01*
X73055949Y-33246747D01*
X73057980Y-33249543D01*
X73359531Y-33680202D01*
X73622428Y-34055659D01*
X73626585Y-34061595D01*
X73628512Y-34064453D01*
X73630316Y-34067230D01*
X74168413Y-34895827D01*
X74170245Y-34898757D01*
X74680846Y-35748540D01*
X74682573Y-35751533D01*
X75115163Y-36531946D01*
X75126838Y-36592007D01*
X75100980Y-36647460D01*
X75075054Y-36667354D01*
X72426867Y-38075421D01*
X72426867Y-38075422D01*
X72892848Y-38996574D01*
X72894594Y-39000207D01*
X73321851Y-39937735D01*
X73323448Y-39941437D01*
X73411522Y-40157615D01*
X73684080Y-40826613D01*
X73712180Y-40895583D01*
X73713621Y-40899336D01*
X73803850Y-41149500D01*
X74063191Y-41868535D01*
X74064481Y-41872354D01*
X74374294Y-42854955D01*
X74375428Y-42858824D01*
X74644985Y-43853245D01*
X74645960Y-43857157D01*
X74874804Y-44861711D01*
X74875619Y-44865659D01*
X75063373Y-45878692D01*
X75064027Y-45882670D01*
X75210386Y-46902528D01*
X75210877Y-46906529D01*
X75315591Y-47931483D01*
X75315919Y-47935501D01*
X75378817Y-48963877D01*
X75378981Y-48967905D01*
X75399958Y-49997983D01*
X75399958Y-50002015D01*
X75378981Y-51032093D01*
X75378817Y-51036121D01*
X75315919Y-52064497D01*
X75315591Y-52068515D01*
X75210877Y-53093469D01*
X75210386Y-53097470D01*
X75064027Y-54117328D01*
X75063373Y-54121306D01*
X74875619Y-55134339D01*
X74874804Y-55138287D01*
X74645960Y-56142841D01*
X74644985Y-56146753D01*
X74375428Y-57141174D01*
X74374294Y-57145043D01*
X74064481Y-58127644D01*
X74063191Y-58131463D01*
X73713625Y-59100651D01*
X73712180Y-59104415D01*
X73323448Y-60058561D01*
X73321851Y-60062263D01*
X72894594Y-60999791D01*
X72892848Y-61003424D01*
X72426867Y-61924576D01*
X72426867Y-61924577D01*
X73039840Y-62250500D01*
X74028324Y-62776086D01*
X74070826Y-62820098D01*
X74079341Y-62880688D01*
X74051849Y-62933500D01*
X73971670Y-63013679D01*
X73971666Y-63013684D01*
X73905779Y-63127803D01*
X73905778Y-63127808D01*
X73871670Y-63255102D01*
X73871670Y-63386886D01*
X73905778Y-63514180D01*
X73905779Y-63514182D01*
X73935995Y-63566517D01*
X73948717Y-63626366D01*
X73923831Y-63682261D01*
X73870843Y-63712854D01*
X73824637Y-63711645D01*
X73792197Y-63702953D01*
X73779309Y-63699500D01*
X73660691Y-63699500D01*
X73590567Y-63718289D01*
X73546109Y-63730202D01*
X73443391Y-63789507D01*
X73359507Y-63873391D01*
X73300202Y-63976109D01*
X73272970Y-64077742D01*
X73239645Y-64129057D01*
X73182524Y-64150983D01*
X73177343Y-64151119D01*
X73045702Y-64151119D01*
X72967794Y-64171994D01*
X72918403Y-64185228D01*
X72804284Y-64251115D01*
X72711090Y-64344309D01*
X72645203Y-64458428D01*
X72645202Y-64458433D01*
X72611094Y-64585727D01*
X72611094Y-64717511D01*
X72634104Y-64803387D01*
X72645203Y-64844809D01*
X72711090Y-64958928D01*
X72711092Y-64958930D01*
X72711094Y-64958933D01*
X72804280Y-65052119D01*
X72863463Y-65086288D01*
X72904404Y-65131756D01*
X72910800Y-65192606D01*
X72896087Y-65227312D01*
X72578656Y-65698821D01*
X72576950Y-65701273D01*
X72094806Y-66372790D01*
X72093028Y-66375190D01*
X71977850Y-66525798D01*
X71927481Y-66560535D01*
X71866315Y-66559033D01*
X71817713Y-66521864D01*
X71813474Y-66515158D01*
X71760492Y-66423391D01*
X71760490Y-66423389D01*
X71760489Y-66423387D01*
X71676613Y-66339511D01*
X71676610Y-66339509D01*
X71676608Y-66339507D01*
X71573889Y-66280202D01*
X71573890Y-66280202D01*
X71560351Y-66276574D01*
X71459309Y-66249500D01*
X71340691Y-66249500D01*
X71270567Y-66268289D01*
X71226109Y-66280202D01*
X71140953Y-66329368D01*
X71081105Y-66342090D01*
X71025209Y-66317203D01*
X71021468Y-66313654D01*
X70957314Y-66249500D01*
X70957311Y-66249498D01*
X70957309Y-66249496D01*
X70843189Y-66183609D01*
X70843191Y-66183609D01*
X70793799Y-66170375D01*
X70715892Y-66149500D01*
X70584108Y-66149500D01*
X70506200Y-66170375D01*
X70456809Y-66183609D01*
X70342690Y-66249496D01*
X70249496Y-66342690D01*
X70183609Y-66456809D01*
X70183608Y-66456814D01*
X70149500Y-66584108D01*
X70149500Y-66715892D01*
X70162794Y-66765505D01*
X70183609Y-66843190D01*
X70249496Y-66957309D01*
X70249498Y-66957311D01*
X70249500Y-66957314D01*
X70342686Y-67050500D01*
X70342688Y-67050501D01*
X70342690Y-67050503D01*
X70456810Y-67116390D01*
X70456808Y-67116390D01*
X70456812Y-67116391D01*
X70456814Y-67116392D01*
X70584108Y-67150500D01*
X70584110Y-67150500D01*
X70715890Y-67150500D01*
X70715892Y-67150500D01*
X70843186Y-67116392D01*
X70843188Y-67116390D01*
X70843190Y-67116390D01*
X70883009Y-67093399D01*
X70957314Y-67050500D01*
X70965350Y-67042464D01*
X71019865Y-67014684D01*
X71080298Y-67024254D01*
X71105356Y-67042458D01*
X71123387Y-67060489D01*
X71123389Y-67060490D01*
X71123391Y-67060492D01*
X71226110Y-67119797D01*
X71226108Y-67119797D01*
X71226112Y-67119798D01*
X71226114Y-67119799D01*
X71319222Y-67144747D01*
X71370534Y-67178070D01*
X71392461Y-67235192D01*
X71376625Y-67294292D01*
X71370387Y-67302858D01*
X71067162Y-67675503D01*
X71065242Y-67677791D01*
X70524343Y-68303006D01*
X70522355Y-68305235D01*
X69962828Y-68913862D01*
X69960773Y-68916030D01*
X69383160Y-69507481D01*
X69381041Y-69509586D01*
X68784768Y-70084382D01*
X68784767Y-70084383D01*
X69397180Y-70739166D01*
X69423120Y-70794580D01*
X69411534Y-70854659D01*
X69392394Y-70879195D01*
X69071482Y-71178452D01*
X69068913Y-71180764D01*
X68837887Y-71381593D01*
X68787129Y-71425716D01*
X68730807Y-71449623D01*
X68722179Y-71450000D01*
X65099000Y-71450000D01*
X65040809Y-71431093D01*
X65004845Y-71381593D01*
X65000000Y-71351000D01*
X65000000Y-70850001D01*
X65000000Y-70850000D01*
X35000000Y-70850000D01*
X35000000Y-70850001D01*
X35000000Y-71351000D01*
X34981093Y-71409191D01*
X34931593Y-71445155D01*
X34901000Y-71450000D01*
X31277866Y-71450000D01*
X31219675Y-71431093D01*
X31212897Y-71425700D01*
X30925762Y-71175971D01*
X30923195Y-71173658D01*
X30198358Y-70497396D01*
X30195873Y-70494995D01*
X29758406Y-70057309D01*
X29495069Y-69793839D01*
X29492680Y-69791365D01*
X29392712Y-69684109D01*
X28816766Y-69066171D01*
X28814458Y-69063606D01*
X28164262Y-68315263D01*
X28162060Y-68312638D01*
X27648135Y-67677668D01*
X30022330Y-67677668D01*
X30022330Y-67677669D01*
X30094924Y-68229078D01*
X30100701Y-68272953D01*
X30146154Y-68382686D01*
X30306500Y-68769797D01*
X30330472Y-68827669D01*
X30532149Y-69090500D01*
X30680340Y-69283628D01*
X30695984Y-69304015D01*
X30695988Y-69304018D01*
X30695989Y-69304019D01*
X30776009Y-69365420D01*
X31172330Y-69669527D01*
X31727046Y-69899298D01*
X32173509Y-69958076D01*
X32322329Y-69977669D01*
X32322330Y-69977669D01*
X32322331Y-69977669D01*
X32441386Y-69961994D01*
X32917614Y-69899298D01*
X33437128Y-69684108D01*
X37099500Y-69684108D01*
X37099500Y-69815892D01*
X37120078Y-69892690D01*
X37133609Y-69943190D01*
X37199496Y-70057309D01*
X37199498Y-70057311D01*
X37199500Y-70057314D01*
X37292686Y-70150500D01*
X37292688Y-70150501D01*
X37292690Y-70150503D01*
X37406810Y-70216390D01*
X37406808Y-70216390D01*
X37406812Y-70216391D01*
X37406814Y-70216392D01*
X37534108Y-70250500D01*
X37534110Y-70250500D01*
X37665890Y-70250500D01*
X37665892Y-70250500D01*
X37793186Y-70216392D01*
X37793188Y-70216390D01*
X37793190Y-70216390D01*
X37907309Y-70150503D01*
X37907309Y-70150502D01*
X37907314Y-70150500D01*
X38000500Y-70057314D01*
X38066392Y-69943186D01*
X38100500Y-69815892D01*
X38100500Y-69684108D01*
X38066392Y-69556814D01*
X38066390Y-69556811D01*
X38066390Y-69556809D01*
X38000503Y-69442690D01*
X38000501Y-69442688D01*
X38000500Y-69442686D01*
X37907314Y-69349500D01*
X37907311Y-69349498D01*
X37907309Y-69349496D01*
X37793189Y-69283609D01*
X37793191Y-69283609D01*
X37743799Y-69270375D01*
X37665892Y-69249500D01*
X37534108Y-69249500D01*
X37456200Y-69270375D01*
X37406809Y-69283609D01*
X37292690Y-69349496D01*
X37199496Y-69442690D01*
X37133609Y-69556809D01*
X37120123Y-69607140D01*
X37099500Y-69684108D01*
X33437128Y-69684108D01*
X33472330Y-69669527D01*
X33948676Y-69304015D01*
X34314188Y-68827669D01*
X34397470Y-68626608D01*
X34398506Y-68624108D01*
X38349500Y-68624108D01*
X38349500Y-68755892D01*
X38379579Y-68868151D01*
X38383609Y-68883190D01*
X38449496Y-68997309D01*
X38449498Y-68997311D01*
X38449500Y-68997314D01*
X38542686Y-69090500D01*
X38542688Y-69090501D01*
X38542690Y-69090503D01*
X38656810Y-69156390D01*
X38656808Y-69156390D01*
X38656812Y-69156391D01*
X38656814Y-69156392D01*
X38784108Y-69190500D01*
X38784110Y-69190500D01*
X38915890Y-69190500D01*
X38915892Y-69190500D01*
X39043186Y-69156392D01*
X39043188Y-69156390D01*
X39043190Y-69156390D01*
X39157309Y-69090503D01*
X39157309Y-69090502D01*
X39157314Y-69090500D01*
X39250500Y-68997314D01*
X39250503Y-68997309D01*
X39316390Y-68883190D01*
X39316390Y-68883188D01*
X39316392Y-68883186D01*
X39334249Y-68816542D01*
X64454200Y-68816542D01*
X64454200Y-68963457D01*
X64482860Y-69107541D01*
X64482860Y-69107543D01*
X64539078Y-69243266D01*
X64539078Y-69243267D01*
X64543243Y-69249500D01*
X64620699Y-69365420D01*
X64724580Y-69469301D01*
X64846731Y-69550920D01*
X64982458Y-69607140D01*
X65126545Y-69635800D01*
X65126547Y-69635800D01*
X65267379Y-69635800D01*
X65325570Y-69654707D01*
X65361534Y-69704207D01*
X65361534Y-69765393D01*
X65337384Y-69804801D01*
X65249500Y-69892686D01*
X65249497Y-69892689D01*
X65249496Y-69892690D01*
X65183609Y-70006809D01*
X65183608Y-70006814D01*
X65149500Y-70134108D01*
X65149500Y-70265892D01*
X65179579Y-70378151D01*
X65183609Y-70393190D01*
X65249496Y-70507309D01*
X65249498Y-70507311D01*
X65249500Y-70507314D01*
X65342686Y-70600500D01*
X65342688Y-70600501D01*
X65342690Y-70600503D01*
X65456810Y-70666390D01*
X65456808Y-70666390D01*
X65456812Y-70666391D01*
X65456814Y-70666392D01*
X65584108Y-70700500D01*
X65584110Y-70700500D01*
X65715890Y-70700500D01*
X65715892Y-70700500D01*
X65843186Y-70666392D01*
X65843188Y-70666390D01*
X65843190Y-70666390D01*
X65957309Y-70600503D01*
X65957309Y-70600502D01*
X65957314Y-70600500D01*
X66050500Y-70507314D01*
X66056226Y-70497396D01*
X66116390Y-70393190D01*
X66116390Y-70393188D01*
X66116392Y-70393186D01*
X66150500Y-70265892D01*
X66150500Y-70134108D01*
X66116392Y-70006814D01*
X66116390Y-70006811D01*
X66116390Y-70006809D01*
X66050503Y-69892690D01*
X66050501Y-69892688D01*
X66050500Y-69892686D01*
X65957314Y-69799500D01*
X65957311Y-69799498D01*
X65957309Y-69799496D01*
X65843189Y-69733609D01*
X65843191Y-69733609D01*
X65793799Y-69720375D01*
X65715892Y-69699500D01*
X65657262Y-69699500D01*
X65599071Y-69680593D01*
X65563107Y-69631093D01*
X65563107Y-69569907D01*
X65599071Y-69520407D01*
X65602260Y-69518185D01*
X65615129Y-69509586D01*
X65675420Y-69469301D01*
X65779301Y-69365420D01*
X65860920Y-69243269D01*
X65917140Y-69107542D01*
X65945800Y-68963455D01*
X65945800Y-68816545D01*
X65917140Y-68672458D01*
X65860921Y-68536733D01*
X65860921Y-68536732D01*
X65834245Y-68496809D01*
X65779301Y-68414580D01*
X65675420Y-68310699D01*
X65553269Y-68229080D01*
X65553268Y-68229079D01*
X65553266Y-68229078D01*
X65417542Y-68172860D01*
X65273457Y-68144200D01*
X65273455Y-68144200D01*
X65126545Y-68144200D01*
X65126542Y-68144200D01*
X64982458Y-68172860D01*
X64982456Y-68172860D01*
X64846733Y-68229078D01*
X64846732Y-68229078D01*
X64724580Y-68310699D01*
X64724576Y-68310702D01*
X64620702Y-68414576D01*
X64620699Y-68414580D01*
X64539078Y-68536732D01*
X64539078Y-68536733D01*
X64482860Y-68672456D01*
X64482860Y-68672458D01*
X64454200Y-68816542D01*
X39334249Y-68816542D01*
X39350500Y-68755892D01*
X39350500Y-68624108D01*
X39316392Y-68496814D01*
X39316390Y-68496811D01*
X39316390Y-68496809D01*
X39250503Y-68382690D01*
X39250501Y-68382688D01*
X39250500Y-68382686D01*
X39158505Y-68290691D01*
X62199500Y-68290691D01*
X62199500Y-68409309D01*
X62208313Y-68442198D01*
X62230202Y-68523890D01*
X62289507Y-68626608D01*
X62289509Y-68626610D01*
X62289511Y-68626613D01*
X62373387Y-68710489D01*
X62373389Y-68710490D01*
X62373391Y-68710492D01*
X62476110Y-68769797D01*
X62476111Y-68769797D01*
X62476114Y-68769799D01*
X62590691Y-68800500D01*
X62590693Y-68800500D01*
X62709307Y-68800500D01*
X62709309Y-68800500D01*
X62823886Y-68769799D01*
X62926613Y-68710489D01*
X63010489Y-68626613D01*
X63036504Y-68581554D01*
X63069797Y-68523890D01*
X63069797Y-68523888D01*
X63069799Y-68523886D01*
X63100500Y-68409309D01*
X63100500Y-68290691D01*
X63069799Y-68176114D01*
X63069797Y-68176111D01*
X63069797Y-68176109D01*
X63010492Y-68073391D01*
X63010490Y-68073389D01*
X63010489Y-68073387D01*
X62926613Y-67989511D01*
X62926610Y-67989509D01*
X62926608Y-67989507D01*
X62823889Y-67930202D01*
X62823890Y-67930202D01*
X62810351Y-67926574D01*
X62709309Y-67899500D01*
X62590691Y-67899500D01*
X62549669Y-67910492D01*
X62476109Y-67930202D01*
X62373391Y-67989507D01*
X62289507Y-68073391D01*
X62230202Y-68176109D01*
X62230201Y-68176114D01*
X62199500Y-68290691D01*
X39158505Y-68290691D01*
X39157314Y-68289500D01*
X39157311Y-68289498D01*
X39157309Y-68289496D01*
X39043189Y-68223609D01*
X39043191Y-68223609D01*
X38993799Y-68210375D01*
X38915892Y-68189500D01*
X38784108Y-68189500D01*
X38706200Y-68210375D01*
X38656809Y-68223609D01*
X38542690Y-68289496D01*
X38449496Y-68382690D01*
X38383609Y-68496809D01*
X38383608Y-68496814D01*
X38349500Y-68624108D01*
X34398506Y-68624108D01*
X34416887Y-68579733D01*
X34416887Y-68579732D01*
X34498506Y-68382686D01*
X34543959Y-68272953D01*
X34622330Y-67677669D01*
X34611300Y-67593886D01*
X34598561Y-67497124D01*
X34597714Y-67490691D01*
X36649500Y-67490691D01*
X36649500Y-67609309D01*
X36667817Y-67677668D01*
X36680202Y-67723890D01*
X36739507Y-67826608D01*
X36739509Y-67826610D01*
X36739511Y-67826613D01*
X36823387Y-67910489D01*
X36823389Y-67910490D01*
X36823391Y-67910492D01*
X36926110Y-67969797D01*
X36926111Y-67969797D01*
X36926114Y-67969799D01*
X37040691Y-68000500D01*
X37040693Y-68000500D01*
X37159307Y-68000500D01*
X37159309Y-68000500D01*
X37273886Y-67969799D01*
X37273888Y-67969797D01*
X37273890Y-67969797D01*
X37376608Y-67910492D01*
X37376608Y-67910491D01*
X37376613Y-67910489D01*
X37460489Y-67826613D01*
X37519799Y-67723886D01*
X37550500Y-67609309D01*
X37550500Y-67490691D01*
X37519799Y-67376114D01*
X37510895Y-67360692D01*
X37510894Y-67360691D01*
X59799500Y-67360691D01*
X59799500Y-67479309D01*
X59816318Y-67542074D01*
X59830202Y-67593890D01*
X59889507Y-67696608D01*
X59889509Y-67696610D01*
X59889511Y-67696613D01*
X59973387Y-67780489D01*
X59973389Y-67780490D01*
X59973391Y-67780492D01*
X60076110Y-67839797D01*
X60076111Y-67839797D01*
X60076114Y-67839799D01*
X60190691Y-67870500D01*
X60190693Y-67870500D01*
X60309307Y-67870500D01*
X60309309Y-67870500D01*
X60423886Y-67839799D01*
X60423888Y-67839797D01*
X60423890Y-67839797D01*
X60526608Y-67780492D01*
X60526608Y-67780491D01*
X60526613Y-67780489D01*
X60610489Y-67696613D01*
X60621356Y-67677791D01*
X60669797Y-67593890D01*
X60669797Y-67593888D01*
X60669799Y-67593886D01*
X60700500Y-67479309D01*
X60700500Y-67360691D01*
X60669799Y-67246114D01*
X60669797Y-67246111D01*
X60669797Y-67246109D01*
X60610492Y-67143391D01*
X60610490Y-67143389D01*
X60610489Y-67143387D01*
X60526613Y-67059511D01*
X60526610Y-67059509D01*
X60526608Y-67059507D01*
X60423889Y-67000202D01*
X60423890Y-67000202D01*
X60410351Y-66996574D01*
X60309309Y-66969500D01*
X60190691Y-66969500D01*
X60120567Y-66988289D01*
X60076109Y-67000202D01*
X59973391Y-67059507D01*
X59889507Y-67143391D01*
X59830202Y-67246109D01*
X59830201Y-67246114D01*
X59799500Y-67360691D01*
X37510894Y-67360691D01*
X37460492Y-67273391D01*
X37460490Y-67273389D01*
X37460489Y-67273387D01*
X37376613Y-67189511D01*
X37376610Y-67189509D01*
X37376608Y-67189507D01*
X37273889Y-67130202D01*
X37273890Y-67130202D01*
X37235065Y-67119799D01*
X37159309Y-67099500D01*
X37040691Y-67099500D01*
X36977657Y-67116390D01*
X36926109Y-67130202D01*
X36823391Y-67189507D01*
X36739507Y-67273391D01*
X36680202Y-67376109D01*
X36663037Y-67440169D01*
X36649500Y-67490691D01*
X34597714Y-67490691D01*
X34572985Y-67302858D01*
X34543959Y-67082385D01*
X34399698Y-66734108D01*
X61499500Y-66734108D01*
X61499500Y-66865892D01*
X61523995Y-66957309D01*
X61533609Y-66993190D01*
X61599496Y-67107309D01*
X61599498Y-67107311D01*
X61599500Y-67107314D01*
X61692686Y-67200500D01*
X61692688Y-67200501D01*
X61692690Y-67200503D01*
X61806810Y-67266390D01*
X61806808Y-67266390D01*
X61806812Y-67266391D01*
X61806814Y-67266392D01*
X61934108Y-67300500D01*
X61934110Y-67300500D01*
X62065890Y-67300500D01*
X62065892Y-67300500D01*
X62193186Y-67266392D01*
X62193188Y-67266390D01*
X62193190Y-67266390D01*
X62307309Y-67200503D01*
X62307309Y-67200502D01*
X62307314Y-67200500D01*
X62400500Y-67107314D01*
X62400503Y-67107309D01*
X62466390Y-66993190D01*
X62466390Y-66993188D01*
X62466392Y-66993186D01*
X62500500Y-66865892D01*
X62500500Y-66734108D01*
X62466392Y-66606814D01*
X62466390Y-66606811D01*
X62466390Y-66606809D01*
X62400503Y-66492690D01*
X62400501Y-66492688D01*
X62400500Y-66492686D01*
X62307314Y-66399500D01*
X62307311Y-66399498D01*
X62307309Y-66399496D01*
X62244714Y-66363356D01*
X62244711Y-66363356D01*
X62193187Y-66333608D01*
X62131961Y-66317203D01*
X62065892Y-66299500D01*
X61934108Y-66299500D01*
X61868039Y-66317203D01*
X61806809Y-66333609D01*
X61692690Y-66399496D01*
X61599496Y-66492690D01*
X61533609Y-66606809D01*
X61533608Y-66606814D01*
X61499500Y-66734108D01*
X34399698Y-66734108D01*
X34314188Y-66527669D01*
X33978884Y-66090691D01*
X39449500Y-66090691D01*
X39449500Y-66209309D01*
X39469543Y-66284109D01*
X39480202Y-66323890D01*
X39539507Y-66426608D01*
X39539509Y-66426610D01*
X39539511Y-66426613D01*
X39623387Y-66510489D01*
X39623389Y-66510490D01*
X39623391Y-66510492D01*
X39726110Y-66569797D01*
X39726111Y-66569797D01*
X39726114Y-66569799D01*
X39840691Y-66600500D01*
X39840693Y-66600500D01*
X39959307Y-66600500D01*
X39959309Y-66600500D01*
X40073886Y-66569799D01*
X40073888Y-66569797D01*
X40073890Y-66569797D01*
X40176608Y-66510492D01*
X40176608Y-66510491D01*
X40176613Y-66510489D01*
X40260489Y-66426613D01*
X40276145Y-66399496D01*
X40319797Y-66323890D01*
X40319797Y-66323888D01*
X40319799Y-66323886D01*
X40330458Y-66284108D01*
X66399500Y-66284108D01*
X66399500Y-66415892D01*
X66402373Y-66426613D01*
X66433609Y-66543190D01*
X66499496Y-66657309D01*
X66499498Y-66657311D01*
X66499500Y-66657314D01*
X66592686Y-66750500D01*
X66592688Y-66750501D01*
X66592690Y-66750503D01*
X66706810Y-66816390D01*
X66706808Y-66816390D01*
X66706812Y-66816391D01*
X66706814Y-66816392D01*
X66834108Y-66850500D01*
X66834110Y-66850500D01*
X66965890Y-66850500D01*
X66965892Y-66850500D01*
X67093186Y-66816392D01*
X67093188Y-66816390D01*
X67093190Y-66816390D01*
X67207309Y-66750503D01*
X67207309Y-66750502D01*
X67207314Y-66750500D01*
X67300500Y-66657314D01*
X67366392Y-66543186D01*
X67400500Y-66415892D01*
X67400500Y-66284108D01*
X67366392Y-66156814D01*
X67366390Y-66156811D01*
X67366390Y-66156809D01*
X67300503Y-66042690D01*
X67300501Y-66042688D01*
X67300500Y-66042686D01*
X67207314Y-65949500D01*
X67207311Y-65949498D01*
X67207309Y-65949496D01*
X67093189Y-65883609D01*
X67093191Y-65883609D01*
X67043799Y-65870375D01*
X66965892Y-65849500D01*
X66834108Y-65849500D01*
X66756200Y-65870375D01*
X66706809Y-65883609D01*
X66592690Y-65949496D01*
X66499496Y-66042690D01*
X66433609Y-66156809D01*
X66426428Y-66183609D01*
X66399500Y-66284108D01*
X40330458Y-66284108D01*
X40350500Y-66209309D01*
X40350500Y-66090691D01*
X40319799Y-65976114D01*
X40319797Y-65976111D01*
X40319797Y-65976109D01*
X40260492Y-65873391D01*
X40260490Y-65873389D01*
X40260489Y-65873387D01*
X40176613Y-65789511D01*
X40176610Y-65789509D01*
X40176608Y-65789507D01*
X40073889Y-65730202D01*
X40073890Y-65730202D01*
X40060351Y-65726574D01*
X39959309Y-65699500D01*
X39840691Y-65699500D01*
X39770567Y-65718289D01*
X39726109Y-65730202D01*
X39623391Y-65789507D01*
X39539507Y-65873391D01*
X39480202Y-65976109D01*
X39463037Y-66040169D01*
X39449500Y-66090691D01*
X33978884Y-66090691D01*
X33948676Y-66051323D01*
X33948671Y-66051319D01*
X33948670Y-66051318D01*
X33716790Y-65873391D01*
X33472330Y-65685811D01*
X33421093Y-65664588D01*
X33097376Y-65530500D01*
X32917614Y-65456040D01*
X32917612Y-65456039D01*
X32917610Y-65456039D01*
X32322331Y-65377669D01*
X32322329Y-65377669D01*
X31727049Y-65456039D01*
X31727043Y-65456041D01*
X31172331Y-65685810D01*
X30695989Y-66051318D01*
X30695979Y-66051328D01*
X30330471Y-66527670D01*
X30100702Y-67082382D01*
X30100700Y-67082388D01*
X30022330Y-67677668D01*
X27648135Y-67677668D01*
X27538390Y-67542074D01*
X27536263Y-67539351D01*
X27017448Y-66850500D01*
X26939847Y-66747466D01*
X26937820Y-66744674D01*
X26784643Y-66525798D01*
X26369407Y-65932464D01*
X26367505Y-65929644D01*
X25827774Y-65098072D01*
X25825955Y-65095160D01*
X25820627Y-65086287D01*
X25661131Y-64820691D01*
X39449500Y-64820691D01*
X39449500Y-64939309D01*
X39471306Y-65020691D01*
X39480202Y-65053890D01*
X39539507Y-65156608D01*
X39539509Y-65156610D01*
X39539511Y-65156613D01*
X39623387Y-65240489D01*
X39623389Y-65240490D01*
X39623391Y-65240492D01*
X39726110Y-65299797D01*
X39726111Y-65299797D01*
X39726114Y-65299799D01*
X39840691Y-65330500D01*
X39840693Y-65330500D01*
X39959307Y-65330500D01*
X39959309Y-65330500D01*
X40073886Y-65299799D01*
X40073888Y-65299797D01*
X40073890Y-65299797D01*
X40176608Y-65240492D01*
X40176608Y-65240491D01*
X40176613Y-65240489D01*
X40260489Y-65156613D01*
X40319799Y-65053886D01*
X40328694Y-65020691D01*
X66449500Y-65020691D01*
X66449500Y-65139309D01*
X66475628Y-65236821D01*
X66480202Y-65253890D01*
X66539507Y-65356608D01*
X66539509Y-65356610D01*
X66539511Y-65356613D01*
X66623387Y-65440489D01*
X66623389Y-65440490D01*
X66623391Y-65440492D01*
X66726110Y-65499797D01*
X66726111Y-65499797D01*
X66726114Y-65499799D01*
X66840691Y-65530500D01*
X66840693Y-65530500D01*
X66959307Y-65530500D01*
X66959309Y-65530500D01*
X67073886Y-65499799D01*
X67073888Y-65499797D01*
X67073890Y-65499797D01*
X67176608Y-65440492D01*
X67176608Y-65440491D01*
X67176613Y-65440489D01*
X67260489Y-65356613D01*
X67260492Y-65356608D01*
X67319797Y-65253890D01*
X67319797Y-65253888D01*
X67319799Y-65253886D01*
X67350500Y-65139309D01*
X67350500Y-65020691D01*
X67319799Y-64906114D01*
X67319797Y-64906111D01*
X67319797Y-64906109D01*
X67260492Y-64803391D01*
X67260490Y-64803389D01*
X67260489Y-64803387D01*
X67176613Y-64719511D01*
X67176610Y-64719509D01*
X67176608Y-64719507D01*
X67073889Y-64660202D01*
X67073890Y-64660202D01*
X67060351Y-64656574D01*
X66959309Y-64629500D01*
X66840691Y-64629500D01*
X66770567Y-64648289D01*
X66726109Y-64660202D01*
X66623391Y-64719507D01*
X66539507Y-64803391D01*
X66480202Y-64906109D01*
X66480201Y-64906114D01*
X66449500Y-65020691D01*
X40328694Y-65020691D01*
X40350500Y-64939309D01*
X40350500Y-64820691D01*
X40319799Y-64706114D01*
X40319797Y-64706111D01*
X40319797Y-64706109D01*
X40260492Y-64603391D01*
X40260490Y-64603389D01*
X40260489Y-64603387D01*
X40176613Y-64519511D01*
X40176610Y-64519509D01*
X40176608Y-64519507D01*
X40073889Y-64460202D01*
X40073890Y-64460202D01*
X40060351Y-64456574D01*
X39959309Y-64429500D01*
X39840691Y-64429500D01*
X39770567Y-64448289D01*
X39726109Y-64460202D01*
X39623391Y-64519507D01*
X39539507Y-64603391D01*
X39480202Y-64706109D01*
X39477147Y-64717511D01*
X39449500Y-64820691D01*
X25661131Y-64820691D01*
X25402072Y-64389300D01*
X25315585Y-64245279D01*
X25313858Y-64242286D01*
X25295588Y-64209307D01*
X24930728Y-63550691D01*
X39449500Y-63550691D01*
X39449500Y-63669309D01*
X39472709Y-63755924D01*
X39480202Y-63783890D01*
X39539507Y-63886608D01*
X39539509Y-63886610D01*
X39539511Y-63886613D01*
X39623387Y-63970489D01*
X39623389Y-63970490D01*
X39623391Y-63970492D01*
X39726110Y-64029797D01*
X39726111Y-64029797D01*
X39726114Y-64029799D01*
X39840691Y-64060500D01*
X39840693Y-64060500D01*
X39959307Y-64060500D01*
X39959309Y-64060500D01*
X40073886Y-64029799D01*
X40073888Y-64029797D01*
X40073890Y-64029797D01*
X40176608Y-63970492D01*
X40176608Y-63970491D01*
X40176613Y-63970489D01*
X40260489Y-63886613D01*
X40268125Y-63873387D01*
X40319797Y-63783890D01*
X40319797Y-63783888D01*
X40319799Y-63783886D01*
X40350500Y-63669309D01*
X40350500Y-63550691D01*
X59799500Y-63550691D01*
X59799500Y-63669309D01*
X59822709Y-63755924D01*
X59830202Y-63783890D01*
X59889507Y-63886608D01*
X59889509Y-63886610D01*
X59889511Y-63886613D01*
X59973387Y-63970489D01*
X59973389Y-63970490D01*
X59973391Y-63970492D01*
X60076110Y-64029797D01*
X60076111Y-64029797D01*
X60076114Y-64029799D01*
X60190691Y-64060500D01*
X60190693Y-64060500D01*
X60309307Y-64060500D01*
X60309309Y-64060500D01*
X60423886Y-64029799D01*
X60423888Y-64029797D01*
X60423890Y-64029797D01*
X60526608Y-63970492D01*
X60526608Y-63970491D01*
X60526613Y-63970489D01*
X60610489Y-63886613D01*
X60618125Y-63873387D01*
X60669797Y-63783890D01*
X60669797Y-63783888D01*
X60669799Y-63783886D01*
X60682485Y-63736542D01*
X63438200Y-63736542D01*
X63438200Y-63883457D01*
X63466860Y-64027541D01*
X63466860Y-64027543D01*
X63523078Y-64163266D01*
X63523078Y-64163267D01*
X63552176Y-64206814D01*
X63604699Y-64285420D01*
X63708580Y-64389301D01*
X63830731Y-64470920D01*
X63966458Y-64527140D01*
X64110545Y-64555800D01*
X64110547Y-64555800D01*
X64257453Y-64555800D01*
X64257455Y-64555800D01*
X64401542Y-64527140D01*
X64537269Y-64470920D01*
X64659420Y-64389301D01*
X64763301Y-64285420D01*
X64844920Y-64163269D01*
X64901140Y-64027542D01*
X64929800Y-63883455D01*
X64929800Y-63736545D01*
X64929799Y-63736542D01*
X65470200Y-63736542D01*
X65470200Y-63883457D01*
X65498860Y-64027541D01*
X65498860Y-64027543D01*
X65555078Y-64163266D01*
X65555078Y-64163267D01*
X65584176Y-64206814D01*
X65636699Y-64285420D01*
X65740580Y-64389301D01*
X65862731Y-64470920D01*
X65998458Y-64527140D01*
X66142545Y-64555800D01*
X66142547Y-64555800D01*
X66289453Y-64555800D01*
X66289455Y-64555800D01*
X66433542Y-64527140D01*
X66569269Y-64470920D01*
X66691420Y-64389301D01*
X66746613Y-64334108D01*
X67899500Y-64334108D01*
X67899500Y-64465892D01*
X67913866Y-64519507D01*
X67933609Y-64593190D01*
X67999496Y-64707309D01*
X67999498Y-64707311D01*
X67999500Y-64707314D01*
X68092686Y-64800500D01*
X68092688Y-64800501D01*
X68092690Y-64800503D01*
X68206810Y-64866390D01*
X68206808Y-64866390D01*
X68206812Y-64866391D01*
X68206814Y-64866392D01*
X68334108Y-64900500D01*
X68334110Y-64900500D01*
X68465890Y-64900500D01*
X68465892Y-64900500D01*
X68593186Y-64866392D01*
X68593188Y-64866390D01*
X68593190Y-64866390D01*
X68707309Y-64800503D01*
X68707309Y-64800502D01*
X68707314Y-64800500D01*
X68800500Y-64707314D01*
X68801196Y-64706109D01*
X68866390Y-64593190D01*
X68866390Y-64593188D01*
X68866392Y-64593186D01*
X68900500Y-64465892D01*
X68900500Y-64334108D01*
X68866392Y-64206814D01*
X68866390Y-64206811D01*
X68866390Y-64206809D01*
X68800503Y-64092690D01*
X68800501Y-64092688D01*
X68800500Y-64092686D01*
X68728519Y-64020705D01*
X68700744Y-63966191D01*
X68710315Y-63905759D01*
X68749024Y-63864968D01*
X68824314Y-63821500D01*
X68917500Y-63728314D01*
X68944089Y-63682261D01*
X68983390Y-63614190D01*
X68983390Y-63614188D01*
X68983392Y-63614186D01*
X69017500Y-63486892D01*
X69017500Y-63355108D01*
X68983392Y-63227814D01*
X68983390Y-63227811D01*
X68983390Y-63227809D01*
X68917503Y-63113690D01*
X68917501Y-63113688D01*
X68917500Y-63113686D01*
X68824314Y-63020500D01*
X68824311Y-63020498D01*
X68824309Y-63020496D01*
X68710189Y-62954609D01*
X68710191Y-62954609D01*
X68660799Y-62941375D01*
X68582892Y-62920500D01*
X68451108Y-62920500D01*
X68373200Y-62941375D01*
X68323809Y-62954609D01*
X68209690Y-63020496D01*
X68116496Y-63113690D01*
X68050609Y-63227809D01*
X68050608Y-63227814D01*
X68016500Y-63355108D01*
X68016500Y-63486892D01*
X68023813Y-63514184D01*
X68050609Y-63614190D01*
X68116496Y-63728309D01*
X68116498Y-63728311D01*
X68116500Y-63728314D01*
X68188479Y-63800293D01*
X68216255Y-63854808D01*
X68206684Y-63915240D01*
X68167975Y-63956031D01*
X68092688Y-63999498D01*
X67999496Y-64092690D01*
X67933609Y-64206809D01*
X67915976Y-64272617D01*
X67899500Y-64334108D01*
X66746613Y-64334108D01*
X66795301Y-64285420D01*
X66876920Y-64163269D01*
X66933140Y-64027542D01*
X66961800Y-63883455D01*
X66961800Y-63736545D01*
X66933140Y-63592458D01*
X66883002Y-63471414D01*
X66876921Y-63456733D01*
X66876921Y-63456732D01*
X66844303Y-63407917D01*
X66795301Y-63334580D01*
X66691420Y-63230699D01*
X66569269Y-63149080D01*
X66569268Y-63149079D01*
X66569266Y-63149078D01*
X66433542Y-63092860D01*
X66289457Y-63064200D01*
X66289455Y-63064200D01*
X66142545Y-63064200D01*
X66142542Y-63064200D01*
X65998458Y-63092860D01*
X65998456Y-63092860D01*
X65862733Y-63149078D01*
X65862732Y-63149078D01*
X65740580Y-63230699D01*
X65740576Y-63230702D01*
X65636702Y-63334576D01*
X65636699Y-63334580D01*
X65555078Y-63456732D01*
X65555078Y-63456733D01*
X65498860Y-63592456D01*
X65498860Y-63592458D01*
X65470200Y-63736542D01*
X64929799Y-63736542D01*
X64901140Y-63592458D01*
X64851002Y-63471414D01*
X64844921Y-63456733D01*
X64844921Y-63456732D01*
X64812303Y-63407917D01*
X64763301Y-63334580D01*
X64659420Y-63230699D01*
X64659416Y-63230696D01*
X64655669Y-63227622D01*
X64656748Y-63226306D01*
X64623213Y-63183773D01*
X64620806Y-63122635D01*
X64654795Y-63071758D01*
X64709488Y-63051576D01*
X64709458Y-63051347D01*
X64710472Y-63051213D01*
X64712197Y-63050577D01*
X64715855Y-63050504D01*
X64715889Y-63050500D01*
X64715892Y-63050500D01*
X64843186Y-63016392D01*
X64843188Y-63016390D01*
X64843190Y-63016390D01*
X64957309Y-62950503D01*
X64957309Y-62950502D01*
X64957314Y-62950500D01*
X65050500Y-62857314D01*
X65097398Y-62776085D01*
X65116390Y-62743190D01*
X65116390Y-62743188D01*
X65116392Y-62743186D01*
X65150500Y-62615892D01*
X65150500Y-62484108D01*
X65116392Y-62356814D01*
X65116390Y-62356811D01*
X65116390Y-62356809D01*
X65050503Y-62242690D01*
X65050501Y-62242688D01*
X65050500Y-62242686D01*
X64957314Y-62149500D01*
X64957311Y-62149498D01*
X64957309Y-62149496D01*
X64843189Y-62083609D01*
X64843191Y-62083609D01*
X64767719Y-62063387D01*
X64715892Y-62049500D01*
X64584108Y-62049500D01*
X64532281Y-62063387D01*
X64456809Y-62083609D01*
X64342690Y-62149496D01*
X64249496Y-62242690D01*
X64183609Y-62356809D01*
X64172170Y-62399500D01*
X64149500Y-62484108D01*
X64149500Y-62615892D01*
X64172168Y-62700492D01*
X64183609Y-62743190D01*
X64249496Y-62857309D01*
X64249498Y-62857311D01*
X64249500Y-62857314D01*
X64287384Y-62895198D01*
X64315160Y-62949713D01*
X64305589Y-63010145D01*
X64262324Y-63053410D01*
X64217379Y-63064200D01*
X64110542Y-63064200D01*
X63966458Y-63092860D01*
X63966456Y-63092860D01*
X63830733Y-63149078D01*
X63830732Y-63149078D01*
X63708580Y-63230699D01*
X63708576Y-63230702D01*
X63604702Y-63334576D01*
X63604699Y-63334580D01*
X63523078Y-63456732D01*
X63523078Y-63456733D01*
X63466860Y-63592456D01*
X63466860Y-63592458D01*
X63438200Y-63736542D01*
X60682485Y-63736542D01*
X60700500Y-63669309D01*
X60700500Y-63550691D01*
X60669799Y-63436114D01*
X60669797Y-63436111D01*
X60669797Y-63436109D01*
X60610492Y-63333391D01*
X60610490Y-63333389D01*
X60610489Y-63333387D01*
X60526613Y-63249511D01*
X60526610Y-63249509D01*
X60526608Y-63249507D01*
X60423889Y-63190202D01*
X60423890Y-63190202D01*
X60410351Y-63186574D01*
X60309309Y-63159500D01*
X60190691Y-63159500D01*
X60120567Y-63178289D01*
X60076109Y-63190202D01*
X59973391Y-63249507D01*
X59889507Y-63333391D01*
X59830202Y-63436109D01*
X59816595Y-63486892D01*
X59799500Y-63550691D01*
X40350500Y-63550691D01*
X40319799Y-63436114D01*
X40319797Y-63436111D01*
X40319797Y-63436109D01*
X40260492Y-63333391D01*
X40260490Y-63333389D01*
X40260489Y-63333387D01*
X40176613Y-63249511D01*
X40176610Y-63249509D01*
X40176608Y-63249507D01*
X40073889Y-63190202D01*
X40073890Y-63190202D01*
X40060351Y-63186574D01*
X39959309Y-63159500D01*
X39840691Y-63159500D01*
X39770567Y-63178289D01*
X39726109Y-63190202D01*
X39623391Y-63249507D01*
X39539507Y-63333391D01*
X39480202Y-63436109D01*
X39466595Y-63486892D01*
X39449500Y-63550691D01*
X24930728Y-63550691D01*
X24884906Y-63467977D01*
X24873247Y-63407917D01*
X24899119Y-63352471D01*
X24925019Y-63332601D01*
X26050622Y-62734108D01*
X36299500Y-62734108D01*
X36299500Y-62865892D01*
X36329579Y-62978151D01*
X36333609Y-62993190D01*
X36399496Y-63107309D01*
X36399498Y-63107311D01*
X36399500Y-63107314D01*
X36492686Y-63200500D01*
X36492688Y-63200501D01*
X36492690Y-63200503D01*
X36606810Y-63266390D01*
X36606808Y-63266390D01*
X36606812Y-63266391D01*
X36606814Y-63266392D01*
X36734108Y-63300500D01*
X36734110Y-63300500D01*
X36865890Y-63300500D01*
X36865892Y-63300500D01*
X36993186Y-63266392D01*
X36993188Y-63266390D01*
X36993190Y-63266390D01*
X37107309Y-63200503D01*
X37107309Y-63200502D01*
X37107314Y-63200500D01*
X37200500Y-63107314D01*
X37231622Y-63053410D01*
X37266390Y-62993190D01*
X37266390Y-62993188D01*
X37266392Y-62993186D01*
X37300500Y-62865892D01*
X37300500Y-62734108D01*
X37266392Y-62606814D01*
X37266390Y-62606811D01*
X37266390Y-62606809D01*
X37200503Y-62492690D01*
X37200501Y-62492688D01*
X37200500Y-62492686D01*
X37107314Y-62399500D01*
X37107311Y-62399498D01*
X37107309Y-62399496D01*
X37038792Y-62359938D01*
X36993189Y-62333609D01*
X36993191Y-62333609D01*
X36943799Y-62320375D01*
X36865892Y-62299500D01*
X36734108Y-62299500D01*
X36656200Y-62320375D01*
X36606809Y-62333609D01*
X36492690Y-62399496D01*
X36399496Y-62492690D01*
X36333609Y-62606809D01*
X36330982Y-62616613D01*
X36299500Y-62734108D01*
X26050622Y-62734108D01*
X26903377Y-62280691D01*
X39049500Y-62280691D01*
X39049500Y-62399309D01*
X39072222Y-62484108D01*
X39080202Y-62513890D01*
X39139507Y-62616608D01*
X39139509Y-62616610D01*
X39139511Y-62616613D01*
X39223387Y-62700489D01*
X39223389Y-62700490D01*
X39223391Y-62700492D01*
X39326110Y-62759797D01*
X39326111Y-62759797D01*
X39326114Y-62759799D01*
X39440691Y-62790500D01*
X39440693Y-62790500D01*
X39559307Y-62790500D01*
X39559309Y-62790500D01*
X39673886Y-62759799D01*
X39673888Y-62759797D01*
X39673890Y-62759797D01*
X39776608Y-62700492D01*
X39776608Y-62700491D01*
X39776613Y-62700489D01*
X39860489Y-62616613D01*
X39860905Y-62615892D01*
X39919797Y-62513890D01*
X39919797Y-62513888D01*
X39919799Y-62513886D01*
X39950500Y-62399309D01*
X39950500Y-62280691D01*
X39919799Y-62166114D01*
X39919797Y-62166111D01*
X39919797Y-62166109D01*
X39860492Y-62063391D01*
X39860490Y-62063389D01*
X39860489Y-62063387D01*
X39776613Y-61979511D01*
X39776610Y-61979509D01*
X39776608Y-61979507D01*
X39673889Y-61920202D01*
X39673890Y-61920202D01*
X39660351Y-61916574D01*
X39559309Y-61889500D01*
X39440691Y-61889500D01*
X39370567Y-61908289D01*
X39326109Y-61920202D01*
X39223391Y-61979507D01*
X39139507Y-62063391D01*
X39080202Y-62166109D01*
X39066729Y-62216392D01*
X39049500Y-62280691D01*
X26903377Y-62280691D01*
X27573131Y-61924577D01*
X27573130Y-61924576D01*
X27573131Y-61924576D01*
X27130151Y-61048892D01*
X27130150Y-61048891D01*
X27110826Y-61010691D01*
X38349500Y-61010691D01*
X38349500Y-61129309D01*
X38369330Y-61203314D01*
X38380202Y-61243890D01*
X38439507Y-61346608D01*
X38439509Y-61346610D01*
X38439511Y-61346613D01*
X38523387Y-61430489D01*
X38523389Y-61430490D01*
X38523391Y-61430492D01*
X38626110Y-61489797D01*
X38626111Y-61489797D01*
X38626114Y-61489799D01*
X38740691Y-61520500D01*
X38740693Y-61520500D01*
X38859307Y-61520500D01*
X38859309Y-61520500D01*
X38973886Y-61489799D01*
X38973888Y-61489797D01*
X38973890Y-61489797D01*
X39076608Y-61430492D01*
X39076608Y-61430491D01*
X39076613Y-61430489D01*
X39160489Y-61346613D01*
X39196865Y-61283609D01*
X39219797Y-61243890D01*
X39219797Y-61243888D01*
X39219799Y-61243886D01*
X39250500Y-61129309D01*
X39250500Y-61010691D01*
X59799500Y-61010691D01*
X59799500Y-61129309D01*
X59819330Y-61203314D01*
X59830202Y-61243890D01*
X59889507Y-61346608D01*
X59889509Y-61346610D01*
X59889511Y-61346613D01*
X59973387Y-61430489D01*
X59973389Y-61430490D01*
X59973391Y-61430492D01*
X60076110Y-61489797D01*
X60076111Y-61489797D01*
X60076114Y-61489799D01*
X60190691Y-61520500D01*
X60190693Y-61520500D01*
X60309307Y-61520500D01*
X60309309Y-61520500D01*
X60423886Y-61489799D01*
X60423888Y-61489797D01*
X60423890Y-61489797D01*
X60526608Y-61430492D01*
X60526608Y-61430491D01*
X60526613Y-61430489D01*
X60610489Y-61346613D01*
X60617709Y-61334108D01*
X61949500Y-61334108D01*
X61949500Y-61465892D01*
X61955906Y-61489799D01*
X61983609Y-61593190D01*
X62049496Y-61707309D01*
X62049498Y-61707311D01*
X62049500Y-61707314D01*
X62142686Y-61800500D01*
X62142688Y-61800501D01*
X62142690Y-61800503D01*
X62256810Y-61866390D01*
X62256808Y-61866390D01*
X62256812Y-61866391D01*
X62256814Y-61866392D01*
X62384108Y-61900500D01*
X62384110Y-61900500D01*
X62515890Y-61900500D01*
X62515892Y-61900500D01*
X62643186Y-61866392D01*
X62643188Y-61866390D01*
X62643190Y-61866390D01*
X62757309Y-61800503D01*
X62757309Y-61800502D01*
X62757314Y-61800500D01*
X62850500Y-61707314D01*
X62850503Y-61707309D01*
X62863898Y-61684108D01*
X70749500Y-61684108D01*
X70749500Y-61815892D01*
X70777449Y-61920201D01*
X70783609Y-61943190D01*
X70849496Y-62057309D01*
X70849498Y-62057311D01*
X70849500Y-62057314D01*
X70942686Y-62150500D01*
X70942688Y-62150501D01*
X70942690Y-62150503D01*
X71056810Y-62216390D01*
X71056808Y-62216390D01*
X71056812Y-62216391D01*
X71056814Y-62216392D01*
X71184108Y-62250500D01*
X71184110Y-62250500D01*
X71315890Y-62250500D01*
X71315892Y-62250500D01*
X71443186Y-62216392D01*
X71443188Y-62216390D01*
X71443190Y-62216390D01*
X71557309Y-62150503D01*
X71557309Y-62150502D01*
X71557314Y-62150500D01*
X71650500Y-62057314D01*
X71650503Y-62057309D01*
X71716390Y-61943190D01*
X71716390Y-61943188D01*
X71716392Y-61943186D01*
X71750500Y-61815892D01*
X71750500Y-61684108D01*
X71716392Y-61556814D01*
X71716390Y-61556811D01*
X71716390Y-61556809D01*
X71650503Y-61442690D01*
X71650501Y-61442688D01*
X71650500Y-61442686D01*
X71557314Y-61349500D01*
X71557311Y-61349498D01*
X71557309Y-61349496D01*
X71443189Y-61283609D01*
X71443191Y-61283609D01*
X71393799Y-61270375D01*
X71315892Y-61249500D01*
X71184108Y-61249500D01*
X71106200Y-61270375D01*
X71056809Y-61283609D01*
X70942690Y-61349496D01*
X70849496Y-61442690D01*
X70783609Y-61556809D01*
X70783608Y-61556814D01*
X70749500Y-61684108D01*
X62863898Y-61684108D01*
X62896224Y-61628119D01*
X62916390Y-61593190D01*
X62916390Y-61593188D01*
X62916392Y-61593186D01*
X62950500Y-61465892D01*
X62950500Y-61334108D01*
X62916392Y-61206814D01*
X62916390Y-61206811D01*
X62916390Y-61206809D01*
X62850503Y-61092690D01*
X62850501Y-61092688D01*
X62850500Y-61092686D01*
X62757314Y-60999500D01*
X62757311Y-60999498D01*
X62757309Y-60999496D01*
X62643189Y-60933609D01*
X62643191Y-60933609D01*
X62620864Y-60927626D01*
X62515892Y-60899500D01*
X62384108Y-60899500D01*
X62310414Y-60919246D01*
X62256809Y-60933609D01*
X62142690Y-60999496D01*
X62049496Y-61092690D01*
X61983609Y-61206809D01*
X61972170Y-61249500D01*
X61949500Y-61334108D01*
X60617709Y-61334108D01*
X60650035Y-61278119D01*
X60650035Y-61278118D01*
X60650798Y-61276794D01*
X60669799Y-61243886D01*
X60700500Y-61129309D01*
X60700500Y-61010691D01*
X60669799Y-60896114D01*
X60669797Y-60896111D01*
X60669797Y-60896109D01*
X60631691Y-60830108D01*
X69503500Y-60830108D01*
X69503500Y-60961892D01*
X69514629Y-61003425D01*
X69537609Y-61089190D01*
X69603496Y-61203309D01*
X69603498Y-61203311D01*
X69603500Y-61203314D01*
X69696686Y-61296500D01*
X69696688Y-61296501D01*
X69696690Y-61296503D01*
X69810810Y-61362390D01*
X69810808Y-61362390D01*
X69810812Y-61362391D01*
X69810814Y-61362392D01*
X69938108Y-61396500D01*
X69938110Y-61396500D01*
X70069890Y-61396500D01*
X70069892Y-61396500D01*
X70197186Y-61362392D01*
X70197188Y-61362390D01*
X70197190Y-61362390D01*
X70311309Y-61296503D01*
X70311309Y-61296502D01*
X70311314Y-61296500D01*
X70404500Y-61203314D01*
X70468369Y-61092690D01*
X70470390Y-61089190D01*
X70470390Y-61089188D01*
X70470392Y-61089186D01*
X70504500Y-60961892D01*
X70504500Y-60830108D01*
X70470392Y-60702814D01*
X70470390Y-60702811D01*
X70470390Y-60702809D01*
X70404503Y-60588690D01*
X70404501Y-60588688D01*
X70404500Y-60588686D01*
X70311314Y-60495500D01*
X70311311Y-60495498D01*
X70311309Y-60495496D01*
X70197189Y-60429609D01*
X70197191Y-60429609D01*
X70147799Y-60416375D01*
X70069892Y-60395500D01*
X69938108Y-60395500D01*
X69860200Y-60416375D01*
X69810809Y-60429609D01*
X69696690Y-60495496D01*
X69603496Y-60588690D01*
X69537609Y-60702809D01*
X69518539Y-60773978D01*
X69503500Y-60830108D01*
X60631691Y-60830108D01*
X60610492Y-60793391D01*
X60610490Y-60793389D01*
X60610489Y-60793387D01*
X60526613Y-60709511D01*
X60526610Y-60709509D01*
X60526608Y-60709507D01*
X60423889Y-60650202D01*
X60423890Y-60650202D01*
X60410351Y-60646574D01*
X60309309Y-60619500D01*
X60190691Y-60619500D01*
X60120567Y-60638289D01*
X60076109Y-60650202D01*
X59973391Y-60709507D01*
X59889507Y-60793391D01*
X59830202Y-60896109D01*
X59824003Y-60919246D01*
X59799500Y-61010691D01*
X39250500Y-61010691D01*
X39219799Y-60896114D01*
X39219797Y-60896111D01*
X39219797Y-60896109D01*
X39160492Y-60793391D01*
X39160490Y-60793389D01*
X39160489Y-60793387D01*
X39076613Y-60709511D01*
X39076610Y-60709509D01*
X39076608Y-60709507D01*
X38973889Y-60650202D01*
X38973890Y-60650202D01*
X38960351Y-60646574D01*
X38859309Y-60619500D01*
X38740691Y-60619500D01*
X38670567Y-60638289D01*
X38626109Y-60650202D01*
X38523391Y-60709507D01*
X38439507Y-60793391D01*
X38380202Y-60896109D01*
X38374003Y-60919246D01*
X38349500Y-61010691D01*
X27110826Y-61010691D01*
X27107139Y-61003402D01*
X27105404Y-60999791D01*
X27105270Y-60999496D01*
X26678143Y-60062255D01*
X26676550Y-60058561D01*
X26595372Y-59859309D01*
X26287803Y-59104378D01*
X26286387Y-59100688D01*
X26261329Y-59031214D01*
X36682394Y-59031214D01*
X36682394Y-59162998D01*
X36688051Y-59184109D01*
X36716503Y-59290296D01*
X36782390Y-59404415D01*
X36782392Y-59404417D01*
X36782394Y-59404420D01*
X36875580Y-59497606D01*
X36875582Y-59497607D01*
X36875584Y-59497609D01*
X36989704Y-59563496D01*
X36989702Y-59563496D01*
X36989706Y-59563497D01*
X36989708Y-59563498D01*
X37117002Y-59597606D01*
X37117004Y-59597606D01*
X37248784Y-59597606D01*
X37248786Y-59597606D01*
X37376080Y-59563498D01*
X37376082Y-59563496D01*
X37376084Y-59563496D01*
X37490203Y-59497609D01*
X37490203Y-59497608D01*
X37490208Y-59497606D01*
X37583394Y-59404420D01*
X37649286Y-59290292D01*
X37677738Y-59184108D01*
X50319500Y-59184108D01*
X50319500Y-59315892D01*
X50343221Y-59404420D01*
X50353609Y-59443190D01*
X50419496Y-59557309D01*
X50419498Y-59557311D01*
X50419500Y-59557314D01*
X50512686Y-59650500D01*
X50512688Y-59650501D01*
X50512690Y-59650503D01*
X50626810Y-59716390D01*
X50626808Y-59716390D01*
X50626812Y-59716391D01*
X50626814Y-59716392D01*
X50754108Y-59750500D01*
X50754110Y-59750500D01*
X50885890Y-59750500D01*
X50885892Y-59750500D01*
X51013186Y-59716392D01*
X51013188Y-59716390D01*
X51013190Y-59716390D01*
X51127309Y-59650503D01*
X51127309Y-59650502D01*
X51127314Y-59650500D01*
X51220500Y-59557314D01*
X51249368Y-59507314D01*
X51286390Y-59443190D01*
X51286390Y-59443188D01*
X51286392Y-59443186D01*
X51320500Y-59315892D01*
X51320500Y-59184108D01*
X55699500Y-59184108D01*
X55699500Y-59315892D01*
X55723221Y-59404420D01*
X55733609Y-59443190D01*
X55799496Y-59557309D01*
X55799498Y-59557311D01*
X55799500Y-59557314D01*
X55892686Y-59650500D01*
X55892688Y-59650501D01*
X55892690Y-59650503D01*
X56006810Y-59716390D01*
X56006808Y-59716390D01*
X56006812Y-59716391D01*
X56006814Y-59716392D01*
X56134108Y-59750500D01*
X56134110Y-59750500D01*
X56265890Y-59750500D01*
X56265892Y-59750500D01*
X56302500Y-59740691D01*
X60499500Y-59740691D01*
X60499500Y-59859309D01*
X60526574Y-59960351D01*
X60530202Y-59973890D01*
X60589507Y-60076608D01*
X60589509Y-60076610D01*
X60589511Y-60076613D01*
X60673387Y-60160489D01*
X60673389Y-60160490D01*
X60673391Y-60160492D01*
X60776110Y-60219797D01*
X60776111Y-60219797D01*
X60776114Y-60219799D01*
X60890691Y-60250500D01*
X60890693Y-60250500D01*
X61009307Y-60250500D01*
X61009309Y-60250500D01*
X61123886Y-60219799D01*
X61123888Y-60219797D01*
X61123890Y-60219797D01*
X61226608Y-60160492D01*
X61226608Y-60160491D01*
X61226613Y-60160489D01*
X61310489Y-60076613D01*
X61319835Y-60060426D01*
X61369797Y-59973890D01*
X61369797Y-59973888D01*
X61369799Y-59973886D01*
X61400500Y-59859309D01*
X61400500Y-59740691D01*
X61369799Y-59626114D01*
X61369797Y-59626111D01*
X61369797Y-59626109D01*
X61310492Y-59523391D01*
X61310490Y-59523389D01*
X61310489Y-59523387D01*
X61226613Y-59439511D01*
X61226610Y-59439509D01*
X61226608Y-59439507D01*
X61123889Y-59380202D01*
X61123890Y-59380202D01*
X61110351Y-59376574D01*
X61009309Y-59349500D01*
X60890691Y-59349500D01*
X60820567Y-59368289D01*
X60776109Y-59380202D01*
X60673391Y-59439507D01*
X60589507Y-59523391D01*
X60530202Y-59626109D01*
X60530201Y-59626114D01*
X60499500Y-59740691D01*
X56302500Y-59740691D01*
X56393186Y-59716392D01*
X56393188Y-59716390D01*
X56393190Y-59716390D01*
X56479792Y-59666390D01*
X56507314Y-59650500D01*
X56600500Y-59557314D01*
X56629368Y-59507314D01*
X56666390Y-59443190D01*
X56666390Y-59443188D01*
X56666392Y-59443186D01*
X56700500Y-59315892D01*
X56700500Y-59184108D01*
X56687103Y-59134108D01*
X65349500Y-59134108D01*
X65349500Y-59265892D01*
X65379579Y-59378151D01*
X65383609Y-59393190D01*
X65449496Y-59507309D01*
X65449498Y-59507311D01*
X65449500Y-59507314D01*
X65542686Y-59600500D01*
X65542688Y-59600501D01*
X65542690Y-59600503D01*
X65656810Y-59666390D01*
X65656808Y-59666390D01*
X65656812Y-59666391D01*
X65656814Y-59666392D01*
X65784108Y-59700500D01*
X65784110Y-59700500D01*
X65915890Y-59700500D01*
X65915892Y-59700500D01*
X66043186Y-59666392D01*
X66043188Y-59666390D01*
X66043190Y-59666390D01*
X66157309Y-59600503D01*
X66157309Y-59600502D01*
X66157314Y-59600500D01*
X66250500Y-59507314D01*
X66287522Y-59443190D01*
X66316390Y-59393190D01*
X66316390Y-59393188D01*
X66316392Y-59393186D01*
X66350500Y-59265892D01*
X66350500Y-59134108D01*
X66316392Y-59006814D01*
X66316390Y-59006811D01*
X66316390Y-59006809D01*
X66250503Y-58892690D01*
X66250501Y-58892688D01*
X66250500Y-58892686D01*
X66157314Y-58799500D01*
X66157311Y-58799498D01*
X66157309Y-58799496D01*
X66043189Y-58733609D01*
X66043191Y-58733609D01*
X65993799Y-58720375D01*
X65915892Y-58699500D01*
X65784108Y-58699500D01*
X65706200Y-58720375D01*
X65656809Y-58733609D01*
X65542690Y-58799496D01*
X65449496Y-58892690D01*
X65383609Y-59006809D01*
X65383608Y-59006814D01*
X65349500Y-59134108D01*
X56687103Y-59134108D01*
X56666392Y-59056814D01*
X56666390Y-59056811D01*
X56666390Y-59056809D01*
X56600503Y-58942690D01*
X56600501Y-58942688D01*
X56600500Y-58942686D01*
X56507314Y-58849500D01*
X56507311Y-58849498D01*
X56507309Y-58849496D01*
X56393189Y-58783609D01*
X56393191Y-58783609D01*
X56343799Y-58770375D01*
X56265892Y-58749500D01*
X56134108Y-58749500D01*
X56056200Y-58770375D01*
X56006809Y-58783609D01*
X55892690Y-58849496D01*
X55799496Y-58942690D01*
X55733609Y-59056809D01*
X55720853Y-59104415D01*
X55699500Y-59184108D01*
X51320500Y-59184108D01*
X51286392Y-59056814D01*
X51286390Y-59056811D01*
X51286390Y-59056809D01*
X51220503Y-58942690D01*
X51220501Y-58942688D01*
X51220500Y-58942686D01*
X51127314Y-58849500D01*
X51127311Y-58849498D01*
X51127309Y-58849496D01*
X51013189Y-58783609D01*
X51013191Y-58783609D01*
X50963799Y-58770375D01*
X50885892Y-58749500D01*
X50754108Y-58749500D01*
X50676200Y-58770375D01*
X50626809Y-58783609D01*
X50512690Y-58849496D01*
X50419496Y-58942690D01*
X50353609Y-59056809D01*
X50340853Y-59104415D01*
X50319500Y-59184108D01*
X37677738Y-59184108D01*
X37683394Y-59162998D01*
X37683394Y-59031214D01*
X37649286Y-58903920D01*
X37649284Y-58903917D01*
X37649284Y-58903915D01*
X37583397Y-58789796D01*
X37583395Y-58789794D01*
X37583394Y-58789792D01*
X37490208Y-58696606D01*
X37490205Y-58696604D01*
X37490203Y-58696602D01*
X37376083Y-58630715D01*
X37376085Y-58630715D01*
X37326693Y-58617481D01*
X37248786Y-58596606D01*
X37117002Y-58596606D01*
X37039094Y-58617481D01*
X36989703Y-58630715D01*
X36875584Y-58696602D01*
X36782390Y-58789796D01*
X36716503Y-58903915D01*
X36716502Y-58903920D01*
X36682394Y-59031214D01*
X26261329Y-59031214D01*
X26059160Y-58470691D01*
X59799500Y-58470691D01*
X59799500Y-58589309D01*
X59810595Y-58630714D01*
X59830202Y-58703890D01*
X59889507Y-58806608D01*
X59889509Y-58806610D01*
X59889511Y-58806613D01*
X59973387Y-58890489D01*
X59973389Y-58890490D01*
X59973391Y-58890492D01*
X60076110Y-58949797D01*
X60076111Y-58949797D01*
X60076114Y-58949799D01*
X60190691Y-58980500D01*
X60190693Y-58980500D01*
X60309307Y-58980500D01*
X60309309Y-58980500D01*
X60423886Y-58949799D01*
X60423888Y-58949797D01*
X60423890Y-58949797D01*
X60526608Y-58890492D01*
X60526608Y-58890491D01*
X60526613Y-58890489D01*
X60610489Y-58806613D01*
X60614598Y-58799496D01*
X60669797Y-58703890D01*
X60669797Y-58703888D01*
X60669799Y-58703886D01*
X60700500Y-58589309D01*
X60700500Y-58470691D01*
X60669799Y-58356114D01*
X60669797Y-58356111D01*
X60669797Y-58356109D01*
X60610492Y-58253391D01*
X60610490Y-58253389D01*
X60610489Y-58253387D01*
X60526613Y-58169511D01*
X60526610Y-58169509D01*
X60526608Y-58169507D01*
X60423889Y-58110202D01*
X60423890Y-58110202D01*
X60410351Y-58106574D01*
X60309309Y-58079500D01*
X60190691Y-58079500D01*
X60139600Y-58093190D01*
X60076109Y-58110202D01*
X59973391Y-58169507D01*
X59889507Y-58253391D01*
X59830202Y-58356109D01*
X59827447Y-58366392D01*
X59799500Y-58470691D01*
X26059160Y-58470691D01*
X25936801Y-58131445D01*
X25935517Y-58127644D01*
X25764141Y-57584108D01*
X32499500Y-57584108D01*
X32499500Y-57715892D01*
X32522571Y-57801996D01*
X32533609Y-57843190D01*
X32599496Y-57957309D01*
X32599498Y-57957311D01*
X32599500Y-57957314D01*
X32692686Y-58050500D01*
X32692688Y-58050501D01*
X32692690Y-58050503D01*
X32806810Y-58116390D01*
X32806808Y-58116390D01*
X32806812Y-58116391D01*
X32806814Y-58116392D01*
X32934108Y-58150500D01*
X32934110Y-58150500D01*
X33065890Y-58150500D01*
X33065892Y-58150500D01*
X33193186Y-58116392D01*
X33193188Y-58116390D01*
X33193190Y-58116390D01*
X33307309Y-58050503D01*
X33307309Y-58050502D01*
X33307314Y-58050500D01*
X33400500Y-57957314D01*
X33466392Y-57843186D01*
X33468824Y-57834108D01*
X39299500Y-57834108D01*
X39299500Y-57965892D01*
X39322171Y-58050503D01*
X39333609Y-58093190D01*
X39399496Y-58207309D01*
X39399498Y-58207311D01*
X39399500Y-58207314D01*
X39492686Y-58300500D01*
X39492688Y-58300501D01*
X39492690Y-58300503D01*
X39606810Y-58366390D01*
X39606808Y-58366390D01*
X39606812Y-58366391D01*
X39606814Y-58366392D01*
X39734108Y-58400500D01*
X39734110Y-58400500D01*
X39865890Y-58400500D01*
X39865892Y-58400500D01*
X39993186Y-58366392D01*
X39993188Y-58366390D01*
X39993190Y-58366390D01*
X40107309Y-58300503D01*
X40107309Y-58300502D01*
X40107314Y-58300500D01*
X40200500Y-58207314D01*
X40256568Y-58110202D01*
X40266390Y-58093190D01*
X40266390Y-58093188D01*
X40266392Y-58093186D01*
X40300500Y-57965892D01*
X40300500Y-57834108D01*
X40266392Y-57706814D01*
X40266390Y-57706811D01*
X40266390Y-57706809D01*
X40200503Y-57592690D01*
X40200501Y-57592688D01*
X40200500Y-57592686D01*
X40107314Y-57499500D01*
X40107311Y-57499498D01*
X40107309Y-57499496D01*
X39993189Y-57433609D01*
X39993191Y-57433609D01*
X39943799Y-57420375D01*
X39865892Y-57399500D01*
X39734108Y-57399500D01*
X39656200Y-57420375D01*
X39606809Y-57433609D01*
X39492690Y-57499496D01*
X39399496Y-57592690D01*
X39333609Y-57706809D01*
X39314539Y-57777978D01*
X39299500Y-57834108D01*
X33468824Y-57834108D01*
X33500500Y-57715892D01*
X33500500Y-57584108D01*
X33466392Y-57456814D01*
X33466390Y-57456811D01*
X33466390Y-57456809D01*
X33400503Y-57342690D01*
X33400501Y-57342688D01*
X33400500Y-57342686D01*
X33307314Y-57249500D01*
X33307311Y-57249498D01*
X33307309Y-57249496D01*
X33193189Y-57183609D01*
X33193191Y-57183609D01*
X33143799Y-57170375D01*
X33065892Y-57149500D01*
X32934108Y-57149500D01*
X32856200Y-57170375D01*
X32806809Y-57183609D01*
X32692690Y-57249496D01*
X32599496Y-57342690D01*
X32533609Y-57456809D01*
X32522170Y-57499500D01*
X32499500Y-57584108D01*
X25764141Y-57584108D01*
X25625696Y-57145016D01*
X25624577Y-57141200D01*
X25460013Y-56534108D01*
X62899500Y-56534108D01*
X62899500Y-56665892D01*
X62929579Y-56778151D01*
X62933609Y-56793190D01*
X62999496Y-56907309D01*
X62999498Y-56907311D01*
X62999500Y-56907314D01*
X63092686Y-57000500D01*
X63092688Y-57000501D01*
X63092690Y-57000503D01*
X63206810Y-57066390D01*
X63206808Y-57066390D01*
X63206812Y-57066391D01*
X63206814Y-57066392D01*
X63334108Y-57100500D01*
X63334110Y-57100500D01*
X63465890Y-57100500D01*
X63465892Y-57100500D01*
X63593186Y-57066392D01*
X63593188Y-57066390D01*
X63593190Y-57066390D01*
X63707309Y-57000503D01*
X63707309Y-57000502D01*
X63707314Y-57000500D01*
X63800500Y-56907314D01*
X63866392Y-56793186D01*
X63900500Y-56665892D01*
X63900500Y-56534108D01*
X63866392Y-56406814D01*
X63866390Y-56406811D01*
X63866390Y-56406809D01*
X63800503Y-56292690D01*
X63800501Y-56292688D01*
X63800500Y-56292686D01*
X63707314Y-56199500D01*
X63707311Y-56199498D01*
X63707309Y-56199496D01*
X63593189Y-56133609D01*
X63593191Y-56133609D01*
X63543799Y-56120375D01*
X63465892Y-56099500D01*
X63334108Y-56099500D01*
X63256200Y-56120375D01*
X63206809Y-56133609D01*
X63092690Y-56199496D01*
X62999496Y-56292690D01*
X62933609Y-56406809D01*
X62924582Y-56440500D01*
X62899500Y-56534108D01*
X25460013Y-56534108D01*
X25355012Y-56146750D01*
X25354038Y-56142841D01*
X25330000Y-56037320D01*
X25125186Y-55138252D01*
X25124386Y-55134373D01*
X24936622Y-54121293D01*
X24935971Y-54117328D01*
X24918156Y-53993190D01*
X24789609Y-53097448D01*
X24789121Y-53093469D01*
X24788717Y-53089511D01*
X24684403Y-52068474D01*
X24684082Y-52064539D01*
X24621179Y-51036078D01*
X24621018Y-51032136D01*
X24600041Y-50002013D01*
X24600041Y-49997983D01*
X24621018Y-48967860D01*
X24621179Y-48963922D01*
X24684082Y-47935455D01*
X24684403Y-47931528D01*
X24789124Y-46906502D01*
X24789608Y-46902556D01*
X24935974Y-45882650D01*
X24936625Y-45878692D01*
X25124387Y-44865615D01*
X25125184Y-44861755D01*
X25169809Y-44665864D01*
X30399500Y-44665864D01*
X30399500Y-44710438D01*
X30399500Y-55202405D01*
X30399500Y-55250000D01*
X30399500Y-55334136D01*
X30420794Y-55434314D01*
X30434485Y-55498727D01*
X30434488Y-55498737D01*
X30502922Y-55652444D01*
X30502926Y-55652451D01*
X30502928Y-55652455D01*
X30601836Y-55788589D01*
X30601838Y-55788591D01*
X30601839Y-55788592D01*
X30601840Y-55788593D01*
X30632400Y-55816109D01*
X30726886Y-55901185D01*
X30777992Y-55930691D01*
X30872604Y-55985316D01*
X30872608Y-55985317D01*
X30872614Y-55985321D01*
X31032650Y-56037320D01*
X31200000Y-56054909D01*
X31367350Y-56037320D01*
X31527386Y-55985321D01*
X31622008Y-55930691D01*
X39249500Y-55930691D01*
X39249500Y-56049309D01*
X39251001Y-56054909D01*
X39280202Y-56163890D01*
X39339507Y-56266608D01*
X39339509Y-56266610D01*
X39339511Y-56266613D01*
X39423387Y-56350489D01*
X39423389Y-56350490D01*
X39423391Y-56350492D01*
X39526110Y-56409797D01*
X39526111Y-56409797D01*
X39526114Y-56409799D01*
X39640691Y-56440500D01*
X39640693Y-56440500D01*
X39759307Y-56440500D01*
X39759309Y-56440500D01*
X39873886Y-56409799D01*
X39873888Y-56409797D01*
X39873890Y-56409797D01*
X39976608Y-56350492D01*
X39976608Y-56350491D01*
X39976613Y-56350489D01*
X40060489Y-56266613D01*
X40099237Y-56199500D01*
X40119797Y-56163890D01*
X40119797Y-56163888D01*
X40119799Y-56163886D01*
X40150500Y-56049309D01*
X40150500Y-55930691D01*
X40119799Y-55816114D01*
X40119797Y-55816111D01*
X40119797Y-55816109D01*
X40060492Y-55713391D01*
X40060490Y-55713389D01*
X40060489Y-55713387D01*
X39976613Y-55629511D01*
X39976610Y-55629509D01*
X39976608Y-55629507D01*
X39873889Y-55570202D01*
X39873890Y-55570202D01*
X39860351Y-55566574D01*
X39759309Y-55539500D01*
X39640691Y-55539500D01*
X39570567Y-55558289D01*
X39526109Y-55570202D01*
X39423391Y-55629507D01*
X39339507Y-55713391D01*
X39280202Y-55816109D01*
X39280201Y-55816114D01*
X39249500Y-55930691D01*
X31622008Y-55930691D01*
X31673114Y-55901185D01*
X31798164Y-55788589D01*
X31897072Y-55652455D01*
X31965514Y-55498731D01*
X32000500Y-55334136D01*
X32000500Y-55250000D01*
X32000500Y-55202405D01*
X32000500Y-54660691D01*
X41949500Y-54660691D01*
X41949500Y-54779309D01*
X41962442Y-54827608D01*
X41980202Y-54893890D01*
X42039507Y-54996608D01*
X42039509Y-54996610D01*
X42039511Y-54996613D01*
X42123387Y-55080489D01*
X42123389Y-55080490D01*
X42123391Y-55080492D01*
X42226110Y-55139797D01*
X42226111Y-55139797D01*
X42226114Y-55139799D01*
X42340691Y-55170500D01*
X42340693Y-55170500D01*
X42459307Y-55170500D01*
X42459309Y-55170500D01*
X42573886Y-55139799D01*
X42573888Y-55139797D01*
X42573890Y-55139797D01*
X42676608Y-55080492D01*
X42676608Y-55080491D01*
X42676613Y-55080489D01*
X42760489Y-54996613D01*
X42766218Y-54986690D01*
X42792776Y-54940691D01*
X52249500Y-54940691D01*
X52249500Y-55059309D01*
X52269604Y-55134339D01*
X52280202Y-55173890D01*
X52339507Y-55276608D01*
X52339509Y-55276610D01*
X52339511Y-55276613D01*
X52423387Y-55360489D01*
X52423389Y-55360490D01*
X52423391Y-55360492D01*
X52526110Y-55419797D01*
X52526111Y-55419797D01*
X52526114Y-55419799D01*
X52640691Y-55450500D01*
X52640693Y-55450500D01*
X52759307Y-55450500D01*
X52759309Y-55450500D01*
X52873886Y-55419799D01*
X52873888Y-55419797D01*
X52873890Y-55419797D01*
X52976608Y-55360492D01*
X52976608Y-55360491D01*
X52976613Y-55360489D01*
X53004998Y-55332103D01*
X53059513Y-55304328D01*
X53119945Y-55313899D01*
X53145000Y-55332102D01*
X53173387Y-55360489D01*
X53173389Y-55360490D01*
X53173391Y-55360492D01*
X53276110Y-55419797D01*
X53276111Y-55419797D01*
X53276114Y-55419799D01*
X53390691Y-55450500D01*
X53390693Y-55450500D01*
X53509307Y-55450500D01*
X53509309Y-55450500D01*
X53623886Y-55419799D01*
X53623888Y-55419797D01*
X53623890Y-55419797D01*
X53685704Y-55384108D01*
X61849500Y-55384108D01*
X61849500Y-55515892D01*
X61855826Y-55539500D01*
X61883609Y-55643190D01*
X61949496Y-55757309D01*
X61949498Y-55757311D01*
X61949500Y-55757314D01*
X62042686Y-55850500D01*
X62042688Y-55850501D01*
X62042690Y-55850503D01*
X62156810Y-55916390D01*
X62156808Y-55916390D01*
X62156812Y-55916391D01*
X62156814Y-55916392D01*
X62284108Y-55950500D01*
X62284110Y-55950500D01*
X62415890Y-55950500D01*
X62415892Y-55950500D01*
X62543186Y-55916392D01*
X62543188Y-55916390D01*
X62543190Y-55916390D01*
X62657309Y-55850503D01*
X62657309Y-55850502D01*
X62657314Y-55850500D01*
X62750500Y-55757314D01*
X62775859Y-55713391D01*
X62816390Y-55643190D01*
X62816390Y-55643188D01*
X62816392Y-55643186D01*
X62850500Y-55515892D01*
X62850500Y-55384108D01*
X62816392Y-55256814D01*
X62812458Y-55250000D01*
X62799819Y-55228108D01*
X70647500Y-55228108D01*
X70647500Y-55359892D01*
X70663552Y-55419799D01*
X70681609Y-55487190D01*
X70747496Y-55601309D01*
X70747498Y-55601311D01*
X70747500Y-55601314D01*
X70840686Y-55694500D01*
X70840688Y-55694501D01*
X70840690Y-55694503D01*
X70954810Y-55760390D01*
X70954808Y-55760390D01*
X70954812Y-55760391D01*
X70954814Y-55760392D01*
X71082108Y-55794500D01*
X71082110Y-55794500D01*
X71213890Y-55794500D01*
X71213892Y-55794500D01*
X71341186Y-55760392D01*
X71341188Y-55760390D01*
X71341190Y-55760390D01*
X71455309Y-55694503D01*
X71455309Y-55694502D01*
X71455314Y-55694500D01*
X71548500Y-55601314D01*
X71566463Y-55570201D01*
X71614390Y-55487190D01*
X71614390Y-55487188D01*
X71614392Y-55487186D01*
X71648500Y-55359892D01*
X71648500Y-55228108D01*
X71614392Y-55100814D01*
X71614390Y-55100811D01*
X71614390Y-55100809D01*
X71548503Y-54986690D01*
X71548501Y-54986688D01*
X71548500Y-54986686D01*
X71455314Y-54893500D01*
X71455311Y-54893498D01*
X71455309Y-54893496D01*
X71341189Y-54827609D01*
X71341191Y-54827609D01*
X71291799Y-54814375D01*
X71213892Y-54793500D01*
X71082108Y-54793500D01*
X71004200Y-54814375D01*
X70954809Y-54827609D01*
X70840690Y-54893496D01*
X70747496Y-54986690D01*
X70681609Y-55100809D01*
X70670387Y-55142690D01*
X70647500Y-55228108D01*
X62799819Y-55228108D01*
X62750503Y-55142690D01*
X62750501Y-55142688D01*
X62750500Y-55142686D01*
X62657314Y-55049500D01*
X62657311Y-55049498D01*
X62657309Y-55049496D01*
X62543189Y-54983609D01*
X62543191Y-54983609D01*
X62493799Y-54970375D01*
X62415892Y-54949500D01*
X62284108Y-54949500D01*
X62206200Y-54970375D01*
X62156809Y-54983609D01*
X62042690Y-55049496D01*
X61949496Y-55142690D01*
X61883609Y-55256809D01*
X61883608Y-55256814D01*
X61849500Y-55384108D01*
X53685704Y-55384108D01*
X53726608Y-55360492D01*
X53726608Y-55360491D01*
X53726613Y-55360489D01*
X53810489Y-55276613D01*
X53838494Y-55228108D01*
X53869797Y-55173890D01*
X53869797Y-55173888D01*
X53869799Y-55173886D01*
X53900500Y-55059309D01*
X53900500Y-54940691D01*
X53869799Y-54826114D01*
X53869797Y-54826111D01*
X53869797Y-54826109D01*
X53810492Y-54723391D01*
X53810490Y-54723389D01*
X53810489Y-54723387D01*
X53726613Y-54639511D01*
X53726610Y-54639509D01*
X53726608Y-54639507D01*
X53623889Y-54580202D01*
X53623890Y-54580202D01*
X53610351Y-54576574D01*
X53509309Y-54549500D01*
X53390691Y-54549500D01*
X53320567Y-54568289D01*
X53276109Y-54580202D01*
X53173391Y-54639507D01*
X53145003Y-54667895D01*
X53090486Y-54695671D01*
X53030054Y-54686099D01*
X53004997Y-54667895D01*
X52997793Y-54660691D01*
X52976613Y-54639511D01*
X52976610Y-54639509D01*
X52976609Y-54639508D01*
X52976608Y-54639507D01*
X52873889Y-54580202D01*
X52873890Y-54580202D01*
X52860351Y-54576574D01*
X52759309Y-54549500D01*
X52640691Y-54549500D01*
X52570567Y-54568289D01*
X52526109Y-54580202D01*
X52423391Y-54639507D01*
X52339507Y-54723391D01*
X52280202Y-54826109D01*
X52279800Y-54827609D01*
X52249500Y-54940691D01*
X42792776Y-54940691D01*
X42819797Y-54893890D01*
X42819797Y-54893888D01*
X42819799Y-54893886D01*
X42850500Y-54779309D01*
X42850500Y-54660691D01*
X42819799Y-54546114D01*
X42819797Y-54546111D01*
X42819797Y-54546109D01*
X42760492Y-54443391D01*
X42760490Y-54443389D01*
X42760489Y-54443387D01*
X42676613Y-54359511D01*
X42676610Y-54359509D01*
X42676608Y-54359507D01*
X42632616Y-54334108D01*
X73099500Y-54334108D01*
X73099500Y-54465892D01*
X73129579Y-54578151D01*
X73133609Y-54593190D01*
X73199496Y-54707309D01*
X73199498Y-54707311D01*
X73199500Y-54707314D01*
X73292686Y-54800500D01*
X73292688Y-54800501D01*
X73292690Y-54800503D01*
X73406810Y-54866390D01*
X73406808Y-54866390D01*
X73406812Y-54866391D01*
X73406814Y-54866392D01*
X73534108Y-54900500D01*
X73534110Y-54900500D01*
X73665890Y-54900500D01*
X73665892Y-54900500D01*
X73793186Y-54866392D01*
X73793188Y-54866390D01*
X73793190Y-54866390D01*
X73907309Y-54800503D01*
X73907309Y-54800502D01*
X73907314Y-54800500D01*
X74000500Y-54707314D01*
X74039648Y-54639508D01*
X74066390Y-54593190D01*
X74066390Y-54593188D01*
X74066392Y-54593186D01*
X74100500Y-54465892D01*
X74100500Y-54334108D01*
X74066392Y-54206814D01*
X74066390Y-54206811D01*
X74066390Y-54206809D01*
X74000503Y-54092690D01*
X74000501Y-54092688D01*
X74000500Y-54092686D01*
X73907314Y-53999500D01*
X73907311Y-53999498D01*
X73907309Y-53999496D01*
X73793189Y-53933609D01*
X73793191Y-53933609D01*
X73743799Y-53920375D01*
X73665892Y-53899500D01*
X73534108Y-53899500D01*
X73456200Y-53920375D01*
X73406809Y-53933609D01*
X73292690Y-53999496D01*
X73199496Y-54092690D01*
X73133609Y-54206809D01*
X73133608Y-54206814D01*
X73099500Y-54334108D01*
X42632616Y-54334108D01*
X42573889Y-54300202D01*
X42573890Y-54300202D01*
X42560351Y-54296574D01*
X42459309Y-54269500D01*
X42340691Y-54269500D01*
X42270567Y-54288289D01*
X42226109Y-54300202D01*
X42123391Y-54359507D01*
X42039507Y-54443391D01*
X41980202Y-54546109D01*
X41971067Y-54580201D01*
X41949500Y-54660691D01*
X32000500Y-54660691D01*
X32000500Y-53190691D01*
X37149500Y-53190691D01*
X37149500Y-53309309D01*
X37171306Y-53390691D01*
X37180202Y-53423890D01*
X37239507Y-53526608D01*
X37239509Y-53526610D01*
X37239511Y-53526613D01*
X37323387Y-53610489D01*
X37323389Y-53610490D01*
X37323391Y-53610492D01*
X37426110Y-53669797D01*
X37426111Y-53669797D01*
X37426114Y-53669799D01*
X37540691Y-53700500D01*
X37540693Y-53700500D01*
X37659307Y-53700500D01*
X37659309Y-53700500D01*
X37773886Y-53669799D01*
X37773888Y-53669797D01*
X37773890Y-53669797D01*
X37876608Y-53610492D01*
X37876608Y-53610491D01*
X37876613Y-53610489D01*
X37960489Y-53526613D01*
X38019799Y-53423886D01*
X38028694Y-53390691D01*
X41949500Y-53390691D01*
X41949500Y-53509309D01*
X41975625Y-53606809D01*
X41980202Y-53623890D01*
X42039507Y-53726608D01*
X42039509Y-53726610D01*
X42039511Y-53726613D01*
X42123387Y-53810489D01*
X42123389Y-53810490D01*
X42123391Y-53810492D01*
X42226110Y-53869797D01*
X42226111Y-53869797D01*
X42226114Y-53869799D01*
X42340691Y-53900500D01*
X42340693Y-53900500D01*
X42459307Y-53900500D01*
X42459309Y-53900500D01*
X42573886Y-53869799D01*
X42573888Y-53869797D01*
X42573890Y-53869797D01*
X42676608Y-53810492D01*
X42676608Y-53810491D01*
X42676613Y-53810489D01*
X42760489Y-53726613D01*
X42760492Y-53726608D01*
X42819797Y-53623890D01*
X42819797Y-53623888D01*
X42819799Y-53623886D01*
X42850500Y-53509309D01*
X42850500Y-53434108D01*
X43299500Y-53434108D01*
X43299500Y-53565892D01*
X43323666Y-53656080D01*
X43333609Y-53693190D01*
X43399496Y-53807309D01*
X43399498Y-53807311D01*
X43399500Y-53807314D01*
X43492686Y-53900500D01*
X43492688Y-53900501D01*
X43492690Y-53900503D01*
X43606810Y-53966390D01*
X43606808Y-53966390D01*
X43606812Y-53966391D01*
X43606814Y-53966392D01*
X43734108Y-54000500D01*
X43734110Y-54000500D01*
X43865890Y-54000500D01*
X43865892Y-54000500D01*
X43993186Y-53966392D01*
X43993188Y-53966390D01*
X43993190Y-53966390D01*
X44107309Y-53900503D01*
X44107309Y-53900502D01*
X44107314Y-53900500D01*
X44200500Y-53807314D01*
X44242766Y-53734108D01*
X49249500Y-53734108D01*
X49249500Y-53865892D01*
X49258773Y-53900500D01*
X49283609Y-53993190D01*
X49349496Y-54107309D01*
X49349498Y-54107311D01*
X49349500Y-54107314D01*
X49442686Y-54200500D01*
X49442688Y-54200501D01*
X49442690Y-54200503D01*
X49556810Y-54266390D01*
X49556808Y-54266390D01*
X49556812Y-54266391D01*
X49556814Y-54266392D01*
X49684108Y-54300500D01*
X49684110Y-54300500D01*
X49815890Y-54300500D01*
X49815892Y-54300500D01*
X49943186Y-54266392D01*
X49943188Y-54266390D01*
X49943190Y-54266390D01*
X49985638Y-54241883D01*
X50057309Y-54200503D01*
X50057309Y-54200502D01*
X50057314Y-54200500D01*
X50150500Y-54107314D01*
X50158946Y-54092686D01*
X50216390Y-53993190D01*
X50216390Y-53993188D01*
X50216392Y-53993186D01*
X50250500Y-53865892D01*
X50250500Y-53734108D01*
X50216392Y-53606814D01*
X50216390Y-53606811D01*
X50216390Y-53606809D01*
X50150503Y-53492690D01*
X50150501Y-53492688D01*
X50150500Y-53492686D01*
X50057314Y-53399500D01*
X50057311Y-53399498D01*
X50057309Y-53399496D01*
X50042058Y-53390691D01*
X60149500Y-53390691D01*
X60149500Y-53509309D01*
X60175625Y-53606809D01*
X60180202Y-53623890D01*
X60239507Y-53726608D01*
X60239509Y-53726610D01*
X60239511Y-53726613D01*
X60323387Y-53810489D01*
X60323389Y-53810490D01*
X60323391Y-53810492D01*
X60426110Y-53869797D01*
X60426111Y-53869797D01*
X60426114Y-53869799D01*
X60540691Y-53900500D01*
X60540693Y-53900500D01*
X60659307Y-53900500D01*
X60659309Y-53900500D01*
X60773886Y-53869799D01*
X60773888Y-53869797D01*
X60773890Y-53869797D01*
X60876608Y-53810492D01*
X60876608Y-53810491D01*
X60876613Y-53810489D01*
X60960489Y-53726613D01*
X60960492Y-53726608D01*
X61019797Y-53623890D01*
X61019797Y-53623888D01*
X61019799Y-53623886D01*
X61050500Y-53509309D01*
X61050500Y-53390691D01*
X61019799Y-53276114D01*
X61019797Y-53276111D01*
X61019797Y-53276109D01*
X60960492Y-53173391D01*
X60960490Y-53173389D01*
X60960489Y-53173387D01*
X60876613Y-53089511D01*
X60876610Y-53089509D01*
X60876608Y-53089507D01*
X60779350Y-53033355D01*
X60779349Y-53033355D01*
X60773888Y-53030202D01*
X60773887Y-53030201D01*
X60773886Y-53030201D01*
X60659309Y-52999500D01*
X60540691Y-52999500D01*
X60470567Y-53018289D01*
X60426109Y-53030202D01*
X60323391Y-53089507D01*
X60239507Y-53173391D01*
X60180202Y-53276109D01*
X60171976Y-53306809D01*
X60149500Y-53390691D01*
X50042058Y-53390691D01*
X49943189Y-53333609D01*
X49943191Y-53333609D01*
X49893799Y-53320375D01*
X49815892Y-53299500D01*
X49684108Y-53299500D01*
X49606200Y-53320375D01*
X49556809Y-53333609D01*
X49442690Y-53399496D01*
X49349496Y-53492690D01*
X49283609Y-53606809D01*
X49270407Y-53656080D01*
X49249500Y-53734108D01*
X44242766Y-53734108D01*
X44266392Y-53693186D01*
X44300500Y-53565892D01*
X44300500Y-53434108D01*
X44266392Y-53306814D01*
X44266390Y-53306811D01*
X44266390Y-53306809D01*
X44200503Y-53192690D01*
X44200501Y-53192688D01*
X44200500Y-53192686D01*
X44107314Y-53099500D01*
X44107311Y-53099498D01*
X44107309Y-53099496D01*
X43993189Y-53033609D01*
X43993191Y-53033609D01*
X43943799Y-53020375D01*
X43865892Y-52999500D01*
X43734108Y-52999500D01*
X43656200Y-53020375D01*
X43606809Y-53033609D01*
X43492690Y-53099496D01*
X43399496Y-53192690D01*
X43333609Y-53306809D01*
X43326428Y-53333609D01*
X43299500Y-53434108D01*
X42850500Y-53434108D01*
X42850500Y-53390691D01*
X42819799Y-53276114D01*
X42819797Y-53276111D01*
X42819797Y-53276109D01*
X42760492Y-53173391D01*
X42760490Y-53173389D01*
X42760489Y-53173387D01*
X42676613Y-53089511D01*
X42676610Y-53089509D01*
X42676608Y-53089507D01*
X42573889Y-53030202D01*
X42573890Y-53030202D01*
X42560351Y-53026574D01*
X42459309Y-52999500D01*
X42340691Y-52999500D01*
X42270567Y-53018289D01*
X42226109Y-53030202D01*
X42123391Y-53089507D01*
X42039507Y-53173391D01*
X41980202Y-53276109D01*
X41971976Y-53306809D01*
X41949500Y-53390691D01*
X38028694Y-53390691D01*
X38050500Y-53309309D01*
X38050500Y-53190691D01*
X38019799Y-53076114D01*
X38019797Y-53076111D01*
X38019797Y-53076109D01*
X37960492Y-52973391D01*
X37960490Y-52973389D01*
X37960489Y-52973387D01*
X37941210Y-52954108D01*
X61199500Y-52954108D01*
X61199500Y-53085892D01*
X61222944Y-53173387D01*
X61233609Y-53213190D01*
X61299496Y-53327309D01*
X61299498Y-53327311D01*
X61299500Y-53327314D01*
X61392686Y-53420500D01*
X61392688Y-53420501D01*
X61392690Y-53420503D01*
X61506810Y-53486390D01*
X61506808Y-53486390D01*
X61506812Y-53486391D01*
X61506814Y-53486392D01*
X61634108Y-53520500D01*
X61634110Y-53520500D01*
X61765890Y-53520500D01*
X61765892Y-53520500D01*
X61869721Y-53492679D01*
X61930820Y-53495881D01*
X61978370Y-53534387D01*
X61981078Y-53538806D01*
X62049496Y-53657309D01*
X62049498Y-53657311D01*
X62049500Y-53657314D01*
X62142686Y-53750500D01*
X62142688Y-53750501D01*
X62142690Y-53750503D01*
X62256810Y-53816390D01*
X62256808Y-53816390D01*
X62256812Y-53816391D01*
X62256814Y-53816392D01*
X62384108Y-53850500D01*
X62384110Y-53850500D01*
X62515890Y-53850500D01*
X62515892Y-53850500D01*
X62643186Y-53816392D01*
X62643188Y-53816390D01*
X62643190Y-53816390D01*
X62757309Y-53750503D01*
X62757309Y-53750502D01*
X62757314Y-53750500D01*
X62850500Y-53657314D01*
X62850503Y-53657309D01*
X62916390Y-53543190D01*
X62916390Y-53543188D01*
X62916392Y-53543186D01*
X62950500Y-53415892D01*
X62950500Y-53284108D01*
X71699500Y-53284108D01*
X71699500Y-53415892D01*
X71708315Y-53448789D01*
X71733609Y-53543190D01*
X71799496Y-53657309D01*
X71799498Y-53657311D01*
X71799500Y-53657314D01*
X71892686Y-53750500D01*
X71892688Y-53750501D01*
X71892690Y-53750503D01*
X72006810Y-53816390D01*
X72006808Y-53816390D01*
X72006812Y-53816391D01*
X72006814Y-53816392D01*
X72134108Y-53850500D01*
X72134110Y-53850500D01*
X72265890Y-53850500D01*
X72265892Y-53850500D01*
X72393186Y-53816392D01*
X72393188Y-53816390D01*
X72393190Y-53816390D01*
X72507309Y-53750503D01*
X72507309Y-53750502D01*
X72507314Y-53750500D01*
X72600500Y-53657314D01*
X72600503Y-53657309D01*
X72666390Y-53543190D01*
X72666390Y-53543188D01*
X72666392Y-53543186D01*
X72700500Y-53415892D01*
X72700500Y-53284108D01*
X72666392Y-53156814D01*
X72666390Y-53156811D01*
X72666390Y-53156809D01*
X72600503Y-53042690D01*
X72600501Y-53042688D01*
X72600500Y-53042686D01*
X72507314Y-52949500D01*
X72507311Y-52949498D01*
X72507309Y-52949496D01*
X72393189Y-52883609D01*
X72393191Y-52883609D01*
X72343799Y-52870375D01*
X72265892Y-52849500D01*
X72134108Y-52849500D01*
X72056200Y-52870375D01*
X72006809Y-52883609D01*
X71892690Y-52949496D01*
X71799496Y-53042690D01*
X71733609Y-53156809D01*
X71723996Y-53192686D01*
X71699500Y-53284108D01*
X62950500Y-53284108D01*
X62916392Y-53156814D01*
X62916390Y-53156811D01*
X62916390Y-53156809D01*
X62850503Y-53042690D01*
X62850501Y-53042688D01*
X62850500Y-53042686D01*
X62757314Y-52949500D01*
X62757311Y-52949498D01*
X62757309Y-52949496D01*
X62643189Y-52883609D01*
X62643191Y-52883609D01*
X62593799Y-52870375D01*
X62515892Y-52849500D01*
X62384108Y-52849500D01*
X62353195Y-52857782D01*
X62280279Y-52877320D01*
X62219178Y-52874117D01*
X62171628Y-52835611D01*
X62168921Y-52831193D01*
X62100503Y-52712690D01*
X62100501Y-52712688D01*
X62100500Y-52712686D01*
X62007314Y-52619500D01*
X62007311Y-52619498D01*
X62007309Y-52619496D01*
X61893189Y-52553609D01*
X61893191Y-52553609D01*
X61843799Y-52540375D01*
X61765892Y-52519500D01*
X61634108Y-52519500D01*
X61556200Y-52540375D01*
X61506809Y-52553609D01*
X61392690Y-52619496D01*
X61299496Y-52712690D01*
X61233609Y-52826809D01*
X61231251Y-52835611D01*
X61199500Y-52954108D01*
X37941210Y-52954108D01*
X37876613Y-52889511D01*
X37876610Y-52889509D01*
X37876608Y-52889507D01*
X37773889Y-52830202D01*
X37773890Y-52830202D01*
X37760351Y-52826574D01*
X37659309Y-52799500D01*
X37540691Y-52799500D01*
X37470567Y-52818289D01*
X37426109Y-52830202D01*
X37323391Y-52889507D01*
X37239507Y-52973391D01*
X37180202Y-53076109D01*
X37163037Y-53140169D01*
X37149500Y-53190691D01*
X32000500Y-53190691D01*
X32000500Y-52140691D01*
X41299500Y-52140691D01*
X41299500Y-52259309D01*
X41301264Y-52265892D01*
X41330202Y-52373890D01*
X41389507Y-52476608D01*
X41389509Y-52476610D01*
X41389511Y-52476613D01*
X41473387Y-52560489D01*
X41473389Y-52560490D01*
X41473391Y-52560492D01*
X41576110Y-52619797D01*
X41576111Y-52619797D01*
X41576114Y-52619799D01*
X41690691Y-52650500D01*
X41690693Y-52650500D01*
X41809307Y-52650500D01*
X41809309Y-52650500D01*
X41923886Y-52619799D01*
X41923888Y-52619797D01*
X41923890Y-52619797D01*
X42026608Y-52560492D01*
X42026608Y-52560491D01*
X42026613Y-52560489D01*
X42110489Y-52476613D01*
X42131189Y-52440760D01*
X42169797Y-52373890D01*
X42169797Y-52373888D01*
X42169799Y-52373886D01*
X42200500Y-52259309D01*
X42200500Y-52140691D01*
X42198736Y-52134108D01*
X57549500Y-52134108D01*
X57549500Y-52265892D01*
X57558773Y-52300500D01*
X57583609Y-52393190D01*
X57649496Y-52507309D01*
X57649498Y-52507311D01*
X57649500Y-52507314D01*
X57742686Y-52600500D01*
X57742688Y-52600501D01*
X57742690Y-52600503D01*
X57856810Y-52666390D01*
X57856808Y-52666390D01*
X57856812Y-52666391D01*
X57856814Y-52666392D01*
X57984108Y-52700500D01*
X57984110Y-52700500D01*
X58115890Y-52700500D01*
X58115892Y-52700500D01*
X58243186Y-52666392D01*
X58243188Y-52666390D01*
X58243190Y-52666390D01*
X58357309Y-52600503D01*
X58357309Y-52600502D01*
X58357314Y-52600500D01*
X58450500Y-52507314D01*
X58488925Y-52440760D01*
X58516390Y-52393190D01*
X58516390Y-52393188D01*
X58516392Y-52393186D01*
X58550500Y-52265892D01*
X58550500Y-52134108D01*
X58516392Y-52006814D01*
X58516390Y-52006811D01*
X58516390Y-52006809D01*
X58450503Y-51892690D01*
X58450501Y-51892688D01*
X58450500Y-51892686D01*
X58357314Y-51799500D01*
X58357311Y-51799498D01*
X58357309Y-51799496D01*
X58243189Y-51733609D01*
X58243191Y-51733609D01*
X58178927Y-51716390D01*
X58115892Y-51699500D01*
X57984108Y-51699500D01*
X57921073Y-51716390D01*
X57856809Y-51733609D01*
X57742690Y-51799496D01*
X57649496Y-51892690D01*
X57583609Y-52006809D01*
X57568152Y-52064497D01*
X57549500Y-52134108D01*
X42198736Y-52134108D01*
X42169799Y-52026114D01*
X42169797Y-52026111D01*
X42169797Y-52026109D01*
X42110492Y-51923391D01*
X42110490Y-51923389D01*
X42110489Y-51923387D01*
X42026613Y-51839511D01*
X42026610Y-51839509D01*
X42026608Y-51839507D01*
X41923889Y-51780202D01*
X41923890Y-51780202D01*
X41910351Y-51776574D01*
X41809309Y-51749500D01*
X41690691Y-51749500D01*
X41620567Y-51768289D01*
X41576109Y-51780202D01*
X41473391Y-51839507D01*
X41389507Y-51923391D01*
X41330202Y-52026109D01*
X41330201Y-52026114D01*
X41299500Y-52140691D01*
X32000500Y-52140691D01*
X32000500Y-50690691D01*
X51454500Y-50690691D01*
X51454500Y-50809309D01*
X51476202Y-50890300D01*
X51485202Y-50923890D01*
X51544507Y-51026608D01*
X51544509Y-51026610D01*
X51544511Y-51026613D01*
X51628387Y-51110489D01*
X51628389Y-51110490D01*
X51628391Y-51110492D01*
X51731110Y-51169797D01*
X51731111Y-51169797D01*
X51731114Y-51169799D01*
X51845691Y-51200500D01*
X51845693Y-51200500D01*
X51964307Y-51200500D01*
X51964309Y-51200500D01*
X52078886Y-51169799D01*
X52078888Y-51169797D01*
X52078890Y-51169797D01*
X52181608Y-51110492D01*
X52181608Y-51110491D01*
X52181613Y-51110489D01*
X52265489Y-51026613D01*
X52274185Y-51011551D01*
X52324797Y-50923890D01*
X52324797Y-50923888D01*
X52324799Y-50923886D01*
X52355500Y-50809309D01*
X52355500Y-50690691D01*
X52724500Y-50690691D01*
X52724500Y-50809309D01*
X52746202Y-50890300D01*
X52755202Y-50923890D01*
X52814507Y-51026608D01*
X52814509Y-51026610D01*
X52814511Y-51026613D01*
X52898387Y-51110489D01*
X52898389Y-51110490D01*
X52898391Y-51110492D01*
X53001110Y-51169797D01*
X53001111Y-51169797D01*
X53001114Y-51169799D01*
X53115691Y-51200500D01*
X53115693Y-51200500D01*
X53234307Y-51200500D01*
X53234309Y-51200500D01*
X53348886Y-51169799D01*
X53348888Y-51169797D01*
X53348890Y-51169797D01*
X53451608Y-51110492D01*
X53451608Y-51110491D01*
X53451613Y-51110489D01*
X53535489Y-51026613D01*
X53544185Y-51011551D01*
X53594797Y-50923890D01*
X53594797Y-50923888D01*
X53594799Y-50923886D01*
X53625500Y-50809309D01*
X53625500Y-50690691D01*
X53994500Y-50690691D01*
X53994500Y-50809309D01*
X54016202Y-50890300D01*
X54025202Y-50923890D01*
X54084507Y-51026608D01*
X54084509Y-51026610D01*
X54084511Y-51026613D01*
X54168387Y-51110489D01*
X54168389Y-51110490D01*
X54168391Y-51110492D01*
X54271110Y-51169797D01*
X54271111Y-51169797D01*
X54271114Y-51169799D01*
X54385691Y-51200500D01*
X54385693Y-51200500D01*
X54504307Y-51200500D01*
X54504309Y-51200500D01*
X54618886Y-51169799D01*
X54618888Y-51169797D01*
X54618890Y-51169797D01*
X54721608Y-51110492D01*
X54721608Y-51110491D01*
X54721613Y-51110489D01*
X54805489Y-51026613D01*
X54814185Y-51011551D01*
X54864797Y-50923890D01*
X54864797Y-50923888D01*
X54864799Y-50923886D01*
X54895500Y-50809309D01*
X54895500Y-50690691D01*
X55264500Y-50690691D01*
X55264500Y-50809309D01*
X55286202Y-50890300D01*
X55295202Y-50923890D01*
X55354507Y-51026608D01*
X55354509Y-51026610D01*
X55354511Y-51026613D01*
X55438387Y-51110489D01*
X55438389Y-51110490D01*
X55438391Y-51110492D01*
X55541110Y-51169797D01*
X55541111Y-51169797D01*
X55541114Y-51169799D01*
X55655691Y-51200500D01*
X55655693Y-51200500D01*
X55774307Y-51200500D01*
X55774309Y-51200500D01*
X55888886Y-51169799D01*
X55888888Y-51169797D01*
X55888890Y-51169797D01*
X55991608Y-51110492D01*
X55991608Y-51110491D01*
X55991613Y-51110489D01*
X56075489Y-51026613D01*
X56084185Y-51011551D01*
X56134797Y-50923890D01*
X56134797Y-50923888D01*
X56134799Y-50923886D01*
X56165500Y-50809309D01*
X56165500Y-50690691D01*
X56534500Y-50690691D01*
X56534500Y-50809309D01*
X56556202Y-50890300D01*
X56565202Y-50923890D01*
X56624507Y-51026608D01*
X56624509Y-51026610D01*
X56624511Y-51026613D01*
X56708387Y-51110489D01*
X56708389Y-51110490D01*
X56708391Y-51110492D01*
X56811110Y-51169797D01*
X56811111Y-51169797D01*
X56811114Y-51169799D01*
X56925691Y-51200500D01*
X56925693Y-51200500D01*
X57044307Y-51200500D01*
X57044309Y-51200500D01*
X57158886Y-51169799D01*
X57158888Y-51169797D01*
X57158890Y-51169797D01*
X57261608Y-51110492D01*
X57261608Y-51110491D01*
X57261613Y-51110489D01*
X57345489Y-51026613D01*
X57354185Y-51011551D01*
X57404797Y-50923890D01*
X57404797Y-50923888D01*
X57404799Y-50923886D01*
X57435500Y-50809309D01*
X57435500Y-50690691D01*
X57433736Y-50684108D01*
X58349500Y-50684108D01*
X58349500Y-50815892D01*
X58374915Y-50910742D01*
X58383609Y-50943190D01*
X58449496Y-51057309D01*
X58449498Y-51057311D01*
X58449500Y-51057314D01*
X58542686Y-51150500D01*
X58542688Y-51150501D01*
X58542690Y-51150503D01*
X58656810Y-51216390D01*
X58656808Y-51216390D01*
X58656812Y-51216391D01*
X58656814Y-51216392D01*
X58784108Y-51250500D01*
X58784110Y-51250500D01*
X58915890Y-51250500D01*
X58915892Y-51250500D01*
X58998191Y-51228448D01*
X59059289Y-51231650D01*
X59106839Y-51270155D01*
X59122675Y-51329256D01*
X59119438Y-51349697D01*
X59099500Y-51424108D01*
X59099500Y-51555892D01*
X59109359Y-51592686D01*
X59133609Y-51683190D01*
X59199496Y-51797309D01*
X59199498Y-51797311D01*
X59199500Y-51797314D01*
X59292686Y-51890500D01*
X59292688Y-51890501D01*
X59292690Y-51890503D01*
X59406810Y-51956390D01*
X59406808Y-51956390D01*
X59406812Y-51956391D01*
X59406814Y-51956392D01*
X59534108Y-51990500D01*
X59534110Y-51990500D01*
X59665890Y-51990500D01*
X59665892Y-51990500D01*
X59793186Y-51956392D01*
X59793188Y-51956390D01*
X59793190Y-51956390D01*
X59907309Y-51890503D01*
X59907309Y-51890502D01*
X59907314Y-51890500D01*
X59963706Y-51834108D01*
X71849500Y-51834108D01*
X71849500Y-51965892D01*
X71879579Y-52078151D01*
X71883609Y-52093190D01*
X71949496Y-52207309D01*
X71949498Y-52207311D01*
X71949500Y-52207314D01*
X72042686Y-52300500D01*
X72042688Y-52300501D01*
X72042690Y-52300503D01*
X72156810Y-52366390D01*
X72156808Y-52366390D01*
X72156812Y-52366391D01*
X72156814Y-52366392D01*
X72284108Y-52400500D01*
X72284110Y-52400500D01*
X72415890Y-52400500D01*
X72415892Y-52400500D01*
X72543186Y-52366392D01*
X72543188Y-52366390D01*
X72543190Y-52366390D01*
X72657309Y-52300503D01*
X72657309Y-52300502D01*
X72657314Y-52300500D01*
X72750500Y-52207314D01*
X72750503Y-52207309D01*
X72816390Y-52093190D01*
X72816390Y-52093188D01*
X72816392Y-52093186D01*
X72850500Y-51965892D01*
X72850500Y-51834108D01*
X72816392Y-51706814D01*
X72816390Y-51706811D01*
X72816390Y-51706809D01*
X72750503Y-51592690D01*
X72750501Y-51592688D01*
X72750500Y-51592686D01*
X72657314Y-51499500D01*
X72657311Y-51499498D01*
X72657309Y-51499496D01*
X72543189Y-51433609D01*
X72543191Y-51433609D01*
X72493799Y-51420375D01*
X72415892Y-51399500D01*
X72284108Y-51399500D01*
X72206200Y-51420375D01*
X72156809Y-51433609D01*
X72042690Y-51499496D01*
X71949496Y-51592690D01*
X71883609Y-51706809D01*
X71876428Y-51733609D01*
X71849500Y-51834108D01*
X59963706Y-51834108D01*
X60000500Y-51797314D01*
X60027528Y-51750500D01*
X60066390Y-51683190D01*
X60066390Y-51683188D01*
X60066392Y-51683186D01*
X60100500Y-51555892D01*
X60100500Y-51424108D01*
X60066392Y-51296814D01*
X60066390Y-51296811D01*
X60066390Y-51296809D01*
X60026155Y-51227122D01*
X60026153Y-51227119D01*
X60001321Y-51184108D01*
X62749500Y-51184108D01*
X62749500Y-51315892D01*
X62778496Y-51424108D01*
X62783609Y-51443190D01*
X62849496Y-51557309D01*
X62849498Y-51557311D01*
X62849500Y-51557314D01*
X62942686Y-51650500D01*
X62942688Y-51650501D01*
X62942690Y-51650503D01*
X63056810Y-51716390D01*
X63056808Y-51716390D01*
X63056812Y-51716391D01*
X63056814Y-51716392D01*
X63184108Y-51750500D01*
X63184110Y-51750500D01*
X63315890Y-51750500D01*
X63315892Y-51750500D01*
X63443186Y-51716392D01*
X63443188Y-51716390D01*
X63443190Y-51716390D01*
X63557309Y-51650503D01*
X63557309Y-51650502D01*
X63557314Y-51650500D01*
X63650500Y-51557314D01*
X63683879Y-51499500D01*
X63716390Y-51443190D01*
X63716390Y-51443188D01*
X63716392Y-51443186D01*
X63750500Y-51315892D01*
X63750500Y-51184108D01*
X63716392Y-51056814D01*
X63716390Y-51056811D01*
X63716390Y-51056809D01*
X63650503Y-50942690D01*
X63650501Y-50942688D01*
X63650500Y-50942686D01*
X63557314Y-50849500D01*
X63557311Y-50849498D01*
X63557309Y-50849496D01*
X63443189Y-50783609D01*
X63443191Y-50783609D01*
X63393799Y-50770375D01*
X63315892Y-50749500D01*
X63184108Y-50749500D01*
X63106200Y-50770375D01*
X63056809Y-50783609D01*
X62942690Y-50849496D01*
X62849496Y-50942690D01*
X62783609Y-51056809D01*
X62783608Y-51056814D01*
X62749500Y-51184108D01*
X60001321Y-51184108D01*
X60000500Y-51182686D01*
X59907314Y-51089500D01*
X59907311Y-51089498D01*
X59907309Y-51089496D01*
X59793189Y-51023609D01*
X59793191Y-51023609D01*
X59736234Y-51008348D01*
X59665892Y-50989500D01*
X59534108Y-50989500D01*
X59504341Y-50997475D01*
X59451810Y-51011551D01*
X59390709Y-51008348D01*
X59343159Y-50969842D01*
X59327324Y-50910742D01*
X59330561Y-50890305D01*
X59350500Y-50815892D01*
X59350500Y-50684108D01*
X59316392Y-50556814D01*
X59316390Y-50556811D01*
X59316390Y-50556809D01*
X59250503Y-50442690D01*
X59250501Y-50442688D01*
X59250500Y-50442686D01*
X59157314Y-50349500D01*
X59157311Y-50349498D01*
X59157309Y-50349496D01*
X59043189Y-50283609D01*
X59043191Y-50283609D01*
X58993799Y-50270375D01*
X58915892Y-50249500D01*
X58784108Y-50249500D01*
X58706200Y-50270375D01*
X58656809Y-50283609D01*
X58542690Y-50349496D01*
X58449496Y-50442690D01*
X58383609Y-50556809D01*
X58364539Y-50627978D01*
X58349500Y-50684108D01*
X57433736Y-50684108D01*
X57404799Y-50576114D01*
X57404797Y-50576111D01*
X57404797Y-50576109D01*
X57345492Y-50473391D01*
X57345490Y-50473389D01*
X57345489Y-50473387D01*
X57261613Y-50389511D01*
X57261610Y-50389509D01*
X57261608Y-50389507D01*
X57158889Y-50330202D01*
X57158890Y-50330202D01*
X57145351Y-50326574D01*
X57044309Y-50299500D01*
X56925691Y-50299500D01*
X56855567Y-50318289D01*
X56811109Y-50330202D01*
X56708391Y-50389507D01*
X56624507Y-50473391D01*
X56565202Y-50576109D01*
X56565201Y-50576114D01*
X56534500Y-50690691D01*
X56165500Y-50690691D01*
X56134799Y-50576114D01*
X56134797Y-50576111D01*
X56134797Y-50576109D01*
X56075492Y-50473391D01*
X56075490Y-50473389D01*
X56075489Y-50473387D01*
X55991613Y-50389511D01*
X55991610Y-50389509D01*
X55991608Y-50389507D01*
X55888889Y-50330202D01*
X55888890Y-50330202D01*
X55875351Y-50326574D01*
X55774309Y-50299500D01*
X55655691Y-50299500D01*
X55585567Y-50318289D01*
X55541109Y-50330202D01*
X55438391Y-50389507D01*
X55354507Y-50473391D01*
X55295202Y-50576109D01*
X55295201Y-50576114D01*
X55264500Y-50690691D01*
X54895500Y-50690691D01*
X54864799Y-50576114D01*
X54864797Y-50576111D01*
X54864797Y-50576109D01*
X54805492Y-50473391D01*
X54805490Y-50473389D01*
X54805489Y-50473387D01*
X54721613Y-50389511D01*
X54721610Y-50389509D01*
X54721608Y-50389507D01*
X54618889Y-50330202D01*
X54618890Y-50330202D01*
X54605351Y-50326574D01*
X54504309Y-50299500D01*
X54385691Y-50299500D01*
X54315567Y-50318289D01*
X54271109Y-50330202D01*
X54168391Y-50389507D01*
X54084507Y-50473391D01*
X54025202Y-50576109D01*
X54025201Y-50576114D01*
X53994500Y-50690691D01*
X53625500Y-50690691D01*
X53594799Y-50576114D01*
X53594797Y-50576111D01*
X53594797Y-50576109D01*
X53535492Y-50473391D01*
X53535490Y-50473389D01*
X53535489Y-50473387D01*
X53451613Y-50389511D01*
X53451610Y-50389509D01*
X53451608Y-50389507D01*
X53348889Y-50330202D01*
X53348890Y-50330202D01*
X53335351Y-50326574D01*
X53234309Y-50299500D01*
X53115691Y-50299500D01*
X53045567Y-50318289D01*
X53001109Y-50330202D01*
X52898391Y-50389507D01*
X52814507Y-50473391D01*
X52755202Y-50576109D01*
X52755201Y-50576114D01*
X52724500Y-50690691D01*
X52355500Y-50690691D01*
X52324799Y-50576114D01*
X52324797Y-50576111D01*
X52324797Y-50576109D01*
X52265492Y-50473391D01*
X52265490Y-50473389D01*
X52265489Y-50473387D01*
X52181613Y-50389511D01*
X52181610Y-50389509D01*
X52181608Y-50389507D01*
X52078889Y-50330202D01*
X52078890Y-50330202D01*
X52065351Y-50326574D01*
X51964309Y-50299500D01*
X51845691Y-50299500D01*
X51775567Y-50318289D01*
X51731109Y-50330202D01*
X51628391Y-50389507D01*
X51544507Y-50473391D01*
X51485202Y-50576109D01*
X51485201Y-50576114D01*
X51454500Y-50690691D01*
X32000500Y-50690691D01*
X32000500Y-48040691D01*
X39649500Y-48040691D01*
X39649500Y-48159309D01*
X39671841Y-48242686D01*
X39680202Y-48273890D01*
X39739507Y-48376608D01*
X39739509Y-48376610D01*
X39739511Y-48376613D01*
X39823387Y-48460489D01*
X39823389Y-48460490D01*
X39823391Y-48460492D01*
X39926110Y-48519797D01*
X39926111Y-48519797D01*
X39926114Y-48519799D01*
X40040691Y-48550500D01*
X40040693Y-48550500D01*
X40159307Y-48550500D01*
X40159309Y-48550500D01*
X40273886Y-48519799D01*
X40273888Y-48519797D01*
X40273890Y-48519797D01*
X40376608Y-48460492D01*
X40376608Y-48460491D01*
X40376613Y-48460489D01*
X40460489Y-48376613D01*
X40519799Y-48273886D01*
X40550500Y-48159309D01*
X40550500Y-48040691D01*
X40519799Y-47926114D01*
X40519797Y-47926111D01*
X40519797Y-47926109D01*
X40460492Y-47823391D01*
X40460490Y-47823389D01*
X40460489Y-47823387D01*
X40376613Y-47739511D01*
X40376610Y-47739509D01*
X40376608Y-47739507D01*
X40273889Y-47680202D01*
X40273890Y-47680202D01*
X40260351Y-47676574D01*
X40159309Y-47649500D01*
X40040691Y-47649500D01*
X39970567Y-47668289D01*
X39926109Y-47680202D01*
X39823391Y-47739507D01*
X39739507Y-47823391D01*
X39680202Y-47926109D01*
X39665737Y-47980093D01*
X39649500Y-48040691D01*
X32000500Y-48040691D01*
X32000500Y-47340691D01*
X53999500Y-47340691D01*
X53999500Y-47459309D01*
X54026276Y-47559239D01*
X54030202Y-47573890D01*
X54089507Y-47676608D01*
X54089509Y-47676610D01*
X54089511Y-47676613D01*
X54173387Y-47760489D01*
X54173389Y-47760490D01*
X54173391Y-47760492D01*
X54276110Y-47819797D01*
X54276111Y-47819797D01*
X54276114Y-47819799D01*
X54390691Y-47850500D01*
X54390693Y-47850500D01*
X54454493Y-47850500D01*
X54512684Y-47869407D01*
X54548648Y-47918907D01*
X54548648Y-47980093D01*
X54512684Y-48029593D01*
X54503993Y-48035236D01*
X54392690Y-48099496D01*
X54299496Y-48192690D01*
X54233609Y-48306809D01*
X54233608Y-48306814D01*
X54199500Y-48434108D01*
X54199500Y-48565892D01*
X54229579Y-48678151D01*
X54233609Y-48693190D01*
X54299496Y-48807309D01*
X54299498Y-48807311D01*
X54299500Y-48807314D01*
X54392686Y-48900500D01*
X54392688Y-48900501D01*
X54392690Y-48900503D01*
X54506810Y-48966390D01*
X54506808Y-48966390D01*
X54506812Y-48966391D01*
X54506814Y-48966392D01*
X54634108Y-49000500D01*
X54634110Y-49000500D01*
X54765890Y-49000500D01*
X54765892Y-49000500D01*
X54893186Y-48966392D01*
X54893188Y-48966390D01*
X54893190Y-48966390D01*
X55007309Y-48900503D01*
X55007309Y-48900502D01*
X55007314Y-48900500D01*
X55100500Y-48807314D01*
X55137522Y-48743190D01*
X55166390Y-48693190D01*
X55166390Y-48693188D01*
X55166392Y-48693186D01*
X55200500Y-48565892D01*
X55200500Y-48484108D01*
X58599500Y-48484108D01*
X58599500Y-48615892D01*
X58620211Y-48693186D01*
X58633609Y-48743190D01*
X58699496Y-48857309D01*
X58699498Y-48857311D01*
X58699500Y-48857314D01*
X58792686Y-48950500D01*
X58792688Y-48950501D01*
X58792690Y-48950503D01*
X58906810Y-49016390D01*
X58906808Y-49016390D01*
X58906812Y-49016391D01*
X58906814Y-49016392D01*
X59034108Y-49050500D01*
X59034110Y-49050500D01*
X59165890Y-49050500D01*
X59165892Y-49050500D01*
X59293186Y-49016392D01*
X59293188Y-49016390D01*
X59293190Y-49016390D01*
X59407309Y-48950503D01*
X59407309Y-48950502D01*
X59407314Y-48950500D01*
X59500500Y-48857314D01*
X59529368Y-48807314D01*
X59566390Y-48743190D01*
X59566390Y-48743188D01*
X59566392Y-48743186D01*
X59600500Y-48615892D01*
X59600500Y-48484108D01*
X59566392Y-48356814D01*
X59566390Y-48356811D01*
X59566390Y-48356809D01*
X59500503Y-48242690D01*
X59500501Y-48242688D01*
X59500500Y-48242686D01*
X59407314Y-48149500D01*
X59407311Y-48149498D01*
X59407309Y-48149496D01*
X59293189Y-48083609D01*
X59293191Y-48083609D01*
X59243799Y-48070375D01*
X59165892Y-48049500D01*
X59034108Y-48049500D01*
X58956200Y-48070375D01*
X58906809Y-48083609D01*
X58792690Y-48149496D01*
X58699496Y-48242690D01*
X58633609Y-48356809D01*
X58633608Y-48356814D01*
X58599500Y-48484108D01*
X55200500Y-48484108D01*
X55200500Y-48434108D01*
X55166392Y-48306814D01*
X55166390Y-48306811D01*
X55166390Y-48306809D01*
X55100503Y-48192690D01*
X55100501Y-48192688D01*
X55100500Y-48192686D01*
X55007314Y-48099500D01*
X55007311Y-48099498D01*
X55007309Y-48099496D01*
X54893189Y-48033609D01*
X54893191Y-48033609D01*
X54843799Y-48020375D01*
X54765892Y-47999500D01*
X54682108Y-47999500D01*
X54623917Y-47980593D01*
X54587953Y-47931093D01*
X54587953Y-47869907D01*
X54623917Y-47820407D01*
X54632608Y-47814764D01*
X54726608Y-47760492D01*
X54726608Y-47760491D01*
X54726613Y-47760489D01*
X54810489Y-47676613D01*
X54869799Y-47573886D01*
X54900500Y-47459309D01*
X54900500Y-47340691D01*
X54869799Y-47226114D01*
X54869797Y-47226111D01*
X54869797Y-47226109D01*
X54810492Y-47123391D01*
X54810490Y-47123389D01*
X54810489Y-47123387D01*
X54726613Y-47039511D01*
X54726610Y-47039509D01*
X54726608Y-47039507D01*
X54623889Y-46980202D01*
X54623890Y-46980202D01*
X54610351Y-46976574D01*
X54509309Y-46949500D01*
X54390691Y-46949500D01*
X54320567Y-46968289D01*
X54276109Y-46980202D01*
X54173391Y-47039507D01*
X54089507Y-47123391D01*
X54030202Y-47226109D01*
X54030201Y-47226114D01*
X53999500Y-47340691D01*
X32000500Y-47340691D01*
X32000500Y-45340691D01*
X55049500Y-45340691D01*
X55049500Y-45459309D01*
X55073935Y-45550500D01*
X55080202Y-45573890D01*
X55139507Y-45676608D01*
X55139509Y-45676610D01*
X55139511Y-45676613D01*
X55223387Y-45760489D01*
X55223389Y-45760490D01*
X55223391Y-45760492D01*
X55326110Y-45819797D01*
X55326111Y-45819797D01*
X55326114Y-45819799D01*
X55440691Y-45850500D01*
X55440693Y-45850500D01*
X55559307Y-45850500D01*
X55559309Y-45850500D01*
X55673886Y-45819799D01*
X55673888Y-45819797D01*
X55673890Y-45819797D01*
X55776608Y-45760492D01*
X55776608Y-45760491D01*
X55776613Y-45760489D01*
X55860489Y-45676613D01*
X55860492Y-45676608D01*
X55919797Y-45573890D01*
X55919797Y-45573888D01*
X55919799Y-45573886D01*
X55950500Y-45459309D01*
X55950500Y-45340691D01*
X55919799Y-45226114D01*
X55860489Y-45123387D01*
X55821210Y-45084108D01*
X58299500Y-45084108D01*
X58299500Y-45215892D01*
X58302239Y-45226114D01*
X58333609Y-45343190D01*
X58399496Y-45457309D01*
X58399498Y-45457311D01*
X58399500Y-45457314D01*
X58492686Y-45550500D01*
X58492688Y-45550501D01*
X58492690Y-45550503D01*
X58606810Y-45616390D01*
X58606808Y-45616390D01*
X58606812Y-45616391D01*
X58606814Y-45616392D01*
X58734108Y-45650500D01*
X58734110Y-45650500D01*
X58865890Y-45650500D01*
X58865892Y-45650500D01*
X58993186Y-45616392D01*
X58993188Y-45616390D01*
X58993190Y-45616390D01*
X59107309Y-45550503D01*
X59107309Y-45550502D01*
X59107314Y-45550500D01*
X59200500Y-45457314D01*
X59266392Y-45343186D01*
X59300500Y-45215892D01*
X59300500Y-45084108D01*
X59266392Y-44956814D01*
X59266390Y-44956811D01*
X59266390Y-44956809D01*
X59200503Y-44842690D01*
X59200501Y-44842688D01*
X59200500Y-44842686D01*
X59107314Y-44749500D01*
X59107311Y-44749498D01*
X59107309Y-44749496D01*
X58993189Y-44683609D01*
X58993191Y-44683609D01*
X58926975Y-44665867D01*
X58865892Y-44649500D01*
X58734108Y-44649500D01*
X58673025Y-44665867D01*
X58606809Y-44683609D01*
X58492690Y-44749496D01*
X58399496Y-44842690D01*
X58333609Y-44956809D01*
X58327341Y-44980202D01*
X58299500Y-45084108D01*
X55821210Y-45084108D01*
X55776613Y-45039511D01*
X55776610Y-45039509D01*
X55776608Y-45039507D01*
X55673889Y-44980202D01*
X55673890Y-44980202D01*
X55660351Y-44976574D01*
X55559309Y-44949500D01*
X55440691Y-44949500D01*
X55370567Y-44968289D01*
X55326109Y-44980202D01*
X55223391Y-45039507D01*
X55139507Y-45123391D01*
X55080202Y-45226109D01*
X55080201Y-45226114D01*
X55049500Y-45340691D01*
X32000500Y-45340691D01*
X32000500Y-44710438D01*
X32000500Y-44665864D01*
X31965514Y-44501269D01*
X31919725Y-44398425D01*
X31897075Y-44347552D01*
X31897073Y-44347549D01*
X31897072Y-44347546D01*
X31798164Y-44211411D01*
X31798160Y-44211407D01*
X31798159Y-44211406D01*
X31673116Y-44098817D01*
X31673114Y-44098815D01*
X31633786Y-44076109D01*
X31527393Y-44014682D01*
X31527388Y-44014680D01*
X31527386Y-44014679D01*
X31367350Y-43962680D01*
X31200000Y-43945091D01*
X31032649Y-43962680D01*
X30958396Y-43986806D01*
X30872614Y-44014679D01*
X30872612Y-44014679D01*
X30872609Y-44014681D01*
X30872604Y-44014683D01*
X30726889Y-44098813D01*
X30726883Y-44098817D01*
X30601840Y-44211406D01*
X30601839Y-44211406D01*
X30502926Y-44347549D01*
X30502924Y-44347552D01*
X30434487Y-44501266D01*
X30434485Y-44501272D01*
X30421809Y-44560909D01*
X30399500Y-44665864D01*
X25169809Y-44665864D01*
X25337742Y-43928691D01*
X40649500Y-43928691D01*
X40649500Y-44047309D01*
X40663301Y-44098813D01*
X40680202Y-44161890D01*
X40739507Y-44264608D01*
X40739509Y-44264610D01*
X40739511Y-44264613D01*
X40823387Y-44348489D01*
X40823389Y-44348490D01*
X40823391Y-44348492D01*
X40926110Y-44407797D01*
X40926111Y-44407797D01*
X40926114Y-44407799D01*
X41040691Y-44438500D01*
X41040693Y-44438500D01*
X41159307Y-44438500D01*
X41159309Y-44438500D01*
X41273886Y-44407799D01*
X41273888Y-44407797D01*
X41273890Y-44407797D01*
X41376608Y-44348492D01*
X41376608Y-44348491D01*
X41376613Y-44348489D01*
X41460489Y-44264613D01*
X41503168Y-44190691D01*
X51749500Y-44190691D01*
X51749500Y-44309309D01*
X51759999Y-44348492D01*
X51780202Y-44423890D01*
X51839507Y-44526608D01*
X51839509Y-44526610D01*
X51839511Y-44526613D01*
X51923387Y-44610489D01*
X51923389Y-44610490D01*
X51923391Y-44610492D01*
X52026110Y-44669797D01*
X52026111Y-44669797D01*
X52026114Y-44669799D01*
X52140691Y-44700500D01*
X52140693Y-44700500D01*
X52259307Y-44700500D01*
X52259309Y-44700500D01*
X52373886Y-44669799D01*
X52373888Y-44669797D01*
X52373890Y-44669797D01*
X52476608Y-44610492D01*
X52476608Y-44610491D01*
X52476613Y-44610489D01*
X52560489Y-44526613D01*
X52575120Y-44501272D01*
X52619797Y-44423890D01*
X52619797Y-44423888D01*
X52619799Y-44423886D01*
X52650500Y-44309309D01*
X52650500Y-44190691D01*
X52619799Y-44076114D01*
X52619797Y-44076111D01*
X52619797Y-44076109D01*
X52560492Y-43973391D01*
X52560490Y-43973389D01*
X52560489Y-43973387D01*
X52476613Y-43889511D01*
X52476610Y-43889509D01*
X52476608Y-43889507D01*
X52373889Y-43830202D01*
X52373890Y-43830202D01*
X52360351Y-43826574D01*
X52259309Y-43799500D01*
X52140691Y-43799500D01*
X52070567Y-43818289D01*
X52026109Y-43830202D01*
X51923391Y-43889507D01*
X51839507Y-43973391D01*
X51780202Y-44076109D01*
X51763037Y-44140169D01*
X51749500Y-44190691D01*
X41503168Y-44190691D01*
X41519799Y-44161886D01*
X41550500Y-44047309D01*
X41550500Y-43928691D01*
X41519799Y-43814114D01*
X41519797Y-43814111D01*
X41519797Y-43814109D01*
X41460492Y-43711391D01*
X41460490Y-43711389D01*
X41460489Y-43711387D01*
X41376613Y-43627511D01*
X41376610Y-43627509D01*
X41376608Y-43627507D01*
X41273889Y-43568202D01*
X41273890Y-43568202D01*
X41260351Y-43564574D01*
X41159309Y-43537500D01*
X41040691Y-43537500D01*
X40970567Y-43556289D01*
X40926109Y-43568202D01*
X40823391Y-43627507D01*
X40739507Y-43711391D01*
X40680202Y-43814109D01*
X40663037Y-43878169D01*
X40649500Y-43928691D01*
X25337742Y-43928691D01*
X25354044Y-43857130D01*
X25355013Y-43853245D01*
X25610939Y-42909108D01*
X69199500Y-42909108D01*
X69199500Y-43040892D01*
X69229579Y-43153151D01*
X69233609Y-43168190D01*
X69299496Y-43282309D01*
X69299498Y-43282311D01*
X69299500Y-43282314D01*
X69392686Y-43375500D01*
X69392688Y-43375501D01*
X69392690Y-43375503D01*
X69506810Y-43441390D01*
X69506808Y-43441390D01*
X69506812Y-43441391D01*
X69506814Y-43441392D01*
X69634108Y-43475500D01*
X69634110Y-43475500D01*
X69765890Y-43475500D01*
X69765892Y-43475500D01*
X69893186Y-43441392D01*
X69893188Y-43441390D01*
X69893190Y-43441390D01*
X70007309Y-43375503D01*
X70007309Y-43375502D01*
X70007314Y-43375500D01*
X70100500Y-43282314D01*
X70166392Y-43168186D01*
X70200500Y-43040892D01*
X70200500Y-42909108D01*
X70166392Y-42781814D01*
X70166390Y-42781811D01*
X70166390Y-42781809D01*
X70100503Y-42667690D01*
X70100501Y-42667688D01*
X70100500Y-42667686D01*
X70007314Y-42574500D01*
X70007311Y-42574498D01*
X70007309Y-42574496D01*
X69893189Y-42508609D01*
X69893191Y-42508609D01*
X69843799Y-42495375D01*
X69765892Y-42474500D01*
X69634108Y-42474500D01*
X69556200Y-42495375D01*
X69506809Y-42508609D01*
X69392690Y-42574496D01*
X69299496Y-42667690D01*
X69233609Y-42781809D01*
X69233608Y-42781814D01*
X69199500Y-42909108D01*
X25610939Y-42909108D01*
X25624579Y-42858790D01*
X25625692Y-42854995D01*
X25882441Y-42040691D01*
X28649500Y-42040691D01*
X28649500Y-42159309D01*
X28675759Y-42257309D01*
X28680202Y-42273890D01*
X28739507Y-42376608D01*
X28739509Y-42376610D01*
X28739511Y-42376613D01*
X28823387Y-42460489D01*
X28823389Y-42460490D01*
X28823391Y-42460492D01*
X28926110Y-42519797D01*
X28926111Y-42519797D01*
X28926114Y-42519799D01*
X29040691Y-42550500D01*
X29040693Y-42550500D01*
X29159307Y-42550500D01*
X29159309Y-42550500D01*
X29273886Y-42519799D01*
X29273888Y-42519797D01*
X29273890Y-42519797D01*
X29376608Y-42460492D01*
X29376608Y-42460491D01*
X29376613Y-42460489D01*
X29460489Y-42376613D01*
X29475564Y-42350503D01*
X29519797Y-42273890D01*
X29519797Y-42273888D01*
X29519799Y-42273886D01*
X29543855Y-42184108D01*
X40199500Y-42184108D01*
X40199500Y-42315892D01*
X40208773Y-42350500D01*
X40233609Y-42443190D01*
X40299496Y-42557309D01*
X40299498Y-42557311D01*
X40299500Y-42557314D01*
X40392686Y-42650500D01*
X40392688Y-42650501D01*
X40392690Y-42650503D01*
X40506810Y-42716390D01*
X40506808Y-42716390D01*
X40506812Y-42716391D01*
X40506814Y-42716392D01*
X40634108Y-42750500D01*
X40634110Y-42750500D01*
X40765890Y-42750500D01*
X40765892Y-42750500D01*
X40893186Y-42716392D01*
X40893188Y-42716390D01*
X40893190Y-42716390D01*
X41007309Y-42650503D01*
X41007309Y-42650502D01*
X41007314Y-42650500D01*
X41100500Y-42557314D01*
X41104434Y-42550500D01*
X41166390Y-42443190D01*
X41166390Y-42443188D01*
X41166392Y-42443186D01*
X41200500Y-42315892D01*
X41200500Y-42184108D01*
X41173705Y-42084108D01*
X43899500Y-42084108D01*
X43899500Y-42215892D01*
X43926294Y-42315890D01*
X43933609Y-42343190D01*
X43999496Y-42457309D01*
X43999498Y-42457311D01*
X43999500Y-42457314D01*
X44092686Y-42550500D01*
X44092688Y-42550501D01*
X44092690Y-42550503D01*
X44206810Y-42616390D01*
X44206808Y-42616390D01*
X44206812Y-42616391D01*
X44206814Y-42616392D01*
X44334108Y-42650500D01*
X44334110Y-42650500D01*
X44465890Y-42650500D01*
X44465892Y-42650500D01*
X44593186Y-42616392D01*
X44593188Y-42616390D01*
X44593190Y-42616390D01*
X44707309Y-42550503D01*
X44707309Y-42550502D01*
X44707314Y-42550500D01*
X44800500Y-42457314D01*
X44808657Y-42443186D01*
X44866390Y-42343190D01*
X44866390Y-42343188D01*
X44866392Y-42343186D01*
X44900500Y-42215892D01*
X44900500Y-42084108D01*
X44866392Y-41956814D01*
X44866389Y-41956809D01*
X44859056Y-41944108D01*
X49999500Y-41944108D01*
X49999500Y-42075892D01*
X50017531Y-42143186D01*
X50033609Y-42203190D01*
X50099496Y-42317309D01*
X50099498Y-42317311D01*
X50099500Y-42317314D01*
X50192686Y-42410500D01*
X50192688Y-42410501D01*
X50192690Y-42410503D01*
X50306810Y-42476390D01*
X50306808Y-42476390D01*
X50306812Y-42476391D01*
X50306814Y-42476392D01*
X50434108Y-42510500D01*
X50434110Y-42510500D01*
X50565890Y-42510500D01*
X50565892Y-42510500D01*
X50693186Y-42476392D01*
X50693188Y-42476390D01*
X50693190Y-42476390D01*
X50807309Y-42410503D01*
X50807309Y-42410502D01*
X50807314Y-42410500D01*
X50900500Y-42317314D01*
X50959056Y-42215892D01*
X50966390Y-42203190D01*
X50966390Y-42203188D01*
X50966392Y-42203186D01*
X51000500Y-42075892D01*
X51000500Y-41944108D01*
X50966392Y-41816814D01*
X50966390Y-41816811D01*
X50966390Y-41816809D01*
X50900503Y-41702690D01*
X50900501Y-41702688D01*
X50900500Y-41702686D01*
X50807314Y-41609500D01*
X50807311Y-41609498D01*
X50807309Y-41609496D01*
X50727390Y-41563355D01*
X50693189Y-41543609D01*
X50693191Y-41543609D01*
X50643799Y-41530375D01*
X50565892Y-41509500D01*
X50434108Y-41509500D01*
X50356200Y-41530375D01*
X50306809Y-41543609D01*
X50192690Y-41609496D01*
X50099496Y-41702690D01*
X50033609Y-41816809D01*
X50019242Y-41870428D01*
X49999500Y-41944108D01*
X44859056Y-41944108D01*
X44800503Y-41842690D01*
X44800501Y-41842688D01*
X44800500Y-41842686D01*
X44707314Y-41749500D01*
X44707311Y-41749498D01*
X44707309Y-41749496D01*
X44593189Y-41683609D01*
X44593191Y-41683609D01*
X44543799Y-41670375D01*
X44465892Y-41649500D01*
X44334108Y-41649500D01*
X44256200Y-41670375D01*
X44206809Y-41683609D01*
X44092690Y-41749496D01*
X43999496Y-41842690D01*
X43933609Y-41956809D01*
X43920849Y-42004432D01*
X43899500Y-42084108D01*
X41173705Y-42084108D01*
X41166392Y-42056814D01*
X41166390Y-42056811D01*
X41166390Y-42056809D01*
X41100503Y-41942690D01*
X41100501Y-41942688D01*
X41100500Y-41942686D01*
X41007314Y-41849500D01*
X41007311Y-41849498D01*
X41007309Y-41849496D01*
X40893189Y-41783609D01*
X40893191Y-41783609D01*
X40843799Y-41770375D01*
X40765892Y-41749500D01*
X40634108Y-41749500D01*
X40556200Y-41770375D01*
X40506809Y-41783609D01*
X40392690Y-41849496D01*
X40299496Y-41942690D01*
X40233609Y-42056809D01*
X40226294Y-42084109D01*
X40199500Y-42184108D01*
X29543855Y-42184108D01*
X29550500Y-42159309D01*
X29550500Y-42040691D01*
X29519799Y-41926114D01*
X29519797Y-41926111D01*
X29519797Y-41926109D01*
X29460492Y-41823391D01*
X29460490Y-41823389D01*
X29460489Y-41823387D01*
X29376613Y-41739511D01*
X29376610Y-41739509D01*
X29376608Y-41739507D01*
X29273889Y-41680202D01*
X29273890Y-41680202D01*
X29260351Y-41676574D01*
X29159309Y-41649500D01*
X29040691Y-41649500D01*
X28970567Y-41668289D01*
X28926109Y-41680202D01*
X28823391Y-41739507D01*
X28739507Y-41823391D01*
X28680202Y-41926109D01*
X28663037Y-41990169D01*
X28649500Y-42040691D01*
X25882441Y-42040691D01*
X25935528Y-41872321D01*
X25936795Y-41868568D01*
X26075462Y-41484108D01*
X61599500Y-41484108D01*
X61599500Y-41615892D01*
X61616732Y-41680202D01*
X61633609Y-41743190D01*
X61699496Y-41857309D01*
X61699498Y-41857311D01*
X61699500Y-41857314D01*
X61792686Y-41950500D01*
X61792688Y-41950501D01*
X61792690Y-41950503D01*
X61906810Y-42016390D01*
X61906808Y-42016390D01*
X61906812Y-42016391D01*
X61906814Y-42016392D01*
X62034108Y-42050500D01*
X62034110Y-42050500D01*
X62165890Y-42050500D01*
X62165892Y-42050500D01*
X62293186Y-42016392D01*
X62293188Y-42016390D01*
X62293190Y-42016390D01*
X62407309Y-41950503D01*
X62407309Y-41950502D01*
X62407314Y-41950500D01*
X62473706Y-41884108D01*
X72749500Y-41884108D01*
X72749500Y-42015892D01*
X72765577Y-42075892D01*
X72783609Y-42143190D01*
X72849496Y-42257309D01*
X72849498Y-42257311D01*
X72849500Y-42257314D01*
X72942686Y-42350500D01*
X72942688Y-42350501D01*
X72942690Y-42350503D01*
X73056810Y-42416390D01*
X73056808Y-42416390D01*
X73056812Y-42416391D01*
X73056814Y-42416392D01*
X73184108Y-42450500D01*
X73184110Y-42450500D01*
X73315890Y-42450500D01*
X73315892Y-42450500D01*
X73443186Y-42416392D01*
X73443188Y-42416390D01*
X73443190Y-42416390D01*
X73557309Y-42350503D01*
X73557309Y-42350502D01*
X73557314Y-42350500D01*
X73650500Y-42257314D01*
X73692766Y-42184108D01*
X73716390Y-42143190D01*
X73716390Y-42143188D01*
X73716392Y-42143186D01*
X73750500Y-42015892D01*
X73750500Y-41884108D01*
X73716392Y-41756814D01*
X73716390Y-41756811D01*
X73716390Y-41756809D01*
X73650503Y-41642690D01*
X73650501Y-41642688D01*
X73650500Y-41642686D01*
X73557314Y-41549500D01*
X73557311Y-41549498D01*
X73557309Y-41549496D01*
X73443189Y-41483609D01*
X73443191Y-41483609D01*
X73393799Y-41470375D01*
X73315892Y-41449500D01*
X73184108Y-41449500D01*
X73106200Y-41470375D01*
X73056809Y-41483609D01*
X72942690Y-41549496D01*
X72849496Y-41642690D01*
X72783609Y-41756809D01*
X72767531Y-41816814D01*
X72749500Y-41884108D01*
X62473706Y-41884108D01*
X62500500Y-41857314D01*
X62509504Y-41841717D01*
X62517357Y-41828118D01*
X62558524Y-41756814D01*
X62566392Y-41743186D01*
X62600500Y-41615892D01*
X62600500Y-41484108D01*
X62566392Y-41356814D01*
X62566390Y-41356811D01*
X62566390Y-41356809D01*
X62500503Y-41242690D01*
X62500501Y-41242688D01*
X62500500Y-41242686D01*
X62407314Y-41149500D01*
X62407311Y-41149498D01*
X62407309Y-41149496D01*
X62293189Y-41083609D01*
X62293191Y-41083609D01*
X62243799Y-41070375D01*
X62165892Y-41049500D01*
X62034108Y-41049500D01*
X61956200Y-41070375D01*
X61906809Y-41083609D01*
X61792690Y-41149496D01*
X61699496Y-41242690D01*
X61633609Y-41356809D01*
X61633608Y-41356814D01*
X61599500Y-41484108D01*
X26075462Y-41484108D01*
X26286393Y-40899293D01*
X26287797Y-40895636D01*
X26452777Y-40490691D01*
X32949500Y-40490691D01*
X32949500Y-40609309D01*
X32973935Y-40700500D01*
X32980202Y-40723890D01*
X33039507Y-40826608D01*
X33039509Y-40826610D01*
X33039511Y-40826613D01*
X33123387Y-40910489D01*
X33123389Y-40910490D01*
X33123391Y-40910492D01*
X33226110Y-40969797D01*
X33226111Y-40969797D01*
X33226114Y-40969799D01*
X33340691Y-41000500D01*
X33340693Y-41000500D01*
X33459307Y-41000500D01*
X33459309Y-41000500D01*
X33573886Y-40969799D01*
X33573888Y-40969797D01*
X33573890Y-40969797D01*
X33676608Y-40910492D01*
X33676608Y-40910491D01*
X33676613Y-40910489D01*
X33760489Y-40826613D01*
X33760492Y-40826608D01*
X33819797Y-40723890D01*
X33819797Y-40723888D01*
X33819799Y-40723886D01*
X33850500Y-40609309D01*
X33850500Y-40490691D01*
X33819799Y-40376114D01*
X33819797Y-40376111D01*
X33819797Y-40376109D01*
X33760492Y-40273391D01*
X33760490Y-40273389D01*
X33760489Y-40273387D01*
X33676613Y-40189511D01*
X33676610Y-40189509D01*
X33676608Y-40189507D01*
X33573889Y-40130202D01*
X33573890Y-40130202D01*
X33560351Y-40126574D01*
X33459309Y-40099500D01*
X33340691Y-40099500D01*
X33270567Y-40118289D01*
X33226109Y-40130202D01*
X33123391Y-40189507D01*
X33039507Y-40273391D01*
X32980202Y-40376109D01*
X32980201Y-40376114D01*
X32949500Y-40490691D01*
X26452777Y-40490691D01*
X26676560Y-39941412D01*
X26678135Y-39937760D01*
X26770945Y-39734108D01*
X41599500Y-39734108D01*
X41599500Y-39865892D01*
X41618750Y-39937735D01*
X41633609Y-39993190D01*
X41699496Y-40107309D01*
X41699498Y-40107311D01*
X41699500Y-40107314D01*
X41792686Y-40200500D01*
X41792688Y-40200501D01*
X41792690Y-40200503D01*
X41906810Y-40266390D01*
X41906808Y-40266390D01*
X41906812Y-40266391D01*
X41906814Y-40266392D01*
X42034108Y-40300500D01*
X42034110Y-40300500D01*
X42165890Y-40300500D01*
X42165892Y-40300500D01*
X42293186Y-40266392D01*
X42293188Y-40266390D01*
X42293190Y-40266390D01*
X42349104Y-40234108D01*
X67549500Y-40234108D01*
X67549500Y-40365892D01*
X67552238Y-40376109D01*
X67583609Y-40493190D01*
X67649496Y-40607309D01*
X67649498Y-40607311D01*
X67649500Y-40607314D01*
X67742686Y-40700500D01*
X67742688Y-40700501D01*
X67742690Y-40700503D01*
X67856810Y-40766390D01*
X67856808Y-40766390D01*
X67856812Y-40766391D01*
X67856814Y-40766392D01*
X67984108Y-40800500D01*
X67984110Y-40800500D01*
X68115890Y-40800500D01*
X68115892Y-40800500D01*
X68243186Y-40766392D01*
X68243188Y-40766390D01*
X68243190Y-40766390D01*
X68357309Y-40700503D01*
X68357309Y-40700502D01*
X68357314Y-40700500D01*
X68450500Y-40607314D01*
X68516392Y-40493186D01*
X68550500Y-40365892D01*
X68550500Y-40234108D01*
X68516392Y-40106814D01*
X68516390Y-40106811D01*
X68516390Y-40106809D01*
X68450503Y-39992690D01*
X68450501Y-39992688D01*
X68450500Y-39992686D01*
X68357314Y-39899500D01*
X68357311Y-39899498D01*
X68357309Y-39899496D01*
X68243189Y-39833609D01*
X68243191Y-39833609D01*
X68193799Y-39820375D01*
X68115892Y-39799500D01*
X67984108Y-39799500D01*
X67906200Y-39820375D01*
X67856809Y-39833609D01*
X67742690Y-39899496D01*
X67649496Y-39992690D01*
X67583609Y-40106809D01*
X67577341Y-40130202D01*
X67549500Y-40234108D01*
X42349104Y-40234108D01*
X42407309Y-40200503D01*
X42407309Y-40200502D01*
X42407314Y-40200500D01*
X42500500Y-40107314D01*
X42500792Y-40106809D01*
X42566390Y-39993190D01*
X42566390Y-39993188D01*
X42566392Y-39993186D01*
X42600500Y-39865892D01*
X42600500Y-39734108D01*
X42566392Y-39606814D01*
X42566390Y-39606811D01*
X42566390Y-39606809D01*
X42500503Y-39492690D01*
X42500501Y-39492688D01*
X42500500Y-39492686D01*
X42407314Y-39399500D01*
X42407311Y-39399498D01*
X42407309Y-39399496D01*
X42293189Y-39333609D01*
X42293191Y-39333609D01*
X42243799Y-39320375D01*
X42165892Y-39299500D01*
X42034108Y-39299500D01*
X41956200Y-39320375D01*
X41906809Y-39333609D01*
X41792690Y-39399496D01*
X41699496Y-39492690D01*
X41633609Y-39606809D01*
X41621902Y-39650500D01*
X41599500Y-39734108D01*
X26770945Y-39734108D01*
X27067168Y-39084108D01*
X35599500Y-39084108D01*
X35599500Y-39215892D01*
X35629579Y-39328151D01*
X35633609Y-39343190D01*
X35699496Y-39457309D01*
X35699498Y-39457311D01*
X35699500Y-39457314D01*
X35792686Y-39550500D01*
X35792688Y-39550501D01*
X35792690Y-39550503D01*
X35906810Y-39616390D01*
X35906808Y-39616390D01*
X35906812Y-39616391D01*
X35906814Y-39616392D01*
X36034108Y-39650500D01*
X36034110Y-39650500D01*
X36165890Y-39650500D01*
X36165892Y-39650500D01*
X36293186Y-39616392D01*
X36293188Y-39616390D01*
X36293190Y-39616390D01*
X36407309Y-39550503D01*
X36407309Y-39550502D01*
X36407314Y-39550500D01*
X36500500Y-39457314D01*
X36533879Y-39399500D01*
X36566390Y-39343190D01*
X36566390Y-39343188D01*
X36566392Y-39343186D01*
X36600500Y-39215892D01*
X36600500Y-39084108D01*
X36566392Y-38956814D01*
X36566390Y-38956811D01*
X36566390Y-38956809D01*
X36500503Y-38842690D01*
X36500501Y-38842688D01*
X36500500Y-38842686D01*
X36407314Y-38749500D01*
X36407311Y-38749498D01*
X36407309Y-38749496D01*
X36293189Y-38683609D01*
X36293191Y-38683609D01*
X36243799Y-38670375D01*
X36165892Y-38649500D01*
X36034108Y-38649500D01*
X35956200Y-38670375D01*
X35906809Y-38683609D01*
X35792690Y-38749496D01*
X35699496Y-38842690D01*
X35633609Y-38956809D01*
X35621981Y-39000207D01*
X35599500Y-39084108D01*
X27067168Y-39084108D01*
X27105414Y-39000184D01*
X27107139Y-38996596D01*
X27573131Y-38075422D01*
X27573131Y-38075421D01*
X25860935Y-37165031D01*
X25708741Y-37084108D01*
X36419500Y-37084108D01*
X36419500Y-37215892D01*
X36442171Y-37300503D01*
X36453609Y-37343190D01*
X36519496Y-37457309D01*
X36519498Y-37457311D01*
X36519500Y-37457314D01*
X36612686Y-37550500D01*
X36612688Y-37550501D01*
X36612690Y-37550503D01*
X36726810Y-37616390D01*
X36726808Y-37616390D01*
X36726812Y-37616391D01*
X36726814Y-37616392D01*
X36854108Y-37650500D01*
X36854110Y-37650500D01*
X36985890Y-37650500D01*
X36985892Y-37650500D01*
X37113186Y-37616392D01*
X37113188Y-37616390D01*
X37113190Y-37616390D01*
X37227309Y-37550503D01*
X37227309Y-37550502D01*
X37227314Y-37550500D01*
X37320500Y-37457314D01*
X37329098Y-37442420D01*
X37374564Y-37401480D01*
X37435414Y-37395081D01*
X37483884Y-37423062D01*
X37484923Y-37422024D01*
X37489509Y-37426610D01*
X37489511Y-37426613D01*
X37573387Y-37510489D01*
X37573389Y-37510490D01*
X37573391Y-37510492D01*
X37676110Y-37569797D01*
X37676111Y-37569797D01*
X37676114Y-37569799D01*
X37790691Y-37600500D01*
X37790693Y-37600500D01*
X37909307Y-37600500D01*
X37909309Y-37600500D01*
X38023886Y-37569799D01*
X38023888Y-37569797D01*
X38023890Y-37569797D01*
X38126608Y-37510492D01*
X38126608Y-37510491D01*
X38126613Y-37510489D01*
X38210489Y-37426613D01*
X38212539Y-37423062D01*
X38269797Y-37323890D01*
X38269797Y-37323888D01*
X38269799Y-37323886D01*
X38300500Y-37209309D01*
X38300500Y-37178557D01*
X38319407Y-37120366D01*
X38368907Y-37084402D01*
X38425123Y-37082931D01*
X38490691Y-37100500D01*
X38490692Y-37100500D01*
X38609307Y-37100500D01*
X38609309Y-37100500D01*
X38645916Y-37090691D01*
X42999500Y-37090691D01*
X42999500Y-37209309D01*
X43019543Y-37284109D01*
X43030202Y-37323890D01*
X43089507Y-37426608D01*
X43089509Y-37426610D01*
X43089511Y-37426613D01*
X43173387Y-37510489D01*
X43173389Y-37510490D01*
X43173391Y-37510492D01*
X43276110Y-37569797D01*
X43276111Y-37569797D01*
X43276114Y-37569799D01*
X43390691Y-37600500D01*
X43390693Y-37600500D01*
X43509308Y-37600500D01*
X43509309Y-37600500D01*
X43574876Y-37582931D01*
X43635978Y-37586132D01*
X43683528Y-37624637D01*
X43699500Y-37678557D01*
X43699500Y-37709309D01*
X43710537Y-37750500D01*
X43730202Y-37823890D01*
X43789507Y-37926608D01*
X43789509Y-37926610D01*
X43789511Y-37926613D01*
X43873387Y-38010489D01*
X43873389Y-38010490D01*
X43873391Y-38010492D01*
X43976110Y-38069797D01*
X43976111Y-38069797D01*
X43976114Y-38069799D01*
X44090691Y-38100500D01*
X44090693Y-38100500D01*
X44209307Y-38100500D01*
X44209309Y-38100500D01*
X44323886Y-38069799D01*
X44323888Y-38069797D01*
X44323890Y-38069797D01*
X44426608Y-38010492D01*
X44426608Y-38010491D01*
X44426613Y-38010489D01*
X44510489Y-37926613D01*
X44535030Y-37884108D01*
X46599500Y-37884108D01*
X46599500Y-38015892D01*
X46626754Y-38117607D01*
X46633609Y-38143190D01*
X46699496Y-38257309D01*
X46699498Y-38257311D01*
X46699500Y-38257314D01*
X46792686Y-38350500D01*
X46792688Y-38350501D01*
X46792690Y-38350503D01*
X46906810Y-38416390D01*
X46906808Y-38416390D01*
X46906812Y-38416391D01*
X46906814Y-38416392D01*
X47034108Y-38450500D01*
X47034110Y-38450500D01*
X47165890Y-38450500D01*
X47165892Y-38450500D01*
X47293186Y-38416392D01*
X47293188Y-38416390D01*
X47293190Y-38416390D01*
X47407309Y-38350503D01*
X47407309Y-38350502D01*
X47407314Y-38350500D01*
X47500500Y-38257314D01*
X47566392Y-38143186D01*
X47600500Y-38015892D01*
X47600500Y-37884108D01*
X47571297Y-37775120D01*
X47574500Y-37714022D01*
X47613005Y-37666472D01*
X47666924Y-37650500D01*
X47765890Y-37650500D01*
X47765892Y-37650500D01*
X47893186Y-37616392D01*
X47893188Y-37616390D01*
X47893190Y-37616390D01*
X48007309Y-37550503D01*
X48007309Y-37550502D01*
X48007314Y-37550500D01*
X48100500Y-37457314D01*
X48103571Y-37451995D01*
X48166390Y-37343190D01*
X48166390Y-37343188D01*
X48166392Y-37343186D01*
X48182222Y-37284108D01*
X48389500Y-37284108D01*
X48389500Y-37415892D01*
X48407644Y-37483608D01*
X48423609Y-37543190D01*
X48489496Y-37657309D01*
X48489498Y-37657311D01*
X48489500Y-37657314D01*
X48582686Y-37750500D01*
X48582688Y-37750501D01*
X48582690Y-37750503D01*
X48696810Y-37816390D01*
X48696808Y-37816390D01*
X48696812Y-37816391D01*
X48696814Y-37816392D01*
X48824108Y-37850500D01*
X48824110Y-37850500D01*
X48955890Y-37850500D01*
X48955892Y-37850500D01*
X49083186Y-37816392D01*
X49083188Y-37816390D01*
X49083190Y-37816390D01*
X49197309Y-37750503D01*
X49197309Y-37750502D01*
X49197314Y-37750500D01*
X49290500Y-37657314D01*
X49309366Y-37624637D01*
X49356390Y-37543190D01*
X49356390Y-37543188D01*
X49356392Y-37543186D01*
X49390500Y-37415892D01*
X49390500Y-37284108D01*
X49929500Y-37284108D01*
X49929500Y-37415892D01*
X49947644Y-37483608D01*
X49963609Y-37543190D01*
X50029496Y-37657309D01*
X50029498Y-37657311D01*
X50029500Y-37657314D01*
X50122686Y-37750500D01*
X50122688Y-37750501D01*
X50122690Y-37750503D01*
X50236810Y-37816390D01*
X50236808Y-37816390D01*
X50236812Y-37816391D01*
X50236814Y-37816392D01*
X50364108Y-37850500D01*
X50364110Y-37850500D01*
X50495890Y-37850500D01*
X50495892Y-37850500D01*
X50623186Y-37816392D01*
X50623188Y-37816390D01*
X50623190Y-37816390D01*
X50737309Y-37750503D01*
X50737309Y-37750502D01*
X50737314Y-37750500D01*
X50830500Y-37657314D01*
X50849366Y-37624637D01*
X50896390Y-37543190D01*
X50896390Y-37543188D01*
X50896392Y-37543186D01*
X50912222Y-37484108D01*
X56549500Y-37484108D01*
X56549500Y-37615892D01*
X56558773Y-37650500D01*
X56583609Y-37743190D01*
X56649496Y-37857309D01*
X56649498Y-37857311D01*
X56649500Y-37857314D01*
X56722184Y-37929998D01*
X56749960Y-37984513D01*
X56740389Y-38044945D01*
X56722185Y-38070000D01*
X56674579Y-38117607D01*
X56649497Y-38142689D01*
X56649496Y-38142690D01*
X56583609Y-38256809D01*
X56583608Y-38256814D01*
X56549500Y-38384108D01*
X56549500Y-38515892D01*
X56579579Y-38628151D01*
X56583609Y-38643190D01*
X56649496Y-38757309D01*
X56649498Y-38757311D01*
X56649500Y-38757314D01*
X56742686Y-38850500D01*
X56742688Y-38850501D01*
X56742690Y-38850503D01*
X56856810Y-38916390D01*
X56856808Y-38916390D01*
X56856812Y-38916391D01*
X56856814Y-38916392D01*
X56984108Y-38950500D01*
X56984110Y-38950500D01*
X57115890Y-38950500D01*
X57115892Y-38950500D01*
X57243186Y-38916392D01*
X57243188Y-38916390D01*
X57243190Y-38916390D01*
X57357309Y-38850503D01*
X57357309Y-38850502D01*
X57357314Y-38850500D01*
X57450500Y-38757314D01*
X57450503Y-38757309D01*
X57516390Y-38643190D01*
X57516390Y-38643188D01*
X57516392Y-38643186D01*
X57550500Y-38515892D01*
X57550500Y-38384108D01*
X57516392Y-38256814D01*
X57516390Y-38256811D01*
X57516390Y-38256809D01*
X57450503Y-38142690D01*
X57450501Y-38142688D01*
X57450500Y-38142686D01*
X57377815Y-38070001D01*
X57350040Y-38015487D01*
X57359611Y-37955055D01*
X57377814Y-37929999D01*
X57450500Y-37857314D01*
X57467356Y-37828119D01*
X57516390Y-37743190D01*
X57516390Y-37743188D01*
X57516392Y-37743186D01*
X57550500Y-37615892D01*
X57550500Y-37484108D01*
X57516392Y-37356814D01*
X57516390Y-37356811D01*
X57516390Y-37356809D01*
X57450503Y-37242690D01*
X57450501Y-37242688D01*
X57450500Y-37242686D01*
X57357314Y-37149500D01*
X57357311Y-37149498D01*
X57357309Y-37149496D01*
X57244053Y-37084108D01*
X62374500Y-37084108D01*
X62374500Y-37215892D01*
X62397171Y-37300503D01*
X62408609Y-37343190D01*
X62474496Y-37457309D01*
X62474498Y-37457311D01*
X62474500Y-37457314D01*
X62567686Y-37550500D01*
X62567688Y-37550501D01*
X62567690Y-37550503D01*
X62681810Y-37616390D01*
X62681808Y-37616390D01*
X62681812Y-37616391D01*
X62681814Y-37616392D01*
X62809108Y-37650500D01*
X62809110Y-37650500D01*
X62940890Y-37650500D01*
X62940892Y-37650500D01*
X63068186Y-37616392D01*
X63068188Y-37616390D01*
X63068190Y-37616390D01*
X63182309Y-37550503D01*
X63182309Y-37550502D01*
X63182314Y-37550500D01*
X63192498Y-37540315D01*
X63247013Y-37512540D01*
X63307445Y-37522111D01*
X63332500Y-37540314D01*
X63342686Y-37550500D01*
X63342688Y-37550501D01*
X63342690Y-37550503D01*
X63456810Y-37616390D01*
X63456808Y-37616390D01*
X63456812Y-37616391D01*
X63456814Y-37616392D01*
X63584108Y-37650500D01*
X63584110Y-37650500D01*
X63715890Y-37650500D01*
X63715892Y-37650500D01*
X63843186Y-37616392D01*
X63843188Y-37616390D01*
X63843190Y-37616390D01*
X63957309Y-37550503D01*
X63957309Y-37550502D01*
X63957314Y-37550500D01*
X64050500Y-37457314D01*
X64053571Y-37451995D01*
X64116390Y-37343190D01*
X64116390Y-37343188D01*
X64116392Y-37343186D01*
X64150500Y-37215892D01*
X64150500Y-37084108D01*
X64116392Y-36956814D01*
X64098955Y-36926613D01*
X64070380Y-36877119D01*
X64070379Y-36877117D01*
X64050501Y-36842688D01*
X64050500Y-36842686D01*
X64041922Y-36834108D01*
X64549500Y-36834108D01*
X64549500Y-36965892D01*
X64577341Y-37069797D01*
X64583609Y-37093190D01*
X64649496Y-37207309D01*
X64649498Y-37207311D01*
X64649500Y-37207314D01*
X64742686Y-37300500D01*
X64742688Y-37300501D01*
X64742690Y-37300503D01*
X64856810Y-37366390D01*
X64856808Y-37366390D01*
X64856812Y-37366391D01*
X64856814Y-37366392D01*
X64984108Y-37400500D01*
X64984110Y-37400500D01*
X65115890Y-37400500D01*
X65115892Y-37400500D01*
X65243186Y-37366392D01*
X65243188Y-37366390D01*
X65243190Y-37366390D01*
X65357309Y-37300503D01*
X65357309Y-37300502D01*
X65357314Y-37300500D01*
X65450500Y-37207314D01*
X65450503Y-37207309D01*
X65516390Y-37093190D01*
X65516390Y-37093188D01*
X65516392Y-37093186D01*
X65550500Y-36965892D01*
X65550500Y-36834108D01*
X65527461Y-36748124D01*
X65530664Y-36687026D01*
X65569169Y-36639476D01*
X65597463Y-36626878D01*
X65623886Y-36619799D01*
X65726613Y-36560489D01*
X65810489Y-36476613D01*
X65869799Y-36373886D01*
X65900500Y-36259309D01*
X65900500Y-36140691D01*
X65869799Y-36026114D01*
X65869797Y-36026111D01*
X65869797Y-36026109D01*
X65810492Y-35923391D01*
X65810490Y-35923389D01*
X65810489Y-35923387D01*
X65726613Y-35839511D01*
X65726610Y-35839509D01*
X65726608Y-35839507D01*
X65623889Y-35780202D01*
X65623890Y-35780202D01*
X65585461Y-35769905D01*
X65509309Y-35749500D01*
X65390691Y-35749500D01*
X65320567Y-35768289D01*
X65276109Y-35780202D01*
X65173391Y-35839507D01*
X65089507Y-35923391D01*
X65030202Y-36026109D01*
X65030201Y-36026114D01*
X64999500Y-36140691D01*
X64999500Y-36259309D01*
X65007592Y-36289507D01*
X65007894Y-36290634D01*
X65004691Y-36351735D01*
X64966186Y-36399285D01*
X64937890Y-36411884D01*
X64856809Y-36433609D01*
X64742690Y-36499496D01*
X64649496Y-36592690D01*
X64583609Y-36706809D01*
X64572170Y-36749500D01*
X64549500Y-36834108D01*
X64041922Y-36834108D01*
X63957314Y-36749500D01*
X63957311Y-36749498D01*
X63957309Y-36749496D01*
X63843189Y-36683609D01*
X63843191Y-36683609D01*
X63793799Y-36670375D01*
X63715892Y-36649500D01*
X63584108Y-36649500D01*
X63506200Y-36670375D01*
X63456809Y-36683609D01*
X63342690Y-36749496D01*
X63342684Y-36749501D01*
X63332501Y-36759684D01*
X63277984Y-36787460D01*
X63217552Y-36777886D01*
X63192499Y-36759684D01*
X63182315Y-36749501D01*
X63182309Y-36749496D01*
X63068189Y-36683609D01*
X63068191Y-36683609D01*
X63018799Y-36670375D01*
X62940892Y-36649500D01*
X62809108Y-36649500D01*
X62731200Y-36670375D01*
X62681809Y-36683609D01*
X62567690Y-36749496D01*
X62474496Y-36842690D01*
X62408609Y-36956809D01*
X62394226Y-37010489D01*
X62374500Y-37084108D01*
X57244053Y-37084108D01*
X57243189Y-37083609D01*
X57243191Y-37083609D01*
X57191642Y-37069797D01*
X57115892Y-37049500D01*
X56984108Y-37049500D01*
X56908358Y-37069797D01*
X56856809Y-37083609D01*
X56742690Y-37149496D01*
X56649496Y-37242690D01*
X56583609Y-37356809D01*
X56567778Y-37415892D01*
X56549500Y-37484108D01*
X50912222Y-37484108D01*
X50930500Y-37415892D01*
X50930500Y-37284108D01*
X50896392Y-37156814D01*
X50896390Y-37156811D01*
X50896390Y-37156809D01*
X50830503Y-37042690D01*
X50830501Y-37042688D01*
X50830500Y-37042686D01*
X50737314Y-36949500D01*
X50737311Y-36949498D01*
X50737309Y-36949496D01*
X50623189Y-36883609D01*
X50623191Y-36883609D01*
X50548585Y-36863619D01*
X50495892Y-36849500D01*
X50364108Y-36849500D01*
X50311415Y-36863619D01*
X50236809Y-36883609D01*
X50122690Y-36949496D01*
X50029496Y-37042690D01*
X49963609Y-37156809D01*
X49947778Y-37215892D01*
X49929500Y-37284108D01*
X49390500Y-37284108D01*
X49356392Y-37156814D01*
X49356390Y-37156811D01*
X49356390Y-37156809D01*
X49290503Y-37042690D01*
X49290501Y-37042688D01*
X49290500Y-37042686D01*
X49197314Y-36949500D01*
X49197311Y-36949498D01*
X49197309Y-36949496D01*
X49083189Y-36883609D01*
X49083191Y-36883609D01*
X49008585Y-36863619D01*
X48955892Y-36849500D01*
X48824108Y-36849500D01*
X48771415Y-36863619D01*
X48696809Y-36883609D01*
X48582690Y-36949496D01*
X48489496Y-37042690D01*
X48423609Y-37156809D01*
X48407778Y-37215892D01*
X48389500Y-37284108D01*
X48182222Y-37284108D01*
X48200500Y-37215892D01*
X48200500Y-37084108D01*
X48166392Y-36956814D01*
X48166390Y-36956811D01*
X48166390Y-36956809D01*
X48100503Y-36842690D01*
X48100501Y-36842688D01*
X48100500Y-36842686D01*
X48007314Y-36749500D01*
X48007311Y-36749498D01*
X48007309Y-36749496D01*
X47893189Y-36683609D01*
X47893191Y-36683609D01*
X47843799Y-36670375D01*
X47765892Y-36649500D01*
X47634108Y-36649500D01*
X47556200Y-36670375D01*
X47506809Y-36683609D01*
X47392690Y-36749496D01*
X47299496Y-36842690D01*
X47233609Y-36956809D01*
X47219226Y-37010489D01*
X47199500Y-37084108D01*
X47199500Y-37215892D01*
X47228702Y-37324879D01*
X47225500Y-37385978D01*
X47186995Y-37433528D01*
X47133076Y-37449500D01*
X47034108Y-37449500D01*
X46956428Y-37470314D01*
X46906809Y-37483609D01*
X46792690Y-37549496D01*
X46699496Y-37642690D01*
X46633609Y-37756809D01*
X46633608Y-37756814D01*
X46599500Y-37884108D01*
X44535030Y-37884108D01*
X44567351Y-37828126D01*
X44567355Y-37828119D01*
X44569799Y-37823886D01*
X44600500Y-37709309D01*
X44600500Y-37590691D01*
X44569799Y-37476114D01*
X44569797Y-37476111D01*
X44569797Y-37476109D01*
X44510492Y-37373391D01*
X44510490Y-37373389D01*
X44510489Y-37373387D01*
X44426613Y-37289511D01*
X44426610Y-37289509D01*
X44426608Y-37289507D01*
X44323889Y-37230202D01*
X44323890Y-37230202D01*
X44310351Y-37226574D01*
X44209309Y-37199500D01*
X44090691Y-37199500D01*
X44025123Y-37217069D01*
X43964021Y-37213866D01*
X43916471Y-37175361D01*
X43900500Y-37121442D01*
X43900500Y-37090692D01*
X43898602Y-37083608D01*
X43869799Y-36976114D01*
X43869797Y-36976111D01*
X43869797Y-36976109D01*
X43810492Y-36873391D01*
X43810490Y-36873389D01*
X43810489Y-36873387D01*
X43726613Y-36789511D01*
X43726610Y-36789509D01*
X43726608Y-36789507D01*
X43623889Y-36730202D01*
X43623890Y-36730202D01*
X43599146Y-36723572D01*
X43509309Y-36699500D01*
X43390691Y-36699500D01*
X43354084Y-36709309D01*
X43276109Y-36730202D01*
X43173391Y-36789507D01*
X43089507Y-36873391D01*
X43030202Y-36976109D01*
X43030201Y-36976114D01*
X42999500Y-37090691D01*
X38645916Y-37090691D01*
X38723886Y-37069799D01*
X38723888Y-37069797D01*
X38723890Y-37069797D01*
X38826608Y-37010492D01*
X38826608Y-37010491D01*
X38826613Y-37010489D01*
X38910489Y-36926613D01*
X38941217Y-36873391D01*
X38969797Y-36823890D01*
X38969797Y-36823888D01*
X38969799Y-36823886D01*
X39000500Y-36709309D01*
X39000500Y-36590691D01*
X38969799Y-36476114D01*
X38969797Y-36476111D01*
X38969797Y-36476109D01*
X38910492Y-36373391D01*
X38910490Y-36373389D01*
X38910489Y-36373387D01*
X38826613Y-36289511D01*
X38826610Y-36289509D01*
X38826608Y-36289507D01*
X38723889Y-36230202D01*
X38723890Y-36230202D01*
X38710351Y-36226574D01*
X38609309Y-36199500D01*
X38490691Y-36199500D01*
X38425123Y-36217069D01*
X38364021Y-36213866D01*
X38316471Y-36175361D01*
X38300500Y-36121442D01*
X38300500Y-36090692D01*
X38299406Y-36086608D01*
X38269799Y-35976114D01*
X38269797Y-35976111D01*
X38269797Y-35976109D01*
X38210492Y-35873391D01*
X38210490Y-35873389D01*
X38210489Y-35873387D01*
X38126613Y-35789511D01*
X38126610Y-35789509D01*
X38126608Y-35789507D01*
X38023889Y-35730202D01*
X38023890Y-35730202D01*
X38010351Y-35726574D01*
X37909309Y-35699500D01*
X37790691Y-35699500D01*
X37720567Y-35718289D01*
X37676109Y-35730202D01*
X37573391Y-35789507D01*
X37489507Y-35873391D01*
X37430202Y-35976109D01*
X37430201Y-35976114D01*
X37399500Y-36090691D01*
X37399500Y-36209309D01*
X37412897Y-36259307D01*
X37430202Y-36323890D01*
X37489507Y-36426608D01*
X37489509Y-36426610D01*
X37489511Y-36426613D01*
X37573387Y-36510489D01*
X37573389Y-36510490D01*
X37666526Y-36564264D01*
X37707466Y-36609734D01*
X37713861Y-36670584D01*
X37683268Y-36723572D01*
X37666526Y-36735736D01*
X37573389Y-36789509D01*
X37573387Y-36789510D01*
X37573387Y-36789511D01*
X37489511Y-36873387D01*
X37489509Y-36873389D01*
X37484923Y-36877976D01*
X37482744Y-36875797D01*
X37442331Y-36903185D01*
X37381178Y-36901183D01*
X37332881Y-36863619D01*
X37329108Y-36857596D01*
X37320500Y-36842686D01*
X37227314Y-36749500D01*
X37227311Y-36749498D01*
X37227309Y-36749496D01*
X37113189Y-36683609D01*
X37113191Y-36683609D01*
X37063799Y-36670375D01*
X36985892Y-36649500D01*
X36854108Y-36649500D01*
X36776200Y-36670375D01*
X36726809Y-36683609D01*
X36612690Y-36749496D01*
X36519496Y-36842690D01*
X36453609Y-36956809D01*
X36439226Y-37010489D01*
X36419500Y-37084108D01*
X25708741Y-37084108D01*
X24924855Y-36667308D01*
X24882352Y-36623295D01*
X24873837Y-36562705D01*
X24884756Y-36531881D01*
X25321029Y-35745289D01*
X25322709Y-35742379D01*
X25833537Y-34892701D01*
X25835359Y-34889789D01*
X25843924Y-34876608D01*
X26375514Y-34058479D01*
X26377388Y-34055702D01*
X26926623Y-33271733D01*
X29121379Y-33271733D01*
X29121379Y-33271734D01*
X29194004Y-33823387D01*
X29199749Y-33867018D01*
X29281529Y-34064453D01*
X29420724Y-34400500D01*
X29429520Y-34421734D01*
X29611816Y-34659307D01*
X29790905Y-34892701D01*
X29795033Y-34898080D01*
X29795037Y-34898083D01*
X29795038Y-34898084D01*
X29828014Y-34923387D01*
X30271379Y-35263593D01*
X30826095Y-35493364D01*
X31272558Y-35552141D01*
X31421378Y-35571734D01*
X31421379Y-35571734D01*
X31421380Y-35571734D01*
X31540435Y-35556060D01*
X32016663Y-35493364D01*
X32571379Y-35263593D01*
X33047724Y-34898080D01*
X33058445Y-34884108D01*
X37849500Y-34884108D01*
X37849500Y-35015892D01*
X37858773Y-35050500D01*
X37883609Y-35143190D01*
X37949496Y-35257309D01*
X37949498Y-35257311D01*
X37949500Y-35257314D01*
X38042686Y-35350500D01*
X38042688Y-35350501D01*
X38042690Y-35350503D01*
X38156810Y-35416390D01*
X38156808Y-35416390D01*
X38156812Y-35416391D01*
X38156814Y-35416392D01*
X38284108Y-35450500D01*
X38284110Y-35450500D01*
X38415890Y-35450500D01*
X38415892Y-35450500D01*
X38543186Y-35416392D01*
X38543188Y-35416390D01*
X38543191Y-35416390D01*
X38546692Y-35414940D01*
X38549397Y-35414727D01*
X38549454Y-35414712D01*
X38549456Y-35414722D01*
X38607688Y-35410139D01*
X38659857Y-35442109D01*
X38680203Y-35480780D01*
X38684468Y-35496698D01*
X38684470Y-35496702D01*
X38750357Y-35610822D01*
X38750359Y-35610824D01*
X38750361Y-35610827D01*
X38843547Y-35704013D01*
X38843549Y-35704014D01*
X38843551Y-35704016D01*
X38957671Y-35769903D01*
X38957669Y-35769903D01*
X38957673Y-35769904D01*
X38957675Y-35769905D01*
X39084969Y-35804013D01*
X39084971Y-35804013D01*
X39216751Y-35804013D01*
X39216753Y-35804013D01*
X39344047Y-35769905D01*
X39344049Y-35769903D01*
X39344051Y-35769903D01*
X39458170Y-35704016D01*
X39458170Y-35704015D01*
X39458175Y-35704013D01*
X39551361Y-35610827D01*
X39551364Y-35610822D01*
X39617251Y-35496703D01*
X39617251Y-35496701D01*
X39617253Y-35496699D01*
X39651361Y-35369405D01*
X39651361Y-35237621D01*
X39617253Y-35110327D01*
X39617251Y-35110324D01*
X39617251Y-35110322D01*
X39551364Y-34996203D01*
X39551362Y-34996201D01*
X39551361Y-34996199D01*
X39458175Y-34903013D01*
X39458172Y-34903011D01*
X39458170Y-34903009D01*
X39344050Y-34837122D01*
X39344052Y-34837122D01*
X39270267Y-34817352D01*
X39216753Y-34803013D01*
X39084969Y-34803013D01*
X39031455Y-34817352D01*
X38957673Y-34837121D01*
X38954165Y-34838575D01*
X38951454Y-34838788D01*
X38951407Y-34838801D01*
X38951404Y-34838792D01*
X38893168Y-34843373D01*
X38841000Y-34811401D01*
X38820656Y-34772729D01*
X38816392Y-34756814D01*
X38816389Y-34756809D01*
X38750503Y-34642690D01*
X38750501Y-34642688D01*
X38750500Y-34642686D01*
X38657314Y-34549500D01*
X38657311Y-34549498D01*
X38657309Y-34549496D01*
X38555455Y-34490691D01*
X39799500Y-34490691D01*
X39799500Y-34609309D01*
X39812897Y-34659307D01*
X39830202Y-34723890D01*
X39889507Y-34826608D01*
X39889509Y-34826610D01*
X39889511Y-34826613D01*
X39973387Y-34910489D01*
X39973389Y-34910490D01*
X39973391Y-34910492D01*
X40076110Y-34969797D01*
X40076111Y-34969797D01*
X40076114Y-34969799D01*
X40190691Y-35000500D01*
X40190693Y-35000500D01*
X40309307Y-35000500D01*
X40309309Y-35000500D01*
X40423886Y-34969799D01*
X40423888Y-34969797D01*
X40423890Y-34969797D01*
X40526608Y-34910492D01*
X40526608Y-34910491D01*
X40526613Y-34910489D01*
X40610489Y-34826613D01*
X40650788Y-34756814D01*
X40669797Y-34723890D01*
X40669797Y-34723888D01*
X40669799Y-34723886D01*
X40700500Y-34609309D01*
X40700500Y-34490691D01*
X41299500Y-34490691D01*
X41299500Y-34609309D01*
X41312897Y-34659307D01*
X41330202Y-34723890D01*
X41389507Y-34826608D01*
X41389509Y-34826610D01*
X41389511Y-34826613D01*
X41473387Y-34910489D01*
X41473389Y-34910490D01*
X41473391Y-34910492D01*
X41576110Y-34969797D01*
X41576111Y-34969797D01*
X41576114Y-34969799D01*
X41690691Y-35000500D01*
X41690693Y-35000500D01*
X41809307Y-35000500D01*
X41809309Y-35000500D01*
X41923886Y-34969799D01*
X41923888Y-34969797D01*
X41923890Y-34969797D01*
X42026608Y-34910492D01*
X42026608Y-34910491D01*
X42026613Y-34910489D01*
X42110489Y-34826613D01*
X42150788Y-34756814D01*
X42163898Y-34734108D01*
X44349500Y-34734108D01*
X44349500Y-34865892D01*
X44374847Y-34960489D01*
X44383609Y-34993190D01*
X44449496Y-35107309D01*
X44449498Y-35107311D01*
X44449500Y-35107314D01*
X44542686Y-35200500D01*
X44542688Y-35200501D01*
X44542690Y-35200503D01*
X44656810Y-35266390D01*
X44656808Y-35266390D01*
X44656812Y-35266391D01*
X44656814Y-35266392D01*
X44784108Y-35300500D01*
X44784110Y-35300500D01*
X44915889Y-35300500D01*
X44915892Y-35300500D01*
X44995242Y-35279238D01*
X45056340Y-35282440D01*
X45103890Y-35320945D01*
X45119076Y-35377619D01*
X45119500Y-35377619D01*
X45119500Y-35379202D01*
X45119726Y-35380046D01*
X45119500Y-35382510D01*
X45119500Y-35384108D01*
X45119500Y-35515892D01*
X45134463Y-35571734D01*
X45153609Y-35643190D01*
X45219496Y-35757309D01*
X45219498Y-35757311D01*
X45219500Y-35757314D01*
X45312686Y-35850500D01*
X45312688Y-35850501D01*
X45312690Y-35850503D01*
X45426810Y-35916390D01*
X45426808Y-35916390D01*
X45426812Y-35916391D01*
X45426814Y-35916392D01*
X45554108Y-35950500D01*
X45554110Y-35950500D01*
X45685890Y-35950500D01*
X45685892Y-35950500D01*
X45813186Y-35916392D01*
X45813188Y-35916390D01*
X45813190Y-35916390D01*
X45927309Y-35850503D01*
X45927309Y-35850502D01*
X45927314Y-35850500D01*
X46020500Y-35757314D01*
X46024324Y-35750691D01*
X59699500Y-35750691D01*
X59699500Y-35869309D01*
X59721255Y-35950500D01*
X59730202Y-35983890D01*
X59789507Y-36086608D01*
X59789509Y-36086610D01*
X59789511Y-36086613D01*
X59873387Y-36170489D01*
X59873389Y-36170490D01*
X59873391Y-36170492D01*
X59976110Y-36229797D01*
X59976111Y-36229797D01*
X59976114Y-36229799D01*
X60090691Y-36260500D01*
X60090693Y-36260500D01*
X60209307Y-36260500D01*
X60209309Y-36260500D01*
X60323886Y-36229799D01*
X60323888Y-36229797D01*
X60323890Y-36229797D01*
X60426608Y-36170492D01*
X60426608Y-36170491D01*
X60426613Y-36170489D01*
X60510489Y-36086613D01*
X60510492Y-36086608D01*
X60569797Y-35983890D01*
X60569797Y-35983888D01*
X60569799Y-35983886D01*
X60600500Y-35869309D01*
X60600500Y-35750691D01*
X60569799Y-35636114D01*
X60569797Y-35636111D01*
X60569797Y-35636109D01*
X60510492Y-35533391D01*
X60510490Y-35533389D01*
X60510489Y-35533387D01*
X60426613Y-35449511D01*
X60426610Y-35449509D01*
X60426608Y-35449507D01*
X60323889Y-35390202D01*
X60323890Y-35390202D01*
X60282837Y-35379202D01*
X60209309Y-35359500D01*
X60090691Y-35359500D01*
X60023070Y-35377619D01*
X59976109Y-35390202D01*
X59873391Y-35449507D01*
X59789507Y-35533391D01*
X59730202Y-35636109D01*
X59730201Y-35636114D01*
X59699500Y-35750691D01*
X46024324Y-35750691D01*
X46056650Y-35694702D01*
X46086390Y-35643190D01*
X46086390Y-35643188D01*
X46086392Y-35643186D01*
X46120500Y-35515892D01*
X46120500Y-35384108D01*
X46086392Y-35256814D01*
X46086390Y-35256811D01*
X46086390Y-35256809D01*
X46020503Y-35142690D01*
X46020501Y-35142688D01*
X46020500Y-35142686D01*
X46018505Y-35140691D01*
X65649500Y-35140691D01*
X65649500Y-35259309D01*
X65673935Y-35350500D01*
X65680202Y-35373890D01*
X65739507Y-35476608D01*
X65739509Y-35476610D01*
X65739511Y-35476613D01*
X65823387Y-35560489D01*
X65823389Y-35560490D01*
X65823391Y-35560492D01*
X65926110Y-35619797D01*
X65926111Y-35619797D01*
X65926114Y-35619799D01*
X66040691Y-35650500D01*
X66040693Y-35650500D01*
X66159307Y-35650500D01*
X66159309Y-35650500D01*
X66273886Y-35619799D01*
X66273888Y-35619797D01*
X66273890Y-35619797D01*
X66376608Y-35560492D01*
X66376608Y-35560491D01*
X66376613Y-35560489D01*
X66460489Y-35476613D01*
X66460492Y-35476608D01*
X66519797Y-35373890D01*
X66519797Y-35373888D01*
X66519799Y-35373886D01*
X66550500Y-35259309D01*
X66550500Y-35140691D01*
X66519799Y-35026114D01*
X66519797Y-35026111D01*
X66519797Y-35026109D01*
X66460492Y-34923391D01*
X66460490Y-34923389D01*
X66460489Y-34923387D01*
X66376613Y-34839511D01*
X66376610Y-34839509D01*
X66376608Y-34839507D01*
X66273889Y-34780202D01*
X66273890Y-34780202D01*
X66246000Y-34772729D01*
X66159309Y-34749500D01*
X66040691Y-34749500D01*
X65970567Y-34768289D01*
X65926109Y-34780202D01*
X65823391Y-34839507D01*
X65739507Y-34923391D01*
X65680202Y-35026109D01*
X65673667Y-35050500D01*
X65649500Y-35140691D01*
X46018505Y-35140691D01*
X45927314Y-35049500D01*
X45927311Y-35049498D01*
X45927309Y-35049496D01*
X45813189Y-34983609D01*
X45813191Y-34983609D01*
X45753286Y-34967558D01*
X45685892Y-34949500D01*
X45554108Y-34949500D01*
X45516553Y-34959562D01*
X45474759Y-34970761D01*
X45413658Y-34967558D01*
X45366108Y-34929053D01*
X45350924Y-34872381D01*
X45350500Y-34872381D01*
X45350500Y-34870799D01*
X45350273Y-34869952D01*
X45350500Y-34867484D01*
X45350500Y-34734109D01*
X45347761Y-34723886D01*
X45316392Y-34606814D01*
X45316390Y-34606811D01*
X45316390Y-34606809D01*
X45250503Y-34492690D01*
X45250501Y-34492688D01*
X45250500Y-34492686D01*
X45157314Y-34399500D01*
X45157311Y-34399498D01*
X45157309Y-34399496D01*
X45043189Y-34333609D01*
X45043191Y-34333609D01*
X44993799Y-34320375D01*
X44915892Y-34299500D01*
X44784108Y-34299500D01*
X44706200Y-34320375D01*
X44656809Y-34333609D01*
X44542690Y-34399496D01*
X44449496Y-34492690D01*
X44383609Y-34606809D01*
X44383608Y-34606814D01*
X44349500Y-34734108D01*
X42163898Y-34734108D01*
X42169797Y-34723890D01*
X42169797Y-34723888D01*
X42169799Y-34723886D01*
X42200500Y-34609309D01*
X42200500Y-34490691D01*
X42169799Y-34376114D01*
X42169797Y-34376111D01*
X42169797Y-34376109D01*
X42110492Y-34273391D01*
X42110490Y-34273389D01*
X42110489Y-34273387D01*
X42026613Y-34189511D01*
X42026610Y-34189509D01*
X42026608Y-34189507D01*
X41923891Y-34130203D01*
X41923888Y-34130202D01*
X41923886Y-34130201D01*
X41809309Y-34099500D01*
X41690691Y-34099500D01*
X41620567Y-34118289D01*
X41576109Y-34130202D01*
X41473391Y-34189507D01*
X41389507Y-34273391D01*
X41330202Y-34376109D01*
X41323667Y-34400500D01*
X41299500Y-34490691D01*
X40700500Y-34490691D01*
X40669799Y-34376114D01*
X40669797Y-34376111D01*
X40669797Y-34376109D01*
X40610492Y-34273391D01*
X40610490Y-34273389D01*
X40610489Y-34273387D01*
X40526613Y-34189511D01*
X40526610Y-34189509D01*
X40526608Y-34189507D01*
X40423889Y-34130202D01*
X40423890Y-34130202D01*
X40410351Y-34126574D01*
X40309309Y-34099500D01*
X40190691Y-34099500D01*
X40120567Y-34118289D01*
X40076109Y-34130202D01*
X39973391Y-34189507D01*
X39889507Y-34273391D01*
X39830202Y-34376109D01*
X39823667Y-34400500D01*
X39799500Y-34490691D01*
X38555455Y-34490691D01*
X38543189Y-34483609D01*
X38543191Y-34483609D01*
X38478927Y-34466390D01*
X38415892Y-34449500D01*
X38284108Y-34449500D01*
X38221073Y-34466390D01*
X38156809Y-34483609D01*
X38042690Y-34549496D01*
X37949496Y-34642690D01*
X37883609Y-34756809D01*
X37877341Y-34780202D01*
X37849500Y-34884108D01*
X33058445Y-34884108D01*
X33094499Y-34837122D01*
X33109669Y-34817352D01*
X33173544Y-34734108D01*
X33413237Y-34421734D01*
X33643008Y-33867018D01*
X33673145Y-33638108D01*
X36150500Y-33638108D01*
X36150500Y-33769892D01*
X36160392Y-33806809D01*
X36184609Y-33897190D01*
X36250496Y-34011309D01*
X36250498Y-34011311D01*
X36250500Y-34011314D01*
X36343686Y-34104500D01*
X36343688Y-34104501D01*
X36343690Y-34104503D01*
X36457810Y-34170390D01*
X36457808Y-34170390D01*
X36457812Y-34170391D01*
X36457814Y-34170392D01*
X36585108Y-34204500D01*
X36585110Y-34204500D01*
X36716890Y-34204500D01*
X36716892Y-34204500D01*
X36844186Y-34170392D01*
X36844188Y-34170390D01*
X36844190Y-34170390D01*
X36958309Y-34104503D01*
X36958309Y-34104502D01*
X36958314Y-34104500D01*
X37022123Y-34040691D01*
X57949500Y-34040691D01*
X57949500Y-34159309D01*
X57961609Y-34204500D01*
X57980202Y-34273890D01*
X58039507Y-34376608D01*
X58039509Y-34376610D01*
X58039511Y-34376613D01*
X58123387Y-34460489D01*
X58123389Y-34460490D01*
X58123391Y-34460492D01*
X58226110Y-34519797D01*
X58226111Y-34519797D01*
X58226114Y-34519799D01*
X58340691Y-34550500D01*
X58340693Y-34550500D01*
X58459307Y-34550500D01*
X58459309Y-34550500D01*
X58495916Y-34540691D01*
X59449500Y-34540691D01*
X59449500Y-34659309D01*
X59469543Y-34734109D01*
X59480202Y-34773890D01*
X59539507Y-34876608D01*
X59539509Y-34876610D01*
X59539511Y-34876613D01*
X59623387Y-34960489D01*
X59623389Y-34960490D01*
X59623391Y-34960492D01*
X59726110Y-35019797D01*
X59726111Y-35019797D01*
X59726114Y-35019799D01*
X59840691Y-35050500D01*
X59840693Y-35050500D01*
X59959307Y-35050500D01*
X59959309Y-35050500D01*
X60073886Y-35019799D01*
X60073888Y-35019797D01*
X60073890Y-35019797D01*
X60176608Y-34960492D01*
X60176608Y-34960491D01*
X60176613Y-34960489D01*
X60260489Y-34876613D01*
X60281910Y-34839511D01*
X60319797Y-34773890D01*
X60319797Y-34773888D01*
X60319799Y-34773886D01*
X60350500Y-34659309D01*
X60350500Y-34599500D01*
X60369407Y-34541309D01*
X60418907Y-34505345D01*
X60449500Y-34500500D01*
X60565890Y-34500500D01*
X60565892Y-34500500D01*
X60693186Y-34466392D01*
X60693188Y-34466390D01*
X60693190Y-34466390D01*
X60807309Y-34400503D01*
X60807309Y-34400502D01*
X60807314Y-34400500D01*
X60900500Y-34307314D01*
X60900503Y-34307309D01*
X60966390Y-34193190D01*
X60966390Y-34193188D01*
X60966392Y-34193186D01*
X61000500Y-34065892D01*
X61000500Y-33934108D01*
X60966392Y-33806814D01*
X60966390Y-33806811D01*
X60966390Y-33806809D01*
X60900503Y-33692690D01*
X60900501Y-33692688D01*
X60900500Y-33692686D01*
X60807314Y-33599500D01*
X60807311Y-33599498D01*
X60807309Y-33599496D01*
X60693189Y-33533609D01*
X60693191Y-33533609D01*
X60678722Y-33529732D01*
X60565892Y-33499500D01*
X60434108Y-33499500D01*
X60356200Y-33520375D01*
X60306809Y-33533609D01*
X60192690Y-33599496D01*
X60099496Y-33692690D01*
X60033609Y-33806809D01*
X60017476Y-33867020D01*
X60001644Y-33926109D01*
X59999500Y-33934109D01*
X59999500Y-34050500D01*
X59980593Y-34108691D01*
X59931093Y-34144655D01*
X59900500Y-34149500D01*
X59840691Y-34149500D01*
X59804084Y-34159309D01*
X59726109Y-34180202D01*
X59623391Y-34239507D01*
X59539507Y-34323391D01*
X59480202Y-34426109D01*
X59464795Y-34483608D01*
X59449500Y-34540691D01*
X58495916Y-34540691D01*
X58573886Y-34519799D01*
X58573888Y-34519797D01*
X58573890Y-34519797D01*
X58676608Y-34460492D01*
X58676608Y-34460491D01*
X58676613Y-34460489D01*
X58760489Y-34376613D01*
X58791217Y-34323391D01*
X58819797Y-34273890D01*
X58819797Y-34273888D01*
X58819799Y-34273886D01*
X58850500Y-34159309D01*
X58850500Y-34040691D01*
X58819799Y-33926114D01*
X58819797Y-33926111D01*
X58819797Y-33926109D01*
X58760492Y-33823391D01*
X58760490Y-33823389D01*
X58760489Y-33823387D01*
X58676613Y-33739511D01*
X58676610Y-33739509D01*
X58676608Y-33739507D01*
X58573889Y-33680202D01*
X58573890Y-33680202D01*
X58522350Y-33666392D01*
X58459309Y-33649500D01*
X58340691Y-33649500D01*
X58277657Y-33666390D01*
X58226109Y-33680202D01*
X58123391Y-33739507D01*
X58039507Y-33823391D01*
X57980202Y-33926109D01*
X57970308Y-33963035D01*
X57949500Y-34040691D01*
X37022123Y-34040691D01*
X37051500Y-34011314D01*
X37051503Y-34011309D01*
X37117390Y-33897190D01*
X37117390Y-33897188D01*
X37117392Y-33897186D01*
X37151500Y-33769892D01*
X37151500Y-33638108D01*
X37117392Y-33510814D01*
X37117390Y-33510811D01*
X37117390Y-33510809D01*
X37051503Y-33396690D01*
X37051501Y-33396688D01*
X37051500Y-33396686D01*
X36958314Y-33303500D01*
X36958311Y-33303498D01*
X36958309Y-33303496D01*
X36901489Y-33270691D01*
X39789500Y-33270691D01*
X39789500Y-33389309D01*
X39790539Y-33393186D01*
X39820202Y-33503890D01*
X39879507Y-33606608D01*
X39879509Y-33606610D01*
X39879511Y-33606613D01*
X39963387Y-33690489D01*
X39963389Y-33690490D01*
X39963391Y-33690492D01*
X40066110Y-33749797D01*
X40066111Y-33749797D01*
X40066114Y-33749799D01*
X40180691Y-33780500D01*
X40180693Y-33780500D01*
X40299307Y-33780500D01*
X40299309Y-33780500D01*
X40413886Y-33749799D01*
X40413888Y-33749797D01*
X40413890Y-33749797D01*
X40516608Y-33690492D01*
X40516608Y-33690491D01*
X40516613Y-33690489D01*
X40600489Y-33606613D01*
X40604598Y-33599496D01*
X40659797Y-33503890D01*
X40659797Y-33503888D01*
X40659799Y-33503886D01*
X40690500Y-33389309D01*
X40690500Y-33270691D01*
X40659799Y-33156114D01*
X40659797Y-33156111D01*
X40659797Y-33156109D01*
X40600492Y-33053391D01*
X40600490Y-33053389D01*
X40600489Y-33053387D01*
X40516613Y-32969511D01*
X40516610Y-32969509D01*
X40516608Y-32969507D01*
X40413889Y-32910202D01*
X40413890Y-32910202D01*
X40400351Y-32906574D01*
X40299309Y-32879500D01*
X40180691Y-32879500D01*
X40131466Y-32892690D01*
X40066109Y-32910202D01*
X39963391Y-32969507D01*
X39879507Y-33053391D01*
X39820202Y-33156109D01*
X39810400Y-33192690D01*
X39789500Y-33270691D01*
X36901489Y-33270691D01*
X36844189Y-33237609D01*
X36844191Y-33237609D01*
X36794799Y-33224375D01*
X36716892Y-33203500D01*
X36585108Y-33203500D01*
X36507200Y-33224375D01*
X36457809Y-33237609D01*
X36343690Y-33303496D01*
X36250496Y-33396690D01*
X36184609Y-33510809D01*
X36169850Y-33565892D01*
X36150500Y-33638108D01*
X33673145Y-33638108D01*
X33721379Y-33271734D01*
X33720675Y-33266390D01*
X33672505Y-32900500D01*
X33643008Y-32676451D01*
X33643006Y-32676446D01*
X33493500Y-32315504D01*
X33480495Y-32284108D01*
X41499500Y-32284108D01*
X41499500Y-32415892D01*
X41513813Y-32469309D01*
X41533609Y-32543190D01*
X41599496Y-32657309D01*
X41599498Y-32657311D01*
X41599500Y-32657314D01*
X41692686Y-32750500D01*
X41692688Y-32750501D01*
X41692690Y-32750503D01*
X41806810Y-32816390D01*
X41806808Y-32816390D01*
X41806812Y-32816391D01*
X41806814Y-32816392D01*
X41934108Y-32850500D01*
X41934110Y-32850500D01*
X42065890Y-32850500D01*
X42065892Y-32850500D01*
X42193186Y-32816392D01*
X42193188Y-32816390D01*
X42193190Y-32816390D01*
X42307309Y-32750503D01*
X42307309Y-32750502D01*
X42307314Y-32750500D01*
X42400500Y-32657314D01*
X42400503Y-32657309D01*
X42466390Y-32543190D01*
X42466390Y-32543188D01*
X42466392Y-32543186D01*
X42500500Y-32415892D01*
X42500500Y-32350691D01*
X43229500Y-32350691D01*
X43229500Y-32469309D01*
X43251255Y-32550500D01*
X43260202Y-32583890D01*
X43319507Y-32686608D01*
X43319509Y-32686610D01*
X43319511Y-32686613D01*
X43403387Y-32770489D01*
X43403389Y-32770490D01*
X43403391Y-32770492D01*
X43506110Y-32829797D01*
X43506111Y-32829797D01*
X43506114Y-32829799D01*
X43620691Y-32860500D01*
X43620693Y-32860500D01*
X43739307Y-32860500D01*
X43739309Y-32860500D01*
X43853886Y-32829799D01*
X43853888Y-32829797D01*
X43853890Y-32829797D01*
X43956608Y-32770492D01*
X43956608Y-32770491D01*
X43956613Y-32770489D01*
X44030498Y-32696603D01*
X44085013Y-32668828D01*
X44145445Y-32678399D01*
X44188710Y-32721664D01*
X44199500Y-32766609D01*
X44199500Y-32865892D01*
X44211373Y-32910202D01*
X44233609Y-32993190D01*
X44299496Y-33107309D01*
X44299498Y-33107311D01*
X44299500Y-33107314D01*
X44392686Y-33200500D01*
X44392688Y-33200501D01*
X44392690Y-33200503D01*
X44506810Y-33266390D01*
X44506808Y-33266390D01*
X44506812Y-33266391D01*
X44506814Y-33266392D01*
X44634108Y-33300500D01*
X44634110Y-33300500D01*
X44765890Y-33300500D01*
X44765892Y-33300500D01*
X44893186Y-33266392D01*
X44893188Y-33266390D01*
X44893190Y-33266390D01*
X45007309Y-33200503D01*
X45007309Y-33200502D01*
X45007314Y-33200500D01*
X45073706Y-33134108D01*
X46649500Y-33134108D01*
X46649500Y-33265892D01*
X46658773Y-33300500D01*
X46683609Y-33393190D01*
X46749496Y-33507309D01*
X46749498Y-33507311D01*
X46749500Y-33507314D01*
X46842686Y-33600500D01*
X46842688Y-33600501D01*
X46842690Y-33600503D01*
X46956810Y-33666390D01*
X46956808Y-33666390D01*
X46956812Y-33666391D01*
X46956814Y-33666392D01*
X47084108Y-33700500D01*
X47084110Y-33700500D01*
X47215890Y-33700500D01*
X47215892Y-33700500D01*
X47343186Y-33666392D01*
X47343188Y-33666390D01*
X47343190Y-33666390D01*
X47457309Y-33600503D01*
X47457309Y-33600502D01*
X47457314Y-33600500D01*
X47550500Y-33507314D01*
X47550503Y-33507309D01*
X47592766Y-33434108D01*
X63487500Y-33434108D01*
X63487500Y-33565892D01*
X63514428Y-33666390D01*
X63521609Y-33693190D01*
X63587496Y-33807309D01*
X63587498Y-33807311D01*
X63587500Y-33807314D01*
X63680686Y-33900500D01*
X63680688Y-33900501D01*
X63680690Y-33900503D01*
X63794810Y-33966390D01*
X63794808Y-33966390D01*
X63794812Y-33966391D01*
X63794814Y-33966392D01*
X63922108Y-34000500D01*
X63922110Y-34000500D01*
X64053890Y-34000500D01*
X64053892Y-34000500D01*
X64066110Y-33997226D01*
X64127211Y-34000429D01*
X64174760Y-34038934D01*
X64187357Y-34067227D01*
X64212030Y-34159307D01*
X64221109Y-34193190D01*
X64286996Y-34307309D01*
X64286998Y-34307311D01*
X64287000Y-34307314D01*
X64380186Y-34400500D01*
X64380188Y-34400501D01*
X64380190Y-34400503D01*
X64494310Y-34466390D01*
X64494308Y-34466390D01*
X64494312Y-34466391D01*
X64494314Y-34466392D01*
X64621608Y-34500500D01*
X64621610Y-34500500D01*
X64753390Y-34500500D01*
X64753392Y-34500500D01*
X64880686Y-34466392D01*
X64880688Y-34466390D01*
X64880690Y-34466390D01*
X64994809Y-34400503D01*
X64994809Y-34400502D01*
X64994814Y-34400500D01*
X65088000Y-34307314D01*
X65088003Y-34307309D01*
X65153890Y-34193190D01*
X65153890Y-34193188D01*
X65153892Y-34193186D01*
X65188000Y-34065892D01*
X65188000Y-33934108D01*
X65153892Y-33806814D01*
X65153890Y-33806811D01*
X65153890Y-33806809D01*
X65088003Y-33692690D01*
X65088001Y-33692688D01*
X65088000Y-33692686D01*
X64994814Y-33599500D01*
X64994811Y-33599498D01*
X64994809Y-33599496D01*
X64880689Y-33533609D01*
X64880691Y-33533609D01*
X64831299Y-33520375D01*
X64753392Y-33499500D01*
X64621608Y-33499500D01*
X64621603Y-33499500D01*
X64609384Y-33502774D01*
X64594176Y-33501976D01*
X64579503Y-33506054D01*
X64564390Y-33500413D01*
X64548282Y-33499568D01*
X64536447Y-33489983D01*
X64522180Y-33484658D01*
X64513460Y-33471366D01*
X64500735Y-33461060D01*
X64488382Y-33433655D01*
X64488287Y-33433315D01*
X64454392Y-33306814D01*
X64434138Y-33271733D01*
X66278620Y-33271733D01*
X66278620Y-33271734D01*
X66351246Y-33823387D01*
X66356991Y-33867018D01*
X66438771Y-34064453D01*
X66577966Y-34400500D01*
X66586762Y-34421734D01*
X66769058Y-34659307D01*
X66948147Y-34892701D01*
X66952275Y-34898080D01*
X66952279Y-34898083D01*
X66952280Y-34898084D01*
X67428618Y-35263592D01*
X67428619Y-35263593D01*
X67567080Y-35320945D01*
X67983336Y-35493364D01*
X68429799Y-35552141D01*
X68578619Y-35571734D01*
X68578620Y-35571734D01*
X68578621Y-35571734D01*
X68697676Y-35556060D01*
X69173904Y-35493364D01*
X69728620Y-35263593D01*
X70204966Y-34898080D01*
X70570479Y-34421734D01*
X70800250Y-33867018D01*
X70878620Y-33271734D01*
X70877916Y-33266390D01*
X70831024Y-32910202D01*
X70800250Y-32676451D01*
X70630398Y-32266392D01*
X70570479Y-32121733D01*
X70570478Y-32121732D01*
X70204970Y-31645394D01*
X70204969Y-31645393D01*
X70204966Y-31645389D01*
X70204961Y-31645385D01*
X70204960Y-31645384D01*
X69928685Y-31433391D01*
X69728620Y-31279876D01*
X69673846Y-31257188D01*
X69422314Y-31153000D01*
X69173904Y-31050105D01*
X69173902Y-31050104D01*
X69173900Y-31050104D01*
X68578621Y-30971734D01*
X68578619Y-30971734D01*
X67983339Y-31050104D01*
X67983333Y-31050106D01*
X67428619Y-31279875D01*
X67428618Y-31279876D01*
X66952280Y-31645384D01*
X66952270Y-31645394D01*
X66586762Y-32121732D01*
X66586761Y-32121733D01*
X66356992Y-32676448D01*
X66356990Y-32676454D01*
X66278620Y-33271733D01*
X64434138Y-33271733D01*
X64433537Y-33270692D01*
X64388503Y-33192690D01*
X64388501Y-33192688D01*
X64388500Y-33192686D01*
X64295314Y-33099500D01*
X64295311Y-33099498D01*
X64295309Y-33099496D01*
X64181189Y-33033609D01*
X64181191Y-33033609D01*
X64131799Y-33020375D01*
X64053892Y-32999500D01*
X63922108Y-32999500D01*
X63844200Y-33020375D01*
X63794809Y-33033609D01*
X63680690Y-33099496D01*
X63587496Y-33192690D01*
X63521609Y-33306809D01*
X63521608Y-33306814D01*
X63487500Y-33434108D01*
X47592766Y-33434108D01*
X47616390Y-33393190D01*
X47616390Y-33393188D01*
X47616392Y-33393186D01*
X47650500Y-33265892D01*
X47650500Y-33134108D01*
X47616392Y-33006814D01*
X47616390Y-33006811D01*
X47616390Y-33006809D01*
X47550503Y-32892690D01*
X47550501Y-32892688D01*
X47550500Y-32892686D01*
X47457314Y-32799500D01*
X47457311Y-32799498D01*
X47457309Y-32799496D01*
X47343189Y-32733609D01*
X47343191Y-32733609D01*
X47293799Y-32720375D01*
X47215892Y-32699500D01*
X47084108Y-32699500D01*
X47006200Y-32720375D01*
X46956809Y-32733609D01*
X46842690Y-32799496D01*
X46749496Y-32892690D01*
X46683609Y-33006809D01*
X46676428Y-33033609D01*
X46649500Y-33134108D01*
X45073706Y-33134108D01*
X45100500Y-33107314D01*
X45109504Y-33091717D01*
X45117357Y-33078118D01*
X45158524Y-33006814D01*
X45166392Y-32993186D01*
X45200500Y-32865892D01*
X45200500Y-32734108D01*
X45177674Y-32648920D01*
X45180876Y-32587823D01*
X45219381Y-32540273D01*
X45278482Y-32524437D01*
X45298911Y-32527671D01*
X45384108Y-32550500D01*
X45384111Y-32550500D01*
X45515890Y-32550500D01*
X45515892Y-32550500D01*
X45643186Y-32516392D01*
X45643188Y-32516390D01*
X45643190Y-32516390D01*
X45757309Y-32450503D01*
X45757309Y-32450502D01*
X45757314Y-32450500D01*
X45817123Y-32390691D01*
X59079500Y-32390691D01*
X59079500Y-32509309D01*
X59090537Y-32550500D01*
X59110202Y-32623890D01*
X59169507Y-32726608D01*
X59169509Y-32726610D01*
X59169511Y-32726613D01*
X59253387Y-32810489D01*
X59253389Y-32810490D01*
X59253391Y-32810492D01*
X59356110Y-32869797D01*
X59356111Y-32869797D01*
X59356114Y-32869799D01*
X59470691Y-32900500D01*
X59470693Y-32900500D01*
X59589307Y-32900500D01*
X59589309Y-32900500D01*
X59703886Y-32869799D01*
X59703888Y-32869797D01*
X59703890Y-32869797D01*
X59806608Y-32810492D01*
X59806608Y-32810491D01*
X59806613Y-32810489D01*
X59890489Y-32726613D01*
X59919449Y-32676454D01*
X59949797Y-32623890D01*
X59949797Y-32623888D01*
X59949799Y-32623886D01*
X59980500Y-32509309D01*
X59980500Y-32390691D01*
X59949799Y-32276114D01*
X59949797Y-32276111D01*
X59949797Y-32276109D01*
X59890492Y-32173391D01*
X59890490Y-32173389D01*
X59890489Y-32173387D01*
X59806613Y-32089511D01*
X59806610Y-32089509D01*
X59806608Y-32089507D01*
X59703889Y-32030202D01*
X59703890Y-32030202D01*
X59690351Y-32026574D01*
X59589309Y-31999500D01*
X59470691Y-31999500D01*
X59400567Y-32018289D01*
X59356109Y-32030202D01*
X59253391Y-32089507D01*
X59169507Y-32173391D01*
X59110202Y-32276109D01*
X59103667Y-32300500D01*
X59079500Y-32390691D01*
X45817123Y-32390691D01*
X45850500Y-32357314D01*
X45874639Y-32315504D01*
X45916390Y-32243190D01*
X45916390Y-32243188D01*
X45916392Y-32243186D01*
X45950500Y-32115892D01*
X45950500Y-31984108D01*
X45916392Y-31856814D01*
X45850500Y-31742686D01*
X45841922Y-31734108D01*
X52699500Y-31734108D01*
X52699500Y-31865892D01*
X52724582Y-31959500D01*
X52733609Y-31993190D01*
X52799496Y-32107309D01*
X52799498Y-32107311D01*
X52799500Y-32107314D01*
X52892686Y-32200500D01*
X52892688Y-32200501D01*
X52892690Y-32200503D01*
X53006810Y-32266390D01*
X53006808Y-32266390D01*
X53006812Y-32266391D01*
X53006814Y-32266392D01*
X53134108Y-32300500D01*
X53134110Y-32300500D01*
X53265890Y-32300500D01*
X53265892Y-32300500D01*
X53393186Y-32266392D01*
X53393188Y-32266390D01*
X53393190Y-32266390D01*
X53507309Y-32200503D01*
X53507309Y-32200502D01*
X53507314Y-32200500D01*
X53600500Y-32107314D01*
X53645021Y-32030202D01*
X53666390Y-31993190D01*
X53666390Y-31993188D01*
X53666392Y-31993186D01*
X53700500Y-31865892D01*
X53700500Y-31734108D01*
X53678149Y-31650691D01*
X61399500Y-31650691D01*
X61399500Y-31769309D01*
X61426574Y-31870351D01*
X61430202Y-31883890D01*
X61489507Y-31986608D01*
X61489509Y-31986610D01*
X61489511Y-31986613D01*
X61573387Y-32070489D01*
X61573389Y-32070490D01*
X61573391Y-32070492D01*
X61676110Y-32129797D01*
X61676111Y-32129797D01*
X61676114Y-32129799D01*
X61790691Y-32160500D01*
X61790693Y-32160500D01*
X61909307Y-32160500D01*
X61909309Y-32160500D01*
X62023886Y-32129799D01*
X62023888Y-32129797D01*
X62023890Y-32129797D01*
X62126608Y-32070492D01*
X62126608Y-32070491D01*
X62126613Y-32070489D01*
X62210489Y-31986613D01*
X62226143Y-31959500D01*
X62269797Y-31883890D01*
X62269797Y-31883888D01*
X62269799Y-31883886D01*
X62300500Y-31769309D01*
X62300500Y-31650691D01*
X62269799Y-31536114D01*
X62269797Y-31536111D01*
X62269797Y-31536109D01*
X62210492Y-31433391D01*
X62210490Y-31433389D01*
X62210489Y-31433387D01*
X62126613Y-31349511D01*
X62126610Y-31349509D01*
X62126603Y-31349502D01*
X62126225Y-31349212D01*
X62126031Y-31348930D01*
X62122024Y-31344923D01*
X62122767Y-31344179D01*
X62091573Y-31298785D01*
X62093179Y-31237621D01*
X62130430Y-31189082D01*
X62160873Y-31175049D01*
X62193186Y-31166392D01*
X62307314Y-31100500D01*
X62400500Y-31007314D01*
X62400503Y-31007309D01*
X62466390Y-30893190D01*
X62466390Y-30893188D01*
X62466392Y-30893186D01*
X62500500Y-30765892D01*
X62500500Y-30634108D01*
X62466392Y-30506814D01*
X62466390Y-30506811D01*
X62466390Y-30506809D01*
X62400503Y-30392690D01*
X62400501Y-30392688D01*
X62400500Y-30392686D01*
X62307314Y-30299500D01*
X62307311Y-30299498D01*
X62307309Y-30299496D01*
X62193189Y-30233609D01*
X62193191Y-30233609D01*
X62143799Y-30220375D01*
X62065892Y-30199500D01*
X61934108Y-30199500D01*
X61856200Y-30220375D01*
X61806809Y-30233609D01*
X61692690Y-30299496D01*
X61599496Y-30392690D01*
X61533609Y-30506809D01*
X61518955Y-30561500D01*
X61499500Y-30634108D01*
X61499500Y-30765892D01*
X61529166Y-30876608D01*
X61533609Y-30893190D01*
X61599496Y-31007309D01*
X61599498Y-31007311D01*
X61599500Y-31007314D01*
X61692686Y-31100500D01*
X61692688Y-31100501D01*
X61704864Y-31107531D01*
X61745806Y-31153000D01*
X61752202Y-31213850D01*
X61721610Y-31266839D01*
X61680992Y-31288894D01*
X61676110Y-31290202D01*
X61573391Y-31349507D01*
X61489507Y-31433391D01*
X61430202Y-31536109D01*
X61430201Y-31536114D01*
X61399500Y-31650691D01*
X53678149Y-31650691D01*
X53666392Y-31606814D01*
X53666390Y-31606811D01*
X53666390Y-31606809D01*
X53600503Y-31492690D01*
X53600501Y-31492688D01*
X53600500Y-31492686D01*
X53507314Y-31399500D01*
X53507311Y-31399498D01*
X53507309Y-31399496D01*
X53393189Y-31333609D01*
X53393191Y-31333609D01*
X53343799Y-31320375D01*
X53265892Y-31299500D01*
X53134108Y-31299500D01*
X53056200Y-31320375D01*
X53006809Y-31333609D01*
X52892690Y-31399496D01*
X52799496Y-31492690D01*
X52733609Y-31606809D01*
X52722170Y-31649500D01*
X52699500Y-31734108D01*
X45841922Y-31734108D01*
X45757314Y-31649500D01*
X45757311Y-31649498D01*
X45757309Y-31649496D01*
X45643189Y-31583609D01*
X45643191Y-31583609D01*
X45593799Y-31570375D01*
X45515892Y-31549500D01*
X45384108Y-31549500D01*
X45306200Y-31570375D01*
X45256809Y-31583609D01*
X45142690Y-31649496D01*
X45049496Y-31742690D01*
X44983609Y-31856809D01*
X44976428Y-31883609D01*
X44949500Y-31984108D01*
X44949500Y-32115892D01*
X44972324Y-32201076D01*
X44969122Y-32262177D01*
X44930617Y-32309727D01*
X44871517Y-32325562D01*
X44851079Y-32322325D01*
X44765892Y-32299500D01*
X44634108Y-32299500D01*
X44574380Y-32315504D01*
X44506809Y-32333609D01*
X44392690Y-32399496D01*
X44392689Y-32399497D01*
X44392686Y-32399499D01*
X44392686Y-32399500D01*
X44299501Y-32492684D01*
X44244987Y-32520460D01*
X44184555Y-32510889D01*
X44141290Y-32467624D01*
X44130500Y-32422679D01*
X44130500Y-32350692D01*
X44125923Y-32333609D01*
X44099799Y-32236114D01*
X44099797Y-32236111D01*
X44099797Y-32236109D01*
X44040492Y-32133391D01*
X44040490Y-32133389D01*
X44040489Y-32133387D01*
X43956613Y-32049511D01*
X43956610Y-32049509D01*
X43956608Y-32049507D01*
X43853889Y-31990202D01*
X43853890Y-31990202D01*
X43831147Y-31984108D01*
X43739309Y-31959500D01*
X43620691Y-31959500D01*
X43550567Y-31978289D01*
X43506109Y-31990202D01*
X43403391Y-32049507D01*
X43319507Y-32133391D01*
X43260202Y-32236109D01*
X43252088Y-32266392D01*
X43229500Y-32350691D01*
X42500500Y-32350691D01*
X42500500Y-32284108D01*
X42466392Y-32156814D01*
X42466390Y-32156811D01*
X42466390Y-32156809D01*
X42400503Y-32042690D01*
X42400501Y-32042688D01*
X42400500Y-32042686D01*
X42307314Y-31949500D01*
X42307311Y-31949498D01*
X42307309Y-31949496D01*
X42193189Y-31883609D01*
X42193191Y-31883609D01*
X42127068Y-31865892D01*
X42065892Y-31849500D01*
X41934108Y-31849500D01*
X41872932Y-31865892D01*
X41806809Y-31883609D01*
X41692690Y-31949496D01*
X41599496Y-32042690D01*
X41533609Y-32156809D01*
X41533608Y-32156814D01*
X41499500Y-32284108D01*
X33480495Y-32284108D01*
X33413237Y-32121734D01*
X33413236Y-32121732D01*
X33047728Y-31645394D01*
X33047727Y-31645393D01*
X33047724Y-31645389D01*
X33047719Y-31645385D01*
X33047718Y-31645384D01*
X32571380Y-31279876D01*
X32571379Y-31279875D01*
X32097900Y-31083754D01*
X32016663Y-31050105D01*
X32016661Y-31050104D01*
X32016659Y-31050104D01*
X31421380Y-30971734D01*
X31421378Y-30971734D01*
X30826098Y-31050104D01*
X30826092Y-31050106D01*
X30271380Y-31279875D01*
X29795038Y-31645384D01*
X29795028Y-31645394D01*
X29429520Y-32121732D01*
X29429519Y-32121733D01*
X29199750Y-32676448D01*
X29199748Y-32676454D01*
X29121379Y-33271733D01*
X26926623Y-33271733D01*
X26946255Y-33243710D01*
X26948211Y-33241019D01*
X27545065Y-32449380D01*
X27547184Y-32446670D01*
X28171277Y-31676374D01*
X28173415Y-31673827D01*
X28824047Y-30925739D01*
X28826318Y-30923218D01*
X29120812Y-30607571D01*
X29174329Y-30577924D01*
X29235057Y-30585396D01*
X29260820Y-30602806D01*
X29915615Y-31215231D01*
X29915615Y-31215230D01*
X29915616Y-31215231D01*
X30388281Y-30724904D01*
X37899207Y-30724904D01*
X37899207Y-30856688D01*
X37917709Y-30925739D01*
X37933316Y-30983986D01*
X37999203Y-31098105D01*
X37999205Y-31098107D01*
X37999207Y-31098110D01*
X38092393Y-31191296D01*
X38092395Y-31191297D01*
X38092397Y-31191299D01*
X38206517Y-31257186D01*
X38206515Y-31257186D01*
X38206519Y-31257187D01*
X38206521Y-31257188D01*
X38333815Y-31291296D01*
X38333817Y-31291296D01*
X38465597Y-31291296D01*
X38465599Y-31291296D01*
X38592893Y-31257188D01*
X38592895Y-31257186D01*
X38592897Y-31257186D01*
X38707016Y-31191299D01*
X38707016Y-31191298D01*
X38707021Y-31191296D01*
X38800207Y-31098110D01*
X38827923Y-31050105D01*
X38866097Y-30983986D01*
X38866097Y-30983984D01*
X38866099Y-30983982D01*
X38900207Y-30856688D01*
X38900207Y-30724904D01*
X38866099Y-30597610D01*
X38866097Y-30597607D01*
X38866097Y-30597605D01*
X38858070Y-30583702D01*
X38833237Y-30540691D01*
X50749500Y-30540691D01*
X50749500Y-30659309D01*
X50767076Y-30724904D01*
X50780202Y-30773890D01*
X50839507Y-30876608D01*
X50839509Y-30876610D01*
X50839511Y-30876613D01*
X50923387Y-30960489D01*
X50923389Y-30960490D01*
X50923391Y-30960492D01*
X51026110Y-31019797D01*
X51026111Y-31019797D01*
X51026114Y-31019799D01*
X51140691Y-31050500D01*
X51140693Y-31050500D01*
X51259307Y-31050500D01*
X51259309Y-31050500D01*
X51373886Y-31019799D01*
X51373888Y-31019797D01*
X51373890Y-31019797D01*
X51476608Y-30960492D01*
X51476608Y-30960491D01*
X51476613Y-30960489D01*
X51560489Y-30876613D01*
X51619799Y-30773886D01*
X51650500Y-30659309D01*
X51650500Y-30540691D01*
X51619799Y-30426114D01*
X51619797Y-30426111D01*
X51619797Y-30426109D01*
X51560492Y-30323391D01*
X51560490Y-30323389D01*
X51560489Y-30323387D01*
X51476613Y-30239511D01*
X51476610Y-30239509D01*
X51476608Y-30239507D01*
X51373889Y-30180202D01*
X51373890Y-30180202D01*
X51360351Y-30176574D01*
X51259309Y-30149500D01*
X51140691Y-30149500D01*
X51070567Y-30168289D01*
X51026109Y-30180202D01*
X50923391Y-30239507D01*
X50839507Y-30323391D01*
X50780202Y-30426109D01*
X50780201Y-30426114D01*
X50749500Y-30540691D01*
X38833237Y-30540691D01*
X38800210Y-30483486D01*
X38800208Y-30483484D01*
X38800207Y-30483482D01*
X38707021Y-30390296D01*
X38707018Y-30390294D01*
X38707016Y-30390292D01*
X38592896Y-30324405D01*
X38592898Y-30324405D01*
X38543506Y-30311171D01*
X38465599Y-30290296D01*
X38333815Y-30290296D01*
X38255907Y-30311171D01*
X38206516Y-30324405D01*
X38092397Y-30390292D01*
X37999203Y-30483486D01*
X37933316Y-30597605D01*
X37930646Y-30607571D01*
X37899207Y-30724904D01*
X30388281Y-30724904D01*
X30490473Y-30618894D01*
X30492486Y-30616868D01*
X31083992Y-30039201D01*
X31086111Y-30037192D01*
X31131888Y-29995108D01*
X59068500Y-29995108D01*
X59068500Y-30126892D01*
X59089030Y-30203510D01*
X59102609Y-30254190D01*
X59168496Y-30368309D01*
X59168498Y-30368311D01*
X59168500Y-30368314D01*
X59261686Y-30461500D01*
X59261688Y-30461501D01*
X59261690Y-30461503D01*
X59375810Y-30527390D01*
X59375808Y-30527390D01*
X59375812Y-30527391D01*
X59375814Y-30527392D01*
X59503108Y-30561500D01*
X59503110Y-30561500D01*
X59634890Y-30561500D01*
X59634892Y-30561500D01*
X59762186Y-30527392D01*
X59762188Y-30527390D01*
X59762190Y-30527390D01*
X59876309Y-30461503D01*
X59876309Y-30461502D01*
X59876314Y-30461500D01*
X59969500Y-30368314D01*
X59994852Y-30324404D01*
X60035390Y-30254190D01*
X60035390Y-30254188D01*
X60035392Y-30254186D01*
X60069500Y-30126892D01*
X60069500Y-29995108D01*
X60039758Y-29884108D01*
X63349500Y-29884108D01*
X63349500Y-30015892D01*
X63355752Y-30039225D01*
X63383609Y-30143190D01*
X63449496Y-30257309D01*
X63449498Y-30257311D01*
X63449500Y-30257314D01*
X63542686Y-30350500D01*
X63542688Y-30350501D01*
X63542690Y-30350503D01*
X63656810Y-30416390D01*
X63656808Y-30416390D01*
X63656812Y-30416391D01*
X63656814Y-30416392D01*
X63784108Y-30450500D01*
X63784110Y-30450500D01*
X63915890Y-30450500D01*
X63915892Y-30450500D01*
X64043186Y-30416392D01*
X64043188Y-30416390D01*
X64043190Y-30416390D01*
X64157309Y-30350503D01*
X64157309Y-30350502D01*
X64157314Y-30350500D01*
X64250500Y-30257314D01*
X64295021Y-30180202D01*
X64316390Y-30143190D01*
X64316390Y-30143188D01*
X64316392Y-30143186D01*
X64350500Y-30015892D01*
X64350500Y-29884108D01*
X64316392Y-29756814D01*
X64316390Y-29756811D01*
X64316390Y-29756809D01*
X64250503Y-29642690D01*
X64250501Y-29642688D01*
X64250500Y-29642686D01*
X64157314Y-29549500D01*
X64157311Y-29549498D01*
X64157309Y-29549496D01*
X64043189Y-29483609D01*
X64043191Y-29483609D01*
X63993799Y-29470375D01*
X63915892Y-29449500D01*
X63784108Y-29449500D01*
X63706200Y-29470375D01*
X63656809Y-29483609D01*
X63542690Y-29549496D01*
X63449496Y-29642690D01*
X63383609Y-29756809D01*
X63383608Y-29756814D01*
X63349500Y-29884108D01*
X60039758Y-29884108D01*
X60035392Y-29867814D01*
X60035389Y-29867809D01*
X59969503Y-29753690D01*
X59969501Y-29753688D01*
X59969500Y-29753686D01*
X59876314Y-29660500D01*
X59876311Y-29660498D01*
X59876309Y-29660496D01*
X59762189Y-29594609D01*
X59762191Y-29594609D01*
X59712799Y-29581375D01*
X59634892Y-29560500D01*
X59503108Y-29560500D01*
X59425200Y-29581375D01*
X59375809Y-29594609D01*
X59261690Y-29660496D01*
X59168496Y-29753690D01*
X59102609Y-29867809D01*
X59093115Y-29903241D01*
X59068500Y-29995108D01*
X31131888Y-29995108D01*
X31694772Y-29477634D01*
X31696992Y-29475655D01*
X31722150Y-29453890D01*
X31802810Y-29384108D01*
X40099500Y-29384108D01*
X40099500Y-29515892D01*
X40110410Y-29556608D01*
X40133609Y-29643190D01*
X40199496Y-29757309D01*
X40199498Y-29757311D01*
X40199500Y-29757314D01*
X40292686Y-29850500D01*
X40292688Y-29850501D01*
X40292690Y-29850503D01*
X40406810Y-29916390D01*
X40406808Y-29916390D01*
X40406812Y-29916391D01*
X40406814Y-29916392D01*
X40534108Y-29950500D01*
X40534110Y-29950500D01*
X40665890Y-29950500D01*
X40665892Y-29950500D01*
X40793186Y-29916392D01*
X40793188Y-29916390D01*
X40793190Y-29916390D01*
X40907309Y-29850503D01*
X40907309Y-29850502D01*
X40907314Y-29850500D01*
X41000500Y-29757314D01*
X41033302Y-29700500D01*
X41066390Y-29643190D01*
X41066390Y-29643188D01*
X41066392Y-29643186D01*
X41100500Y-29515892D01*
X41100500Y-29384108D01*
X41066392Y-29256814D01*
X41066390Y-29256811D01*
X41066390Y-29256809D01*
X41045537Y-29220691D01*
X43139500Y-29220691D01*
X43139500Y-29339309D01*
X43162164Y-29423890D01*
X43170202Y-29453890D01*
X43229507Y-29556608D01*
X43229509Y-29556610D01*
X43229511Y-29556613D01*
X43313387Y-29640489D01*
X43313389Y-29640490D01*
X43313391Y-29640492D01*
X43416110Y-29699797D01*
X43416111Y-29699797D01*
X43416114Y-29699799D01*
X43530691Y-29730500D01*
X43530693Y-29730500D01*
X43649307Y-29730500D01*
X43649309Y-29730500D01*
X43763886Y-29699799D01*
X43763888Y-29699797D01*
X43763890Y-29699797D01*
X43866608Y-29640492D01*
X43866608Y-29640491D01*
X43866613Y-29640489D01*
X43950489Y-29556613D01*
X43967813Y-29526608D01*
X44009797Y-29453890D01*
X44009797Y-29453888D01*
X44009799Y-29453886D01*
X44028496Y-29384108D01*
X47049500Y-29384108D01*
X47049500Y-29515892D01*
X47060410Y-29556608D01*
X47083609Y-29643190D01*
X47149496Y-29757309D01*
X47149498Y-29757311D01*
X47149500Y-29757314D01*
X47242686Y-29850500D01*
X47242688Y-29850501D01*
X47242690Y-29850503D01*
X47356810Y-29916390D01*
X47356808Y-29916390D01*
X47356812Y-29916391D01*
X47356814Y-29916392D01*
X47484108Y-29950500D01*
X47484110Y-29950500D01*
X47615890Y-29950500D01*
X47615892Y-29950500D01*
X47743186Y-29916392D01*
X47766586Y-29902882D01*
X47766589Y-29902881D01*
X47857309Y-29850503D01*
X47857309Y-29850502D01*
X47857314Y-29850500D01*
X47950500Y-29757314D01*
X47983302Y-29700500D01*
X48016390Y-29643190D01*
X48016390Y-29643188D01*
X48016392Y-29643186D01*
X48050500Y-29515892D01*
X48050500Y-29384108D01*
X48016392Y-29256814D01*
X48016390Y-29256811D01*
X48016390Y-29256809D01*
X48003049Y-29233702D01*
X47978216Y-29190691D01*
X49299500Y-29190691D01*
X49299500Y-29309309D01*
X49319543Y-29384109D01*
X49330202Y-29423890D01*
X49389507Y-29526608D01*
X49389509Y-29526610D01*
X49389511Y-29526613D01*
X49473387Y-29610489D01*
X49473389Y-29610490D01*
X49473391Y-29610492D01*
X49576110Y-29669797D01*
X49576111Y-29669797D01*
X49576114Y-29669799D01*
X49690691Y-29700500D01*
X49690693Y-29700500D01*
X49809307Y-29700500D01*
X49809309Y-29700500D01*
X49923886Y-29669799D01*
X49923888Y-29669797D01*
X49923890Y-29669797D01*
X50026608Y-29610492D01*
X50026608Y-29610491D01*
X50026613Y-29610489D01*
X50110489Y-29526613D01*
X50135318Y-29483609D01*
X50164264Y-29433474D01*
X50209733Y-29392533D01*
X50270584Y-29386137D01*
X50323572Y-29416730D01*
X50335736Y-29433474D01*
X50389507Y-29526608D01*
X50389509Y-29526610D01*
X50389511Y-29526613D01*
X50473387Y-29610489D01*
X50473389Y-29610490D01*
X50473391Y-29610492D01*
X50576110Y-29669797D01*
X50576111Y-29669797D01*
X50576114Y-29669799D01*
X50690691Y-29700500D01*
X50690693Y-29700500D01*
X50809307Y-29700500D01*
X50809309Y-29700500D01*
X50923886Y-29669799D01*
X50923888Y-29669797D01*
X50923890Y-29669797D01*
X51026608Y-29610492D01*
X51026608Y-29610491D01*
X51026613Y-29610489D01*
X51110489Y-29526613D01*
X51152476Y-29453890D01*
X51169797Y-29423890D01*
X51169797Y-29423888D01*
X51169799Y-29423886D01*
X51200500Y-29309309D01*
X51200500Y-29190691D01*
X51169799Y-29076114D01*
X51169797Y-29076111D01*
X51169797Y-29076109D01*
X51110492Y-28973391D01*
X51110490Y-28973389D01*
X51110489Y-28973387D01*
X51026613Y-28889511D01*
X51026610Y-28889509D01*
X51026608Y-28889507D01*
X50923889Y-28830202D01*
X50923890Y-28830202D01*
X50891589Y-28821547D01*
X50809309Y-28799500D01*
X50690691Y-28799500D01*
X50620567Y-28818289D01*
X50576109Y-28830202D01*
X50473391Y-28889507D01*
X50389509Y-28973389D01*
X50335736Y-29066526D01*
X50290266Y-29107466D01*
X50229416Y-29113861D01*
X50176428Y-29083268D01*
X50164264Y-29066526D01*
X50110490Y-28973389D01*
X50110489Y-28973387D01*
X50026613Y-28889511D01*
X50026610Y-28889509D01*
X50026608Y-28889507D01*
X49923889Y-28830202D01*
X49923890Y-28830202D01*
X49891589Y-28821547D01*
X49809309Y-28799500D01*
X49690691Y-28799500D01*
X49620567Y-28818289D01*
X49576109Y-28830202D01*
X49473391Y-28889507D01*
X49389507Y-28973391D01*
X49330202Y-29076109D01*
X49330201Y-29076114D01*
X49299500Y-29190691D01*
X47978216Y-29190691D01*
X47950503Y-29142690D01*
X47950501Y-29142688D01*
X47950500Y-29142686D01*
X47857314Y-29049500D01*
X47857311Y-29049498D01*
X47857309Y-29049496D01*
X47743189Y-28983609D01*
X47743191Y-28983609D01*
X47693799Y-28970375D01*
X47615892Y-28949500D01*
X47484108Y-28949500D01*
X47406200Y-28970375D01*
X47356809Y-28983609D01*
X47242690Y-29049496D01*
X47149496Y-29142690D01*
X47083609Y-29256809D01*
X47083608Y-29256814D01*
X47049500Y-29384108D01*
X44028496Y-29384108D01*
X44040500Y-29339309D01*
X44040500Y-29220691D01*
X44009799Y-29106114D01*
X44009797Y-29106111D01*
X44009797Y-29106109D01*
X43950492Y-29003391D01*
X43950490Y-29003389D01*
X43950489Y-29003387D01*
X43866613Y-28919511D01*
X43866610Y-28919509D01*
X43866608Y-28919507D01*
X43763889Y-28860202D01*
X43763890Y-28860202D01*
X43747711Y-28855867D01*
X43649309Y-28829500D01*
X43530691Y-28829500D01*
X43460567Y-28848289D01*
X43416109Y-28860202D01*
X43313391Y-28919507D01*
X43229507Y-29003391D01*
X43170202Y-29106109D01*
X43160400Y-29142690D01*
X43139500Y-29220691D01*
X41045537Y-29220691D01*
X41000503Y-29142690D01*
X41000501Y-29142688D01*
X41000500Y-29142686D01*
X40907314Y-29049500D01*
X40907311Y-29049498D01*
X40907309Y-29049496D01*
X40793189Y-28983609D01*
X40793191Y-28983609D01*
X40743799Y-28970375D01*
X40665892Y-28949500D01*
X40534108Y-28949500D01*
X40456200Y-28970375D01*
X40406809Y-28983609D01*
X40292690Y-29049496D01*
X40199496Y-29142690D01*
X40133609Y-29256809D01*
X40133608Y-29256814D01*
X40099500Y-29384108D01*
X31802810Y-29384108D01*
X32322253Y-28934717D01*
X32324449Y-28932874D01*
X32965801Y-28410999D01*
X32968043Y-28409230D01*
X33624851Y-27906937D01*
X33627163Y-27905225D01*
X33726213Y-27834108D01*
X37049500Y-27834108D01*
X37049500Y-27965892D01*
X37060598Y-28007309D01*
X37083609Y-28093190D01*
X37149496Y-28207309D01*
X37149498Y-28207311D01*
X37149500Y-28207314D01*
X37242686Y-28300500D01*
X37242688Y-28300501D01*
X37242690Y-28300503D01*
X37356810Y-28366390D01*
X37356808Y-28366390D01*
X37356812Y-28366391D01*
X37356814Y-28366392D01*
X37484108Y-28400500D01*
X37484110Y-28400500D01*
X37615890Y-28400500D01*
X37615892Y-28400500D01*
X37743186Y-28366392D01*
X37743188Y-28366390D01*
X37743190Y-28366390D01*
X37857309Y-28300503D01*
X37857309Y-28300502D01*
X37857314Y-28300500D01*
X37950500Y-28207314D01*
X37973981Y-28166644D01*
X38016390Y-28093190D01*
X38016390Y-28093188D01*
X38016392Y-28093186D01*
X38050500Y-27965892D01*
X38050500Y-27834108D01*
X38016392Y-27706814D01*
X37974415Y-27634108D01*
X56126500Y-27634108D01*
X56126500Y-27765892D01*
X56144778Y-27834108D01*
X56160609Y-27893190D01*
X56226496Y-28007309D01*
X56226498Y-28007311D01*
X56226500Y-28007314D01*
X56319686Y-28100500D01*
X56319688Y-28100501D01*
X56319690Y-28100503D01*
X56433810Y-28166390D01*
X56433808Y-28166390D01*
X56433812Y-28166391D01*
X56433814Y-28166392D01*
X56561108Y-28200500D01*
X56561110Y-28200500D01*
X56692890Y-28200500D01*
X56692892Y-28200500D01*
X56820186Y-28166392D01*
X56820188Y-28166390D01*
X56820190Y-28166390D01*
X56934309Y-28100503D01*
X56934309Y-28100502D01*
X56934314Y-28100500D01*
X57027500Y-28007314D01*
X57085951Y-27906074D01*
X57093390Y-27893190D01*
X57093390Y-27893188D01*
X57093392Y-27893186D01*
X57127500Y-27765892D01*
X57127500Y-27634108D01*
X57093392Y-27506814D01*
X57093390Y-27506811D01*
X57093390Y-27506809D01*
X57027503Y-27392690D01*
X57027501Y-27392688D01*
X57027500Y-27392686D01*
X56934314Y-27299500D01*
X56934311Y-27299498D01*
X56934309Y-27299496D01*
X56820189Y-27233609D01*
X56820191Y-27233609D01*
X56754068Y-27215892D01*
X56692892Y-27199500D01*
X56561108Y-27199500D01*
X56499932Y-27215892D01*
X56433809Y-27233609D01*
X56319690Y-27299496D01*
X56226496Y-27392690D01*
X56160609Y-27506809D01*
X56160608Y-27506814D01*
X56126500Y-27634108D01*
X37974415Y-27634108D01*
X37950500Y-27592686D01*
X37857314Y-27499500D01*
X37857311Y-27499498D01*
X37857309Y-27499496D01*
X37743189Y-27433609D01*
X37743191Y-27433609D01*
X37693799Y-27420375D01*
X37615892Y-27399500D01*
X37484108Y-27399500D01*
X37406200Y-27420375D01*
X37356809Y-27433609D01*
X37242690Y-27499496D01*
X37149496Y-27592690D01*
X37083609Y-27706809D01*
X37083608Y-27706814D01*
X37049500Y-27834108D01*
X33726213Y-27834108D01*
X34298757Y-27423025D01*
X34301146Y-27421363D01*
X34988230Y-26958802D01*
X34988229Y-26958801D01*
X34988230Y-26958801D01*
X34768661Y-26621790D01*
X34768659Y-26621788D01*
X34737677Y-26574234D01*
X46534500Y-26574234D01*
X46534500Y-26725766D01*
X46565828Y-26842686D01*
X46573720Y-26872139D01*
X46649481Y-27003360D01*
X46649483Y-27003362D01*
X46649485Y-27003365D01*
X46756635Y-27110515D01*
X46756637Y-27110516D01*
X46756639Y-27110518D01*
X46887861Y-27186279D01*
X46887859Y-27186279D01*
X46887863Y-27186280D01*
X46887865Y-27186281D01*
X47034234Y-27225500D01*
X47034236Y-27225500D01*
X47185764Y-27225500D01*
X47185766Y-27225500D01*
X47332135Y-27186281D01*
X47332137Y-27186279D01*
X47332139Y-27186279D01*
X47463360Y-27110518D01*
X47463360Y-27110517D01*
X47463365Y-27110515D01*
X47570515Y-27003365D01*
X47596244Y-26958801D01*
X47646279Y-26872139D01*
X47646279Y-26872137D01*
X47646281Y-26872135D01*
X47685500Y-26725766D01*
X47685500Y-26574234D01*
X52314500Y-26574234D01*
X52314500Y-26725766D01*
X52345828Y-26842686D01*
X52353720Y-26872139D01*
X52429481Y-27003360D01*
X52429483Y-27003362D01*
X52429485Y-27003365D01*
X52536635Y-27110515D01*
X52536637Y-27110516D01*
X52536639Y-27110518D01*
X52667861Y-27186279D01*
X52667859Y-27186279D01*
X52667863Y-27186280D01*
X52667865Y-27186281D01*
X52814234Y-27225500D01*
X52814236Y-27225500D01*
X52965764Y-27225500D01*
X52965766Y-27225500D01*
X53112135Y-27186281D01*
X53112137Y-27186279D01*
X53112139Y-27186279D01*
X53243360Y-27110518D01*
X53243360Y-27110517D01*
X53243365Y-27110515D01*
X53269772Y-27084108D01*
X57249500Y-27084108D01*
X57249500Y-27215892D01*
X57279579Y-27328151D01*
X57283609Y-27343190D01*
X57349496Y-27457309D01*
X57349498Y-27457311D01*
X57349500Y-27457314D01*
X57442686Y-27550500D01*
X57442688Y-27550501D01*
X57442690Y-27550503D01*
X57556810Y-27616390D01*
X57556808Y-27616390D01*
X57556812Y-27616391D01*
X57556814Y-27616392D01*
X57684108Y-27650500D01*
X57684110Y-27650500D01*
X57815890Y-27650500D01*
X57815892Y-27650500D01*
X57943186Y-27616392D01*
X57943188Y-27616390D01*
X57943190Y-27616390D01*
X58057309Y-27550503D01*
X58057309Y-27550502D01*
X58057314Y-27550500D01*
X58150500Y-27457314D01*
X58170795Y-27422162D01*
X58216390Y-27343190D01*
X58216390Y-27343188D01*
X58216392Y-27343186D01*
X58250500Y-27215892D01*
X58250500Y-27084108D01*
X58216392Y-26956814D01*
X58216390Y-26956811D01*
X58216390Y-26956809D01*
X58150503Y-26842690D01*
X58150501Y-26842688D01*
X58150500Y-26842686D01*
X58057314Y-26749500D01*
X58057311Y-26749498D01*
X58057309Y-26749496D01*
X57943189Y-26683609D01*
X57943191Y-26683609D01*
X57893799Y-26670375D01*
X57815892Y-26649500D01*
X57684108Y-26649500D01*
X57606200Y-26670375D01*
X57556809Y-26683609D01*
X57442690Y-26749496D01*
X57349496Y-26842690D01*
X57283609Y-26956809D01*
X57283075Y-26958802D01*
X57249500Y-27084108D01*
X53269772Y-27084108D01*
X53350515Y-27003365D01*
X53376244Y-26958801D01*
X53426279Y-26872139D01*
X53426279Y-26872137D01*
X53426281Y-26872135D01*
X53465500Y-26725766D01*
X53465500Y-26574234D01*
X53426281Y-26427865D01*
X53372150Y-26334108D01*
X59099500Y-26334108D01*
X59099500Y-26465892D01*
X59116743Y-26530243D01*
X59133609Y-26593190D01*
X59199496Y-26707309D01*
X59199498Y-26707311D01*
X59199500Y-26707314D01*
X59292686Y-26800500D01*
X59292688Y-26800501D01*
X59292690Y-26800503D01*
X59406810Y-26866390D01*
X59406808Y-26866390D01*
X59406812Y-26866391D01*
X59406814Y-26866392D01*
X59534108Y-26900500D01*
X59534110Y-26900500D01*
X59665890Y-26900500D01*
X59665892Y-26900500D01*
X59793186Y-26866392D01*
X59793188Y-26866390D01*
X59793190Y-26866390D01*
X59907309Y-26800503D01*
X59907309Y-26800502D01*
X59907314Y-26800500D01*
X60000500Y-26707314D01*
X60033879Y-26649500D01*
X60066390Y-26593190D01*
X60066390Y-26593188D01*
X60066392Y-26593186D01*
X60100500Y-26465892D01*
X60100500Y-26334108D01*
X60066392Y-26206814D01*
X60066390Y-26206811D01*
X60066390Y-26206809D01*
X60000503Y-26092690D01*
X60000501Y-26092688D01*
X60000500Y-26092686D01*
X59907314Y-25999500D01*
X59907311Y-25999498D01*
X59907309Y-25999496D01*
X59793189Y-25933609D01*
X59793191Y-25933609D01*
X59743799Y-25920375D01*
X59665892Y-25899500D01*
X59534108Y-25899500D01*
X59456200Y-25920375D01*
X59406809Y-25933609D01*
X59292690Y-25999496D01*
X59199496Y-26092690D01*
X59133609Y-26206809D01*
X59133608Y-26206814D01*
X59099500Y-26334108D01*
X53372150Y-26334108D01*
X53350515Y-26296635D01*
X53243365Y-26189485D01*
X53243362Y-26189483D01*
X53243360Y-26189481D01*
X53112138Y-26113720D01*
X53112140Y-26113720D01*
X53055347Y-26098503D01*
X52965766Y-26074500D01*
X52814234Y-26074500D01*
X52724652Y-26098503D01*
X52667860Y-26113720D01*
X52536639Y-26189481D01*
X52429481Y-26296639D01*
X52353720Y-26427860D01*
X52353719Y-26427865D01*
X52314500Y-26574234D01*
X47685500Y-26574234D01*
X47646281Y-26427865D01*
X47646279Y-26427862D01*
X47646279Y-26427860D01*
X47570518Y-26296639D01*
X47570516Y-26296637D01*
X47570515Y-26296635D01*
X47463365Y-26189485D01*
X47463362Y-26189483D01*
X47463360Y-26189481D01*
X47332138Y-26113720D01*
X47332140Y-26113720D01*
X47275347Y-26098503D01*
X47185766Y-26074500D01*
X47034234Y-26074500D01*
X46944652Y-26098503D01*
X46887860Y-26113720D01*
X46756639Y-26189481D01*
X46649481Y-26296639D01*
X46573720Y-26427860D01*
X46573719Y-26427865D01*
X46534500Y-26574234D01*
X34737677Y-26574234D01*
X34709016Y-26530243D01*
X34498828Y-26207631D01*
X34482905Y-26148557D01*
X34504747Y-26091403D01*
X34527876Y-26070551D01*
X34901951Y-25827757D01*
X34904795Y-25825981D01*
X35754750Y-25315566D01*
X35757679Y-25313876D01*
X36624863Y-24833473D01*
X36627871Y-24831874D01*
X36819867Y-24734108D01*
X41899500Y-24734108D01*
X41899500Y-24865892D01*
X41929579Y-24978151D01*
X41933609Y-24993190D01*
X41999496Y-25107309D01*
X41999498Y-25107311D01*
X41999500Y-25107314D01*
X42092686Y-25200500D01*
X42092688Y-25200501D01*
X42092690Y-25200503D01*
X42206810Y-25266390D01*
X42206808Y-25266390D01*
X42206812Y-25266391D01*
X42206814Y-25266392D01*
X42334108Y-25300500D01*
X42334110Y-25300500D01*
X42465890Y-25300500D01*
X42465892Y-25300500D01*
X42593186Y-25266392D01*
X42593188Y-25266390D01*
X42593190Y-25266390D01*
X42707309Y-25200503D01*
X42707309Y-25200502D01*
X42707314Y-25200500D01*
X42800500Y-25107314D01*
X42866392Y-24993186D01*
X42900500Y-24865892D01*
X42900500Y-24734108D01*
X42866392Y-24606814D01*
X42866390Y-24606811D01*
X42866390Y-24606809D01*
X42800503Y-24492690D01*
X42800501Y-24492688D01*
X42800500Y-24492686D01*
X42707314Y-24399500D01*
X42707311Y-24399498D01*
X42707309Y-24399496D01*
X42593189Y-24333609D01*
X42593191Y-24333609D01*
X42543799Y-24320375D01*
X42465892Y-24299500D01*
X42334108Y-24299500D01*
X42256200Y-24320375D01*
X42206809Y-24333609D01*
X42092690Y-24399496D01*
X41999496Y-24492690D01*
X41933609Y-24606809D01*
X41933608Y-24606814D01*
X41899500Y-24734108D01*
X36819867Y-24734108D01*
X37511358Y-24381994D01*
X37514354Y-24380533D01*
X38412982Y-23961770D01*
X38416092Y-23960387D01*
X39328825Y-23573225D01*
X39331918Y-23571977D01*
X40257568Y-23216920D01*
X40260728Y-23215770D01*
X41198205Y-22893233D01*
X41201442Y-22892182D01*
X42149577Y-22602568D01*
X42152829Y-22601636D01*
X43110503Y-22345286D01*
X43113834Y-22344456D01*
X44079815Y-22121697D01*
X44083184Y-22120982D01*
X45056396Y-21932062D01*
X45059760Y-21931470D01*
X45960900Y-21788975D01*
X46038942Y-21776635D01*
X46042356Y-21776155D01*
X47026352Y-21655586D01*
X47029758Y-21655229D01*
X48017333Y-21569077D01*
X48020761Y-21568837D01*
X49010854Y-21517198D01*
X49014187Y-21517082D01*
X49998326Y-21500029D01*
X50001661Y-21500029D01*
X50992921Y-21517331D01*
G37*
%TD.AperFunction*%
%TD*%
M02*
