%TF.GenerationSoftware,KiCad,Pcbnew,10.0.6*%
%TF.CreationDate,2026-10-07T14:05:57+02:00*%
%TF.ProjectId,MAO_MAIN_A1,4d414f5f-4d41-4494-9e5f-41312e6b6963,A1*%
%TF.SameCoordinates,Original*%
%TF.FileFunction,Legend,Top*%
%TF.FilePolarity,Positive*%
%FSLAX46Y46*%
G04 Gerber Fmt 4.6, Leading zero omitted, Abs format (unit mm)*
G04 Created by KiCad (PCBNEW 10.0.6) date 2026-10-07 14:05:57*
%MOMM*%
%LPD*%
G01*
G04 APERTURE LIST*
G04 Aperture macros list*
%AMRoundRect*
0 Rectangle with rounded corners*
0 $1 Rounding radius*
0 $2 $3 $4 $5 $6 $7 $8 $9 X,Y pos of 4 corners*
0 Add a 4 corners polygon primitive as box body*
4,1,4,$2,$3,$4,$5,$6,$7,$8,$9,$2,$3,0*
0 Add four circle primitives for the rounded corners*
1,1,$1+$1,$2,$3*
1,1,$1+$1,$4,$5*
1,1,$1+$1,$6,$7*
1,1,$1+$1,$8,$9*
0 Add four rect primitives between the rounded corners*
20,1,$1+$1,$2,$3,$4,$5,0*
20,1,$1+$1,$4,$5,$6,$7,0*
20,1,$1+$1,$6,$7,$8,$9,0*
20,1,$1+$1,$8,$9,$2,$3,0*%
%AMRotRect*
0 Rectangle, with rotation*
0 The origin of the aperture is its center*
0 $1 length*
0 $2 width*
0 $3 Rotation angle, in degrees counterclockwise*
0 Add horizontal line*
21,1,$1,$2,0,0,$3*%
G04 Aperture macros list end*
%ADD10C,0.000000*%
%ADD11C,0.150000*%
%ADD12C,0.300000*%
%ADD13C,0.120000*%
%ADD14C,2.000000*%
%ADD15RoundRect,0.135000X-0.135000X-0.185000X0.135000X-0.185000X0.135000X0.185000X-0.135000X0.185000X0*%
%ADD16RoundRect,0.225000X-0.225000X-0.250000X0.225000X-0.250000X0.225000X0.250000X-0.225000X0.250000X0*%
%ADD17RoundRect,0.140000X-0.140000X-0.170000X0.140000X-0.170000X0.140000X0.170000X-0.140000X0.170000X0*%
%ADD18RoundRect,0.225000X0.250000X-0.225000X0.250000X0.225000X-0.250000X0.225000X-0.250000X-0.225000X0*%
%ADD19RoundRect,0.135000X0.185000X-0.135000X0.185000X0.135000X-0.185000X0.135000X-0.185000X-0.135000X0*%
%ADD20RoundRect,0.135000X-0.185000X0.135000X-0.185000X-0.135000X0.185000X-0.135000X0.185000X0.135000X0*%
%ADD21C,0.330000*%
%ADD22RoundRect,0.140000X0.140000X0.170000X-0.140000X0.170000X-0.140000X-0.170000X0.140000X-0.170000X0*%
%ADD23RoundRect,0.135000X0.135000X0.185000X-0.135000X0.185000X-0.135000X-0.185000X0.135000X-0.185000X0*%
%ADD24RoundRect,0.140000X0.170000X-0.140000X0.170000X0.140000X-0.170000X0.140000X-0.170000X-0.140000X0*%
%ADD25RoundRect,0.050000X0.325000X0.050000X-0.325000X0.050000X-0.325000X-0.050000X0.325000X-0.050000X0*%
%ADD26R,0.900000X1.500000*%
%ADD27RotRect,1.800000X1.100000X35.000000*%
%ADD28RoundRect,0.225000X-0.250000X0.225000X-0.250000X-0.225000X0.250000X-0.225000X0.250000X0.225000X0*%
%ADD29RoundRect,0.087500X-0.087500X0.250000X-0.087500X-0.250000X0.087500X-0.250000X0.087500X0.250000X0*%
%ADD30RoundRect,0.275000X-0.475000X-0.275000X0.475000X-0.275000X0.475000X0.275000X-0.475000X0.275000X0*%
%ADD31RoundRect,0.140000X-0.170000X0.140000X-0.170000X-0.140000X0.170000X-0.140000X0.170000X0.140000X0*%
%ADD32RoundRect,0.087500X-0.225000X-0.087500X0.225000X-0.087500X0.225000X0.087500X-0.225000X0.087500X0*%
%ADD33RoundRect,0.087500X-0.087500X-0.225000X0.087500X-0.225000X0.087500X0.225000X-0.087500X0.225000X0*%
%ADD34RoundRect,0.062500X-0.152780X0.160377X-0.215280X0.052123X0.152780X-0.160377X0.215280X-0.052123X0*%
%ADD35RotRect,0.800000X0.600000X240.000000*%
%ADD36RotRect,0.500000X0.500000X118.000000*%
%ADD37RotRect,1.800000X1.100000X245.000000*%
%ADD38C,2.200000*%
%ADD39RoundRect,0.062500X-0.135180X0.175468X-0.208653X0.074341X0.135180X-0.175468X0.208653X-0.074341X0*%
%ADD40RotRect,0.800000X0.600000X234.000000*%
%ADD41RoundRect,0.150000X0.150000X-0.587500X0.150000X0.587500X-0.150000X0.587500X-0.150000X-0.587500X0*%
%ADD42RotRect,1.800000X1.100000X275.000000*%
%ADD43C,0.650000*%
%ADD44O,1.000000X1.600000*%
%ADD45O,1.000000X2.100000*%
%ADD46C,0.990600*%
G04 APERTURE END LIST*
D10*
G36*
X24841700Y-47738700D02*
G01*
X24876300Y-47767700D01*
X24898900Y-47806800D01*
X24906700Y-47851300D01*
X24898900Y-47895700D01*
X24876300Y-47934800D01*
X24841700Y-47963800D01*
X24799300Y-47979300D01*
X24754100Y-47979300D01*
X24711700Y-47963800D01*
X24677100Y-47934800D01*
X24654600Y-47895700D01*
X24646700Y-47851300D01*
X24654600Y-47806800D01*
X24677100Y-47767700D01*
X24711700Y-47738700D01*
X24754100Y-47723200D01*
X24799300Y-47723200D01*
X24841700Y-47738700D01*
G37*
G36*
X24986400Y-47449600D02*
G01*
X25033400Y-47484900D01*
X25077600Y-47502700D01*
X25116100Y-47505800D01*
X25157200Y-47495900D01*
X25179900Y-47484900D01*
X25227000Y-47449700D01*
X25248400Y-47420700D01*
X25386000Y-47520500D01*
X25328800Y-47596800D01*
X25292100Y-47634100D01*
X25247600Y-47666300D01*
X25195500Y-47690900D01*
X25137100Y-47704500D01*
X25076100Y-47704400D01*
X25017700Y-47690800D01*
X24965700Y-47666200D01*
X24921300Y-47633900D01*
X24884500Y-47596700D01*
X24828400Y-47521900D01*
X24965000Y-47420600D01*
X24986400Y-47449600D01*
G37*
G36*
X66082699Y-40253000D02*
G01*
X66242400Y-40274400D01*
X66378800Y-40310100D01*
X66512599Y-40363300D01*
X66631800Y-40432900D01*
X66714199Y-40500400D01*
X66762999Y-40559300D01*
X66788000Y-40602800D01*
X66806999Y-40649700D01*
X66819999Y-40700000D01*
X66746600Y-40745200D01*
X66676300Y-40772900D01*
X66631199Y-40781600D01*
X66566199Y-40780300D01*
X66504300Y-40766100D01*
X66464800Y-40750100D01*
X66408199Y-40716300D01*
X66319599Y-40640900D01*
X66252399Y-40572100D01*
X66104500Y-40404500D01*
X65944999Y-40250000D01*
X66082699Y-40253000D01*
G37*
G36*
X24237000Y-47431300D02*
G01*
X24284500Y-47470500D01*
X24331600Y-47494400D01*
X24375300Y-47503500D01*
X24417800Y-47499800D01*
X24463700Y-47481500D01*
X24509900Y-47445800D01*
X24528400Y-47420700D01*
X24665000Y-47521800D01*
X24610800Y-47592500D01*
X24573600Y-47629500D01*
X24529800Y-47661300D01*
X24478900Y-47685800D01*
X24422600Y-47700400D01*
X24363900Y-47703100D01*
X24306400Y-47693900D01*
X24253100Y-47674200D01*
X24205800Y-47646200D01*
X24165700Y-47612500D01*
X24131700Y-47575400D01*
X24077700Y-47500800D01*
X24215800Y-47401700D01*
X24237000Y-47431300D01*
G37*
G36*
X69315000Y-39977500D02*
G01*
X69398200Y-39993500D01*
X69503199Y-40032000D01*
X69593700Y-40083200D01*
X69638600Y-40119000D01*
X69660400Y-40143000D01*
X69675400Y-40167000D01*
X69683600Y-40191000D01*
X69684200Y-40224200D01*
X69673000Y-40254200D01*
X69648200Y-40287800D01*
X69594699Y-40338000D01*
X69526900Y-40390000D01*
X69448700Y-40442000D01*
X69255500Y-40549400D01*
X69133299Y-40604400D01*
X69039999Y-40635000D01*
X68970000Y-40640000D01*
X68810000Y-40635000D01*
X68740000Y-40660000D01*
X68764400Y-40591600D01*
X68805600Y-40530400D01*
X69033600Y-40322100D01*
X69084600Y-40262100D01*
X69115000Y-40215000D01*
X69109299Y-40190500D01*
X69093300Y-40165500D01*
X69005000Y-40115000D01*
X69033600Y-40042100D01*
X69060000Y-40015000D01*
X69120600Y-40006300D01*
X69214900Y-39981100D01*
X69256800Y-39976000D01*
X69315000Y-39977500D01*
G37*
G36*
X25541700Y-48609000D02*
G01*
X25636900Y-48617300D01*
X25684800Y-48625000D01*
X25729200Y-48646800D01*
X25835300Y-48756000D01*
X25874000Y-48779700D01*
X25959800Y-48821300D01*
X25997400Y-48851500D01*
X26080700Y-48974800D01*
X25931900Y-49057100D01*
X25904800Y-49022700D01*
X25870600Y-48964700D01*
X25842900Y-48944800D01*
X25804500Y-48939300D01*
X25727400Y-48945800D01*
X25701300Y-48933500D01*
X25653600Y-48888900D01*
X25623900Y-48876300D01*
X25559100Y-48871200D01*
X25527000Y-48860900D01*
X25458200Y-48821900D01*
X25421400Y-48813700D01*
X25385800Y-48821300D01*
X25352300Y-48838100D01*
X25321700Y-48862100D01*
X25290000Y-48877500D01*
X25220800Y-48891400D01*
X25187300Y-48908500D01*
X25115500Y-48754400D01*
X25153000Y-48735500D01*
X25238500Y-48715500D01*
X25278500Y-48697700D01*
X25316800Y-48667900D01*
X25355600Y-48627500D01*
X25399300Y-48599700D01*
X25446500Y-48591300D01*
X25541700Y-48609000D01*
G37*
G36*
X66635499Y-40899300D02*
G01*
X66661099Y-40918000D01*
X66681699Y-40941200D01*
X66751299Y-41042700D01*
X66774599Y-41062200D01*
X66804099Y-41076300D01*
X66840000Y-41085000D01*
X66840800Y-41089100D01*
X66838799Y-41110800D01*
X66818400Y-41157800D01*
X66819999Y-41185000D01*
X66724599Y-41248600D01*
X66606299Y-41364300D01*
X66530800Y-41427600D01*
X66467199Y-41462400D01*
X66389999Y-41490000D01*
X66389999Y-41555000D01*
X66301700Y-41573500D01*
X66222899Y-41574800D01*
X66175600Y-41566200D01*
X66132499Y-41550000D01*
X66013999Y-41481000D01*
X65869999Y-41370000D01*
X65884400Y-41340000D01*
X65886699Y-41308100D01*
X65865799Y-41260100D01*
X65830099Y-41202900D01*
X65820499Y-41166700D01*
X65819999Y-41155000D01*
X65849799Y-41133000D01*
X65869400Y-41123800D01*
X65898399Y-41118200D01*
X65965599Y-41132500D01*
X66115700Y-41183400D01*
X66175000Y-41185000D01*
X66227000Y-41171700D01*
X66274900Y-41149900D01*
X66318799Y-41119500D01*
X66478100Y-40964400D01*
X66518599Y-40930300D01*
X66560900Y-40903800D01*
X66604999Y-40885000D01*
X66635499Y-40899300D01*
G37*
G36*
X68935000Y-40763400D02*
G01*
X69059500Y-40810700D01*
X69211599Y-40888300D01*
X69350000Y-40978100D01*
X69445399Y-41052300D01*
X69505000Y-41105000D01*
X69505400Y-41131800D01*
X69514600Y-41156200D01*
X69612400Y-41268800D01*
X69623600Y-41299200D01*
X69624100Y-41323200D01*
X69610599Y-41351000D01*
X69592599Y-41372000D01*
X69535000Y-41420000D01*
X69533800Y-41408700D01*
X69547100Y-41355900D01*
X69544999Y-41320000D01*
X69531399Y-41331600D01*
X69524300Y-41345000D01*
X69505000Y-41420000D01*
X69473400Y-41405200D01*
X69426600Y-41400800D01*
X69255000Y-41420000D01*
X69250100Y-41407200D01*
X69252600Y-41396300D01*
X69285000Y-41378700D01*
X69289999Y-41370000D01*
X69214100Y-41358800D01*
X69175199Y-41342400D01*
X69161099Y-41326800D01*
X69181300Y-41313800D01*
X69185000Y-41305000D01*
X69164999Y-41255000D01*
X69151299Y-41270600D01*
X69149999Y-41305000D01*
X69106900Y-41293100D01*
X69082300Y-41273700D01*
X69020699Y-41181300D01*
X69002000Y-41167000D01*
X68970000Y-41155000D01*
X68976199Y-41103200D01*
X68973800Y-41071200D01*
X68953399Y-41013300D01*
X68896200Y-40937500D01*
X68766700Y-40797800D01*
X68735000Y-40750000D01*
X68737500Y-40728700D01*
X68755000Y-40715000D01*
X68935000Y-40763400D01*
G37*
G36*
X35741128Y-48299352D02*
G01*
X35843628Y-48368852D01*
X35897928Y-48420152D01*
X35956328Y-48502552D01*
X35998428Y-48601052D01*
X36015228Y-48687452D01*
X36017628Y-48785452D01*
X36005628Y-48894852D01*
X36048228Y-48911152D01*
X36104128Y-48914452D01*
X36159128Y-48901952D01*
X36213628Y-48874852D01*
X36465628Y-48990252D01*
X36528028Y-49027452D01*
X36561628Y-49054652D01*
X36600028Y-49099052D01*
X36620828Y-49145252D01*
X36622228Y-49161652D01*
X36617828Y-49171252D01*
X36552828Y-49198552D01*
X36485628Y-49211952D01*
X36320828Y-49218452D01*
X36083328Y-49217452D01*
X36020128Y-49224352D01*
X35945628Y-49242852D01*
X35917328Y-49287252D01*
X35894728Y-49338852D01*
X35853828Y-49498852D01*
X35818228Y-49580852D01*
X35794128Y-49616852D01*
X35770128Y-49640052D01*
X35742128Y-49656152D01*
X35716328Y-49661852D01*
X35649628Y-49654852D01*
X35646928Y-49634252D01*
X35644928Y-49566152D01*
X35666428Y-49365952D01*
X35669628Y-49274852D01*
X35568628Y-49265352D01*
X35486428Y-49267152D01*
X35180828Y-49303752D01*
X35005628Y-49318852D01*
X34980628Y-49350852D01*
X34963428Y-49395652D01*
X34949028Y-49481452D01*
X34934428Y-49617352D01*
X34918528Y-49681052D01*
X34902728Y-49716352D01*
X34886128Y-49738152D01*
X34865628Y-49752852D01*
X34839428Y-49757352D01*
X34785628Y-49738852D01*
X34775128Y-49706452D01*
X34749828Y-49586752D01*
X34729628Y-49378852D01*
X34672728Y-49381352D01*
X34523228Y-49424352D01*
X34469628Y-49426852D01*
X34381328Y-49336152D01*
X34254628Y-49189852D01*
X34177628Y-49114852D01*
X34200628Y-49086352D01*
X34211428Y-49035052D01*
X34227428Y-49021752D01*
X34253628Y-49010852D01*
X34329128Y-49031352D01*
X34425628Y-49078852D01*
X34455628Y-49057352D01*
X34488228Y-49049552D01*
X34685628Y-49046852D01*
X34686128Y-48947352D01*
X34669928Y-48879952D01*
X34613128Y-48762252D01*
X34530528Y-48614752D01*
X34493628Y-48514852D01*
X34506628Y-48508852D01*
X34518828Y-48478952D01*
X34529028Y-48470352D01*
X34643128Y-48520852D01*
X34747628Y-48582852D01*
X34822528Y-48643052D01*
X34869828Y-48695652D01*
X34920828Y-48776152D01*
X34944228Y-48846352D01*
X34952428Y-48925952D01*
X34945628Y-49014852D01*
X35705628Y-48942852D01*
X35695328Y-48854852D01*
X35707628Y-48664852D01*
X35705528Y-48605052D01*
X35689828Y-48540452D01*
X35628628Y-48400352D01*
X35606928Y-48338852D01*
X35604728Y-48318652D01*
X35609128Y-48288152D01*
X35629628Y-48246852D01*
X35741128Y-48299352D01*
G37*
G36*
X35741128Y-44299352D02*
G01*
X35843628Y-44368852D01*
X35897928Y-44420152D01*
X35956328Y-44502552D01*
X35998428Y-44601052D01*
X36015228Y-44687452D01*
X36017628Y-44785452D01*
X36005628Y-44894852D01*
X36048228Y-44911152D01*
X36104128Y-44914452D01*
X36159128Y-44901952D01*
X36213628Y-44874852D01*
X36465628Y-44990252D01*
X36528028Y-45027452D01*
X36576028Y-45069052D01*
X36600028Y-45099052D01*
X36620828Y-45145252D01*
X36622228Y-45161652D01*
X36617828Y-45171252D01*
X36552828Y-45198552D01*
X36485628Y-45211952D01*
X36320828Y-45218452D01*
X36083328Y-45217452D01*
X36004828Y-45227152D01*
X35945628Y-45242852D01*
X35917328Y-45287252D01*
X35894728Y-45338852D01*
X35853828Y-45498852D01*
X35818228Y-45580852D01*
X35794128Y-45616852D01*
X35770128Y-45640052D01*
X35742128Y-45656152D01*
X35716328Y-45661852D01*
X35649628Y-45654852D01*
X35646928Y-45634252D01*
X35644928Y-45566152D01*
X35666428Y-45365952D01*
X35669628Y-45274852D01*
X35589028Y-45266252D01*
X35486428Y-45267152D01*
X35180828Y-45303752D01*
X35005628Y-45318852D01*
X34980628Y-45350852D01*
X34963428Y-45395652D01*
X34949028Y-45481452D01*
X34934428Y-45617352D01*
X34918528Y-45681052D01*
X34902728Y-45716352D01*
X34886128Y-45738152D01*
X34865628Y-45752852D01*
X34839428Y-45757352D01*
X34785628Y-45738852D01*
X34775128Y-45706452D01*
X34749828Y-45586752D01*
X34729628Y-45378852D01*
X34672728Y-45381352D01*
X34523228Y-45424352D01*
X34469628Y-45426852D01*
X34381328Y-45336152D01*
X34254628Y-45189852D01*
X34177628Y-45114852D01*
X34200628Y-45086352D01*
X34211428Y-45035052D01*
X34227428Y-45021752D01*
X34253628Y-45010852D01*
X34329128Y-45031352D01*
X34425628Y-45078852D01*
X34455628Y-45057352D01*
X34488228Y-45049552D01*
X34685628Y-45046852D01*
X34687828Y-44965852D01*
X34683428Y-44929452D01*
X34669928Y-44879952D01*
X34613128Y-44762252D01*
X34530528Y-44614752D01*
X34493628Y-44514852D01*
X34506628Y-44508852D01*
X34518828Y-44478952D01*
X34529028Y-44470352D01*
X34643128Y-44520852D01*
X34747628Y-44582852D01*
X34822528Y-44643052D01*
X34869828Y-44695652D01*
X34920828Y-44776152D01*
X34944228Y-44846352D01*
X34952428Y-44925952D01*
X34945628Y-45014852D01*
X35705628Y-44942852D01*
X35695328Y-44854852D01*
X35707628Y-44664852D01*
X35705528Y-44605052D01*
X35689828Y-44540452D01*
X35628628Y-44400352D01*
X35606928Y-44338852D01*
X35604728Y-44318652D01*
X35609128Y-44288152D01*
X35629628Y-44246852D01*
X35741128Y-44299352D01*
G37*
G36*
X34055228Y-44332552D02*
G01*
X34116428Y-44346952D01*
X34173728Y-44368552D01*
X34225928Y-44397752D01*
X34272628Y-44434352D01*
X34313928Y-44478552D01*
X34365628Y-44558852D01*
X34291428Y-44635352D01*
X34230628Y-44688052D01*
X33949628Y-44898852D01*
X33989628Y-44979852D01*
X34025928Y-45033352D01*
X34139128Y-45158352D01*
X34205628Y-45242852D01*
X34182628Y-45274852D01*
X34171028Y-45313252D01*
X34170628Y-45392852D01*
X34181228Y-45600252D01*
X34172628Y-45650852D01*
X34145628Y-45706852D01*
X34195628Y-46510852D01*
X34199428Y-46688152D01*
X34195028Y-46880752D01*
X34189628Y-46982852D01*
X34165628Y-47186852D01*
X34113128Y-47396752D01*
X34074028Y-47503152D01*
X34037928Y-47563052D01*
X33973628Y-47638852D01*
X33896528Y-47639652D01*
X33821928Y-47632452D01*
X33714928Y-47606652D01*
X33613628Y-47562852D01*
X33519328Y-47504452D01*
X33433428Y-47434952D01*
X33355728Y-47354252D01*
X33266028Y-47232552D01*
X33194828Y-47102152D01*
X33153627Y-46998852D01*
X33191828Y-47021152D01*
X33235128Y-47075352D01*
X33261628Y-47098852D01*
X33393628Y-47162852D01*
X33512228Y-47204452D01*
X33611428Y-47224952D01*
X33684428Y-47224952D01*
X33723728Y-47206952D01*
X33760528Y-47166152D01*
X33808328Y-47067652D01*
X33846328Y-46951452D01*
X33876328Y-46817552D01*
X33895228Y-46669152D01*
X33904828Y-46492552D01*
X33903628Y-46355452D01*
X33873628Y-45902852D01*
X33794128Y-46011352D01*
X33637228Y-46194152D01*
X33537627Y-46326852D01*
X33281428Y-46562252D01*
X33209828Y-46646652D01*
X33149628Y-46738852D01*
X33095828Y-46767052D01*
X33021628Y-46826852D01*
X32970628Y-46812852D01*
X32897628Y-46764452D01*
X32837628Y-46742852D01*
X32837328Y-46727852D01*
X32845628Y-46672852D01*
X32869328Y-46625452D01*
X32924628Y-46563852D01*
X33053027Y-46441752D01*
X33145927Y-46328752D01*
X33344127Y-46072252D01*
X33739428Y-45534252D01*
X33782328Y-45437052D01*
X33800328Y-45345252D01*
X33801328Y-45292452D01*
X33796028Y-45236152D01*
X33770828Y-45141352D01*
X33757628Y-45106852D01*
X33661128Y-45175352D01*
X33504328Y-45300252D01*
X33423528Y-45357852D01*
X33319228Y-45419952D01*
X33229628Y-45456152D01*
X33133628Y-45478852D01*
X33045128Y-45424652D01*
X33020528Y-45400252D01*
X33001628Y-45370852D01*
X33147128Y-45256852D01*
X33426528Y-45056652D01*
X33509828Y-44983852D01*
X33585628Y-44906852D01*
X33524928Y-44813752D01*
X33399328Y-44667052D01*
X33330128Y-44576152D01*
X33297128Y-44512752D01*
X33277628Y-44446852D01*
X33419728Y-44530152D01*
X33566228Y-44626352D01*
X33657828Y-44697752D01*
X33741628Y-44774852D01*
X33894528Y-44633452D01*
X33924628Y-44595852D01*
X33957628Y-44538852D01*
X33931228Y-44494652D01*
X33865328Y-44447952D01*
X33831528Y-44414352D01*
X33818128Y-44381752D01*
X33813628Y-44338852D01*
X33887028Y-44328052D01*
X33990628Y-44325352D01*
X34055228Y-44332552D01*
G37*
G36*
X34055228Y-48332552D02*
G01*
X34116428Y-48346952D01*
X34173728Y-48368552D01*
X34225928Y-48397752D01*
X34272628Y-48434352D01*
X34313928Y-48478552D01*
X34365628Y-48558852D01*
X34291428Y-48635352D01*
X34230628Y-48688052D01*
X33949628Y-48898852D01*
X33989628Y-48979852D01*
X34025928Y-49033352D01*
X34139128Y-49158352D01*
X34205628Y-49242852D01*
X34182628Y-49274852D01*
X34171028Y-49313252D01*
X34170628Y-49392852D01*
X34181228Y-49600252D01*
X34172628Y-49650852D01*
X34145628Y-49706852D01*
X34195628Y-50510852D01*
X34199428Y-50688152D01*
X34195028Y-50880752D01*
X34189628Y-50982852D01*
X34165628Y-51186852D01*
X34113128Y-51396752D01*
X34074028Y-51503152D01*
X34037928Y-51563052D01*
X33973628Y-51638852D01*
X33896528Y-51639652D01*
X33821928Y-51632452D01*
X33714928Y-51606652D01*
X33613628Y-51562852D01*
X33519328Y-51504452D01*
X33433428Y-51434952D01*
X33355728Y-51354252D01*
X33266028Y-51232552D01*
X33194828Y-51102152D01*
X33153627Y-50998852D01*
X33191828Y-51021152D01*
X33235128Y-51075352D01*
X33261628Y-51098852D01*
X33393628Y-51162852D01*
X33512228Y-51204452D01*
X33611428Y-51224952D01*
X33684428Y-51224952D01*
X33723728Y-51206952D01*
X33760528Y-51166152D01*
X33808328Y-51067652D01*
X33846328Y-50951452D01*
X33876328Y-50817552D01*
X33895228Y-50669152D01*
X33904828Y-50492552D01*
X33903628Y-50355452D01*
X33873628Y-49902852D01*
X33794128Y-50011352D01*
X33637228Y-50194152D01*
X33537627Y-50326852D01*
X33281428Y-50562252D01*
X33209828Y-50646652D01*
X33149628Y-50738852D01*
X33095828Y-50767052D01*
X33021628Y-50826852D01*
X32970628Y-50812852D01*
X32897628Y-50764452D01*
X32837628Y-50742852D01*
X32837328Y-50727852D01*
X32845628Y-50672852D01*
X32869328Y-50625452D01*
X32924628Y-50563852D01*
X33053027Y-50441752D01*
X33145927Y-50328752D01*
X33344127Y-50072252D01*
X33739428Y-49534252D01*
X33782328Y-49437052D01*
X33800328Y-49345252D01*
X33801328Y-49292452D01*
X33796028Y-49236152D01*
X33770828Y-49141352D01*
X33757628Y-49106852D01*
X33661128Y-49175352D01*
X33504328Y-49300252D01*
X33423528Y-49357852D01*
X33319228Y-49419952D01*
X33229628Y-49456152D01*
X33133628Y-49478852D01*
X33045128Y-49424652D01*
X33020528Y-49400252D01*
X33001628Y-49370852D01*
X33147128Y-49256852D01*
X33426528Y-49056652D01*
X33509828Y-48983852D01*
X33585628Y-48906852D01*
X33524928Y-48813752D01*
X33399328Y-48667052D01*
X33330128Y-48576152D01*
X33297128Y-48512752D01*
X33277628Y-48446852D01*
X33419728Y-48530152D01*
X33566228Y-48626352D01*
X33657828Y-48697752D01*
X33741628Y-48774852D01*
X33894528Y-48633452D01*
X33924628Y-48595852D01*
X33957628Y-48538852D01*
X33931228Y-48494652D01*
X33865328Y-48447952D01*
X33831528Y-48414352D01*
X33818128Y-48381752D01*
X33813628Y-48338852D01*
X33887028Y-48328052D01*
X33990628Y-48325352D01*
X34055228Y-48332552D01*
G37*
G36*
X36272528Y-45746352D02*
G01*
X36365128Y-45782852D01*
X36465628Y-45842852D01*
X36464328Y-45863352D01*
X36438628Y-45884552D01*
X36449628Y-45902852D01*
X36502128Y-45926352D01*
X36600128Y-45950252D01*
X36630628Y-45966552D01*
X36654928Y-45989652D01*
X36662328Y-46003552D01*
X36663628Y-46036852D01*
X36649628Y-46098852D01*
X36553028Y-46112952D01*
X36401628Y-46146852D01*
X36374428Y-46174952D01*
X36350428Y-46225352D01*
X36341628Y-46272852D01*
X36332428Y-46390352D01*
X36282328Y-47297852D01*
X36261628Y-47410852D01*
X36250228Y-47438052D01*
X36229428Y-47462052D01*
X36199328Y-47472252D01*
X36141728Y-47473252D01*
X36038428Y-47449252D01*
X35980828Y-47430152D01*
X35921628Y-47418852D01*
X35824228Y-47412552D01*
X35714228Y-47415452D01*
X35074628Y-47471452D01*
X34901428Y-47503852D01*
X34745628Y-47550852D01*
X34691628Y-47527852D01*
X34644828Y-47497352D01*
X34605228Y-47459252D01*
X34571728Y-47414652D01*
X34493628Y-47282852D01*
X34509028Y-47147452D01*
X34517428Y-46984552D01*
X34514375Y-46798852D01*
X34773628Y-46798852D01*
X34777628Y-46877352D01*
X34776128Y-47148852D01*
X34781128Y-47195852D01*
X34793628Y-47234852D01*
X34847828Y-47240152D01*
X34948528Y-47235752D01*
X35225628Y-47198852D01*
X35226328Y-47185252D01*
X35221628Y-46746852D01*
X35116628Y-46739352D01*
X35025428Y-46745552D01*
X34907528Y-46765452D01*
X34773628Y-46798852D01*
X34514375Y-46798852D01*
X34505628Y-46266852D01*
X34444628Y-46196852D01*
X34373016Y-46102852D01*
X34725628Y-46102852D01*
X34755028Y-46177752D01*
X34773028Y-46255152D01*
X34782728Y-46379352D01*
X34785628Y-46522852D01*
X34898728Y-46511952D01*
X35201628Y-46502852D01*
X35199328Y-46438752D01*
X35211628Y-46269352D01*
X35213328Y-46167752D01*
X35206628Y-46101352D01*
X35185628Y-46022852D01*
X35148528Y-46013952D01*
X35085628Y-46009352D01*
X34988328Y-46019452D01*
X34858628Y-46051752D01*
X34725628Y-46102852D01*
X34373016Y-46102852D01*
X34344828Y-46065852D01*
X34265628Y-45994852D01*
X34277667Y-45990852D01*
X35457628Y-45990852D01*
X35475828Y-46027352D01*
X35485828Y-46072752D01*
X35488128Y-46368252D01*
X35493128Y-46410352D01*
X35505628Y-46454852D01*
X35581628Y-46406852D01*
X35669028Y-46437052D01*
X35805628Y-46518852D01*
X35783628Y-46562852D01*
X35781928Y-46575352D01*
X35785828Y-46582052D01*
X35799528Y-46583752D01*
X35829128Y-46574852D01*
X35828728Y-46564952D01*
X35812528Y-46536752D01*
X35817628Y-46518852D01*
X35850628Y-46541252D01*
X35885528Y-46578252D01*
X35937628Y-46662852D01*
X35798628Y-46672652D01*
X35643728Y-46693552D01*
X35549928Y-46720152D01*
X35469628Y-46758852D01*
X35479928Y-46890752D01*
X35473628Y-47062852D01*
X35461628Y-47206852D01*
X35544828Y-47203652D01*
X35663128Y-47189252D01*
X35831928Y-47178452D01*
X35896128Y-47185852D01*
X35973628Y-47214852D01*
X35961728Y-46945352D01*
X35963028Y-46270552D01*
X35957128Y-46128352D01*
X35941628Y-45938852D01*
X35629928Y-45950352D01*
X35548128Y-45962352D01*
X35474728Y-45983952D01*
X35457628Y-45990852D01*
X34277667Y-45990852D01*
X34296328Y-45984652D01*
X34363228Y-45944152D01*
X34408128Y-45924852D01*
X34436628Y-45925852D01*
X34477628Y-45946852D01*
X34493028Y-45944952D01*
X34501628Y-45934852D01*
X34491028Y-45892252D01*
X34498028Y-45876252D01*
X34733128Y-45819852D01*
X34929128Y-45788852D01*
X35132028Y-45767352D01*
X35965628Y-45706852D01*
X35982628Y-45677852D01*
X36001628Y-45662852D01*
X36272528Y-45746352D01*
G37*
G36*
X36272528Y-49746352D02*
G01*
X36365128Y-49782852D01*
X36465628Y-49842852D01*
X36464328Y-49863352D01*
X36438628Y-49884552D01*
X36449628Y-49902852D01*
X36502128Y-49926352D01*
X36600128Y-49950252D01*
X36630628Y-49966552D01*
X36654928Y-49989652D01*
X36662328Y-50003552D01*
X36663628Y-50036852D01*
X36649628Y-50098852D01*
X36553028Y-50112952D01*
X36401628Y-50146852D01*
X36374428Y-50174952D01*
X36350428Y-50225352D01*
X36341628Y-50272852D01*
X36332428Y-50390352D01*
X36282328Y-51297852D01*
X36261628Y-51410852D01*
X36250228Y-51438052D01*
X36229428Y-51462052D01*
X36199328Y-51472252D01*
X36141728Y-51473252D01*
X36038428Y-51449252D01*
X35980828Y-51430152D01*
X35921628Y-51418852D01*
X35824228Y-51412552D01*
X35714228Y-51415452D01*
X35074628Y-51471452D01*
X34901428Y-51503852D01*
X34745628Y-51550852D01*
X34691628Y-51527852D01*
X34644828Y-51497352D01*
X34605228Y-51459252D01*
X34571728Y-51414652D01*
X34493628Y-51282852D01*
X34509028Y-51147452D01*
X34517428Y-50984552D01*
X34514375Y-50798852D01*
X34773628Y-50798852D01*
X34777628Y-50877352D01*
X34776128Y-51148852D01*
X34781128Y-51195852D01*
X34793628Y-51234852D01*
X34847828Y-51240152D01*
X34948528Y-51235752D01*
X35225628Y-51198852D01*
X35226328Y-51185252D01*
X35221628Y-50746852D01*
X35116628Y-50739352D01*
X35025428Y-50745552D01*
X34907528Y-50765452D01*
X34773628Y-50798852D01*
X34514375Y-50798852D01*
X34505628Y-50266852D01*
X34444628Y-50196852D01*
X34373016Y-50102852D01*
X34725628Y-50102852D01*
X34755028Y-50177752D01*
X34773028Y-50255152D01*
X34782728Y-50379352D01*
X34785628Y-50522852D01*
X34898728Y-50511952D01*
X35201628Y-50502852D01*
X35199328Y-50438752D01*
X35211628Y-50269352D01*
X35213328Y-50167752D01*
X35206628Y-50101352D01*
X35185628Y-50022852D01*
X35148528Y-50013952D01*
X35085628Y-50009352D01*
X34988328Y-50019452D01*
X34858628Y-50051752D01*
X34725628Y-50102852D01*
X34373016Y-50102852D01*
X34344828Y-50065852D01*
X34265628Y-49994852D01*
X34277667Y-49990852D01*
X35457628Y-49990852D01*
X35475828Y-50027352D01*
X35485828Y-50072752D01*
X35488128Y-50368252D01*
X35493128Y-50410352D01*
X35505628Y-50454852D01*
X35581628Y-50406852D01*
X35669028Y-50437052D01*
X35805628Y-50518852D01*
X35783628Y-50562852D01*
X35781928Y-50575352D01*
X35785828Y-50582052D01*
X35799528Y-50583752D01*
X35829128Y-50574852D01*
X35828728Y-50564952D01*
X35812528Y-50536752D01*
X35817628Y-50518852D01*
X35850628Y-50541252D01*
X35885528Y-50578252D01*
X35937628Y-50662852D01*
X35798628Y-50672652D01*
X35643728Y-50693552D01*
X35549928Y-50720152D01*
X35469628Y-50758852D01*
X35479928Y-50890752D01*
X35473628Y-51062852D01*
X35461628Y-51206852D01*
X35544828Y-51203652D01*
X35663128Y-51189252D01*
X35831928Y-51178452D01*
X35896128Y-51185852D01*
X35973628Y-51214852D01*
X35961728Y-50945352D01*
X35963028Y-50270552D01*
X35957128Y-50128352D01*
X35941628Y-49938852D01*
X35629928Y-49950352D01*
X35548128Y-49962352D01*
X35474728Y-49983952D01*
X35457628Y-49990852D01*
X34277667Y-49990852D01*
X34296328Y-49984652D01*
X34363228Y-49944152D01*
X34408128Y-49924852D01*
X34436628Y-49925852D01*
X34477628Y-49946852D01*
X34493028Y-49944952D01*
X34501628Y-49934852D01*
X34491028Y-49892252D01*
X34498028Y-49876252D01*
X34733128Y-49819852D01*
X34929128Y-49788852D01*
X35132028Y-49767352D01*
X35965628Y-49706852D01*
X35982628Y-49677852D01*
X36001628Y-49662852D01*
X36272528Y-49746352D01*
G37*
G36*
X27750400Y-45754400D02*
G01*
X27840800Y-45770100D01*
X28010700Y-45806800D01*
X28216300Y-45871500D01*
X28414900Y-45953200D01*
X28650800Y-46069200D01*
X28835100Y-46176100D01*
X29052200Y-46322500D01*
X29252800Y-46490000D01*
X29369300Y-46611200D01*
X29431100Y-46679500D01*
X29583300Y-46887900D01*
X29710200Y-47109500D01*
X29815900Y-47338400D01*
X29926700Y-47614100D01*
X29986600Y-47828100D01*
X30004000Y-47913800D01*
X30022300Y-48045200D01*
X30029300Y-48224100D01*
X30023400Y-48314600D01*
X30010400Y-48405000D01*
X29989700Y-48494600D01*
X29960700Y-48583600D01*
X29903000Y-48709600D01*
X29827300Y-48827700D01*
X29767700Y-48898800D01*
X29667000Y-48994900D01*
X29555000Y-49075400D01*
X29436200Y-49140200D01*
X29311700Y-49190900D01*
X29179800Y-49228800D01*
X29118100Y-49028100D01*
X29228300Y-48985300D01*
X29355000Y-48917400D01*
X29441000Y-48854900D01*
X29493700Y-48807500D01*
X29541400Y-48755500D01*
X29603300Y-48671100D01*
X29636900Y-48609700D01*
X29664300Y-48545700D01*
X29694000Y-48446500D01*
X29711000Y-48309200D01*
X29709000Y-48205600D01*
X29689900Y-48068200D01*
X29646200Y-47900000D01*
X29599200Y-47768200D01*
X29480400Y-47513200D01*
X29376900Y-47313700D01*
X29259300Y-47124500D01*
X29123600Y-46949700D01*
X29076600Y-46900600D01*
X28969000Y-46793100D01*
X28798600Y-46655800D01*
X28617400Y-46535300D01*
X28456600Y-46440600D01*
X28263000Y-46340400D01*
X28091700Y-46263600D01*
X27914300Y-46200400D01*
X27698600Y-46147000D01*
X27510700Y-46124400D01*
X27437600Y-46123400D01*
X27321800Y-46123800D01*
X27134200Y-46142100D01*
X26917400Y-46181800D01*
X26736800Y-46227100D01*
X26559300Y-46281100D01*
X26384900Y-46344700D01*
X26215300Y-46420800D01*
X26053200Y-46512900D01*
X25902700Y-46623200D01*
X25767200Y-46751500D01*
X25720400Y-46808100D01*
X25651000Y-46892500D01*
X25698000Y-47132200D01*
X25720200Y-47302400D01*
X25725700Y-47388700D01*
X25720700Y-47562600D01*
X25708900Y-47649400D01*
X25678300Y-47777700D01*
X25633900Y-47903200D01*
X25596700Y-47984500D01*
X25506600Y-48140700D01*
X25454200Y-48215400D01*
X25366000Y-48323100D01*
X25300400Y-48390600D01*
X25228500Y-48453100D01*
X25107100Y-48534300D01*
X25015700Y-48578700D01*
X24964400Y-48595200D01*
X24871600Y-48616700D01*
X24778300Y-48628000D01*
X24683700Y-48629000D01*
X24636600Y-48624900D01*
X24589400Y-48619400D01*
X24496800Y-48599500D01*
X24407200Y-48570200D01*
X24321400Y-48532600D01*
X24240000Y-48488000D01*
X24163000Y-48437700D01*
X24045100Y-48343900D01*
X24033500Y-48416600D01*
X24036400Y-48479800D01*
X24051100Y-48542600D01*
X24094400Y-48638600D01*
X24135800Y-48699200D01*
X24184000Y-48755600D01*
X24238900Y-48808300D01*
X24299000Y-48856300D01*
X24431000Y-48937500D01*
X24539400Y-48981300D01*
X24651500Y-49016200D01*
X24763800Y-49043500D01*
X25580800Y-49158600D01*
X25776400Y-49178400D01*
X25973300Y-49187600D01*
X26170800Y-49186200D01*
X26683900Y-49170800D01*
X26880700Y-49175500D01*
X27314500Y-49198000D01*
X27512100Y-49199600D01*
X27787500Y-49183500D01*
X28454700Y-49112700D01*
X28854200Y-49120800D01*
X28974600Y-49117900D01*
X29134300Y-49105800D01*
X29171100Y-49300400D01*
X29016400Y-49350800D01*
X28858500Y-49392500D01*
X28498900Y-49467400D01*
X27771200Y-49533600D01*
X27608800Y-49540400D01*
X27445900Y-49539800D01*
X27282900Y-49532000D01*
X26716400Y-49488200D01*
X26069300Y-49474700D01*
X25947600Y-49468300D01*
X25786500Y-49452700D01*
X25585100Y-49422500D01*
X25425700Y-49391600D01*
X24866700Y-49272200D01*
X24703900Y-49233700D01*
X24543100Y-49178100D01*
X24426400Y-49127000D01*
X24275600Y-49045000D01*
X24203300Y-48996900D01*
X24100900Y-48912600D01*
X24038600Y-48848500D01*
X23956800Y-48738400D01*
X23913500Y-48655500D01*
X23881200Y-48566500D01*
X23865200Y-48471500D01*
X23866600Y-48376200D01*
X23885700Y-48282800D01*
X23914800Y-48211400D01*
X23869200Y-48155400D01*
X23817200Y-48080600D01*
X23771800Y-48001300D01*
X23734000Y-47917900D01*
X23694200Y-47786400D01*
X23673900Y-47651300D01*
X23672200Y-47560700D01*
X23684500Y-47425800D01*
X23700600Y-47338300D01*
X23722800Y-47252600D01*
X23767700Y-47126500D01*
X23687600Y-47000600D01*
X23654100Y-46924200D01*
X23642700Y-46884100D01*
X23609000Y-46635400D01*
X23572100Y-46425800D01*
X23572157Y-46376599D01*
X23785900Y-46376599D01*
X23789800Y-46452000D01*
X23813100Y-46602700D01*
X23830600Y-46836900D01*
X23839100Y-46875100D01*
X23864400Y-46943700D01*
X23937400Y-46843600D01*
X24036600Y-46741100D01*
X24112600Y-46681600D01*
X24153600Y-46655200D01*
X24196700Y-46631500D01*
X24274800Y-46598200D01*
X24218900Y-46549600D01*
X24060700Y-46429100D01*
X23952600Y-46319800D01*
X23895200Y-46269400D01*
X23823000Y-46223600D01*
X23796100Y-46302300D01*
X23785900Y-46376599D01*
X23572157Y-46376599D01*
X23572200Y-46339100D01*
X23588500Y-46251900D01*
X23664000Y-46041200D01*
X23714600Y-45960499D01*
X23815600Y-45978700D01*
X23967900Y-46059600D01*
X24036700Y-46108000D01*
X24068000Y-46135800D01*
X24239300Y-46317100D01*
X24396900Y-46452300D01*
X24450000Y-46514200D01*
X24479800Y-46562700D01*
X24491500Y-46562500D01*
X24492300Y-46586100D01*
X24524900Y-46658700D01*
X24495400Y-46682300D01*
X24499400Y-46802300D01*
X24427800Y-46809100D01*
X24362100Y-46828200D01*
X24300100Y-46858700D01*
X24242900Y-46898200D01*
X24191600Y-46944600D01*
X24146400Y-46996100D01*
X24107000Y-47051100D01*
X24057600Y-47138000D01*
X24007100Y-47259500D01*
X23973100Y-47388800D01*
X23956300Y-47526500D01*
X23958200Y-47628700D01*
X23968200Y-47695900D01*
X23985200Y-47761100D01*
X24009100Y-47823400D01*
X24039000Y-47882300D01*
X24112900Y-47988600D01*
X24199100Y-48081100D01*
X24318700Y-48182100D01*
X24426500Y-48251700D01*
X24485600Y-48280600D01*
X24548100Y-48304000D01*
X24613800Y-48320800D01*
X24681700Y-48329800D01*
X24785300Y-48327700D01*
X24887900Y-48308300D01*
X24943700Y-48286600D01*
X25030100Y-48234700D01*
X25107800Y-48171500D01*
X25201200Y-48071600D01*
X25265300Y-47988600D01*
X25341900Y-47866800D01*
X25389400Y-47767500D01*
X25427100Y-47662700D01*
X25451400Y-47553400D01*
X25463500Y-47441800D01*
X25464800Y-47366900D01*
X25454800Y-47218200D01*
X25434800Y-47072300D01*
X25395900Y-46854900D01*
X25546700Y-46821300D01*
X25430800Y-46827400D01*
X25442800Y-46663000D01*
X25435700Y-46584500D01*
X25410600Y-46508600D01*
X25356900Y-46398800D01*
X25328900Y-46325400D01*
X25288900Y-46133600D01*
X25173400Y-46201000D01*
X25117700Y-46255000D01*
X25012600Y-46418600D01*
X24889500Y-46571500D01*
X24850800Y-46640100D01*
X24824600Y-46716300D01*
X24672200Y-46628200D01*
X24694500Y-46547100D01*
X24730000Y-46472800D01*
X24825500Y-46338100D01*
X24929900Y-46156600D01*
X24980800Y-46089100D01*
X25046100Y-46033500D01*
X25194300Y-45941900D01*
X25261100Y-45889900D01*
X25346200Y-45844700D01*
X25435500Y-45919800D01*
X25473400Y-46002000D01*
X25499700Y-46080300D01*
X25534500Y-46283300D01*
X25559500Y-46362200D01*
X25607200Y-46479600D01*
X25628000Y-46563100D01*
X25737700Y-46439000D01*
X25861600Y-46328300D01*
X25896700Y-46298400D01*
X26070900Y-46177000D01*
X26256000Y-46073200D01*
X26448400Y-45984000D01*
X26646500Y-45906900D01*
X26849500Y-45841100D01*
X27057600Y-45788600D01*
X27270100Y-45753200D01*
X27534800Y-45738600D01*
X27750400Y-45754400D01*
G37*
G36*
X50773511Y-40731250D02*
G01*
X50814583Y-40731250D01*
X50821428Y-40738095D01*
X50841964Y-40738095D01*
X50869345Y-40751785D01*
X50883035Y-40751785D01*
X50889880Y-40758630D01*
X50903571Y-40758630D01*
X50958333Y-40786011D01*
X50972023Y-40799702D01*
X51013095Y-40820238D01*
X51054166Y-40854464D01*
X51061011Y-40854464D01*
X51081547Y-40875000D01*
X51129464Y-40902380D01*
X51150000Y-40922916D01*
X51177380Y-40936607D01*
X51197916Y-40957142D01*
X51245833Y-40984523D01*
X51314285Y-41039285D01*
X51341666Y-41052976D01*
X51362202Y-41073511D01*
X51410119Y-41100892D01*
X51430654Y-41121428D01*
X51458035Y-41135119D01*
X51478571Y-41155654D01*
X51485416Y-41155654D01*
X51505952Y-41176190D01*
X51553869Y-41203571D01*
X51567559Y-41217261D01*
X51574404Y-41217261D01*
X51622321Y-41258333D01*
X51670238Y-41285714D01*
X51725000Y-41333630D01*
X51772916Y-41361011D01*
X51848214Y-41422619D01*
X51896130Y-41450000D01*
X51909821Y-41463690D01*
X51916666Y-41463690D01*
X51937202Y-41484226D01*
X51985119Y-41511607D01*
X52005654Y-41532142D01*
X52012500Y-41532142D01*
X52033035Y-41552678D01*
X52060416Y-41566369D01*
X52080952Y-41586904D01*
X52128869Y-41614285D01*
X52169940Y-41648511D01*
X52176785Y-41648511D01*
X52231547Y-41703273D01*
X52231547Y-41710119D01*
X52265773Y-41751190D01*
X52279464Y-41778571D01*
X52279464Y-41792261D01*
X52293154Y-41812797D01*
X52293154Y-41833333D01*
X52300000Y-41840178D01*
X52300000Y-43524107D01*
X52293154Y-43530952D01*
X52286309Y-43572023D01*
X52265773Y-43613095D01*
X52190476Y-43695238D01*
X52163095Y-43708928D01*
X52149404Y-43722619D01*
X52039880Y-43777380D01*
X52026190Y-43791071D01*
X51991964Y-43804761D01*
X51978273Y-43818452D01*
X51868750Y-43873214D01*
X51855059Y-43886904D01*
X51820833Y-43900595D01*
X51807142Y-43914285D01*
X51759226Y-43934821D01*
X51745535Y-43948511D01*
X51683928Y-43975892D01*
X51670238Y-43989583D01*
X51636011Y-44003273D01*
X51622321Y-44016964D01*
X51540178Y-44058035D01*
X51526488Y-44071726D01*
X51478571Y-44092261D01*
X51430654Y-44126488D01*
X51321130Y-44181250D01*
X51307440Y-44194940D01*
X51259523Y-44215476D01*
X51245833Y-44229166D01*
X51197916Y-44249702D01*
X51184226Y-44263392D01*
X51136309Y-44283928D01*
X51122619Y-44297619D01*
X51074702Y-44318154D01*
X51061011Y-44331845D01*
X51026785Y-44345535D01*
X51013095Y-44359226D01*
X50978869Y-44372916D01*
X50965178Y-44386607D01*
X50841964Y-44448214D01*
X50828273Y-44461904D01*
X50794047Y-44475595D01*
X50794047Y-41853869D01*
X50800892Y-41847023D01*
X50800892Y-41518452D01*
X50807738Y-41511607D01*
X50807738Y-41244642D01*
X50814583Y-41237797D01*
X50814583Y-40963988D01*
X50807738Y-40957142D01*
X50800892Y-40929761D01*
X50759821Y-40888690D01*
X50746130Y-40888690D01*
X50739285Y-40881845D01*
X50691369Y-40881845D01*
X50684523Y-40888690D01*
X50670833Y-40888690D01*
X50629761Y-40929761D01*
X50622916Y-40957142D01*
X50616071Y-40963988D01*
X50616071Y-41292559D01*
X50622916Y-41299404D01*
X50622916Y-41607440D01*
X50629761Y-41614285D01*
X50629761Y-41867559D01*
X50622916Y-41874404D01*
X50622916Y-41901785D01*
X50602380Y-41942857D01*
X50602380Y-41956547D01*
X50588690Y-41970238D01*
X50581845Y-41990773D01*
X50561309Y-42011309D01*
X50561309Y-42018154D01*
X50527083Y-42052380D01*
X50520238Y-42052380D01*
X50479166Y-42086607D01*
X50417559Y-42113988D01*
X50383333Y-42141369D01*
X50349107Y-42155059D01*
X50335416Y-42168750D01*
X50273809Y-42196130D01*
X50260119Y-42209821D01*
X50225892Y-42223511D01*
X50212202Y-42237202D01*
X50130059Y-42278273D01*
X50116369Y-42291964D01*
X50054761Y-42319345D01*
X50041071Y-42333035D01*
X50006845Y-42346726D01*
X49993154Y-42360416D01*
X49958928Y-42374107D01*
X49945238Y-42387797D01*
X49911011Y-42401488D01*
X49897321Y-42415178D01*
X49849404Y-42435714D01*
X49835714Y-42449404D01*
X49801488Y-42463095D01*
X49787797Y-42476785D01*
X49678273Y-42531547D01*
X49664583Y-42545238D01*
X49630357Y-42558928D01*
X49616666Y-42572619D01*
X49582440Y-42586309D01*
X49568750Y-42600000D01*
X49459226Y-42654761D01*
X49445535Y-42668452D01*
X49397619Y-42688988D01*
X49383928Y-42702678D01*
X49301785Y-42743750D01*
X49288095Y-42757440D01*
X49226488Y-42784821D01*
X49212797Y-42798511D01*
X49178571Y-42812202D01*
X49164880Y-42825892D01*
X49137500Y-42839583D01*
X49137500Y-43715773D01*
X49130654Y-43722619D01*
X49130654Y-43750000D01*
X49116964Y-43777380D01*
X49116964Y-43791071D01*
X49103273Y-43818452D01*
X49082738Y-43838988D01*
X49082738Y-43845833D01*
X49021130Y-43907440D01*
X48973214Y-43934821D01*
X48959523Y-43948511D01*
X48952678Y-43948511D01*
X48938988Y-43962202D01*
X48932142Y-43962202D01*
X48918452Y-43975892D01*
X48911607Y-43975892D01*
X48891071Y-43996428D01*
X48843154Y-44023809D01*
X48822619Y-44044345D01*
X48774702Y-44071726D01*
X48761011Y-44085416D01*
X48754166Y-44085416D01*
X48733630Y-44105952D01*
X48685714Y-44133333D01*
X48672023Y-44147023D01*
X48665178Y-44147023D01*
X48651488Y-44160714D01*
X48644642Y-44160714D01*
X48630952Y-44174404D01*
X48624107Y-44174404D01*
X48610416Y-44188095D01*
X48603571Y-44188095D01*
X48589880Y-44201785D01*
X48583035Y-44201785D01*
X48569345Y-44215476D01*
X48562500Y-44215476D01*
X48541964Y-44236011D01*
X48494047Y-44263392D01*
X48473511Y-44283928D01*
X48425595Y-44311309D01*
X48411904Y-44325000D01*
X48357142Y-44352380D01*
X48322916Y-44359226D01*
X48316071Y-44366071D01*
X48295535Y-44366071D01*
X48288690Y-44372916D01*
X48268154Y-44372916D01*
X48261309Y-44379761D01*
X48220238Y-44379761D01*
X48213392Y-44386607D01*
X48144940Y-44386607D01*
X48138095Y-44379761D01*
X48097023Y-44379761D01*
X48090178Y-44372916D01*
X48062797Y-44372916D01*
X48035416Y-44359226D01*
X48021726Y-44359226D01*
X48014880Y-44352380D01*
X48001190Y-44352380D01*
X47919047Y-44311309D01*
X47898511Y-44290773D01*
X47891666Y-44290773D01*
X47802678Y-44201785D01*
X47802678Y-44194940D01*
X47768452Y-44153869D01*
X47741071Y-44099107D01*
X47741071Y-44085416D01*
X47727380Y-44064880D01*
X47720535Y-44023809D01*
X47713690Y-44016964D01*
X47713690Y-43989583D01*
X47706845Y-43982738D01*
X47706845Y-43914285D01*
X47700000Y-43907440D01*
X47700000Y-43893750D01*
X47706845Y-43886904D01*
X47706845Y-43832142D01*
X47713690Y-43825297D01*
X47713690Y-43797916D01*
X47720535Y-43791071D01*
X47720535Y-43770535D01*
X47734226Y-43743154D01*
X47734226Y-43729464D01*
X47768452Y-43661011D01*
X47795833Y-43626785D01*
X47795833Y-43619940D01*
X47816369Y-43599404D01*
X47816369Y-43592559D01*
X47864285Y-43544642D01*
X47871130Y-43544642D01*
X47898511Y-43517261D01*
X47919047Y-43510416D01*
X47953273Y-43483035D01*
X47987500Y-43469345D01*
X48001190Y-43455654D01*
X48124404Y-43394047D01*
X48138095Y-43380357D01*
X48172321Y-43366666D01*
X48186011Y-43352976D01*
X48247619Y-43325595D01*
X48261309Y-43311904D01*
X48295535Y-43298214D01*
X48309226Y-43284523D01*
X48357142Y-43263988D01*
X48370833Y-43250297D01*
X48521428Y-43175000D01*
X48535119Y-43161309D01*
X48569345Y-43147619D01*
X48583035Y-43133928D01*
X48644642Y-43106547D01*
X48658333Y-43092857D01*
X48754166Y-43044940D01*
X48767857Y-43031250D01*
X48829464Y-43003869D01*
X48843154Y-42990178D01*
X48904761Y-42962797D01*
X48918452Y-42949107D01*
X48952678Y-42935416D01*
X48966369Y-42921726D01*
X49014285Y-42901190D01*
X49027976Y-42887500D01*
X49123809Y-42839583D01*
X49137500Y-42825892D01*
X49137500Y-42805357D01*
X49144345Y-42798511D01*
X49144345Y-41847023D01*
X49151190Y-41840178D01*
X49151190Y-41819642D01*
X49164880Y-41799107D01*
X49164880Y-41785416D01*
X49178571Y-41758035D01*
X49212797Y-41716964D01*
X49212797Y-41710119D01*
X49253869Y-41669047D01*
X49281250Y-41655357D01*
X49308630Y-41627976D01*
X49356547Y-41600595D01*
X49404464Y-41559523D01*
X49452380Y-41532142D01*
X49466071Y-41518452D01*
X49472916Y-41518452D01*
X49520833Y-41477380D01*
X49548214Y-41463690D01*
X49568750Y-41443154D01*
X49596130Y-41429464D01*
X49609821Y-41415773D01*
X49616666Y-41415773D01*
X49664583Y-41374702D01*
X49712500Y-41347321D01*
X49760416Y-41306250D01*
X49808333Y-41278869D01*
X49822023Y-41265178D01*
X49828869Y-41265178D01*
X49876785Y-41224107D01*
X49904166Y-41210416D01*
X49924702Y-41189880D01*
X49952083Y-41176190D01*
X49972619Y-41155654D01*
X50000000Y-41141964D01*
X50020535Y-41121428D01*
X50047916Y-41107738D01*
X50061607Y-41094047D01*
X50068452Y-41094047D01*
X50136904Y-41039285D01*
X50164285Y-41025595D01*
X50184821Y-41005059D01*
X50232738Y-40977678D01*
X50260119Y-40950297D01*
X50308035Y-40922916D01*
X50355952Y-40881845D01*
X50403869Y-40854464D01*
X50451785Y-40813392D01*
X50492857Y-40792857D01*
X50506547Y-40779166D01*
X50533928Y-40772321D01*
X50568154Y-40751785D01*
X50609226Y-40744940D01*
X50616071Y-40738095D01*
X50636607Y-40738095D01*
X50643452Y-40731250D01*
X50684523Y-40731250D01*
X50691369Y-40724404D01*
X50766666Y-40724404D01*
X50773511Y-40731250D01*
G37*
G36*
X68384599Y-38887400D02*
G01*
X68491599Y-38948700D01*
X68566600Y-39008700D01*
X68635399Y-39086500D01*
X68672400Y-39157100D01*
X68687300Y-39218200D01*
X68682499Y-39284400D01*
X68664200Y-39337700D01*
X68645000Y-39375000D01*
X68660200Y-39387800D01*
X68688200Y-39394800D01*
X68821500Y-39391700D01*
X68845000Y-39395000D01*
X68868699Y-39376700D01*
X68899999Y-39310000D01*
X69191200Y-39340400D01*
X69371100Y-39368800D01*
X69497000Y-39405800D01*
X69604800Y-39456800D01*
X69647200Y-39490400D01*
X69680000Y-39530600D01*
X69711199Y-39603300D01*
X69720000Y-39660000D01*
X69632800Y-39693100D01*
X69574400Y-39708800D01*
X69457000Y-39724300D01*
X69244199Y-39719600D01*
X68882500Y-39690000D01*
X68758100Y-39688800D01*
X68630000Y-39695000D01*
X68603400Y-39707200D01*
X68578399Y-39733200D01*
X68539999Y-39860000D01*
X68475000Y-39847500D01*
X68430000Y-39850000D01*
X68374000Y-39872400D01*
X68305000Y-39915000D01*
X68280600Y-39866900D01*
X68221899Y-39784100D01*
X68208499Y-39749500D01*
X68199999Y-39710000D01*
X68007500Y-39721900D01*
X67628800Y-39731500D01*
X67375000Y-39745000D01*
X67398699Y-39776200D01*
X67440000Y-39790000D01*
X67485000Y-39785000D01*
X67520000Y-39760000D01*
X67697300Y-39853400D01*
X67763100Y-39896200D01*
X67799500Y-39932200D01*
X67820100Y-39971800D01*
X67824999Y-40015000D01*
X67901800Y-40019800D01*
X67972199Y-40018200D01*
X68358200Y-39971400D01*
X68415200Y-39972500D01*
X68475799Y-39980400D01*
X68539999Y-39995000D01*
X68520000Y-40030000D01*
X68556800Y-40029200D01*
X68595199Y-40034800D01*
X68816000Y-40102200D01*
X68880000Y-40115000D01*
X68873700Y-40157500D01*
X68881400Y-40180700D01*
X68915399Y-40210600D01*
X68949999Y-40230000D01*
X68916000Y-40277200D01*
X68882600Y-40306300D01*
X68699999Y-40400000D01*
X68678500Y-40486600D01*
X68657500Y-40619600D01*
X68616300Y-41272200D01*
X68602200Y-41395800D01*
X68574999Y-41555000D01*
X68529400Y-41548600D01*
X68488599Y-41553400D01*
X68436399Y-41576800D01*
X68395000Y-41605000D01*
X68354199Y-41558200D01*
X68330199Y-41541700D01*
X68289700Y-41525600D01*
X68168799Y-41510200D01*
X68020000Y-41505000D01*
X68002600Y-41515300D01*
X67990400Y-41530200D01*
X67983399Y-41549700D01*
X67981600Y-41573800D01*
X67997800Y-41656100D01*
X68020000Y-41705000D01*
X68119999Y-41710000D01*
X68235000Y-41705000D01*
X68412500Y-41705200D01*
X68473400Y-41712200D01*
X68505000Y-41725000D01*
X68577499Y-41701900D01*
X68631900Y-41693300D01*
X68920700Y-41698400D01*
X68990000Y-41690000D01*
X69054300Y-41665800D01*
X69151900Y-41643700D01*
X69250800Y-41638800D01*
X69317500Y-41645000D01*
X69417300Y-41663800D01*
X69548300Y-41700800D01*
X69645000Y-41737500D01*
X69768200Y-41791900D01*
X69935000Y-41875000D01*
X69949700Y-41909200D01*
X69951799Y-41939800D01*
X69946199Y-41958200D01*
X69930399Y-41978600D01*
X69876200Y-41989800D01*
X69865000Y-42025000D01*
X69854099Y-42025700D01*
X69843100Y-42019800D01*
X69830000Y-41990000D01*
X69803599Y-42027600D01*
X69785599Y-42038600D01*
X69752600Y-42045400D01*
X69658400Y-42035400D01*
X69521800Y-42010800D01*
X69268200Y-41998800D01*
X68743599Y-41995800D01*
X68380000Y-42010000D01*
X68508400Y-42096000D01*
X68661600Y-42170000D01*
X69229700Y-42374200D01*
X69419199Y-42452100D01*
X69593100Y-42541500D01*
X69653900Y-42582700D01*
X69707500Y-42628100D01*
X69774400Y-42704100D01*
X69815300Y-42773400D01*
X69821700Y-42808600D01*
X69822499Y-42906200D01*
X69830000Y-42980000D01*
X69711300Y-43030000D01*
X69595000Y-43100000D01*
X69550000Y-43087400D01*
X69499200Y-43085300D01*
X69458700Y-43092500D01*
X69414999Y-43115000D01*
X69387400Y-43095400D01*
X69354000Y-43083300D01*
X69240000Y-43080000D01*
X69229999Y-43047600D01*
X69240000Y-43015000D01*
X69226300Y-43015200D01*
X69215399Y-43021600D01*
X69197499Y-43058800D01*
X69185000Y-43065000D01*
X69082500Y-43022500D01*
X69026100Y-42992500D01*
X68960100Y-42943700D01*
X68915200Y-42896000D01*
X68888200Y-42841000D01*
X68880000Y-42795000D01*
X68835199Y-42813400D01*
X68807499Y-42811900D01*
X68774999Y-42780000D01*
X68802699Y-42764000D01*
X68773699Y-42728800D01*
X68774999Y-42710000D01*
X68755000Y-42700000D01*
X68743000Y-42703600D01*
X68726599Y-42718200D01*
X68715000Y-42715000D01*
X68648100Y-42615700D01*
X68643400Y-42583400D01*
X68645000Y-42545000D01*
X68607800Y-42565900D01*
X68574199Y-42574700D01*
X68544199Y-42571300D01*
X68508500Y-42551500D01*
X68458100Y-42504700D01*
X68430000Y-42455000D01*
X68385200Y-42408600D01*
X68227600Y-42275000D01*
X68020000Y-42110000D01*
X68008000Y-42190800D01*
X68003999Y-42281200D01*
X68034500Y-42871800D01*
X68033400Y-42992500D01*
X68020600Y-43128500D01*
X67994999Y-43252500D01*
X67962899Y-43333600D01*
X67914600Y-43399800D01*
X67873400Y-43435700D01*
X67824999Y-43465000D01*
X67745399Y-43452600D01*
X67634999Y-43425000D01*
X67567399Y-43400600D01*
X67475000Y-43355000D01*
X67364600Y-43281800D01*
X67265400Y-43198200D01*
X67000000Y-42915000D01*
X66785000Y-42880000D01*
X66796200Y-42864100D01*
X66817499Y-42848100D01*
X66854299Y-42841500D01*
X66919999Y-42853100D01*
X67004999Y-42880200D01*
X67069999Y-42895000D01*
X67365600Y-42935100D01*
X67478000Y-42940000D01*
X67559199Y-42935600D01*
X67607199Y-42924700D01*
X67640800Y-42906200D01*
X67660000Y-42880000D01*
X67679700Y-42816500D01*
X67690900Y-42739900D01*
X67693600Y-42681600D01*
X67687300Y-42519900D01*
X67660000Y-42160000D01*
X67544400Y-42220800D01*
X67458199Y-42278000D01*
X67104999Y-42567500D01*
X67031800Y-42622000D01*
X66939799Y-42673000D01*
X66875000Y-42695000D01*
X66868500Y-42726400D01*
X66839499Y-42763400D01*
X66802499Y-42787500D01*
X66615799Y-42882400D01*
X66581799Y-42916300D01*
X66569999Y-42945000D01*
X66425000Y-43009400D01*
X66250400Y-43096200D01*
X66129600Y-43135800D01*
X65979999Y-43165000D01*
X65968999Y-43144200D01*
X65947999Y-43126200D01*
X65852499Y-43105000D01*
X65831099Y-43095000D01*
X65812000Y-43076800D01*
X65789999Y-43040000D01*
X65720000Y-43059400D01*
X65640000Y-43065000D01*
X65665300Y-43037500D01*
X65712300Y-43008500D01*
X65757499Y-42992500D01*
X65869999Y-42965000D01*
X65890000Y-42915000D01*
X65966299Y-42898100D01*
X66072300Y-42860100D01*
X66155000Y-42820000D01*
X66340599Y-42716000D01*
X66395100Y-42679100D01*
X66451300Y-42615400D01*
X66477300Y-42593400D01*
X66592500Y-42537500D01*
X66626200Y-42515500D01*
X66652199Y-42488600D01*
X66675000Y-42445000D01*
X66707799Y-42476200D01*
X66729999Y-42475000D01*
X66735199Y-42442200D01*
X66744400Y-42420600D01*
X66766799Y-42388600D01*
X66799299Y-42357000D01*
X66880200Y-42296500D01*
X67093599Y-42163000D01*
X67139999Y-42124400D01*
X67180000Y-42075000D01*
X66971199Y-42086400D01*
X66781200Y-42104200D01*
X66667199Y-42120000D01*
X66520799Y-42148000D01*
X66415600Y-42174400D01*
X66319599Y-42207400D01*
X66234399Y-42247600D01*
X66160000Y-42295000D01*
X66071900Y-42274100D01*
X66014999Y-42275000D01*
X65928900Y-42186800D01*
X65796099Y-42072000D01*
X65709999Y-41977500D01*
X65676400Y-41926000D01*
X65660000Y-41889400D01*
X65648399Y-41851000D01*
X65640000Y-41790000D01*
X65711999Y-41800100D01*
X65862399Y-41854600D01*
X65924299Y-41866900D01*
X65943199Y-41860800D01*
X65959999Y-41840000D01*
X66168799Y-41836800D01*
X66443299Y-41823800D01*
X67293200Y-41757400D01*
X67610000Y-41740000D01*
X67624400Y-41718600D01*
X67632399Y-41679600D01*
X67625999Y-41616800D01*
X67610000Y-41540000D01*
X67245399Y-41564300D01*
X67182600Y-41581400D01*
X67145000Y-41605000D01*
X67130500Y-41571500D01*
X67103500Y-41534500D01*
X66973199Y-41437600D01*
X66940599Y-41400000D01*
X66910000Y-41335000D01*
X66926800Y-41321400D01*
X66965000Y-41320000D01*
X66960200Y-41240000D01*
X66964426Y-41210600D01*
X67281800Y-41210600D01*
X67285000Y-41305000D01*
X67849600Y-41272200D01*
X67965399Y-41269000D01*
X68086599Y-41273000D01*
X68215000Y-41285000D01*
X68200600Y-40977200D01*
X68180000Y-40250000D01*
X67798399Y-40264700D01*
X67570000Y-40283700D01*
X67419500Y-40313400D01*
X67356400Y-40337900D01*
X67319600Y-40361200D01*
X67303500Y-40381400D01*
X67298999Y-40396400D01*
X67301600Y-40421200D01*
X67316600Y-40462400D01*
X67319400Y-40495600D01*
X67284300Y-40660800D01*
X67289800Y-40685600D01*
X67305000Y-40700000D01*
X67469400Y-40675600D01*
X67642500Y-40662500D01*
X67746100Y-40662000D01*
X67875100Y-40674000D01*
X67993100Y-40700700D01*
X68066600Y-40733300D01*
X68123899Y-40778100D01*
X68164999Y-40835000D01*
X68001399Y-40860600D01*
X67786800Y-40885900D01*
X67562500Y-40904400D01*
X67285000Y-40920000D01*
X67292999Y-40995200D01*
X67281800Y-41210600D01*
X66964426Y-41210600D01*
X66992799Y-41013200D01*
X66999100Y-40867500D01*
X66991899Y-40830700D01*
X66977499Y-40798100D01*
X66955900Y-40769700D01*
X66909600Y-40731000D01*
X66916500Y-40721700D01*
X66930200Y-40717200D01*
X67000000Y-40715000D01*
X67000900Y-40667900D01*
X66995599Y-40622600D01*
X66976000Y-40558000D01*
X66942499Y-40497500D01*
X66846800Y-40369600D01*
X66743799Y-40255000D01*
X66715000Y-40215000D01*
X66762599Y-40178400D01*
X66821500Y-40152600D01*
X66866999Y-40141400D01*
X67045599Y-40121300D01*
X67178800Y-40096900D01*
X67254400Y-40071700D01*
X67307200Y-40041800D01*
X67338799Y-40008200D01*
X67360000Y-39965000D01*
X67314100Y-39915800D01*
X67288699Y-39864100D01*
X67288100Y-39823800D01*
X67302900Y-39796600D01*
X67320000Y-39780000D01*
X67312600Y-39767500D01*
X67289400Y-39751500D01*
X67264600Y-39747400D01*
X67145000Y-39760000D01*
X67130000Y-39871300D01*
X67125000Y-39995000D01*
X67056199Y-39996800D01*
X67009800Y-40003400D01*
X66984199Y-40018600D01*
X66965000Y-40045000D01*
X66845000Y-39945000D01*
X66812600Y-39911900D01*
X66780599Y-39857900D01*
X66764999Y-39810000D01*
X66697000Y-39806400D01*
X66623300Y-39814300D01*
X66437000Y-39875200D01*
X66340399Y-39899800D01*
X66287600Y-39902200D01*
X66229999Y-39895000D01*
X66200300Y-39843500D01*
X66165200Y-39796900D01*
X66038799Y-39676900D01*
X65963499Y-39589500D01*
X65927499Y-39518700D01*
X65915499Y-39478000D01*
X65905000Y-39410000D01*
X65998700Y-39413700D01*
X66071900Y-39422100D01*
X66364200Y-39478400D01*
X66533999Y-39502500D01*
X66605999Y-39503200D01*
X66654000Y-39498200D01*
X66750000Y-39475000D01*
X66746900Y-39405000D01*
X66732699Y-39356200D01*
X66704299Y-39302600D01*
X66635399Y-39197000D01*
X66595499Y-39112700D01*
X66588799Y-39057500D01*
X66604999Y-38975000D01*
X66695600Y-39024400D01*
X66923099Y-39125600D01*
X66985899Y-39162900D01*
X67048000Y-39208700D01*
X67096700Y-39261600D01*
X67132200Y-39323400D01*
X67145800Y-39380600D01*
X67145000Y-39445000D01*
X68180000Y-39410000D01*
X68215899Y-39366400D01*
X68233100Y-39335600D01*
X68251299Y-39269800D01*
X68250999Y-39144800D01*
X68232300Y-38930100D01*
X68239399Y-38870200D01*
X68255000Y-38825000D01*
X68384599Y-38887400D01*
G37*
D11*
X46000000Y-54650000D02*
X44630000Y-54650000D01*
X54200000Y-44600000D02*
X60200000Y-44600000D01*
X60200000Y-50600000D01*
X54200000Y-50600000D01*
X54200000Y-44600000D01*
X54515000Y-52730000D02*
X54515000Y-55085000D01*
X56800000Y-59400000D02*
X56500000Y-59750000D01*
X56800000Y-59400000D02*
X57100000Y-59750000D01*
X56800000Y-60900000D02*
X56800000Y-59400000D01*
X56800000Y-60900000D02*
X58300000Y-60900000D01*
X58300000Y-60900000D02*
X57950000Y-60600000D01*
X58300000Y-60900000D02*
X57950000Y-61200000D01*
X42125437Y-43505519D02*
X42125437Y-42705519D01*
X42125437Y-43010281D02*
X42201627Y-42972185D01*
X42201627Y-42972185D02*
X42354008Y-42972185D01*
X42354008Y-42972185D02*
X42430199Y-43010281D01*
X42430199Y-43010281D02*
X42468294Y-43048376D01*
X42468294Y-43048376D02*
X42506389Y-43124566D01*
X42506389Y-43124566D02*
X42506389Y-43353138D01*
X42506389Y-43353138D02*
X42468294Y-43429328D01*
X42468294Y-43429328D02*
X42430199Y-43467424D01*
X42430199Y-43467424D02*
X42354008Y-43505519D01*
X42354008Y-43505519D02*
X42201627Y-43505519D01*
X42201627Y-43505519D02*
X42125437Y-43467424D01*
X42963532Y-43505519D02*
X42887342Y-43467424D01*
X42887342Y-43467424D02*
X42849247Y-43429328D01*
X42849247Y-43429328D02*
X42811151Y-43353138D01*
X42811151Y-43353138D02*
X42811151Y-43124566D01*
X42811151Y-43124566D02*
X42849247Y-43048376D01*
X42849247Y-43048376D02*
X42887342Y-43010281D01*
X42887342Y-43010281D02*
X42963532Y-42972185D01*
X42963532Y-42972185D02*
X43077818Y-42972185D01*
X43077818Y-42972185D02*
X43154009Y-43010281D01*
X43154009Y-43010281D02*
X43192104Y-43048376D01*
X43192104Y-43048376D02*
X43230199Y-43124566D01*
X43230199Y-43124566D02*
X43230199Y-43353138D01*
X43230199Y-43353138D02*
X43192104Y-43429328D01*
X43192104Y-43429328D02*
X43154009Y-43467424D01*
X43154009Y-43467424D02*
X43077818Y-43505519D01*
X43077818Y-43505519D02*
X42963532Y-43505519D01*
X43687342Y-43505519D02*
X43611152Y-43467424D01*
X43611152Y-43467424D02*
X43573057Y-43429328D01*
X43573057Y-43429328D02*
X43534961Y-43353138D01*
X43534961Y-43353138D02*
X43534961Y-43124566D01*
X43534961Y-43124566D02*
X43573057Y-43048376D01*
X43573057Y-43048376D02*
X43611152Y-43010281D01*
X43611152Y-43010281D02*
X43687342Y-42972185D01*
X43687342Y-42972185D02*
X43801628Y-42972185D01*
X43801628Y-42972185D02*
X43877819Y-43010281D01*
X43877819Y-43010281D02*
X43915914Y-43048376D01*
X43915914Y-43048376D02*
X43954009Y-43124566D01*
X43954009Y-43124566D02*
X43954009Y-43353138D01*
X43954009Y-43353138D02*
X43915914Y-43429328D01*
X43915914Y-43429328D02*
X43877819Y-43467424D01*
X43877819Y-43467424D02*
X43801628Y-43505519D01*
X43801628Y-43505519D02*
X43687342Y-43505519D01*
X44296867Y-42972185D02*
X44296867Y-43772185D01*
X44296867Y-43010281D02*
X44373057Y-42972185D01*
X44373057Y-42972185D02*
X44525438Y-42972185D01*
X44525438Y-42972185D02*
X44601629Y-43010281D01*
X44601629Y-43010281D02*
X44639724Y-43048376D01*
X44639724Y-43048376D02*
X44677819Y-43124566D01*
X44677819Y-43124566D02*
X44677819Y-43353138D01*
X44677819Y-43353138D02*
X44639724Y-43429328D01*
X44639724Y-43429328D02*
X44601629Y-43467424D01*
X44601629Y-43467424D02*
X44525438Y-43505519D01*
X44525438Y-43505519D02*
X44373057Y-43505519D01*
X44373057Y-43505519D02*
X44296867Y-43467424D01*
X47371427Y-48964080D02*
X47409523Y-48925985D01*
X47409523Y-48925985D02*
X47485713Y-48887890D01*
X47485713Y-48887890D02*
X47676189Y-48887890D01*
X47676189Y-48887890D02*
X47752380Y-48925985D01*
X47752380Y-48925985D02*
X47790475Y-48964080D01*
X47790475Y-48964080D02*
X47828570Y-49040271D01*
X47828570Y-49040271D02*
X47828570Y-49116461D01*
X47828570Y-49116461D02*
X47790475Y-49230747D01*
X47790475Y-49230747D02*
X47333332Y-49687890D01*
X47333332Y-49687890D02*
X47828570Y-49687890D01*
X48323809Y-48887890D02*
X48399999Y-48887890D01*
X48399999Y-48887890D02*
X48476190Y-48925985D01*
X48476190Y-48925985D02*
X48514285Y-48964080D01*
X48514285Y-48964080D02*
X48552380Y-49040271D01*
X48552380Y-49040271D02*
X48590475Y-49192652D01*
X48590475Y-49192652D02*
X48590475Y-49383128D01*
X48590475Y-49383128D02*
X48552380Y-49535509D01*
X48552380Y-49535509D02*
X48514285Y-49611699D01*
X48514285Y-49611699D02*
X48476190Y-49649795D01*
X48476190Y-49649795D02*
X48399999Y-49687890D01*
X48399999Y-49687890D02*
X48323809Y-49687890D01*
X48323809Y-49687890D02*
X48247618Y-49649795D01*
X48247618Y-49649795D02*
X48209523Y-49611699D01*
X48209523Y-49611699D02*
X48171428Y-49535509D01*
X48171428Y-49535509D02*
X48133332Y-49383128D01*
X48133332Y-49383128D02*
X48133332Y-49192652D01*
X48133332Y-49192652D02*
X48171428Y-49040271D01*
X48171428Y-49040271D02*
X48209523Y-48964080D01*
X48209523Y-48964080D02*
X48247618Y-48925985D01*
X48247618Y-48925985D02*
X48323809Y-48887890D01*
X48895237Y-48964080D02*
X48933333Y-48925985D01*
X48933333Y-48925985D02*
X49009523Y-48887890D01*
X49009523Y-48887890D02*
X49199999Y-48887890D01*
X49199999Y-48887890D02*
X49276190Y-48925985D01*
X49276190Y-48925985D02*
X49314285Y-48964080D01*
X49314285Y-48964080D02*
X49352380Y-49040271D01*
X49352380Y-49040271D02*
X49352380Y-49116461D01*
X49352380Y-49116461D02*
X49314285Y-49230747D01*
X49314285Y-49230747D02*
X48857142Y-49687890D01*
X48857142Y-49687890D02*
X49352380Y-49687890D01*
X50038095Y-48887890D02*
X49885714Y-48887890D01*
X49885714Y-48887890D02*
X49809523Y-48925985D01*
X49809523Y-48925985D02*
X49771428Y-48964080D01*
X49771428Y-48964080D02*
X49695238Y-49078366D01*
X49695238Y-49078366D02*
X49657142Y-49230747D01*
X49657142Y-49230747D02*
X49657142Y-49535509D01*
X49657142Y-49535509D02*
X49695238Y-49611699D01*
X49695238Y-49611699D02*
X49733333Y-49649795D01*
X49733333Y-49649795D02*
X49809523Y-49687890D01*
X49809523Y-49687890D02*
X49961904Y-49687890D01*
X49961904Y-49687890D02*
X50038095Y-49649795D01*
X50038095Y-49649795D02*
X50076190Y-49611699D01*
X50076190Y-49611699D02*
X50114285Y-49535509D01*
X50114285Y-49535509D02*
X50114285Y-49345033D01*
X50114285Y-49345033D02*
X50076190Y-49268842D01*
X50076190Y-49268842D02*
X50038095Y-49230747D01*
X50038095Y-49230747D02*
X49961904Y-49192652D01*
X49961904Y-49192652D02*
X49809523Y-49192652D01*
X49809523Y-49192652D02*
X49733333Y-49230747D01*
X49733333Y-49230747D02*
X49695238Y-49268842D01*
X49695238Y-49268842D02*
X49657142Y-49345033D01*
X50457143Y-49383128D02*
X51066667Y-49383128D01*
X51866666Y-49687890D02*
X51409523Y-49687890D01*
X51638095Y-49687890D02*
X51638095Y-48887890D01*
X51638095Y-48887890D02*
X51561904Y-49002175D01*
X51561904Y-49002175D02*
X51485714Y-49078366D01*
X51485714Y-49078366D02*
X51409523Y-49116461D01*
X52361905Y-48887890D02*
X52438095Y-48887890D01*
X52438095Y-48887890D02*
X52514286Y-48925985D01*
X52514286Y-48925985D02*
X52552381Y-48964080D01*
X52552381Y-48964080D02*
X52590476Y-49040271D01*
X52590476Y-49040271D02*
X52628571Y-49192652D01*
X52628571Y-49192652D02*
X52628571Y-49383128D01*
X52628571Y-49383128D02*
X52590476Y-49535509D01*
X52590476Y-49535509D02*
X52552381Y-49611699D01*
X52552381Y-49611699D02*
X52514286Y-49649795D01*
X52514286Y-49649795D02*
X52438095Y-49687890D01*
X52438095Y-49687890D02*
X52361905Y-49687890D01*
X52361905Y-49687890D02*
X52285714Y-49649795D01*
X52285714Y-49649795D02*
X52247619Y-49611699D01*
X52247619Y-49611699D02*
X52209524Y-49535509D01*
X52209524Y-49535509D02*
X52171428Y-49383128D01*
X52171428Y-49383128D02*
X52171428Y-49192652D01*
X52171428Y-49192652D02*
X52209524Y-49040271D01*
X52209524Y-49040271D02*
X52247619Y-48964080D01*
X52247619Y-48964080D02*
X52285714Y-48925985D01*
X52285714Y-48925985D02*
X52361905Y-48887890D01*
X43580951Y-72333723D02*
X43961904Y-72333723D01*
X43504761Y-72562295D02*
X43771428Y-71762295D01*
X43771428Y-71762295D02*
X44038094Y-72562295D01*
X44304761Y-72562295D02*
X44304761Y-71762295D01*
X44304761Y-71762295D02*
X44761904Y-72562295D01*
X44761904Y-72562295D02*
X44761904Y-71762295D01*
X45028570Y-71762295D02*
X45485713Y-71762295D01*
X45257141Y-72562295D02*
X45257141Y-71762295D01*
X45752380Y-72143247D02*
X46019046Y-72143247D01*
X46133332Y-72562295D02*
X45752380Y-72562295D01*
X45752380Y-72562295D02*
X45752380Y-71762295D01*
X45752380Y-71762295D02*
X46133332Y-71762295D01*
X46476190Y-72562295D02*
X46476190Y-71762295D01*
X46476190Y-71762295D02*
X46933333Y-72562295D01*
X46933333Y-72562295D02*
X46933333Y-71762295D01*
X47314285Y-72562295D02*
X47314285Y-71762295D01*
X47314285Y-71762295D02*
X47771428Y-72562295D01*
X47771428Y-72562295D02*
X47771428Y-71762295D01*
X48114284Y-72333723D02*
X48495237Y-72333723D01*
X48038094Y-72562295D02*
X48304761Y-71762295D01*
X48304761Y-71762295D02*
X48571427Y-72562295D01*
X49447618Y-72562295D02*
X49447618Y-71762295D01*
X49904761Y-72562295D02*
X49561903Y-72105152D01*
X49904761Y-71762295D02*
X49447618Y-72219438D01*
X50247618Y-72143247D02*
X50514284Y-72143247D01*
X50628570Y-72562295D02*
X50247618Y-72562295D01*
X50247618Y-72562295D02*
X50247618Y-71762295D01*
X50247618Y-71762295D02*
X50628570Y-71762295D01*
X50971428Y-72143247D02*
X51238094Y-72143247D01*
X51352380Y-72562295D02*
X50971428Y-72562295D01*
X50971428Y-72562295D02*
X50971428Y-71762295D01*
X50971428Y-71762295D02*
X51352380Y-71762295D01*
X51695238Y-72562295D02*
X51695238Y-71762295D01*
X51695238Y-71762295D02*
X52000000Y-71762295D01*
X52000000Y-71762295D02*
X52076190Y-71800390D01*
X52076190Y-71800390D02*
X52114285Y-71838485D01*
X52114285Y-71838485D02*
X52152381Y-71914676D01*
X52152381Y-71914676D02*
X52152381Y-72028961D01*
X52152381Y-72028961D02*
X52114285Y-72105152D01*
X52114285Y-72105152D02*
X52076190Y-72143247D01*
X52076190Y-72143247D02*
X52000000Y-72181342D01*
X52000000Y-72181342D02*
X51695238Y-72181342D01*
X53561905Y-72486104D02*
X53523809Y-72524200D01*
X53523809Y-72524200D02*
X53409524Y-72562295D01*
X53409524Y-72562295D02*
X53333333Y-72562295D01*
X53333333Y-72562295D02*
X53219047Y-72524200D01*
X53219047Y-72524200D02*
X53142857Y-72448009D01*
X53142857Y-72448009D02*
X53104762Y-72371819D01*
X53104762Y-72371819D02*
X53066666Y-72219438D01*
X53066666Y-72219438D02*
X53066666Y-72105152D01*
X53066666Y-72105152D02*
X53104762Y-71952771D01*
X53104762Y-71952771D02*
X53142857Y-71876580D01*
X53142857Y-71876580D02*
X53219047Y-71800390D01*
X53219047Y-71800390D02*
X53333333Y-71762295D01*
X53333333Y-71762295D02*
X53409524Y-71762295D01*
X53409524Y-71762295D02*
X53523809Y-71800390D01*
X53523809Y-71800390D02*
X53561905Y-71838485D01*
X54285714Y-72562295D02*
X53904762Y-72562295D01*
X53904762Y-72562295D02*
X53904762Y-71762295D01*
X54552381Y-72143247D02*
X54819047Y-72143247D01*
X54933333Y-72562295D02*
X54552381Y-72562295D01*
X54552381Y-72562295D02*
X54552381Y-71762295D01*
X54552381Y-71762295D02*
X54933333Y-71762295D01*
X55238095Y-72333723D02*
X55619048Y-72333723D01*
X55161905Y-72562295D02*
X55428572Y-71762295D01*
X55428572Y-71762295D02*
X55695238Y-72562295D01*
X56419048Y-72562295D02*
X56152381Y-72181342D01*
X55961905Y-72562295D02*
X55961905Y-71762295D01*
X55961905Y-71762295D02*
X56266667Y-71762295D01*
X56266667Y-71762295D02*
X56342857Y-71800390D01*
X56342857Y-71800390D02*
X56380952Y-71838485D01*
X56380952Y-71838485D02*
X56419048Y-71914676D01*
X56419048Y-71914676D02*
X56419048Y-72028961D01*
X56419048Y-72028961D02*
X56380952Y-72105152D01*
X56380952Y-72105152D02*
X56342857Y-72143247D01*
X56342857Y-72143247D02*
X56266667Y-72181342D01*
X56266667Y-72181342D02*
X55961905Y-72181342D01*
X53933333Y-43974200D02*
X54047619Y-44012295D01*
X54047619Y-44012295D02*
X54238095Y-44012295D01*
X54238095Y-44012295D02*
X54314286Y-43974200D01*
X54314286Y-43974200D02*
X54352381Y-43936104D01*
X54352381Y-43936104D02*
X54390476Y-43859914D01*
X54390476Y-43859914D02*
X54390476Y-43783723D01*
X54390476Y-43783723D02*
X54352381Y-43707533D01*
X54352381Y-43707533D02*
X54314286Y-43669438D01*
X54314286Y-43669438D02*
X54238095Y-43631342D01*
X54238095Y-43631342D02*
X54085714Y-43593247D01*
X54085714Y-43593247D02*
X54009524Y-43555152D01*
X54009524Y-43555152D02*
X53971429Y-43517057D01*
X53971429Y-43517057D02*
X53933333Y-43440866D01*
X53933333Y-43440866D02*
X53933333Y-43364676D01*
X53933333Y-43364676D02*
X53971429Y-43288485D01*
X53971429Y-43288485D02*
X54009524Y-43250390D01*
X54009524Y-43250390D02*
X54085714Y-43212295D01*
X54085714Y-43212295D02*
X54276191Y-43212295D01*
X54276191Y-43212295D02*
X54390476Y-43250390D01*
X55304762Y-43174200D02*
X54619048Y-44202771D01*
X55571429Y-44012295D02*
X55571429Y-43212295D01*
X55571429Y-43212295D02*
X56028572Y-44012295D01*
X56028572Y-44012295D02*
X56028572Y-43212295D01*
X56152381Y-58507533D02*
X56761905Y-58507533D01*
X56457143Y-58812295D02*
X56457143Y-58202771D01*
X57295238Y-58431342D02*
X57295238Y-58812295D01*
X57028571Y-58012295D02*
X57295238Y-58431342D01*
X57295238Y-58431342D02*
X57561904Y-58012295D01*
X58664286Y-60957533D02*
X59273810Y-60957533D01*
X58969048Y-61262295D02*
X58969048Y-60652771D01*
X59578571Y-60462295D02*
X60111905Y-61262295D01*
X60111905Y-60462295D02*
X59578571Y-61262295D01*
X57104761Y-43162295D02*
X57104761Y-43733723D01*
X57104761Y-43733723D02*
X57066666Y-43848009D01*
X57066666Y-43848009D02*
X56990475Y-43924200D01*
X56990475Y-43924200D02*
X56876190Y-43962295D01*
X56876190Y-43962295D02*
X56799999Y-43962295D01*
X57866666Y-43962295D02*
X57485714Y-43962295D01*
X57485714Y-43962295D02*
X57485714Y-43162295D01*
X58590476Y-43886104D02*
X58552380Y-43924200D01*
X58552380Y-43924200D02*
X58438095Y-43962295D01*
X58438095Y-43962295D02*
X58361904Y-43962295D01*
X58361904Y-43962295D02*
X58247618Y-43924200D01*
X58247618Y-43924200D02*
X58171428Y-43848009D01*
X58171428Y-43848009D02*
X58133333Y-43771819D01*
X58133333Y-43771819D02*
X58095237Y-43619438D01*
X58095237Y-43619438D02*
X58095237Y-43505152D01*
X58095237Y-43505152D02*
X58133333Y-43352771D01*
X58133333Y-43352771D02*
X58171428Y-43276580D01*
X58171428Y-43276580D02*
X58247618Y-43200390D01*
X58247618Y-43200390D02*
X58361904Y-43162295D01*
X58361904Y-43162295D02*
X58438095Y-43162295D01*
X58438095Y-43162295D02*
X58552380Y-43200390D01*
X58552380Y-43200390D02*
X58590476Y-43238485D01*
X59161904Y-43162295D02*
X59161904Y-43733723D01*
X59161904Y-43733723D02*
X59123809Y-43848009D01*
X59123809Y-43848009D02*
X59047618Y-43924200D01*
X59047618Y-43924200D02*
X58933333Y-43962295D01*
X58933333Y-43962295D02*
X58857142Y-43962295D01*
X59923809Y-43962295D02*
X59542857Y-43962295D01*
X59542857Y-43962295D02*
X59542857Y-43162295D01*
X60647619Y-43886104D02*
X60609523Y-43924200D01*
X60609523Y-43924200D02*
X60495238Y-43962295D01*
X60495238Y-43962295D02*
X60419047Y-43962295D01*
X60419047Y-43962295D02*
X60304761Y-43924200D01*
X60304761Y-43924200D02*
X60228571Y-43848009D01*
X60228571Y-43848009D02*
X60190476Y-43771819D01*
X60190476Y-43771819D02*
X60152380Y-43619438D01*
X60152380Y-43619438D02*
X60152380Y-43505152D01*
X60152380Y-43505152D02*
X60190476Y-43352771D01*
X60190476Y-43352771D02*
X60228571Y-43276580D01*
X60228571Y-43276580D02*
X60304761Y-43200390D01*
X60304761Y-43200390D02*
X60419047Y-43162295D01*
X60419047Y-43162295D02*
X60495238Y-43162295D01*
X60495238Y-43162295D02*
X60609523Y-43200390D01*
X60609523Y-43200390D02*
X60647619Y-43238485D01*
X61219047Y-43162295D02*
X61219047Y-43733723D01*
X61219047Y-43733723D02*
X61180952Y-43848009D01*
X61180952Y-43848009D02*
X61104761Y-43924200D01*
X61104761Y-43924200D02*
X60990476Y-43962295D01*
X60990476Y-43962295D02*
X60914285Y-43962295D01*
X61980952Y-43962295D02*
X61600000Y-43962295D01*
X61600000Y-43962295D02*
X61600000Y-43162295D01*
X62704762Y-43886104D02*
X62666666Y-43924200D01*
X62666666Y-43924200D02*
X62552381Y-43962295D01*
X62552381Y-43962295D02*
X62476190Y-43962295D01*
X62476190Y-43962295D02*
X62361904Y-43924200D01*
X62361904Y-43924200D02*
X62285714Y-43848009D01*
X62285714Y-43848009D02*
X62247619Y-43771819D01*
X62247619Y-43771819D02*
X62209523Y-43619438D01*
X62209523Y-43619438D02*
X62209523Y-43505152D01*
X62209523Y-43505152D02*
X62247619Y-43352771D01*
X62247619Y-43352771D02*
X62285714Y-43276580D01*
X62285714Y-43276580D02*
X62361904Y-43200390D01*
X62361904Y-43200390D02*
X62476190Y-43162295D01*
X62476190Y-43162295D02*
X62552381Y-43162295D01*
X62552381Y-43162295D02*
X62666666Y-43200390D01*
X62666666Y-43200390D02*
X62704762Y-43238485D01*
X63276190Y-43162295D02*
X63276190Y-43733723D01*
X63276190Y-43733723D02*
X63238095Y-43848009D01*
X63238095Y-43848009D02*
X63161904Y-43924200D01*
X63161904Y-43924200D02*
X63047619Y-43962295D01*
X63047619Y-43962295D02*
X62971428Y-43962295D01*
X64038095Y-43962295D02*
X63657143Y-43962295D01*
X63657143Y-43962295D02*
X63657143Y-43162295D01*
X64761905Y-43886104D02*
X64723809Y-43924200D01*
X64723809Y-43924200D02*
X64609524Y-43962295D01*
X64609524Y-43962295D02*
X64533333Y-43962295D01*
X64533333Y-43962295D02*
X64419047Y-43924200D01*
X64419047Y-43924200D02*
X64342857Y-43848009D01*
X64342857Y-43848009D02*
X64304762Y-43771819D01*
X64304762Y-43771819D02*
X64266666Y-43619438D01*
X64266666Y-43619438D02*
X64266666Y-43505152D01*
X64266666Y-43505152D02*
X64304762Y-43352771D01*
X64304762Y-43352771D02*
X64342857Y-43276580D01*
X64342857Y-43276580D02*
X64419047Y-43200390D01*
X64419047Y-43200390D02*
X64533333Y-43162295D01*
X64533333Y-43162295D02*
X64609524Y-43162295D01*
X64609524Y-43162295D02*
X64723809Y-43200390D01*
X64723809Y-43200390D02*
X64761905Y-43238485D01*
X59161905Y-54518318D02*
X59161905Y-53718318D01*
X59161905Y-53718318D02*
X59428571Y-54289746D01*
X59428571Y-54289746D02*
X59695238Y-53718318D01*
X59695238Y-53718318D02*
X59695238Y-54518318D01*
X60038095Y-54289746D02*
X60419048Y-54289746D01*
X59961905Y-54518318D02*
X60228572Y-53718318D01*
X60228572Y-53718318D02*
X60495238Y-54518318D01*
X60761905Y-54518318D02*
X60761905Y-53718318D01*
X60761905Y-53718318D02*
X60952381Y-53718318D01*
X60952381Y-53718318D02*
X61066667Y-53756413D01*
X61066667Y-53756413D02*
X61142857Y-53832603D01*
X61142857Y-53832603D02*
X61180952Y-53908794D01*
X61180952Y-53908794D02*
X61219048Y-54061175D01*
X61219048Y-54061175D02*
X61219048Y-54175461D01*
X61219048Y-54175461D02*
X61180952Y-54327842D01*
X61180952Y-54327842D02*
X61142857Y-54404032D01*
X61142857Y-54404032D02*
X61066667Y-54480223D01*
X61066667Y-54480223D02*
X60952381Y-54518318D01*
X60952381Y-54518318D02*
X60761905Y-54518318D01*
X61561905Y-54099270D02*
X61828571Y-54099270D01*
X61942857Y-54518318D02*
X61561905Y-54518318D01*
X61561905Y-54518318D02*
X61561905Y-53718318D01*
X61561905Y-53718318D02*
X61942857Y-53718318D01*
X63161905Y-54099270D02*
X62895239Y-54099270D01*
X62895239Y-54518318D02*
X62895239Y-53718318D01*
X62895239Y-53718318D02*
X63276191Y-53718318D01*
X63733334Y-53718318D02*
X63885715Y-53718318D01*
X63885715Y-53718318D02*
X63961905Y-53756413D01*
X63961905Y-53756413D02*
X64038096Y-53832603D01*
X64038096Y-53832603D02*
X64076191Y-53984984D01*
X64076191Y-53984984D02*
X64076191Y-54251651D01*
X64076191Y-54251651D02*
X64038096Y-54404032D01*
X64038096Y-54404032D02*
X63961905Y-54480223D01*
X63961905Y-54480223D02*
X63885715Y-54518318D01*
X63885715Y-54518318D02*
X63733334Y-54518318D01*
X63733334Y-54518318D02*
X63657143Y-54480223D01*
X63657143Y-54480223D02*
X63580953Y-54404032D01*
X63580953Y-54404032D02*
X63542857Y-54251651D01*
X63542857Y-54251651D02*
X63542857Y-53984984D01*
X63542857Y-53984984D02*
X63580953Y-53832603D01*
X63580953Y-53832603D02*
X63657143Y-53756413D01*
X63657143Y-53756413D02*
X63733334Y-53718318D01*
X64876191Y-54518318D02*
X64609524Y-54137365D01*
X64419048Y-54518318D02*
X64419048Y-53718318D01*
X64419048Y-53718318D02*
X64723810Y-53718318D01*
X64723810Y-53718318D02*
X64800000Y-53756413D01*
X64800000Y-53756413D02*
X64838095Y-53794508D01*
X64838095Y-53794508D02*
X64876191Y-53870699D01*
X64876191Y-53870699D02*
X64876191Y-53984984D01*
X64876191Y-53984984D02*
X64838095Y-54061175D01*
X64838095Y-54061175D02*
X64800000Y-54099270D01*
X64800000Y-54099270D02*
X64723810Y-54137365D01*
X64723810Y-54137365D02*
X64419048Y-54137365D01*
X59333333Y-55387225D02*
X59447619Y-55425320D01*
X59447619Y-55425320D02*
X59485714Y-55463416D01*
X59485714Y-55463416D02*
X59523810Y-55539606D01*
X59523810Y-55539606D02*
X59523810Y-55653892D01*
X59523810Y-55653892D02*
X59485714Y-55730082D01*
X59485714Y-55730082D02*
X59447619Y-55768178D01*
X59447619Y-55768178D02*
X59371429Y-55806273D01*
X59371429Y-55806273D02*
X59066667Y-55806273D01*
X59066667Y-55806273D02*
X59066667Y-55006273D01*
X59066667Y-55006273D02*
X59333333Y-55006273D01*
X59333333Y-55006273D02*
X59409524Y-55044368D01*
X59409524Y-55044368D02*
X59447619Y-55082463D01*
X59447619Y-55082463D02*
X59485714Y-55158654D01*
X59485714Y-55158654D02*
X59485714Y-55234844D01*
X59485714Y-55234844D02*
X59447619Y-55311035D01*
X59447619Y-55311035D02*
X59409524Y-55349130D01*
X59409524Y-55349130D02*
X59333333Y-55387225D01*
X59333333Y-55387225D02*
X59066667Y-55387225D01*
X59828571Y-55577701D02*
X60209524Y-55577701D01*
X59752381Y-55806273D02*
X60019048Y-55006273D01*
X60019048Y-55006273D02*
X60285714Y-55806273D01*
X60552381Y-55806273D02*
X60552381Y-55006273D01*
X60552381Y-55006273D02*
X60742857Y-55006273D01*
X60742857Y-55006273D02*
X60857143Y-55044368D01*
X60857143Y-55044368D02*
X60933333Y-55120558D01*
X60933333Y-55120558D02*
X60971428Y-55196749D01*
X60971428Y-55196749D02*
X61009524Y-55349130D01*
X61009524Y-55349130D02*
X61009524Y-55463416D01*
X61009524Y-55463416D02*
X60971428Y-55615797D01*
X60971428Y-55615797D02*
X60933333Y-55691987D01*
X60933333Y-55691987D02*
X60857143Y-55768178D01*
X60857143Y-55768178D02*
X60742857Y-55806273D01*
X60742857Y-55806273D02*
X60552381Y-55806273D01*
X61961905Y-55806273D02*
X61961905Y-55006273D01*
X62342857Y-55806273D02*
X62342857Y-55006273D01*
X62342857Y-55006273D02*
X62533333Y-55006273D01*
X62533333Y-55006273D02*
X62647619Y-55044368D01*
X62647619Y-55044368D02*
X62723809Y-55120558D01*
X62723809Y-55120558D02*
X62761904Y-55196749D01*
X62761904Y-55196749D02*
X62800000Y-55349130D01*
X62800000Y-55349130D02*
X62800000Y-55463416D01*
X62800000Y-55463416D02*
X62761904Y-55615797D01*
X62761904Y-55615797D02*
X62723809Y-55691987D01*
X62723809Y-55691987D02*
X62647619Y-55768178D01*
X62647619Y-55768178D02*
X62533333Y-55806273D01*
X62533333Y-55806273D02*
X62342857Y-55806273D01*
X63142857Y-55387225D02*
X63409523Y-55387225D01*
X63523809Y-55806273D02*
X63142857Y-55806273D01*
X63142857Y-55806273D02*
X63142857Y-55006273D01*
X63142857Y-55006273D02*
X63523809Y-55006273D01*
X63828571Y-55577701D02*
X64209524Y-55577701D01*
X63752381Y-55806273D02*
X64019048Y-55006273D01*
X64019048Y-55006273D02*
X64285714Y-55806273D01*
X64514285Y-55768178D02*
X64628571Y-55806273D01*
X64628571Y-55806273D02*
X64819047Y-55806273D01*
X64819047Y-55806273D02*
X64895238Y-55768178D01*
X64895238Y-55768178D02*
X64933333Y-55730082D01*
X64933333Y-55730082D02*
X64971428Y-55653892D01*
X64971428Y-55653892D02*
X64971428Y-55577701D01*
X64971428Y-55577701D02*
X64933333Y-55501511D01*
X64933333Y-55501511D02*
X64895238Y-55463416D01*
X64895238Y-55463416D02*
X64819047Y-55425320D01*
X64819047Y-55425320D02*
X64666666Y-55387225D01*
X64666666Y-55387225D02*
X64590476Y-55349130D01*
X64590476Y-55349130D02*
X64552381Y-55311035D01*
X64552381Y-55311035D02*
X64514285Y-55234844D01*
X64514285Y-55234844D02*
X64514285Y-55158654D01*
X64514285Y-55158654D02*
X64552381Y-55082463D01*
X64552381Y-55082463D02*
X64590476Y-55044368D01*
X64590476Y-55044368D02*
X64666666Y-55006273D01*
X64666666Y-55006273D02*
X64857143Y-55006273D01*
X64857143Y-55006273D02*
X64971428Y-55044368D01*
X47190476Y-48330414D02*
X47190476Y-47330414D01*
X47190476Y-47330414D02*
X47523809Y-48044699D01*
X47523809Y-48044699D02*
X47857142Y-47330414D01*
X47857142Y-47330414D02*
X47857142Y-48330414D01*
X48285714Y-48044699D02*
X48761904Y-48044699D01*
X48190476Y-48330414D02*
X48523809Y-47330414D01*
X48523809Y-47330414D02*
X48857142Y-48330414D01*
X49190476Y-48330414D02*
X49190476Y-47330414D01*
X49666666Y-48330414D02*
X49666666Y-47330414D01*
X49666666Y-47330414D02*
X50238094Y-48330414D01*
X50238094Y-48330414D02*
X50238094Y-47330414D01*
X51428571Y-48044699D02*
X51904761Y-48044699D01*
X51333333Y-48330414D02*
X51666666Y-47330414D01*
X51666666Y-47330414D02*
X51999999Y-48330414D01*
X52857142Y-48330414D02*
X52285714Y-48330414D01*
X52571428Y-48330414D02*
X52571428Y-47330414D01*
X52571428Y-47330414D02*
X52476190Y-47473271D01*
X52476190Y-47473271D02*
X52380952Y-47568509D01*
X52380952Y-47568509D02*
X52285714Y-47616128D01*
D12*
X48071428Y-46603923D02*
X48071428Y-45103923D01*
X48071428Y-45103923D02*
X48571428Y-46175352D01*
X48571428Y-46175352D02*
X49071428Y-45103923D01*
X49071428Y-45103923D02*
X49071428Y-46603923D01*
X49714286Y-46175352D02*
X50428572Y-46175352D01*
X49571429Y-46603923D02*
X50071429Y-45103923D01*
X50071429Y-45103923D02*
X50571429Y-46603923D01*
X51357143Y-45103923D02*
X51642857Y-45103923D01*
X51642857Y-45103923D02*
X51785714Y-45175352D01*
X51785714Y-45175352D02*
X51928571Y-45318209D01*
X51928571Y-45318209D02*
X52000000Y-45603923D01*
X52000000Y-45603923D02*
X52000000Y-46103923D01*
X52000000Y-46103923D02*
X51928571Y-46389637D01*
X51928571Y-46389637D02*
X51785714Y-46532495D01*
X51785714Y-46532495D02*
X51642857Y-46603923D01*
X51642857Y-46603923D02*
X51357143Y-46603923D01*
X51357143Y-46603923D02*
X51214286Y-46532495D01*
X51214286Y-46532495D02*
X51071428Y-46389637D01*
X51071428Y-46389637D02*
X51000000Y-46103923D01*
X51000000Y-46103923D02*
X51000000Y-45603923D01*
X51000000Y-45603923D02*
X51071428Y-45318209D01*
X51071428Y-45318209D02*
X51214286Y-45175352D01*
X51214286Y-45175352D02*
X51357143Y-45103923D01*
D11*
X47130000Y-55564285D02*
X46749047Y-55830952D01*
X47130000Y-56021428D02*
X46330000Y-56021428D01*
X46330000Y-56021428D02*
X46330000Y-55716666D01*
X46330000Y-55716666D02*
X46368095Y-55640476D01*
X46368095Y-55640476D02*
X46406190Y-55602381D01*
X46406190Y-55602381D02*
X46482381Y-55564285D01*
X46482381Y-55564285D02*
X46596666Y-55564285D01*
X46596666Y-55564285D02*
X46672857Y-55602381D01*
X46672857Y-55602381D02*
X46710952Y-55640476D01*
X46710952Y-55640476D02*
X46749047Y-55716666D01*
X46749047Y-55716666D02*
X46749047Y-56021428D01*
X47130000Y-54802381D02*
X47130000Y-55259524D01*
X47130000Y-55030952D02*
X46330000Y-55030952D01*
X46330000Y-55030952D02*
X46444285Y-55107143D01*
X46444285Y-55107143D02*
X46520476Y-55183333D01*
X46520476Y-55183333D02*
X46558571Y-55259524D01*
X47130000Y-54040476D02*
X47130000Y-54497619D01*
X47130000Y-54269047D02*
X46330000Y-54269047D01*
X46330000Y-54269047D02*
X46444285Y-54345238D01*
X46444285Y-54345238D02*
X46520476Y-54421428D01*
X46520476Y-54421428D02*
X46558571Y-54497619D01*
X46330000Y-53354761D02*
X46330000Y-53507142D01*
X46330000Y-53507142D02*
X46368095Y-53583333D01*
X46368095Y-53583333D02*
X46406190Y-53621428D01*
X46406190Y-53621428D02*
X46520476Y-53697618D01*
X46520476Y-53697618D02*
X46672857Y-53735714D01*
X46672857Y-53735714D02*
X46977619Y-53735714D01*
X46977619Y-53735714D02*
X47053809Y-53697618D01*
X47053809Y-53697618D02*
X47091905Y-53659523D01*
X47091905Y-53659523D02*
X47130000Y-53583333D01*
X47130000Y-53583333D02*
X47130000Y-53430952D01*
X47130000Y-53430952D02*
X47091905Y-53354761D01*
X47091905Y-53354761D02*
X47053809Y-53316666D01*
X47053809Y-53316666D02*
X46977619Y-53278571D01*
X46977619Y-53278571D02*
X46787143Y-53278571D01*
X46787143Y-53278571D02*
X46710952Y-53316666D01*
X46710952Y-53316666D02*
X46672857Y-53354761D01*
X46672857Y-53354761D02*
X46634762Y-53430952D01*
X46634762Y-53430952D02*
X46634762Y-53583333D01*
X46634762Y-53583333D02*
X46672857Y-53659523D01*
X46672857Y-53659523D02*
X46710952Y-53697618D01*
X46710952Y-53697618D02*
X46787143Y-53735714D01*
X73697143Y-57150000D02*
X73430476Y-56769047D01*
X73240000Y-57150000D02*
X73240000Y-56350000D01*
X73240000Y-56350000D02*
X73544762Y-56350000D01*
X73544762Y-56350000D02*
X73620952Y-56388095D01*
X73620952Y-56388095D02*
X73659047Y-56426190D01*
X73659047Y-56426190D02*
X73697143Y-56502381D01*
X73697143Y-56502381D02*
X73697143Y-56616666D01*
X73697143Y-56616666D02*
X73659047Y-56692857D01*
X73659047Y-56692857D02*
X73620952Y-56730952D01*
X73620952Y-56730952D02*
X73544762Y-56769047D01*
X73544762Y-56769047D02*
X73240000Y-56769047D01*
X74420952Y-56350000D02*
X74040000Y-56350000D01*
X74040000Y-56350000D02*
X74001904Y-56730952D01*
X74001904Y-56730952D02*
X74040000Y-56692857D01*
X74040000Y-56692857D02*
X74116190Y-56654762D01*
X74116190Y-56654762D02*
X74306666Y-56654762D01*
X74306666Y-56654762D02*
X74382857Y-56692857D01*
X74382857Y-56692857D02*
X74420952Y-56730952D01*
X74420952Y-56730952D02*
X74459047Y-56807143D01*
X74459047Y-56807143D02*
X74459047Y-56997619D01*
X74459047Y-56997619D02*
X74420952Y-57073809D01*
X74420952Y-57073809D02*
X74382857Y-57111905D01*
X74382857Y-57111905D02*
X74306666Y-57150000D01*
X74306666Y-57150000D02*
X74116190Y-57150000D01*
X74116190Y-57150000D02*
X74040000Y-57111905D01*
X74040000Y-57111905D02*
X74001904Y-57073809D01*
X74954286Y-56350000D02*
X75030476Y-56350000D01*
X75030476Y-56350000D02*
X75106667Y-56388095D01*
X75106667Y-56388095D02*
X75144762Y-56426190D01*
X75144762Y-56426190D02*
X75182857Y-56502381D01*
X75182857Y-56502381D02*
X75220952Y-56654762D01*
X75220952Y-56654762D02*
X75220952Y-56845238D01*
X75220952Y-56845238D02*
X75182857Y-56997619D01*
X75182857Y-56997619D02*
X75144762Y-57073809D01*
X75144762Y-57073809D02*
X75106667Y-57111905D01*
X75106667Y-57111905D02*
X75030476Y-57150000D01*
X75030476Y-57150000D02*
X74954286Y-57150000D01*
X74954286Y-57150000D02*
X74878095Y-57111905D01*
X74878095Y-57111905D02*
X74840000Y-57073809D01*
X74840000Y-57073809D02*
X74801905Y-56997619D01*
X74801905Y-56997619D02*
X74763809Y-56845238D01*
X74763809Y-56845238D02*
X74763809Y-56654762D01*
X74763809Y-56654762D02*
X74801905Y-56502381D01*
X74801905Y-56502381D02*
X74840000Y-56426190D01*
X74840000Y-56426190D02*
X74878095Y-56388095D01*
X74878095Y-56388095D02*
X74954286Y-56350000D01*
X75944762Y-56350000D02*
X75563810Y-56350000D01*
X75563810Y-56350000D02*
X75525714Y-56730952D01*
X75525714Y-56730952D02*
X75563810Y-56692857D01*
X75563810Y-56692857D02*
X75640000Y-56654762D01*
X75640000Y-56654762D02*
X75830476Y-56654762D01*
X75830476Y-56654762D02*
X75906667Y-56692857D01*
X75906667Y-56692857D02*
X75944762Y-56730952D01*
X75944762Y-56730952D02*
X75982857Y-56807143D01*
X75982857Y-56807143D02*
X75982857Y-56997619D01*
X75982857Y-56997619D02*
X75944762Y-57073809D01*
X75944762Y-57073809D02*
X75906667Y-57111905D01*
X75906667Y-57111905D02*
X75830476Y-57150000D01*
X75830476Y-57150000D02*
X75640000Y-57150000D01*
X75640000Y-57150000D02*
X75563810Y-57111905D01*
X75563810Y-57111905D02*
X75525714Y-57073809D01*
X40600000Y-58960952D02*
X41247619Y-58960952D01*
X41247619Y-58960952D02*
X41323809Y-58922857D01*
X41323809Y-58922857D02*
X41361905Y-58884762D01*
X41361905Y-58884762D02*
X41400000Y-58808571D01*
X41400000Y-58808571D02*
X41400000Y-58656190D01*
X41400000Y-58656190D02*
X41361905Y-58580000D01*
X41361905Y-58580000D02*
X41323809Y-58541905D01*
X41323809Y-58541905D02*
X41247619Y-58503809D01*
X41247619Y-58503809D02*
X40600000Y-58503809D01*
X41400000Y-57703810D02*
X41400000Y-58160953D01*
X41400000Y-57932381D02*
X40600000Y-57932381D01*
X40600000Y-57932381D02*
X40714285Y-58008572D01*
X40714285Y-58008572D02*
X40790476Y-58084762D01*
X40790476Y-58084762D02*
X40828571Y-58160953D01*
X40600000Y-57208571D02*
X40600000Y-57132381D01*
X40600000Y-57132381D02*
X40638095Y-57056190D01*
X40638095Y-57056190D02*
X40676190Y-57018095D01*
X40676190Y-57018095D02*
X40752381Y-56980000D01*
X40752381Y-56980000D02*
X40904762Y-56941905D01*
X40904762Y-56941905D02*
X41095238Y-56941905D01*
X41095238Y-56941905D02*
X41247619Y-56980000D01*
X41247619Y-56980000D02*
X41323809Y-57018095D01*
X41323809Y-57018095D02*
X41361905Y-57056190D01*
X41361905Y-57056190D02*
X41400000Y-57132381D01*
X41400000Y-57132381D02*
X41400000Y-57208571D01*
X41400000Y-57208571D02*
X41361905Y-57284762D01*
X41361905Y-57284762D02*
X41323809Y-57322857D01*
X41323809Y-57322857D02*
X41247619Y-57360952D01*
X41247619Y-57360952D02*
X41095238Y-57399048D01*
X41095238Y-57399048D02*
X40904762Y-57399048D01*
X40904762Y-57399048D02*
X40752381Y-57360952D01*
X40752381Y-57360952D02*
X40676190Y-57322857D01*
X40676190Y-57322857D02*
X40638095Y-57284762D01*
X40638095Y-57284762D02*
X40600000Y-57208571D01*
X40600000Y-56218095D02*
X40600000Y-56599047D01*
X40600000Y-56599047D02*
X40980952Y-56637143D01*
X40980952Y-56637143D02*
X40942857Y-56599047D01*
X40942857Y-56599047D02*
X40904762Y-56522857D01*
X40904762Y-56522857D02*
X40904762Y-56332381D01*
X40904762Y-56332381D02*
X40942857Y-56256190D01*
X40942857Y-56256190D02*
X40980952Y-56218095D01*
X40980952Y-56218095D02*
X41057143Y-56180000D01*
X41057143Y-56180000D02*
X41247619Y-56180000D01*
X41247619Y-56180000D02*
X41323809Y-56218095D01*
X41323809Y-56218095D02*
X41361905Y-56256190D01*
X41361905Y-56256190D02*
X41400000Y-56332381D01*
X41400000Y-56332381D02*
X41400000Y-56522857D01*
X41400000Y-56522857D02*
X41361905Y-56599047D01*
X41361905Y-56599047D02*
X41323809Y-56637143D01*
X72704762Y-44693809D02*
X72666666Y-44731905D01*
X72666666Y-44731905D02*
X72552381Y-44770000D01*
X72552381Y-44770000D02*
X72476190Y-44770000D01*
X72476190Y-44770000D02*
X72361904Y-44731905D01*
X72361904Y-44731905D02*
X72285714Y-44655714D01*
X72285714Y-44655714D02*
X72247619Y-44579524D01*
X72247619Y-44579524D02*
X72209523Y-44427143D01*
X72209523Y-44427143D02*
X72209523Y-44312857D01*
X72209523Y-44312857D02*
X72247619Y-44160476D01*
X72247619Y-44160476D02*
X72285714Y-44084285D01*
X72285714Y-44084285D02*
X72361904Y-44008095D01*
X72361904Y-44008095D02*
X72476190Y-43970000D01*
X72476190Y-43970000D02*
X72552381Y-43970000D01*
X72552381Y-43970000D02*
X72666666Y-44008095D01*
X72666666Y-44008095D02*
X72704762Y-44046190D01*
X73428571Y-43970000D02*
X73047619Y-43970000D01*
X73047619Y-43970000D02*
X73009523Y-44350952D01*
X73009523Y-44350952D02*
X73047619Y-44312857D01*
X73047619Y-44312857D02*
X73123809Y-44274762D01*
X73123809Y-44274762D02*
X73314285Y-44274762D01*
X73314285Y-44274762D02*
X73390476Y-44312857D01*
X73390476Y-44312857D02*
X73428571Y-44350952D01*
X73428571Y-44350952D02*
X73466666Y-44427143D01*
X73466666Y-44427143D02*
X73466666Y-44617619D01*
X73466666Y-44617619D02*
X73428571Y-44693809D01*
X73428571Y-44693809D02*
X73390476Y-44731905D01*
X73390476Y-44731905D02*
X73314285Y-44770000D01*
X73314285Y-44770000D02*
X73123809Y-44770000D01*
X73123809Y-44770000D02*
X73047619Y-44731905D01*
X73047619Y-44731905D02*
X73009523Y-44693809D01*
X73961905Y-43970000D02*
X74038095Y-43970000D01*
X74038095Y-43970000D02*
X74114286Y-44008095D01*
X74114286Y-44008095D02*
X74152381Y-44046190D01*
X74152381Y-44046190D02*
X74190476Y-44122381D01*
X74190476Y-44122381D02*
X74228571Y-44274762D01*
X74228571Y-44274762D02*
X74228571Y-44465238D01*
X74228571Y-44465238D02*
X74190476Y-44617619D01*
X74190476Y-44617619D02*
X74152381Y-44693809D01*
X74152381Y-44693809D02*
X74114286Y-44731905D01*
X74114286Y-44731905D02*
X74038095Y-44770000D01*
X74038095Y-44770000D02*
X73961905Y-44770000D01*
X73961905Y-44770000D02*
X73885714Y-44731905D01*
X73885714Y-44731905D02*
X73847619Y-44693809D01*
X73847619Y-44693809D02*
X73809524Y-44617619D01*
X73809524Y-44617619D02*
X73771428Y-44465238D01*
X73771428Y-44465238D02*
X73771428Y-44274762D01*
X73771428Y-44274762D02*
X73809524Y-44122381D01*
X73809524Y-44122381D02*
X73847619Y-44046190D01*
X73847619Y-44046190D02*
X73885714Y-44008095D01*
X73885714Y-44008095D02*
X73961905Y-43970000D01*
X74914286Y-43970000D02*
X74761905Y-43970000D01*
X74761905Y-43970000D02*
X74685714Y-44008095D01*
X74685714Y-44008095D02*
X74647619Y-44046190D01*
X74647619Y-44046190D02*
X74571429Y-44160476D01*
X74571429Y-44160476D02*
X74533333Y-44312857D01*
X74533333Y-44312857D02*
X74533333Y-44617619D01*
X74533333Y-44617619D02*
X74571429Y-44693809D01*
X74571429Y-44693809D02*
X74609524Y-44731905D01*
X74609524Y-44731905D02*
X74685714Y-44770000D01*
X74685714Y-44770000D02*
X74838095Y-44770000D01*
X74838095Y-44770000D02*
X74914286Y-44731905D01*
X74914286Y-44731905D02*
X74952381Y-44693809D01*
X74952381Y-44693809D02*
X74990476Y-44617619D01*
X74990476Y-44617619D02*
X74990476Y-44427143D01*
X74990476Y-44427143D02*
X74952381Y-44350952D01*
X74952381Y-44350952D02*
X74914286Y-44312857D01*
X74914286Y-44312857D02*
X74838095Y-44274762D01*
X74838095Y-44274762D02*
X74685714Y-44274762D01*
X74685714Y-44274762D02*
X74609524Y-44312857D01*
X74609524Y-44312857D02*
X74571429Y-44350952D01*
X74571429Y-44350952D02*
X74533333Y-44427143D01*
X75337143Y-54500000D02*
X75070476Y-54119047D01*
X74880000Y-54500000D02*
X74880000Y-53700000D01*
X74880000Y-53700000D02*
X75184762Y-53700000D01*
X75184762Y-53700000D02*
X75260952Y-53738095D01*
X75260952Y-53738095D02*
X75299047Y-53776190D01*
X75299047Y-53776190D02*
X75337143Y-53852381D01*
X75337143Y-53852381D02*
X75337143Y-53966666D01*
X75337143Y-53966666D02*
X75299047Y-54042857D01*
X75299047Y-54042857D02*
X75260952Y-54080952D01*
X75260952Y-54080952D02*
X75184762Y-54119047D01*
X75184762Y-54119047D02*
X74880000Y-54119047D01*
X76060952Y-53700000D02*
X75680000Y-53700000D01*
X75680000Y-53700000D02*
X75641904Y-54080952D01*
X75641904Y-54080952D02*
X75680000Y-54042857D01*
X75680000Y-54042857D02*
X75756190Y-54004762D01*
X75756190Y-54004762D02*
X75946666Y-54004762D01*
X75946666Y-54004762D02*
X76022857Y-54042857D01*
X76022857Y-54042857D02*
X76060952Y-54080952D01*
X76060952Y-54080952D02*
X76099047Y-54157143D01*
X76099047Y-54157143D02*
X76099047Y-54347619D01*
X76099047Y-54347619D02*
X76060952Y-54423809D01*
X76060952Y-54423809D02*
X76022857Y-54461905D01*
X76022857Y-54461905D02*
X75946666Y-54500000D01*
X75946666Y-54500000D02*
X75756190Y-54500000D01*
X75756190Y-54500000D02*
X75680000Y-54461905D01*
X75680000Y-54461905D02*
X75641904Y-54423809D01*
X76594286Y-53700000D02*
X76670476Y-53700000D01*
X76670476Y-53700000D02*
X76746667Y-53738095D01*
X76746667Y-53738095D02*
X76784762Y-53776190D01*
X76784762Y-53776190D02*
X76822857Y-53852381D01*
X76822857Y-53852381D02*
X76860952Y-54004762D01*
X76860952Y-54004762D02*
X76860952Y-54195238D01*
X76860952Y-54195238D02*
X76822857Y-54347619D01*
X76822857Y-54347619D02*
X76784762Y-54423809D01*
X76784762Y-54423809D02*
X76746667Y-54461905D01*
X76746667Y-54461905D02*
X76670476Y-54500000D01*
X76670476Y-54500000D02*
X76594286Y-54500000D01*
X76594286Y-54500000D02*
X76518095Y-54461905D01*
X76518095Y-54461905D02*
X76480000Y-54423809D01*
X76480000Y-54423809D02*
X76441905Y-54347619D01*
X76441905Y-54347619D02*
X76403809Y-54195238D01*
X76403809Y-54195238D02*
X76403809Y-54004762D01*
X76403809Y-54004762D02*
X76441905Y-53852381D01*
X76441905Y-53852381D02*
X76480000Y-53776190D01*
X76480000Y-53776190D02*
X76518095Y-53738095D01*
X76518095Y-53738095D02*
X76594286Y-53700000D01*
X77546667Y-53700000D02*
X77394286Y-53700000D01*
X77394286Y-53700000D02*
X77318095Y-53738095D01*
X77318095Y-53738095D02*
X77280000Y-53776190D01*
X77280000Y-53776190D02*
X77203810Y-53890476D01*
X77203810Y-53890476D02*
X77165714Y-54042857D01*
X77165714Y-54042857D02*
X77165714Y-54347619D01*
X77165714Y-54347619D02*
X77203810Y-54423809D01*
X77203810Y-54423809D02*
X77241905Y-54461905D01*
X77241905Y-54461905D02*
X77318095Y-54500000D01*
X77318095Y-54500000D02*
X77470476Y-54500000D01*
X77470476Y-54500000D02*
X77546667Y-54461905D01*
X77546667Y-54461905D02*
X77584762Y-54423809D01*
X77584762Y-54423809D02*
X77622857Y-54347619D01*
X77622857Y-54347619D02*
X77622857Y-54157143D01*
X77622857Y-54157143D02*
X77584762Y-54080952D01*
X77584762Y-54080952D02*
X77546667Y-54042857D01*
X77546667Y-54042857D02*
X77470476Y-54004762D01*
X77470476Y-54004762D02*
X77318095Y-54004762D01*
X77318095Y-54004762D02*
X77241905Y-54042857D01*
X77241905Y-54042857D02*
X77203810Y-54080952D01*
X77203810Y-54080952D02*
X77165714Y-54157143D01*
X62050000Y-34412857D02*
X61669047Y-34679524D01*
X62050000Y-34870000D02*
X61250000Y-34870000D01*
X61250000Y-34870000D02*
X61250000Y-34565238D01*
X61250000Y-34565238D02*
X61288095Y-34489048D01*
X61288095Y-34489048D02*
X61326190Y-34450953D01*
X61326190Y-34450953D02*
X61402381Y-34412857D01*
X61402381Y-34412857D02*
X61516666Y-34412857D01*
X61516666Y-34412857D02*
X61592857Y-34450953D01*
X61592857Y-34450953D02*
X61630952Y-34489048D01*
X61630952Y-34489048D02*
X61669047Y-34565238D01*
X61669047Y-34565238D02*
X61669047Y-34870000D01*
X62050000Y-33650953D02*
X62050000Y-34108096D01*
X62050000Y-33879524D02*
X61250000Y-33879524D01*
X61250000Y-33879524D02*
X61364285Y-33955715D01*
X61364285Y-33955715D02*
X61440476Y-34031905D01*
X61440476Y-34031905D02*
X61478571Y-34108096D01*
X62050000Y-32889048D02*
X62050000Y-33346191D01*
X62050000Y-33117619D02*
X61250000Y-33117619D01*
X61250000Y-33117619D02*
X61364285Y-33193810D01*
X61364285Y-33193810D02*
X61440476Y-33270000D01*
X61440476Y-33270000D02*
X61478571Y-33346191D01*
X61250000Y-32622381D02*
X61250000Y-32089047D01*
X61250000Y-32089047D02*
X62050000Y-32431905D01*
X47722807Y-39303351D02*
X47837093Y-39341446D01*
X47837093Y-39341446D02*
X48027569Y-39341446D01*
X48027569Y-39341446D02*
X48103760Y-39303351D01*
X48103760Y-39303351D02*
X48141855Y-39265255D01*
X48141855Y-39265255D02*
X48179950Y-39189065D01*
X48179950Y-39189065D02*
X48179950Y-39112874D01*
X48179950Y-39112874D02*
X48141855Y-39036684D01*
X48141855Y-39036684D02*
X48103760Y-38998589D01*
X48103760Y-38998589D02*
X48027569Y-38960493D01*
X48027569Y-38960493D02*
X47875188Y-38922398D01*
X47875188Y-38922398D02*
X47798998Y-38884303D01*
X47798998Y-38884303D02*
X47760903Y-38846208D01*
X47760903Y-38846208D02*
X47722807Y-38770017D01*
X47722807Y-38770017D02*
X47722807Y-38693827D01*
X47722807Y-38693827D02*
X47760903Y-38617636D01*
X47760903Y-38617636D02*
X47798998Y-38579541D01*
X47798998Y-38579541D02*
X47875188Y-38541446D01*
X47875188Y-38541446D02*
X48065665Y-38541446D01*
X48065665Y-38541446D02*
X48179950Y-38579541D01*
X48446617Y-38541446D02*
X48637093Y-39341446D01*
X48637093Y-39341446D02*
X48789474Y-38770017D01*
X48789474Y-38770017D02*
X48941855Y-39341446D01*
X48941855Y-39341446D02*
X49132332Y-38541446D01*
X49360903Y-38541446D02*
X49856141Y-38541446D01*
X49856141Y-38541446D02*
X49589475Y-38846208D01*
X49589475Y-38846208D02*
X49703760Y-38846208D01*
X49703760Y-38846208D02*
X49779951Y-38884303D01*
X49779951Y-38884303D02*
X49818046Y-38922398D01*
X49818046Y-38922398D02*
X49856141Y-38998589D01*
X49856141Y-38998589D02*
X49856141Y-39189065D01*
X49856141Y-39189065D02*
X49818046Y-39265255D01*
X49818046Y-39265255D02*
X49779951Y-39303351D01*
X49779951Y-39303351D02*
X49703760Y-39341446D01*
X49703760Y-39341446D02*
X49475189Y-39341446D01*
X49475189Y-39341446D02*
X49398998Y-39303351D01*
X49398998Y-39303351D02*
X49360903Y-39265255D01*
X50351380Y-38541446D02*
X50427570Y-38541446D01*
X50427570Y-38541446D02*
X50503761Y-38579541D01*
X50503761Y-38579541D02*
X50541856Y-38617636D01*
X50541856Y-38617636D02*
X50579951Y-38693827D01*
X50579951Y-38693827D02*
X50618046Y-38846208D01*
X50618046Y-38846208D02*
X50618046Y-39036684D01*
X50618046Y-39036684D02*
X50579951Y-39189065D01*
X50579951Y-39189065D02*
X50541856Y-39265255D01*
X50541856Y-39265255D02*
X50503761Y-39303351D01*
X50503761Y-39303351D02*
X50427570Y-39341446D01*
X50427570Y-39341446D02*
X50351380Y-39341446D01*
X50351380Y-39341446D02*
X50275189Y-39303351D01*
X50275189Y-39303351D02*
X50237094Y-39265255D01*
X50237094Y-39265255D02*
X50198999Y-39189065D01*
X50198999Y-39189065D02*
X50160903Y-39036684D01*
X50160903Y-39036684D02*
X50160903Y-38846208D01*
X50160903Y-38846208D02*
X50198999Y-38693827D01*
X50198999Y-38693827D02*
X50237094Y-38617636D01*
X50237094Y-38617636D02*
X50275189Y-38579541D01*
X50275189Y-38579541D02*
X50351380Y-38541446D01*
X50884713Y-38541446D02*
X51379951Y-38541446D01*
X51379951Y-38541446D02*
X51113285Y-38846208D01*
X51113285Y-38846208D02*
X51227570Y-38846208D01*
X51227570Y-38846208D02*
X51303761Y-38884303D01*
X51303761Y-38884303D02*
X51341856Y-38922398D01*
X51341856Y-38922398D02*
X51379951Y-38998589D01*
X51379951Y-38998589D02*
X51379951Y-39189065D01*
X51379951Y-39189065D02*
X51341856Y-39265255D01*
X51341856Y-39265255D02*
X51303761Y-39303351D01*
X51303761Y-39303351D02*
X51227570Y-39341446D01*
X51227570Y-39341446D02*
X50998999Y-39341446D01*
X50998999Y-39341446D02*
X50922808Y-39303351D01*
X50922808Y-39303351D02*
X50884713Y-39265255D01*
X56969047Y-35247857D02*
X56588094Y-35514524D01*
X56969047Y-35705000D02*
X56169047Y-35705000D01*
X56169047Y-35705000D02*
X56169047Y-35400238D01*
X56169047Y-35400238D02*
X56207142Y-35324048D01*
X56207142Y-35324048D02*
X56245237Y-35285953D01*
X56245237Y-35285953D02*
X56321428Y-35247857D01*
X56321428Y-35247857D02*
X56435713Y-35247857D01*
X56435713Y-35247857D02*
X56511904Y-35285953D01*
X56511904Y-35285953D02*
X56549999Y-35324048D01*
X56549999Y-35324048D02*
X56588094Y-35400238D01*
X56588094Y-35400238D02*
X56588094Y-35705000D01*
X56969047Y-34485953D02*
X56969047Y-34943096D01*
X56969047Y-34714524D02*
X56169047Y-34714524D01*
X56169047Y-34714524D02*
X56283332Y-34790715D01*
X56283332Y-34790715D02*
X56359523Y-34866905D01*
X56359523Y-34866905D02*
X56397618Y-34943096D01*
X56169047Y-33990714D02*
X56169047Y-33914524D01*
X56169047Y-33914524D02*
X56207142Y-33838333D01*
X56207142Y-33838333D02*
X56245237Y-33800238D01*
X56245237Y-33800238D02*
X56321428Y-33762143D01*
X56321428Y-33762143D02*
X56473809Y-33724048D01*
X56473809Y-33724048D02*
X56664285Y-33724048D01*
X56664285Y-33724048D02*
X56816666Y-33762143D01*
X56816666Y-33762143D02*
X56892856Y-33800238D01*
X56892856Y-33800238D02*
X56930952Y-33838333D01*
X56930952Y-33838333D02*
X56969047Y-33914524D01*
X56969047Y-33914524D02*
X56969047Y-33990714D01*
X56969047Y-33990714D02*
X56930952Y-34066905D01*
X56930952Y-34066905D02*
X56892856Y-34105000D01*
X56892856Y-34105000D02*
X56816666Y-34143095D01*
X56816666Y-34143095D02*
X56664285Y-34181191D01*
X56664285Y-34181191D02*
X56473809Y-34181191D01*
X56473809Y-34181191D02*
X56321428Y-34143095D01*
X56321428Y-34143095D02*
X56245237Y-34105000D01*
X56245237Y-34105000D02*
X56207142Y-34066905D01*
X56207142Y-34066905D02*
X56169047Y-33990714D01*
X56435713Y-33038333D02*
X56969047Y-33038333D01*
X56130952Y-33228809D02*
X56702380Y-33419286D01*
X56702380Y-33419286D02*
X56702380Y-32924047D01*
X45884048Y-31600000D02*
X45884048Y-32247619D01*
X45884048Y-32247619D02*
X45922143Y-32323809D01*
X45922143Y-32323809D02*
X45960238Y-32361905D01*
X45960238Y-32361905D02*
X46036429Y-32400000D01*
X46036429Y-32400000D02*
X46188810Y-32400000D01*
X46188810Y-32400000D02*
X46265000Y-32361905D01*
X46265000Y-32361905D02*
X46303095Y-32323809D01*
X46303095Y-32323809D02*
X46341191Y-32247619D01*
X46341191Y-32247619D02*
X46341191Y-31600000D01*
X47141190Y-32400000D02*
X46684047Y-32400000D01*
X46912619Y-32400000D02*
X46912619Y-31600000D01*
X46912619Y-31600000D02*
X46836428Y-31714285D01*
X46836428Y-31714285D02*
X46760238Y-31790476D01*
X46760238Y-31790476D02*
X46684047Y-31828571D01*
X47636429Y-31600000D02*
X47712619Y-31600000D01*
X47712619Y-31600000D02*
X47788810Y-31638095D01*
X47788810Y-31638095D02*
X47826905Y-31676190D01*
X47826905Y-31676190D02*
X47865000Y-31752381D01*
X47865000Y-31752381D02*
X47903095Y-31904762D01*
X47903095Y-31904762D02*
X47903095Y-32095238D01*
X47903095Y-32095238D02*
X47865000Y-32247619D01*
X47865000Y-32247619D02*
X47826905Y-32323809D01*
X47826905Y-32323809D02*
X47788810Y-32361905D01*
X47788810Y-32361905D02*
X47712619Y-32400000D01*
X47712619Y-32400000D02*
X47636429Y-32400000D01*
X47636429Y-32400000D02*
X47560238Y-32361905D01*
X47560238Y-32361905D02*
X47522143Y-32323809D01*
X47522143Y-32323809D02*
X47484048Y-32247619D01*
X47484048Y-32247619D02*
X47445952Y-32095238D01*
X47445952Y-32095238D02*
X47445952Y-31904762D01*
X47445952Y-31904762D02*
X47484048Y-31752381D01*
X47484048Y-31752381D02*
X47522143Y-31676190D01*
X47522143Y-31676190D02*
X47560238Y-31638095D01*
X47560238Y-31638095D02*
X47636429Y-31600000D01*
X48665000Y-32400000D02*
X48207857Y-32400000D01*
X48436429Y-32400000D02*
X48436429Y-31600000D01*
X48436429Y-31600000D02*
X48360238Y-31714285D01*
X48360238Y-31714285D02*
X48284048Y-31790476D01*
X48284048Y-31790476D02*
X48207857Y-31828571D01*
X75750000Y-51390476D02*
X76397619Y-51390476D01*
X76397619Y-51390476D02*
X76473809Y-51352381D01*
X76473809Y-51352381D02*
X76511905Y-51314286D01*
X76511905Y-51314286D02*
X76550000Y-51238095D01*
X76550000Y-51238095D02*
X76550000Y-51085714D01*
X76550000Y-51085714D02*
X76511905Y-51009524D01*
X76511905Y-51009524D02*
X76473809Y-50971429D01*
X76473809Y-50971429D02*
X76397619Y-50933333D01*
X76397619Y-50933333D02*
X75750000Y-50933333D01*
X75750000Y-50171429D02*
X75750000Y-50552381D01*
X75750000Y-50552381D02*
X76130952Y-50590477D01*
X76130952Y-50590477D02*
X76092857Y-50552381D01*
X76092857Y-50552381D02*
X76054762Y-50476191D01*
X76054762Y-50476191D02*
X76054762Y-50285715D01*
X76054762Y-50285715D02*
X76092857Y-50209524D01*
X76092857Y-50209524D02*
X76130952Y-50171429D01*
X76130952Y-50171429D02*
X76207143Y-50133334D01*
X76207143Y-50133334D02*
X76397619Y-50133334D01*
X76397619Y-50133334D02*
X76473809Y-50171429D01*
X76473809Y-50171429D02*
X76511905Y-50209524D01*
X76511905Y-50209524D02*
X76550000Y-50285715D01*
X76550000Y-50285715D02*
X76550000Y-50476191D01*
X76550000Y-50476191D02*
X76511905Y-50552381D01*
X76511905Y-50552381D02*
X76473809Y-50590477D01*
X75750000Y-49638095D02*
X75750000Y-49561905D01*
X75750000Y-49561905D02*
X75788095Y-49485714D01*
X75788095Y-49485714D02*
X75826190Y-49447619D01*
X75826190Y-49447619D02*
X75902381Y-49409524D01*
X75902381Y-49409524D02*
X76054762Y-49371429D01*
X76054762Y-49371429D02*
X76245238Y-49371429D01*
X76245238Y-49371429D02*
X76397619Y-49409524D01*
X76397619Y-49409524D02*
X76473809Y-49447619D01*
X76473809Y-49447619D02*
X76511905Y-49485714D01*
X76511905Y-49485714D02*
X76550000Y-49561905D01*
X76550000Y-49561905D02*
X76550000Y-49638095D01*
X76550000Y-49638095D02*
X76511905Y-49714286D01*
X76511905Y-49714286D02*
X76473809Y-49752381D01*
X76473809Y-49752381D02*
X76397619Y-49790476D01*
X76397619Y-49790476D02*
X76245238Y-49828572D01*
X76245238Y-49828572D02*
X76054762Y-49828572D01*
X76054762Y-49828572D02*
X75902381Y-49790476D01*
X75902381Y-49790476D02*
X75826190Y-49752381D01*
X75826190Y-49752381D02*
X75788095Y-49714286D01*
X75788095Y-49714286D02*
X75750000Y-49638095D01*
X75750000Y-49104762D02*
X75750000Y-48609524D01*
X75750000Y-48609524D02*
X76054762Y-48876190D01*
X76054762Y-48876190D02*
X76054762Y-48761905D01*
X76054762Y-48761905D02*
X76092857Y-48685714D01*
X76092857Y-48685714D02*
X76130952Y-48647619D01*
X76130952Y-48647619D02*
X76207143Y-48609524D01*
X76207143Y-48609524D02*
X76397619Y-48609524D01*
X76397619Y-48609524D02*
X76473809Y-48647619D01*
X76473809Y-48647619D02*
X76511905Y-48685714D01*
X76511905Y-48685714D02*
X76550000Y-48761905D01*
X76550000Y-48761905D02*
X76550000Y-48990476D01*
X76550000Y-48990476D02*
X76511905Y-49066667D01*
X76511905Y-49066667D02*
X76473809Y-49104762D01*
X53124524Y-51600000D02*
X53124524Y-52247619D01*
X53124524Y-52247619D02*
X53162619Y-52323809D01*
X53162619Y-52323809D02*
X53200714Y-52361905D01*
X53200714Y-52361905D02*
X53276905Y-52400000D01*
X53276905Y-52400000D02*
X53429286Y-52400000D01*
X53429286Y-52400000D02*
X53505476Y-52361905D01*
X53505476Y-52361905D02*
X53543571Y-52323809D01*
X53543571Y-52323809D02*
X53581667Y-52247619D01*
X53581667Y-52247619D02*
X53581667Y-51600000D01*
X54305476Y-51866666D02*
X54305476Y-52400000D01*
X54115000Y-51561905D02*
X53924523Y-52133333D01*
X53924523Y-52133333D02*
X54419762Y-52133333D01*
X54876905Y-51600000D02*
X54953095Y-51600000D01*
X54953095Y-51600000D02*
X55029286Y-51638095D01*
X55029286Y-51638095D02*
X55067381Y-51676190D01*
X55067381Y-51676190D02*
X55105476Y-51752381D01*
X55105476Y-51752381D02*
X55143571Y-51904762D01*
X55143571Y-51904762D02*
X55143571Y-52095238D01*
X55143571Y-52095238D02*
X55105476Y-52247619D01*
X55105476Y-52247619D02*
X55067381Y-52323809D01*
X55067381Y-52323809D02*
X55029286Y-52361905D01*
X55029286Y-52361905D02*
X54953095Y-52400000D01*
X54953095Y-52400000D02*
X54876905Y-52400000D01*
X54876905Y-52400000D02*
X54800714Y-52361905D01*
X54800714Y-52361905D02*
X54762619Y-52323809D01*
X54762619Y-52323809D02*
X54724524Y-52247619D01*
X54724524Y-52247619D02*
X54686428Y-52095238D01*
X54686428Y-52095238D02*
X54686428Y-51904762D01*
X54686428Y-51904762D02*
X54724524Y-51752381D01*
X54724524Y-51752381D02*
X54762619Y-51676190D01*
X54762619Y-51676190D02*
X54800714Y-51638095D01*
X54800714Y-51638095D02*
X54876905Y-51600000D01*
X55905476Y-52400000D02*
X55448333Y-52400000D01*
X55676905Y-52400000D02*
X55676905Y-51600000D01*
X55676905Y-51600000D02*
X55600714Y-51714285D01*
X55600714Y-51714285D02*
X55524524Y-51790476D01*
X55524524Y-51790476D02*
X55448333Y-51828571D01*
X73376000Y-61604404D02*
X74023619Y-61604404D01*
X74023619Y-61604404D02*
X74099809Y-61566309D01*
X74099809Y-61566309D02*
X74137905Y-61528214D01*
X74137905Y-61528214D02*
X74176000Y-61452023D01*
X74176000Y-61452023D02*
X74176000Y-61299642D01*
X74176000Y-61299642D02*
X74137905Y-61223452D01*
X74137905Y-61223452D02*
X74099809Y-61185357D01*
X74099809Y-61185357D02*
X74023619Y-61147261D01*
X74023619Y-61147261D02*
X73376000Y-61147261D01*
X73376000Y-60842500D02*
X73376000Y-60347262D01*
X73376000Y-60347262D02*
X73680762Y-60613928D01*
X73680762Y-60613928D02*
X73680762Y-60499643D01*
X73680762Y-60499643D02*
X73718857Y-60423452D01*
X73718857Y-60423452D02*
X73756952Y-60385357D01*
X73756952Y-60385357D02*
X73833143Y-60347262D01*
X73833143Y-60347262D02*
X74023619Y-60347262D01*
X74023619Y-60347262D02*
X74099809Y-60385357D01*
X74099809Y-60385357D02*
X74137905Y-60423452D01*
X74137905Y-60423452D02*
X74176000Y-60499643D01*
X74176000Y-60499643D02*
X74176000Y-60728214D01*
X74176000Y-60728214D02*
X74137905Y-60804405D01*
X74137905Y-60804405D02*
X74099809Y-60842500D01*
X73376000Y-59852023D02*
X73376000Y-59775833D01*
X73376000Y-59775833D02*
X73414095Y-59699642D01*
X73414095Y-59699642D02*
X73452190Y-59661547D01*
X73452190Y-59661547D02*
X73528381Y-59623452D01*
X73528381Y-59623452D02*
X73680762Y-59585357D01*
X73680762Y-59585357D02*
X73871238Y-59585357D01*
X73871238Y-59585357D02*
X74023619Y-59623452D01*
X74023619Y-59623452D02*
X74099809Y-59661547D01*
X74099809Y-59661547D02*
X74137905Y-59699642D01*
X74137905Y-59699642D02*
X74176000Y-59775833D01*
X74176000Y-59775833D02*
X74176000Y-59852023D01*
X74176000Y-59852023D02*
X74137905Y-59928214D01*
X74137905Y-59928214D02*
X74099809Y-59966309D01*
X74099809Y-59966309D02*
X74023619Y-60004404D01*
X74023619Y-60004404D02*
X73871238Y-60042500D01*
X73871238Y-60042500D02*
X73680762Y-60042500D01*
X73680762Y-60042500D02*
X73528381Y-60004404D01*
X73528381Y-60004404D02*
X73452190Y-59966309D01*
X73452190Y-59966309D02*
X73414095Y-59928214D01*
X73414095Y-59928214D02*
X73376000Y-59852023D01*
X74176000Y-58823452D02*
X74176000Y-59280595D01*
X74176000Y-59052023D02*
X73376000Y-59052023D01*
X73376000Y-59052023D02*
X73490285Y-59128214D01*
X73490285Y-59128214D02*
X73566476Y-59204404D01*
X73566476Y-59204404D02*
X73604571Y-59280595D01*
X38547677Y-27724350D02*
X38547677Y-28371969D01*
X38547677Y-28371969D02*
X38585772Y-28448159D01*
X38585772Y-28448159D02*
X38623867Y-28486255D01*
X38623867Y-28486255D02*
X38700058Y-28524350D01*
X38700058Y-28524350D02*
X38852439Y-28524350D01*
X38852439Y-28524350D02*
X38928629Y-28486255D01*
X38928629Y-28486255D02*
X38966724Y-28448159D01*
X38966724Y-28448159D02*
X39004820Y-28371969D01*
X39004820Y-28371969D02*
X39004820Y-27724350D01*
X39728629Y-27991016D02*
X39728629Y-28524350D01*
X39538153Y-27686255D02*
X39347676Y-28257683D01*
X39347676Y-28257683D02*
X39842915Y-28257683D01*
X40300058Y-27724350D02*
X40376248Y-27724350D01*
X40376248Y-27724350D02*
X40452439Y-27762445D01*
X40452439Y-27762445D02*
X40490534Y-27800540D01*
X40490534Y-27800540D02*
X40528629Y-27876731D01*
X40528629Y-27876731D02*
X40566724Y-28029112D01*
X40566724Y-28029112D02*
X40566724Y-28219588D01*
X40566724Y-28219588D02*
X40528629Y-28371969D01*
X40528629Y-28371969D02*
X40490534Y-28448159D01*
X40490534Y-28448159D02*
X40452439Y-28486255D01*
X40452439Y-28486255D02*
X40376248Y-28524350D01*
X40376248Y-28524350D02*
X40300058Y-28524350D01*
X40300058Y-28524350D02*
X40223867Y-28486255D01*
X40223867Y-28486255D02*
X40185772Y-28448159D01*
X40185772Y-28448159D02*
X40147677Y-28371969D01*
X40147677Y-28371969D02*
X40109581Y-28219588D01*
X40109581Y-28219588D02*
X40109581Y-28029112D01*
X40109581Y-28029112D02*
X40147677Y-27876731D01*
X40147677Y-27876731D02*
X40185772Y-27800540D01*
X40185772Y-27800540D02*
X40223867Y-27762445D01*
X40223867Y-27762445D02*
X40300058Y-27724350D01*
X40871486Y-27800540D02*
X40909582Y-27762445D01*
X40909582Y-27762445D02*
X40985772Y-27724350D01*
X40985772Y-27724350D02*
X41176248Y-27724350D01*
X41176248Y-27724350D02*
X41252439Y-27762445D01*
X41252439Y-27762445D02*
X41290534Y-27800540D01*
X41290534Y-27800540D02*
X41328629Y-27876731D01*
X41328629Y-27876731D02*
X41328629Y-27952921D01*
X41328629Y-27952921D02*
X41290534Y-28067207D01*
X41290534Y-28067207D02*
X40833391Y-28524350D01*
X40833391Y-28524350D02*
X41328629Y-28524350D01*
X42399118Y-69333061D02*
X42513404Y-69371156D01*
X42513404Y-69371156D02*
X42703880Y-69371156D01*
X42703880Y-69371156D02*
X42780071Y-69333061D01*
X42780071Y-69333061D02*
X42818166Y-69294965D01*
X42818166Y-69294965D02*
X42856261Y-69218775D01*
X42856261Y-69218775D02*
X42856261Y-69142584D01*
X42856261Y-69142584D02*
X42818166Y-69066394D01*
X42818166Y-69066394D02*
X42780071Y-69028299D01*
X42780071Y-69028299D02*
X42703880Y-68990203D01*
X42703880Y-68990203D02*
X42551499Y-68952108D01*
X42551499Y-68952108D02*
X42475309Y-68914013D01*
X42475309Y-68914013D02*
X42437214Y-68875918D01*
X42437214Y-68875918D02*
X42399118Y-68799727D01*
X42399118Y-68799727D02*
X42399118Y-68723537D01*
X42399118Y-68723537D02*
X42437214Y-68647346D01*
X42437214Y-68647346D02*
X42475309Y-68609251D01*
X42475309Y-68609251D02*
X42551499Y-68571156D01*
X42551499Y-68571156D02*
X42741976Y-68571156D01*
X42741976Y-68571156D02*
X42856261Y-68609251D01*
X43122928Y-68571156D02*
X43313404Y-69371156D01*
X43313404Y-69371156D02*
X43465785Y-68799727D01*
X43465785Y-68799727D02*
X43618166Y-69371156D01*
X43618166Y-69371156D02*
X43808643Y-68571156D01*
X44037214Y-68571156D02*
X44532452Y-68571156D01*
X44532452Y-68571156D02*
X44265786Y-68875918D01*
X44265786Y-68875918D02*
X44380071Y-68875918D01*
X44380071Y-68875918D02*
X44456262Y-68914013D01*
X44456262Y-68914013D02*
X44494357Y-68952108D01*
X44494357Y-68952108D02*
X44532452Y-69028299D01*
X44532452Y-69028299D02*
X44532452Y-69218775D01*
X44532452Y-69218775D02*
X44494357Y-69294965D01*
X44494357Y-69294965D02*
X44456262Y-69333061D01*
X44456262Y-69333061D02*
X44380071Y-69371156D01*
X44380071Y-69371156D02*
X44151500Y-69371156D01*
X44151500Y-69371156D02*
X44075309Y-69333061D01*
X44075309Y-69333061D02*
X44037214Y-69294965D01*
X45027691Y-68571156D02*
X45103881Y-68571156D01*
X45103881Y-68571156D02*
X45180072Y-68609251D01*
X45180072Y-68609251D02*
X45218167Y-68647346D01*
X45218167Y-68647346D02*
X45256262Y-68723537D01*
X45256262Y-68723537D02*
X45294357Y-68875918D01*
X45294357Y-68875918D02*
X45294357Y-69066394D01*
X45294357Y-69066394D02*
X45256262Y-69218775D01*
X45256262Y-69218775D02*
X45218167Y-69294965D01*
X45218167Y-69294965D02*
X45180072Y-69333061D01*
X45180072Y-69333061D02*
X45103881Y-69371156D01*
X45103881Y-69371156D02*
X45027691Y-69371156D01*
X45027691Y-69371156D02*
X44951500Y-69333061D01*
X44951500Y-69333061D02*
X44913405Y-69294965D01*
X44913405Y-69294965D02*
X44875310Y-69218775D01*
X44875310Y-69218775D02*
X44837214Y-69066394D01*
X44837214Y-69066394D02*
X44837214Y-68875918D01*
X44837214Y-68875918D02*
X44875310Y-68723537D01*
X44875310Y-68723537D02*
X44913405Y-68647346D01*
X44913405Y-68647346D02*
X44951500Y-68609251D01*
X44951500Y-68609251D02*
X45027691Y-68571156D01*
X45599119Y-68647346D02*
X45637215Y-68609251D01*
X45637215Y-68609251D02*
X45713405Y-68571156D01*
X45713405Y-68571156D02*
X45903881Y-68571156D01*
X45903881Y-68571156D02*
X45980072Y-68609251D01*
X45980072Y-68609251D02*
X46018167Y-68647346D01*
X46018167Y-68647346D02*
X46056262Y-68723537D01*
X46056262Y-68723537D02*
X46056262Y-68799727D01*
X46056262Y-68799727D02*
X46018167Y-68914013D01*
X46018167Y-68914013D02*
X45561024Y-69371156D01*
X45561024Y-69371156D02*
X46056262Y-69371156D01*
X68886524Y-67332802D02*
X68886524Y-67980421D01*
X68886524Y-67980421D02*
X68924619Y-68056611D01*
X68924619Y-68056611D02*
X68962714Y-68094707D01*
X68962714Y-68094707D02*
X69038905Y-68132802D01*
X69038905Y-68132802D02*
X69191286Y-68132802D01*
X69191286Y-68132802D02*
X69267476Y-68094707D01*
X69267476Y-68094707D02*
X69305571Y-68056611D01*
X69305571Y-68056611D02*
X69343667Y-67980421D01*
X69343667Y-67980421D02*
X69343667Y-67332802D01*
X69648428Y-67332802D02*
X70143666Y-67332802D01*
X70143666Y-67332802D02*
X69877000Y-67637564D01*
X69877000Y-67637564D02*
X69991285Y-67637564D01*
X69991285Y-67637564D02*
X70067476Y-67675659D01*
X70067476Y-67675659D02*
X70105571Y-67713754D01*
X70105571Y-67713754D02*
X70143666Y-67789945D01*
X70143666Y-67789945D02*
X70143666Y-67980421D01*
X70143666Y-67980421D02*
X70105571Y-68056611D01*
X70105571Y-68056611D02*
X70067476Y-68094707D01*
X70067476Y-68094707D02*
X69991285Y-68132802D01*
X69991285Y-68132802D02*
X69762714Y-68132802D01*
X69762714Y-68132802D02*
X69686523Y-68094707D01*
X69686523Y-68094707D02*
X69648428Y-68056611D01*
X70638905Y-67332802D02*
X70715095Y-67332802D01*
X70715095Y-67332802D02*
X70791286Y-67370897D01*
X70791286Y-67370897D02*
X70829381Y-67408992D01*
X70829381Y-67408992D02*
X70867476Y-67485183D01*
X70867476Y-67485183D02*
X70905571Y-67637564D01*
X70905571Y-67637564D02*
X70905571Y-67828040D01*
X70905571Y-67828040D02*
X70867476Y-67980421D01*
X70867476Y-67980421D02*
X70829381Y-68056611D01*
X70829381Y-68056611D02*
X70791286Y-68094707D01*
X70791286Y-68094707D02*
X70715095Y-68132802D01*
X70715095Y-68132802D02*
X70638905Y-68132802D01*
X70638905Y-68132802D02*
X70562714Y-68094707D01*
X70562714Y-68094707D02*
X70524619Y-68056611D01*
X70524619Y-68056611D02*
X70486524Y-67980421D01*
X70486524Y-67980421D02*
X70448428Y-67828040D01*
X70448428Y-67828040D02*
X70448428Y-67637564D01*
X70448428Y-67637564D02*
X70486524Y-67485183D01*
X70486524Y-67485183D02*
X70524619Y-67408992D01*
X70524619Y-67408992D02*
X70562714Y-67370897D01*
X70562714Y-67370897D02*
X70638905Y-67332802D01*
X71210333Y-67408992D02*
X71248429Y-67370897D01*
X71248429Y-67370897D02*
X71324619Y-67332802D01*
X71324619Y-67332802D02*
X71515095Y-67332802D01*
X71515095Y-67332802D02*
X71591286Y-67370897D01*
X71591286Y-67370897D02*
X71629381Y-67408992D01*
X71629381Y-67408992D02*
X71667476Y-67485183D01*
X71667476Y-67485183D02*
X71667476Y-67561373D01*
X71667476Y-67561373D02*
X71629381Y-67675659D01*
X71629381Y-67675659D02*
X71172238Y-68132802D01*
X71172238Y-68132802D02*
X71667476Y-68132802D01*
X59911905Y-66706190D02*
X59835715Y-66668095D01*
X59835715Y-66668095D02*
X59759524Y-66591905D01*
X59759524Y-66591905D02*
X59645238Y-66477619D01*
X59645238Y-66477619D02*
X59569048Y-66439524D01*
X59569048Y-66439524D02*
X59492857Y-66439524D01*
X59530953Y-66630000D02*
X59454762Y-66591905D01*
X59454762Y-66591905D02*
X59378572Y-66515714D01*
X59378572Y-66515714D02*
X59340476Y-66363333D01*
X59340476Y-66363333D02*
X59340476Y-66096666D01*
X59340476Y-66096666D02*
X59378572Y-65944285D01*
X59378572Y-65944285D02*
X59454762Y-65868095D01*
X59454762Y-65868095D02*
X59530953Y-65830000D01*
X59530953Y-65830000D02*
X59683334Y-65830000D01*
X59683334Y-65830000D02*
X59759524Y-65868095D01*
X59759524Y-65868095D02*
X59835715Y-65944285D01*
X59835715Y-65944285D02*
X59873810Y-66096666D01*
X59873810Y-66096666D02*
X59873810Y-66363333D01*
X59873810Y-66363333D02*
X59835715Y-66515714D01*
X59835715Y-66515714D02*
X59759524Y-66591905D01*
X59759524Y-66591905D02*
X59683334Y-66630000D01*
X59683334Y-66630000D02*
X59530953Y-66630000D01*
X60635714Y-66630000D02*
X60178571Y-66630000D01*
X60407143Y-66630000D02*
X60407143Y-65830000D01*
X60407143Y-65830000D02*
X60330952Y-65944285D01*
X60330952Y-65944285D02*
X60254762Y-66020476D01*
X60254762Y-66020476D02*
X60178571Y-66058571D01*
X61130953Y-65830000D02*
X61207143Y-65830000D01*
X61207143Y-65830000D02*
X61283334Y-65868095D01*
X61283334Y-65868095D02*
X61321429Y-65906190D01*
X61321429Y-65906190D02*
X61359524Y-65982381D01*
X61359524Y-65982381D02*
X61397619Y-66134762D01*
X61397619Y-66134762D02*
X61397619Y-66325238D01*
X61397619Y-66325238D02*
X61359524Y-66477619D01*
X61359524Y-66477619D02*
X61321429Y-66553809D01*
X61321429Y-66553809D02*
X61283334Y-66591905D01*
X61283334Y-66591905D02*
X61207143Y-66630000D01*
X61207143Y-66630000D02*
X61130953Y-66630000D01*
X61130953Y-66630000D02*
X61054762Y-66591905D01*
X61054762Y-66591905D02*
X61016667Y-66553809D01*
X61016667Y-66553809D02*
X60978572Y-66477619D01*
X60978572Y-66477619D02*
X60940476Y-66325238D01*
X60940476Y-66325238D02*
X60940476Y-66134762D01*
X60940476Y-66134762D02*
X60978572Y-65982381D01*
X60978572Y-65982381D02*
X61016667Y-65906190D01*
X61016667Y-65906190D02*
X61054762Y-65868095D01*
X61054762Y-65868095D02*
X61130953Y-65830000D01*
X61702381Y-65906190D02*
X61740477Y-65868095D01*
X61740477Y-65868095D02*
X61816667Y-65830000D01*
X61816667Y-65830000D02*
X62007143Y-65830000D01*
X62007143Y-65830000D02*
X62083334Y-65868095D01*
X62083334Y-65868095D02*
X62121429Y-65906190D01*
X62121429Y-65906190D02*
X62159524Y-65982381D01*
X62159524Y-65982381D02*
X62159524Y-66058571D01*
X62159524Y-66058571D02*
X62121429Y-66172857D01*
X62121429Y-66172857D02*
X61664286Y-66630000D01*
X61664286Y-66630000D02*
X62159524Y-66630000D01*
X52984286Y-39125000D02*
X52717619Y-38744047D01*
X52527143Y-39125000D02*
X52527143Y-38325000D01*
X52527143Y-38325000D02*
X52831905Y-38325000D01*
X52831905Y-38325000D02*
X52908095Y-38363095D01*
X52908095Y-38363095D02*
X52946190Y-38401190D01*
X52946190Y-38401190D02*
X52984286Y-38477381D01*
X52984286Y-38477381D02*
X52984286Y-38591666D01*
X52984286Y-38591666D02*
X52946190Y-38667857D01*
X52946190Y-38667857D02*
X52908095Y-38705952D01*
X52908095Y-38705952D02*
X52831905Y-38744047D01*
X52831905Y-38744047D02*
X52527143Y-38744047D01*
X53746190Y-39125000D02*
X53289047Y-39125000D01*
X53517619Y-39125000D02*
X53517619Y-38325000D01*
X53517619Y-38325000D02*
X53441428Y-38439285D01*
X53441428Y-38439285D02*
X53365238Y-38515476D01*
X53365238Y-38515476D02*
X53289047Y-38553571D01*
X54241429Y-38325000D02*
X54317619Y-38325000D01*
X54317619Y-38325000D02*
X54393810Y-38363095D01*
X54393810Y-38363095D02*
X54431905Y-38401190D01*
X54431905Y-38401190D02*
X54470000Y-38477381D01*
X54470000Y-38477381D02*
X54508095Y-38629762D01*
X54508095Y-38629762D02*
X54508095Y-38820238D01*
X54508095Y-38820238D02*
X54470000Y-38972619D01*
X54470000Y-38972619D02*
X54431905Y-39048809D01*
X54431905Y-39048809D02*
X54393810Y-39086905D01*
X54393810Y-39086905D02*
X54317619Y-39125000D01*
X54317619Y-39125000D02*
X54241429Y-39125000D01*
X54241429Y-39125000D02*
X54165238Y-39086905D01*
X54165238Y-39086905D02*
X54127143Y-39048809D01*
X54127143Y-39048809D02*
X54089048Y-38972619D01*
X54089048Y-38972619D02*
X54050952Y-38820238D01*
X54050952Y-38820238D02*
X54050952Y-38629762D01*
X54050952Y-38629762D02*
X54089048Y-38477381D01*
X54089048Y-38477381D02*
X54127143Y-38401190D01*
X54127143Y-38401190D02*
X54165238Y-38363095D01*
X54165238Y-38363095D02*
X54241429Y-38325000D01*
X54774762Y-38325000D02*
X55270000Y-38325000D01*
X55270000Y-38325000D02*
X55003334Y-38629762D01*
X55003334Y-38629762D02*
X55117619Y-38629762D01*
X55117619Y-38629762D02*
X55193810Y-38667857D01*
X55193810Y-38667857D02*
X55231905Y-38705952D01*
X55231905Y-38705952D02*
X55270000Y-38782143D01*
X55270000Y-38782143D02*
X55270000Y-38972619D01*
X55270000Y-38972619D02*
X55231905Y-39048809D01*
X55231905Y-39048809D02*
X55193810Y-39086905D01*
X55193810Y-39086905D02*
X55117619Y-39125000D01*
X55117619Y-39125000D02*
X54889048Y-39125000D01*
X54889048Y-39125000D02*
X54812857Y-39086905D01*
X54812857Y-39086905D02*
X54774762Y-39048809D01*
X69019048Y-59399048D02*
X69666667Y-59399048D01*
X69666667Y-59399048D02*
X69742857Y-59360953D01*
X69742857Y-59360953D02*
X69780953Y-59322858D01*
X69780953Y-59322858D02*
X69819048Y-59246667D01*
X69819048Y-59246667D02*
X69819048Y-59094286D01*
X69819048Y-59094286D02*
X69780953Y-59018096D01*
X69780953Y-59018096D02*
X69742857Y-58980001D01*
X69742857Y-58980001D02*
X69666667Y-58941905D01*
X69666667Y-58941905D02*
X69019048Y-58941905D01*
X69019048Y-58180001D02*
X69019048Y-58560953D01*
X69019048Y-58560953D02*
X69400000Y-58599049D01*
X69400000Y-58599049D02*
X69361905Y-58560953D01*
X69361905Y-58560953D02*
X69323810Y-58484763D01*
X69323810Y-58484763D02*
X69323810Y-58294287D01*
X69323810Y-58294287D02*
X69361905Y-58218096D01*
X69361905Y-58218096D02*
X69400000Y-58180001D01*
X69400000Y-58180001D02*
X69476191Y-58141906D01*
X69476191Y-58141906D02*
X69666667Y-58141906D01*
X69666667Y-58141906D02*
X69742857Y-58180001D01*
X69742857Y-58180001D02*
X69780953Y-58218096D01*
X69780953Y-58218096D02*
X69819048Y-58294287D01*
X69819048Y-58294287D02*
X69819048Y-58484763D01*
X69819048Y-58484763D02*
X69780953Y-58560953D01*
X69780953Y-58560953D02*
X69742857Y-58599049D01*
X69019048Y-57646667D02*
X69019048Y-57570477D01*
X69019048Y-57570477D02*
X69057143Y-57494286D01*
X69057143Y-57494286D02*
X69095238Y-57456191D01*
X69095238Y-57456191D02*
X69171429Y-57418096D01*
X69171429Y-57418096D02*
X69323810Y-57380001D01*
X69323810Y-57380001D02*
X69514286Y-57380001D01*
X69514286Y-57380001D02*
X69666667Y-57418096D01*
X69666667Y-57418096D02*
X69742857Y-57456191D01*
X69742857Y-57456191D02*
X69780953Y-57494286D01*
X69780953Y-57494286D02*
X69819048Y-57570477D01*
X69819048Y-57570477D02*
X69819048Y-57646667D01*
X69819048Y-57646667D02*
X69780953Y-57722858D01*
X69780953Y-57722858D02*
X69742857Y-57760953D01*
X69742857Y-57760953D02*
X69666667Y-57799048D01*
X69666667Y-57799048D02*
X69514286Y-57837144D01*
X69514286Y-57837144D02*
X69323810Y-57837144D01*
X69323810Y-57837144D02*
X69171429Y-57799048D01*
X69171429Y-57799048D02*
X69095238Y-57760953D01*
X69095238Y-57760953D02*
X69057143Y-57722858D01*
X69057143Y-57722858D02*
X69019048Y-57646667D01*
X69285714Y-56694286D02*
X69819048Y-56694286D01*
X68980953Y-56884762D02*
X69552381Y-57075239D01*
X69552381Y-57075239D02*
X69552381Y-56580000D01*
X67008195Y-45185302D02*
X67122481Y-45223397D01*
X67122481Y-45223397D02*
X67312957Y-45223397D01*
X67312957Y-45223397D02*
X67389148Y-45185302D01*
X67389148Y-45185302D02*
X67427243Y-45147206D01*
X67427243Y-45147206D02*
X67465338Y-45071016D01*
X67465338Y-45071016D02*
X67465338Y-44994825D01*
X67465338Y-44994825D02*
X67427243Y-44918635D01*
X67427243Y-44918635D02*
X67389148Y-44880540D01*
X67389148Y-44880540D02*
X67312957Y-44842444D01*
X67312957Y-44842444D02*
X67160576Y-44804349D01*
X67160576Y-44804349D02*
X67084386Y-44766254D01*
X67084386Y-44766254D02*
X67046291Y-44728159D01*
X67046291Y-44728159D02*
X67008195Y-44651968D01*
X67008195Y-44651968D02*
X67008195Y-44575778D01*
X67008195Y-44575778D02*
X67046291Y-44499587D01*
X67046291Y-44499587D02*
X67084386Y-44461492D01*
X67084386Y-44461492D02*
X67160576Y-44423397D01*
X67160576Y-44423397D02*
X67351053Y-44423397D01*
X67351053Y-44423397D02*
X67465338Y-44461492D01*
X67732005Y-44423397D02*
X67922481Y-45223397D01*
X67922481Y-45223397D02*
X68074862Y-44651968D01*
X68074862Y-44651968D02*
X68227243Y-45223397D01*
X68227243Y-45223397D02*
X68417720Y-44423397D01*
X68646291Y-44423397D02*
X69141529Y-44423397D01*
X69141529Y-44423397D02*
X68874863Y-44728159D01*
X68874863Y-44728159D02*
X68989148Y-44728159D01*
X68989148Y-44728159D02*
X69065339Y-44766254D01*
X69065339Y-44766254D02*
X69103434Y-44804349D01*
X69103434Y-44804349D02*
X69141529Y-44880540D01*
X69141529Y-44880540D02*
X69141529Y-45071016D01*
X69141529Y-45071016D02*
X69103434Y-45147206D01*
X69103434Y-45147206D02*
X69065339Y-45185302D01*
X69065339Y-45185302D02*
X68989148Y-45223397D01*
X68989148Y-45223397D02*
X68760577Y-45223397D01*
X68760577Y-45223397D02*
X68684386Y-45185302D01*
X68684386Y-45185302D02*
X68646291Y-45147206D01*
X69636768Y-44423397D02*
X69712958Y-44423397D01*
X69712958Y-44423397D02*
X69789149Y-44461492D01*
X69789149Y-44461492D02*
X69827244Y-44499587D01*
X69827244Y-44499587D02*
X69865339Y-44575778D01*
X69865339Y-44575778D02*
X69903434Y-44728159D01*
X69903434Y-44728159D02*
X69903434Y-44918635D01*
X69903434Y-44918635D02*
X69865339Y-45071016D01*
X69865339Y-45071016D02*
X69827244Y-45147206D01*
X69827244Y-45147206D02*
X69789149Y-45185302D01*
X69789149Y-45185302D02*
X69712958Y-45223397D01*
X69712958Y-45223397D02*
X69636768Y-45223397D01*
X69636768Y-45223397D02*
X69560577Y-45185302D01*
X69560577Y-45185302D02*
X69522482Y-45147206D01*
X69522482Y-45147206D02*
X69484387Y-45071016D01*
X69484387Y-45071016D02*
X69446291Y-44918635D01*
X69446291Y-44918635D02*
X69446291Y-44728159D01*
X69446291Y-44728159D02*
X69484387Y-44575778D01*
X69484387Y-44575778D02*
X69522482Y-44499587D01*
X69522482Y-44499587D02*
X69560577Y-44461492D01*
X69560577Y-44461492D02*
X69636768Y-44423397D01*
X70665339Y-45223397D02*
X70208196Y-45223397D01*
X70436768Y-45223397D02*
X70436768Y-44423397D01*
X70436768Y-44423397D02*
X70360577Y-44537682D01*
X70360577Y-44537682D02*
X70284387Y-44613873D01*
X70284387Y-44613873D02*
X70208196Y-44651968D01*
%TO.C,R116*%
X43396359Y-54770000D02*
X43703641Y-54770000D01*
X43396359Y-55530000D02*
X43703641Y-55530000D01*
%TO.C,C408*%
X56759420Y-56490000D02*
X57040580Y-56490000D01*
X56759420Y-57510000D02*
X57040580Y-57510000D01*
%TO.C,R306*%
X68231359Y-65047000D02*
X68538641Y-65047000D01*
X68231359Y-65807000D02*
X68538641Y-65807000D01*
%TO.C,C301*%
X37992164Y-51640000D02*
X38207836Y-51640000D01*
X37992164Y-52360000D02*
X38207836Y-52360000D01*
%TO.C,R505*%
X71806359Y-56370000D02*
X72113641Y-56370000D01*
X71806359Y-57130000D02*
X72113641Y-57130000D01*
%TO.C,C303*%
X71276164Y-60536000D02*
X71491836Y-60536000D01*
X71276164Y-61256000D02*
X71491836Y-61256000D01*
%TO.C,C404*%
X35890000Y-29856580D02*
X35890000Y-29575420D01*
X36910000Y-29856580D02*
X36910000Y-29575420D01*
%TO.C,R208*%
X33670000Y-40193641D02*
X33670000Y-39886359D01*
X34430000Y-40193641D02*
X34430000Y-39886359D01*
%TO.C,R211*%
X65670000Y-53846359D02*
X65670000Y-54153641D01*
X66430000Y-53846359D02*
X66430000Y-54153641D01*
%TO.C,U105*%
X40425000Y-54775000D02*
X40425000Y-53857500D01*
X40657500Y-53625000D02*
X41575000Y-53625000D01*
X41575000Y-53625000D02*
X41575000Y-54775000D01*
X41575000Y-54775000D02*
X40425000Y-54775000D01*
X40425000Y-53625000D02*
X39925000Y-53625000D01*
X40425000Y-53125000D01*
X40425000Y-53625000D01*
G36*
X40425000Y-53625000D02*
G01*
X39925000Y-53625000D01*
X40425000Y-53125000D01*
X40425000Y-53625000D01*
G37*
%TO.C,C506*%
X73459420Y-45590000D02*
X73740580Y-45590000D01*
X73459420Y-46610000D02*
X73740580Y-46610000D01*
%TO.C,R506*%
X73446359Y-53220000D02*
X73753641Y-53220000D01*
X73446359Y-53980000D02*
X73753641Y-53980000D01*
%TO.C,C501*%
X34759420Y-36090000D02*
X35040580Y-36090000D01*
X34759420Y-37110000D02*
X35040580Y-37110000D01*
%TO.C,C401*%
X54950836Y-58890000D02*
X54735164Y-58890000D01*
X54950836Y-59610000D02*
X54735164Y-59610000D01*
%TO.C,R117*%
X61520000Y-36553641D02*
X61520000Y-36246359D01*
X62280000Y-36553641D02*
X62280000Y-36246359D01*
%TO.C,R401*%
X44343641Y-31120000D02*
X44036359Y-31120000D01*
X44343641Y-31880000D02*
X44036359Y-31880000D01*
%TO.C,R119*%
X65053641Y-37845000D02*
X64746359Y-37845000D01*
X65053641Y-38605000D02*
X64746359Y-38605000D01*
%TO.C,C304*%
X69789164Y-63061000D02*
X70004836Y-63061000D01*
X69789164Y-63781000D02*
X70004836Y-63781000D01*
%TO.C,C207*%
X47890000Y-55607836D02*
X47890000Y-55392164D01*
X48610000Y-55607836D02*
X48610000Y-55392164D01*
%TO.C,U102*%
X58200000Y-37065000D02*
X60620000Y-37065000D01*
X60219252Y-39385000D02*
X58200000Y-39385000D01*
X60510000Y-39395000D02*
X60650000Y-39585000D01*
X60370000Y-39585000D01*
X60510000Y-39395000D01*
G36*
X60650000Y-39585000D02*
G01*
X60370000Y-39585000D01*
X60510000Y-39395000D01*
X60650000Y-39585000D01*
G37*
%TO.C,SW303*%
D13*
X39508820Y-37545039D02*
X39388487Y-38227475D01*
X39508820Y-37545039D02*
X41884361Y-35881668D01*
X40625144Y-41353493D02*
X39432105Y-39649657D01*
X41884361Y-35881668D02*
X42566796Y-36002001D01*
X42629075Y-42001226D02*
X41946640Y-41880893D01*
X42629075Y-42001226D02*
X45004616Y-40337855D01*
X45004616Y-40337855D02*
X45124949Y-39655419D01*
X45081331Y-38233237D02*
X43888292Y-36529401D01*
%TO.C,C508*%
D11*
X66940000Y-54707836D02*
X66940000Y-54492164D01*
X67660000Y-54707836D02*
X67660000Y-54492164D01*
%TO.C,C102*%
X60000000Y-41109420D02*
X60000000Y-41390580D01*
X61020000Y-41109420D02*
X61020000Y-41390580D01*
%TO.C,R318*%
X46520000Y-43613641D02*
X46520000Y-43306359D01*
X47280000Y-43613641D02*
X47280000Y-43306359D01*
%TO.C,C308*%
X45240000Y-43577836D02*
X45240000Y-43362164D01*
X45960000Y-43577836D02*
X45960000Y-43362164D01*
%TO.C,C110*%
X43442164Y-53490000D02*
X43657836Y-53490000D01*
X43442164Y-54210000D02*
X43657836Y-54210000D01*
%TO.C,R123*%
D13*
X62053641Y-60470000D02*
X61746359Y-60470000D01*
X62053641Y-61230000D02*
X61746359Y-61230000D01*
%TO.C,R104*%
D11*
X56703641Y-36645000D02*
X56396359Y-36645000D01*
X56703641Y-37405000D02*
X56396359Y-37405000D01*
%TO.C,U101*%
X49065000Y-32710000D02*
X49065000Y-31290000D01*
X50065000Y-32710000D02*
X49935000Y-32710000D01*
X50935000Y-31574432D02*
X50935000Y-32710000D01*
X50940000Y-31280000D02*
X51130000Y-31140000D01*
X51130000Y-31420000D01*
X50940000Y-31280000D01*
G36*
X51130000Y-31420000D02*
G01*
X50940000Y-31280000D01*
X51130000Y-31140000D01*
X51130000Y-31420000D01*
G37*
%TO.C,C502*%
X34840000Y-38507836D02*
X34840000Y-38292164D01*
X35560000Y-38507836D02*
X35560000Y-38292164D01*
%TO.C,C403*%
X36291000Y-32431836D02*
X36291000Y-32216164D01*
X37011000Y-32431836D02*
X37011000Y-32216164D01*
%TO.C,U503*%
X68900000Y-47400000D02*
X73100000Y-47400000D01*
X68900000Y-52600000D02*
X68900000Y-47400000D01*
X73100000Y-47400000D02*
X73100000Y-52600000D01*
X73100000Y-52600000D02*
X68900000Y-52600000D01*
X67700000Y-47500000D02*
X68300000Y-47500000D01*
X68000000Y-48000000D01*
X67700000Y-47500000D01*
G36*
X68000000Y-48000000D02*
G01*
X67700000Y-47500000D01*
X68300000Y-47500000D01*
X68000000Y-48000000D01*
G37*
%TO.C,C103*%
X62840000Y-39392164D02*
X62840000Y-39607836D01*
X63560000Y-39392164D02*
X63560000Y-39607836D01*
%TO.C,U401*%
X51590000Y-55640000D02*
X52265000Y-55640000D01*
X51590000Y-55815000D02*
X51590000Y-55640000D01*
X51590000Y-58360000D02*
X51590000Y-58185000D01*
X52265000Y-58360000D02*
X51590000Y-58360000D01*
X54135000Y-55640000D02*
X54810000Y-55640000D01*
X54810000Y-55640000D02*
X54810000Y-55815000D01*
X54810000Y-58185000D02*
X54810000Y-58360000D01*
X54810000Y-58360000D02*
X54135000Y-58360000D01*
X51460000Y-56250000D02*
X51130000Y-56490000D01*
X51130000Y-56010000D01*
X51460000Y-56250000D01*
G36*
X51460000Y-56250000D02*
G01*
X51130000Y-56490000D01*
X51130000Y-56010000D01*
X51460000Y-56250000D01*
G37*
%TO.C,C109*%
X38607836Y-54390000D02*
X38392164Y-54390000D01*
X38607836Y-55110000D02*
X38392164Y-55110000D01*
%TO.C,U301*%
X71744519Y-63316577D02*
X71757019Y-63294926D01*
X72392019Y-62195074D02*
X72404519Y-62173423D01*
X72404519Y-62173423D02*
X73657785Y-62896997D01*
X73147481Y-64126577D02*
X71744519Y-63316577D01*
X73159981Y-64104926D02*
X73147481Y-64126577D01*
X73918724Y-63070744D02*
X73892481Y-62836199D01*
X74134968Y-62976199D01*
X73918724Y-63070744D01*
G36*
X74134968Y-62976199D02*
G01*
X73918724Y-63070744D01*
X73892481Y-62836199D01*
X74134968Y-62976199D01*
G37*
%TO.C,C101*%
X57950000Y-40592164D02*
X57950000Y-40807836D01*
X58670000Y-40592164D02*
X58670000Y-40807836D01*
%TO.C,R404*%
X48946359Y-59020000D02*
X49253641Y-59020000D01*
X48946359Y-59780000D02*
X49253641Y-59780000D01*
%TO.C,U402*%
X37671770Y-31819287D02*
X37953453Y-32349056D01*
X37907796Y-31240762D02*
X38190339Y-31090531D01*
X38751554Y-33850067D02*
X38469872Y-33320298D01*
X39281323Y-33568384D02*
X38751554Y-33850067D01*
X41104066Y-29541275D02*
X41633835Y-29259592D01*
X41633835Y-29259592D02*
X41915518Y-29789361D01*
X42619725Y-31113782D02*
X42901408Y-31643551D01*
X42901408Y-31643551D02*
X42371640Y-31925233D01*
X37636882Y-31498067D02*
X37389657Y-31629519D01*
X37505430Y-31250841D01*
X37636882Y-31498067D01*
G36*
X37636882Y-31498067D02*
G01*
X37389657Y-31629519D01*
X37505430Y-31250841D01*
X37636882Y-31498067D01*
G37*
%TO.C,C305*%
X38592164Y-48740000D02*
X38807836Y-48740000D01*
X38592164Y-49460000D02*
X38807836Y-49460000D01*
%TO.C,SW302*%
D13*
X40899736Y-63079511D02*
X41136744Y-63730684D01*
X41885608Y-64940520D02*
X43770728Y-65819566D01*
X42125329Y-60451218D02*
X40899736Y-63079511D01*
X42125329Y-60451218D02*
X42776503Y-60214210D01*
X44184652Y-60010206D02*
X46069772Y-60889252D01*
X45830051Y-65378554D02*
X45178877Y-65615562D01*
X47055644Y-62750261D02*
X45830051Y-65378554D01*
X47055644Y-62750261D02*
X46818636Y-62099088D01*
%TO.C,C402*%
D11*
X52092164Y-58890000D02*
X52307836Y-58890000D01*
X52092164Y-59610000D02*
X52307836Y-59610000D01*
%TO.C,R210*%
X42445000Y-28931641D02*
X42445000Y-28624359D01*
X43205000Y-28931641D02*
X43205000Y-28624359D01*
%TO.C,U302*%
X70233758Y-65516845D02*
X70248453Y-65496620D01*
X70994940Y-64469168D02*
X71009635Y-64448943D01*
X71009635Y-64448943D02*
X72180401Y-65299554D01*
X71544365Y-66469057D02*
X70233758Y-65516845D01*
X71559060Y-66448832D02*
X71544365Y-66469057D01*
X72421749Y-65499625D02*
X72420166Y-65263622D01*
X72646690Y-65428202D01*
X72421749Y-65499625D01*
G36*
X72646690Y-65428202D02*
G01*
X72421749Y-65499625D01*
X72420166Y-65263622D01*
X72646690Y-65428202D01*
G37*
%TO.C,R215*%
X50270000Y-55046359D02*
X50270000Y-55353641D01*
X51030000Y-55046359D02*
X51030000Y-55353641D01*
%TO.C,Q102*%
D13*
X59440000Y-62540000D02*
X60440000Y-62540000D01*
X59440000Y-64060000D02*
X59440000Y-62540000D01*
X59490000Y-64060000D02*
X59440000Y-64060000D01*
X61390000Y-64060000D02*
X60610000Y-64060000D01*
X61560000Y-62540000D02*
X62560000Y-62540000D01*
X62560000Y-62540000D02*
X62560000Y-64060000D01*
X62560000Y-64060000D02*
X62510000Y-64060000D01*
X60620000Y-64600000D02*
X60950000Y-64360000D01*
X60950000Y-64840000D01*
X60620000Y-64600000D01*
G36*
X60950000Y-64840000D02*
G01*
X60620000Y-64600000D01*
X60950000Y-64360000D01*
X60950000Y-64840000D01*
G37*
%TO.C,R103*%
D11*
X56703641Y-37845000D02*
X56396359Y-37845000D01*
X56703641Y-38605000D02*
X56396359Y-38605000D01*
%TO.C,R202*%
X40446359Y-68320000D02*
X40753641Y-68320000D01*
X40446359Y-69080000D02*
X40753641Y-69080000D01*
%TO.C,R216*%
X49070000Y-55446359D02*
X49070000Y-55753641D01*
X49830000Y-55446359D02*
X49830000Y-55753641D01*
%TO.C,R118*%
X56146359Y-40020000D02*
X56453641Y-40020000D01*
X56146359Y-40780000D02*
X56453641Y-40780000D01*
%TO.C,U504*%
X68825000Y-54025000D02*
X69975000Y-54025000D01*
X68825000Y-55175000D02*
X68825000Y-54025000D01*
X69742500Y-55175000D02*
X68825000Y-55175000D01*
X69975000Y-54025000D02*
X69975000Y-54942500D01*
X69975000Y-55175000D02*
X70475000Y-55175000D01*
X69975000Y-55675000D01*
X69975000Y-55175000D01*
G36*
X69975000Y-55675000D02*
G01*
X69975000Y-55175000D01*
X70475000Y-55175000D01*
X69975000Y-55675000D01*
G37*
%TO.C,SW301*%
X60612603Y-47615978D02*
X60865354Y-50504943D01*
X60612603Y-47615978D02*
X61058031Y-47085136D01*
X60865354Y-50504943D02*
X61396196Y-50950373D01*
X62175522Y-46204389D02*
X64247607Y-46023105D01*
X62649649Y-51623689D02*
X64721734Y-51442405D01*
X66031902Y-47141851D02*
X65501060Y-46696421D01*
X66031902Y-47141851D02*
X66284653Y-50030816D01*
X66284653Y-50030816D02*
X65839225Y-50561658D01*
%TD*%
%LPC*%
D14*
%TO.C,FID1*%
X65600000Y-29800000D03*
%TD*%
D15*
%TO.C,R116*%
X43040000Y-55150000D03*
X44060000Y-55150000D03*
%TD*%
D16*
%TO.C,C408*%
X56125000Y-57000000D03*
X57675000Y-57000000D03*
%TD*%
D15*
%TO.C,R306*%
X67875000Y-65427000D03*
X68895000Y-65427000D03*
%TD*%
D17*
%TO.C,C301*%
X37620000Y-52000000D03*
X38580000Y-52000000D03*
%TD*%
D15*
%TO.C,R505*%
X71450000Y-56750000D03*
X72470000Y-56750000D03*
%TD*%
D17*
%TO.C,C303*%
X70904000Y-60896000D03*
X71864000Y-60896000D03*
%TD*%
D18*
%TO.C,C404*%
X36400000Y-30491000D03*
X36400000Y-28941000D03*
%TD*%
D19*
%TO.C,R208*%
X34050000Y-40550000D03*
X34050000Y-39530000D03*
%TD*%
D20*
%TO.C,R211*%
X66050000Y-53490000D03*
X66050000Y-54510000D03*
%TD*%
D21*
%TO.C,U105*%
X40800000Y-54000000D03*
X41200000Y-54000000D03*
X40800000Y-54400000D03*
X41200000Y-54400000D03*
%TD*%
D16*
%TO.C,C506*%
X72825000Y-46100000D03*
X74375000Y-46100000D03*
%TD*%
D15*
%TO.C,R506*%
X73090000Y-53600000D03*
X74110000Y-53600000D03*
%TD*%
D16*
%TO.C,C501*%
X34125000Y-36600000D03*
X35675000Y-36600000D03*
%TD*%
D14*
%TO.C,H3*%
X32322000Y-67678000D03*
%TD*%
D22*
%TO.C,C401*%
X55323000Y-59250000D03*
X54363000Y-59250000D03*
%TD*%
D19*
%TO.C,R117*%
X61900000Y-36910000D03*
X61900000Y-35890000D03*
%TD*%
D23*
%TO.C,R401*%
X44700000Y-31500000D03*
X43680000Y-31500000D03*
%TD*%
%TO.C,R119*%
X65410000Y-38225000D03*
X64390000Y-38225000D03*
%TD*%
D17*
%TO.C,C304*%
X69417000Y-63421000D03*
X70377000Y-63421000D03*
%TD*%
D24*
%TO.C,C207*%
X48250000Y-55980000D03*
X48250000Y-55020000D03*
%TD*%
D25*
%TO.C,U102*%
X60510000Y-39025000D03*
X60510000Y-38625000D03*
X60510000Y-38225000D03*
X60510000Y-37825000D03*
X60510000Y-37425000D03*
X58310000Y-37425000D03*
X58310000Y-37825000D03*
X58310000Y-38225000D03*
X58310000Y-38625000D03*
X58310000Y-39025000D03*
D26*
X59410000Y-38225000D03*
%TD*%
D27*
%TO.C,SW303*%
X38656230Y-39204103D03*
X43734973Y-35647929D03*
X40778463Y-42234965D03*
X45857206Y-38678791D03*
%TD*%
D24*
%TO.C,C508*%
X67300000Y-55080000D03*
X67300000Y-54120000D03*
%TD*%
D28*
%TO.C,C102*%
X60510000Y-40475000D03*
X60510000Y-42025000D03*
%TD*%
D19*
%TO.C,R318*%
X46900000Y-43970000D03*
X46900000Y-42950000D03*
%TD*%
D24*
%TO.C,C308*%
X45600000Y-43950000D03*
X45600000Y-42990000D03*
%TD*%
D17*
%TO.C,C110*%
X43070000Y-53850000D03*
X44030000Y-53850000D03*
%TD*%
D23*
%TO.C,R123*%
X62410000Y-60850000D03*
X61390000Y-60850000D03*
%TD*%
%TO.C,R104*%
X57060000Y-37025000D03*
X56040000Y-37025000D03*
%TD*%
D29*
%TO.C,U101*%
X50500000Y-31287500D03*
X50000000Y-31287500D03*
X49500000Y-31287500D03*
X49500000Y-32712500D03*
X50500000Y-32712500D03*
%TD*%
D24*
%TO.C,C502*%
X35200000Y-38880000D03*
X35200000Y-37920000D03*
%TD*%
%TO.C,C403*%
X36651000Y-32804000D03*
X36651000Y-31844000D03*
%TD*%
D30*
%TO.C,U503*%
X67850000Y-48730000D03*
X67850000Y-51270000D03*
X74150000Y-51270000D03*
X74150000Y-48730000D03*
%TD*%
D31*
%TO.C,C103*%
X63200000Y-39020000D03*
X63200000Y-39980000D03*
%TD*%
D32*
%TO.C,U401*%
X52037500Y-56250000D03*
X52037500Y-56750000D03*
X52037500Y-57250000D03*
X52037500Y-57750000D03*
D33*
X52700000Y-57912500D03*
X53200000Y-57912500D03*
X53700000Y-57912500D03*
D32*
X54362500Y-57750000D03*
X54362500Y-57250000D03*
X54362500Y-56750000D03*
X54362500Y-56250000D03*
D33*
X53700000Y-56087500D03*
X53200000Y-56087500D03*
X52700000Y-56087500D03*
%TD*%
D22*
%TO.C,C109*%
X38980000Y-54750000D03*
X38020000Y-54750000D03*
%TD*%
D34*
%TO.C,U301*%
X73572170Y-63320994D03*
X72229830Y-62545994D03*
X71979830Y-62979006D03*
X73322170Y-63754006D03*
D35*
X72776000Y-63150000D03*
%TD*%
D31*
%TO.C,C101*%
X58310000Y-40220000D03*
X58310000Y-41180000D03*
%TD*%
D15*
%TO.C,R404*%
X48590000Y-59400000D03*
X49610000Y-59400000D03*
%TD*%
D36*
%TO.C,U402*%
X38399707Y-31590796D03*
X39110759Y-31224049D03*
X39812423Y-30839642D03*
X40518781Y-30464065D03*
X41225139Y-30088487D03*
X41600716Y-30794845D03*
X41976293Y-31501204D03*
X41269935Y-31876781D03*
X40563577Y-32252358D03*
X39857219Y-32627935D03*
X39150861Y-33003513D03*
X38775284Y-32297155D03*
%TD*%
D17*
%TO.C,C305*%
X38220000Y-49100000D03*
X39180000Y-49100000D03*
%TD*%
D37*
%TO.C,SW302*%
X46964476Y-60887176D03*
X44344243Y-66506284D03*
X43611137Y-59323488D03*
X40990904Y-64942596D03*
%TD*%
D38*
%TO.C,H2*%
X68579000Y-33272000D03*
%TD*%
%TO.C,H1*%
X31421000Y-33272000D03*
%TD*%
D17*
%TO.C,C402*%
X51720000Y-59250000D03*
X52680000Y-59250000D03*
%TD*%
D19*
%TO.C,R210*%
X42825000Y-29288000D03*
X42825000Y-28268000D03*
%TD*%
D39*
%TO.C,U302*%
X72050934Y-65712279D03*
X70796958Y-64801212D03*
X70503066Y-65205721D03*
X71757042Y-66116788D03*
D40*
X71277000Y-65459000D03*
%TD*%
D20*
%TO.C,R215*%
X50650000Y-54690000D03*
X50650000Y-55710000D03*
%TD*%
D41*
%TO.C,Q102*%
X60050000Y-64237500D03*
X61950000Y-64237500D03*
X61000000Y-62362500D03*
%TD*%
D23*
%TO.C,R103*%
X57060000Y-38225000D03*
X56040000Y-38225000D03*
%TD*%
D15*
%TO.C,R202*%
X40090000Y-68700000D03*
X41110000Y-68700000D03*
%TD*%
D20*
%TO.C,R216*%
X49450000Y-55090000D03*
X49450000Y-56110000D03*
%TD*%
D15*
%TO.C,R118*%
X55790000Y-40400000D03*
X56810000Y-40400000D03*
%TD*%
D14*
%TO.C,FID3*%
X30000000Y-41000000D03*
%TD*%
%TO.C,FID2*%
X55500000Y-66000000D03*
%TD*%
D21*
%TO.C,U504*%
X69600000Y-54800000D03*
X69200000Y-54800000D03*
X69600000Y-54400000D03*
X69200000Y-54400000D03*
%TD*%
D42*
%TO.C,SW301*%
X65021405Y-45573956D03*
X65561771Y-51750363D03*
X61335485Y-45896431D03*
X61875851Y-52072838D03*
%TD*%
D43*
%TO.C,J101*%
X47110000Y-26650000D03*
X52890000Y-26650000D03*
D44*
X45680000Y-23000000D03*
D45*
X45680000Y-27180000D03*
D44*
X54320000Y-23000000D03*
D45*
X54320000Y-27180000D03*
%TD*%
D46*
%TO.C,J201*%
X64400000Y-64060000D03*
X65416000Y-69140000D03*
X63384000Y-69140000D03*
%TD*%
%LPD*%
M02*
