%TF.GenerationSoftware,KiCad,Pcbnew,10.0.6*%
%TF.CreationDate,2026-10-05T07:36:54+02:00*%
%TF.ProjectId,MAO_MAIN_A0,4d414f5f-4d41-4494-9e5f-41302e6b6963,A0*%
%TF.SameCoordinates,Original*%
%TF.FileFunction,Legend,Bot*%
%TF.FilePolarity,Positive*%
%FSLAX46Y46*%
G04 Gerber Fmt 4.6, Leading zero omitted, Abs format (unit mm)*
G04 Created by KiCad (PCBNEW 10.0.6) date 2026-10-05 07:36:54*
%MOMM*%
%LPD*%
G01*
G04 APERTURE LIST*
G04 Aperture macros list*
%AMRoundRect*
0 Rectangle with rounded corners*
0 $1 Rounding radius*
0 $2 $3 $4 $5 $6 $7 $8 $9 X,Y pos of 4 corners*
0 Add a 4 corners polygon primitive as box body*
4,1,4,$2,$3,$4,$5,$6,$7,$8,$9,$2,$3,0*
0 Add four circle primitives for the rounded corners*
1,1,$1+$1,$2,$3*
1,1,$1+$1,$4,$5*
1,1,$1+$1,$6,$7*
1,1,$1+$1,$8,$9*
0 Add four rect primitives between the rounded corners*
20,1,$1+$1,$2,$3,$4,$5,0*
20,1,$1+$1,$4,$5,$6,$7,0*
20,1,$1+$1,$6,$7,$8,$9,0*
20,1,$1+$1,$8,$9,$2,$3,0*%
%AMFreePoly0*
4,1,64,0.031751,0.146088,0.079639,0.146088,0.235856,0.115014,0.383010,0.054061,0.515445,-0.034429,0.628071,-0.147055,0.716561,-0.279490,0.777514,-0.426644,0.808588,-0.582861,0.808588,-0.742139,0.777514,-0.898356,0.716561,-1.045510,0.628071,-1.177945,0.515445,-1.290571,0.383010,-1.379061,0.235856,-1.440014,0.079639,-1.471088,-0.079639,-1.471088,-0.235856,-1.440014,-0.383010,-1.379061,
-0.515445,-1.290571,-0.628071,-1.177945,-0.716561,-1.045510,-0.777514,-0.898356,-0.808588,-0.742139,-0.808588,-0.595028,-0.512500,-0.595028,-0.512500,-0.729972,-0.477574,-0.860317,-0.410102,-0.977182,-0.314682,-1.072602,-0.197817,-1.140074,-0.067472,-1.175000,0.067472,-1.175000,0.197817,-1.140074,0.314682,-1.072602,0.410102,-0.977182,0.477574,-0.860317,0.512500,-0.729972,0.512500,-0.595028,
0.477574,-0.464683,0.410102,-0.347818,0.314682,-0.252398,0.197817,-0.184926,0.067472,-0.150000,-0.067472,-0.150000,-0.197817,-0.184926,-0.314682,-0.252398,-0.410102,-0.347818,-0.477574,-0.464683,-0.512500,-0.595028,-0.808588,-0.595028,-0.808588,-0.582861,-0.777514,-0.426644,-0.716561,-0.279490,-0.628071,-0.147055,-0.515445,-0.034429,-0.383010,0.054061,-0.235856,0.115014,-0.079639,0.146088,
-0.031751,0.146088,-0.029264,0.147118,0.029264,0.147118,0.031751,0.146088,0.031751,0.146088,$1*%
G04 Aperture macros list end*
%ADD10C,0.000000*%
%ADD11C,0.150000*%
%ADD12C,0.160000*%
%ADD13C,0.200000*%
%ADD14C,0.180000*%
%ADD15C,0.240000*%
%ADD16C,0.120000*%
%ADD17C,0.100001*%
%ADD18C,2.200000*%
%ADD19C,2.000000*%
%ADD20C,1.000000*%
%ADD21RoundRect,0.135000X-0.185000X0.135000X-0.185000X-0.135000X0.185000X-0.135000X0.185000X0.135000X0*%
%ADD22RoundRect,0.140000X0.170000X-0.140000X0.170000X0.140000X-0.170000X0.140000X-0.170000X-0.140000X0*%
%ADD23RoundRect,0.062500X-0.062500X0.325000X-0.062500X-0.325000X0.062500X-0.325000X0.062500X0.325000X0*%
%ADD24R,1.200000X0.600000*%
%ADD25RoundRect,0.100000X-0.700000X-1.000000X0.700000X-1.000000X0.700000X1.000000X-0.700000X1.000000X0*%
%ADD26C,0.650000*%
%ADD27RoundRect,0.150000X-0.150000X-0.575000X0.150000X-0.575000X0.150000X0.575000X-0.150000X0.575000X0*%
%ADD28RoundRect,0.075000X-0.075000X-0.650000X0.075000X-0.650000X0.075000X0.650000X-0.075000X0.650000X0*%
%ADD29O,1.000000X1.600000*%
%ADD30O,1.000000X2.100000*%
%ADD31C,1.200000*%
%ADD32RoundRect,0.225000X-0.250000X0.225000X-0.250000X-0.225000X0.250000X-0.225000X0.250000X0.225000X0*%
%ADD33RoundRect,0.225000X0.225000X0.250000X-0.225000X0.250000X-0.225000X-0.250000X0.225000X-0.250000X0*%
%ADD34RoundRect,0.150000X0.150000X-0.587500X0.150000X0.587500X-0.150000X0.587500X-0.150000X-0.587500X0*%
%ADD35RoundRect,0.062500X-0.375000X-0.062500X0.375000X-0.062500X0.375000X0.062500X-0.375000X0.062500X0*%
%ADD36RoundRect,0.062500X-0.062500X-0.375000X0.062500X-0.375000X0.062500X0.375000X-0.062500X0.375000X0*%
%ADD37R,1.450000X1.450000*%
%ADD38RoundRect,0.200000X0.275000X-0.200000X0.275000X0.200000X-0.275000X0.200000X-0.275000X-0.200000X0*%
%ADD39RoundRect,0.137500X0.137500X0.662500X-0.137500X0.662500X-0.137500X-0.662500X0.137500X-0.662500X0*%
%ADD40RoundRect,0.140000X-0.170000X0.140000X-0.170000X-0.140000X0.170000X-0.140000X0.170000X0.140000X0*%
%ADD41RoundRect,0.140000X0.140000X0.170000X-0.140000X0.170000X-0.140000X-0.170000X0.140000X-0.170000X0*%
%ADD42RoundRect,0.135000X-0.135000X-0.185000X0.135000X-0.185000X0.135000X0.185000X-0.135000X0.185000X0*%
%ADD43RoundRect,0.135000X0.185000X-0.135000X0.185000X0.135000X-0.185000X0.135000X-0.185000X-0.135000X0*%
%ADD44C,0.990600*%
%ADD45C,0.787400*%
%ADD46RoundRect,0.087500X0.662500X0.087500X-0.662500X0.087500X-0.662500X-0.087500X0.662500X-0.087500X0*%
%ADD47RoundRect,0.250000X-0.400000X-0.450000X0.400000X-0.450000X0.400000X0.450000X-0.400000X0.450000X0*%
%ADD48RoundRect,0.150000X0.750000X-0.350000X0.750000X0.350000X-0.750000X0.350000X-0.750000X-0.350000X0*%
%ADD49C,0.500000*%
%ADD50R,0.725000X0.522000*%
%ADD51FreePoly0,0.000000*%
%ADD52RoundRect,0.062500X-0.325000X-0.062500X0.325000X-0.062500X0.325000X0.062500X-0.325000X0.062500X0*%
%ADD53R,0.800000X1.200000*%
%ADD54RoundRect,0.075000X-0.075000X-0.175000X0.075000X-0.175000X0.075000X0.175000X-0.075000X0.175000X0*%
%ADD55RoundRect,0.140000X-0.140000X-0.170000X0.140000X-0.170000X0.140000X0.170000X-0.140000X0.170000X0*%
%ADD56R,1.500000X0.900000*%
%ADD57R,0.900000X1.500000*%
%ADD58C,0.600000*%
%ADD59R,3.900000X3.900000*%
%ADD60R,0.800000X0.300000*%
%ADD61R,0.800000X0.400000*%
%ADD62RoundRect,0.200000X-0.800000X-0.800000X0.800000X-0.800000X0.800000X0.800000X-0.800000X0.800000X0*%
%ADD63RoundRect,0.062500X-0.350000X-0.062500X0.350000X-0.062500X0.350000X0.062500X-0.350000X0.062500X0*%
%ADD64RoundRect,0.062500X-0.062500X-0.350000X0.062500X-0.350000X0.062500X0.350000X-0.062500X0.350000X0*%
%ADD65R,1.230000X1.230000*%
%ADD66RoundRect,0.150000X-0.587500X-0.150000X0.587500X-0.150000X0.587500X0.150000X-0.587500X0.150000X0*%
%ADD67RoundRect,0.225000X-0.225000X-0.250000X0.225000X-0.250000X0.225000X0.250000X-0.225000X0.250000X0*%
%ADD68RoundRect,0.050000X0.075000X-0.250000X0.075000X0.250000X-0.075000X0.250000X-0.075000X-0.250000X0*%
%ADD69RoundRect,0.050000X0.075000X-0.400000X0.075000X0.400000X-0.075000X0.400000X-0.075000X-0.400000X0*%
%ADD70RoundRect,0.050000X0.075000X-0.600000X0.075000X0.600000X-0.075000X0.600000X-0.075000X-0.600000X0*%
%ADD71RoundRect,0.050000X0.559692X0.481398X-0.093814X0.732256X-0.559692X-0.481398X0.093814X-0.732256X0*%
%ADD72RoundRect,0.050000X0.093814X0.732256X-0.559692X0.481398X-0.093814X-0.732256X0.559692X-0.481398X0*%
%ADD73RoundRect,0.150000X0.150000X0.625000X-0.150000X0.625000X-0.150000X-0.625000X0.150000X-0.625000X0*%
%ADD74RoundRect,0.250000X0.350000X0.650000X-0.350000X0.650000X-0.350000X-0.650000X0.350000X-0.650000X0*%
%ADD75RoundRect,0.250000X0.625000X-0.312500X0.625000X0.312500X-0.625000X0.312500X-0.625000X-0.312500X0*%
%ADD76RoundRect,0.135000X0.135000X0.185000X-0.135000X0.185000X-0.135000X-0.185000X0.135000X-0.185000X0*%
G04 APERTURE END LIST*
D10*
G36*
X64715476Y-57331250D02*
G01*
X64756547Y-57331250D01*
X64763392Y-57338095D01*
X64783928Y-57338095D01*
X64790773Y-57344940D01*
X64831845Y-57351785D01*
X64866071Y-57372321D01*
X64893452Y-57379166D01*
X64907142Y-57392857D01*
X64948214Y-57413392D01*
X64996130Y-57454464D01*
X65044047Y-57481845D01*
X65091964Y-57522916D01*
X65139880Y-57550297D01*
X65167261Y-57577678D01*
X65215178Y-57605059D01*
X65235714Y-57625595D01*
X65263095Y-57639285D01*
X65331547Y-57694047D01*
X65338392Y-57694047D01*
X65352083Y-57707738D01*
X65379464Y-57721428D01*
X65400000Y-57741964D01*
X65427380Y-57755654D01*
X65447916Y-57776190D01*
X65475297Y-57789880D01*
X65495833Y-57810416D01*
X65523214Y-57824107D01*
X65571130Y-57865178D01*
X65577976Y-57865178D01*
X65591666Y-57878869D01*
X65639583Y-57906250D01*
X65687500Y-57947321D01*
X65735416Y-57974702D01*
X65783333Y-58015773D01*
X65790178Y-58015773D01*
X65803869Y-58029464D01*
X65831250Y-58043154D01*
X65851785Y-58063690D01*
X65879166Y-58077380D01*
X65927083Y-58118452D01*
X65933928Y-58118452D01*
X65947619Y-58132142D01*
X65995535Y-58159523D01*
X66043452Y-58200595D01*
X66091369Y-58227976D01*
X66118750Y-58255357D01*
X66146130Y-58269047D01*
X66187202Y-58310119D01*
X66187202Y-58316964D01*
X66221428Y-58358035D01*
X66235119Y-58385416D01*
X66235119Y-58399107D01*
X66248809Y-58419642D01*
X66248809Y-58440178D01*
X66255654Y-58447023D01*
X66255654Y-59398511D01*
X66262500Y-59405357D01*
X66262500Y-59425892D01*
X66276190Y-59439583D01*
X66372023Y-59487500D01*
X66385714Y-59501190D01*
X66433630Y-59521726D01*
X66447321Y-59535416D01*
X66481547Y-59549107D01*
X66495238Y-59562797D01*
X66556845Y-59590178D01*
X66570535Y-59603869D01*
X66632142Y-59631249D01*
X66645833Y-59644940D01*
X66741666Y-59692857D01*
X66755357Y-59706547D01*
X66816964Y-59733928D01*
X66830654Y-59747619D01*
X66864880Y-59761309D01*
X66878571Y-59775000D01*
X67029166Y-59850297D01*
X67042857Y-59863988D01*
X67090773Y-59884523D01*
X67104464Y-59898214D01*
X67138690Y-59911904D01*
X67152380Y-59925595D01*
X67213988Y-59952976D01*
X67227678Y-59966666D01*
X67261904Y-59980357D01*
X67275595Y-59994047D01*
X67398809Y-60055654D01*
X67412500Y-60069345D01*
X67446726Y-60083035D01*
X67480952Y-60110416D01*
X67501488Y-60117261D01*
X67528869Y-60144642D01*
X67535714Y-60144642D01*
X67583630Y-60192559D01*
X67583630Y-60199404D01*
X67604166Y-60219940D01*
X67604166Y-60226785D01*
X67631547Y-60261011D01*
X67665773Y-60329464D01*
X67665773Y-60343154D01*
X67679464Y-60370535D01*
X67679464Y-60391071D01*
X67686309Y-60397916D01*
X67686309Y-60425297D01*
X67693154Y-60432142D01*
X67693154Y-60486904D01*
X67700000Y-60493750D01*
X67700000Y-60507440D01*
X67693154Y-60514285D01*
X67693154Y-60582738D01*
X67686309Y-60589583D01*
X67686309Y-60616964D01*
X67679464Y-60623809D01*
X67672619Y-60664880D01*
X67658928Y-60685416D01*
X67658928Y-60699107D01*
X67631547Y-60753869D01*
X67597321Y-60794940D01*
X67597321Y-60801785D01*
X67508333Y-60890773D01*
X67501488Y-60890773D01*
X67480952Y-60911309D01*
X67398809Y-60952380D01*
X67385119Y-60952380D01*
X67378273Y-60959226D01*
X67364583Y-60959226D01*
X67337202Y-60972916D01*
X67309821Y-60972916D01*
X67302976Y-60979761D01*
X67261904Y-60979761D01*
X67255059Y-60986607D01*
X67186607Y-60986607D01*
X67179761Y-60979761D01*
X67138690Y-60979761D01*
X67131845Y-60972916D01*
X67111309Y-60972916D01*
X67104464Y-60966071D01*
X67083928Y-60966071D01*
X67077083Y-60959226D01*
X67042857Y-60952380D01*
X66988095Y-60925000D01*
X66974404Y-60911309D01*
X66926488Y-60883928D01*
X66905952Y-60863392D01*
X66858035Y-60836011D01*
X66837500Y-60815476D01*
X66830654Y-60815476D01*
X66816964Y-60801785D01*
X66810119Y-60801785D01*
X66796428Y-60788095D01*
X66789583Y-60788095D01*
X66775892Y-60774404D01*
X66769047Y-60774404D01*
X66755357Y-60760714D01*
X66748511Y-60760714D01*
X66734821Y-60747023D01*
X66727976Y-60747023D01*
X66714285Y-60733333D01*
X66666369Y-60705952D01*
X66645833Y-60685416D01*
X66638988Y-60685416D01*
X66625297Y-60671726D01*
X66577380Y-60644345D01*
X66556845Y-60623809D01*
X66508928Y-60596428D01*
X66488392Y-60575892D01*
X66481547Y-60575892D01*
X66467857Y-60562202D01*
X66461011Y-60562202D01*
X66447321Y-60548511D01*
X66440476Y-60548511D01*
X66426785Y-60534821D01*
X66378869Y-60507440D01*
X66317261Y-60445833D01*
X66317261Y-60438988D01*
X66296726Y-60418452D01*
X66283035Y-60391071D01*
X66283035Y-60377380D01*
X66269345Y-60349999D01*
X66269345Y-60322619D01*
X66262500Y-60315773D01*
X66262500Y-59439583D01*
X66235119Y-59425892D01*
X66221428Y-59412202D01*
X66187202Y-59398511D01*
X66173511Y-59384821D01*
X66111904Y-59357440D01*
X66098214Y-59343750D01*
X66016071Y-59302678D01*
X66002380Y-59288988D01*
X65954464Y-59268452D01*
X65940773Y-59254761D01*
X65831250Y-59199999D01*
X65817559Y-59186309D01*
X65783333Y-59172619D01*
X65769642Y-59158928D01*
X65735416Y-59145238D01*
X65721726Y-59131547D01*
X65612202Y-59076785D01*
X65598511Y-59063095D01*
X65564285Y-59049404D01*
X65550595Y-59035714D01*
X65502678Y-59015178D01*
X65488988Y-59001488D01*
X65454761Y-58987797D01*
X65441071Y-58974107D01*
X65406845Y-58960416D01*
X65393154Y-58946726D01*
X65358928Y-58933035D01*
X65345238Y-58919345D01*
X65283630Y-58891964D01*
X65269940Y-58878273D01*
X65187797Y-58837202D01*
X65174107Y-58823511D01*
X65139880Y-58809821D01*
X65126190Y-58796130D01*
X65064583Y-58768750D01*
X65050892Y-58755059D01*
X65016666Y-58741369D01*
X64982440Y-58713988D01*
X64920833Y-58686607D01*
X64879761Y-58652380D01*
X64872916Y-58652380D01*
X64838690Y-58618154D01*
X64838690Y-58611309D01*
X64818154Y-58590773D01*
X64811309Y-58570238D01*
X64797619Y-58556547D01*
X64797619Y-58542857D01*
X64777083Y-58501785D01*
X64777083Y-58474404D01*
X64770238Y-58467559D01*
X64770238Y-58214285D01*
X64777083Y-58207440D01*
X64777083Y-57899404D01*
X64783928Y-57892559D01*
X64783928Y-57563988D01*
X64777083Y-57557142D01*
X64770238Y-57529761D01*
X64729166Y-57488690D01*
X64715476Y-57488690D01*
X64708630Y-57481845D01*
X64660714Y-57481845D01*
X64653869Y-57488690D01*
X64640178Y-57488690D01*
X64599107Y-57529761D01*
X64592261Y-57557142D01*
X64585416Y-57563988D01*
X64585416Y-57837797D01*
X64592261Y-57844642D01*
X64592261Y-58111607D01*
X64599107Y-58118452D01*
X64599107Y-58447023D01*
X64605952Y-58453869D01*
X64605952Y-61075595D01*
X64571726Y-61061904D01*
X64558035Y-61048214D01*
X64434821Y-60986607D01*
X64421130Y-60972916D01*
X64386904Y-60959226D01*
X64373214Y-60945535D01*
X64338988Y-60931845D01*
X64325297Y-60918154D01*
X64277380Y-60897619D01*
X64263690Y-60883928D01*
X64215773Y-60863392D01*
X64202083Y-60849702D01*
X64154166Y-60829166D01*
X64140476Y-60815476D01*
X64092559Y-60794940D01*
X64078869Y-60781250D01*
X63969345Y-60726488D01*
X63921428Y-60692261D01*
X63873511Y-60671726D01*
X63859821Y-60658035D01*
X63777678Y-60616964D01*
X63763988Y-60603273D01*
X63729761Y-60589583D01*
X63716071Y-60575892D01*
X63654464Y-60548511D01*
X63640773Y-60534821D01*
X63592857Y-60514285D01*
X63579166Y-60500595D01*
X63544940Y-60486904D01*
X63531250Y-60473214D01*
X63421726Y-60418452D01*
X63408035Y-60404761D01*
X63373809Y-60391071D01*
X63360119Y-60377380D01*
X63250595Y-60322619D01*
X63236904Y-60308928D01*
X63209523Y-60295238D01*
X63134226Y-60213095D01*
X63113690Y-60172023D01*
X63106845Y-60130952D01*
X63100000Y-60124107D01*
X63100000Y-58440178D01*
X63106845Y-58433333D01*
X63106845Y-58412797D01*
X63120535Y-58392261D01*
X63120535Y-58378571D01*
X63134226Y-58351190D01*
X63168452Y-58310119D01*
X63168452Y-58303273D01*
X63223214Y-58248511D01*
X63230059Y-58248511D01*
X63271130Y-58214285D01*
X63319047Y-58186904D01*
X63339583Y-58166369D01*
X63366964Y-58152678D01*
X63387500Y-58132142D01*
X63394345Y-58132142D01*
X63414880Y-58111607D01*
X63462797Y-58084226D01*
X63483333Y-58063690D01*
X63490178Y-58063690D01*
X63503869Y-58050000D01*
X63551785Y-58022619D01*
X63627083Y-57961011D01*
X63675000Y-57933630D01*
X63729761Y-57885714D01*
X63777678Y-57858333D01*
X63825595Y-57817261D01*
X63832440Y-57817261D01*
X63846130Y-57803571D01*
X63894047Y-57776190D01*
X63914583Y-57755654D01*
X63921428Y-57755654D01*
X63941964Y-57735119D01*
X63969345Y-57721428D01*
X63989880Y-57700892D01*
X64037797Y-57673511D01*
X64058333Y-57652976D01*
X64085714Y-57639285D01*
X64154166Y-57584523D01*
X64202083Y-57557142D01*
X64222619Y-57536607D01*
X64250000Y-57522916D01*
X64270535Y-57502380D01*
X64318452Y-57474999D01*
X64338988Y-57454464D01*
X64345833Y-57454464D01*
X64386904Y-57420238D01*
X64427976Y-57399702D01*
X64441666Y-57386011D01*
X64496428Y-57358630D01*
X64510119Y-57358630D01*
X64516964Y-57351785D01*
X64530654Y-57351785D01*
X64558035Y-57338095D01*
X64578571Y-57338095D01*
X64585416Y-57331250D01*
X64626488Y-57331250D01*
X64633333Y-57324404D01*
X64708630Y-57324404D01*
X64715476Y-57331250D01*
G37*
D11*
X68028572Y-63114080D02*
X67990476Y-63075985D01*
X67990476Y-63075985D02*
X67914286Y-63037890D01*
X67914286Y-63037890D02*
X67723810Y-63037890D01*
X67723810Y-63037890D02*
X67647619Y-63075985D01*
X67647619Y-63075985D02*
X67609524Y-63114080D01*
X67609524Y-63114080D02*
X67571429Y-63190271D01*
X67571429Y-63190271D02*
X67571429Y-63266461D01*
X67571429Y-63266461D02*
X67609524Y-63380747D01*
X67609524Y-63380747D02*
X68066667Y-63837890D01*
X68066667Y-63837890D02*
X67571429Y-63837890D01*
X67076190Y-63037890D02*
X67000000Y-63037890D01*
X67000000Y-63037890D02*
X66923809Y-63075985D01*
X66923809Y-63075985D02*
X66885714Y-63114080D01*
X66885714Y-63114080D02*
X66847619Y-63190271D01*
X66847619Y-63190271D02*
X66809524Y-63342652D01*
X66809524Y-63342652D02*
X66809524Y-63533128D01*
X66809524Y-63533128D02*
X66847619Y-63685509D01*
X66847619Y-63685509D02*
X66885714Y-63761699D01*
X66885714Y-63761699D02*
X66923809Y-63799795D01*
X66923809Y-63799795D02*
X67000000Y-63837890D01*
X67000000Y-63837890D02*
X67076190Y-63837890D01*
X67076190Y-63837890D02*
X67152381Y-63799795D01*
X67152381Y-63799795D02*
X67190476Y-63761699D01*
X67190476Y-63761699D02*
X67228571Y-63685509D01*
X67228571Y-63685509D02*
X67266667Y-63533128D01*
X67266667Y-63533128D02*
X67266667Y-63342652D01*
X67266667Y-63342652D02*
X67228571Y-63190271D01*
X67228571Y-63190271D02*
X67190476Y-63114080D01*
X67190476Y-63114080D02*
X67152381Y-63075985D01*
X67152381Y-63075985D02*
X67076190Y-63037890D01*
X66504762Y-63114080D02*
X66466666Y-63075985D01*
X66466666Y-63075985D02*
X66390476Y-63037890D01*
X66390476Y-63037890D02*
X66200000Y-63037890D01*
X66200000Y-63037890D02*
X66123809Y-63075985D01*
X66123809Y-63075985D02*
X66085714Y-63114080D01*
X66085714Y-63114080D02*
X66047619Y-63190271D01*
X66047619Y-63190271D02*
X66047619Y-63266461D01*
X66047619Y-63266461D02*
X66085714Y-63380747D01*
X66085714Y-63380747D02*
X66542857Y-63837890D01*
X66542857Y-63837890D02*
X66047619Y-63837890D01*
X65361904Y-63037890D02*
X65514285Y-63037890D01*
X65514285Y-63037890D02*
X65590476Y-63075985D01*
X65590476Y-63075985D02*
X65628571Y-63114080D01*
X65628571Y-63114080D02*
X65704761Y-63228366D01*
X65704761Y-63228366D02*
X65742857Y-63380747D01*
X65742857Y-63380747D02*
X65742857Y-63685509D01*
X65742857Y-63685509D02*
X65704761Y-63761699D01*
X65704761Y-63761699D02*
X65666666Y-63799795D01*
X65666666Y-63799795D02*
X65590476Y-63837890D01*
X65590476Y-63837890D02*
X65438095Y-63837890D01*
X65438095Y-63837890D02*
X65361904Y-63799795D01*
X65361904Y-63799795D02*
X65323809Y-63761699D01*
X65323809Y-63761699D02*
X65285714Y-63685509D01*
X65285714Y-63685509D02*
X65285714Y-63495033D01*
X65285714Y-63495033D02*
X65323809Y-63418842D01*
X65323809Y-63418842D02*
X65361904Y-63380747D01*
X65361904Y-63380747D02*
X65438095Y-63342652D01*
X65438095Y-63342652D02*
X65590476Y-63342652D01*
X65590476Y-63342652D02*
X65666666Y-63380747D01*
X65666666Y-63380747D02*
X65704761Y-63418842D01*
X65704761Y-63418842D02*
X65742857Y-63495033D01*
X64942856Y-63533128D02*
X64333333Y-63533128D01*
X63533333Y-63837890D02*
X63990476Y-63837890D01*
X63761904Y-63837890D02*
X63761904Y-63037890D01*
X63761904Y-63037890D02*
X63838095Y-63152175D01*
X63838095Y-63152175D02*
X63914285Y-63228366D01*
X63914285Y-63228366D02*
X63990476Y-63266461D01*
X63038094Y-63037890D02*
X62961904Y-63037890D01*
X62961904Y-63037890D02*
X62885713Y-63075985D01*
X62885713Y-63075985D02*
X62847618Y-63114080D01*
X62847618Y-63114080D02*
X62809523Y-63190271D01*
X62809523Y-63190271D02*
X62771428Y-63342652D01*
X62771428Y-63342652D02*
X62771428Y-63533128D01*
X62771428Y-63533128D02*
X62809523Y-63685509D01*
X62809523Y-63685509D02*
X62847618Y-63761699D01*
X62847618Y-63761699D02*
X62885713Y-63799795D01*
X62885713Y-63799795D02*
X62961904Y-63837890D01*
X62961904Y-63837890D02*
X63038094Y-63837890D01*
X63038094Y-63837890D02*
X63114285Y-63799795D01*
X63114285Y-63799795D02*
X63152380Y-63761699D01*
X63152380Y-63761699D02*
X63190475Y-63685509D01*
X63190475Y-63685509D02*
X63228571Y-63533128D01*
X63228571Y-63533128D02*
X63228571Y-63342652D01*
X63228571Y-63342652D02*
X63190475Y-63190271D01*
X63190475Y-63190271D02*
X63152380Y-63114080D01*
X63152380Y-63114080D02*
X63114285Y-63075985D01*
X63114285Y-63075985D02*
X63038094Y-63037890D01*
X71500476Y-39534270D02*
X71386190Y-39572365D01*
X71386190Y-39572365D02*
X71348095Y-39610461D01*
X71348095Y-39610461D02*
X71309999Y-39686651D01*
X71309999Y-39686651D02*
X71309999Y-39800937D01*
X71309999Y-39800937D02*
X71348095Y-39877127D01*
X71348095Y-39877127D02*
X71386190Y-39915223D01*
X71386190Y-39915223D02*
X71462380Y-39953318D01*
X71462380Y-39953318D02*
X71767142Y-39953318D01*
X71767142Y-39953318D02*
X71767142Y-39153318D01*
X71767142Y-39153318D02*
X71500476Y-39153318D01*
X71500476Y-39153318D02*
X71424285Y-39191413D01*
X71424285Y-39191413D02*
X71386190Y-39229508D01*
X71386190Y-39229508D02*
X71348095Y-39305699D01*
X71348095Y-39305699D02*
X71348095Y-39381889D01*
X71348095Y-39381889D02*
X71386190Y-39458080D01*
X71386190Y-39458080D02*
X71424285Y-39496175D01*
X71424285Y-39496175D02*
X71500476Y-39534270D01*
X71500476Y-39534270D02*
X71767142Y-39534270D01*
X71005238Y-39724746D02*
X70624285Y-39724746D01*
X71081428Y-39953318D02*
X70814761Y-39153318D01*
X70814761Y-39153318D02*
X70548095Y-39953318D01*
X70395714Y-39153318D02*
X69938571Y-39153318D01*
X70167143Y-39953318D02*
X70167143Y-39153318D01*
X71671904Y-41241273D02*
X72052856Y-41241273D01*
X72052856Y-41241273D02*
X72052856Y-40441273D01*
X71405237Y-41241273D02*
X71405237Y-40441273D01*
X71024285Y-41241273D02*
X71024285Y-40441273D01*
X71024285Y-40441273D02*
X70567142Y-41241273D01*
X70567142Y-41241273D02*
X70567142Y-40441273D01*
X70186190Y-41241273D02*
X70186190Y-40441273D01*
X69729047Y-41241273D02*
X70071905Y-40784130D01*
X69729047Y-40441273D02*
X70186190Y-40898416D01*
X28097704Y-55666666D02*
X28631038Y-55666666D01*
X28554847Y-55666666D02*
X28592942Y-55628571D01*
X28592942Y-55628571D02*
X28631038Y-55552381D01*
X28631038Y-55552381D02*
X28631038Y-55438095D01*
X28631038Y-55438095D02*
X28592942Y-55361904D01*
X28592942Y-55361904D02*
X28516752Y-55323809D01*
X28516752Y-55323809D02*
X28097704Y-55323809D01*
X28516752Y-55323809D02*
X28592942Y-55285714D01*
X28592942Y-55285714D02*
X28631038Y-55209523D01*
X28631038Y-55209523D02*
X28631038Y-55095238D01*
X28631038Y-55095238D02*
X28592942Y-55019047D01*
X28592942Y-55019047D02*
X28516752Y-54980952D01*
X28516752Y-54980952D02*
X28097704Y-54980952D01*
X28135800Y-54295237D02*
X28097704Y-54371428D01*
X28097704Y-54371428D02*
X28097704Y-54523809D01*
X28097704Y-54523809D02*
X28135800Y-54599999D01*
X28135800Y-54599999D02*
X28211990Y-54638095D01*
X28211990Y-54638095D02*
X28516752Y-54638095D01*
X28516752Y-54638095D02*
X28592942Y-54599999D01*
X28592942Y-54599999D02*
X28631038Y-54523809D01*
X28631038Y-54523809D02*
X28631038Y-54371428D01*
X28631038Y-54371428D02*
X28592942Y-54295237D01*
X28592942Y-54295237D02*
X28516752Y-54257142D01*
X28516752Y-54257142D02*
X28440561Y-54257142D01*
X28440561Y-54257142D02*
X28364371Y-54638095D01*
X28097704Y-53800000D02*
X28135800Y-53876190D01*
X28135800Y-53876190D02*
X28173895Y-53914285D01*
X28173895Y-53914285D02*
X28250085Y-53952381D01*
X28250085Y-53952381D02*
X28478657Y-53952381D01*
X28478657Y-53952381D02*
X28554847Y-53914285D01*
X28554847Y-53914285D02*
X28592942Y-53876190D01*
X28592942Y-53876190D02*
X28631038Y-53800000D01*
X28631038Y-53800000D02*
X28631038Y-53685714D01*
X28631038Y-53685714D02*
X28592942Y-53609523D01*
X28592942Y-53609523D02*
X28554847Y-53571428D01*
X28554847Y-53571428D02*
X28478657Y-53533333D01*
X28478657Y-53533333D02*
X28250085Y-53533333D01*
X28250085Y-53533333D02*
X28173895Y-53571428D01*
X28173895Y-53571428D02*
X28135800Y-53609523D01*
X28135800Y-53609523D02*
X28097704Y-53685714D01*
X28097704Y-53685714D02*
X28097704Y-53800000D01*
X28631038Y-53266666D02*
X28097704Y-53114285D01*
X28097704Y-53114285D02*
X28478657Y-52961904D01*
X28478657Y-52961904D02*
X28097704Y-52809523D01*
X28097704Y-52809523D02*
X28631038Y-52657142D01*
X61637704Y-41003571D02*
X61637704Y-40851190D01*
X61637704Y-40851190D02*
X61675800Y-40775000D01*
X61675800Y-40775000D02*
X61713895Y-40736904D01*
X61713895Y-40736904D02*
X61828180Y-40660714D01*
X61828180Y-40660714D02*
X61980561Y-40622619D01*
X61980561Y-40622619D02*
X62285323Y-40622619D01*
X62285323Y-40622619D02*
X62361514Y-40660714D01*
X62361514Y-40660714D02*
X62399609Y-40698809D01*
X62399609Y-40698809D02*
X62437704Y-40775000D01*
X62437704Y-40775000D02*
X62437704Y-40927381D01*
X62437704Y-40927381D02*
X62399609Y-41003571D01*
X62399609Y-41003571D02*
X62361514Y-41041666D01*
X62361514Y-41041666D02*
X62285323Y-41079762D01*
X62285323Y-41079762D02*
X62094847Y-41079762D01*
X62094847Y-41079762D02*
X62018657Y-41041666D01*
X62018657Y-41041666D02*
X61980561Y-41003571D01*
X61980561Y-41003571D02*
X61942466Y-40927381D01*
X61942466Y-40927381D02*
X61942466Y-40775000D01*
X61942466Y-40775000D02*
X61980561Y-40698809D01*
X61980561Y-40698809D02*
X62018657Y-40660714D01*
X62018657Y-40660714D02*
X62094847Y-40622619D01*
X61637704Y-39555952D02*
X61675800Y-39632142D01*
X61675800Y-39632142D02*
X61751990Y-39670237D01*
X61751990Y-39670237D02*
X62437704Y-39670237D01*
X61637704Y-39251189D02*
X62171038Y-39251189D01*
X62437704Y-39251189D02*
X62399609Y-39289285D01*
X62399609Y-39289285D02*
X62361514Y-39251189D01*
X62361514Y-39251189D02*
X62399609Y-39213094D01*
X62399609Y-39213094D02*
X62437704Y-39251189D01*
X62437704Y-39251189D02*
X62361514Y-39251189D01*
X62171038Y-38946428D02*
X61637704Y-38755952D01*
X61637704Y-38755952D02*
X62171038Y-38565475D01*
X61675800Y-37955951D02*
X61637704Y-38032142D01*
X61637704Y-38032142D02*
X61637704Y-38184523D01*
X61637704Y-38184523D02*
X61675800Y-38260713D01*
X61675800Y-38260713D02*
X61751990Y-38298809D01*
X61751990Y-38298809D02*
X62056752Y-38298809D01*
X62056752Y-38298809D02*
X62132942Y-38260713D01*
X62132942Y-38260713D02*
X62171038Y-38184523D01*
X62171038Y-38184523D02*
X62171038Y-38032142D01*
X62171038Y-38032142D02*
X62132942Y-37955951D01*
X62132942Y-37955951D02*
X62056752Y-37917856D01*
X62056752Y-37917856D02*
X61980561Y-37917856D01*
X61980561Y-37917856D02*
X61904371Y-38298809D01*
X61675800Y-37613095D02*
X61637704Y-37536904D01*
X61637704Y-37536904D02*
X61637704Y-37384523D01*
X61637704Y-37384523D02*
X61675800Y-37308333D01*
X61675800Y-37308333D02*
X61751990Y-37270237D01*
X61751990Y-37270237D02*
X61790085Y-37270237D01*
X61790085Y-37270237D02*
X61866276Y-37308333D01*
X61866276Y-37308333D02*
X61904371Y-37384523D01*
X61904371Y-37384523D02*
X61904371Y-37498809D01*
X61904371Y-37498809D02*
X61942466Y-37574999D01*
X61942466Y-37574999D02*
X62018657Y-37613095D01*
X62018657Y-37613095D02*
X62056752Y-37613095D01*
X62056752Y-37613095D02*
X62132942Y-37574999D01*
X62132942Y-37574999D02*
X62171038Y-37498809D01*
X62171038Y-37498809D02*
X62171038Y-37384523D01*
X62171038Y-37384523D02*
X62132942Y-37308333D01*
D12*
X71024285Y-50985238D02*
X70414762Y-50985238D01*
X69538571Y-50490000D02*
X69081428Y-50490000D01*
X69310000Y-51290000D02*
X69310000Y-50490000D01*
X68205237Y-50985238D02*
X67595714Y-50985238D01*
X67900475Y-51290000D02*
X67900475Y-50680476D01*
X69900476Y-52158907D02*
X69786190Y-52197002D01*
X69786190Y-52197002D02*
X69748095Y-52235098D01*
X69748095Y-52235098D02*
X69709999Y-52311288D01*
X69709999Y-52311288D02*
X69709999Y-52425574D01*
X69709999Y-52425574D02*
X69748095Y-52501764D01*
X69748095Y-52501764D02*
X69786190Y-52539860D01*
X69786190Y-52539860D02*
X69862380Y-52577955D01*
X69862380Y-52577955D02*
X70167142Y-52577955D01*
X70167142Y-52577955D02*
X70167142Y-51777955D01*
X70167142Y-51777955D02*
X69900476Y-51777955D01*
X69900476Y-51777955D02*
X69824285Y-51816050D01*
X69824285Y-51816050D02*
X69786190Y-51854145D01*
X69786190Y-51854145D02*
X69748095Y-51930336D01*
X69748095Y-51930336D02*
X69748095Y-52006526D01*
X69748095Y-52006526D02*
X69786190Y-52082717D01*
X69786190Y-52082717D02*
X69824285Y-52120812D01*
X69824285Y-52120812D02*
X69900476Y-52158907D01*
X69900476Y-52158907D02*
X70167142Y-52158907D01*
X69405238Y-52349383D02*
X69024285Y-52349383D01*
X69481428Y-52577955D02*
X69214761Y-51777955D01*
X69214761Y-51777955D02*
X68948095Y-52577955D01*
X68795714Y-51777955D02*
X68338571Y-51777955D01*
X68567143Y-52577955D02*
X68567143Y-51777955D01*
D11*
X57447618Y-45345903D02*
X57528571Y-45305427D01*
X57528571Y-45305427D02*
X57649999Y-45305427D01*
X57649999Y-45305427D02*
X57771428Y-45345903D01*
X57771428Y-45345903D02*
X57852380Y-45426855D01*
X57852380Y-45426855D02*
X57892857Y-45507808D01*
X57892857Y-45507808D02*
X57933333Y-45669712D01*
X57933333Y-45669712D02*
X57933333Y-45791141D01*
X57933333Y-45791141D02*
X57892857Y-45953046D01*
X57892857Y-45953046D02*
X57852380Y-46033998D01*
X57852380Y-46033998D02*
X57771428Y-46114951D01*
X57771428Y-46114951D02*
X57649999Y-46155427D01*
X57649999Y-46155427D02*
X57569047Y-46155427D01*
X57569047Y-46155427D02*
X57447618Y-46114951D01*
X57447618Y-46114951D02*
X57407142Y-46074474D01*
X57407142Y-46074474D02*
X57407142Y-45791141D01*
X57407142Y-45791141D02*
X57569047Y-45791141D01*
X57042857Y-46155427D02*
X57042857Y-45305427D01*
X57042857Y-45305427D02*
X56557142Y-46155427D01*
X56557142Y-46155427D02*
X56557142Y-45305427D01*
X56152381Y-46155427D02*
X56152381Y-45305427D01*
X56152381Y-45305427D02*
X55950000Y-45305427D01*
X55950000Y-45305427D02*
X55828571Y-45345903D01*
X55828571Y-45345903D02*
X55747619Y-45426855D01*
X55747619Y-45426855D02*
X55707142Y-45507808D01*
X55707142Y-45507808D02*
X55666666Y-45669712D01*
X55666666Y-45669712D02*
X55666666Y-45791141D01*
X55666666Y-45791141D02*
X55707142Y-45953046D01*
X55707142Y-45953046D02*
X55747619Y-46033998D01*
X55747619Y-46033998D02*
X55828571Y-46114951D01*
X55828571Y-46114951D02*
X55950000Y-46155427D01*
X55950000Y-46155427D02*
X56152381Y-46155427D01*
X63647618Y-45555903D02*
X63728571Y-45515427D01*
X63728571Y-45515427D02*
X63849999Y-45515427D01*
X63849999Y-45515427D02*
X63971428Y-45555903D01*
X63971428Y-45555903D02*
X64052380Y-45636855D01*
X64052380Y-45636855D02*
X64092857Y-45717808D01*
X64092857Y-45717808D02*
X64133333Y-45879712D01*
X64133333Y-45879712D02*
X64133333Y-46001141D01*
X64133333Y-46001141D02*
X64092857Y-46163046D01*
X64092857Y-46163046D02*
X64052380Y-46243998D01*
X64052380Y-46243998D02*
X63971428Y-46324951D01*
X63971428Y-46324951D02*
X63849999Y-46365427D01*
X63849999Y-46365427D02*
X63769047Y-46365427D01*
X63769047Y-46365427D02*
X63647618Y-46324951D01*
X63647618Y-46324951D02*
X63607142Y-46284474D01*
X63607142Y-46284474D02*
X63607142Y-46001141D01*
X63607142Y-46001141D02*
X63769047Y-46001141D01*
X63242857Y-46365427D02*
X63242857Y-45515427D01*
X63242857Y-45515427D02*
X62757142Y-46365427D01*
X62757142Y-46365427D02*
X62757142Y-45515427D01*
X62352381Y-46365427D02*
X62352381Y-45515427D01*
X62352381Y-45515427D02*
X62150000Y-45515427D01*
X62150000Y-45515427D02*
X62028571Y-45555903D01*
X62028571Y-45555903D02*
X61947619Y-45636855D01*
X61947619Y-45636855D02*
X61907142Y-45717808D01*
X61907142Y-45717808D02*
X61866666Y-45879712D01*
X61866666Y-45879712D02*
X61866666Y-46001141D01*
X61866666Y-46001141D02*
X61907142Y-46163046D01*
X61907142Y-46163046D02*
X61947619Y-46243998D01*
X61947619Y-46243998D02*
X62028571Y-46324951D01*
X62028571Y-46324951D02*
X62150000Y-46365427D01*
X62150000Y-46365427D02*
X62352381Y-46365427D01*
X44394572Y-43751190D02*
X44394572Y-44155952D01*
X44394572Y-44155952D02*
X45244572Y-44155952D01*
X44475525Y-42982142D02*
X44435049Y-43022618D01*
X44435049Y-43022618D02*
X44394572Y-43144047D01*
X44394572Y-43144047D02*
X44394572Y-43224999D01*
X44394572Y-43224999D02*
X44435049Y-43346428D01*
X44435049Y-43346428D02*
X44516001Y-43427380D01*
X44516001Y-43427380D02*
X44596953Y-43467857D01*
X44596953Y-43467857D02*
X44758858Y-43508333D01*
X44758858Y-43508333D02*
X44880287Y-43508333D01*
X44880287Y-43508333D02*
X45042191Y-43467857D01*
X45042191Y-43467857D02*
X45123144Y-43427380D01*
X45123144Y-43427380D02*
X45204096Y-43346428D01*
X45204096Y-43346428D02*
X45244572Y-43224999D01*
X45244572Y-43224999D02*
X45244572Y-43144047D01*
X45244572Y-43144047D02*
X45204096Y-43022618D01*
X45204096Y-43022618D02*
X45163620Y-42982142D01*
X44394572Y-42617857D02*
X45244572Y-42617857D01*
X45244572Y-42617857D02*
X45244572Y-42415476D01*
X45244572Y-42415476D02*
X45204096Y-42294047D01*
X45204096Y-42294047D02*
X45123144Y-42213095D01*
X45123144Y-42213095D02*
X45042191Y-42172618D01*
X45042191Y-42172618D02*
X44880287Y-42132142D01*
X44880287Y-42132142D02*
X44758858Y-42132142D01*
X44758858Y-42132142D02*
X44596953Y-42172618D01*
X44596953Y-42172618D02*
X44516001Y-42213095D01*
X44516001Y-42213095D02*
X44435049Y-42294047D01*
X44435049Y-42294047D02*
X44394572Y-42415476D01*
X44394572Y-42415476D02*
X44394572Y-42617857D01*
X45244572Y-41889285D02*
X44394572Y-41605952D01*
X44394572Y-41605952D02*
X45244572Y-41322618D01*
X54515683Y-34996561D02*
X53665683Y-34713228D01*
X53665683Y-34713228D02*
X54515683Y-34429894D01*
X54110921Y-33863228D02*
X54070445Y-33741800D01*
X54070445Y-33741800D02*
X54029969Y-33701323D01*
X54029969Y-33701323D02*
X53949017Y-33660847D01*
X53949017Y-33660847D02*
X53827588Y-33660847D01*
X53827588Y-33660847D02*
X53746636Y-33701323D01*
X53746636Y-33701323D02*
X53706160Y-33741800D01*
X53706160Y-33741800D02*
X53665683Y-33822752D01*
X53665683Y-33822752D02*
X53665683Y-34146562D01*
X53665683Y-34146562D02*
X54515683Y-34146562D01*
X54515683Y-34146562D02*
X54515683Y-33863228D01*
X54515683Y-33863228D02*
X54475207Y-33782276D01*
X54475207Y-33782276D02*
X54434731Y-33741800D01*
X54434731Y-33741800D02*
X54353779Y-33701323D01*
X54353779Y-33701323D02*
X54272826Y-33701323D01*
X54272826Y-33701323D02*
X54191874Y-33741800D01*
X54191874Y-33741800D02*
X54151398Y-33782276D01*
X54151398Y-33782276D02*
X54110921Y-33863228D01*
X54110921Y-33863228D02*
X54110921Y-34146562D01*
X54515683Y-33296562D02*
X53827588Y-33296562D01*
X53827588Y-33296562D02*
X53746636Y-33256085D01*
X53746636Y-33256085D02*
X53706160Y-33215609D01*
X53706160Y-33215609D02*
X53665683Y-33134657D01*
X53665683Y-33134657D02*
X53665683Y-32972752D01*
X53665683Y-32972752D02*
X53706160Y-32891800D01*
X53706160Y-32891800D02*
X53746636Y-32851323D01*
X53746636Y-32851323D02*
X53827588Y-32810847D01*
X53827588Y-32810847D02*
X54515683Y-32810847D01*
X53706160Y-32446562D02*
X53665683Y-32325133D01*
X53665683Y-32325133D02*
X53665683Y-32122752D01*
X53665683Y-32122752D02*
X53706160Y-32041800D01*
X53706160Y-32041800D02*
X53746636Y-32001324D01*
X53746636Y-32001324D02*
X53827588Y-31960847D01*
X53827588Y-31960847D02*
X53908540Y-31960847D01*
X53908540Y-31960847D02*
X53989493Y-32001324D01*
X53989493Y-32001324D02*
X54029969Y-32041800D01*
X54029969Y-32041800D02*
X54070445Y-32122752D01*
X54070445Y-32122752D02*
X54110921Y-32284657D01*
X54110921Y-32284657D02*
X54151398Y-32365609D01*
X54151398Y-32365609D02*
X54191874Y-32406086D01*
X54191874Y-32406086D02*
X54272826Y-32446562D01*
X54272826Y-32446562D02*
X54353779Y-32446562D01*
X54353779Y-32446562D02*
X54434731Y-32406086D01*
X54434731Y-32406086D02*
X54475207Y-32365609D01*
X54475207Y-32365609D02*
X54515683Y-32284657D01*
X54515683Y-32284657D02*
X54515683Y-32082276D01*
X54515683Y-32082276D02*
X54475207Y-31960847D01*
X54135049Y-48111904D02*
X54094572Y-47990475D01*
X54094572Y-47990475D02*
X54094572Y-47788094D01*
X54094572Y-47788094D02*
X54135049Y-47707142D01*
X54135049Y-47707142D02*
X54175525Y-47666666D01*
X54175525Y-47666666D02*
X54256477Y-47626189D01*
X54256477Y-47626189D02*
X54337429Y-47626189D01*
X54337429Y-47626189D02*
X54418382Y-47666666D01*
X54418382Y-47666666D02*
X54458858Y-47707142D01*
X54458858Y-47707142D02*
X54499334Y-47788094D01*
X54499334Y-47788094D02*
X54539810Y-47949999D01*
X54539810Y-47949999D02*
X54580287Y-48030951D01*
X54580287Y-48030951D02*
X54620763Y-48071428D01*
X54620763Y-48071428D02*
X54701715Y-48111904D01*
X54701715Y-48111904D02*
X54782668Y-48111904D01*
X54782668Y-48111904D02*
X54863620Y-48071428D01*
X54863620Y-48071428D02*
X54904096Y-48030951D01*
X54904096Y-48030951D02*
X54944572Y-47949999D01*
X54944572Y-47949999D02*
X54944572Y-47747618D01*
X54944572Y-47747618D02*
X54904096Y-47626189D01*
X54175525Y-46776189D02*
X54135049Y-46816665D01*
X54135049Y-46816665D02*
X54094572Y-46938094D01*
X54094572Y-46938094D02*
X54094572Y-47019046D01*
X54094572Y-47019046D02*
X54135049Y-47140475D01*
X54135049Y-47140475D02*
X54216001Y-47221427D01*
X54216001Y-47221427D02*
X54296953Y-47261904D01*
X54296953Y-47261904D02*
X54458858Y-47302380D01*
X54458858Y-47302380D02*
X54580287Y-47302380D01*
X54580287Y-47302380D02*
X54742191Y-47261904D01*
X54742191Y-47261904D02*
X54823144Y-47221427D01*
X54823144Y-47221427D02*
X54904096Y-47140475D01*
X54904096Y-47140475D02*
X54944572Y-47019046D01*
X54944572Y-47019046D02*
X54944572Y-46938094D01*
X54944572Y-46938094D02*
X54904096Y-46816665D01*
X54904096Y-46816665D02*
X54863620Y-46776189D01*
X54094572Y-46007142D02*
X54094572Y-46411904D01*
X54094572Y-46411904D02*
X54944572Y-46411904D01*
X56875049Y-51532142D02*
X56834572Y-51410713D01*
X56834572Y-51410713D02*
X56834572Y-51208332D01*
X56834572Y-51208332D02*
X56875049Y-51127380D01*
X56875049Y-51127380D02*
X56915525Y-51086904D01*
X56915525Y-51086904D02*
X56996477Y-51046427D01*
X56996477Y-51046427D02*
X57077429Y-51046427D01*
X57077429Y-51046427D02*
X57158382Y-51086904D01*
X57158382Y-51086904D02*
X57198858Y-51127380D01*
X57198858Y-51127380D02*
X57239334Y-51208332D01*
X57239334Y-51208332D02*
X57279810Y-51370237D01*
X57279810Y-51370237D02*
X57320287Y-51451189D01*
X57320287Y-51451189D02*
X57360763Y-51491666D01*
X57360763Y-51491666D02*
X57441715Y-51532142D01*
X57441715Y-51532142D02*
X57522668Y-51532142D01*
X57522668Y-51532142D02*
X57603620Y-51491666D01*
X57603620Y-51491666D02*
X57644096Y-51451189D01*
X57644096Y-51451189D02*
X57684572Y-51370237D01*
X57684572Y-51370237D02*
X57684572Y-51167856D01*
X57684572Y-51167856D02*
X57644096Y-51046427D01*
X56834572Y-50682142D02*
X57684572Y-50682142D01*
X57684572Y-50682142D02*
X57684572Y-50479761D01*
X57684572Y-50479761D02*
X57644096Y-50358332D01*
X57644096Y-50358332D02*
X57563144Y-50277380D01*
X57563144Y-50277380D02*
X57482191Y-50236903D01*
X57482191Y-50236903D02*
X57320287Y-50196427D01*
X57320287Y-50196427D02*
X57198858Y-50196427D01*
X57198858Y-50196427D02*
X57036953Y-50236903D01*
X57036953Y-50236903D02*
X56956001Y-50277380D01*
X56956001Y-50277380D02*
X56875049Y-50358332D01*
X56875049Y-50358332D02*
X56834572Y-50479761D01*
X56834572Y-50479761D02*
X56834572Y-50682142D01*
X57077429Y-49872618D02*
X57077429Y-49467856D01*
X56834572Y-49953570D02*
X57684572Y-49670237D01*
X57684572Y-49670237D02*
X56834572Y-49386903D01*
X60484572Y-51336904D02*
X59634572Y-50770237D01*
X60484572Y-50770237D02*
X59634572Y-51336904D01*
X59634572Y-49960713D02*
X60039334Y-50244047D01*
X59634572Y-50446428D02*
X60484572Y-50446428D01*
X60484572Y-50446428D02*
X60484572Y-50122618D01*
X60484572Y-50122618D02*
X60444096Y-50041666D01*
X60444096Y-50041666D02*
X60403620Y-50001189D01*
X60403620Y-50001189D02*
X60322668Y-49960713D01*
X60322668Y-49960713D02*
X60201239Y-49960713D01*
X60201239Y-49960713D02*
X60120287Y-50001189D01*
X60120287Y-50001189D02*
X60079810Y-50041666D01*
X60079810Y-50041666D02*
X60039334Y-50122618D01*
X60039334Y-50122618D02*
X60039334Y-50446428D01*
X59675049Y-49636904D02*
X59634572Y-49515475D01*
X59634572Y-49515475D02*
X59634572Y-49313094D01*
X59634572Y-49313094D02*
X59675049Y-49232142D01*
X59675049Y-49232142D02*
X59715525Y-49191666D01*
X59715525Y-49191666D02*
X59796477Y-49151189D01*
X59796477Y-49151189D02*
X59877429Y-49151189D01*
X59877429Y-49151189D02*
X59958382Y-49191666D01*
X59958382Y-49191666D02*
X59998858Y-49232142D01*
X59998858Y-49232142D02*
X60039334Y-49313094D01*
X60039334Y-49313094D02*
X60079810Y-49474999D01*
X60079810Y-49474999D02*
X60120287Y-49555951D01*
X60120287Y-49555951D02*
X60160763Y-49596428D01*
X60160763Y-49596428D02*
X60241715Y-49636904D01*
X60241715Y-49636904D02*
X60322668Y-49636904D01*
X60322668Y-49636904D02*
X60403620Y-49596428D01*
X60403620Y-49596428D02*
X60444096Y-49555951D01*
X60444096Y-49555951D02*
X60484572Y-49474999D01*
X60484572Y-49474999D02*
X60484572Y-49272618D01*
X60484572Y-49272618D02*
X60444096Y-49151189D01*
X60484572Y-48908332D02*
X60484572Y-48422618D01*
X59634572Y-48665475D02*
X60484572Y-48665475D01*
X60584572Y-45352380D02*
X60584572Y-44826189D01*
X60584572Y-44826189D02*
X60260763Y-45109523D01*
X60260763Y-45109523D02*
X60260763Y-44988094D01*
X60260763Y-44988094D02*
X60220287Y-44907142D01*
X60220287Y-44907142D02*
X60179810Y-44866666D01*
X60179810Y-44866666D02*
X60098858Y-44826189D01*
X60098858Y-44826189D02*
X59896477Y-44826189D01*
X59896477Y-44826189D02*
X59815525Y-44866666D01*
X59815525Y-44866666D02*
X59775049Y-44907142D01*
X59775049Y-44907142D02*
X59734572Y-44988094D01*
X59734572Y-44988094D02*
X59734572Y-45230951D01*
X59734572Y-45230951D02*
X59775049Y-45311904D01*
X59775049Y-45311904D02*
X59815525Y-45352380D01*
X60584572Y-44583332D02*
X59734572Y-44299999D01*
X59734572Y-44299999D02*
X60584572Y-44016665D01*
X60584572Y-43814285D02*
X60584572Y-43288094D01*
X60584572Y-43288094D02*
X60260763Y-43571428D01*
X60260763Y-43571428D02*
X60260763Y-43449999D01*
X60260763Y-43449999D02*
X60220287Y-43369047D01*
X60220287Y-43369047D02*
X60179810Y-43328571D01*
X60179810Y-43328571D02*
X60098858Y-43288094D01*
X60098858Y-43288094D02*
X59896477Y-43288094D01*
X59896477Y-43288094D02*
X59815525Y-43328571D01*
X59815525Y-43328571D02*
X59775049Y-43369047D01*
X59775049Y-43369047D02*
X59734572Y-43449999D01*
X59734572Y-43449999D02*
X59734572Y-43692856D01*
X59734572Y-43692856D02*
X59775049Y-43773809D01*
X59775049Y-43773809D02*
X59815525Y-43814285D01*
X62879810Y-51453570D02*
X62839334Y-51332142D01*
X62839334Y-51332142D02*
X62798858Y-51291665D01*
X62798858Y-51291665D02*
X62717906Y-51251189D01*
X62717906Y-51251189D02*
X62596477Y-51251189D01*
X62596477Y-51251189D02*
X62515525Y-51291665D01*
X62515525Y-51291665D02*
X62475049Y-51332142D01*
X62475049Y-51332142D02*
X62434572Y-51413094D01*
X62434572Y-51413094D02*
X62434572Y-51736904D01*
X62434572Y-51736904D02*
X63284572Y-51736904D01*
X63284572Y-51736904D02*
X63284572Y-51453570D01*
X63284572Y-51453570D02*
X63244096Y-51372618D01*
X63244096Y-51372618D02*
X63203620Y-51332142D01*
X63203620Y-51332142D02*
X63122668Y-51291665D01*
X63122668Y-51291665D02*
X63041715Y-51291665D01*
X63041715Y-51291665D02*
X62960763Y-51332142D01*
X62960763Y-51332142D02*
X62920287Y-51372618D01*
X62920287Y-51372618D02*
X62879810Y-51453570D01*
X62879810Y-51453570D02*
X62879810Y-51736904D01*
X63284572Y-50724999D02*
X63284572Y-50563094D01*
X63284572Y-50563094D02*
X63244096Y-50482142D01*
X63244096Y-50482142D02*
X63163144Y-50401189D01*
X63163144Y-50401189D02*
X63001239Y-50360713D01*
X63001239Y-50360713D02*
X62717906Y-50360713D01*
X62717906Y-50360713D02*
X62556001Y-50401189D01*
X62556001Y-50401189D02*
X62475049Y-50482142D01*
X62475049Y-50482142D02*
X62434572Y-50563094D01*
X62434572Y-50563094D02*
X62434572Y-50724999D01*
X62434572Y-50724999D02*
X62475049Y-50805951D01*
X62475049Y-50805951D02*
X62556001Y-50886904D01*
X62556001Y-50886904D02*
X62717906Y-50927380D01*
X62717906Y-50927380D02*
X63001239Y-50927380D01*
X63001239Y-50927380D02*
X63163144Y-50886904D01*
X63163144Y-50886904D02*
X63244096Y-50805951D01*
X63244096Y-50805951D02*
X63284572Y-50724999D01*
X63284572Y-49834523D02*
X63284572Y-49672618D01*
X63284572Y-49672618D02*
X63244096Y-49591666D01*
X63244096Y-49591666D02*
X63163144Y-49510713D01*
X63163144Y-49510713D02*
X63001239Y-49470237D01*
X63001239Y-49470237D02*
X62717906Y-49470237D01*
X62717906Y-49470237D02*
X62556001Y-49510713D01*
X62556001Y-49510713D02*
X62475049Y-49591666D01*
X62475049Y-49591666D02*
X62434572Y-49672618D01*
X62434572Y-49672618D02*
X62434572Y-49834523D01*
X62434572Y-49834523D02*
X62475049Y-49915475D01*
X62475049Y-49915475D02*
X62556001Y-49996428D01*
X62556001Y-49996428D02*
X62717906Y-50036904D01*
X62717906Y-50036904D02*
X63001239Y-50036904D01*
X63001239Y-50036904D02*
X63163144Y-49996428D01*
X63163144Y-49996428D02*
X63244096Y-49915475D01*
X63244096Y-49915475D02*
X63284572Y-49834523D01*
X63284572Y-49227380D02*
X63284572Y-48741666D01*
X62434572Y-48984523D02*
X63284572Y-48984523D01*
X62575049Y-44711904D02*
X62534572Y-44590475D01*
X62534572Y-44590475D02*
X62534572Y-44388094D01*
X62534572Y-44388094D02*
X62575049Y-44307142D01*
X62575049Y-44307142D02*
X62615525Y-44266666D01*
X62615525Y-44266666D02*
X62696477Y-44226189D01*
X62696477Y-44226189D02*
X62777429Y-44226189D01*
X62777429Y-44226189D02*
X62858382Y-44266666D01*
X62858382Y-44266666D02*
X62898858Y-44307142D01*
X62898858Y-44307142D02*
X62939334Y-44388094D01*
X62939334Y-44388094D02*
X62979810Y-44549999D01*
X62979810Y-44549999D02*
X63020287Y-44630951D01*
X63020287Y-44630951D02*
X63060763Y-44671428D01*
X63060763Y-44671428D02*
X63141715Y-44711904D01*
X63141715Y-44711904D02*
X63222668Y-44711904D01*
X63222668Y-44711904D02*
X63303620Y-44671428D01*
X63303620Y-44671428D02*
X63344096Y-44630951D01*
X63344096Y-44630951D02*
X63384572Y-44549999D01*
X63384572Y-44549999D02*
X63384572Y-44347618D01*
X63384572Y-44347618D02*
X63344096Y-44226189D01*
X62939334Y-43699999D02*
X62534572Y-43699999D01*
X63384572Y-43983332D02*
X62939334Y-43699999D01*
X62939334Y-43699999D02*
X63384572Y-43416665D01*
X62575049Y-43173809D02*
X62534572Y-43052380D01*
X62534572Y-43052380D02*
X62534572Y-42849999D01*
X62534572Y-42849999D02*
X62575049Y-42769047D01*
X62575049Y-42769047D02*
X62615525Y-42728571D01*
X62615525Y-42728571D02*
X62696477Y-42688094D01*
X62696477Y-42688094D02*
X62777429Y-42688094D01*
X62777429Y-42688094D02*
X62858382Y-42728571D01*
X62858382Y-42728571D02*
X62898858Y-42769047D01*
X62898858Y-42769047D02*
X62939334Y-42849999D01*
X62939334Y-42849999D02*
X62979810Y-43011904D01*
X62979810Y-43011904D02*
X63020287Y-43092856D01*
X63020287Y-43092856D02*
X63060763Y-43133333D01*
X63060763Y-43133333D02*
X63141715Y-43173809D01*
X63141715Y-43173809D02*
X63222668Y-43173809D01*
X63222668Y-43173809D02*
X63303620Y-43133333D01*
X63303620Y-43133333D02*
X63344096Y-43092856D01*
X63344096Y-43092856D02*
X63384572Y-43011904D01*
X63384572Y-43011904D02*
X63384572Y-42809523D01*
X63384572Y-42809523D02*
X63344096Y-42688094D01*
X65234572Y-51365475D02*
X65639334Y-51648809D01*
X65234572Y-51851190D02*
X66084572Y-51851190D01*
X66084572Y-51851190D02*
X66084572Y-51527380D01*
X66084572Y-51527380D02*
X66044096Y-51446428D01*
X66044096Y-51446428D02*
X66003620Y-51405951D01*
X66003620Y-51405951D02*
X65922668Y-51365475D01*
X65922668Y-51365475D02*
X65801239Y-51365475D01*
X65801239Y-51365475D02*
X65720287Y-51405951D01*
X65720287Y-51405951D02*
X65679810Y-51446428D01*
X65679810Y-51446428D02*
X65639334Y-51527380D01*
X65639334Y-51527380D02*
X65639334Y-51851190D01*
X65275049Y-51041666D02*
X65234572Y-50920237D01*
X65234572Y-50920237D02*
X65234572Y-50717856D01*
X65234572Y-50717856D02*
X65275049Y-50636904D01*
X65275049Y-50636904D02*
X65315525Y-50596428D01*
X65315525Y-50596428D02*
X65396477Y-50555951D01*
X65396477Y-50555951D02*
X65477429Y-50555951D01*
X65477429Y-50555951D02*
X65558382Y-50596428D01*
X65558382Y-50596428D02*
X65598858Y-50636904D01*
X65598858Y-50636904D02*
X65639334Y-50717856D01*
X65639334Y-50717856D02*
X65679810Y-50879761D01*
X65679810Y-50879761D02*
X65720287Y-50960713D01*
X65720287Y-50960713D02*
X65760763Y-51001190D01*
X65760763Y-51001190D02*
X65841715Y-51041666D01*
X65841715Y-51041666D02*
X65922668Y-51041666D01*
X65922668Y-51041666D02*
X66003620Y-51001190D01*
X66003620Y-51001190D02*
X66044096Y-50960713D01*
X66044096Y-50960713D02*
X66084572Y-50879761D01*
X66084572Y-50879761D02*
X66084572Y-50677380D01*
X66084572Y-50677380D02*
X66044096Y-50555951D01*
X66084572Y-50313094D02*
X66084572Y-49827380D01*
X65234572Y-50070237D02*
X66084572Y-50070237D01*
X65779810Y-44927380D02*
X65739334Y-44805952D01*
X65739334Y-44805952D02*
X65698858Y-44765475D01*
X65698858Y-44765475D02*
X65617906Y-44724999D01*
X65617906Y-44724999D02*
X65496477Y-44724999D01*
X65496477Y-44724999D02*
X65415525Y-44765475D01*
X65415525Y-44765475D02*
X65375049Y-44805952D01*
X65375049Y-44805952D02*
X65334572Y-44886904D01*
X65334572Y-44886904D02*
X65334572Y-45210714D01*
X65334572Y-45210714D02*
X66184572Y-45210714D01*
X66184572Y-45210714D02*
X66184572Y-44927380D01*
X66184572Y-44927380D02*
X66144096Y-44846428D01*
X66144096Y-44846428D02*
X66103620Y-44805952D01*
X66103620Y-44805952D02*
X66022668Y-44765475D01*
X66022668Y-44765475D02*
X65941715Y-44765475D01*
X65941715Y-44765475D02*
X65860763Y-44805952D01*
X65860763Y-44805952D02*
X65820287Y-44846428D01*
X65820287Y-44846428D02*
X65779810Y-44927380D01*
X65779810Y-44927380D02*
X65779810Y-45210714D01*
X65577429Y-44401190D02*
X65577429Y-43996428D01*
X65334572Y-44482142D02*
X66184572Y-44198809D01*
X66184572Y-44198809D02*
X65334572Y-43915475D01*
X66184572Y-43753571D02*
X66184572Y-43267857D01*
X65334572Y-43510714D02*
X66184572Y-43510714D01*
X73094572Y-62990714D02*
X73944572Y-62990714D01*
X73944572Y-62990714D02*
X73337429Y-62707380D01*
X73337429Y-62707380D02*
X73944572Y-62424047D01*
X73944572Y-62424047D02*
X73094572Y-62424047D01*
X73094572Y-62019285D02*
X73944572Y-62019285D01*
X73175525Y-61128808D02*
X73135049Y-61169284D01*
X73135049Y-61169284D02*
X73094572Y-61290713D01*
X73094572Y-61290713D02*
X73094572Y-61371665D01*
X73094572Y-61371665D02*
X73135049Y-61493094D01*
X73135049Y-61493094D02*
X73216001Y-61574046D01*
X73216001Y-61574046D02*
X73296953Y-61614523D01*
X73296953Y-61614523D02*
X73458858Y-61654999D01*
X73458858Y-61654999D02*
X73580287Y-61654999D01*
X73580287Y-61654999D02*
X73742191Y-61614523D01*
X73742191Y-61614523D02*
X73823144Y-61574046D01*
X73823144Y-61574046D02*
X73904096Y-61493094D01*
X73904096Y-61493094D02*
X73944572Y-61371665D01*
X73944572Y-61371665D02*
X73944572Y-61290713D01*
X73944572Y-61290713D02*
X73904096Y-61169284D01*
X73904096Y-61169284D02*
X73863620Y-61128808D01*
X73144572Y-51719285D02*
X73994572Y-51719285D01*
X73144572Y-50828808D02*
X73549334Y-51112142D01*
X73144572Y-51314523D02*
X73994572Y-51314523D01*
X73994572Y-51314523D02*
X73994572Y-50990713D01*
X73994572Y-50990713D02*
X73954096Y-50909761D01*
X73954096Y-50909761D02*
X73913620Y-50869284D01*
X73913620Y-50869284D02*
X73832668Y-50828808D01*
X73832668Y-50828808D02*
X73711239Y-50828808D01*
X73711239Y-50828808D02*
X73630287Y-50869284D01*
X73630287Y-50869284D02*
X73589810Y-50909761D01*
X73589810Y-50909761D02*
X73549334Y-50990713D01*
X73549334Y-50990713D02*
X73549334Y-51314523D01*
X73994572Y-50585951D02*
X73144572Y-50302618D01*
X73144572Y-50302618D02*
X73994572Y-50019284D01*
D13*
X67971428Y-62477814D02*
X67971428Y-61477814D01*
X67971428Y-61477814D02*
X67638095Y-62192099D01*
X67638095Y-62192099D02*
X67304762Y-61477814D01*
X67304762Y-61477814D02*
X67304762Y-62477814D01*
X66876190Y-62192099D02*
X66400000Y-62192099D01*
X66971428Y-62477814D02*
X66638095Y-61477814D01*
X66638095Y-61477814D02*
X66304762Y-62477814D01*
X65780952Y-61477814D02*
X65590476Y-61477814D01*
X65590476Y-61477814D02*
X65495238Y-61525433D01*
X65495238Y-61525433D02*
X65400000Y-61620671D01*
X65400000Y-61620671D02*
X65352381Y-61811147D01*
X65352381Y-61811147D02*
X65352381Y-62144480D01*
X65352381Y-62144480D02*
X65400000Y-62334956D01*
X65400000Y-62334956D02*
X65495238Y-62430195D01*
X65495238Y-62430195D02*
X65590476Y-62477814D01*
X65590476Y-62477814D02*
X65780952Y-62477814D01*
X65780952Y-62477814D02*
X65876190Y-62430195D01*
X65876190Y-62430195D02*
X65971428Y-62334956D01*
X65971428Y-62334956D02*
X66019047Y-62144480D01*
X66019047Y-62144480D02*
X66019047Y-61811147D01*
X66019047Y-61811147D02*
X65971428Y-61620671D01*
X65971428Y-61620671D02*
X65876190Y-61525433D01*
X65876190Y-61525433D02*
X65780952Y-61477814D01*
X64209523Y-62192099D02*
X63733333Y-62192099D01*
X64304761Y-62477814D02*
X63971428Y-61477814D01*
X63971428Y-61477814D02*
X63638095Y-62477814D01*
X63114285Y-61477814D02*
X63019047Y-61477814D01*
X63019047Y-61477814D02*
X62923809Y-61525433D01*
X62923809Y-61525433D02*
X62876190Y-61573052D01*
X62876190Y-61573052D02*
X62828571Y-61668290D01*
X62828571Y-61668290D02*
X62780952Y-61858766D01*
X62780952Y-61858766D02*
X62780952Y-62096861D01*
X62780952Y-62096861D02*
X62828571Y-62287337D01*
X62828571Y-62287337D02*
X62876190Y-62382575D01*
X62876190Y-62382575D02*
X62923809Y-62430195D01*
X62923809Y-62430195D02*
X63019047Y-62477814D01*
X63019047Y-62477814D02*
X63114285Y-62477814D01*
X63114285Y-62477814D02*
X63209523Y-62430195D01*
X63209523Y-62430195D02*
X63257142Y-62382575D01*
X63257142Y-62382575D02*
X63304761Y-62287337D01*
X63304761Y-62287337D02*
X63352380Y-62096861D01*
X63352380Y-62096861D02*
X63352380Y-61858766D01*
X63352380Y-61858766D02*
X63304761Y-61668290D01*
X63304761Y-61668290D02*
X63257142Y-61573052D01*
X63257142Y-61573052D02*
X63209523Y-61525433D01*
X63209523Y-61525433D02*
X63114285Y-61477814D01*
D14*
X42796262Y-52345782D02*
X43367690Y-52345782D01*
X43367690Y-52345782D02*
X43367690Y-51145782D01*
X41710547Y-52231497D02*
X41767690Y-52288640D01*
X41767690Y-52288640D02*
X41939118Y-52345782D01*
X41939118Y-52345782D02*
X42053404Y-52345782D01*
X42053404Y-52345782D02*
X42224833Y-52288640D01*
X42224833Y-52288640D02*
X42339118Y-52174354D01*
X42339118Y-52174354D02*
X42396261Y-52060068D01*
X42396261Y-52060068D02*
X42453404Y-51831497D01*
X42453404Y-51831497D02*
X42453404Y-51660068D01*
X42453404Y-51660068D02*
X42396261Y-51431497D01*
X42396261Y-51431497D02*
X42339118Y-51317211D01*
X42339118Y-51317211D02*
X42224833Y-51202925D01*
X42224833Y-51202925D02*
X42053404Y-51145782D01*
X42053404Y-51145782D02*
X41939118Y-51145782D01*
X41939118Y-51145782D02*
X41767690Y-51202925D01*
X41767690Y-51202925D02*
X41710547Y-51260068D01*
X41196261Y-52345782D02*
X41196261Y-51145782D01*
X41196261Y-51145782D02*
X40910547Y-51145782D01*
X40910547Y-51145782D02*
X40739118Y-51202925D01*
X40739118Y-51202925D02*
X40624833Y-51317211D01*
X40624833Y-51317211D02*
X40567690Y-51431497D01*
X40567690Y-51431497D02*
X40510547Y-51660068D01*
X40510547Y-51660068D02*
X40510547Y-51831497D01*
X40510547Y-51831497D02*
X40567690Y-52060068D01*
X40567690Y-52060068D02*
X40624833Y-52174354D01*
X40624833Y-52174354D02*
X40739118Y-52288640D01*
X40739118Y-52288640D02*
X40910547Y-52345782D01*
X40910547Y-52345782D02*
X41196261Y-52345782D01*
X62986624Y-65962270D02*
X62300910Y-65962270D01*
X62643767Y-67162270D02*
X62643767Y-65962270D01*
X61958052Y-66819413D02*
X61386624Y-66819413D01*
X62072338Y-67162270D02*
X61672338Y-65962270D01*
X61672338Y-65962270D02*
X61272338Y-67162270D01*
X60243767Y-66019413D02*
X60358053Y-65962270D01*
X60358053Y-65962270D02*
X60529481Y-65962270D01*
X60529481Y-65962270D02*
X60700910Y-66019413D01*
X60700910Y-66019413D02*
X60815195Y-66133699D01*
X60815195Y-66133699D02*
X60872338Y-66247985D01*
X60872338Y-66247985D02*
X60929481Y-66476556D01*
X60929481Y-66476556D02*
X60929481Y-66647985D01*
X60929481Y-66647985D02*
X60872338Y-66876556D01*
X60872338Y-66876556D02*
X60815195Y-66990842D01*
X60815195Y-66990842D02*
X60700910Y-67105128D01*
X60700910Y-67105128D02*
X60529481Y-67162270D01*
X60529481Y-67162270D02*
X60415195Y-67162270D01*
X60415195Y-67162270D02*
X60243767Y-67105128D01*
X60243767Y-67105128D02*
X60186624Y-67047985D01*
X60186624Y-67047985D02*
X60186624Y-66647985D01*
X60186624Y-66647985D02*
X60415195Y-66647985D01*
X24301328Y-41748079D02*
X24872756Y-42148079D01*
X24301328Y-42433793D02*
X25501328Y-42433793D01*
X25501328Y-42433793D02*
X25501328Y-41976650D01*
X25501328Y-41976650D02*
X25444185Y-41862365D01*
X25444185Y-41862365D02*
X25387042Y-41805222D01*
X25387042Y-41805222D02*
X25272756Y-41748079D01*
X25272756Y-41748079D02*
X25101328Y-41748079D01*
X25101328Y-41748079D02*
X24987042Y-41805222D01*
X24987042Y-41805222D02*
X24929899Y-41862365D01*
X24929899Y-41862365D02*
X24872756Y-41976650D01*
X24872756Y-41976650D02*
X24872756Y-42433793D01*
X24929899Y-41233793D02*
X24929899Y-40833793D01*
X24301328Y-40662365D02*
X24301328Y-41233793D01*
X24301328Y-41233793D02*
X25501328Y-41233793D01*
X25501328Y-41233793D02*
X25501328Y-40662365D01*
X24644185Y-40205222D02*
X24644185Y-39633794D01*
X24301328Y-40319508D02*
X25501328Y-39919508D01*
X25501328Y-39919508D02*
X24301328Y-39519508D01*
X24301328Y-38433794D02*
X24872756Y-38833794D01*
X24301328Y-39119508D02*
X25501328Y-39119508D01*
X25501328Y-39119508D02*
X25501328Y-38662365D01*
X25501328Y-38662365D02*
X25444185Y-38548080D01*
X25444185Y-38548080D02*
X25387042Y-38490937D01*
X25387042Y-38490937D02*
X25272756Y-38433794D01*
X25272756Y-38433794D02*
X25101328Y-38433794D01*
X25101328Y-38433794D02*
X24987042Y-38490937D01*
X24987042Y-38490937D02*
X24929899Y-38548080D01*
X24929899Y-38548080D02*
X24872756Y-38662365D01*
X24872756Y-38662365D02*
X24872756Y-39119508D01*
X26667660Y-62947857D02*
X26667660Y-63519285D01*
X26667660Y-63519285D02*
X27867660Y-63519285D01*
X26667660Y-61862142D02*
X27239088Y-62262142D01*
X26667660Y-62547856D02*
X27867660Y-62547856D01*
X27867660Y-62547856D02*
X27867660Y-62090713D01*
X27867660Y-62090713D02*
X27810517Y-61976428D01*
X27810517Y-61976428D02*
X27753374Y-61919285D01*
X27753374Y-61919285D02*
X27639088Y-61862142D01*
X27639088Y-61862142D02*
X27467660Y-61862142D01*
X27467660Y-61862142D02*
X27353374Y-61919285D01*
X27353374Y-61919285D02*
X27296231Y-61976428D01*
X27296231Y-61976428D02*
X27239088Y-62090713D01*
X27239088Y-62090713D02*
X27239088Y-62547856D01*
X27010517Y-61404999D02*
X27010517Y-60833571D01*
X26667660Y-61519285D02*
X27867660Y-61119285D01*
X27867660Y-61119285D02*
X26667660Y-60719285D01*
X27971360Y-49142856D02*
X27914217Y-48971428D01*
X27914217Y-48971428D02*
X27914217Y-48685713D01*
X27914217Y-48685713D02*
X27971360Y-48571428D01*
X27971360Y-48571428D02*
X28028502Y-48514285D01*
X28028502Y-48514285D02*
X28142788Y-48457142D01*
X28142788Y-48457142D02*
X28257074Y-48457142D01*
X28257074Y-48457142D02*
X28371360Y-48514285D01*
X28371360Y-48514285D02*
X28428502Y-48571428D01*
X28428502Y-48571428D02*
X28485645Y-48685713D01*
X28485645Y-48685713D02*
X28542788Y-48914285D01*
X28542788Y-48914285D02*
X28599931Y-49028570D01*
X28599931Y-49028570D02*
X28657074Y-49085713D01*
X28657074Y-49085713D02*
X28771360Y-49142856D01*
X28771360Y-49142856D02*
X28885645Y-49142856D01*
X28885645Y-49142856D02*
X28999931Y-49085713D01*
X28999931Y-49085713D02*
X29057074Y-49028570D01*
X29057074Y-49028570D02*
X29114217Y-48914285D01*
X29114217Y-48914285D02*
X29114217Y-48628570D01*
X29114217Y-48628570D02*
X29057074Y-48457142D01*
X27914217Y-47942856D02*
X29114217Y-47942856D01*
X29114217Y-47942856D02*
X29114217Y-47485713D01*
X29114217Y-47485713D02*
X29057074Y-47371428D01*
X29057074Y-47371428D02*
X28999931Y-47314285D01*
X28999931Y-47314285D02*
X28885645Y-47257142D01*
X28885645Y-47257142D02*
X28714217Y-47257142D01*
X28714217Y-47257142D02*
X28599931Y-47314285D01*
X28599931Y-47314285D02*
X28542788Y-47371428D01*
X28542788Y-47371428D02*
X28485645Y-47485713D01*
X28485645Y-47485713D02*
X28485645Y-47942856D01*
X27914217Y-46742856D02*
X29114217Y-46742856D01*
X27914217Y-46057142D02*
X28599931Y-46571428D01*
X29114217Y-46057142D02*
X28428502Y-46742856D01*
D15*
X47530568Y-30642662D02*
X47530568Y-31614091D01*
X47530568Y-31614091D02*
X47473425Y-31728377D01*
X47473425Y-31728377D02*
X47416283Y-31785520D01*
X47416283Y-31785520D02*
X47301997Y-31842662D01*
X47301997Y-31842662D02*
X47073425Y-31842662D01*
X47073425Y-31842662D02*
X46959140Y-31785520D01*
X46959140Y-31785520D02*
X46901997Y-31728377D01*
X46901997Y-31728377D02*
X46844854Y-31614091D01*
X46844854Y-31614091D02*
X46844854Y-30642662D01*
X46330568Y-31785520D02*
X46159140Y-31842662D01*
X46159140Y-31842662D02*
X45873425Y-31842662D01*
X45873425Y-31842662D02*
X45759140Y-31785520D01*
X45759140Y-31785520D02*
X45701997Y-31728377D01*
X45701997Y-31728377D02*
X45644854Y-31614091D01*
X45644854Y-31614091D02*
X45644854Y-31499805D01*
X45644854Y-31499805D02*
X45701997Y-31385520D01*
X45701997Y-31385520D02*
X45759140Y-31328377D01*
X45759140Y-31328377D02*
X45873425Y-31271234D01*
X45873425Y-31271234D02*
X46101997Y-31214091D01*
X46101997Y-31214091D02*
X46216282Y-31156948D01*
X46216282Y-31156948D02*
X46273425Y-31099805D01*
X46273425Y-31099805D02*
X46330568Y-30985520D01*
X46330568Y-30985520D02*
X46330568Y-30871234D01*
X46330568Y-30871234D02*
X46273425Y-30756948D01*
X46273425Y-30756948D02*
X46216282Y-30699805D01*
X46216282Y-30699805D02*
X46101997Y-30642662D01*
X46101997Y-30642662D02*
X45816282Y-30642662D01*
X45816282Y-30642662D02*
X45644854Y-30699805D01*
X44730568Y-31214091D02*
X44559140Y-31271234D01*
X44559140Y-31271234D02*
X44501997Y-31328377D01*
X44501997Y-31328377D02*
X44444854Y-31442662D01*
X44444854Y-31442662D02*
X44444854Y-31614091D01*
X44444854Y-31614091D02*
X44501997Y-31728377D01*
X44501997Y-31728377D02*
X44559140Y-31785520D01*
X44559140Y-31785520D02*
X44673425Y-31842662D01*
X44673425Y-31842662D02*
X45130568Y-31842662D01*
X45130568Y-31842662D02*
X45130568Y-30642662D01*
X45130568Y-30642662D02*
X44730568Y-30642662D01*
X44730568Y-30642662D02*
X44616283Y-30699805D01*
X44616283Y-30699805D02*
X44559140Y-30756948D01*
X44559140Y-30756948D02*
X44501997Y-30871234D01*
X44501997Y-30871234D02*
X44501997Y-30985520D01*
X44501997Y-30985520D02*
X44559140Y-31099805D01*
X44559140Y-31099805D02*
X44616283Y-31156948D01*
X44616283Y-31156948D02*
X44730568Y-31214091D01*
X44730568Y-31214091D02*
X45130568Y-31214091D01*
D11*
X76395714Y-58842856D02*
X76433810Y-58880952D01*
X76433810Y-58880952D02*
X76548095Y-58919047D01*
X76548095Y-58919047D02*
X76624286Y-58919047D01*
X76624286Y-58919047D02*
X76738572Y-58880952D01*
X76738572Y-58880952D02*
X76814762Y-58804761D01*
X76814762Y-58804761D02*
X76852857Y-58728571D01*
X76852857Y-58728571D02*
X76890953Y-58576190D01*
X76890953Y-58576190D02*
X76890953Y-58461904D01*
X76890953Y-58461904D02*
X76852857Y-58309523D01*
X76852857Y-58309523D02*
X76814762Y-58233332D01*
X76814762Y-58233332D02*
X76738572Y-58157142D01*
X76738572Y-58157142D02*
X76624286Y-58119047D01*
X76624286Y-58119047D02*
X76548095Y-58119047D01*
X76548095Y-58119047D02*
X76433810Y-58157142D01*
X76433810Y-58157142D02*
X76395714Y-58195237D01*
X75710000Y-58385713D02*
X75710000Y-58919047D01*
X75900476Y-58080952D02*
X76090953Y-58652380D01*
X76090953Y-58652380D02*
X75595714Y-58652380D01*
X75138571Y-58119047D02*
X75062381Y-58119047D01*
X75062381Y-58119047D02*
X74986190Y-58157142D01*
X74986190Y-58157142D02*
X74948095Y-58195237D01*
X74948095Y-58195237D02*
X74910000Y-58271428D01*
X74910000Y-58271428D02*
X74871905Y-58423809D01*
X74871905Y-58423809D02*
X74871905Y-58614285D01*
X74871905Y-58614285D02*
X74910000Y-58766666D01*
X74910000Y-58766666D02*
X74948095Y-58842856D01*
X74948095Y-58842856D02*
X74986190Y-58880952D01*
X74986190Y-58880952D02*
X75062381Y-58919047D01*
X75062381Y-58919047D02*
X75138571Y-58919047D01*
X75138571Y-58919047D02*
X75214762Y-58880952D01*
X75214762Y-58880952D02*
X75252857Y-58842856D01*
X75252857Y-58842856D02*
X75290952Y-58766666D01*
X75290952Y-58766666D02*
X75329048Y-58614285D01*
X75329048Y-58614285D02*
X75329048Y-58423809D01*
X75329048Y-58423809D02*
X75290952Y-58271428D01*
X75290952Y-58271428D02*
X75252857Y-58195237D01*
X75252857Y-58195237D02*
X75214762Y-58157142D01*
X75214762Y-58157142D02*
X75138571Y-58119047D01*
X74186190Y-58119047D02*
X74338571Y-58119047D01*
X74338571Y-58119047D02*
X74414762Y-58157142D01*
X74414762Y-58157142D02*
X74452857Y-58195237D01*
X74452857Y-58195237D02*
X74529047Y-58309523D01*
X74529047Y-58309523D02*
X74567143Y-58461904D01*
X74567143Y-58461904D02*
X74567143Y-58766666D01*
X74567143Y-58766666D02*
X74529047Y-58842856D01*
X74529047Y-58842856D02*
X74490952Y-58880952D01*
X74490952Y-58880952D02*
X74414762Y-58919047D01*
X74414762Y-58919047D02*
X74262381Y-58919047D01*
X74262381Y-58919047D02*
X74186190Y-58880952D01*
X74186190Y-58880952D02*
X74148095Y-58842856D01*
X74148095Y-58842856D02*
X74110000Y-58766666D01*
X74110000Y-58766666D02*
X74110000Y-58576190D01*
X74110000Y-58576190D02*
X74148095Y-58499999D01*
X74148095Y-58499999D02*
X74186190Y-58461904D01*
X74186190Y-58461904D02*
X74262381Y-58423809D01*
X74262381Y-58423809D02*
X74414762Y-58423809D01*
X74414762Y-58423809D02*
X74490952Y-58461904D01*
X74490952Y-58461904D02*
X74529047Y-58499999D01*
X74529047Y-58499999D02*
X74567143Y-58576190D01*
X46080952Y-47200000D02*
X46080952Y-47847619D01*
X46080952Y-47847619D02*
X46042857Y-47923809D01*
X46042857Y-47923809D02*
X46004762Y-47961905D01*
X46004762Y-47961905D02*
X45928571Y-48000000D01*
X45928571Y-48000000D02*
X45776190Y-48000000D01*
X45776190Y-48000000D02*
X45700000Y-47961905D01*
X45700000Y-47961905D02*
X45661905Y-47923809D01*
X45661905Y-47923809D02*
X45623809Y-47847619D01*
X45623809Y-47847619D02*
X45623809Y-47200000D01*
X45319048Y-47200000D02*
X44823810Y-47200000D01*
X44823810Y-47200000D02*
X45090476Y-47504762D01*
X45090476Y-47504762D02*
X44976191Y-47504762D01*
X44976191Y-47504762D02*
X44900000Y-47542857D01*
X44900000Y-47542857D02*
X44861905Y-47580952D01*
X44861905Y-47580952D02*
X44823810Y-47657143D01*
X44823810Y-47657143D02*
X44823810Y-47847619D01*
X44823810Y-47847619D02*
X44861905Y-47923809D01*
X44861905Y-47923809D02*
X44900000Y-47961905D01*
X44900000Y-47961905D02*
X44976191Y-48000000D01*
X44976191Y-48000000D02*
X45204762Y-48000000D01*
X45204762Y-48000000D02*
X45280953Y-47961905D01*
X45280953Y-47961905D02*
X45319048Y-47923809D01*
X44328571Y-47200000D02*
X44252381Y-47200000D01*
X44252381Y-47200000D02*
X44176190Y-47238095D01*
X44176190Y-47238095D02*
X44138095Y-47276190D01*
X44138095Y-47276190D02*
X44100000Y-47352381D01*
X44100000Y-47352381D02*
X44061905Y-47504762D01*
X44061905Y-47504762D02*
X44061905Y-47695238D01*
X44061905Y-47695238D02*
X44100000Y-47847619D01*
X44100000Y-47847619D02*
X44138095Y-47923809D01*
X44138095Y-47923809D02*
X44176190Y-47961905D01*
X44176190Y-47961905D02*
X44252381Y-48000000D01*
X44252381Y-48000000D02*
X44328571Y-48000000D01*
X44328571Y-48000000D02*
X44404762Y-47961905D01*
X44404762Y-47961905D02*
X44442857Y-47923809D01*
X44442857Y-47923809D02*
X44480952Y-47847619D01*
X44480952Y-47847619D02*
X44519048Y-47695238D01*
X44519048Y-47695238D02*
X44519048Y-47504762D01*
X44519048Y-47504762D02*
X44480952Y-47352381D01*
X44480952Y-47352381D02*
X44442857Y-47276190D01*
X44442857Y-47276190D02*
X44404762Y-47238095D01*
X44404762Y-47238095D02*
X44328571Y-47200000D01*
X43795238Y-47200000D02*
X43300000Y-47200000D01*
X43300000Y-47200000D02*
X43566666Y-47504762D01*
X43566666Y-47504762D02*
X43452381Y-47504762D01*
X43452381Y-47504762D02*
X43376190Y-47542857D01*
X43376190Y-47542857D02*
X43338095Y-47580952D01*
X43338095Y-47580952D02*
X43300000Y-47657143D01*
X43300000Y-47657143D02*
X43300000Y-47847619D01*
X43300000Y-47847619D02*
X43338095Y-47923809D01*
X43338095Y-47923809D02*
X43376190Y-47961905D01*
X43376190Y-47961905D02*
X43452381Y-48000000D01*
X43452381Y-48000000D02*
X43680952Y-48000000D01*
X43680952Y-48000000D02*
X43757143Y-47961905D01*
X43757143Y-47961905D02*
X43795238Y-47923809D01*
X44080000Y-25619524D02*
X43508572Y-25619524D01*
X43508572Y-25619524D02*
X43394286Y-25657619D01*
X43394286Y-25657619D02*
X43318096Y-25733810D01*
X43318096Y-25733810D02*
X43280000Y-25848095D01*
X43280000Y-25848095D02*
X43280000Y-25924286D01*
X43280000Y-24819524D02*
X43280000Y-25276667D01*
X43280000Y-25048095D02*
X44080000Y-25048095D01*
X44080000Y-25048095D02*
X43965715Y-25124286D01*
X43965715Y-25124286D02*
X43889524Y-25200476D01*
X43889524Y-25200476D02*
X43851429Y-25276667D01*
X44080000Y-24324285D02*
X44080000Y-24248095D01*
X44080000Y-24248095D02*
X44041905Y-24171904D01*
X44041905Y-24171904D02*
X44003810Y-24133809D01*
X44003810Y-24133809D02*
X43927619Y-24095714D01*
X43927619Y-24095714D02*
X43775238Y-24057619D01*
X43775238Y-24057619D02*
X43584762Y-24057619D01*
X43584762Y-24057619D02*
X43432381Y-24095714D01*
X43432381Y-24095714D02*
X43356191Y-24133809D01*
X43356191Y-24133809D02*
X43318096Y-24171904D01*
X43318096Y-24171904D02*
X43280000Y-24248095D01*
X43280000Y-24248095D02*
X43280000Y-24324285D01*
X43280000Y-24324285D02*
X43318096Y-24400476D01*
X43318096Y-24400476D02*
X43356191Y-24438571D01*
X43356191Y-24438571D02*
X43432381Y-24476666D01*
X43432381Y-24476666D02*
X43584762Y-24514762D01*
X43584762Y-24514762D02*
X43775238Y-24514762D01*
X43775238Y-24514762D02*
X43927619Y-24476666D01*
X43927619Y-24476666D02*
X44003810Y-24438571D01*
X44003810Y-24438571D02*
X44041905Y-24400476D01*
X44041905Y-24400476D02*
X44080000Y-24324285D01*
X43280000Y-23295714D02*
X43280000Y-23752857D01*
X43280000Y-23524285D02*
X44080000Y-23524285D01*
X44080000Y-23524285D02*
X43965715Y-23600476D01*
X43965715Y-23600476D02*
X43889524Y-23676666D01*
X43889524Y-23676666D02*
X43851429Y-23752857D01*
X43452976Y-33370000D02*
X43452976Y-34017619D01*
X43452976Y-34017619D02*
X43414881Y-34093809D01*
X43414881Y-34093809D02*
X43376786Y-34131905D01*
X43376786Y-34131905D02*
X43300595Y-34170000D01*
X43300595Y-34170000D02*
X43148214Y-34170000D01*
X43148214Y-34170000D02*
X43072024Y-34131905D01*
X43072024Y-34131905D02*
X43033929Y-34093809D01*
X43033929Y-34093809D02*
X42995833Y-34017619D01*
X42995833Y-34017619D02*
X42995833Y-33370000D01*
X42652977Y-33446190D02*
X42614881Y-33408095D01*
X42614881Y-33408095D02*
X42538691Y-33370000D01*
X42538691Y-33370000D02*
X42348215Y-33370000D01*
X42348215Y-33370000D02*
X42272024Y-33408095D01*
X42272024Y-33408095D02*
X42233929Y-33446190D01*
X42233929Y-33446190D02*
X42195834Y-33522381D01*
X42195834Y-33522381D02*
X42195834Y-33598571D01*
X42195834Y-33598571D02*
X42233929Y-33712857D01*
X42233929Y-33712857D02*
X42691072Y-34170000D01*
X42691072Y-34170000D02*
X42195834Y-34170000D01*
X41700595Y-33370000D02*
X41624405Y-33370000D01*
X41624405Y-33370000D02*
X41548214Y-33408095D01*
X41548214Y-33408095D02*
X41510119Y-33446190D01*
X41510119Y-33446190D02*
X41472024Y-33522381D01*
X41472024Y-33522381D02*
X41433929Y-33674762D01*
X41433929Y-33674762D02*
X41433929Y-33865238D01*
X41433929Y-33865238D02*
X41472024Y-34017619D01*
X41472024Y-34017619D02*
X41510119Y-34093809D01*
X41510119Y-34093809D02*
X41548214Y-34131905D01*
X41548214Y-34131905D02*
X41624405Y-34170000D01*
X41624405Y-34170000D02*
X41700595Y-34170000D01*
X41700595Y-34170000D02*
X41776786Y-34131905D01*
X41776786Y-34131905D02*
X41814881Y-34093809D01*
X41814881Y-34093809D02*
X41852976Y-34017619D01*
X41852976Y-34017619D02*
X41891072Y-33865238D01*
X41891072Y-33865238D02*
X41891072Y-33674762D01*
X41891072Y-33674762D02*
X41852976Y-33522381D01*
X41852976Y-33522381D02*
X41814881Y-33446190D01*
X41814881Y-33446190D02*
X41776786Y-33408095D01*
X41776786Y-33408095D02*
X41700595Y-33370000D01*
X41129167Y-33446190D02*
X41091071Y-33408095D01*
X41091071Y-33408095D02*
X41014881Y-33370000D01*
X41014881Y-33370000D02*
X40824405Y-33370000D01*
X40824405Y-33370000D02*
X40748214Y-33408095D01*
X40748214Y-33408095D02*
X40710119Y-33446190D01*
X40710119Y-33446190D02*
X40672024Y-33522381D01*
X40672024Y-33522381D02*
X40672024Y-33598571D01*
X40672024Y-33598571D02*
X40710119Y-33712857D01*
X40710119Y-33712857D02*
X41167262Y-34170000D01*
X41167262Y-34170000D02*
X40672024Y-34170000D01*
X51019048Y-36810000D02*
X51400000Y-36810000D01*
X51400000Y-36810000D02*
X51400000Y-36010000D01*
X50333334Y-36810000D02*
X50790477Y-36810000D01*
X50561905Y-36810000D02*
X50561905Y-36010000D01*
X50561905Y-36010000D02*
X50638096Y-36124285D01*
X50638096Y-36124285D02*
X50714286Y-36200476D01*
X50714286Y-36200476D02*
X50790477Y-36238571D01*
X49838095Y-36010000D02*
X49761905Y-36010000D01*
X49761905Y-36010000D02*
X49685714Y-36048095D01*
X49685714Y-36048095D02*
X49647619Y-36086190D01*
X49647619Y-36086190D02*
X49609524Y-36162381D01*
X49609524Y-36162381D02*
X49571429Y-36314762D01*
X49571429Y-36314762D02*
X49571429Y-36505238D01*
X49571429Y-36505238D02*
X49609524Y-36657619D01*
X49609524Y-36657619D02*
X49647619Y-36733809D01*
X49647619Y-36733809D02*
X49685714Y-36771905D01*
X49685714Y-36771905D02*
X49761905Y-36810000D01*
X49761905Y-36810000D02*
X49838095Y-36810000D01*
X49838095Y-36810000D02*
X49914286Y-36771905D01*
X49914286Y-36771905D02*
X49952381Y-36733809D01*
X49952381Y-36733809D02*
X49990476Y-36657619D01*
X49990476Y-36657619D02*
X50028572Y-36505238D01*
X50028572Y-36505238D02*
X50028572Y-36314762D01*
X50028572Y-36314762D02*
X49990476Y-36162381D01*
X49990476Y-36162381D02*
X49952381Y-36086190D01*
X49952381Y-36086190D02*
X49914286Y-36048095D01*
X49914286Y-36048095D02*
X49838095Y-36010000D01*
X48809524Y-36810000D02*
X49266667Y-36810000D01*
X49038095Y-36810000D02*
X49038095Y-36010000D01*
X49038095Y-36010000D02*
X49114286Y-36124285D01*
X49114286Y-36124285D02*
X49190476Y-36200476D01*
X49190476Y-36200476D02*
X49266667Y-36238571D01*
X70123810Y-64700000D02*
X70123810Y-65271428D01*
X70123810Y-65271428D02*
X70161905Y-65385714D01*
X70161905Y-65385714D02*
X70238096Y-65461905D01*
X70238096Y-65461905D02*
X70352381Y-65500000D01*
X70352381Y-65500000D02*
X70428572Y-65500000D01*
X69780953Y-64776190D02*
X69742857Y-64738095D01*
X69742857Y-64738095D02*
X69666667Y-64700000D01*
X69666667Y-64700000D02*
X69476191Y-64700000D01*
X69476191Y-64700000D02*
X69400000Y-64738095D01*
X69400000Y-64738095D02*
X69361905Y-64776190D01*
X69361905Y-64776190D02*
X69323810Y-64852381D01*
X69323810Y-64852381D02*
X69323810Y-64928571D01*
X69323810Y-64928571D02*
X69361905Y-65042857D01*
X69361905Y-65042857D02*
X69819048Y-65500000D01*
X69819048Y-65500000D02*
X69323810Y-65500000D01*
X68828571Y-64700000D02*
X68752381Y-64700000D01*
X68752381Y-64700000D02*
X68676190Y-64738095D01*
X68676190Y-64738095D02*
X68638095Y-64776190D01*
X68638095Y-64776190D02*
X68600000Y-64852381D01*
X68600000Y-64852381D02*
X68561905Y-65004762D01*
X68561905Y-65004762D02*
X68561905Y-65195238D01*
X68561905Y-65195238D02*
X68600000Y-65347619D01*
X68600000Y-65347619D02*
X68638095Y-65423809D01*
X68638095Y-65423809D02*
X68676190Y-65461905D01*
X68676190Y-65461905D02*
X68752381Y-65500000D01*
X68752381Y-65500000D02*
X68828571Y-65500000D01*
X68828571Y-65500000D02*
X68904762Y-65461905D01*
X68904762Y-65461905D02*
X68942857Y-65423809D01*
X68942857Y-65423809D02*
X68980952Y-65347619D01*
X68980952Y-65347619D02*
X69019048Y-65195238D01*
X69019048Y-65195238D02*
X69019048Y-65004762D01*
X69019048Y-65004762D02*
X68980952Y-64852381D01*
X68980952Y-64852381D02*
X68942857Y-64776190D01*
X68942857Y-64776190D02*
X68904762Y-64738095D01*
X68904762Y-64738095D02*
X68828571Y-64700000D01*
X67800000Y-65500000D02*
X68257143Y-65500000D01*
X68028571Y-65500000D02*
X68028571Y-64700000D01*
X68028571Y-64700000D02*
X68104762Y-64814285D01*
X68104762Y-64814285D02*
X68180952Y-64890476D01*
X68180952Y-64890476D02*
X68257143Y-64928571D01*
X38650000Y-61762976D02*
X38002381Y-61762976D01*
X38002381Y-61762976D02*
X37926191Y-61724881D01*
X37926191Y-61724881D02*
X37888096Y-61686786D01*
X37888096Y-61686786D02*
X37850000Y-61610595D01*
X37850000Y-61610595D02*
X37850000Y-61458214D01*
X37850000Y-61458214D02*
X37888096Y-61382024D01*
X37888096Y-61382024D02*
X37926191Y-61343929D01*
X37926191Y-61343929D02*
X38002381Y-61305833D01*
X38002381Y-61305833D02*
X38650000Y-61305833D01*
X38650000Y-60543929D02*
X38650000Y-60924881D01*
X38650000Y-60924881D02*
X38269048Y-60962977D01*
X38269048Y-60962977D02*
X38307143Y-60924881D01*
X38307143Y-60924881D02*
X38345238Y-60848691D01*
X38345238Y-60848691D02*
X38345238Y-60658215D01*
X38345238Y-60658215D02*
X38307143Y-60582024D01*
X38307143Y-60582024D02*
X38269048Y-60543929D01*
X38269048Y-60543929D02*
X38192857Y-60505834D01*
X38192857Y-60505834D02*
X38002381Y-60505834D01*
X38002381Y-60505834D02*
X37926191Y-60543929D01*
X37926191Y-60543929D02*
X37888096Y-60582024D01*
X37888096Y-60582024D02*
X37850000Y-60658215D01*
X37850000Y-60658215D02*
X37850000Y-60848691D01*
X37850000Y-60848691D02*
X37888096Y-60924881D01*
X37888096Y-60924881D02*
X37926191Y-60962977D01*
X38650000Y-60010595D02*
X38650000Y-59934405D01*
X38650000Y-59934405D02*
X38611905Y-59858214D01*
X38611905Y-59858214D02*
X38573810Y-59820119D01*
X38573810Y-59820119D02*
X38497619Y-59782024D01*
X38497619Y-59782024D02*
X38345238Y-59743929D01*
X38345238Y-59743929D02*
X38154762Y-59743929D01*
X38154762Y-59743929D02*
X38002381Y-59782024D01*
X38002381Y-59782024D02*
X37926191Y-59820119D01*
X37926191Y-59820119D02*
X37888096Y-59858214D01*
X37888096Y-59858214D02*
X37850000Y-59934405D01*
X37850000Y-59934405D02*
X37850000Y-60010595D01*
X37850000Y-60010595D02*
X37888096Y-60086786D01*
X37888096Y-60086786D02*
X37926191Y-60124881D01*
X37926191Y-60124881D02*
X38002381Y-60162976D01*
X38002381Y-60162976D02*
X38154762Y-60201072D01*
X38154762Y-60201072D02*
X38345238Y-60201072D01*
X38345238Y-60201072D02*
X38497619Y-60162976D01*
X38497619Y-60162976D02*
X38573810Y-60124881D01*
X38573810Y-60124881D02*
X38611905Y-60086786D01*
X38611905Y-60086786D02*
X38650000Y-60010595D01*
X38573810Y-59439167D02*
X38611905Y-59401071D01*
X38611905Y-59401071D02*
X38650000Y-59324881D01*
X38650000Y-59324881D02*
X38650000Y-59134405D01*
X38650000Y-59134405D02*
X38611905Y-59058214D01*
X38611905Y-59058214D02*
X38573810Y-59020119D01*
X38573810Y-59020119D02*
X38497619Y-58982024D01*
X38497619Y-58982024D02*
X38421429Y-58982024D01*
X38421429Y-58982024D02*
X38307143Y-59020119D01*
X38307143Y-59020119D02*
X37850000Y-59477262D01*
X37850000Y-59477262D02*
X37850000Y-58982024D01*
X28562000Y-66653810D02*
X27990572Y-66653810D01*
X27990572Y-66653810D02*
X27876286Y-66691905D01*
X27876286Y-66691905D02*
X27800096Y-66768096D01*
X27800096Y-66768096D02*
X27762000Y-66882381D01*
X27762000Y-66882381D02*
X27762000Y-66958572D01*
X28562000Y-65891905D02*
X28562000Y-66272857D01*
X28562000Y-66272857D02*
X28181048Y-66310953D01*
X28181048Y-66310953D02*
X28219143Y-66272857D01*
X28219143Y-66272857D02*
X28257238Y-66196667D01*
X28257238Y-66196667D02*
X28257238Y-66006191D01*
X28257238Y-66006191D02*
X28219143Y-65930000D01*
X28219143Y-65930000D02*
X28181048Y-65891905D01*
X28181048Y-65891905D02*
X28104857Y-65853810D01*
X28104857Y-65853810D02*
X27914381Y-65853810D01*
X27914381Y-65853810D02*
X27838191Y-65891905D01*
X27838191Y-65891905D02*
X27800096Y-65930000D01*
X27800096Y-65930000D02*
X27762000Y-66006191D01*
X27762000Y-66006191D02*
X27762000Y-66196667D01*
X27762000Y-66196667D02*
X27800096Y-66272857D01*
X27800096Y-66272857D02*
X27838191Y-66310953D01*
X28562000Y-65358571D02*
X28562000Y-65282381D01*
X28562000Y-65282381D02*
X28523905Y-65206190D01*
X28523905Y-65206190D02*
X28485810Y-65168095D01*
X28485810Y-65168095D02*
X28409619Y-65130000D01*
X28409619Y-65130000D02*
X28257238Y-65091905D01*
X28257238Y-65091905D02*
X28066762Y-65091905D01*
X28066762Y-65091905D02*
X27914381Y-65130000D01*
X27914381Y-65130000D02*
X27838191Y-65168095D01*
X27838191Y-65168095D02*
X27800096Y-65206190D01*
X27800096Y-65206190D02*
X27762000Y-65282381D01*
X27762000Y-65282381D02*
X27762000Y-65358571D01*
X27762000Y-65358571D02*
X27800096Y-65434762D01*
X27800096Y-65434762D02*
X27838191Y-65472857D01*
X27838191Y-65472857D02*
X27914381Y-65510952D01*
X27914381Y-65510952D02*
X28066762Y-65549048D01*
X28066762Y-65549048D02*
X28257238Y-65549048D01*
X28257238Y-65549048D02*
X28409619Y-65510952D01*
X28409619Y-65510952D02*
X28485810Y-65472857D01*
X28485810Y-65472857D02*
X28523905Y-65434762D01*
X28523905Y-65434762D02*
X28562000Y-65358571D01*
X27762000Y-64330000D02*
X27762000Y-64787143D01*
X27762000Y-64558571D02*
X28562000Y-64558571D01*
X28562000Y-64558571D02*
X28447715Y-64634762D01*
X28447715Y-64634762D02*
X28371524Y-64710952D01*
X28371524Y-64710952D02*
X28333429Y-64787143D01*
X76735143Y-56320547D02*
X76735143Y-55520547D01*
X76735143Y-55520547D02*
X76468477Y-56091975D01*
X76468477Y-56091975D02*
X76201810Y-55520547D01*
X76201810Y-55520547D02*
X76201810Y-56320547D01*
X75820857Y-56320547D02*
X75820857Y-55520547D01*
X75363714Y-56320547D02*
X75706572Y-55863404D01*
X75363714Y-55520547D02*
X75820857Y-55977690D01*
X74678000Y-55787213D02*
X74678000Y-56320547D01*
X74868476Y-55482452D02*
X75058953Y-56053880D01*
X75058953Y-56053880D02*
X74563714Y-56053880D01*
X74106571Y-55520547D02*
X74030381Y-55520547D01*
X74030381Y-55520547D02*
X73954190Y-55558642D01*
X73954190Y-55558642D02*
X73916095Y-55596737D01*
X73916095Y-55596737D02*
X73878000Y-55672928D01*
X73878000Y-55672928D02*
X73839905Y-55825309D01*
X73839905Y-55825309D02*
X73839905Y-56015785D01*
X73839905Y-56015785D02*
X73878000Y-56168166D01*
X73878000Y-56168166D02*
X73916095Y-56244356D01*
X73916095Y-56244356D02*
X73954190Y-56282452D01*
X73954190Y-56282452D02*
X74030381Y-56320547D01*
X74030381Y-56320547D02*
X74106571Y-56320547D01*
X74106571Y-56320547D02*
X74182762Y-56282452D01*
X74182762Y-56282452D02*
X74220857Y-56244356D01*
X74220857Y-56244356D02*
X74258952Y-56168166D01*
X74258952Y-56168166D02*
X74297048Y-56015785D01*
X74297048Y-56015785D02*
X74297048Y-55825309D01*
X74297048Y-55825309D02*
X74258952Y-55672928D01*
X74258952Y-55672928D02*
X74220857Y-55596737D01*
X74220857Y-55596737D02*
X74182762Y-55558642D01*
X74182762Y-55558642D02*
X74106571Y-55520547D01*
X73078000Y-56320547D02*
X73535143Y-56320547D01*
X73306571Y-56320547D02*
X73306571Y-55520547D01*
X73306571Y-55520547D02*
X73382762Y-55634832D01*
X73382762Y-55634832D02*
X73458952Y-55711023D01*
X73458952Y-55711023D02*
X73535143Y-55749118D01*
X30950000Y-41840477D02*
X31750000Y-41840477D01*
X31750000Y-41840477D02*
X31750000Y-41650001D01*
X31750000Y-41650001D02*
X31711905Y-41535715D01*
X31711905Y-41535715D02*
X31635715Y-41459525D01*
X31635715Y-41459525D02*
X31559524Y-41421430D01*
X31559524Y-41421430D02*
X31407143Y-41383334D01*
X31407143Y-41383334D02*
X31292857Y-41383334D01*
X31292857Y-41383334D02*
X31140476Y-41421430D01*
X31140476Y-41421430D02*
X31064286Y-41459525D01*
X31064286Y-41459525D02*
X30988096Y-41535715D01*
X30988096Y-41535715D02*
X30950000Y-41650001D01*
X30950000Y-41650001D02*
X30950000Y-41840477D01*
X31750000Y-41116668D02*
X31750000Y-40621430D01*
X31750000Y-40621430D02*
X31445238Y-40888096D01*
X31445238Y-40888096D02*
X31445238Y-40773811D01*
X31445238Y-40773811D02*
X31407143Y-40697620D01*
X31407143Y-40697620D02*
X31369048Y-40659525D01*
X31369048Y-40659525D02*
X31292857Y-40621430D01*
X31292857Y-40621430D02*
X31102381Y-40621430D01*
X31102381Y-40621430D02*
X31026191Y-40659525D01*
X31026191Y-40659525D02*
X30988096Y-40697620D01*
X30988096Y-40697620D02*
X30950000Y-40773811D01*
X30950000Y-40773811D02*
X30950000Y-41002382D01*
X30950000Y-41002382D02*
X30988096Y-41078573D01*
X30988096Y-41078573D02*
X31026191Y-41116668D01*
X31750000Y-40126191D02*
X31750000Y-40050001D01*
X31750000Y-40050001D02*
X31711905Y-39973810D01*
X31711905Y-39973810D02*
X31673810Y-39935715D01*
X31673810Y-39935715D02*
X31597619Y-39897620D01*
X31597619Y-39897620D02*
X31445238Y-39859525D01*
X31445238Y-39859525D02*
X31254762Y-39859525D01*
X31254762Y-39859525D02*
X31102381Y-39897620D01*
X31102381Y-39897620D02*
X31026191Y-39935715D01*
X31026191Y-39935715D02*
X30988096Y-39973810D01*
X30988096Y-39973810D02*
X30950000Y-40050001D01*
X30950000Y-40050001D02*
X30950000Y-40126191D01*
X30950000Y-40126191D02*
X30988096Y-40202382D01*
X30988096Y-40202382D02*
X31026191Y-40240477D01*
X31026191Y-40240477D02*
X31102381Y-40278572D01*
X31102381Y-40278572D02*
X31254762Y-40316668D01*
X31254762Y-40316668D02*
X31445238Y-40316668D01*
X31445238Y-40316668D02*
X31597619Y-40278572D01*
X31597619Y-40278572D02*
X31673810Y-40240477D01*
X31673810Y-40240477D02*
X31711905Y-40202382D01*
X31711905Y-40202382D02*
X31750000Y-40126191D01*
X31483334Y-39173810D02*
X30950000Y-39173810D01*
X31788096Y-39364286D02*
X31216667Y-39554763D01*
X31216667Y-39554763D02*
X31216667Y-39059524D01*
X53150000Y-51900000D02*
X52502381Y-51900000D01*
X52502381Y-51900000D02*
X52426191Y-51861905D01*
X52426191Y-51861905D02*
X52388096Y-51823810D01*
X52388096Y-51823810D02*
X52350000Y-51747619D01*
X52350000Y-51747619D02*
X52350000Y-51595238D01*
X52350000Y-51595238D02*
X52388096Y-51519048D01*
X52388096Y-51519048D02*
X52426191Y-51480953D01*
X52426191Y-51480953D02*
X52502381Y-51442857D01*
X52502381Y-51442857D02*
X53150000Y-51442857D01*
X53073810Y-51100001D02*
X53111905Y-51061905D01*
X53111905Y-51061905D02*
X53150000Y-50985715D01*
X53150000Y-50985715D02*
X53150000Y-50795239D01*
X53150000Y-50795239D02*
X53111905Y-50719048D01*
X53111905Y-50719048D02*
X53073810Y-50680953D01*
X53073810Y-50680953D02*
X52997619Y-50642858D01*
X52997619Y-50642858D02*
X52921429Y-50642858D01*
X52921429Y-50642858D02*
X52807143Y-50680953D01*
X52807143Y-50680953D02*
X52350000Y-51138096D01*
X52350000Y-51138096D02*
X52350000Y-50642858D01*
X53150000Y-50147619D02*
X53150000Y-50071429D01*
X53150000Y-50071429D02*
X53111905Y-49995238D01*
X53111905Y-49995238D02*
X53073810Y-49957143D01*
X53073810Y-49957143D02*
X52997619Y-49919048D01*
X52997619Y-49919048D02*
X52845238Y-49880953D01*
X52845238Y-49880953D02*
X52654762Y-49880953D01*
X52654762Y-49880953D02*
X52502381Y-49919048D01*
X52502381Y-49919048D02*
X52426191Y-49957143D01*
X52426191Y-49957143D02*
X52388096Y-49995238D01*
X52388096Y-49995238D02*
X52350000Y-50071429D01*
X52350000Y-50071429D02*
X52350000Y-50147619D01*
X52350000Y-50147619D02*
X52388096Y-50223810D01*
X52388096Y-50223810D02*
X52426191Y-50261905D01*
X52426191Y-50261905D02*
X52502381Y-50300000D01*
X52502381Y-50300000D02*
X52654762Y-50338096D01*
X52654762Y-50338096D02*
X52845238Y-50338096D01*
X52845238Y-50338096D02*
X52997619Y-50300000D01*
X52997619Y-50300000D02*
X53073810Y-50261905D01*
X53073810Y-50261905D02*
X53111905Y-50223810D01*
X53111905Y-50223810D02*
X53150000Y-50147619D01*
X52350000Y-49119048D02*
X52350000Y-49576191D01*
X52350000Y-49347619D02*
X53150000Y-49347619D01*
X53150000Y-49347619D02*
X53035715Y-49423810D01*
X53035715Y-49423810D02*
X52959524Y-49500000D01*
X52959524Y-49500000D02*
X52921429Y-49576191D01*
X38074524Y-56400000D02*
X38074524Y-56971428D01*
X38074524Y-56971428D02*
X38112619Y-57085714D01*
X38112619Y-57085714D02*
X38188810Y-57161905D01*
X38188810Y-57161905D02*
X38303095Y-57200000D01*
X38303095Y-57200000D02*
X38379286Y-57200000D01*
X37769762Y-56400000D02*
X37274524Y-56400000D01*
X37274524Y-56400000D02*
X37541190Y-56704762D01*
X37541190Y-56704762D02*
X37426905Y-56704762D01*
X37426905Y-56704762D02*
X37350714Y-56742857D01*
X37350714Y-56742857D02*
X37312619Y-56780952D01*
X37312619Y-56780952D02*
X37274524Y-56857143D01*
X37274524Y-56857143D02*
X37274524Y-57047619D01*
X37274524Y-57047619D02*
X37312619Y-57123809D01*
X37312619Y-57123809D02*
X37350714Y-57161905D01*
X37350714Y-57161905D02*
X37426905Y-57200000D01*
X37426905Y-57200000D02*
X37655476Y-57200000D01*
X37655476Y-57200000D02*
X37731667Y-57161905D01*
X37731667Y-57161905D02*
X37769762Y-57123809D01*
X36779285Y-56400000D02*
X36703095Y-56400000D01*
X36703095Y-56400000D02*
X36626904Y-56438095D01*
X36626904Y-56438095D02*
X36588809Y-56476190D01*
X36588809Y-56476190D02*
X36550714Y-56552381D01*
X36550714Y-56552381D02*
X36512619Y-56704762D01*
X36512619Y-56704762D02*
X36512619Y-56895238D01*
X36512619Y-56895238D02*
X36550714Y-57047619D01*
X36550714Y-57047619D02*
X36588809Y-57123809D01*
X36588809Y-57123809D02*
X36626904Y-57161905D01*
X36626904Y-57161905D02*
X36703095Y-57200000D01*
X36703095Y-57200000D02*
X36779285Y-57200000D01*
X36779285Y-57200000D02*
X36855476Y-57161905D01*
X36855476Y-57161905D02*
X36893571Y-57123809D01*
X36893571Y-57123809D02*
X36931666Y-57047619D01*
X36931666Y-57047619D02*
X36969762Y-56895238D01*
X36969762Y-56895238D02*
X36969762Y-56704762D01*
X36969762Y-56704762D02*
X36931666Y-56552381D01*
X36931666Y-56552381D02*
X36893571Y-56476190D01*
X36893571Y-56476190D02*
X36855476Y-56438095D01*
X36855476Y-56438095D02*
X36779285Y-56400000D01*
X35750714Y-57200000D02*
X36207857Y-57200000D01*
X35979285Y-57200000D02*
X35979285Y-56400000D01*
X35979285Y-56400000D02*
X36055476Y-56514285D01*
X36055476Y-56514285D02*
X36131666Y-56590476D01*
X36131666Y-56590476D02*
X36207857Y-56628571D01*
X40830952Y-41150000D02*
X40830952Y-41797619D01*
X40830952Y-41797619D02*
X40792857Y-41873809D01*
X40792857Y-41873809D02*
X40754762Y-41911905D01*
X40754762Y-41911905D02*
X40678571Y-41950000D01*
X40678571Y-41950000D02*
X40526190Y-41950000D01*
X40526190Y-41950000D02*
X40450000Y-41911905D01*
X40450000Y-41911905D02*
X40411905Y-41873809D01*
X40411905Y-41873809D02*
X40373809Y-41797619D01*
X40373809Y-41797619D02*
X40373809Y-41150000D01*
X39611905Y-41150000D02*
X39992857Y-41150000D01*
X39992857Y-41150000D02*
X40030953Y-41530952D01*
X40030953Y-41530952D02*
X39992857Y-41492857D01*
X39992857Y-41492857D02*
X39916667Y-41454762D01*
X39916667Y-41454762D02*
X39726191Y-41454762D01*
X39726191Y-41454762D02*
X39650000Y-41492857D01*
X39650000Y-41492857D02*
X39611905Y-41530952D01*
X39611905Y-41530952D02*
X39573810Y-41607143D01*
X39573810Y-41607143D02*
X39573810Y-41797619D01*
X39573810Y-41797619D02*
X39611905Y-41873809D01*
X39611905Y-41873809D02*
X39650000Y-41911905D01*
X39650000Y-41911905D02*
X39726191Y-41950000D01*
X39726191Y-41950000D02*
X39916667Y-41950000D01*
X39916667Y-41950000D02*
X39992857Y-41911905D01*
X39992857Y-41911905D02*
X40030953Y-41873809D01*
X39078571Y-41150000D02*
X39002381Y-41150000D01*
X39002381Y-41150000D02*
X38926190Y-41188095D01*
X38926190Y-41188095D02*
X38888095Y-41226190D01*
X38888095Y-41226190D02*
X38850000Y-41302381D01*
X38850000Y-41302381D02*
X38811905Y-41454762D01*
X38811905Y-41454762D02*
X38811905Y-41645238D01*
X38811905Y-41645238D02*
X38850000Y-41797619D01*
X38850000Y-41797619D02*
X38888095Y-41873809D01*
X38888095Y-41873809D02*
X38926190Y-41911905D01*
X38926190Y-41911905D02*
X39002381Y-41950000D01*
X39002381Y-41950000D02*
X39078571Y-41950000D01*
X39078571Y-41950000D02*
X39154762Y-41911905D01*
X39154762Y-41911905D02*
X39192857Y-41873809D01*
X39192857Y-41873809D02*
X39230952Y-41797619D01*
X39230952Y-41797619D02*
X39269048Y-41645238D01*
X39269048Y-41645238D02*
X39269048Y-41454762D01*
X39269048Y-41454762D02*
X39230952Y-41302381D01*
X39230952Y-41302381D02*
X39192857Y-41226190D01*
X39192857Y-41226190D02*
X39154762Y-41188095D01*
X39154762Y-41188095D02*
X39078571Y-41150000D01*
X38050000Y-41950000D02*
X38507143Y-41950000D01*
X38278571Y-41950000D02*
X38278571Y-41150000D01*
X38278571Y-41150000D02*
X38354762Y-41264285D01*
X38354762Y-41264285D02*
X38430952Y-41340476D01*
X38430952Y-41340476D02*
X38507143Y-41378571D01*
X65555714Y-53560000D02*
X65822381Y-53179047D01*
X66012857Y-53560000D02*
X66012857Y-52760000D01*
X66012857Y-52760000D02*
X65708095Y-52760000D01*
X65708095Y-52760000D02*
X65631905Y-52798095D01*
X65631905Y-52798095D02*
X65593810Y-52836190D01*
X65593810Y-52836190D02*
X65555714Y-52912381D01*
X65555714Y-52912381D02*
X65555714Y-53026666D01*
X65555714Y-53026666D02*
X65593810Y-53102857D01*
X65593810Y-53102857D02*
X65631905Y-53140952D01*
X65631905Y-53140952D02*
X65708095Y-53179047D01*
X65708095Y-53179047D02*
X66012857Y-53179047D01*
X65250953Y-52836190D02*
X65212857Y-52798095D01*
X65212857Y-52798095D02*
X65136667Y-52760000D01*
X65136667Y-52760000D02*
X64946191Y-52760000D01*
X64946191Y-52760000D02*
X64870000Y-52798095D01*
X64870000Y-52798095D02*
X64831905Y-52836190D01*
X64831905Y-52836190D02*
X64793810Y-52912381D01*
X64793810Y-52912381D02*
X64793810Y-52988571D01*
X64793810Y-52988571D02*
X64831905Y-53102857D01*
X64831905Y-53102857D02*
X65289048Y-53560000D01*
X65289048Y-53560000D02*
X64793810Y-53560000D01*
X64298571Y-52760000D02*
X64222381Y-52760000D01*
X64222381Y-52760000D02*
X64146190Y-52798095D01*
X64146190Y-52798095D02*
X64108095Y-52836190D01*
X64108095Y-52836190D02*
X64070000Y-52912381D01*
X64070000Y-52912381D02*
X64031905Y-53064762D01*
X64031905Y-53064762D02*
X64031905Y-53255238D01*
X64031905Y-53255238D02*
X64070000Y-53407619D01*
X64070000Y-53407619D02*
X64108095Y-53483809D01*
X64108095Y-53483809D02*
X64146190Y-53521905D01*
X64146190Y-53521905D02*
X64222381Y-53560000D01*
X64222381Y-53560000D02*
X64298571Y-53560000D01*
X64298571Y-53560000D02*
X64374762Y-53521905D01*
X64374762Y-53521905D02*
X64412857Y-53483809D01*
X64412857Y-53483809D02*
X64450952Y-53407619D01*
X64450952Y-53407619D02*
X64489048Y-53255238D01*
X64489048Y-53255238D02*
X64489048Y-53064762D01*
X64489048Y-53064762D02*
X64450952Y-52912381D01*
X64450952Y-52912381D02*
X64412857Y-52836190D01*
X64412857Y-52836190D02*
X64374762Y-52798095D01*
X64374762Y-52798095D02*
X64298571Y-52760000D01*
X63308095Y-52760000D02*
X63689047Y-52760000D01*
X63689047Y-52760000D02*
X63727143Y-53140952D01*
X63727143Y-53140952D02*
X63689047Y-53102857D01*
X63689047Y-53102857D02*
X63612857Y-53064762D01*
X63612857Y-53064762D02*
X63422381Y-53064762D01*
X63422381Y-53064762D02*
X63346190Y-53102857D01*
X63346190Y-53102857D02*
X63308095Y-53140952D01*
X63308095Y-53140952D02*
X63270000Y-53217143D01*
X63270000Y-53217143D02*
X63270000Y-53407619D01*
X63270000Y-53407619D02*
X63308095Y-53483809D01*
X63308095Y-53483809D02*
X63346190Y-53521905D01*
X63346190Y-53521905D02*
X63422381Y-53560000D01*
X63422381Y-53560000D02*
X63612857Y-53560000D01*
X63612857Y-53560000D02*
X63689047Y-53521905D01*
X63689047Y-53521905D02*
X63727143Y-53483809D01*
X68731904Y-61074285D02*
X69112857Y-61340952D01*
X68731904Y-61531428D02*
X69531904Y-61531428D01*
X69531904Y-61531428D02*
X69531904Y-61226666D01*
X69531904Y-61226666D02*
X69493809Y-61150476D01*
X69493809Y-61150476D02*
X69455714Y-61112381D01*
X69455714Y-61112381D02*
X69379523Y-61074285D01*
X69379523Y-61074285D02*
X69265238Y-61074285D01*
X69265238Y-61074285D02*
X69189047Y-61112381D01*
X69189047Y-61112381D02*
X69150952Y-61150476D01*
X69150952Y-61150476D02*
X69112857Y-61226666D01*
X69112857Y-61226666D02*
X69112857Y-61531428D01*
X69265238Y-60388571D02*
X68731904Y-60388571D01*
X69570000Y-60579047D02*
X68998571Y-60769524D01*
X68998571Y-60769524D02*
X68998571Y-60274285D01*
X69531904Y-59817142D02*
X69531904Y-59740952D01*
X69531904Y-59740952D02*
X69493809Y-59664761D01*
X69493809Y-59664761D02*
X69455714Y-59626666D01*
X69455714Y-59626666D02*
X69379523Y-59588571D01*
X69379523Y-59588571D02*
X69227142Y-59550476D01*
X69227142Y-59550476D02*
X69036666Y-59550476D01*
X69036666Y-59550476D02*
X68884285Y-59588571D01*
X68884285Y-59588571D02*
X68808095Y-59626666D01*
X68808095Y-59626666D02*
X68770000Y-59664761D01*
X68770000Y-59664761D02*
X68731904Y-59740952D01*
X68731904Y-59740952D02*
X68731904Y-59817142D01*
X68731904Y-59817142D02*
X68770000Y-59893333D01*
X68770000Y-59893333D02*
X68808095Y-59931428D01*
X68808095Y-59931428D02*
X68884285Y-59969523D01*
X68884285Y-59969523D02*
X69036666Y-60007619D01*
X69036666Y-60007619D02*
X69227142Y-60007619D01*
X69227142Y-60007619D02*
X69379523Y-59969523D01*
X69379523Y-59969523D02*
X69455714Y-59931428D01*
X69455714Y-59931428D02*
X69493809Y-59893333D01*
X69493809Y-59893333D02*
X69531904Y-59817142D01*
X69455714Y-59245714D02*
X69493809Y-59207618D01*
X69493809Y-59207618D02*
X69531904Y-59131428D01*
X69531904Y-59131428D02*
X69531904Y-58940952D01*
X69531904Y-58940952D02*
X69493809Y-58864761D01*
X69493809Y-58864761D02*
X69455714Y-58826666D01*
X69455714Y-58826666D02*
X69379523Y-58788571D01*
X69379523Y-58788571D02*
X69303333Y-58788571D01*
X69303333Y-58788571D02*
X69189047Y-58826666D01*
X69189047Y-58826666D02*
X68731904Y-59283809D01*
X68731904Y-59283809D02*
X68731904Y-58788571D01*
X64673858Y-26947393D02*
X64673858Y-26147393D01*
X64673858Y-26147393D02*
X64483382Y-26147393D01*
X64483382Y-26147393D02*
X64369096Y-26185488D01*
X64369096Y-26185488D02*
X64292906Y-26261678D01*
X64292906Y-26261678D02*
X64254811Y-26337869D01*
X64254811Y-26337869D02*
X64216715Y-26490250D01*
X64216715Y-26490250D02*
X64216715Y-26604536D01*
X64216715Y-26604536D02*
X64254811Y-26756917D01*
X64254811Y-26756917D02*
X64292906Y-26833107D01*
X64292906Y-26833107D02*
X64369096Y-26909298D01*
X64369096Y-26909298D02*
X64483382Y-26947393D01*
X64483382Y-26947393D02*
X64673858Y-26947393D01*
X63492906Y-26147393D02*
X63873858Y-26147393D01*
X63873858Y-26147393D02*
X63911954Y-26528345D01*
X63911954Y-26528345D02*
X63873858Y-26490250D01*
X63873858Y-26490250D02*
X63797668Y-26452155D01*
X63797668Y-26452155D02*
X63607192Y-26452155D01*
X63607192Y-26452155D02*
X63531001Y-26490250D01*
X63531001Y-26490250D02*
X63492906Y-26528345D01*
X63492906Y-26528345D02*
X63454811Y-26604536D01*
X63454811Y-26604536D02*
X63454811Y-26795012D01*
X63454811Y-26795012D02*
X63492906Y-26871202D01*
X63492906Y-26871202D02*
X63531001Y-26909298D01*
X63531001Y-26909298D02*
X63607192Y-26947393D01*
X63607192Y-26947393D02*
X63797668Y-26947393D01*
X63797668Y-26947393D02*
X63873858Y-26909298D01*
X63873858Y-26909298D02*
X63911954Y-26871202D01*
X62959572Y-26147393D02*
X62883382Y-26147393D01*
X62883382Y-26147393D02*
X62807191Y-26185488D01*
X62807191Y-26185488D02*
X62769096Y-26223583D01*
X62769096Y-26223583D02*
X62731001Y-26299774D01*
X62731001Y-26299774D02*
X62692906Y-26452155D01*
X62692906Y-26452155D02*
X62692906Y-26642631D01*
X62692906Y-26642631D02*
X62731001Y-26795012D01*
X62731001Y-26795012D02*
X62769096Y-26871202D01*
X62769096Y-26871202D02*
X62807191Y-26909298D01*
X62807191Y-26909298D02*
X62883382Y-26947393D01*
X62883382Y-26947393D02*
X62959572Y-26947393D01*
X62959572Y-26947393D02*
X63035763Y-26909298D01*
X63035763Y-26909298D02*
X63073858Y-26871202D01*
X63073858Y-26871202D02*
X63111953Y-26795012D01*
X63111953Y-26795012D02*
X63150049Y-26642631D01*
X63150049Y-26642631D02*
X63150049Y-26452155D01*
X63150049Y-26452155D02*
X63111953Y-26299774D01*
X63111953Y-26299774D02*
X63073858Y-26223583D01*
X63073858Y-26223583D02*
X63035763Y-26185488D01*
X63035763Y-26185488D02*
X62959572Y-26147393D01*
X62388144Y-26223583D02*
X62350048Y-26185488D01*
X62350048Y-26185488D02*
X62273858Y-26147393D01*
X62273858Y-26147393D02*
X62083382Y-26147393D01*
X62083382Y-26147393D02*
X62007191Y-26185488D01*
X62007191Y-26185488D02*
X61969096Y-26223583D01*
X61969096Y-26223583D02*
X61931001Y-26299774D01*
X61931001Y-26299774D02*
X61931001Y-26375964D01*
X61931001Y-26375964D02*
X61969096Y-26490250D01*
X61969096Y-26490250D02*
X62426239Y-26947393D01*
X62426239Y-26947393D02*
X61931001Y-26947393D01*
X40797571Y-28890249D02*
X41597571Y-28890249D01*
X41597571Y-28890249D02*
X41597571Y-28699773D01*
X41597571Y-28699773D02*
X41559476Y-28585487D01*
X41559476Y-28585487D02*
X41483286Y-28509297D01*
X41483286Y-28509297D02*
X41407095Y-28471202D01*
X41407095Y-28471202D02*
X41254714Y-28433106D01*
X41254714Y-28433106D02*
X41140428Y-28433106D01*
X41140428Y-28433106D02*
X40988047Y-28471202D01*
X40988047Y-28471202D02*
X40911857Y-28509297D01*
X40911857Y-28509297D02*
X40835667Y-28585487D01*
X40835667Y-28585487D02*
X40797571Y-28699773D01*
X40797571Y-28699773D02*
X40797571Y-28890249D01*
X41597571Y-27709297D02*
X41597571Y-28090249D01*
X41597571Y-28090249D02*
X41216619Y-28128345D01*
X41216619Y-28128345D02*
X41254714Y-28090249D01*
X41254714Y-28090249D02*
X41292809Y-28014059D01*
X41292809Y-28014059D02*
X41292809Y-27823583D01*
X41292809Y-27823583D02*
X41254714Y-27747392D01*
X41254714Y-27747392D02*
X41216619Y-27709297D01*
X41216619Y-27709297D02*
X41140428Y-27671202D01*
X41140428Y-27671202D02*
X40949952Y-27671202D01*
X40949952Y-27671202D02*
X40873762Y-27709297D01*
X40873762Y-27709297D02*
X40835667Y-27747392D01*
X40835667Y-27747392D02*
X40797571Y-27823583D01*
X40797571Y-27823583D02*
X40797571Y-28014059D01*
X40797571Y-28014059D02*
X40835667Y-28090249D01*
X40835667Y-28090249D02*
X40873762Y-28128345D01*
X41597571Y-27175963D02*
X41597571Y-27099773D01*
X41597571Y-27099773D02*
X41559476Y-27023582D01*
X41559476Y-27023582D02*
X41521381Y-26985487D01*
X41521381Y-26985487D02*
X41445190Y-26947392D01*
X41445190Y-26947392D02*
X41292809Y-26909297D01*
X41292809Y-26909297D02*
X41102333Y-26909297D01*
X41102333Y-26909297D02*
X40949952Y-26947392D01*
X40949952Y-26947392D02*
X40873762Y-26985487D01*
X40873762Y-26985487D02*
X40835667Y-27023582D01*
X40835667Y-27023582D02*
X40797571Y-27099773D01*
X40797571Y-27099773D02*
X40797571Y-27175963D01*
X40797571Y-27175963D02*
X40835667Y-27252154D01*
X40835667Y-27252154D02*
X40873762Y-27290249D01*
X40873762Y-27290249D02*
X40949952Y-27328344D01*
X40949952Y-27328344D02*
X41102333Y-27366440D01*
X41102333Y-27366440D02*
X41292809Y-27366440D01*
X41292809Y-27366440D02*
X41445190Y-27328344D01*
X41445190Y-27328344D02*
X41521381Y-27290249D01*
X41521381Y-27290249D02*
X41559476Y-27252154D01*
X41559476Y-27252154D02*
X41597571Y-27175963D01*
X40797571Y-26147392D02*
X40797571Y-26604535D01*
X40797571Y-26375963D02*
X41597571Y-26375963D01*
X41597571Y-26375963D02*
X41483286Y-26452154D01*
X41483286Y-26452154D02*
X41407095Y-26528344D01*
X41407095Y-26528344D02*
X41369000Y-26604535D01*
X75333810Y-45885000D02*
X75333810Y-46456428D01*
X75333810Y-46456428D02*
X75371905Y-46570714D01*
X75371905Y-46570714D02*
X75448096Y-46646905D01*
X75448096Y-46646905D02*
X75562381Y-46685000D01*
X75562381Y-46685000D02*
X75638572Y-46685000D01*
X74533810Y-46685000D02*
X74990953Y-46685000D01*
X74762381Y-46685000D02*
X74762381Y-45885000D01*
X74762381Y-45885000D02*
X74838572Y-45999285D01*
X74838572Y-45999285D02*
X74914762Y-46075476D01*
X74914762Y-46075476D02*
X74990953Y-46113571D01*
X74038571Y-45885000D02*
X73962381Y-45885000D01*
X73962381Y-45885000D02*
X73886190Y-45923095D01*
X73886190Y-45923095D02*
X73848095Y-45961190D01*
X73848095Y-45961190D02*
X73810000Y-46037381D01*
X73810000Y-46037381D02*
X73771905Y-46189762D01*
X73771905Y-46189762D02*
X73771905Y-46380238D01*
X73771905Y-46380238D02*
X73810000Y-46532619D01*
X73810000Y-46532619D02*
X73848095Y-46608809D01*
X73848095Y-46608809D02*
X73886190Y-46646905D01*
X73886190Y-46646905D02*
X73962381Y-46685000D01*
X73962381Y-46685000D02*
X74038571Y-46685000D01*
X74038571Y-46685000D02*
X74114762Y-46646905D01*
X74114762Y-46646905D02*
X74152857Y-46608809D01*
X74152857Y-46608809D02*
X74190952Y-46532619D01*
X74190952Y-46532619D02*
X74229048Y-46380238D01*
X74229048Y-46380238D02*
X74229048Y-46189762D01*
X74229048Y-46189762D02*
X74190952Y-46037381D01*
X74190952Y-46037381D02*
X74152857Y-45961190D01*
X74152857Y-45961190D02*
X74114762Y-45923095D01*
X74114762Y-45923095D02*
X74038571Y-45885000D01*
X73467143Y-45961190D02*
X73429047Y-45923095D01*
X73429047Y-45923095D02*
X73352857Y-45885000D01*
X73352857Y-45885000D02*
X73162381Y-45885000D01*
X73162381Y-45885000D02*
X73086190Y-45923095D01*
X73086190Y-45923095D02*
X73048095Y-45961190D01*
X73048095Y-45961190D02*
X73010000Y-46037381D01*
X73010000Y-46037381D02*
X73010000Y-46113571D01*
X73010000Y-46113571D02*
X73048095Y-46227857D01*
X73048095Y-46227857D02*
X73505238Y-46685000D01*
X73505238Y-46685000D02*
X73010000Y-46685000D01*
%TO.C,R214*%
D16*
X57820000Y-47146359D02*
X57820000Y-47453641D01*
X58580000Y-47146359D02*
X58580000Y-47453641D01*
%TO.C,C406*%
X72940000Y-59107836D02*
X72940000Y-58892164D01*
X73660000Y-59107836D02*
X73660000Y-58892164D01*
%TO.C,U303*%
X40565000Y-46904432D02*
X40565000Y-48710000D01*
X42835000Y-48710000D02*
X42835000Y-46490000D01*
X40560000Y-46610000D02*
X40370000Y-46470000D01*
X40370000Y-46750000D01*
X40560000Y-46610000D01*
G36*
X40560000Y-46610000D02*
G01*
X40370000Y-46750000D01*
X40370000Y-46470000D01*
X40560000Y-46610000D01*
G37*
%TO.C,J101*%
X45300000Y-22050000D02*
X45300000Y-21641500D01*
X45300000Y-25950000D02*
X45300000Y-23950000D01*
X54700000Y-22050000D02*
X54700000Y-21641500D01*
X54700000Y-25950000D02*
X54700000Y-23950000D01*
%TO.C,C105*%
X55060000Y-38859420D02*
X55060000Y-39140580D01*
X56080000Y-38859420D02*
X56080000Y-39140580D01*
%TO.C,C107*%
X48380000Y-38859420D02*
X48380000Y-39140580D01*
X49400000Y-38859420D02*
X49400000Y-39140580D01*
%TO.C,C201*%
X36740580Y-69640000D02*
X36459420Y-69640000D01*
X36740580Y-70660000D02*
X36459420Y-70660000D01*
%TO.C,Q501*%
X58040000Y-28040000D02*
X58040000Y-29560000D01*
X58040000Y-29560000D02*
X58090000Y-29560000D01*
X59040000Y-28040000D02*
X58040000Y-28040000D01*
X59210000Y-29560000D02*
X59990000Y-29560000D01*
X61110000Y-29560000D02*
X61160000Y-29560000D01*
X61160000Y-28040000D02*
X60160000Y-28040000D01*
X61160000Y-29560000D02*
X61160000Y-28040000D01*
X59980000Y-30100000D02*
X59650000Y-29860000D01*
X59650000Y-30340000D01*
X59980000Y-30100000D01*
G36*
X59980000Y-30100000D02*
G01*
X59650000Y-30340000D01*
X59650000Y-29860000D01*
X59980000Y-30100000D01*
G37*
%TO.C,U202*%
X39390000Y-35290000D02*
X39390000Y-35765000D01*
X39390000Y-38035000D02*
X39390000Y-38510000D01*
X39390000Y-38510000D02*
X39865000Y-38510000D01*
X39865000Y-35290000D02*
X39390000Y-35290000D01*
X42135000Y-38510000D02*
X42610000Y-38510000D01*
X42610000Y-35290000D02*
X42135000Y-35290000D01*
X42610000Y-35765000D02*
X42610000Y-35290000D01*
X42610000Y-38510000D02*
X42610000Y-38035000D01*
X38860000Y-37650000D02*
X38530000Y-37410000D01*
X38530000Y-37890000D01*
X38860000Y-37650000D01*
G36*
X38860000Y-37650000D02*
G01*
X38530000Y-37890000D01*
X38530000Y-37410000D01*
X38860000Y-37650000D01*
G37*
%TO.C,R501*%
X38150500Y-27740258D02*
X38150500Y-27265742D01*
X39195500Y-27740258D02*
X39195500Y-27265742D01*
%TO.C,L101*%
X51890000Y-37470000D02*
X54110000Y-37470000D01*
X54110000Y-35350000D02*
X51890000Y-35350000D01*
%TO.C,C407*%
X71230000Y-59412164D02*
X71230000Y-59627836D01*
X71950000Y-59412164D02*
X71950000Y-59627836D01*
%TO.C,R109*%
X63870000Y-41846359D02*
X63870000Y-42153641D01*
X64630000Y-41846359D02*
X64630000Y-42153641D01*
%TO.C,C205*%
X40837836Y-39440000D02*
X40622164Y-39440000D01*
X40837836Y-40160000D02*
X40622164Y-40160000D01*
%TO.C,R308*%
X61446359Y-69220000D02*
X61753641Y-69220000D01*
X61446359Y-69980000D02*
X61753641Y-69980000D01*
%TO.C,R207*%
X38782000Y-34193641D02*
X38782000Y-33886359D01*
X39542000Y-34193641D02*
X39542000Y-33886359D01*
%TO.C,R212*%
X62708000Y-33143641D02*
X62708000Y-32836359D01*
X63468000Y-33143641D02*
X63468000Y-32836359D01*
%TO.C,R113*%
X51020000Y-41653641D02*
X51020000Y-41346359D01*
X51780000Y-41653641D02*
X51780000Y-41346359D01*
%TO.C,R301*%
X48985000Y-51393641D02*
X48985000Y-51086359D01*
X49745000Y-51393641D02*
X49745000Y-51086359D01*
%TO.C,J201*%
X63930000Y-68870000D02*
X63930000Y-69505000D01*
X63930000Y-69505000D02*
X64565000Y-69505000D01*
%TO.C,R503*%
X59886359Y-31058000D02*
X60193641Y-31058000D01*
X59886359Y-31818000D02*
X60193641Y-31818000D01*
%TO.C,R403*%
X61706359Y-55190000D02*
X62013641Y-55190000D01*
X61706359Y-55950000D02*
X62013641Y-55950000D01*
%TO.C,R502*%
X56104500Y-26164258D02*
X56104500Y-25689742D01*
X57149500Y-26164258D02*
X57149500Y-25689742D01*
%TO.C,R203*%
X58020000Y-35453641D02*
X58020000Y-35146359D01*
X58780000Y-35453641D02*
X58780000Y-35146359D01*
%TO.C,U502*%
X32790000Y-60790000D02*
X32790000Y-60965000D01*
X32790000Y-63835000D02*
X32790000Y-64010000D01*
X32790000Y-64010000D02*
X36010000Y-64010000D01*
X36010000Y-60790000D02*
X32790000Y-60790000D01*
X36010000Y-60965000D02*
X36010000Y-60790000D01*
X36010000Y-64010000D02*
X36010000Y-63835000D01*
X36560000Y-60960000D02*
X36800000Y-60630000D01*
X36320000Y-60630000D01*
X36560000Y-60960000D01*
G36*
X36560000Y-60960000D02*
G01*
X36320000Y-60630000D01*
X36800000Y-60630000D01*
X36560000Y-60960000D01*
G37*
%TO.C,R213*%
X59060000Y-47146359D02*
X59060000Y-47453641D01*
X59820000Y-47146359D02*
X59820000Y-47453641D01*
%TO.C,D101*%
X52290000Y-29490000D02*
X56050000Y-29490000D01*
X52290000Y-31510000D02*
X52290000Y-29490000D01*
X52290000Y-31510000D02*
X56050000Y-31510000D01*
%TO.C,R110*%
X70596359Y-41870000D02*
X70903641Y-41870000D01*
X70596359Y-42630000D02*
X70903641Y-42630000D01*
%TO.C,J501*%
D11*
X29162000Y-63930000D02*
X29162000Y-63230000D01*
X29512000Y-63580000D02*
X28812000Y-63580000D01*
%TO.C,C204*%
D16*
X55840000Y-35407836D02*
X55840000Y-35192164D01*
X56560000Y-35407836D02*
X56560000Y-35192164D01*
%TO.C,MK401*%
X69708000Y-54204000D02*
X69708000Y-57624000D01*
X70008000Y-57924000D02*
X72588000Y-57924000D01*
X72588000Y-54204000D02*
X69708000Y-54204000D01*
X72588000Y-57924000D02*
X72588000Y-54204000D01*
X69708000Y-57924000D02*
X69428000Y-57924000D01*
X69708000Y-58204000D01*
X69708000Y-57924000D01*
G36*
X69708000Y-58204000D02*
G01*
X69428000Y-57924000D01*
X69708000Y-57924000D01*
X69708000Y-58204000D01*
G37*
%TO.C,R209*%
X37220000Y-64696359D02*
X37220000Y-65003641D01*
X37980000Y-64696359D02*
X37980000Y-65003641D01*
%TO.C,R111*%
X54720000Y-41653641D02*
X54720000Y-41346359D01*
X55480000Y-41653641D02*
X55480000Y-41346359D01*
%TO.C,C203*%
X37940000Y-68407836D02*
X37940000Y-68192164D01*
X38660000Y-68407836D02*
X38660000Y-68192164D01*
%TO.C,R201*%
X39170000Y-69453641D02*
X39170000Y-69146359D01*
X39930000Y-69453641D02*
X39930000Y-69146359D01*
%TO.C,C104*%
X60940000Y-35057836D02*
X60940000Y-34842164D01*
X61660000Y-35057836D02*
X61660000Y-34842164D01*
%TO.C,C504*%
X35240000Y-59507836D02*
X35240000Y-59292164D01*
X35960000Y-59507836D02*
X35960000Y-59292164D01*
%TO.C,U103*%
X63004432Y-36585000D02*
X64810000Y-36585000D01*
X64810000Y-34315000D02*
X62590000Y-34315000D01*
X62710000Y-36590000D02*
X62570000Y-36780000D01*
X62850000Y-36780000D01*
X62710000Y-36590000D01*
G36*
X62850000Y-36780000D02*
G01*
X62570000Y-36780000D01*
X62710000Y-36590000D01*
X62850000Y-36780000D01*
G37*
%TO.C,R102*%
X51520000Y-32596359D02*
X51520000Y-32903641D01*
X52280000Y-32596359D02*
X52280000Y-32903641D01*
%TO.C,R114*%
X52120000Y-41346359D02*
X52120000Y-41653641D01*
X52880000Y-41346359D02*
X52880000Y-41653641D01*
%TO.C,R302*%
X47715000Y-51393641D02*
X47715000Y-51086359D01*
X48475000Y-51393641D02*
X48475000Y-51086359D01*
%TO.C,D304*%
D12*
X29230000Y-41200000D02*
G75*
G02*
X29070000Y-41200000I-80000J0D01*
G01*
X29070000Y-41200000D02*
G75*
G02*
X29230000Y-41200000I80000J0D01*
G01*
%TO.C,R101*%
D16*
X48020000Y-30346359D02*
X48020000Y-30653641D01*
X48780000Y-30346359D02*
X48780000Y-30653641D01*
%TO.C,C202*%
X39142164Y-70690000D02*
X39357836Y-70690000D01*
X39142164Y-71410000D02*
X39357836Y-71410000D01*
%TO.C,C111*%
X52640000Y-43592164D02*
X52640000Y-43807836D01*
X53360000Y-43592164D02*
X53360000Y-43807836D01*
%TO.C,U201*%
X40800000Y-53000000D02*
X42300000Y-53000000D01*
X40800000Y-54000000D02*
X40800000Y-53000000D01*
X59200000Y-53000000D02*
X57700000Y-53000000D01*
X59200000Y-53000000D02*
X59200000Y-54000000D01*
%TO.C,R112*%
X53620000Y-41346359D02*
X53620000Y-41653641D01*
X54380000Y-41346359D02*
X54380000Y-41653641D01*
%TO.C,R202*%
X60020000Y-53096359D02*
X60020000Y-53403641D01*
X60780000Y-53096359D02*
X60780000Y-53403641D01*
%TO.C,J301*%
X37850000Y-44400000D02*
X36950000Y-44400000D01*
X37850000Y-55600000D02*
X36950000Y-55600000D01*
X39860000Y-54250000D02*
G75*
G02*
X39740000Y-54250000I-60000J0D01*
G01*
X39740000Y-54250000D02*
G75*
G02*
X39860000Y-54250000I60000J0D01*
G01*
%TO.C,LS501*%
X21910000Y-56095000D02*
X21910000Y-43927500D01*
X22184500Y-42750000D02*
X28010000Y-42750000D01*
X22520000Y-58450000D02*
X28010000Y-58450000D01*
X27160000Y-57550000D02*
X27960000Y-57550000D01*
X27560000Y-57950000D02*
X27560000Y-57150000D01*
%TO.C,R504*%
X61770000Y-29380641D02*
X61770000Y-29073359D01*
X62530000Y-29380641D02*
X62530000Y-29073359D01*
%TO.C,C503*%
X32892164Y-59640000D02*
X33107836Y-59640000D01*
X32892164Y-60360000D02*
X33107836Y-60360000D01*
%TO.C,R204*%
X56920000Y-35453641D02*
X56920000Y-35146359D01*
X57680000Y-35453641D02*
X57680000Y-35146359D01*
%TO.C,U501*%
X33990000Y-39690000D02*
X33990000Y-40165000D01*
X33990000Y-42435000D02*
X33990000Y-42910000D01*
X33990000Y-42910000D02*
X34465000Y-42910000D01*
X34465000Y-39690000D02*
X33990000Y-39690000D01*
X36735000Y-42910000D02*
X37210000Y-42910000D01*
X37210000Y-39690000D02*
X36735000Y-39690000D01*
X37210000Y-40165000D02*
X37210000Y-39690000D01*
X37210000Y-42910000D02*
X37210000Y-42435000D01*
X33480000Y-42050000D02*
X33150000Y-41810000D01*
X33150000Y-42290000D01*
X33480000Y-42050000D01*
G36*
X33480000Y-42050000D02*
G01*
X33150000Y-42290000D01*
X33150000Y-41810000D01*
X33480000Y-42050000D01*
G37*
%TO.C,C305*%
X41590000Y-44865836D02*
X41590000Y-44650164D01*
X42310000Y-44865836D02*
X42310000Y-44650164D01*
%TO.C,R205*%
X61320000Y-52563641D02*
X61320000Y-52256359D01*
X62080000Y-52563641D02*
X62080000Y-52256359D01*
%TO.C,Q101*%
X64340000Y-37615000D02*
X64340000Y-37665000D01*
X64340000Y-38785000D02*
X64340000Y-39565000D01*
X64340000Y-40685000D02*
X64340000Y-40735000D01*
X64340000Y-40735000D02*
X65860000Y-40735000D01*
X65860000Y-37615000D02*
X64340000Y-37615000D01*
X65860000Y-38615000D02*
X65860000Y-37615000D01*
X65860000Y-40735000D02*
X65860000Y-39735000D01*
X63800000Y-39555000D02*
X64040000Y-39225000D01*
X63560000Y-39225000D01*
X63800000Y-39555000D01*
G36*
X63800000Y-39555000D02*
G01*
X63560000Y-39225000D01*
X64040000Y-39225000D01*
X63800000Y-39555000D01*
G37*
%TO.C,C505*%
X64259420Y-30590000D02*
X64540580Y-30590000D01*
X64259420Y-31610000D02*
X64540580Y-31610000D01*
%TO.C,R402*%
X70010000Y-59813641D02*
X70010000Y-59506359D01*
X70770000Y-59813641D02*
X70770000Y-59506359D01*
%TO.C,U104*%
X51380000Y-38500000D02*
X51380000Y-38800000D01*
X51380000Y-39500000D02*
X51380000Y-39200000D01*
X54620000Y-38500000D02*
X54620000Y-38800000D01*
X54620000Y-39500000D02*
X54620000Y-39200000D01*
D17*
X54780000Y-40430000D02*
G75*
G02*
X54680000Y-40430000I-50000J0D01*
G01*
X54680000Y-40430000D02*
G75*
G02*
X54780000Y-40430000I50000J0D01*
G01*
%TO.C,D502*%
D11*
X62055860Y-24314506D02*
X61625818Y-25434802D01*
%TO.C,D501*%
X41771818Y-22845198D02*
X42201860Y-23965494D01*
%TO.C,J102*%
D16*
X66650000Y-44500000D02*
X67700000Y-44500000D01*
X66650000Y-47000000D02*
X66650000Y-44500000D01*
X70700000Y-48970000D02*
X67820000Y-48970000D01*
X70820000Y-44500000D02*
X70820000Y-43510000D01*
X71870000Y-44500000D02*
X70820000Y-44500000D01*
X71870000Y-47000000D02*
X71870000Y-44500000D01*
%TO.C,R108*%
X67350000Y-41362064D02*
X67350000Y-39907936D01*
X69170000Y-41362064D02*
X69170000Y-39907936D01*
%TO.C,C106*%
X49920000Y-38859420D02*
X49920000Y-39140580D01*
X50940000Y-38859420D02*
X50940000Y-39140580D01*
%TO.C,R206*%
X46283641Y-36770000D02*
X45976359Y-36770000D01*
X46283641Y-37530000D02*
X45976359Y-37530000D01*
%TD*%
%LPC*%
D18*
%TO.C,H2*%
X68579000Y-33272000D03*
%TD*%
%TO.C,H1*%
X31421000Y-33272000D03*
%TD*%
D19*
%TO.C,H3*%
X32322000Y-67678000D03*
%TD*%
D20*
%TO.C,TP13*%
X43600000Y-42800000D03*
%TD*%
D21*
%TO.C,R214*%
X58200000Y-46790000D03*
X58200000Y-47810000D03*
%TD*%
D19*
%TO.C,FID4*%
X27300000Y-36100000D03*
%TD*%
D22*
%TO.C,C406*%
X73300000Y-59480000D03*
X73300000Y-58520000D03*
%TD*%
D23*
%TO.C,U303*%
X40950000Y-46637500D03*
X41450000Y-46637500D03*
X41950000Y-46637500D03*
X42450000Y-46637500D03*
X42450000Y-48562500D03*
X41950000Y-48562500D03*
X41450000Y-48562500D03*
X40950000Y-48562500D03*
D24*
X41700000Y-47600000D03*
%TD*%
D25*
%TO.C,J303*%
X27600000Y-41200000D03*
%TD*%
D26*
%TO.C,J101*%
X47110000Y-26650000D03*
X52890000Y-26650000D03*
D27*
X46750000Y-28095000D03*
X47550000Y-28095000D03*
D28*
X48750000Y-28095000D03*
X49750000Y-28095000D03*
X50250000Y-28095000D03*
X51250000Y-28095000D03*
D27*
X52450000Y-28095000D03*
X53250000Y-28095000D03*
X53250000Y-28095000D03*
X52450000Y-28095000D03*
D28*
X51750000Y-28095000D03*
X50750000Y-28095000D03*
X49250000Y-28095000D03*
X48250000Y-28095000D03*
D27*
X47550000Y-28095000D03*
X46750000Y-28095000D03*
D29*
X45680000Y-23000000D03*
D30*
X45680000Y-27180000D03*
D29*
X54320000Y-23000000D03*
D30*
X54320000Y-27180000D03*
%TD*%
D31*
%TO.C,TP16*%
X64400000Y-47300000D03*
%TD*%
D32*
%TO.C,C105*%
X55570000Y-38225000D03*
X55570000Y-39775000D03*
%TD*%
D31*
%TO.C,TP4*%
X61600000Y-44300000D03*
%TD*%
D32*
%TO.C,C107*%
X48890000Y-38225000D03*
X48890000Y-39775000D03*
%TD*%
D33*
%TO.C,C201*%
X37375000Y-70150000D03*
X35825000Y-70150000D03*
%TD*%
D20*
%TO.C,TP11*%
X58800000Y-50300000D03*
%TD*%
D34*
%TO.C,Q501*%
X60550000Y-29737500D03*
X58650000Y-29737500D03*
X59600000Y-27862500D03*
%TD*%
D35*
%TO.C,U202*%
X39562500Y-37650000D03*
X39562500Y-37150000D03*
X39562500Y-36650000D03*
X39562500Y-36150000D03*
D36*
X40250000Y-35462500D03*
X40750000Y-35462500D03*
X41250000Y-35462500D03*
X41750000Y-35462500D03*
D35*
X42437500Y-36150000D03*
X42437500Y-36650000D03*
X42437500Y-37150000D03*
X42437500Y-37650000D03*
D36*
X41750000Y-38337500D03*
X41250000Y-38337500D03*
X40750000Y-38337500D03*
X40250000Y-38337500D03*
D37*
X41000000Y-36900000D03*
%TD*%
D31*
%TO.C,TP3*%
X58800000Y-44300000D03*
%TD*%
D20*
%TO.C,TP10*%
X56000000Y-47300000D03*
%TD*%
D38*
%TO.C,R501*%
X38673000Y-28328000D03*
X38673000Y-26678000D03*
%TD*%
D39*
%TO.C,L101*%
X53725000Y-36410000D03*
X52275000Y-36410000D03*
%TD*%
D40*
%TO.C,C407*%
X71590000Y-59040000D03*
X71590000Y-60000000D03*
%TD*%
D21*
%TO.C,R109*%
X64250000Y-41490000D03*
X64250000Y-42510000D03*
%TD*%
D41*
%TO.C,C205*%
X41210000Y-39800000D03*
X40250000Y-39800000D03*
%TD*%
D42*
%TO.C,R308*%
X61090000Y-69600000D03*
X62110000Y-69600000D03*
%TD*%
D43*
%TO.C,R207*%
X39162000Y-34550000D03*
X39162000Y-33530000D03*
%TD*%
%TO.C,R212*%
X63088000Y-33500000D03*
X63088000Y-32480000D03*
%TD*%
D19*
%TO.C,FID6*%
X69000000Y-68200000D03*
%TD*%
D43*
%TO.C,R113*%
X51400000Y-42010000D03*
X51400000Y-40990000D03*
%TD*%
%TO.C,R301*%
X49365000Y-51750000D03*
X49365000Y-50730000D03*
%TD*%
D44*
%TO.C,J201*%
X65200000Y-70140000D03*
X64184000Y-65060000D03*
X66216000Y-65060000D03*
D45*
X64565000Y-68870000D03*
X65835000Y-68870000D03*
X64565000Y-67600000D03*
X65835000Y-67600000D03*
X64565000Y-66330000D03*
X65835000Y-66330000D03*
%TD*%
D42*
%TO.C,R503*%
X59530000Y-31438000D03*
X60550000Y-31438000D03*
%TD*%
D20*
%TO.C,TP9*%
X56000000Y-50300000D03*
%TD*%
%TO.C,TP15*%
X72350000Y-50930000D03*
%TD*%
D42*
%TO.C,R403*%
X61350000Y-55570000D03*
X62370000Y-55570000D03*
%TD*%
D38*
%TO.C,R502*%
X56627000Y-26752000D03*
X56627000Y-25102000D03*
%TD*%
D43*
%TO.C,R203*%
X58400000Y-35810000D03*
X58400000Y-34790000D03*
%TD*%
D46*
%TO.C,U502*%
X36500000Y-61400000D03*
X36500000Y-61900000D03*
X36500000Y-62400000D03*
X36500000Y-62900000D03*
X36500000Y-63400000D03*
X32300000Y-63400000D03*
X32300000Y-62900000D03*
X32300000Y-62400000D03*
X32300000Y-61900000D03*
X32300000Y-61400000D03*
%TD*%
D21*
%TO.C,R213*%
X59440000Y-46790000D03*
X59440000Y-47810000D03*
%TD*%
D47*
%TO.C,D101*%
X53200000Y-30500000D03*
X56100000Y-30500000D03*
%TD*%
D42*
%TO.C,R110*%
X70240000Y-42250000D03*
X71260000Y-42250000D03*
%TD*%
D31*
%TO.C,TP2*%
X56000000Y-44300000D03*
%TD*%
D48*
%TO.C,J501*%
X29162000Y-62330000D03*
X29162000Y-59830000D03*
%TD*%
D22*
%TO.C,C204*%
X56200000Y-35780000D03*
X56200000Y-34820000D03*
%TD*%
D49*
%TO.C,MK401*%
X71148000Y-55294000D03*
D50*
X70310500Y-57368000D03*
X70310500Y-56546000D03*
D51*
X71148000Y-54631500D03*
D50*
X71985500Y-56546000D03*
X71985500Y-57368000D03*
%TD*%
D21*
%TO.C,R209*%
X37600000Y-64340000D03*
X37600000Y-65360000D03*
%TD*%
D43*
%TO.C,R111*%
X55100000Y-42010000D03*
X55100000Y-40990000D03*
%TD*%
D20*
%TO.C,TP8*%
X61600000Y-50300000D03*
%TD*%
D22*
%TO.C,C203*%
X38300000Y-68780000D03*
X38300000Y-67820000D03*
%TD*%
D43*
%TO.C,R201*%
X39550000Y-69810000D03*
X39550000Y-68790000D03*
%TD*%
D22*
%TO.C,C104*%
X61300000Y-35430000D03*
X61300000Y-34470000D03*
%TD*%
%TO.C,C504*%
X35600000Y-59880000D03*
X35600000Y-58920000D03*
%TD*%
D52*
%TO.C,U103*%
X62712500Y-36200000D03*
X62712500Y-35700000D03*
X62712500Y-35200000D03*
X62712500Y-34700000D03*
X64687500Y-34700000D03*
X64687500Y-35200000D03*
X64687500Y-35700000D03*
X64687500Y-36200000D03*
D53*
X63700000Y-35450000D03*
%TD*%
D21*
%TO.C,R102*%
X51900000Y-32240000D03*
X51900000Y-33260000D03*
%TD*%
%TO.C,R114*%
X52500000Y-40990000D03*
X52500000Y-42010000D03*
%TD*%
D43*
%TO.C,R302*%
X48095000Y-51750000D03*
X48095000Y-50730000D03*
%TD*%
D31*
%TO.C,TP1*%
X61600000Y-47300000D03*
%TD*%
D54*
%TO.C,D304*%
X29600000Y-41200000D03*
X30300000Y-41200000D03*
%TD*%
D21*
%TO.C,R101*%
X48400000Y-29990000D03*
X48400000Y-31010000D03*
%TD*%
D55*
%TO.C,C202*%
X38770000Y-71050000D03*
X39730000Y-71050000D03*
%TD*%
D40*
%TO.C,C111*%
X53000000Y-43220000D03*
X53000000Y-44180000D03*
%TD*%
D56*
%TO.C,U201*%
X41250000Y-71210000D03*
X41250000Y-69940000D03*
X41250000Y-68670000D03*
X41250000Y-67400000D03*
X41250000Y-66130000D03*
X41250000Y-64860000D03*
X41250000Y-63590000D03*
X41250000Y-62320000D03*
X41250000Y-61050000D03*
X41250000Y-59780000D03*
X41250000Y-58510000D03*
X41250000Y-57240000D03*
X41250000Y-55970000D03*
X41250000Y-54700000D03*
D57*
X43015000Y-53450000D03*
X44285000Y-53450000D03*
X45555000Y-53450000D03*
X46825000Y-53450000D03*
X48095000Y-53450000D03*
X49365000Y-53450000D03*
X50635000Y-53450000D03*
X51905000Y-53450000D03*
X53175000Y-53450000D03*
X54445000Y-53450000D03*
X55715000Y-53450000D03*
X56985000Y-53450000D03*
D56*
X58750000Y-54700000D03*
X58750000Y-55970000D03*
X58750000Y-57240000D03*
X58750000Y-58510000D03*
X58750000Y-59780000D03*
X58750000Y-61050000D03*
X58750000Y-62320000D03*
X58750000Y-63590000D03*
X58750000Y-64860000D03*
X58750000Y-66130000D03*
X58750000Y-67400000D03*
X58750000Y-68670000D03*
X58750000Y-69940000D03*
X58750000Y-71210000D03*
D58*
X47100000Y-62790000D03*
X47100000Y-64190000D03*
X47800000Y-62090000D03*
X47800000Y-63490000D03*
X47800000Y-64890000D03*
X48500000Y-62790000D03*
D59*
X48500000Y-63490000D03*
D58*
X48500000Y-64190000D03*
X49200000Y-62090000D03*
X49200000Y-63490000D03*
X49200000Y-64890000D03*
X49900000Y-62790000D03*
X49900000Y-64190000D03*
%TD*%
D21*
%TO.C,R112*%
X54000000Y-40990000D03*
X54000000Y-42010000D03*
%TD*%
D20*
%TO.C,TP7*%
X64400000Y-50300000D03*
%TD*%
D21*
%TO.C,R202*%
X60400000Y-52740000D03*
X60400000Y-53760000D03*
%TD*%
D60*
%TO.C,J301*%
X38850000Y-54250000D03*
X38850000Y-53750000D03*
X38850000Y-53250000D03*
X38850000Y-52750000D03*
X38850000Y-52250000D03*
X38850000Y-51750000D03*
X38850000Y-51250000D03*
X38850000Y-50750000D03*
X38850000Y-50250000D03*
X38850000Y-49750000D03*
X38850000Y-49250000D03*
X38850000Y-48750000D03*
X38850000Y-48250000D03*
X38850000Y-47750000D03*
X38850000Y-47250000D03*
X38850000Y-46750000D03*
X38850000Y-46250000D03*
X38850000Y-45750000D03*
D61*
X36350000Y-55250000D03*
X36350000Y-44750000D03*
%TD*%
D62*
%TO.C,LS501*%
X29350000Y-57550000D03*
X29350000Y-43650000D03*
%TD*%
D20*
%TO.C,TP14*%
X72300000Y-62080000D03*
%TD*%
D19*
%TO.C,FID5*%
X71000000Y-37000000D03*
%TD*%
D43*
%TO.C,R504*%
X62150000Y-29737000D03*
X62150000Y-28717000D03*
%TD*%
D55*
%TO.C,C503*%
X32520000Y-60000000D03*
X33480000Y-60000000D03*
%TD*%
D43*
%TO.C,R204*%
X57300000Y-35810000D03*
X57300000Y-34790000D03*
%TD*%
D63*
%TO.C,U501*%
X34162500Y-42050000D03*
X34162500Y-41550000D03*
X34162500Y-41050000D03*
X34162500Y-40550000D03*
D64*
X34850000Y-39862500D03*
X35350000Y-39862500D03*
X35850000Y-39862500D03*
X36350000Y-39862500D03*
D63*
X37037500Y-40550000D03*
X37037500Y-41050000D03*
X37037500Y-41550000D03*
X37037500Y-42050000D03*
D64*
X36350000Y-42737500D03*
X35850000Y-42737500D03*
X35350000Y-42737500D03*
X34850000Y-42737500D03*
D65*
X35600000Y-41300000D03*
%TD*%
D31*
%TO.C,TP5*%
X64400000Y-44300000D03*
%TD*%
D22*
%TO.C,C305*%
X41950000Y-45238000D03*
X41950000Y-44278000D03*
%TD*%
D43*
%TO.C,R205*%
X61700000Y-52920000D03*
X61700000Y-51900000D03*
%TD*%
D66*
%TO.C,Q101*%
X64162500Y-40125000D03*
X64162500Y-38225000D03*
X66037500Y-39175000D03*
%TD*%
D67*
%TO.C,C505*%
X63625000Y-31100000D03*
X65175000Y-31100000D03*
%TD*%
D43*
%TO.C,R402*%
X70390000Y-60170000D03*
X70390000Y-59150000D03*
%TD*%
D68*
%TO.C,U104*%
X54000000Y-39900000D03*
X53500000Y-39900000D03*
X53000000Y-39900000D03*
X52500000Y-39900000D03*
X52000000Y-39900000D03*
D69*
X52000000Y-38250000D03*
X52500000Y-38250000D03*
D70*
X53000000Y-38450000D03*
D69*
X53500000Y-38250000D03*
X54000000Y-38250000D03*
%TD*%
D71*
%TO.C,D502*%
X61327371Y-24677552D03*
X58526629Y-23602448D03*
%TD*%
D31*
%TO.C,TP6*%
X55500000Y-33050000D03*
%TD*%
D72*
%TO.C,D501*%
X41473371Y-23602448D03*
X38672629Y-24677552D03*
%TD*%
D73*
%TO.C,J102*%
X70260000Y-44285000D03*
X69260000Y-44285000D03*
X68260000Y-44285000D03*
D74*
X71560000Y-48160000D03*
X66960000Y-48160000D03*
%TD*%
D75*
%TO.C,R108*%
X68260000Y-42097500D03*
X68260000Y-39172500D03*
%TD*%
D32*
%TO.C,C106*%
X50430000Y-38225000D03*
X50430000Y-39775000D03*
%TD*%
D76*
%TO.C,R206*%
X46640000Y-37150000D03*
X45620000Y-37150000D03*
%TD*%
%LPD*%
M02*
