%TF.GenerationSoftware,KiCad,Pcbnew,10.0.6*%
%TF.CreationDate,2026-10-05T18:35:01+02:00*%
%TF.ProjectId,MAO_MAIN_A0,4d414f5f-4d41-4494-9e5f-41302e6b6963,A0*%
%TF.SameCoordinates,Original*%
%TF.FileFunction,Legend,Bot*%
%TF.FilePolarity,Positive*%
%FSLAX46Y46*%
G04 Gerber Fmt 4.6, Leading zero omitted, Abs format (unit mm)*
G04 Created by KiCad (PCBNEW 10.0.6) date 2026-10-05 18:35:01*
%MOMM*%
%LPD*%
G01*
G04 APERTURE LIST*
G04 Aperture macros list*
%AMRoundRect*
0 Rectangle with rounded corners*
0 $1 Rounding radius*
0 $2 $3 $4 $5 $6 $7 $8 $9 X,Y pos of 4 corners*
0 Add a 4 corners polygon primitive as box body*
4,1,4,$2,$3,$4,$5,$6,$7,$8,$9,$2,$3,0*
0 Add four circle primitives for the rounded corners*
1,1,$1+$1,$2,$3*
1,1,$1+$1,$4,$5*
1,1,$1+$1,$6,$7*
1,1,$1+$1,$8,$9*
0 Add four rect primitives between the rounded corners*
20,1,$1+$1,$2,$3,$4,$5,0*
20,1,$1+$1,$4,$5,$6,$7,0*
20,1,$1+$1,$6,$7,$8,$9,0*
20,1,$1+$1,$8,$9,$2,$3,0*%
%AMFreePoly0*
4,1,64,0.031751,0.146088,0.079639,0.146088,0.235856,0.115014,0.383010,0.054061,0.515445,-0.034429,0.628071,-0.147055,0.716561,-0.279490,0.777514,-0.426644,0.808588,-0.582861,0.808588,-0.742139,0.777514,-0.898356,0.716561,-1.045510,0.628071,-1.177945,0.515445,-1.290571,0.383010,-1.379061,0.235856,-1.440014,0.079639,-1.471088,-0.079639,-1.471088,-0.235856,-1.440014,-0.383010,-1.379061,
-0.515445,-1.290571,-0.628071,-1.177945,-0.716561,-1.045510,-0.777514,-0.898356,-0.808588,-0.742139,-0.808588,-0.595028,-0.512500,-0.595028,-0.512500,-0.729972,-0.477574,-0.860317,-0.410102,-0.977182,-0.314682,-1.072602,-0.197817,-1.140074,-0.067472,-1.175000,0.067472,-1.175000,0.197817,-1.140074,0.314682,-1.072602,0.410102,-0.977182,0.477574,-0.860317,0.512500,-0.729972,0.512500,-0.595028,
0.477574,-0.464683,0.410102,-0.347818,0.314682,-0.252398,0.197817,-0.184926,0.067472,-0.150000,-0.067472,-0.150000,-0.197817,-0.184926,-0.314682,-0.252398,-0.410102,-0.347818,-0.477574,-0.464683,-0.512500,-0.595028,-0.808588,-0.595028,-0.808588,-0.582861,-0.777514,-0.426644,-0.716561,-0.279490,-0.628071,-0.147055,-0.515445,-0.034429,-0.383010,0.054061,-0.235856,0.115014,-0.079639,0.146088,
-0.031751,0.146088,-0.029264,0.147118,0.029264,0.147118,0.031751,0.146088,0.031751,0.146088,$1*%
G04 Aperture macros list end*
%ADD10C,0.000000*%
%ADD11C,0.150000*%
%ADD12C,0.160000*%
%ADD13C,0.180000*%
%ADD14C,0.240000*%
%ADD15C,0.260000*%
%ADD16C,0.185000*%
%ADD17C,0.120000*%
%ADD18C,0.100001*%
%ADD19C,2.000000*%
%ADD20C,2.200000*%
%ADD21RoundRect,0.135000X0.185000X-0.135000X0.185000X0.135000X-0.185000X0.135000X-0.185000X-0.135000X0*%
%ADD22RoundRect,0.225000X0.225000X0.250000X-0.225000X0.250000X-0.225000X-0.250000X0.225000X-0.250000X0*%
%ADD23C,1.000000*%
%ADD24C,1.200000*%
%ADD25RoundRect,0.135000X-0.135000X-0.185000X0.135000X-0.185000X0.135000X0.185000X-0.135000X0.185000X0*%
%ADD26RoundRect,0.140000X-0.140000X-0.170000X0.140000X-0.170000X0.140000X0.170000X-0.140000X0.170000X0*%
%ADD27RoundRect,0.135000X-0.185000X0.135000X-0.185000X-0.135000X0.185000X-0.135000X0.185000X0.135000X0*%
%ADD28RoundRect,0.137500X0.137500X0.662500X-0.137500X0.662500X-0.137500X-0.662500X0.137500X-0.662500X0*%
%ADD29RoundRect,0.135000X0.135000X0.185000X-0.135000X0.185000X-0.135000X-0.185000X0.135000X-0.185000X0*%
%ADD30RoundRect,0.225000X-0.225000X-0.250000X0.225000X-0.250000X0.225000X0.250000X-0.225000X0.250000X0*%
%ADD31RoundRect,0.150000X0.750000X-0.350000X0.750000X0.350000X-0.750000X0.350000X-0.750000X-0.350000X0*%
%ADD32RoundRect,0.100000X-0.700000X-1.000000X0.700000X-1.000000X0.700000X1.000000X-0.700000X1.000000X0*%
%ADD33RoundRect,0.140000X0.170000X-0.140000X0.170000X0.140000X-0.170000X0.140000X-0.170000X-0.140000X0*%
%ADD34RoundRect,0.062500X-0.350000X-0.062500X0.350000X-0.062500X0.350000X0.062500X-0.350000X0.062500X0*%
%ADD35RoundRect,0.062500X-0.062500X-0.350000X0.062500X-0.350000X0.062500X0.350000X-0.062500X0.350000X0*%
%ADD36R,1.230000X1.230000*%
%ADD37RoundRect,0.075000X-0.075000X-0.175000X0.075000X-0.175000X0.075000X0.175000X-0.075000X0.175000X0*%
%ADD38RoundRect,0.062500X-0.375000X-0.062500X0.375000X-0.062500X0.375000X0.062500X-0.375000X0.062500X0*%
%ADD39RoundRect,0.062500X-0.062500X-0.375000X0.062500X-0.375000X0.062500X0.375000X-0.062500X0.375000X0*%
%ADD40R,1.450000X1.450000*%
%ADD41RoundRect,0.062500X-0.062500X0.325000X-0.062500X-0.325000X0.062500X-0.325000X0.062500X0.325000X0*%
%ADD42R,1.200000X0.600000*%
%ADD43R,0.800000X0.300000*%
%ADD44R,0.800000X0.400000*%
%ADD45RoundRect,0.150000X0.150000X0.625000X-0.150000X0.625000X-0.150000X-0.625000X0.150000X-0.625000X0*%
%ADD46RoundRect,0.250000X0.350000X0.650000X-0.350000X0.650000X-0.350000X-0.650000X0.350000X-0.650000X0*%
%ADD47RoundRect,0.150000X-0.587500X-0.150000X0.587500X-0.150000X0.587500X0.150000X-0.587500X0.150000X0*%
%ADD48RoundRect,0.062500X-0.325000X-0.062500X0.325000X-0.062500X0.325000X0.062500X-0.325000X0.062500X0*%
%ADD49R,0.800000X1.200000*%
%ADD50RoundRect,0.250000X-0.400000X-0.450000X0.400000X-0.450000X0.400000X0.450000X-0.400000X0.450000X0*%
%ADD51RoundRect,0.140000X0.140000X0.170000X-0.140000X0.170000X-0.140000X-0.170000X0.140000X-0.170000X0*%
%ADD52RoundRect,0.087500X0.662500X0.087500X-0.662500X0.087500X-0.662500X-0.087500X0.662500X-0.087500X0*%
%ADD53RoundRect,0.200000X0.275000X-0.200000X0.275000X0.200000X-0.275000X0.200000X-0.275000X-0.200000X0*%
%ADD54RoundRect,0.200000X-0.800000X-0.800000X0.800000X-0.800000X0.800000X0.800000X-0.800000X0.800000X0*%
%ADD55RoundRect,0.225000X-0.250000X0.225000X-0.250000X-0.225000X0.250000X-0.225000X0.250000X0.225000X0*%
%ADD56RoundRect,0.150000X0.150000X-0.587500X0.150000X0.587500X-0.150000X0.587500X-0.150000X-0.587500X0*%
%ADD57C,0.500000*%
%ADD58R,0.725000X0.522000*%
%ADD59FreePoly0,0.000000*%
%ADD60RoundRect,0.140000X-0.170000X0.140000X-0.170000X-0.140000X0.170000X-0.140000X0.170000X0.140000X0*%
%ADD61C,0.990600*%
%ADD62C,0.787400*%
%ADD63R,1.500000X0.900000*%
%ADD64R,0.900000X1.500000*%
%ADD65C,0.600000*%
%ADD66R,3.900000X3.900000*%
%ADD67RoundRect,0.250000X0.625000X-0.312500X0.625000X0.312500X-0.625000X0.312500X-0.625000X-0.312500X0*%
%ADD68RoundRect,0.050000X0.075000X-0.250000X0.075000X0.250000X-0.075000X0.250000X-0.075000X-0.250000X0*%
%ADD69RoundRect,0.050000X0.075000X-0.400000X0.075000X0.400000X-0.075000X0.400000X-0.075000X-0.400000X0*%
%ADD70RoundRect,0.050000X0.075000X-0.600000X0.075000X0.600000X-0.075000X0.600000X-0.075000X-0.600000X0*%
%ADD71RoundRect,0.050000X0.093814X0.732256X-0.559692X0.481398X-0.093814X-0.732256X0.559692X-0.481398X0*%
%ADD72RoundRect,0.050000X0.559692X0.481398X-0.093814X0.732256X-0.559692X-0.481398X0.093814X-0.732256X0*%
%ADD73C,0.650000*%
%ADD74RoundRect,0.150000X-0.150000X-0.575000X0.150000X-0.575000X0.150000X0.575000X-0.150000X0.575000X0*%
%ADD75RoundRect,0.075000X-0.075000X-0.650000X0.075000X-0.650000X0.075000X0.650000X-0.075000X0.650000X0*%
%ADD76O,1.000000X1.600000*%
%ADD77O,1.000000X2.100000*%
G04 APERTURE END LIST*
D10*
G36*
X47115476Y-41931250D02*
G01*
X47156547Y-41931250D01*
X47163392Y-41938095D01*
X47183928Y-41938095D01*
X47190773Y-41944940D01*
X47231845Y-41951785D01*
X47266071Y-41972321D01*
X47293452Y-41979166D01*
X47307142Y-41992857D01*
X47348214Y-42013392D01*
X47396130Y-42054464D01*
X47444047Y-42081845D01*
X47491964Y-42122916D01*
X47539880Y-42150297D01*
X47567261Y-42177678D01*
X47615178Y-42205059D01*
X47635714Y-42225595D01*
X47663095Y-42239285D01*
X47731547Y-42294047D01*
X47738392Y-42294047D01*
X47752083Y-42307738D01*
X47779464Y-42321428D01*
X47800000Y-42341964D01*
X47827380Y-42355654D01*
X47847916Y-42376190D01*
X47875297Y-42389880D01*
X47895833Y-42410416D01*
X47923214Y-42424107D01*
X47971130Y-42465178D01*
X47977976Y-42465178D01*
X47991666Y-42478869D01*
X48039583Y-42506250D01*
X48087500Y-42547321D01*
X48135416Y-42574702D01*
X48183333Y-42615773D01*
X48190178Y-42615773D01*
X48203869Y-42629464D01*
X48231250Y-42643154D01*
X48251785Y-42663690D01*
X48279166Y-42677380D01*
X48327083Y-42718452D01*
X48333928Y-42718452D01*
X48347619Y-42732142D01*
X48395535Y-42759523D01*
X48443452Y-42800595D01*
X48491369Y-42827976D01*
X48518750Y-42855357D01*
X48546130Y-42869047D01*
X48587202Y-42910119D01*
X48587202Y-42916964D01*
X48621428Y-42958035D01*
X48635119Y-42985416D01*
X48635119Y-42999107D01*
X48648809Y-43019642D01*
X48648809Y-43040178D01*
X48655654Y-43047023D01*
X48655654Y-43998511D01*
X48662500Y-44005357D01*
X48662500Y-44025892D01*
X48676190Y-44039583D01*
X48772023Y-44087500D01*
X48785714Y-44101190D01*
X48833630Y-44121726D01*
X48847321Y-44135416D01*
X48881547Y-44149107D01*
X48895238Y-44162797D01*
X48956845Y-44190178D01*
X48970535Y-44203869D01*
X49032142Y-44231249D01*
X49045833Y-44244940D01*
X49141666Y-44292857D01*
X49155357Y-44306547D01*
X49216964Y-44333928D01*
X49230654Y-44347619D01*
X49264880Y-44361309D01*
X49278571Y-44375000D01*
X49429166Y-44450297D01*
X49442857Y-44463988D01*
X49490773Y-44484523D01*
X49504464Y-44498214D01*
X49538690Y-44511904D01*
X49552380Y-44525595D01*
X49613988Y-44552976D01*
X49627678Y-44566666D01*
X49661904Y-44580357D01*
X49675595Y-44594047D01*
X49798809Y-44655654D01*
X49812500Y-44669345D01*
X49846726Y-44683035D01*
X49880952Y-44710416D01*
X49901488Y-44717261D01*
X49928869Y-44744642D01*
X49935714Y-44744642D01*
X49983630Y-44792559D01*
X49983630Y-44799404D01*
X50004166Y-44819940D01*
X50004166Y-44826785D01*
X50031547Y-44861011D01*
X50065773Y-44929464D01*
X50065773Y-44943154D01*
X50079464Y-44970535D01*
X50079464Y-44991071D01*
X50086309Y-44997916D01*
X50086309Y-45025297D01*
X50093154Y-45032142D01*
X50093154Y-45086904D01*
X50100000Y-45093750D01*
X50100000Y-45107440D01*
X50093154Y-45114285D01*
X50093154Y-45182738D01*
X50086309Y-45189583D01*
X50086309Y-45216964D01*
X50079464Y-45223809D01*
X50072619Y-45264880D01*
X50058928Y-45285416D01*
X50058928Y-45299107D01*
X50031547Y-45353869D01*
X49997321Y-45394940D01*
X49997321Y-45401785D01*
X49908333Y-45490773D01*
X49901488Y-45490773D01*
X49880952Y-45511309D01*
X49798809Y-45552380D01*
X49785119Y-45552380D01*
X49778273Y-45559226D01*
X49764583Y-45559226D01*
X49737202Y-45572916D01*
X49709821Y-45572916D01*
X49702976Y-45579761D01*
X49661904Y-45579761D01*
X49655059Y-45586607D01*
X49586607Y-45586607D01*
X49579761Y-45579761D01*
X49538690Y-45579761D01*
X49531845Y-45572916D01*
X49511309Y-45572916D01*
X49504464Y-45566071D01*
X49483928Y-45566071D01*
X49477083Y-45559226D01*
X49442857Y-45552380D01*
X49388095Y-45525000D01*
X49374404Y-45511309D01*
X49326488Y-45483928D01*
X49305952Y-45463392D01*
X49258035Y-45436011D01*
X49237500Y-45415476D01*
X49230654Y-45415476D01*
X49216964Y-45401785D01*
X49210119Y-45401785D01*
X49196428Y-45388095D01*
X49189583Y-45388095D01*
X49175892Y-45374404D01*
X49169047Y-45374404D01*
X49155357Y-45360714D01*
X49148511Y-45360714D01*
X49134821Y-45347023D01*
X49127976Y-45347023D01*
X49114285Y-45333333D01*
X49066369Y-45305952D01*
X49045833Y-45285416D01*
X49038988Y-45285416D01*
X49025297Y-45271726D01*
X48977380Y-45244345D01*
X48956845Y-45223809D01*
X48908928Y-45196428D01*
X48888392Y-45175892D01*
X48881547Y-45175892D01*
X48867857Y-45162202D01*
X48861011Y-45162202D01*
X48847321Y-45148511D01*
X48840476Y-45148511D01*
X48826785Y-45134821D01*
X48778869Y-45107440D01*
X48717261Y-45045833D01*
X48717261Y-45038988D01*
X48696726Y-45018452D01*
X48683035Y-44991071D01*
X48683035Y-44977380D01*
X48669345Y-44949999D01*
X48669345Y-44922619D01*
X48662500Y-44915773D01*
X48662500Y-44039583D01*
X48635119Y-44025892D01*
X48621428Y-44012202D01*
X48587202Y-43998511D01*
X48573511Y-43984821D01*
X48511904Y-43957440D01*
X48498214Y-43943750D01*
X48416071Y-43902678D01*
X48402380Y-43888988D01*
X48354464Y-43868452D01*
X48340773Y-43854761D01*
X48231250Y-43800000D01*
X48217559Y-43786309D01*
X48183333Y-43772619D01*
X48169642Y-43758928D01*
X48135416Y-43745238D01*
X48121726Y-43731547D01*
X48012202Y-43676785D01*
X47998511Y-43663095D01*
X47964285Y-43649404D01*
X47950595Y-43635714D01*
X47902678Y-43615178D01*
X47888988Y-43601488D01*
X47854761Y-43587797D01*
X47841071Y-43574107D01*
X47806845Y-43560416D01*
X47793154Y-43546726D01*
X47758928Y-43533035D01*
X47745238Y-43519345D01*
X47683630Y-43491964D01*
X47669940Y-43478273D01*
X47587797Y-43437202D01*
X47574107Y-43423511D01*
X47539880Y-43409821D01*
X47526190Y-43396130D01*
X47464583Y-43368750D01*
X47450892Y-43355059D01*
X47416666Y-43341369D01*
X47382440Y-43313988D01*
X47320833Y-43286607D01*
X47279761Y-43252380D01*
X47272916Y-43252380D01*
X47238690Y-43218154D01*
X47238690Y-43211309D01*
X47218154Y-43190773D01*
X47211309Y-43170238D01*
X47197619Y-43156547D01*
X47197619Y-43142857D01*
X47177083Y-43101785D01*
X47177083Y-43074404D01*
X47170238Y-43067559D01*
X47170238Y-42814285D01*
X47177083Y-42807440D01*
X47177083Y-42499404D01*
X47183928Y-42492559D01*
X47183928Y-42163988D01*
X47177083Y-42157142D01*
X47170238Y-42129761D01*
X47129166Y-42088690D01*
X47115476Y-42088690D01*
X47108630Y-42081845D01*
X47060714Y-42081845D01*
X47053869Y-42088690D01*
X47040178Y-42088690D01*
X46999107Y-42129761D01*
X46992261Y-42157142D01*
X46985416Y-42163988D01*
X46985416Y-42437797D01*
X46992261Y-42444642D01*
X46992261Y-42711607D01*
X46999107Y-42718452D01*
X46999107Y-43047023D01*
X47005952Y-43053869D01*
X47005952Y-45675595D01*
X46971726Y-45661904D01*
X46958035Y-45648214D01*
X46834821Y-45586607D01*
X46821130Y-45572916D01*
X46786904Y-45559226D01*
X46773214Y-45545535D01*
X46738988Y-45531845D01*
X46725297Y-45518154D01*
X46677380Y-45497619D01*
X46663690Y-45483928D01*
X46615773Y-45463392D01*
X46602083Y-45449702D01*
X46554166Y-45429166D01*
X46540476Y-45415476D01*
X46492559Y-45394940D01*
X46478869Y-45381250D01*
X46369345Y-45326488D01*
X46321428Y-45292261D01*
X46273511Y-45271726D01*
X46259821Y-45258035D01*
X46177678Y-45216964D01*
X46163988Y-45203273D01*
X46129761Y-45189583D01*
X46116071Y-45175892D01*
X46054464Y-45148511D01*
X46040773Y-45134821D01*
X45992857Y-45114285D01*
X45979166Y-45100595D01*
X45944940Y-45086904D01*
X45931250Y-45073214D01*
X45821726Y-45018452D01*
X45808035Y-45004761D01*
X45773809Y-44991071D01*
X45760119Y-44977380D01*
X45650595Y-44922619D01*
X45636904Y-44908928D01*
X45609523Y-44895238D01*
X45534226Y-44813095D01*
X45513690Y-44772023D01*
X45506845Y-44730952D01*
X45500000Y-44724107D01*
X45500000Y-43040178D01*
X45506845Y-43033333D01*
X45506845Y-43012797D01*
X45520535Y-42992261D01*
X45520535Y-42978571D01*
X45534226Y-42951190D01*
X45568452Y-42910119D01*
X45568452Y-42903273D01*
X45623214Y-42848511D01*
X45630059Y-42848511D01*
X45671130Y-42814285D01*
X45719047Y-42786904D01*
X45739583Y-42766369D01*
X45766964Y-42752678D01*
X45787500Y-42732142D01*
X45794345Y-42732142D01*
X45814880Y-42711607D01*
X45862797Y-42684226D01*
X45883333Y-42663690D01*
X45890178Y-42663690D01*
X45903869Y-42650000D01*
X45951785Y-42622619D01*
X46027083Y-42561011D01*
X46075000Y-42533630D01*
X46129761Y-42485714D01*
X46177678Y-42458333D01*
X46225595Y-42417261D01*
X46232440Y-42417261D01*
X46246130Y-42403571D01*
X46294047Y-42376190D01*
X46314583Y-42355654D01*
X46321428Y-42355654D01*
X46341964Y-42335119D01*
X46369345Y-42321428D01*
X46389880Y-42300892D01*
X46437797Y-42273511D01*
X46458333Y-42252976D01*
X46485714Y-42239285D01*
X46554166Y-42184523D01*
X46602083Y-42157142D01*
X46622619Y-42136607D01*
X46650000Y-42122916D01*
X46670535Y-42102380D01*
X46718452Y-42074999D01*
X46738988Y-42054464D01*
X46745833Y-42054464D01*
X46786904Y-42020238D01*
X46827976Y-41999702D01*
X46841666Y-41986011D01*
X46896428Y-41958630D01*
X46910119Y-41958630D01*
X46916964Y-41951785D01*
X46930654Y-41951785D01*
X46958035Y-41938095D01*
X46978571Y-41938095D01*
X46985416Y-41931250D01*
X47026488Y-41931250D01*
X47033333Y-41924404D01*
X47108630Y-41924404D01*
X47115476Y-41931250D01*
G37*
D11*
X50970000Y-31250000D02*
X51956850Y-31250000D01*
X57746750Y-35250000D02*
X57746750Y-31145000D01*
X61900000Y-40975000D02*
X63125000Y-40975000D01*
X62851000Y-26317392D02*
X62058229Y-26155560D01*
X73910000Y-57070000D02*
X73910000Y-57940000D01*
X44094067Y-41665110D02*
X44475019Y-41665110D01*
X44475019Y-41665110D02*
X44475019Y-40865110D01*
X43370257Y-41588919D02*
X43408353Y-41627015D01*
X43408353Y-41627015D02*
X43522638Y-41665110D01*
X43522638Y-41665110D02*
X43598829Y-41665110D01*
X43598829Y-41665110D02*
X43713115Y-41627015D01*
X43713115Y-41627015D02*
X43789305Y-41550824D01*
X43789305Y-41550824D02*
X43827400Y-41474634D01*
X43827400Y-41474634D02*
X43865496Y-41322253D01*
X43865496Y-41322253D02*
X43865496Y-41207967D01*
X43865496Y-41207967D02*
X43827400Y-41055586D01*
X43827400Y-41055586D02*
X43789305Y-40979395D01*
X43789305Y-40979395D02*
X43713115Y-40903205D01*
X43713115Y-40903205D02*
X43598829Y-40865110D01*
X43598829Y-40865110D02*
X43522638Y-40865110D01*
X43522638Y-40865110D02*
X43408353Y-40903205D01*
X43408353Y-40903205D02*
X43370257Y-40941300D01*
X43027400Y-41665110D02*
X43027400Y-40865110D01*
X43027400Y-40865110D02*
X42836924Y-40865110D01*
X42836924Y-40865110D02*
X42722638Y-40903205D01*
X42722638Y-40903205D02*
X42646448Y-40979395D01*
X42646448Y-40979395D02*
X42608353Y-41055586D01*
X42608353Y-41055586D02*
X42570257Y-41207967D01*
X42570257Y-41207967D02*
X42570257Y-41322253D01*
X42570257Y-41322253D02*
X42608353Y-41474634D01*
X42608353Y-41474634D02*
X42646448Y-41550824D01*
X42646448Y-41550824D02*
X42722638Y-41627015D01*
X42722638Y-41627015D02*
X42836924Y-41665110D01*
X42836924Y-41665110D02*
X43027400Y-41665110D01*
X42341686Y-40865110D02*
X42075019Y-41665110D01*
X42075019Y-41665110D02*
X41808353Y-40865110D01*
X50428572Y-48064080D02*
X50390476Y-48025985D01*
X50390476Y-48025985D02*
X50314286Y-47987890D01*
X50314286Y-47987890D02*
X50123810Y-47987890D01*
X50123810Y-47987890D02*
X50047619Y-48025985D01*
X50047619Y-48025985D02*
X50009524Y-48064080D01*
X50009524Y-48064080D02*
X49971429Y-48140271D01*
X49971429Y-48140271D02*
X49971429Y-48216461D01*
X49971429Y-48216461D02*
X50009524Y-48330747D01*
X50009524Y-48330747D02*
X50466667Y-48787890D01*
X50466667Y-48787890D02*
X49971429Y-48787890D01*
X49476190Y-47987890D02*
X49400000Y-47987890D01*
X49400000Y-47987890D02*
X49323809Y-48025985D01*
X49323809Y-48025985D02*
X49285714Y-48064080D01*
X49285714Y-48064080D02*
X49247619Y-48140271D01*
X49247619Y-48140271D02*
X49209524Y-48292652D01*
X49209524Y-48292652D02*
X49209524Y-48483128D01*
X49209524Y-48483128D02*
X49247619Y-48635509D01*
X49247619Y-48635509D02*
X49285714Y-48711699D01*
X49285714Y-48711699D02*
X49323809Y-48749795D01*
X49323809Y-48749795D02*
X49400000Y-48787890D01*
X49400000Y-48787890D02*
X49476190Y-48787890D01*
X49476190Y-48787890D02*
X49552381Y-48749795D01*
X49552381Y-48749795D02*
X49590476Y-48711699D01*
X49590476Y-48711699D02*
X49628571Y-48635509D01*
X49628571Y-48635509D02*
X49666667Y-48483128D01*
X49666667Y-48483128D02*
X49666667Y-48292652D01*
X49666667Y-48292652D02*
X49628571Y-48140271D01*
X49628571Y-48140271D02*
X49590476Y-48064080D01*
X49590476Y-48064080D02*
X49552381Y-48025985D01*
X49552381Y-48025985D02*
X49476190Y-47987890D01*
X48904762Y-48064080D02*
X48866666Y-48025985D01*
X48866666Y-48025985D02*
X48790476Y-47987890D01*
X48790476Y-47987890D02*
X48600000Y-47987890D01*
X48600000Y-47987890D02*
X48523809Y-48025985D01*
X48523809Y-48025985D02*
X48485714Y-48064080D01*
X48485714Y-48064080D02*
X48447619Y-48140271D01*
X48447619Y-48140271D02*
X48447619Y-48216461D01*
X48447619Y-48216461D02*
X48485714Y-48330747D01*
X48485714Y-48330747D02*
X48942857Y-48787890D01*
X48942857Y-48787890D02*
X48447619Y-48787890D01*
X47761904Y-47987890D02*
X47914285Y-47987890D01*
X47914285Y-47987890D02*
X47990476Y-48025985D01*
X47990476Y-48025985D02*
X48028571Y-48064080D01*
X48028571Y-48064080D02*
X48104761Y-48178366D01*
X48104761Y-48178366D02*
X48142857Y-48330747D01*
X48142857Y-48330747D02*
X48142857Y-48635509D01*
X48142857Y-48635509D02*
X48104761Y-48711699D01*
X48104761Y-48711699D02*
X48066666Y-48749795D01*
X48066666Y-48749795D02*
X47990476Y-48787890D01*
X47990476Y-48787890D02*
X47838095Y-48787890D01*
X47838095Y-48787890D02*
X47761904Y-48749795D01*
X47761904Y-48749795D02*
X47723809Y-48711699D01*
X47723809Y-48711699D02*
X47685714Y-48635509D01*
X47685714Y-48635509D02*
X47685714Y-48445033D01*
X47685714Y-48445033D02*
X47723809Y-48368842D01*
X47723809Y-48368842D02*
X47761904Y-48330747D01*
X47761904Y-48330747D02*
X47838095Y-48292652D01*
X47838095Y-48292652D02*
X47990476Y-48292652D01*
X47990476Y-48292652D02*
X48066666Y-48330747D01*
X48066666Y-48330747D02*
X48104761Y-48368842D01*
X48104761Y-48368842D02*
X48142857Y-48445033D01*
X47342856Y-48483128D02*
X46733333Y-48483128D01*
X45933333Y-48787890D02*
X46390476Y-48787890D01*
X46161904Y-48787890D02*
X46161904Y-47987890D01*
X46161904Y-47987890D02*
X46238095Y-48102175D01*
X46238095Y-48102175D02*
X46314285Y-48178366D01*
X46314285Y-48178366D02*
X46390476Y-48216461D01*
X45438094Y-47987890D02*
X45361904Y-47987890D01*
X45361904Y-47987890D02*
X45285713Y-48025985D01*
X45285713Y-48025985D02*
X45247618Y-48064080D01*
X45247618Y-48064080D02*
X45209523Y-48140271D01*
X45209523Y-48140271D02*
X45171428Y-48292652D01*
X45171428Y-48292652D02*
X45171428Y-48483128D01*
X45171428Y-48483128D02*
X45209523Y-48635509D01*
X45209523Y-48635509D02*
X45247618Y-48711699D01*
X45247618Y-48711699D02*
X45285713Y-48749795D01*
X45285713Y-48749795D02*
X45361904Y-48787890D01*
X45361904Y-48787890D02*
X45438094Y-48787890D01*
X45438094Y-48787890D02*
X45514285Y-48749795D01*
X45514285Y-48749795D02*
X45552380Y-48711699D01*
X45552380Y-48711699D02*
X45590475Y-48635509D01*
X45590475Y-48635509D02*
X45628571Y-48483128D01*
X45628571Y-48483128D02*
X45628571Y-48292652D01*
X45628571Y-48292652D02*
X45590475Y-48140271D01*
X45590475Y-48140271D02*
X45552380Y-48064080D01*
X45552380Y-48064080D02*
X45514285Y-48025985D01*
X45514285Y-48025985D02*
X45438094Y-47987890D01*
X56966666Y-33962295D02*
X56699999Y-34762295D01*
X56699999Y-34762295D02*
X56433333Y-33962295D01*
X55900000Y-34343247D02*
X55785714Y-34381342D01*
X55785714Y-34381342D02*
X55747619Y-34419438D01*
X55747619Y-34419438D02*
X55709523Y-34495628D01*
X55709523Y-34495628D02*
X55709523Y-34609914D01*
X55709523Y-34609914D02*
X55747619Y-34686104D01*
X55747619Y-34686104D02*
X55785714Y-34724200D01*
X55785714Y-34724200D02*
X55861904Y-34762295D01*
X55861904Y-34762295D02*
X56166666Y-34762295D01*
X56166666Y-34762295D02*
X56166666Y-33962295D01*
X56166666Y-33962295D02*
X55900000Y-33962295D01*
X55900000Y-33962295D02*
X55823809Y-34000390D01*
X55823809Y-34000390D02*
X55785714Y-34038485D01*
X55785714Y-34038485D02*
X55747619Y-34114676D01*
X55747619Y-34114676D02*
X55747619Y-34190866D01*
X55747619Y-34190866D02*
X55785714Y-34267057D01*
X55785714Y-34267057D02*
X55823809Y-34305152D01*
X55823809Y-34305152D02*
X55900000Y-34343247D01*
X55900000Y-34343247D02*
X56166666Y-34343247D01*
X55366666Y-33962295D02*
X55366666Y-34609914D01*
X55366666Y-34609914D02*
X55328571Y-34686104D01*
X55328571Y-34686104D02*
X55290476Y-34724200D01*
X55290476Y-34724200D02*
X55214285Y-34762295D01*
X55214285Y-34762295D02*
X55061904Y-34762295D01*
X55061904Y-34762295D02*
X54985714Y-34724200D01*
X54985714Y-34724200D02*
X54947619Y-34686104D01*
X54947619Y-34686104D02*
X54909523Y-34609914D01*
X54909523Y-34609914D02*
X54909523Y-33962295D01*
X54566667Y-34724200D02*
X54452381Y-34762295D01*
X54452381Y-34762295D02*
X54261905Y-34762295D01*
X54261905Y-34762295D02*
X54185714Y-34724200D01*
X54185714Y-34724200D02*
X54147619Y-34686104D01*
X54147619Y-34686104D02*
X54109524Y-34609914D01*
X54109524Y-34609914D02*
X54109524Y-34533723D01*
X54109524Y-34533723D02*
X54147619Y-34457533D01*
X54147619Y-34457533D02*
X54185714Y-34419438D01*
X54185714Y-34419438D02*
X54261905Y-34381342D01*
X54261905Y-34381342D02*
X54414286Y-34343247D01*
X54414286Y-34343247D02*
X54490476Y-34305152D01*
X54490476Y-34305152D02*
X54528571Y-34267057D01*
X54528571Y-34267057D02*
X54566667Y-34190866D01*
X54566667Y-34190866D02*
X54566667Y-34114676D01*
X54566667Y-34114676D02*
X54528571Y-34038485D01*
X54528571Y-34038485D02*
X54490476Y-34000390D01*
X54490476Y-34000390D02*
X54414286Y-33962295D01*
X54414286Y-33962295D02*
X54223809Y-33962295D01*
X54223809Y-33962295D02*
X54109524Y-34000390D01*
X71500476Y-39534270D02*
X71386190Y-39572365D01*
X71386190Y-39572365D02*
X71348095Y-39610461D01*
X71348095Y-39610461D02*
X71309999Y-39686651D01*
X71309999Y-39686651D02*
X71309999Y-39800937D01*
X71309999Y-39800937D02*
X71348095Y-39877127D01*
X71348095Y-39877127D02*
X71386190Y-39915223D01*
X71386190Y-39915223D02*
X71462380Y-39953318D01*
X71462380Y-39953318D02*
X71767142Y-39953318D01*
X71767142Y-39953318D02*
X71767142Y-39153318D01*
X71767142Y-39153318D02*
X71500476Y-39153318D01*
X71500476Y-39153318D02*
X71424285Y-39191413D01*
X71424285Y-39191413D02*
X71386190Y-39229508D01*
X71386190Y-39229508D02*
X71348095Y-39305699D01*
X71348095Y-39305699D02*
X71348095Y-39381889D01*
X71348095Y-39381889D02*
X71386190Y-39458080D01*
X71386190Y-39458080D02*
X71424285Y-39496175D01*
X71424285Y-39496175D02*
X71500476Y-39534270D01*
X71500476Y-39534270D02*
X71767142Y-39534270D01*
X71005238Y-39724746D02*
X70624285Y-39724746D01*
X71081428Y-39953318D02*
X70814761Y-39153318D01*
X70814761Y-39153318D02*
X70548095Y-39953318D01*
X70395714Y-39153318D02*
X69938571Y-39153318D01*
X70167143Y-39953318D02*
X70167143Y-39153318D01*
X71671904Y-41241273D02*
X72052856Y-41241273D01*
X72052856Y-41241273D02*
X72052856Y-40441273D01*
X71405237Y-41241273D02*
X71405237Y-40441273D01*
X71024285Y-41241273D02*
X71024285Y-40441273D01*
X71024285Y-40441273D02*
X70567142Y-41241273D01*
X70567142Y-41241273D02*
X70567142Y-40441273D01*
X70186190Y-41241273D02*
X70186190Y-40441273D01*
X69729047Y-41241273D02*
X70071905Y-40784130D01*
X69729047Y-40441273D02*
X70186190Y-40898416D01*
X28097704Y-55666666D02*
X28631038Y-55666666D01*
X28554847Y-55666666D02*
X28592942Y-55628571D01*
X28592942Y-55628571D02*
X28631038Y-55552381D01*
X28631038Y-55552381D02*
X28631038Y-55438095D01*
X28631038Y-55438095D02*
X28592942Y-55361904D01*
X28592942Y-55361904D02*
X28516752Y-55323809D01*
X28516752Y-55323809D02*
X28097704Y-55323809D01*
X28516752Y-55323809D02*
X28592942Y-55285714D01*
X28592942Y-55285714D02*
X28631038Y-55209523D01*
X28631038Y-55209523D02*
X28631038Y-55095238D01*
X28631038Y-55095238D02*
X28592942Y-55019047D01*
X28592942Y-55019047D02*
X28516752Y-54980952D01*
X28516752Y-54980952D02*
X28097704Y-54980952D01*
X28135800Y-54295237D02*
X28097704Y-54371428D01*
X28097704Y-54371428D02*
X28097704Y-54523809D01*
X28097704Y-54523809D02*
X28135800Y-54599999D01*
X28135800Y-54599999D02*
X28211990Y-54638095D01*
X28211990Y-54638095D02*
X28516752Y-54638095D01*
X28516752Y-54638095D02*
X28592942Y-54599999D01*
X28592942Y-54599999D02*
X28631038Y-54523809D01*
X28631038Y-54523809D02*
X28631038Y-54371428D01*
X28631038Y-54371428D02*
X28592942Y-54295237D01*
X28592942Y-54295237D02*
X28516752Y-54257142D01*
X28516752Y-54257142D02*
X28440561Y-54257142D01*
X28440561Y-54257142D02*
X28364371Y-54638095D01*
X28097704Y-53800000D02*
X28135800Y-53876190D01*
X28135800Y-53876190D02*
X28173895Y-53914285D01*
X28173895Y-53914285D02*
X28250085Y-53952381D01*
X28250085Y-53952381D02*
X28478657Y-53952381D01*
X28478657Y-53952381D02*
X28554847Y-53914285D01*
X28554847Y-53914285D02*
X28592942Y-53876190D01*
X28592942Y-53876190D02*
X28631038Y-53800000D01*
X28631038Y-53800000D02*
X28631038Y-53685714D01*
X28631038Y-53685714D02*
X28592942Y-53609523D01*
X28592942Y-53609523D02*
X28554847Y-53571428D01*
X28554847Y-53571428D02*
X28478657Y-53533333D01*
X28478657Y-53533333D02*
X28250085Y-53533333D01*
X28250085Y-53533333D02*
X28173895Y-53571428D01*
X28173895Y-53571428D02*
X28135800Y-53609523D01*
X28135800Y-53609523D02*
X28097704Y-53685714D01*
X28097704Y-53685714D02*
X28097704Y-53800000D01*
X28631038Y-53266666D02*
X28097704Y-53114285D01*
X28097704Y-53114285D02*
X28478657Y-52961904D01*
X28478657Y-52961904D02*
X28097704Y-52809523D01*
X28097704Y-52809523D02*
X28631038Y-52657142D01*
X54305800Y-46852381D02*
X54267704Y-46738095D01*
X54267704Y-46738095D02*
X54267704Y-46547619D01*
X54267704Y-46547619D02*
X54305800Y-46471428D01*
X54305800Y-46471428D02*
X54343895Y-46433333D01*
X54343895Y-46433333D02*
X54420085Y-46395238D01*
X54420085Y-46395238D02*
X54496276Y-46395238D01*
X54496276Y-46395238D02*
X54572466Y-46433333D01*
X54572466Y-46433333D02*
X54610561Y-46471428D01*
X54610561Y-46471428D02*
X54648657Y-46547619D01*
X54648657Y-46547619D02*
X54686752Y-46700000D01*
X54686752Y-46700000D02*
X54724847Y-46776190D01*
X54724847Y-46776190D02*
X54762942Y-46814285D01*
X54762942Y-46814285D02*
X54839133Y-46852381D01*
X54839133Y-46852381D02*
X54915323Y-46852381D01*
X54915323Y-46852381D02*
X54991514Y-46814285D01*
X54991514Y-46814285D02*
X55029609Y-46776190D01*
X55029609Y-46776190D02*
X55067704Y-46700000D01*
X55067704Y-46700000D02*
X55067704Y-46509523D01*
X55067704Y-46509523D02*
X55029609Y-46395238D01*
X54343895Y-45595237D02*
X54305800Y-45633333D01*
X54305800Y-45633333D02*
X54267704Y-45747618D01*
X54267704Y-45747618D02*
X54267704Y-45823809D01*
X54267704Y-45823809D02*
X54305800Y-45938095D01*
X54305800Y-45938095D02*
X54381990Y-46014285D01*
X54381990Y-46014285D02*
X54458180Y-46052380D01*
X54458180Y-46052380D02*
X54610561Y-46090476D01*
X54610561Y-46090476D02*
X54724847Y-46090476D01*
X54724847Y-46090476D02*
X54877228Y-46052380D01*
X54877228Y-46052380D02*
X54953419Y-46014285D01*
X54953419Y-46014285D02*
X55029609Y-45938095D01*
X55029609Y-45938095D02*
X55067704Y-45823809D01*
X55067704Y-45823809D02*
X55067704Y-45747618D01*
X55067704Y-45747618D02*
X55029609Y-45633333D01*
X55029609Y-45633333D02*
X54991514Y-45595237D01*
X54267704Y-44871428D02*
X54267704Y-45252380D01*
X54267704Y-45252380D02*
X55067704Y-45252380D01*
X56895800Y-50271428D02*
X56857704Y-50157142D01*
X56857704Y-50157142D02*
X56857704Y-49966666D01*
X56857704Y-49966666D02*
X56895800Y-49890475D01*
X56895800Y-49890475D02*
X56933895Y-49852380D01*
X56933895Y-49852380D02*
X57010085Y-49814285D01*
X57010085Y-49814285D02*
X57086276Y-49814285D01*
X57086276Y-49814285D02*
X57162466Y-49852380D01*
X57162466Y-49852380D02*
X57200561Y-49890475D01*
X57200561Y-49890475D02*
X57238657Y-49966666D01*
X57238657Y-49966666D02*
X57276752Y-50119047D01*
X57276752Y-50119047D02*
X57314847Y-50195237D01*
X57314847Y-50195237D02*
X57352942Y-50233332D01*
X57352942Y-50233332D02*
X57429133Y-50271428D01*
X57429133Y-50271428D02*
X57505323Y-50271428D01*
X57505323Y-50271428D02*
X57581514Y-50233332D01*
X57581514Y-50233332D02*
X57619609Y-50195237D01*
X57619609Y-50195237D02*
X57657704Y-50119047D01*
X57657704Y-50119047D02*
X57657704Y-49928570D01*
X57657704Y-49928570D02*
X57619609Y-49814285D01*
X56857704Y-49471427D02*
X57657704Y-49471427D01*
X57657704Y-49471427D02*
X57657704Y-49280951D01*
X57657704Y-49280951D02*
X57619609Y-49166665D01*
X57619609Y-49166665D02*
X57543419Y-49090475D01*
X57543419Y-49090475D02*
X57467228Y-49052380D01*
X57467228Y-49052380D02*
X57314847Y-49014284D01*
X57314847Y-49014284D02*
X57200561Y-49014284D01*
X57200561Y-49014284D02*
X57048180Y-49052380D01*
X57048180Y-49052380D02*
X56971990Y-49090475D01*
X56971990Y-49090475D02*
X56895800Y-49166665D01*
X56895800Y-49166665D02*
X56857704Y-49280951D01*
X56857704Y-49280951D02*
X56857704Y-49471427D01*
X57086276Y-48709523D02*
X57086276Y-48328570D01*
X56857704Y-48785713D02*
X57657704Y-48519046D01*
X57657704Y-48519046D02*
X56857704Y-48252380D01*
X57719609Y-44509523D02*
X57757704Y-44585713D01*
X57757704Y-44585713D02*
X57757704Y-44699999D01*
X57757704Y-44699999D02*
X57719609Y-44814285D01*
X57719609Y-44814285D02*
X57643419Y-44890475D01*
X57643419Y-44890475D02*
X57567228Y-44928570D01*
X57567228Y-44928570D02*
X57414847Y-44966666D01*
X57414847Y-44966666D02*
X57300561Y-44966666D01*
X57300561Y-44966666D02*
X57148180Y-44928570D01*
X57148180Y-44928570D02*
X57071990Y-44890475D01*
X57071990Y-44890475D02*
X56995800Y-44814285D01*
X56995800Y-44814285D02*
X56957704Y-44699999D01*
X56957704Y-44699999D02*
X56957704Y-44623808D01*
X56957704Y-44623808D02*
X56995800Y-44509523D01*
X56995800Y-44509523D02*
X57033895Y-44471427D01*
X57033895Y-44471427D02*
X57300561Y-44471427D01*
X57300561Y-44471427D02*
X57300561Y-44623808D01*
X56957704Y-44128570D02*
X57757704Y-44128570D01*
X57757704Y-44128570D02*
X56957704Y-43671427D01*
X56957704Y-43671427D02*
X57757704Y-43671427D01*
X56957704Y-43290475D02*
X57757704Y-43290475D01*
X57757704Y-43290475D02*
X57757704Y-43099999D01*
X57757704Y-43099999D02*
X57719609Y-42985713D01*
X57719609Y-42985713D02*
X57643419Y-42909523D01*
X57643419Y-42909523D02*
X57567228Y-42871428D01*
X57567228Y-42871428D02*
X57414847Y-42833332D01*
X57414847Y-42833332D02*
X57300561Y-42833332D01*
X57300561Y-42833332D02*
X57148180Y-42871428D01*
X57148180Y-42871428D02*
X57071990Y-42909523D01*
X57071990Y-42909523D02*
X56995800Y-42985713D01*
X56995800Y-42985713D02*
X56957704Y-43099999D01*
X56957704Y-43099999D02*
X56957704Y-43290475D01*
X60457704Y-50852381D02*
X59657704Y-50319047D01*
X60457704Y-50319047D02*
X59657704Y-50852381D01*
X59657704Y-49557142D02*
X60038657Y-49823809D01*
X59657704Y-50014285D02*
X60457704Y-50014285D01*
X60457704Y-50014285D02*
X60457704Y-49709523D01*
X60457704Y-49709523D02*
X60419609Y-49633333D01*
X60419609Y-49633333D02*
X60381514Y-49595238D01*
X60381514Y-49595238D02*
X60305323Y-49557142D01*
X60305323Y-49557142D02*
X60191038Y-49557142D01*
X60191038Y-49557142D02*
X60114847Y-49595238D01*
X60114847Y-49595238D02*
X60076752Y-49633333D01*
X60076752Y-49633333D02*
X60038657Y-49709523D01*
X60038657Y-49709523D02*
X60038657Y-50014285D01*
X59695800Y-49252381D02*
X59657704Y-49138095D01*
X59657704Y-49138095D02*
X59657704Y-48947619D01*
X59657704Y-48947619D02*
X59695800Y-48871428D01*
X59695800Y-48871428D02*
X59733895Y-48833333D01*
X59733895Y-48833333D02*
X59810085Y-48795238D01*
X59810085Y-48795238D02*
X59886276Y-48795238D01*
X59886276Y-48795238D02*
X59962466Y-48833333D01*
X59962466Y-48833333D02*
X60000561Y-48871428D01*
X60000561Y-48871428D02*
X60038657Y-48947619D01*
X60038657Y-48947619D02*
X60076752Y-49100000D01*
X60076752Y-49100000D02*
X60114847Y-49176190D01*
X60114847Y-49176190D02*
X60152942Y-49214285D01*
X60152942Y-49214285D02*
X60229133Y-49252381D01*
X60229133Y-49252381D02*
X60305323Y-49252381D01*
X60305323Y-49252381D02*
X60381514Y-49214285D01*
X60381514Y-49214285D02*
X60419609Y-49176190D01*
X60419609Y-49176190D02*
X60457704Y-49100000D01*
X60457704Y-49100000D02*
X60457704Y-48909523D01*
X60457704Y-48909523D02*
X60419609Y-48795238D01*
X60457704Y-48566666D02*
X60457704Y-48109523D01*
X59657704Y-48338095D02*
X60457704Y-48338095D01*
X60557704Y-44890476D02*
X60557704Y-44395238D01*
X60557704Y-44395238D02*
X60252942Y-44661904D01*
X60252942Y-44661904D02*
X60252942Y-44547619D01*
X60252942Y-44547619D02*
X60214847Y-44471428D01*
X60214847Y-44471428D02*
X60176752Y-44433333D01*
X60176752Y-44433333D02*
X60100561Y-44395238D01*
X60100561Y-44395238D02*
X59910085Y-44395238D01*
X59910085Y-44395238D02*
X59833895Y-44433333D01*
X59833895Y-44433333D02*
X59795800Y-44471428D01*
X59795800Y-44471428D02*
X59757704Y-44547619D01*
X59757704Y-44547619D02*
X59757704Y-44776190D01*
X59757704Y-44776190D02*
X59795800Y-44852381D01*
X59795800Y-44852381D02*
X59833895Y-44890476D01*
X60557704Y-44166666D02*
X59757704Y-43899999D01*
X59757704Y-43899999D02*
X60557704Y-43633333D01*
X60557704Y-43442857D02*
X60557704Y-42947619D01*
X60557704Y-42947619D02*
X60252942Y-43214285D01*
X60252942Y-43214285D02*
X60252942Y-43100000D01*
X60252942Y-43100000D02*
X60214847Y-43023809D01*
X60214847Y-43023809D02*
X60176752Y-42985714D01*
X60176752Y-42985714D02*
X60100561Y-42947619D01*
X60100561Y-42947619D02*
X59910085Y-42947619D01*
X59910085Y-42947619D02*
X59833895Y-42985714D01*
X59833895Y-42985714D02*
X59795800Y-43023809D01*
X59795800Y-43023809D02*
X59757704Y-43100000D01*
X59757704Y-43100000D02*
X59757704Y-43328571D01*
X59757704Y-43328571D02*
X59795800Y-43404762D01*
X59795800Y-43404762D02*
X59833895Y-43442857D01*
X62876752Y-50885714D02*
X62838657Y-50771428D01*
X62838657Y-50771428D02*
X62800561Y-50733333D01*
X62800561Y-50733333D02*
X62724371Y-50695237D01*
X62724371Y-50695237D02*
X62610085Y-50695237D01*
X62610085Y-50695237D02*
X62533895Y-50733333D01*
X62533895Y-50733333D02*
X62495800Y-50771428D01*
X62495800Y-50771428D02*
X62457704Y-50847618D01*
X62457704Y-50847618D02*
X62457704Y-51152380D01*
X62457704Y-51152380D02*
X63257704Y-51152380D01*
X63257704Y-51152380D02*
X63257704Y-50885714D01*
X63257704Y-50885714D02*
X63219609Y-50809523D01*
X63219609Y-50809523D02*
X63181514Y-50771428D01*
X63181514Y-50771428D02*
X63105323Y-50733333D01*
X63105323Y-50733333D02*
X63029133Y-50733333D01*
X63029133Y-50733333D02*
X62952942Y-50771428D01*
X62952942Y-50771428D02*
X62914847Y-50809523D01*
X62914847Y-50809523D02*
X62876752Y-50885714D01*
X62876752Y-50885714D02*
X62876752Y-51152380D01*
X63257704Y-50199999D02*
X63257704Y-50047618D01*
X63257704Y-50047618D02*
X63219609Y-49971428D01*
X63219609Y-49971428D02*
X63143419Y-49895237D01*
X63143419Y-49895237D02*
X62991038Y-49857142D01*
X62991038Y-49857142D02*
X62724371Y-49857142D01*
X62724371Y-49857142D02*
X62571990Y-49895237D01*
X62571990Y-49895237D02*
X62495800Y-49971428D01*
X62495800Y-49971428D02*
X62457704Y-50047618D01*
X62457704Y-50047618D02*
X62457704Y-50199999D01*
X62457704Y-50199999D02*
X62495800Y-50276190D01*
X62495800Y-50276190D02*
X62571990Y-50352380D01*
X62571990Y-50352380D02*
X62724371Y-50390476D01*
X62724371Y-50390476D02*
X62991038Y-50390476D01*
X62991038Y-50390476D02*
X63143419Y-50352380D01*
X63143419Y-50352380D02*
X63219609Y-50276190D01*
X63219609Y-50276190D02*
X63257704Y-50199999D01*
X63257704Y-49361904D02*
X63257704Y-49209523D01*
X63257704Y-49209523D02*
X63219609Y-49133333D01*
X63219609Y-49133333D02*
X63143419Y-49057142D01*
X63143419Y-49057142D02*
X62991038Y-49019047D01*
X62991038Y-49019047D02*
X62724371Y-49019047D01*
X62724371Y-49019047D02*
X62571990Y-49057142D01*
X62571990Y-49057142D02*
X62495800Y-49133333D01*
X62495800Y-49133333D02*
X62457704Y-49209523D01*
X62457704Y-49209523D02*
X62457704Y-49361904D01*
X62457704Y-49361904D02*
X62495800Y-49438095D01*
X62495800Y-49438095D02*
X62571990Y-49514285D01*
X62571990Y-49514285D02*
X62724371Y-49552381D01*
X62724371Y-49552381D02*
X62991038Y-49552381D01*
X62991038Y-49552381D02*
X63143419Y-49514285D01*
X63143419Y-49514285D02*
X63219609Y-49438095D01*
X63219609Y-49438095D02*
X63257704Y-49361904D01*
X63257704Y-48790476D02*
X63257704Y-48333333D01*
X62457704Y-48561905D02*
X63257704Y-48561905D01*
X62595800Y-44852381D02*
X62557704Y-44738095D01*
X62557704Y-44738095D02*
X62557704Y-44547619D01*
X62557704Y-44547619D02*
X62595800Y-44471428D01*
X62595800Y-44471428D02*
X62633895Y-44433333D01*
X62633895Y-44433333D02*
X62710085Y-44395238D01*
X62710085Y-44395238D02*
X62786276Y-44395238D01*
X62786276Y-44395238D02*
X62862466Y-44433333D01*
X62862466Y-44433333D02*
X62900561Y-44471428D01*
X62900561Y-44471428D02*
X62938657Y-44547619D01*
X62938657Y-44547619D02*
X62976752Y-44700000D01*
X62976752Y-44700000D02*
X63014847Y-44776190D01*
X63014847Y-44776190D02*
X63052942Y-44814285D01*
X63052942Y-44814285D02*
X63129133Y-44852381D01*
X63129133Y-44852381D02*
X63205323Y-44852381D01*
X63205323Y-44852381D02*
X63281514Y-44814285D01*
X63281514Y-44814285D02*
X63319609Y-44776190D01*
X63319609Y-44776190D02*
X63357704Y-44700000D01*
X63357704Y-44700000D02*
X63357704Y-44509523D01*
X63357704Y-44509523D02*
X63319609Y-44395238D01*
X62938657Y-43899999D02*
X62557704Y-43899999D01*
X63357704Y-44166666D02*
X62938657Y-43899999D01*
X62938657Y-43899999D02*
X63357704Y-43633333D01*
X62595800Y-43404762D02*
X62557704Y-43290476D01*
X62557704Y-43290476D02*
X62557704Y-43100000D01*
X62557704Y-43100000D02*
X62595800Y-43023809D01*
X62595800Y-43023809D02*
X62633895Y-42985714D01*
X62633895Y-42985714D02*
X62710085Y-42947619D01*
X62710085Y-42947619D02*
X62786276Y-42947619D01*
X62786276Y-42947619D02*
X62862466Y-42985714D01*
X62862466Y-42985714D02*
X62900561Y-43023809D01*
X62900561Y-43023809D02*
X62938657Y-43100000D01*
X62938657Y-43100000D02*
X62976752Y-43252381D01*
X62976752Y-43252381D02*
X63014847Y-43328571D01*
X63014847Y-43328571D02*
X63052942Y-43366666D01*
X63052942Y-43366666D02*
X63129133Y-43404762D01*
X63129133Y-43404762D02*
X63205323Y-43404762D01*
X63205323Y-43404762D02*
X63281514Y-43366666D01*
X63281514Y-43366666D02*
X63319609Y-43328571D01*
X63319609Y-43328571D02*
X63357704Y-43252381D01*
X63357704Y-43252381D02*
X63357704Y-43061904D01*
X63357704Y-43061904D02*
X63319609Y-42947619D01*
X63319609Y-47309523D02*
X63357704Y-47385713D01*
X63357704Y-47385713D02*
X63357704Y-47499999D01*
X63357704Y-47499999D02*
X63319609Y-47614285D01*
X63319609Y-47614285D02*
X63243419Y-47690475D01*
X63243419Y-47690475D02*
X63167228Y-47728570D01*
X63167228Y-47728570D02*
X63014847Y-47766666D01*
X63014847Y-47766666D02*
X62900561Y-47766666D01*
X62900561Y-47766666D02*
X62748180Y-47728570D01*
X62748180Y-47728570D02*
X62671990Y-47690475D01*
X62671990Y-47690475D02*
X62595800Y-47614285D01*
X62595800Y-47614285D02*
X62557704Y-47499999D01*
X62557704Y-47499999D02*
X62557704Y-47423808D01*
X62557704Y-47423808D02*
X62595800Y-47309523D01*
X62595800Y-47309523D02*
X62633895Y-47271427D01*
X62633895Y-47271427D02*
X62900561Y-47271427D01*
X62900561Y-47271427D02*
X62900561Y-47423808D01*
X62557704Y-46928570D02*
X63357704Y-46928570D01*
X63357704Y-46928570D02*
X62557704Y-46471427D01*
X62557704Y-46471427D02*
X63357704Y-46471427D01*
X62557704Y-46090475D02*
X63357704Y-46090475D01*
X63357704Y-46090475D02*
X63357704Y-45899999D01*
X63357704Y-45899999D02*
X63319609Y-45785713D01*
X63319609Y-45785713D02*
X63243419Y-45709523D01*
X63243419Y-45709523D02*
X63167228Y-45671428D01*
X63167228Y-45671428D02*
X63014847Y-45633332D01*
X63014847Y-45633332D02*
X62900561Y-45633332D01*
X62900561Y-45633332D02*
X62748180Y-45671428D01*
X62748180Y-45671428D02*
X62671990Y-45709523D01*
X62671990Y-45709523D02*
X62595800Y-45785713D01*
X62595800Y-45785713D02*
X62557704Y-45899999D01*
X62557704Y-45899999D02*
X62557704Y-46090475D01*
X64497704Y-55713571D02*
X64497704Y-55561190D01*
X64497704Y-55561190D02*
X64535800Y-55485000D01*
X64535800Y-55485000D02*
X64573895Y-55446904D01*
X64573895Y-55446904D02*
X64688180Y-55370714D01*
X64688180Y-55370714D02*
X64840561Y-55332619D01*
X64840561Y-55332619D02*
X65145323Y-55332619D01*
X65145323Y-55332619D02*
X65221514Y-55370714D01*
X65221514Y-55370714D02*
X65259609Y-55408809D01*
X65259609Y-55408809D02*
X65297704Y-55485000D01*
X65297704Y-55485000D02*
X65297704Y-55637381D01*
X65297704Y-55637381D02*
X65259609Y-55713571D01*
X65259609Y-55713571D02*
X65221514Y-55751666D01*
X65221514Y-55751666D02*
X65145323Y-55789762D01*
X65145323Y-55789762D02*
X64954847Y-55789762D01*
X64954847Y-55789762D02*
X64878657Y-55751666D01*
X64878657Y-55751666D02*
X64840561Y-55713571D01*
X64840561Y-55713571D02*
X64802466Y-55637381D01*
X64802466Y-55637381D02*
X64802466Y-55485000D01*
X64802466Y-55485000D02*
X64840561Y-55408809D01*
X64840561Y-55408809D02*
X64878657Y-55370714D01*
X64878657Y-55370714D02*
X64954847Y-55332619D01*
X64497704Y-54265952D02*
X64535800Y-54342142D01*
X64535800Y-54342142D02*
X64611990Y-54380237D01*
X64611990Y-54380237D02*
X65297704Y-54380237D01*
X64497704Y-53961189D02*
X65031038Y-53961189D01*
X65297704Y-53961189D02*
X65259609Y-53999285D01*
X65259609Y-53999285D02*
X65221514Y-53961189D01*
X65221514Y-53961189D02*
X65259609Y-53923094D01*
X65259609Y-53923094D02*
X65297704Y-53961189D01*
X65297704Y-53961189D02*
X65221514Y-53961189D01*
X65031038Y-53656428D02*
X64497704Y-53465952D01*
X64497704Y-53465952D02*
X65031038Y-53275475D01*
X64535800Y-52665951D02*
X64497704Y-52742142D01*
X64497704Y-52742142D02*
X64497704Y-52894523D01*
X64497704Y-52894523D02*
X64535800Y-52970713D01*
X64535800Y-52970713D02*
X64611990Y-53008809D01*
X64611990Y-53008809D02*
X64916752Y-53008809D01*
X64916752Y-53008809D02*
X64992942Y-52970713D01*
X64992942Y-52970713D02*
X65031038Y-52894523D01*
X65031038Y-52894523D02*
X65031038Y-52742142D01*
X65031038Y-52742142D02*
X64992942Y-52665951D01*
X64992942Y-52665951D02*
X64916752Y-52627856D01*
X64916752Y-52627856D02*
X64840561Y-52627856D01*
X64840561Y-52627856D02*
X64764371Y-53008809D01*
X64535800Y-52323095D02*
X64497704Y-52246904D01*
X64497704Y-52246904D02*
X64497704Y-52094523D01*
X64497704Y-52094523D02*
X64535800Y-52018333D01*
X64535800Y-52018333D02*
X64611990Y-51980237D01*
X64611990Y-51980237D02*
X64650085Y-51980237D01*
X64650085Y-51980237D02*
X64726276Y-52018333D01*
X64726276Y-52018333D02*
X64764371Y-52094523D01*
X64764371Y-52094523D02*
X64764371Y-52208809D01*
X64764371Y-52208809D02*
X64802466Y-52284999D01*
X64802466Y-52284999D02*
X64878657Y-52323095D01*
X64878657Y-52323095D02*
X64916752Y-52323095D01*
X64916752Y-52323095D02*
X64992942Y-52284999D01*
X64992942Y-52284999D02*
X65031038Y-52208809D01*
X65031038Y-52208809D02*
X65031038Y-52094523D01*
X65031038Y-52094523D02*
X64992942Y-52018333D01*
X65157704Y-49938094D02*
X65538657Y-50204761D01*
X65157704Y-50395237D02*
X65957704Y-50395237D01*
X65957704Y-50395237D02*
X65957704Y-50090475D01*
X65957704Y-50090475D02*
X65919609Y-50014285D01*
X65919609Y-50014285D02*
X65881514Y-49976190D01*
X65881514Y-49976190D02*
X65805323Y-49938094D01*
X65805323Y-49938094D02*
X65691038Y-49938094D01*
X65691038Y-49938094D02*
X65614847Y-49976190D01*
X65614847Y-49976190D02*
X65576752Y-50014285D01*
X65576752Y-50014285D02*
X65538657Y-50090475D01*
X65538657Y-50090475D02*
X65538657Y-50395237D01*
X65195800Y-49633333D02*
X65157704Y-49519047D01*
X65157704Y-49519047D02*
X65157704Y-49328571D01*
X65157704Y-49328571D02*
X65195800Y-49252380D01*
X65195800Y-49252380D02*
X65233895Y-49214285D01*
X65233895Y-49214285D02*
X65310085Y-49176190D01*
X65310085Y-49176190D02*
X65386276Y-49176190D01*
X65386276Y-49176190D02*
X65462466Y-49214285D01*
X65462466Y-49214285D02*
X65500561Y-49252380D01*
X65500561Y-49252380D02*
X65538657Y-49328571D01*
X65538657Y-49328571D02*
X65576752Y-49480952D01*
X65576752Y-49480952D02*
X65614847Y-49557142D01*
X65614847Y-49557142D02*
X65652942Y-49595237D01*
X65652942Y-49595237D02*
X65729133Y-49633333D01*
X65729133Y-49633333D02*
X65805323Y-49633333D01*
X65805323Y-49633333D02*
X65881514Y-49595237D01*
X65881514Y-49595237D02*
X65919609Y-49557142D01*
X65919609Y-49557142D02*
X65957704Y-49480952D01*
X65957704Y-49480952D02*
X65957704Y-49290475D01*
X65957704Y-49290475D02*
X65919609Y-49176190D01*
X65957704Y-48947618D02*
X65957704Y-48490475D01*
X65157704Y-48719047D02*
X65957704Y-48719047D01*
X65676752Y-44490476D02*
X65638657Y-44376190D01*
X65638657Y-44376190D02*
X65600561Y-44338095D01*
X65600561Y-44338095D02*
X65524371Y-44299999D01*
X65524371Y-44299999D02*
X65410085Y-44299999D01*
X65410085Y-44299999D02*
X65333895Y-44338095D01*
X65333895Y-44338095D02*
X65295800Y-44376190D01*
X65295800Y-44376190D02*
X65257704Y-44452380D01*
X65257704Y-44452380D02*
X65257704Y-44757142D01*
X65257704Y-44757142D02*
X66057704Y-44757142D01*
X66057704Y-44757142D02*
X66057704Y-44490476D01*
X66057704Y-44490476D02*
X66019609Y-44414285D01*
X66019609Y-44414285D02*
X65981514Y-44376190D01*
X65981514Y-44376190D02*
X65905323Y-44338095D01*
X65905323Y-44338095D02*
X65829133Y-44338095D01*
X65829133Y-44338095D02*
X65752942Y-44376190D01*
X65752942Y-44376190D02*
X65714847Y-44414285D01*
X65714847Y-44414285D02*
X65676752Y-44490476D01*
X65676752Y-44490476D02*
X65676752Y-44757142D01*
X65486276Y-43995238D02*
X65486276Y-43614285D01*
X65257704Y-44071428D02*
X66057704Y-43804761D01*
X66057704Y-43804761D02*
X65257704Y-43538095D01*
X66057704Y-43385714D02*
X66057704Y-42928571D01*
X65257704Y-43157143D02*
X66057704Y-43157143D01*
X66019609Y-47309523D02*
X66057704Y-47385713D01*
X66057704Y-47385713D02*
X66057704Y-47499999D01*
X66057704Y-47499999D02*
X66019609Y-47614285D01*
X66019609Y-47614285D02*
X65943419Y-47690475D01*
X65943419Y-47690475D02*
X65867228Y-47728570D01*
X65867228Y-47728570D02*
X65714847Y-47766666D01*
X65714847Y-47766666D02*
X65600561Y-47766666D01*
X65600561Y-47766666D02*
X65448180Y-47728570D01*
X65448180Y-47728570D02*
X65371990Y-47690475D01*
X65371990Y-47690475D02*
X65295800Y-47614285D01*
X65295800Y-47614285D02*
X65257704Y-47499999D01*
X65257704Y-47499999D02*
X65257704Y-47423808D01*
X65257704Y-47423808D02*
X65295800Y-47309523D01*
X65295800Y-47309523D02*
X65333895Y-47271427D01*
X65333895Y-47271427D02*
X65600561Y-47271427D01*
X65600561Y-47271427D02*
X65600561Y-47423808D01*
X65257704Y-46928570D02*
X66057704Y-46928570D01*
X66057704Y-46928570D02*
X65257704Y-46471427D01*
X65257704Y-46471427D02*
X66057704Y-46471427D01*
X65257704Y-46090475D02*
X66057704Y-46090475D01*
X66057704Y-46090475D02*
X66057704Y-45899999D01*
X66057704Y-45899999D02*
X66019609Y-45785713D01*
X66019609Y-45785713D02*
X65943419Y-45709523D01*
X65943419Y-45709523D02*
X65867228Y-45671428D01*
X65867228Y-45671428D02*
X65714847Y-45633332D01*
X65714847Y-45633332D02*
X65600561Y-45633332D01*
X65600561Y-45633332D02*
X65448180Y-45671428D01*
X65448180Y-45671428D02*
X65371990Y-45709523D01*
X65371990Y-45709523D02*
X65295800Y-45785713D01*
X65295800Y-45785713D02*
X65257704Y-45899999D01*
X65257704Y-45899999D02*
X65257704Y-46090475D01*
X73145111Y-63260666D02*
X73945111Y-63260666D01*
X73945111Y-63260666D02*
X73373683Y-62994000D01*
X73373683Y-62994000D02*
X73945111Y-62727333D01*
X73945111Y-62727333D02*
X73145111Y-62727333D01*
X73145111Y-62346380D02*
X73945111Y-62346380D01*
X73221302Y-61508285D02*
X73183207Y-61546381D01*
X73183207Y-61546381D02*
X73145111Y-61660666D01*
X73145111Y-61660666D02*
X73145111Y-61736857D01*
X73145111Y-61736857D02*
X73183207Y-61851143D01*
X73183207Y-61851143D02*
X73259397Y-61927333D01*
X73259397Y-61927333D02*
X73335587Y-61965428D01*
X73335587Y-61965428D02*
X73487968Y-62003524D01*
X73487968Y-62003524D02*
X73602254Y-62003524D01*
X73602254Y-62003524D02*
X73754635Y-61965428D01*
X73754635Y-61965428D02*
X73830826Y-61927333D01*
X73830826Y-61927333D02*
X73907016Y-61851143D01*
X73907016Y-61851143D02*
X73945111Y-61736857D01*
X73945111Y-61736857D02*
X73945111Y-61660666D01*
X73945111Y-61660666D02*
X73907016Y-61546381D01*
X73907016Y-61546381D02*
X73868921Y-61508285D01*
X73167704Y-51672856D02*
X73967704Y-51672856D01*
X73167704Y-50834761D02*
X73548657Y-51101428D01*
X73167704Y-51291904D02*
X73967704Y-51291904D01*
X73967704Y-51291904D02*
X73967704Y-50987142D01*
X73967704Y-50987142D02*
X73929609Y-50910952D01*
X73929609Y-50910952D02*
X73891514Y-50872857D01*
X73891514Y-50872857D02*
X73815323Y-50834761D01*
X73815323Y-50834761D02*
X73701038Y-50834761D01*
X73701038Y-50834761D02*
X73624847Y-50872857D01*
X73624847Y-50872857D02*
X73586752Y-50910952D01*
X73586752Y-50910952D02*
X73548657Y-50987142D01*
X73548657Y-50987142D02*
X73548657Y-51291904D01*
X73967704Y-50606190D02*
X73167704Y-50339523D01*
X73167704Y-50339523D02*
X73967704Y-50072857D01*
D12*
X70974285Y-50985238D02*
X70364762Y-50985238D01*
X69488571Y-50490000D02*
X69031428Y-50490000D01*
X69260000Y-51290000D02*
X69260000Y-50490000D01*
X68155237Y-50985238D02*
X67545714Y-50985238D01*
X67850475Y-51290000D02*
X67850475Y-50680476D01*
X69850476Y-52158907D02*
X69736190Y-52197002D01*
X69736190Y-52197002D02*
X69698095Y-52235098D01*
X69698095Y-52235098D02*
X69659999Y-52311288D01*
X69659999Y-52311288D02*
X69659999Y-52425574D01*
X69659999Y-52425574D02*
X69698095Y-52501764D01*
X69698095Y-52501764D02*
X69736190Y-52539860D01*
X69736190Y-52539860D02*
X69812380Y-52577955D01*
X69812380Y-52577955D02*
X70117142Y-52577955D01*
X70117142Y-52577955D02*
X70117142Y-51777955D01*
X70117142Y-51777955D02*
X69850476Y-51777955D01*
X69850476Y-51777955D02*
X69774285Y-51816050D01*
X69774285Y-51816050D02*
X69736190Y-51854145D01*
X69736190Y-51854145D02*
X69698095Y-51930336D01*
X69698095Y-51930336D02*
X69698095Y-52006526D01*
X69698095Y-52006526D02*
X69736190Y-52082717D01*
X69736190Y-52082717D02*
X69774285Y-52120812D01*
X69774285Y-52120812D02*
X69850476Y-52158907D01*
X69850476Y-52158907D02*
X70117142Y-52158907D01*
X69355238Y-52349383D02*
X68974285Y-52349383D01*
X69431428Y-52577955D02*
X69164761Y-51777955D01*
X69164761Y-51777955D02*
X68898095Y-52577955D01*
X68745714Y-51777955D02*
X68288571Y-51777955D01*
X68517143Y-52577955D02*
X68517143Y-51777955D01*
D13*
X43278571Y-50545782D02*
X43849999Y-50545782D01*
X43849999Y-50545782D02*
X43849999Y-49345782D01*
X42192856Y-50431497D02*
X42249999Y-50488640D01*
X42249999Y-50488640D02*
X42421427Y-50545782D01*
X42421427Y-50545782D02*
X42535713Y-50545782D01*
X42535713Y-50545782D02*
X42707142Y-50488640D01*
X42707142Y-50488640D02*
X42821427Y-50374354D01*
X42821427Y-50374354D02*
X42878570Y-50260068D01*
X42878570Y-50260068D02*
X42935713Y-50031497D01*
X42935713Y-50031497D02*
X42935713Y-49860068D01*
X42935713Y-49860068D02*
X42878570Y-49631497D01*
X42878570Y-49631497D02*
X42821427Y-49517211D01*
X42821427Y-49517211D02*
X42707142Y-49402925D01*
X42707142Y-49402925D02*
X42535713Y-49345782D01*
X42535713Y-49345782D02*
X42421427Y-49345782D01*
X42421427Y-49345782D02*
X42249999Y-49402925D01*
X42249999Y-49402925D02*
X42192856Y-49460068D01*
X41678570Y-50545782D02*
X41678570Y-49345782D01*
X41678570Y-49345782D02*
X41392856Y-49345782D01*
X41392856Y-49345782D02*
X41221427Y-49402925D01*
X41221427Y-49402925D02*
X41107142Y-49517211D01*
X41107142Y-49517211D02*
X41049999Y-49631497D01*
X41049999Y-49631497D02*
X40992856Y-49860068D01*
X40992856Y-49860068D02*
X40992856Y-50031497D01*
X40992856Y-50031497D02*
X41049999Y-50260068D01*
X41049999Y-50260068D02*
X41107142Y-50374354D01*
X41107142Y-50374354D02*
X41221427Y-50488640D01*
X41221427Y-50488640D02*
X41392856Y-50545782D01*
X41392856Y-50545782D02*
X41678570Y-50545782D01*
X26667660Y-62947857D02*
X26667660Y-63519285D01*
X26667660Y-63519285D02*
X27867660Y-63519285D01*
X26667660Y-61862142D02*
X27239088Y-62262142D01*
X26667660Y-62547856D02*
X27867660Y-62547856D01*
X27867660Y-62547856D02*
X27867660Y-62090713D01*
X27867660Y-62090713D02*
X27810517Y-61976428D01*
X27810517Y-61976428D02*
X27753374Y-61919285D01*
X27753374Y-61919285D02*
X27639088Y-61862142D01*
X27639088Y-61862142D02*
X27467660Y-61862142D01*
X27467660Y-61862142D02*
X27353374Y-61919285D01*
X27353374Y-61919285D02*
X27296231Y-61976428D01*
X27296231Y-61976428D02*
X27239088Y-62090713D01*
X27239088Y-62090713D02*
X27239088Y-62547856D01*
X27010517Y-61404999D02*
X27010517Y-60833571D01*
X26667660Y-61519285D02*
X27867660Y-61119285D01*
X27867660Y-61119285D02*
X26667660Y-60719285D01*
X27971360Y-49142856D02*
X27914217Y-48971428D01*
X27914217Y-48971428D02*
X27914217Y-48685713D01*
X27914217Y-48685713D02*
X27971360Y-48571428D01*
X27971360Y-48571428D02*
X28028502Y-48514285D01*
X28028502Y-48514285D02*
X28142788Y-48457142D01*
X28142788Y-48457142D02*
X28257074Y-48457142D01*
X28257074Y-48457142D02*
X28371360Y-48514285D01*
X28371360Y-48514285D02*
X28428502Y-48571428D01*
X28428502Y-48571428D02*
X28485645Y-48685713D01*
X28485645Y-48685713D02*
X28542788Y-48914285D01*
X28542788Y-48914285D02*
X28599931Y-49028570D01*
X28599931Y-49028570D02*
X28657074Y-49085713D01*
X28657074Y-49085713D02*
X28771360Y-49142856D01*
X28771360Y-49142856D02*
X28885645Y-49142856D01*
X28885645Y-49142856D02*
X28999931Y-49085713D01*
X28999931Y-49085713D02*
X29057074Y-49028570D01*
X29057074Y-49028570D02*
X29114217Y-48914285D01*
X29114217Y-48914285D02*
X29114217Y-48628570D01*
X29114217Y-48628570D02*
X29057074Y-48457142D01*
X27914217Y-47942856D02*
X29114217Y-47942856D01*
X29114217Y-47942856D02*
X29114217Y-47485713D01*
X29114217Y-47485713D02*
X29057074Y-47371428D01*
X29057074Y-47371428D02*
X28999931Y-47314285D01*
X28999931Y-47314285D02*
X28885645Y-47257142D01*
X28885645Y-47257142D02*
X28714217Y-47257142D01*
X28714217Y-47257142D02*
X28599931Y-47314285D01*
X28599931Y-47314285D02*
X28542788Y-47371428D01*
X28542788Y-47371428D02*
X28485645Y-47485713D01*
X28485645Y-47485713D02*
X28485645Y-47942856D01*
X27914217Y-46742856D02*
X29114217Y-46742856D01*
X27914217Y-46057142D02*
X28599931Y-46571428D01*
X29114217Y-46057142D02*
X28428502Y-46742856D01*
X30821328Y-41476319D02*
X31392756Y-41876319D01*
X30821328Y-42162033D02*
X32021328Y-42162033D01*
X32021328Y-42162033D02*
X32021328Y-41704890D01*
X32021328Y-41704890D02*
X31964185Y-41590605D01*
X31964185Y-41590605D02*
X31907042Y-41533462D01*
X31907042Y-41533462D02*
X31792756Y-41476319D01*
X31792756Y-41476319D02*
X31621328Y-41476319D01*
X31621328Y-41476319D02*
X31507042Y-41533462D01*
X31507042Y-41533462D02*
X31449899Y-41590605D01*
X31449899Y-41590605D02*
X31392756Y-41704890D01*
X31392756Y-41704890D02*
X31392756Y-42162033D01*
X31449899Y-40962033D02*
X31449899Y-40562033D01*
X30821328Y-40390605D02*
X30821328Y-40962033D01*
X30821328Y-40962033D02*
X32021328Y-40962033D01*
X32021328Y-40962033D02*
X32021328Y-40390605D01*
X31164185Y-39933462D02*
X31164185Y-39362034D01*
X30821328Y-40047748D02*
X32021328Y-39647748D01*
X32021328Y-39647748D02*
X30821328Y-39247748D01*
X30821328Y-38162034D02*
X31392756Y-38562034D01*
X30821328Y-38847748D02*
X32021328Y-38847748D01*
X32021328Y-38847748D02*
X32021328Y-38390605D01*
X32021328Y-38390605D02*
X31964185Y-38276320D01*
X31964185Y-38276320D02*
X31907042Y-38219177D01*
X31907042Y-38219177D02*
X31792756Y-38162034D01*
X31792756Y-38162034D02*
X31621328Y-38162034D01*
X31621328Y-38162034D02*
X31507042Y-38219177D01*
X31507042Y-38219177D02*
X31449899Y-38276320D01*
X31449899Y-38276320D02*
X31392756Y-38390605D01*
X31392756Y-38390605D02*
X31392756Y-38847748D01*
X62953032Y-66132142D02*
X62953032Y-65446428D01*
X61753032Y-65789285D02*
X62953032Y-65789285D01*
X62095889Y-65103570D02*
X62095889Y-64532142D01*
X61753032Y-65217856D02*
X62953032Y-64817856D01*
X62953032Y-64817856D02*
X61753032Y-64417856D01*
X62895889Y-63389285D02*
X62953032Y-63503571D01*
X62953032Y-63503571D02*
X62953032Y-63674999D01*
X62953032Y-63674999D02*
X62895889Y-63846428D01*
X62895889Y-63846428D02*
X62781603Y-63960713D01*
X62781603Y-63960713D02*
X62667317Y-64017856D01*
X62667317Y-64017856D02*
X62438746Y-64074999D01*
X62438746Y-64074999D02*
X62267317Y-64074999D01*
X62267317Y-64074999D02*
X62038746Y-64017856D01*
X62038746Y-64017856D02*
X61924460Y-63960713D01*
X61924460Y-63960713D02*
X61810175Y-63846428D01*
X61810175Y-63846428D02*
X61753032Y-63674999D01*
X61753032Y-63674999D02*
X61753032Y-63560713D01*
X61753032Y-63560713D02*
X61810175Y-63389285D01*
X61810175Y-63389285D02*
X61867317Y-63332142D01*
X61867317Y-63332142D02*
X62267317Y-63332142D01*
X62267317Y-63332142D02*
X62267317Y-63560713D01*
D14*
X46346582Y-29727344D02*
X46346582Y-30698773D01*
X46346582Y-30698773D02*
X46289439Y-30813059D01*
X46289439Y-30813059D02*
X46232297Y-30870202D01*
X46232297Y-30870202D02*
X46118011Y-30927344D01*
X46118011Y-30927344D02*
X45889439Y-30927344D01*
X45889439Y-30927344D02*
X45775154Y-30870202D01*
X45775154Y-30870202D02*
X45718011Y-30813059D01*
X45718011Y-30813059D02*
X45660868Y-30698773D01*
X45660868Y-30698773D02*
X45660868Y-29727344D01*
X45146582Y-30870202D02*
X44975154Y-30927344D01*
X44975154Y-30927344D02*
X44689439Y-30927344D01*
X44689439Y-30927344D02*
X44575154Y-30870202D01*
X44575154Y-30870202D02*
X44518011Y-30813059D01*
X44518011Y-30813059D02*
X44460868Y-30698773D01*
X44460868Y-30698773D02*
X44460868Y-30584487D01*
X44460868Y-30584487D02*
X44518011Y-30470202D01*
X44518011Y-30470202D02*
X44575154Y-30413059D01*
X44575154Y-30413059D02*
X44689439Y-30355916D01*
X44689439Y-30355916D02*
X44918011Y-30298773D01*
X44918011Y-30298773D02*
X45032296Y-30241630D01*
X45032296Y-30241630D02*
X45089439Y-30184487D01*
X45089439Y-30184487D02*
X45146582Y-30070202D01*
X45146582Y-30070202D02*
X45146582Y-29955916D01*
X45146582Y-29955916D02*
X45089439Y-29841630D01*
X45089439Y-29841630D02*
X45032296Y-29784487D01*
X45032296Y-29784487D02*
X44918011Y-29727344D01*
X44918011Y-29727344D02*
X44632296Y-29727344D01*
X44632296Y-29727344D02*
X44460868Y-29784487D01*
X43546582Y-30298773D02*
X43375154Y-30355916D01*
X43375154Y-30355916D02*
X43318011Y-30413059D01*
X43318011Y-30413059D02*
X43260868Y-30527344D01*
X43260868Y-30527344D02*
X43260868Y-30698773D01*
X43260868Y-30698773D02*
X43318011Y-30813059D01*
X43318011Y-30813059D02*
X43375154Y-30870202D01*
X43375154Y-30870202D02*
X43489439Y-30927344D01*
X43489439Y-30927344D02*
X43946582Y-30927344D01*
X43946582Y-30927344D02*
X43946582Y-29727344D01*
X43946582Y-29727344D02*
X43546582Y-29727344D01*
X43546582Y-29727344D02*
X43432297Y-29784487D01*
X43432297Y-29784487D02*
X43375154Y-29841630D01*
X43375154Y-29841630D02*
X43318011Y-29955916D01*
X43318011Y-29955916D02*
X43318011Y-30070202D01*
X43318011Y-30070202D02*
X43375154Y-30184487D01*
X43375154Y-30184487D02*
X43432297Y-30241630D01*
X43432297Y-30241630D02*
X43546582Y-30298773D01*
X43546582Y-30298773D02*
X43946582Y-30298773D01*
D15*
X51142857Y-47363479D02*
X51142857Y-46063479D01*
X51142857Y-46063479D02*
X50709523Y-46992051D01*
X50709523Y-46992051D02*
X50276190Y-46063479D01*
X50276190Y-46063479D02*
X50276190Y-47363479D01*
X49719047Y-46992051D02*
X49100000Y-46992051D01*
X49842857Y-47363479D02*
X49409524Y-46063479D01*
X49409524Y-46063479D02*
X48976190Y-47363479D01*
X48295238Y-46063479D02*
X48047619Y-46063479D01*
X48047619Y-46063479D02*
X47923809Y-46125384D01*
X47923809Y-46125384D02*
X47800000Y-46249194D01*
X47800000Y-46249194D02*
X47738095Y-46496813D01*
X47738095Y-46496813D02*
X47738095Y-46930146D01*
X47738095Y-46930146D02*
X47800000Y-47177765D01*
X47800000Y-47177765D02*
X47923809Y-47301575D01*
X47923809Y-47301575D02*
X48047619Y-47363479D01*
X48047619Y-47363479D02*
X48295238Y-47363479D01*
X48295238Y-47363479D02*
X48419047Y-47301575D01*
X48419047Y-47301575D02*
X48542857Y-47177765D01*
X48542857Y-47177765D02*
X48604761Y-46930146D01*
X48604761Y-46930146D02*
X48604761Y-46496813D01*
X48604761Y-46496813D02*
X48542857Y-46249194D01*
X48542857Y-46249194D02*
X48419047Y-46125384D01*
X48419047Y-46125384D02*
X48295238Y-46063479D01*
X46252380Y-46992051D02*
X45633333Y-46992051D01*
X46376190Y-47363479D02*
X45942857Y-46063479D01*
X45942857Y-46063479D02*
X45509523Y-47363479D01*
X44828571Y-46063479D02*
X44704761Y-46063479D01*
X44704761Y-46063479D02*
X44580952Y-46125384D01*
X44580952Y-46125384D02*
X44519047Y-46187289D01*
X44519047Y-46187289D02*
X44457142Y-46311098D01*
X44457142Y-46311098D02*
X44395237Y-46558717D01*
X44395237Y-46558717D02*
X44395237Y-46868241D01*
X44395237Y-46868241D02*
X44457142Y-47115860D01*
X44457142Y-47115860D02*
X44519047Y-47239670D01*
X44519047Y-47239670D02*
X44580952Y-47301575D01*
X44580952Y-47301575D02*
X44704761Y-47363479D01*
X44704761Y-47363479D02*
X44828571Y-47363479D01*
X44828571Y-47363479D02*
X44952380Y-47301575D01*
X44952380Y-47301575D02*
X45014285Y-47239670D01*
X45014285Y-47239670D02*
X45076190Y-47115860D01*
X45076190Y-47115860D02*
X45138094Y-46868241D01*
X45138094Y-46868241D02*
X45138094Y-46558717D01*
X45138094Y-46558717D02*
X45076190Y-46311098D01*
X45076190Y-46311098D02*
X45014285Y-46187289D01*
X45014285Y-46187289D02*
X44952380Y-46125384D01*
X44952380Y-46125384D02*
X44828571Y-46063479D01*
D11*
X51019048Y-36810000D02*
X51400000Y-36810000D01*
X51400000Y-36810000D02*
X51400000Y-36010000D01*
X50333334Y-36810000D02*
X50790477Y-36810000D01*
X50561905Y-36810000D02*
X50561905Y-36010000D01*
X50561905Y-36010000D02*
X50638096Y-36124285D01*
X50638096Y-36124285D02*
X50714286Y-36200476D01*
X50714286Y-36200476D02*
X50790477Y-36238571D01*
X49838095Y-36010000D02*
X49761905Y-36010000D01*
X49761905Y-36010000D02*
X49685714Y-36048095D01*
X49685714Y-36048095D02*
X49647619Y-36086190D01*
X49647619Y-36086190D02*
X49609524Y-36162381D01*
X49609524Y-36162381D02*
X49571429Y-36314762D01*
X49571429Y-36314762D02*
X49571429Y-36505238D01*
X49571429Y-36505238D02*
X49609524Y-36657619D01*
X49609524Y-36657619D02*
X49647619Y-36733809D01*
X49647619Y-36733809D02*
X49685714Y-36771905D01*
X49685714Y-36771905D02*
X49761905Y-36810000D01*
X49761905Y-36810000D02*
X49838095Y-36810000D01*
X49838095Y-36810000D02*
X49914286Y-36771905D01*
X49914286Y-36771905D02*
X49952381Y-36733809D01*
X49952381Y-36733809D02*
X49990476Y-36657619D01*
X49990476Y-36657619D02*
X50028572Y-36505238D01*
X50028572Y-36505238D02*
X50028572Y-36314762D01*
X50028572Y-36314762D02*
X49990476Y-36162381D01*
X49990476Y-36162381D02*
X49952381Y-36086190D01*
X49952381Y-36086190D02*
X49914286Y-36048095D01*
X49914286Y-36048095D02*
X49838095Y-36010000D01*
X48809524Y-36810000D02*
X49266667Y-36810000D01*
X49038095Y-36810000D02*
X49038095Y-36010000D01*
X49038095Y-36010000D02*
X49114286Y-36124285D01*
X49114286Y-36124285D02*
X49190476Y-36200476D01*
X49190476Y-36200476D02*
X49266667Y-36238571D01*
X28562000Y-66653810D02*
X27990572Y-66653810D01*
X27990572Y-66653810D02*
X27876286Y-66691905D01*
X27876286Y-66691905D02*
X27800096Y-66768096D01*
X27800096Y-66768096D02*
X27762000Y-66882381D01*
X27762000Y-66882381D02*
X27762000Y-66958572D01*
X28562000Y-65891905D02*
X28562000Y-66272857D01*
X28562000Y-66272857D02*
X28181048Y-66310953D01*
X28181048Y-66310953D02*
X28219143Y-66272857D01*
X28219143Y-66272857D02*
X28257238Y-66196667D01*
X28257238Y-66196667D02*
X28257238Y-66006191D01*
X28257238Y-66006191D02*
X28219143Y-65930000D01*
X28219143Y-65930000D02*
X28181048Y-65891905D01*
X28181048Y-65891905D02*
X28104857Y-65853810D01*
X28104857Y-65853810D02*
X27914381Y-65853810D01*
X27914381Y-65853810D02*
X27838191Y-65891905D01*
X27838191Y-65891905D02*
X27800096Y-65930000D01*
X27800096Y-65930000D02*
X27762000Y-66006191D01*
X27762000Y-66006191D02*
X27762000Y-66196667D01*
X27762000Y-66196667D02*
X27800096Y-66272857D01*
X27800096Y-66272857D02*
X27838191Y-66310953D01*
X28562000Y-65358571D02*
X28562000Y-65282381D01*
X28562000Y-65282381D02*
X28523905Y-65206190D01*
X28523905Y-65206190D02*
X28485810Y-65168095D01*
X28485810Y-65168095D02*
X28409619Y-65130000D01*
X28409619Y-65130000D02*
X28257238Y-65091905D01*
X28257238Y-65091905D02*
X28066762Y-65091905D01*
X28066762Y-65091905D02*
X27914381Y-65130000D01*
X27914381Y-65130000D02*
X27838191Y-65168095D01*
X27838191Y-65168095D02*
X27800096Y-65206190D01*
X27800096Y-65206190D02*
X27762000Y-65282381D01*
X27762000Y-65282381D02*
X27762000Y-65358571D01*
X27762000Y-65358571D02*
X27800096Y-65434762D01*
X27800096Y-65434762D02*
X27838191Y-65472857D01*
X27838191Y-65472857D02*
X27914381Y-65510952D01*
X27914381Y-65510952D02*
X28066762Y-65549048D01*
X28066762Y-65549048D02*
X28257238Y-65549048D01*
X28257238Y-65549048D02*
X28409619Y-65510952D01*
X28409619Y-65510952D02*
X28485810Y-65472857D01*
X28485810Y-65472857D02*
X28523905Y-65434762D01*
X28523905Y-65434762D02*
X28562000Y-65358571D01*
X27762000Y-64330000D02*
X27762000Y-64787143D01*
X27762000Y-64558571D02*
X28562000Y-64558571D01*
X28562000Y-64558571D02*
X28447715Y-64634762D01*
X28447715Y-64634762D02*
X28371524Y-64710952D01*
X28371524Y-64710952D02*
X28333429Y-64787143D01*
X38850000Y-42690476D02*
X38202381Y-42690476D01*
X38202381Y-42690476D02*
X38126191Y-42652381D01*
X38126191Y-42652381D02*
X38088096Y-42614286D01*
X38088096Y-42614286D02*
X38050000Y-42538095D01*
X38050000Y-42538095D02*
X38050000Y-42385714D01*
X38050000Y-42385714D02*
X38088096Y-42309524D01*
X38088096Y-42309524D02*
X38126191Y-42271429D01*
X38126191Y-42271429D02*
X38202381Y-42233333D01*
X38202381Y-42233333D02*
X38850000Y-42233333D01*
X38850000Y-41471429D02*
X38850000Y-41852381D01*
X38850000Y-41852381D02*
X38469048Y-41890477D01*
X38469048Y-41890477D02*
X38507143Y-41852381D01*
X38507143Y-41852381D02*
X38545238Y-41776191D01*
X38545238Y-41776191D02*
X38545238Y-41585715D01*
X38545238Y-41585715D02*
X38507143Y-41509524D01*
X38507143Y-41509524D02*
X38469048Y-41471429D01*
X38469048Y-41471429D02*
X38392857Y-41433334D01*
X38392857Y-41433334D02*
X38202381Y-41433334D01*
X38202381Y-41433334D02*
X38126191Y-41471429D01*
X38126191Y-41471429D02*
X38088096Y-41509524D01*
X38088096Y-41509524D02*
X38050000Y-41585715D01*
X38050000Y-41585715D02*
X38050000Y-41776191D01*
X38050000Y-41776191D02*
X38088096Y-41852381D01*
X38088096Y-41852381D02*
X38126191Y-41890477D01*
X38850000Y-40938095D02*
X38850000Y-40861905D01*
X38850000Y-40861905D02*
X38811905Y-40785714D01*
X38811905Y-40785714D02*
X38773810Y-40747619D01*
X38773810Y-40747619D02*
X38697619Y-40709524D01*
X38697619Y-40709524D02*
X38545238Y-40671429D01*
X38545238Y-40671429D02*
X38354762Y-40671429D01*
X38354762Y-40671429D02*
X38202381Y-40709524D01*
X38202381Y-40709524D02*
X38126191Y-40747619D01*
X38126191Y-40747619D02*
X38088096Y-40785714D01*
X38088096Y-40785714D02*
X38050000Y-40861905D01*
X38050000Y-40861905D02*
X38050000Y-40938095D01*
X38050000Y-40938095D02*
X38088096Y-41014286D01*
X38088096Y-41014286D02*
X38126191Y-41052381D01*
X38126191Y-41052381D02*
X38202381Y-41090476D01*
X38202381Y-41090476D02*
X38354762Y-41128572D01*
X38354762Y-41128572D02*
X38545238Y-41128572D01*
X38545238Y-41128572D02*
X38697619Y-41090476D01*
X38697619Y-41090476D02*
X38773810Y-41052381D01*
X38773810Y-41052381D02*
X38811905Y-41014286D01*
X38811905Y-41014286D02*
X38850000Y-40938095D01*
X38050000Y-39909524D02*
X38050000Y-40366667D01*
X38050000Y-40138095D02*
X38850000Y-40138095D01*
X38850000Y-40138095D02*
X38735715Y-40214286D01*
X38735715Y-40214286D02*
X38659524Y-40290476D01*
X38659524Y-40290476D02*
X38621429Y-40366667D01*
X41455000Y-34170000D02*
X40807381Y-34170000D01*
X40807381Y-34170000D02*
X40731191Y-34131905D01*
X40731191Y-34131905D02*
X40693096Y-34093810D01*
X40693096Y-34093810D02*
X40655000Y-34017619D01*
X40655000Y-34017619D02*
X40655000Y-33865238D01*
X40655000Y-33865238D02*
X40693096Y-33789048D01*
X40693096Y-33789048D02*
X40731191Y-33750953D01*
X40731191Y-33750953D02*
X40807381Y-33712857D01*
X40807381Y-33712857D02*
X41455000Y-33712857D01*
X41378810Y-33370001D02*
X41416905Y-33331905D01*
X41416905Y-33331905D02*
X41455000Y-33255715D01*
X41455000Y-33255715D02*
X41455000Y-33065239D01*
X41455000Y-33065239D02*
X41416905Y-32989048D01*
X41416905Y-32989048D02*
X41378810Y-32950953D01*
X41378810Y-32950953D02*
X41302619Y-32912858D01*
X41302619Y-32912858D02*
X41226429Y-32912858D01*
X41226429Y-32912858D02*
X41112143Y-32950953D01*
X41112143Y-32950953D02*
X40655000Y-33408096D01*
X40655000Y-33408096D02*
X40655000Y-32912858D01*
X41455000Y-32417619D02*
X41455000Y-32341429D01*
X41455000Y-32341429D02*
X41416905Y-32265238D01*
X41416905Y-32265238D02*
X41378810Y-32227143D01*
X41378810Y-32227143D02*
X41302619Y-32189048D01*
X41302619Y-32189048D02*
X41150238Y-32150953D01*
X41150238Y-32150953D02*
X40959762Y-32150953D01*
X40959762Y-32150953D02*
X40807381Y-32189048D01*
X40807381Y-32189048D02*
X40731191Y-32227143D01*
X40731191Y-32227143D02*
X40693096Y-32265238D01*
X40693096Y-32265238D02*
X40655000Y-32341429D01*
X40655000Y-32341429D02*
X40655000Y-32417619D01*
X40655000Y-32417619D02*
X40693096Y-32493810D01*
X40693096Y-32493810D02*
X40731191Y-32531905D01*
X40731191Y-32531905D02*
X40807381Y-32570000D01*
X40807381Y-32570000D02*
X40959762Y-32608096D01*
X40959762Y-32608096D02*
X41150238Y-32608096D01*
X41150238Y-32608096D02*
X41302619Y-32570000D01*
X41302619Y-32570000D02*
X41378810Y-32531905D01*
X41378810Y-32531905D02*
X41416905Y-32493810D01*
X41416905Y-32493810D02*
X41455000Y-32417619D01*
X41378810Y-31846191D02*
X41416905Y-31808095D01*
X41416905Y-31808095D02*
X41455000Y-31731905D01*
X41455000Y-31731905D02*
X41455000Y-31541429D01*
X41455000Y-31541429D02*
X41416905Y-31465238D01*
X41416905Y-31465238D02*
X41378810Y-31427143D01*
X41378810Y-31427143D02*
X41302619Y-31389048D01*
X41302619Y-31389048D02*
X41226429Y-31389048D01*
X41226429Y-31389048D02*
X41112143Y-31427143D01*
X41112143Y-31427143D02*
X40655000Y-31884286D01*
X40655000Y-31884286D02*
X40655000Y-31389048D01*
X33885000Y-51009524D02*
X33313572Y-51009524D01*
X33313572Y-51009524D02*
X33199286Y-51047619D01*
X33199286Y-51047619D02*
X33123096Y-51123810D01*
X33123096Y-51123810D02*
X33085000Y-51238095D01*
X33085000Y-51238095D02*
X33085000Y-51314286D01*
X33885000Y-50704762D02*
X33885000Y-50209524D01*
X33885000Y-50209524D02*
X33580238Y-50476190D01*
X33580238Y-50476190D02*
X33580238Y-50361905D01*
X33580238Y-50361905D02*
X33542143Y-50285714D01*
X33542143Y-50285714D02*
X33504048Y-50247619D01*
X33504048Y-50247619D02*
X33427857Y-50209524D01*
X33427857Y-50209524D02*
X33237381Y-50209524D01*
X33237381Y-50209524D02*
X33161191Y-50247619D01*
X33161191Y-50247619D02*
X33123096Y-50285714D01*
X33123096Y-50285714D02*
X33085000Y-50361905D01*
X33085000Y-50361905D02*
X33085000Y-50590476D01*
X33085000Y-50590476D02*
X33123096Y-50666667D01*
X33123096Y-50666667D02*
X33161191Y-50704762D01*
X33885000Y-49714285D02*
X33885000Y-49638095D01*
X33885000Y-49638095D02*
X33846905Y-49561904D01*
X33846905Y-49561904D02*
X33808810Y-49523809D01*
X33808810Y-49523809D02*
X33732619Y-49485714D01*
X33732619Y-49485714D02*
X33580238Y-49447619D01*
X33580238Y-49447619D02*
X33389762Y-49447619D01*
X33389762Y-49447619D02*
X33237381Y-49485714D01*
X33237381Y-49485714D02*
X33161191Y-49523809D01*
X33161191Y-49523809D02*
X33123096Y-49561904D01*
X33123096Y-49561904D02*
X33085000Y-49638095D01*
X33085000Y-49638095D02*
X33085000Y-49714285D01*
X33085000Y-49714285D02*
X33123096Y-49790476D01*
X33123096Y-49790476D02*
X33161191Y-49828571D01*
X33161191Y-49828571D02*
X33237381Y-49866666D01*
X33237381Y-49866666D02*
X33389762Y-49904762D01*
X33389762Y-49904762D02*
X33580238Y-49904762D01*
X33580238Y-49904762D02*
X33732619Y-49866666D01*
X33732619Y-49866666D02*
X33808810Y-49828571D01*
X33808810Y-49828571D02*
X33846905Y-49790476D01*
X33846905Y-49790476D02*
X33885000Y-49714285D01*
X33085000Y-48685714D02*
X33085000Y-49142857D01*
X33085000Y-48914285D02*
X33885000Y-48914285D01*
X33885000Y-48914285D02*
X33770715Y-48990476D01*
X33770715Y-48990476D02*
X33694524Y-49066666D01*
X33694524Y-49066666D02*
X33656429Y-49142857D01*
X75333810Y-45885000D02*
X75333810Y-46456428D01*
X75333810Y-46456428D02*
X75371905Y-46570714D01*
X75371905Y-46570714D02*
X75448096Y-46646905D01*
X75448096Y-46646905D02*
X75562381Y-46685000D01*
X75562381Y-46685000D02*
X75638572Y-46685000D01*
X74533810Y-46685000D02*
X74990953Y-46685000D01*
X74762381Y-46685000D02*
X74762381Y-45885000D01*
X74762381Y-45885000D02*
X74838572Y-45999285D01*
X74838572Y-45999285D02*
X74914762Y-46075476D01*
X74914762Y-46075476D02*
X74990953Y-46113571D01*
X74038571Y-45885000D02*
X73962381Y-45885000D01*
X73962381Y-45885000D02*
X73886190Y-45923095D01*
X73886190Y-45923095D02*
X73848095Y-45961190D01*
X73848095Y-45961190D02*
X73810000Y-46037381D01*
X73810000Y-46037381D02*
X73771905Y-46189762D01*
X73771905Y-46189762D02*
X73771905Y-46380238D01*
X73771905Y-46380238D02*
X73810000Y-46532619D01*
X73810000Y-46532619D02*
X73848095Y-46608809D01*
X73848095Y-46608809D02*
X73886190Y-46646905D01*
X73886190Y-46646905D02*
X73962381Y-46685000D01*
X73962381Y-46685000D02*
X74038571Y-46685000D01*
X74038571Y-46685000D02*
X74114762Y-46646905D01*
X74114762Y-46646905D02*
X74152857Y-46608809D01*
X74152857Y-46608809D02*
X74190952Y-46532619D01*
X74190952Y-46532619D02*
X74229048Y-46380238D01*
X74229048Y-46380238D02*
X74229048Y-46189762D01*
X74229048Y-46189762D02*
X74190952Y-46037381D01*
X74190952Y-46037381D02*
X74152857Y-45961190D01*
X74152857Y-45961190D02*
X74114762Y-45923095D01*
X74114762Y-45923095D02*
X74038571Y-45885000D01*
X73467143Y-45961190D02*
X73429047Y-45923095D01*
X73429047Y-45923095D02*
X73352857Y-45885000D01*
X73352857Y-45885000D02*
X73162381Y-45885000D01*
X73162381Y-45885000D02*
X73086190Y-45923095D01*
X73086190Y-45923095D02*
X73048095Y-45961190D01*
X73048095Y-45961190D02*
X73010000Y-46037381D01*
X73010000Y-46037381D02*
X73010000Y-46113571D01*
X73010000Y-46113571D02*
X73048095Y-46227857D01*
X73048095Y-46227857D02*
X73505238Y-46685000D01*
X73505238Y-46685000D02*
X73010000Y-46685000D01*
X60998571Y-41613095D02*
X61074761Y-41575000D01*
X61074761Y-41575000D02*
X61150952Y-41498810D01*
X61150952Y-41498810D02*
X61265238Y-41384524D01*
X61265238Y-41384524D02*
X61341428Y-41346429D01*
X61341428Y-41346429D02*
X61417619Y-41346429D01*
X61379523Y-41536905D02*
X61455714Y-41498810D01*
X61455714Y-41498810D02*
X61531904Y-41422619D01*
X61531904Y-41422619D02*
X61570000Y-41270238D01*
X61570000Y-41270238D02*
X61570000Y-41003571D01*
X61570000Y-41003571D02*
X61531904Y-40851190D01*
X61531904Y-40851190D02*
X61455714Y-40775000D01*
X61455714Y-40775000D02*
X61379523Y-40736905D01*
X61379523Y-40736905D02*
X61227142Y-40736905D01*
X61227142Y-40736905D02*
X61150952Y-40775000D01*
X61150952Y-40775000D02*
X61074761Y-40851190D01*
X61074761Y-40851190D02*
X61036666Y-41003571D01*
X61036666Y-41003571D02*
X61036666Y-41270238D01*
X61036666Y-41270238D02*
X61074761Y-41422619D01*
X61074761Y-41422619D02*
X61150952Y-41498810D01*
X61150952Y-41498810D02*
X61227142Y-41536905D01*
X61227142Y-41536905D02*
X61379523Y-41536905D01*
X60274762Y-41536905D02*
X60731905Y-41536905D01*
X60503333Y-41536905D02*
X60503333Y-40736905D01*
X60503333Y-40736905D02*
X60579524Y-40851190D01*
X60579524Y-40851190D02*
X60655714Y-40927381D01*
X60655714Y-40927381D02*
X60731905Y-40965476D01*
X59779523Y-40736905D02*
X59703333Y-40736905D01*
X59703333Y-40736905D02*
X59627142Y-40775000D01*
X59627142Y-40775000D02*
X59589047Y-40813095D01*
X59589047Y-40813095D02*
X59550952Y-40889286D01*
X59550952Y-40889286D02*
X59512857Y-41041667D01*
X59512857Y-41041667D02*
X59512857Y-41232143D01*
X59512857Y-41232143D02*
X59550952Y-41384524D01*
X59550952Y-41384524D02*
X59589047Y-41460714D01*
X59589047Y-41460714D02*
X59627142Y-41498810D01*
X59627142Y-41498810D02*
X59703333Y-41536905D01*
X59703333Y-41536905D02*
X59779523Y-41536905D01*
X59779523Y-41536905D02*
X59855714Y-41498810D01*
X59855714Y-41498810D02*
X59893809Y-41460714D01*
X59893809Y-41460714D02*
X59931904Y-41384524D01*
X59931904Y-41384524D02*
X59970000Y-41232143D01*
X59970000Y-41232143D02*
X59970000Y-41041667D01*
X59970000Y-41041667D02*
X59931904Y-40889286D01*
X59931904Y-40889286D02*
X59893809Y-40813095D01*
X59893809Y-40813095D02*
X59855714Y-40775000D01*
X59855714Y-40775000D02*
X59779523Y-40736905D01*
X58750952Y-41536905D02*
X59208095Y-41536905D01*
X58979523Y-41536905D02*
X58979523Y-40736905D01*
X58979523Y-40736905D02*
X59055714Y-40851190D01*
X59055714Y-40851190D02*
X59131904Y-40927381D01*
X59131904Y-40927381D02*
X59208095Y-40965476D01*
X62350000Y-39960952D02*
X61702381Y-39960952D01*
X61702381Y-39960952D02*
X61626191Y-39922857D01*
X61626191Y-39922857D02*
X61588096Y-39884762D01*
X61588096Y-39884762D02*
X61550000Y-39808571D01*
X61550000Y-39808571D02*
X61550000Y-39656190D01*
X61550000Y-39656190D02*
X61588096Y-39580000D01*
X61588096Y-39580000D02*
X61626191Y-39541905D01*
X61626191Y-39541905D02*
X61702381Y-39503809D01*
X61702381Y-39503809D02*
X62350000Y-39503809D01*
X61550000Y-38703810D02*
X61550000Y-39160953D01*
X61550000Y-38932381D02*
X62350000Y-38932381D01*
X62350000Y-38932381D02*
X62235715Y-39008572D01*
X62235715Y-39008572D02*
X62159524Y-39084762D01*
X62159524Y-39084762D02*
X62121429Y-39160953D01*
X62350000Y-38208571D02*
X62350000Y-38132381D01*
X62350000Y-38132381D02*
X62311905Y-38056190D01*
X62311905Y-38056190D02*
X62273810Y-38018095D01*
X62273810Y-38018095D02*
X62197619Y-37980000D01*
X62197619Y-37980000D02*
X62045238Y-37941905D01*
X62045238Y-37941905D02*
X61854762Y-37941905D01*
X61854762Y-37941905D02*
X61702381Y-37980000D01*
X61702381Y-37980000D02*
X61626191Y-38018095D01*
X61626191Y-38018095D02*
X61588096Y-38056190D01*
X61588096Y-38056190D02*
X61550000Y-38132381D01*
X61550000Y-38132381D02*
X61550000Y-38208571D01*
X61550000Y-38208571D02*
X61588096Y-38284762D01*
X61588096Y-38284762D02*
X61626191Y-38322857D01*
X61626191Y-38322857D02*
X61702381Y-38360952D01*
X61702381Y-38360952D02*
X61854762Y-38399048D01*
X61854762Y-38399048D02*
X62045238Y-38399048D01*
X62045238Y-38399048D02*
X62197619Y-38360952D01*
X62197619Y-38360952D02*
X62273810Y-38322857D01*
X62273810Y-38322857D02*
X62311905Y-38284762D01*
X62311905Y-38284762D02*
X62350000Y-38208571D01*
X62350000Y-37675238D02*
X62350000Y-37180000D01*
X62350000Y-37180000D02*
X62045238Y-37446666D01*
X62045238Y-37446666D02*
X62045238Y-37332381D01*
X62045238Y-37332381D02*
X62007143Y-37256190D01*
X62007143Y-37256190D02*
X61969048Y-37218095D01*
X61969048Y-37218095D02*
X61892857Y-37180000D01*
X61892857Y-37180000D02*
X61702381Y-37180000D01*
X61702381Y-37180000D02*
X61626191Y-37218095D01*
X61626191Y-37218095D02*
X61588096Y-37256190D01*
X61588096Y-37256190D02*
X61550000Y-37332381D01*
X61550000Y-37332381D02*
X61550000Y-37560952D01*
X61550000Y-37560952D02*
X61588096Y-37637143D01*
X61588096Y-37637143D02*
X61626191Y-37675238D01*
X49840000Y-32621428D02*
X50640000Y-32621428D01*
X50640000Y-32621428D02*
X50640000Y-32430952D01*
X50640000Y-32430952D02*
X50601905Y-32316666D01*
X50601905Y-32316666D02*
X50525715Y-32240476D01*
X50525715Y-32240476D02*
X50449524Y-32202381D01*
X50449524Y-32202381D02*
X50297143Y-32164285D01*
X50297143Y-32164285D02*
X50182857Y-32164285D01*
X50182857Y-32164285D02*
X50030476Y-32202381D01*
X50030476Y-32202381D02*
X49954286Y-32240476D01*
X49954286Y-32240476D02*
X49878096Y-32316666D01*
X49878096Y-32316666D02*
X49840000Y-32430952D01*
X49840000Y-32430952D02*
X49840000Y-32621428D01*
X49840000Y-31402381D02*
X49840000Y-31859524D01*
X49840000Y-31630952D02*
X50640000Y-31630952D01*
X50640000Y-31630952D02*
X50525715Y-31707143D01*
X50525715Y-31707143D02*
X50449524Y-31783333D01*
X50449524Y-31783333D02*
X50411429Y-31859524D01*
X50640000Y-30907142D02*
X50640000Y-30830952D01*
X50640000Y-30830952D02*
X50601905Y-30754761D01*
X50601905Y-30754761D02*
X50563810Y-30716666D01*
X50563810Y-30716666D02*
X50487619Y-30678571D01*
X50487619Y-30678571D02*
X50335238Y-30640476D01*
X50335238Y-30640476D02*
X50144762Y-30640476D01*
X50144762Y-30640476D02*
X49992381Y-30678571D01*
X49992381Y-30678571D02*
X49916191Y-30716666D01*
X49916191Y-30716666D02*
X49878096Y-30754761D01*
X49878096Y-30754761D02*
X49840000Y-30830952D01*
X49840000Y-30830952D02*
X49840000Y-30907142D01*
X49840000Y-30907142D02*
X49878096Y-30983333D01*
X49878096Y-30983333D02*
X49916191Y-31021428D01*
X49916191Y-31021428D02*
X49992381Y-31059523D01*
X49992381Y-31059523D02*
X50144762Y-31097619D01*
X50144762Y-31097619D02*
X50335238Y-31097619D01*
X50335238Y-31097619D02*
X50487619Y-31059523D01*
X50487619Y-31059523D02*
X50563810Y-31021428D01*
X50563810Y-31021428D02*
X50601905Y-30983333D01*
X50601905Y-30983333D02*
X50640000Y-30907142D01*
X49840000Y-29878571D02*
X49840000Y-30335714D01*
X49840000Y-30107142D02*
X50640000Y-30107142D01*
X50640000Y-30107142D02*
X50525715Y-30183333D01*
X50525715Y-30183333D02*
X50449524Y-30259523D01*
X50449524Y-30259523D02*
X50411429Y-30335714D01*
X38650000Y-60505476D02*
X38002381Y-60505476D01*
X38002381Y-60505476D02*
X37926191Y-60467381D01*
X37926191Y-60467381D02*
X37888096Y-60429286D01*
X37888096Y-60429286D02*
X37850000Y-60353095D01*
X37850000Y-60353095D02*
X37850000Y-60200714D01*
X37850000Y-60200714D02*
X37888096Y-60124524D01*
X37888096Y-60124524D02*
X37926191Y-60086429D01*
X37926191Y-60086429D02*
X38002381Y-60048333D01*
X38002381Y-60048333D02*
X38650000Y-60048333D01*
X38650000Y-59286429D02*
X38650000Y-59667381D01*
X38650000Y-59667381D02*
X38269048Y-59705477D01*
X38269048Y-59705477D02*
X38307143Y-59667381D01*
X38307143Y-59667381D02*
X38345238Y-59591191D01*
X38345238Y-59591191D02*
X38345238Y-59400715D01*
X38345238Y-59400715D02*
X38307143Y-59324524D01*
X38307143Y-59324524D02*
X38269048Y-59286429D01*
X38269048Y-59286429D02*
X38192857Y-59248334D01*
X38192857Y-59248334D02*
X38002381Y-59248334D01*
X38002381Y-59248334D02*
X37926191Y-59286429D01*
X37926191Y-59286429D02*
X37888096Y-59324524D01*
X37888096Y-59324524D02*
X37850000Y-59400715D01*
X37850000Y-59400715D02*
X37850000Y-59591191D01*
X37850000Y-59591191D02*
X37888096Y-59667381D01*
X37888096Y-59667381D02*
X37926191Y-59705477D01*
X38650000Y-58753095D02*
X38650000Y-58676905D01*
X38650000Y-58676905D02*
X38611905Y-58600714D01*
X38611905Y-58600714D02*
X38573810Y-58562619D01*
X38573810Y-58562619D02*
X38497619Y-58524524D01*
X38497619Y-58524524D02*
X38345238Y-58486429D01*
X38345238Y-58486429D02*
X38154762Y-58486429D01*
X38154762Y-58486429D02*
X38002381Y-58524524D01*
X38002381Y-58524524D02*
X37926191Y-58562619D01*
X37926191Y-58562619D02*
X37888096Y-58600714D01*
X37888096Y-58600714D02*
X37850000Y-58676905D01*
X37850000Y-58676905D02*
X37850000Y-58753095D01*
X37850000Y-58753095D02*
X37888096Y-58829286D01*
X37888096Y-58829286D02*
X37926191Y-58867381D01*
X37926191Y-58867381D02*
X38002381Y-58905476D01*
X38002381Y-58905476D02*
X38154762Y-58943572D01*
X38154762Y-58943572D02*
X38345238Y-58943572D01*
X38345238Y-58943572D02*
X38497619Y-58905476D01*
X38497619Y-58905476D02*
X38573810Y-58867381D01*
X38573810Y-58867381D02*
X38611905Y-58829286D01*
X38611905Y-58829286D02*
X38650000Y-58753095D01*
X38573810Y-58181667D02*
X38611905Y-58143571D01*
X38611905Y-58143571D02*
X38650000Y-58067381D01*
X38650000Y-58067381D02*
X38650000Y-57876905D01*
X38650000Y-57876905D02*
X38611905Y-57800714D01*
X38611905Y-57800714D02*
X38573810Y-57762619D01*
X38573810Y-57762619D02*
X38497619Y-57724524D01*
X38497619Y-57724524D02*
X38421429Y-57724524D01*
X38421429Y-57724524D02*
X38307143Y-57762619D01*
X38307143Y-57762619D02*
X37850000Y-58219762D01*
X37850000Y-58219762D02*
X37850000Y-57724524D01*
X68731904Y-61074285D02*
X69112857Y-61340952D01*
X68731904Y-61531428D02*
X69531904Y-61531428D01*
X69531904Y-61531428D02*
X69531904Y-61226666D01*
X69531904Y-61226666D02*
X69493809Y-61150476D01*
X69493809Y-61150476D02*
X69455714Y-61112381D01*
X69455714Y-61112381D02*
X69379523Y-61074285D01*
X69379523Y-61074285D02*
X69265238Y-61074285D01*
X69265238Y-61074285D02*
X69189047Y-61112381D01*
X69189047Y-61112381D02*
X69150952Y-61150476D01*
X69150952Y-61150476D02*
X69112857Y-61226666D01*
X69112857Y-61226666D02*
X69112857Y-61531428D01*
X69265238Y-60388571D02*
X68731904Y-60388571D01*
X69570000Y-60579047D02*
X68998571Y-60769524D01*
X68998571Y-60769524D02*
X68998571Y-60274285D01*
X69531904Y-59817142D02*
X69531904Y-59740952D01*
X69531904Y-59740952D02*
X69493809Y-59664761D01*
X69493809Y-59664761D02*
X69455714Y-59626666D01*
X69455714Y-59626666D02*
X69379523Y-59588571D01*
X69379523Y-59588571D02*
X69227142Y-59550476D01*
X69227142Y-59550476D02*
X69036666Y-59550476D01*
X69036666Y-59550476D02*
X68884285Y-59588571D01*
X68884285Y-59588571D02*
X68808095Y-59626666D01*
X68808095Y-59626666D02*
X68770000Y-59664761D01*
X68770000Y-59664761D02*
X68731904Y-59740952D01*
X68731904Y-59740952D02*
X68731904Y-59817142D01*
X68731904Y-59817142D02*
X68770000Y-59893333D01*
X68770000Y-59893333D02*
X68808095Y-59931428D01*
X68808095Y-59931428D02*
X68884285Y-59969523D01*
X68884285Y-59969523D02*
X69036666Y-60007619D01*
X69036666Y-60007619D02*
X69227142Y-60007619D01*
X69227142Y-60007619D02*
X69379523Y-59969523D01*
X69379523Y-59969523D02*
X69455714Y-59931428D01*
X69455714Y-59931428D02*
X69493809Y-59893333D01*
X69493809Y-59893333D02*
X69531904Y-59817142D01*
X69455714Y-59245714D02*
X69493809Y-59207618D01*
X69493809Y-59207618D02*
X69531904Y-59131428D01*
X69531904Y-59131428D02*
X69531904Y-58940952D01*
X69531904Y-58940952D02*
X69493809Y-58864761D01*
X69493809Y-58864761D02*
X69455714Y-58826666D01*
X69455714Y-58826666D02*
X69379523Y-58788571D01*
X69379523Y-58788571D02*
X69303333Y-58788571D01*
X69303333Y-58788571D02*
X69189047Y-58826666D01*
X69189047Y-58826666D02*
X68731904Y-59283809D01*
X68731904Y-59283809D02*
X68731904Y-58788571D01*
X57938095Y-36456190D02*
X58014285Y-36418095D01*
X58014285Y-36418095D02*
X58090476Y-36341905D01*
X58090476Y-36341905D02*
X58204762Y-36227619D01*
X58204762Y-36227619D02*
X58280952Y-36189524D01*
X58280952Y-36189524D02*
X58357143Y-36189524D01*
X58319047Y-36380000D02*
X58395238Y-36341905D01*
X58395238Y-36341905D02*
X58471428Y-36265714D01*
X58471428Y-36265714D02*
X58509524Y-36113333D01*
X58509524Y-36113333D02*
X58509524Y-35846666D01*
X58509524Y-35846666D02*
X58471428Y-35694285D01*
X58471428Y-35694285D02*
X58395238Y-35618095D01*
X58395238Y-35618095D02*
X58319047Y-35580000D01*
X58319047Y-35580000D02*
X58166666Y-35580000D01*
X58166666Y-35580000D02*
X58090476Y-35618095D01*
X58090476Y-35618095D02*
X58014285Y-35694285D01*
X58014285Y-35694285D02*
X57976190Y-35846666D01*
X57976190Y-35846666D02*
X57976190Y-36113333D01*
X57976190Y-36113333D02*
X58014285Y-36265714D01*
X58014285Y-36265714D02*
X58090476Y-36341905D01*
X58090476Y-36341905D02*
X58166666Y-36380000D01*
X58166666Y-36380000D02*
X58319047Y-36380000D01*
X57252381Y-35580000D02*
X57633333Y-35580000D01*
X57633333Y-35580000D02*
X57671429Y-35960952D01*
X57671429Y-35960952D02*
X57633333Y-35922857D01*
X57633333Y-35922857D02*
X57557143Y-35884762D01*
X57557143Y-35884762D02*
X57366667Y-35884762D01*
X57366667Y-35884762D02*
X57290476Y-35922857D01*
X57290476Y-35922857D02*
X57252381Y-35960952D01*
X57252381Y-35960952D02*
X57214286Y-36037143D01*
X57214286Y-36037143D02*
X57214286Y-36227619D01*
X57214286Y-36227619D02*
X57252381Y-36303809D01*
X57252381Y-36303809D02*
X57290476Y-36341905D01*
X57290476Y-36341905D02*
X57366667Y-36380000D01*
X57366667Y-36380000D02*
X57557143Y-36380000D01*
X57557143Y-36380000D02*
X57633333Y-36341905D01*
X57633333Y-36341905D02*
X57671429Y-36303809D01*
X56719047Y-35580000D02*
X56642857Y-35580000D01*
X56642857Y-35580000D02*
X56566666Y-35618095D01*
X56566666Y-35618095D02*
X56528571Y-35656190D01*
X56528571Y-35656190D02*
X56490476Y-35732381D01*
X56490476Y-35732381D02*
X56452381Y-35884762D01*
X56452381Y-35884762D02*
X56452381Y-36075238D01*
X56452381Y-36075238D02*
X56490476Y-36227619D01*
X56490476Y-36227619D02*
X56528571Y-36303809D01*
X56528571Y-36303809D02*
X56566666Y-36341905D01*
X56566666Y-36341905D02*
X56642857Y-36380000D01*
X56642857Y-36380000D02*
X56719047Y-36380000D01*
X56719047Y-36380000D02*
X56795238Y-36341905D01*
X56795238Y-36341905D02*
X56833333Y-36303809D01*
X56833333Y-36303809D02*
X56871428Y-36227619D01*
X56871428Y-36227619D02*
X56909524Y-36075238D01*
X56909524Y-36075238D02*
X56909524Y-35884762D01*
X56909524Y-35884762D02*
X56871428Y-35732381D01*
X56871428Y-35732381D02*
X56833333Y-35656190D01*
X56833333Y-35656190D02*
X56795238Y-35618095D01*
X56795238Y-35618095D02*
X56719047Y-35580000D01*
X55690476Y-36380000D02*
X56147619Y-36380000D01*
X55919047Y-36380000D02*
X55919047Y-35580000D01*
X55919047Y-35580000D02*
X55995238Y-35694285D01*
X55995238Y-35694285D02*
X56071428Y-35770476D01*
X56071428Y-35770476D02*
X56147619Y-35808571D01*
X68189904Y-57987571D02*
X68989904Y-57987571D01*
X68989904Y-57987571D02*
X68418476Y-57720905D01*
X68418476Y-57720905D02*
X68989904Y-57454238D01*
X68989904Y-57454238D02*
X68189904Y-57454238D01*
X68189904Y-57073285D02*
X68989904Y-57073285D01*
X68189904Y-56616142D02*
X68647047Y-56959000D01*
X68989904Y-56616142D02*
X68532761Y-57073285D01*
X68723238Y-55930428D02*
X68189904Y-55930428D01*
X69028000Y-56120904D02*
X68456571Y-56311381D01*
X68456571Y-56311381D02*
X68456571Y-55816142D01*
X68989904Y-55358999D02*
X68989904Y-55282809D01*
X68989904Y-55282809D02*
X68951809Y-55206618D01*
X68951809Y-55206618D02*
X68913714Y-55168523D01*
X68913714Y-55168523D02*
X68837523Y-55130428D01*
X68837523Y-55130428D02*
X68685142Y-55092333D01*
X68685142Y-55092333D02*
X68494666Y-55092333D01*
X68494666Y-55092333D02*
X68342285Y-55130428D01*
X68342285Y-55130428D02*
X68266095Y-55168523D01*
X68266095Y-55168523D02*
X68228000Y-55206618D01*
X68228000Y-55206618D02*
X68189904Y-55282809D01*
X68189904Y-55282809D02*
X68189904Y-55358999D01*
X68189904Y-55358999D02*
X68228000Y-55435190D01*
X68228000Y-55435190D02*
X68266095Y-55473285D01*
X68266095Y-55473285D02*
X68342285Y-55511380D01*
X68342285Y-55511380D02*
X68494666Y-55549476D01*
X68494666Y-55549476D02*
X68685142Y-55549476D01*
X68685142Y-55549476D02*
X68837523Y-55511380D01*
X68837523Y-55511380D02*
X68913714Y-55473285D01*
X68913714Y-55473285D02*
X68951809Y-55435190D01*
X68951809Y-55435190D02*
X68989904Y-55358999D01*
X68189904Y-54330428D02*
X68189904Y-54787571D01*
X68189904Y-54558999D02*
X68989904Y-54558999D01*
X68989904Y-54558999D02*
X68875619Y-54635190D01*
X68875619Y-54635190D02*
X68799428Y-54711380D01*
X68799428Y-54711380D02*
X68761333Y-54787571D01*
X65350000Y-61695238D02*
X64778572Y-61695238D01*
X64778572Y-61695238D02*
X64664286Y-61733333D01*
X64664286Y-61733333D02*
X64588096Y-61809524D01*
X64588096Y-61809524D02*
X64550000Y-61923809D01*
X64550000Y-61923809D02*
X64550000Y-62000000D01*
X65273810Y-61352381D02*
X65311905Y-61314285D01*
X65311905Y-61314285D02*
X65350000Y-61238095D01*
X65350000Y-61238095D02*
X65350000Y-61047619D01*
X65350000Y-61047619D02*
X65311905Y-60971428D01*
X65311905Y-60971428D02*
X65273810Y-60933333D01*
X65273810Y-60933333D02*
X65197619Y-60895238D01*
X65197619Y-60895238D02*
X65121429Y-60895238D01*
X65121429Y-60895238D02*
X65007143Y-60933333D01*
X65007143Y-60933333D02*
X64550000Y-61390476D01*
X64550000Y-61390476D02*
X64550000Y-60895238D01*
X65350000Y-60399999D02*
X65350000Y-60323809D01*
X65350000Y-60323809D02*
X65311905Y-60247618D01*
X65311905Y-60247618D02*
X65273810Y-60209523D01*
X65273810Y-60209523D02*
X65197619Y-60171428D01*
X65197619Y-60171428D02*
X65045238Y-60133333D01*
X65045238Y-60133333D02*
X64854762Y-60133333D01*
X64854762Y-60133333D02*
X64702381Y-60171428D01*
X64702381Y-60171428D02*
X64626191Y-60209523D01*
X64626191Y-60209523D02*
X64588096Y-60247618D01*
X64588096Y-60247618D02*
X64550000Y-60323809D01*
X64550000Y-60323809D02*
X64550000Y-60399999D01*
X64550000Y-60399999D02*
X64588096Y-60476190D01*
X64588096Y-60476190D02*
X64626191Y-60514285D01*
X64626191Y-60514285D02*
X64702381Y-60552380D01*
X64702381Y-60552380D02*
X64854762Y-60590476D01*
X64854762Y-60590476D02*
X65045238Y-60590476D01*
X65045238Y-60590476D02*
X65197619Y-60552380D01*
X65197619Y-60552380D02*
X65273810Y-60514285D01*
X65273810Y-60514285D02*
X65311905Y-60476190D01*
X65311905Y-60476190D02*
X65350000Y-60399999D01*
X64550000Y-59371428D02*
X64550000Y-59828571D01*
X64550000Y-59599999D02*
X65350000Y-59599999D01*
X65350000Y-59599999D02*
X65235715Y-59676190D01*
X65235715Y-59676190D02*
X65159524Y-59752380D01*
X65159524Y-59752380D02*
X65121429Y-59828571D01*
X52650000Y-50150000D02*
X52002381Y-50150000D01*
X52002381Y-50150000D02*
X51926191Y-50111905D01*
X51926191Y-50111905D02*
X51888096Y-50073810D01*
X51888096Y-50073810D02*
X51850000Y-49997619D01*
X51850000Y-49997619D02*
X51850000Y-49845238D01*
X51850000Y-49845238D02*
X51888096Y-49769048D01*
X51888096Y-49769048D02*
X51926191Y-49730953D01*
X51926191Y-49730953D02*
X52002381Y-49692857D01*
X52002381Y-49692857D02*
X52650000Y-49692857D01*
X52573810Y-49350001D02*
X52611905Y-49311905D01*
X52611905Y-49311905D02*
X52650000Y-49235715D01*
X52650000Y-49235715D02*
X52650000Y-49045239D01*
X52650000Y-49045239D02*
X52611905Y-48969048D01*
X52611905Y-48969048D02*
X52573810Y-48930953D01*
X52573810Y-48930953D02*
X52497619Y-48892858D01*
X52497619Y-48892858D02*
X52421429Y-48892858D01*
X52421429Y-48892858D02*
X52307143Y-48930953D01*
X52307143Y-48930953D02*
X51850000Y-49388096D01*
X51850000Y-49388096D02*
X51850000Y-48892858D01*
X52650000Y-48397619D02*
X52650000Y-48321429D01*
X52650000Y-48321429D02*
X52611905Y-48245238D01*
X52611905Y-48245238D02*
X52573810Y-48207143D01*
X52573810Y-48207143D02*
X52497619Y-48169048D01*
X52497619Y-48169048D02*
X52345238Y-48130953D01*
X52345238Y-48130953D02*
X52154762Y-48130953D01*
X52154762Y-48130953D02*
X52002381Y-48169048D01*
X52002381Y-48169048D02*
X51926191Y-48207143D01*
X51926191Y-48207143D02*
X51888096Y-48245238D01*
X51888096Y-48245238D02*
X51850000Y-48321429D01*
X51850000Y-48321429D02*
X51850000Y-48397619D01*
X51850000Y-48397619D02*
X51888096Y-48473810D01*
X51888096Y-48473810D02*
X51926191Y-48511905D01*
X51926191Y-48511905D02*
X52002381Y-48550000D01*
X52002381Y-48550000D02*
X52154762Y-48588096D01*
X52154762Y-48588096D02*
X52345238Y-48588096D01*
X52345238Y-48588096D02*
X52497619Y-48550000D01*
X52497619Y-48550000D02*
X52573810Y-48511905D01*
X52573810Y-48511905D02*
X52611905Y-48473810D01*
X52611905Y-48473810D02*
X52650000Y-48397619D01*
X51850000Y-47369048D02*
X51850000Y-47826191D01*
X51850000Y-47597619D02*
X52650000Y-47597619D01*
X52650000Y-47597619D02*
X52535715Y-47673810D01*
X52535715Y-47673810D02*
X52459524Y-47750000D01*
X52459524Y-47750000D02*
X52421429Y-47826191D01*
X40797571Y-28890249D02*
X41597571Y-28890249D01*
X41597571Y-28890249D02*
X41597571Y-28699773D01*
X41597571Y-28699773D02*
X41559476Y-28585487D01*
X41559476Y-28585487D02*
X41483286Y-28509297D01*
X41483286Y-28509297D02*
X41407095Y-28471202D01*
X41407095Y-28471202D02*
X41254714Y-28433106D01*
X41254714Y-28433106D02*
X41140428Y-28433106D01*
X41140428Y-28433106D02*
X40988047Y-28471202D01*
X40988047Y-28471202D02*
X40911857Y-28509297D01*
X40911857Y-28509297D02*
X40835667Y-28585487D01*
X40835667Y-28585487D02*
X40797571Y-28699773D01*
X40797571Y-28699773D02*
X40797571Y-28890249D01*
X41597571Y-27709297D02*
X41597571Y-28090249D01*
X41597571Y-28090249D02*
X41216619Y-28128345D01*
X41216619Y-28128345D02*
X41254714Y-28090249D01*
X41254714Y-28090249D02*
X41292809Y-28014059D01*
X41292809Y-28014059D02*
X41292809Y-27823583D01*
X41292809Y-27823583D02*
X41254714Y-27747392D01*
X41254714Y-27747392D02*
X41216619Y-27709297D01*
X41216619Y-27709297D02*
X41140428Y-27671202D01*
X41140428Y-27671202D02*
X40949952Y-27671202D01*
X40949952Y-27671202D02*
X40873762Y-27709297D01*
X40873762Y-27709297D02*
X40835667Y-27747392D01*
X40835667Y-27747392D02*
X40797571Y-27823583D01*
X40797571Y-27823583D02*
X40797571Y-28014059D01*
X40797571Y-28014059D02*
X40835667Y-28090249D01*
X40835667Y-28090249D02*
X40873762Y-28128345D01*
X41597571Y-27175963D02*
X41597571Y-27099773D01*
X41597571Y-27099773D02*
X41559476Y-27023582D01*
X41559476Y-27023582D02*
X41521381Y-26985487D01*
X41521381Y-26985487D02*
X41445190Y-26947392D01*
X41445190Y-26947392D02*
X41292809Y-26909297D01*
X41292809Y-26909297D02*
X41102333Y-26909297D01*
X41102333Y-26909297D02*
X40949952Y-26947392D01*
X40949952Y-26947392D02*
X40873762Y-26985487D01*
X40873762Y-26985487D02*
X40835667Y-27023582D01*
X40835667Y-27023582D02*
X40797571Y-27099773D01*
X40797571Y-27099773D02*
X40797571Y-27175963D01*
X40797571Y-27175963D02*
X40835667Y-27252154D01*
X40835667Y-27252154D02*
X40873762Y-27290249D01*
X40873762Y-27290249D02*
X40949952Y-27328344D01*
X40949952Y-27328344D02*
X41102333Y-27366440D01*
X41102333Y-27366440D02*
X41292809Y-27366440D01*
X41292809Y-27366440D02*
X41445190Y-27328344D01*
X41445190Y-27328344D02*
X41521381Y-27290249D01*
X41521381Y-27290249D02*
X41559476Y-27252154D01*
X41559476Y-27252154D02*
X41597571Y-27175963D01*
X40797571Y-26147392D02*
X40797571Y-26604535D01*
X40797571Y-26375963D02*
X41597571Y-26375963D01*
X41597571Y-26375963D02*
X41483286Y-26452154D01*
X41483286Y-26452154D02*
X41407095Y-26528344D01*
X41407095Y-26528344D02*
X41369000Y-26604535D01*
X65923858Y-27447392D02*
X65923858Y-26647392D01*
X65923858Y-26647392D02*
X65733382Y-26647392D01*
X65733382Y-26647392D02*
X65619096Y-26685487D01*
X65619096Y-26685487D02*
X65542906Y-26761677D01*
X65542906Y-26761677D02*
X65504811Y-26837868D01*
X65504811Y-26837868D02*
X65466715Y-26990249D01*
X65466715Y-26990249D02*
X65466715Y-27104535D01*
X65466715Y-27104535D02*
X65504811Y-27256916D01*
X65504811Y-27256916D02*
X65542906Y-27333106D01*
X65542906Y-27333106D02*
X65619096Y-27409297D01*
X65619096Y-27409297D02*
X65733382Y-27447392D01*
X65733382Y-27447392D02*
X65923858Y-27447392D01*
X64742906Y-26647392D02*
X65123858Y-26647392D01*
X65123858Y-26647392D02*
X65161954Y-27028344D01*
X65161954Y-27028344D02*
X65123858Y-26990249D01*
X65123858Y-26990249D02*
X65047668Y-26952154D01*
X65047668Y-26952154D02*
X64857192Y-26952154D01*
X64857192Y-26952154D02*
X64781001Y-26990249D01*
X64781001Y-26990249D02*
X64742906Y-27028344D01*
X64742906Y-27028344D02*
X64704811Y-27104535D01*
X64704811Y-27104535D02*
X64704811Y-27295011D01*
X64704811Y-27295011D02*
X64742906Y-27371201D01*
X64742906Y-27371201D02*
X64781001Y-27409297D01*
X64781001Y-27409297D02*
X64857192Y-27447392D01*
X64857192Y-27447392D02*
X65047668Y-27447392D01*
X65047668Y-27447392D02*
X65123858Y-27409297D01*
X65123858Y-27409297D02*
X65161954Y-27371201D01*
X64209572Y-26647392D02*
X64133382Y-26647392D01*
X64133382Y-26647392D02*
X64057191Y-26685487D01*
X64057191Y-26685487D02*
X64019096Y-26723582D01*
X64019096Y-26723582D02*
X63981001Y-26799773D01*
X63981001Y-26799773D02*
X63942906Y-26952154D01*
X63942906Y-26952154D02*
X63942906Y-27142630D01*
X63942906Y-27142630D02*
X63981001Y-27295011D01*
X63981001Y-27295011D02*
X64019096Y-27371201D01*
X64019096Y-27371201D02*
X64057191Y-27409297D01*
X64057191Y-27409297D02*
X64133382Y-27447392D01*
X64133382Y-27447392D02*
X64209572Y-27447392D01*
X64209572Y-27447392D02*
X64285763Y-27409297D01*
X64285763Y-27409297D02*
X64323858Y-27371201D01*
X64323858Y-27371201D02*
X64361953Y-27295011D01*
X64361953Y-27295011D02*
X64400049Y-27142630D01*
X64400049Y-27142630D02*
X64400049Y-26952154D01*
X64400049Y-26952154D02*
X64361953Y-26799773D01*
X64361953Y-26799773D02*
X64323858Y-26723582D01*
X64323858Y-26723582D02*
X64285763Y-26685487D01*
X64285763Y-26685487D02*
X64209572Y-26647392D01*
X63638144Y-26723582D02*
X63600048Y-26685487D01*
X63600048Y-26685487D02*
X63523858Y-26647392D01*
X63523858Y-26647392D02*
X63333382Y-26647392D01*
X63333382Y-26647392D02*
X63257191Y-26685487D01*
X63257191Y-26685487D02*
X63219096Y-26723582D01*
X63219096Y-26723582D02*
X63181001Y-26799773D01*
X63181001Y-26799773D02*
X63181001Y-26875963D01*
X63181001Y-26875963D02*
X63219096Y-26990249D01*
X63219096Y-26990249D02*
X63676239Y-27447392D01*
X63676239Y-27447392D02*
X63181001Y-27447392D01*
X74207143Y-56244761D02*
X74169048Y-56282857D01*
X74169048Y-56282857D02*
X74130952Y-56397142D01*
X74130952Y-56397142D02*
X74130952Y-56473333D01*
X74130952Y-56473333D02*
X74169048Y-56587619D01*
X74169048Y-56587619D02*
X74245238Y-56663809D01*
X74245238Y-56663809D02*
X74321428Y-56701904D01*
X74321428Y-56701904D02*
X74473809Y-56740000D01*
X74473809Y-56740000D02*
X74588095Y-56740000D01*
X74588095Y-56740000D02*
X74740476Y-56701904D01*
X74740476Y-56701904D02*
X74816667Y-56663809D01*
X74816667Y-56663809D02*
X74892857Y-56587619D01*
X74892857Y-56587619D02*
X74930952Y-56473333D01*
X74930952Y-56473333D02*
X74930952Y-56397142D01*
X74930952Y-56397142D02*
X74892857Y-56282857D01*
X74892857Y-56282857D02*
X74854762Y-56244761D01*
X74664286Y-55559047D02*
X74130952Y-55559047D01*
X74969048Y-55749523D02*
X74397619Y-55940000D01*
X74397619Y-55940000D02*
X74397619Y-55444761D01*
X74930952Y-54987618D02*
X74930952Y-54911428D01*
X74930952Y-54911428D02*
X74892857Y-54835237D01*
X74892857Y-54835237D02*
X74854762Y-54797142D01*
X74854762Y-54797142D02*
X74778571Y-54759047D01*
X74778571Y-54759047D02*
X74626190Y-54720952D01*
X74626190Y-54720952D02*
X74435714Y-54720952D01*
X74435714Y-54720952D02*
X74283333Y-54759047D01*
X74283333Y-54759047D02*
X74207143Y-54797142D01*
X74207143Y-54797142D02*
X74169048Y-54835237D01*
X74169048Y-54835237D02*
X74130952Y-54911428D01*
X74130952Y-54911428D02*
X74130952Y-54987618D01*
X74130952Y-54987618D02*
X74169048Y-55063809D01*
X74169048Y-55063809D02*
X74207143Y-55101904D01*
X74207143Y-55101904D02*
X74283333Y-55139999D01*
X74283333Y-55139999D02*
X74435714Y-55178095D01*
X74435714Y-55178095D02*
X74626190Y-55178095D01*
X74626190Y-55178095D02*
X74778571Y-55139999D01*
X74778571Y-55139999D02*
X74854762Y-55101904D01*
X74854762Y-55101904D02*
X74892857Y-55063809D01*
X74892857Y-55063809D02*
X74930952Y-54987618D01*
X74930952Y-54035237D02*
X74930952Y-54187618D01*
X74930952Y-54187618D02*
X74892857Y-54263809D01*
X74892857Y-54263809D02*
X74854762Y-54301904D01*
X74854762Y-54301904D02*
X74740476Y-54378094D01*
X74740476Y-54378094D02*
X74588095Y-54416190D01*
X74588095Y-54416190D02*
X74283333Y-54416190D01*
X74283333Y-54416190D02*
X74207143Y-54378094D01*
X74207143Y-54378094D02*
X74169048Y-54339999D01*
X74169048Y-54339999D02*
X74130952Y-54263809D01*
X74130952Y-54263809D02*
X74130952Y-54111428D01*
X74130952Y-54111428D02*
X74169048Y-54035237D01*
X74169048Y-54035237D02*
X74207143Y-53997142D01*
X74207143Y-53997142D02*
X74283333Y-53959047D01*
X74283333Y-53959047D02*
X74473809Y-53959047D01*
X74473809Y-53959047D02*
X74550000Y-53997142D01*
X74550000Y-53997142D02*
X74588095Y-54035237D01*
X74588095Y-54035237D02*
X74626190Y-54111428D01*
X74626190Y-54111428D02*
X74626190Y-54263809D01*
X74626190Y-54263809D02*
X74588095Y-54339999D01*
X74588095Y-54339999D02*
X74550000Y-54378094D01*
X74550000Y-54378094D02*
X74473809Y-54416190D01*
X44080000Y-25619524D02*
X43508572Y-25619524D01*
X43508572Y-25619524D02*
X43394286Y-25657619D01*
X43394286Y-25657619D02*
X43318096Y-25733810D01*
X43318096Y-25733810D02*
X43280000Y-25848095D01*
X43280000Y-25848095D02*
X43280000Y-25924286D01*
X43280000Y-24819524D02*
X43280000Y-25276667D01*
X43280000Y-25048095D02*
X44080000Y-25048095D01*
X44080000Y-25048095D02*
X43965715Y-25124286D01*
X43965715Y-25124286D02*
X43889524Y-25200476D01*
X43889524Y-25200476D02*
X43851429Y-25276667D01*
X44080000Y-24324285D02*
X44080000Y-24248095D01*
X44080000Y-24248095D02*
X44041905Y-24171904D01*
X44041905Y-24171904D02*
X44003810Y-24133809D01*
X44003810Y-24133809D02*
X43927619Y-24095714D01*
X43927619Y-24095714D02*
X43775238Y-24057619D01*
X43775238Y-24057619D02*
X43584762Y-24057619D01*
X43584762Y-24057619D02*
X43432381Y-24095714D01*
X43432381Y-24095714D02*
X43356191Y-24133809D01*
X43356191Y-24133809D02*
X43318096Y-24171904D01*
X43318096Y-24171904D02*
X43280000Y-24248095D01*
X43280000Y-24248095D02*
X43280000Y-24324285D01*
X43280000Y-24324285D02*
X43318096Y-24400476D01*
X43318096Y-24400476D02*
X43356191Y-24438571D01*
X43356191Y-24438571D02*
X43432381Y-24476666D01*
X43432381Y-24476666D02*
X43584762Y-24514762D01*
X43584762Y-24514762D02*
X43775238Y-24514762D01*
X43775238Y-24514762D02*
X43927619Y-24476666D01*
X43927619Y-24476666D02*
X44003810Y-24438571D01*
X44003810Y-24438571D02*
X44041905Y-24400476D01*
X44041905Y-24400476D02*
X44080000Y-24324285D01*
X43280000Y-23295714D02*
X43280000Y-23752857D01*
X43280000Y-23524285D02*
X44080000Y-23524285D01*
X44080000Y-23524285D02*
X43965715Y-23600476D01*
X43965715Y-23600476D02*
X43889524Y-23676666D01*
X43889524Y-23676666D02*
X43851429Y-23752857D01*
%TO.C,R113*%
X51020000Y-41653641D02*
X51020000Y-41346359D01*
X51780000Y-41653641D02*
X51780000Y-41346359D01*
%TO.C,C201*%
X36740580Y-68390000D02*
X36459420Y-68390000D01*
X36740580Y-69410000D02*
X36459420Y-69410000D01*
%TO.C,R110*%
X70596359Y-41870000D02*
X70903641Y-41870000D01*
X70596359Y-42630000D02*
X70903641Y-42630000D01*
%TO.C,R504*%
X61770000Y-29380641D02*
X61770000Y-29073359D01*
X62530000Y-29380641D02*
X62530000Y-29073359D01*
%TO.C,C503*%
X32892164Y-58390000D02*
X33107836Y-58390000D01*
X32892164Y-59110000D02*
X33107836Y-59110000D01*
%TO.C,R102*%
X51520000Y-32596359D02*
X51520000Y-32903641D01*
X52280000Y-32596359D02*
X52280000Y-32903641D01*
%TO.C,L101*%
X51890000Y-37470000D02*
X54110000Y-37470000D01*
X54110000Y-35350000D02*
X51890000Y-35350000D01*
%TO.C,R206*%
X46283641Y-36770000D02*
X45976359Y-36770000D01*
X46283641Y-37530000D02*
X45976359Y-37530000D01*
%TO.C,C505*%
X64259420Y-30590000D02*
X64540580Y-30590000D01*
X64259420Y-31610000D02*
X64540580Y-31610000D01*
%TO.C,R109*%
X64096359Y-41620000D02*
X64403641Y-41620000D01*
X64096359Y-42380000D02*
X64403641Y-42380000D01*
%TO.C,J501*%
X29162000Y-63930000D02*
X29162000Y-63230000D01*
X29512000Y-63580000D02*
X28812000Y-63580000D01*
%TO.C,R503*%
X59886359Y-31058000D02*
X60193641Y-31058000D01*
X59886359Y-31818000D02*
X60193641Y-31818000D01*
%TO.C,R205*%
X61320000Y-51763641D02*
X61320000Y-51456359D01*
X62080000Y-51763641D02*
X62080000Y-51456359D01*
%TO.C,C504*%
X35240000Y-58257836D02*
X35240000Y-58042164D01*
X35960000Y-58257836D02*
X35960000Y-58042164D01*
%TO.C,R201*%
X39170000Y-68203641D02*
X39170000Y-67896359D01*
X39930000Y-68203641D02*
X39930000Y-67896359D01*
%TO.C,U501*%
X33990000Y-39690000D02*
X33990000Y-40165000D01*
X33990000Y-42435000D02*
X33990000Y-42910000D01*
X33990000Y-42910000D02*
X34465000Y-42910000D01*
X34465000Y-39690000D02*
X33990000Y-39690000D01*
X36735000Y-42910000D02*
X37210000Y-42910000D01*
X37210000Y-39690000D02*
X36735000Y-39690000D01*
X37210000Y-40165000D02*
X37210000Y-39690000D01*
X37210000Y-42910000D02*
X37210000Y-42435000D01*
X33480000Y-42050000D02*
X33150000Y-41810000D01*
X33150000Y-42290000D01*
X33480000Y-42050000D01*
G36*
X33480000Y-42050000D02*
G01*
X33150000Y-42290000D01*
X33150000Y-41810000D01*
X33480000Y-42050000D01*
G37*
%TO.C,D304*%
D16*
X29242500Y-41200000D02*
G75*
G02*
X29057500Y-41200000I-92500J0D01*
G01*
X29057500Y-41200000D02*
G75*
G02*
X29242500Y-41200000I92500J0D01*
G01*
%TO.C,U202*%
D11*
X39390000Y-35290000D02*
X39390000Y-35765000D01*
X39390000Y-38035000D02*
X39390000Y-38510000D01*
X39390000Y-38510000D02*
X39865000Y-38510000D01*
X39865000Y-35290000D02*
X39390000Y-35290000D01*
X42135000Y-38510000D02*
X42610000Y-38510000D01*
X42610000Y-35290000D02*
X42135000Y-35290000D01*
X42610000Y-35765000D02*
X42610000Y-35290000D01*
X42610000Y-38510000D02*
X42610000Y-38035000D01*
X38860000Y-37650000D02*
X38530000Y-37410000D01*
X38530000Y-37890000D01*
X38860000Y-37650000D01*
G36*
X38860000Y-37650000D02*
G01*
X38530000Y-37890000D01*
X38530000Y-37410000D01*
X38860000Y-37650000D01*
G37*
%TO.C,U303*%
X40565000Y-45654432D02*
X40565000Y-47460000D01*
X42835000Y-47460000D02*
X42835000Y-45240000D01*
X40560000Y-45360000D02*
X40370000Y-45220000D01*
X40370000Y-45500000D01*
X40560000Y-45360000D01*
G36*
X40560000Y-45360000D02*
G01*
X40370000Y-45500000D01*
X40370000Y-45220000D01*
X40560000Y-45360000D01*
G37*
%TO.C,J301*%
X37850000Y-44400000D02*
X36950000Y-44400000D01*
X37850000Y-55600000D02*
X36950000Y-55600000D01*
D17*
X39860000Y-54250000D02*
G75*
G02*
X39740000Y-54250000I-60000J0D01*
G01*
X39740000Y-54250000D02*
G75*
G02*
X39860000Y-54250000I60000J0D01*
G01*
%TO.C,J102*%
D11*
X66650000Y-44500000D02*
X67700000Y-44500000D01*
X66650000Y-47000000D02*
X66650000Y-44500000D01*
X70700000Y-48970000D02*
X67820000Y-48970000D01*
X70820000Y-44500000D02*
X70820000Y-43510000D01*
X71870000Y-44500000D02*
X70820000Y-44500000D01*
X71870000Y-47000000D02*
X71870000Y-44500000D01*
%TO.C,Q101*%
X64340000Y-37615000D02*
X64340000Y-37665000D01*
X64340000Y-38785000D02*
X64340000Y-39565000D01*
X64340000Y-40685000D02*
X64340000Y-40735000D01*
X64340000Y-40735000D02*
X65860000Y-40735000D01*
X65860000Y-37615000D02*
X64340000Y-37615000D01*
X65860000Y-38615000D02*
X65860000Y-37615000D01*
X65860000Y-40735000D02*
X65860000Y-39735000D01*
X63800000Y-39555000D02*
X64040000Y-39225000D01*
X63560000Y-39225000D01*
X63800000Y-39555000D01*
G36*
X63800000Y-39555000D02*
G01*
X63560000Y-39225000D01*
X64040000Y-39225000D01*
X63800000Y-39555000D01*
G37*
%TO.C,R112*%
X53620000Y-41346359D02*
X53620000Y-41653641D01*
X54380000Y-41346359D02*
X54380000Y-41653641D01*
%TO.C,U103*%
X63004432Y-36585000D02*
X64810000Y-36585000D01*
X64810000Y-34315000D02*
X62590000Y-34315000D01*
X62710000Y-36590000D02*
X62570000Y-36780000D01*
X62850000Y-36780000D01*
X62710000Y-36590000D01*
G36*
X62850000Y-36780000D02*
G01*
X62570000Y-36780000D01*
X62710000Y-36590000D01*
X62850000Y-36780000D01*
G37*
%TO.C,D101*%
X52290000Y-29490000D02*
X56050000Y-29490000D01*
X52290000Y-31510000D02*
X52290000Y-29490000D01*
X52290000Y-31510000D02*
X56050000Y-31510000D01*
%TO.C,R207*%
X38782000Y-34193641D02*
X38782000Y-33886359D01*
X39542000Y-34193641D02*
X39542000Y-33886359D01*
%TO.C,C205*%
X40837836Y-39440000D02*
X40622164Y-39440000D01*
X40837836Y-40160000D02*
X40622164Y-40160000D01*
%TO.C,U502*%
X32790000Y-59540000D02*
X32790000Y-59715000D01*
X32790000Y-62585000D02*
X32790000Y-62760000D01*
X32790000Y-62760000D02*
X36010000Y-62760000D01*
X36010000Y-59540000D02*
X32790000Y-59540000D01*
X36010000Y-59715000D02*
X36010000Y-59540000D01*
X36010000Y-62760000D02*
X36010000Y-62585000D01*
X36560000Y-59710000D02*
X36800000Y-59380000D01*
X36320000Y-59380000D01*
X36560000Y-59710000D01*
G36*
X36560000Y-59710000D02*
G01*
X36320000Y-59380000D01*
X36800000Y-59380000D01*
X36560000Y-59710000D01*
G37*
%TO.C,R501*%
X38150500Y-27740258D02*
X38150500Y-27265742D01*
X39195500Y-27740258D02*
X39195500Y-27265742D01*
%TO.C,R301*%
X48985000Y-50143641D02*
X48985000Y-49836359D01*
X49745000Y-50143641D02*
X49745000Y-49836359D01*
%TO.C,R308*%
X61446359Y-67970000D02*
X61753641Y-67970000D01*
X61446359Y-68730000D02*
X61753641Y-68730000D01*
%TO.C,LS501*%
X21910000Y-56095000D02*
X21910000Y-43927500D01*
X22184500Y-42750000D02*
X28010000Y-42750000D01*
X22520000Y-58450000D02*
X28010000Y-58450000D01*
X27160000Y-57550000D02*
X27960000Y-57550000D01*
X27560000Y-57950000D02*
X27560000Y-57150000D01*
%TO.C,R402*%
X70010000Y-59813641D02*
X70010000Y-59506359D01*
X70770000Y-59813641D02*
X70770000Y-59506359D01*
%TO.C,R212*%
X62708000Y-33143641D02*
X62708000Y-32836359D01*
X63468000Y-33143641D02*
X63468000Y-32836359D01*
%TO.C,R403*%
X61706359Y-53940000D02*
X62013641Y-53940000D01*
X61706359Y-54700000D02*
X62013641Y-54700000D01*
%TO.C,C106*%
X49920000Y-38859420D02*
X49920000Y-39140580D01*
X50940000Y-38859420D02*
X50940000Y-39140580D01*
%TO.C,Q501*%
X58040000Y-28040000D02*
X58040000Y-29560000D01*
X58040000Y-29560000D02*
X58090000Y-29560000D01*
X59040000Y-28040000D02*
X58040000Y-28040000D01*
X59210000Y-29560000D02*
X59990000Y-29560000D01*
X61110000Y-29560000D02*
X61160000Y-29560000D01*
X61160000Y-28040000D02*
X60160000Y-28040000D01*
X61160000Y-29560000D02*
X61160000Y-28040000D01*
X59980000Y-30100000D02*
X59650000Y-29860000D01*
X59650000Y-30340000D01*
X59980000Y-30100000D01*
G36*
X59980000Y-30100000D02*
G01*
X59650000Y-30340000D01*
X59650000Y-29860000D01*
X59980000Y-30100000D01*
G37*
%TO.C,R202*%
X60020000Y-51846359D02*
X60020000Y-52153641D01*
X60780000Y-51846359D02*
X60780000Y-52153641D01*
%TO.C,C202*%
X39142164Y-69240000D02*
X39357836Y-69240000D01*
X39142164Y-69960000D02*
X39357836Y-69960000D01*
%TO.C,MK401*%
X69708000Y-54204000D02*
X69708000Y-57624000D01*
X70008000Y-57924000D02*
X72588000Y-57924000D01*
X72588000Y-54204000D02*
X69708000Y-54204000D01*
X72588000Y-57924000D02*
X72588000Y-54204000D01*
X69708000Y-57924000D02*
X69428000Y-57924000D01*
X69708000Y-58204000D01*
X69708000Y-57924000D01*
G36*
X69708000Y-58204000D02*
G01*
X69428000Y-57924000D01*
X69708000Y-57924000D01*
X69708000Y-58204000D01*
G37*
%TO.C,C111*%
X52640000Y-43592164D02*
X52640000Y-43807836D01*
X53360000Y-43592164D02*
X53360000Y-43807836D01*
%TO.C,J201*%
X63930000Y-67620000D02*
X63930000Y-68255000D01*
X63930000Y-68255000D02*
X64565000Y-68255000D01*
%TO.C,U201*%
X40800000Y-51750000D02*
X42300000Y-51750000D01*
X40800000Y-52750000D02*
X40800000Y-51750000D01*
X59200000Y-51750000D02*
X57700000Y-51750000D01*
X59200000Y-51750000D02*
X59200000Y-52750000D01*
%TO.C,R502*%
X56104500Y-26164258D02*
X56104500Y-25689742D01*
X57149500Y-26164258D02*
X57149500Y-25689742D01*
%TO.C,C305*%
X41590000Y-43615836D02*
X41590000Y-43400164D01*
X42310000Y-43615836D02*
X42310000Y-43400164D01*
%TO.C,R214*%
X57820000Y-46546359D02*
X57820000Y-46853641D01*
X58580000Y-46546359D02*
X58580000Y-46853641D01*
%TO.C,C407*%
X71230000Y-59412164D02*
X71230000Y-59627836D01*
X71950000Y-59412164D02*
X71950000Y-59627836D01*
%TO.C,C107*%
X48380000Y-38859420D02*
X48380000Y-39140580D01*
X49400000Y-38859420D02*
X49400000Y-39140580D01*
%TO.C,R108*%
X67350000Y-41362064D02*
X67350000Y-39907936D01*
X69170000Y-41362064D02*
X69170000Y-39907936D01*
%TO.C,U104*%
X51380000Y-38500000D02*
X51380000Y-38800000D01*
X51380000Y-39500000D02*
X51380000Y-39200000D01*
X54620000Y-38500000D02*
X54620000Y-38800000D01*
X54620000Y-39500000D02*
X54620000Y-39200000D01*
D18*
X54780000Y-40430000D02*
G75*
G02*
X54680000Y-40430000I-50000J0D01*
G01*
X54680000Y-40430000D02*
G75*
G02*
X54780000Y-40430000I50000J0D01*
G01*
%TO.C,D501*%
D11*
X41771818Y-22845198D02*
X42201860Y-23965494D01*
%TO.C,R114*%
X52120000Y-41346359D02*
X52120000Y-41653641D01*
X52880000Y-41346359D02*
X52880000Y-41653641D01*
%TO.C,R101*%
X48020000Y-30346359D02*
X48020000Y-30653641D01*
X48780000Y-30346359D02*
X48780000Y-30653641D01*
%TO.C,C105*%
X55060000Y-38859420D02*
X55060000Y-39140580D01*
X56080000Y-38859420D02*
X56080000Y-39140580D01*
%TO.C,R302*%
X47715000Y-50143641D02*
X47715000Y-49836359D01*
X48475000Y-50143641D02*
X48475000Y-49836359D01*
%TO.C,D502*%
X62055860Y-24314506D02*
X61625818Y-25434802D01*
%TO.C,C406*%
X72940000Y-59107836D02*
X72940000Y-58892164D01*
X73660000Y-59107836D02*
X73660000Y-58892164D01*
%TO.C,R209*%
X37220000Y-63446359D02*
X37220000Y-63753641D01*
X37980000Y-63446359D02*
X37980000Y-63753641D01*
%TO.C,J101*%
X45300000Y-22050000D02*
X45300000Y-21641500D01*
X45300000Y-25950000D02*
X45300000Y-23950000D01*
X54700000Y-22050000D02*
X54700000Y-21641500D01*
X54700000Y-25950000D02*
X54700000Y-23950000D01*
%TO.C,C104*%
X60940000Y-35057836D02*
X60940000Y-34842164D01*
X61660000Y-35057836D02*
X61660000Y-34842164D01*
%TO.C,C203*%
X37940000Y-67157836D02*
X37940000Y-66942164D01*
X38660000Y-67157836D02*
X38660000Y-66942164D01*
%TO.C,R111*%
X54720000Y-41653641D02*
X54720000Y-41346359D01*
X55480000Y-41653641D02*
X55480000Y-41346359D01*
%TO.C,R213*%
X59060000Y-46546359D02*
X59060000Y-46853641D01*
X59820000Y-46546359D02*
X59820000Y-46853641D01*
%TD*%
%LPC*%
D19*
%TO.C,H3*%
X32322000Y-67678000D03*
%TD*%
D20*
%TO.C,H2*%
X68579000Y-33272000D03*
%TD*%
%TO.C,H1*%
X31421000Y-33272000D03*
%TD*%
D21*
%TO.C,R113*%
X51400000Y-42010000D03*
X51400000Y-40990000D03*
%TD*%
D22*
%TO.C,C201*%
X37375000Y-68900000D03*
X35825000Y-68900000D03*
%TD*%
D23*
%TO.C,TP14*%
X72300000Y-62080000D03*
%TD*%
D24*
%TO.C,TP6*%
X55500000Y-33050000D03*
%TD*%
%TO.C,TP3*%
X58800000Y-43900000D03*
%TD*%
D25*
%TO.C,R110*%
X70240000Y-42250000D03*
X71260000Y-42250000D03*
%TD*%
D21*
%TO.C,R504*%
X62150000Y-29737000D03*
X62150000Y-28717000D03*
%TD*%
D26*
%TO.C,C503*%
X32520000Y-58750000D03*
X33480000Y-58750000D03*
%TD*%
D27*
%TO.C,R102*%
X51900000Y-32240000D03*
X51900000Y-33260000D03*
%TD*%
D28*
%TO.C,L101*%
X53725000Y-36410000D03*
X52275000Y-36410000D03*
%TD*%
D29*
%TO.C,R206*%
X46640000Y-37150000D03*
X45620000Y-37150000D03*
%TD*%
D30*
%TO.C,C505*%
X63625000Y-31100000D03*
X65175000Y-31100000D03*
%TD*%
D25*
%TO.C,R109*%
X63740000Y-42000000D03*
X64760000Y-42000000D03*
%TD*%
D19*
%TO.C,FID6*%
X69000000Y-68200000D03*
%TD*%
D31*
%TO.C,J501*%
X29162000Y-62330000D03*
X29162000Y-59830000D03*
%TD*%
D25*
%TO.C,R503*%
X59530000Y-31438000D03*
X60550000Y-31438000D03*
%TD*%
D24*
%TO.C,TP2*%
X56000000Y-43900000D03*
%TD*%
D21*
%TO.C,R205*%
X61700000Y-52120000D03*
X61700000Y-51100000D03*
%TD*%
D32*
%TO.C,J303*%
X27600000Y-41200000D03*
%TD*%
D19*
%TO.C,FID5*%
X71000000Y-37000000D03*
%TD*%
D33*
%TO.C,C504*%
X35600000Y-58630000D03*
X35600000Y-57670000D03*
%TD*%
D23*
%TO.C,TP8*%
X61600000Y-49500000D03*
%TD*%
%TO.C,TP9*%
X56000000Y-49500000D03*
%TD*%
%TO.C,TP13*%
X43600000Y-42800000D03*
%TD*%
%TO.C,TP7*%
X64300000Y-49500000D03*
%TD*%
D21*
%TO.C,R201*%
X39550000Y-68560000D03*
X39550000Y-67540000D03*
%TD*%
D24*
%TO.C,TP16*%
X64300000Y-46700000D03*
%TD*%
D34*
%TO.C,U501*%
X34162500Y-42050000D03*
X34162500Y-41550000D03*
X34162500Y-41050000D03*
X34162500Y-40550000D03*
D35*
X34850000Y-39862500D03*
X35350000Y-39862500D03*
X35850000Y-39862500D03*
X36350000Y-39862500D03*
D34*
X37037500Y-40550000D03*
X37037500Y-41050000D03*
X37037500Y-41550000D03*
X37037500Y-42050000D03*
D35*
X36350000Y-42737500D03*
X35850000Y-42737500D03*
X35350000Y-42737500D03*
X34850000Y-42737500D03*
D36*
X35600000Y-41300000D03*
%TD*%
D24*
%TO.C,TP4*%
X61600000Y-43900000D03*
%TD*%
D37*
%TO.C,D304*%
X29600000Y-41200000D03*
X30300000Y-41200000D03*
%TD*%
D38*
%TO.C,U202*%
X39562500Y-37650000D03*
X39562500Y-37150000D03*
X39562500Y-36650000D03*
X39562500Y-36150000D03*
D39*
X40250000Y-35462500D03*
X40750000Y-35462500D03*
X41250000Y-35462500D03*
X41750000Y-35462500D03*
D38*
X42437500Y-36150000D03*
X42437500Y-36650000D03*
X42437500Y-37150000D03*
X42437500Y-37650000D03*
D39*
X41750000Y-38337500D03*
X41250000Y-38337500D03*
X40750000Y-38337500D03*
X40250000Y-38337500D03*
D40*
X41000000Y-36900000D03*
%TD*%
D23*
%TO.C,TP15*%
X72350000Y-50930000D03*
%TD*%
D41*
%TO.C,U303*%
X40950000Y-45387500D03*
X41450000Y-45387500D03*
X41950000Y-45387500D03*
X42450000Y-45387500D03*
X42450000Y-47312500D03*
X41950000Y-47312500D03*
X41450000Y-47312500D03*
X40950000Y-47312500D03*
D42*
X41700000Y-46350000D03*
%TD*%
D43*
%TO.C,J301*%
X38850000Y-54250000D03*
X38850000Y-53750000D03*
X38850000Y-53250000D03*
X38850000Y-52750000D03*
X38850000Y-52250000D03*
X38850000Y-51750000D03*
X38850000Y-51250000D03*
X38850000Y-50750000D03*
X38850000Y-50250000D03*
X38850000Y-49750000D03*
X38850000Y-49250000D03*
X38850000Y-48750000D03*
X38850000Y-48250000D03*
X38850000Y-47750000D03*
X38850000Y-47250000D03*
X38850000Y-46750000D03*
X38850000Y-46250000D03*
X38850000Y-45750000D03*
D44*
X36350000Y-55250000D03*
X36350000Y-44750000D03*
%TD*%
D45*
%TO.C,J102*%
X70260000Y-44285000D03*
X69260000Y-44285000D03*
X68260000Y-44285000D03*
D46*
X71560000Y-48160000D03*
X66960000Y-48160000D03*
%TD*%
D47*
%TO.C,Q101*%
X64162500Y-40125000D03*
X64162500Y-38225000D03*
X66037500Y-39175000D03*
%TD*%
D27*
%TO.C,R112*%
X54000000Y-40990000D03*
X54000000Y-42010000D03*
%TD*%
D48*
%TO.C,U103*%
X62712500Y-36200000D03*
X62712500Y-35700000D03*
X62712500Y-35200000D03*
X62712500Y-34700000D03*
X64687500Y-34700000D03*
X64687500Y-35200000D03*
X64687500Y-35700000D03*
X64687500Y-36200000D03*
D49*
X63700000Y-35450000D03*
%TD*%
D50*
%TO.C,D101*%
X53200000Y-30500000D03*
X56100000Y-30500000D03*
%TD*%
D21*
%TO.C,R207*%
X39162000Y-34550000D03*
X39162000Y-33530000D03*
%TD*%
D51*
%TO.C,C205*%
X41210000Y-39800000D03*
X40250000Y-39800000D03*
%TD*%
D52*
%TO.C,U502*%
X36500000Y-60150000D03*
X36500000Y-60650000D03*
X36500000Y-61150000D03*
X36500000Y-61650000D03*
X36500000Y-62150000D03*
X32300000Y-62150000D03*
X32300000Y-61650000D03*
X32300000Y-61150000D03*
X32300000Y-60650000D03*
X32300000Y-60150000D03*
%TD*%
D53*
%TO.C,R501*%
X38673000Y-28328000D03*
X38673000Y-26678000D03*
%TD*%
D23*
%TO.C,TP10*%
X56000000Y-46700000D03*
%TD*%
D21*
%TO.C,R301*%
X49365000Y-50500000D03*
X49365000Y-49480000D03*
%TD*%
D25*
%TO.C,R308*%
X61090000Y-68350000D03*
X62110000Y-68350000D03*
%TD*%
D54*
%TO.C,LS501*%
X29350000Y-57550000D03*
X29350000Y-43650000D03*
%TD*%
D19*
%TO.C,FID4*%
X27300000Y-36100000D03*
%TD*%
D21*
%TO.C,R402*%
X70390000Y-60170000D03*
X70390000Y-59150000D03*
%TD*%
%TO.C,R212*%
X63088000Y-33500000D03*
X63088000Y-32480000D03*
%TD*%
D25*
%TO.C,R403*%
X61350000Y-54320000D03*
X62370000Y-54320000D03*
%TD*%
D55*
%TO.C,C106*%
X50430000Y-38225000D03*
X50430000Y-39775000D03*
%TD*%
D56*
%TO.C,Q501*%
X60550000Y-29737500D03*
X58650000Y-29737500D03*
X59600000Y-27862500D03*
%TD*%
D27*
%TO.C,R202*%
X60400000Y-51490000D03*
X60400000Y-52510000D03*
%TD*%
D26*
%TO.C,C202*%
X38770000Y-69600000D03*
X39730000Y-69600000D03*
%TD*%
D57*
%TO.C,MK401*%
X71148000Y-55294000D03*
D58*
X70310500Y-57368000D03*
X70310500Y-56546000D03*
D59*
X71148000Y-54631500D03*
D58*
X71985500Y-56546000D03*
X71985500Y-57368000D03*
%TD*%
D60*
%TO.C,C111*%
X53000000Y-43220000D03*
X53000000Y-44180000D03*
%TD*%
D61*
%TO.C,J201*%
X65200000Y-68890000D03*
X64184000Y-63810000D03*
X66216000Y-63810000D03*
D62*
X64565000Y-67620000D03*
X65835000Y-67620000D03*
X64565000Y-66350000D03*
X65835000Y-66350000D03*
X64565000Y-65080000D03*
X65835000Y-65080000D03*
%TD*%
D63*
%TO.C,U201*%
X41250000Y-69960000D03*
X41250000Y-68690000D03*
X41250000Y-67420000D03*
X41250000Y-66150000D03*
X41250000Y-64880000D03*
X41250000Y-63610000D03*
X41250000Y-62340000D03*
X41250000Y-61070000D03*
X41250000Y-59800000D03*
X41250000Y-58530000D03*
X41250000Y-57260000D03*
X41250000Y-55990000D03*
X41250000Y-54720000D03*
X41250000Y-53450000D03*
D64*
X43015000Y-52200000D03*
X44285000Y-52200000D03*
X45555000Y-52200000D03*
X46825000Y-52200000D03*
X48095000Y-52200000D03*
X49365000Y-52200000D03*
X50635000Y-52200000D03*
X51905000Y-52200000D03*
X53175000Y-52200000D03*
X54445000Y-52200000D03*
X55715000Y-52200000D03*
X56985000Y-52200000D03*
D63*
X58750000Y-53450000D03*
X58750000Y-54720000D03*
X58750000Y-55990000D03*
X58750000Y-57260000D03*
X58750000Y-58530000D03*
X58750000Y-59800000D03*
X58750000Y-61070000D03*
X58750000Y-62340000D03*
X58750000Y-63610000D03*
X58750000Y-64880000D03*
X58750000Y-66150000D03*
X58750000Y-67420000D03*
X58750000Y-68690000D03*
X58750000Y-69960000D03*
D65*
X47100000Y-61540000D03*
X47100000Y-62940000D03*
X47800000Y-60840000D03*
X47800000Y-62240000D03*
X47800000Y-63640000D03*
X48500000Y-61540000D03*
D66*
X48500000Y-62240000D03*
D65*
X48500000Y-62940000D03*
X49200000Y-60840000D03*
X49200000Y-62240000D03*
X49200000Y-63640000D03*
X49900000Y-61540000D03*
X49900000Y-62940000D03*
%TD*%
D53*
%TO.C,R502*%
X56627000Y-26752000D03*
X56627000Y-25102000D03*
%TD*%
D33*
%TO.C,C305*%
X41950000Y-43988000D03*
X41950000Y-43028000D03*
%TD*%
D27*
%TO.C,R214*%
X58200000Y-46190000D03*
X58200000Y-47210000D03*
%TD*%
D60*
%TO.C,C407*%
X71590000Y-59040000D03*
X71590000Y-60000000D03*
%TD*%
D55*
%TO.C,C107*%
X48890000Y-38225000D03*
X48890000Y-39775000D03*
%TD*%
D67*
%TO.C,R108*%
X68260000Y-42097500D03*
X68260000Y-39172500D03*
%TD*%
D68*
%TO.C,U104*%
X54000000Y-39900000D03*
X53500000Y-39900000D03*
X53000000Y-39900000D03*
X52500000Y-39900000D03*
X52000000Y-39900000D03*
D69*
X52000000Y-38250000D03*
X52500000Y-38250000D03*
D70*
X53000000Y-38450000D03*
D69*
X53500000Y-38250000D03*
X54000000Y-38250000D03*
%TD*%
D71*
%TO.C,D501*%
X41473371Y-23602448D03*
X38672629Y-24677552D03*
%TD*%
D23*
%TO.C,TP11*%
X58800000Y-49500000D03*
%TD*%
D27*
%TO.C,R114*%
X52500000Y-40990000D03*
X52500000Y-42010000D03*
%TD*%
%TO.C,R101*%
X48400000Y-29990000D03*
X48400000Y-31010000D03*
%TD*%
D55*
%TO.C,C105*%
X55570000Y-38225000D03*
X55570000Y-39775000D03*
%TD*%
D21*
%TO.C,R302*%
X48095000Y-50500000D03*
X48095000Y-49480000D03*
%TD*%
D72*
%TO.C,D502*%
X61327371Y-24677552D03*
X58526629Y-23602448D03*
%TD*%
D24*
%TO.C,TP1*%
X61600000Y-46700000D03*
%TD*%
D33*
%TO.C,C406*%
X73300000Y-59480000D03*
X73300000Y-58520000D03*
%TD*%
D27*
%TO.C,R209*%
X37600000Y-63090000D03*
X37600000Y-64110000D03*
%TD*%
D24*
%TO.C,TP5*%
X64300000Y-43900000D03*
%TD*%
D73*
%TO.C,J101*%
X47110000Y-26650000D03*
X52890000Y-26650000D03*
D74*
X46750000Y-28095000D03*
X47550000Y-28095000D03*
D75*
X48750000Y-28095000D03*
X49750000Y-28095000D03*
X50250000Y-28095000D03*
X51250000Y-28095000D03*
D74*
X52450000Y-28095000D03*
X53250000Y-28095000D03*
X53250000Y-28095000D03*
X52450000Y-28095000D03*
D75*
X51750000Y-28095000D03*
X50750000Y-28095000D03*
X49250000Y-28095000D03*
X48250000Y-28095000D03*
D74*
X47550000Y-28095000D03*
X46750000Y-28095000D03*
D76*
X45680000Y-23000000D03*
D77*
X45680000Y-27180000D03*
D76*
X54320000Y-23000000D03*
D77*
X54320000Y-27180000D03*
%TD*%
D33*
%TO.C,C104*%
X61300000Y-35430000D03*
X61300000Y-34470000D03*
%TD*%
%TO.C,C203*%
X38300000Y-67530000D03*
X38300000Y-66570000D03*
%TD*%
D21*
%TO.C,R111*%
X55100000Y-42010000D03*
X55100000Y-40990000D03*
%TD*%
D27*
%TO.C,R213*%
X59440000Y-46190000D03*
X59440000Y-47210000D03*
%TD*%
%LPD*%
M02*
