%TF.GenerationSoftware,KiCad,Pcbnew,10.0.6*%
%TF.CreationDate,2026-10-04T10:06:22+02:00*%
%TF.ProjectId,MAO_MAIN_A0,4d414f5f-4d41-4494-9e5f-41302e6b6963,A0*%
%TF.SameCoordinates,Original*%
%TF.FileFunction,Paste,Bot*%
%TF.FilePolarity,Positive*%
%FSLAX46Y46*%
G04 Gerber Fmt 4.6, Leading zero omitted, Abs format (unit mm)*
G04 Created by KiCad (PCBNEW 10.0.6) date 2026-10-04 10:06:22*
%MOMM*%
%LPD*%
G01*
G04 APERTURE LIST*
G04 Aperture macros list*
%AMRoundRect*
0 Rectangle with rounded corners*
0 $1 Rounding radius*
0 $2 $3 $4 $5 $6 $7 $8 $9 X,Y pos of 4 corners*
0 Add a 4 corners polygon primitive as box body*
4,1,4,$2,$3,$4,$5,$6,$7,$8,$9,$2,$3,0*
0 Add four circle primitives for the rounded corners*
1,1,$1+$1,$2,$3*
1,1,$1+$1,$4,$5*
1,1,$1+$1,$6,$7*
1,1,$1+$1,$8,$9*
0 Add four rect primitives between the rounded corners*
20,1,$1+$1,$2,$3,$4,$5,0*
20,1,$1+$1,$4,$5,$6,$7,0*
20,1,$1+$1,$6,$7,$8,$9,0*
20,1,$1+$1,$8,$9,$2,$3,0*%
%AMRotRect*
0 Rectangle, with rotation*
0 The origin of the aperture is its center*
0 $1 length*
0 $2 width*
0 $3 Rotation angle, in degrees counterclockwise*
0 Add horizontal line*
21,1,$1,$2,0,0,$3*%
G04 Aperture macros list end*
%ADD10C,0.300000*%
%ADD11RoundRect,0.150000X0.150000X0.625000X-0.150000X0.625000X-0.150000X-0.625000X0.150000X-0.625000X0*%
%ADD12RoundRect,0.250000X0.350000X0.650000X-0.350000X0.650000X-0.350000X-0.650000X0.350000X-0.650000X0*%
%ADD13RoundRect,0.135000X-0.185000X0.135000X-0.185000X-0.135000X0.185000X-0.135000X0.185000X0.135000X0*%
%ADD14RoundRect,0.050000X0.075000X-0.250000X0.075000X0.250000X-0.075000X0.250000X-0.075000X-0.250000X0*%
%ADD15RoundRect,0.050000X0.075000X-0.400000X0.075000X0.400000X-0.075000X0.400000X-0.075000X-0.400000X0*%
%ADD16RoundRect,0.042000X0.063000X-0.504000X0.063000X0.504000X-0.063000X0.504000X-0.063000X-0.504000X0*%
%ADD17RoundRect,0.135000X-0.135000X-0.185000X0.135000X-0.185000X0.135000X0.185000X-0.135000X0.185000X0*%
%ADD18RoundRect,0.150000X0.826526X0.043072X0.497896X0.661135X-0.826526X-0.043072X-0.497896X-0.661135X0*%
%ADD19RoundRect,0.132500X0.132500X0.132500X-0.132500X0.132500X-0.132500X-0.132500X0.132500X-0.132500X0*%
%ADD20RoundRect,0.062500X0.350000X0.062500X-0.350000X0.062500X-0.350000X-0.062500X0.350000X-0.062500X0*%
%ADD21RoundRect,0.062500X0.062500X0.350000X-0.062500X0.350000X-0.062500X-0.350000X0.062500X-0.350000X0*%
%ADD22RoundRect,0.225000X-0.250000X0.225000X-0.250000X-0.225000X0.250000X-0.225000X0.250000X0.225000X0*%
%ADD23RoundRect,0.050000X0.093814X0.732256X-0.559692X0.481398X-0.093814X-0.732256X0.559692X-0.481398X0*%
%ADD24RoundRect,0.135000X0.135000X0.185000X-0.135000X0.185000X-0.135000X-0.185000X0.135000X-0.185000X0*%
%ADD25RoundRect,0.100000X-0.700000X-1.000000X0.700000X-1.000000X0.700000X1.000000X-0.700000X1.000000X0*%
%ADD26RoundRect,0.050000X0.559692X0.481398X-0.093814X0.732256X-0.559692X-0.481398X0.093814X-0.732256X0*%
%ADD27RoundRect,0.140000X0.140000X0.170000X-0.140000X0.170000X-0.140000X-0.170000X0.140000X-0.170000X0*%
%ADD28RoundRect,0.200000X-0.200000X-0.275000X0.200000X-0.275000X0.200000X0.275000X-0.200000X0.275000X0*%
%ADD29RoundRect,0.157500X-0.157500X-0.157500X0.157500X-0.157500X0.157500X0.157500X-0.157500X0.157500X0*%
%ADD30RoundRect,0.062500X-0.375000X-0.062500X0.375000X-0.062500X0.375000X0.062500X-0.375000X0.062500X0*%
%ADD31RoundRect,0.062500X-0.062500X-0.375000X0.062500X-0.375000X0.062500X0.375000X-0.062500X0.375000X0*%
%ADD32RoundRect,0.140000X-0.140000X-0.170000X0.140000X-0.170000X0.140000X0.170000X-0.140000X0.170000X0*%
%ADD33RoundRect,0.135000X0.185000X-0.135000X0.185000X0.135000X-0.185000X0.135000X-0.185000X-0.135000X0*%
%ADD34RoundRect,0.140000X0.170000X-0.140000X0.170000X0.140000X-0.170000X0.140000X-0.170000X-0.140000X0*%
%ADD35RotRect,0.725000X0.522000X344.000000*%
%ADD36RoundRect,0.250000X0.625000X-0.312500X0.625000X0.312500X-0.625000X0.312500X-0.625000X-0.312500X0*%
%ADD37RoundRect,0.080000X-0.080000X-0.160000X0.080000X-0.160000X0.080000X0.160000X-0.080000X0.160000X0*%
%ADD38RoundRect,0.062500X-0.325000X-0.062500X0.325000X-0.062500X0.325000X0.062500X-0.325000X0.062500X0*%
%ADD39RoundRect,0.150000X-0.587500X-0.150000X0.587500X-0.150000X0.587500X0.150000X-0.587500X0.150000X0*%
%ADD40RoundRect,0.087500X0.662500X0.087500X-0.662500X0.087500X-0.662500X-0.087500X0.662500X-0.087500X0*%
%ADD41RoundRect,0.075000X0.075000X0.175000X-0.075000X0.175000X-0.075000X-0.175000X0.075000X-0.175000X0*%
%ADD42RoundRect,0.225000X0.250000X-0.225000X0.250000X0.225000X-0.250000X0.225000X-0.250000X-0.225000X0*%
%ADD43RoundRect,0.150000X-0.150000X-0.575000X0.150000X-0.575000X0.150000X0.575000X-0.150000X0.575000X0*%
%ADD44RoundRect,0.075000X-0.075000X-0.650000X0.075000X-0.650000X0.075000X0.650000X-0.075000X0.650000X0*%
%ADD45RoundRect,0.182500X0.182500X0.182500X-0.182500X0.182500X-0.182500X-0.182500X0.182500X-0.182500X0*%
%ADD46RoundRect,0.140000X-0.170000X0.140000X-0.170000X-0.140000X0.170000X-0.140000X0.170000X0.140000X0*%
%ADD47RoundRect,0.225000X-0.225000X-0.250000X0.225000X-0.250000X0.225000X0.250000X-0.225000X0.250000X0*%
%ADD48RoundRect,0.250000X-0.400000X-0.450000X0.400000X-0.450000X0.400000X0.450000X-0.400000X0.450000X0*%
%ADD49R,0.900000X0.900000*%
%ADD50R,1.500000X0.900000*%
%ADD51R,0.900000X1.500000*%
%ADD52RoundRect,0.137500X0.137500X0.662500X-0.137500X0.662500X-0.137500X-0.662500X0.137500X-0.662500X0*%
%ADD53RoundRect,0.075000X-0.075000X-0.175000X0.075000X-0.175000X0.075000X0.175000X-0.075000X0.175000X0*%
G04 APERTURE END LIST*
%TO.C,MK401*%
D10*
X70854392Y-54896609D02*
G75*
G02*
X71256470Y-54669893I505849J-427219D01*
G01*
X70933021Y-55829678D02*
G75*
G02*
X70706305Y-55427599I427211J505845D01*
G01*
X71787459Y-54817979D02*
G75*
G02*
X72014175Y-55220058I-427218J-505849D01*
G01*
X71865756Y-55751442D02*
G75*
G02*
X71464012Y-55977764I-505519J427619D01*
G01*
%TD*%
D11*
%TO.C,J102*%
X70260000Y-44285000D03*
X69260000Y-44285000D03*
X68260000Y-44285000D03*
D12*
X71560000Y-48160000D03*
X66960000Y-48160000D03*
%TD*%
D13*
%TO.C,R106*%
X59250000Y-41240000D03*
X59250000Y-42260000D03*
%TD*%
D14*
%TO.C,U104*%
X54000000Y-39900000D03*
X53500000Y-39900000D03*
X53000000Y-39900000D03*
X52500000Y-39900000D03*
X52000000Y-39900000D03*
D15*
X52000000Y-38250000D03*
X52500000Y-38250000D03*
D16*
X53000000Y-38450000D03*
D15*
X53500000Y-38250000D03*
X54000000Y-38250000D03*
%TD*%
D17*
%TO.C,R103*%
X62040000Y-36200000D03*
X63060000Y-36200000D03*
%TD*%
D18*
%TO.C,J503*%
X29748839Y-62183684D03*
X28575161Y-59976316D03*
%TD*%
D19*
%TO.C,U501*%
X35310000Y-51310000D03*
X35310000Y-50690000D03*
X34690000Y-51310000D03*
X34690000Y-50690000D03*
D20*
X36437500Y-50250000D03*
X36437500Y-50750000D03*
X36437500Y-51250000D03*
X36437500Y-51750000D03*
D21*
X35750000Y-52437500D03*
X35250000Y-52437500D03*
X34750000Y-52437500D03*
X34250000Y-52437500D03*
D20*
X33562500Y-51750000D03*
X33562500Y-51250000D03*
X33562500Y-50750000D03*
X33562500Y-50250000D03*
D21*
X34250000Y-49562500D03*
X34750000Y-49562500D03*
X35250000Y-49562500D03*
X35750000Y-49562500D03*
%TD*%
D22*
%TO.C,C106*%
X50430000Y-38225000D03*
X50430000Y-39775000D03*
%TD*%
D23*
%TO.C,D501*%
X41473371Y-23602448D03*
X38672629Y-24677552D03*
%TD*%
D24*
%TO.C,R309*%
X39510000Y-66100000D03*
X38490000Y-66100000D03*
%TD*%
D17*
%TO.C,R105*%
X62040000Y-35160000D03*
X63060000Y-35160000D03*
%TD*%
D22*
%TO.C,C103*%
X62350000Y-38225000D03*
X62350000Y-39775000D03*
%TD*%
D25*
%TO.C,J501*%
X26400000Y-53200000D03*
%TD*%
D26*
%TO.C,D502*%
X61327371Y-24677552D03*
X58526629Y-23602448D03*
%TD*%
D27*
%TO.C,C104*%
X63750000Y-34000000D03*
X62790000Y-34000000D03*
%TD*%
D28*
%TO.C,R501*%
X37175000Y-27000000D03*
X38825000Y-27000000D03*
%TD*%
D13*
%TO.C,R402*%
X74250000Y-54490000D03*
X74250000Y-55510000D03*
%TD*%
%TO.C,R503*%
X61750000Y-30990000D03*
X61750000Y-32010000D03*
%TD*%
D27*
%TO.C,C205*%
X43880000Y-40150000D03*
X42920000Y-40150000D03*
%TD*%
D13*
%TO.C,R112*%
X54000000Y-40990000D03*
X54000000Y-42010000D03*
%TD*%
D29*
%TO.C,U202*%
X44140000Y-36840000D03*
X44140000Y-37560000D03*
X44860000Y-36840000D03*
X44860000Y-37560000D03*
D30*
X43062500Y-37950000D03*
X43062500Y-37450000D03*
X43062500Y-36950000D03*
X43062500Y-36450000D03*
D31*
X43750000Y-35762500D03*
X44250000Y-35762500D03*
X44750000Y-35762500D03*
X45250000Y-35762500D03*
D30*
X45937500Y-36450000D03*
X45937500Y-36950000D03*
X45937500Y-37450000D03*
X45937500Y-37950000D03*
D31*
X45250000Y-38637500D03*
X44750000Y-38637500D03*
X44250000Y-38637500D03*
X43750000Y-38637500D03*
%TD*%
D22*
%TO.C,C107*%
X48890000Y-38225000D03*
X48890000Y-39775000D03*
%TD*%
D13*
%TO.C,R109*%
X64250000Y-41490000D03*
X64250000Y-42510000D03*
%TD*%
D17*
%TO.C,R308*%
X60490000Y-71500000D03*
X61510000Y-71500000D03*
%TD*%
D32*
%TO.C,C407*%
X71770000Y-59500000D03*
X72730000Y-59500000D03*
%TD*%
D33*
%TO.C,R111*%
X55100000Y-42010000D03*
X55100000Y-40990000D03*
%TD*%
D34*
%TO.C,C504*%
X34800000Y-57080000D03*
X34800000Y-56120000D03*
%TD*%
D28*
%TO.C,R502*%
X57675000Y-27000000D03*
X59325000Y-27000000D03*
%TD*%
D35*
%TO.C,MK401*%
X69983512Y-57086639D03*
X70210086Y-56296482D03*
X71820199Y-56758174D03*
X71593627Y-57548332D03*
%TD*%
D36*
%TO.C,R108*%
X68260000Y-42097500D03*
X68260000Y-39172500D03*
%TD*%
D37*
%TO.C,U103*%
X65200000Y-35500000D03*
X65200000Y-36100000D03*
X65600000Y-35500000D03*
X65600000Y-36100000D03*
D38*
X64412500Y-36550000D03*
X64412500Y-36050000D03*
X64412500Y-35550000D03*
X64412500Y-35050000D03*
X66387500Y-35050000D03*
X66387500Y-35550000D03*
X66387500Y-36050000D03*
X66387500Y-36550000D03*
%TD*%
D22*
%TO.C,C501*%
X32400000Y-53925000D03*
X32400000Y-55475000D03*
%TD*%
D33*
%TO.C,R204*%
X43315000Y-51710000D03*
X43315000Y-50690000D03*
%TD*%
D13*
%TO.C,R101*%
X48400000Y-29990000D03*
X48400000Y-31010000D03*
%TD*%
D39*
%TO.C,Q101*%
X64162500Y-40125000D03*
X64162500Y-38225000D03*
X66037500Y-39175000D03*
%TD*%
D24*
%TO.C,R307*%
X39510000Y-67400000D03*
X38490000Y-67400000D03*
%TD*%
D40*
%TO.C,U502*%
X35700000Y-58600000D03*
X35700000Y-59100000D03*
X35700000Y-59600000D03*
X35700000Y-60100000D03*
X35700000Y-60600000D03*
X31500000Y-60600000D03*
X31500000Y-60100000D03*
X31500000Y-59600000D03*
X31500000Y-59100000D03*
X31500000Y-58600000D03*
%TD*%
D24*
%TO.C,R504*%
X61260000Y-33500000D03*
X60240000Y-33500000D03*
%TD*%
D13*
%TO.C,R114*%
X52500000Y-40990000D03*
X52500000Y-42010000D03*
%TD*%
D39*
%TO.C,Q501*%
X63662500Y-31950000D03*
X63662500Y-30050000D03*
X65537500Y-31000000D03*
%TD*%
D33*
%TO.C,R301*%
X49400000Y-51960000D03*
X49400000Y-50940000D03*
%TD*%
D41*
%TO.C,D304*%
X27100000Y-39500000D03*
X26400000Y-39500000D03*
%TD*%
D24*
%TO.C,R202*%
X61510000Y-54700000D03*
X60490000Y-54700000D03*
%TD*%
D27*
%TO.C,C202*%
X39480000Y-69950000D03*
X38520000Y-69950000D03*
%TD*%
D41*
%TO.C,D302*%
X76100000Y-50000000D03*
X75400000Y-50000000D03*
%TD*%
D13*
%TO.C,R102*%
X51900000Y-32240000D03*
X51900000Y-33260000D03*
%TD*%
D24*
%TO.C,R310*%
X39510000Y-64900000D03*
X38490000Y-64900000D03*
%TD*%
D42*
%TO.C,C102*%
X55570000Y-36715000D03*
X55570000Y-35165000D03*
%TD*%
D34*
%TO.C,C204*%
X42300000Y-51680000D03*
X42300000Y-50720000D03*
%TD*%
D43*
%TO.C,J101*%
X46750000Y-28095000D03*
X47550000Y-28095000D03*
D44*
X48750000Y-28095000D03*
X49750000Y-28095000D03*
X50250000Y-28095000D03*
X51250000Y-28095000D03*
D43*
X52450000Y-28095000D03*
X53250000Y-28095000D03*
X53250000Y-28095000D03*
X52450000Y-28095000D03*
D44*
X51750000Y-28095000D03*
X50750000Y-28095000D03*
X49250000Y-28095000D03*
X48250000Y-28095000D03*
D43*
X47550000Y-28095000D03*
X46750000Y-28095000D03*
%TD*%
D22*
%TO.C,C105*%
X55570000Y-38225000D03*
X55570000Y-39775000D03*
%TD*%
%TO.C,C201*%
X37000000Y-69725000D03*
X37000000Y-71275000D03*
%TD*%
D33*
%TO.C,R104*%
X57400000Y-35550000D03*
X57400000Y-34530000D03*
%TD*%
D32*
%TO.C,C503*%
X31920000Y-57100000D03*
X32880000Y-57100000D03*
%TD*%
%TO.C,C101*%
X58660000Y-35100000D03*
X59620000Y-35100000D03*
%TD*%
D24*
%TO.C,R403*%
X71760000Y-52750000D03*
X70740000Y-52750000D03*
%TD*%
D33*
%TO.C,R113*%
X51400000Y-42010000D03*
X51400000Y-40990000D03*
%TD*%
D45*
%TO.C,U102*%
X59830000Y-38645000D03*
X59830000Y-37805000D03*
X58990000Y-38645000D03*
X58990000Y-37805000D03*
D20*
X60872500Y-37475000D03*
X60872500Y-37975000D03*
X60872500Y-38475000D03*
X60872500Y-38975000D03*
D21*
X60160000Y-39687500D03*
X59660000Y-39687500D03*
X59160000Y-39687500D03*
X58660000Y-39687500D03*
D20*
X57947500Y-38975000D03*
X57947500Y-38475000D03*
X57947500Y-37975000D03*
X57947500Y-37475000D03*
D21*
X58660000Y-36762500D03*
X59160000Y-36762500D03*
X59660000Y-36762500D03*
X60160000Y-36762500D03*
%TD*%
D24*
%TO.C,R107*%
X57760000Y-41500000D03*
X56740000Y-41500000D03*
%TD*%
D13*
%TO.C,R203*%
X41250000Y-50690000D03*
X41250000Y-51710000D03*
%TD*%
D25*
%TO.C,J502*%
X26400000Y-46800000D03*
%TD*%
%TO.C,J303*%
X29000000Y-39600000D03*
%TD*%
D46*
%TO.C,C406*%
X74250000Y-57020000D03*
X74250000Y-57980000D03*
%TD*%
D47*
%TO.C,C505*%
X63725000Y-28000000D03*
X65275000Y-28000000D03*
%TD*%
D24*
%TO.C,R209*%
X34110000Y-62400000D03*
X33090000Y-62400000D03*
%TD*%
D33*
%TO.C,R208*%
X40400000Y-35910000D03*
X40400000Y-34890000D03*
%TD*%
%TO.C,R302*%
X48100000Y-51960000D03*
X48100000Y-50940000D03*
%TD*%
D48*
%TO.C,D101*%
X53200000Y-30500000D03*
X56100000Y-30500000D03*
%TD*%
D46*
%TO.C,C502*%
X34500000Y-53670000D03*
X34500000Y-54630000D03*
%TD*%
D17*
%TO.C,R110*%
X70240000Y-42250000D03*
X71260000Y-42250000D03*
%TD*%
D49*
%TO.C,U201*%
X47100000Y-62090000D03*
X47100000Y-63490000D03*
X47100000Y-64890000D03*
X48500000Y-62090000D03*
X48500000Y-63490000D03*
X48500000Y-64890000D03*
X49900000Y-62090000D03*
X49900000Y-63490000D03*
X49900000Y-64890000D03*
D50*
X41250000Y-71210000D03*
X41250000Y-69940000D03*
X41250000Y-68670000D03*
X41250000Y-67400000D03*
X41250000Y-66130000D03*
X41250000Y-64860000D03*
X41250000Y-63590000D03*
X41250000Y-62320000D03*
X41250000Y-61050000D03*
X41250000Y-59780000D03*
X41250000Y-58510000D03*
X41250000Y-57240000D03*
X41250000Y-55970000D03*
X41250000Y-54700000D03*
D51*
X43015000Y-53450000D03*
X44285000Y-53450000D03*
X45555000Y-53450000D03*
X46825000Y-53450000D03*
X48095000Y-53450000D03*
X49365000Y-53450000D03*
X50635000Y-53450000D03*
X51905000Y-53450000D03*
X53175000Y-53450000D03*
X54445000Y-53450000D03*
X55715000Y-53450000D03*
X56985000Y-53450000D03*
D50*
X58750000Y-54700000D03*
X58750000Y-55970000D03*
X58750000Y-57240000D03*
X58750000Y-58510000D03*
X58750000Y-59780000D03*
X58750000Y-61050000D03*
X58750000Y-62320000D03*
X58750000Y-63590000D03*
X58750000Y-64860000D03*
X58750000Y-66130000D03*
X58750000Y-67400000D03*
X58750000Y-68670000D03*
X58750000Y-69940000D03*
X58750000Y-71210000D03*
%TD*%
D52*
%TO.C,L101*%
X53725000Y-36410000D03*
X52275000Y-36410000D03*
%TD*%
D53*
%TO.C,D301*%
X23900000Y-50000000D03*
X24600000Y-50000000D03*
%TD*%
M02*
