%TF.GenerationSoftware,KiCad,Pcbnew,10.0.6*%
%TF.CreationDate,2026-10-05T18:35:01+02:00*%
%TF.ProjectId,MAO_MAIN_A0,4d414f5f-4d41-4494-9e5f-41302e6b6963,A0*%
%TF.SameCoordinates,Original*%
%TF.FileFunction,Legend,Top*%
%TF.FilePolarity,Positive*%
%FSLAX46Y46*%
G04 Gerber Fmt 4.6, Leading zero omitted, Abs format (unit mm)*
G04 Created by KiCad (PCBNEW 10.0.6) date 2026-10-05 18:35:01*
%MOMM*%
%LPD*%
G01*
G04 APERTURE LIST*
G04 Aperture macros list*
%AMRoundRect*
0 Rectangle with rounded corners*
0 $1 Rounding radius*
0 $2 $3 $4 $5 $6 $7 $8 $9 X,Y pos of 4 corners*
0 Add a 4 corners polygon primitive as box body*
4,1,4,$2,$3,$4,$5,$6,$7,$8,$9,$2,$3,0*
0 Add four circle primitives for the rounded corners*
1,1,$1+$1,$2,$3*
1,1,$1+$1,$4,$5*
1,1,$1+$1,$6,$7*
1,1,$1+$1,$8,$9*
0 Add four rect primitives between the rounded corners*
20,1,$1+$1,$2,$3,$4,$5,0*
20,1,$1+$1,$4,$5,$6,$7,0*
20,1,$1+$1,$6,$7,$8,$9,0*
20,1,$1+$1,$8,$9,$2,$3,0*%
%AMRotRect*
0 Rectangle, with rotation*
0 The origin of the aperture is its center*
0 $1 length*
0 $2 width*
0 $3 Rotation angle, in degrees counterclockwise*
0 Add horizontal line*
21,1,$1,$2,0,0,$3*%
G04 Aperture macros list end*
%ADD10C,0.000000*%
%ADD11C,0.160000*%
%ADD12C,0.085000*%
%ADD13C,0.120000*%
%ADD14C,0.150000*%
%ADD15C,0.180000*%
%ADD16C,0.300000*%
%ADD17C,0.185000*%
%ADD18C,0.100001*%
%ADD19RoundRect,0.135000X-0.135000X-0.185000X0.135000X-0.185000X0.135000X0.185000X-0.135000X0.185000X0*%
%ADD20RoundRect,0.135000X0.185000X-0.135000X0.185000X0.135000X-0.185000X0.135000X-0.185000X-0.135000X0*%
%ADD21RoundRect,0.135000X0.135000X0.185000X-0.135000X0.185000X-0.135000X-0.185000X0.135000X-0.185000X0*%
%ADD22RoundRect,0.135000X-0.185000X0.135000X-0.185000X-0.135000X0.185000X-0.135000X0.185000X0.135000X0*%
%ADD23RoundRect,0.140000X-0.170000X0.140000X-0.170000X-0.140000X0.170000X-0.140000X0.170000X0.140000X0*%
%ADD24RoundRect,0.062500X-0.152780X0.160377X-0.215280X0.052123X0.152780X-0.160377X0.215280X-0.052123X0*%
%ADD25RotRect,0.800000X0.600000X240.000000*%
%ADD26C,2.000000*%
%ADD27RoundRect,0.075000X0.175000X-0.075000X0.175000X0.075000X-0.175000X0.075000X-0.175000X-0.075000X0*%
%ADD28RoundRect,0.140000X0.140000X0.170000X-0.140000X0.170000X-0.140000X-0.170000X0.140000X-0.170000X0*%
%ADD29RoundRect,0.140000X-0.140000X-0.170000X0.140000X-0.170000X0.140000X0.170000X-0.140000X0.170000X0*%
%ADD30RoundRect,0.100000X-1.000000X0.700000X-1.000000X-0.700000X1.000000X-0.700000X1.000000X0.700000X0*%
%ADD31C,2.200000*%
%ADD32RoundRect,0.087500X-0.087500X0.250000X-0.087500X-0.250000X0.087500X-0.250000X0.087500X0.250000X0*%
%ADD33RoundRect,0.125000X-0.125000X-0.000010X0.125000X-0.000010X0.125000X0.000010X-0.125000X0.000010X0*%
%ADD34RoundRect,0.050000X-0.275000X-0.625000X0.275000X-0.625000X0.275000X0.625000X-0.275000X0.625000X0*%
%ADD35R,1.800000X1.100000*%
%ADD36RotRect,0.500000X0.500000X118.000000*%
%ADD37RoundRect,0.225000X-0.225000X-0.250000X0.225000X-0.250000X0.225000X0.250000X-0.225000X0.250000X0*%
%ADD38RoundRect,0.075000X-0.075000X-0.175000X0.075000X-0.175000X0.075000X0.175000X-0.075000X0.175000X0*%
%ADD39RoundRect,0.225000X0.250000X-0.225000X0.250000X0.225000X-0.250000X0.225000X-0.250000X-0.225000X0*%
%ADD40RoundRect,0.140000X0.170000X-0.140000X0.170000X0.140000X-0.170000X0.140000X-0.170000X-0.140000X0*%
%ADD41RoundRect,0.087500X-0.425000X-0.087500X0.425000X-0.087500X0.425000X0.087500X-0.425000X0.087500X0*%
%ADD42RoundRect,0.062500X-0.135180X0.175468X-0.208653X0.074341X0.135180X-0.175468X0.208653X-0.074341X0*%
%ADD43RotRect,0.800000X0.600000X234.000000*%
%ADD44RoundRect,0.075000X-0.175000X0.075000X-0.175000X-0.075000X0.175000X-0.075000X0.175000X0.075000X0*%
%ADD45RoundRect,0.062500X0.350000X0.062500X-0.350000X0.062500X-0.350000X-0.062500X0.350000X-0.062500X0*%
%ADD46RoundRect,0.062500X0.062500X0.350000X-0.062500X0.350000X-0.062500X-0.350000X0.062500X-0.350000X0*%
%ADD47R,1.680000X1.680000*%
%ADD48RoundRect,0.087500X-0.225000X-0.087500X0.225000X-0.087500X0.225000X0.087500X-0.225000X0.087500X0*%
%ADD49RoundRect,0.087500X-0.087500X-0.225000X0.087500X-0.225000X0.087500X0.225000X-0.087500X0.225000X0*%
%ADD50RoundRect,0.275000X-0.475000X-0.275000X0.475000X-0.275000X0.475000X0.275000X-0.475000X0.275000X0*%
%ADD51C,0.500000*%
%ADD52C,0.990600*%
%ADD53C,0.650000*%
%ADD54O,1.000000X1.600000*%
%ADD55O,1.000000X2.100000*%
G04 APERTURE END LIST*
D10*
G36*
X44173511Y-56731250D02*
G01*
X44214583Y-56731250D01*
X44221428Y-56738095D01*
X44241964Y-56738095D01*
X44269345Y-56751785D01*
X44283035Y-56751785D01*
X44289880Y-56758630D01*
X44303571Y-56758630D01*
X44358333Y-56786011D01*
X44372023Y-56799702D01*
X44413095Y-56820238D01*
X44454166Y-56854464D01*
X44461011Y-56854464D01*
X44481547Y-56875000D01*
X44529464Y-56902380D01*
X44550000Y-56922916D01*
X44577380Y-56936607D01*
X44597916Y-56957142D01*
X44645833Y-56984523D01*
X44714285Y-57039285D01*
X44741666Y-57052976D01*
X44762202Y-57073511D01*
X44810119Y-57100892D01*
X44830654Y-57121428D01*
X44858035Y-57135119D01*
X44878571Y-57155654D01*
X44885416Y-57155654D01*
X44905952Y-57176190D01*
X44953869Y-57203571D01*
X44967559Y-57217261D01*
X44974404Y-57217261D01*
X45022321Y-57258333D01*
X45070238Y-57285714D01*
X45125000Y-57333630D01*
X45172916Y-57361011D01*
X45248214Y-57422619D01*
X45296130Y-57450000D01*
X45309821Y-57463690D01*
X45316666Y-57463690D01*
X45337202Y-57484226D01*
X45385119Y-57511607D01*
X45405654Y-57532142D01*
X45412500Y-57532142D01*
X45433035Y-57552678D01*
X45460416Y-57566369D01*
X45480952Y-57586904D01*
X45528869Y-57614285D01*
X45569940Y-57648511D01*
X45576785Y-57648511D01*
X45631547Y-57703273D01*
X45631547Y-57710119D01*
X45665773Y-57751190D01*
X45679464Y-57778571D01*
X45679464Y-57792261D01*
X45693154Y-57812797D01*
X45693154Y-57833333D01*
X45700000Y-57840178D01*
X45700000Y-59524107D01*
X45693154Y-59530952D01*
X45686309Y-59572023D01*
X45665773Y-59613095D01*
X45590476Y-59695238D01*
X45563095Y-59708928D01*
X45549404Y-59722619D01*
X45439880Y-59777380D01*
X45426190Y-59791071D01*
X45391964Y-59804761D01*
X45378273Y-59818452D01*
X45268750Y-59873214D01*
X45255059Y-59886904D01*
X45220833Y-59900595D01*
X45207142Y-59914285D01*
X45159226Y-59934821D01*
X45145535Y-59948511D01*
X45083928Y-59975892D01*
X45070238Y-59989583D01*
X45036011Y-60003273D01*
X45022321Y-60016964D01*
X44940178Y-60058035D01*
X44926488Y-60071726D01*
X44878571Y-60092261D01*
X44830654Y-60126488D01*
X44721130Y-60181250D01*
X44707440Y-60194940D01*
X44659523Y-60215476D01*
X44645833Y-60229166D01*
X44597916Y-60249702D01*
X44584226Y-60263392D01*
X44536309Y-60283928D01*
X44522619Y-60297619D01*
X44474702Y-60318154D01*
X44461011Y-60331845D01*
X44426785Y-60345535D01*
X44413095Y-60359226D01*
X44378869Y-60372916D01*
X44365178Y-60386607D01*
X44241964Y-60448214D01*
X44228273Y-60461904D01*
X44194047Y-60475595D01*
X44194047Y-57853869D01*
X44200892Y-57847023D01*
X44200892Y-57518452D01*
X44207738Y-57511607D01*
X44207738Y-57244642D01*
X44214583Y-57237797D01*
X44214583Y-56963988D01*
X44207738Y-56957142D01*
X44200892Y-56929761D01*
X44159821Y-56888690D01*
X44146130Y-56888690D01*
X44139285Y-56881845D01*
X44091369Y-56881845D01*
X44084523Y-56888690D01*
X44070833Y-56888690D01*
X44029761Y-56929761D01*
X44022916Y-56957142D01*
X44016071Y-56963988D01*
X44016071Y-57292559D01*
X44022916Y-57299404D01*
X44022916Y-57607440D01*
X44029761Y-57614285D01*
X44029761Y-57867559D01*
X44022916Y-57874404D01*
X44022916Y-57901785D01*
X44002380Y-57942857D01*
X44002380Y-57956547D01*
X43988690Y-57970238D01*
X43981845Y-57990773D01*
X43961309Y-58011309D01*
X43961309Y-58018154D01*
X43927083Y-58052380D01*
X43920238Y-58052380D01*
X43879166Y-58086607D01*
X43817559Y-58113988D01*
X43783333Y-58141369D01*
X43749107Y-58155059D01*
X43735416Y-58168750D01*
X43673809Y-58196130D01*
X43660119Y-58209821D01*
X43625892Y-58223511D01*
X43612202Y-58237202D01*
X43530059Y-58278273D01*
X43516369Y-58291964D01*
X43454761Y-58319345D01*
X43441071Y-58333035D01*
X43406845Y-58346726D01*
X43393154Y-58360416D01*
X43358928Y-58374107D01*
X43345238Y-58387797D01*
X43311011Y-58401488D01*
X43297321Y-58415178D01*
X43249404Y-58435714D01*
X43235714Y-58449404D01*
X43201488Y-58463095D01*
X43187797Y-58476785D01*
X43078273Y-58531547D01*
X43064583Y-58545238D01*
X43030357Y-58558928D01*
X43016666Y-58572619D01*
X42982440Y-58586309D01*
X42968750Y-58600000D01*
X42859226Y-58654761D01*
X42845535Y-58668452D01*
X42797619Y-58688988D01*
X42783928Y-58702678D01*
X42701785Y-58743750D01*
X42688095Y-58757440D01*
X42626488Y-58784821D01*
X42612797Y-58798511D01*
X42578571Y-58812202D01*
X42564880Y-58825892D01*
X42537500Y-58839583D01*
X42537500Y-59715773D01*
X42530654Y-59722619D01*
X42530654Y-59750000D01*
X42516964Y-59777380D01*
X42516964Y-59791071D01*
X42503273Y-59818452D01*
X42482738Y-59838988D01*
X42482738Y-59845833D01*
X42421130Y-59907440D01*
X42373214Y-59934821D01*
X42359523Y-59948511D01*
X42352678Y-59948511D01*
X42338988Y-59962202D01*
X42332142Y-59962202D01*
X42318452Y-59975892D01*
X42311607Y-59975892D01*
X42291071Y-59996428D01*
X42243154Y-60023809D01*
X42222619Y-60044345D01*
X42174702Y-60071726D01*
X42161011Y-60085416D01*
X42154166Y-60085416D01*
X42133630Y-60105952D01*
X42085714Y-60133333D01*
X42072023Y-60147023D01*
X42065178Y-60147023D01*
X42051488Y-60160714D01*
X42044642Y-60160714D01*
X42030952Y-60174404D01*
X42024107Y-60174404D01*
X42010416Y-60188095D01*
X42003571Y-60188095D01*
X41989880Y-60201785D01*
X41983035Y-60201785D01*
X41969345Y-60215476D01*
X41962500Y-60215476D01*
X41941964Y-60236011D01*
X41894047Y-60263392D01*
X41873511Y-60283928D01*
X41825595Y-60311309D01*
X41811904Y-60325000D01*
X41757142Y-60352380D01*
X41722916Y-60359226D01*
X41716071Y-60366071D01*
X41695535Y-60366071D01*
X41688690Y-60372916D01*
X41668154Y-60372916D01*
X41661309Y-60379761D01*
X41620238Y-60379761D01*
X41613392Y-60386607D01*
X41544940Y-60386607D01*
X41538095Y-60379761D01*
X41497023Y-60379761D01*
X41490178Y-60372916D01*
X41462797Y-60372916D01*
X41435416Y-60359226D01*
X41421726Y-60359226D01*
X41414880Y-60352380D01*
X41401190Y-60352380D01*
X41319047Y-60311309D01*
X41298511Y-60290773D01*
X41291666Y-60290773D01*
X41202678Y-60201785D01*
X41202678Y-60194940D01*
X41168452Y-60153869D01*
X41141071Y-60099107D01*
X41141071Y-60085416D01*
X41127380Y-60064880D01*
X41120535Y-60023809D01*
X41113690Y-60016964D01*
X41113690Y-59989583D01*
X41106845Y-59982738D01*
X41106845Y-59914285D01*
X41100000Y-59907440D01*
X41100000Y-59893750D01*
X41106845Y-59886904D01*
X41106845Y-59832142D01*
X41113690Y-59825297D01*
X41113690Y-59797916D01*
X41120535Y-59791071D01*
X41120535Y-59770535D01*
X41134226Y-59743154D01*
X41134226Y-59729464D01*
X41168452Y-59661011D01*
X41195833Y-59626785D01*
X41195833Y-59619940D01*
X41216369Y-59599404D01*
X41216369Y-59592559D01*
X41264285Y-59544642D01*
X41271130Y-59544642D01*
X41298511Y-59517261D01*
X41319047Y-59510416D01*
X41353273Y-59483035D01*
X41387500Y-59469345D01*
X41401190Y-59455654D01*
X41524404Y-59394047D01*
X41538095Y-59380357D01*
X41572321Y-59366666D01*
X41586011Y-59352976D01*
X41647619Y-59325595D01*
X41661309Y-59311904D01*
X41695535Y-59298214D01*
X41709226Y-59284523D01*
X41757142Y-59263988D01*
X41770833Y-59250297D01*
X41921428Y-59175000D01*
X41935119Y-59161309D01*
X41969345Y-59147619D01*
X41983035Y-59133928D01*
X42044642Y-59106547D01*
X42058333Y-59092857D01*
X42154166Y-59044940D01*
X42167857Y-59031250D01*
X42229464Y-59003869D01*
X42243154Y-58990178D01*
X42304761Y-58962797D01*
X42318452Y-58949107D01*
X42352678Y-58935416D01*
X42366369Y-58921726D01*
X42414285Y-58901190D01*
X42427976Y-58887500D01*
X42523809Y-58839583D01*
X42537500Y-58825892D01*
X42537500Y-58805357D01*
X42544345Y-58798511D01*
X42544345Y-57847023D01*
X42551190Y-57840178D01*
X42551190Y-57819642D01*
X42564880Y-57799107D01*
X42564880Y-57785416D01*
X42578571Y-57758035D01*
X42612797Y-57716964D01*
X42612797Y-57710119D01*
X42653869Y-57669047D01*
X42681250Y-57655357D01*
X42708630Y-57627976D01*
X42756547Y-57600595D01*
X42804464Y-57559523D01*
X42852380Y-57532142D01*
X42866071Y-57518452D01*
X42872916Y-57518452D01*
X42920833Y-57477380D01*
X42948214Y-57463690D01*
X42968750Y-57443154D01*
X42996130Y-57429464D01*
X43009821Y-57415773D01*
X43016666Y-57415773D01*
X43064583Y-57374702D01*
X43112500Y-57347321D01*
X43160416Y-57306250D01*
X43208333Y-57278869D01*
X43222023Y-57265178D01*
X43228869Y-57265178D01*
X43276785Y-57224107D01*
X43304166Y-57210416D01*
X43324702Y-57189880D01*
X43352083Y-57176190D01*
X43372619Y-57155654D01*
X43400000Y-57141964D01*
X43420535Y-57121428D01*
X43447916Y-57107738D01*
X43461607Y-57094047D01*
X43468452Y-57094047D01*
X43536904Y-57039285D01*
X43564285Y-57025595D01*
X43584821Y-57005059D01*
X43632738Y-56977678D01*
X43660119Y-56950297D01*
X43708035Y-56922916D01*
X43755952Y-56881845D01*
X43803869Y-56854464D01*
X43851785Y-56813392D01*
X43892857Y-56792857D01*
X43906547Y-56779166D01*
X43933928Y-56772321D01*
X43968154Y-56751785D01*
X44009226Y-56744940D01*
X44016071Y-56738095D01*
X44036607Y-56738095D01*
X44043452Y-56731250D01*
X44084523Y-56731250D01*
X44091369Y-56724404D01*
X44166666Y-56724404D01*
X44173511Y-56731250D01*
G37*
D11*
X40082354Y-50165710D02*
X40083626Y-50024072D01*
X40083626Y-50024072D02*
X40108401Y-49884612D01*
X40104619Y-50305592D02*
X40082354Y-50165710D01*
X40108401Y-49884612D02*
X40155991Y-49751202D01*
X40122500Y-48785000D02*
X40710004Y-49281463D01*
X40149805Y-50439835D02*
X40104619Y-50305592D01*
X40155991Y-49751202D02*
X40225074Y-49627548D01*
X40193878Y-49677500D02*
X40122500Y-48785000D01*
X40216655Y-50564711D02*
X40149805Y-50439835D01*
X40225074Y-49627548D02*
X40313732Y-49517082D01*
X40303314Y-50676752D02*
X40216655Y-50564711D01*
X40313732Y-49517082D02*
X40419503Y-49422873D01*
X40407376Y-50772846D02*
X40303314Y-50676752D01*
X40419503Y-49422873D02*
X40539450Y-49347536D01*
X40433727Y-50147419D02*
X40392951Y-50095199D01*
X40503786Y-50183258D02*
X40433727Y-50147419D01*
X40525950Y-50850326D02*
X40407376Y-50772846D01*
X40539450Y-49347536D02*
X40670242Y-49293163D01*
X40590000Y-50196000D02*
X40503786Y-50183258D01*
X40655744Y-50907039D02*
X40525950Y-50850326D01*
X40670242Y-49293163D02*
X40808247Y-49261265D01*
X40676214Y-50183258D02*
X40590000Y-50196000D01*
X40746273Y-50147419D02*
X40676214Y-50183258D01*
X40787049Y-50095199D02*
X40746273Y-50147419D01*
X40793153Y-50941412D02*
X40655744Y-50907039D01*
X40808247Y-49261265D02*
X40949633Y-49252727D01*
D12*
X40972500Y-50425500D02*
G75*
G02*
X40887500Y-50425500I-42500J0D01*
G01*
X40887500Y-50425500D02*
G75*
G02*
X40972500Y-50425500I42500J0D01*
G01*
D11*
X40934363Y-50952489D02*
X40793153Y-50941412D01*
X40949633Y-49252727D02*
X41090474Y-49267786D01*
X41075452Y-50939963D02*
X40934363Y-50952489D01*
X41090474Y-49267786D02*
X41226859Y-49306023D01*
X41113727Y-50147419D02*
X41072951Y-50095199D01*
X41149996Y-49281463D02*
X41227500Y-48742500D01*
X41183786Y-50183258D02*
X41113727Y-50147419D01*
X41212502Y-50904181D02*
X41075452Y-50939963D01*
X41226859Y-49306023D02*
X41355000Y-49366378D01*
X41227500Y-48742500D02*
X41650841Y-49652069D01*
X41270000Y-50196000D02*
X41183786Y-50183258D01*
X41341706Y-50846138D02*
X41212502Y-50904181D01*
X41356214Y-50183258D02*
X41270000Y-50196000D01*
X41396727Y-49818341D02*
X41623422Y-49587769D01*
X41426273Y-50147419D02*
X41356214Y-50183258D01*
X41459479Y-50767445D02*
X41341706Y-50846138D01*
X41467049Y-50095199D02*
X41426273Y-50147419D01*
X41562548Y-50670288D02*
X41459479Y-50767445D01*
X41623422Y-49587769D02*
X41903448Y-49390438D01*
X41626279Y-49614960D02*
X41396727Y-49818341D01*
X41648053Y-50557363D02*
X41562548Y-50670288D01*
X41700362Y-49743274D02*
X41749319Y-49876188D01*
X41713617Y-50431808D02*
X41648053Y-50557363D01*
X41749319Y-49876188D02*
X41775524Y-50015387D01*
X41757422Y-50297108D02*
X41713617Y-50431808D01*
X41775524Y-50015387D02*
X41778251Y-50157004D01*
X41778251Y-50157004D02*
X41757422Y-50297108D01*
X41903448Y-49390438D02*
X42227722Y-49232749D01*
X41955165Y-50893460D02*
X41995551Y-50782500D01*
X41955165Y-51011540D02*
X41955165Y-50893460D01*
X41995551Y-51122500D02*
X41955165Y-51011540D01*
X42071452Y-51212955D02*
X41995551Y-51122500D01*
X42173713Y-51271995D02*
X42071452Y-51212955D01*
X42227722Y-49232749D02*
X42585724Y-49119816D01*
X42290000Y-51292500D02*
X42173713Y-51271995D01*
X42585724Y-49119816D02*
X42965842Y-49055303D01*
X42965842Y-49055303D02*
X43355746Y-49041304D01*
X43355746Y-49041304D02*
X43742786Y-49078271D01*
X43742786Y-49078271D02*
X44114410Y-49165006D01*
X44114410Y-49165006D02*
X44458561Y-49298695D01*
X44458561Y-49298695D02*
X44764076Y-49475002D01*
X44764076Y-49475002D02*
X45021044Y-49688208D01*
X45010000Y-51292500D02*
X42290000Y-51292500D01*
X45021044Y-49688208D02*
X45221131Y-49931396D01*
X45154465Y-51271699D02*
X45010000Y-51292500D01*
X45221131Y-49931396D02*
X45357845Y-50196677D01*
X45284790Y-51211332D02*
X45154465Y-51271699D01*
X45357845Y-50196677D02*
X45426752Y-50475448D01*
X45388215Y-51117309D02*
X45284790Y-51211332D01*
X45426752Y-50475448D02*
X45477500Y-50867500D01*
X45454619Y-50998832D02*
X45388215Y-51117309D01*
X45477500Y-50867500D02*
X45454619Y-50998832D01*
D13*
X46435000Y-51262500D02*
G75*
G02*
X46315000Y-51262500I-60000J0D01*
G01*
X46315000Y-51262500D02*
G75*
G02*
X46435000Y-51262500I60000J0D01*
G01*
D11*
X46465000Y-51662500D02*
X46490120Y-51563002D01*
X46490120Y-51563002D02*
X46561655Y-51478652D01*
X46490120Y-51761998D02*
X46465000Y-51662500D01*
X46561655Y-51478652D02*
X46668714Y-51422291D01*
X46561655Y-51846348D02*
X46490120Y-51761998D01*
D13*
X46695000Y-51012500D02*
G75*
G02*
X46575000Y-51012500I-60000J0D01*
G01*
X46575000Y-51012500D02*
G75*
G02*
X46695000Y-51012500I60000J0D01*
G01*
D11*
X46668714Y-51422291D02*
X46795000Y-51402500D01*
X46668714Y-51902709D02*
X46561655Y-51846348D01*
X46795000Y-51402500D02*
X46921286Y-51422291D01*
X46795000Y-51922500D02*
X46668714Y-51902709D01*
X46921286Y-51422291D02*
X47028345Y-51478652D01*
X46921286Y-51902709D02*
X46795000Y-51922500D01*
D13*
X47015000Y-51012500D02*
G75*
G02*
X46895000Y-51012500I-60000J0D01*
G01*
X46895000Y-51012500D02*
G75*
G02*
X47015000Y-51012500I60000J0D01*
G01*
D14*
X47000000Y-61000000D02*
X53000000Y-61000000D01*
X53000000Y-67000000D01*
X47000000Y-67000000D01*
X47000000Y-61000000D01*
D11*
X47028345Y-51478652D02*
X47099880Y-51563002D01*
X47028345Y-51846348D02*
X46921286Y-51902709D01*
X47099880Y-51563002D02*
X47125000Y-51662500D01*
X47099880Y-51761998D02*
X47028345Y-51846348D01*
X47125000Y-51662500D02*
X47099880Y-51761998D01*
D13*
X47275000Y-51262500D02*
G75*
G02*
X47155000Y-51262500I-60000J0D01*
G01*
X47155000Y-51262500D02*
G75*
G02*
X47275000Y-51262500I60000J0D01*
G01*
D14*
X56400000Y-57000000D02*
X56100000Y-57350000D01*
X56400000Y-57000000D02*
X56700000Y-57350000D01*
X56400000Y-58500000D02*
X56400000Y-57000000D01*
X56400000Y-58500000D02*
X57900000Y-58500000D01*
X57900000Y-58500000D02*
X57550000Y-58200000D01*
X57900000Y-58500000D02*
X57550000Y-58800000D01*
X62450000Y-40495000D02*
X61889750Y-39920000D01*
X68815167Y-62400000D02*
X71402050Y-62400000D01*
X69260000Y-56130000D02*
X70880000Y-56130000D01*
X40771427Y-64964080D02*
X40809523Y-64925985D01*
X40809523Y-64925985D02*
X40885713Y-64887890D01*
X40885713Y-64887890D02*
X41076189Y-64887890D01*
X41076189Y-64887890D02*
X41152380Y-64925985D01*
X41152380Y-64925985D02*
X41190475Y-64964080D01*
X41190475Y-64964080D02*
X41228570Y-65040271D01*
X41228570Y-65040271D02*
X41228570Y-65116461D01*
X41228570Y-65116461D02*
X41190475Y-65230747D01*
X41190475Y-65230747D02*
X40733332Y-65687890D01*
X40733332Y-65687890D02*
X41228570Y-65687890D01*
X41723809Y-64887890D02*
X41799999Y-64887890D01*
X41799999Y-64887890D02*
X41876190Y-64925985D01*
X41876190Y-64925985D02*
X41914285Y-64964080D01*
X41914285Y-64964080D02*
X41952380Y-65040271D01*
X41952380Y-65040271D02*
X41990475Y-65192652D01*
X41990475Y-65192652D02*
X41990475Y-65383128D01*
X41990475Y-65383128D02*
X41952380Y-65535509D01*
X41952380Y-65535509D02*
X41914285Y-65611699D01*
X41914285Y-65611699D02*
X41876190Y-65649795D01*
X41876190Y-65649795D02*
X41799999Y-65687890D01*
X41799999Y-65687890D02*
X41723809Y-65687890D01*
X41723809Y-65687890D02*
X41647618Y-65649795D01*
X41647618Y-65649795D02*
X41609523Y-65611699D01*
X41609523Y-65611699D02*
X41571428Y-65535509D01*
X41571428Y-65535509D02*
X41533332Y-65383128D01*
X41533332Y-65383128D02*
X41533332Y-65192652D01*
X41533332Y-65192652D02*
X41571428Y-65040271D01*
X41571428Y-65040271D02*
X41609523Y-64964080D01*
X41609523Y-64964080D02*
X41647618Y-64925985D01*
X41647618Y-64925985D02*
X41723809Y-64887890D01*
X42295237Y-64964080D02*
X42333333Y-64925985D01*
X42333333Y-64925985D02*
X42409523Y-64887890D01*
X42409523Y-64887890D02*
X42599999Y-64887890D01*
X42599999Y-64887890D02*
X42676190Y-64925985D01*
X42676190Y-64925985D02*
X42714285Y-64964080D01*
X42714285Y-64964080D02*
X42752380Y-65040271D01*
X42752380Y-65040271D02*
X42752380Y-65116461D01*
X42752380Y-65116461D02*
X42714285Y-65230747D01*
X42714285Y-65230747D02*
X42257142Y-65687890D01*
X42257142Y-65687890D02*
X42752380Y-65687890D01*
X43438095Y-64887890D02*
X43285714Y-64887890D01*
X43285714Y-64887890D02*
X43209523Y-64925985D01*
X43209523Y-64925985D02*
X43171428Y-64964080D01*
X43171428Y-64964080D02*
X43095238Y-65078366D01*
X43095238Y-65078366D02*
X43057142Y-65230747D01*
X43057142Y-65230747D02*
X43057142Y-65535509D01*
X43057142Y-65535509D02*
X43095238Y-65611699D01*
X43095238Y-65611699D02*
X43133333Y-65649795D01*
X43133333Y-65649795D02*
X43209523Y-65687890D01*
X43209523Y-65687890D02*
X43361904Y-65687890D01*
X43361904Y-65687890D02*
X43438095Y-65649795D01*
X43438095Y-65649795D02*
X43476190Y-65611699D01*
X43476190Y-65611699D02*
X43514285Y-65535509D01*
X43514285Y-65535509D02*
X43514285Y-65345033D01*
X43514285Y-65345033D02*
X43476190Y-65268842D01*
X43476190Y-65268842D02*
X43438095Y-65230747D01*
X43438095Y-65230747D02*
X43361904Y-65192652D01*
X43361904Y-65192652D02*
X43209523Y-65192652D01*
X43209523Y-65192652D02*
X43133333Y-65230747D01*
X43133333Y-65230747D02*
X43095238Y-65268842D01*
X43095238Y-65268842D02*
X43057142Y-65345033D01*
X43857143Y-65383128D02*
X44466667Y-65383128D01*
X45266666Y-65687890D02*
X44809523Y-65687890D01*
X45038095Y-65687890D02*
X45038095Y-64887890D01*
X45038095Y-64887890D02*
X44961904Y-65002175D01*
X44961904Y-65002175D02*
X44885714Y-65078366D01*
X44885714Y-65078366D02*
X44809523Y-65116461D01*
X45761905Y-64887890D02*
X45838095Y-64887890D01*
X45838095Y-64887890D02*
X45914286Y-64925985D01*
X45914286Y-64925985D02*
X45952381Y-64964080D01*
X45952381Y-64964080D02*
X45990476Y-65040271D01*
X45990476Y-65040271D02*
X46028571Y-65192652D01*
X46028571Y-65192652D02*
X46028571Y-65383128D01*
X46028571Y-65383128D02*
X45990476Y-65535509D01*
X45990476Y-65535509D02*
X45952381Y-65611699D01*
X45952381Y-65611699D02*
X45914286Y-65649795D01*
X45914286Y-65649795D02*
X45838095Y-65687890D01*
X45838095Y-65687890D02*
X45761905Y-65687890D01*
X45761905Y-65687890D02*
X45685714Y-65649795D01*
X45685714Y-65649795D02*
X45647619Y-65611699D01*
X45647619Y-65611699D02*
X45609524Y-65535509D01*
X45609524Y-65535509D02*
X45571428Y-65383128D01*
X45571428Y-65383128D02*
X45571428Y-65192652D01*
X45571428Y-65192652D02*
X45609524Y-65040271D01*
X45609524Y-65040271D02*
X45647619Y-64964080D01*
X45647619Y-64964080D02*
X45685714Y-64925985D01*
X45685714Y-64925985D02*
X45761905Y-64887890D01*
X46733333Y-60374200D02*
X46847619Y-60412295D01*
X46847619Y-60412295D02*
X47038095Y-60412295D01*
X47038095Y-60412295D02*
X47114286Y-60374200D01*
X47114286Y-60374200D02*
X47152381Y-60336104D01*
X47152381Y-60336104D02*
X47190476Y-60259914D01*
X47190476Y-60259914D02*
X47190476Y-60183723D01*
X47190476Y-60183723D02*
X47152381Y-60107533D01*
X47152381Y-60107533D02*
X47114286Y-60069438D01*
X47114286Y-60069438D02*
X47038095Y-60031342D01*
X47038095Y-60031342D02*
X46885714Y-59993247D01*
X46885714Y-59993247D02*
X46809524Y-59955152D01*
X46809524Y-59955152D02*
X46771429Y-59917057D01*
X46771429Y-59917057D02*
X46733333Y-59840866D01*
X46733333Y-59840866D02*
X46733333Y-59764676D01*
X46733333Y-59764676D02*
X46771429Y-59688485D01*
X46771429Y-59688485D02*
X46809524Y-59650390D01*
X46809524Y-59650390D02*
X46885714Y-59612295D01*
X46885714Y-59612295D02*
X47076191Y-59612295D01*
X47076191Y-59612295D02*
X47190476Y-59650390D01*
X48104762Y-59574200D02*
X47419048Y-60602771D01*
X48371429Y-60412295D02*
X48371429Y-59612295D01*
X48371429Y-59612295D02*
X48828572Y-60412295D01*
X48828572Y-60412295D02*
X48828572Y-59612295D01*
X45304761Y-67362295D02*
X45304761Y-67933723D01*
X45304761Y-67933723D02*
X45266666Y-68048009D01*
X45266666Y-68048009D02*
X45190475Y-68124200D01*
X45190475Y-68124200D02*
X45076190Y-68162295D01*
X45076190Y-68162295D02*
X44999999Y-68162295D01*
X46066666Y-68162295D02*
X45685714Y-68162295D01*
X45685714Y-68162295D02*
X45685714Y-67362295D01*
X46790476Y-68086104D02*
X46752380Y-68124200D01*
X46752380Y-68124200D02*
X46638095Y-68162295D01*
X46638095Y-68162295D02*
X46561904Y-68162295D01*
X46561904Y-68162295D02*
X46447618Y-68124200D01*
X46447618Y-68124200D02*
X46371428Y-68048009D01*
X46371428Y-68048009D02*
X46333333Y-67971819D01*
X46333333Y-67971819D02*
X46295237Y-67819438D01*
X46295237Y-67819438D02*
X46295237Y-67705152D01*
X46295237Y-67705152D02*
X46333333Y-67552771D01*
X46333333Y-67552771D02*
X46371428Y-67476580D01*
X46371428Y-67476580D02*
X46447618Y-67400390D01*
X46447618Y-67400390D02*
X46561904Y-67362295D01*
X46561904Y-67362295D02*
X46638095Y-67362295D01*
X46638095Y-67362295D02*
X46752380Y-67400390D01*
X46752380Y-67400390D02*
X46790476Y-67438485D01*
X47361904Y-67362295D02*
X47361904Y-67933723D01*
X47361904Y-67933723D02*
X47323809Y-68048009D01*
X47323809Y-68048009D02*
X47247618Y-68124200D01*
X47247618Y-68124200D02*
X47133333Y-68162295D01*
X47133333Y-68162295D02*
X47057142Y-68162295D01*
X48123809Y-68162295D02*
X47742857Y-68162295D01*
X47742857Y-68162295D02*
X47742857Y-67362295D01*
X48847619Y-68086104D02*
X48809523Y-68124200D01*
X48809523Y-68124200D02*
X48695238Y-68162295D01*
X48695238Y-68162295D02*
X48619047Y-68162295D01*
X48619047Y-68162295D02*
X48504761Y-68124200D01*
X48504761Y-68124200D02*
X48428571Y-68048009D01*
X48428571Y-68048009D02*
X48390476Y-67971819D01*
X48390476Y-67971819D02*
X48352380Y-67819438D01*
X48352380Y-67819438D02*
X48352380Y-67705152D01*
X48352380Y-67705152D02*
X48390476Y-67552771D01*
X48390476Y-67552771D02*
X48428571Y-67476580D01*
X48428571Y-67476580D02*
X48504761Y-67400390D01*
X48504761Y-67400390D02*
X48619047Y-67362295D01*
X48619047Y-67362295D02*
X48695238Y-67362295D01*
X48695238Y-67362295D02*
X48809523Y-67400390D01*
X48809523Y-67400390D02*
X48847619Y-67438485D01*
X49419047Y-67362295D02*
X49419047Y-67933723D01*
X49419047Y-67933723D02*
X49380952Y-68048009D01*
X49380952Y-68048009D02*
X49304761Y-68124200D01*
X49304761Y-68124200D02*
X49190476Y-68162295D01*
X49190476Y-68162295D02*
X49114285Y-68162295D01*
X50180952Y-68162295D02*
X49800000Y-68162295D01*
X49800000Y-68162295D02*
X49800000Y-67362295D01*
X50904762Y-68086104D02*
X50866666Y-68124200D01*
X50866666Y-68124200D02*
X50752381Y-68162295D01*
X50752381Y-68162295D02*
X50676190Y-68162295D01*
X50676190Y-68162295D02*
X50561904Y-68124200D01*
X50561904Y-68124200D02*
X50485714Y-68048009D01*
X50485714Y-68048009D02*
X50447619Y-67971819D01*
X50447619Y-67971819D02*
X50409523Y-67819438D01*
X50409523Y-67819438D02*
X50409523Y-67705152D01*
X50409523Y-67705152D02*
X50447619Y-67552771D01*
X50447619Y-67552771D02*
X50485714Y-67476580D01*
X50485714Y-67476580D02*
X50561904Y-67400390D01*
X50561904Y-67400390D02*
X50676190Y-67362295D01*
X50676190Y-67362295D02*
X50752381Y-67362295D01*
X50752381Y-67362295D02*
X50866666Y-67400390D01*
X50866666Y-67400390D02*
X50904762Y-67438485D01*
X51476190Y-67362295D02*
X51476190Y-67933723D01*
X51476190Y-67933723D02*
X51438095Y-68048009D01*
X51438095Y-68048009D02*
X51361904Y-68124200D01*
X51361904Y-68124200D02*
X51247619Y-68162295D01*
X51247619Y-68162295D02*
X51171428Y-68162295D01*
X52238095Y-68162295D02*
X51857143Y-68162295D01*
X51857143Y-68162295D02*
X51857143Y-67362295D01*
X52961905Y-68086104D02*
X52923809Y-68124200D01*
X52923809Y-68124200D02*
X52809524Y-68162295D01*
X52809524Y-68162295D02*
X52733333Y-68162295D01*
X52733333Y-68162295D02*
X52619047Y-68124200D01*
X52619047Y-68124200D02*
X52542857Y-68048009D01*
X52542857Y-68048009D02*
X52504762Y-67971819D01*
X52504762Y-67971819D02*
X52466666Y-67819438D01*
X52466666Y-67819438D02*
X52466666Y-67705152D01*
X52466666Y-67705152D02*
X52504762Y-67552771D01*
X52504762Y-67552771D02*
X52542857Y-67476580D01*
X52542857Y-67476580D02*
X52619047Y-67400390D01*
X52619047Y-67400390D02*
X52733333Y-67362295D01*
X52733333Y-67362295D02*
X52809524Y-67362295D01*
X52809524Y-67362295D02*
X52923809Y-67400390D01*
X52923809Y-67400390D02*
X52961905Y-67438485D01*
X46542857Y-69639746D02*
X46923810Y-69639746D01*
X46466667Y-69868318D02*
X46733334Y-69068318D01*
X46733334Y-69068318D02*
X47000000Y-69868318D01*
X47266667Y-69868318D02*
X47266667Y-69068318D01*
X47266667Y-69068318D02*
X47723810Y-69868318D01*
X47723810Y-69868318D02*
X47723810Y-69068318D01*
X47990476Y-69068318D02*
X48447619Y-69068318D01*
X48219047Y-69868318D02*
X48219047Y-69068318D01*
X48714286Y-69449270D02*
X48980952Y-69449270D01*
X49095238Y-69868318D02*
X48714286Y-69868318D01*
X48714286Y-69868318D02*
X48714286Y-69068318D01*
X48714286Y-69068318D02*
X49095238Y-69068318D01*
X49438096Y-69868318D02*
X49438096Y-69068318D01*
X49438096Y-69068318D02*
X49895239Y-69868318D01*
X49895239Y-69868318D02*
X49895239Y-69068318D01*
X50276191Y-69868318D02*
X50276191Y-69068318D01*
X50276191Y-69068318D02*
X50733334Y-69868318D01*
X50733334Y-69868318D02*
X50733334Y-69068318D01*
X51076190Y-69639746D02*
X51457143Y-69639746D01*
X51000000Y-69868318D02*
X51266667Y-69068318D01*
X51266667Y-69068318D02*
X51533333Y-69868318D01*
X45533333Y-71156273D02*
X45533333Y-70356273D01*
X45990476Y-71156273D02*
X45647618Y-70699130D01*
X45990476Y-70356273D02*
X45533333Y-70813416D01*
X46333333Y-70737225D02*
X46599999Y-70737225D01*
X46714285Y-71156273D02*
X46333333Y-71156273D01*
X46333333Y-71156273D02*
X46333333Y-70356273D01*
X46333333Y-70356273D02*
X46714285Y-70356273D01*
X47057143Y-70737225D02*
X47323809Y-70737225D01*
X47438095Y-71156273D02*
X47057143Y-71156273D01*
X47057143Y-71156273D02*
X47057143Y-70356273D01*
X47057143Y-70356273D02*
X47438095Y-70356273D01*
X47780953Y-71156273D02*
X47780953Y-70356273D01*
X47780953Y-70356273D02*
X48085715Y-70356273D01*
X48085715Y-70356273D02*
X48161905Y-70394368D01*
X48161905Y-70394368D02*
X48200000Y-70432463D01*
X48200000Y-70432463D02*
X48238096Y-70508654D01*
X48238096Y-70508654D02*
X48238096Y-70622939D01*
X48238096Y-70622939D02*
X48200000Y-70699130D01*
X48200000Y-70699130D02*
X48161905Y-70737225D01*
X48161905Y-70737225D02*
X48085715Y-70775320D01*
X48085715Y-70775320D02*
X47780953Y-70775320D01*
X49647620Y-71080082D02*
X49609524Y-71118178D01*
X49609524Y-71118178D02*
X49495239Y-71156273D01*
X49495239Y-71156273D02*
X49419048Y-71156273D01*
X49419048Y-71156273D02*
X49304762Y-71118178D01*
X49304762Y-71118178D02*
X49228572Y-71041987D01*
X49228572Y-71041987D02*
X49190477Y-70965797D01*
X49190477Y-70965797D02*
X49152381Y-70813416D01*
X49152381Y-70813416D02*
X49152381Y-70699130D01*
X49152381Y-70699130D02*
X49190477Y-70546749D01*
X49190477Y-70546749D02*
X49228572Y-70470558D01*
X49228572Y-70470558D02*
X49304762Y-70394368D01*
X49304762Y-70394368D02*
X49419048Y-70356273D01*
X49419048Y-70356273D02*
X49495239Y-70356273D01*
X49495239Y-70356273D02*
X49609524Y-70394368D01*
X49609524Y-70394368D02*
X49647620Y-70432463D01*
X50371429Y-71156273D02*
X49990477Y-71156273D01*
X49990477Y-71156273D02*
X49990477Y-70356273D01*
X50638096Y-70737225D02*
X50904762Y-70737225D01*
X51019048Y-71156273D02*
X50638096Y-71156273D01*
X50638096Y-71156273D02*
X50638096Y-70356273D01*
X50638096Y-70356273D02*
X51019048Y-70356273D01*
X51323810Y-70927701D02*
X51704763Y-70927701D01*
X51247620Y-71156273D02*
X51514287Y-70356273D01*
X51514287Y-70356273D02*
X51780953Y-71156273D01*
X52504763Y-71156273D02*
X52238096Y-70775320D01*
X52047620Y-71156273D02*
X52047620Y-70356273D01*
X52047620Y-70356273D02*
X52352382Y-70356273D01*
X52352382Y-70356273D02*
X52428572Y-70394368D01*
X52428572Y-70394368D02*
X52466667Y-70432463D01*
X52466667Y-70432463D02*
X52504763Y-70508654D01*
X52504763Y-70508654D02*
X52504763Y-70622939D01*
X52504763Y-70622939D02*
X52466667Y-70699130D01*
X52466667Y-70699130D02*
X52428572Y-70737225D01*
X52428572Y-70737225D02*
X52352382Y-70775320D01*
X52352382Y-70775320D02*
X52047620Y-70775320D01*
X48742856Y-51412295D02*
X48742856Y-50612295D01*
X48742856Y-50917057D02*
X48819046Y-50878961D01*
X48819046Y-50878961D02*
X48971427Y-50878961D01*
X48971427Y-50878961D02*
X49047618Y-50917057D01*
X49047618Y-50917057D02*
X49085713Y-50955152D01*
X49085713Y-50955152D02*
X49123808Y-51031342D01*
X49123808Y-51031342D02*
X49123808Y-51259914D01*
X49123808Y-51259914D02*
X49085713Y-51336104D01*
X49085713Y-51336104D02*
X49047618Y-51374200D01*
X49047618Y-51374200D02*
X48971427Y-51412295D01*
X48971427Y-51412295D02*
X48819046Y-51412295D01*
X48819046Y-51412295D02*
X48742856Y-51374200D01*
X49580951Y-51412295D02*
X49504761Y-51374200D01*
X49504761Y-51374200D02*
X49466666Y-51336104D01*
X49466666Y-51336104D02*
X49428570Y-51259914D01*
X49428570Y-51259914D02*
X49428570Y-51031342D01*
X49428570Y-51031342D02*
X49466666Y-50955152D01*
X49466666Y-50955152D02*
X49504761Y-50917057D01*
X49504761Y-50917057D02*
X49580951Y-50878961D01*
X49580951Y-50878961D02*
X49695237Y-50878961D01*
X49695237Y-50878961D02*
X49771428Y-50917057D01*
X49771428Y-50917057D02*
X49809523Y-50955152D01*
X49809523Y-50955152D02*
X49847618Y-51031342D01*
X49847618Y-51031342D02*
X49847618Y-51259914D01*
X49847618Y-51259914D02*
X49809523Y-51336104D01*
X49809523Y-51336104D02*
X49771428Y-51374200D01*
X49771428Y-51374200D02*
X49695237Y-51412295D01*
X49695237Y-51412295D02*
X49580951Y-51412295D01*
X50304761Y-51412295D02*
X50228571Y-51374200D01*
X50228571Y-51374200D02*
X50190476Y-51336104D01*
X50190476Y-51336104D02*
X50152380Y-51259914D01*
X50152380Y-51259914D02*
X50152380Y-51031342D01*
X50152380Y-51031342D02*
X50190476Y-50955152D01*
X50190476Y-50955152D02*
X50228571Y-50917057D01*
X50228571Y-50917057D02*
X50304761Y-50878961D01*
X50304761Y-50878961D02*
X50419047Y-50878961D01*
X50419047Y-50878961D02*
X50495238Y-50917057D01*
X50495238Y-50917057D02*
X50533333Y-50955152D01*
X50533333Y-50955152D02*
X50571428Y-51031342D01*
X50571428Y-51031342D02*
X50571428Y-51259914D01*
X50571428Y-51259914D02*
X50533333Y-51336104D01*
X50533333Y-51336104D02*
X50495238Y-51374200D01*
X50495238Y-51374200D02*
X50419047Y-51412295D01*
X50419047Y-51412295D02*
X50304761Y-51412295D01*
X50914286Y-50878961D02*
X50914286Y-51678961D01*
X50914286Y-50917057D02*
X50990476Y-50878961D01*
X50990476Y-50878961D02*
X51142857Y-50878961D01*
X51142857Y-50878961D02*
X51219048Y-50917057D01*
X51219048Y-50917057D02*
X51257143Y-50955152D01*
X51257143Y-50955152D02*
X51295238Y-51031342D01*
X51295238Y-51031342D02*
X51295238Y-51259914D01*
X51295238Y-51259914D02*
X51257143Y-51336104D01*
X51257143Y-51336104D02*
X51219048Y-51374200D01*
X51219048Y-51374200D02*
X51142857Y-51412295D01*
X51142857Y-51412295D02*
X50990476Y-51412295D01*
X50990476Y-51412295D02*
X50914286Y-51374200D01*
X55752381Y-56107533D02*
X56361905Y-56107533D01*
X56057143Y-56412295D02*
X56057143Y-55802771D01*
X56895238Y-56031342D02*
X56895238Y-56412295D01*
X56628571Y-55612295D02*
X56895238Y-56031342D01*
X56895238Y-56031342D02*
X57161904Y-55612295D01*
X53961905Y-61318318D02*
X53961905Y-60518318D01*
X53961905Y-60518318D02*
X54228571Y-61089746D01*
X54228571Y-61089746D02*
X54495238Y-60518318D01*
X54495238Y-60518318D02*
X54495238Y-61318318D01*
X54838095Y-61089746D02*
X55219048Y-61089746D01*
X54761905Y-61318318D02*
X55028572Y-60518318D01*
X55028572Y-60518318D02*
X55295238Y-61318318D01*
X55561905Y-61318318D02*
X55561905Y-60518318D01*
X55561905Y-60518318D02*
X55752381Y-60518318D01*
X55752381Y-60518318D02*
X55866667Y-60556413D01*
X55866667Y-60556413D02*
X55942857Y-60632603D01*
X55942857Y-60632603D02*
X55980952Y-60708794D01*
X55980952Y-60708794D02*
X56019048Y-60861175D01*
X56019048Y-60861175D02*
X56019048Y-60975461D01*
X56019048Y-60975461D02*
X55980952Y-61127842D01*
X55980952Y-61127842D02*
X55942857Y-61204032D01*
X55942857Y-61204032D02*
X55866667Y-61280223D01*
X55866667Y-61280223D02*
X55752381Y-61318318D01*
X55752381Y-61318318D02*
X55561905Y-61318318D01*
X56361905Y-60899270D02*
X56628571Y-60899270D01*
X56742857Y-61318318D02*
X56361905Y-61318318D01*
X56361905Y-61318318D02*
X56361905Y-60518318D01*
X56361905Y-60518318D02*
X56742857Y-60518318D01*
X57961905Y-60899270D02*
X57695239Y-60899270D01*
X57695239Y-61318318D02*
X57695239Y-60518318D01*
X57695239Y-60518318D02*
X58076191Y-60518318D01*
X58533334Y-60518318D02*
X58685715Y-60518318D01*
X58685715Y-60518318D02*
X58761905Y-60556413D01*
X58761905Y-60556413D02*
X58838096Y-60632603D01*
X58838096Y-60632603D02*
X58876191Y-60784984D01*
X58876191Y-60784984D02*
X58876191Y-61051651D01*
X58876191Y-61051651D02*
X58838096Y-61204032D01*
X58838096Y-61204032D02*
X58761905Y-61280223D01*
X58761905Y-61280223D02*
X58685715Y-61318318D01*
X58685715Y-61318318D02*
X58533334Y-61318318D01*
X58533334Y-61318318D02*
X58457143Y-61280223D01*
X58457143Y-61280223D02*
X58380953Y-61204032D01*
X58380953Y-61204032D02*
X58342857Y-61051651D01*
X58342857Y-61051651D02*
X58342857Y-60784984D01*
X58342857Y-60784984D02*
X58380953Y-60632603D01*
X58380953Y-60632603D02*
X58457143Y-60556413D01*
X58457143Y-60556413D02*
X58533334Y-60518318D01*
X59676191Y-61318318D02*
X59409524Y-60937365D01*
X59219048Y-61318318D02*
X59219048Y-60518318D01*
X59219048Y-60518318D02*
X59523810Y-60518318D01*
X59523810Y-60518318D02*
X59600000Y-60556413D01*
X59600000Y-60556413D02*
X59638095Y-60594508D01*
X59638095Y-60594508D02*
X59676191Y-60670699D01*
X59676191Y-60670699D02*
X59676191Y-60784984D01*
X59676191Y-60784984D02*
X59638095Y-60861175D01*
X59638095Y-60861175D02*
X59600000Y-60899270D01*
X59600000Y-60899270D02*
X59523810Y-60937365D01*
X59523810Y-60937365D02*
X59219048Y-60937365D01*
X54133333Y-62187225D02*
X54247619Y-62225320D01*
X54247619Y-62225320D02*
X54285714Y-62263416D01*
X54285714Y-62263416D02*
X54323810Y-62339606D01*
X54323810Y-62339606D02*
X54323810Y-62453892D01*
X54323810Y-62453892D02*
X54285714Y-62530082D01*
X54285714Y-62530082D02*
X54247619Y-62568178D01*
X54247619Y-62568178D02*
X54171429Y-62606273D01*
X54171429Y-62606273D02*
X53866667Y-62606273D01*
X53866667Y-62606273D02*
X53866667Y-61806273D01*
X53866667Y-61806273D02*
X54133333Y-61806273D01*
X54133333Y-61806273D02*
X54209524Y-61844368D01*
X54209524Y-61844368D02*
X54247619Y-61882463D01*
X54247619Y-61882463D02*
X54285714Y-61958654D01*
X54285714Y-61958654D02*
X54285714Y-62034844D01*
X54285714Y-62034844D02*
X54247619Y-62111035D01*
X54247619Y-62111035D02*
X54209524Y-62149130D01*
X54209524Y-62149130D02*
X54133333Y-62187225D01*
X54133333Y-62187225D02*
X53866667Y-62187225D01*
X54628571Y-62377701D02*
X55009524Y-62377701D01*
X54552381Y-62606273D02*
X54819048Y-61806273D01*
X54819048Y-61806273D02*
X55085714Y-62606273D01*
X55352381Y-62606273D02*
X55352381Y-61806273D01*
X55352381Y-61806273D02*
X55542857Y-61806273D01*
X55542857Y-61806273D02*
X55657143Y-61844368D01*
X55657143Y-61844368D02*
X55733333Y-61920558D01*
X55733333Y-61920558D02*
X55771428Y-61996749D01*
X55771428Y-61996749D02*
X55809524Y-62149130D01*
X55809524Y-62149130D02*
X55809524Y-62263416D01*
X55809524Y-62263416D02*
X55771428Y-62415797D01*
X55771428Y-62415797D02*
X55733333Y-62491987D01*
X55733333Y-62491987D02*
X55657143Y-62568178D01*
X55657143Y-62568178D02*
X55542857Y-62606273D01*
X55542857Y-62606273D02*
X55352381Y-62606273D01*
X56761905Y-62606273D02*
X56761905Y-61806273D01*
X57142857Y-62606273D02*
X57142857Y-61806273D01*
X57142857Y-61806273D02*
X57333333Y-61806273D01*
X57333333Y-61806273D02*
X57447619Y-61844368D01*
X57447619Y-61844368D02*
X57523809Y-61920558D01*
X57523809Y-61920558D02*
X57561904Y-61996749D01*
X57561904Y-61996749D02*
X57600000Y-62149130D01*
X57600000Y-62149130D02*
X57600000Y-62263416D01*
X57600000Y-62263416D02*
X57561904Y-62415797D01*
X57561904Y-62415797D02*
X57523809Y-62491987D01*
X57523809Y-62491987D02*
X57447619Y-62568178D01*
X57447619Y-62568178D02*
X57333333Y-62606273D01*
X57333333Y-62606273D02*
X57142857Y-62606273D01*
X57942857Y-62187225D02*
X58209523Y-62187225D01*
X58323809Y-62606273D02*
X57942857Y-62606273D01*
X57942857Y-62606273D02*
X57942857Y-61806273D01*
X57942857Y-61806273D02*
X58323809Y-61806273D01*
X58628571Y-62377701D02*
X59009524Y-62377701D01*
X58552381Y-62606273D02*
X58819048Y-61806273D01*
X58819048Y-61806273D02*
X59085714Y-62606273D01*
X59314285Y-62568178D02*
X59428571Y-62606273D01*
X59428571Y-62606273D02*
X59619047Y-62606273D01*
X59619047Y-62606273D02*
X59695238Y-62568178D01*
X59695238Y-62568178D02*
X59733333Y-62530082D01*
X59733333Y-62530082D02*
X59771428Y-62453892D01*
X59771428Y-62453892D02*
X59771428Y-62377701D01*
X59771428Y-62377701D02*
X59733333Y-62301511D01*
X59733333Y-62301511D02*
X59695238Y-62263416D01*
X59695238Y-62263416D02*
X59619047Y-62225320D01*
X59619047Y-62225320D02*
X59466666Y-62187225D01*
X59466666Y-62187225D02*
X59390476Y-62149130D01*
X59390476Y-62149130D02*
X59352381Y-62111035D01*
X59352381Y-62111035D02*
X59314285Y-62034844D01*
X59314285Y-62034844D02*
X59314285Y-61958654D01*
X59314285Y-61958654D02*
X59352381Y-61882463D01*
X59352381Y-61882463D02*
X59390476Y-61844368D01*
X59390476Y-61844368D02*
X59466666Y-61806273D01*
X59466666Y-61806273D02*
X59657143Y-61806273D01*
X59657143Y-61806273D02*
X59771428Y-61844368D01*
X58264286Y-58557533D02*
X58873810Y-58557533D01*
X58569048Y-58862295D02*
X58569048Y-58252771D01*
X59178571Y-58062295D02*
X59711905Y-58862295D01*
X59711905Y-58062295D02*
X59178571Y-58862295D01*
X40590476Y-64330414D02*
X40590476Y-63330414D01*
X40590476Y-63330414D02*
X40923809Y-64044699D01*
X40923809Y-64044699D02*
X41257142Y-63330414D01*
X41257142Y-63330414D02*
X41257142Y-64330414D01*
X41685714Y-64044699D02*
X42161904Y-64044699D01*
X41590476Y-64330414D02*
X41923809Y-63330414D01*
X41923809Y-63330414D02*
X42257142Y-64330414D01*
X42590476Y-64330414D02*
X42590476Y-63330414D01*
X43066666Y-64330414D02*
X43066666Y-63330414D01*
X43066666Y-63330414D02*
X43638094Y-64330414D01*
X43638094Y-64330414D02*
X43638094Y-63330414D01*
X44828571Y-64044699D02*
X45304761Y-64044699D01*
X44733333Y-64330414D02*
X45066666Y-63330414D01*
X45066666Y-63330414D02*
X45399999Y-64330414D01*
X45923809Y-63330414D02*
X46019047Y-63330414D01*
X46019047Y-63330414D02*
X46114285Y-63378033D01*
X46114285Y-63378033D02*
X46161904Y-63425652D01*
X46161904Y-63425652D02*
X46209523Y-63520890D01*
X46209523Y-63520890D02*
X46257142Y-63711366D01*
X46257142Y-63711366D02*
X46257142Y-63949461D01*
X46257142Y-63949461D02*
X46209523Y-64139937D01*
X46209523Y-64139937D02*
X46161904Y-64235175D01*
X46161904Y-64235175D02*
X46114285Y-64282795D01*
X46114285Y-64282795D02*
X46019047Y-64330414D01*
X46019047Y-64330414D02*
X45923809Y-64330414D01*
X45923809Y-64330414D02*
X45828571Y-64282795D01*
X45828571Y-64282795D02*
X45780952Y-64235175D01*
X45780952Y-64235175D02*
X45733333Y-64139937D01*
X45733333Y-64139937D02*
X45685714Y-63949461D01*
X45685714Y-63949461D02*
X45685714Y-63711366D01*
X45685714Y-63711366D02*
X45733333Y-63520890D01*
X45733333Y-63520890D02*
X45780952Y-63425652D01*
X45780952Y-63425652D02*
X45828571Y-63378033D01*
X45828571Y-63378033D02*
X45923809Y-63330414D01*
D15*
X26828571Y-54045782D02*
X27514286Y-54045782D01*
X27171428Y-55245782D02*
X27171428Y-54045782D01*
X28142857Y-54045782D02*
X28371429Y-54045782D01*
X28371429Y-54045782D02*
X28485714Y-54102925D01*
X28485714Y-54102925D02*
X28600000Y-54217211D01*
X28600000Y-54217211D02*
X28657143Y-54445782D01*
X28657143Y-54445782D02*
X28657143Y-54845782D01*
X28657143Y-54845782D02*
X28600000Y-55074354D01*
X28600000Y-55074354D02*
X28485714Y-55188640D01*
X28485714Y-55188640D02*
X28371429Y-55245782D01*
X28371429Y-55245782D02*
X28142857Y-55245782D01*
X28142857Y-55245782D02*
X28028572Y-55188640D01*
X28028572Y-55188640D02*
X27914286Y-55074354D01*
X27914286Y-55074354D02*
X27857143Y-54845782D01*
X27857143Y-54845782D02*
X27857143Y-54445782D01*
X27857143Y-54445782D02*
X27914286Y-54217211D01*
X27914286Y-54217211D02*
X28028572Y-54102925D01*
X28028572Y-54102925D02*
X28142857Y-54045782D01*
X29171429Y-55245782D02*
X29171429Y-54045782D01*
X29171429Y-54045782D02*
X29628572Y-54045782D01*
X29628572Y-54045782D02*
X29742857Y-54102925D01*
X29742857Y-54102925D02*
X29800000Y-54160068D01*
X29800000Y-54160068D02*
X29857143Y-54274354D01*
X29857143Y-54274354D02*
X29857143Y-54445782D01*
X29857143Y-54445782D02*
X29800000Y-54560068D01*
X29800000Y-54560068D02*
X29742857Y-54617211D01*
X29742857Y-54617211D02*
X29628572Y-54674354D01*
X29628572Y-54674354D02*
X29171429Y-54674354D01*
D16*
X41471428Y-62603923D02*
X41471428Y-61103923D01*
X41471428Y-61103923D02*
X41971428Y-62175352D01*
X41971428Y-62175352D02*
X42471428Y-61103923D01*
X42471428Y-61103923D02*
X42471428Y-62603923D01*
X43114286Y-62175352D02*
X43828572Y-62175352D01*
X42971429Y-62603923D02*
X43471429Y-61103923D01*
X43471429Y-61103923D02*
X43971429Y-62603923D01*
X44757143Y-61103923D02*
X45042857Y-61103923D01*
X45042857Y-61103923D02*
X45185714Y-61175352D01*
X45185714Y-61175352D02*
X45328571Y-61318209D01*
X45328571Y-61318209D02*
X45400000Y-61603923D01*
X45400000Y-61603923D02*
X45400000Y-62103923D01*
X45400000Y-62103923D02*
X45328571Y-62389637D01*
X45328571Y-62389637D02*
X45185714Y-62532495D01*
X45185714Y-62532495D02*
X45042857Y-62603923D01*
X45042857Y-62603923D02*
X44757143Y-62603923D01*
X44757143Y-62603923D02*
X44614286Y-62532495D01*
X44614286Y-62532495D02*
X44471428Y-62389637D01*
X44471428Y-62389637D02*
X44400000Y-62103923D01*
X44400000Y-62103923D02*
X44400000Y-61603923D01*
X44400000Y-61603923D02*
X44471428Y-61318209D01*
X44471428Y-61318209D02*
X44614286Y-61175352D01*
X44614286Y-61175352D02*
X44757143Y-61103923D01*
D14*
X70034286Y-54750000D02*
X69767619Y-54369047D01*
X69577143Y-54750000D02*
X69577143Y-53950000D01*
X69577143Y-53950000D02*
X69881905Y-53950000D01*
X69881905Y-53950000D02*
X69958095Y-53988095D01*
X69958095Y-53988095D02*
X69996190Y-54026190D01*
X69996190Y-54026190D02*
X70034286Y-54102381D01*
X70034286Y-54102381D02*
X70034286Y-54216666D01*
X70034286Y-54216666D02*
X69996190Y-54292857D01*
X69996190Y-54292857D02*
X69958095Y-54330952D01*
X69958095Y-54330952D02*
X69881905Y-54369047D01*
X69881905Y-54369047D02*
X69577143Y-54369047D01*
X70758095Y-53950000D02*
X70377143Y-53950000D01*
X70377143Y-53950000D02*
X70339047Y-54330952D01*
X70339047Y-54330952D02*
X70377143Y-54292857D01*
X70377143Y-54292857D02*
X70453333Y-54254762D01*
X70453333Y-54254762D02*
X70643809Y-54254762D01*
X70643809Y-54254762D02*
X70720000Y-54292857D01*
X70720000Y-54292857D02*
X70758095Y-54330952D01*
X70758095Y-54330952D02*
X70796190Y-54407143D01*
X70796190Y-54407143D02*
X70796190Y-54597619D01*
X70796190Y-54597619D02*
X70758095Y-54673809D01*
X70758095Y-54673809D02*
X70720000Y-54711905D01*
X70720000Y-54711905D02*
X70643809Y-54750000D01*
X70643809Y-54750000D02*
X70453333Y-54750000D01*
X70453333Y-54750000D02*
X70377143Y-54711905D01*
X70377143Y-54711905D02*
X70339047Y-54673809D01*
X71291429Y-53950000D02*
X71367619Y-53950000D01*
X71367619Y-53950000D02*
X71443810Y-53988095D01*
X71443810Y-53988095D02*
X71481905Y-54026190D01*
X71481905Y-54026190D02*
X71520000Y-54102381D01*
X71520000Y-54102381D02*
X71558095Y-54254762D01*
X71558095Y-54254762D02*
X71558095Y-54445238D01*
X71558095Y-54445238D02*
X71520000Y-54597619D01*
X71520000Y-54597619D02*
X71481905Y-54673809D01*
X71481905Y-54673809D02*
X71443810Y-54711905D01*
X71443810Y-54711905D02*
X71367619Y-54750000D01*
X71367619Y-54750000D02*
X71291429Y-54750000D01*
X71291429Y-54750000D02*
X71215238Y-54711905D01*
X71215238Y-54711905D02*
X71177143Y-54673809D01*
X71177143Y-54673809D02*
X71139048Y-54597619D01*
X71139048Y-54597619D02*
X71100952Y-54445238D01*
X71100952Y-54445238D02*
X71100952Y-54254762D01*
X71100952Y-54254762D02*
X71139048Y-54102381D01*
X71139048Y-54102381D02*
X71177143Y-54026190D01*
X71177143Y-54026190D02*
X71215238Y-53988095D01*
X71215238Y-53988095D02*
X71291429Y-53950000D01*
X72243810Y-53950000D02*
X72091429Y-53950000D01*
X72091429Y-53950000D02*
X72015238Y-53988095D01*
X72015238Y-53988095D02*
X71977143Y-54026190D01*
X71977143Y-54026190D02*
X71900953Y-54140476D01*
X71900953Y-54140476D02*
X71862857Y-54292857D01*
X71862857Y-54292857D02*
X71862857Y-54597619D01*
X71862857Y-54597619D02*
X71900953Y-54673809D01*
X71900953Y-54673809D02*
X71939048Y-54711905D01*
X71939048Y-54711905D02*
X72015238Y-54750000D01*
X72015238Y-54750000D02*
X72167619Y-54750000D01*
X72167619Y-54750000D02*
X72243810Y-54711905D01*
X72243810Y-54711905D02*
X72281905Y-54673809D01*
X72281905Y-54673809D02*
X72320000Y-54597619D01*
X72320000Y-54597619D02*
X72320000Y-54407143D01*
X72320000Y-54407143D02*
X72281905Y-54330952D01*
X72281905Y-54330952D02*
X72243810Y-54292857D01*
X72243810Y-54292857D02*
X72167619Y-54254762D01*
X72167619Y-54254762D02*
X72015238Y-54254762D01*
X72015238Y-54254762D02*
X71939048Y-54292857D01*
X71939048Y-54292857D02*
X71900953Y-54330952D01*
X71900953Y-54330952D02*
X71862857Y-54407143D01*
X52696190Y-40619048D02*
X52429523Y-40238095D01*
X52239047Y-40619048D02*
X52239047Y-39819048D01*
X52239047Y-39819048D02*
X52543809Y-39819048D01*
X52543809Y-39819048D02*
X52619999Y-39857143D01*
X52619999Y-39857143D02*
X52658094Y-39895238D01*
X52658094Y-39895238D02*
X52696190Y-39971429D01*
X52696190Y-39971429D02*
X52696190Y-40085714D01*
X52696190Y-40085714D02*
X52658094Y-40161905D01*
X52658094Y-40161905D02*
X52619999Y-40200000D01*
X52619999Y-40200000D02*
X52543809Y-40238095D01*
X52543809Y-40238095D02*
X52239047Y-40238095D01*
X53458094Y-40619048D02*
X53000951Y-40619048D01*
X53229523Y-40619048D02*
X53229523Y-39819048D01*
X53229523Y-39819048D02*
X53153332Y-39933333D01*
X53153332Y-39933333D02*
X53077142Y-40009524D01*
X53077142Y-40009524D02*
X53000951Y-40047619D01*
X53953333Y-39819048D02*
X54029523Y-39819048D01*
X54029523Y-39819048D02*
X54105714Y-39857143D01*
X54105714Y-39857143D02*
X54143809Y-39895238D01*
X54143809Y-39895238D02*
X54181904Y-39971429D01*
X54181904Y-39971429D02*
X54219999Y-40123810D01*
X54219999Y-40123810D02*
X54219999Y-40314286D01*
X54219999Y-40314286D02*
X54181904Y-40466667D01*
X54181904Y-40466667D02*
X54143809Y-40542857D01*
X54143809Y-40542857D02*
X54105714Y-40580953D01*
X54105714Y-40580953D02*
X54029523Y-40619048D01*
X54029523Y-40619048D02*
X53953333Y-40619048D01*
X53953333Y-40619048D02*
X53877142Y-40580953D01*
X53877142Y-40580953D02*
X53839047Y-40542857D01*
X53839047Y-40542857D02*
X53800952Y-40466667D01*
X53800952Y-40466667D02*
X53762856Y-40314286D01*
X53762856Y-40314286D02*
X53762856Y-40123810D01*
X53762856Y-40123810D02*
X53800952Y-39971429D01*
X53800952Y-39971429D02*
X53839047Y-39895238D01*
X53839047Y-39895238D02*
X53877142Y-39857143D01*
X53877142Y-39857143D02*
X53953333Y-39819048D01*
X54905714Y-40085714D02*
X54905714Y-40619048D01*
X54715238Y-39780953D02*
X54524761Y-40352381D01*
X54524761Y-40352381D02*
X55020000Y-40352381D01*
X38162500Y-46815714D02*
X37781547Y-47082381D01*
X38162500Y-47272857D02*
X37362500Y-47272857D01*
X37362500Y-47272857D02*
X37362500Y-46968095D01*
X37362500Y-46968095D02*
X37400595Y-46891905D01*
X37400595Y-46891905D02*
X37438690Y-46853810D01*
X37438690Y-46853810D02*
X37514881Y-46815714D01*
X37514881Y-46815714D02*
X37629166Y-46815714D01*
X37629166Y-46815714D02*
X37705357Y-46853810D01*
X37705357Y-46853810D02*
X37743452Y-46891905D01*
X37743452Y-46891905D02*
X37781547Y-46968095D01*
X37781547Y-46968095D02*
X37781547Y-47272857D01*
X38162500Y-46053810D02*
X38162500Y-46510953D01*
X38162500Y-46282381D02*
X37362500Y-46282381D01*
X37362500Y-46282381D02*
X37476785Y-46358572D01*
X37476785Y-46358572D02*
X37552976Y-46434762D01*
X37552976Y-46434762D02*
X37591071Y-46510953D01*
X38162500Y-45291905D02*
X38162500Y-45749048D01*
X38162500Y-45520476D02*
X37362500Y-45520476D01*
X37362500Y-45520476D02*
X37476785Y-45596667D01*
X37476785Y-45596667D02*
X37552976Y-45672857D01*
X37552976Y-45672857D02*
X37591071Y-45749048D01*
X37362500Y-44606190D02*
X37362500Y-44758571D01*
X37362500Y-44758571D02*
X37400595Y-44834762D01*
X37400595Y-44834762D02*
X37438690Y-44872857D01*
X37438690Y-44872857D02*
X37552976Y-44949047D01*
X37552976Y-44949047D02*
X37705357Y-44987143D01*
X37705357Y-44987143D02*
X38010119Y-44987143D01*
X38010119Y-44987143D02*
X38086309Y-44949047D01*
X38086309Y-44949047D02*
X38124405Y-44910952D01*
X38124405Y-44910952D02*
X38162500Y-44834762D01*
X38162500Y-44834762D02*
X38162500Y-44682381D01*
X38162500Y-44682381D02*
X38124405Y-44606190D01*
X38124405Y-44606190D02*
X38086309Y-44568095D01*
X38086309Y-44568095D02*
X38010119Y-44530000D01*
X38010119Y-44530000D02*
X37819643Y-44530000D01*
X37819643Y-44530000D02*
X37743452Y-44568095D01*
X37743452Y-44568095D02*
X37705357Y-44606190D01*
X37705357Y-44606190D02*
X37667262Y-44682381D01*
X37667262Y-44682381D02*
X37667262Y-44834762D01*
X37667262Y-44834762D02*
X37705357Y-44910952D01*
X37705357Y-44910952D02*
X37743452Y-44949047D01*
X37743452Y-44949047D02*
X37819643Y-44987143D01*
X65704215Y-61999999D02*
X65704215Y-62647618D01*
X65704215Y-62647618D02*
X65742310Y-62723808D01*
X65742310Y-62723808D02*
X65780405Y-62761904D01*
X65780405Y-62761904D02*
X65856596Y-62799999D01*
X65856596Y-62799999D02*
X66008977Y-62799999D01*
X66008977Y-62799999D02*
X66085167Y-62761904D01*
X66085167Y-62761904D02*
X66123262Y-62723808D01*
X66123262Y-62723808D02*
X66161358Y-62647618D01*
X66161358Y-62647618D02*
X66161358Y-61999999D01*
X66466119Y-61999999D02*
X66961357Y-61999999D01*
X66961357Y-61999999D02*
X66694691Y-62304761D01*
X66694691Y-62304761D02*
X66808976Y-62304761D01*
X66808976Y-62304761D02*
X66885167Y-62342856D01*
X66885167Y-62342856D02*
X66923262Y-62380951D01*
X66923262Y-62380951D02*
X66961357Y-62457142D01*
X66961357Y-62457142D02*
X66961357Y-62647618D01*
X66961357Y-62647618D02*
X66923262Y-62723808D01*
X66923262Y-62723808D02*
X66885167Y-62761904D01*
X66885167Y-62761904D02*
X66808976Y-62799999D01*
X66808976Y-62799999D02*
X66580405Y-62799999D01*
X66580405Y-62799999D02*
X66504214Y-62761904D01*
X66504214Y-62761904D02*
X66466119Y-62723808D01*
X67456596Y-61999999D02*
X67532786Y-61999999D01*
X67532786Y-61999999D02*
X67608977Y-62038094D01*
X67608977Y-62038094D02*
X67647072Y-62076189D01*
X67647072Y-62076189D02*
X67685167Y-62152380D01*
X67685167Y-62152380D02*
X67723262Y-62304761D01*
X67723262Y-62304761D02*
X67723262Y-62495237D01*
X67723262Y-62495237D02*
X67685167Y-62647618D01*
X67685167Y-62647618D02*
X67647072Y-62723808D01*
X67647072Y-62723808D02*
X67608977Y-62761904D01*
X67608977Y-62761904D02*
X67532786Y-62799999D01*
X67532786Y-62799999D02*
X67456596Y-62799999D01*
X67456596Y-62799999D02*
X67380405Y-62761904D01*
X67380405Y-62761904D02*
X67342310Y-62723808D01*
X67342310Y-62723808D02*
X67304215Y-62647618D01*
X67304215Y-62647618D02*
X67266119Y-62495237D01*
X67266119Y-62495237D02*
X67266119Y-62304761D01*
X67266119Y-62304761D02*
X67304215Y-62152380D01*
X67304215Y-62152380D02*
X67342310Y-62076189D01*
X67342310Y-62076189D02*
X67380405Y-62038094D01*
X67380405Y-62038094D02*
X67456596Y-61999999D01*
X68485167Y-62799999D02*
X68028024Y-62799999D01*
X68256596Y-62799999D02*
X68256596Y-61999999D01*
X68256596Y-61999999D02*
X68180405Y-62114284D01*
X68180405Y-62114284D02*
X68104215Y-62190475D01*
X68104215Y-62190475D02*
X68028024Y-62228570D01*
X30000000Y-62226428D02*
X29200000Y-62226428D01*
X29200000Y-62226428D02*
X29200000Y-62035952D01*
X29200000Y-62035952D02*
X29238095Y-61921666D01*
X29238095Y-61921666D02*
X29314285Y-61845476D01*
X29314285Y-61845476D02*
X29390476Y-61807381D01*
X29390476Y-61807381D02*
X29542857Y-61769285D01*
X29542857Y-61769285D02*
X29657143Y-61769285D01*
X29657143Y-61769285D02*
X29809524Y-61807381D01*
X29809524Y-61807381D02*
X29885714Y-61845476D01*
X29885714Y-61845476D02*
X29961905Y-61921666D01*
X29961905Y-61921666D02*
X30000000Y-62035952D01*
X30000000Y-62035952D02*
X30000000Y-62226428D01*
X29200000Y-61502619D02*
X29200000Y-61007381D01*
X29200000Y-61007381D02*
X29504762Y-61274047D01*
X29504762Y-61274047D02*
X29504762Y-61159762D01*
X29504762Y-61159762D02*
X29542857Y-61083571D01*
X29542857Y-61083571D02*
X29580952Y-61045476D01*
X29580952Y-61045476D02*
X29657143Y-61007381D01*
X29657143Y-61007381D02*
X29847619Y-61007381D01*
X29847619Y-61007381D02*
X29923809Y-61045476D01*
X29923809Y-61045476D02*
X29961905Y-61083571D01*
X29961905Y-61083571D02*
X30000000Y-61159762D01*
X30000000Y-61159762D02*
X30000000Y-61388333D01*
X30000000Y-61388333D02*
X29961905Y-61464524D01*
X29961905Y-61464524D02*
X29923809Y-61502619D01*
X29200000Y-60512142D02*
X29200000Y-60435952D01*
X29200000Y-60435952D02*
X29238095Y-60359761D01*
X29238095Y-60359761D02*
X29276190Y-60321666D01*
X29276190Y-60321666D02*
X29352381Y-60283571D01*
X29352381Y-60283571D02*
X29504762Y-60245476D01*
X29504762Y-60245476D02*
X29695238Y-60245476D01*
X29695238Y-60245476D02*
X29847619Y-60283571D01*
X29847619Y-60283571D02*
X29923809Y-60321666D01*
X29923809Y-60321666D02*
X29961905Y-60359761D01*
X29961905Y-60359761D02*
X30000000Y-60435952D01*
X30000000Y-60435952D02*
X30000000Y-60512142D01*
X30000000Y-60512142D02*
X29961905Y-60588333D01*
X29961905Y-60588333D02*
X29923809Y-60626428D01*
X29923809Y-60626428D02*
X29847619Y-60664523D01*
X29847619Y-60664523D02*
X29695238Y-60702619D01*
X29695238Y-60702619D02*
X29504762Y-60702619D01*
X29504762Y-60702619D02*
X29352381Y-60664523D01*
X29352381Y-60664523D02*
X29276190Y-60626428D01*
X29276190Y-60626428D02*
X29238095Y-60588333D01*
X29238095Y-60588333D02*
X29200000Y-60512142D01*
X30000000Y-59483571D02*
X30000000Y-59940714D01*
X30000000Y-59712142D02*
X29200000Y-59712142D01*
X29200000Y-59712142D02*
X29314285Y-59788333D01*
X29314285Y-59788333D02*
X29390476Y-59864523D01*
X29390476Y-59864523D02*
X29428571Y-59940714D01*
X27550000Y-52845238D02*
X28121428Y-52845238D01*
X28121428Y-52845238D02*
X28235714Y-52883333D01*
X28235714Y-52883333D02*
X28311905Y-52959524D01*
X28311905Y-52959524D02*
X28350000Y-53073809D01*
X28350000Y-53073809D02*
X28350000Y-53150000D01*
X27550000Y-52540476D02*
X27550000Y-52045238D01*
X27550000Y-52045238D02*
X27854762Y-52311904D01*
X27854762Y-52311904D02*
X27854762Y-52197619D01*
X27854762Y-52197619D02*
X27892857Y-52121428D01*
X27892857Y-52121428D02*
X27930952Y-52083333D01*
X27930952Y-52083333D02*
X28007143Y-52045238D01*
X28007143Y-52045238D02*
X28197619Y-52045238D01*
X28197619Y-52045238D02*
X28273809Y-52083333D01*
X28273809Y-52083333D02*
X28311905Y-52121428D01*
X28311905Y-52121428D02*
X28350000Y-52197619D01*
X28350000Y-52197619D02*
X28350000Y-52426190D01*
X28350000Y-52426190D02*
X28311905Y-52502381D01*
X28311905Y-52502381D02*
X28273809Y-52540476D01*
X27550000Y-51549999D02*
X27550000Y-51473809D01*
X27550000Y-51473809D02*
X27588095Y-51397618D01*
X27588095Y-51397618D02*
X27626190Y-51359523D01*
X27626190Y-51359523D02*
X27702381Y-51321428D01*
X27702381Y-51321428D02*
X27854762Y-51283333D01*
X27854762Y-51283333D02*
X28045238Y-51283333D01*
X28045238Y-51283333D02*
X28197619Y-51321428D01*
X28197619Y-51321428D02*
X28273809Y-51359523D01*
X28273809Y-51359523D02*
X28311905Y-51397618D01*
X28311905Y-51397618D02*
X28350000Y-51473809D01*
X28350000Y-51473809D02*
X28350000Y-51549999D01*
X28350000Y-51549999D02*
X28311905Y-51626190D01*
X28311905Y-51626190D02*
X28273809Y-51664285D01*
X28273809Y-51664285D02*
X28197619Y-51702380D01*
X28197619Y-51702380D02*
X28045238Y-51740476D01*
X28045238Y-51740476D02*
X27854762Y-51740476D01*
X27854762Y-51740476D02*
X27702381Y-51702380D01*
X27702381Y-51702380D02*
X27626190Y-51664285D01*
X27626190Y-51664285D02*
X27588095Y-51626190D01*
X27588095Y-51626190D02*
X27550000Y-51549999D01*
X27626190Y-50978571D02*
X27588095Y-50940475D01*
X27588095Y-50940475D02*
X27550000Y-50864285D01*
X27550000Y-50864285D02*
X27550000Y-50673809D01*
X27550000Y-50673809D02*
X27588095Y-50597618D01*
X27588095Y-50597618D02*
X27626190Y-50559523D01*
X27626190Y-50559523D02*
X27702381Y-50521428D01*
X27702381Y-50521428D02*
X27778571Y-50521428D01*
X27778571Y-50521428D02*
X27892857Y-50559523D01*
X27892857Y-50559523D02*
X28350000Y-51016666D01*
X28350000Y-51016666D02*
X28350000Y-50521428D01*
X45884048Y-31600000D02*
X45884048Y-32247619D01*
X45884048Y-32247619D02*
X45922143Y-32323809D01*
X45922143Y-32323809D02*
X45960238Y-32361905D01*
X45960238Y-32361905D02*
X46036429Y-32400000D01*
X46036429Y-32400000D02*
X46188810Y-32400000D01*
X46188810Y-32400000D02*
X46265000Y-32361905D01*
X46265000Y-32361905D02*
X46303095Y-32323809D01*
X46303095Y-32323809D02*
X46341191Y-32247619D01*
X46341191Y-32247619D02*
X46341191Y-31600000D01*
X47141190Y-32400000D02*
X46684047Y-32400000D01*
X46912619Y-32400000D02*
X46912619Y-31600000D01*
X46912619Y-31600000D02*
X46836428Y-31714285D01*
X46836428Y-31714285D02*
X46760238Y-31790476D01*
X46760238Y-31790476D02*
X46684047Y-31828571D01*
X47636429Y-31600000D02*
X47712619Y-31600000D01*
X47712619Y-31600000D02*
X47788810Y-31638095D01*
X47788810Y-31638095D02*
X47826905Y-31676190D01*
X47826905Y-31676190D02*
X47865000Y-31752381D01*
X47865000Y-31752381D02*
X47903095Y-31904762D01*
X47903095Y-31904762D02*
X47903095Y-32095238D01*
X47903095Y-32095238D02*
X47865000Y-32247619D01*
X47865000Y-32247619D02*
X47826905Y-32323809D01*
X47826905Y-32323809D02*
X47788810Y-32361905D01*
X47788810Y-32361905D02*
X47712619Y-32400000D01*
X47712619Y-32400000D02*
X47636429Y-32400000D01*
X47636429Y-32400000D02*
X47560238Y-32361905D01*
X47560238Y-32361905D02*
X47522143Y-32323809D01*
X47522143Y-32323809D02*
X47484048Y-32247619D01*
X47484048Y-32247619D02*
X47445952Y-32095238D01*
X47445952Y-32095238D02*
X47445952Y-31904762D01*
X47445952Y-31904762D02*
X47484048Y-31752381D01*
X47484048Y-31752381D02*
X47522143Y-31676190D01*
X47522143Y-31676190D02*
X47560238Y-31638095D01*
X47560238Y-31638095D02*
X47636429Y-31600000D01*
X48665000Y-32400000D02*
X48207857Y-32400000D01*
X48436429Y-32400000D02*
X48436429Y-31600000D01*
X48436429Y-31600000D02*
X48360238Y-31714285D01*
X48360238Y-31714285D02*
X48284048Y-31790476D01*
X48284048Y-31790476D02*
X48207857Y-31828571D01*
X57535714Y-44030000D02*
X57269047Y-43649047D01*
X57078571Y-44030000D02*
X57078571Y-43230000D01*
X57078571Y-43230000D02*
X57383333Y-43230000D01*
X57383333Y-43230000D02*
X57459523Y-43268095D01*
X57459523Y-43268095D02*
X57497618Y-43306190D01*
X57497618Y-43306190D02*
X57535714Y-43382381D01*
X57535714Y-43382381D02*
X57535714Y-43496666D01*
X57535714Y-43496666D02*
X57497618Y-43572857D01*
X57497618Y-43572857D02*
X57459523Y-43610952D01*
X57459523Y-43610952D02*
X57383333Y-43649047D01*
X57383333Y-43649047D02*
X57078571Y-43649047D01*
X58297618Y-44030000D02*
X57840475Y-44030000D01*
X58069047Y-44030000D02*
X58069047Y-43230000D01*
X58069047Y-43230000D02*
X57992856Y-43344285D01*
X57992856Y-43344285D02*
X57916666Y-43420476D01*
X57916666Y-43420476D02*
X57840475Y-43458571D01*
X58792857Y-43230000D02*
X58869047Y-43230000D01*
X58869047Y-43230000D02*
X58945238Y-43268095D01*
X58945238Y-43268095D02*
X58983333Y-43306190D01*
X58983333Y-43306190D02*
X59021428Y-43382381D01*
X59021428Y-43382381D02*
X59059523Y-43534762D01*
X59059523Y-43534762D02*
X59059523Y-43725238D01*
X59059523Y-43725238D02*
X59021428Y-43877619D01*
X59021428Y-43877619D02*
X58983333Y-43953809D01*
X58983333Y-43953809D02*
X58945238Y-43991905D01*
X58945238Y-43991905D02*
X58869047Y-44030000D01*
X58869047Y-44030000D02*
X58792857Y-44030000D01*
X58792857Y-44030000D02*
X58716666Y-43991905D01*
X58716666Y-43991905D02*
X58678571Y-43953809D01*
X58678571Y-43953809D02*
X58640476Y-43877619D01*
X58640476Y-43877619D02*
X58602380Y-43725238D01*
X58602380Y-43725238D02*
X58602380Y-43534762D01*
X58602380Y-43534762D02*
X58640476Y-43382381D01*
X58640476Y-43382381D02*
X58678571Y-43306190D01*
X58678571Y-43306190D02*
X58716666Y-43268095D01*
X58716666Y-43268095D02*
X58792857Y-43230000D01*
X59783333Y-43230000D02*
X59402381Y-43230000D01*
X59402381Y-43230000D02*
X59364285Y-43610952D01*
X59364285Y-43610952D02*
X59402381Y-43572857D01*
X59402381Y-43572857D02*
X59478571Y-43534762D01*
X59478571Y-43534762D02*
X59669047Y-43534762D01*
X59669047Y-43534762D02*
X59745238Y-43572857D01*
X59745238Y-43572857D02*
X59783333Y-43610952D01*
X59783333Y-43610952D02*
X59821428Y-43687143D01*
X59821428Y-43687143D02*
X59821428Y-43877619D01*
X59821428Y-43877619D02*
X59783333Y-43953809D01*
X59783333Y-43953809D02*
X59745238Y-43991905D01*
X59745238Y-43991905D02*
X59669047Y-44030000D01*
X59669047Y-44030000D02*
X59478571Y-44030000D01*
X59478571Y-44030000D02*
X59402381Y-43991905D01*
X59402381Y-43991905D02*
X59364285Y-43953809D01*
X59544547Y-29626999D02*
X60192166Y-29626999D01*
X60192166Y-29626999D02*
X60268356Y-29588904D01*
X60268356Y-29588904D02*
X60306452Y-29550809D01*
X60306452Y-29550809D02*
X60344547Y-29474618D01*
X60344547Y-29474618D02*
X60344547Y-29322237D01*
X60344547Y-29322237D02*
X60306452Y-29246047D01*
X60306452Y-29246047D02*
X60268356Y-29207952D01*
X60268356Y-29207952D02*
X60192166Y-29169856D01*
X60192166Y-29169856D02*
X59544547Y-29169856D01*
X59811213Y-28446047D02*
X60344547Y-28446047D01*
X59506452Y-28636523D02*
X60077880Y-28827000D01*
X60077880Y-28827000D02*
X60077880Y-28331761D01*
X59544547Y-27874618D02*
X59544547Y-27798428D01*
X59544547Y-27798428D02*
X59582642Y-27722237D01*
X59582642Y-27722237D02*
X59620737Y-27684142D01*
X59620737Y-27684142D02*
X59696928Y-27646047D01*
X59696928Y-27646047D02*
X59849309Y-27607952D01*
X59849309Y-27607952D02*
X60039785Y-27607952D01*
X60039785Y-27607952D02*
X60192166Y-27646047D01*
X60192166Y-27646047D02*
X60268356Y-27684142D01*
X60268356Y-27684142D02*
X60306452Y-27722237D01*
X60306452Y-27722237D02*
X60344547Y-27798428D01*
X60344547Y-27798428D02*
X60344547Y-27874618D01*
X60344547Y-27874618D02*
X60306452Y-27950809D01*
X60306452Y-27950809D02*
X60268356Y-27988904D01*
X60268356Y-27988904D02*
X60192166Y-28026999D01*
X60192166Y-28026999D02*
X60039785Y-28065095D01*
X60039785Y-28065095D02*
X59849309Y-28065095D01*
X59849309Y-28065095D02*
X59696928Y-28026999D01*
X59696928Y-28026999D02*
X59620737Y-27988904D01*
X59620737Y-27988904D02*
X59582642Y-27950809D01*
X59582642Y-27950809D02*
X59544547Y-27874618D01*
X59544547Y-27341285D02*
X59544547Y-26846047D01*
X59544547Y-26846047D02*
X59849309Y-27112713D01*
X59849309Y-27112713D02*
X59849309Y-26998428D01*
X59849309Y-26998428D02*
X59887404Y-26922237D01*
X59887404Y-26922237D02*
X59925499Y-26884142D01*
X59925499Y-26884142D02*
X60001690Y-26846047D01*
X60001690Y-26846047D02*
X60192166Y-26846047D01*
X60192166Y-26846047D02*
X60268356Y-26884142D01*
X60268356Y-26884142D02*
X60306452Y-26922237D01*
X60306452Y-26922237D02*
X60344547Y-26998428D01*
X60344547Y-26998428D02*
X60344547Y-27226999D01*
X60344547Y-27226999D02*
X60306452Y-27303190D01*
X60306452Y-27303190D02*
X60268356Y-27341285D01*
X54850000Y-47861905D02*
X54964286Y-47900000D01*
X54964286Y-47900000D02*
X55154762Y-47900000D01*
X55154762Y-47900000D02*
X55230953Y-47861905D01*
X55230953Y-47861905D02*
X55269048Y-47823809D01*
X55269048Y-47823809D02*
X55307143Y-47747619D01*
X55307143Y-47747619D02*
X55307143Y-47671428D01*
X55307143Y-47671428D02*
X55269048Y-47595238D01*
X55269048Y-47595238D02*
X55230953Y-47557143D01*
X55230953Y-47557143D02*
X55154762Y-47519047D01*
X55154762Y-47519047D02*
X55002381Y-47480952D01*
X55002381Y-47480952D02*
X54926191Y-47442857D01*
X54926191Y-47442857D02*
X54888096Y-47404762D01*
X54888096Y-47404762D02*
X54850000Y-47328571D01*
X54850000Y-47328571D02*
X54850000Y-47252381D01*
X54850000Y-47252381D02*
X54888096Y-47176190D01*
X54888096Y-47176190D02*
X54926191Y-47138095D01*
X54926191Y-47138095D02*
X55002381Y-47100000D01*
X55002381Y-47100000D02*
X55192858Y-47100000D01*
X55192858Y-47100000D02*
X55307143Y-47138095D01*
X55573810Y-47100000D02*
X55764286Y-47900000D01*
X55764286Y-47900000D02*
X55916667Y-47328571D01*
X55916667Y-47328571D02*
X56069048Y-47900000D01*
X56069048Y-47900000D02*
X56259525Y-47100000D01*
X56488096Y-47100000D02*
X56983334Y-47100000D01*
X56983334Y-47100000D02*
X56716668Y-47404762D01*
X56716668Y-47404762D02*
X56830953Y-47404762D01*
X56830953Y-47404762D02*
X56907144Y-47442857D01*
X56907144Y-47442857D02*
X56945239Y-47480952D01*
X56945239Y-47480952D02*
X56983334Y-47557143D01*
X56983334Y-47557143D02*
X56983334Y-47747619D01*
X56983334Y-47747619D02*
X56945239Y-47823809D01*
X56945239Y-47823809D02*
X56907144Y-47861905D01*
X56907144Y-47861905D02*
X56830953Y-47900000D01*
X56830953Y-47900000D02*
X56602382Y-47900000D01*
X56602382Y-47900000D02*
X56526191Y-47861905D01*
X56526191Y-47861905D02*
X56488096Y-47823809D01*
X57478573Y-47100000D02*
X57554763Y-47100000D01*
X57554763Y-47100000D02*
X57630954Y-47138095D01*
X57630954Y-47138095D02*
X57669049Y-47176190D01*
X57669049Y-47176190D02*
X57707144Y-47252381D01*
X57707144Y-47252381D02*
X57745239Y-47404762D01*
X57745239Y-47404762D02*
X57745239Y-47595238D01*
X57745239Y-47595238D02*
X57707144Y-47747619D01*
X57707144Y-47747619D02*
X57669049Y-47823809D01*
X57669049Y-47823809D02*
X57630954Y-47861905D01*
X57630954Y-47861905D02*
X57554763Y-47900000D01*
X57554763Y-47900000D02*
X57478573Y-47900000D01*
X57478573Y-47900000D02*
X57402382Y-47861905D01*
X57402382Y-47861905D02*
X57364287Y-47823809D01*
X57364287Y-47823809D02*
X57326192Y-47747619D01*
X57326192Y-47747619D02*
X57288096Y-47595238D01*
X57288096Y-47595238D02*
X57288096Y-47404762D01*
X57288096Y-47404762D02*
X57326192Y-47252381D01*
X57326192Y-47252381D02*
X57364287Y-47176190D01*
X57364287Y-47176190D02*
X57402382Y-47138095D01*
X57402382Y-47138095D02*
X57478573Y-47100000D01*
X58507144Y-47900000D02*
X58050001Y-47900000D01*
X58278573Y-47900000D02*
X58278573Y-47100000D01*
X58278573Y-47100000D02*
X58202382Y-47214285D01*
X58202382Y-47214285D02*
X58126192Y-47290476D01*
X58126192Y-47290476D02*
X58050001Y-47328571D01*
X55554286Y-34550000D02*
X55287619Y-34169047D01*
X55097143Y-34550000D02*
X55097143Y-33750000D01*
X55097143Y-33750000D02*
X55401905Y-33750000D01*
X55401905Y-33750000D02*
X55478095Y-33788095D01*
X55478095Y-33788095D02*
X55516190Y-33826190D01*
X55516190Y-33826190D02*
X55554286Y-33902381D01*
X55554286Y-33902381D02*
X55554286Y-34016666D01*
X55554286Y-34016666D02*
X55516190Y-34092857D01*
X55516190Y-34092857D02*
X55478095Y-34130952D01*
X55478095Y-34130952D02*
X55401905Y-34169047D01*
X55401905Y-34169047D02*
X55097143Y-34169047D01*
X56316190Y-34550000D02*
X55859047Y-34550000D01*
X56087619Y-34550000D02*
X56087619Y-33750000D01*
X56087619Y-33750000D02*
X56011428Y-33864285D01*
X56011428Y-33864285D02*
X55935238Y-33940476D01*
X55935238Y-33940476D02*
X55859047Y-33978571D01*
X56811429Y-33750000D02*
X56887619Y-33750000D01*
X56887619Y-33750000D02*
X56963810Y-33788095D01*
X56963810Y-33788095D02*
X57001905Y-33826190D01*
X57001905Y-33826190D02*
X57040000Y-33902381D01*
X57040000Y-33902381D02*
X57078095Y-34054762D01*
X57078095Y-34054762D02*
X57078095Y-34245238D01*
X57078095Y-34245238D02*
X57040000Y-34397619D01*
X57040000Y-34397619D02*
X57001905Y-34473809D01*
X57001905Y-34473809D02*
X56963810Y-34511905D01*
X56963810Y-34511905D02*
X56887619Y-34550000D01*
X56887619Y-34550000D02*
X56811429Y-34550000D01*
X56811429Y-34550000D02*
X56735238Y-34511905D01*
X56735238Y-34511905D02*
X56697143Y-34473809D01*
X56697143Y-34473809D02*
X56659048Y-34397619D01*
X56659048Y-34397619D02*
X56620952Y-34245238D01*
X56620952Y-34245238D02*
X56620952Y-34054762D01*
X56620952Y-34054762D02*
X56659048Y-33902381D01*
X56659048Y-33902381D02*
X56697143Y-33826190D01*
X56697143Y-33826190D02*
X56735238Y-33788095D01*
X56735238Y-33788095D02*
X56811429Y-33750000D01*
X57763810Y-33750000D02*
X57611429Y-33750000D01*
X57611429Y-33750000D02*
X57535238Y-33788095D01*
X57535238Y-33788095D02*
X57497143Y-33826190D01*
X57497143Y-33826190D02*
X57420953Y-33940476D01*
X57420953Y-33940476D02*
X57382857Y-34092857D01*
X57382857Y-34092857D02*
X57382857Y-34397619D01*
X57382857Y-34397619D02*
X57420953Y-34473809D01*
X57420953Y-34473809D02*
X57459048Y-34511905D01*
X57459048Y-34511905D02*
X57535238Y-34550000D01*
X57535238Y-34550000D02*
X57687619Y-34550000D01*
X57687619Y-34550000D02*
X57763810Y-34511905D01*
X57763810Y-34511905D02*
X57801905Y-34473809D01*
X57801905Y-34473809D02*
X57840000Y-34397619D01*
X57840000Y-34397619D02*
X57840000Y-34207143D01*
X57840000Y-34207143D02*
X57801905Y-34130952D01*
X57801905Y-34130952D02*
X57763810Y-34092857D01*
X57763810Y-34092857D02*
X57687619Y-34054762D01*
X57687619Y-34054762D02*
X57535238Y-34054762D01*
X57535238Y-34054762D02*
X57459048Y-34092857D01*
X57459048Y-34092857D02*
X57420953Y-34130952D01*
X57420953Y-34130952D02*
X57382857Y-34207143D01*
X38547677Y-27724350D02*
X38547677Y-28371969D01*
X38547677Y-28371969D02*
X38585772Y-28448159D01*
X38585772Y-28448159D02*
X38623867Y-28486255D01*
X38623867Y-28486255D02*
X38700058Y-28524350D01*
X38700058Y-28524350D02*
X38852439Y-28524350D01*
X38852439Y-28524350D02*
X38928629Y-28486255D01*
X38928629Y-28486255D02*
X38966724Y-28448159D01*
X38966724Y-28448159D02*
X39004820Y-28371969D01*
X39004820Y-28371969D02*
X39004820Y-27724350D01*
X39728629Y-27991016D02*
X39728629Y-28524350D01*
X39538153Y-27686255D02*
X39347676Y-28257683D01*
X39347676Y-28257683D02*
X39842915Y-28257683D01*
X40300058Y-27724350D02*
X40376248Y-27724350D01*
X40376248Y-27724350D02*
X40452439Y-27762445D01*
X40452439Y-27762445D02*
X40490534Y-27800540D01*
X40490534Y-27800540D02*
X40528629Y-27876731D01*
X40528629Y-27876731D02*
X40566724Y-28029112D01*
X40566724Y-28029112D02*
X40566724Y-28219588D01*
X40566724Y-28219588D02*
X40528629Y-28371969D01*
X40528629Y-28371969D02*
X40490534Y-28448159D01*
X40490534Y-28448159D02*
X40452439Y-28486255D01*
X40452439Y-28486255D02*
X40376248Y-28524350D01*
X40376248Y-28524350D02*
X40300058Y-28524350D01*
X40300058Y-28524350D02*
X40223867Y-28486255D01*
X40223867Y-28486255D02*
X40185772Y-28448159D01*
X40185772Y-28448159D02*
X40147677Y-28371969D01*
X40147677Y-28371969D02*
X40109581Y-28219588D01*
X40109581Y-28219588D02*
X40109581Y-28029112D01*
X40109581Y-28029112D02*
X40147677Y-27876731D01*
X40147677Y-27876731D02*
X40185772Y-27800540D01*
X40185772Y-27800540D02*
X40223867Y-27762445D01*
X40223867Y-27762445D02*
X40300058Y-27724350D01*
X40871486Y-27800540D02*
X40909582Y-27762445D01*
X40909582Y-27762445D02*
X40985772Y-27724350D01*
X40985772Y-27724350D02*
X41176248Y-27724350D01*
X41176248Y-27724350D02*
X41252439Y-27762445D01*
X41252439Y-27762445D02*
X41290534Y-27800540D01*
X41290534Y-27800540D02*
X41328629Y-27876731D01*
X41328629Y-27876731D02*
X41328629Y-27952921D01*
X41328629Y-27952921D02*
X41290534Y-28067207D01*
X41290534Y-28067207D02*
X40833391Y-28524350D01*
X40833391Y-28524350D02*
X41328629Y-28524350D01*
X62150000Y-45515714D02*
X61769047Y-45782381D01*
X62150000Y-45972857D02*
X61350000Y-45972857D01*
X61350000Y-45972857D02*
X61350000Y-45668095D01*
X61350000Y-45668095D02*
X61388095Y-45591905D01*
X61388095Y-45591905D02*
X61426190Y-45553810D01*
X61426190Y-45553810D02*
X61502381Y-45515714D01*
X61502381Y-45515714D02*
X61616666Y-45515714D01*
X61616666Y-45515714D02*
X61692857Y-45553810D01*
X61692857Y-45553810D02*
X61730952Y-45591905D01*
X61730952Y-45591905D02*
X61769047Y-45668095D01*
X61769047Y-45668095D02*
X61769047Y-45972857D01*
X62150000Y-44753810D02*
X62150000Y-45210953D01*
X62150000Y-44982381D02*
X61350000Y-44982381D01*
X61350000Y-44982381D02*
X61464285Y-45058572D01*
X61464285Y-45058572D02*
X61540476Y-45134762D01*
X61540476Y-45134762D02*
X61578571Y-45210953D01*
X61350000Y-44258571D02*
X61350000Y-44182381D01*
X61350000Y-44182381D02*
X61388095Y-44106190D01*
X61388095Y-44106190D02*
X61426190Y-44068095D01*
X61426190Y-44068095D02*
X61502381Y-44030000D01*
X61502381Y-44030000D02*
X61654762Y-43991905D01*
X61654762Y-43991905D02*
X61845238Y-43991905D01*
X61845238Y-43991905D02*
X61997619Y-44030000D01*
X61997619Y-44030000D02*
X62073809Y-44068095D01*
X62073809Y-44068095D02*
X62111905Y-44106190D01*
X62111905Y-44106190D02*
X62150000Y-44182381D01*
X62150000Y-44182381D02*
X62150000Y-44258571D01*
X62150000Y-44258571D02*
X62111905Y-44334762D01*
X62111905Y-44334762D02*
X62073809Y-44372857D01*
X62073809Y-44372857D02*
X61997619Y-44410952D01*
X61997619Y-44410952D02*
X61845238Y-44449048D01*
X61845238Y-44449048D02*
X61654762Y-44449048D01*
X61654762Y-44449048D02*
X61502381Y-44410952D01*
X61502381Y-44410952D02*
X61426190Y-44372857D01*
X61426190Y-44372857D02*
X61388095Y-44334762D01*
X61388095Y-44334762D02*
X61350000Y-44258571D01*
X61350000Y-43725238D02*
X61350000Y-43230000D01*
X61350000Y-43230000D02*
X61654762Y-43496666D01*
X61654762Y-43496666D02*
X61654762Y-43382381D01*
X61654762Y-43382381D02*
X61692857Y-43306190D01*
X61692857Y-43306190D02*
X61730952Y-43268095D01*
X61730952Y-43268095D02*
X61807143Y-43230000D01*
X61807143Y-43230000D02*
X61997619Y-43230000D01*
X61997619Y-43230000D02*
X62073809Y-43268095D01*
X62073809Y-43268095D02*
X62111905Y-43306190D01*
X62111905Y-43306190D02*
X62150000Y-43382381D01*
X62150000Y-43382381D02*
X62150000Y-43610952D01*
X62150000Y-43610952D02*
X62111905Y-43687143D01*
X62111905Y-43687143D02*
X62073809Y-43725238D01*
X42577143Y-41400000D02*
X42310476Y-41019047D01*
X42120000Y-41400000D02*
X42120000Y-40600000D01*
X42120000Y-40600000D02*
X42424762Y-40600000D01*
X42424762Y-40600000D02*
X42500952Y-40638095D01*
X42500952Y-40638095D02*
X42539047Y-40676190D01*
X42539047Y-40676190D02*
X42577143Y-40752381D01*
X42577143Y-40752381D02*
X42577143Y-40866666D01*
X42577143Y-40866666D02*
X42539047Y-40942857D01*
X42539047Y-40942857D02*
X42500952Y-40980952D01*
X42500952Y-40980952D02*
X42424762Y-41019047D01*
X42424762Y-41019047D02*
X42120000Y-41019047D01*
X43339047Y-41400000D02*
X42881904Y-41400000D01*
X43110476Y-41400000D02*
X43110476Y-40600000D01*
X43110476Y-40600000D02*
X43034285Y-40714285D01*
X43034285Y-40714285D02*
X42958095Y-40790476D01*
X42958095Y-40790476D02*
X42881904Y-40828571D01*
X44100952Y-41400000D02*
X43643809Y-41400000D01*
X43872381Y-41400000D02*
X43872381Y-40600000D01*
X43872381Y-40600000D02*
X43796190Y-40714285D01*
X43796190Y-40714285D02*
X43720000Y-40790476D01*
X43720000Y-40790476D02*
X43643809Y-40828571D01*
X44824762Y-40600000D02*
X44443810Y-40600000D01*
X44443810Y-40600000D02*
X44405714Y-40980952D01*
X44405714Y-40980952D02*
X44443810Y-40942857D01*
X44443810Y-40942857D02*
X44520000Y-40904762D01*
X44520000Y-40904762D02*
X44710476Y-40904762D01*
X44710476Y-40904762D02*
X44786667Y-40942857D01*
X44786667Y-40942857D02*
X44824762Y-40980952D01*
X44824762Y-40980952D02*
X44862857Y-41057143D01*
X44862857Y-41057143D02*
X44862857Y-41247619D01*
X44862857Y-41247619D02*
X44824762Y-41323809D01*
X44824762Y-41323809D02*
X44786667Y-41361905D01*
X44786667Y-41361905D02*
X44710476Y-41400000D01*
X44710476Y-41400000D02*
X44520000Y-41400000D01*
X44520000Y-41400000D02*
X44443810Y-41361905D01*
X44443810Y-41361905D02*
X44405714Y-41323809D01*
X32450000Y-59471429D02*
X31650000Y-59471429D01*
X31650000Y-59471429D02*
X31650000Y-59280953D01*
X31650000Y-59280953D02*
X31688095Y-59166667D01*
X31688095Y-59166667D02*
X31764285Y-59090477D01*
X31764285Y-59090477D02*
X31840476Y-59052382D01*
X31840476Y-59052382D02*
X31992857Y-59014286D01*
X31992857Y-59014286D02*
X32107143Y-59014286D01*
X32107143Y-59014286D02*
X32259524Y-59052382D01*
X32259524Y-59052382D02*
X32335714Y-59090477D01*
X32335714Y-59090477D02*
X32411905Y-59166667D01*
X32411905Y-59166667D02*
X32450000Y-59280953D01*
X32450000Y-59280953D02*
X32450000Y-59471429D01*
X31650000Y-58747620D02*
X31650000Y-58252382D01*
X31650000Y-58252382D02*
X31954762Y-58519048D01*
X31954762Y-58519048D02*
X31954762Y-58404763D01*
X31954762Y-58404763D02*
X31992857Y-58328572D01*
X31992857Y-58328572D02*
X32030952Y-58290477D01*
X32030952Y-58290477D02*
X32107143Y-58252382D01*
X32107143Y-58252382D02*
X32297619Y-58252382D01*
X32297619Y-58252382D02*
X32373809Y-58290477D01*
X32373809Y-58290477D02*
X32411905Y-58328572D01*
X32411905Y-58328572D02*
X32450000Y-58404763D01*
X32450000Y-58404763D02*
X32450000Y-58633334D01*
X32450000Y-58633334D02*
X32411905Y-58709525D01*
X32411905Y-58709525D02*
X32373809Y-58747620D01*
X31650000Y-57757143D02*
X31650000Y-57680953D01*
X31650000Y-57680953D02*
X31688095Y-57604762D01*
X31688095Y-57604762D02*
X31726190Y-57566667D01*
X31726190Y-57566667D02*
X31802381Y-57528572D01*
X31802381Y-57528572D02*
X31954762Y-57490477D01*
X31954762Y-57490477D02*
X32145238Y-57490477D01*
X32145238Y-57490477D02*
X32297619Y-57528572D01*
X32297619Y-57528572D02*
X32373809Y-57566667D01*
X32373809Y-57566667D02*
X32411905Y-57604762D01*
X32411905Y-57604762D02*
X32450000Y-57680953D01*
X32450000Y-57680953D02*
X32450000Y-57757143D01*
X32450000Y-57757143D02*
X32411905Y-57833334D01*
X32411905Y-57833334D02*
X32373809Y-57871429D01*
X32373809Y-57871429D02*
X32297619Y-57909524D01*
X32297619Y-57909524D02*
X32145238Y-57947620D01*
X32145238Y-57947620D02*
X31954762Y-57947620D01*
X31954762Y-57947620D02*
X31802381Y-57909524D01*
X31802381Y-57909524D02*
X31726190Y-57871429D01*
X31726190Y-57871429D02*
X31688095Y-57833334D01*
X31688095Y-57833334D02*
X31650000Y-57757143D01*
X31650000Y-57223810D02*
X31650000Y-56728572D01*
X31650000Y-56728572D02*
X31954762Y-56995238D01*
X31954762Y-56995238D02*
X31954762Y-56880953D01*
X31954762Y-56880953D02*
X31992857Y-56804762D01*
X31992857Y-56804762D02*
X32030952Y-56766667D01*
X32030952Y-56766667D02*
X32107143Y-56728572D01*
X32107143Y-56728572D02*
X32297619Y-56728572D01*
X32297619Y-56728572D02*
X32373809Y-56766667D01*
X32373809Y-56766667D02*
X32411905Y-56804762D01*
X32411905Y-56804762D02*
X32450000Y-56880953D01*
X32450000Y-56880953D02*
X32450000Y-57109524D01*
X32450000Y-57109524D02*
X32411905Y-57185715D01*
X32411905Y-57185715D02*
X32373809Y-57223810D01*
X72673809Y-44274761D02*
X72711905Y-44312857D01*
X72711905Y-44312857D02*
X72750000Y-44427142D01*
X72750000Y-44427142D02*
X72750000Y-44503333D01*
X72750000Y-44503333D02*
X72711905Y-44617619D01*
X72711905Y-44617619D02*
X72635714Y-44693809D01*
X72635714Y-44693809D02*
X72559524Y-44731904D01*
X72559524Y-44731904D02*
X72407143Y-44770000D01*
X72407143Y-44770000D02*
X72292857Y-44770000D01*
X72292857Y-44770000D02*
X72140476Y-44731904D01*
X72140476Y-44731904D02*
X72064285Y-44693809D01*
X72064285Y-44693809D02*
X71988095Y-44617619D01*
X71988095Y-44617619D02*
X71950000Y-44503333D01*
X71950000Y-44503333D02*
X71950000Y-44427142D01*
X71950000Y-44427142D02*
X71988095Y-44312857D01*
X71988095Y-44312857D02*
X72026190Y-44274761D01*
X71950000Y-43550952D02*
X71950000Y-43931904D01*
X71950000Y-43931904D02*
X72330952Y-43970000D01*
X72330952Y-43970000D02*
X72292857Y-43931904D01*
X72292857Y-43931904D02*
X72254762Y-43855714D01*
X72254762Y-43855714D02*
X72254762Y-43665238D01*
X72254762Y-43665238D02*
X72292857Y-43589047D01*
X72292857Y-43589047D02*
X72330952Y-43550952D01*
X72330952Y-43550952D02*
X72407143Y-43512857D01*
X72407143Y-43512857D02*
X72597619Y-43512857D01*
X72597619Y-43512857D02*
X72673809Y-43550952D01*
X72673809Y-43550952D02*
X72711905Y-43589047D01*
X72711905Y-43589047D02*
X72750000Y-43665238D01*
X72750000Y-43665238D02*
X72750000Y-43855714D01*
X72750000Y-43855714D02*
X72711905Y-43931904D01*
X72711905Y-43931904D02*
X72673809Y-43970000D01*
X71950000Y-43017618D02*
X71950000Y-42941428D01*
X71950000Y-42941428D02*
X71988095Y-42865237D01*
X71988095Y-42865237D02*
X72026190Y-42827142D01*
X72026190Y-42827142D02*
X72102381Y-42789047D01*
X72102381Y-42789047D02*
X72254762Y-42750952D01*
X72254762Y-42750952D02*
X72445238Y-42750952D01*
X72445238Y-42750952D02*
X72597619Y-42789047D01*
X72597619Y-42789047D02*
X72673809Y-42827142D01*
X72673809Y-42827142D02*
X72711905Y-42865237D01*
X72711905Y-42865237D02*
X72750000Y-42941428D01*
X72750000Y-42941428D02*
X72750000Y-43017618D01*
X72750000Y-43017618D02*
X72711905Y-43093809D01*
X72711905Y-43093809D02*
X72673809Y-43131904D01*
X72673809Y-43131904D02*
X72597619Y-43169999D01*
X72597619Y-43169999D02*
X72445238Y-43208095D01*
X72445238Y-43208095D02*
X72254762Y-43208095D01*
X72254762Y-43208095D02*
X72102381Y-43169999D01*
X72102381Y-43169999D02*
X72026190Y-43131904D01*
X72026190Y-43131904D02*
X71988095Y-43093809D01*
X71988095Y-43093809D02*
X71950000Y-43017618D01*
X71950000Y-42065237D02*
X71950000Y-42217618D01*
X71950000Y-42217618D02*
X71988095Y-42293809D01*
X71988095Y-42293809D02*
X72026190Y-42331904D01*
X72026190Y-42331904D02*
X72140476Y-42408094D01*
X72140476Y-42408094D02*
X72292857Y-42446190D01*
X72292857Y-42446190D02*
X72597619Y-42446190D01*
X72597619Y-42446190D02*
X72673809Y-42408094D01*
X72673809Y-42408094D02*
X72711905Y-42369999D01*
X72711905Y-42369999D02*
X72750000Y-42293809D01*
X72750000Y-42293809D02*
X72750000Y-42141428D01*
X72750000Y-42141428D02*
X72711905Y-42065237D01*
X72711905Y-42065237D02*
X72673809Y-42027142D01*
X72673809Y-42027142D02*
X72597619Y-41989047D01*
X72597619Y-41989047D02*
X72407143Y-41989047D01*
X72407143Y-41989047D02*
X72330952Y-42027142D01*
X72330952Y-42027142D02*
X72292857Y-42065237D01*
X72292857Y-42065237D02*
X72254762Y-42141428D01*
X72254762Y-42141428D02*
X72254762Y-42293809D01*
X72254762Y-42293809D02*
X72292857Y-42369999D01*
X72292857Y-42369999D02*
X72330952Y-42408094D01*
X72330952Y-42408094D02*
X72407143Y-42446190D01*
X38950000Y-39170000D02*
X39597619Y-39170000D01*
X39597619Y-39170000D02*
X39673809Y-39131905D01*
X39673809Y-39131905D02*
X39711905Y-39093810D01*
X39711905Y-39093810D02*
X39750000Y-39017619D01*
X39750000Y-39017619D02*
X39750000Y-38865238D01*
X39750000Y-38865238D02*
X39711905Y-38789048D01*
X39711905Y-38789048D02*
X39673809Y-38750953D01*
X39673809Y-38750953D02*
X39597619Y-38712857D01*
X39597619Y-38712857D02*
X38950000Y-38712857D01*
X39750000Y-37912858D02*
X39750000Y-38370001D01*
X39750000Y-38141429D02*
X38950000Y-38141429D01*
X38950000Y-38141429D02*
X39064285Y-38217620D01*
X39064285Y-38217620D02*
X39140476Y-38293810D01*
X39140476Y-38293810D02*
X39178571Y-38370001D01*
X38950000Y-37417619D02*
X38950000Y-37341429D01*
X38950000Y-37341429D02*
X38988095Y-37265238D01*
X38988095Y-37265238D02*
X39026190Y-37227143D01*
X39026190Y-37227143D02*
X39102381Y-37189048D01*
X39102381Y-37189048D02*
X39254762Y-37150953D01*
X39254762Y-37150953D02*
X39445238Y-37150953D01*
X39445238Y-37150953D02*
X39597619Y-37189048D01*
X39597619Y-37189048D02*
X39673809Y-37227143D01*
X39673809Y-37227143D02*
X39711905Y-37265238D01*
X39711905Y-37265238D02*
X39750000Y-37341429D01*
X39750000Y-37341429D02*
X39750000Y-37417619D01*
X39750000Y-37417619D02*
X39711905Y-37493810D01*
X39711905Y-37493810D02*
X39673809Y-37531905D01*
X39673809Y-37531905D02*
X39597619Y-37570000D01*
X39597619Y-37570000D02*
X39445238Y-37608096D01*
X39445238Y-37608096D02*
X39254762Y-37608096D01*
X39254762Y-37608096D02*
X39102381Y-37570000D01*
X39102381Y-37570000D02*
X39026190Y-37531905D01*
X39026190Y-37531905D02*
X38988095Y-37493810D01*
X38988095Y-37493810D02*
X38950000Y-37417619D01*
X38950000Y-36427143D02*
X38950000Y-36808095D01*
X38950000Y-36808095D02*
X39330952Y-36846191D01*
X39330952Y-36846191D02*
X39292857Y-36808095D01*
X39292857Y-36808095D02*
X39254762Y-36731905D01*
X39254762Y-36731905D02*
X39254762Y-36541429D01*
X39254762Y-36541429D02*
X39292857Y-36465238D01*
X39292857Y-36465238D02*
X39330952Y-36427143D01*
X39330952Y-36427143D02*
X39407143Y-36389048D01*
X39407143Y-36389048D02*
X39597619Y-36389048D01*
X39597619Y-36389048D02*
X39673809Y-36427143D01*
X39673809Y-36427143D02*
X39711905Y-36465238D01*
X39711905Y-36465238D02*
X39750000Y-36541429D01*
X39750000Y-36541429D02*
X39750000Y-36731905D01*
X39750000Y-36731905D02*
X39711905Y-36808095D01*
X39711905Y-36808095D02*
X39673809Y-36846191D01*
X63520000Y-36083333D02*
X63139047Y-36350000D01*
X63520000Y-36540476D02*
X62720000Y-36540476D01*
X62720000Y-36540476D02*
X62720000Y-36235714D01*
X62720000Y-36235714D02*
X62758095Y-36159524D01*
X62758095Y-36159524D02*
X62796190Y-36121429D01*
X62796190Y-36121429D02*
X62872381Y-36083333D01*
X62872381Y-36083333D02*
X62986666Y-36083333D01*
X62986666Y-36083333D02*
X63062857Y-36121429D01*
X63062857Y-36121429D02*
X63100952Y-36159524D01*
X63100952Y-36159524D02*
X63139047Y-36235714D01*
X63139047Y-36235714D02*
X63139047Y-36540476D01*
X63520000Y-35321429D02*
X63520000Y-35778572D01*
X63520000Y-35550000D02*
X62720000Y-35550000D01*
X62720000Y-35550000D02*
X62834285Y-35626191D01*
X62834285Y-35626191D02*
X62910476Y-35702381D01*
X62910476Y-35702381D02*
X62948571Y-35778572D01*
X63520000Y-34559524D02*
X63520000Y-35016667D01*
X63520000Y-34788095D02*
X62720000Y-34788095D01*
X62720000Y-34788095D02*
X62834285Y-34864286D01*
X62834285Y-34864286D02*
X62910476Y-34940476D01*
X62910476Y-34940476D02*
X62948571Y-35016667D01*
X62720000Y-34292857D02*
X62720000Y-33759523D01*
X62720000Y-33759523D02*
X63520000Y-34102381D01*
X68886524Y-67332802D02*
X68886524Y-67980421D01*
X68886524Y-67980421D02*
X68924619Y-68056611D01*
X68924619Y-68056611D02*
X68962714Y-68094707D01*
X68962714Y-68094707D02*
X69038905Y-68132802D01*
X69038905Y-68132802D02*
X69191286Y-68132802D01*
X69191286Y-68132802D02*
X69267476Y-68094707D01*
X69267476Y-68094707D02*
X69305571Y-68056611D01*
X69305571Y-68056611D02*
X69343667Y-67980421D01*
X69343667Y-67980421D02*
X69343667Y-67332802D01*
X69648428Y-67332802D02*
X70143666Y-67332802D01*
X70143666Y-67332802D02*
X69877000Y-67637564D01*
X69877000Y-67637564D02*
X69991285Y-67637564D01*
X69991285Y-67637564D02*
X70067476Y-67675659D01*
X70067476Y-67675659D02*
X70105571Y-67713754D01*
X70105571Y-67713754D02*
X70143666Y-67789945D01*
X70143666Y-67789945D02*
X70143666Y-67980421D01*
X70143666Y-67980421D02*
X70105571Y-68056611D01*
X70105571Y-68056611D02*
X70067476Y-68094707D01*
X70067476Y-68094707D02*
X69991285Y-68132802D01*
X69991285Y-68132802D02*
X69762714Y-68132802D01*
X69762714Y-68132802D02*
X69686523Y-68094707D01*
X69686523Y-68094707D02*
X69648428Y-68056611D01*
X70638905Y-67332802D02*
X70715095Y-67332802D01*
X70715095Y-67332802D02*
X70791286Y-67370897D01*
X70791286Y-67370897D02*
X70829381Y-67408992D01*
X70829381Y-67408992D02*
X70867476Y-67485183D01*
X70867476Y-67485183D02*
X70905571Y-67637564D01*
X70905571Y-67637564D02*
X70905571Y-67828040D01*
X70905571Y-67828040D02*
X70867476Y-67980421D01*
X70867476Y-67980421D02*
X70829381Y-68056611D01*
X70829381Y-68056611D02*
X70791286Y-68094707D01*
X70791286Y-68094707D02*
X70715095Y-68132802D01*
X70715095Y-68132802D02*
X70638905Y-68132802D01*
X70638905Y-68132802D02*
X70562714Y-68094707D01*
X70562714Y-68094707D02*
X70524619Y-68056611D01*
X70524619Y-68056611D02*
X70486524Y-67980421D01*
X70486524Y-67980421D02*
X70448428Y-67828040D01*
X70448428Y-67828040D02*
X70448428Y-67637564D01*
X70448428Y-67637564D02*
X70486524Y-67485183D01*
X70486524Y-67485183D02*
X70524619Y-67408992D01*
X70524619Y-67408992D02*
X70562714Y-67370897D01*
X70562714Y-67370897D02*
X70638905Y-67332802D01*
X71210333Y-67408992D02*
X71248429Y-67370897D01*
X71248429Y-67370897D02*
X71324619Y-67332802D01*
X71324619Y-67332802D02*
X71515095Y-67332802D01*
X71515095Y-67332802D02*
X71591286Y-67370897D01*
X71591286Y-67370897D02*
X71629381Y-67408992D01*
X71629381Y-67408992D02*
X71667476Y-67485183D01*
X71667476Y-67485183D02*
X71667476Y-67561373D01*
X71667476Y-67561373D02*
X71629381Y-67675659D01*
X71629381Y-67675659D02*
X71172238Y-68132802D01*
X71172238Y-68132802D02*
X71667476Y-68132802D01*
X69255143Y-40293000D02*
X69255143Y-39493000D01*
X69255143Y-39493000D02*
X69445619Y-39493000D01*
X69445619Y-39493000D02*
X69559905Y-39531095D01*
X69559905Y-39531095D02*
X69636095Y-39607285D01*
X69636095Y-39607285D02*
X69674190Y-39683476D01*
X69674190Y-39683476D02*
X69712286Y-39835857D01*
X69712286Y-39835857D02*
X69712286Y-39950143D01*
X69712286Y-39950143D02*
X69674190Y-40102524D01*
X69674190Y-40102524D02*
X69636095Y-40178714D01*
X69636095Y-40178714D02*
X69559905Y-40254905D01*
X69559905Y-40254905D02*
X69445619Y-40293000D01*
X69445619Y-40293000D02*
X69255143Y-40293000D01*
X69978952Y-39493000D02*
X70474190Y-39493000D01*
X70474190Y-39493000D02*
X70207524Y-39797762D01*
X70207524Y-39797762D02*
X70321809Y-39797762D01*
X70321809Y-39797762D02*
X70398000Y-39835857D01*
X70398000Y-39835857D02*
X70436095Y-39873952D01*
X70436095Y-39873952D02*
X70474190Y-39950143D01*
X70474190Y-39950143D02*
X70474190Y-40140619D01*
X70474190Y-40140619D02*
X70436095Y-40216809D01*
X70436095Y-40216809D02*
X70398000Y-40254905D01*
X70398000Y-40254905D02*
X70321809Y-40293000D01*
X70321809Y-40293000D02*
X70093238Y-40293000D01*
X70093238Y-40293000D02*
X70017047Y-40254905D01*
X70017047Y-40254905D02*
X69978952Y-40216809D01*
X70969429Y-39493000D02*
X71045619Y-39493000D01*
X71045619Y-39493000D02*
X71121810Y-39531095D01*
X71121810Y-39531095D02*
X71159905Y-39569190D01*
X71159905Y-39569190D02*
X71198000Y-39645381D01*
X71198000Y-39645381D02*
X71236095Y-39797762D01*
X71236095Y-39797762D02*
X71236095Y-39988238D01*
X71236095Y-39988238D02*
X71198000Y-40140619D01*
X71198000Y-40140619D02*
X71159905Y-40216809D01*
X71159905Y-40216809D02*
X71121810Y-40254905D01*
X71121810Y-40254905D02*
X71045619Y-40293000D01*
X71045619Y-40293000D02*
X70969429Y-40293000D01*
X70969429Y-40293000D02*
X70893238Y-40254905D01*
X70893238Y-40254905D02*
X70855143Y-40216809D01*
X70855143Y-40216809D02*
X70817048Y-40140619D01*
X70817048Y-40140619D02*
X70778952Y-39988238D01*
X70778952Y-39988238D02*
X70778952Y-39797762D01*
X70778952Y-39797762D02*
X70817048Y-39645381D01*
X70817048Y-39645381D02*
X70855143Y-39569190D01*
X70855143Y-39569190D02*
X70893238Y-39531095D01*
X70893238Y-39531095D02*
X70969429Y-39493000D01*
X71540857Y-39569190D02*
X71578953Y-39531095D01*
X71578953Y-39531095D02*
X71655143Y-39493000D01*
X71655143Y-39493000D02*
X71845619Y-39493000D01*
X71845619Y-39493000D02*
X71921810Y-39531095D01*
X71921810Y-39531095D02*
X71959905Y-39569190D01*
X71959905Y-39569190D02*
X71998000Y-39645381D01*
X71998000Y-39645381D02*
X71998000Y-39721571D01*
X71998000Y-39721571D02*
X71959905Y-39835857D01*
X71959905Y-39835857D02*
X71502762Y-40293000D01*
X71502762Y-40293000D02*
X71998000Y-40293000D01*
X62780000Y-40825000D02*
X62780000Y-41472619D01*
X62780000Y-41472619D02*
X62818095Y-41548809D01*
X62818095Y-41548809D02*
X62856190Y-41586905D01*
X62856190Y-41586905D02*
X62932381Y-41625000D01*
X62932381Y-41625000D02*
X63084762Y-41625000D01*
X63084762Y-41625000D02*
X63160952Y-41586905D01*
X63160952Y-41586905D02*
X63199047Y-41548809D01*
X63199047Y-41548809D02*
X63237143Y-41472619D01*
X63237143Y-41472619D02*
X63237143Y-40825000D01*
X64037142Y-41625000D02*
X63579999Y-41625000D01*
X63808571Y-41625000D02*
X63808571Y-40825000D01*
X63808571Y-40825000D02*
X63732380Y-40939285D01*
X63732380Y-40939285D02*
X63656190Y-41015476D01*
X63656190Y-41015476D02*
X63579999Y-41053571D01*
X64532381Y-40825000D02*
X64608571Y-40825000D01*
X64608571Y-40825000D02*
X64684762Y-40863095D01*
X64684762Y-40863095D02*
X64722857Y-40901190D01*
X64722857Y-40901190D02*
X64760952Y-40977381D01*
X64760952Y-40977381D02*
X64799047Y-41129762D01*
X64799047Y-41129762D02*
X64799047Y-41320238D01*
X64799047Y-41320238D02*
X64760952Y-41472619D01*
X64760952Y-41472619D02*
X64722857Y-41548809D01*
X64722857Y-41548809D02*
X64684762Y-41586905D01*
X64684762Y-41586905D02*
X64608571Y-41625000D01*
X64608571Y-41625000D02*
X64532381Y-41625000D01*
X64532381Y-41625000D02*
X64456190Y-41586905D01*
X64456190Y-41586905D02*
X64418095Y-41548809D01*
X64418095Y-41548809D02*
X64380000Y-41472619D01*
X64380000Y-41472619D02*
X64341904Y-41320238D01*
X64341904Y-41320238D02*
X64341904Y-41129762D01*
X64341904Y-41129762D02*
X64380000Y-40977381D01*
X64380000Y-40977381D02*
X64418095Y-40901190D01*
X64418095Y-40901190D02*
X64456190Y-40863095D01*
X64456190Y-40863095D02*
X64532381Y-40825000D01*
X65103809Y-40901190D02*
X65141905Y-40863095D01*
X65141905Y-40863095D02*
X65218095Y-40825000D01*
X65218095Y-40825000D02*
X65408571Y-40825000D01*
X65408571Y-40825000D02*
X65484762Y-40863095D01*
X65484762Y-40863095D02*
X65522857Y-40901190D01*
X65522857Y-40901190D02*
X65560952Y-40977381D01*
X65560952Y-40977381D02*
X65560952Y-41053571D01*
X65560952Y-41053571D02*
X65522857Y-41167857D01*
X65522857Y-41167857D02*
X65065714Y-41625000D01*
X65065714Y-41625000D02*
X65560952Y-41625000D01*
X70585939Y-38230952D02*
X70852605Y-38230952D01*
X70966891Y-38650000D02*
X70585939Y-38650000D01*
X70585939Y-38650000D02*
X70585939Y-37850000D01*
X70585939Y-37850000D02*
X70966891Y-37850000D01*
X71233558Y-37850000D02*
X71728796Y-37850000D01*
X71728796Y-37850000D02*
X71462130Y-38154762D01*
X71462130Y-38154762D02*
X71576415Y-38154762D01*
X71576415Y-38154762D02*
X71652606Y-38192857D01*
X71652606Y-38192857D02*
X71690701Y-38230952D01*
X71690701Y-38230952D02*
X71728796Y-38307143D01*
X71728796Y-38307143D02*
X71728796Y-38497619D01*
X71728796Y-38497619D02*
X71690701Y-38573809D01*
X71690701Y-38573809D02*
X71652606Y-38611905D01*
X71652606Y-38611905D02*
X71576415Y-38650000D01*
X71576415Y-38650000D02*
X71347844Y-38650000D01*
X71347844Y-38650000D02*
X71271653Y-38611905D01*
X71271653Y-38611905D02*
X71233558Y-38573809D01*
X72224035Y-37850000D02*
X72300225Y-37850000D01*
X72300225Y-37850000D02*
X72376416Y-37888095D01*
X72376416Y-37888095D02*
X72414511Y-37926190D01*
X72414511Y-37926190D02*
X72452606Y-38002381D01*
X72452606Y-38002381D02*
X72490701Y-38154762D01*
X72490701Y-38154762D02*
X72490701Y-38345238D01*
X72490701Y-38345238D02*
X72452606Y-38497619D01*
X72452606Y-38497619D02*
X72414511Y-38573809D01*
X72414511Y-38573809D02*
X72376416Y-38611905D01*
X72376416Y-38611905D02*
X72300225Y-38650000D01*
X72300225Y-38650000D02*
X72224035Y-38650000D01*
X72224035Y-38650000D02*
X72147844Y-38611905D01*
X72147844Y-38611905D02*
X72109749Y-38573809D01*
X72109749Y-38573809D02*
X72071654Y-38497619D01*
X72071654Y-38497619D02*
X72033558Y-38345238D01*
X72033558Y-38345238D02*
X72033558Y-38154762D01*
X72033558Y-38154762D02*
X72071654Y-38002381D01*
X72071654Y-38002381D02*
X72109749Y-37926190D01*
X72109749Y-37926190D02*
X72147844Y-37888095D01*
X72147844Y-37888095D02*
X72224035Y-37850000D01*
X72795463Y-37926190D02*
X72833559Y-37888095D01*
X72833559Y-37888095D02*
X72909749Y-37850000D01*
X72909749Y-37850000D02*
X73100225Y-37850000D01*
X73100225Y-37850000D02*
X73176416Y-37888095D01*
X73176416Y-37888095D02*
X73214511Y-37926190D01*
X73214511Y-37926190D02*
X73252606Y-38002381D01*
X73252606Y-38002381D02*
X73252606Y-38078571D01*
X73252606Y-38078571D02*
X73214511Y-38192857D01*
X73214511Y-38192857D02*
X72757368Y-38650000D01*
X72757368Y-38650000D02*
X73252606Y-38650000D01*
X25190364Y-63151197D02*
X25457030Y-63151197D01*
X25571316Y-63570245D02*
X25190364Y-63570245D01*
X25190364Y-63570245D02*
X25190364Y-62770245D01*
X25190364Y-62770245D02*
X25571316Y-62770245D01*
X25837983Y-62770245D02*
X26333221Y-62770245D01*
X26333221Y-62770245D02*
X26066555Y-63075007D01*
X26066555Y-63075007D02*
X26180840Y-63075007D01*
X26180840Y-63075007D02*
X26257031Y-63113102D01*
X26257031Y-63113102D02*
X26295126Y-63151197D01*
X26295126Y-63151197D02*
X26333221Y-63227388D01*
X26333221Y-63227388D02*
X26333221Y-63417864D01*
X26333221Y-63417864D02*
X26295126Y-63494054D01*
X26295126Y-63494054D02*
X26257031Y-63532150D01*
X26257031Y-63532150D02*
X26180840Y-63570245D01*
X26180840Y-63570245D02*
X25952269Y-63570245D01*
X25952269Y-63570245D02*
X25876078Y-63532150D01*
X25876078Y-63532150D02*
X25837983Y-63494054D01*
X26828460Y-62770245D02*
X26904650Y-62770245D01*
X26904650Y-62770245D02*
X26980841Y-62808340D01*
X26980841Y-62808340D02*
X27018936Y-62846435D01*
X27018936Y-62846435D02*
X27057031Y-62922626D01*
X27057031Y-62922626D02*
X27095126Y-63075007D01*
X27095126Y-63075007D02*
X27095126Y-63265483D01*
X27095126Y-63265483D02*
X27057031Y-63417864D01*
X27057031Y-63417864D02*
X27018936Y-63494054D01*
X27018936Y-63494054D02*
X26980841Y-63532150D01*
X26980841Y-63532150D02*
X26904650Y-63570245D01*
X26904650Y-63570245D02*
X26828460Y-63570245D01*
X26828460Y-63570245D02*
X26752269Y-63532150D01*
X26752269Y-63532150D02*
X26714174Y-63494054D01*
X26714174Y-63494054D02*
X26676079Y-63417864D01*
X26676079Y-63417864D02*
X26637983Y-63265483D01*
X26637983Y-63265483D02*
X26637983Y-63075007D01*
X26637983Y-63075007D02*
X26676079Y-62922626D01*
X26676079Y-62922626D02*
X26714174Y-62846435D01*
X26714174Y-62846435D02*
X26752269Y-62808340D01*
X26752269Y-62808340D02*
X26828460Y-62770245D01*
X27857031Y-63570245D02*
X27399888Y-63570245D01*
X27628460Y-63570245D02*
X27628460Y-62770245D01*
X27628460Y-62770245D02*
X27552269Y-62884530D01*
X27552269Y-62884530D02*
X27476079Y-62960721D01*
X27476079Y-62960721D02*
X27399888Y-62998816D01*
X47949048Y-56869047D02*
X47949048Y-57516666D01*
X47949048Y-57516666D02*
X47987143Y-57592856D01*
X47987143Y-57592856D02*
X48025238Y-57630952D01*
X48025238Y-57630952D02*
X48101429Y-57669047D01*
X48101429Y-57669047D02*
X48253810Y-57669047D01*
X48253810Y-57669047D02*
X48330000Y-57630952D01*
X48330000Y-57630952D02*
X48368095Y-57592856D01*
X48368095Y-57592856D02*
X48406191Y-57516666D01*
X48406191Y-57516666D02*
X48406191Y-56869047D01*
X49130000Y-57135713D02*
X49130000Y-57669047D01*
X48939524Y-56830952D02*
X48749047Y-57402380D01*
X48749047Y-57402380D02*
X49244286Y-57402380D01*
X49701429Y-56869047D02*
X49777619Y-56869047D01*
X49777619Y-56869047D02*
X49853810Y-56907142D01*
X49853810Y-56907142D02*
X49891905Y-56945237D01*
X49891905Y-56945237D02*
X49930000Y-57021428D01*
X49930000Y-57021428D02*
X49968095Y-57173809D01*
X49968095Y-57173809D02*
X49968095Y-57364285D01*
X49968095Y-57364285D02*
X49930000Y-57516666D01*
X49930000Y-57516666D02*
X49891905Y-57592856D01*
X49891905Y-57592856D02*
X49853810Y-57630952D01*
X49853810Y-57630952D02*
X49777619Y-57669047D01*
X49777619Y-57669047D02*
X49701429Y-57669047D01*
X49701429Y-57669047D02*
X49625238Y-57630952D01*
X49625238Y-57630952D02*
X49587143Y-57592856D01*
X49587143Y-57592856D02*
X49549048Y-57516666D01*
X49549048Y-57516666D02*
X49510952Y-57364285D01*
X49510952Y-57364285D02*
X49510952Y-57173809D01*
X49510952Y-57173809D02*
X49549048Y-57021428D01*
X49549048Y-57021428D02*
X49587143Y-56945237D01*
X49587143Y-56945237D02*
X49625238Y-56907142D01*
X49625238Y-56907142D02*
X49701429Y-56869047D01*
X50730000Y-57669047D02*
X50272857Y-57669047D01*
X50501429Y-57669047D02*
X50501429Y-56869047D01*
X50501429Y-56869047D02*
X50425238Y-56983332D01*
X50425238Y-56983332D02*
X50349048Y-57059523D01*
X50349048Y-57059523D02*
X50272857Y-57097618D01*
X66644286Y-56400000D02*
X66377619Y-56019047D01*
X66187143Y-56400000D02*
X66187143Y-55600000D01*
X66187143Y-55600000D02*
X66491905Y-55600000D01*
X66491905Y-55600000D02*
X66568095Y-55638095D01*
X66568095Y-55638095D02*
X66606190Y-55676190D01*
X66606190Y-55676190D02*
X66644286Y-55752381D01*
X66644286Y-55752381D02*
X66644286Y-55866666D01*
X66644286Y-55866666D02*
X66606190Y-55942857D01*
X66606190Y-55942857D02*
X66568095Y-55980952D01*
X66568095Y-55980952D02*
X66491905Y-56019047D01*
X66491905Y-56019047D02*
X66187143Y-56019047D01*
X67368095Y-55600000D02*
X66987143Y-55600000D01*
X66987143Y-55600000D02*
X66949047Y-55980952D01*
X66949047Y-55980952D02*
X66987143Y-55942857D01*
X66987143Y-55942857D02*
X67063333Y-55904762D01*
X67063333Y-55904762D02*
X67253809Y-55904762D01*
X67253809Y-55904762D02*
X67330000Y-55942857D01*
X67330000Y-55942857D02*
X67368095Y-55980952D01*
X67368095Y-55980952D02*
X67406190Y-56057143D01*
X67406190Y-56057143D02*
X67406190Y-56247619D01*
X67406190Y-56247619D02*
X67368095Y-56323809D01*
X67368095Y-56323809D02*
X67330000Y-56361905D01*
X67330000Y-56361905D02*
X67253809Y-56400000D01*
X67253809Y-56400000D02*
X67063333Y-56400000D01*
X67063333Y-56400000D02*
X66987143Y-56361905D01*
X66987143Y-56361905D02*
X66949047Y-56323809D01*
X67901429Y-55600000D02*
X67977619Y-55600000D01*
X67977619Y-55600000D02*
X68053810Y-55638095D01*
X68053810Y-55638095D02*
X68091905Y-55676190D01*
X68091905Y-55676190D02*
X68130000Y-55752381D01*
X68130000Y-55752381D02*
X68168095Y-55904762D01*
X68168095Y-55904762D02*
X68168095Y-56095238D01*
X68168095Y-56095238D02*
X68130000Y-56247619D01*
X68130000Y-56247619D02*
X68091905Y-56323809D01*
X68091905Y-56323809D02*
X68053810Y-56361905D01*
X68053810Y-56361905D02*
X67977619Y-56400000D01*
X67977619Y-56400000D02*
X67901429Y-56400000D01*
X67901429Y-56400000D02*
X67825238Y-56361905D01*
X67825238Y-56361905D02*
X67787143Y-56323809D01*
X67787143Y-56323809D02*
X67749048Y-56247619D01*
X67749048Y-56247619D02*
X67710952Y-56095238D01*
X67710952Y-56095238D02*
X67710952Y-55904762D01*
X67710952Y-55904762D02*
X67749048Y-55752381D01*
X67749048Y-55752381D02*
X67787143Y-55676190D01*
X67787143Y-55676190D02*
X67825238Y-55638095D01*
X67825238Y-55638095D02*
X67901429Y-55600000D01*
X68891905Y-55600000D02*
X68510953Y-55600000D01*
X68510953Y-55600000D02*
X68472857Y-55980952D01*
X68472857Y-55980952D02*
X68510953Y-55942857D01*
X68510953Y-55942857D02*
X68587143Y-55904762D01*
X68587143Y-55904762D02*
X68777619Y-55904762D01*
X68777619Y-55904762D02*
X68853810Y-55942857D01*
X68853810Y-55942857D02*
X68891905Y-55980952D01*
X68891905Y-55980952D02*
X68930000Y-56057143D01*
X68930000Y-56057143D02*
X68930000Y-56247619D01*
X68930000Y-56247619D02*
X68891905Y-56323809D01*
X68891905Y-56323809D02*
X68853810Y-56361905D01*
X68853810Y-56361905D02*
X68777619Y-56400000D01*
X68777619Y-56400000D02*
X68587143Y-56400000D01*
X68587143Y-56400000D02*
X68510953Y-56361905D01*
X68510953Y-56361905D02*
X68472857Y-56323809D01*
X63469048Y-49600000D02*
X63469048Y-50247619D01*
X63469048Y-50247619D02*
X63507143Y-50323809D01*
X63507143Y-50323809D02*
X63545238Y-50361905D01*
X63545238Y-50361905D02*
X63621429Y-50400000D01*
X63621429Y-50400000D02*
X63773810Y-50400000D01*
X63773810Y-50400000D02*
X63850000Y-50361905D01*
X63850000Y-50361905D02*
X63888095Y-50323809D01*
X63888095Y-50323809D02*
X63926191Y-50247619D01*
X63926191Y-50247619D02*
X63926191Y-49600000D01*
X64688095Y-49600000D02*
X64307143Y-49600000D01*
X64307143Y-49600000D02*
X64269047Y-49980952D01*
X64269047Y-49980952D02*
X64307143Y-49942857D01*
X64307143Y-49942857D02*
X64383333Y-49904762D01*
X64383333Y-49904762D02*
X64573809Y-49904762D01*
X64573809Y-49904762D02*
X64650000Y-49942857D01*
X64650000Y-49942857D02*
X64688095Y-49980952D01*
X64688095Y-49980952D02*
X64726190Y-50057143D01*
X64726190Y-50057143D02*
X64726190Y-50247619D01*
X64726190Y-50247619D02*
X64688095Y-50323809D01*
X64688095Y-50323809D02*
X64650000Y-50361905D01*
X64650000Y-50361905D02*
X64573809Y-50400000D01*
X64573809Y-50400000D02*
X64383333Y-50400000D01*
X64383333Y-50400000D02*
X64307143Y-50361905D01*
X64307143Y-50361905D02*
X64269047Y-50323809D01*
X65221429Y-49600000D02*
X65297619Y-49600000D01*
X65297619Y-49600000D02*
X65373810Y-49638095D01*
X65373810Y-49638095D02*
X65411905Y-49676190D01*
X65411905Y-49676190D02*
X65450000Y-49752381D01*
X65450000Y-49752381D02*
X65488095Y-49904762D01*
X65488095Y-49904762D02*
X65488095Y-50095238D01*
X65488095Y-50095238D02*
X65450000Y-50247619D01*
X65450000Y-50247619D02*
X65411905Y-50323809D01*
X65411905Y-50323809D02*
X65373810Y-50361905D01*
X65373810Y-50361905D02*
X65297619Y-50400000D01*
X65297619Y-50400000D02*
X65221429Y-50400000D01*
X65221429Y-50400000D02*
X65145238Y-50361905D01*
X65145238Y-50361905D02*
X65107143Y-50323809D01*
X65107143Y-50323809D02*
X65069048Y-50247619D01*
X65069048Y-50247619D02*
X65030952Y-50095238D01*
X65030952Y-50095238D02*
X65030952Y-49904762D01*
X65030952Y-49904762D02*
X65069048Y-49752381D01*
X65069048Y-49752381D02*
X65107143Y-49676190D01*
X65107143Y-49676190D02*
X65145238Y-49638095D01*
X65145238Y-49638095D02*
X65221429Y-49600000D01*
X65754762Y-49600000D02*
X66250000Y-49600000D01*
X66250000Y-49600000D02*
X65983334Y-49904762D01*
X65983334Y-49904762D02*
X66097619Y-49904762D01*
X66097619Y-49904762D02*
X66173810Y-49942857D01*
X66173810Y-49942857D02*
X66211905Y-49980952D01*
X66211905Y-49980952D02*
X66250000Y-50057143D01*
X66250000Y-50057143D02*
X66250000Y-50247619D01*
X66250000Y-50247619D02*
X66211905Y-50323809D01*
X66211905Y-50323809D02*
X66173810Y-50361905D01*
X66173810Y-50361905D02*
X66097619Y-50400000D01*
X66097619Y-50400000D02*
X65869048Y-50400000D01*
X65869048Y-50400000D02*
X65792857Y-50361905D01*
X65792857Y-50361905D02*
X65754762Y-50323809D01*
%TO.C,R506*%
X73446359Y-53220000D02*
X73753641Y-53220000D01*
X73446359Y-53980000D02*
X73753641Y-53980000D01*
%TO.C,R210*%
X42445000Y-28931641D02*
X42445000Y-28624359D01*
X43205000Y-28931641D02*
X43205000Y-28624359D01*
%TO.C,R104*%
X56453641Y-39570000D02*
X56146359Y-39570000D01*
X56453641Y-40330000D02*
X56146359Y-40330000D01*
%TO.C,R116*%
X37382500Y-42846359D02*
X37382500Y-43153641D01*
X38142500Y-42846359D02*
X38142500Y-43153641D01*
%TO.C,R306*%
X68231359Y-65047000D02*
X68538641Y-65047000D01*
X68231359Y-65807000D02*
X68538641Y-65807000D01*
%TO.C,R307*%
X38653641Y-65770000D02*
X38346359Y-65770000D01*
X38653641Y-66530000D02*
X38346359Y-66530000D01*
%TO.C,C101*%
X58300000Y-41292164D02*
X58300000Y-41507836D01*
X59020000Y-41292164D02*
X59020000Y-41507836D01*
%TO.C,U301*%
X71744519Y-63316577D02*
X71757019Y-63294926D01*
X72392019Y-62195074D02*
X72404519Y-62173423D01*
X72404519Y-62173423D02*
X73657785Y-62896997D01*
X73147481Y-64126577D02*
X71744519Y-63316577D01*
X73159981Y-64104926D02*
X73147481Y-64126577D01*
X73918724Y-63070744D02*
X73892481Y-62836199D01*
X74134968Y-62976199D01*
X73918724Y-63070744D01*
G36*
X74134968Y-62976199D02*
G01*
X73918724Y-63070744D01*
X73892481Y-62836199D01*
X74134968Y-62976199D01*
G37*
%TO.C,D301*%
D17*
X28492500Y-61250000D02*
G75*
G02*
X28307500Y-61250000I-92500J0D01*
G01*
X28307500Y-61250000D02*
G75*
G02*
X28492500Y-61250000I92500J0D01*
G01*
%TO.C,C110*%
D14*
X35707836Y-39840000D02*
X35492164Y-39840000D01*
X35707836Y-40560000D02*
X35492164Y-40560000D01*
%TO.C,C402*%
X52092164Y-58890000D02*
X52307836Y-58890000D01*
X52092164Y-59610000D02*
X52307836Y-59610000D01*
%TO.C,R208*%
X33670000Y-40193641D02*
X33670000Y-39886359D01*
X34430000Y-40193641D02*
X34430000Y-39886359D01*
%TO.C,R211*%
X70306359Y-57770000D02*
X70613641Y-57770000D01*
X70306359Y-58530000D02*
X70613641Y-58530000D01*
%TO.C,U101*%
X49065000Y-32710000D02*
X49065000Y-31290000D01*
X50065000Y-32710000D02*
X49935000Y-32710000D01*
X50935000Y-31574432D02*
X50935000Y-32710000D01*
X50940000Y-31280000D02*
X51130000Y-31140000D01*
X51130000Y-31420000D01*
X50940000Y-31280000D01*
G36*
X51130000Y-31420000D02*
G01*
X50940000Y-31280000D01*
X51130000Y-31140000D01*
X51130000Y-31420000D01*
G37*
%TO.C,R309*%
X38653641Y-64500000D02*
X38346359Y-64500000D01*
X38653641Y-65260000D02*
X38346359Y-65260000D01*
%TO.C,R105*%
X59570000Y-41546359D02*
X59570000Y-41853641D01*
X60330000Y-41546359D02*
X60330000Y-41853641D01*
%TO.C,C304*%
X69789164Y-63061000D02*
X70004836Y-63061000D01*
X69789164Y-63781000D02*
X70004836Y-63781000D01*
%TO.C,U403*%
D18*
X58573000Y-30052000D02*
G75*
G02*
X58473000Y-30052000I-50000J0D01*
G01*
X58473000Y-30052000D02*
G75*
G02*
X58573000Y-30052000I50000J0D01*
G01*
%TO.C,SW301*%
D14*
X47280000Y-48540000D02*
X47280000Y-46460000D01*
X48550000Y-44780000D02*
X48060000Y-45270000D01*
X48550000Y-44780000D02*
X51450000Y-44780000D01*
X48550000Y-50220000D02*
X48060000Y-49730000D01*
X48550000Y-50220000D02*
X51450000Y-50220000D01*
X51450000Y-44780000D02*
X51940000Y-45270000D01*
X51450000Y-50220000D02*
X51940000Y-49730000D01*
X52720000Y-48540000D02*
X52720000Y-46460000D01*
%TO.C,R106*%
X58780000Y-35053641D02*
X58780000Y-34746359D01*
X59540000Y-35053641D02*
X59540000Y-34746359D01*
%TO.C,U402*%
X37671770Y-31819287D02*
X37953453Y-32349056D01*
X37907796Y-31240762D02*
X38190339Y-31090531D01*
X38751554Y-33850067D02*
X38469872Y-33320298D01*
X39281323Y-33568384D02*
X38751554Y-33850067D01*
X41104066Y-29541275D02*
X41633835Y-29259592D01*
X41633835Y-29259592D02*
X41915518Y-29789361D01*
X42619725Y-31113782D02*
X42901408Y-31643551D01*
X42901408Y-31643551D02*
X42371640Y-31925233D01*
X37636882Y-31498067D02*
X37389657Y-31629519D01*
X37505430Y-31250841D01*
X37636882Y-31498067D01*
G36*
X37636882Y-31498067D02*
G01*
X37389657Y-31629519D01*
X37505430Y-31250841D01*
X37636882Y-31498067D01*
G37*
%TO.C,R103*%
X60870000Y-41546359D02*
X60870000Y-41853641D01*
X61630000Y-41546359D02*
X61630000Y-41853641D01*
%TO.C,R310*%
X38653641Y-63230000D02*
X38346359Y-63230000D01*
X38653641Y-63990000D02*
X38346359Y-63990000D01*
%TO.C,R115*%
X40920000Y-41153641D02*
X40920000Y-40846359D01*
X41680000Y-41153641D02*
X41680000Y-40846359D01*
%TO.C,C302*%
X38259420Y-50990000D02*
X38540580Y-50990000D01*
X38259420Y-52010000D02*
X38540580Y-52010000D01*
%TO.C,D303*%
D17*
X29942500Y-58100000D02*
G75*
G02*
X29757500Y-58100000I-92500J0D01*
G01*
X29757500Y-58100000D02*
G75*
G02*
X29942500Y-58100000I92500J0D01*
G01*
%TO.C,C506*%
D14*
X73459420Y-45590000D02*
X73740580Y-45590000D01*
X73459420Y-46610000D02*
X73740580Y-46610000D01*
%TO.C,R401*%
X44343641Y-31120000D02*
X44036359Y-31120000D01*
X44343641Y-31880000D02*
X44036359Y-31880000D01*
%TO.C,R204*%
X38553641Y-56810000D02*
X38246359Y-56810000D01*
X38553641Y-57570000D02*
X38246359Y-57570000D01*
%TO.C,C102*%
X55590000Y-37540580D02*
X55590000Y-37259420D01*
X56610000Y-37540580D02*
X56610000Y-37259420D01*
%TO.C,C502*%
X34840000Y-38507836D02*
X34840000Y-38292164D01*
X35560000Y-38507836D02*
X35560000Y-38292164D01*
%TO.C,U105*%
X37865000Y-39740000D02*
X39335000Y-39740000D01*
X37865000Y-39765000D02*
X37865000Y-39740000D01*
X37865000Y-41960000D02*
X37865000Y-41935000D01*
X39335000Y-39740000D02*
X39335000Y-39765000D01*
X39335000Y-41935000D02*
X39335000Y-41960000D01*
X39335000Y-41960000D02*
X37865000Y-41960000D01*
X37420000Y-39760000D02*
X37280000Y-39570000D01*
X37560000Y-39570000D01*
X37420000Y-39760000D01*
G36*
X37420000Y-39760000D02*
G01*
X37280000Y-39570000D01*
X37560000Y-39570000D01*
X37420000Y-39760000D01*
G37*
%TO.C,R117*%
X61520000Y-35553641D02*
X61520000Y-35246359D01*
X62280000Y-35553641D02*
X62280000Y-35246359D01*
%TO.C,C403*%
X36291000Y-32431836D02*
X36291000Y-32216164D01*
X37011000Y-32431836D02*
X37011000Y-32216164D01*
%TO.C,C303*%
X71276164Y-60536000D02*
X71491836Y-60536000D01*
X71276164Y-61256000D02*
X71491836Y-61256000D01*
%TO.C,C103*%
X63059420Y-37710000D02*
X63340580Y-37710000D01*
X63059420Y-38730000D02*
X63340580Y-38730000D01*
%TO.C,C204*%
X38507836Y-55630000D02*
X38292164Y-55630000D01*
X38507836Y-56350000D02*
X38292164Y-56350000D01*
%TO.C,U302*%
X70233758Y-65516845D02*
X70248453Y-65496620D01*
X70994940Y-64469168D02*
X71009635Y-64448943D01*
X71009635Y-64448943D02*
X72180401Y-65299554D01*
X71544365Y-66469057D02*
X70233758Y-65516845D01*
X71559060Y-66448832D02*
X71544365Y-66469057D01*
X72421749Y-65499625D02*
X72420166Y-65263622D01*
X72646690Y-65428202D01*
X72421749Y-65499625D01*
G36*
X72646690Y-65428202D02*
G01*
X72421749Y-65499625D01*
X72420166Y-65263622D01*
X72646690Y-65428202D01*
G37*
%TO.C,D302*%
D17*
X72890500Y-39248000D02*
G75*
G02*
X72705500Y-39248000I-92500J0D01*
G01*
X72705500Y-39248000D02*
G75*
G02*
X72890500Y-39248000I92500J0D01*
G01*
%TO.C,U102*%
D14*
X57800000Y-36615000D02*
X58275000Y-36615000D01*
X57800000Y-37090000D02*
X57800000Y-36615000D01*
X57800000Y-39835000D02*
X57800000Y-39360000D01*
X58275000Y-39835000D02*
X57800000Y-39835000D01*
X60545000Y-36615000D02*
X61020000Y-36615000D01*
X61020000Y-36615000D02*
X61020000Y-37090000D01*
X61020000Y-39360000D02*
X61020000Y-39835000D01*
X61020000Y-39835000D02*
X60545000Y-39835000D01*
X61550000Y-38975000D02*
X61880000Y-38735000D01*
X61880000Y-39215000D01*
X61550000Y-38975000D01*
G36*
X61880000Y-39215000D02*
G01*
X61550000Y-38975000D01*
X61880000Y-38735000D01*
X61880000Y-39215000D01*
G37*
%TO.C,R203*%
X38246359Y-58010000D02*
X38553641Y-58010000D01*
X38246359Y-58770000D02*
X38553641Y-58770000D01*
%TO.C,C401*%
X54950836Y-58890000D02*
X54735164Y-58890000D01*
X54950836Y-59610000D02*
X54735164Y-59610000D01*
%TO.C,R507*%
X36553641Y-34720000D02*
X36246359Y-34720000D01*
X36553641Y-35480000D02*
X36246359Y-35480000D01*
%TO.C,C501*%
X34759420Y-36090000D02*
X35040580Y-36090000D01*
X34759420Y-37110000D02*
X35040580Y-37110000D01*
%TO.C,C109*%
X40940000Y-38957836D02*
X40940000Y-38742164D01*
X41660000Y-38957836D02*
X41660000Y-38742164D01*
%TO.C,U401*%
X51590000Y-55640000D02*
X52265000Y-55640000D01*
X51590000Y-55815000D02*
X51590000Y-55640000D01*
X51590000Y-58360000D02*
X51590000Y-58185000D01*
X52265000Y-58360000D02*
X51590000Y-58360000D01*
X54135000Y-55640000D02*
X54810000Y-55640000D01*
X54810000Y-55640000D02*
X54810000Y-55815000D01*
X54810000Y-58185000D02*
X54810000Y-58360000D01*
X54810000Y-58360000D02*
X54135000Y-58360000D01*
X51460000Y-56250000D02*
X51130000Y-56490000D01*
X51130000Y-56010000D01*
X51460000Y-56250000D01*
G36*
X51460000Y-56250000D02*
G01*
X51130000Y-56490000D01*
X51130000Y-56010000D01*
X51460000Y-56250000D01*
G37*
%TO.C,C404*%
X35890000Y-29856580D02*
X35890000Y-29575420D01*
X36910000Y-29856580D02*
X36910000Y-29575420D01*
%TO.C,R505*%
X72113641Y-56370000D02*
X71806359Y-56370000D01*
X72113641Y-57130000D02*
X71806359Y-57130000D01*
%TO.C,C301*%
X38592164Y-52740000D02*
X38807836Y-52740000D01*
X38592164Y-53460000D02*
X38807836Y-53460000D01*
%TO.C,C405*%
X57443000Y-29759836D02*
X57443000Y-29544164D01*
X58163000Y-29759836D02*
X58163000Y-29544164D01*
%TO.C,U503*%
X68900000Y-47400000D02*
X73100000Y-47400000D01*
X68900000Y-52600000D02*
X68900000Y-47400000D01*
X73100000Y-47400000D02*
X73100000Y-52600000D01*
X73100000Y-52600000D02*
X68900000Y-52600000D01*
X67700000Y-47500000D02*
X68300000Y-47500000D01*
X68000000Y-48000000D01*
X67700000Y-47500000D01*
G36*
X68000000Y-48000000D02*
G01*
X67700000Y-47500000D01*
X68300000Y-47500000D01*
X68000000Y-48000000D01*
G37*
%TD*%
%LPC*%
D19*
%TO.C,R506*%
X73090000Y-53600000D03*
X74110000Y-53600000D03*
%TD*%
D20*
%TO.C,R210*%
X42825000Y-29288000D03*
X42825000Y-28268000D03*
%TD*%
D21*
%TO.C,R104*%
X56810000Y-39950000D03*
X55790000Y-39950000D03*
%TD*%
D22*
%TO.C,R116*%
X37762500Y-42490000D03*
X37762500Y-43510000D03*
%TD*%
D19*
%TO.C,R306*%
X67875000Y-65427000D03*
X68895000Y-65427000D03*
%TD*%
D21*
%TO.C,R307*%
X39010000Y-66150000D03*
X37990000Y-66150000D03*
%TD*%
D23*
%TO.C,C101*%
X58660000Y-40920000D03*
X58660000Y-41880000D03*
%TD*%
D24*
%TO.C,U301*%
X73572170Y-63320994D03*
X72229830Y-62545994D03*
X71979830Y-62979006D03*
X73322170Y-63754006D03*
D25*
X72776000Y-63150000D03*
%TD*%
D26*
%TO.C,H3*%
X32322000Y-67678000D03*
%TD*%
D27*
%TO.C,D301*%
X28400000Y-60800000D03*
X28400000Y-60100000D03*
%TD*%
D28*
%TO.C,C110*%
X36080000Y-40200000D03*
X35120000Y-40200000D03*
%TD*%
D29*
%TO.C,C402*%
X51720000Y-59250000D03*
X52680000Y-59250000D03*
%TD*%
D30*
%TO.C,J302*%
X28400000Y-57300000D03*
%TD*%
D31*
%TO.C,H2*%
X68579000Y-33272000D03*
%TD*%
D20*
%TO.C,R208*%
X34050000Y-40550000D03*
X34050000Y-39530000D03*
%TD*%
D19*
%TO.C,R211*%
X69950000Y-58150000D03*
X70970000Y-58150000D03*
%TD*%
D32*
%TO.C,U101*%
X50500000Y-31287500D03*
X50000000Y-31287500D03*
X49500000Y-31287500D03*
X49500000Y-32712500D03*
X50500000Y-32712500D03*
%TD*%
D21*
%TO.C,R309*%
X39010000Y-64880000D03*
X37990000Y-64880000D03*
%TD*%
D22*
%TO.C,R105*%
X59950000Y-41190000D03*
X59950000Y-42210000D03*
%TD*%
D29*
%TO.C,C304*%
X69417000Y-63421000D03*
X70377000Y-63421000D03*
%TD*%
D33*
%TO.C,U403*%
X59003000Y-30632000D03*
X59003000Y-31282000D03*
X59003000Y-31932000D03*
X60903000Y-31932000D03*
X60903000Y-31282000D03*
X60903000Y-30632000D03*
D34*
X59953000Y-31282000D03*
%TD*%
D35*
%TO.C,SW301*%
X46900000Y-45650000D03*
X53100000Y-45650000D03*
X46900000Y-49350000D03*
X53100000Y-49350000D03*
%TD*%
D20*
%TO.C,R106*%
X59160000Y-35410000D03*
X59160000Y-34390000D03*
%TD*%
D36*
%TO.C,U402*%
X38399707Y-31590796D03*
X39110759Y-31224049D03*
X39812423Y-30839642D03*
X40518781Y-30464065D03*
X41225139Y-30088487D03*
X41600716Y-30794845D03*
X41976293Y-31501204D03*
X41269935Y-31876781D03*
X40563577Y-32252358D03*
X39857219Y-32627935D03*
X39150861Y-33003513D03*
X38775284Y-32297155D03*
%TD*%
D22*
%TO.C,R103*%
X61250000Y-41190000D03*
X61250000Y-42210000D03*
%TD*%
D21*
%TO.C,R310*%
X39010000Y-63610000D03*
X37990000Y-63610000D03*
%TD*%
D26*
%TO.C,FID1*%
X65600000Y-29800000D03*
%TD*%
D20*
%TO.C,R115*%
X41300000Y-41510000D03*
X41300000Y-40490000D03*
%TD*%
D37*
%TO.C,C302*%
X37625000Y-51500000D03*
X39175000Y-51500000D03*
%TD*%
D38*
%TO.C,D303*%
X30300000Y-58100000D03*
X31000000Y-58100000D03*
%TD*%
D37*
%TO.C,C506*%
X72825000Y-46100000D03*
X74375000Y-46100000D03*
%TD*%
D21*
%TO.C,R401*%
X44700000Y-31500000D03*
X43680000Y-31500000D03*
%TD*%
%TO.C,R204*%
X38910000Y-57190000D03*
X37890000Y-57190000D03*
%TD*%
D39*
%TO.C,C102*%
X56100000Y-38175000D03*
X56100000Y-36625000D03*
%TD*%
D40*
%TO.C,C502*%
X35200000Y-38880000D03*
X35200000Y-37920000D03*
%TD*%
D41*
%TO.C,U105*%
X37762500Y-40200000D03*
X37762500Y-40850000D03*
X37762500Y-41500000D03*
X39437500Y-41500000D03*
X39437500Y-40850000D03*
X39437500Y-40200000D03*
%TD*%
D20*
%TO.C,R117*%
X61900000Y-35910000D03*
X61900000Y-34890000D03*
%TD*%
D40*
%TO.C,C403*%
X36651000Y-32804000D03*
X36651000Y-31844000D03*
%TD*%
D29*
%TO.C,C303*%
X70904000Y-60896000D03*
X71864000Y-60896000D03*
%TD*%
D37*
%TO.C,C103*%
X62425000Y-38220000D03*
X63975000Y-38220000D03*
%TD*%
D28*
%TO.C,C204*%
X38880000Y-55990000D03*
X37920000Y-55990000D03*
%TD*%
D42*
%TO.C,U302*%
X72050934Y-65712279D03*
X70796958Y-64801212D03*
X70503066Y-65205721D03*
X71757042Y-66116788D03*
D43*
X71277000Y-65459000D03*
%TD*%
D44*
%TO.C,D302*%
X72798000Y-39698000D03*
X72798000Y-40398000D03*
%TD*%
D45*
%TO.C,U102*%
X60872500Y-38975000D03*
X60872500Y-38475000D03*
X60872500Y-37975000D03*
X60872500Y-37475000D03*
D46*
X60160000Y-36762500D03*
X59660000Y-36762500D03*
X59160000Y-36762500D03*
X58660000Y-36762500D03*
D45*
X57947500Y-37475000D03*
X57947500Y-37975000D03*
X57947500Y-38475000D03*
X57947500Y-38975000D03*
D46*
X58660000Y-39687500D03*
X59160000Y-39687500D03*
X59660000Y-39687500D03*
X60160000Y-39687500D03*
D47*
X59410000Y-38225000D03*
%TD*%
D19*
%TO.C,R203*%
X37890000Y-58390000D03*
X38910000Y-58390000D03*
%TD*%
D31*
%TO.C,H1*%
X31421000Y-33272000D03*
%TD*%
D26*
%TO.C,FID2*%
X55500000Y-66000000D03*
%TD*%
D28*
%TO.C,C401*%
X55323000Y-59250000D03*
X54363000Y-59250000D03*
%TD*%
D21*
%TO.C,R507*%
X36910000Y-35100000D03*
X35890000Y-35100000D03*
%TD*%
D37*
%TO.C,C501*%
X34125000Y-36600000D03*
X35675000Y-36600000D03*
%TD*%
D40*
%TO.C,C109*%
X41300000Y-39330000D03*
X41300000Y-38370000D03*
%TD*%
D48*
%TO.C,U401*%
X52037500Y-56250000D03*
X52037500Y-56750000D03*
X52037500Y-57250000D03*
X52037500Y-57750000D03*
D49*
X52700000Y-57912500D03*
X53200000Y-57912500D03*
X53700000Y-57912500D03*
D48*
X54362500Y-57750000D03*
X54362500Y-57250000D03*
X54362500Y-56750000D03*
X54362500Y-56250000D03*
D49*
X53700000Y-56087500D03*
X53200000Y-56087500D03*
X52700000Y-56087500D03*
%TD*%
D26*
%TO.C,FID3*%
X30000000Y-41000000D03*
%TD*%
D39*
%TO.C,C404*%
X36400000Y-30491000D03*
X36400000Y-28941000D03*
%TD*%
D21*
%TO.C,R505*%
X72470000Y-56750000D03*
X71450000Y-56750000D03*
%TD*%
D29*
%TO.C,C301*%
X38220000Y-53100000D03*
X39180000Y-53100000D03*
%TD*%
D40*
%TO.C,C405*%
X57803000Y-30132000D03*
X57803000Y-29172000D03*
%TD*%
D50*
%TO.C,U503*%
X67850000Y-48730000D03*
X67850000Y-51270000D03*
X74150000Y-51270000D03*
X74150000Y-48730000D03*
%TD*%
D51*
%TO.C,MK401*%
X71148000Y-55294000D03*
%TD*%
D52*
%TO.C,J201*%
X65200000Y-68890000D03*
X64184000Y-63810000D03*
X66216000Y-63810000D03*
%TD*%
D53*
%TO.C,J101*%
X47110000Y-26650000D03*
X52890000Y-26650000D03*
D54*
X45680000Y-23000000D03*
D55*
X45680000Y-27180000D03*
D54*
X54320000Y-23000000D03*
D55*
X54320000Y-27180000D03*
%TD*%
%LPD*%
M02*
