%TF.GenerationSoftware,KiCad,Pcbnew,10.0.6*%
%TF.CreationDate,2026-10-04T10:06:22+02:00*%
%TF.ProjectId,MAO_MAIN_A0,4d414f5f-4d41-4494-9e5f-41302e6b6963,A0*%
%TF.SameCoordinates,Original*%
%TF.FileFunction,Legend,Bot*%
%TF.FilePolarity,Positive*%
%FSLAX46Y46*%
G04 Gerber Fmt 4.6, Leading zero omitted, Abs format (unit mm)*
G04 Created by KiCad (PCBNEW 10.0.6) date 2026-10-04 10:06:22*
%MOMM*%
%LPD*%
G01*
G04 APERTURE LIST*
G04 Aperture macros list*
%AMRoundRect*
0 Rectangle with rounded corners*
0 $1 Rounding radius*
0 $2 $3 $4 $5 $6 $7 $8 $9 X,Y pos of 4 corners*
0 Add a 4 corners polygon primitive as box body*
4,1,4,$2,$3,$4,$5,$6,$7,$8,$9,$2,$3,0*
0 Add four circle primitives for the rounded corners*
1,1,$1+$1,$2,$3*
1,1,$1+$1,$4,$5*
1,1,$1+$1,$6,$7*
1,1,$1+$1,$8,$9*
0 Add four rect primitives between the rounded corners*
20,1,$1+$1,$2,$3,$4,$5,0*
20,1,$1+$1,$4,$5,$6,$7,0*
20,1,$1+$1,$6,$7,$8,$9,0*
20,1,$1+$1,$8,$9,$2,$3,0*%
%AMRotRect*
0 Rectangle, with rotation*
0 The origin of the aperture is its center*
0 $1 length*
0 $2 width*
0 $3 Rotation angle, in degrees counterclockwise*
0 Add horizontal line*
21,1,$1,$2,0,0,$3*%
%AMFreePoly0*
4,1,64,0.031751,0.146088,0.079639,0.146088,0.235855,0.115014,0.383010,0.054061,0.515445,-0.034429,0.628071,-0.147055,0.716561,-0.279490,0.777513,-0.426644,0.808588,-0.582861,0.808588,-0.742139,0.777514,-0.898356,0.716561,-1.045510,0.628071,-1.177945,0.515445,-1.290571,0.383010,-1.379061,0.235856,-1.440014,0.079639,-1.471088,-0.079639,-1.471088,-0.235856,-1.440014,-0.383010,-1.379061,
-0.515445,-1.290571,-0.628071,-1.177945,-0.716561,-1.045510,-0.777514,-0.898356,-0.808588,-0.742139,-0.808588,-0.595029,-0.512501,-0.595028,-0.512500,-0.729972,-0.477574,-0.860317,-0.410102,-0.977182,-0.314682,-1.072602,-0.197817,-1.140074,-0.067472,-1.175000,0.067472,-1.175000,0.197817,-1.140074,0.314682,-1.072602,0.410102,-0.977182,0.477574,-0.860317,0.512500,-0.729972,0.512500,-0.595028,
0.477574,-0.464683,0.410102,-0.347818,0.314682,-0.252398,0.197817,-0.184926,0.067472,-0.150000,-0.067472,-0.150000,-0.197816,-0.184926,-0.314682,-0.252398,-0.410102,-0.347818,-0.477574,-0.464683,-0.512501,-0.595028,-0.808588,-0.595029,-0.808588,-0.582861,-0.777513,-0.426644,-0.716561,-0.279490,-0.628070,-0.147055,-0.515445,-0.034429,-0.383010,0.054061,-0.235856,0.115014,-0.079639,0.146088,
-0.031751,0.146088,-0.029264,0.147118,0.029264,0.147118,0.031751,0.146088,0.031751,0.146088,$1*%
G04 Aperture macros list end*
%ADD10C,0.000000*%
%ADD11C,0.150000*%
%ADD12C,0.160000*%
%ADD13C,0.200000*%
%ADD14C,0.120000*%
%ADD15C,0.100001*%
%ADD16C,2.200000*%
%ADD17C,2.000000*%
%ADD18C,1.000000*%
%ADD19RoundRect,0.150000X0.150000X0.625000X-0.150000X0.625000X-0.150000X-0.625000X0.150000X-0.625000X0*%
%ADD20RoundRect,0.250000X0.350000X0.650000X-0.350000X0.650000X-0.350000X-0.650000X0.350000X-0.650000X0*%
%ADD21RoundRect,0.135000X-0.185000X0.135000X-0.185000X-0.135000X0.185000X-0.135000X0.185000X0.135000X0*%
%ADD22RoundRect,0.050000X0.075000X-0.250000X0.075000X0.250000X-0.075000X0.250000X-0.075000X-0.250000X0*%
%ADD23RoundRect,0.050000X0.075000X-0.400000X0.075000X0.400000X-0.075000X0.400000X-0.075000X-0.400000X0*%
%ADD24RoundRect,0.050000X0.075000X-0.600000X0.075000X0.600000X-0.075000X0.600000X-0.075000X-0.600000X0*%
%ADD25C,0.990600*%
%ADD26C,0.787400*%
%ADD27RoundRect,0.135000X-0.135000X-0.185000X0.135000X-0.185000X0.135000X0.185000X-0.135000X0.185000X0*%
%ADD28RoundRect,0.150000X0.826526X0.043072X0.497896X0.661135X-0.826526X-0.043072X-0.497896X-0.661135X0*%
%ADD29C,1.200000*%
%ADD30RoundRect,0.062500X0.350000X0.062500X-0.350000X0.062500X-0.350000X-0.062500X0.350000X-0.062500X0*%
%ADD31RoundRect,0.062500X0.062500X0.350000X-0.062500X0.350000X-0.062500X-0.350000X0.062500X-0.350000X0*%
%ADD32R,1.230000X1.230000*%
%ADD33RoundRect,0.225000X-0.250000X0.225000X-0.250000X-0.225000X0.250000X-0.225000X0.250000X0.225000X0*%
%ADD34RoundRect,0.050000X0.093814X0.732256X-0.559692X0.481398X-0.093814X-0.732256X0.559692X-0.481398X0*%
%ADD35RoundRect,0.135000X0.135000X0.185000X-0.135000X0.185000X-0.135000X-0.185000X0.135000X-0.185000X0*%
%ADD36RoundRect,0.100000X-0.700000X-1.000000X0.700000X-1.000000X0.700000X1.000000X-0.700000X1.000000X0*%
%ADD37RoundRect,0.050000X0.559692X0.481398X-0.093814X0.732256X-0.559692X-0.481398X0.093814X-0.732256X0*%
%ADD38RoundRect,0.140000X0.140000X0.170000X-0.140000X0.170000X-0.140000X-0.170000X0.140000X-0.170000X0*%
%ADD39RoundRect,0.200000X-0.200000X-0.275000X0.200000X-0.275000X0.200000X0.275000X-0.200000X0.275000X0*%
%ADD40RoundRect,0.062500X-0.375000X-0.062500X0.375000X-0.062500X0.375000X0.062500X-0.375000X0.062500X0*%
%ADD41RoundRect,0.062500X-0.062500X-0.375000X0.062500X-0.375000X0.062500X0.375000X-0.062500X0.375000X0*%
%ADD42R,1.450000X1.450000*%
%ADD43RoundRect,0.140000X-0.140000X-0.170000X0.140000X-0.170000X0.140000X0.170000X-0.140000X0.170000X0*%
%ADD44RoundRect,0.135000X0.185000X-0.135000X0.185000X0.135000X-0.185000X0.135000X-0.185000X-0.135000X0*%
%ADD45RoundRect,0.140000X0.170000X-0.140000X0.170000X0.140000X-0.170000X0.140000X-0.170000X-0.140000X0*%
%ADD46C,0.500000*%
%ADD47RotRect,0.725000X0.522000X344.000000*%
%ADD48FreePoly0,344.000000*%
%ADD49RoundRect,0.250000X0.625000X-0.312500X0.625000X0.312500X-0.625000X0.312500X-0.625000X-0.312500X0*%
%ADD50RoundRect,0.062500X-0.325000X-0.062500X0.325000X-0.062500X0.325000X0.062500X-0.325000X0.062500X0*%
%ADD51R,0.800000X1.200000*%
%ADD52RoundRect,0.150000X-0.587500X-0.150000X0.587500X-0.150000X0.587500X0.150000X-0.587500X0.150000X0*%
%ADD53RoundRect,0.087500X0.662500X0.087500X-0.662500X0.087500X-0.662500X-0.087500X0.662500X-0.087500X0*%
%ADD54RoundRect,0.075000X0.075000X0.175000X-0.075000X0.175000X-0.075000X-0.175000X0.075000X-0.175000X0*%
%ADD55RoundRect,0.225000X0.250000X-0.225000X0.250000X0.225000X-0.250000X0.225000X-0.250000X-0.225000X0*%
%ADD56C,0.650000*%
%ADD57RoundRect,0.150000X-0.150000X-0.575000X0.150000X-0.575000X0.150000X0.575000X-0.150000X0.575000X0*%
%ADD58RoundRect,0.075000X-0.075000X-0.650000X0.075000X-0.650000X0.075000X0.650000X-0.075000X0.650000X0*%
%ADD59O,1.000000X1.600000*%
%ADD60O,1.000000X2.100000*%
%ADD61R,1.680000X1.680000*%
%ADD62RoundRect,0.140000X-0.170000X0.140000X-0.170000X-0.140000X0.170000X-0.140000X0.170000X0.140000X0*%
%ADD63RoundRect,0.225000X-0.225000X-0.250000X0.225000X-0.250000X0.225000X0.250000X-0.225000X0.250000X0*%
%ADD64RoundRect,0.250000X-0.400000X-0.450000X0.400000X-0.450000X0.400000X0.450000X-0.400000X0.450000X0*%
%ADD65R,1.500000X0.900000*%
%ADD66R,0.900000X1.500000*%
%ADD67C,0.600000*%
%ADD68R,3.900000X3.900000*%
%ADD69RoundRect,0.137500X0.137500X0.662500X-0.137500X0.662500X-0.137500X-0.662500X0.137500X-0.662500X0*%
%ADD70RoundRect,0.075000X-0.075000X-0.175000X0.075000X-0.175000X0.075000X0.175000X-0.075000X0.175000X0*%
G04 APERTURE END LIST*
D10*
G36*
X61683333Y-61462500D02*
G01*
X61708333Y-61462500D01*
X61712500Y-61466666D01*
X61725000Y-61466666D01*
X61729166Y-61470833D01*
X61754166Y-61474999D01*
X61775000Y-61487500D01*
X61791666Y-61491666D01*
X61800000Y-61499999D01*
X61825000Y-61512499D01*
X61854166Y-61537499D01*
X61883333Y-61554166D01*
X61912500Y-61579166D01*
X61941666Y-61595833D01*
X61958333Y-61612500D01*
X61987500Y-61629166D01*
X62000000Y-61641666D01*
X62016666Y-61650000D01*
X62058333Y-61683333D01*
X62062500Y-61683333D01*
X62070833Y-61691666D01*
X62087500Y-61699999D01*
X62100000Y-61712500D01*
X62116666Y-61720833D01*
X62129166Y-61733333D01*
X62145833Y-61741666D01*
X62158333Y-61754166D01*
X62175000Y-61762499D01*
X62204166Y-61787499D01*
X62208333Y-61787499D01*
X62216666Y-61795833D01*
X62245833Y-61812499D01*
X62275000Y-61837500D01*
X62304166Y-61854166D01*
X62333333Y-61879166D01*
X62337500Y-61879166D01*
X62345833Y-61887499D01*
X62362500Y-61895833D01*
X62375000Y-61908333D01*
X62391666Y-61916666D01*
X62420833Y-61941666D01*
X62425000Y-61941666D01*
X62433333Y-61949999D01*
X62462500Y-61966666D01*
X62491666Y-61991666D01*
X62520833Y-62008333D01*
X62537500Y-62025000D01*
X62554166Y-62033333D01*
X62579166Y-62058333D01*
X62579166Y-62062499D01*
X62600000Y-62087500D01*
X62608333Y-62104166D01*
X62608333Y-62112500D01*
X62616666Y-62124999D01*
X62616666Y-62137499D01*
X62620833Y-62141666D01*
X62620833Y-62720833D01*
X62625000Y-62724999D01*
X62625000Y-62737500D01*
X62633333Y-62745833D01*
X62691666Y-62775000D01*
X62700000Y-62783333D01*
X62729166Y-62795833D01*
X62737500Y-62804166D01*
X62758333Y-62812499D01*
X62766666Y-62820833D01*
X62804166Y-62837500D01*
X62812500Y-62845833D01*
X62850000Y-62862500D01*
X62858333Y-62870833D01*
X62916666Y-62900000D01*
X62925000Y-62908333D01*
X62962500Y-62925000D01*
X62970833Y-62933333D01*
X62991666Y-62941666D01*
X63000000Y-62949999D01*
X63091666Y-62995833D01*
X63100000Y-63004166D01*
X63129166Y-63016666D01*
X63137500Y-63025000D01*
X63158333Y-63033333D01*
X63166666Y-63041666D01*
X63204166Y-63058333D01*
X63212500Y-63066666D01*
X63233333Y-63074999D01*
X63241666Y-63083333D01*
X63316666Y-63120833D01*
X63325000Y-63129166D01*
X63345833Y-63137499D01*
X63366666Y-63154166D01*
X63379166Y-63158333D01*
X63395833Y-63175000D01*
X63400000Y-63175000D01*
X63429166Y-63204166D01*
X63429166Y-63208333D01*
X63441666Y-63220833D01*
X63441666Y-63224999D01*
X63458333Y-63245833D01*
X63479166Y-63287499D01*
X63479166Y-63295833D01*
X63487500Y-63312499D01*
X63487500Y-63324999D01*
X63491666Y-63329166D01*
X63491666Y-63345833D01*
X63495833Y-63349999D01*
X63495833Y-63383333D01*
X63500000Y-63387499D01*
X63500000Y-63395833D01*
X63495833Y-63400000D01*
X63495833Y-63441666D01*
X63491666Y-63445833D01*
X63491666Y-63462499D01*
X63487500Y-63466666D01*
X63483333Y-63491666D01*
X63475000Y-63504166D01*
X63475000Y-63512499D01*
X63458333Y-63545833D01*
X63437500Y-63570833D01*
X63437500Y-63574999D01*
X63383333Y-63629166D01*
X63379166Y-63629166D01*
X63366666Y-63641666D01*
X63316666Y-63666666D01*
X63308333Y-63666666D01*
X63304166Y-63670833D01*
X63295833Y-63670833D01*
X63279166Y-63679166D01*
X63262500Y-63679166D01*
X63258333Y-63683333D01*
X63233333Y-63683333D01*
X63229166Y-63687499D01*
X63187500Y-63687499D01*
X63183333Y-63683333D01*
X63158333Y-63683333D01*
X63154166Y-63679166D01*
X63141666Y-63679166D01*
X63137500Y-63675000D01*
X63125000Y-63675000D01*
X63120833Y-63670833D01*
X63100000Y-63666666D01*
X63066666Y-63649999D01*
X63058333Y-63641666D01*
X63029166Y-63624999D01*
X63016666Y-63612500D01*
X62987500Y-63595833D01*
X62975000Y-63583333D01*
X62970833Y-63583333D01*
X62962500Y-63574999D01*
X62958333Y-63574999D01*
X62950000Y-63566666D01*
X62945833Y-63566666D01*
X62937500Y-63558333D01*
X62933333Y-63558333D01*
X62925000Y-63550000D01*
X62920833Y-63550000D01*
X62912500Y-63541666D01*
X62908333Y-63541666D01*
X62900000Y-63533333D01*
X62870833Y-63516666D01*
X62858333Y-63504166D01*
X62854166Y-63504166D01*
X62845833Y-63495833D01*
X62816666Y-63479166D01*
X62804166Y-63466666D01*
X62775000Y-63449999D01*
X62762500Y-63437499D01*
X62758333Y-63437499D01*
X62750000Y-63429166D01*
X62745833Y-63429166D01*
X62737500Y-63420833D01*
X62733333Y-63420833D01*
X62725000Y-63412499D01*
X62695833Y-63395833D01*
X62658333Y-63358333D01*
X62658333Y-63354166D01*
X62645833Y-63341666D01*
X62637500Y-63324999D01*
X62637500Y-63316666D01*
X62629166Y-63300000D01*
X62629166Y-63283333D01*
X62625000Y-63279166D01*
X62625000Y-62745833D01*
X62608333Y-62737500D01*
X62600000Y-62729166D01*
X62579166Y-62720833D01*
X62570833Y-62712500D01*
X62533333Y-62695833D01*
X62525000Y-62687499D01*
X62475000Y-62662499D01*
X62466666Y-62654166D01*
X62437500Y-62641666D01*
X62429166Y-62633333D01*
X62362500Y-62599999D01*
X62354166Y-62591666D01*
X62333333Y-62583333D01*
X62325000Y-62574999D01*
X62304166Y-62566666D01*
X62295833Y-62558333D01*
X62229166Y-62525000D01*
X62220833Y-62516666D01*
X62200000Y-62508333D01*
X62191666Y-62499999D01*
X62162500Y-62487500D01*
X62154166Y-62479166D01*
X62133333Y-62470833D01*
X62125000Y-62462500D01*
X62104166Y-62454166D01*
X62095833Y-62445833D01*
X62075000Y-62437499D01*
X62066666Y-62429166D01*
X62029166Y-62412499D01*
X62020833Y-62404166D01*
X61970833Y-62379166D01*
X61962500Y-62370833D01*
X61941666Y-62362500D01*
X61933333Y-62354166D01*
X61895833Y-62337500D01*
X61887500Y-62329166D01*
X61866666Y-62320833D01*
X61845833Y-62304166D01*
X61808333Y-62287499D01*
X61783333Y-62266666D01*
X61779166Y-62266666D01*
X61758333Y-62245833D01*
X61758333Y-62241666D01*
X61745833Y-62229166D01*
X61741666Y-62216666D01*
X61733333Y-62208333D01*
X61733333Y-62199999D01*
X61720833Y-62175000D01*
X61720833Y-62158333D01*
X61716666Y-62154166D01*
X61716666Y-61999999D01*
X61720833Y-61995833D01*
X61720833Y-61808333D01*
X61725000Y-61804166D01*
X61725000Y-61604166D01*
X61720833Y-61599999D01*
X61716666Y-61583333D01*
X61691666Y-61558333D01*
X61683333Y-61558333D01*
X61679166Y-61554166D01*
X61650000Y-61554166D01*
X61645833Y-61558333D01*
X61637500Y-61558333D01*
X61612500Y-61583333D01*
X61608333Y-61599999D01*
X61604166Y-61604166D01*
X61604166Y-61770833D01*
X61608333Y-61775000D01*
X61608333Y-61937499D01*
X61612500Y-61941666D01*
X61612500Y-62141666D01*
X61616666Y-62145833D01*
X61616666Y-63741666D01*
X61595833Y-63733333D01*
X61587500Y-63724999D01*
X61512500Y-63687499D01*
X61504166Y-63679166D01*
X61483333Y-63670833D01*
X61475000Y-63662499D01*
X61454166Y-63654166D01*
X61445833Y-63645833D01*
X61416666Y-63633333D01*
X61408333Y-63624999D01*
X61379166Y-63612500D01*
X61370833Y-63604166D01*
X61341666Y-63591666D01*
X61333333Y-63583333D01*
X61304166Y-63570833D01*
X61295833Y-63562499D01*
X61229166Y-63529166D01*
X61200000Y-63508333D01*
X61170833Y-63495833D01*
X61162500Y-63487500D01*
X61112500Y-63462499D01*
X61104166Y-63454166D01*
X61083333Y-63445833D01*
X61075000Y-63437499D01*
X61037500Y-63420833D01*
X61029166Y-63412499D01*
X61000000Y-63400000D01*
X60991666Y-63391666D01*
X60970833Y-63383333D01*
X60962500Y-63374999D01*
X60895833Y-63341666D01*
X60887500Y-63333333D01*
X60866666Y-63324999D01*
X60858333Y-63316666D01*
X60791666Y-63283333D01*
X60783333Y-63275000D01*
X60766666Y-63266666D01*
X60720833Y-63216666D01*
X60708333Y-63191666D01*
X60704166Y-63166666D01*
X60700000Y-63162499D01*
X60700000Y-62137499D01*
X60704166Y-62133333D01*
X60704166Y-62120833D01*
X60712500Y-62108333D01*
X60712500Y-62099999D01*
X60720833Y-62083333D01*
X60741666Y-62058333D01*
X60741666Y-62054166D01*
X60775000Y-62020833D01*
X60779166Y-62020833D01*
X60804166Y-61999999D01*
X60833333Y-61983333D01*
X60845833Y-61970833D01*
X60862500Y-61962500D01*
X60875000Y-61949999D01*
X60879166Y-61949999D01*
X60891666Y-61937499D01*
X60920833Y-61920833D01*
X60933333Y-61908333D01*
X60937500Y-61908333D01*
X60945833Y-61900000D01*
X60975000Y-61883333D01*
X61020833Y-61845833D01*
X61050000Y-61829166D01*
X61083333Y-61800000D01*
X61112500Y-61783333D01*
X61141666Y-61758333D01*
X61145833Y-61758333D01*
X61154166Y-61749999D01*
X61183333Y-61733333D01*
X61195833Y-61720833D01*
X61200000Y-61720833D01*
X61212500Y-61708333D01*
X61229166Y-61699999D01*
X61241666Y-61687499D01*
X61270833Y-61670833D01*
X61283333Y-61658333D01*
X61300000Y-61650000D01*
X61341666Y-61616666D01*
X61370833Y-61599999D01*
X61383333Y-61587500D01*
X61400000Y-61579166D01*
X61412500Y-61566666D01*
X61441666Y-61550000D01*
X61454166Y-61537499D01*
X61458333Y-61537499D01*
X61483333Y-61516666D01*
X61508333Y-61504166D01*
X61516666Y-61495833D01*
X61550000Y-61479166D01*
X61558333Y-61479166D01*
X61562500Y-61474999D01*
X61570833Y-61474999D01*
X61587500Y-61466666D01*
X61600000Y-61466666D01*
X61604166Y-61462500D01*
X61629166Y-61462500D01*
X61633333Y-61458333D01*
X61679166Y-61458333D01*
X61683333Y-61462500D01*
G37*
D11*
X64400000Y-65100000D02*
X70400000Y-65100000D01*
X70400000Y-66800000D01*
X64400000Y-66800000D01*
X64400000Y-65100000D01*
X30323809Y-49324200D02*
X30209523Y-49362295D01*
X30209523Y-49362295D02*
X30019047Y-49362295D01*
X30019047Y-49362295D02*
X29942856Y-49324200D01*
X29942856Y-49324200D02*
X29904761Y-49286104D01*
X29904761Y-49286104D02*
X29866666Y-49209914D01*
X29866666Y-49209914D02*
X29866666Y-49133723D01*
X29866666Y-49133723D02*
X29904761Y-49057533D01*
X29904761Y-49057533D02*
X29942856Y-49019438D01*
X29942856Y-49019438D02*
X30019047Y-48981342D01*
X30019047Y-48981342D02*
X30171428Y-48943247D01*
X30171428Y-48943247D02*
X30247618Y-48905152D01*
X30247618Y-48905152D02*
X30285713Y-48867057D01*
X30285713Y-48867057D02*
X30323809Y-48790866D01*
X30323809Y-48790866D02*
X30323809Y-48714676D01*
X30323809Y-48714676D02*
X30285713Y-48638485D01*
X30285713Y-48638485D02*
X30247618Y-48600390D01*
X30247618Y-48600390D02*
X30171428Y-48562295D01*
X30171428Y-48562295D02*
X29980951Y-48562295D01*
X29980951Y-48562295D02*
X29866666Y-48600390D01*
X29523808Y-49362295D02*
X29523808Y-48562295D01*
X29523808Y-48562295D02*
X29219046Y-48562295D01*
X29219046Y-48562295D02*
X29142856Y-48600390D01*
X29142856Y-48600390D02*
X29104761Y-48638485D01*
X29104761Y-48638485D02*
X29066665Y-48714676D01*
X29066665Y-48714676D02*
X29066665Y-48828961D01*
X29066665Y-48828961D02*
X29104761Y-48905152D01*
X29104761Y-48905152D02*
X29142856Y-48943247D01*
X29142856Y-48943247D02*
X29219046Y-48981342D01*
X29219046Y-48981342D02*
X29523808Y-48981342D01*
X28723808Y-49362295D02*
X28723808Y-48562295D01*
X28266665Y-49362295D02*
X28609523Y-48905152D01*
X28266665Y-48562295D02*
X28723808Y-49019438D01*
X27923808Y-49057533D02*
X27314285Y-49057533D01*
X29857142Y-41962295D02*
X30123809Y-41581342D01*
X30314285Y-41962295D02*
X30314285Y-41162295D01*
X30314285Y-41162295D02*
X30009523Y-41162295D01*
X30009523Y-41162295D02*
X29933333Y-41200390D01*
X29933333Y-41200390D02*
X29895238Y-41238485D01*
X29895238Y-41238485D02*
X29857142Y-41314676D01*
X29857142Y-41314676D02*
X29857142Y-41428961D01*
X29857142Y-41428961D02*
X29895238Y-41505152D01*
X29895238Y-41505152D02*
X29933333Y-41543247D01*
X29933333Y-41543247D02*
X30009523Y-41581342D01*
X30009523Y-41581342D02*
X30314285Y-41581342D01*
X29514285Y-41543247D02*
X29247619Y-41543247D01*
X29133333Y-41962295D02*
X29514285Y-41962295D01*
X29514285Y-41962295D02*
X29514285Y-41162295D01*
X29514285Y-41162295D02*
X29133333Y-41162295D01*
X28828571Y-41733723D02*
X28447618Y-41733723D01*
X28904761Y-41962295D02*
X28638094Y-41162295D01*
X28638094Y-41162295D02*
X28371428Y-41962295D01*
X27647618Y-41962295D02*
X27914285Y-41581342D01*
X28104761Y-41962295D02*
X28104761Y-41162295D01*
X28104761Y-41162295D02*
X27799999Y-41162295D01*
X27799999Y-41162295D02*
X27723809Y-41200390D01*
X27723809Y-41200390D02*
X27685714Y-41238485D01*
X27685714Y-41238485D02*
X27647618Y-41314676D01*
X27647618Y-41314676D02*
X27647618Y-41428961D01*
X27647618Y-41428961D02*
X27685714Y-41505152D01*
X27685714Y-41505152D02*
X27723809Y-41543247D01*
X27723809Y-41543247D02*
X27799999Y-41581342D01*
X27799999Y-41581342D02*
X28104761Y-41581342D01*
X31223809Y-53524200D02*
X31109523Y-53562295D01*
X31109523Y-53562295D02*
X30919047Y-53562295D01*
X30919047Y-53562295D02*
X30842856Y-53524200D01*
X30842856Y-53524200D02*
X30804761Y-53486104D01*
X30804761Y-53486104D02*
X30766666Y-53409914D01*
X30766666Y-53409914D02*
X30766666Y-53333723D01*
X30766666Y-53333723D02*
X30804761Y-53257533D01*
X30804761Y-53257533D02*
X30842856Y-53219438D01*
X30842856Y-53219438D02*
X30919047Y-53181342D01*
X30919047Y-53181342D02*
X31071428Y-53143247D01*
X31071428Y-53143247D02*
X31147618Y-53105152D01*
X31147618Y-53105152D02*
X31185713Y-53067057D01*
X31185713Y-53067057D02*
X31223809Y-52990866D01*
X31223809Y-52990866D02*
X31223809Y-52914676D01*
X31223809Y-52914676D02*
X31185713Y-52838485D01*
X31185713Y-52838485D02*
X31147618Y-52800390D01*
X31147618Y-52800390D02*
X31071428Y-52762295D01*
X31071428Y-52762295D02*
X30880951Y-52762295D01*
X30880951Y-52762295D02*
X30766666Y-52800390D01*
X30423808Y-53562295D02*
X30423808Y-52762295D01*
X30423808Y-52762295D02*
X30119046Y-52762295D01*
X30119046Y-52762295D02*
X30042856Y-52800390D01*
X30042856Y-52800390D02*
X30004761Y-52838485D01*
X30004761Y-52838485D02*
X29966665Y-52914676D01*
X29966665Y-52914676D02*
X29966665Y-53028961D01*
X29966665Y-53028961D02*
X30004761Y-53105152D01*
X30004761Y-53105152D02*
X30042856Y-53143247D01*
X30042856Y-53143247D02*
X30119046Y-53181342D01*
X30119046Y-53181342D02*
X30423808Y-53181342D01*
X29623808Y-53562295D02*
X29623808Y-52762295D01*
X29166665Y-53562295D02*
X29509523Y-53105152D01*
X29166665Y-52762295D02*
X29623808Y-53219438D01*
X28823808Y-53257533D02*
X28214285Y-53257533D01*
X28519046Y-53562295D02*
X28519046Y-52952771D01*
X32557237Y-64442295D02*
X32938189Y-64442295D01*
X32938189Y-64442295D02*
X32938189Y-63642295D01*
X31833427Y-64442295D02*
X32100094Y-64061342D01*
X32290570Y-64442295D02*
X32290570Y-63642295D01*
X32290570Y-63642295D02*
X31985808Y-63642295D01*
X31985808Y-63642295D02*
X31909618Y-63680390D01*
X31909618Y-63680390D02*
X31871523Y-63718485D01*
X31871523Y-63718485D02*
X31833427Y-63794676D01*
X31833427Y-63794676D02*
X31833427Y-63908961D01*
X31833427Y-63908961D02*
X31871523Y-63985152D01*
X31871523Y-63985152D02*
X31909618Y-64023247D01*
X31909618Y-64023247D02*
X31985808Y-64061342D01*
X31985808Y-64061342D02*
X32290570Y-64061342D01*
X31528666Y-64213723D02*
X31147713Y-64213723D01*
X31604856Y-64442295D02*
X31338189Y-63642295D01*
X31338189Y-63642295D02*
X31071523Y-64442295D01*
X35438094Y-67862295D02*
X35704761Y-67481342D01*
X35895237Y-67862295D02*
X35895237Y-67062295D01*
X35895237Y-67062295D02*
X35590475Y-67062295D01*
X35590475Y-67062295D02*
X35514285Y-67100390D01*
X35514285Y-67100390D02*
X35476190Y-67138485D01*
X35476190Y-67138485D02*
X35438094Y-67214676D01*
X35438094Y-67214676D02*
X35438094Y-67328961D01*
X35438094Y-67328961D02*
X35476190Y-67405152D01*
X35476190Y-67405152D02*
X35514285Y-67443247D01*
X35514285Y-67443247D02*
X35590475Y-67481342D01*
X35590475Y-67481342D02*
X35895237Y-67481342D01*
X35133333Y-67824200D02*
X35019047Y-67862295D01*
X35019047Y-67862295D02*
X34828571Y-67862295D01*
X34828571Y-67862295D02*
X34752380Y-67824200D01*
X34752380Y-67824200D02*
X34714285Y-67786104D01*
X34714285Y-67786104D02*
X34676190Y-67709914D01*
X34676190Y-67709914D02*
X34676190Y-67633723D01*
X34676190Y-67633723D02*
X34714285Y-67557533D01*
X34714285Y-67557533D02*
X34752380Y-67519438D01*
X34752380Y-67519438D02*
X34828571Y-67481342D01*
X34828571Y-67481342D02*
X34980952Y-67443247D01*
X34980952Y-67443247D02*
X35057142Y-67405152D01*
X35057142Y-67405152D02*
X35095237Y-67367057D01*
X35095237Y-67367057D02*
X35133333Y-67290866D01*
X35133333Y-67290866D02*
X35133333Y-67214676D01*
X35133333Y-67214676D02*
X35095237Y-67138485D01*
X35095237Y-67138485D02*
X35057142Y-67100390D01*
X35057142Y-67100390D02*
X34980952Y-67062295D01*
X34980952Y-67062295D02*
X34790475Y-67062295D01*
X34790475Y-67062295D02*
X34676190Y-67100390D01*
X34447618Y-67062295D02*
X33990475Y-67062295D01*
X34219047Y-67862295D02*
X34219047Y-67062295D01*
X42152380Y-44562295D02*
X42533332Y-44562295D01*
X42533332Y-44562295D02*
X42533332Y-43762295D01*
X41428570Y-44486104D02*
X41466666Y-44524200D01*
X41466666Y-44524200D02*
X41580951Y-44562295D01*
X41580951Y-44562295D02*
X41657142Y-44562295D01*
X41657142Y-44562295D02*
X41771428Y-44524200D01*
X41771428Y-44524200D02*
X41847618Y-44448009D01*
X41847618Y-44448009D02*
X41885713Y-44371819D01*
X41885713Y-44371819D02*
X41923809Y-44219438D01*
X41923809Y-44219438D02*
X41923809Y-44105152D01*
X41923809Y-44105152D02*
X41885713Y-43952771D01*
X41885713Y-43952771D02*
X41847618Y-43876580D01*
X41847618Y-43876580D02*
X41771428Y-43800390D01*
X41771428Y-43800390D02*
X41657142Y-43762295D01*
X41657142Y-43762295D02*
X41580951Y-43762295D01*
X41580951Y-43762295D02*
X41466666Y-43800390D01*
X41466666Y-43800390D02*
X41428570Y-43838485D01*
X41085713Y-44562295D02*
X41085713Y-43762295D01*
X41085713Y-43762295D02*
X40895237Y-43762295D01*
X40895237Y-43762295D02*
X40780951Y-43800390D01*
X40780951Y-43800390D02*
X40704761Y-43876580D01*
X40704761Y-43876580D02*
X40666666Y-43952771D01*
X40666666Y-43952771D02*
X40628570Y-44105152D01*
X40628570Y-44105152D02*
X40628570Y-44219438D01*
X40628570Y-44219438D02*
X40666666Y-44371819D01*
X40666666Y-44371819D02*
X40704761Y-44448009D01*
X40704761Y-44448009D02*
X40780951Y-44524200D01*
X40780951Y-44524200D02*
X40895237Y-44562295D01*
X40895237Y-44562295D02*
X41085713Y-44562295D01*
X59316666Y-32612295D02*
X59049999Y-33412295D01*
X59049999Y-33412295D02*
X58783333Y-32612295D01*
X58250000Y-32993247D02*
X58135714Y-33031342D01*
X58135714Y-33031342D02*
X58097619Y-33069438D01*
X58097619Y-33069438D02*
X58059523Y-33145628D01*
X58059523Y-33145628D02*
X58059523Y-33259914D01*
X58059523Y-33259914D02*
X58097619Y-33336104D01*
X58097619Y-33336104D02*
X58135714Y-33374200D01*
X58135714Y-33374200D02*
X58211904Y-33412295D01*
X58211904Y-33412295D02*
X58516666Y-33412295D01*
X58516666Y-33412295D02*
X58516666Y-32612295D01*
X58516666Y-32612295D02*
X58250000Y-32612295D01*
X58250000Y-32612295D02*
X58173809Y-32650390D01*
X58173809Y-32650390D02*
X58135714Y-32688485D01*
X58135714Y-32688485D02*
X58097619Y-32764676D01*
X58097619Y-32764676D02*
X58097619Y-32840866D01*
X58097619Y-32840866D02*
X58135714Y-32917057D01*
X58135714Y-32917057D02*
X58173809Y-32955152D01*
X58173809Y-32955152D02*
X58250000Y-32993247D01*
X58250000Y-32993247D02*
X58516666Y-32993247D01*
X57716666Y-32612295D02*
X57716666Y-33259914D01*
X57716666Y-33259914D02*
X57678571Y-33336104D01*
X57678571Y-33336104D02*
X57640476Y-33374200D01*
X57640476Y-33374200D02*
X57564285Y-33412295D01*
X57564285Y-33412295D02*
X57411904Y-33412295D01*
X57411904Y-33412295D02*
X57335714Y-33374200D01*
X57335714Y-33374200D02*
X57297619Y-33336104D01*
X57297619Y-33336104D02*
X57259523Y-33259914D01*
X57259523Y-33259914D02*
X57259523Y-32612295D01*
X56916667Y-33374200D02*
X56802381Y-33412295D01*
X56802381Y-33412295D02*
X56611905Y-33412295D01*
X56611905Y-33412295D02*
X56535714Y-33374200D01*
X56535714Y-33374200D02*
X56497619Y-33336104D01*
X56497619Y-33336104D02*
X56459524Y-33259914D01*
X56459524Y-33259914D02*
X56459524Y-33183723D01*
X56459524Y-33183723D02*
X56497619Y-33107533D01*
X56497619Y-33107533D02*
X56535714Y-33069438D01*
X56535714Y-33069438D02*
X56611905Y-33031342D01*
X56611905Y-33031342D02*
X56764286Y-32993247D01*
X56764286Y-32993247D02*
X56840476Y-32955152D01*
X56840476Y-32955152D02*
X56878571Y-32917057D01*
X56878571Y-32917057D02*
X56916667Y-32840866D01*
X56916667Y-32840866D02*
X56916667Y-32764676D01*
X56916667Y-32764676D02*
X56878571Y-32688485D01*
X56878571Y-32688485D02*
X56840476Y-32650390D01*
X56840476Y-32650390D02*
X56764286Y-32612295D01*
X56764286Y-32612295D02*
X56573809Y-32612295D01*
X56573809Y-32612295D02*
X56459524Y-32650390D01*
X63766666Y-66274200D02*
X63652380Y-66312295D01*
X63652380Y-66312295D02*
X63461904Y-66312295D01*
X63461904Y-66312295D02*
X63385713Y-66274200D01*
X63385713Y-66274200D02*
X63347618Y-66236104D01*
X63347618Y-66236104D02*
X63309523Y-66159914D01*
X63309523Y-66159914D02*
X63309523Y-66083723D01*
X63309523Y-66083723D02*
X63347618Y-66007533D01*
X63347618Y-66007533D02*
X63385713Y-65969438D01*
X63385713Y-65969438D02*
X63461904Y-65931342D01*
X63461904Y-65931342D02*
X63614285Y-65893247D01*
X63614285Y-65893247D02*
X63690475Y-65855152D01*
X63690475Y-65855152D02*
X63728570Y-65817057D01*
X63728570Y-65817057D02*
X63766666Y-65740866D01*
X63766666Y-65740866D02*
X63766666Y-65664676D01*
X63766666Y-65664676D02*
X63728570Y-65588485D01*
X63728570Y-65588485D02*
X63690475Y-65550390D01*
X63690475Y-65550390D02*
X63614285Y-65512295D01*
X63614285Y-65512295D02*
X63423808Y-65512295D01*
X63423808Y-65512295D02*
X63309523Y-65550390D01*
X62395237Y-65474200D02*
X63080951Y-66502771D01*
X62128570Y-66312295D02*
X62128570Y-65512295D01*
X62128570Y-65512295D02*
X61671427Y-66312295D01*
X61671427Y-66312295D02*
X61671427Y-65512295D01*
X67185714Y-71974200D02*
X67071428Y-72012295D01*
X67071428Y-72012295D02*
X66880952Y-72012295D01*
X66880952Y-72012295D02*
X66804761Y-71974200D01*
X66804761Y-71974200D02*
X66766666Y-71936104D01*
X66766666Y-71936104D02*
X66728571Y-71859914D01*
X66728571Y-71859914D02*
X66728571Y-71783723D01*
X66728571Y-71783723D02*
X66766666Y-71707533D01*
X66766666Y-71707533D02*
X66804761Y-71669438D01*
X66804761Y-71669438D02*
X66880952Y-71631342D01*
X66880952Y-71631342D02*
X67033333Y-71593247D01*
X67033333Y-71593247D02*
X67109523Y-71555152D01*
X67109523Y-71555152D02*
X67147618Y-71517057D01*
X67147618Y-71517057D02*
X67185714Y-71440866D01*
X67185714Y-71440866D02*
X67185714Y-71364676D01*
X67185714Y-71364676D02*
X67147618Y-71288485D01*
X67147618Y-71288485D02*
X67109523Y-71250390D01*
X67109523Y-71250390D02*
X67033333Y-71212295D01*
X67033333Y-71212295D02*
X66842856Y-71212295D01*
X66842856Y-71212295D02*
X66728571Y-71250390D01*
X66385713Y-71593247D02*
X66119047Y-71593247D01*
X66004761Y-72012295D02*
X66385713Y-72012295D01*
X66385713Y-72012295D02*
X66385713Y-71212295D01*
X66385713Y-71212295D02*
X66004761Y-71212295D01*
X65204760Y-72012295D02*
X65471427Y-71631342D01*
X65661903Y-72012295D02*
X65661903Y-71212295D01*
X65661903Y-71212295D02*
X65357141Y-71212295D01*
X65357141Y-71212295D02*
X65280951Y-71250390D01*
X65280951Y-71250390D02*
X65242856Y-71288485D01*
X65242856Y-71288485D02*
X65204760Y-71364676D01*
X65204760Y-71364676D02*
X65204760Y-71478961D01*
X65204760Y-71478961D02*
X65242856Y-71555152D01*
X65242856Y-71555152D02*
X65280951Y-71593247D01*
X65280951Y-71593247D02*
X65357141Y-71631342D01*
X65357141Y-71631342D02*
X65661903Y-71631342D01*
X64976189Y-71212295D02*
X64709522Y-72012295D01*
X64709522Y-72012295D02*
X64442856Y-71212295D01*
X64176189Y-72012295D02*
X64176189Y-71212295D01*
X63338094Y-71936104D02*
X63376190Y-71974200D01*
X63376190Y-71974200D02*
X63490475Y-72012295D01*
X63490475Y-72012295D02*
X63566666Y-72012295D01*
X63566666Y-72012295D02*
X63680952Y-71974200D01*
X63680952Y-71974200D02*
X63757142Y-71898009D01*
X63757142Y-71898009D02*
X63795237Y-71821819D01*
X63795237Y-71821819D02*
X63833333Y-71669438D01*
X63833333Y-71669438D02*
X63833333Y-71555152D01*
X63833333Y-71555152D02*
X63795237Y-71402771D01*
X63795237Y-71402771D02*
X63757142Y-71326580D01*
X63757142Y-71326580D02*
X63680952Y-71250390D01*
X63680952Y-71250390D02*
X63566666Y-71212295D01*
X63566666Y-71212295D02*
X63490475Y-71212295D01*
X63490475Y-71212295D02*
X63376190Y-71250390D01*
X63376190Y-71250390D02*
X63338094Y-71288485D01*
X62995237Y-71593247D02*
X62728571Y-71593247D01*
X62614285Y-72012295D02*
X62995237Y-72012295D01*
X62995237Y-72012295D02*
X62995237Y-71212295D01*
X62995237Y-71212295D02*
X62614285Y-71212295D01*
X69728572Y-63838485D02*
X69690476Y-63800390D01*
X69690476Y-63800390D02*
X69614286Y-63762295D01*
X69614286Y-63762295D02*
X69423810Y-63762295D01*
X69423810Y-63762295D02*
X69347619Y-63800390D01*
X69347619Y-63800390D02*
X69309524Y-63838485D01*
X69309524Y-63838485D02*
X69271429Y-63914676D01*
X69271429Y-63914676D02*
X69271429Y-63990866D01*
X69271429Y-63990866D02*
X69309524Y-64105152D01*
X69309524Y-64105152D02*
X69766667Y-64562295D01*
X69766667Y-64562295D02*
X69271429Y-64562295D01*
X68776190Y-63762295D02*
X68700000Y-63762295D01*
X68700000Y-63762295D02*
X68623809Y-63800390D01*
X68623809Y-63800390D02*
X68585714Y-63838485D01*
X68585714Y-63838485D02*
X68547619Y-63914676D01*
X68547619Y-63914676D02*
X68509524Y-64067057D01*
X68509524Y-64067057D02*
X68509524Y-64257533D01*
X68509524Y-64257533D02*
X68547619Y-64409914D01*
X68547619Y-64409914D02*
X68585714Y-64486104D01*
X68585714Y-64486104D02*
X68623809Y-64524200D01*
X68623809Y-64524200D02*
X68700000Y-64562295D01*
X68700000Y-64562295D02*
X68776190Y-64562295D01*
X68776190Y-64562295D02*
X68852381Y-64524200D01*
X68852381Y-64524200D02*
X68890476Y-64486104D01*
X68890476Y-64486104D02*
X68928571Y-64409914D01*
X68928571Y-64409914D02*
X68966667Y-64257533D01*
X68966667Y-64257533D02*
X68966667Y-64067057D01*
X68966667Y-64067057D02*
X68928571Y-63914676D01*
X68928571Y-63914676D02*
X68890476Y-63838485D01*
X68890476Y-63838485D02*
X68852381Y-63800390D01*
X68852381Y-63800390D02*
X68776190Y-63762295D01*
X68204762Y-63838485D02*
X68166666Y-63800390D01*
X68166666Y-63800390D02*
X68090476Y-63762295D01*
X68090476Y-63762295D02*
X67900000Y-63762295D01*
X67900000Y-63762295D02*
X67823809Y-63800390D01*
X67823809Y-63800390D02*
X67785714Y-63838485D01*
X67785714Y-63838485D02*
X67747619Y-63914676D01*
X67747619Y-63914676D02*
X67747619Y-63990866D01*
X67747619Y-63990866D02*
X67785714Y-64105152D01*
X67785714Y-64105152D02*
X68242857Y-64562295D01*
X68242857Y-64562295D02*
X67747619Y-64562295D01*
X67061904Y-63762295D02*
X67214285Y-63762295D01*
X67214285Y-63762295D02*
X67290476Y-63800390D01*
X67290476Y-63800390D02*
X67328571Y-63838485D01*
X67328571Y-63838485D02*
X67404761Y-63952771D01*
X67404761Y-63952771D02*
X67442857Y-64105152D01*
X67442857Y-64105152D02*
X67442857Y-64409914D01*
X67442857Y-64409914D02*
X67404761Y-64486104D01*
X67404761Y-64486104D02*
X67366666Y-64524200D01*
X67366666Y-64524200D02*
X67290476Y-64562295D01*
X67290476Y-64562295D02*
X67138095Y-64562295D01*
X67138095Y-64562295D02*
X67061904Y-64524200D01*
X67061904Y-64524200D02*
X67023809Y-64486104D01*
X67023809Y-64486104D02*
X66985714Y-64409914D01*
X66985714Y-64409914D02*
X66985714Y-64219438D01*
X66985714Y-64219438D02*
X67023809Y-64143247D01*
X67023809Y-64143247D02*
X67061904Y-64105152D01*
X67061904Y-64105152D02*
X67138095Y-64067057D01*
X67138095Y-64067057D02*
X67290476Y-64067057D01*
X67290476Y-64067057D02*
X67366666Y-64105152D01*
X67366666Y-64105152D02*
X67404761Y-64143247D01*
X67404761Y-64143247D02*
X67442857Y-64219438D01*
X66642856Y-64257533D02*
X66033333Y-64257533D01*
X65233333Y-64562295D02*
X65690476Y-64562295D01*
X65461904Y-64562295D02*
X65461904Y-63762295D01*
X65461904Y-63762295D02*
X65538095Y-63876580D01*
X65538095Y-63876580D02*
X65614285Y-63952771D01*
X65614285Y-63952771D02*
X65690476Y-63990866D01*
X64738094Y-63762295D02*
X64661904Y-63762295D01*
X64661904Y-63762295D02*
X64585713Y-63800390D01*
X64585713Y-63800390D02*
X64547618Y-63838485D01*
X64547618Y-63838485D02*
X64509523Y-63914676D01*
X64509523Y-63914676D02*
X64471428Y-64067057D01*
X64471428Y-64067057D02*
X64471428Y-64257533D01*
X64471428Y-64257533D02*
X64509523Y-64409914D01*
X64509523Y-64409914D02*
X64547618Y-64486104D01*
X64547618Y-64486104D02*
X64585713Y-64524200D01*
X64585713Y-64524200D02*
X64661904Y-64562295D01*
X64661904Y-64562295D02*
X64738094Y-64562295D01*
X64738094Y-64562295D02*
X64814285Y-64524200D01*
X64814285Y-64524200D02*
X64852380Y-64486104D01*
X64852380Y-64486104D02*
X64890475Y-64409914D01*
X64890475Y-64409914D02*
X64928571Y-64257533D01*
X64928571Y-64257533D02*
X64928571Y-64067057D01*
X64928571Y-64067057D02*
X64890475Y-63914676D01*
X64890475Y-63914676D02*
X64852380Y-63838485D01*
X64852380Y-63838485D02*
X64814285Y-63800390D01*
X64814285Y-63800390D02*
X64738094Y-63762295D01*
X70757142Y-60162295D02*
X70757142Y-59362295D01*
X70757142Y-59362295D02*
X70490476Y-59933723D01*
X70490476Y-59933723D02*
X70223809Y-59362295D01*
X70223809Y-59362295D02*
X70223809Y-60162295D01*
X69842856Y-60162295D02*
X69842856Y-59362295D01*
X69004761Y-60086104D02*
X69042857Y-60124200D01*
X69042857Y-60124200D02*
X69157142Y-60162295D01*
X69157142Y-60162295D02*
X69233333Y-60162295D01*
X69233333Y-60162295D02*
X69347619Y-60124200D01*
X69347619Y-60124200D02*
X69423809Y-60048009D01*
X69423809Y-60048009D02*
X69461904Y-59971819D01*
X69461904Y-59971819D02*
X69500000Y-59819438D01*
X69500000Y-59819438D02*
X69500000Y-59705152D01*
X69500000Y-59705152D02*
X69461904Y-59552771D01*
X69461904Y-59552771D02*
X69423809Y-59476580D01*
X69423809Y-59476580D02*
X69347619Y-59400390D01*
X69347619Y-59400390D02*
X69233333Y-59362295D01*
X69233333Y-59362295D02*
X69157142Y-59362295D01*
X69157142Y-59362295D02*
X69042857Y-59400390D01*
X69042857Y-59400390D02*
X69004761Y-59438485D01*
X71500476Y-39534270D02*
X71386190Y-39572365D01*
X71386190Y-39572365D02*
X71348095Y-39610461D01*
X71348095Y-39610461D02*
X71309999Y-39686651D01*
X71309999Y-39686651D02*
X71309999Y-39800937D01*
X71309999Y-39800937D02*
X71348095Y-39877127D01*
X71348095Y-39877127D02*
X71386190Y-39915223D01*
X71386190Y-39915223D02*
X71462380Y-39953318D01*
X71462380Y-39953318D02*
X71767142Y-39953318D01*
X71767142Y-39953318D02*
X71767142Y-39153318D01*
X71767142Y-39153318D02*
X71500476Y-39153318D01*
X71500476Y-39153318D02*
X71424285Y-39191413D01*
X71424285Y-39191413D02*
X71386190Y-39229508D01*
X71386190Y-39229508D02*
X71348095Y-39305699D01*
X71348095Y-39305699D02*
X71348095Y-39381889D01*
X71348095Y-39381889D02*
X71386190Y-39458080D01*
X71386190Y-39458080D02*
X71424285Y-39496175D01*
X71424285Y-39496175D02*
X71500476Y-39534270D01*
X71500476Y-39534270D02*
X71767142Y-39534270D01*
X71005238Y-39724746D02*
X70624285Y-39724746D01*
X71081428Y-39953318D02*
X70814761Y-39153318D01*
X70814761Y-39153318D02*
X70548095Y-39953318D01*
X70395714Y-39153318D02*
X69938571Y-39153318D01*
X70167143Y-39953318D02*
X70167143Y-39153318D01*
X71671904Y-41241273D02*
X72052856Y-41241273D01*
X72052856Y-41241273D02*
X72052856Y-40441273D01*
X71405237Y-41241273D02*
X71405237Y-40441273D01*
X71024285Y-41241273D02*
X71024285Y-40441273D01*
X71024285Y-40441273D02*
X70567142Y-41241273D01*
X70567142Y-41241273D02*
X70567142Y-40441273D01*
X70186190Y-41241273D02*
X70186190Y-40441273D01*
X69729047Y-41241273D02*
X70071905Y-40784130D01*
X69729047Y-40441273D02*
X70186190Y-40898416D01*
X55755800Y-48052381D02*
X55717704Y-47938095D01*
X55717704Y-47938095D02*
X55717704Y-47747619D01*
X55717704Y-47747619D02*
X55755800Y-47671428D01*
X55755800Y-47671428D02*
X55793895Y-47633333D01*
X55793895Y-47633333D02*
X55870085Y-47595238D01*
X55870085Y-47595238D02*
X55946276Y-47595238D01*
X55946276Y-47595238D02*
X56022466Y-47633333D01*
X56022466Y-47633333D02*
X56060561Y-47671428D01*
X56060561Y-47671428D02*
X56098657Y-47747619D01*
X56098657Y-47747619D02*
X56136752Y-47900000D01*
X56136752Y-47900000D02*
X56174847Y-47976190D01*
X56174847Y-47976190D02*
X56212942Y-48014285D01*
X56212942Y-48014285D02*
X56289133Y-48052381D01*
X56289133Y-48052381D02*
X56365323Y-48052381D01*
X56365323Y-48052381D02*
X56441514Y-48014285D01*
X56441514Y-48014285D02*
X56479609Y-47976190D01*
X56479609Y-47976190D02*
X56517704Y-47900000D01*
X56517704Y-47900000D02*
X56517704Y-47709523D01*
X56517704Y-47709523D02*
X56479609Y-47595238D01*
X55793895Y-46795237D02*
X55755800Y-46833333D01*
X55755800Y-46833333D02*
X55717704Y-46947618D01*
X55717704Y-46947618D02*
X55717704Y-47023809D01*
X55717704Y-47023809D02*
X55755800Y-47138095D01*
X55755800Y-47138095D02*
X55831990Y-47214285D01*
X55831990Y-47214285D02*
X55908180Y-47252380D01*
X55908180Y-47252380D02*
X56060561Y-47290476D01*
X56060561Y-47290476D02*
X56174847Y-47290476D01*
X56174847Y-47290476D02*
X56327228Y-47252380D01*
X56327228Y-47252380D02*
X56403419Y-47214285D01*
X56403419Y-47214285D02*
X56479609Y-47138095D01*
X56479609Y-47138095D02*
X56517704Y-47023809D01*
X56517704Y-47023809D02*
X56517704Y-46947618D01*
X56517704Y-46947618D02*
X56479609Y-46833333D01*
X56479609Y-46833333D02*
X56441514Y-46795237D01*
X55717704Y-46071428D02*
X55717704Y-46452380D01*
X55717704Y-46452380D02*
X56517704Y-46452380D01*
X55755800Y-51271428D02*
X55717704Y-51157142D01*
X55717704Y-51157142D02*
X55717704Y-50966666D01*
X55717704Y-50966666D02*
X55755800Y-50890475D01*
X55755800Y-50890475D02*
X55793895Y-50852380D01*
X55793895Y-50852380D02*
X55870085Y-50814285D01*
X55870085Y-50814285D02*
X55946276Y-50814285D01*
X55946276Y-50814285D02*
X56022466Y-50852380D01*
X56022466Y-50852380D02*
X56060561Y-50890475D01*
X56060561Y-50890475D02*
X56098657Y-50966666D01*
X56098657Y-50966666D02*
X56136752Y-51119047D01*
X56136752Y-51119047D02*
X56174847Y-51195237D01*
X56174847Y-51195237D02*
X56212942Y-51233332D01*
X56212942Y-51233332D02*
X56289133Y-51271428D01*
X56289133Y-51271428D02*
X56365323Y-51271428D01*
X56365323Y-51271428D02*
X56441514Y-51233332D01*
X56441514Y-51233332D02*
X56479609Y-51195237D01*
X56479609Y-51195237D02*
X56517704Y-51119047D01*
X56517704Y-51119047D02*
X56517704Y-50928570D01*
X56517704Y-50928570D02*
X56479609Y-50814285D01*
X55717704Y-50471427D02*
X56517704Y-50471427D01*
X56517704Y-50471427D02*
X56517704Y-50280951D01*
X56517704Y-50280951D02*
X56479609Y-50166665D01*
X56479609Y-50166665D02*
X56403419Y-50090475D01*
X56403419Y-50090475D02*
X56327228Y-50052380D01*
X56327228Y-50052380D02*
X56174847Y-50014284D01*
X56174847Y-50014284D02*
X56060561Y-50014284D01*
X56060561Y-50014284D02*
X55908180Y-50052380D01*
X55908180Y-50052380D02*
X55831990Y-50090475D01*
X55831990Y-50090475D02*
X55755800Y-50166665D01*
X55755800Y-50166665D02*
X55717704Y-50280951D01*
X55717704Y-50280951D02*
X55717704Y-50471427D01*
X55946276Y-49709523D02*
X55946276Y-49328570D01*
X55717704Y-49785713D02*
X56517704Y-49519046D01*
X56517704Y-49519046D02*
X55717704Y-49252380D01*
X56579609Y-44659523D02*
X56617704Y-44735713D01*
X56617704Y-44735713D02*
X56617704Y-44849999D01*
X56617704Y-44849999D02*
X56579609Y-44964285D01*
X56579609Y-44964285D02*
X56503419Y-45040475D01*
X56503419Y-45040475D02*
X56427228Y-45078570D01*
X56427228Y-45078570D02*
X56274847Y-45116666D01*
X56274847Y-45116666D02*
X56160561Y-45116666D01*
X56160561Y-45116666D02*
X56008180Y-45078570D01*
X56008180Y-45078570D02*
X55931990Y-45040475D01*
X55931990Y-45040475D02*
X55855800Y-44964285D01*
X55855800Y-44964285D02*
X55817704Y-44849999D01*
X55817704Y-44849999D02*
X55817704Y-44773808D01*
X55817704Y-44773808D02*
X55855800Y-44659523D01*
X55855800Y-44659523D02*
X55893895Y-44621427D01*
X55893895Y-44621427D02*
X56160561Y-44621427D01*
X56160561Y-44621427D02*
X56160561Y-44773808D01*
X55817704Y-44278570D02*
X56617704Y-44278570D01*
X56617704Y-44278570D02*
X55817704Y-43821427D01*
X55817704Y-43821427D02*
X56617704Y-43821427D01*
X55817704Y-43440475D02*
X56617704Y-43440475D01*
X56617704Y-43440475D02*
X56617704Y-43249999D01*
X56617704Y-43249999D02*
X56579609Y-43135713D01*
X56579609Y-43135713D02*
X56503419Y-43059523D01*
X56503419Y-43059523D02*
X56427228Y-43021428D01*
X56427228Y-43021428D02*
X56274847Y-42983332D01*
X56274847Y-42983332D02*
X56160561Y-42983332D01*
X56160561Y-42983332D02*
X56008180Y-43021428D01*
X56008180Y-43021428D02*
X55931990Y-43059523D01*
X55931990Y-43059523D02*
X55855800Y-43135713D01*
X55855800Y-43135713D02*
X55817704Y-43249999D01*
X55817704Y-43249999D02*
X55817704Y-43440475D01*
X59517704Y-51652381D02*
X58717704Y-51119047D01*
X59517704Y-51119047D02*
X58717704Y-51652381D01*
X58717704Y-50357142D02*
X59098657Y-50623809D01*
X58717704Y-50814285D02*
X59517704Y-50814285D01*
X59517704Y-50814285D02*
X59517704Y-50509523D01*
X59517704Y-50509523D02*
X59479609Y-50433333D01*
X59479609Y-50433333D02*
X59441514Y-50395238D01*
X59441514Y-50395238D02*
X59365323Y-50357142D01*
X59365323Y-50357142D02*
X59251038Y-50357142D01*
X59251038Y-50357142D02*
X59174847Y-50395238D01*
X59174847Y-50395238D02*
X59136752Y-50433333D01*
X59136752Y-50433333D02*
X59098657Y-50509523D01*
X59098657Y-50509523D02*
X59098657Y-50814285D01*
X58755800Y-50052381D02*
X58717704Y-49938095D01*
X58717704Y-49938095D02*
X58717704Y-49747619D01*
X58717704Y-49747619D02*
X58755800Y-49671428D01*
X58755800Y-49671428D02*
X58793895Y-49633333D01*
X58793895Y-49633333D02*
X58870085Y-49595238D01*
X58870085Y-49595238D02*
X58946276Y-49595238D01*
X58946276Y-49595238D02*
X59022466Y-49633333D01*
X59022466Y-49633333D02*
X59060561Y-49671428D01*
X59060561Y-49671428D02*
X59098657Y-49747619D01*
X59098657Y-49747619D02*
X59136752Y-49900000D01*
X59136752Y-49900000D02*
X59174847Y-49976190D01*
X59174847Y-49976190D02*
X59212942Y-50014285D01*
X59212942Y-50014285D02*
X59289133Y-50052381D01*
X59289133Y-50052381D02*
X59365323Y-50052381D01*
X59365323Y-50052381D02*
X59441514Y-50014285D01*
X59441514Y-50014285D02*
X59479609Y-49976190D01*
X59479609Y-49976190D02*
X59517704Y-49900000D01*
X59517704Y-49900000D02*
X59517704Y-49709523D01*
X59517704Y-49709523D02*
X59479609Y-49595238D01*
X59517704Y-49366666D02*
X59517704Y-48909523D01*
X58717704Y-49138095D02*
X59517704Y-49138095D01*
X59617704Y-45040476D02*
X59617704Y-44545238D01*
X59617704Y-44545238D02*
X59312942Y-44811904D01*
X59312942Y-44811904D02*
X59312942Y-44697619D01*
X59312942Y-44697619D02*
X59274847Y-44621428D01*
X59274847Y-44621428D02*
X59236752Y-44583333D01*
X59236752Y-44583333D02*
X59160561Y-44545238D01*
X59160561Y-44545238D02*
X58970085Y-44545238D01*
X58970085Y-44545238D02*
X58893895Y-44583333D01*
X58893895Y-44583333D02*
X58855800Y-44621428D01*
X58855800Y-44621428D02*
X58817704Y-44697619D01*
X58817704Y-44697619D02*
X58817704Y-44926190D01*
X58817704Y-44926190D02*
X58855800Y-45002381D01*
X58855800Y-45002381D02*
X58893895Y-45040476D01*
X59617704Y-44316666D02*
X58817704Y-44049999D01*
X58817704Y-44049999D02*
X59617704Y-43783333D01*
X59617704Y-43592857D02*
X59617704Y-43097619D01*
X59617704Y-43097619D02*
X59312942Y-43364285D01*
X59312942Y-43364285D02*
X59312942Y-43250000D01*
X59312942Y-43250000D02*
X59274847Y-43173809D01*
X59274847Y-43173809D02*
X59236752Y-43135714D01*
X59236752Y-43135714D02*
X59160561Y-43097619D01*
X59160561Y-43097619D02*
X58970085Y-43097619D01*
X58970085Y-43097619D02*
X58893895Y-43135714D01*
X58893895Y-43135714D02*
X58855800Y-43173809D01*
X58855800Y-43173809D02*
X58817704Y-43250000D01*
X58817704Y-43250000D02*
X58817704Y-43478571D01*
X58817704Y-43478571D02*
X58855800Y-43554762D01*
X58855800Y-43554762D02*
X58893895Y-43592857D01*
X62136752Y-51385714D02*
X62098657Y-51271428D01*
X62098657Y-51271428D02*
X62060561Y-51233333D01*
X62060561Y-51233333D02*
X61984371Y-51195237D01*
X61984371Y-51195237D02*
X61870085Y-51195237D01*
X61870085Y-51195237D02*
X61793895Y-51233333D01*
X61793895Y-51233333D02*
X61755800Y-51271428D01*
X61755800Y-51271428D02*
X61717704Y-51347618D01*
X61717704Y-51347618D02*
X61717704Y-51652380D01*
X61717704Y-51652380D02*
X62517704Y-51652380D01*
X62517704Y-51652380D02*
X62517704Y-51385714D01*
X62517704Y-51385714D02*
X62479609Y-51309523D01*
X62479609Y-51309523D02*
X62441514Y-51271428D01*
X62441514Y-51271428D02*
X62365323Y-51233333D01*
X62365323Y-51233333D02*
X62289133Y-51233333D01*
X62289133Y-51233333D02*
X62212942Y-51271428D01*
X62212942Y-51271428D02*
X62174847Y-51309523D01*
X62174847Y-51309523D02*
X62136752Y-51385714D01*
X62136752Y-51385714D02*
X62136752Y-51652380D01*
X62517704Y-50699999D02*
X62517704Y-50547618D01*
X62517704Y-50547618D02*
X62479609Y-50471428D01*
X62479609Y-50471428D02*
X62403419Y-50395237D01*
X62403419Y-50395237D02*
X62251038Y-50357142D01*
X62251038Y-50357142D02*
X61984371Y-50357142D01*
X61984371Y-50357142D02*
X61831990Y-50395237D01*
X61831990Y-50395237D02*
X61755800Y-50471428D01*
X61755800Y-50471428D02*
X61717704Y-50547618D01*
X61717704Y-50547618D02*
X61717704Y-50699999D01*
X61717704Y-50699999D02*
X61755800Y-50776190D01*
X61755800Y-50776190D02*
X61831990Y-50852380D01*
X61831990Y-50852380D02*
X61984371Y-50890476D01*
X61984371Y-50890476D02*
X62251038Y-50890476D01*
X62251038Y-50890476D02*
X62403419Y-50852380D01*
X62403419Y-50852380D02*
X62479609Y-50776190D01*
X62479609Y-50776190D02*
X62517704Y-50699999D01*
X62517704Y-49861904D02*
X62517704Y-49709523D01*
X62517704Y-49709523D02*
X62479609Y-49633333D01*
X62479609Y-49633333D02*
X62403419Y-49557142D01*
X62403419Y-49557142D02*
X62251038Y-49519047D01*
X62251038Y-49519047D02*
X61984371Y-49519047D01*
X61984371Y-49519047D02*
X61831990Y-49557142D01*
X61831990Y-49557142D02*
X61755800Y-49633333D01*
X61755800Y-49633333D02*
X61717704Y-49709523D01*
X61717704Y-49709523D02*
X61717704Y-49861904D01*
X61717704Y-49861904D02*
X61755800Y-49938095D01*
X61755800Y-49938095D02*
X61831990Y-50014285D01*
X61831990Y-50014285D02*
X61984371Y-50052381D01*
X61984371Y-50052381D02*
X62251038Y-50052381D01*
X62251038Y-50052381D02*
X62403419Y-50014285D01*
X62403419Y-50014285D02*
X62479609Y-49938095D01*
X62479609Y-49938095D02*
X62517704Y-49861904D01*
X62517704Y-49290476D02*
X62517704Y-48833333D01*
X61717704Y-49061905D02*
X62517704Y-49061905D01*
X61855800Y-45002381D02*
X61817704Y-44888095D01*
X61817704Y-44888095D02*
X61817704Y-44697619D01*
X61817704Y-44697619D02*
X61855800Y-44621428D01*
X61855800Y-44621428D02*
X61893895Y-44583333D01*
X61893895Y-44583333D02*
X61970085Y-44545238D01*
X61970085Y-44545238D02*
X62046276Y-44545238D01*
X62046276Y-44545238D02*
X62122466Y-44583333D01*
X62122466Y-44583333D02*
X62160561Y-44621428D01*
X62160561Y-44621428D02*
X62198657Y-44697619D01*
X62198657Y-44697619D02*
X62236752Y-44850000D01*
X62236752Y-44850000D02*
X62274847Y-44926190D01*
X62274847Y-44926190D02*
X62312942Y-44964285D01*
X62312942Y-44964285D02*
X62389133Y-45002381D01*
X62389133Y-45002381D02*
X62465323Y-45002381D01*
X62465323Y-45002381D02*
X62541514Y-44964285D01*
X62541514Y-44964285D02*
X62579609Y-44926190D01*
X62579609Y-44926190D02*
X62617704Y-44850000D01*
X62617704Y-44850000D02*
X62617704Y-44659523D01*
X62617704Y-44659523D02*
X62579609Y-44545238D01*
X62198657Y-44049999D02*
X61817704Y-44049999D01*
X62617704Y-44316666D02*
X62198657Y-44049999D01*
X62198657Y-44049999D02*
X62617704Y-43783333D01*
X61855800Y-43554762D02*
X61817704Y-43440476D01*
X61817704Y-43440476D02*
X61817704Y-43250000D01*
X61817704Y-43250000D02*
X61855800Y-43173809D01*
X61855800Y-43173809D02*
X61893895Y-43135714D01*
X61893895Y-43135714D02*
X61970085Y-43097619D01*
X61970085Y-43097619D02*
X62046276Y-43097619D01*
X62046276Y-43097619D02*
X62122466Y-43135714D01*
X62122466Y-43135714D02*
X62160561Y-43173809D01*
X62160561Y-43173809D02*
X62198657Y-43250000D01*
X62198657Y-43250000D02*
X62236752Y-43402381D01*
X62236752Y-43402381D02*
X62274847Y-43478571D01*
X62274847Y-43478571D02*
X62312942Y-43516666D01*
X62312942Y-43516666D02*
X62389133Y-43554762D01*
X62389133Y-43554762D02*
X62465323Y-43554762D01*
X62465323Y-43554762D02*
X62541514Y-43516666D01*
X62541514Y-43516666D02*
X62579609Y-43478571D01*
X62579609Y-43478571D02*
X62617704Y-43402381D01*
X62617704Y-43402381D02*
X62617704Y-43211904D01*
X62617704Y-43211904D02*
X62579609Y-43097619D01*
X62579609Y-47709523D02*
X62617704Y-47785713D01*
X62617704Y-47785713D02*
X62617704Y-47899999D01*
X62617704Y-47899999D02*
X62579609Y-48014285D01*
X62579609Y-48014285D02*
X62503419Y-48090475D01*
X62503419Y-48090475D02*
X62427228Y-48128570D01*
X62427228Y-48128570D02*
X62274847Y-48166666D01*
X62274847Y-48166666D02*
X62160561Y-48166666D01*
X62160561Y-48166666D02*
X62008180Y-48128570D01*
X62008180Y-48128570D02*
X61931990Y-48090475D01*
X61931990Y-48090475D02*
X61855800Y-48014285D01*
X61855800Y-48014285D02*
X61817704Y-47899999D01*
X61817704Y-47899999D02*
X61817704Y-47823808D01*
X61817704Y-47823808D02*
X61855800Y-47709523D01*
X61855800Y-47709523D02*
X61893895Y-47671427D01*
X61893895Y-47671427D02*
X62160561Y-47671427D01*
X62160561Y-47671427D02*
X62160561Y-47823808D01*
X61817704Y-47328570D02*
X62617704Y-47328570D01*
X62617704Y-47328570D02*
X61817704Y-46871427D01*
X61817704Y-46871427D02*
X62617704Y-46871427D01*
X61817704Y-46490475D02*
X62617704Y-46490475D01*
X62617704Y-46490475D02*
X62617704Y-46299999D01*
X62617704Y-46299999D02*
X62579609Y-46185713D01*
X62579609Y-46185713D02*
X62503419Y-46109523D01*
X62503419Y-46109523D02*
X62427228Y-46071428D01*
X62427228Y-46071428D02*
X62274847Y-46033332D01*
X62274847Y-46033332D02*
X62160561Y-46033332D01*
X62160561Y-46033332D02*
X62008180Y-46071428D01*
X62008180Y-46071428D02*
X61931990Y-46109523D01*
X61931990Y-46109523D02*
X61855800Y-46185713D01*
X61855800Y-46185713D02*
X61817704Y-46299999D01*
X61817704Y-46299999D02*
X61817704Y-46490475D01*
X64717704Y-51480951D02*
X65517704Y-51480951D01*
X65517704Y-50947618D02*
X65517704Y-50795237D01*
X65517704Y-50795237D02*
X65479609Y-50719047D01*
X65479609Y-50719047D02*
X65403419Y-50642856D01*
X65403419Y-50642856D02*
X65251038Y-50604761D01*
X65251038Y-50604761D02*
X64984371Y-50604761D01*
X64984371Y-50604761D02*
X64831990Y-50642856D01*
X64831990Y-50642856D02*
X64755800Y-50719047D01*
X64755800Y-50719047D02*
X64717704Y-50795237D01*
X64717704Y-50795237D02*
X64717704Y-50947618D01*
X64717704Y-50947618D02*
X64755800Y-51023809D01*
X64755800Y-51023809D02*
X64831990Y-51099999D01*
X64831990Y-51099999D02*
X64984371Y-51138095D01*
X64984371Y-51138095D02*
X65251038Y-51138095D01*
X65251038Y-51138095D02*
X65403419Y-51099999D01*
X65403419Y-51099999D02*
X65479609Y-51023809D01*
X65479609Y-51023809D02*
X65517704Y-50947618D01*
X65517704Y-50338095D02*
X65517704Y-49842857D01*
X65517704Y-49842857D02*
X65212942Y-50109523D01*
X65212942Y-50109523D02*
X65212942Y-49995238D01*
X65212942Y-49995238D02*
X65174847Y-49919047D01*
X65174847Y-49919047D02*
X65136752Y-49880952D01*
X65136752Y-49880952D02*
X65060561Y-49842857D01*
X65060561Y-49842857D02*
X64870085Y-49842857D01*
X64870085Y-49842857D02*
X64793895Y-49880952D01*
X64793895Y-49880952D02*
X64755800Y-49919047D01*
X64755800Y-49919047D02*
X64717704Y-49995238D01*
X64717704Y-49995238D02*
X64717704Y-50223809D01*
X64717704Y-50223809D02*
X64755800Y-50300000D01*
X64755800Y-50300000D02*
X64793895Y-50338095D01*
X65517704Y-49119047D02*
X65517704Y-49499999D01*
X65517704Y-49499999D02*
X65136752Y-49538095D01*
X65136752Y-49538095D02*
X65174847Y-49499999D01*
X65174847Y-49499999D02*
X65212942Y-49423809D01*
X65212942Y-49423809D02*
X65212942Y-49233333D01*
X65212942Y-49233333D02*
X65174847Y-49157142D01*
X65174847Y-49157142D02*
X65136752Y-49119047D01*
X65136752Y-49119047D02*
X65060561Y-49080952D01*
X65060561Y-49080952D02*
X64870085Y-49080952D01*
X64870085Y-49080952D02*
X64793895Y-49119047D01*
X64793895Y-49119047D02*
X64755800Y-49157142D01*
X64755800Y-49157142D02*
X64717704Y-49233333D01*
X64717704Y-49233333D02*
X64717704Y-49423809D01*
X64717704Y-49423809D02*
X64755800Y-49499999D01*
X64755800Y-49499999D02*
X64793895Y-49538095D01*
X65236752Y-44640476D02*
X65198657Y-44526190D01*
X65198657Y-44526190D02*
X65160561Y-44488095D01*
X65160561Y-44488095D02*
X65084371Y-44449999D01*
X65084371Y-44449999D02*
X64970085Y-44449999D01*
X64970085Y-44449999D02*
X64893895Y-44488095D01*
X64893895Y-44488095D02*
X64855800Y-44526190D01*
X64855800Y-44526190D02*
X64817704Y-44602380D01*
X64817704Y-44602380D02*
X64817704Y-44907142D01*
X64817704Y-44907142D02*
X65617704Y-44907142D01*
X65617704Y-44907142D02*
X65617704Y-44640476D01*
X65617704Y-44640476D02*
X65579609Y-44564285D01*
X65579609Y-44564285D02*
X65541514Y-44526190D01*
X65541514Y-44526190D02*
X65465323Y-44488095D01*
X65465323Y-44488095D02*
X65389133Y-44488095D01*
X65389133Y-44488095D02*
X65312942Y-44526190D01*
X65312942Y-44526190D02*
X65274847Y-44564285D01*
X65274847Y-44564285D02*
X65236752Y-44640476D01*
X65236752Y-44640476D02*
X65236752Y-44907142D01*
X65046276Y-44145238D02*
X65046276Y-43764285D01*
X64817704Y-44221428D02*
X65617704Y-43954761D01*
X65617704Y-43954761D02*
X64817704Y-43688095D01*
X65617704Y-43535714D02*
X65617704Y-43078571D01*
X64817704Y-43307143D02*
X65617704Y-43307143D01*
X65579609Y-47709523D02*
X65617704Y-47785713D01*
X65617704Y-47785713D02*
X65617704Y-47899999D01*
X65617704Y-47899999D02*
X65579609Y-48014285D01*
X65579609Y-48014285D02*
X65503419Y-48090475D01*
X65503419Y-48090475D02*
X65427228Y-48128570D01*
X65427228Y-48128570D02*
X65274847Y-48166666D01*
X65274847Y-48166666D02*
X65160561Y-48166666D01*
X65160561Y-48166666D02*
X65008180Y-48128570D01*
X65008180Y-48128570D02*
X64931990Y-48090475D01*
X64931990Y-48090475D02*
X64855800Y-48014285D01*
X64855800Y-48014285D02*
X64817704Y-47899999D01*
X64817704Y-47899999D02*
X64817704Y-47823808D01*
X64817704Y-47823808D02*
X64855800Y-47709523D01*
X64855800Y-47709523D02*
X64893895Y-47671427D01*
X64893895Y-47671427D02*
X65160561Y-47671427D01*
X65160561Y-47671427D02*
X65160561Y-47823808D01*
X64817704Y-47328570D02*
X65617704Y-47328570D01*
X65617704Y-47328570D02*
X64817704Y-46871427D01*
X64817704Y-46871427D02*
X65617704Y-46871427D01*
X64817704Y-46490475D02*
X65617704Y-46490475D01*
X65617704Y-46490475D02*
X65617704Y-46299999D01*
X65617704Y-46299999D02*
X65579609Y-46185713D01*
X65579609Y-46185713D02*
X65503419Y-46109523D01*
X65503419Y-46109523D02*
X65427228Y-46071428D01*
X65427228Y-46071428D02*
X65274847Y-46033332D01*
X65274847Y-46033332D02*
X65160561Y-46033332D01*
X65160561Y-46033332D02*
X65008180Y-46071428D01*
X65008180Y-46071428D02*
X64931990Y-46109523D01*
X64931990Y-46109523D02*
X64855800Y-46185713D01*
X64855800Y-46185713D02*
X64817704Y-46299999D01*
X64817704Y-46299999D02*
X64817704Y-46490475D01*
X73417704Y-51642856D02*
X74217704Y-51642856D01*
X73417704Y-50804761D02*
X73798657Y-51071428D01*
X73417704Y-51261904D02*
X74217704Y-51261904D01*
X74217704Y-51261904D02*
X74217704Y-50957142D01*
X74217704Y-50957142D02*
X74179609Y-50880952D01*
X74179609Y-50880952D02*
X74141514Y-50842857D01*
X74141514Y-50842857D02*
X74065323Y-50804761D01*
X74065323Y-50804761D02*
X73951038Y-50804761D01*
X73951038Y-50804761D02*
X73874847Y-50842857D01*
X73874847Y-50842857D02*
X73836752Y-50880952D01*
X73836752Y-50880952D02*
X73798657Y-50957142D01*
X73798657Y-50957142D02*
X73798657Y-51261904D01*
X74217704Y-50576190D02*
X73417704Y-50309523D01*
X73417704Y-50309523D02*
X74217704Y-50042857D01*
D12*
X71583809Y-50423036D02*
X70974286Y-50423036D01*
X69488571Y-49927798D02*
X69031428Y-49927798D01*
X69260000Y-50727798D02*
X69260000Y-49927798D01*
X67545713Y-50423036D02*
X66936190Y-50423036D01*
X67240951Y-50727798D02*
X67240951Y-50118274D01*
X69850476Y-51596705D02*
X69736190Y-51634800D01*
X69736190Y-51634800D02*
X69698095Y-51672896D01*
X69698095Y-51672896D02*
X69659999Y-51749086D01*
X69659999Y-51749086D02*
X69659999Y-51863372D01*
X69659999Y-51863372D02*
X69698095Y-51939562D01*
X69698095Y-51939562D02*
X69736190Y-51977658D01*
X69736190Y-51977658D02*
X69812380Y-52015753D01*
X69812380Y-52015753D02*
X70117142Y-52015753D01*
X70117142Y-52015753D02*
X70117142Y-51215753D01*
X70117142Y-51215753D02*
X69850476Y-51215753D01*
X69850476Y-51215753D02*
X69774285Y-51253848D01*
X69774285Y-51253848D02*
X69736190Y-51291943D01*
X69736190Y-51291943D02*
X69698095Y-51368134D01*
X69698095Y-51368134D02*
X69698095Y-51444324D01*
X69698095Y-51444324D02*
X69736190Y-51520515D01*
X69736190Y-51520515D02*
X69774285Y-51558610D01*
X69774285Y-51558610D02*
X69850476Y-51596705D01*
X69850476Y-51596705D02*
X70117142Y-51596705D01*
X69355238Y-51787181D02*
X68974285Y-51787181D01*
X69431428Y-52015753D02*
X69164761Y-51215753D01*
X69164761Y-51215753D02*
X68898095Y-52015753D01*
X68745714Y-51215753D02*
X68288571Y-51215753D01*
X68517143Y-52015753D02*
X68517143Y-51215753D01*
D13*
X46861904Y-29652219D02*
X46861904Y-30461742D01*
X46861904Y-30461742D02*
X46814285Y-30556980D01*
X46814285Y-30556980D02*
X46766666Y-30604600D01*
X46766666Y-30604600D02*
X46671428Y-30652219D01*
X46671428Y-30652219D02*
X46480952Y-30652219D01*
X46480952Y-30652219D02*
X46385714Y-30604600D01*
X46385714Y-30604600D02*
X46338095Y-30556980D01*
X46338095Y-30556980D02*
X46290476Y-30461742D01*
X46290476Y-30461742D02*
X46290476Y-29652219D01*
X45861904Y-30604600D02*
X45719047Y-30652219D01*
X45719047Y-30652219D02*
X45480952Y-30652219D01*
X45480952Y-30652219D02*
X45385714Y-30604600D01*
X45385714Y-30604600D02*
X45338095Y-30556980D01*
X45338095Y-30556980D02*
X45290476Y-30461742D01*
X45290476Y-30461742D02*
X45290476Y-30366504D01*
X45290476Y-30366504D02*
X45338095Y-30271266D01*
X45338095Y-30271266D02*
X45385714Y-30223647D01*
X45385714Y-30223647D02*
X45480952Y-30176028D01*
X45480952Y-30176028D02*
X45671428Y-30128409D01*
X45671428Y-30128409D02*
X45766666Y-30080790D01*
X45766666Y-30080790D02*
X45814285Y-30033171D01*
X45814285Y-30033171D02*
X45861904Y-29937933D01*
X45861904Y-29937933D02*
X45861904Y-29842695D01*
X45861904Y-29842695D02*
X45814285Y-29747457D01*
X45814285Y-29747457D02*
X45766666Y-29699838D01*
X45766666Y-29699838D02*
X45671428Y-29652219D01*
X45671428Y-29652219D02*
X45433333Y-29652219D01*
X45433333Y-29652219D02*
X45290476Y-29699838D01*
X44528571Y-30128409D02*
X44385714Y-30176028D01*
X44385714Y-30176028D02*
X44338095Y-30223647D01*
X44338095Y-30223647D02*
X44290476Y-30318885D01*
X44290476Y-30318885D02*
X44290476Y-30461742D01*
X44290476Y-30461742D02*
X44338095Y-30556980D01*
X44338095Y-30556980D02*
X44385714Y-30604600D01*
X44385714Y-30604600D02*
X44480952Y-30652219D01*
X44480952Y-30652219D02*
X44861904Y-30652219D01*
X44861904Y-30652219D02*
X44861904Y-29652219D01*
X44861904Y-29652219D02*
X44528571Y-29652219D01*
X44528571Y-29652219D02*
X44433333Y-29699838D01*
X44433333Y-29699838D02*
X44385714Y-29747457D01*
X44385714Y-29747457D02*
X44338095Y-29842695D01*
X44338095Y-29842695D02*
X44338095Y-29937933D01*
X44338095Y-29937933D02*
X44385714Y-30033171D01*
X44385714Y-30033171D02*
X44433333Y-30080790D01*
X44433333Y-30080790D02*
X44528571Y-30128409D01*
X44528571Y-30128409D02*
X44861904Y-30128409D01*
X74114285Y-63052219D02*
X74114285Y-62052219D01*
X74114285Y-62052219D02*
X73780952Y-62766504D01*
X73780952Y-62766504D02*
X73447619Y-62052219D01*
X73447619Y-62052219D02*
X73447619Y-63052219D01*
X73019047Y-62766504D02*
X72542857Y-62766504D01*
X73114285Y-63052219D02*
X72780952Y-62052219D01*
X72780952Y-62052219D02*
X72447619Y-63052219D01*
X71923809Y-62052219D02*
X71733333Y-62052219D01*
X71733333Y-62052219D02*
X71638095Y-62099838D01*
X71638095Y-62099838D02*
X71542857Y-62195076D01*
X71542857Y-62195076D02*
X71495238Y-62385552D01*
X71495238Y-62385552D02*
X71495238Y-62718885D01*
X71495238Y-62718885D02*
X71542857Y-62909361D01*
X71542857Y-62909361D02*
X71638095Y-63004600D01*
X71638095Y-63004600D02*
X71733333Y-63052219D01*
X71733333Y-63052219D02*
X71923809Y-63052219D01*
X71923809Y-63052219D02*
X72019047Y-63004600D01*
X72019047Y-63004600D02*
X72114285Y-62909361D01*
X72114285Y-62909361D02*
X72161904Y-62718885D01*
X72161904Y-62718885D02*
X72161904Y-62385552D01*
X72161904Y-62385552D02*
X72114285Y-62195076D01*
X72114285Y-62195076D02*
X72019047Y-62099838D01*
X72019047Y-62099838D02*
X71923809Y-62052219D01*
X70304761Y-63052219D02*
X70304761Y-62052219D01*
X70304761Y-62052219D02*
X69971428Y-62766504D01*
X69971428Y-62766504D02*
X69638095Y-62052219D01*
X69638095Y-62052219D02*
X69638095Y-63052219D01*
X69209523Y-62766504D02*
X68733333Y-62766504D01*
X69304761Y-63052219D02*
X68971428Y-62052219D01*
X68971428Y-62052219D02*
X68638095Y-63052219D01*
X68304761Y-63052219D02*
X68304761Y-62052219D01*
X67828571Y-63052219D02*
X67828571Y-62052219D01*
X67828571Y-62052219D02*
X67257143Y-63052219D01*
X67257143Y-63052219D02*
X67257143Y-62052219D01*
X66066666Y-62766504D02*
X65590476Y-62766504D01*
X66161904Y-63052219D02*
X65828571Y-62052219D01*
X65828571Y-62052219D02*
X65495238Y-63052219D01*
X64971428Y-62052219D02*
X64876190Y-62052219D01*
X64876190Y-62052219D02*
X64780952Y-62099838D01*
X64780952Y-62099838D02*
X64733333Y-62147457D01*
X64733333Y-62147457D02*
X64685714Y-62242695D01*
X64685714Y-62242695D02*
X64638095Y-62433171D01*
X64638095Y-62433171D02*
X64638095Y-62671266D01*
X64638095Y-62671266D02*
X64685714Y-62861742D01*
X64685714Y-62861742D02*
X64733333Y-62956980D01*
X64733333Y-62956980D02*
X64780952Y-63004600D01*
X64780952Y-63004600D02*
X64876190Y-63052219D01*
X64876190Y-63052219D02*
X64971428Y-63052219D01*
X64971428Y-63052219D02*
X65066666Y-63004600D01*
X65066666Y-63004600D02*
X65114285Y-62956980D01*
X65114285Y-62956980D02*
X65161904Y-62861742D01*
X65161904Y-62861742D02*
X65209523Y-62671266D01*
X65209523Y-62671266D02*
X65209523Y-62433171D01*
X65209523Y-62433171D02*
X65161904Y-62242695D01*
X65161904Y-62242695D02*
X65114285Y-62147457D01*
X65114285Y-62147457D02*
X65066666Y-62099838D01*
X65066666Y-62099838D02*
X64971428Y-62052219D01*
D11*
X75914762Y-45785000D02*
X75914762Y-46499285D01*
X75914762Y-46499285D02*
X75962381Y-46642142D01*
X75962381Y-46642142D02*
X76057619Y-46737381D01*
X76057619Y-46737381D02*
X76200476Y-46785000D01*
X76200476Y-46785000D02*
X76295714Y-46785000D01*
X74914762Y-46785000D02*
X75486190Y-46785000D01*
X75200476Y-46785000D02*
X75200476Y-45785000D01*
X75200476Y-45785000D02*
X75295714Y-45927857D01*
X75295714Y-45927857D02*
X75390952Y-46023095D01*
X75390952Y-46023095D02*
X75486190Y-46070714D01*
X74295714Y-45785000D02*
X74200476Y-45785000D01*
X74200476Y-45785000D02*
X74105238Y-45832619D01*
X74105238Y-45832619D02*
X74057619Y-45880238D01*
X74057619Y-45880238D02*
X74010000Y-45975476D01*
X74010000Y-45975476D02*
X73962381Y-46165952D01*
X73962381Y-46165952D02*
X73962381Y-46404047D01*
X73962381Y-46404047D02*
X74010000Y-46594523D01*
X74010000Y-46594523D02*
X74057619Y-46689761D01*
X74057619Y-46689761D02*
X74105238Y-46737381D01*
X74105238Y-46737381D02*
X74200476Y-46785000D01*
X74200476Y-46785000D02*
X74295714Y-46785000D01*
X74295714Y-46785000D02*
X74390952Y-46737381D01*
X74390952Y-46737381D02*
X74438571Y-46689761D01*
X74438571Y-46689761D02*
X74486190Y-46594523D01*
X74486190Y-46594523D02*
X74533809Y-46404047D01*
X74533809Y-46404047D02*
X74533809Y-46165952D01*
X74533809Y-46165952D02*
X74486190Y-45975476D01*
X74486190Y-45975476D02*
X74438571Y-45880238D01*
X74438571Y-45880238D02*
X74390952Y-45832619D01*
X74390952Y-45832619D02*
X74295714Y-45785000D01*
X73581428Y-45880238D02*
X73533809Y-45832619D01*
X73533809Y-45832619D02*
X73438571Y-45785000D01*
X73438571Y-45785000D02*
X73200476Y-45785000D01*
X73200476Y-45785000D02*
X73105238Y-45832619D01*
X73105238Y-45832619D02*
X73057619Y-45880238D01*
X73057619Y-45880238D02*
X73010000Y-45975476D01*
X73010000Y-45975476D02*
X73010000Y-46070714D01*
X73010000Y-46070714D02*
X73057619Y-46213571D01*
X73057619Y-46213571D02*
X73629047Y-46785000D01*
X73629047Y-46785000D02*
X73010000Y-46785000D01*
X70504762Y-68150000D02*
X70504762Y-68864285D01*
X70504762Y-68864285D02*
X70552381Y-69007142D01*
X70552381Y-69007142D02*
X70647619Y-69102381D01*
X70647619Y-69102381D02*
X70790476Y-69150000D01*
X70790476Y-69150000D02*
X70885714Y-69150000D01*
X70076190Y-68245238D02*
X70028571Y-68197619D01*
X70028571Y-68197619D02*
X69933333Y-68150000D01*
X69933333Y-68150000D02*
X69695238Y-68150000D01*
X69695238Y-68150000D02*
X69600000Y-68197619D01*
X69600000Y-68197619D02*
X69552381Y-68245238D01*
X69552381Y-68245238D02*
X69504762Y-68340476D01*
X69504762Y-68340476D02*
X69504762Y-68435714D01*
X69504762Y-68435714D02*
X69552381Y-68578571D01*
X69552381Y-68578571D02*
X70123809Y-69150000D01*
X70123809Y-69150000D02*
X69504762Y-69150000D01*
X68885714Y-68150000D02*
X68790476Y-68150000D01*
X68790476Y-68150000D02*
X68695238Y-68197619D01*
X68695238Y-68197619D02*
X68647619Y-68245238D01*
X68647619Y-68245238D02*
X68600000Y-68340476D01*
X68600000Y-68340476D02*
X68552381Y-68530952D01*
X68552381Y-68530952D02*
X68552381Y-68769047D01*
X68552381Y-68769047D02*
X68600000Y-68959523D01*
X68600000Y-68959523D02*
X68647619Y-69054761D01*
X68647619Y-69054761D02*
X68695238Y-69102381D01*
X68695238Y-69102381D02*
X68790476Y-69150000D01*
X68790476Y-69150000D02*
X68885714Y-69150000D01*
X68885714Y-69150000D02*
X68980952Y-69102381D01*
X68980952Y-69102381D02*
X69028571Y-69054761D01*
X69028571Y-69054761D02*
X69076190Y-68959523D01*
X69076190Y-68959523D02*
X69123809Y-68769047D01*
X69123809Y-68769047D02*
X69123809Y-68530952D01*
X69123809Y-68530952D02*
X69076190Y-68340476D01*
X69076190Y-68340476D02*
X69028571Y-68245238D01*
X69028571Y-68245238D02*
X68980952Y-68197619D01*
X68980952Y-68197619D02*
X68885714Y-68150000D01*
X67600000Y-69150000D02*
X68171428Y-69150000D01*
X67885714Y-69150000D02*
X67885714Y-68150000D01*
X67885714Y-68150000D02*
X67980952Y-68292857D01*
X67980952Y-68292857D02*
X68076190Y-68388095D01*
X68076190Y-68388095D02*
X68171428Y-68435714D01*
X26857667Y-62472212D02*
X26143382Y-62472212D01*
X26143382Y-62472212D02*
X26000525Y-62519831D01*
X26000525Y-62519831D02*
X25905287Y-62615069D01*
X25905287Y-62615069D02*
X25857667Y-62757926D01*
X25857667Y-62757926D02*
X25857667Y-62853164D01*
X26857667Y-61519831D02*
X26857667Y-61996021D01*
X26857667Y-61996021D02*
X26381477Y-62043640D01*
X26381477Y-62043640D02*
X26429096Y-61996021D01*
X26429096Y-61996021D02*
X26476715Y-61900783D01*
X26476715Y-61900783D02*
X26476715Y-61662688D01*
X26476715Y-61662688D02*
X26429096Y-61567450D01*
X26429096Y-61567450D02*
X26381477Y-61519831D01*
X26381477Y-61519831D02*
X26286239Y-61472212D01*
X26286239Y-61472212D02*
X26048144Y-61472212D01*
X26048144Y-61472212D02*
X25952906Y-61519831D01*
X25952906Y-61519831D02*
X25905287Y-61567450D01*
X25905287Y-61567450D02*
X25857667Y-61662688D01*
X25857667Y-61662688D02*
X25857667Y-61900783D01*
X25857667Y-61900783D02*
X25905287Y-61996021D01*
X25905287Y-61996021D02*
X25952906Y-62043640D01*
X26857667Y-60853164D02*
X26857667Y-60757926D01*
X26857667Y-60757926D02*
X26810048Y-60662688D01*
X26810048Y-60662688D02*
X26762429Y-60615069D01*
X26762429Y-60615069D02*
X26667191Y-60567450D01*
X26667191Y-60567450D02*
X26476715Y-60519831D01*
X26476715Y-60519831D02*
X26238620Y-60519831D01*
X26238620Y-60519831D02*
X26048144Y-60567450D01*
X26048144Y-60567450D02*
X25952906Y-60615069D01*
X25952906Y-60615069D02*
X25905287Y-60662688D01*
X25905287Y-60662688D02*
X25857667Y-60757926D01*
X25857667Y-60757926D02*
X25857667Y-60853164D01*
X25857667Y-60853164D02*
X25905287Y-60948402D01*
X25905287Y-60948402D02*
X25952906Y-60996021D01*
X25952906Y-60996021D02*
X26048144Y-61043640D01*
X26048144Y-61043640D02*
X26238620Y-61091259D01*
X26238620Y-61091259D02*
X26476715Y-61091259D01*
X26476715Y-61091259D02*
X26667191Y-61043640D01*
X26667191Y-61043640D02*
X26762429Y-60996021D01*
X26762429Y-60996021D02*
X26810048Y-60948402D01*
X26810048Y-60948402D02*
X26857667Y-60853164D01*
X26857667Y-60186497D02*
X26857667Y-59567450D01*
X26857667Y-59567450D02*
X26476715Y-59900783D01*
X26476715Y-59900783D02*
X26476715Y-59757926D01*
X26476715Y-59757926D02*
X26429096Y-59662688D01*
X26429096Y-59662688D02*
X26381477Y-59615069D01*
X26381477Y-59615069D02*
X26286239Y-59567450D01*
X26286239Y-59567450D02*
X26048144Y-59567450D01*
X26048144Y-59567450D02*
X25952906Y-59615069D01*
X25952906Y-59615069D02*
X25905287Y-59662688D01*
X25905287Y-59662688D02*
X25857667Y-59757926D01*
X25857667Y-59757926D02*
X25857667Y-60043640D01*
X25857667Y-60043640D02*
X25905287Y-60138878D01*
X25905287Y-60138878D02*
X25952906Y-60186497D01*
X32550000Y-50500000D02*
X32550000Y-51309523D01*
X32550000Y-51309523D02*
X32502381Y-51404761D01*
X32502381Y-51404761D02*
X32454762Y-51452381D01*
X32454762Y-51452381D02*
X32359524Y-51500000D01*
X32359524Y-51500000D02*
X32169048Y-51500000D01*
X32169048Y-51500000D02*
X32073810Y-51452381D01*
X32073810Y-51452381D02*
X32026191Y-51404761D01*
X32026191Y-51404761D02*
X31978572Y-51309523D01*
X31978572Y-51309523D02*
X31978572Y-50500000D01*
X31026191Y-50500000D02*
X31502381Y-50500000D01*
X31502381Y-50500000D02*
X31550000Y-50976190D01*
X31550000Y-50976190D02*
X31502381Y-50928571D01*
X31502381Y-50928571D02*
X31407143Y-50880952D01*
X31407143Y-50880952D02*
X31169048Y-50880952D01*
X31169048Y-50880952D02*
X31073810Y-50928571D01*
X31073810Y-50928571D02*
X31026191Y-50976190D01*
X31026191Y-50976190D02*
X30978572Y-51071428D01*
X30978572Y-51071428D02*
X30978572Y-51309523D01*
X30978572Y-51309523D02*
X31026191Y-51404761D01*
X31026191Y-51404761D02*
X31073810Y-51452381D01*
X31073810Y-51452381D02*
X31169048Y-51500000D01*
X31169048Y-51500000D02*
X31407143Y-51500000D01*
X31407143Y-51500000D02*
X31502381Y-51452381D01*
X31502381Y-51452381D02*
X31550000Y-51404761D01*
X30359524Y-50500000D02*
X30264286Y-50500000D01*
X30264286Y-50500000D02*
X30169048Y-50547619D01*
X30169048Y-50547619D02*
X30121429Y-50595238D01*
X30121429Y-50595238D02*
X30073810Y-50690476D01*
X30073810Y-50690476D02*
X30026191Y-50880952D01*
X30026191Y-50880952D02*
X30026191Y-51119047D01*
X30026191Y-51119047D02*
X30073810Y-51309523D01*
X30073810Y-51309523D02*
X30121429Y-51404761D01*
X30121429Y-51404761D02*
X30169048Y-51452381D01*
X30169048Y-51452381D02*
X30264286Y-51500000D01*
X30264286Y-51500000D02*
X30359524Y-51500000D01*
X30359524Y-51500000D02*
X30454762Y-51452381D01*
X30454762Y-51452381D02*
X30502381Y-51404761D01*
X30502381Y-51404761D02*
X30550000Y-51309523D01*
X30550000Y-51309523D02*
X30597619Y-51119047D01*
X30597619Y-51119047D02*
X30597619Y-50880952D01*
X30597619Y-50880952D02*
X30550000Y-50690476D01*
X30550000Y-50690476D02*
X30502381Y-50595238D01*
X30502381Y-50595238D02*
X30454762Y-50547619D01*
X30454762Y-50547619D02*
X30359524Y-50500000D01*
X29073810Y-51500000D02*
X29645238Y-51500000D01*
X29359524Y-51500000D02*
X29359524Y-50500000D01*
X29359524Y-50500000D02*
X29454762Y-50642857D01*
X29454762Y-50642857D02*
X29550000Y-50738095D01*
X29550000Y-50738095D02*
X29645238Y-50785714D01*
X42770648Y-26027532D02*
X43770648Y-26027532D01*
X43770648Y-26027532D02*
X43770648Y-25789437D01*
X43770648Y-25789437D02*
X43723029Y-25646580D01*
X43723029Y-25646580D02*
X43627791Y-25551342D01*
X43627791Y-25551342D02*
X43532553Y-25503723D01*
X43532553Y-25503723D02*
X43342077Y-25456104D01*
X43342077Y-25456104D02*
X43199220Y-25456104D01*
X43199220Y-25456104D02*
X43008744Y-25503723D01*
X43008744Y-25503723D02*
X42913506Y-25551342D01*
X42913506Y-25551342D02*
X42818268Y-25646580D01*
X42818268Y-25646580D02*
X42770648Y-25789437D01*
X42770648Y-25789437D02*
X42770648Y-26027532D01*
X43770648Y-24551342D02*
X43770648Y-25027532D01*
X43770648Y-25027532D02*
X43294458Y-25075151D01*
X43294458Y-25075151D02*
X43342077Y-25027532D01*
X43342077Y-25027532D02*
X43389696Y-24932294D01*
X43389696Y-24932294D02*
X43389696Y-24694199D01*
X43389696Y-24694199D02*
X43342077Y-24598961D01*
X43342077Y-24598961D02*
X43294458Y-24551342D01*
X43294458Y-24551342D02*
X43199220Y-24503723D01*
X43199220Y-24503723D02*
X42961125Y-24503723D01*
X42961125Y-24503723D02*
X42865887Y-24551342D01*
X42865887Y-24551342D02*
X42818268Y-24598961D01*
X42818268Y-24598961D02*
X42770648Y-24694199D01*
X42770648Y-24694199D02*
X42770648Y-24932294D01*
X42770648Y-24932294D02*
X42818268Y-25027532D01*
X42818268Y-25027532D02*
X42865887Y-25075151D01*
X43770648Y-23884675D02*
X43770648Y-23789437D01*
X43770648Y-23789437D02*
X43723029Y-23694199D01*
X43723029Y-23694199D02*
X43675410Y-23646580D01*
X43675410Y-23646580D02*
X43580172Y-23598961D01*
X43580172Y-23598961D02*
X43389696Y-23551342D01*
X43389696Y-23551342D02*
X43151601Y-23551342D01*
X43151601Y-23551342D02*
X42961125Y-23598961D01*
X42961125Y-23598961D02*
X42865887Y-23646580D01*
X42865887Y-23646580D02*
X42818268Y-23694199D01*
X42818268Y-23694199D02*
X42770648Y-23789437D01*
X42770648Y-23789437D02*
X42770648Y-23884675D01*
X42770648Y-23884675D02*
X42818268Y-23979913D01*
X42818268Y-23979913D02*
X42865887Y-24027532D01*
X42865887Y-24027532D02*
X42961125Y-24075151D01*
X42961125Y-24075151D02*
X43151601Y-24122770D01*
X43151601Y-24122770D02*
X43389696Y-24122770D01*
X43389696Y-24122770D02*
X43580172Y-24075151D01*
X43580172Y-24075151D02*
X43675410Y-24027532D01*
X43675410Y-24027532D02*
X43723029Y-23979913D01*
X43723029Y-23979913D02*
X43770648Y-23884675D01*
X42770648Y-22598961D02*
X42770648Y-23170389D01*
X42770648Y-22884675D02*
X43770648Y-22884675D01*
X43770648Y-22884675D02*
X43627791Y-22979913D01*
X43627791Y-22979913D02*
X43532553Y-23075151D01*
X43532553Y-23075151D02*
X43484934Y-23170389D01*
X26150000Y-58054762D02*
X25435715Y-58054762D01*
X25435715Y-58054762D02*
X25292858Y-58102381D01*
X25292858Y-58102381D02*
X25197620Y-58197619D01*
X25197620Y-58197619D02*
X25150000Y-58340476D01*
X25150000Y-58340476D02*
X25150000Y-58435714D01*
X26150000Y-57102381D02*
X26150000Y-57578571D01*
X26150000Y-57578571D02*
X25673810Y-57626190D01*
X25673810Y-57626190D02*
X25721429Y-57578571D01*
X25721429Y-57578571D02*
X25769048Y-57483333D01*
X25769048Y-57483333D02*
X25769048Y-57245238D01*
X25769048Y-57245238D02*
X25721429Y-57150000D01*
X25721429Y-57150000D02*
X25673810Y-57102381D01*
X25673810Y-57102381D02*
X25578572Y-57054762D01*
X25578572Y-57054762D02*
X25340477Y-57054762D01*
X25340477Y-57054762D02*
X25245239Y-57102381D01*
X25245239Y-57102381D02*
X25197620Y-57150000D01*
X25197620Y-57150000D02*
X25150000Y-57245238D01*
X25150000Y-57245238D02*
X25150000Y-57483333D01*
X25150000Y-57483333D02*
X25197620Y-57578571D01*
X25197620Y-57578571D02*
X25245239Y-57626190D01*
X26150000Y-56435714D02*
X26150000Y-56340476D01*
X26150000Y-56340476D02*
X26102381Y-56245238D01*
X26102381Y-56245238D02*
X26054762Y-56197619D01*
X26054762Y-56197619D02*
X25959524Y-56150000D01*
X25959524Y-56150000D02*
X25769048Y-56102381D01*
X25769048Y-56102381D02*
X25530953Y-56102381D01*
X25530953Y-56102381D02*
X25340477Y-56150000D01*
X25340477Y-56150000D02*
X25245239Y-56197619D01*
X25245239Y-56197619D02*
X25197620Y-56245238D01*
X25197620Y-56245238D02*
X25150000Y-56340476D01*
X25150000Y-56340476D02*
X25150000Y-56435714D01*
X25150000Y-56435714D02*
X25197620Y-56530952D01*
X25197620Y-56530952D02*
X25245239Y-56578571D01*
X25245239Y-56578571D02*
X25340477Y-56626190D01*
X25340477Y-56626190D02*
X25530953Y-56673809D01*
X25530953Y-56673809D02*
X25769048Y-56673809D01*
X25769048Y-56673809D02*
X25959524Y-56626190D01*
X25959524Y-56626190D02*
X26054762Y-56578571D01*
X26054762Y-56578571D02*
X26102381Y-56530952D01*
X26102381Y-56530952D02*
X26150000Y-56435714D01*
X25150000Y-55150000D02*
X25150000Y-55721428D01*
X25150000Y-55435714D02*
X26150000Y-55435714D01*
X26150000Y-55435714D02*
X26007143Y-55530952D01*
X26007143Y-55530952D02*
X25911905Y-55626190D01*
X25911905Y-55626190D02*
X25864286Y-55721428D01*
X56429353Y-25434675D02*
X57229353Y-25434675D01*
X57229353Y-25434675D02*
X57229353Y-25244199D01*
X57229353Y-25244199D02*
X57191258Y-25129913D01*
X57191258Y-25129913D02*
X57115068Y-25053723D01*
X57115068Y-25053723D02*
X57038877Y-25015628D01*
X57038877Y-25015628D02*
X56886496Y-24977532D01*
X56886496Y-24977532D02*
X56772210Y-24977532D01*
X56772210Y-24977532D02*
X56619829Y-25015628D01*
X56619829Y-25015628D02*
X56543639Y-25053723D01*
X56543639Y-25053723D02*
X56467449Y-25129913D01*
X56467449Y-25129913D02*
X56429353Y-25244199D01*
X56429353Y-25244199D02*
X56429353Y-25434675D01*
X57229353Y-24253723D02*
X57229353Y-24634675D01*
X57229353Y-24634675D02*
X56848401Y-24672771D01*
X56848401Y-24672771D02*
X56886496Y-24634675D01*
X56886496Y-24634675D02*
X56924591Y-24558485D01*
X56924591Y-24558485D02*
X56924591Y-24368009D01*
X56924591Y-24368009D02*
X56886496Y-24291818D01*
X56886496Y-24291818D02*
X56848401Y-24253723D01*
X56848401Y-24253723D02*
X56772210Y-24215628D01*
X56772210Y-24215628D02*
X56581734Y-24215628D01*
X56581734Y-24215628D02*
X56505544Y-24253723D01*
X56505544Y-24253723D02*
X56467449Y-24291818D01*
X56467449Y-24291818D02*
X56429353Y-24368009D01*
X56429353Y-24368009D02*
X56429353Y-24558485D01*
X56429353Y-24558485D02*
X56467449Y-24634675D01*
X56467449Y-24634675D02*
X56505544Y-24672771D01*
X57229353Y-23720389D02*
X57229353Y-23644199D01*
X57229353Y-23644199D02*
X57191258Y-23568008D01*
X57191258Y-23568008D02*
X57153163Y-23529913D01*
X57153163Y-23529913D02*
X57076972Y-23491818D01*
X57076972Y-23491818D02*
X56924591Y-23453723D01*
X56924591Y-23453723D02*
X56734115Y-23453723D01*
X56734115Y-23453723D02*
X56581734Y-23491818D01*
X56581734Y-23491818D02*
X56505544Y-23529913D01*
X56505544Y-23529913D02*
X56467449Y-23568008D01*
X56467449Y-23568008D02*
X56429353Y-23644199D01*
X56429353Y-23644199D02*
X56429353Y-23720389D01*
X56429353Y-23720389D02*
X56467449Y-23796580D01*
X56467449Y-23796580D02*
X56505544Y-23834675D01*
X56505544Y-23834675D02*
X56581734Y-23872770D01*
X56581734Y-23872770D02*
X56734115Y-23910866D01*
X56734115Y-23910866D02*
X56924591Y-23910866D01*
X56924591Y-23910866D02*
X57076972Y-23872770D01*
X57076972Y-23872770D02*
X57153163Y-23834675D01*
X57153163Y-23834675D02*
X57191258Y-23796580D01*
X57191258Y-23796580D02*
X57229353Y-23720389D01*
X57153163Y-23148961D02*
X57191258Y-23110865D01*
X57191258Y-23110865D02*
X57229353Y-23034675D01*
X57229353Y-23034675D02*
X57229353Y-22844199D01*
X57229353Y-22844199D02*
X57191258Y-22768008D01*
X57191258Y-22768008D02*
X57153163Y-22729913D01*
X57153163Y-22729913D02*
X57076972Y-22691818D01*
X57076972Y-22691818D02*
X57000782Y-22691818D01*
X57000782Y-22691818D02*
X56886496Y-22729913D01*
X56886496Y-22729913D02*
X56429353Y-23187056D01*
X56429353Y-23187056D02*
X56429353Y-22691818D01*
X75070000Y-55142857D02*
X75546191Y-55476190D01*
X75070000Y-55714285D02*
X76070000Y-55714285D01*
X76070000Y-55714285D02*
X76070000Y-55333333D01*
X76070000Y-55333333D02*
X76022381Y-55238095D01*
X76022381Y-55238095D02*
X75974762Y-55190476D01*
X75974762Y-55190476D02*
X75879524Y-55142857D01*
X75879524Y-55142857D02*
X75736667Y-55142857D01*
X75736667Y-55142857D02*
X75641429Y-55190476D01*
X75641429Y-55190476D02*
X75593810Y-55238095D01*
X75593810Y-55238095D02*
X75546191Y-55333333D01*
X75546191Y-55333333D02*
X75546191Y-55714285D01*
X75736667Y-54285714D02*
X75070000Y-54285714D01*
X76117620Y-54523809D02*
X75403334Y-54761904D01*
X75403334Y-54761904D02*
X75403334Y-54142857D01*
X76070000Y-53571428D02*
X76070000Y-53476190D01*
X76070000Y-53476190D02*
X76022381Y-53380952D01*
X76022381Y-53380952D02*
X75974762Y-53333333D01*
X75974762Y-53333333D02*
X75879524Y-53285714D01*
X75879524Y-53285714D02*
X75689048Y-53238095D01*
X75689048Y-53238095D02*
X75450953Y-53238095D01*
X75450953Y-53238095D02*
X75260477Y-53285714D01*
X75260477Y-53285714D02*
X75165239Y-53333333D01*
X75165239Y-53333333D02*
X75117620Y-53380952D01*
X75117620Y-53380952D02*
X75070000Y-53476190D01*
X75070000Y-53476190D02*
X75070000Y-53571428D01*
X75070000Y-53571428D02*
X75117620Y-53666666D01*
X75117620Y-53666666D02*
X75165239Y-53714285D01*
X75165239Y-53714285D02*
X75260477Y-53761904D01*
X75260477Y-53761904D02*
X75450953Y-53809523D01*
X75450953Y-53809523D02*
X75689048Y-53809523D01*
X75689048Y-53809523D02*
X75879524Y-53761904D01*
X75879524Y-53761904D02*
X75974762Y-53714285D01*
X75974762Y-53714285D02*
X76022381Y-53666666D01*
X76022381Y-53666666D02*
X76070000Y-53571428D01*
X75974762Y-52857142D02*
X76022381Y-52809523D01*
X76022381Y-52809523D02*
X76070000Y-52714285D01*
X76070000Y-52714285D02*
X76070000Y-52476190D01*
X76070000Y-52476190D02*
X76022381Y-52380952D01*
X76022381Y-52380952D02*
X75974762Y-52333333D01*
X75974762Y-52333333D02*
X75879524Y-52285714D01*
X75879524Y-52285714D02*
X75784286Y-52285714D01*
X75784286Y-52285714D02*
X75641429Y-52333333D01*
X75641429Y-52333333D02*
X75070000Y-52904761D01*
X75070000Y-52904761D02*
X75070000Y-52285714D01*
X46050595Y-33470000D02*
X46050595Y-34279523D01*
X46050595Y-34279523D02*
X46002976Y-34374761D01*
X46002976Y-34374761D02*
X45955357Y-34422381D01*
X45955357Y-34422381D02*
X45860119Y-34470000D01*
X45860119Y-34470000D02*
X45669643Y-34470000D01*
X45669643Y-34470000D02*
X45574405Y-34422381D01*
X45574405Y-34422381D02*
X45526786Y-34374761D01*
X45526786Y-34374761D02*
X45479167Y-34279523D01*
X45479167Y-34279523D02*
X45479167Y-33470000D01*
X45050595Y-33565238D02*
X45002976Y-33517619D01*
X45002976Y-33517619D02*
X44907738Y-33470000D01*
X44907738Y-33470000D02*
X44669643Y-33470000D01*
X44669643Y-33470000D02*
X44574405Y-33517619D01*
X44574405Y-33517619D02*
X44526786Y-33565238D01*
X44526786Y-33565238D02*
X44479167Y-33660476D01*
X44479167Y-33660476D02*
X44479167Y-33755714D01*
X44479167Y-33755714D02*
X44526786Y-33898571D01*
X44526786Y-33898571D02*
X45098214Y-34470000D01*
X45098214Y-34470000D02*
X44479167Y-34470000D01*
X43860119Y-33470000D02*
X43764881Y-33470000D01*
X43764881Y-33470000D02*
X43669643Y-33517619D01*
X43669643Y-33517619D02*
X43622024Y-33565238D01*
X43622024Y-33565238D02*
X43574405Y-33660476D01*
X43574405Y-33660476D02*
X43526786Y-33850952D01*
X43526786Y-33850952D02*
X43526786Y-34089047D01*
X43526786Y-34089047D02*
X43574405Y-34279523D01*
X43574405Y-34279523D02*
X43622024Y-34374761D01*
X43622024Y-34374761D02*
X43669643Y-34422381D01*
X43669643Y-34422381D02*
X43764881Y-34470000D01*
X43764881Y-34470000D02*
X43860119Y-34470000D01*
X43860119Y-34470000D02*
X43955357Y-34422381D01*
X43955357Y-34422381D02*
X44002976Y-34374761D01*
X44002976Y-34374761D02*
X44050595Y-34279523D01*
X44050595Y-34279523D02*
X44098214Y-34089047D01*
X44098214Y-34089047D02*
X44098214Y-33850952D01*
X44098214Y-33850952D02*
X44050595Y-33660476D01*
X44050595Y-33660476D02*
X44002976Y-33565238D01*
X44002976Y-33565238D02*
X43955357Y-33517619D01*
X43955357Y-33517619D02*
X43860119Y-33470000D01*
X43145833Y-33565238D02*
X43098214Y-33517619D01*
X43098214Y-33517619D02*
X43002976Y-33470000D01*
X43002976Y-33470000D02*
X42764881Y-33470000D01*
X42764881Y-33470000D02*
X42669643Y-33517619D01*
X42669643Y-33517619D02*
X42622024Y-33565238D01*
X42622024Y-33565238D02*
X42574405Y-33660476D01*
X42574405Y-33660476D02*
X42574405Y-33755714D01*
X42574405Y-33755714D02*
X42622024Y-33898571D01*
X42622024Y-33898571D02*
X43193452Y-34470000D01*
X43193452Y-34470000D02*
X42574405Y-34470000D01*
X75833810Y-60092856D02*
X75871906Y-60130952D01*
X75871906Y-60130952D02*
X75986191Y-60169047D01*
X75986191Y-60169047D02*
X76062382Y-60169047D01*
X76062382Y-60169047D02*
X76176668Y-60130952D01*
X76176668Y-60130952D02*
X76252858Y-60054761D01*
X76252858Y-60054761D02*
X76290953Y-59978571D01*
X76290953Y-59978571D02*
X76329049Y-59826190D01*
X76329049Y-59826190D02*
X76329049Y-59711904D01*
X76329049Y-59711904D02*
X76290953Y-59559523D01*
X76290953Y-59559523D02*
X76252858Y-59483332D01*
X76252858Y-59483332D02*
X76176668Y-59407142D01*
X76176668Y-59407142D02*
X76062382Y-59369047D01*
X76062382Y-59369047D02*
X75986191Y-59369047D01*
X75986191Y-59369047D02*
X75871906Y-59407142D01*
X75871906Y-59407142D02*
X75833810Y-59445237D01*
X75148096Y-59635713D02*
X75148096Y-60169047D01*
X75338572Y-59330952D02*
X75529049Y-59902380D01*
X75529049Y-59902380D02*
X75033810Y-59902380D01*
X74576667Y-59369047D02*
X74500477Y-59369047D01*
X74500477Y-59369047D02*
X74424286Y-59407142D01*
X74424286Y-59407142D02*
X74386191Y-59445237D01*
X74386191Y-59445237D02*
X74348096Y-59521428D01*
X74348096Y-59521428D02*
X74310001Y-59673809D01*
X74310001Y-59673809D02*
X74310001Y-59864285D01*
X74310001Y-59864285D02*
X74348096Y-60016666D01*
X74348096Y-60016666D02*
X74386191Y-60092856D01*
X74386191Y-60092856D02*
X74424286Y-60130952D01*
X74424286Y-60130952D02*
X74500477Y-60169047D01*
X74500477Y-60169047D02*
X74576667Y-60169047D01*
X74576667Y-60169047D02*
X74652858Y-60130952D01*
X74652858Y-60130952D02*
X74690953Y-60092856D01*
X74690953Y-60092856D02*
X74729048Y-60016666D01*
X74729048Y-60016666D02*
X74767144Y-59864285D01*
X74767144Y-59864285D02*
X74767144Y-59673809D01*
X74767144Y-59673809D02*
X74729048Y-59521428D01*
X74729048Y-59521428D02*
X74690953Y-59445237D01*
X74690953Y-59445237D02*
X74652858Y-59407142D01*
X74652858Y-59407142D02*
X74576667Y-59369047D01*
X74043334Y-59369047D02*
X73510000Y-59369047D01*
X73510000Y-59369047D02*
X73852858Y-60169047D01*
X68596944Y-56587809D02*
X68596944Y-55587809D01*
X68596944Y-55587809D02*
X68263611Y-56302094D01*
X68263611Y-56302094D02*
X67930278Y-55587809D01*
X67930278Y-55587809D02*
X67930278Y-56587809D01*
X67454087Y-56587809D02*
X67454087Y-55587809D01*
X66882659Y-56587809D02*
X67311230Y-56016380D01*
X66882659Y-55587809D02*
X67454087Y-56159237D01*
X66025516Y-55921142D02*
X66025516Y-56587809D01*
X66263611Y-55540190D02*
X66501706Y-56254475D01*
X66501706Y-56254475D02*
X65882659Y-56254475D01*
X65311230Y-55587809D02*
X65215992Y-55587809D01*
X65215992Y-55587809D02*
X65120754Y-55635428D01*
X65120754Y-55635428D02*
X65073135Y-55683047D01*
X65073135Y-55683047D02*
X65025516Y-55778285D01*
X65025516Y-55778285D02*
X64977897Y-55968761D01*
X64977897Y-55968761D02*
X64977897Y-56206856D01*
X64977897Y-56206856D02*
X65025516Y-56397332D01*
X65025516Y-56397332D02*
X65073135Y-56492570D01*
X65073135Y-56492570D02*
X65120754Y-56540190D01*
X65120754Y-56540190D02*
X65215992Y-56587809D01*
X65215992Y-56587809D02*
X65311230Y-56587809D01*
X65311230Y-56587809D02*
X65406468Y-56540190D01*
X65406468Y-56540190D02*
X65454087Y-56492570D01*
X65454087Y-56492570D02*
X65501706Y-56397332D01*
X65501706Y-56397332D02*
X65549325Y-56206856D01*
X65549325Y-56206856D02*
X65549325Y-55968761D01*
X65549325Y-55968761D02*
X65501706Y-55778285D01*
X65501706Y-55778285D02*
X65454087Y-55683047D01*
X65454087Y-55683047D02*
X65406468Y-55635428D01*
X65406468Y-55635428D02*
X65311230Y-55587809D01*
X64025516Y-56587809D02*
X64596944Y-56587809D01*
X64311230Y-56587809D02*
X64311230Y-55587809D01*
X64311230Y-55587809D02*
X64406468Y-55730666D01*
X64406468Y-55730666D02*
X64501706Y-55825904D01*
X64501706Y-55825904D02*
X64596944Y-55873523D01*
X38050000Y-61310595D02*
X37240477Y-61310595D01*
X37240477Y-61310595D02*
X37145239Y-61262976D01*
X37145239Y-61262976D02*
X37097620Y-61215357D01*
X37097620Y-61215357D02*
X37050000Y-61120119D01*
X37050000Y-61120119D02*
X37050000Y-60929643D01*
X37050000Y-60929643D02*
X37097620Y-60834405D01*
X37097620Y-60834405D02*
X37145239Y-60786786D01*
X37145239Y-60786786D02*
X37240477Y-60739167D01*
X37240477Y-60739167D02*
X38050000Y-60739167D01*
X38050000Y-59786786D02*
X38050000Y-60262976D01*
X38050000Y-60262976D02*
X37573810Y-60310595D01*
X37573810Y-60310595D02*
X37621429Y-60262976D01*
X37621429Y-60262976D02*
X37669048Y-60167738D01*
X37669048Y-60167738D02*
X37669048Y-59929643D01*
X37669048Y-59929643D02*
X37621429Y-59834405D01*
X37621429Y-59834405D02*
X37573810Y-59786786D01*
X37573810Y-59786786D02*
X37478572Y-59739167D01*
X37478572Y-59739167D02*
X37240477Y-59739167D01*
X37240477Y-59739167D02*
X37145239Y-59786786D01*
X37145239Y-59786786D02*
X37097620Y-59834405D01*
X37097620Y-59834405D02*
X37050000Y-59929643D01*
X37050000Y-59929643D02*
X37050000Y-60167738D01*
X37050000Y-60167738D02*
X37097620Y-60262976D01*
X37097620Y-60262976D02*
X37145239Y-60310595D01*
X38050000Y-59120119D02*
X38050000Y-59024881D01*
X38050000Y-59024881D02*
X38002381Y-58929643D01*
X38002381Y-58929643D02*
X37954762Y-58882024D01*
X37954762Y-58882024D02*
X37859524Y-58834405D01*
X37859524Y-58834405D02*
X37669048Y-58786786D01*
X37669048Y-58786786D02*
X37430953Y-58786786D01*
X37430953Y-58786786D02*
X37240477Y-58834405D01*
X37240477Y-58834405D02*
X37145239Y-58882024D01*
X37145239Y-58882024D02*
X37097620Y-58929643D01*
X37097620Y-58929643D02*
X37050000Y-59024881D01*
X37050000Y-59024881D02*
X37050000Y-59120119D01*
X37050000Y-59120119D02*
X37097620Y-59215357D01*
X37097620Y-59215357D02*
X37145239Y-59262976D01*
X37145239Y-59262976D02*
X37240477Y-59310595D01*
X37240477Y-59310595D02*
X37430953Y-59358214D01*
X37430953Y-59358214D02*
X37669048Y-59358214D01*
X37669048Y-59358214D02*
X37859524Y-59310595D01*
X37859524Y-59310595D02*
X37954762Y-59262976D01*
X37954762Y-59262976D02*
X38002381Y-59215357D01*
X38002381Y-59215357D02*
X38050000Y-59120119D01*
X37954762Y-58405833D02*
X38002381Y-58358214D01*
X38002381Y-58358214D02*
X38050000Y-58262976D01*
X38050000Y-58262976D02*
X38050000Y-58024881D01*
X38050000Y-58024881D02*
X38002381Y-57929643D01*
X38002381Y-57929643D02*
X37954762Y-57882024D01*
X37954762Y-57882024D02*
X37859524Y-57834405D01*
X37859524Y-57834405D02*
X37764286Y-57834405D01*
X37764286Y-57834405D02*
X37621429Y-57882024D01*
X37621429Y-57882024D02*
X37050000Y-58453452D01*
X37050000Y-58453452D02*
X37050000Y-57834405D01*
X61748571Y-29438095D02*
X61824761Y-29400000D01*
X61824761Y-29400000D02*
X61900952Y-29323810D01*
X61900952Y-29323810D02*
X62015238Y-29209524D01*
X62015238Y-29209524D02*
X62091428Y-29171429D01*
X62091428Y-29171429D02*
X62167619Y-29171429D01*
X62129523Y-29361905D02*
X62205714Y-29323810D01*
X62205714Y-29323810D02*
X62281904Y-29247619D01*
X62281904Y-29247619D02*
X62320000Y-29095238D01*
X62320000Y-29095238D02*
X62320000Y-28828571D01*
X62320000Y-28828571D02*
X62281904Y-28676190D01*
X62281904Y-28676190D02*
X62205714Y-28600000D01*
X62205714Y-28600000D02*
X62129523Y-28561905D01*
X62129523Y-28561905D02*
X61977142Y-28561905D01*
X61977142Y-28561905D02*
X61900952Y-28600000D01*
X61900952Y-28600000D02*
X61824761Y-28676190D01*
X61824761Y-28676190D02*
X61786666Y-28828571D01*
X61786666Y-28828571D02*
X61786666Y-29095238D01*
X61786666Y-29095238D02*
X61824761Y-29247619D01*
X61824761Y-29247619D02*
X61900952Y-29323810D01*
X61900952Y-29323810D02*
X61977142Y-29361905D01*
X61977142Y-29361905D02*
X62129523Y-29361905D01*
X61062857Y-28561905D02*
X61443809Y-28561905D01*
X61443809Y-28561905D02*
X61481905Y-28942857D01*
X61481905Y-28942857D02*
X61443809Y-28904762D01*
X61443809Y-28904762D02*
X61367619Y-28866667D01*
X61367619Y-28866667D02*
X61177143Y-28866667D01*
X61177143Y-28866667D02*
X61100952Y-28904762D01*
X61100952Y-28904762D02*
X61062857Y-28942857D01*
X61062857Y-28942857D02*
X61024762Y-29019048D01*
X61024762Y-29019048D02*
X61024762Y-29209524D01*
X61024762Y-29209524D02*
X61062857Y-29285714D01*
X61062857Y-29285714D02*
X61100952Y-29323810D01*
X61100952Y-29323810D02*
X61177143Y-29361905D01*
X61177143Y-29361905D02*
X61367619Y-29361905D01*
X61367619Y-29361905D02*
X61443809Y-29323810D01*
X61443809Y-29323810D02*
X61481905Y-29285714D01*
X60529523Y-28561905D02*
X60453333Y-28561905D01*
X60453333Y-28561905D02*
X60377142Y-28600000D01*
X60377142Y-28600000D02*
X60339047Y-28638095D01*
X60339047Y-28638095D02*
X60300952Y-28714286D01*
X60300952Y-28714286D02*
X60262857Y-28866667D01*
X60262857Y-28866667D02*
X60262857Y-29057143D01*
X60262857Y-29057143D02*
X60300952Y-29209524D01*
X60300952Y-29209524D02*
X60339047Y-29285714D01*
X60339047Y-29285714D02*
X60377142Y-29323810D01*
X60377142Y-29323810D02*
X60453333Y-29361905D01*
X60453333Y-29361905D02*
X60529523Y-29361905D01*
X60529523Y-29361905D02*
X60605714Y-29323810D01*
X60605714Y-29323810D02*
X60643809Y-29285714D01*
X60643809Y-29285714D02*
X60681904Y-29209524D01*
X60681904Y-29209524D02*
X60720000Y-29057143D01*
X60720000Y-29057143D02*
X60720000Y-28866667D01*
X60720000Y-28866667D02*
X60681904Y-28714286D01*
X60681904Y-28714286D02*
X60643809Y-28638095D01*
X60643809Y-28638095D02*
X60605714Y-28600000D01*
X60605714Y-28600000D02*
X60529523Y-28561905D01*
X59500952Y-29361905D02*
X59958095Y-29361905D01*
X59729523Y-29361905D02*
X59729523Y-28561905D01*
X59729523Y-28561905D02*
X59805714Y-28676190D01*
X59805714Y-28676190D02*
X59881904Y-28752381D01*
X59881904Y-28752381D02*
X59958095Y-28790476D01*
X24702380Y-41238095D02*
X25702380Y-41238095D01*
X25702380Y-41238095D02*
X25702380Y-41000000D01*
X25702380Y-41000000D02*
X25654761Y-40857143D01*
X25654761Y-40857143D02*
X25559523Y-40761905D01*
X25559523Y-40761905D02*
X25464285Y-40714286D01*
X25464285Y-40714286D02*
X25273809Y-40666667D01*
X25273809Y-40666667D02*
X25130952Y-40666667D01*
X25130952Y-40666667D02*
X24940476Y-40714286D01*
X24940476Y-40714286D02*
X24845238Y-40761905D01*
X24845238Y-40761905D02*
X24750000Y-40857143D01*
X24750000Y-40857143D02*
X24702380Y-41000000D01*
X24702380Y-41000000D02*
X24702380Y-41238095D01*
X25702380Y-40333333D02*
X25702380Y-39714286D01*
X25702380Y-39714286D02*
X25321428Y-40047619D01*
X25321428Y-40047619D02*
X25321428Y-39904762D01*
X25321428Y-39904762D02*
X25273809Y-39809524D01*
X25273809Y-39809524D02*
X25226190Y-39761905D01*
X25226190Y-39761905D02*
X25130952Y-39714286D01*
X25130952Y-39714286D02*
X24892857Y-39714286D01*
X24892857Y-39714286D02*
X24797619Y-39761905D01*
X24797619Y-39761905D02*
X24750000Y-39809524D01*
X24750000Y-39809524D02*
X24702380Y-39904762D01*
X24702380Y-39904762D02*
X24702380Y-40190476D01*
X24702380Y-40190476D02*
X24750000Y-40285714D01*
X24750000Y-40285714D02*
X24797619Y-40333333D01*
X25702380Y-39095238D02*
X25702380Y-39000000D01*
X25702380Y-39000000D02*
X25654761Y-38904762D01*
X25654761Y-38904762D02*
X25607142Y-38857143D01*
X25607142Y-38857143D02*
X25511904Y-38809524D01*
X25511904Y-38809524D02*
X25321428Y-38761905D01*
X25321428Y-38761905D02*
X25083333Y-38761905D01*
X25083333Y-38761905D02*
X24892857Y-38809524D01*
X24892857Y-38809524D02*
X24797619Y-38857143D01*
X24797619Y-38857143D02*
X24750000Y-38904762D01*
X24750000Y-38904762D02*
X24702380Y-39000000D01*
X24702380Y-39000000D02*
X24702380Y-39095238D01*
X24702380Y-39095238D02*
X24750000Y-39190476D01*
X24750000Y-39190476D02*
X24797619Y-39238095D01*
X24797619Y-39238095D02*
X24892857Y-39285714D01*
X24892857Y-39285714D02*
X25083333Y-39333333D01*
X25083333Y-39333333D02*
X25321428Y-39333333D01*
X25321428Y-39333333D02*
X25511904Y-39285714D01*
X25511904Y-39285714D02*
X25607142Y-39238095D01*
X25607142Y-39238095D02*
X25654761Y-39190476D01*
X25654761Y-39190476D02*
X25702380Y-39095238D01*
X25369047Y-37904762D02*
X24702380Y-37904762D01*
X25750000Y-38142857D02*
X25035714Y-38380952D01*
X25035714Y-38380952D02*
X25035714Y-37761905D01*
X77606786Y-48950000D02*
X77606786Y-47950000D01*
X77606786Y-47950000D02*
X77368691Y-47950000D01*
X77368691Y-47950000D02*
X77225834Y-47997619D01*
X77225834Y-47997619D02*
X77130596Y-48092857D01*
X77130596Y-48092857D02*
X77082977Y-48188095D01*
X77082977Y-48188095D02*
X77035358Y-48378571D01*
X77035358Y-48378571D02*
X77035358Y-48521428D01*
X77035358Y-48521428D02*
X77082977Y-48711904D01*
X77082977Y-48711904D02*
X77130596Y-48807142D01*
X77130596Y-48807142D02*
X77225834Y-48902381D01*
X77225834Y-48902381D02*
X77368691Y-48950000D01*
X77368691Y-48950000D02*
X77606786Y-48950000D01*
X76702024Y-47950000D02*
X76082977Y-47950000D01*
X76082977Y-47950000D02*
X76416310Y-48330952D01*
X76416310Y-48330952D02*
X76273453Y-48330952D01*
X76273453Y-48330952D02*
X76178215Y-48378571D01*
X76178215Y-48378571D02*
X76130596Y-48426190D01*
X76130596Y-48426190D02*
X76082977Y-48521428D01*
X76082977Y-48521428D02*
X76082977Y-48759523D01*
X76082977Y-48759523D02*
X76130596Y-48854761D01*
X76130596Y-48854761D02*
X76178215Y-48902381D01*
X76178215Y-48902381D02*
X76273453Y-48950000D01*
X76273453Y-48950000D02*
X76559167Y-48950000D01*
X76559167Y-48950000D02*
X76654405Y-48902381D01*
X76654405Y-48902381D02*
X76702024Y-48854761D01*
X75463929Y-47950000D02*
X75368691Y-47950000D01*
X75368691Y-47950000D02*
X75273453Y-47997619D01*
X75273453Y-47997619D02*
X75225834Y-48045238D01*
X75225834Y-48045238D02*
X75178215Y-48140476D01*
X75178215Y-48140476D02*
X75130596Y-48330952D01*
X75130596Y-48330952D02*
X75130596Y-48569047D01*
X75130596Y-48569047D02*
X75178215Y-48759523D01*
X75178215Y-48759523D02*
X75225834Y-48854761D01*
X75225834Y-48854761D02*
X75273453Y-48902381D01*
X75273453Y-48902381D02*
X75368691Y-48950000D01*
X75368691Y-48950000D02*
X75463929Y-48950000D01*
X75463929Y-48950000D02*
X75559167Y-48902381D01*
X75559167Y-48902381D02*
X75606786Y-48854761D01*
X75606786Y-48854761D02*
X75654405Y-48759523D01*
X75654405Y-48759523D02*
X75702024Y-48569047D01*
X75702024Y-48569047D02*
X75702024Y-48330952D01*
X75702024Y-48330952D02*
X75654405Y-48140476D01*
X75654405Y-48140476D02*
X75606786Y-48045238D01*
X75606786Y-48045238D02*
X75559167Y-47997619D01*
X75559167Y-47997619D02*
X75463929Y-47950000D01*
X74749643Y-48045238D02*
X74702024Y-47997619D01*
X74702024Y-47997619D02*
X74606786Y-47950000D01*
X74606786Y-47950000D02*
X74368691Y-47950000D01*
X74368691Y-47950000D02*
X74273453Y-47997619D01*
X74273453Y-47997619D02*
X74225834Y-48045238D01*
X74225834Y-48045238D02*
X74178215Y-48140476D01*
X74178215Y-48140476D02*
X74178215Y-48235714D01*
X74178215Y-48235714D02*
X74225834Y-48378571D01*
X74225834Y-48378571D02*
X74797262Y-48950000D01*
X74797262Y-48950000D02*
X74178215Y-48950000D01*
X43699048Y-26860000D02*
X43699048Y-27574285D01*
X43699048Y-27574285D02*
X43746667Y-27717142D01*
X43746667Y-27717142D02*
X43841905Y-27812381D01*
X43841905Y-27812381D02*
X43984762Y-27860000D01*
X43984762Y-27860000D02*
X44080000Y-27860000D01*
X42699048Y-27860000D02*
X43270476Y-27860000D01*
X42984762Y-27860000D02*
X42984762Y-26860000D01*
X42984762Y-26860000D02*
X43080000Y-27002857D01*
X43080000Y-27002857D02*
X43175238Y-27098095D01*
X43175238Y-27098095D02*
X43270476Y-27145714D01*
X42080000Y-26860000D02*
X41984762Y-26860000D01*
X41984762Y-26860000D02*
X41889524Y-26907619D01*
X41889524Y-26907619D02*
X41841905Y-26955238D01*
X41841905Y-26955238D02*
X41794286Y-27050476D01*
X41794286Y-27050476D02*
X41746667Y-27240952D01*
X41746667Y-27240952D02*
X41746667Y-27479047D01*
X41746667Y-27479047D02*
X41794286Y-27669523D01*
X41794286Y-27669523D02*
X41841905Y-27764761D01*
X41841905Y-27764761D02*
X41889524Y-27812381D01*
X41889524Y-27812381D02*
X41984762Y-27860000D01*
X41984762Y-27860000D02*
X42080000Y-27860000D01*
X42080000Y-27860000D02*
X42175238Y-27812381D01*
X42175238Y-27812381D02*
X42222857Y-27764761D01*
X42222857Y-27764761D02*
X42270476Y-27669523D01*
X42270476Y-27669523D02*
X42318095Y-27479047D01*
X42318095Y-27479047D02*
X42318095Y-27240952D01*
X42318095Y-27240952D02*
X42270476Y-27050476D01*
X42270476Y-27050476D02*
X42222857Y-26955238D01*
X42222857Y-26955238D02*
X42175238Y-26907619D01*
X42175238Y-26907619D02*
X42080000Y-26860000D01*
X40794286Y-27860000D02*
X41365714Y-27860000D01*
X41080000Y-27860000D02*
X41080000Y-26860000D01*
X41080000Y-26860000D02*
X41175238Y-27002857D01*
X41175238Y-27002857D02*
X41270476Y-27098095D01*
X41270476Y-27098095D02*
X41365714Y-27145714D01*
X25000000Y-47361905D02*
X24285715Y-47361905D01*
X24285715Y-47361905D02*
X24142858Y-47409524D01*
X24142858Y-47409524D02*
X24047620Y-47504762D01*
X24047620Y-47504762D02*
X24000000Y-47647619D01*
X24000000Y-47647619D02*
X24000000Y-47742857D01*
X25000000Y-46409524D02*
X25000000Y-46885714D01*
X25000000Y-46885714D02*
X24523810Y-46933333D01*
X24523810Y-46933333D02*
X24571429Y-46885714D01*
X24571429Y-46885714D02*
X24619048Y-46790476D01*
X24619048Y-46790476D02*
X24619048Y-46552381D01*
X24619048Y-46552381D02*
X24571429Y-46457143D01*
X24571429Y-46457143D02*
X24523810Y-46409524D01*
X24523810Y-46409524D02*
X24428572Y-46361905D01*
X24428572Y-46361905D02*
X24190477Y-46361905D01*
X24190477Y-46361905D02*
X24095239Y-46409524D01*
X24095239Y-46409524D02*
X24047620Y-46457143D01*
X24047620Y-46457143D02*
X24000000Y-46552381D01*
X24000000Y-46552381D02*
X24000000Y-46790476D01*
X24000000Y-46790476D02*
X24047620Y-46885714D01*
X24047620Y-46885714D02*
X24095239Y-46933333D01*
X25000000Y-45742857D02*
X25000000Y-45647619D01*
X25000000Y-45647619D02*
X24952381Y-45552381D01*
X24952381Y-45552381D02*
X24904762Y-45504762D01*
X24904762Y-45504762D02*
X24809524Y-45457143D01*
X24809524Y-45457143D02*
X24619048Y-45409524D01*
X24619048Y-45409524D02*
X24380953Y-45409524D01*
X24380953Y-45409524D02*
X24190477Y-45457143D01*
X24190477Y-45457143D02*
X24095239Y-45504762D01*
X24095239Y-45504762D02*
X24047620Y-45552381D01*
X24047620Y-45552381D02*
X24000000Y-45647619D01*
X24000000Y-45647619D02*
X24000000Y-45742857D01*
X24000000Y-45742857D02*
X24047620Y-45838095D01*
X24047620Y-45838095D02*
X24095239Y-45885714D01*
X24095239Y-45885714D02*
X24190477Y-45933333D01*
X24190477Y-45933333D02*
X24380953Y-45980952D01*
X24380953Y-45980952D02*
X24619048Y-45980952D01*
X24619048Y-45980952D02*
X24809524Y-45933333D01*
X24809524Y-45933333D02*
X24904762Y-45885714D01*
X24904762Y-45885714D02*
X24952381Y-45838095D01*
X24952381Y-45838095D02*
X25000000Y-45742857D01*
X24904762Y-45028571D02*
X24952381Y-44980952D01*
X24952381Y-44980952D02*
X25000000Y-44885714D01*
X25000000Y-44885714D02*
X25000000Y-44647619D01*
X25000000Y-44647619D02*
X24952381Y-44552381D01*
X24952381Y-44552381D02*
X24904762Y-44504762D01*
X24904762Y-44504762D02*
X24809524Y-44457143D01*
X24809524Y-44457143D02*
X24714286Y-44457143D01*
X24714286Y-44457143D02*
X24571429Y-44504762D01*
X24571429Y-44504762D02*
X24000000Y-45076190D01*
X24000000Y-45076190D02*
X24000000Y-44457143D01*
X31400000Y-39911905D02*
X30685715Y-39911905D01*
X30685715Y-39911905D02*
X30542858Y-39959524D01*
X30542858Y-39959524D02*
X30447620Y-40054762D01*
X30447620Y-40054762D02*
X30400000Y-40197619D01*
X30400000Y-40197619D02*
X30400000Y-40292857D01*
X31400000Y-39530952D02*
X31400000Y-38911905D01*
X31400000Y-38911905D02*
X31019048Y-39245238D01*
X31019048Y-39245238D02*
X31019048Y-39102381D01*
X31019048Y-39102381D02*
X30971429Y-39007143D01*
X30971429Y-39007143D02*
X30923810Y-38959524D01*
X30923810Y-38959524D02*
X30828572Y-38911905D01*
X30828572Y-38911905D02*
X30590477Y-38911905D01*
X30590477Y-38911905D02*
X30495239Y-38959524D01*
X30495239Y-38959524D02*
X30447620Y-39007143D01*
X30447620Y-39007143D02*
X30400000Y-39102381D01*
X30400000Y-39102381D02*
X30400000Y-39388095D01*
X30400000Y-39388095D02*
X30447620Y-39483333D01*
X30447620Y-39483333D02*
X30495239Y-39530952D01*
X31400000Y-38292857D02*
X31400000Y-38197619D01*
X31400000Y-38197619D02*
X31352381Y-38102381D01*
X31352381Y-38102381D02*
X31304762Y-38054762D01*
X31304762Y-38054762D02*
X31209524Y-38007143D01*
X31209524Y-38007143D02*
X31019048Y-37959524D01*
X31019048Y-37959524D02*
X30780953Y-37959524D01*
X30780953Y-37959524D02*
X30590477Y-38007143D01*
X30590477Y-38007143D02*
X30495239Y-38054762D01*
X30495239Y-38054762D02*
X30447620Y-38102381D01*
X30447620Y-38102381D02*
X30400000Y-38197619D01*
X30400000Y-38197619D02*
X30400000Y-38292857D01*
X30400000Y-38292857D02*
X30447620Y-38388095D01*
X30447620Y-38388095D02*
X30495239Y-38435714D01*
X30495239Y-38435714D02*
X30590477Y-38483333D01*
X30590477Y-38483333D02*
X30780953Y-38530952D01*
X30780953Y-38530952D02*
X31019048Y-38530952D01*
X31019048Y-38530952D02*
X31209524Y-38483333D01*
X31209524Y-38483333D02*
X31304762Y-38435714D01*
X31304762Y-38435714D02*
X31352381Y-38388095D01*
X31352381Y-38388095D02*
X31400000Y-38292857D01*
X31400000Y-37626190D02*
X31400000Y-37007143D01*
X31400000Y-37007143D02*
X31019048Y-37340476D01*
X31019048Y-37340476D02*
X31019048Y-37197619D01*
X31019048Y-37197619D02*
X30971429Y-37102381D01*
X30971429Y-37102381D02*
X30923810Y-37054762D01*
X30923810Y-37054762D02*
X30828572Y-37007143D01*
X30828572Y-37007143D02*
X30590477Y-37007143D01*
X30590477Y-37007143D02*
X30495239Y-37054762D01*
X30495239Y-37054762D02*
X30447620Y-37102381D01*
X30447620Y-37102381D02*
X30400000Y-37197619D01*
X30400000Y-37197619D02*
X30400000Y-37483333D01*
X30400000Y-37483333D02*
X30447620Y-37578571D01*
X30447620Y-37578571D02*
X30495239Y-37626190D01*
X60092857Y-30900000D02*
X60092857Y-30100000D01*
X60092857Y-30100000D02*
X59902381Y-30100000D01*
X59902381Y-30100000D02*
X59788095Y-30138095D01*
X59788095Y-30138095D02*
X59711905Y-30214285D01*
X59711905Y-30214285D02*
X59673810Y-30290476D01*
X59673810Y-30290476D02*
X59635714Y-30442857D01*
X59635714Y-30442857D02*
X59635714Y-30557143D01*
X59635714Y-30557143D02*
X59673810Y-30709524D01*
X59673810Y-30709524D02*
X59711905Y-30785714D01*
X59711905Y-30785714D02*
X59788095Y-30861905D01*
X59788095Y-30861905D02*
X59902381Y-30900000D01*
X59902381Y-30900000D02*
X60092857Y-30900000D01*
X58873810Y-30900000D02*
X59330953Y-30900000D01*
X59102381Y-30900000D02*
X59102381Y-30100000D01*
X59102381Y-30100000D02*
X59178572Y-30214285D01*
X59178572Y-30214285D02*
X59254762Y-30290476D01*
X59254762Y-30290476D02*
X59330953Y-30328571D01*
X58378571Y-30100000D02*
X58302381Y-30100000D01*
X58302381Y-30100000D02*
X58226190Y-30138095D01*
X58226190Y-30138095D02*
X58188095Y-30176190D01*
X58188095Y-30176190D02*
X58150000Y-30252381D01*
X58150000Y-30252381D02*
X58111905Y-30404762D01*
X58111905Y-30404762D02*
X58111905Y-30595238D01*
X58111905Y-30595238D02*
X58150000Y-30747619D01*
X58150000Y-30747619D02*
X58188095Y-30823809D01*
X58188095Y-30823809D02*
X58226190Y-30861905D01*
X58226190Y-30861905D02*
X58302381Y-30900000D01*
X58302381Y-30900000D02*
X58378571Y-30900000D01*
X58378571Y-30900000D02*
X58454762Y-30861905D01*
X58454762Y-30861905D02*
X58492857Y-30823809D01*
X58492857Y-30823809D02*
X58530952Y-30747619D01*
X58530952Y-30747619D02*
X58569048Y-30595238D01*
X58569048Y-30595238D02*
X58569048Y-30404762D01*
X58569048Y-30404762D02*
X58530952Y-30252381D01*
X58530952Y-30252381D02*
X58492857Y-30176190D01*
X58492857Y-30176190D02*
X58454762Y-30138095D01*
X58454762Y-30138095D02*
X58378571Y-30100000D01*
X57350000Y-30900000D02*
X57807143Y-30900000D01*
X57578571Y-30900000D02*
X57578571Y-30100000D01*
X57578571Y-30100000D02*
X57654762Y-30214285D01*
X57654762Y-30214285D02*
X57730952Y-30290476D01*
X57730952Y-30290476D02*
X57807143Y-30328571D01*
X51750000Y-51900000D02*
X50940477Y-51900000D01*
X50940477Y-51900000D02*
X50845239Y-51852381D01*
X50845239Y-51852381D02*
X50797620Y-51804762D01*
X50797620Y-51804762D02*
X50750000Y-51709524D01*
X50750000Y-51709524D02*
X50750000Y-51519048D01*
X50750000Y-51519048D02*
X50797620Y-51423810D01*
X50797620Y-51423810D02*
X50845239Y-51376191D01*
X50845239Y-51376191D02*
X50940477Y-51328572D01*
X50940477Y-51328572D02*
X51750000Y-51328572D01*
X51654762Y-50900000D02*
X51702381Y-50852381D01*
X51702381Y-50852381D02*
X51750000Y-50757143D01*
X51750000Y-50757143D02*
X51750000Y-50519048D01*
X51750000Y-50519048D02*
X51702381Y-50423810D01*
X51702381Y-50423810D02*
X51654762Y-50376191D01*
X51654762Y-50376191D02*
X51559524Y-50328572D01*
X51559524Y-50328572D02*
X51464286Y-50328572D01*
X51464286Y-50328572D02*
X51321429Y-50376191D01*
X51321429Y-50376191D02*
X50750000Y-50947619D01*
X50750000Y-50947619D02*
X50750000Y-50328572D01*
X51750000Y-49709524D02*
X51750000Y-49614286D01*
X51750000Y-49614286D02*
X51702381Y-49519048D01*
X51702381Y-49519048D02*
X51654762Y-49471429D01*
X51654762Y-49471429D02*
X51559524Y-49423810D01*
X51559524Y-49423810D02*
X51369048Y-49376191D01*
X51369048Y-49376191D02*
X51130953Y-49376191D01*
X51130953Y-49376191D02*
X50940477Y-49423810D01*
X50940477Y-49423810D02*
X50845239Y-49471429D01*
X50845239Y-49471429D02*
X50797620Y-49519048D01*
X50797620Y-49519048D02*
X50750000Y-49614286D01*
X50750000Y-49614286D02*
X50750000Y-49709524D01*
X50750000Y-49709524D02*
X50797620Y-49804762D01*
X50797620Y-49804762D02*
X50845239Y-49852381D01*
X50845239Y-49852381D02*
X50940477Y-49900000D01*
X50940477Y-49900000D02*
X51130953Y-49947619D01*
X51130953Y-49947619D02*
X51369048Y-49947619D01*
X51369048Y-49947619D02*
X51559524Y-49900000D01*
X51559524Y-49900000D02*
X51654762Y-49852381D01*
X51654762Y-49852381D02*
X51702381Y-49804762D01*
X51702381Y-49804762D02*
X51750000Y-49709524D01*
X50750000Y-48423810D02*
X50750000Y-48995238D01*
X50750000Y-48709524D02*
X51750000Y-48709524D01*
X51750000Y-48709524D02*
X51607143Y-48804762D01*
X51607143Y-48804762D02*
X51511905Y-48900000D01*
X51511905Y-48900000D02*
X51464286Y-48995238D01*
X50923810Y-36660000D02*
X51400000Y-36660000D01*
X51400000Y-36660000D02*
X51400000Y-35660000D01*
X50066667Y-36660000D02*
X50638095Y-36660000D01*
X50352381Y-36660000D02*
X50352381Y-35660000D01*
X50352381Y-35660000D02*
X50447619Y-35802857D01*
X50447619Y-35802857D02*
X50542857Y-35898095D01*
X50542857Y-35898095D02*
X50638095Y-35945714D01*
X49447619Y-35660000D02*
X49352381Y-35660000D01*
X49352381Y-35660000D02*
X49257143Y-35707619D01*
X49257143Y-35707619D02*
X49209524Y-35755238D01*
X49209524Y-35755238D02*
X49161905Y-35850476D01*
X49161905Y-35850476D02*
X49114286Y-36040952D01*
X49114286Y-36040952D02*
X49114286Y-36279047D01*
X49114286Y-36279047D02*
X49161905Y-36469523D01*
X49161905Y-36469523D02*
X49209524Y-36564761D01*
X49209524Y-36564761D02*
X49257143Y-36612381D01*
X49257143Y-36612381D02*
X49352381Y-36660000D01*
X49352381Y-36660000D02*
X49447619Y-36660000D01*
X49447619Y-36660000D02*
X49542857Y-36612381D01*
X49542857Y-36612381D02*
X49590476Y-36564761D01*
X49590476Y-36564761D02*
X49638095Y-36469523D01*
X49638095Y-36469523D02*
X49685714Y-36279047D01*
X49685714Y-36279047D02*
X49685714Y-36040952D01*
X49685714Y-36040952D02*
X49638095Y-35850476D01*
X49638095Y-35850476D02*
X49590476Y-35755238D01*
X49590476Y-35755238D02*
X49542857Y-35707619D01*
X49542857Y-35707619D02*
X49447619Y-35660000D01*
X48161905Y-36660000D02*
X48733333Y-36660000D01*
X48447619Y-36660000D02*
X48447619Y-35660000D01*
X48447619Y-35660000D02*
X48542857Y-35802857D01*
X48542857Y-35802857D02*
X48638095Y-35898095D01*
X48638095Y-35898095D02*
X48733333Y-35945714D01*
X23357500Y-54478571D02*
X24357500Y-54478571D01*
X24357500Y-54478571D02*
X24357500Y-54240476D01*
X24357500Y-54240476D02*
X24309881Y-54097619D01*
X24309881Y-54097619D02*
X24214643Y-54002381D01*
X24214643Y-54002381D02*
X24119405Y-53954762D01*
X24119405Y-53954762D02*
X23928929Y-53907143D01*
X23928929Y-53907143D02*
X23786072Y-53907143D01*
X23786072Y-53907143D02*
X23595596Y-53954762D01*
X23595596Y-53954762D02*
X23500358Y-54002381D01*
X23500358Y-54002381D02*
X23405120Y-54097619D01*
X23405120Y-54097619D02*
X23357500Y-54240476D01*
X23357500Y-54240476D02*
X23357500Y-54478571D01*
X24357500Y-53573809D02*
X24357500Y-52954762D01*
X24357500Y-52954762D02*
X23976548Y-53288095D01*
X23976548Y-53288095D02*
X23976548Y-53145238D01*
X23976548Y-53145238D02*
X23928929Y-53050000D01*
X23928929Y-53050000D02*
X23881310Y-53002381D01*
X23881310Y-53002381D02*
X23786072Y-52954762D01*
X23786072Y-52954762D02*
X23547977Y-52954762D01*
X23547977Y-52954762D02*
X23452739Y-53002381D01*
X23452739Y-53002381D02*
X23405120Y-53050000D01*
X23405120Y-53050000D02*
X23357500Y-53145238D01*
X23357500Y-53145238D02*
X23357500Y-53430952D01*
X23357500Y-53430952D02*
X23405120Y-53526190D01*
X23405120Y-53526190D02*
X23452739Y-53573809D01*
X24357500Y-52335714D02*
X24357500Y-52240476D01*
X24357500Y-52240476D02*
X24309881Y-52145238D01*
X24309881Y-52145238D02*
X24262262Y-52097619D01*
X24262262Y-52097619D02*
X24167024Y-52050000D01*
X24167024Y-52050000D02*
X23976548Y-52002381D01*
X23976548Y-52002381D02*
X23738453Y-52002381D01*
X23738453Y-52002381D02*
X23547977Y-52050000D01*
X23547977Y-52050000D02*
X23452739Y-52097619D01*
X23452739Y-52097619D02*
X23405120Y-52145238D01*
X23405120Y-52145238D02*
X23357500Y-52240476D01*
X23357500Y-52240476D02*
X23357500Y-52335714D01*
X23357500Y-52335714D02*
X23405120Y-52430952D01*
X23405120Y-52430952D02*
X23452739Y-52478571D01*
X23452739Y-52478571D02*
X23547977Y-52526190D01*
X23547977Y-52526190D02*
X23738453Y-52573809D01*
X23738453Y-52573809D02*
X23976548Y-52573809D01*
X23976548Y-52573809D02*
X24167024Y-52526190D01*
X24167024Y-52526190D02*
X24262262Y-52478571D01*
X24262262Y-52478571D02*
X24309881Y-52430952D01*
X24309881Y-52430952D02*
X24357500Y-52335714D01*
X23357500Y-51050000D02*
X23357500Y-51621428D01*
X23357500Y-51335714D02*
X24357500Y-51335714D01*
X24357500Y-51335714D02*
X24214643Y-51430952D01*
X24214643Y-51430952D02*
X24119405Y-51526190D01*
X24119405Y-51526190D02*
X24071786Y-51621428D01*
%TO.C,J102*%
D14*
X66650000Y-44500000D02*
X67700000Y-44500000D01*
X66650000Y-47000000D02*
X66650000Y-44500000D01*
X70700000Y-48970000D02*
X67820000Y-48970000D01*
X70820000Y-44500000D02*
X70820000Y-43510000D01*
X71870000Y-44500000D02*
X70820000Y-44500000D01*
X71870000Y-47000000D02*
X71870000Y-44500000D01*
%TO.C,R106*%
X58870000Y-41596359D02*
X58870000Y-41903641D01*
X59630000Y-41596359D02*
X59630000Y-41903641D01*
%TO.C,U104*%
X51380000Y-38500000D02*
X51380000Y-38800000D01*
X51380000Y-39500000D02*
X51380000Y-39200000D01*
X54620000Y-38500000D02*
X54620000Y-38800000D01*
X54620000Y-39500000D02*
X54620000Y-39200000D01*
D15*
X54780000Y-40430000D02*
G75*
G02*
X54680000Y-40430000I-50000J0D01*
G01*
X54680000Y-40430000D02*
G75*
G02*
X54780000Y-40430000I50000J0D01*
G01*
%TO.C,J201*%
D14*
X61595000Y-67630000D02*
X61595000Y-68265000D01*
X62230000Y-67630000D02*
X61595000Y-67630000D01*
%TO.C,R103*%
X62396359Y-35820000D02*
X62703641Y-35820000D01*
X62396359Y-36580000D02*
X62703641Y-36580000D01*
%TO.C,J503*%
D11*
X30499994Y-63596401D02*
X30171364Y-62978337D01*
X30644711Y-63123054D02*
X30026647Y-63451684D01*
%TO.C,U501*%
D14*
X33390000Y-49390000D02*
X33390000Y-49865000D01*
X33390000Y-52135000D02*
X33390000Y-52610000D01*
X33390000Y-52610000D02*
X33865000Y-52610000D01*
X33865000Y-49390000D02*
X33390000Y-49390000D01*
X36135000Y-52610000D02*
X36610000Y-52610000D01*
X36610000Y-49390000D02*
X36135000Y-49390000D01*
X36610000Y-49865000D02*
X36610000Y-49390000D01*
X36610000Y-52610000D02*
X36610000Y-52135000D01*
X37120000Y-50250000D02*
X37450000Y-50490000D01*
X37450000Y-50010000D01*
X37120000Y-50250000D01*
G36*
X37450000Y-50490000D02*
G01*
X37120000Y-50250000D01*
X37450000Y-50010000D01*
X37450000Y-50490000D01*
G37*
%TO.C,C106*%
X49920000Y-38859420D02*
X49920000Y-39140580D01*
X50940000Y-38859420D02*
X50940000Y-39140580D01*
%TO.C,D501*%
D11*
X41771818Y-22845198D02*
X42201860Y-23965494D01*
%TO.C,R309*%
D14*
X39153641Y-65720000D02*
X38846359Y-65720000D01*
X39153641Y-66480000D02*
X38846359Y-66480000D01*
%TO.C,R105*%
X62396359Y-34780000D02*
X62703641Y-34780000D01*
X62396359Y-35540000D02*
X62703641Y-35540000D01*
%TO.C,C103*%
X61840000Y-38859420D02*
X61840000Y-39140580D01*
X62860000Y-38859420D02*
X62860000Y-39140580D01*
%TO.C,D502*%
D11*
X62055860Y-24314506D02*
X61625818Y-25434802D01*
%TO.C,C104*%
D14*
X63377836Y-33640000D02*
X63162164Y-33640000D01*
X63377836Y-34360000D02*
X63162164Y-34360000D01*
%TO.C,R501*%
X37762742Y-26477500D02*
X38237258Y-26477500D01*
X37762742Y-27522500D02*
X38237258Y-27522500D01*
%TO.C,R402*%
X73870000Y-54846359D02*
X73870000Y-55153641D01*
X74630000Y-54846359D02*
X74630000Y-55153641D01*
%TO.C,R503*%
X61370000Y-31346359D02*
X61370000Y-31653641D01*
X62130000Y-31346359D02*
X62130000Y-31653641D01*
%TO.C,C205*%
X43507836Y-39790000D02*
X43292164Y-39790000D01*
X43507836Y-40510000D02*
X43292164Y-40510000D01*
%TO.C,R112*%
X53620000Y-41346359D02*
X53620000Y-41653641D01*
X54380000Y-41346359D02*
X54380000Y-41653641D01*
%TO.C,U202*%
X42890000Y-35590000D02*
X42890000Y-36065000D01*
X42890000Y-38335000D02*
X42890000Y-38810000D01*
X42890000Y-38810000D02*
X43365000Y-38810000D01*
X43365000Y-35590000D02*
X42890000Y-35590000D01*
X45635000Y-38810000D02*
X46110000Y-38810000D01*
X46110000Y-35590000D02*
X45635000Y-35590000D01*
X46110000Y-36065000D02*
X46110000Y-35590000D01*
X46110000Y-38810000D02*
X46110000Y-38335000D01*
X42360000Y-37950000D02*
X42030000Y-37710000D01*
X42030000Y-38190000D01*
X42360000Y-37950000D01*
G36*
X42360000Y-37950000D02*
G01*
X42030000Y-38190000D01*
X42030000Y-37710000D01*
X42360000Y-37950000D01*
G37*
%TO.C,C107*%
X48380000Y-38859420D02*
X48380000Y-39140580D01*
X49400000Y-38859420D02*
X49400000Y-39140580D01*
%TO.C,R109*%
X63870000Y-41846359D02*
X63870000Y-42153641D01*
X64630000Y-41846359D02*
X64630000Y-42153641D01*
%TO.C,R308*%
X60846359Y-71120000D02*
X61153641Y-71120000D01*
X60846359Y-71880000D02*
X61153641Y-71880000D01*
%TO.C,C407*%
X72142164Y-59140000D02*
X72357836Y-59140000D01*
X72142164Y-59860000D02*
X72357836Y-59860000D01*
%TO.C,R111*%
X54720000Y-41653641D02*
X54720000Y-41346359D01*
X55480000Y-41653641D02*
X55480000Y-41346359D01*
%TO.C,C504*%
X34440000Y-56707836D02*
X34440000Y-56492164D01*
X35160000Y-56707836D02*
X35160000Y-56492164D01*
%TO.C,R502*%
X58262742Y-26477500D02*
X58737258Y-26477500D01*
X58262742Y-27522500D02*
X58737258Y-27522500D01*
%TO.C,MK401*%
X69539476Y-57537720D02*
X72019531Y-58248866D01*
X70276469Y-53879134D02*
X69333789Y-57166650D01*
X72019531Y-58248866D02*
X73044902Y-54672971D01*
X73044902Y-54672971D02*
X70276469Y-53879134D01*
X69251098Y-57455029D02*
X68981944Y-57377851D01*
X69173919Y-57724182D01*
X69251098Y-57455029D01*
G36*
X69251098Y-57455029D02*
G01*
X69173919Y-57724182D01*
X68981944Y-57377851D01*
X69251098Y-57455029D01*
G37*
%TO.C,R108*%
X67350000Y-41362064D02*
X67350000Y-39907936D01*
X69170000Y-41362064D02*
X69170000Y-39907936D01*
%TO.C,U103*%
X64704432Y-36935000D02*
X66510000Y-36935000D01*
X66510000Y-34665000D02*
X64290000Y-34665000D01*
X64410000Y-36940000D02*
X64270000Y-37130000D01*
X64550000Y-37130000D01*
X64410000Y-36940000D01*
G36*
X64550000Y-37130000D02*
G01*
X64270000Y-37130000D01*
X64410000Y-36940000D01*
X64550000Y-37130000D01*
G37*
%TO.C,C501*%
X31890000Y-54559420D02*
X31890000Y-54840580D01*
X32910000Y-54559420D02*
X32910000Y-54840580D01*
%TO.C,R204*%
X42935000Y-51353641D02*
X42935000Y-51046359D01*
X43695000Y-51353641D02*
X43695000Y-51046359D01*
%TO.C,R101*%
X48020000Y-30346359D02*
X48020000Y-30653641D01*
X48780000Y-30346359D02*
X48780000Y-30653641D01*
%TO.C,Q101*%
X64340000Y-37615000D02*
X64340000Y-37665000D01*
X64340000Y-38785000D02*
X64340000Y-39565000D01*
X64340000Y-40685000D02*
X64340000Y-40735000D01*
X64340000Y-40735000D02*
X65860000Y-40735000D01*
X65860000Y-37615000D02*
X64340000Y-37615000D01*
X65860000Y-38615000D02*
X65860000Y-37615000D01*
X65860000Y-40735000D02*
X65860000Y-39735000D01*
X63800000Y-39555000D02*
X64040000Y-39225000D01*
X63560000Y-39225000D01*
X63800000Y-39555000D01*
G36*
X63800000Y-39555000D02*
G01*
X63560000Y-39225000D01*
X64040000Y-39225000D01*
X63800000Y-39555000D01*
G37*
%TO.C,R307*%
X39153641Y-67020000D02*
X38846359Y-67020000D01*
X39153641Y-67780000D02*
X38846359Y-67780000D01*
%TO.C,U502*%
X31990000Y-57990000D02*
X31990000Y-58165000D01*
X31990000Y-61035000D02*
X31990000Y-61210000D01*
X31990000Y-61210000D02*
X35210000Y-61210000D01*
X35210000Y-57990000D02*
X31990000Y-57990000D01*
X35210000Y-58165000D02*
X35210000Y-57990000D01*
X35210000Y-61210000D02*
X35210000Y-61035000D01*
X35760000Y-58160000D02*
X36000000Y-57830000D01*
X35520000Y-57830000D01*
X35760000Y-58160000D01*
G36*
X35760000Y-58160000D02*
G01*
X35520000Y-57830000D01*
X36000000Y-57830000D01*
X35760000Y-58160000D01*
G37*
%TO.C,R504*%
X60903641Y-33120000D02*
X60596359Y-33120000D01*
X60903641Y-33880000D02*
X60596359Y-33880000D01*
%TO.C,R114*%
X52120000Y-41346359D02*
X52120000Y-41653641D01*
X52880000Y-41346359D02*
X52880000Y-41653641D01*
%TO.C,Q501*%
X63840000Y-29440000D02*
X63840000Y-29490000D01*
X63840000Y-30610000D02*
X63840000Y-31390000D01*
X63840000Y-32510000D02*
X63840000Y-32560000D01*
X63840000Y-32560000D02*
X65360000Y-32560000D01*
X65360000Y-29440000D02*
X63840000Y-29440000D01*
X65360000Y-30440000D02*
X65360000Y-29440000D01*
X65360000Y-32560000D02*
X65360000Y-31560000D01*
X63300000Y-31380000D02*
X63540000Y-31050000D01*
X63060000Y-31050000D01*
X63300000Y-31380000D01*
G36*
X63300000Y-31380000D02*
G01*
X63060000Y-31050000D01*
X63540000Y-31050000D01*
X63300000Y-31380000D01*
G37*
%TO.C,R301*%
X49020000Y-51603641D02*
X49020000Y-51296359D01*
X49780000Y-51603641D02*
X49780000Y-51296359D01*
%TO.C,D304*%
D12*
X27630000Y-39500000D02*
G75*
G02*
X27470000Y-39500000I-80000J0D01*
G01*
X27470000Y-39500000D02*
G75*
G02*
X27630000Y-39500000I80000J0D01*
G01*
%TO.C,R202*%
D14*
X61153641Y-54320000D02*
X60846359Y-54320000D01*
X61153641Y-55080000D02*
X60846359Y-55080000D01*
%TO.C,C202*%
X39107836Y-69590000D02*
X38892164Y-69590000D01*
X39107836Y-70310000D02*
X38892164Y-70310000D01*
%TO.C,D302*%
D12*
X76630000Y-50000000D02*
G75*
G02*
X76470000Y-50000000I-80000J0D01*
G01*
X76470000Y-50000000D02*
G75*
G02*
X76630000Y-50000000I80000J0D01*
G01*
%TO.C,R102*%
D14*
X51520000Y-32596359D02*
X51520000Y-32903641D01*
X52280000Y-32596359D02*
X52280000Y-32903641D01*
%TO.C,R310*%
X39153641Y-64520000D02*
X38846359Y-64520000D01*
X39153641Y-65280000D02*
X38846359Y-65280000D01*
%TO.C,C102*%
X55060000Y-36080580D02*
X55060000Y-35799420D01*
X56080000Y-36080580D02*
X56080000Y-35799420D01*
%TO.C,C204*%
X41940000Y-51307836D02*
X41940000Y-51092164D01*
X42660000Y-51307836D02*
X42660000Y-51092164D01*
%TO.C,J101*%
X45300000Y-22050000D02*
X45300000Y-21641500D01*
X45300000Y-25950000D02*
X45300000Y-23950000D01*
X54700000Y-22050000D02*
X54700000Y-21641500D01*
X54700000Y-25950000D02*
X54700000Y-23950000D01*
%TO.C,C105*%
X55060000Y-38859420D02*
X55060000Y-39140580D01*
X56080000Y-38859420D02*
X56080000Y-39140580D01*
%TO.C,C201*%
X36490000Y-70359420D02*
X36490000Y-70640580D01*
X37510000Y-70359420D02*
X37510000Y-70640580D01*
%TO.C,R104*%
X57020000Y-35193641D02*
X57020000Y-34886359D01*
X57780000Y-35193641D02*
X57780000Y-34886359D01*
%TO.C,C503*%
X32292164Y-56740000D02*
X32507836Y-56740000D01*
X32292164Y-57460000D02*
X32507836Y-57460000D01*
%TO.C,C101*%
X59032164Y-34740000D02*
X59247836Y-34740000D01*
X59032164Y-35460000D02*
X59247836Y-35460000D01*
%TO.C,R403*%
X71403641Y-52370000D02*
X71096359Y-52370000D01*
X71403641Y-53130000D02*
X71096359Y-53130000D01*
%TO.C,R113*%
X51020000Y-41653641D02*
X51020000Y-41346359D01*
X51780000Y-41653641D02*
X51780000Y-41346359D01*
%TO.C,U102*%
X57800000Y-36615000D02*
X57800000Y-37090000D01*
X57800000Y-39360000D02*
X57800000Y-39835000D01*
X57800000Y-39835000D02*
X58275000Y-39835000D01*
X58275000Y-36615000D02*
X57800000Y-36615000D01*
X60545000Y-39835000D02*
X61020000Y-39835000D01*
X61020000Y-36615000D02*
X60545000Y-36615000D01*
X61020000Y-37090000D02*
X61020000Y-36615000D01*
X61020000Y-39835000D02*
X61020000Y-39360000D01*
X61550000Y-37475000D02*
X61880000Y-37715000D01*
X61880000Y-37235000D01*
X61550000Y-37475000D01*
G36*
X61880000Y-37715000D02*
G01*
X61550000Y-37475000D01*
X61880000Y-37235000D01*
X61880000Y-37715000D01*
G37*
%TO.C,R107*%
X57403641Y-41120000D02*
X57096359Y-41120000D01*
X57403641Y-41880000D02*
X57096359Y-41880000D01*
%TO.C,R203*%
X40870000Y-51046359D02*
X40870000Y-51353641D01*
X41630000Y-51046359D02*
X41630000Y-51353641D01*
%TO.C,C406*%
X73890000Y-57392164D02*
X73890000Y-57607836D01*
X74610000Y-57392164D02*
X74610000Y-57607836D01*
%TO.C,C505*%
X64359420Y-27490000D02*
X64640580Y-27490000D01*
X64359420Y-28510000D02*
X64640580Y-28510000D01*
%TO.C,R209*%
X33753641Y-62020000D02*
X33446359Y-62020000D01*
X33753641Y-62780000D02*
X33446359Y-62780000D01*
%TO.C,R208*%
X40020000Y-35553641D02*
X40020000Y-35246359D01*
X40780000Y-35553641D02*
X40780000Y-35246359D01*
%TO.C,R302*%
X47720000Y-51603641D02*
X47720000Y-51296359D01*
X48480000Y-51603641D02*
X48480000Y-51296359D01*
%TO.C,D101*%
X52290000Y-29490000D02*
X56050000Y-29490000D01*
X52290000Y-31510000D02*
X52290000Y-29490000D01*
X52290000Y-31510000D02*
X56050000Y-31510000D01*
%TO.C,C502*%
X34140000Y-54042164D02*
X34140000Y-54257836D01*
X34860000Y-54042164D02*
X34860000Y-54257836D01*
%TO.C,R110*%
X70596359Y-41870000D02*
X70903641Y-41870000D01*
X70596359Y-42630000D02*
X70903641Y-42630000D01*
%TO.C,U201*%
X40800000Y-53000000D02*
X42300000Y-53000000D01*
X40800000Y-54000000D02*
X40800000Y-53000000D01*
X59200000Y-53000000D02*
X57700000Y-53000000D01*
X59200000Y-53000000D02*
X59200000Y-54000000D01*
%TO.C,L101*%
X51890000Y-37470000D02*
X54110000Y-37470000D01*
X54110000Y-35350000D02*
X51890000Y-35350000D01*
%TO.C,D301*%
D12*
X23530000Y-50000000D02*
G75*
G02*
X23370000Y-50000000I-80000J0D01*
G01*
X23370000Y-50000000D02*
G75*
G02*
X23530000Y-50000000I80000J0D01*
G01*
%TD*%
%LPC*%
D16*
%TO.C,H1*%
X31421000Y-33272000D03*
%TD*%
%TO.C,H2*%
X68579000Y-33272000D03*
%TD*%
D17*
%TO.C,H3*%
X32322000Y-67678000D03*
%TD*%
D18*
%TO.C,TP13*%
X41600000Y-45400000D03*
%TD*%
D19*
%TO.C,J102*%
X70260000Y-44285000D03*
X69260000Y-44285000D03*
X68260000Y-44285000D03*
D20*
X71560000Y-48160000D03*
X66960000Y-48160000D03*
%TD*%
D21*
%TO.C,R106*%
X59250000Y-41240000D03*
X59250000Y-42260000D03*
%TD*%
D22*
%TO.C,U104*%
X54000000Y-39900000D03*
X53500000Y-39900000D03*
X53000000Y-39900000D03*
X52500000Y-39900000D03*
X52000000Y-39900000D03*
D23*
X52000000Y-38250000D03*
X52500000Y-38250000D03*
D24*
X53000000Y-38450000D03*
D23*
X53500000Y-38250000D03*
X54000000Y-38250000D03*
%TD*%
D25*
%TO.C,J201*%
X60960000Y-68900000D03*
X66040000Y-67884000D03*
X66040000Y-69916000D03*
D26*
X62230000Y-68265000D03*
X62230000Y-69535000D03*
X63500000Y-68265000D03*
X63500000Y-69535000D03*
X64770000Y-68265000D03*
X64770000Y-69535000D03*
%TD*%
D27*
%TO.C,R103*%
X62040000Y-36200000D03*
X63060000Y-36200000D03*
%TD*%
D28*
%TO.C,J503*%
X29748839Y-62183684D03*
X28575161Y-59976316D03*
%TD*%
D18*
%TO.C,TP10*%
X54900000Y-47100000D03*
%TD*%
D29*
%TO.C,TP1*%
X60900000Y-47100000D03*
%TD*%
D30*
%TO.C,U501*%
X36437500Y-50250000D03*
X36437500Y-50750000D03*
X36437500Y-51250000D03*
X36437500Y-51750000D03*
D31*
X35750000Y-52437500D03*
X35250000Y-52437500D03*
X34750000Y-52437500D03*
X34250000Y-52437500D03*
D30*
X33562500Y-51750000D03*
X33562500Y-51250000D03*
X33562500Y-50750000D03*
X33562500Y-50250000D03*
D31*
X34250000Y-49562500D03*
X34750000Y-49562500D03*
X35250000Y-49562500D03*
X35750000Y-49562500D03*
D32*
X35000000Y-51000000D03*
%TD*%
D33*
%TO.C,C106*%
X50430000Y-38225000D03*
X50430000Y-39775000D03*
%TD*%
D34*
%TO.C,D501*%
X41473371Y-23602448D03*
X38672629Y-24677552D03*
%TD*%
D35*
%TO.C,R309*%
X39510000Y-66100000D03*
X38490000Y-66100000D03*
%TD*%
D27*
%TO.C,R105*%
X62040000Y-35160000D03*
X63060000Y-35160000D03*
%TD*%
D33*
%TO.C,C103*%
X62350000Y-38225000D03*
X62350000Y-39775000D03*
%TD*%
D36*
%TO.C,J501*%
X26400000Y-53200000D03*
%TD*%
D37*
%TO.C,D502*%
X61327371Y-24677552D03*
X58526629Y-23602448D03*
%TD*%
D18*
%TO.C,TP7*%
X35000000Y-68700000D03*
%TD*%
%TO.C,TP14*%
X69900000Y-61000000D03*
%TD*%
D38*
%TO.C,C104*%
X63750000Y-34000000D03*
X62790000Y-34000000D03*
%TD*%
D39*
%TO.C,R501*%
X37175000Y-27000000D03*
X38825000Y-27000000D03*
%TD*%
D21*
%TO.C,R402*%
X74250000Y-54490000D03*
X74250000Y-55510000D03*
%TD*%
D17*
%TO.C,FID5*%
X71000000Y-37000000D03*
%TD*%
D21*
%TO.C,R503*%
X61750000Y-30990000D03*
X61750000Y-32010000D03*
%TD*%
D38*
%TO.C,C205*%
X43880000Y-40150000D03*
X42920000Y-40150000D03*
%TD*%
D21*
%TO.C,R112*%
X54000000Y-40990000D03*
X54000000Y-42010000D03*
%TD*%
D40*
%TO.C,U202*%
X43062500Y-37950000D03*
X43062500Y-37450000D03*
X43062500Y-36950000D03*
X43062500Y-36450000D03*
D41*
X43750000Y-35762500D03*
X44250000Y-35762500D03*
X44750000Y-35762500D03*
X45250000Y-35762500D03*
D40*
X45937500Y-36450000D03*
X45937500Y-36950000D03*
X45937500Y-37450000D03*
X45937500Y-37950000D03*
D41*
X45250000Y-38637500D03*
X44750000Y-38637500D03*
X44250000Y-38637500D03*
X43750000Y-38637500D03*
D42*
X44500000Y-37200000D03*
%TD*%
D33*
%TO.C,C107*%
X48890000Y-38225000D03*
X48890000Y-39775000D03*
%TD*%
D18*
%TO.C,TP11*%
X57900000Y-50300000D03*
%TD*%
D29*
%TO.C,TP2*%
X54900000Y-44050000D03*
%TD*%
D21*
%TO.C,R109*%
X64250000Y-41490000D03*
X64250000Y-42510000D03*
%TD*%
D27*
%TO.C,R308*%
X60490000Y-71500000D03*
X61510000Y-71500000D03*
%TD*%
D43*
%TO.C,C407*%
X71770000Y-59500000D03*
X72730000Y-59500000D03*
%TD*%
D44*
%TO.C,R111*%
X55100000Y-42010000D03*
X55100000Y-40990000D03*
%TD*%
D17*
%TO.C,FID4*%
X30000000Y-46000000D03*
%TD*%
D45*
%TO.C,C504*%
X34800000Y-57080000D03*
X34800000Y-56120000D03*
%TD*%
D39*
%TO.C,R502*%
X57675000Y-27000000D03*
X59325000Y-27000000D03*
%TD*%
D46*
%TO.C,MK401*%
X71360241Y-55323828D03*
D47*
X69983512Y-57086639D03*
X70210086Y-56296482D03*
D48*
X71542851Y-54686993D03*
D47*
X71820199Y-56758174D03*
X71593627Y-57548332D03*
%TD*%
D29*
%TO.C,TP6*%
X55500000Y-33050000D03*
%TD*%
D49*
%TO.C,R108*%
X68260000Y-42097500D03*
X68260000Y-39172500D03*
%TD*%
D50*
%TO.C,U103*%
X64412500Y-36550000D03*
X64412500Y-36050000D03*
X64412500Y-35550000D03*
X64412500Y-35050000D03*
X66387500Y-35050000D03*
X66387500Y-35550000D03*
X66387500Y-36050000D03*
X66387500Y-36550000D03*
D51*
X65400000Y-35800000D03*
%TD*%
D33*
%TO.C,C501*%
X32400000Y-53925000D03*
X32400000Y-55475000D03*
%TD*%
D44*
%TO.C,R204*%
X43315000Y-51710000D03*
X43315000Y-50690000D03*
%TD*%
D21*
%TO.C,R101*%
X48400000Y-29990000D03*
X48400000Y-31010000D03*
%TD*%
D52*
%TO.C,Q101*%
X64162500Y-40125000D03*
X64162500Y-38225000D03*
X66037500Y-39175000D03*
%TD*%
D35*
%TO.C,R307*%
X39510000Y-67400000D03*
X38490000Y-67400000D03*
%TD*%
D53*
%TO.C,U502*%
X35700000Y-58600000D03*
X35700000Y-59100000D03*
X35700000Y-59600000D03*
X35700000Y-60100000D03*
X35700000Y-60600000D03*
X31500000Y-60600000D03*
X31500000Y-60100000D03*
X31500000Y-59600000D03*
X31500000Y-59100000D03*
X31500000Y-58600000D03*
%TD*%
D35*
%TO.C,R504*%
X61260000Y-33500000D03*
X60240000Y-33500000D03*
%TD*%
D18*
%TO.C,TP15*%
X72600000Y-50900000D03*
%TD*%
D21*
%TO.C,R114*%
X52500000Y-40990000D03*
X52500000Y-42010000D03*
%TD*%
D52*
%TO.C,Q501*%
X63662500Y-31950000D03*
X63662500Y-30050000D03*
X65537500Y-31000000D03*
%TD*%
D44*
%TO.C,R301*%
X49400000Y-51960000D03*
X49400000Y-50940000D03*
%TD*%
D54*
%TO.C,D304*%
X27100000Y-39500000D03*
X26400000Y-39500000D03*
%TD*%
D35*
%TO.C,R202*%
X61510000Y-54700000D03*
X60490000Y-54700000D03*
%TD*%
D38*
%TO.C,C202*%
X39480000Y-69950000D03*
X38520000Y-69950000D03*
%TD*%
D54*
%TO.C,D302*%
X76100000Y-50000000D03*
X75400000Y-50000000D03*
%TD*%
D18*
%TO.C,TP8*%
X60900000Y-50300000D03*
%TD*%
D17*
%TO.C,FID6*%
X28500000Y-56000000D03*
%TD*%
D21*
%TO.C,R102*%
X51900000Y-32240000D03*
X51900000Y-33260000D03*
%TD*%
D35*
%TO.C,R310*%
X39510000Y-64900000D03*
X38490000Y-64900000D03*
%TD*%
D55*
%TO.C,C102*%
X55570000Y-36715000D03*
X55570000Y-35165000D03*
%TD*%
D45*
%TO.C,C204*%
X42300000Y-51680000D03*
X42300000Y-50720000D03*
%TD*%
D56*
%TO.C,J101*%
X47110000Y-26650000D03*
X52890000Y-26650000D03*
D57*
X46750000Y-28095000D03*
X47550000Y-28095000D03*
D58*
X48750000Y-28095000D03*
X49750000Y-28095000D03*
X50250000Y-28095000D03*
X51250000Y-28095000D03*
D57*
X52450000Y-28095000D03*
X53250000Y-28095000D03*
X53250000Y-28095000D03*
X52450000Y-28095000D03*
D58*
X51750000Y-28095000D03*
X50750000Y-28095000D03*
X49250000Y-28095000D03*
X48250000Y-28095000D03*
D57*
X47550000Y-28095000D03*
X46750000Y-28095000D03*
D59*
X45680000Y-23000000D03*
D60*
X45680000Y-27180000D03*
D59*
X54320000Y-23000000D03*
D60*
X54320000Y-27180000D03*
%TD*%
D33*
%TO.C,C105*%
X55570000Y-38225000D03*
X55570000Y-39775000D03*
%TD*%
D29*
%TO.C,TP3*%
X57900000Y-44050000D03*
%TD*%
D33*
%TO.C,C201*%
X37000000Y-69725000D03*
X37000000Y-71275000D03*
%TD*%
D29*
%TO.C,TP5*%
X63900000Y-44050000D03*
%TD*%
D44*
%TO.C,R104*%
X57400000Y-35550000D03*
X57400000Y-34530000D03*
%TD*%
D18*
%TO.C,TP9*%
X54900000Y-50300000D03*
%TD*%
D43*
%TO.C,C503*%
X31920000Y-57100000D03*
X32880000Y-57100000D03*
%TD*%
%TO.C,C101*%
X58660000Y-35100000D03*
X59620000Y-35100000D03*
%TD*%
D29*
%TO.C,TP16*%
X63900000Y-47100000D03*
%TD*%
D35*
%TO.C,R403*%
X71760000Y-52750000D03*
X70740000Y-52750000D03*
%TD*%
D44*
%TO.C,R113*%
X51400000Y-42010000D03*
X51400000Y-40990000D03*
%TD*%
D30*
%TO.C,U102*%
X60872500Y-37475000D03*
X60872500Y-37975000D03*
X60872500Y-38475000D03*
X60872500Y-38975000D03*
D31*
X60160000Y-39687500D03*
X59660000Y-39687500D03*
X59160000Y-39687500D03*
X58660000Y-39687500D03*
D30*
X57947500Y-38975000D03*
X57947500Y-38475000D03*
X57947500Y-37975000D03*
X57947500Y-37475000D03*
D31*
X58660000Y-36762500D03*
X59160000Y-36762500D03*
X59660000Y-36762500D03*
X60160000Y-36762500D03*
D61*
X59410000Y-38225000D03*
%TD*%
D35*
%TO.C,R107*%
X57760000Y-41500000D03*
X56740000Y-41500000D03*
%TD*%
D21*
%TO.C,R203*%
X41250000Y-50690000D03*
X41250000Y-51710000D03*
%TD*%
D36*
%TO.C,J502*%
X26400000Y-46800000D03*
%TD*%
D18*
%TO.C,TP12*%
X63900000Y-50300000D03*
%TD*%
D29*
%TO.C,TP4*%
X60900000Y-44050000D03*
%TD*%
D36*
%TO.C,J303*%
X29000000Y-39600000D03*
%TD*%
D62*
%TO.C,C406*%
X74250000Y-57020000D03*
X74250000Y-57980000D03*
%TD*%
D63*
%TO.C,C505*%
X63725000Y-28000000D03*
X65275000Y-28000000D03*
%TD*%
D35*
%TO.C,R209*%
X34110000Y-62400000D03*
X33090000Y-62400000D03*
%TD*%
D44*
%TO.C,R208*%
X40400000Y-35910000D03*
X40400000Y-34890000D03*
%TD*%
%TO.C,R302*%
X48100000Y-51960000D03*
X48100000Y-50940000D03*
%TD*%
D64*
%TO.C,D101*%
X53200000Y-30500000D03*
X56100000Y-30500000D03*
%TD*%
D62*
%TO.C,C502*%
X34500000Y-53670000D03*
X34500000Y-54630000D03*
%TD*%
D27*
%TO.C,R110*%
X70240000Y-42250000D03*
X71260000Y-42250000D03*
%TD*%
D65*
%TO.C,U201*%
X41250000Y-71210000D03*
X41250000Y-69940000D03*
X41250000Y-68670000D03*
X41250000Y-67400000D03*
X41250000Y-66130000D03*
X41250000Y-64860000D03*
X41250000Y-63590000D03*
X41250000Y-62320000D03*
X41250000Y-61050000D03*
X41250000Y-59780000D03*
X41250000Y-58510000D03*
X41250000Y-57240000D03*
X41250000Y-55970000D03*
X41250000Y-54700000D03*
D66*
X43015000Y-53450000D03*
X44285000Y-53450000D03*
X45555000Y-53450000D03*
X46825000Y-53450000D03*
X48095000Y-53450000D03*
X49365000Y-53450000D03*
X50635000Y-53450000D03*
X51905000Y-53450000D03*
X53175000Y-53450000D03*
X54445000Y-53450000D03*
X55715000Y-53450000D03*
X56985000Y-53450000D03*
D65*
X58750000Y-54700000D03*
X58750000Y-55970000D03*
X58750000Y-57240000D03*
X58750000Y-58510000D03*
X58750000Y-59780000D03*
X58750000Y-61050000D03*
X58750000Y-62320000D03*
X58750000Y-63590000D03*
X58750000Y-64860000D03*
X58750000Y-66130000D03*
X58750000Y-67400000D03*
X58750000Y-68670000D03*
X58750000Y-69940000D03*
X58750000Y-71210000D03*
D67*
X47100000Y-62790000D03*
X47100000Y-64190000D03*
X47800000Y-62090000D03*
X47800000Y-63490000D03*
X47800000Y-64890000D03*
X48500000Y-62790000D03*
D68*
X48500000Y-63490000D03*
D67*
X48500000Y-64190000D03*
X49200000Y-62090000D03*
X49200000Y-63490000D03*
X49200000Y-64890000D03*
X49900000Y-62790000D03*
X49900000Y-64190000D03*
%TD*%
D69*
%TO.C,L101*%
X53725000Y-36410000D03*
X52275000Y-36410000D03*
%TD*%
D70*
%TO.C,D301*%
X23900000Y-50000000D03*
X24600000Y-50000000D03*
%TD*%
%LPD*%
M02*
