0
SECTION
2
ENTITIES
0
LINE
8
CUT
10
4.900
20
26.000
11
9.100
21
26.000
0
LINE
8
CUT
10
9.100
20
26.000
11
9.100
21
21.300
0
LINE
8
CUT
10
9.100
20
21.300
11
7.700
21
19.900
0
LINE
8
CUT
10
7.700
20
19.900
11
7.700
21
0.600
0
LINE
8
CUT
10
7.700
20
0.600
11
10.600
21
-1.400
0
LINE
8
CUT
10
10.600
20
-1.400
11
10.600
21
-6.200
0
LINE
8
CUT
10
10.600
20
-6.200
11
5.400
21
-6.200
0
LINE
8
CUT
10
5.400
20
-6.200
11
5.400
21
-1.400
0
LINE
8
CUT
10
5.400
20
-1.400
11
4.900
21
-0.400
0
LINE
8
CUT
10
4.900
20
-0.400
11
4.900
21
26.000
0
CIRCLE
8
CUT
10
7.000
20
25.000
40
1.100
0
CIRCLE
8
CUT
10
7.000
20
22.800
40
1.100
0
POINT
8
DIMPLE_0.3
10
8.000
20
-3.800
0
ENDSEC
0
EOF
