%TF.GenerationSoftware,KiCad,Pcbnew,10.0.6*%
%TF.CreationDate,2026-10-05T02:41:01+02:00*%
%TF.ProjectId,MAO_MAIN_A0,4d414f5f-4d41-4494-9e5f-41302e6b6963,A0*%
%TF.SameCoordinates,Original*%
%TF.FileFunction,Drillmap*%
%TF.FilePolarity,Positive*%
%FSLAX45Y45*%
G04 Gerber Fmt 4.5, Leading zero omitted, Abs format (unit mm)*
G04 Created by KiCad (PCBNEW 10.0.6) date 2026-10-05 02:41:01*
%MOMM*%
%LPD*%
G01*
G04 APERTURE LIST*
%ADD10C,0.050000*%
%ADD11C,0.200000*%
%ADD12C,0.100000*%
G04 APERTURE END LIST*
D10*
X3800000Y-7370000D02*
G75*
G02*
X3900000Y-7270000I100000J0D01*
G01*
X3800000Y-7640076D02*
X3800000Y-7370000D01*
X3800000Y-7640076D02*
G75*
G02*
X6200000Y-7640076I1200000J2640076D01*
G01*
X6100000Y-7270000D02*
X3900000Y-7270000D01*
X6100000Y-7270000D02*
G75*
G02*
X6200000Y-7370000I0J-100000D01*
G01*
X6200000Y-7640076D02*
X6200000Y-7370000D01*
D11*
D12*
X3060000Y-5340000D02*
X3080000Y-5360000D01*
X3080000Y-5340000D02*
X3060000Y-5360000D01*
X3180000Y-4300000D02*
X3200000Y-4320000D01*
X3200000Y-4300000D02*
X3180000Y-4320000D01*
X3480000Y-6510000D02*
X3500000Y-6530000D01*
X3500000Y-6510000D02*
X3480000Y-6530000D01*
X3700000Y-6870000D02*
X3720000Y-6890000D01*
X3720000Y-6870000D02*
X3700000Y-6890000D01*
X3775000Y-3705000D02*
X3795000Y-3725000D01*
X3795000Y-3705000D02*
X3775000Y-3725000D01*
X3845000Y-3655000D02*
X3865000Y-3675000D01*
X3865000Y-3655000D02*
X3845000Y-3675000D01*
X3845000Y-3755000D02*
X3865000Y-3775000D01*
X3865000Y-3755000D02*
X3845000Y-3775000D01*
X3870000Y-6222000D02*
X3890000Y-6242000D01*
X3890000Y-6222000D02*
X3870000Y-6242000D01*
X3895000Y-5015000D02*
X3915000Y-5035000D01*
X3915000Y-5015000D02*
X3895000Y-5035000D01*
X3895000Y-5115000D02*
X3915000Y-5135000D01*
X3915000Y-5115000D02*
X3895000Y-5135000D01*
X3895000Y-5215000D02*
X3915000Y-5235000D01*
X3915000Y-5215000D02*
X3895000Y-5235000D01*
X3940000Y-6349000D02*
X3960000Y-6369000D01*
X3960000Y-6349000D02*
X3940000Y-6369000D01*
X3960000Y-5065000D02*
X3980000Y-5085000D01*
X3980000Y-5065000D02*
X3960000Y-5085000D01*
X3960000Y-5165000D02*
X3980000Y-5185000D01*
X3980000Y-5165000D02*
X3960000Y-5185000D01*
X3980000Y-6476000D02*
X4000000Y-6496000D01*
X4000000Y-6476000D02*
X3980000Y-6496000D01*
X3980000Y-6603000D02*
X4000000Y-6623000D01*
X4000000Y-6603000D02*
X3980000Y-6623000D01*
X3980000Y-6730000D02*
X4000000Y-6750000D01*
X4000000Y-6730000D02*
X3980000Y-6750000D01*
X4000000Y-3297000D02*
X4020000Y-3317000D01*
X4020000Y-3297000D02*
X4000000Y-3317000D01*
X4015000Y-3445000D02*
X4035000Y-3465000D01*
X4035000Y-3445000D02*
X4015000Y-3465000D01*
X4165000Y-3445000D02*
X4185000Y-3465000D01*
X4185000Y-3445000D02*
X4165000Y-3465000D01*
X4165000Y-5335000D02*
X4185000Y-5355000D01*
X4185000Y-5335000D02*
X4165000Y-5355000D01*
X4230000Y-5460000D02*
X4250000Y-5480000D01*
X4250000Y-5460000D02*
X4230000Y-5480000D01*
X4230000Y-5587000D02*
X4250000Y-5607000D01*
X4250000Y-5587000D02*
X4230000Y-5607000D01*
X4245000Y-3880000D02*
X4265000Y-3900000D01*
X4265000Y-3880000D02*
X4245000Y-3900000D01*
X4335000Y-2892000D02*
X4355000Y-2912000D01*
X4355000Y-2892000D02*
X4335000Y-2912000D01*
X4335000Y-3705000D02*
X4355000Y-3725000D01*
X4355000Y-3705000D02*
X4335000Y-3725000D01*
X4344000Y-3205000D02*
X4364000Y-3225000D01*
X4364000Y-3205000D02*
X4344000Y-3225000D01*
X4405000Y-3655000D02*
X4425000Y-3675000D01*
X4425000Y-3655000D02*
X4405000Y-3675000D01*
X4405000Y-3755000D02*
X4425000Y-3775000D01*
X4425000Y-3755000D02*
X4405000Y-3775000D01*
X4940000Y-3330000D02*
X4960000Y-3350000D01*
X4960000Y-3330000D02*
X4940000Y-3350000D01*
X4965000Y-2915000D02*
X4985000Y-2935000D01*
X4985000Y-2915000D02*
X4965000Y-2935000D01*
X5065000Y-2915000D02*
X5085000Y-2935000D01*
X5085000Y-2915000D02*
X5065000Y-2935000D01*
X5110000Y-3050000D02*
X5130000Y-3070000D01*
X5130000Y-3050000D02*
X5110000Y-3070000D01*
X5180500Y-5190000D02*
X5200500Y-5210000D01*
X5200500Y-5190000D02*
X5180500Y-5210000D01*
X5260000Y-5490000D02*
X5280000Y-5510000D01*
X5280000Y-5490000D02*
X5260000Y-5510000D01*
X5315000Y-3925000D02*
X5335000Y-3945000D01*
X5335000Y-3925000D02*
X5315000Y-3945000D01*
X5335000Y-5490000D02*
X5355000Y-5510000D01*
X5355000Y-5490000D02*
X5335000Y-5510000D01*
X5434500Y-5190000D02*
X5454500Y-5210000D01*
X5454500Y-5190000D02*
X5434500Y-5210000D01*
X5688500Y-5190000D02*
X5708500Y-5210000D01*
X5708500Y-5190000D02*
X5688500Y-5210000D01*
X5700000Y-4720000D02*
X5720000Y-4740000D01*
X5720000Y-4720000D02*
X5700000Y-4740000D01*
X5715000Y-3915000D02*
X5735000Y-3935000D01*
X5735000Y-3915000D02*
X5715000Y-3935000D01*
X5730000Y-4890000D02*
X5750000Y-4910000D01*
X5750000Y-4890000D02*
X5730000Y-4910000D01*
X5800000Y-4114000D02*
X5820000Y-4134000D01*
X5820000Y-4114000D02*
X5800000Y-4134000D01*
X6015000Y-5968000D02*
X6035000Y-5988000D01*
X6035000Y-5968000D02*
X6015000Y-5988000D01*
X6015000Y-6222000D02*
X6035000Y-6242000D01*
X6035000Y-6222000D02*
X6015000Y-6242000D01*
X6015000Y-6476000D02*
X6035000Y-6496000D01*
X6035000Y-6476000D02*
X6015000Y-6496000D01*
X6015000Y-6857000D02*
X6035000Y-6877000D01*
X6035000Y-6857000D02*
X6015000Y-6877000D01*
X6085000Y-6095000D02*
X6105000Y-6115000D01*
X6105000Y-6095000D02*
X6085000Y-6115000D01*
X6085000Y-6349000D02*
X6105000Y-6369000D01*
X6105000Y-6349000D02*
X6085000Y-6369000D01*
X6110000Y-5366000D02*
X6130000Y-5386000D01*
X6130000Y-5366000D02*
X6110000Y-5386000D01*
X6150000Y-3163000D02*
X6170000Y-3183000D01*
X6170000Y-3163000D02*
X6150000Y-3183000D01*
X6680000Y-6623000D02*
X6700000Y-6643000D01*
X6700000Y-6623000D02*
X6680000Y-6643000D01*
X6720000Y-3580000D02*
X6740000Y-3600000D01*
X6740000Y-3580000D02*
X6720000Y-3600000D01*
X6720000Y-3665000D02*
X6740000Y-3685000D01*
X6740000Y-3665000D02*
X6720000Y-3685000D01*
X6810000Y-6040000D02*
X6830000Y-6060000D01*
X6830000Y-6040000D02*
X6810000Y-6060000D01*
X7130000Y-6660000D02*
X7150000Y-6680000D01*
X7150000Y-6660000D02*
X7130000Y-6680000D01*
X7362000Y-6405000D02*
X7382000Y-6425000D01*
X7382000Y-6405000D02*
X7362000Y-6425000D01*
X3273500Y-5363500D02*
G75*
G02*
X3253500Y-5363500I-10000J0D01*
G01*
X3253500Y-5363500D02*
G75*
G02*
X3273500Y-5363500I10000J0D01*
G01*
X3273500Y-5436500D02*
G75*
G02*
X3253500Y-5436500I-10000J0D01*
G01*
X3253500Y-5436500D02*
G75*
G02*
X3273500Y-5436500I10000J0D01*
G01*
X3346500Y-5363500D02*
G75*
G02*
X3326500Y-5363500I-10000J0D01*
G01*
X3326500Y-5363500D02*
G75*
G02*
X3346500Y-5363500I10000J0D01*
G01*
X3346500Y-5436500D02*
G75*
G02*
X3326500Y-5436500I-10000J0D01*
G01*
X3326500Y-5436500D02*
G75*
G02*
X3346500Y-5436500I10000J0D01*
G01*
X4062500Y-3642500D02*
G75*
G02*
X4042500Y-3642500I-10000J0D01*
G01*
X4042500Y-3642500D02*
G75*
G02*
X4062500Y-3642500I10000J0D01*
G01*
X4062500Y-3737500D02*
G75*
G02*
X4042500Y-3737500I-10000J0D01*
G01*
X4042500Y-3737500D02*
G75*
G02*
X4062500Y-3737500I10000J0D01*
G01*
X4157500Y-3642500D02*
G75*
G02*
X4137500Y-3642500I-10000J0D01*
G01*
X4137500Y-3642500D02*
G75*
G02*
X4157500Y-3642500I10000J0D01*
G01*
X4157500Y-3737500D02*
G75*
G02*
X4137500Y-3737500I-10000J0D01*
G01*
X4137500Y-3737500D02*
G75*
G02*
X4157500Y-3737500I10000J0D01*
G01*
X4720000Y-6279000D02*
G75*
G02*
X4700000Y-6279000I-10000J0D01*
G01*
X4700000Y-6279000D02*
G75*
G02*
X4720000Y-6279000I10000J0D01*
G01*
X4720000Y-6419000D02*
G75*
G02*
X4700000Y-6419000I-10000J0D01*
G01*
X4700000Y-6419000D02*
G75*
G02*
X4720000Y-6419000I10000J0D01*
G01*
X4790000Y-6209000D02*
G75*
G02*
X4770000Y-6209000I-10000J0D01*
G01*
X4770000Y-6209000D02*
G75*
G02*
X4790000Y-6209000I10000J0D01*
G01*
X4790000Y-6349000D02*
G75*
G02*
X4770000Y-6349000I-10000J0D01*
G01*
X4770000Y-6349000D02*
G75*
G02*
X4790000Y-6349000I10000J0D01*
G01*
X4790000Y-6489000D02*
G75*
G02*
X4770000Y-6489000I-10000J0D01*
G01*
X4770000Y-6489000D02*
G75*
G02*
X4790000Y-6489000I10000J0D01*
G01*
X4860000Y-6279000D02*
G75*
G02*
X4840000Y-6279000I-10000J0D01*
G01*
X4840000Y-6279000D02*
G75*
G02*
X4860000Y-6279000I10000J0D01*
G01*
X4860000Y-6419000D02*
G75*
G02*
X4840000Y-6419000I-10000J0D01*
G01*
X4840000Y-6419000D02*
G75*
G02*
X4860000Y-6419000I10000J0D01*
G01*
X4930000Y-6209000D02*
G75*
G02*
X4910000Y-6209000I-10000J0D01*
G01*
X4910000Y-6209000D02*
G75*
G02*
X4930000Y-6209000I10000J0D01*
G01*
X4930000Y-6349000D02*
G75*
G02*
X4910000Y-6349000I-10000J0D01*
G01*
X4910000Y-6349000D02*
G75*
G02*
X4930000Y-6349000I10000J0D01*
G01*
X4930000Y-6489000D02*
G75*
G02*
X4910000Y-6489000I-10000J0D01*
G01*
X4910000Y-6489000D02*
G75*
G02*
X4930000Y-6489000I10000J0D01*
G01*
X5000000Y-6279000D02*
G75*
G02*
X4980000Y-6279000I-10000J0D01*
G01*
X4980000Y-6279000D02*
G75*
G02*
X5000000Y-6279000I10000J0D01*
G01*
X5000000Y-6419000D02*
G75*
G02*
X4980000Y-6419000I-10000J0D01*
G01*
X4980000Y-6419000D02*
G75*
G02*
X5000000Y-6419000I10000J0D01*
G01*
X5892000Y-3763500D02*
G75*
G02*
X5872000Y-3763500I-10000J0D01*
G01*
X5872000Y-3763500D02*
G75*
G02*
X5892000Y-3763500I10000J0D01*
G01*
X5892000Y-3881500D02*
G75*
G02*
X5872000Y-3881500I-10000J0D01*
G01*
X5872000Y-3881500D02*
G75*
G02*
X5892000Y-3881500I10000J0D01*
G01*
X6010000Y-3763500D02*
G75*
G02*
X5990000Y-3763500I-10000J0D01*
G01*
X5990000Y-3763500D02*
G75*
G02*
X6010000Y-3763500I10000J0D01*
G01*
X6010000Y-3881500D02*
G75*
G02*
X5990000Y-3881500I-10000J0D01*
G01*
X5990000Y-3881500D02*
G75*
G02*
X6010000Y-3881500I10000J0D01*
G01*
X2720200Y-5865200D02*
X2720200Y-5895200D01*
X2705200Y-5880200D02*
X2735200Y-5880200D01*
X2800000Y-5027500D02*
X2800000Y-5057500D01*
X2785000Y-5042500D02*
X2815000Y-5042500D01*
X3024568Y-5396569D02*
X3024568Y-5426569D01*
X3009568Y-5411569D02*
X3039568Y-5411569D01*
X3040000Y-5007000D02*
X3040000Y-5037000D01*
X3025000Y-5022000D02*
X3055000Y-5022000D01*
X3220000Y-4105000D02*
X3220000Y-4135000D01*
X3205000Y-4120000D02*
X3235000Y-4120000D01*
X3285000Y-3721300D02*
X3285000Y-3751300D01*
X3270000Y-3736300D02*
X3300000Y-3736300D01*
X3300000Y-5875000D02*
X3300000Y-5905000D01*
X3285000Y-5890000D02*
X3315000Y-5890000D01*
X3315000Y-5661700D02*
X3315000Y-5691700D01*
X3300000Y-5676700D02*
X3330000Y-5676700D01*
X3350000Y-5735000D02*
X3350000Y-5765000D01*
X3335000Y-5750000D02*
X3365000Y-5750000D01*
X3355000Y-6365000D02*
X3355000Y-6395000D01*
X3340000Y-6380000D02*
X3370000Y-6380000D01*
X3366300Y-3832000D02*
X3366300Y-3862000D01*
X3351300Y-3847000D02*
X3381300Y-3847000D01*
X3390000Y-4885000D02*
X3390000Y-4915000D01*
X3375000Y-4900000D02*
X3405000Y-4900000D01*
X3406250Y-4245000D02*
X3406250Y-4275000D01*
X3391250Y-4260000D02*
X3421250Y-4260000D01*
X3406250Y-4340000D02*
X3406250Y-4370000D01*
X3391250Y-4355000D02*
X3421250Y-4355000D01*
X3425000Y-5985000D02*
X3425000Y-6015000D01*
X3410000Y-6000000D02*
X3440000Y-6000000D01*
X3450000Y-4460000D02*
X3450000Y-4490000D01*
X3435000Y-4475000D02*
X3465000Y-4475000D01*
X3470000Y-5877000D02*
X3470000Y-5907000D01*
X3455000Y-5892000D02*
X3485000Y-5892000D01*
X3482500Y-7000000D02*
X3482500Y-7030000D01*
X3467500Y-7015000D02*
X3497500Y-7015000D01*
X3490000Y-6070000D02*
X3490000Y-6100000D01*
X3475000Y-6085000D02*
X3505000Y-6085000D01*
X3526300Y-3808000D02*
X3526300Y-3838000D01*
X3511300Y-3823000D02*
X3541300Y-3823000D01*
X3530000Y-4970000D02*
X3530000Y-5000000D01*
X3515000Y-4985000D02*
X3545000Y-4985000D01*
X3550000Y-5610000D02*
X3550000Y-5640000D01*
X3535000Y-5625000D02*
X3565000Y-5625000D01*
X3605000Y-3921300D02*
X3605000Y-3951300D01*
X3590000Y-3936300D02*
X3620000Y-3936300D01*
X3610000Y-4760000D02*
X3610000Y-4790000D01*
X3595000Y-4775000D02*
X3625000Y-4775000D01*
X3616300Y-3454000D02*
X3616300Y-3484000D01*
X3601300Y-3469000D02*
X3631300Y-3469000D01*
X3620000Y-4080000D02*
X3620000Y-4110000D01*
X3605000Y-4095000D02*
X3635000Y-4095000D01*
X3625900Y-2752700D02*
X3625900Y-2782700D01*
X3610900Y-2767700D02*
X3640900Y-2767700D01*
X3651000Y-3329000D02*
X3651000Y-3359000D01*
X3636000Y-3344000D02*
X3666000Y-3344000D01*
X3700000Y-4960000D02*
X3700000Y-4990000D01*
X3685000Y-4975000D02*
X3715000Y-4975000D01*
X3710000Y-5260000D02*
X3710000Y-5290000D01*
X3695000Y-5275000D02*
X3725000Y-5275000D01*
X3720000Y-6767000D02*
X3720000Y-6797000D01*
X3705000Y-6782000D02*
X3735000Y-6782000D01*
X3754000Y-3842000D02*
X3754000Y-3872000D01*
X3739000Y-3857000D02*
X3769000Y-3857000D01*
X3755000Y-2775000D02*
X3755000Y-2805000D01*
X3740000Y-2790000D02*
X3770000Y-2790000D01*
X3760000Y-7085000D02*
X3760000Y-7115000D01*
X3745000Y-7100000D02*
X3775000Y-7100000D01*
X3783428Y-3188315D02*
X3783428Y-3218315D01*
X3768428Y-3203315D02*
X3798428Y-3203315D01*
X3800000Y-5510000D02*
X3800000Y-5540000D01*
X3785000Y-5525000D02*
X3815000Y-5525000D01*
X3825871Y-3037680D02*
X3825871Y-3067680D01*
X3810871Y-3052680D02*
X3840871Y-3052680D01*
X3896976Y-3001005D02*
X3896976Y-3031005D01*
X3881976Y-3016005D02*
X3911976Y-3016005D01*
X3900986Y-3338951D02*
X3900986Y-3368951D01*
X3885986Y-3353951D02*
X3915986Y-3353951D01*
X3905000Y-5655000D02*
X3905000Y-5685000D01*
X3890000Y-5670000D02*
X3920000Y-5670000D01*
X3935000Y-3965000D02*
X3935000Y-3995000D01*
X3920000Y-3980000D02*
X3950000Y-3980000D01*
X4030000Y-4169000D02*
X4030000Y-4199000D01*
X4015000Y-4184000D02*
X4045000Y-4184000D01*
X4050000Y-5354000D02*
X4050000Y-5384000D01*
X4035000Y-5369000D02*
X4065000Y-5369000D01*
X4076250Y-4530000D02*
X4076250Y-4560000D01*
X4061250Y-4545000D02*
X4091250Y-4545000D01*
X4095000Y-4355000D02*
X4095000Y-4385000D01*
X4080000Y-4370000D02*
X4110000Y-4370000D01*
X4155000Y-4210000D02*
X4155000Y-4240000D01*
X4140000Y-4225000D02*
X4170000Y-4225000D01*
X4180000Y-4705000D02*
X4180000Y-4735000D01*
X4165000Y-4720000D02*
X4195000Y-4720000D01*
X4210000Y-3965000D02*
X4210000Y-3995000D01*
X4195000Y-3980000D02*
X4225000Y-3980000D01*
X4225972Y-3038084D02*
X4225972Y-3068084D01*
X4210972Y-3053084D02*
X4240972Y-3053084D01*
X4240000Y-2465000D02*
X4240000Y-2495000D01*
X4225000Y-2480000D02*
X4255000Y-2480000D01*
X4380000Y-4880000D02*
X4380000Y-4910000D01*
X4365000Y-4895000D02*
X4395000Y-4895000D01*
X4456000Y-3353000D02*
X4456000Y-3383000D01*
X4441000Y-3368000D02*
X4471000Y-3368000D01*
X4500000Y-4145000D02*
X4500000Y-4175000D01*
X4485000Y-4160000D02*
X4515000Y-4160000D01*
X4527550Y-3967550D02*
X4527550Y-3997550D01*
X4512550Y-3982550D02*
X4542550Y-3982550D01*
X4562000Y-3530000D02*
X4562000Y-3560000D01*
X4547000Y-3545000D02*
X4577000Y-3545000D01*
X4630000Y-3820000D02*
X4630000Y-3850000D01*
X4615000Y-3835000D02*
X4645000Y-3835000D01*
X4755000Y-2930000D02*
X4755000Y-2960000D01*
X4740000Y-2945000D02*
X4770000Y-2945000D01*
X4770000Y-3700000D02*
X4770000Y-3730000D01*
X4755000Y-3715000D02*
X4785000Y-3715000D01*
X4800000Y-4445000D02*
X4800000Y-4475000D01*
X4785000Y-4460000D02*
X4815000Y-4460000D01*
X4820000Y-3635000D02*
X4820000Y-3665000D01*
X4805000Y-3650000D02*
X4835000Y-3650000D01*
X4889000Y-3720000D02*
X4889000Y-3750000D01*
X4874000Y-3735000D02*
X4904000Y-3735000D01*
X4965000Y-3685000D02*
X4965000Y-3715000D01*
X4950000Y-3700000D02*
X4980000Y-3700000D01*
X4966000Y-4040000D02*
X4966000Y-4070000D01*
X4951000Y-4055000D02*
X4981000Y-4055000D01*
X4980000Y-5495000D02*
X4980000Y-5525000D01*
X4965000Y-5510000D02*
X4995000Y-5510000D01*
X5043000Y-3720000D02*
X5043000Y-3750000D01*
X5028000Y-3735000D02*
X5058000Y-3735000D01*
X5050000Y-4485000D02*
X5050000Y-4515000D01*
X5035000Y-4500000D02*
X5065000Y-4500000D01*
X5082000Y-5910000D02*
X5082000Y-5940000D01*
X5067000Y-5925000D02*
X5097000Y-5925000D01*
X5110000Y-5610000D02*
X5110000Y-5640000D01*
X5095000Y-5625000D02*
X5125000Y-5625000D01*
X5140000Y-4276000D02*
X5140000Y-4306000D01*
X5125000Y-4291000D02*
X5155000Y-4291000D01*
X5250000Y-4276000D02*
X5250000Y-4306000D01*
X5235000Y-4291000D02*
X5265000Y-4291000D01*
X5352000Y-5910000D02*
X5352000Y-5940000D01*
X5337000Y-5925000D02*
X5367000Y-5925000D01*
X5445000Y-4795000D02*
X5445000Y-4825000D01*
X5430000Y-4810000D02*
X5460000Y-4810000D01*
X5450000Y-3235000D02*
X5450000Y-3265000D01*
X5435000Y-3250000D02*
X5465000Y-3250000D01*
X5460000Y-4920000D02*
X5460000Y-4950000D01*
X5445000Y-4935000D02*
X5475000Y-4935000D01*
X5510000Y-4265000D02*
X5510000Y-4295000D01*
X5495000Y-4280000D02*
X5525000Y-4280000D01*
X5620000Y-5910000D02*
X5620000Y-5940000D01*
X5605000Y-5925000D02*
X5635000Y-5925000D01*
X5640000Y-3435000D02*
X5640000Y-3465000D01*
X5625000Y-3450000D02*
X5655000Y-3450000D01*
X5640000Y-3962500D02*
X5640000Y-3992500D01*
X5625000Y-3977500D02*
X5655000Y-3977500D01*
X5660000Y-3675000D02*
X5660000Y-3705000D01*
X5645000Y-3690000D02*
X5675000Y-3690000D01*
X5663000Y-2755000D02*
X5663000Y-2785000D01*
X5648000Y-2770000D02*
X5678000Y-2770000D01*
X5679000Y-3807500D02*
X5679000Y-3837500D01*
X5664000Y-3822500D02*
X5694000Y-3822500D01*
X5710000Y-3035000D02*
X5710000Y-3065000D01*
X5695000Y-3050000D02*
X5725000Y-3050000D01*
X5710000Y-3110000D02*
X5710000Y-3140000D01*
X5695000Y-3125000D02*
X5725000Y-3125000D01*
X5720000Y-4415000D02*
X5720000Y-4445000D01*
X5705000Y-4430000D02*
X5735000Y-4430000D01*
X5730000Y-2835000D02*
X5730000Y-2865000D01*
X5715000Y-2850000D02*
X5745000Y-2850000D01*
X5780000Y-3160000D02*
X5780000Y-3190000D01*
X5765000Y-3175000D02*
X5795000Y-3175000D01*
X5811900Y-2765200D02*
X5811900Y-2795200D01*
X5796900Y-2780200D02*
X5826900Y-2780200D01*
X5825000Y-5360000D02*
X5825000Y-5390000D01*
X5810000Y-5375000D02*
X5840000Y-5375000D01*
X5831420Y-3068600D02*
X5831420Y-3098600D01*
X5816420Y-3083600D02*
X5846420Y-3083600D01*
X5880000Y-4540000D02*
X5880000Y-4570000D01*
X5865000Y-4555000D02*
X5895000Y-4555000D01*
X5903376Y-3205124D02*
X5903376Y-3235124D01*
X5888376Y-3220124D02*
X5918376Y-3220124D01*
X5941936Y-2931209D02*
X5941936Y-2961209D01*
X5926936Y-2946209D02*
X5956936Y-2946209D01*
X5950000Y-4845000D02*
X5950000Y-4875000D01*
X5935000Y-4860000D02*
X5965000Y-4860000D01*
X5960000Y-2625000D02*
X5960000Y-2655000D01*
X5945000Y-2640000D02*
X5975000Y-2640000D01*
X5962000Y-3410000D02*
X5962000Y-3440000D01*
X5947000Y-3425000D02*
X5977000Y-3425000D01*
X6025000Y-4064000D02*
X6025000Y-4094000D01*
X6010000Y-4079000D02*
X6040000Y-4079000D01*
X6040000Y-2835000D02*
X6040000Y-2865000D01*
X6025000Y-2850000D02*
X6055000Y-2850000D01*
X6040000Y-5169000D02*
X6040000Y-5199000D01*
X6025000Y-5184000D02*
X6055000Y-5184000D01*
X6165000Y-5635000D02*
X6165000Y-5665000D01*
X6150000Y-5650000D02*
X6180000Y-5650000D01*
X6189000Y-3385000D02*
X6189000Y-3415000D01*
X6174000Y-3400000D02*
X6204000Y-3400000D01*
X6195000Y-3687500D02*
X6195000Y-3717500D01*
X6180000Y-3702500D02*
X6210000Y-3702500D01*
X6200000Y-3055000D02*
X6200000Y-3085000D01*
X6185000Y-3070000D02*
X6215000Y-3070000D01*
X6215000Y-2766700D02*
X6215000Y-2796700D01*
X6200000Y-2781700D02*
X6230000Y-2781700D01*
X6215000Y-3230000D02*
X6215000Y-3260000D01*
X6200000Y-3245000D02*
X6230000Y-3245000D01*
X6235000Y-4040000D02*
X6235000Y-4070000D01*
X6220000Y-4055000D02*
X6250000Y-4055000D01*
X6260000Y-5277000D02*
X6260000Y-5307000D01*
X6245000Y-5292000D02*
X6275000Y-5292000D01*
X6283767Y-5466643D02*
X6283767Y-5496643D01*
X6268767Y-5481643D02*
X6298767Y-5481643D01*
X6295000Y-2895000D02*
X6295000Y-2925000D01*
X6280000Y-2910000D02*
X6310000Y-2910000D01*
X6306000Y-3671000D02*
X6306000Y-3701000D01*
X6291000Y-3686000D02*
X6321000Y-3686000D01*
X6360000Y-6872000D02*
X6360000Y-6902000D01*
X6345000Y-6887000D02*
X6375000Y-6887000D01*
X6455000Y-5895000D02*
X6455000Y-5925000D01*
X6440000Y-5910000D02*
X6470000Y-5910000D01*
X6479000Y-3225000D02*
X6479000Y-3255000D01*
X6464000Y-3240000D02*
X6494000Y-3240000D01*
X6504890Y-3426360D02*
X6504890Y-3456360D01*
X6489890Y-3441360D02*
X6519890Y-3441360D01*
X6504890Y-3703640D02*
X6504890Y-3733640D01*
X6489890Y-3718640D02*
X6519890Y-3718640D01*
X6665000Y-5545000D02*
X6665000Y-5575000D01*
X6650000Y-5560000D02*
X6680000Y-5560000D01*
X6665000Y-5630000D02*
X6665000Y-5660000D01*
X6650000Y-5645000D02*
X6680000Y-5645000D01*
X6690000Y-6745000D02*
X6690000Y-6775000D01*
X6675000Y-6760000D02*
X6705000Y-6760000D01*
X6715000Y-7055000D02*
X6715000Y-7085000D01*
X6700000Y-7070000D02*
X6730000Y-7070000D01*
X6735000Y-6010000D02*
X6735000Y-6040000D01*
X6720000Y-6025000D02*
X6750000Y-6025000D01*
X6751009Y-5614648D02*
X6751009Y-5644648D01*
X6736009Y-5629648D02*
X6766009Y-5629648D01*
X6880000Y-6866700D02*
X6880000Y-6896700D01*
X6865000Y-6881700D02*
X6895000Y-6881700D01*
X6915100Y-6736200D02*
X6915100Y-6766200D01*
X6900100Y-6751200D02*
X6930100Y-6751200D01*
X6936289Y-5424289D02*
X6936289Y-5454289D01*
X6921289Y-5439289D02*
X6951289Y-5439289D01*
X6970000Y-4285000D02*
X6970000Y-4315000D01*
X6955000Y-4300000D02*
X6985000Y-4300000D01*
X7026000Y-4565000D02*
X7026000Y-4595000D01*
X7011000Y-4580000D02*
X7041000Y-4580000D01*
X7107200Y-6097100D02*
X7107200Y-6127100D01*
X7092200Y-6112100D02*
X7122200Y-6112100D01*
X7120000Y-4413500D02*
X7120000Y-4443500D01*
X7105000Y-4428500D02*
X7135000Y-4428500D01*
X7207000Y-6371000D02*
X7207000Y-6401000D01*
X7192000Y-6386000D02*
X7222000Y-6386000D01*
X7215418Y-6019318D02*
X7215418Y-6049318D01*
X7200418Y-6034318D02*
X7230418Y-6034318D01*
X7234740Y-6672560D02*
X7234740Y-6702560D01*
X7219740Y-6687560D02*
X7249740Y-6687560D01*
X7245760Y-5740160D02*
X7245760Y-5770160D01*
X7230760Y-5755160D02*
X7260760Y-5755160D01*
X7267000Y-4540000D02*
X7267000Y-4570000D01*
X7252000Y-4555000D02*
X7282000Y-4555000D01*
X7267000Y-5145000D02*
X7267000Y-5175000D01*
X7252000Y-5160000D02*
X7282000Y-5160000D01*
X7279800Y-4104800D02*
X7279800Y-4134800D01*
X7264800Y-4119800D02*
X7294800Y-4119800D01*
X7285093Y-6556228D02*
X7285093Y-6586228D01*
X7270093Y-6571228D02*
X7300093Y-6571228D01*
X7330000Y-5515000D02*
X7330000Y-5545000D01*
X7315000Y-5530000D02*
X7345000Y-5530000D01*
X7437217Y-6317099D02*
X7437217Y-6347099D01*
X7422217Y-6332099D02*
X7452217Y-6332099D01*
X2460851Y-3980439D02*
X2460851Y-3959225D01*
X2439638Y-3959225D01*
X2439638Y-3980439D01*
X2460851Y-3980439D01*
X2460851Y-6040775D02*
X2460851Y-6019561D01*
X2439638Y-6019561D01*
X2439638Y-6040775D01*
X2460851Y-6040775D01*
X7560362Y-3980439D02*
X7560362Y-3959225D01*
X7539149Y-3959225D01*
X7539149Y-3980439D01*
X7560362Y-3980439D01*
X7560362Y-6040775D02*
X7560362Y-6019561D01*
X7539149Y-6019561D01*
X7539149Y-6040775D01*
X7560362Y-6040775D01*
X4568000Y-2330000D02*
X4598000Y-2300000D01*
X4568000Y-2270000D01*
X4538000Y-2300000D01*
X4568000Y-2330000D01*
X4538000Y-2270000D02*
X4538000Y-2330000D01*
X4598000Y-2330000D02*
G75*
G02*
X4538000Y-2330000I-30000J0D01*
G01*
X4598000Y-2330000D02*
X4598000Y-2270000D01*
X4598000Y-2270000D02*
G75*
G03*
X4538000Y-2270000I-30000J0D01*
G01*
X4568000Y-2748000D02*
X4598000Y-2718000D01*
X4568000Y-2688000D01*
X4538000Y-2718000D01*
X4568000Y-2748000D01*
X4538000Y-2663000D02*
X4538000Y-2773000D01*
X4598000Y-2773000D02*
G75*
G02*
X4538000Y-2773000I-30000J0D01*
G01*
X4598000Y-2773000D02*
X4598000Y-2663000D01*
X4598000Y-2663000D02*
G75*
G03*
X4538000Y-2663000I-30000J0D01*
G01*
X5432000Y-2330000D02*
X5462000Y-2300000D01*
X5432000Y-2270000D01*
X5402000Y-2300000D01*
X5432000Y-2330000D01*
X5402000Y-2270000D02*
X5402000Y-2330000D01*
X5462000Y-2330000D02*
G75*
G02*
X5402000Y-2330000I-30000J0D01*
G01*
X5462000Y-2330000D02*
X5462000Y-2270000D01*
X5462000Y-2270000D02*
G75*
G03*
X5402000Y-2270000I-30000J0D01*
G01*
X5432000Y-2748000D02*
X5462000Y-2718000D01*
X5432000Y-2688000D01*
X5402000Y-2718000D01*
X5432000Y-2748000D01*
X5402000Y-2663000D02*
X5402000Y-2773000D01*
X5462000Y-2773000D02*
G75*
G02*
X5402000Y-2773000I-30000J0D01*
G01*
X5462000Y-2773000D02*
X5462000Y-2663000D01*
X5462000Y-2663000D02*
G75*
G03*
X5402000Y-2663000I-30000J0D01*
G01*
D11*
X2358277Y-7954060D02*
X2358277Y-7754060D01*
X2358277Y-7754060D02*
X2405896Y-7754060D01*
X2405896Y-7754060D02*
X2434467Y-7763583D01*
X2434467Y-7763583D02*
X2453515Y-7782631D01*
X2453515Y-7782631D02*
X2463039Y-7801679D01*
X2463039Y-7801679D02*
X2472563Y-7839774D01*
X2472563Y-7839774D02*
X2472563Y-7868345D01*
X2472563Y-7868345D02*
X2463039Y-7906440D01*
X2463039Y-7906440D02*
X2453515Y-7925488D01*
X2453515Y-7925488D02*
X2434467Y-7944536D01*
X2434467Y-7944536D02*
X2405896Y-7954060D01*
X2405896Y-7954060D02*
X2358277Y-7954060D01*
X2558277Y-7954060D02*
X2558277Y-7820726D01*
X2558277Y-7858821D02*
X2567801Y-7839774D01*
X2567801Y-7839774D02*
X2577324Y-7830250D01*
X2577324Y-7830250D02*
X2596372Y-7820726D01*
X2596372Y-7820726D02*
X2615420Y-7820726D01*
X2682086Y-7954060D02*
X2682086Y-7820726D01*
X2682086Y-7754060D02*
X2672563Y-7763583D01*
X2672563Y-7763583D02*
X2682086Y-7773107D01*
X2682086Y-7773107D02*
X2691610Y-7763583D01*
X2691610Y-7763583D02*
X2682086Y-7754060D01*
X2682086Y-7754060D02*
X2682086Y-7773107D01*
X2805896Y-7954060D02*
X2786848Y-7944536D01*
X2786848Y-7944536D02*
X2777324Y-7925488D01*
X2777324Y-7925488D02*
X2777324Y-7754060D01*
X2910658Y-7954060D02*
X2891610Y-7944536D01*
X2891610Y-7944536D02*
X2882086Y-7925488D01*
X2882086Y-7925488D02*
X2882086Y-7754060D01*
X3139229Y-7954060D02*
X3139229Y-7754060D01*
X3139229Y-7754060D02*
X3205896Y-7896917D01*
X3205896Y-7896917D02*
X3272562Y-7754060D01*
X3272562Y-7754060D02*
X3272562Y-7954060D01*
X3453515Y-7954060D02*
X3453515Y-7849298D01*
X3453515Y-7849298D02*
X3443991Y-7830250D01*
X3443991Y-7830250D02*
X3424943Y-7820726D01*
X3424943Y-7820726D02*
X3386848Y-7820726D01*
X3386848Y-7820726D02*
X3367801Y-7830250D01*
X3453515Y-7944536D02*
X3434467Y-7954060D01*
X3434467Y-7954060D02*
X3386848Y-7954060D01*
X3386848Y-7954060D02*
X3367801Y-7944536D01*
X3367801Y-7944536D02*
X3358277Y-7925488D01*
X3358277Y-7925488D02*
X3358277Y-7906440D01*
X3358277Y-7906440D02*
X3367801Y-7887393D01*
X3367801Y-7887393D02*
X3386848Y-7877869D01*
X3386848Y-7877869D02*
X3434467Y-7877869D01*
X3434467Y-7877869D02*
X3453515Y-7868345D01*
X3548753Y-7820726D02*
X3548753Y-8020726D01*
X3548753Y-7830250D02*
X3567801Y-7820726D01*
X3567801Y-7820726D02*
X3605896Y-7820726D01*
X3605896Y-7820726D02*
X3624943Y-7830250D01*
X3624943Y-7830250D02*
X3634467Y-7839774D01*
X3634467Y-7839774D02*
X3643991Y-7858821D01*
X3643991Y-7858821D02*
X3643991Y-7915964D01*
X3643991Y-7915964D02*
X3634467Y-7935012D01*
X3634467Y-7935012D02*
X3624943Y-7944536D01*
X3624943Y-7944536D02*
X3605896Y-7954060D01*
X3605896Y-7954060D02*
X3567801Y-7954060D01*
X3567801Y-7954060D02*
X3548753Y-7944536D01*
X3729705Y-7935012D02*
X3739229Y-7944536D01*
X3739229Y-7944536D02*
X3729705Y-7954060D01*
X3729705Y-7954060D02*
X3720182Y-7944536D01*
X3720182Y-7944536D02*
X3729705Y-7935012D01*
X3729705Y-7935012D02*
X3729705Y-7954060D01*
X3729705Y-7830250D02*
X3739229Y-7839774D01*
X3739229Y-7839774D02*
X3729705Y-7849298D01*
X3729705Y-7849298D02*
X3720182Y-7839774D01*
X3720182Y-7839774D02*
X3729705Y-7830250D01*
X3729705Y-7830250D02*
X3729705Y-7849298D01*
D12*
X2077500Y-8272576D02*
X2097500Y-8292576D01*
X2097500Y-8272576D02*
X2077500Y-8292576D01*
D11*
X2396372Y-8174060D02*
X2415420Y-8174060D01*
X2415420Y-8174060D02*
X2434467Y-8183583D01*
X2434467Y-8183583D02*
X2443991Y-8193107D01*
X2443991Y-8193107D02*
X2453515Y-8212155D01*
X2453515Y-8212155D02*
X2463039Y-8250250D01*
X2463039Y-8250250D02*
X2463039Y-8297869D01*
X2463039Y-8297869D02*
X2453515Y-8335964D01*
X2453515Y-8335964D02*
X2443991Y-8355012D01*
X2443991Y-8355012D02*
X2434467Y-8364536D01*
X2434467Y-8364536D02*
X2415420Y-8374060D01*
X2415420Y-8374060D02*
X2396372Y-8374060D01*
X2396372Y-8374060D02*
X2377324Y-8364536D01*
X2377324Y-8364536D02*
X2367801Y-8355012D01*
X2367801Y-8355012D02*
X2358277Y-8335964D01*
X2358277Y-8335964D02*
X2348753Y-8297869D01*
X2348753Y-8297869D02*
X2348753Y-8250250D01*
X2348753Y-8250250D02*
X2358277Y-8212155D01*
X2358277Y-8212155D02*
X2367801Y-8193107D01*
X2367801Y-8193107D02*
X2377324Y-8183583D01*
X2377324Y-8183583D02*
X2396372Y-8174060D01*
X2548753Y-8355012D02*
X2558277Y-8364536D01*
X2558277Y-8364536D02*
X2548753Y-8374060D01*
X2548753Y-8374060D02*
X2539229Y-8364536D01*
X2539229Y-8364536D02*
X2548753Y-8355012D01*
X2548753Y-8355012D02*
X2548753Y-8374060D01*
X2634467Y-8193107D02*
X2643991Y-8183583D01*
X2643991Y-8183583D02*
X2663039Y-8174060D01*
X2663039Y-8174060D02*
X2710658Y-8174060D01*
X2710658Y-8174060D02*
X2729705Y-8183583D01*
X2729705Y-8183583D02*
X2739229Y-8193107D01*
X2739229Y-8193107D02*
X2748753Y-8212155D01*
X2748753Y-8212155D02*
X2748753Y-8231202D01*
X2748753Y-8231202D02*
X2739229Y-8259774D01*
X2739229Y-8259774D02*
X2624944Y-8374060D01*
X2624944Y-8374060D02*
X2748753Y-8374060D01*
X2872562Y-8174060D02*
X2891610Y-8174060D01*
X2891610Y-8174060D02*
X2910658Y-8183583D01*
X2910658Y-8183583D02*
X2920182Y-8193107D01*
X2920182Y-8193107D02*
X2929705Y-8212155D01*
X2929705Y-8212155D02*
X2939229Y-8250250D01*
X2939229Y-8250250D02*
X2939229Y-8297869D01*
X2939229Y-8297869D02*
X2929705Y-8335964D01*
X2929705Y-8335964D02*
X2920182Y-8355012D01*
X2920182Y-8355012D02*
X2910658Y-8364536D01*
X2910658Y-8364536D02*
X2891610Y-8374060D01*
X2891610Y-8374060D02*
X2872562Y-8374060D01*
X2872562Y-8374060D02*
X2853515Y-8364536D01*
X2853515Y-8364536D02*
X2843991Y-8355012D01*
X2843991Y-8355012D02*
X2834467Y-8335964D01*
X2834467Y-8335964D02*
X2824943Y-8297869D01*
X2824943Y-8297869D02*
X2824943Y-8250250D01*
X2824943Y-8250250D02*
X2834467Y-8212155D01*
X2834467Y-8212155D02*
X2843991Y-8193107D01*
X2843991Y-8193107D02*
X2853515Y-8183583D01*
X2853515Y-8183583D02*
X2872562Y-8174060D01*
X3063039Y-8174060D02*
X3082086Y-8174060D01*
X3082086Y-8174060D02*
X3101134Y-8183583D01*
X3101134Y-8183583D02*
X3110658Y-8193107D01*
X3110658Y-8193107D02*
X3120182Y-8212155D01*
X3120182Y-8212155D02*
X3129705Y-8250250D01*
X3129705Y-8250250D02*
X3129705Y-8297869D01*
X3129705Y-8297869D02*
X3120182Y-8335964D01*
X3120182Y-8335964D02*
X3110658Y-8355012D01*
X3110658Y-8355012D02*
X3101134Y-8364536D01*
X3101134Y-8364536D02*
X3082086Y-8374060D01*
X3082086Y-8374060D02*
X3063039Y-8374060D01*
X3063039Y-8374060D02*
X3043991Y-8364536D01*
X3043991Y-8364536D02*
X3034467Y-8355012D01*
X3034467Y-8355012D02*
X3024943Y-8335964D01*
X3024943Y-8335964D02*
X3015420Y-8297869D01*
X3015420Y-8297869D02*
X3015420Y-8250250D01*
X3015420Y-8250250D02*
X3024943Y-8212155D01*
X3024943Y-8212155D02*
X3034467Y-8193107D01*
X3034467Y-8193107D02*
X3043991Y-8183583D01*
X3043991Y-8183583D02*
X3063039Y-8174060D01*
X3215420Y-8374060D02*
X3215420Y-8240726D01*
X3215420Y-8259774D02*
X3224943Y-8250250D01*
X3224943Y-8250250D02*
X3243991Y-8240726D01*
X3243991Y-8240726D02*
X3272563Y-8240726D01*
X3272563Y-8240726D02*
X3291610Y-8250250D01*
X3291610Y-8250250D02*
X3301134Y-8269298D01*
X3301134Y-8269298D02*
X3301134Y-8374060D01*
X3301134Y-8269298D02*
X3310658Y-8250250D01*
X3310658Y-8250250D02*
X3329705Y-8240726D01*
X3329705Y-8240726D02*
X3358277Y-8240726D01*
X3358277Y-8240726D02*
X3377324Y-8250250D01*
X3377324Y-8250250D02*
X3386848Y-8269298D01*
X3386848Y-8269298D02*
X3386848Y-8374060D01*
X3482086Y-8374060D02*
X3482086Y-8240726D01*
X3482086Y-8259774D02*
X3491610Y-8250250D01*
X3491610Y-8250250D02*
X3510658Y-8240726D01*
X3510658Y-8240726D02*
X3539229Y-8240726D01*
X3539229Y-8240726D02*
X3558277Y-8250250D01*
X3558277Y-8250250D02*
X3567801Y-8269298D01*
X3567801Y-8269298D02*
X3567801Y-8374060D01*
X3567801Y-8269298D02*
X3577324Y-8250250D01*
X3577324Y-8250250D02*
X3596372Y-8240726D01*
X3596372Y-8240726D02*
X3624943Y-8240726D01*
X3624943Y-8240726D02*
X3643991Y-8250250D01*
X3643991Y-8250250D02*
X3653515Y-8269298D01*
X3653515Y-8269298D02*
X3653515Y-8374060D01*
X4043991Y-8164536D02*
X3872563Y-8421679D01*
X4301134Y-8174060D02*
X4320182Y-8174060D01*
X4320182Y-8174060D02*
X4339229Y-8183583D01*
X4339229Y-8183583D02*
X4348753Y-8193107D01*
X4348753Y-8193107D02*
X4358277Y-8212155D01*
X4358277Y-8212155D02*
X4367801Y-8250250D01*
X4367801Y-8250250D02*
X4367801Y-8297869D01*
X4367801Y-8297869D02*
X4358277Y-8335964D01*
X4358277Y-8335964D02*
X4348753Y-8355012D01*
X4348753Y-8355012D02*
X4339229Y-8364536D01*
X4339229Y-8364536D02*
X4320182Y-8374060D01*
X4320182Y-8374060D02*
X4301134Y-8374060D01*
X4301134Y-8374060D02*
X4282087Y-8364536D01*
X4282087Y-8364536D02*
X4272563Y-8355012D01*
X4272563Y-8355012D02*
X4263039Y-8335964D01*
X4263039Y-8335964D02*
X4253515Y-8297869D01*
X4253515Y-8297869D02*
X4253515Y-8250250D01*
X4253515Y-8250250D02*
X4263039Y-8212155D01*
X4263039Y-8212155D02*
X4272563Y-8193107D01*
X4272563Y-8193107D02*
X4282087Y-8183583D01*
X4282087Y-8183583D02*
X4301134Y-8174060D01*
X4453515Y-8355012D02*
X4463039Y-8364536D01*
X4463039Y-8364536D02*
X4453515Y-8374060D01*
X4453515Y-8374060D02*
X4443991Y-8364536D01*
X4443991Y-8364536D02*
X4453515Y-8355012D01*
X4453515Y-8355012D02*
X4453515Y-8374060D01*
X4586848Y-8174060D02*
X4605896Y-8174060D01*
X4605896Y-8174060D02*
X4624944Y-8183583D01*
X4624944Y-8183583D02*
X4634468Y-8193107D01*
X4634468Y-8193107D02*
X4643991Y-8212155D01*
X4643991Y-8212155D02*
X4653515Y-8250250D01*
X4653515Y-8250250D02*
X4653515Y-8297869D01*
X4653515Y-8297869D02*
X4643991Y-8335964D01*
X4643991Y-8335964D02*
X4634468Y-8355012D01*
X4634468Y-8355012D02*
X4624944Y-8364536D01*
X4624944Y-8364536D02*
X4605896Y-8374060D01*
X4605896Y-8374060D02*
X4586848Y-8374060D01*
X4586848Y-8374060D02*
X4567801Y-8364536D01*
X4567801Y-8364536D02*
X4558277Y-8355012D01*
X4558277Y-8355012D02*
X4548753Y-8335964D01*
X4548753Y-8335964D02*
X4539229Y-8297869D01*
X4539229Y-8297869D02*
X4539229Y-8250250D01*
X4539229Y-8250250D02*
X4548753Y-8212155D01*
X4548753Y-8212155D02*
X4558277Y-8193107D01*
X4558277Y-8193107D02*
X4567801Y-8183583D01*
X4567801Y-8183583D02*
X4586848Y-8174060D01*
X4777325Y-8174060D02*
X4796372Y-8174060D01*
X4796372Y-8174060D02*
X4815420Y-8183583D01*
X4815420Y-8183583D02*
X4824944Y-8193107D01*
X4824944Y-8193107D02*
X4834468Y-8212155D01*
X4834468Y-8212155D02*
X4843991Y-8250250D01*
X4843991Y-8250250D02*
X4843991Y-8297869D01*
X4843991Y-8297869D02*
X4834468Y-8335964D01*
X4834468Y-8335964D02*
X4824944Y-8355012D01*
X4824944Y-8355012D02*
X4815420Y-8364536D01*
X4815420Y-8364536D02*
X4796372Y-8374060D01*
X4796372Y-8374060D02*
X4777325Y-8374060D01*
X4777325Y-8374060D02*
X4758277Y-8364536D01*
X4758277Y-8364536D02*
X4748753Y-8355012D01*
X4748753Y-8355012D02*
X4739229Y-8335964D01*
X4739229Y-8335964D02*
X4729706Y-8297869D01*
X4729706Y-8297869D02*
X4729706Y-8250250D01*
X4729706Y-8250250D02*
X4739229Y-8212155D01*
X4739229Y-8212155D02*
X4748753Y-8193107D01*
X4748753Y-8193107D02*
X4758277Y-8183583D01*
X4758277Y-8183583D02*
X4777325Y-8174060D01*
X4910658Y-8174060D02*
X5043991Y-8174060D01*
X5043991Y-8174060D02*
X4958277Y-8374060D01*
X5129706Y-8374060D02*
X5167801Y-8374060D01*
X5167801Y-8374060D02*
X5186849Y-8364536D01*
X5186849Y-8364536D02*
X5196372Y-8355012D01*
X5196372Y-8355012D02*
X5215420Y-8326440D01*
X5215420Y-8326440D02*
X5224944Y-8288345D01*
X5224944Y-8288345D02*
X5224944Y-8212155D01*
X5224944Y-8212155D02*
X5215420Y-8193107D01*
X5215420Y-8193107D02*
X5205896Y-8183583D01*
X5205896Y-8183583D02*
X5186849Y-8174060D01*
X5186849Y-8174060D02*
X5148753Y-8174060D01*
X5148753Y-8174060D02*
X5129706Y-8183583D01*
X5129706Y-8183583D02*
X5120182Y-8193107D01*
X5120182Y-8193107D02*
X5110658Y-8212155D01*
X5110658Y-8212155D02*
X5110658Y-8259774D01*
X5110658Y-8259774D02*
X5120182Y-8278821D01*
X5120182Y-8278821D02*
X5129706Y-8288345D01*
X5129706Y-8288345D02*
X5148753Y-8297869D01*
X5148753Y-8297869D02*
X5186849Y-8297869D01*
X5186849Y-8297869D02*
X5205896Y-8288345D01*
X5205896Y-8288345D02*
X5215420Y-8278821D01*
X5215420Y-8278821D02*
X5224944Y-8259774D01*
X5301134Y-8174060D02*
X5301134Y-8212155D01*
X5377325Y-8174060D02*
X5377325Y-8212155D01*
X5672563Y-8450250D02*
X5663039Y-8440726D01*
X5663039Y-8440726D02*
X5643991Y-8412155D01*
X5643991Y-8412155D02*
X5634468Y-8393107D01*
X5634468Y-8393107D02*
X5624944Y-8364536D01*
X5624944Y-8364536D02*
X5615420Y-8316917D01*
X5615420Y-8316917D02*
X5615420Y-8278821D01*
X5615420Y-8278821D02*
X5624944Y-8231202D01*
X5624944Y-8231202D02*
X5634468Y-8202631D01*
X5634468Y-8202631D02*
X5643991Y-8183583D01*
X5643991Y-8183583D02*
X5663039Y-8155012D01*
X5663039Y-8155012D02*
X5672563Y-8145488D01*
X5843991Y-8174060D02*
X5748753Y-8174060D01*
X5748753Y-8174060D02*
X5739229Y-8269298D01*
X5739229Y-8269298D02*
X5748753Y-8259774D01*
X5748753Y-8259774D02*
X5767801Y-8250250D01*
X5767801Y-8250250D02*
X5815420Y-8250250D01*
X5815420Y-8250250D02*
X5834468Y-8259774D01*
X5834468Y-8259774D02*
X5843991Y-8269298D01*
X5843991Y-8269298D02*
X5853515Y-8288345D01*
X5853515Y-8288345D02*
X5853515Y-8335964D01*
X5853515Y-8335964D02*
X5843991Y-8355012D01*
X5843991Y-8355012D02*
X5834468Y-8364536D01*
X5834468Y-8364536D02*
X5815420Y-8374060D01*
X5815420Y-8374060D02*
X5767801Y-8374060D01*
X5767801Y-8374060D02*
X5748753Y-8364536D01*
X5748753Y-8364536D02*
X5739229Y-8355012D01*
X5920182Y-8174060D02*
X6053515Y-8174060D01*
X6053515Y-8174060D02*
X5967801Y-8374060D01*
X6282087Y-8374060D02*
X6282087Y-8174060D01*
X6367801Y-8374060D02*
X6367801Y-8269298D01*
X6367801Y-8269298D02*
X6358277Y-8250250D01*
X6358277Y-8250250D02*
X6339230Y-8240726D01*
X6339230Y-8240726D02*
X6310658Y-8240726D01*
X6310658Y-8240726D02*
X6291610Y-8250250D01*
X6291610Y-8250250D02*
X6282087Y-8259774D01*
X6491610Y-8374060D02*
X6472563Y-8364536D01*
X6472563Y-8364536D02*
X6463039Y-8355012D01*
X6463039Y-8355012D02*
X6453515Y-8335964D01*
X6453515Y-8335964D02*
X6453515Y-8278821D01*
X6453515Y-8278821D02*
X6463039Y-8259774D01*
X6463039Y-8259774D02*
X6472563Y-8250250D01*
X6472563Y-8250250D02*
X6491610Y-8240726D01*
X6491610Y-8240726D02*
X6520182Y-8240726D01*
X6520182Y-8240726D02*
X6539230Y-8250250D01*
X6539230Y-8250250D02*
X6548753Y-8259774D01*
X6548753Y-8259774D02*
X6558277Y-8278821D01*
X6558277Y-8278821D02*
X6558277Y-8335964D01*
X6558277Y-8335964D02*
X6548753Y-8355012D01*
X6548753Y-8355012D02*
X6539230Y-8364536D01*
X6539230Y-8364536D02*
X6520182Y-8374060D01*
X6520182Y-8374060D02*
X6491610Y-8374060D01*
X6672563Y-8374060D02*
X6653515Y-8364536D01*
X6653515Y-8364536D02*
X6643991Y-8345488D01*
X6643991Y-8345488D02*
X6643991Y-8174060D01*
X6824944Y-8364536D02*
X6805896Y-8374060D01*
X6805896Y-8374060D02*
X6767801Y-8374060D01*
X6767801Y-8374060D02*
X6748753Y-8364536D01*
X6748753Y-8364536D02*
X6739230Y-8345488D01*
X6739230Y-8345488D02*
X6739230Y-8269298D01*
X6739230Y-8269298D02*
X6748753Y-8250250D01*
X6748753Y-8250250D02*
X6767801Y-8240726D01*
X6767801Y-8240726D02*
X6805896Y-8240726D01*
X6805896Y-8240726D02*
X6824944Y-8250250D01*
X6824944Y-8250250D02*
X6834468Y-8269298D01*
X6834468Y-8269298D02*
X6834468Y-8288345D01*
X6834468Y-8288345D02*
X6739230Y-8307393D01*
X6910658Y-8364536D02*
X6929706Y-8374060D01*
X6929706Y-8374060D02*
X6967801Y-8374060D01*
X6967801Y-8374060D02*
X6986849Y-8364536D01*
X6986849Y-8364536D02*
X6996372Y-8345488D01*
X6996372Y-8345488D02*
X6996372Y-8335964D01*
X6996372Y-8335964D02*
X6986849Y-8316917D01*
X6986849Y-8316917D02*
X6967801Y-8307393D01*
X6967801Y-8307393D02*
X6939230Y-8307393D01*
X6939230Y-8307393D02*
X6920182Y-8297869D01*
X6920182Y-8297869D02*
X6910658Y-8278821D01*
X6910658Y-8278821D02*
X6910658Y-8269298D01*
X6910658Y-8269298D02*
X6920182Y-8250250D01*
X6920182Y-8250250D02*
X6939230Y-8240726D01*
X6939230Y-8240726D02*
X6967801Y-8240726D01*
X6967801Y-8240726D02*
X6986849Y-8250250D01*
X7063039Y-8450250D02*
X7072563Y-8440726D01*
X7072563Y-8440726D02*
X7091611Y-8412155D01*
X7091611Y-8412155D02*
X7101134Y-8393107D01*
X7101134Y-8393107D02*
X7110658Y-8364536D01*
X7110658Y-8364536D02*
X7120182Y-8316917D01*
X7120182Y-8316917D02*
X7120182Y-8278821D01*
X7120182Y-8278821D02*
X7110658Y-8231202D01*
X7110658Y-8231202D02*
X7101134Y-8202631D01*
X7101134Y-8202631D02*
X7091611Y-8183583D01*
X7091611Y-8183583D02*
X7072563Y-8155012D01*
X7072563Y-8155012D02*
X7063039Y-8145488D01*
D12*
X2097500Y-8546576D02*
G75*
G02*
X2077500Y-8546576I-10000J0D01*
G01*
X2077500Y-8546576D02*
G75*
G02*
X2097500Y-8546576I10000J0D01*
G01*
D11*
X2396372Y-8438060D02*
X2415420Y-8438060D01*
X2415420Y-8438060D02*
X2434467Y-8447583D01*
X2434467Y-8447583D02*
X2443991Y-8457107D01*
X2443991Y-8457107D02*
X2453515Y-8476155D01*
X2453515Y-8476155D02*
X2463039Y-8514250D01*
X2463039Y-8514250D02*
X2463039Y-8561869D01*
X2463039Y-8561869D02*
X2453515Y-8599964D01*
X2453515Y-8599964D02*
X2443991Y-8619012D01*
X2443991Y-8619012D02*
X2434467Y-8628536D01*
X2434467Y-8628536D02*
X2415420Y-8638060D01*
X2415420Y-8638060D02*
X2396372Y-8638060D01*
X2396372Y-8638060D02*
X2377324Y-8628536D01*
X2377324Y-8628536D02*
X2367801Y-8619012D01*
X2367801Y-8619012D02*
X2358277Y-8599964D01*
X2358277Y-8599964D02*
X2348753Y-8561869D01*
X2348753Y-8561869D02*
X2348753Y-8514250D01*
X2348753Y-8514250D02*
X2358277Y-8476155D01*
X2358277Y-8476155D02*
X2367801Y-8457107D01*
X2367801Y-8457107D02*
X2377324Y-8447583D01*
X2377324Y-8447583D02*
X2396372Y-8438060D01*
X2548753Y-8619012D02*
X2558277Y-8628536D01*
X2558277Y-8628536D02*
X2548753Y-8638060D01*
X2548753Y-8638060D02*
X2539229Y-8628536D01*
X2539229Y-8628536D02*
X2548753Y-8619012D01*
X2548753Y-8619012D02*
X2548753Y-8638060D01*
X2634467Y-8457107D02*
X2643991Y-8447583D01*
X2643991Y-8447583D02*
X2663039Y-8438060D01*
X2663039Y-8438060D02*
X2710658Y-8438060D01*
X2710658Y-8438060D02*
X2729705Y-8447583D01*
X2729705Y-8447583D02*
X2739229Y-8457107D01*
X2739229Y-8457107D02*
X2748753Y-8476155D01*
X2748753Y-8476155D02*
X2748753Y-8495202D01*
X2748753Y-8495202D02*
X2739229Y-8523774D01*
X2739229Y-8523774D02*
X2624944Y-8638060D01*
X2624944Y-8638060D02*
X2748753Y-8638060D01*
X2872562Y-8438060D02*
X2891610Y-8438060D01*
X2891610Y-8438060D02*
X2910658Y-8447583D01*
X2910658Y-8447583D02*
X2920182Y-8457107D01*
X2920182Y-8457107D02*
X2929705Y-8476155D01*
X2929705Y-8476155D02*
X2939229Y-8514250D01*
X2939229Y-8514250D02*
X2939229Y-8561869D01*
X2939229Y-8561869D02*
X2929705Y-8599964D01*
X2929705Y-8599964D02*
X2920182Y-8619012D01*
X2920182Y-8619012D02*
X2910658Y-8628536D01*
X2910658Y-8628536D02*
X2891610Y-8638060D01*
X2891610Y-8638060D02*
X2872562Y-8638060D01*
X2872562Y-8638060D02*
X2853515Y-8628536D01*
X2853515Y-8628536D02*
X2843991Y-8619012D01*
X2843991Y-8619012D02*
X2834467Y-8599964D01*
X2834467Y-8599964D02*
X2824943Y-8561869D01*
X2824943Y-8561869D02*
X2824943Y-8514250D01*
X2824943Y-8514250D02*
X2834467Y-8476155D01*
X2834467Y-8476155D02*
X2843991Y-8457107D01*
X2843991Y-8457107D02*
X2853515Y-8447583D01*
X2853515Y-8447583D02*
X2872562Y-8438060D01*
X3063039Y-8438060D02*
X3082086Y-8438060D01*
X3082086Y-8438060D02*
X3101134Y-8447583D01*
X3101134Y-8447583D02*
X3110658Y-8457107D01*
X3110658Y-8457107D02*
X3120182Y-8476155D01*
X3120182Y-8476155D02*
X3129705Y-8514250D01*
X3129705Y-8514250D02*
X3129705Y-8561869D01*
X3129705Y-8561869D02*
X3120182Y-8599964D01*
X3120182Y-8599964D02*
X3110658Y-8619012D01*
X3110658Y-8619012D02*
X3101134Y-8628536D01*
X3101134Y-8628536D02*
X3082086Y-8638060D01*
X3082086Y-8638060D02*
X3063039Y-8638060D01*
X3063039Y-8638060D02*
X3043991Y-8628536D01*
X3043991Y-8628536D02*
X3034467Y-8619012D01*
X3034467Y-8619012D02*
X3024943Y-8599964D01*
X3024943Y-8599964D02*
X3015420Y-8561869D01*
X3015420Y-8561869D02*
X3015420Y-8514250D01*
X3015420Y-8514250D02*
X3024943Y-8476155D01*
X3024943Y-8476155D02*
X3034467Y-8457107D01*
X3034467Y-8457107D02*
X3043991Y-8447583D01*
X3043991Y-8447583D02*
X3063039Y-8438060D01*
X3215420Y-8638060D02*
X3215420Y-8504726D01*
X3215420Y-8523774D02*
X3224943Y-8514250D01*
X3224943Y-8514250D02*
X3243991Y-8504726D01*
X3243991Y-8504726D02*
X3272563Y-8504726D01*
X3272563Y-8504726D02*
X3291610Y-8514250D01*
X3291610Y-8514250D02*
X3301134Y-8533298D01*
X3301134Y-8533298D02*
X3301134Y-8638060D01*
X3301134Y-8533298D02*
X3310658Y-8514250D01*
X3310658Y-8514250D02*
X3329705Y-8504726D01*
X3329705Y-8504726D02*
X3358277Y-8504726D01*
X3358277Y-8504726D02*
X3377324Y-8514250D01*
X3377324Y-8514250D02*
X3386848Y-8533298D01*
X3386848Y-8533298D02*
X3386848Y-8638060D01*
X3482086Y-8638060D02*
X3482086Y-8504726D01*
X3482086Y-8523774D02*
X3491610Y-8514250D01*
X3491610Y-8514250D02*
X3510658Y-8504726D01*
X3510658Y-8504726D02*
X3539229Y-8504726D01*
X3539229Y-8504726D02*
X3558277Y-8514250D01*
X3558277Y-8514250D02*
X3567801Y-8533298D01*
X3567801Y-8533298D02*
X3567801Y-8638060D01*
X3567801Y-8533298D02*
X3577324Y-8514250D01*
X3577324Y-8514250D02*
X3596372Y-8504726D01*
X3596372Y-8504726D02*
X3624943Y-8504726D01*
X3624943Y-8504726D02*
X3643991Y-8514250D01*
X3643991Y-8514250D02*
X3653515Y-8533298D01*
X3653515Y-8533298D02*
X3653515Y-8638060D01*
X4043991Y-8428536D02*
X3872563Y-8685679D01*
X4301134Y-8438060D02*
X4320182Y-8438060D01*
X4320182Y-8438060D02*
X4339229Y-8447583D01*
X4339229Y-8447583D02*
X4348753Y-8457107D01*
X4348753Y-8457107D02*
X4358277Y-8476155D01*
X4358277Y-8476155D02*
X4367801Y-8514250D01*
X4367801Y-8514250D02*
X4367801Y-8561869D01*
X4367801Y-8561869D02*
X4358277Y-8599964D01*
X4358277Y-8599964D02*
X4348753Y-8619012D01*
X4348753Y-8619012D02*
X4339229Y-8628536D01*
X4339229Y-8628536D02*
X4320182Y-8638060D01*
X4320182Y-8638060D02*
X4301134Y-8638060D01*
X4301134Y-8638060D02*
X4282087Y-8628536D01*
X4282087Y-8628536D02*
X4272563Y-8619012D01*
X4272563Y-8619012D02*
X4263039Y-8599964D01*
X4263039Y-8599964D02*
X4253515Y-8561869D01*
X4253515Y-8561869D02*
X4253515Y-8514250D01*
X4253515Y-8514250D02*
X4263039Y-8476155D01*
X4263039Y-8476155D02*
X4272563Y-8457107D01*
X4272563Y-8457107D02*
X4282087Y-8447583D01*
X4282087Y-8447583D02*
X4301134Y-8438060D01*
X4453515Y-8619012D02*
X4463039Y-8628536D01*
X4463039Y-8628536D02*
X4453515Y-8638060D01*
X4453515Y-8638060D02*
X4443991Y-8628536D01*
X4443991Y-8628536D02*
X4453515Y-8619012D01*
X4453515Y-8619012D02*
X4453515Y-8638060D01*
X4586848Y-8438060D02*
X4605896Y-8438060D01*
X4605896Y-8438060D02*
X4624944Y-8447583D01*
X4624944Y-8447583D02*
X4634468Y-8457107D01*
X4634468Y-8457107D02*
X4643991Y-8476155D01*
X4643991Y-8476155D02*
X4653515Y-8514250D01*
X4653515Y-8514250D02*
X4653515Y-8561869D01*
X4653515Y-8561869D02*
X4643991Y-8599964D01*
X4643991Y-8599964D02*
X4634468Y-8619012D01*
X4634468Y-8619012D02*
X4624944Y-8628536D01*
X4624944Y-8628536D02*
X4605896Y-8638060D01*
X4605896Y-8638060D02*
X4586848Y-8638060D01*
X4586848Y-8638060D02*
X4567801Y-8628536D01*
X4567801Y-8628536D02*
X4558277Y-8619012D01*
X4558277Y-8619012D02*
X4548753Y-8599964D01*
X4548753Y-8599964D02*
X4539229Y-8561869D01*
X4539229Y-8561869D02*
X4539229Y-8514250D01*
X4539229Y-8514250D02*
X4548753Y-8476155D01*
X4548753Y-8476155D02*
X4558277Y-8457107D01*
X4558277Y-8457107D02*
X4567801Y-8447583D01*
X4567801Y-8447583D02*
X4586848Y-8438060D01*
X4777325Y-8438060D02*
X4796372Y-8438060D01*
X4796372Y-8438060D02*
X4815420Y-8447583D01*
X4815420Y-8447583D02*
X4824944Y-8457107D01*
X4824944Y-8457107D02*
X4834468Y-8476155D01*
X4834468Y-8476155D02*
X4843991Y-8514250D01*
X4843991Y-8514250D02*
X4843991Y-8561869D01*
X4843991Y-8561869D02*
X4834468Y-8599964D01*
X4834468Y-8599964D02*
X4824944Y-8619012D01*
X4824944Y-8619012D02*
X4815420Y-8628536D01*
X4815420Y-8628536D02*
X4796372Y-8638060D01*
X4796372Y-8638060D02*
X4777325Y-8638060D01*
X4777325Y-8638060D02*
X4758277Y-8628536D01*
X4758277Y-8628536D02*
X4748753Y-8619012D01*
X4748753Y-8619012D02*
X4739229Y-8599964D01*
X4739229Y-8599964D02*
X4729706Y-8561869D01*
X4729706Y-8561869D02*
X4729706Y-8514250D01*
X4729706Y-8514250D02*
X4739229Y-8476155D01*
X4739229Y-8476155D02*
X4748753Y-8457107D01*
X4748753Y-8457107D02*
X4758277Y-8447583D01*
X4758277Y-8447583D02*
X4777325Y-8438060D01*
X4910658Y-8438060D02*
X5043991Y-8438060D01*
X5043991Y-8438060D02*
X4958277Y-8638060D01*
X5129706Y-8638060D02*
X5167801Y-8638060D01*
X5167801Y-8638060D02*
X5186849Y-8628536D01*
X5186849Y-8628536D02*
X5196372Y-8619012D01*
X5196372Y-8619012D02*
X5215420Y-8590441D01*
X5215420Y-8590441D02*
X5224944Y-8552345D01*
X5224944Y-8552345D02*
X5224944Y-8476155D01*
X5224944Y-8476155D02*
X5215420Y-8457107D01*
X5215420Y-8457107D02*
X5205896Y-8447583D01*
X5205896Y-8447583D02*
X5186849Y-8438060D01*
X5186849Y-8438060D02*
X5148753Y-8438060D01*
X5148753Y-8438060D02*
X5129706Y-8447583D01*
X5129706Y-8447583D02*
X5120182Y-8457107D01*
X5120182Y-8457107D02*
X5110658Y-8476155D01*
X5110658Y-8476155D02*
X5110658Y-8523774D01*
X5110658Y-8523774D02*
X5120182Y-8542822D01*
X5120182Y-8542822D02*
X5129706Y-8552345D01*
X5129706Y-8552345D02*
X5148753Y-8561869D01*
X5148753Y-8561869D02*
X5186849Y-8561869D01*
X5186849Y-8561869D02*
X5205896Y-8552345D01*
X5205896Y-8552345D02*
X5215420Y-8542822D01*
X5215420Y-8542822D02*
X5224944Y-8523774D01*
X5301134Y-8438060D02*
X5301134Y-8476155D01*
X5377325Y-8438060D02*
X5377325Y-8476155D01*
X5672563Y-8714250D02*
X5663039Y-8704726D01*
X5663039Y-8704726D02*
X5643991Y-8676155D01*
X5643991Y-8676155D02*
X5634468Y-8657107D01*
X5634468Y-8657107D02*
X5624944Y-8628536D01*
X5624944Y-8628536D02*
X5615420Y-8580917D01*
X5615420Y-8580917D02*
X5615420Y-8542822D01*
X5615420Y-8542822D02*
X5624944Y-8495202D01*
X5624944Y-8495202D02*
X5634468Y-8466631D01*
X5634468Y-8466631D02*
X5643991Y-8447583D01*
X5643991Y-8447583D02*
X5663039Y-8419012D01*
X5663039Y-8419012D02*
X5672563Y-8409488D01*
X5739229Y-8457107D02*
X5748753Y-8447583D01*
X5748753Y-8447583D02*
X5767801Y-8438060D01*
X5767801Y-8438060D02*
X5815420Y-8438060D01*
X5815420Y-8438060D02*
X5834468Y-8447583D01*
X5834468Y-8447583D02*
X5843991Y-8457107D01*
X5843991Y-8457107D02*
X5853515Y-8476155D01*
X5853515Y-8476155D02*
X5853515Y-8495202D01*
X5853515Y-8495202D02*
X5843991Y-8523774D01*
X5843991Y-8523774D02*
X5729706Y-8638060D01*
X5729706Y-8638060D02*
X5853515Y-8638060D01*
X6024944Y-8504726D02*
X6024944Y-8638060D01*
X5977325Y-8428536D02*
X5929706Y-8571393D01*
X5929706Y-8571393D02*
X6053515Y-8571393D01*
X6282087Y-8638060D02*
X6282087Y-8438060D01*
X6367801Y-8638060D02*
X6367801Y-8533298D01*
X6367801Y-8533298D02*
X6358277Y-8514250D01*
X6358277Y-8514250D02*
X6339230Y-8504726D01*
X6339230Y-8504726D02*
X6310658Y-8504726D01*
X6310658Y-8504726D02*
X6291610Y-8514250D01*
X6291610Y-8514250D02*
X6282087Y-8523774D01*
X6491610Y-8638060D02*
X6472563Y-8628536D01*
X6472563Y-8628536D02*
X6463039Y-8619012D01*
X6463039Y-8619012D02*
X6453515Y-8599964D01*
X6453515Y-8599964D02*
X6453515Y-8542822D01*
X6453515Y-8542822D02*
X6463039Y-8523774D01*
X6463039Y-8523774D02*
X6472563Y-8514250D01*
X6472563Y-8514250D02*
X6491610Y-8504726D01*
X6491610Y-8504726D02*
X6520182Y-8504726D01*
X6520182Y-8504726D02*
X6539230Y-8514250D01*
X6539230Y-8514250D02*
X6548753Y-8523774D01*
X6548753Y-8523774D02*
X6558277Y-8542822D01*
X6558277Y-8542822D02*
X6558277Y-8599964D01*
X6558277Y-8599964D02*
X6548753Y-8619012D01*
X6548753Y-8619012D02*
X6539230Y-8628536D01*
X6539230Y-8628536D02*
X6520182Y-8638060D01*
X6520182Y-8638060D02*
X6491610Y-8638060D01*
X6672563Y-8638060D02*
X6653515Y-8628536D01*
X6653515Y-8628536D02*
X6643991Y-8609488D01*
X6643991Y-8609488D02*
X6643991Y-8438060D01*
X6824944Y-8628536D02*
X6805896Y-8638060D01*
X6805896Y-8638060D02*
X6767801Y-8638060D01*
X6767801Y-8638060D02*
X6748753Y-8628536D01*
X6748753Y-8628536D02*
X6739230Y-8609488D01*
X6739230Y-8609488D02*
X6739230Y-8533298D01*
X6739230Y-8533298D02*
X6748753Y-8514250D01*
X6748753Y-8514250D02*
X6767801Y-8504726D01*
X6767801Y-8504726D02*
X6805896Y-8504726D01*
X6805896Y-8504726D02*
X6824944Y-8514250D01*
X6824944Y-8514250D02*
X6834468Y-8533298D01*
X6834468Y-8533298D02*
X6834468Y-8552345D01*
X6834468Y-8552345D02*
X6739230Y-8571393D01*
X6910658Y-8628536D02*
X6929706Y-8638060D01*
X6929706Y-8638060D02*
X6967801Y-8638060D01*
X6967801Y-8638060D02*
X6986849Y-8628536D01*
X6986849Y-8628536D02*
X6996372Y-8609488D01*
X6996372Y-8609488D02*
X6996372Y-8599964D01*
X6996372Y-8599964D02*
X6986849Y-8580917D01*
X6986849Y-8580917D02*
X6967801Y-8571393D01*
X6967801Y-8571393D02*
X6939230Y-8571393D01*
X6939230Y-8571393D02*
X6920182Y-8561869D01*
X6920182Y-8561869D02*
X6910658Y-8542822D01*
X6910658Y-8542822D02*
X6910658Y-8533298D01*
X6910658Y-8533298D02*
X6920182Y-8514250D01*
X6920182Y-8514250D02*
X6939230Y-8504726D01*
X6939230Y-8504726D02*
X6967801Y-8504726D01*
X6967801Y-8504726D02*
X6986849Y-8514250D01*
X7063039Y-8714250D02*
X7072563Y-8704726D01*
X7072563Y-8704726D02*
X7091611Y-8676155D01*
X7091611Y-8676155D02*
X7101134Y-8657107D01*
X7101134Y-8657107D02*
X7110658Y-8628536D01*
X7110658Y-8628536D02*
X7120182Y-8580917D01*
X7120182Y-8580917D02*
X7120182Y-8542822D01*
X7120182Y-8542822D02*
X7110658Y-8495202D01*
X7110658Y-8495202D02*
X7101134Y-8466631D01*
X7101134Y-8466631D02*
X7091611Y-8447583D01*
X7091611Y-8447583D02*
X7072563Y-8419012D01*
X7072563Y-8419012D02*
X7063039Y-8409488D01*
D12*
X2082500Y-8795576D02*
X2082500Y-8825576D01*
X2067500Y-8810576D02*
X2097500Y-8810576D01*
D11*
X2396372Y-8702060D02*
X2415420Y-8702060D01*
X2415420Y-8702060D02*
X2434467Y-8711583D01*
X2434467Y-8711583D02*
X2443991Y-8721107D01*
X2443991Y-8721107D02*
X2453515Y-8740155D01*
X2453515Y-8740155D02*
X2463039Y-8778250D01*
X2463039Y-8778250D02*
X2463039Y-8825869D01*
X2463039Y-8825869D02*
X2453515Y-8863964D01*
X2453515Y-8863964D02*
X2443991Y-8883012D01*
X2443991Y-8883012D02*
X2434467Y-8892536D01*
X2434467Y-8892536D02*
X2415420Y-8902060D01*
X2415420Y-8902060D02*
X2396372Y-8902060D01*
X2396372Y-8902060D02*
X2377324Y-8892536D01*
X2377324Y-8892536D02*
X2367801Y-8883012D01*
X2367801Y-8883012D02*
X2358277Y-8863964D01*
X2358277Y-8863964D02*
X2348753Y-8825869D01*
X2348753Y-8825869D02*
X2348753Y-8778250D01*
X2348753Y-8778250D02*
X2358277Y-8740155D01*
X2358277Y-8740155D02*
X2367801Y-8721107D01*
X2367801Y-8721107D02*
X2377324Y-8711583D01*
X2377324Y-8711583D02*
X2396372Y-8702060D01*
X2548753Y-8883012D02*
X2558277Y-8892536D01*
X2558277Y-8892536D02*
X2548753Y-8902060D01*
X2548753Y-8902060D02*
X2539229Y-8892536D01*
X2539229Y-8892536D02*
X2548753Y-8883012D01*
X2548753Y-8883012D02*
X2548753Y-8902060D01*
X2624944Y-8702060D02*
X2748753Y-8702060D01*
X2748753Y-8702060D02*
X2682086Y-8778250D01*
X2682086Y-8778250D02*
X2710658Y-8778250D01*
X2710658Y-8778250D02*
X2729705Y-8787774D01*
X2729705Y-8787774D02*
X2739229Y-8797298D01*
X2739229Y-8797298D02*
X2748753Y-8816345D01*
X2748753Y-8816345D02*
X2748753Y-8863964D01*
X2748753Y-8863964D02*
X2739229Y-8883012D01*
X2739229Y-8883012D02*
X2729705Y-8892536D01*
X2729705Y-8892536D02*
X2710658Y-8902060D01*
X2710658Y-8902060D02*
X2653515Y-8902060D01*
X2653515Y-8902060D02*
X2634467Y-8892536D01*
X2634467Y-8892536D02*
X2624944Y-8883012D01*
X2872562Y-8702060D02*
X2891610Y-8702060D01*
X2891610Y-8702060D02*
X2910658Y-8711583D01*
X2910658Y-8711583D02*
X2920182Y-8721107D01*
X2920182Y-8721107D02*
X2929705Y-8740155D01*
X2929705Y-8740155D02*
X2939229Y-8778250D01*
X2939229Y-8778250D02*
X2939229Y-8825869D01*
X2939229Y-8825869D02*
X2929705Y-8863964D01*
X2929705Y-8863964D02*
X2920182Y-8883012D01*
X2920182Y-8883012D02*
X2910658Y-8892536D01*
X2910658Y-8892536D02*
X2891610Y-8902060D01*
X2891610Y-8902060D02*
X2872562Y-8902060D01*
X2872562Y-8902060D02*
X2853515Y-8892536D01*
X2853515Y-8892536D02*
X2843991Y-8883012D01*
X2843991Y-8883012D02*
X2834467Y-8863964D01*
X2834467Y-8863964D02*
X2824943Y-8825869D01*
X2824943Y-8825869D02*
X2824943Y-8778250D01*
X2824943Y-8778250D02*
X2834467Y-8740155D01*
X2834467Y-8740155D02*
X2843991Y-8721107D01*
X2843991Y-8721107D02*
X2853515Y-8711583D01*
X2853515Y-8711583D02*
X2872562Y-8702060D01*
X3063039Y-8702060D02*
X3082086Y-8702060D01*
X3082086Y-8702060D02*
X3101134Y-8711583D01*
X3101134Y-8711583D02*
X3110658Y-8721107D01*
X3110658Y-8721107D02*
X3120182Y-8740155D01*
X3120182Y-8740155D02*
X3129705Y-8778250D01*
X3129705Y-8778250D02*
X3129705Y-8825869D01*
X3129705Y-8825869D02*
X3120182Y-8863964D01*
X3120182Y-8863964D02*
X3110658Y-8883012D01*
X3110658Y-8883012D02*
X3101134Y-8892536D01*
X3101134Y-8892536D02*
X3082086Y-8902060D01*
X3082086Y-8902060D02*
X3063039Y-8902060D01*
X3063039Y-8902060D02*
X3043991Y-8892536D01*
X3043991Y-8892536D02*
X3034467Y-8883012D01*
X3034467Y-8883012D02*
X3024943Y-8863964D01*
X3024943Y-8863964D02*
X3015420Y-8825869D01*
X3015420Y-8825869D02*
X3015420Y-8778250D01*
X3015420Y-8778250D02*
X3024943Y-8740155D01*
X3024943Y-8740155D02*
X3034467Y-8721107D01*
X3034467Y-8721107D02*
X3043991Y-8711583D01*
X3043991Y-8711583D02*
X3063039Y-8702060D01*
X3215420Y-8902060D02*
X3215420Y-8768726D01*
X3215420Y-8787774D02*
X3224943Y-8778250D01*
X3224943Y-8778250D02*
X3243991Y-8768726D01*
X3243991Y-8768726D02*
X3272563Y-8768726D01*
X3272563Y-8768726D02*
X3291610Y-8778250D01*
X3291610Y-8778250D02*
X3301134Y-8797298D01*
X3301134Y-8797298D02*
X3301134Y-8902060D01*
X3301134Y-8797298D02*
X3310658Y-8778250D01*
X3310658Y-8778250D02*
X3329705Y-8768726D01*
X3329705Y-8768726D02*
X3358277Y-8768726D01*
X3358277Y-8768726D02*
X3377324Y-8778250D01*
X3377324Y-8778250D02*
X3386848Y-8797298D01*
X3386848Y-8797298D02*
X3386848Y-8902060D01*
X3482086Y-8902060D02*
X3482086Y-8768726D01*
X3482086Y-8787774D02*
X3491610Y-8778250D01*
X3491610Y-8778250D02*
X3510658Y-8768726D01*
X3510658Y-8768726D02*
X3539229Y-8768726D01*
X3539229Y-8768726D02*
X3558277Y-8778250D01*
X3558277Y-8778250D02*
X3567801Y-8797298D01*
X3567801Y-8797298D02*
X3567801Y-8902060D01*
X3567801Y-8797298D02*
X3577324Y-8778250D01*
X3577324Y-8778250D02*
X3596372Y-8768726D01*
X3596372Y-8768726D02*
X3624943Y-8768726D01*
X3624943Y-8768726D02*
X3643991Y-8778250D01*
X3643991Y-8778250D02*
X3653515Y-8797298D01*
X3653515Y-8797298D02*
X3653515Y-8902060D01*
X4043991Y-8692536D02*
X3872563Y-8949679D01*
X4301134Y-8702060D02*
X4320182Y-8702060D01*
X4320182Y-8702060D02*
X4339229Y-8711583D01*
X4339229Y-8711583D02*
X4348753Y-8721107D01*
X4348753Y-8721107D02*
X4358277Y-8740155D01*
X4358277Y-8740155D02*
X4367801Y-8778250D01*
X4367801Y-8778250D02*
X4367801Y-8825869D01*
X4367801Y-8825869D02*
X4358277Y-8863964D01*
X4358277Y-8863964D02*
X4348753Y-8883012D01*
X4348753Y-8883012D02*
X4339229Y-8892536D01*
X4339229Y-8892536D02*
X4320182Y-8902060D01*
X4320182Y-8902060D02*
X4301134Y-8902060D01*
X4301134Y-8902060D02*
X4282087Y-8892536D01*
X4282087Y-8892536D02*
X4272563Y-8883012D01*
X4272563Y-8883012D02*
X4263039Y-8863964D01*
X4263039Y-8863964D02*
X4253515Y-8825869D01*
X4253515Y-8825869D02*
X4253515Y-8778250D01*
X4253515Y-8778250D02*
X4263039Y-8740155D01*
X4263039Y-8740155D02*
X4272563Y-8721107D01*
X4272563Y-8721107D02*
X4282087Y-8711583D01*
X4282087Y-8711583D02*
X4301134Y-8702060D01*
X4453515Y-8883012D02*
X4463039Y-8892536D01*
X4463039Y-8892536D02*
X4453515Y-8902060D01*
X4453515Y-8902060D02*
X4443991Y-8892536D01*
X4443991Y-8892536D02*
X4453515Y-8883012D01*
X4453515Y-8883012D02*
X4453515Y-8902060D01*
X4586848Y-8702060D02*
X4605896Y-8702060D01*
X4605896Y-8702060D02*
X4624944Y-8711583D01*
X4624944Y-8711583D02*
X4634468Y-8721107D01*
X4634468Y-8721107D02*
X4643991Y-8740155D01*
X4643991Y-8740155D02*
X4653515Y-8778250D01*
X4653515Y-8778250D02*
X4653515Y-8825869D01*
X4653515Y-8825869D02*
X4643991Y-8863964D01*
X4643991Y-8863964D02*
X4634468Y-8883012D01*
X4634468Y-8883012D02*
X4624944Y-8892536D01*
X4624944Y-8892536D02*
X4605896Y-8902060D01*
X4605896Y-8902060D02*
X4586848Y-8902060D01*
X4586848Y-8902060D02*
X4567801Y-8892536D01*
X4567801Y-8892536D02*
X4558277Y-8883012D01*
X4558277Y-8883012D02*
X4548753Y-8863964D01*
X4548753Y-8863964D02*
X4539229Y-8825869D01*
X4539229Y-8825869D02*
X4539229Y-8778250D01*
X4539229Y-8778250D02*
X4548753Y-8740155D01*
X4548753Y-8740155D02*
X4558277Y-8721107D01*
X4558277Y-8721107D02*
X4567801Y-8711583D01*
X4567801Y-8711583D02*
X4586848Y-8702060D01*
X4843991Y-8902060D02*
X4729706Y-8902060D01*
X4786848Y-8902060D02*
X4786848Y-8702060D01*
X4786848Y-8702060D02*
X4767801Y-8730631D01*
X4767801Y-8730631D02*
X4748753Y-8749679D01*
X4748753Y-8749679D02*
X4729706Y-8759202D01*
X5034468Y-8902060D02*
X4920182Y-8902060D01*
X4977325Y-8902060D02*
X4977325Y-8702060D01*
X4977325Y-8702060D02*
X4958277Y-8730631D01*
X4958277Y-8730631D02*
X4939229Y-8749679D01*
X4939229Y-8749679D02*
X4920182Y-8759202D01*
X5148753Y-8787774D02*
X5129706Y-8778250D01*
X5129706Y-8778250D02*
X5120182Y-8768726D01*
X5120182Y-8768726D02*
X5110658Y-8749679D01*
X5110658Y-8749679D02*
X5110658Y-8740155D01*
X5110658Y-8740155D02*
X5120182Y-8721107D01*
X5120182Y-8721107D02*
X5129706Y-8711583D01*
X5129706Y-8711583D02*
X5148753Y-8702060D01*
X5148753Y-8702060D02*
X5186849Y-8702060D01*
X5186849Y-8702060D02*
X5205896Y-8711583D01*
X5205896Y-8711583D02*
X5215420Y-8721107D01*
X5215420Y-8721107D02*
X5224944Y-8740155D01*
X5224944Y-8740155D02*
X5224944Y-8749679D01*
X5224944Y-8749679D02*
X5215420Y-8768726D01*
X5215420Y-8768726D02*
X5205896Y-8778250D01*
X5205896Y-8778250D02*
X5186849Y-8787774D01*
X5186849Y-8787774D02*
X5148753Y-8787774D01*
X5148753Y-8787774D02*
X5129706Y-8797298D01*
X5129706Y-8797298D02*
X5120182Y-8806822D01*
X5120182Y-8806822D02*
X5110658Y-8825869D01*
X5110658Y-8825869D02*
X5110658Y-8863964D01*
X5110658Y-8863964D02*
X5120182Y-8883012D01*
X5120182Y-8883012D02*
X5129706Y-8892536D01*
X5129706Y-8892536D02*
X5148753Y-8902060D01*
X5148753Y-8902060D02*
X5186849Y-8902060D01*
X5186849Y-8902060D02*
X5205896Y-8892536D01*
X5205896Y-8892536D02*
X5215420Y-8883012D01*
X5215420Y-8883012D02*
X5224944Y-8863964D01*
X5224944Y-8863964D02*
X5224944Y-8825869D01*
X5224944Y-8825869D02*
X5215420Y-8806822D01*
X5215420Y-8806822D02*
X5205896Y-8797298D01*
X5205896Y-8797298D02*
X5186849Y-8787774D01*
X5301134Y-8702060D02*
X5301134Y-8740155D01*
X5377325Y-8702060D02*
X5377325Y-8740155D01*
X5672563Y-8978250D02*
X5663039Y-8968726D01*
X5663039Y-8968726D02*
X5643991Y-8940155D01*
X5643991Y-8940155D02*
X5634468Y-8921107D01*
X5634468Y-8921107D02*
X5624944Y-8892536D01*
X5624944Y-8892536D02*
X5615420Y-8844917D01*
X5615420Y-8844917D02*
X5615420Y-8806822D01*
X5615420Y-8806822D02*
X5624944Y-8759202D01*
X5624944Y-8759202D02*
X5634468Y-8730631D01*
X5634468Y-8730631D02*
X5643991Y-8711583D01*
X5643991Y-8711583D02*
X5663039Y-8683012D01*
X5663039Y-8683012D02*
X5672563Y-8673488D01*
X5853515Y-8902060D02*
X5739229Y-8902060D01*
X5796372Y-8902060D02*
X5796372Y-8702060D01*
X5796372Y-8702060D02*
X5777325Y-8730631D01*
X5777325Y-8730631D02*
X5758277Y-8749679D01*
X5758277Y-8749679D02*
X5739229Y-8759202D01*
X5920182Y-8702060D02*
X6043991Y-8702060D01*
X6043991Y-8702060D02*
X5977325Y-8778250D01*
X5977325Y-8778250D02*
X6005896Y-8778250D01*
X6005896Y-8778250D02*
X6024944Y-8787774D01*
X6024944Y-8787774D02*
X6034468Y-8797298D01*
X6034468Y-8797298D02*
X6043991Y-8816345D01*
X6043991Y-8816345D02*
X6043991Y-8863964D01*
X6043991Y-8863964D02*
X6034468Y-8883012D01*
X6034468Y-8883012D02*
X6024944Y-8892536D01*
X6024944Y-8892536D02*
X6005896Y-8902060D01*
X6005896Y-8902060D02*
X5948753Y-8902060D01*
X5948753Y-8902060D02*
X5929706Y-8892536D01*
X5929706Y-8892536D02*
X5920182Y-8883012D01*
X6110658Y-8702060D02*
X6243991Y-8702060D01*
X6243991Y-8702060D02*
X6158277Y-8902060D01*
X6472563Y-8902060D02*
X6472563Y-8702060D01*
X6558277Y-8902060D02*
X6558277Y-8797298D01*
X6558277Y-8797298D02*
X6548753Y-8778250D01*
X6548753Y-8778250D02*
X6529706Y-8768726D01*
X6529706Y-8768726D02*
X6501134Y-8768726D01*
X6501134Y-8768726D02*
X6482087Y-8778250D01*
X6482087Y-8778250D02*
X6472563Y-8787774D01*
X6682087Y-8902060D02*
X6663039Y-8892536D01*
X6663039Y-8892536D02*
X6653515Y-8883012D01*
X6653515Y-8883012D02*
X6643991Y-8863964D01*
X6643991Y-8863964D02*
X6643991Y-8806822D01*
X6643991Y-8806822D02*
X6653515Y-8787774D01*
X6653515Y-8787774D02*
X6663039Y-8778250D01*
X6663039Y-8778250D02*
X6682087Y-8768726D01*
X6682087Y-8768726D02*
X6710658Y-8768726D01*
X6710658Y-8768726D02*
X6729706Y-8778250D01*
X6729706Y-8778250D02*
X6739230Y-8787774D01*
X6739230Y-8787774D02*
X6748753Y-8806822D01*
X6748753Y-8806822D02*
X6748753Y-8863964D01*
X6748753Y-8863964D02*
X6739230Y-8883012D01*
X6739230Y-8883012D02*
X6729706Y-8892536D01*
X6729706Y-8892536D02*
X6710658Y-8902060D01*
X6710658Y-8902060D02*
X6682087Y-8902060D01*
X6863039Y-8902060D02*
X6843991Y-8892536D01*
X6843991Y-8892536D02*
X6834468Y-8873488D01*
X6834468Y-8873488D02*
X6834468Y-8702060D01*
X7015420Y-8892536D02*
X6996372Y-8902060D01*
X6996372Y-8902060D02*
X6958277Y-8902060D01*
X6958277Y-8902060D02*
X6939230Y-8892536D01*
X6939230Y-8892536D02*
X6929706Y-8873488D01*
X6929706Y-8873488D02*
X6929706Y-8797298D01*
X6929706Y-8797298D02*
X6939230Y-8778250D01*
X6939230Y-8778250D02*
X6958277Y-8768726D01*
X6958277Y-8768726D02*
X6996372Y-8768726D01*
X6996372Y-8768726D02*
X7015420Y-8778250D01*
X7015420Y-8778250D02*
X7024944Y-8797298D01*
X7024944Y-8797298D02*
X7024944Y-8816345D01*
X7024944Y-8816345D02*
X6929706Y-8835393D01*
X7101134Y-8892536D02*
X7120182Y-8902060D01*
X7120182Y-8902060D02*
X7158277Y-8902060D01*
X7158277Y-8902060D02*
X7177325Y-8892536D01*
X7177325Y-8892536D02*
X7186849Y-8873488D01*
X7186849Y-8873488D02*
X7186849Y-8863964D01*
X7186849Y-8863964D02*
X7177325Y-8844917D01*
X7177325Y-8844917D02*
X7158277Y-8835393D01*
X7158277Y-8835393D02*
X7129706Y-8835393D01*
X7129706Y-8835393D02*
X7110658Y-8825869D01*
X7110658Y-8825869D02*
X7101134Y-8806822D01*
X7101134Y-8806822D02*
X7101134Y-8797298D01*
X7101134Y-8797298D02*
X7110658Y-8778250D01*
X7110658Y-8778250D02*
X7129706Y-8768726D01*
X7129706Y-8768726D02*
X7158277Y-8768726D01*
X7158277Y-8768726D02*
X7177325Y-8778250D01*
X7253515Y-8978250D02*
X7263039Y-8968726D01*
X7263039Y-8968726D02*
X7282087Y-8940155D01*
X7282087Y-8940155D02*
X7291611Y-8921107D01*
X7291611Y-8921107D02*
X7301134Y-8892536D01*
X7301134Y-8892536D02*
X7310658Y-8844917D01*
X7310658Y-8844917D02*
X7310658Y-8806822D01*
X7310658Y-8806822D02*
X7301134Y-8759202D01*
X7301134Y-8759202D02*
X7291611Y-8730631D01*
X7291611Y-8730631D02*
X7282087Y-8711583D01*
X7282087Y-8711583D02*
X7263039Y-8683012D01*
X7263039Y-8683012D02*
X7253515Y-8673488D01*
D12*
X2093107Y-9085183D02*
X2093107Y-9063969D01*
X2071893Y-9063969D01*
X2071893Y-9085183D01*
X2093107Y-9085183D01*
D11*
X2396372Y-8966060D02*
X2415420Y-8966060D01*
X2415420Y-8966060D02*
X2434467Y-8975583D01*
X2434467Y-8975583D02*
X2443991Y-8985107D01*
X2443991Y-8985107D02*
X2453515Y-9004155D01*
X2453515Y-9004155D02*
X2463039Y-9042250D01*
X2463039Y-9042250D02*
X2463039Y-9089869D01*
X2463039Y-9089869D02*
X2453515Y-9127964D01*
X2453515Y-9127964D02*
X2443991Y-9147012D01*
X2443991Y-9147012D02*
X2434467Y-9156536D01*
X2434467Y-9156536D02*
X2415420Y-9166060D01*
X2415420Y-9166060D02*
X2396372Y-9166060D01*
X2396372Y-9166060D02*
X2377324Y-9156536D01*
X2377324Y-9156536D02*
X2367801Y-9147012D01*
X2367801Y-9147012D02*
X2358277Y-9127964D01*
X2358277Y-9127964D02*
X2348753Y-9089869D01*
X2348753Y-9089869D02*
X2348753Y-9042250D01*
X2348753Y-9042250D02*
X2358277Y-9004155D01*
X2358277Y-9004155D02*
X2367801Y-8985107D01*
X2367801Y-8985107D02*
X2377324Y-8975583D01*
X2377324Y-8975583D02*
X2396372Y-8966060D01*
X2548753Y-9147012D02*
X2558277Y-9156536D01*
X2558277Y-9156536D02*
X2548753Y-9166060D01*
X2548753Y-9166060D02*
X2539229Y-9156536D01*
X2539229Y-9156536D02*
X2548753Y-9147012D01*
X2548753Y-9147012D02*
X2548753Y-9166060D01*
X2624944Y-8966060D02*
X2748753Y-8966060D01*
X2748753Y-8966060D02*
X2682086Y-9042250D01*
X2682086Y-9042250D02*
X2710658Y-9042250D01*
X2710658Y-9042250D02*
X2729705Y-9051774D01*
X2729705Y-9051774D02*
X2739229Y-9061298D01*
X2739229Y-9061298D02*
X2748753Y-9080345D01*
X2748753Y-9080345D02*
X2748753Y-9127964D01*
X2748753Y-9127964D02*
X2739229Y-9147012D01*
X2739229Y-9147012D02*
X2729705Y-9156536D01*
X2729705Y-9156536D02*
X2710658Y-9166060D01*
X2710658Y-9166060D02*
X2653515Y-9166060D01*
X2653515Y-9166060D02*
X2634467Y-9156536D01*
X2634467Y-9156536D02*
X2624944Y-9147012D01*
X2872562Y-8966060D02*
X2891610Y-8966060D01*
X2891610Y-8966060D02*
X2910658Y-8975583D01*
X2910658Y-8975583D02*
X2920182Y-8985107D01*
X2920182Y-8985107D02*
X2929705Y-9004155D01*
X2929705Y-9004155D02*
X2939229Y-9042250D01*
X2939229Y-9042250D02*
X2939229Y-9089869D01*
X2939229Y-9089869D02*
X2929705Y-9127964D01*
X2929705Y-9127964D02*
X2920182Y-9147012D01*
X2920182Y-9147012D02*
X2910658Y-9156536D01*
X2910658Y-9156536D02*
X2891610Y-9166060D01*
X2891610Y-9166060D02*
X2872562Y-9166060D01*
X2872562Y-9166060D02*
X2853515Y-9156536D01*
X2853515Y-9156536D02*
X2843991Y-9147012D01*
X2843991Y-9147012D02*
X2834467Y-9127964D01*
X2834467Y-9127964D02*
X2824943Y-9089869D01*
X2824943Y-9089869D02*
X2824943Y-9042250D01*
X2824943Y-9042250D02*
X2834467Y-9004155D01*
X2834467Y-9004155D02*
X2843991Y-8985107D01*
X2843991Y-8985107D02*
X2853515Y-8975583D01*
X2853515Y-8975583D02*
X2872562Y-8966060D01*
X3063039Y-8966060D02*
X3082086Y-8966060D01*
X3082086Y-8966060D02*
X3101134Y-8975583D01*
X3101134Y-8975583D02*
X3110658Y-8985107D01*
X3110658Y-8985107D02*
X3120182Y-9004155D01*
X3120182Y-9004155D02*
X3129705Y-9042250D01*
X3129705Y-9042250D02*
X3129705Y-9089869D01*
X3129705Y-9089869D02*
X3120182Y-9127964D01*
X3120182Y-9127964D02*
X3110658Y-9147012D01*
X3110658Y-9147012D02*
X3101134Y-9156536D01*
X3101134Y-9156536D02*
X3082086Y-9166060D01*
X3082086Y-9166060D02*
X3063039Y-9166060D01*
X3063039Y-9166060D02*
X3043991Y-9156536D01*
X3043991Y-9156536D02*
X3034467Y-9147012D01*
X3034467Y-9147012D02*
X3024943Y-9127964D01*
X3024943Y-9127964D02*
X3015420Y-9089869D01*
X3015420Y-9089869D02*
X3015420Y-9042250D01*
X3015420Y-9042250D02*
X3024943Y-9004155D01*
X3024943Y-9004155D02*
X3034467Y-8985107D01*
X3034467Y-8985107D02*
X3043991Y-8975583D01*
X3043991Y-8975583D02*
X3063039Y-8966060D01*
X3215420Y-9166060D02*
X3215420Y-9032726D01*
X3215420Y-9051774D02*
X3224943Y-9042250D01*
X3224943Y-9042250D02*
X3243991Y-9032726D01*
X3243991Y-9032726D02*
X3272563Y-9032726D01*
X3272563Y-9032726D02*
X3291610Y-9042250D01*
X3291610Y-9042250D02*
X3301134Y-9061298D01*
X3301134Y-9061298D02*
X3301134Y-9166060D01*
X3301134Y-9061298D02*
X3310658Y-9042250D01*
X3310658Y-9042250D02*
X3329705Y-9032726D01*
X3329705Y-9032726D02*
X3358277Y-9032726D01*
X3358277Y-9032726D02*
X3377324Y-9042250D01*
X3377324Y-9042250D02*
X3386848Y-9061298D01*
X3386848Y-9061298D02*
X3386848Y-9166060D01*
X3482086Y-9166060D02*
X3482086Y-9032726D01*
X3482086Y-9051774D02*
X3491610Y-9042250D01*
X3491610Y-9042250D02*
X3510658Y-9032726D01*
X3510658Y-9032726D02*
X3539229Y-9032726D01*
X3539229Y-9032726D02*
X3558277Y-9042250D01*
X3558277Y-9042250D02*
X3567801Y-9061298D01*
X3567801Y-9061298D02*
X3567801Y-9166060D01*
X3567801Y-9061298D02*
X3577324Y-9042250D01*
X3577324Y-9042250D02*
X3596372Y-9032726D01*
X3596372Y-9032726D02*
X3624943Y-9032726D01*
X3624943Y-9032726D02*
X3643991Y-9042250D01*
X3643991Y-9042250D02*
X3653515Y-9061298D01*
X3653515Y-9061298D02*
X3653515Y-9166060D01*
X4043991Y-8956536D02*
X3872563Y-9213679D01*
X4301134Y-8966060D02*
X4320182Y-8966060D01*
X4320182Y-8966060D02*
X4339229Y-8975583D01*
X4339229Y-8975583D02*
X4348753Y-8985107D01*
X4348753Y-8985107D02*
X4358277Y-9004155D01*
X4358277Y-9004155D02*
X4367801Y-9042250D01*
X4367801Y-9042250D02*
X4367801Y-9089869D01*
X4367801Y-9089869D02*
X4358277Y-9127964D01*
X4358277Y-9127964D02*
X4348753Y-9147012D01*
X4348753Y-9147012D02*
X4339229Y-9156536D01*
X4339229Y-9156536D02*
X4320182Y-9166060D01*
X4320182Y-9166060D02*
X4301134Y-9166060D01*
X4301134Y-9166060D02*
X4282087Y-9156536D01*
X4282087Y-9156536D02*
X4272563Y-9147012D01*
X4272563Y-9147012D02*
X4263039Y-9127964D01*
X4263039Y-9127964D02*
X4253515Y-9089869D01*
X4253515Y-9089869D02*
X4253515Y-9042250D01*
X4253515Y-9042250D02*
X4263039Y-9004155D01*
X4263039Y-9004155D02*
X4272563Y-8985107D01*
X4272563Y-8985107D02*
X4282087Y-8975583D01*
X4282087Y-8975583D02*
X4301134Y-8966060D01*
X4453515Y-9147012D02*
X4463039Y-9156536D01*
X4463039Y-9156536D02*
X4453515Y-9166060D01*
X4453515Y-9166060D02*
X4443991Y-9156536D01*
X4443991Y-9156536D02*
X4453515Y-9147012D01*
X4453515Y-9147012D02*
X4453515Y-9166060D01*
X4586848Y-8966060D02*
X4605896Y-8966060D01*
X4605896Y-8966060D02*
X4624944Y-8975583D01*
X4624944Y-8975583D02*
X4634468Y-8985107D01*
X4634468Y-8985107D02*
X4643991Y-9004155D01*
X4643991Y-9004155D02*
X4653515Y-9042250D01*
X4653515Y-9042250D02*
X4653515Y-9089869D01*
X4653515Y-9089869D02*
X4643991Y-9127964D01*
X4643991Y-9127964D02*
X4634468Y-9147012D01*
X4634468Y-9147012D02*
X4624944Y-9156536D01*
X4624944Y-9156536D02*
X4605896Y-9166060D01*
X4605896Y-9166060D02*
X4586848Y-9166060D01*
X4586848Y-9166060D02*
X4567801Y-9156536D01*
X4567801Y-9156536D02*
X4558277Y-9147012D01*
X4558277Y-9147012D02*
X4548753Y-9127964D01*
X4548753Y-9127964D02*
X4539229Y-9089869D01*
X4539229Y-9089869D02*
X4539229Y-9042250D01*
X4539229Y-9042250D02*
X4548753Y-9004155D01*
X4548753Y-9004155D02*
X4558277Y-8985107D01*
X4558277Y-8985107D02*
X4567801Y-8975583D01*
X4567801Y-8975583D02*
X4586848Y-8966060D01*
X4843991Y-9166060D02*
X4729706Y-9166060D01*
X4786848Y-9166060D02*
X4786848Y-8966060D01*
X4786848Y-8966060D02*
X4767801Y-8994631D01*
X4767801Y-8994631D02*
X4748753Y-9013679D01*
X4748753Y-9013679D02*
X4729706Y-9023202D01*
X5034468Y-9166060D02*
X4920182Y-9166060D01*
X4977325Y-9166060D02*
X4977325Y-8966060D01*
X4977325Y-8966060D02*
X4958277Y-8994631D01*
X4958277Y-8994631D02*
X4939229Y-9013679D01*
X4939229Y-9013679D02*
X4920182Y-9023202D01*
X5148753Y-9051774D02*
X5129706Y-9042250D01*
X5129706Y-9042250D02*
X5120182Y-9032726D01*
X5120182Y-9032726D02*
X5110658Y-9013679D01*
X5110658Y-9013679D02*
X5110658Y-9004155D01*
X5110658Y-9004155D02*
X5120182Y-8985107D01*
X5120182Y-8985107D02*
X5129706Y-8975583D01*
X5129706Y-8975583D02*
X5148753Y-8966060D01*
X5148753Y-8966060D02*
X5186849Y-8966060D01*
X5186849Y-8966060D02*
X5205896Y-8975583D01*
X5205896Y-8975583D02*
X5215420Y-8985107D01*
X5215420Y-8985107D02*
X5224944Y-9004155D01*
X5224944Y-9004155D02*
X5224944Y-9013679D01*
X5224944Y-9013679D02*
X5215420Y-9032726D01*
X5215420Y-9032726D02*
X5205896Y-9042250D01*
X5205896Y-9042250D02*
X5186849Y-9051774D01*
X5186849Y-9051774D02*
X5148753Y-9051774D01*
X5148753Y-9051774D02*
X5129706Y-9061298D01*
X5129706Y-9061298D02*
X5120182Y-9070822D01*
X5120182Y-9070822D02*
X5110658Y-9089869D01*
X5110658Y-9089869D02*
X5110658Y-9127964D01*
X5110658Y-9127964D02*
X5120182Y-9147012D01*
X5120182Y-9147012D02*
X5129706Y-9156536D01*
X5129706Y-9156536D02*
X5148753Y-9166060D01*
X5148753Y-9166060D02*
X5186849Y-9166060D01*
X5186849Y-9166060D02*
X5205896Y-9156536D01*
X5205896Y-9156536D02*
X5215420Y-9147012D01*
X5215420Y-9147012D02*
X5224944Y-9127964D01*
X5224944Y-9127964D02*
X5224944Y-9089869D01*
X5224944Y-9089869D02*
X5215420Y-9070822D01*
X5215420Y-9070822D02*
X5205896Y-9061298D01*
X5205896Y-9061298D02*
X5186849Y-9051774D01*
X5301134Y-8966060D02*
X5301134Y-9004155D01*
X5377325Y-8966060D02*
X5377325Y-9004155D01*
X5672563Y-9242250D02*
X5663039Y-9232726D01*
X5663039Y-9232726D02*
X5643991Y-9204155D01*
X5643991Y-9204155D02*
X5634468Y-9185107D01*
X5634468Y-9185107D02*
X5624944Y-9156536D01*
X5624944Y-9156536D02*
X5615420Y-9108917D01*
X5615420Y-9108917D02*
X5615420Y-9070822D01*
X5615420Y-9070822D02*
X5624944Y-9023202D01*
X5624944Y-9023202D02*
X5634468Y-8994631D01*
X5634468Y-8994631D02*
X5643991Y-8975583D01*
X5643991Y-8975583D02*
X5663039Y-8947012D01*
X5663039Y-8947012D02*
X5672563Y-8937488D01*
X5834468Y-9032726D02*
X5834468Y-9166060D01*
X5786848Y-8956536D02*
X5739229Y-9099393D01*
X5739229Y-9099393D02*
X5863039Y-9099393D01*
X6091610Y-9166060D02*
X6091610Y-8966060D01*
X6177325Y-9166060D02*
X6177325Y-9061298D01*
X6177325Y-9061298D02*
X6167801Y-9042250D01*
X6167801Y-9042250D02*
X6148753Y-9032726D01*
X6148753Y-9032726D02*
X6120182Y-9032726D01*
X6120182Y-9032726D02*
X6101134Y-9042250D01*
X6101134Y-9042250D02*
X6091610Y-9051774D01*
X6301134Y-9166060D02*
X6282087Y-9156536D01*
X6282087Y-9156536D02*
X6272563Y-9147012D01*
X6272563Y-9147012D02*
X6263039Y-9127964D01*
X6263039Y-9127964D02*
X6263039Y-9070822D01*
X6263039Y-9070822D02*
X6272563Y-9051774D01*
X6272563Y-9051774D02*
X6282087Y-9042250D01*
X6282087Y-9042250D02*
X6301134Y-9032726D01*
X6301134Y-9032726D02*
X6329706Y-9032726D01*
X6329706Y-9032726D02*
X6348753Y-9042250D01*
X6348753Y-9042250D02*
X6358277Y-9051774D01*
X6358277Y-9051774D02*
X6367801Y-9070822D01*
X6367801Y-9070822D02*
X6367801Y-9127964D01*
X6367801Y-9127964D02*
X6358277Y-9147012D01*
X6358277Y-9147012D02*
X6348753Y-9156536D01*
X6348753Y-9156536D02*
X6329706Y-9166060D01*
X6329706Y-9166060D02*
X6301134Y-9166060D01*
X6482087Y-9166060D02*
X6463039Y-9156536D01*
X6463039Y-9156536D02*
X6453515Y-9137488D01*
X6453515Y-9137488D02*
X6453515Y-8966060D01*
X6634468Y-9156536D02*
X6615420Y-9166060D01*
X6615420Y-9166060D02*
X6577325Y-9166060D01*
X6577325Y-9166060D02*
X6558277Y-9156536D01*
X6558277Y-9156536D02*
X6548753Y-9137488D01*
X6548753Y-9137488D02*
X6548753Y-9061298D01*
X6548753Y-9061298D02*
X6558277Y-9042250D01*
X6558277Y-9042250D02*
X6577325Y-9032726D01*
X6577325Y-9032726D02*
X6615420Y-9032726D01*
X6615420Y-9032726D02*
X6634468Y-9042250D01*
X6634468Y-9042250D02*
X6643991Y-9061298D01*
X6643991Y-9061298D02*
X6643991Y-9080345D01*
X6643991Y-9080345D02*
X6548753Y-9099393D01*
X6720182Y-9156536D02*
X6739230Y-9166060D01*
X6739230Y-9166060D02*
X6777325Y-9166060D01*
X6777325Y-9166060D02*
X6796372Y-9156536D01*
X6796372Y-9156536D02*
X6805896Y-9137488D01*
X6805896Y-9137488D02*
X6805896Y-9127964D01*
X6805896Y-9127964D02*
X6796372Y-9108917D01*
X6796372Y-9108917D02*
X6777325Y-9099393D01*
X6777325Y-9099393D02*
X6748753Y-9099393D01*
X6748753Y-9099393D02*
X6729706Y-9089869D01*
X6729706Y-9089869D02*
X6720182Y-9070822D01*
X6720182Y-9070822D02*
X6720182Y-9061298D01*
X6720182Y-9061298D02*
X6729706Y-9042250D01*
X6729706Y-9042250D02*
X6748753Y-9032726D01*
X6748753Y-9032726D02*
X6777325Y-9032726D01*
X6777325Y-9032726D02*
X6796372Y-9042250D01*
X6872563Y-9242250D02*
X6882087Y-9232726D01*
X6882087Y-9232726D02*
X6901134Y-9204155D01*
X6901134Y-9204155D02*
X6910658Y-9185107D01*
X6910658Y-9185107D02*
X6920182Y-9156536D01*
X6920182Y-9156536D02*
X6929706Y-9108917D01*
X6929706Y-9108917D02*
X6929706Y-9070822D01*
X6929706Y-9070822D02*
X6920182Y-9023202D01*
X6920182Y-9023202D02*
X6910658Y-8994631D01*
X6910658Y-8994631D02*
X6901134Y-8975583D01*
X6901134Y-8975583D02*
X6882087Y-8947012D01*
X6882087Y-8947012D02*
X6872563Y-8937488D01*
D12*
X2067500Y-9368576D02*
X2097500Y-9338576D01*
X2067500Y-9308576D01*
X2037500Y-9338576D01*
X2067500Y-9368576D01*
D11*
X2396372Y-9230060D02*
X2415420Y-9230060D01*
X2415420Y-9230060D02*
X2434467Y-9239583D01*
X2434467Y-9239583D02*
X2443991Y-9249107D01*
X2443991Y-9249107D02*
X2453515Y-9268155D01*
X2453515Y-9268155D02*
X2463039Y-9306250D01*
X2463039Y-9306250D02*
X2463039Y-9353869D01*
X2463039Y-9353869D02*
X2453515Y-9391964D01*
X2453515Y-9391964D02*
X2443991Y-9411012D01*
X2443991Y-9411012D02*
X2434467Y-9420536D01*
X2434467Y-9420536D02*
X2415420Y-9430060D01*
X2415420Y-9430060D02*
X2396372Y-9430060D01*
X2396372Y-9430060D02*
X2377324Y-9420536D01*
X2377324Y-9420536D02*
X2367801Y-9411012D01*
X2367801Y-9411012D02*
X2358277Y-9391964D01*
X2358277Y-9391964D02*
X2348753Y-9353869D01*
X2348753Y-9353869D02*
X2348753Y-9306250D01*
X2348753Y-9306250D02*
X2358277Y-9268155D01*
X2358277Y-9268155D02*
X2367801Y-9249107D01*
X2367801Y-9249107D02*
X2377324Y-9239583D01*
X2377324Y-9239583D02*
X2396372Y-9230060D01*
X2548753Y-9411012D02*
X2558277Y-9420536D01*
X2558277Y-9420536D02*
X2548753Y-9430060D01*
X2548753Y-9430060D02*
X2539229Y-9420536D01*
X2539229Y-9420536D02*
X2548753Y-9411012D01*
X2548753Y-9411012D02*
X2548753Y-9430060D01*
X2729705Y-9230060D02*
X2691610Y-9230060D01*
X2691610Y-9230060D02*
X2672563Y-9239583D01*
X2672563Y-9239583D02*
X2663039Y-9249107D01*
X2663039Y-9249107D02*
X2643991Y-9277679D01*
X2643991Y-9277679D02*
X2634467Y-9315774D01*
X2634467Y-9315774D02*
X2634467Y-9391964D01*
X2634467Y-9391964D02*
X2643991Y-9411012D01*
X2643991Y-9411012D02*
X2653515Y-9420536D01*
X2653515Y-9420536D02*
X2672563Y-9430060D01*
X2672563Y-9430060D02*
X2710658Y-9430060D01*
X2710658Y-9430060D02*
X2729705Y-9420536D01*
X2729705Y-9420536D02*
X2739229Y-9411012D01*
X2739229Y-9411012D02*
X2748753Y-9391964D01*
X2748753Y-9391964D02*
X2748753Y-9344345D01*
X2748753Y-9344345D02*
X2739229Y-9325298D01*
X2739229Y-9325298D02*
X2729705Y-9315774D01*
X2729705Y-9315774D02*
X2710658Y-9306250D01*
X2710658Y-9306250D02*
X2672563Y-9306250D01*
X2672563Y-9306250D02*
X2653515Y-9315774D01*
X2653515Y-9315774D02*
X2643991Y-9325298D01*
X2643991Y-9325298D02*
X2634467Y-9344345D01*
X2872562Y-9230060D02*
X2891610Y-9230060D01*
X2891610Y-9230060D02*
X2910658Y-9239583D01*
X2910658Y-9239583D02*
X2920182Y-9249107D01*
X2920182Y-9249107D02*
X2929705Y-9268155D01*
X2929705Y-9268155D02*
X2939229Y-9306250D01*
X2939229Y-9306250D02*
X2939229Y-9353869D01*
X2939229Y-9353869D02*
X2929705Y-9391964D01*
X2929705Y-9391964D02*
X2920182Y-9411012D01*
X2920182Y-9411012D02*
X2910658Y-9420536D01*
X2910658Y-9420536D02*
X2891610Y-9430060D01*
X2891610Y-9430060D02*
X2872562Y-9430060D01*
X2872562Y-9430060D02*
X2853515Y-9420536D01*
X2853515Y-9420536D02*
X2843991Y-9411012D01*
X2843991Y-9411012D02*
X2834467Y-9391964D01*
X2834467Y-9391964D02*
X2824943Y-9353869D01*
X2824943Y-9353869D02*
X2824943Y-9306250D01*
X2824943Y-9306250D02*
X2834467Y-9268155D01*
X2834467Y-9268155D02*
X2843991Y-9249107D01*
X2843991Y-9249107D02*
X2853515Y-9239583D01*
X2853515Y-9239583D02*
X2872562Y-9230060D01*
X3063039Y-9230060D02*
X3082086Y-9230060D01*
X3082086Y-9230060D02*
X3101134Y-9239583D01*
X3101134Y-9239583D02*
X3110658Y-9249107D01*
X3110658Y-9249107D02*
X3120182Y-9268155D01*
X3120182Y-9268155D02*
X3129705Y-9306250D01*
X3129705Y-9306250D02*
X3129705Y-9353869D01*
X3129705Y-9353869D02*
X3120182Y-9391964D01*
X3120182Y-9391964D02*
X3110658Y-9411012D01*
X3110658Y-9411012D02*
X3101134Y-9420536D01*
X3101134Y-9420536D02*
X3082086Y-9430060D01*
X3082086Y-9430060D02*
X3063039Y-9430060D01*
X3063039Y-9430060D02*
X3043991Y-9420536D01*
X3043991Y-9420536D02*
X3034467Y-9411012D01*
X3034467Y-9411012D02*
X3024943Y-9391964D01*
X3024943Y-9391964D02*
X3015420Y-9353869D01*
X3015420Y-9353869D02*
X3015420Y-9306250D01*
X3015420Y-9306250D02*
X3024943Y-9268155D01*
X3024943Y-9268155D02*
X3034467Y-9249107D01*
X3034467Y-9249107D02*
X3043991Y-9239583D01*
X3043991Y-9239583D02*
X3063039Y-9230060D01*
X3215420Y-9430060D02*
X3215420Y-9296726D01*
X3215420Y-9315774D02*
X3224943Y-9306250D01*
X3224943Y-9306250D02*
X3243991Y-9296726D01*
X3243991Y-9296726D02*
X3272563Y-9296726D01*
X3272563Y-9296726D02*
X3291610Y-9306250D01*
X3291610Y-9306250D02*
X3301134Y-9325298D01*
X3301134Y-9325298D02*
X3301134Y-9430060D01*
X3301134Y-9325298D02*
X3310658Y-9306250D01*
X3310658Y-9306250D02*
X3329705Y-9296726D01*
X3329705Y-9296726D02*
X3358277Y-9296726D01*
X3358277Y-9296726D02*
X3377324Y-9306250D01*
X3377324Y-9306250D02*
X3386848Y-9325298D01*
X3386848Y-9325298D02*
X3386848Y-9430060D01*
X3482086Y-9430060D02*
X3482086Y-9296726D01*
X3482086Y-9315774D02*
X3491610Y-9306250D01*
X3491610Y-9306250D02*
X3510658Y-9296726D01*
X3510658Y-9296726D02*
X3539229Y-9296726D01*
X3539229Y-9296726D02*
X3558277Y-9306250D01*
X3558277Y-9306250D02*
X3567801Y-9325298D01*
X3567801Y-9325298D02*
X3567801Y-9430060D01*
X3567801Y-9325298D02*
X3577324Y-9306250D01*
X3577324Y-9306250D02*
X3596372Y-9296726D01*
X3596372Y-9296726D02*
X3624943Y-9296726D01*
X3624943Y-9296726D02*
X3643991Y-9306250D01*
X3643991Y-9306250D02*
X3653515Y-9325298D01*
X3653515Y-9325298D02*
X3653515Y-9430060D01*
X4043991Y-9220536D02*
X3872563Y-9477679D01*
X4301134Y-9230060D02*
X4320182Y-9230060D01*
X4320182Y-9230060D02*
X4339229Y-9239583D01*
X4339229Y-9239583D02*
X4348753Y-9249107D01*
X4348753Y-9249107D02*
X4358277Y-9268155D01*
X4358277Y-9268155D02*
X4367801Y-9306250D01*
X4367801Y-9306250D02*
X4367801Y-9353869D01*
X4367801Y-9353869D02*
X4358277Y-9391964D01*
X4358277Y-9391964D02*
X4348753Y-9411012D01*
X4348753Y-9411012D02*
X4339229Y-9420536D01*
X4339229Y-9420536D02*
X4320182Y-9430060D01*
X4320182Y-9430060D02*
X4301134Y-9430060D01*
X4301134Y-9430060D02*
X4282087Y-9420536D01*
X4282087Y-9420536D02*
X4272563Y-9411012D01*
X4272563Y-9411012D02*
X4263039Y-9391964D01*
X4263039Y-9391964D02*
X4253515Y-9353869D01*
X4253515Y-9353869D02*
X4253515Y-9306250D01*
X4253515Y-9306250D02*
X4263039Y-9268155D01*
X4263039Y-9268155D02*
X4272563Y-9249107D01*
X4272563Y-9249107D02*
X4282087Y-9239583D01*
X4282087Y-9239583D02*
X4301134Y-9230060D01*
X4453515Y-9411012D02*
X4463039Y-9420536D01*
X4463039Y-9420536D02*
X4453515Y-9430060D01*
X4453515Y-9430060D02*
X4443991Y-9420536D01*
X4443991Y-9420536D02*
X4453515Y-9411012D01*
X4453515Y-9411012D02*
X4453515Y-9430060D01*
X4586848Y-9230060D02*
X4605896Y-9230060D01*
X4605896Y-9230060D02*
X4624944Y-9239583D01*
X4624944Y-9239583D02*
X4634468Y-9249107D01*
X4634468Y-9249107D02*
X4643991Y-9268155D01*
X4643991Y-9268155D02*
X4653515Y-9306250D01*
X4653515Y-9306250D02*
X4653515Y-9353869D01*
X4653515Y-9353869D02*
X4643991Y-9391964D01*
X4643991Y-9391964D02*
X4634468Y-9411012D01*
X4634468Y-9411012D02*
X4624944Y-9420536D01*
X4624944Y-9420536D02*
X4605896Y-9430060D01*
X4605896Y-9430060D02*
X4586848Y-9430060D01*
X4586848Y-9430060D02*
X4567801Y-9420536D01*
X4567801Y-9420536D02*
X4558277Y-9411012D01*
X4558277Y-9411012D02*
X4548753Y-9391964D01*
X4548753Y-9391964D02*
X4539229Y-9353869D01*
X4539229Y-9353869D02*
X4539229Y-9306250D01*
X4539229Y-9306250D02*
X4548753Y-9268155D01*
X4548753Y-9268155D02*
X4558277Y-9249107D01*
X4558277Y-9249107D02*
X4567801Y-9239583D01*
X4567801Y-9239583D02*
X4586848Y-9230060D01*
X4729706Y-9249107D02*
X4739229Y-9239583D01*
X4739229Y-9239583D02*
X4758277Y-9230060D01*
X4758277Y-9230060D02*
X4805896Y-9230060D01*
X4805896Y-9230060D02*
X4824944Y-9239583D01*
X4824944Y-9239583D02*
X4834468Y-9249107D01*
X4834468Y-9249107D02*
X4843991Y-9268155D01*
X4843991Y-9268155D02*
X4843991Y-9287202D01*
X4843991Y-9287202D02*
X4834468Y-9315774D01*
X4834468Y-9315774D02*
X4720182Y-9430060D01*
X4720182Y-9430060D02*
X4843991Y-9430060D01*
X4910658Y-9230060D02*
X5034468Y-9230060D01*
X5034468Y-9230060D02*
X4967801Y-9306250D01*
X4967801Y-9306250D02*
X4996372Y-9306250D01*
X4996372Y-9306250D02*
X5015420Y-9315774D01*
X5015420Y-9315774D02*
X5024944Y-9325298D01*
X5024944Y-9325298D02*
X5034468Y-9344345D01*
X5034468Y-9344345D02*
X5034468Y-9391964D01*
X5034468Y-9391964D02*
X5024944Y-9411012D01*
X5024944Y-9411012D02*
X5015420Y-9420536D01*
X5015420Y-9420536D02*
X4996372Y-9430060D01*
X4996372Y-9430060D02*
X4939229Y-9430060D01*
X4939229Y-9430060D02*
X4920182Y-9420536D01*
X4920182Y-9420536D02*
X4910658Y-9411012D01*
X5205896Y-9230060D02*
X5167801Y-9230060D01*
X5167801Y-9230060D02*
X5148753Y-9239583D01*
X5148753Y-9239583D02*
X5139229Y-9249107D01*
X5139229Y-9249107D02*
X5120182Y-9277679D01*
X5120182Y-9277679D02*
X5110658Y-9315774D01*
X5110658Y-9315774D02*
X5110658Y-9391964D01*
X5110658Y-9391964D02*
X5120182Y-9411012D01*
X5120182Y-9411012D02*
X5129706Y-9420536D01*
X5129706Y-9420536D02*
X5148753Y-9430060D01*
X5148753Y-9430060D02*
X5186849Y-9430060D01*
X5186849Y-9430060D02*
X5205896Y-9420536D01*
X5205896Y-9420536D02*
X5215420Y-9411012D01*
X5215420Y-9411012D02*
X5224944Y-9391964D01*
X5224944Y-9391964D02*
X5224944Y-9344345D01*
X5224944Y-9344345D02*
X5215420Y-9325298D01*
X5215420Y-9325298D02*
X5205896Y-9315774D01*
X5205896Y-9315774D02*
X5186849Y-9306250D01*
X5186849Y-9306250D02*
X5148753Y-9306250D01*
X5148753Y-9306250D02*
X5129706Y-9315774D01*
X5129706Y-9315774D02*
X5120182Y-9325298D01*
X5120182Y-9325298D02*
X5110658Y-9344345D01*
X5301134Y-9230060D02*
X5301134Y-9268155D01*
X5377325Y-9230060D02*
X5377325Y-9268155D01*
X5672563Y-9506250D02*
X5663039Y-9496726D01*
X5663039Y-9496726D02*
X5643991Y-9468155D01*
X5643991Y-9468155D02*
X5634468Y-9449107D01*
X5634468Y-9449107D02*
X5624944Y-9420536D01*
X5624944Y-9420536D02*
X5615420Y-9372917D01*
X5615420Y-9372917D02*
X5615420Y-9334822D01*
X5615420Y-9334822D02*
X5624944Y-9287202D01*
X5624944Y-9287202D02*
X5634468Y-9258631D01*
X5634468Y-9258631D02*
X5643991Y-9239583D01*
X5643991Y-9239583D02*
X5663039Y-9211012D01*
X5663039Y-9211012D02*
X5672563Y-9201488D01*
X5786848Y-9230060D02*
X5805896Y-9230060D01*
X5805896Y-9230060D02*
X5824944Y-9239583D01*
X5824944Y-9239583D02*
X5834468Y-9249107D01*
X5834468Y-9249107D02*
X5843991Y-9268155D01*
X5843991Y-9268155D02*
X5853515Y-9306250D01*
X5853515Y-9306250D02*
X5853515Y-9353869D01*
X5853515Y-9353869D02*
X5843991Y-9391964D01*
X5843991Y-9391964D02*
X5834468Y-9411012D01*
X5834468Y-9411012D02*
X5824944Y-9420536D01*
X5824944Y-9420536D02*
X5805896Y-9430060D01*
X5805896Y-9430060D02*
X5786848Y-9430060D01*
X5786848Y-9430060D02*
X5767801Y-9420536D01*
X5767801Y-9420536D02*
X5758277Y-9411012D01*
X5758277Y-9411012D02*
X5748753Y-9391964D01*
X5748753Y-9391964D02*
X5739229Y-9353869D01*
X5739229Y-9353869D02*
X5739229Y-9306250D01*
X5739229Y-9306250D02*
X5748753Y-9268155D01*
X5748753Y-9268155D02*
X5758277Y-9249107D01*
X5758277Y-9249107D02*
X5767801Y-9239583D01*
X5767801Y-9239583D02*
X5786848Y-9230060D01*
X6091610Y-9430060D02*
X6091610Y-9230060D01*
X6177325Y-9430060D02*
X6177325Y-9325298D01*
X6177325Y-9325298D02*
X6167801Y-9306250D01*
X6167801Y-9306250D02*
X6148753Y-9296726D01*
X6148753Y-9296726D02*
X6120182Y-9296726D01*
X6120182Y-9296726D02*
X6101134Y-9306250D01*
X6101134Y-9306250D02*
X6091610Y-9315774D01*
X6301134Y-9430060D02*
X6282087Y-9420536D01*
X6282087Y-9420536D02*
X6272563Y-9411012D01*
X6272563Y-9411012D02*
X6263039Y-9391964D01*
X6263039Y-9391964D02*
X6263039Y-9334822D01*
X6263039Y-9334822D02*
X6272563Y-9315774D01*
X6272563Y-9315774D02*
X6282087Y-9306250D01*
X6282087Y-9306250D02*
X6301134Y-9296726D01*
X6301134Y-9296726D02*
X6329706Y-9296726D01*
X6329706Y-9296726D02*
X6348753Y-9306250D01*
X6348753Y-9306250D02*
X6358277Y-9315774D01*
X6358277Y-9315774D02*
X6367801Y-9334822D01*
X6367801Y-9334822D02*
X6367801Y-9391964D01*
X6367801Y-9391964D02*
X6358277Y-9411012D01*
X6358277Y-9411012D02*
X6348753Y-9420536D01*
X6348753Y-9420536D02*
X6329706Y-9430060D01*
X6329706Y-9430060D02*
X6301134Y-9430060D01*
X6482087Y-9430060D02*
X6463039Y-9420536D01*
X6463039Y-9420536D02*
X6453515Y-9401488D01*
X6453515Y-9401488D02*
X6453515Y-9230060D01*
X6634468Y-9420536D02*
X6615420Y-9430060D01*
X6615420Y-9430060D02*
X6577325Y-9430060D01*
X6577325Y-9430060D02*
X6558277Y-9420536D01*
X6558277Y-9420536D02*
X6548753Y-9401488D01*
X6548753Y-9401488D02*
X6548753Y-9325298D01*
X6548753Y-9325298D02*
X6558277Y-9306250D01*
X6558277Y-9306250D02*
X6577325Y-9296726D01*
X6577325Y-9296726D02*
X6615420Y-9296726D01*
X6615420Y-9296726D02*
X6634468Y-9306250D01*
X6634468Y-9306250D02*
X6643991Y-9325298D01*
X6643991Y-9325298D02*
X6643991Y-9344345D01*
X6643991Y-9344345D02*
X6548753Y-9363393D01*
X6720182Y-9420536D02*
X6739230Y-9430060D01*
X6739230Y-9430060D02*
X6777325Y-9430060D01*
X6777325Y-9430060D02*
X6796372Y-9420536D01*
X6796372Y-9420536D02*
X6805896Y-9401488D01*
X6805896Y-9401488D02*
X6805896Y-9391964D01*
X6805896Y-9391964D02*
X6796372Y-9372917D01*
X6796372Y-9372917D02*
X6777325Y-9363393D01*
X6777325Y-9363393D02*
X6748753Y-9363393D01*
X6748753Y-9363393D02*
X6729706Y-9353869D01*
X6729706Y-9353869D02*
X6720182Y-9334822D01*
X6720182Y-9334822D02*
X6720182Y-9325298D01*
X6720182Y-9325298D02*
X6729706Y-9306250D01*
X6729706Y-9306250D02*
X6748753Y-9296726D01*
X6748753Y-9296726D02*
X6777325Y-9296726D01*
X6777325Y-9296726D02*
X6796372Y-9306250D01*
X7043992Y-9353869D02*
X7196373Y-9353869D01*
X7120182Y-9430060D02*
X7120182Y-9277679D01*
X7529706Y-9296726D02*
X7529706Y-9430060D01*
X7482087Y-9220536D02*
X7434468Y-9363393D01*
X7434468Y-9363393D02*
X7558277Y-9363393D01*
X7777325Y-9420536D02*
X7796373Y-9430060D01*
X7796373Y-9430060D02*
X7834468Y-9430060D01*
X7834468Y-9430060D02*
X7853515Y-9420536D01*
X7853515Y-9420536D02*
X7863039Y-9401488D01*
X7863039Y-9401488D02*
X7863039Y-9391964D01*
X7863039Y-9391964D02*
X7853515Y-9372917D01*
X7853515Y-9372917D02*
X7834468Y-9363393D01*
X7834468Y-9363393D02*
X7805896Y-9363393D01*
X7805896Y-9363393D02*
X7786849Y-9353869D01*
X7786849Y-9353869D02*
X7777325Y-9334822D01*
X7777325Y-9334822D02*
X7777325Y-9325298D01*
X7777325Y-9325298D02*
X7786849Y-9306250D01*
X7786849Y-9306250D02*
X7805896Y-9296726D01*
X7805896Y-9296726D02*
X7834468Y-9296726D01*
X7834468Y-9296726D02*
X7853515Y-9306250D01*
X7977325Y-9430060D02*
X7958277Y-9420536D01*
X7958277Y-9420536D02*
X7948754Y-9401488D01*
X7948754Y-9401488D02*
X7948754Y-9230060D01*
X8082087Y-9430060D02*
X8063039Y-9420536D01*
X8063039Y-9420536D02*
X8053515Y-9411012D01*
X8053515Y-9411012D02*
X8043992Y-9391964D01*
X8043992Y-9391964D02*
X8043992Y-9334822D01*
X8043992Y-9334822D02*
X8053515Y-9315774D01*
X8053515Y-9315774D02*
X8063039Y-9306250D01*
X8063039Y-9306250D02*
X8082087Y-9296726D01*
X8082087Y-9296726D02*
X8110658Y-9296726D01*
X8110658Y-9296726D02*
X8129706Y-9306250D01*
X8129706Y-9306250D02*
X8139230Y-9315774D01*
X8139230Y-9315774D02*
X8148754Y-9334822D01*
X8148754Y-9334822D02*
X8148754Y-9391964D01*
X8148754Y-9391964D02*
X8139230Y-9411012D01*
X8139230Y-9411012D02*
X8129706Y-9420536D01*
X8129706Y-9420536D02*
X8110658Y-9430060D01*
X8110658Y-9430060D02*
X8082087Y-9430060D01*
X8205896Y-9296726D02*
X8282087Y-9296726D01*
X8234468Y-9230060D02*
X8234468Y-9401488D01*
X8234468Y-9401488D02*
X8243992Y-9420536D01*
X8243992Y-9420536D02*
X8263039Y-9430060D01*
X8263039Y-9430060D02*
X8282087Y-9430060D01*
X8339230Y-9420536D02*
X8358277Y-9430060D01*
X8358277Y-9430060D02*
X8396373Y-9430060D01*
X8396373Y-9430060D02*
X8415420Y-9420536D01*
X8415420Y-9420536D02*
X8424944Y-9401488D01*
X8424944Y-9401488D02*
X8424944Y-9391964D01*
X8424944Y-9391964D02*
X8415420Y-9372917D01*
X8415420Y-9372917D02*
X8396373Y-9363393D01*
X8396373Y-9363393D02*
X8367801Y-9363393D01*
X8367801Y-9363393D02*
X8348754Y-9353869D01*
X8348754Y-9353869D02*
X8339230Y-9334822D01*
X8339230Y-9334822D02*
X8339230Y-9325298D01*
X8339230Y-9325298D02*
X8348754Y-9306250D01*
X8348754Y-9306250D02*
X8367801Y-9296726D01*
X8367801Y-9296726D02*
X8396373Y-9296726D01*
X8396373Y-9296726D02*
X8415420Y-9306250D01*
X8491611Y-9506250D02*
X8501135Y-9496726D01*
X8501135Y-9496726D02*
X8520182Y-9468155D01*
X8520182Y-9468155D02*
X8529706Y-9449107D01*
X8529706Y-9449107D02*
X8539230Y-9420536D01*
X8539230Y-9420536D02*
X8548754Y-9372917D01*
X8548754Y-9372917D02*
X8548754Y-9334822D01*
X8548754Y-9334822D02*
X8539230Y-9287202D01*
X8539230Y-9287202D02*
X8529706Y-9258631D01*
X8529706Y-9258631D02*
X8520182Y-9239583D01*
X8520182Y-9239583D02*
X8501135Y-9211012D01*
X8501135Y-9211012D02*
X8491611Y-9201488D01*
M02*
