%TF.GenerationSoftware,KiCad,Pcbnew,10.0.6*%
%TF.CreationDate,2026-10-05T17:48:45+02:00*%
%TF.ProjectId,MAO_MAIN_A0,4d414f5f-4d41-4494-9e5f-41302e6b6963,A0*%
%TF.SameCoordinates,Original*%
%TF.FileFunction,Drillmap*%
%TF.FilePolarity,Positive*%
%FSLAX45Y45*%
G04 Gerber Fmt 4.5, Leading zero omitted, Abs format (unit mm)*
G04 Created by KiCad (PCBNEW 10.0.6) date 2026-10-05 17:48:45*
%MOMM*%
%LPD*%
G01*
G04 APERTURE LIST*
%ADD10C,0.050000*%
%ADD11C,0.200000*%
%ADD12C,0.100000*%
G04 APERTURE END LIST*
D10*
X3070000Y-4475000D02*
X3070000Y-5525000D01*
X3070000Y-4475000D02*
G75*
G02*
X3170000Y-4475000I50000J0D01*
G01*
X3170000Y-4475000D02*
X3170000Y-5525000D01*
X3170000Y-5525000D02*
G75*
G02*
X3070000Y-5525000I-50000J0D01*
G01*
X3800000Y-7245000D02*
G75*
G02*
X3900000Y-7145000I100000J0D01*
G01*
X3800000Y-7640076D02*
X3800000Y-7245000D01*
X3800000Y-7640076D02*
G75*
G02*
X6200000Y-7640076I1200000J2640076D01*
G01*
X6100000Y-7145000D02*
X3900000Y-7145000D01*
X6100000Y-7145000D02*
G75*
G02*
X6200000Y-7245000I0J-100000D01*
G01*
X6200000Y-7640076D02*
X6200000Y-7245000D01*
D11*
D12*
X2900000Y-4200000D02*
X2920000Y-4220000D01*
X2920000Y-4200000D02*
X2900000Y-4220000D01*
X3330000Y-4045000D02*
X3350000Y-4065000D01*
X3350000Y-4045000D02*
X3330000Y-4065000D01*
X3700000Y-6745000D02*
X3720000Y-6765000D01*
X3720000Y-6745000D02*
X3700000Y-6765000D01*
X3750000Y-5315000D02*
X3770000Y-5335000D01*
X3770000Y-5315000D02*
X3750000Y-5335000D01*
X3760000Y-4765000D02*
X3780000Y-4785000D01*
X3780000Y-4765000D02*
X3760000Y-4785000D01*
X3760000Y-4965000D02*
X3780000Y-4985000D01*
X3780000Y-4965000D02*
X3760000Y-4985000D01*
X3760000Y-5415000D02*
X3780000Y-5435000D01*
X3780000Y-5415000D02*
X3760000Y-5435000D01*
X3775000Y-3605000D02*
X3795000Y-3625000D01*
X3795000Y-3605000D02*
X3775000Y-3625000D01*
X3775000Y-3705000D02*
X3795000Y-3725000D01*
X3795000Y-3705000D02*
X3775000Y-3725000D01*
X3845000Y-3655000D02*
X3865000Y-3675000D01*
X3865000Y-3655000D02*
X3845000Y-3675000D01*
X3870000Y-6097000D02*
X3890000Y-6117000D01*
X3890000Y-6097000D02*
X3870000Y-6117000D01*
X3940000Y-6224000D02*
X3960000Y-6244000D01*
X3960000Y-6224000D02*
X3940000Y-6244000D01*
X3960000Y-5589000D02*
X3980000Y-5609000D01*
X3980000Y-5589000D02*
X3960000Y-5609000D01*
X3980000Y-6351000D02*
X4000000Y-6371000D01*
X4000000Y-6351000D02*
X3980000Y-6371000D01*
X3980000Y-6478000D02*
X4000000Y-6498000D01*
X4000000Y-6478000D02*
X3980000Y-6498000D01*
X3980000Y-6605000D02*
X4000000Y-6625000D01*
X4000000Y-6605000D02*
X3980000Y-6625000D01*
X4000000Y-4800000D02*
X4020000Y-4820000D01*
X4020000Y-4800000D02*
X4000000Y-4820000D01*
X4014000Y-3323000D02*
X4034000Y-3343000D01*
X4034000Y-3323000D02*
X4014000Y-3343000D01*
X4015000Y-3445000D02*
X4035000Y-3465000D01*
X4035000Y-3445000D02*
X4015000Y-3465000D01*
X4100000Y-4388800D02*
X4120000Y-4408800D01*
X4120000Y-4388800D02*
X4100000Y-4408800D01*
X4165000Y-3445000D02*
X4185000Y-3465000D01*
X4185000Y-3445000D02*
X4165000Y-3465000D01*
X4165000Y-5210000D02*
X4185000Y-5230000D01*
X4185000Y-5210000D02*
X4165000Y-5230000D01*
X4230000Y-5335000D02*
X4250000Y-5355000D01*
X4250000Y-5335000D02*
X4230000Y-5355000D01*
X4230000Y-5462000D02*
X4250000Y-5482000D01*
X4250000Y-5462000D02*
X4230000Y-5482000D01*
X4335000Y-3705000D02*
X4355000Y-3725000D01*
X4355000Y-3705000D02*
X4335000Y-3725000D01*
X4349000Y-2918000D02*
X4369000Y-2938000D01*
X4369000Y-2918000D02*
X4349000Y-2938000D01*
X4358000Y-3231000D02*
X4378000Y-3251000D01*
X4378000Y-3231000D02*
X4358000Y-3251000D01*
X4405000Y-3755000D02*
X4425000Y-3775000D01*
X4425000Y-3755000D02*
X4405000Y-3775000D01*
X4940000Y-3330000D02*
X4960000Y-3350000D01*
X4960000Y-3330000D02*
X4940000Y-3350000D01*
X4965000Y-2915000D02*
X4985000Y-2935000D01*
X4985000Y-2915000D02*
X4965000Y-2935000D01*
X5065000Y-2915000D02*
X5085000Y-2935000D01*
X5085000Y-2915000D02*
X5065000Y-2935000D01*
X5110000Y-3050000D02*
X5130000Y-3070000D01*
X5130000Y-3050000D02*
X5110000Y-3070000D01*
X5180500Y-5065000D02*
X5200500Y-5085000D01*
X5200500Y-5065000D02*
X5180500Y-5085000D01*
X5210000Y-4415000D02*
X5230000Y-4435000D01*
X5230000Y-4415000D02*
X5210000Y-4435000D01*
X5260000Y-5490000D02*
X5280000Y-5510000D01*
X5280000Y-5490000D02*
X5260000Y-5510000D01*
X5307500Y-5065000D02*
X5327500Y-5085000D01*
X5327500Y-5065000D02*
X5307500Y-5085000D01*
X5315000Y-3925000D02*
X5335000Y-3945000D01*
X5335000Y-3925000D02*
X5315000Y-3945000D01*
X5335000Y-5490000D02*
X5355000Y-5510000D01*
X5355000Y-5490000D02*
X5335000Y-5510000D01*
X5434500Y-5065000D02*
X5454500Y-5085000D01*
X5454500Y-5065000D02*
X5434500Y-5085000D01*
X5435000Y-4730000D02*
X5455000Y-4750000D01*
X5455000Y-4730000D02*
X5435000Y-4750000D01*
X5540000Y-4530000D02*
X5560000Y-4550000D01*
X5560000Y-4530000D02*
X5540000Y-4550000D01*
X5561500Y-5065000D02*
X5581500Y-5085000D01*
X5581500Y-5065000D02*
X5561500Y-5085000D01*
X5688500Y-5065000D02*
X5708500Y-5085000D01*
X5708500Y-5065000D02*
X5688500Y-5085000D01*
X5830000Y-3400000D02*
X5850000Y-3420000D01*
X5850000Y-3400000D02*
X5830000Y-3420000D01*
X5943000Y-3235000D02*
X5963000Y-3255000D01*
X5963000Y-3235000D02*
X5943000Y-3255000D01*
X5980000Y-3450000D02*
X6000000Y-3470000D01*
X6000000Y-3450000D02*
X5980000Y-3470000D01*
X6005000Y-3571000D02*
X6025000Y-3591000D01*
X6025000Y-3571000D02*
X6005000Y-3591000D01*
X6015000Y-5843000D02*
X6035000Y-5863000D01*
X6035000Y-5843000D02*
X6015000Y-5863000D01*
X6015000Y-6097000D02*
X6035000Y-6117000D01*
X6035000Y-6097000D02*
X6015000Y-6117000D01*
X6015000Y-6351000D02*
X6035000Y-6371000D01*
X6035000Y-6351000D02*
X6015000Y-6371000D01*
X6015000Y-6732000D02*
X6035000Y-6752000D01*
X6035000Y-6732000D02*
X6015000Y-6752000D01*
X6050000Y-5335000D02*
X6070000Y-5355000D01*
X6070000Y-5335000D02*
X6050000Y-5355000D01*
X6085000Y-5970000D02*
X6105000Y-5990000D01*
X6105000Y-5970000D02*
X6085000Y-5990000D01*
X6175000Y-3161000D02*
X6195000Y-3181000D01*
X6195000Y-3161000D02*
X6175000Y-3181000D01*
X6255000Y-6825000D02*
X6275000Y-6845000D01*
X6275000Y-6825000D02*
X6255000Y-6845000D01*
X6535000Y-3610000D02*
X6555000Y-3630000D01*
X6555000Y-3610000D02*
X6535000Y-3630000D01*
X6600000Y-3510000D02*
X6620000Y-3530000D01*
X6620000Y-3510000D02*
X6600000Y-3530000D01*
X6680000Y-6498000D02*
X6700000Y-6518000D01*
X6700000Y-6498000D02*
X6680000Y-6518000D01*
X7130000Y-6660000D02*
X7150000Y-6680000D01*
X7150000Y-6660000D02*
X7130000Y-6680000D01*
X7362000Y-6405000D02*
X7382000Y-6425000D01*
X7382000Y-6405000D02*
X7362000Y-6425000D01*
X3533500Y-4093500D02*
G75*
G02*
X3513500Y-4093500I-10000J0D01*
G01*
X3513500Y-4093500D02*
G75*
G02*
X3533500Y-4093500I10000J0D01*
G01*
X3533500Y-4166500D02*
G75*
G02*
X3513500Y-4166500I-10000J0D01*
G01*
X3513500Y-4166500D02*
G75*
G02*
X3533500Y-4166500I10000J0D01*
G01*
X3606500Y-4093500D02*
G75*
G02*
X3586500Y-4093500I-10000J0D01*
G01*
X3586500Y-4093500D02*
G75*
G02*
X3606500Y-4093500I10000J0D01*
G01*
X3606500Y-4166500D02*
G75*
G02*
X3586500Y-4166500I-10000J0D01*
G01*
X3586500Y-4166500D02*
G75*
G02*
X3606500Y-4166500I10000J0D01*
G01*
X4062500Y-3642500D02*
G75*
G02*
X4042500Y-3642500I-10000J0D01*
G01*
X4042500Y-3642500D02*
G75*
G02*
X4062500Y-3642500I10000J0D01*
G01*
X4062500Y-3737500D02*
G75*
G02*
X4042500Y-3737500I-10000J0D01*
G01*
X4042500Y-3737500D02*
G75*
G02*
X4062500Y-3737500I10000J0D01*
G01*
X4157500Y-3642500D02*
G75*
G02*
X4137500Y-3642500I-10000J0D01*
G01*
X4137500Y-3642500D02*
G75*
G02*
X4157500Y-3642500I10000J0D01*
G01*
X4157500Y-3737500D02*
G75*
G02*
X4137500Y-3737500I-10000J0D01*
G01*
X4137500Y-3737500D02*
G75*
G02*
X4157500Y-3737500I10000J0D01*
G01*
X4720000Y-6154000D02*
G75*
G02*
X4700000Y-6154000I-10000J0D01*
G01*
X4700000Y-6154000D02*
G75*
G02*
X4720000Y-6154000I10000J0D01*
G01*
X4720000Y-6294000D02*
G75*
G02*
X4700000Y-6294000I-10000J0D01*
G01*
X4700000Y-6294000D02*
G75*
G02*
X4720000Y-6294000I10000J0D01*
G01*
X4790000Y-6084000D02*
G75*
G02*
X4770000Y-6084000I-10000J0D01*
G01*
X4770000Y-6084000D02*
G75*
G02*
X4790000Y-6084000I10000J0D01*
G01*
X4790000Y-6224000D02*
G75*
G02*
X4770000Y-6224000I-10000J0D01*
G01*
X4770000Y-6224000D02*
G75*
G02*
X4790000Y-6224000I10000J0D01*
G01*
X4790000Y-6364000D02*
G75*
G02*
X4770000Y-6364000I-10000J0D01*
G01*
X4770000Y-6364000D02*
G75*
G02*
X4790000Y-6364000I10000J0D01*
G01*
X4860000Y-6154000D02*
G75*
G02*
X4840000Y-6154000I-10000J0D01*
G01*
X4840000Y-6154000D02*
G75*
G02*
X4860000Y-6154000I10000J0D01*
G01*
X4860000Y-6294000D02*
G75*
G02*
X4840000Y-6294000I-10000J0D01*
G01*
X4840000Y-6294000D02*
G75*
G02*
X4860000Y-6294000I10000J0D01*
G01*
X4930000Y-6084000D02*
G75*
G02*
X4910000Y-6084000I-10000J0D01*
G01*
X4910000Y-6084000D02*
G75*
G02*
X4930000Y-6084000I10000J0D01*
G01*
X4930000Y-6224000D02*
G75*
G02*
X4910000Y-6224000I-10000J0D01*
G01*
X4910000Y-6224000D02*
G75*
G02*
X4930000Y-6224000I10000J0D01*
G01*
X4930000Y-6364000D02*
G75*
G02*
X4910000Y-6364000I-10000J0D01*
G01*
X4910000Y-6364000D02*
G75*
G02*
X4930000Y-6364000I10000J0D01*
G01*
X5000000Y-6154000D02*
G75*
G02*
X4980000Y-6154000I-10000J0D01*
G01*
X4980000Y-6154000D02*
G75*
G02*
X5000000Y-6154000I10000J0D01*
G01*
X5000000Y-6294000D02*
G75*
G02*
X4980000Y-6294000I-10000J0D01*
G01*
X4980000Y-6294000D02*
G75*
G02*
X5000000Y-6294000I10000J0D01*
G01*
X5892000Y-3763500D02*
G75*
G02*
X5872000Y-3763500I-10000J0D01*
G01*
X5872000Y-3763500D02*
G75*
G02*
X5892000Y-3763500I10000J0D01*
G01*
X5892000Y-3881500D02*
G75*
G02*
X5872000Y-3881500I-10000J0D01*
G01*
X5872000Y-3881500D02*
G75*
G02*
X5892000Y-3881500I10000J0D01*
G01*
X6010000Y-3763500D02*
G75*
G02*
X5990000Y-3763500I-10000J0D01*
G01*
X5990000Y-3763500D02*
G75*
G02*
X6010000Y-3763500I10000J0D01*
G01*
X6010000Y-3881500D02*
G75*
G02*
X5990000Y-3881500I-10000J0D01*
G01*
X5990000Y-3881500D02*
G75*
G02*
X6010000Y-3881500I10000J0D01*
G01*
X2700000Y-4785000D02*
X2700000Y-4815000D01*
X2685000Y-4800000D02*
X2715000Y-4800000D01*
X2725412Y-6548281D02*
X2725412Y-6578281D01*
X2710412Y-6563281D02*
X2740412Y-6563281D01*
X2760000Y-5995000D02*
X2760000Y-6025000D01*
X2745000Y-6010000D02*
X2775000Y-6010000D01*
X2767113Y-3362713D02*
X2767113Y-3392713D01*
X2752113Y-3377713D02*
X2782113Y-3377713D01*
X2948920Y-6831800D02*
X2948920Y-6861800D01*
X2933920Y-6846800D02*
X2963920Y-6846800D01*
X3030000Y-3865000D02*
X3030000Y-3895000D01*
X3015000Y-3880000D02*
X3045000Y-3880000D01*
X3100000Y-5715000D02*
X3100000Y-5745000D01*
X3085000Y-5730000D02*
X3115000Y-5730000D01*
X3207523Y-7083720D02*
X3207523Y-7113720D01*
X3192523Y-7098720D02*
X3222523Y-7098720D01*
X3300000Y-5750000D02*
X3300000Y-5780000D01*
X3285000Y-5765000D02*
X3315000Y-5765000D01*
X3355000Y-6365000D02*
X3355000Y-6395000D01*
X3340000Y-6380000D02*
X3370000Y-6380000D01*
X3425000Y-5860000D02*
X3425000Y-5890000D01*
X3410000Y-5875000D02*
X3440000Y-5875000D01*
X3470000Y-5752000D02*
X3470000Y-5782000D01*
X3455000Y-5767000D02*
X3485000Y-5767000D01*
X3482500Y-6875000D02*
X3482500Y-6905000D01*
X3467500Y-6890000D02*
X3497500Y-6890000D01*
X3520000Y-3567000D02*
X3520000Y-3597000D01*
X3505000Y-3582000D02*
X3535000Y-3582000D01*
X3557904Y-2631713D02*
X3557904Y-2661713D01*
X3542904Y-2646713D02*
X3572904Y-2646713D01*
X3610000Y-3900000D02*
X3610000Y-3930000D01*
X3595000Y-3915000D02*
X3625000Y-3915000D01*
X3635000Y-4360000D02*
X3635000Y-4390000D01*
X3620000Y-4375000D02*
X3650000Y-4375000D01*
X3638211Y-3574289D02*
X3638211Y-3604289D01*
X3623211Y-3589289D02*
X3653211Y-3589289D01*
X3640000Y-2779100D02*
X3640000Y-2809100D01*
X3625000Y-2794100D02*
X3655000Y-2794100D01*
X3665100Y-3355400D02*
X3665100Y-3385400D01*
X3650100Y-3370400D02*
X3680100Y-3370400D01*
X3680000Y-6265000D02*
X3680000Y-6295000D01*
X3665000Y-6280000D02*
X3695000Y-6280000D01*
X3692000Y-3700000D02*
X3692000Y-3730000D01*
X3677000Y-3715000D02*
X3707000Y-3715000D01*
X3718289Y-5894711D02*
X3718289Y-5924711D01*
X3703289Y-5909711D02*
X3733289Y-5909711D01*
X3731005Y-6543005D02*
X3731005Y-6573005D01*
X3716005Y-6558005D02*
X3746005Y-6558005D01*
X3755000Y-2775000D02*
X3755000Y-2805000D01*
X3740000Y-2790000D02*
X3770000Y-2790000D01*
X3760000Y-6960000D02*
X3760000Y-6990000D01*
X3745000Y-6975000D02*
X3775000Y-6975000D01*
X3792000Y-5494000D02*
X3792000Y-5524000D01*
X3777000Y-5509000D02*
X3807000Y-5509000D01*
X3797528Y-3214715D02*
X3797528Y-3244715D01*
X3782528Y-3229715D02*
X3812528Y-3229715D01*
X3826200Y-3338000D02*
X3826200Y-3368000D01*
X3811200Y-3353000D02*
X3841200Y-3353000D01*
X3835000Y-3480000D02*
X3835000Y-3510000D01*
X3820000Y-3495000D02*
X3850000Y-3495000D01*
X3839971Y-3064080D02*
X3839971Y-3094080D01*
X3824971Y-3079080D02*
X3854971Y-3079080D01*
X3885000Y-6854000D02*
X3885000Y-6884000D01*
X3870000Y-6869000D02*
X3900000Y-6869000D01*
X3911076Y-3027405D02*
X3911076Y-3057405D01*
X3896076Y-3042405D02*
X3926076Y-3042405D01*
X3915086Y-3515351D02*
X3915086Y-3545351D01*
X3900086Y-3530351D02*
X3930086Y-3530351D01*
X3961360Y-3901360D02*
X3961360Y-3931360D01*
X3946360Y-3916360D02*
X3976360Y-3916360D01*
X3980000Y-5775000D02*
X3980000Y-5805000D01*
X3965000Y-5790000D02*
X3995000Y-5790000D01*
X3981640Y-5358640D02*
X3981640Y-5388640D01*
X3966640Y-5373640D02*
X3996640Y-5373640D01*
X4005000Y-4523750D02*
X4005000Y-4553750D01*
X3990000Y-4538750D02*
X4020000Y-4538750D01*
X4060000Y-2930000D02*
X4060000Y-2960000D01*
X4045000Y-2945000D02*
X4075000Y-2945000D01*
X4070000Y-4210000D02*
X4070000Y-4240000D01*
X4055000Y-4225000D02*
X4085000Y-4225000D01*
X4105000Y-4287800D02*
X4105000Y-4317800D01*
X4090000Y-4302800D02*
X4120000Y-4302800D01*
X4160147Y-4801103D02*
X4160147Y-4831103D01*
X4145147Y-4816103D02*
X4175147Y-4816103D01*
X4200000Y-3220000D02*
X4200000Y-3250000D01*
X4185000Y-3235000D02*
X4215000Y-3235000D01*
X4210000Y-3965000D02*
X4210000Y-3995000D01*
X4195000Y-3980000D02*
X4225000Y-3980000D01*
X4240000Y-2465000D02*
X4240000Y-2495000D01*
X4225000Y-2480000D02*
X4255000Y-2480000D01*
X4240072Y-3064484D02*
X4240072Y-3094484D01*
X4225072Y-3079484D02*
X4255072Y-3079484D01*
X4375000Y-4523750D02*
X4375000Y-4553750D01*
X4360000Y-4538750D02*
X4390000Y-4538750D01*
X4375000Y-4716250D02*
X4375000Y-4746250D01*
X4360000Y-4731250D02*
X4390000Y-4731250D01*
X4380000Y-5335000D02*
X4380000Y-5365000D01*
X4365000Y-5350000D02*
X4395000Y-5350000D01*
X4400000Y-6985000D02*
X4400000Y-7015000D01*
X4385000Y-7000000D02*
X4415000Y-7000000D01*
X4440000Y-4200000D02*
X4440000Y-4230000D01*
X4425000Y-4215000D02*
X4455000Y-4215000D01*
X4470000Y-3265000D02*
X4470000Y-3295000D01*
X4455000Y-3280000D02*
X4485000Y-3280000D01*
X4485000Y-3465000D02*
X4485000Y-3495000D01*
X4470000Y-3480000D02*
X4500000Y-3480000D01*
X4545000Y-3190000D02*
X4545000Y-3220000D01*
X4530000Y-3205000D02*
X4560000Y-3205000D01*
X4562000Y-3530000D02*
X4562000Y-3560000D01*
X4547000Y-3545000D02*
X4577000Y-3545000D01*
X4710000Y-3780000D02*
X4710000Y-3810000D01*
X4695000Y-3795000D02*
X4725000Y-3795000D01*
X4715000Y-3305000D02*
X4715000Y-3335000D01*
X4700000Y-3320000D02*
X4730000Y-3320000D01*
X4755000Y-2930000D02*
X4755000Y-2960000D01*
X4740000Y-2945000D02*
X4770000Y-2945000D01*
X4770000Y-3700000D02*
X4770000Y-3730000D01*
X4755000Y-3715000D02*
X4785000Y-3715000D01*
X4889000Y-3720000D02*
X4889000Y-3750000D01*
X4874000Y-3735000D02*
X4904000Y-3735000D01*
X4966000Y-4040000D02*
X4966000Y-4070000D01*
X4951000Y-4055000D02*
X4981000Y-4055000D01*
X4975000Y-5365000D02*
X4975000Y-5395000D01*
X4960000Y-5380000D02*
X4990000Y-5380000D01*
X5000000Y-2225000D02*
X5000000Y-2255000D01*
X4985000Y-2240000D02*
X5015000Y-2240000D01*
X5043000Y-3720000D02*
X5043000Y-3750000D01*
X5028000Y-3735000D02*
X5058000Y-3735000D01*
X5050000Y-4186000D02*
X5050000Y-4216000D01*
X5035000Y-4201000D02*
X5065000Y-4201000D01*
X5082000Y-5910000D02*
X5082000Y-5940000D01*
X5067000Y-5925000D02*
X5097000Y-5925000D01*
X5110000Y-5610000D02*
X5110000Y-5640000D01*
X5095000Y-5625000D02*
X5125000Y-5625000D01*
X5179289Y-4256711D02*
X5179289Y-4286711D01*
X5164289Y-4271711D02*
X5194289Y-4271711D01*
X5300000Y-6885000D02*
X5300000Y-6915000D01*
X5285000Y-6900000D02*
X5315000Y-6900000D01*
X5320000Y-3165000D02*
X5320000Y-3195000D01*
X5305000Y-3180000D02*
X5335000Y-3180000D01*
X5352000Y-5910000D02*
X5352000Y-5940000D01*
X5337000Y-5925000D02*
X5367000Y-5925000D01*
X5390000Y-4403000D02*
X5390000Y-4433000D01*
X5375000Y-4418000D02*
X5405000Y-4418000D01*
X5400000Y-4265000D02*
X5400000Y-4295000D01*
X5385000Y-4280000D02*
X5415000Y-4280000D01*
X5460000Y-4920000D02*
X5460000Y-4950000D01*
X5445000Y-4935000D02*
X5475000Y-4935000D01*
X5470000Y-4835000D02*
X5470000Y-4865000D01*
X5455000Y-4850000D02*
X5485000Y-4850000D01*
X5525000Y-3647500D02*
X5525000Y-3677500D01*
X5510000Y-3662500D02*
X5540000Y-3662500D01*
X5600000Y-4255000D02*
X5600000Y-4285000D01*
X5585000Y-4270000D02*
X5615000Y-4270000D01*
X5610000Y-2915000D02*
X5610000Y-2945000D01*
X5595000Y-2930000D02*
X5625000Y-2930000D01*
X5610000Y-3160000D02*
X5610000Y-3190000D01*
X5595000Y-3175000D02*
X5625000Y-3175000D01*
X5620000Y-5910000D02*
X5620000Y-5940000D01*
X5605000Y-5925000D02*
X5635000Y-5925000D01*
X5662700Y-2755000D02*
X5662700Y-2785000D01*
X5647700Y-2770000D02*
X5677700Y-2770000D01*
X5705000Y-3740000D02*
X5705000Y-3770000D01*
X5690000Y-3755000D02*
X5720000Y-3755000D01*
X5705000Y-3830000D02*
X5705000Y-3860000D01*
X5690000Y-3845000D02*
X5720000Y-3845000D01*
X5775000Y-2700000D02*
X5775000Y-2730000D01*
X5760000Y-2715000D02*
X5790000Y-2715000D01*
X5805000Y-5205000D02*
X5805000Y-5235000D01*
X5790000Y-5220000D02*
X5820000Y-5220000D01*
X5820300Y-3113200D02*
X5820300Y-3143200D01*
X5805300Y-3128200D02*
X5835300Y-3128200D01*
X5865000Y-2828750D02*
X5865000Y-2858750D01*
X5850000Y-2843750D02*
X5880000Y-2843750D01*
X5866000Y-4235000D02*
X5866000Y-4265000D01*
X5851000Y-4250000D02*
X5881000Y-4250000D01*
X5880000Y-4500000D02*
X5880000Y-4530000D01*
X5865000Y-4515000D02*
X5895000Y-4515000D01*
X5885000Y-5060000D02*
X5885000Y-5090000D01*
X5870000Y-5075000D02*
X5900000Y-5075000D01*
X5910000Y-4840000D02*
X5910000Y-4870000D01*
X5895000Y-4855000D02*
X5925000Y-4855000D01*
X5956900Y-2991100D02*
X5956900Y-3021100D01*
X5941900Y-3006100D02*
X5971900Y-3006100D01*
X5960000Y-2625000D02*
X5960000Y-2655000D01*
X5945000Y-2640000D02*
X5975000Y-2640000D01*
X5960000Y-5134000D02*
X5960000Y-5164000D01*
X5945000Y-5149000D02*
X5975000Y-5149000D01*
X6010000Y-6926000D02*
X6010000Y-6956000D01*
X5995000Y-6941000D02*
X6025000Y-6941000D01*
X6050000Y-3385000D02*
X6050000Y-3415000D01*
X6035000Y-3400000D02*
X6065000Y-3400000D01*
X6060000Y-4206000D02*
X6060000Y-4236000D01*
X6045000Y-4221000D02*
X6075000Y-4221000D01*
X6170000Y-5287000D02*
X6170000Y-5317000D01*
X6155000Y-5302000D02*
X6185000Y-5302000D01*
X6200000Y-3055000D02*
X6200000Y-3085000D01*
X6185000Y-3070000D02*
X6215000Y-3070000D01*
X6200000Y-6665000D02*
X6200000Y-6695000D01*
X6185000Y-6680000D02*
X6215000Y-6680000D01*
X6207610Y-3391360D02*
X6207610Y-3421360D01*
X6192610Y-3406360D02*
X6222610Y-3406360D01*
X6210000Y-4140000D02*
X6210000Y-4170000D01*
X6195000Y-4155000D02*
X6225000Y-4155000D01*
X6215000Y-2766700D02*
X6215000Y-2796700D01*
X6200000Y-2781700D02*
X6230000Y-2781700D01*
X6235000Y-5530000D02*
X6235000Y-5560000D01*
X6220000Y-5545000D02*
X6250000Y-5545000D01*
X6245000Y-5320000D02*
X6245000Y-5350000D01*
X6230000Y-5335000D02*
X6260000Y-5335000D01*
X6245000Y-6125000D02*
X6245000Y-6155000D01*
X6230000Y-6140000D02*
X6260000Y-6140000D01*
X6287500Y-3700000D02*
X6287500Y-3730000D01*
X6272500Y-3715000D02*
X6302500Y-3715000D01*
X6327000Y-5417000D02*
X6327000Y-5447000D01*
X6312000Y-5432000D02*
X6342000Y-5432000D01*
X6340000Y-5645000D02*
X6340000Y-5675000D01*
X6325000Y-5660000D02*
X6355000Y-5660000D01*
X6360000Y-6747000D02*
X6360000Y-6777000D01*
X6345000Y-6762000D02*
X6375000Y-6762000D01*
X6365000Y-3700000D02*
X6365000Y-3730000D01*
X6350000Y-3715000D02*
X6380000Y-3715000D01*
X6380000Y-2594770D02*
X6380000Y-2624770D01*
X6365000Y-2609770D02*
X6395000Y-2609770D01*
X6385000Y-2980000D02*
X6385000Y-3010000D01*
X6370000Y-2995000D02*
X6400000Y-2995000D01*
X6398800Y-3335000D02*
X6398800Y-3365000D01*
X6383800Y-3350000D02*
X6413800Y-3350000D01*
X6465000Y-6240000D02*
X6465000Y-6270000D01*
X6450000Y-6255000D02*
X6480000Y-6255000D01*
X6468750Y-3385000D02*
X6468750Y-3415000D01*
X6453750Y-3400000D02*
X6483750Y-3400000D01*
X6505000Y-3675000D02*
X6505000Y-3705000D01*
X6490000Y-3690000D02*
X6520000Y-3690000D01*
X6517500Y-3195000D02*
X6517500Y-3225000D01*
X6502500Y-3210000D02*
X6532500Y-3210000D01*
X6537500Y-3807000D02*
X6537500Y-3837000D01*
X6522500Y-3822000D02*
X6552500Y-3822000D01*
X6565000Y-7005000D02*
X6565000Y-7035000D01*
X6550000Y-7020000D02*
X6580000Y-7020000D01*
X6585000Y-5905000D02*
X6585000Y-5935000D01*
X6570000Y-5920000D02*
X6600000Y-5920000D01*
X6690000Y-6620000D02*
X6690000Y-6650000D01*
X6675000Y-6635000D02*
X6705000Y-6635000D01*
X6785000Y-4988000D02*
X6785000Y-5018000D01*
X6770000Y-5003000D02*
X6800000Y-5003000D01*
X6805000Y-4015000D02*
X6805000Y-4045000D01*
X6790000Y-4030000D02*
X6820000Y-4030000D01*
X6840000Y-6425000D02*
X6840000Y-6455000D01*
X6825000Y-6440000D02*
X6855000Y-6440000D01*
X6846800Y-7036080D02*
X6846800Y-7066080D01*
X6831800Y-7051080D02*
X6861800Y-7051080D01*
X6851700Y-6327100D02*
X6851700Y-6357100D01*
X6836700Y-6342100D02*
X6866700Y-6342100D01*
X6948508Y-5651508D02*
X6948508Y-5681508D01*
X6933508Y-5666508D02*
X6963508Y-5666508D01*
X6950000Y-6588200D02*
X6950000Y-6618200D01*
X6935000Y-6603200D02*
X6965000Y-6603200D01*
X6970000Y-4282500D02*
X6970000Y-4312500D01*
X6955000Y-4297500D02*
X6985000Y-4297500D01*
X7000400Y-6074600D02*
X7000400Y-6104600D01*
X6985400Y-6089600D02*
X7015400Y-6089600D01*
X7026000Y-4565000D02*
X7026000Y-4595000D01*
X7011000Y-4580000D02*
X7041000Y-4580000D01*
X7037700Y-6417100D02*
X7037700Y-6447100D01*
X7022700Y-6432100D02*
X7052700Y-6432100D01*
X7065000Y-6650000D02*
X7065000Y-6680000D01*
X7050000Y-6665000D02*
X7080000Y-6665000D01*
X7120000Y-4413500D02*
X7120000Y-4443500D01*
X7105000Y-4428500D02*
X7135000Y-4428500D01*
X7125000Y-6160000D02*
X7125000Y-6190000D01*
X7110000Y-6175000D02*
X7140000Y-6175000D01*
X7207000Y-6371000D02*
X7207000Y-6401000D01*
X7192000Y-6386000D02*
X7222000Y-6386000D01*
X7220000Y-5320000D02*
X7220000Y-5350000D01*
X7205000Y-5335000D02*
X7235000Y-5335000D01*
X7235000Y-5175000D02*
X7235000Y-5205000D01*
X7220000Y-5190000D02*
X7250000Y-5190000D01*
X7250040Y-6010960D02*
X7250040Y-6040960D01*
X7235040Y-6025960D02*
X7265040Y-6025960D01*
X7274588Y-3421719D02*
X7274588Y-3451719D01*
X7259588Y-3436719D02*
X7289588Y-3436719D01*
X7279800Y-4104800D02*
X7279800Y-4134800D01*
X7264800Y-4119800D02*
X7294800Y-4119800D01*
X7311159Y-6450162D02*
X7311159Y-6480162D01*
X7296159Y-6465162D02*
X7326159Y-6465162D01*
X7325000Y-4180000D02*
X7325000Y-4210000D01*
X7310000Y-4195000D02*
X7340000Y-4195000D01*
X7330000Y-5747000D02*
X7330000Y-5777000D01*
X7315000Y-5762000D02*
X7345000Y-5762000D01*
X7360000Y-5425000D02*
X7360000Y-5455000D01*
X7345000Y-5440000D02*
X7375000Y-5440000D01*
X7437217Y-6317099D02*
X7437217Y-6347099D01*
X7422217Y-6332099D02*
X7452217Y-6332099D01*
X7437500Y-4495000D02*
X7437500Y-4525000D01*
X7422500Y-4510000D02*
X7452500Y-4510000D01*
X2460851Y-3980439D02*
X2460851Y-3959225D01*
X2439638Y-3959225D01*
X2439638Y-3980439D01*
X2460851Y-3980439D01*
X2460851Y-6040775D02*
X2460851Y-6019561D01*
X2439638Y-6019561D01*
X2439638Y-6040775D01*
X2460851Y-6040775D01*
X7560362Y-3980439D02*
X7560362Y-3959225D01*
X7539149Y-3959225D01*
X7539149Y-3980439D01*
X7560362Y-3980439D01*
X7560362Y-6040775D02*
X7560362Y-6019561D01*
X7539149Y-6019561D01*
X7539149Y-6040775D01*
X7560362Y-6040775D01*
X4568000Y-2330000D02*
X4598000Y-2300000D01*
X4568000Y-2270000D01*
X4538000Y-2300000D01*
X4568000Y-2330000D01*
X4538000Y-2270000D02*
X4538000Y-2330000D01*
X4598000Y-2330000D02*
G75*
G02*
X4538000Y-2330000I-30000J0D01*
G01*
X4598000Y-2330000D02*
X4598000Y-2270000D01*
X4598000Y-2270000D02*
G75*
G03*
X4538000Y-2270000I-30000J0D01*
G01*
X4568000Y-2748000D02*
X4598000Y-2718000D01*
X4568000Y-2688000D01*
X4538000Y-2718000D01*
X4568000Y-2748000D01*
X4538000Y-2663000D02*
X4538000Y-2773000D01*
X4598000Y-2773000D02*
G75*
G02*
X4538000Y-2773000I-30000J0D01*
G01*
X4598000Y-2773000D02*
X4598000Y-2663000D01*
X4598000Y-2663000D02*
G75*
G03*
X4538000Y-2663000I-30000J0D01*
G01*
X5432000Y-2330000D02*
X5462000Y-2300000D01*
X5432000Y-2270000D01*
X5402000Y-2300000D01*
X5432000Y-2330000D01*
X5402000Y-2270000D02*
X5402000Y-2330000D01*
X5462000Y-2330000D02*
G75*
G02*
X5402000Y-2330000I-30000J0D01*
G01*
X5462000Y-2330000D02*
X5462000Y-2270000D01*
X5462000Y-2270000D02*
G75*
G03*
X5402000Y-2270000I-30000J0D01*
G01*
X5432000Y-2748000D02*
X5462000Y-2718000D01*
X5432000Y-2688000D01*
X5402000Y-2718000D01*
X5432000Y-2748000D01*
X5402000Y-2663000D02*
X5402000Y-2773000D01*
X5462000Y-2773000D02*
G75*
G02*
X5402000Y-2773000I-30000J0D01*
G01*
X5462000Y-2773000D02*
X5462000Y-2663000D01*
X5462000Y-2663000D02*
G75*
G03*
X5402000Y-2663000I-30000J0D01*
G01*
D11*
X2358277Y-7954060D02*
X2358277Y-7754060D01*
X2358277Y-7754060D02*
X2405896Y-7754060D01*
X2405896Y-7754060D02*
X2434467Y-7763583D01*
X2434467Y-7763583D02*
X2453515Y-7782631D01*
X2453515Y-7782631D02*
X2463039Y-7801679D01*
X2463039Y-7801679D02*
X2472563Y-7839774D01*
X2472563Y-7839774D02*
X2472563Y-7868345D01*
X2472563Y-7868345D02*
X2463039Y-7906440D01*
X2463039Y-7906440D02*
X2453515Y-7925488D01*
X2453515Y-7925488D02*
X2434467Y-7944536D01*
X2434467Y-7944536D02*
X2405896Y-7954060D01*
X2405896Y-7954060D02*
X2358277Y-7954060D01*
X2558277Y-7954060D02*
X2558277Y-7820726D01*
X2558277Y-7858821D02*
X2567801Y-7839774D01*
X2567801Y-7839774D02*
X2577324Y-7830250D01*
X2577324Y-7830250D02*
X2596372Y-7820726D01*
X2596372Y-7820726D02*
X2615420Y-7820726D01*
X2682086Y-7954060D02*
X2682086Y-7820726D01*
X2682086Y-7754060D02*
X2672563Y-7763583D01*
X2672563Y-7763583D02*
X2682086Y-7773107D01*
X2682086Y-7773107D02*
X2691610Y-7763583D01*
X2691610Y-7763583D02*
X2682086Y-7754060D01*
X2682086Y-7754060D02*
X2682086Y-7773107D01*
X2805896Y-7954060D02*
X2786848Y-7944536D01*
X2786848Y-7944536D02*
X2777324Y-7925488D01*
X2777324Y-7925488D02*
X2777324Y-7754060D01*
X2910658Y-7954060D02*
X2891610Y-7944536D01*
X2891610Y-7944536D02*
X2882086Y-7925488D01*
X2882086Y-7925488D02*
X2882086Y-7754060D01*
X3139229Y-7954060D02*
X3139229Y-7754060D01*
X3139229Y-7754060D02*
X3205896Y-7896917D01*
X3205896Y-7896917D02*
X3272562Y-7754060D01*
X3272562Y-7754060D02*
X3272562Y-7954060D01*
X3453515Y-7954060D02*
X3453515Y-7849298D01*
X3453515Y-7849298D02*
X3443991Y-7830250D01*
X3443991Y-7830250D02*
X3424943Y-7820726D01*
X3424943Y-7820726D02*
X3386848Y-7820726D01*
X3386848Y-7820726D02*
X3367801Y-7830250D01*
X3453515Y-7944536D02*
X3434467Y-7954060D01*
X3434467Y-7954060D02*
X3386848Y-7954060D01*
X3386848Y-7954060D02*
X3367801Y-7944536D01*
X3367801Y-7944536D02*
X3358277Y-7925488D01*
X3358277Y-7925488D02*
X3358277Y-7906440D01*
X3358277Y-7906440D02*
X3367801Y-7887393D01*
X3367801Y-7887393D02*
X3386848Y-7877869D01*
X3386848Y-7877869D02*
X3434467Y-7877869D01*
X3434467Y-7877869D02*
X3453515Y-7868345D01*
X3548753Y-7820726D02*
X3548753Y-8020726D01*
X3548753Y-7830250D02*
X3567801Y-7820726D01*
X3567801Y-7820726D02*
X3605896Y-7820726D01*
X3605896Y-7820726D02*
X3624943Y-7830250D01*
X3624943Y-7830250D02*
X3634467Y-7839774D01*
X3634467Y-7839774D02*
X3643991Y-7858821D01*
X3643991Y-7858821D02*
X3643991Y-7915964D01*
X3643991Y-7915964D02*
X3634467Y-7935012D01*
X3634467Y-7935012D02*
X3624943Y-7944536D01*
X3624943Y-7944536D02*
X3605896Y-7954060D01*
X3605896Y-7954060D02*
X3567801Y-7954060D01*
X3567801Y-7954060D02*
X3548753Y-7944536D01*
X3729705Y-7935012D02*
X3739229Y-7944536D01*
X3739229Y-7944536D02*
X3729705Y-7954060D01*
X3729705Y-7954060D02*
X3720182Y-7944536D01*
X3720182Y-7944536D02*
X3729705Y-7935012D01*
X3729705Y-7935012D02*
X3729705Y-7954060D01*
X3729705Y-7830250D02*
X3739229Y-7839774D01*
X3739229Y-7839774D02*
X3729705Y-7849298D01*
X3729705Y-7849298D02*
X3720182Y-7839774D01*
X3720182Y-7839774D02*
X3729705Y-7830250D01*
X3729705Y-7830250D02*
X3729705Y-7849298D01*
D12*
X2077500Y-8272576D02*
X2097500Y-8292576D01*
X2097500Y-8272576D02*
X2077500Y-8292576D01*
D11*
X2396372Y-8174060D02*
X2415420Y-8174060D01*
X2415420Y-8174060D02*
X2434467Y-8183583D01*
X2434467Y-8183583D02*
X2443991Y-8193107D01*
X2443991Y-8193107D02*
X2453515Y-8212155D01*
X2453515Y-8212155D02*
X2463039Y-8250250D01*
X2463039Y-8250250D02*
X2463039Y-8297869D01*
X2463039Y-8297869D02*
X2453515Y-8335964D01*
X2453515Y-8335964D02*
X2443991Y-8355012D01*
X2443991Y-8355012D02*
X2434467Y-8364536D01*
X2434467Y-8364536D02*
X2415420Y-8374060D01*
X2415420Y-8374060D02*
X2396372Y-8374060D01*
X2396372Y-8374060D02*
X2377324Y-8364536D01*
X2377324Y-8364536D02*
X2367801Y-8355012D01*
X2367801Y-8355012D02*
X2358277Y-8335964D01*
X2358277Y-8335964D02*
X2348753Y-8297869D01*
X2348753Y-8297869D02*
X2348753Y-8250250D01*
X2348753Y-8250250D02*
X2358277Y-8212155D01*
X2358277Y-8212155D02*
X2367801Y-8193107D01*
X2367801Y-8193107D02*
X2377324Y-8183583D01*
X2377324Y-8183583D02*
X2396372Y-8174060D01*
X2548753Y-8355012D02*
X2558277Y-8364536D01*
X2558277Y-8364536D02*
X2548753Y-8374060D01*
X2548753Y-8374060D02*
X2539229Y-8364536D01*
X2539229Y-8364536D02*
X2548753Y-8355012D01*
X2548753Y-8355012D02*
X2548753Y-8374060D01*
X2634467Y-8193107D02*
X2643991Y-8183583D01*
X2643991Y-8183583D02*
X2663039Y-8174060D01*
X2663039Y-8174060D02*
X2710658Y-8174060D01*
X2710658Y-8174060D02*
X2729705Y-8183583D01*
X2729705Y-8183583D02*
X2739229Y-8193107D01*
X2739229Y-8193107D02*
X2748753Y-8212155D01*
X2748753Y-8212155D02*
X2748753Y-8231202D01*
X2748753Y-8231202D02*
X2739229Y-8259774D01*
X2739229Y-8259774D02*
X2624944Y-8374060D01*
X2624944Y-8374060D02*
X2748753Y-8374060D01*
X2872562Y-8174060D02*
X2891610Y-8174060D01*
X2891610Y-8174060D02*
X2910658Y-8183583D01*
X2910658Y-8183583D02*
X2920182Y-8193107D01*
X2920182Y-8193107D02*
X2929705Y-8212155D01*
X2929705Y-8212155D02*
X2939229Y-8250250D01*
X2939229Y-8250250D02*
X2939229Y-8297869D01*
X2939229Y-8297869D02*
X2929705Y-8335964D01*
X2929705Y-8335964D02*
X2920182Y-8355012D01*
X2920182Y-8355012D02*
X2910658Y-8364536D01*
X2910658Y-8364536D02*
X2891610Y-8374060D01*
X2891610Y-8374060D02*
X2872562Y-8374060D01*
X2872562Y-8374060D02*
X2853515Y-8364536D01*
X2853515Y-8364536D02*
X2843991Y-8355012D01*
X2843991Y-8355012D02*
X2834467Y-8335964D01*
X2834467Y-8335964D02*
X2824943Y-8297869D01*
X2824943Y-8297869D02*
X2824943Y-8250250D01*
X2824943Y-8250250D02*
X2834467Y-8212155D01*
X2834467Y-8212155D02*
X2843991Y-8193107D01*
X2843991Y-8193107D02*
X2853515Y-8183583D01*
X2853515Y-8183583D02*
X2872562Y-8174060D01*
X3063039Y-8174060D02*
X3082086Y-8174060D01*
X3082086Y-8174060D02*
X3101134Y-8183583D01*
X3101134Y-8183583D02*
X3110658Y-8193107D01*
X3110658Y-8193107D02*
X3120182Y-8212155D01*
X3120182Y-8212155D02*
X3129705Y-8250250D01*
X3129705Y-8250250D02*
X3129705Y-8297869D01*
X3129705Y-8297869D02*
X3120182Y-8335964D01*
X3120182Y-8335964D02*
X3110658Y-8355012D01*
X3110658Y-8355012D02*
X3101134Y-8364536D01*
X3101134Y-8364536D02*
X3082086Y-8374060D01*
X3082086Y-8374060D02*
X3063039Y-8374060D01*
X3063039Y-8374060D02*
X3043991Y-8364536D01*
X3043991Y-8364536D02*
X3034467Y-8355012D01*
X3034467Y-8355012D02*
X3024943Y-8335964D01*
X3024943Y-8335964D02*
X3015420Y-8297869D01*
X3015420Y-8297869D02*
X3015420Y-8250250D01*
X3015420Y-8250250D02*
X3024943Y-8212155D01*
X3024943Y-8212155D02*
X3034467Y-8193107D01*
X3034467Y-8193107D02*
X3043991Y-8183583D01*
X3043991Y-8183583D02*
X3063039Y-8174060D01*
X3215420Y-8374060D02*
X3215420Y-8240726D01*
X3215420Y-8259774D02*
X3224943Y-8250250D01*
X3224943Y-8250250D02*
X3243991Y-8240726D01*
X3243991Y-8240726D02*
X3272563Y-8240726D01*
X3272563Y-8240726D02*
X3291610Y-8250250D01*
X3291610Y-8250250D02*
X3301134Y-8269298D01*
X3301134Y-8269298D02*
X3301134Y-8374060D01*
X3301134Y-8269298D02*
X3310658Y-8250250D01*
X3310658Y-8250250D02*
X3329705Y-8240726D01*
X3329705Y-8240726D02*
X3358277Y-8240726D01*
X3358277Y-8240726D02*
X3377324Y-8250250D01*
X3377324Y-8250250D02*
X3386848Y-8269298D01*
X3386848Y-8269298D02*
X3386848Y-8374060D01*
X3482086Y-8374060D02*
X3482086Y-8240726D01*
X3482086Y-8259774D02*
X3491610Y-8250250D01*
X3491610Y-8250250D02*
X3510658Y-8240726D01*
X3510658Y-8240726D02*
X3539229Y-8240726D01*
X3539229Y-8240726D02*
X3558277Y-8250250D01*
X3558277Y-8250250D02*
X3567801Y-8269298D01*
X3567801Y-8269298D02*
X3567801Y-8374060D01*
X3567801Y-8269298D02*
X3577324Y-8250250D01*
X3577324Y-8250250D02*
X3596372Y-8240726D01*
X3596372Y-8240726D02*
X3624943Y-8240726D01*
X3624943Y-8240726D02*
X3643991Y-8250250D01*
X3643991Y-8250250D02*
X3653515Y-8269298D01*
X3653515Y-8269298D02*
X3653515Y-8374060D01*
X4043991Y-8164536D02*
X3872563Y-8421679D01*
X4301134Y-8174060D02*
X4320182Y-8174060D01*
X4320182Y-8174060D02*
X4339229Y-8183583D01*
X4339229Y-8183583D02*
X4348753Y-8193107D01*
X4348753Y-8193107D02*
X4358277Y-8212155D01*
X4358277Y-8212155D02*
X4367801Y-8250250D01*
X4367801Y-8250250D02*
X4367801Y-8297869D01*
X4367801Y-8297869D02*
X4358277Y-8335964D01*
X4358277Y-8335964D02*
X4348753Y-8355012D01*
X4348753Y-8355012D02*
X4339229Y-8364536D01*
X4339229Y-8364536D02*
X4320182Y-8374060D01*
X4320182Y-8374060D02*
X4301134Y-8374060D01*
X4301134Y-8374060D02*
X4282087Y-8364536D01*
X4282087Y-8364536D02*
X4272563Y-8355012D01*
X4272563Y-8355012D02*
X4263039Y-8335964D01*
X4263039Y-8335964D02*
X4253515Y-8297869D01*
X4253515Y-8297869D02*
X4253515Y-8250250D01*
X4253515Y-8250250D02*
X4263039Y-8212155D01*
X4263039Y-8212155D02*
X4272563Y-8193107D01*
X4272563Y-8193107D02*
X4282087Y-8183583D01*
X4282087Y-8183583D02*
X4301134Y-8174060D01*
X4453515Y-8355012D02*
X4463039Y-8364536D01*
X4463039Y-8364536D02*
X4453515Y-8374060D01*
X4453515Y-8374060D02*
X4443991Y-8364536D01*
X4443991Y-8364536D02*
X4453515Y-8355012D01*
X4453515Y-8355012D02*
X4453515Y-8374060D01*
X4586848Y-8174060D02*
X4605896Y-8174060D01*
X4605896Y-8174060D02*
X4624944Y-8183583D01*
X4624944Y-8183583D02*
X4634468Y-8193107D01*
X4634468Y-8193107D02*
X4643991Y-8212155D01*
X4643991Y-8212155D02*
X4653515Y-8250250D01*
X4653515Y-8250250D02*
X4653515Y-8297869D01*
X4653515Y-8297869D02*
X4643991Y-8335964D01*
X4643991Y-8335964D02*
X4634468Y-8355012D01*
X4634468Y-8355012D02*
X4624944Y-8364536D01*
X4624944Y-8364536D02*
X4605896Y-8374060D01*
X4605896Y-8374060D02*
X4586848Y-8374060D01*
X4586848Y-8374060D02*
X4567801Y-8364536D01*
X4567801Y-8364536D02*
X4558277Y-8355012D01*
X4558277Y-8355012D02*
X4548753Y-8335964D01*
X4548753Y-8335964D02*
X4539229Y-8297869D01*
X4539229Y-8297869D02*
X4539229Y-8250250D01*
X4539229Y-8250250D02*
X4548753Y-8212155D01*
X4548753Y-8212155D02*
X4558277Y-8193107D01*
X4558277Y-8193107D02*
X4567801Y-8183583D01*
X4567801Y-8183583D02*
X4586848Y-8174060D01*
X4777325Y-8174060D02*
X4796372Y-8174060D01*
X4796372Y-8174060D02*
X4815420Y-8183583D01*
X4815420Y-8183583D02*
X4824944Y-8193107D01*
X4824944Y-8193107D02*
X4834468Y-8212155D01*
X4834468Y-8212155D02*
X4843991Y-8250250D01*
X4843991Y-8250250D02*
X4843991Y-8297869D01*
X4843991Y-8297869D02*
X4834468Y-8335964D01*
X4834468Y-8335964D02*
X4824944Y-8355012D01*
X4824944Y-8355012D02*
X4815420Y-8364536D01*
X4815420Y-8364536D02*
X4796372Y-8374060D01*
X4796372Y-8374060D02*
X4777325Y-8374060D01*
X4777325Y-8374060D02*
X4758277Y-8364536D01*
X4758277Y-8364536D02*
X4748753Y-8355012D01*
X4748753Y-8355012D02*
X4739229Y-8335964D01*
X4739229Y-8335964D02*
X4729706Y-8297869D01*
X4729706Y-8297869D02*
X4729706Y-8250250D01*
X4729706Y-8250250D02*
X4739229Y-8212155D01*
X4739229Y-8212155D02*
X4748753Y-8193107D01*
X4748753Y-8193107D02*
X4758277Y-8183583D01*
X4758277Y-8183583D02*
X4777325Y-8174060D01*
X4910658Y-8174060D02*
X5043991Y-8174060D01*
X5043991Y-8174060D02*
X4958277Y-8374060D01*
X5129706Y-8374060D02*
X5167801Y-8374060D01*
X5167801Y-8374060D02*
X5186849Y-8364536D01*
X5186849Y-8364536D02*
X5196372Y-8355012D01*
X5196372Y-8355012D02*
X5215420Y-8326440D01*
X5215420Y-8326440D02*
X5224944Y-8288345D01*
X5224944Y-8288345D02*
X5224944Y-8212155D01*
X5224944Y-8212155D02*
X5215420Y-8193107D01*
X5215420Y-8193107D02*
X5205896Y-8183583D01*
X5205896Y-8183583D02*
X5186849Y-8174060D01*
X5186849Y-8174060D02*
X5148753Y-8174060D01*
X5148753Y-8174060D02*
X5129706Y-8183583D01*
X5129706Y-8183583D02*
X5120182Y-8193107D01*
X5120182Y-8193107D02*
X5110658Y-8212155D01*
X5110658Y-8212155D02*
X5110658Y-8259774D01*
X5110658Y-8259774D02*
X5120182Y-8278821D01*
X5120182Y-8278821D02*
X5129706Y-8288345D01*
X5129706Y-8288345D02*
X5148753Y-8297869D01*
X5148753Y-8297869D02*
X5186849Y-8297869D01*
X5186849Y-8297869D02*
X5205896Y-8288345D01*
X5205896Y-8288345D02*
X5215420Y-8278821D01*
X5215420Y-8278821D02*
X5224944Y-8259774D01*
X5301134Y-8174060D02*
X5301134Y-8212155D01*
X5377325Y-8174060D02*
X5377325Y-8212155D01*
X5672563Y-8450250D02*
X5663039Y-8440726D01*
X5663039Y-8440726D02*
X5643991Y-8412155D01*
X5643991Y-8412155D02*
X5634468Y-8393107D01*
X5634468Y-8393107D02*
X5624944Y-8364536D01*
X5624944Y-8364536D02*
X5615420Y-8316917D01*
X5615420Y-8316917D02*
X5615420Y-8278821D01*
X5615420Y-8278821D02*
X5624944Y-8231202D01*
X5624944Y-8231202D02*
X5634468Y-8202631D01*
X5634468Y-8202631D02*
X5643991Y-8183583D01*
X5643991Y-8183583D02*
X5663039Y-8155012D01*
X5663039Y-8155012D02*
X5672563Y-8145488D01*
X5834468Y-8174060D02*
X5796372Y-8174060D01*
X5796372Y-8174060D02*
X5777325Y-8183583D01*
X5777325Y-8183583D02*
X5767801Y-8193107D01*
X5767801Y-8193107D02*
X5748753Y-8221679D01*
X5748753Y-8221679D02*
X5739229Y-8259774D01*
X5739229Y-8259774D02*
X5739229Y-8335964D01*
X5739229Y-8335964D02*
X5748753Y-8355012D01*
X5748753Y-8355012D02*
X5758277Y-8364536D01*
X5758277Y-8364536D02*
X5777325Y-8374060D01*
X5777325Y-8374060D02*
X5815420Y-8374060D01*
X5815420Y-8374060D02*
X5834468Y-8364536D01*
X5834468Y-8364536D02*
X5843991Y-8355012D01*
X5843991Y-8355012D02*
X5853515Y-8335964D01*
X5853515Y-8335964D02*
X5853515Y-8288345D01*
X5853515Y-8288345D02*
X5843991Y-8269298D01*
X5843991Y-8269298D02*
X5834468Y-8259774D01*
X5834468Y-8259774D02*
X5815420Y-8250250D01*
X5815420Y-8250250D02*
X5777325Y-8250250D01*
X5777325Y-8250250D02*
X5758277Y-8259774D01*
X5758277Y-8259774D02*
X5748753Y-8269298D01*
X5748753Y-8269298D02*
X5739229Y-8288345D01*
X5977325Y-8174060D02*
X5996372Y-8174060D01*
X5996372Y-8174060D02*
X6015420Y-8183583D01*
X6015420Y-8183583D02*
X6024944Y-8193107D01*
X6024944Y-8193107D02*
X6034468Y-8212155D01*
X6034468Y-8212155D02*
X6043991Y-8250250D01*
X6043991Y-8250250D02*
X6043991Y-8297869D01*
X6043991Y-8297869D02*
X6034468Y-8335964D01*
X6034468Y-8335964D02*
X6024944Y-8355012D01*
X6024944Y-8355012D02*
X6015420Y-8364536D01*
X6015420Y-8364536D02*
X5996372Y-8374060D01*
X5996372Y-8374060D02*
X5977325Y-8374060D01*
X5977325Y-8374060D02*
X5958277Y-8364536D01*
X5958277Y-8364536D02*
X5948753Y-8355012D01*
X5948753Y-8355012D02*
X5939229Y-8335964D01*
X5939229Y-8335964D02*
X5929706Y-8297869D01*
X5929706Y-8297869D02*
X5929706Y-8250250D01*
X5929706Y-8250250D02*
X5939229Y-8212155D01*
X5939229Y-8212155D02*
X5948753Y-8193107D01*
X5948753Y-8193107D02*
X5958277Y-8183583D01*
X5958277Y-8183583D02*
X5977325Y-8174060D01*
X6282087Y-8374060D02*
X6282087Y-8174060D01*
X6367801Y-8374060D02*
X6367801Y-8269298D01*
X6367801Y-8269298D02*
X6358277Y-8250250D01*
X6358277Y-8250250D02*
X6339230Y-8240726D01*
X6339230Y-8240726D02*
X6310658Y-8240726D01*
X6310658Y-8240726D02*
X6291610Y-8250250D01*
X6291610Y-8250250D02*
X6282087Y-8259774D01*
X6491610Y-8374060D02*
X6472563Y-8364536D01*
X6472563Y-8364536D02*
X6463039Y-8355012D01*
X6463039Y-8355012D02*
X6453515Y-8335964D01*
X6453515Y-8335964D02*
X6453515Y-8278821D01*
X6453515Y-8278821D02*
X6463039Y-8259774D01*
X6463039Y-8259774D02*
X6472563Y-8250250D01*
X6472563Y-8250250D02*
X6491610Y-8240726D01*
X6491610Y-8240726D02*
X6520182Y-8240726D01*
X6520182Y-8240726D02*
X6539230Y-8250250D01*
X6539230Y-8250250D02*
X6548753Y-8259774D01*
X6548753Y-8259774D02*
X6558277Y-8278821D01*
X6558277Y-8278821D02*
X6558277Y-8335964D01*
X6558277Y-8335964D02*
X6548753Y-8355012D01*
X6548753Y-8355012D02*
X6539230Y-8364536D01*
X6539230Y-8364536D02*
X6520182Y-8374060D01*
X6520182Y-8374060D02*
X6491610Y-8374060D01*
X6672563Y-8374060D02*
X6653515Y-8364536D01*
X6653515Y-8364536D02*
X6643991Y-8345488D01*
X6643991Y-8345488D02*
X6643991Y-8174060D01*
X6824944Y-8364536D02*
X6805896Y-8374060D01*
X6805896Y-8374060D02*
X6767801Y-8374060D01*
X6767801Y-8374060D02*
X6748753Y-8364536D01*
X6748753Y-8364536D02*
X6739230Y-8345488D01*
X6739230Y-8345488D02*
X6739230Y-8269298D01*
X6739230Y-8269298D02*
X6748753Y-8250250D01*
X6748753Y-8250250D02*
X6767801Y-8240726D01*
X6767801Y-8240726D02*
X6805896Y-8240726D01*
X6805896Y-8240726D02*
X6824944Y-8250250D01*
X6824944Y-8250250D02*
X6834468Y-8269298D01*
X6834468Y-8269298D02*
X6834468Y-8288345D01*
X6834468Y-8288345D02*
X6739230Y-8307393D01*
X6910658Y-8364536D02*
X6929706Y-8374060D01*
X6929706Y-8374060D02*
X6967801Y-8374060D01*
X6967801Y-8374060D02*
X6986849Y-8364536D01*
X6986849Y-8364536D02*
X6996372Y-8345488D01*
X6996372Y-8345488D02*
X6996372Y-8335964D01*
X6996372Y-8335964D02*
X6986849Y-8316917D01*
X6986849Y-8316917D02*
X6967801Y-8307393D01*
X6967801Y-8307393D02*
X6939230Y-8307393D01*
X6939230Y-8307393D02*
X6920182Y-8297869D01*
X6920182Y-8297869D02*
X6910658Y-8278821D01*
X6910658Y-8278821D02*
X6910658Y-8269298D01*
X6910658Y-8269298D02*
X6920182Y-8250250D01*
X6920182Y-8250250D02*
X6939230Y-8240726D01*
X6939230Y-8240726D02*
X6967801Y-8240726D01*
X6967801Y-8240726D02*
X6986849Y-8250250D01*
X7063039Y-8450250D02*
X7072563Y-8440726D01*
X7072563Y-8440726D02*
X7091611Y-8412155D01*
X7091611Y-8412155D02*
X7101134Y-8393107D01*
X7101134Y-8393107D02*
X7110658Y-8364536D01*
X7110658Y-8364536D02*
X7120182Y-8316917D01*
X7120182Y-8316917D02*
X7120182Y-8278821D01*
X7120182Y-8278821D02*
X7110658Y-8231202D01*
X7110658Y-8231202D02*
X7101134Y-8202631D01*
X7101134Y-8202631D02*
X7091611Y-8183583D01*
X7091611Y-8183583D02*
X7072563Y-8155012D01*
X7072563Y-8155012D02*
X7063039Y-8145488D01*
D12*
X2097500Y-8546576D02*
G75*
G02*
X2077500Y-8546576I-10000J0D01*
G01*
X2077500Y-8546576D02*
G75*
G02*
X2097500Y-8546576I10000J0D01*
G01*
D11*
X2396372Y-8438060D02*
X2415420Y-8438060D01*
X2415420Y-8438060D02*
X2434467Y-8447583D01*
X2434467Y-8447583D02*
X2443991Y-8457107D01*
X2443991Y-8457107D02*
X2453515Y-8476155D01*
X2453515Y-8476155D02*
X2463039Y-8514250D01*
X2463039Y-8514250D02*
X2463039Y-8561869D01*
X2463039Y-8561869D02*
X2453515Y-8599964D01*
X2453515Y-8599964D02*
X2443991Y-8619012D01*
X2443991Y-8619012D02*
X2434467Y-8628536D01*
X2434467Y-8628536D02*
X2415420Y-8638060D01*
X2415420Y-8638060D02*
X2396372Y-8638060D01*
X2396372Y-8638060D02*
X2377324Y-8628536D01*
X2377324Y-8628536D02*
X2367801Y-8619012D01*
X2367801Y-8619012D02*
X2358277Y-8599964D01*
X2358277Y-8599964D02*
X2348753Y-8561869D01*
X2348753Y-8561869D02*
X2348753Y-8514250D01*
X2348753Y-8514250D02*
X2358277Y-8476155D01*
X2358277Y-8476155D02*
X2367801Y-8457107D01*
X2367801Y-8457107D02*
X2377324Y-8447583D01*
X2377324Y-8447583D02*
X2396372Y-8438060D01*
X2548753Y-8619012D02*
X2558277Y-8628536D01*
X2558277Y-8628536D02*
X2548753Y-8638060D01*
X2548753Y-8638060D02*
X2539229Y-8628536D01*
X2539229Y-8628536D02*
X2548753Y-8619012D01*
X2548753Y-8619012D02*
X2548753Y-8638060D01*
X2634467Y-8457107D02*
X2643991Y-8447583D01*
X2643991Y-8447583D02*
X2663039Y-8438060D01*
X2663039Y-8438060D02*
X2710658Y-8438060D01*
X2710658Y-8438060D02*
X2729705Y-8447583D01*
X2729705Y-8447583D02*
X2739229Y-8457107D01*
X2739229Y-8457107D02*
X2748753Y-8476155D01*
X2748753Y-8476155D02*
X2748753Y-8495202D01*
X2748753Y-8495202D02*
X2739229Y-8523774D01*
X2739229Y-8523774D02*
X2624944Y-8638060D01*
X2624944Y-8638060D02*
X2748753Y-8638060D01*
X2872562Y-8438060D02*
X2891610Y-8438060D01*
X2891610Y-8438060D02*
X2910658Y-8447583D01*
X2910658Y-8447583D02*
X2920182Y-8457107D01*
X2920182Y-8457107D02*
X2929705Y-8476155D01*
X2929705Y-8476155D02*
X2939229Y-8514250D01*
X2939229Y-8514250D02*
X2939229Y-8561869D01*
X2939229Y-8561869D02*
X2929705Y-8599964D01*
X2929705Y-8599964D02*
X2920182Y-8619012D01*
X2920182Y-8619012D02*
X2910658Y-8628536D01*
X2910658Y-8628536D02*
X2891610Y-8638060D01*
X2891610Y-8638060D02*
X2872562Y-8638060D01*
X2872562Y-8638060D02*
X2853515Y-8628536D01*
X2853515Y-8628536D02*
X2843991Y-8619012D01*
X2843991Y-8619012D02*
X2834467Y-8599964D01*
X2834467Y-8599964D02*
X2824943Y-8561869D01*
X2824943Y-8561869D02*
X2824943Y-8514250D01*
X2824943Y-8514250D02*
X2834467Y-8476155D01*
X2834467Y-8476155D02*
X2843991Y-8457107D01*
X2843991Y-8457107D02*
X2853515Y-8447583D01*
X2853515Y-8447583D02*
X2872562Y-8438060D01*
X3063039Y-8438060D02*
X3082086Y-8438060D01*
X3082086Y-8438060D02*
X3101134Y-8447583D01*
X3101134Y-8447583D02*
X3110658Y-8457107D01*
X3110658Y-8457107D02*
X3120182Y-8476155D01*
X3120182Y-8476155D02*
X3129705Y-8514250D01*
X3129705Y-8514250D02*
X3129705Y-8561869D01*
X3129705Y-8561869D02*
X3120182Y-8599964D01*
X3120182Y-8599964D02*
X3110658Y-8619012D01*
X3110658Y-8619012D02*
X3101134Y-8628536D01*
X3101134Y-8628536D02*
X3082086Y-8638060D01*
X3082086Y-8638060D02*
X3063039Y-8638060D01*
X3063039Y-8638060D02*
X3043991Y-8628536D01*
X3043991Y-8628536D02*
X3034467Y-8619012D01*
X3034467Y-8619012D02*
X3024943Y-8599964D01*
X3024943Y-8599964D02*
X3015420Y-8561869D01*
X3015420Y-8561869D02*
X3015420Y-8514250D01*
X3015420Y-8514250D02*
X3024943Y-8476155D01*
X3024943Y-8476155D02*
X3034467Y-8457107D01*
X3034467Y-8457107D02*
X3043991Y-8447583D01*
X3043991Y-8447583D02*
X3063039Y-8438060D01*
X3215420Y-8638060D02*
X3215420Y-8504726D01*
X3215420Y-8523774D02*
X3224943Y-8514250D01*
X3224943Y-8514250D02*
X3243991Y-8504726D01*
X3243991Y-8504726D02*
X3272563Y-8504726D01*
X3272563Y-8504726D02*
X3291610Y-8514250D01*
X3291610Y-8514250D02*
X3301134Y-8533298D01*
X3301134Y-8533298D02*
X3301134Y-8638060D01*
X3301134Y-8533298D02*
X3310658Y-8514250D01*
X3310658Y-8514250D02*
X3329705Y-8504726D01*
X3329705Y-8504726D02*
X3358277Y-8504726D01*
X3358277Y-8504726D02*
X3377324Y-8514250D01*
X3377324Y-8514250D02*
X3386848Y-8533298D01*
X3386848Y-8533298D02*
X3386848Y-8638060D01*
X3482086Y-8638060D02*
X3482086Y-8504726D01*
X3482086Y-8523774D02*
X3491610Y-8514250D01*
X3491610Y-8514250D02*
X3510658Y-8504726D01*
X3510658Y-8504726D02*
X3539229Y-8504726D01*
X3539229Y-8504726D02*
X3558277Y-8514250D01*
X3558277Y-8514250D02*
X3567801Y-8533298D01*
X3567801Y-8533298D02*
X3567801Y-8638060D01*
X3567801Y-8533298D02*
X3577324Y-8514250D01*
X3577324Y-8514250D02*
X3596372Y-8504726D01*
X3596372Y-8504726D02*
X3624943Y-8504726D01*
X3624943Y-8504726D02*
X3643991Y-8514250D01*
X3643991Y-8514250D02*
X3653515Y-8533298D01*
X3653515Y-8533298D02*
X3653515Y-8638060D01*
X4043991Y-8428536D02*
X3872563Y-8685679D01*
X4301134Y-8438060D02*
X4320182Y-8438060D01*
X4320182Y-8438060D02*
X4339229Y-8447583D01*
X4339229Y-8447583D02*
X4348753Y-8457107D01*
X4348753Y-8457107D02*
X4358277Y-8476155D01*
X4358277Y-8476155D02*
X4367801Y-8514250D01*
X4367801Y-8514250D02*
X4367801Y-8561869D01*
X4367801Y-8561869D02*
X4358277Y-8599964D01*
X4358277Y-8599964D02*
X4348753Y-8619012D01*
X4348753Y-8619012D02*
X4339229Y-8628536D01*
X4339229Y-8628536D02*
X4320182Y-8638060D01*
X4320182Y-8638060D02*
X4301134Y-8638060D01*
X4301134Y-8638060D02*
X4282087Y-8628536D01*
X4282087Y-8628536D02*
X4272563Y-8619012D01*
X4272563Y-8619012D02*
X4263039Y-8599964D01*
X4263039Y-8599964D02*
X4253515Y-8561869D01*
X4253515Y-8561869D02*
X4253515Y-8514250D01*
X4253515Y-8514250D02*
X4263039Y-8476155D01*
X4263039Y-8476155D02*
X4272563Y-8457107D01*
X4272563Y-8457107D02*
X4282087Y-8447583D01*
X4282087Y-8447583D02*
X4301134Y-8438060D01*
X4453515Y-8619012D02*
X4463039Y-8628536D01*
X4463039Y-8628536D02*
X4453515Y-8638060D01*
X4453515Y-8638060D02*
X4443991Y-8628536D01*
X4443991Y-8628536D02*
X4453515Y-8619012D01*
X4453515Y-8619012D02*
X4453515Y-8638060D01*
X4586848Y-8438060D02*
X4605896Y-8438060D01*
X4605896Y-8438060D02*
X4624944Y-8447583D01*
X4624944Y-8447583D02*
X4634468Y-8457107D01*
X4634468Y-8457107D02*
X4643991Y-8476155D01*
X4643991Y-8476155D02*
X4653515Y-8514250D01*
X4653515Y-8514250D02*
X4653515Y-8561869D01*
X4653515Y-8561869D02*
X4643991Y-8599964D01*
X4643991Y-8599964D02*
X4634468Y-8619012D01*
X4634468Y-8619012D02*
X4624944Y-8628536D01*
X4624944Y-8628536D02*
X4605896Y-8638060D01*
X4605896Y-8638060D02*
X4586848Y-8638060D01*
X4586848Y-8638060D02*
X4567801Y-8628536D01*
X4567801Y-8628536D02*
X4558277Y-8619012D01*
X4558277Y-8619012D02*
X4548753Y-8599964D01*
X4548753Y-8599964D02*
X4539229Y-8561869D01*
X4539229Y-8561869D02*
X4539229Y-8514250D01*
X4539229Y-8514250D02*
X4548753Y-8476155D01*
X4548753Y-8476155D02*
X4558277Y-8457107D01*
X4558277Y-8457107D02*
X4567801Y-8447583D01*
X4567801Y-8447583D02*
X4586848Y-8438060D01*
X4777325Y-8438060D02*
X4796372Y-8438060D01*
X4796372Y-8438060D02*
X4815420Y-8447583D01*
X4815420Y-8447583D02*
X4824944Y-8457107D01*
X4824944Y-8457107D02*
X4834468Y-8476155D01*
X4834468Y-8476155D02*
X4843991Y-8514250D01*
X4843991Y-8514250D02*
X4843991Y-8561869D01*
X4843991Y-8561869D02*
X4834468Y-8599964D01*
X4834468Y-8599964D02*
X4824944Y-8619012D01*
X4824944Y-8619012D02*
X4815420Y-8628536D01*
X4815420Y-8628536D02*
X4796372Y-8638060D01*
X4796372Y-8638060D02*
X4777325Y-8638060D01*
X4777325Y-8638060D02*
X4758277Y-8628536D01*
X4758277Y-8628536D02*
X4748753Y-8619012D01*
X4748753Y-8619012D02*
X4739229Y-8599964D01*
X4739229Y-8599964D02*
X4729706Y-8561869D01*
X4729706Y-8561869D02*
X4729706Y-8514250D01*
X4729706Y-8514250D02*
X4739229Y-8476155D01*
X4739229Y-8476155D02*
X4748753Y-8457107D01*
X4748753Y-8457107D02*
X4758277Y-8447583D01*
X4758277Y-8447583D02*
X4777325Y-8438060D01*
X4910658Y-8438060D02*
X5043991Y-8438060D01*
X5043991Y-8438060D02*
X4958277Y-8638060D01*
X5129706Y-8638060D02*
X5167801Y-8638060D01*
X5167801Y-8638060D02*
X5186849Y-8628536D01*
X5186849Y-8628536D02*
X5196372Y-8619012D01*
X5196372Y-8619012D02*
X5215420Y-8590441D01*
X5215420Y-8590441D02*
X5224944Y-8552345D01*
X5224944Y-8552345D02*
X5224944Y-8476155D01*
X5224944Y-8476155D02*
X5215420Y-8457107D01*
X5215420Y-8457107D02*
X5205896Y-8447583D01*
X5205896Y-8447583D02*
X5186849Y-8438060D01*
X5186849Y-8438060D02*
X5148753Y-8438060D01*
X5148753Y-8438060D02*
X5129706Y-8447583D01*
X5129706Y-8447583D02*
X5120182Y-8457107D01*
X5120182Y-8457107D02*
X5110658Y-8476155D01*
X5110658Y-8476155D02*
X5110658Y-8523774D01*
X5110658Y-8523774D02*
X5120182Y-8542822D01*
X5120182Y-8542822D02*
X5129706Y-8552345D01*
X5129706Y-8552345D02*
X5148753Y-8561869D01*
X5148753Y-8561869D02*
X5186849Y-8561869D01*
X5186849Y-8561869D02*
X5205896Y-8552345D01*
X5205896Y-8552345D02*
X5215420Y-8542822D01*
X5215420Y-8542822D02*
X5224944Y-8523774D01*
X5301134Y-8438060D02*
X5301134Y-8476155D01*
X5377325Y-8438060D02*
X5377325Y-8476155D01*
X5672563Y-8714250D02*
X5663039Y-8704726D01*
X5663039Y-8704726D02*
X5643991Y-8676155D01*
X5643991Y-8676155D02*
X5634468Y-8657107D01*
X5634468Y-8657107D02*
X5624944Y-8628536D01*
X5624944Y-8628536D02*
X5615420Y-8580917D01*
X5615420Y-8580917D02*
X5615420Y-8542822D01*
X5615420Y-8542822D02*
X5624944Y-8495202D01*
X5624944Y-8495202D02*
X5634468Y-8466631D01*
X5634468Y-8466631D02*
X5643991Y-8447583D01*
X5643991Y-8447583D02*
X5663039Y-8419012D01*
X5663039Y-8419012D02*
X5672563Y-8409488D01*
X5739229Y-8457107D02*
X5748753Y-8447583D01*
X5748753Y-8447583D02*
X5767801Y-8438060D01*
X5767801Y-8438060D02*
X5815420Y-8438060D01*
X5815420Y-8438060D02*
X5834468Y-8447583D01*
X5834468Y-8447583D02*
X5843991Y-8457107D01*
X5843991Y-8457107D02*
X5853515Y-8476155D01*
X5853515Y-8476155D02*
X5853515Y-8495202D01*
X5853515Y-8495202D02*
X5843991Y-8523774D01*
X5843991Y-8523774D02*
X5729706Y-8638060D01*
X5729706Y-8638060D02*
X5853515Y-8638060D01*
X6024944Y-8504726D02*
X6024944Y-8638060D01*
X5977325Y-8428536D02*
X5929706Y-8571393D01*
X5929706Y-8571393D02*
X6053515Y-8571393D01*
X6282087Y-8638060D02*
X6282087Y-8438060D01*
X6367801Y-8638060D02*
X6367801Y-8533298D01*
X6367801Y-8533298D02*
X6358277Y-8514250D01*
X6358277Y-8514250D02*
X6339230Y-8504726D01*
X6339230Y-8504726D02*
X6310658Y-8504726D01*
X6310658Y-8504726D02*
X6291610Y-8514250D01*
X6291610Y-8514250D02*
X6282087Y-8523774D01*
X6491610Y-8638060D02*
X6472563Y-8628536D01*
X6472563Y-8628536D02*
X6463039Y-8619012D01*
X6463039Y-8619012D02*
X6453515Y-8599964D01*
X6453515Y-8599964D02*
X6453515Y-8542822D01*
X6453515Y-8542822D02*
X6463039Y-8523774D01*
X6463039Y-8523774D02*
X6472563Y-8514250D01*
X6472563Y-8514250D02*
X6491610Y-8504726D01*
X6491610Y-8504726D02*
X6520182Y-8504726D01*
X6520182Y-8504726D02*
X6539230Y-8514250D01*
X6539230Y-8514250D02*
X6548753Y-8523774D01*
X6548753Y-8523774D02*
X6558277Y-8542822D01*
X6558277Y-8542822D02*
X6558277Y-8599964D01*
X6558277Y-8599964D02*
X6548753Y-8619012D01*
X6548753Y-8619012D02*
X6539230Y-8628536D01*
X6539230Y-8628536D02*
X6520182Y-8638060D01*
X6520182Y-8638060D02*
X6491610Y-8638060D01*
X6672563Y-8638060D02*
X6653515Y-8628536D01*
X6653515Y-8628536D02*
X6643991Y-8609488D01*
X6643991Y-8609488D02*
X6643991Y-8438060D01*
X6824944Y-8628536D02*
X6805896Y-8638060D01*
X6805896Y-8638060D02*
X6767801Y-8638060D01*
X6767801Y-8638060D02*
X6748753Y-8628536D01*
X6748753Y-8628536D02*
X6739230Y-8609488D01*
X6739230Y-8609488D02*
X6739230Y-8533298D01*
X6739230Y-8533298D02*
X6748753Y-8514250D01*
X6748753Y-8514250D02*
X6767801Y-8504726D01*
X6767801Y-8504726D02*
X6805896Y-8504726D01*
X6805896Y-8504726D02*
X6824944Y-8514250D01*
X6824944Y-8514250D02*
X6834468Y-8533298D01*
X6834468Y-8533298D02*
X6834468Y-8552345D01*
X6834468Y-8552345D02*
X6739230Y-8571393D01*
X6910658Y-8628536D02*
X6929706Y-8638060D01*
X6929706Y-8638060D02*
X6967801Y-8638060D01*
X6967801Y-8638060D02*
X6986849Y-8628536D01*
X6986849Y-8628536D02*
X6996372Y-8609488D01*
X6996372Y-8609488D02*
X6996372Y-8599964D01*
X6996372Y-8599964D02*
X6986849Y-8580917D01*
X6986849Y-8580917D02*
X6967801Y-8571393D01*
X6967801Y-8571393D02*
X6939230Y-8571393D01*
X6939230Y-8571393D02*
X6920182Y-8561869D01*
X6920182Y-8561869D02*
X6910658Y-8542822D01*
X6910658Y-8542822D02*
X6910658Y-8533298D01*
X6910658Y-8533298D02*
X6920182Y-8514250D01*
X6920182Y-8514250D02*
X6939230Y-8504726D01*
X6939230Y-8504726D02*
X6967801Y-8504726D01*
X6967801Y-8504726D02*
X6986849Y-8514250D01*
X7063039Y-8714250D02*
X7072563Y-8704726D01*
X7072563Y-8704726D02*
X7091611Y-8676155D01*
X7091611Y-8676155D02*
X7101134Y-8657107D01*
X7101134Y-8657107D02*
X7110658Y-8628536D01*
X7110658Y-8628536D02*
X7120182Y-8580917D01*
X7120182Y-8580917D02*
X7120182Y-8542822D01*
X7120182Y-8542822D02*
X7110658Y-8495202D01*
X7110658Y-8495202D02*
X7101134Y-8466631D01*
X7101134Y-8466631D02*
X7091611Y-8447583D01*
X7091611Y-8447583D02*
X7072563Y-8419012D01*
X7072563Y-8419012D02*
X7063039Y-8409488D01*
D12*
X2082500Y-8795576D02*
X2082500Y-8825576D01*
X2067500Y-8810576D02*
X2097500Y-8810576D01*
D11*
X2396372Y-8702060D02*
X2415420Y-8702060D01*
X2415420Y-8702060D02*
X2434467Y-8711583D01*
X2434467Y-8711583D02*
X2443991Y-8721107D01*
X2443991Y-8721107D02*
X2453515Y-8740155D01*
X2453515Y-8740155D02*
X2463039Y-8778250D01*
X2463039Y-8778250D02*
X2463039Y-8825869D01*
X2463039Y-8825869D02*
X2453515Y-8863964D01*
X2453515Y-8863964D02*
X2443991Y-8883012D01*
X2443991Y-8883012D02*
X2434467Y-8892536D01*
X2434467Y-8892536D02*
X2415420Y-8902060D01*
X2415420Y-8902060D02*
X2396372Y-8902060D01*
X2396372Y-8902060D02*
X2377324Y-8892536D01*
X2377324Y-8892536D02*
X2367801Y-8883012D01*
X2367801Y-8883012D02*
X2358277Y-8863964D01*
X2358277Y-8863964D02*
X2348753Y-8825869D01*
X2348753Y-8825869D02*
X2348753Y-8778250D01*
X2348753Y-8778250D02*
X2358277Y-8740155D01*
X2358277Y-8740155D02*
X2367801Y-8721107D01*
X2367801Y-8721107D02*
X2377324Y-8711583D01*
X2377324Y-8711583D02*
X2396372Y-8702060D01*
X2548753Y-8883012D02*
X2558277Y-8892536D01*
X2558277Y-8892536D02*
X2548753Y-8902060D01*
X2548753Y-8902060D02*
X2539229Y-8892536D01*
X2539229Y-8892536D02*
X2548753Y-8883012D01*
X2548753Y-8883012D02*
X2548753Y-8902060D01*
X2624944Y-8702060D02*
X2748753Y-8702060D01*
X2748753Y-8702060D02*
X2682086Y-8778250D01*
X2682086Y-8778250D02*
X2710658Y-8778250D01*
X2710658Y-8778250D02*
X2729705Y-8787774D01*
X2729705Y-8787774D02*
X2739229Y-8797298D01*
X2739229Y-8797298D02*
X2748753Y-8816345D01*
X2748753Y-8816345D02*
X2748753Y-8863964D01*
X2748753Y-8863964D02*
X2739229Y-8883012D01*
X2739229Y-8883012D02*
X2729705Y-8892536D01*
X2729705Y-8892536D02*
X2710658Y-8902060D01*
X2710658Y-8902060D02*
X2653515Y-8902060D01*
X2653515Y-8902060D02*
X2634467Y-8892536D01*
X2634467Y-8892536D02*
X2624944Y-8883012D01*
X2872562Y-8702060D02*
X2891610Y-8702060D01*
X2891610Y-8702060D02*
X2910658Y-8711583D01*
X2910658Y-8711583D02*
X2920182Y-8721107D01*
X2920182Y-8721107D02*
X2929705Y-8740155D01*
X2929705Y-8740155D02*
X2939229Y-8778250D01*
X2939229Y-8778250D02*
X2939229Y-8825869D01*
X2939229Y-8825869D02*
X2929705Y-8863964D01*
X2929705Y-8863964D02*
X2920182Y-8883012D01*
X2920182Y-8883012D02*
X2910658Y-8892536D01*
X2910658Y-8892536D02*
X2891610Y-8902060D01*
X2891610Y-8902060D02*
X2872562Y-8902060D01*
X2872562Y-8902060D02*
X2853515Y-8892536D01*
X2853515Y-8892536D02*
X2843991Y-8883012D01*
X2843991Y-8883012D02*
X2834467Y-8863964D01*
X2834467Y-8863964D02*
X2824943Y-8825869D01*
X2824943Y-8825869D02*
X2824943Y-8778250D01*
X2824943Y-8778250D02*
X2834467Y-8740155D01*
X2834467Y-8740155D02*
X2843991Y-8721107D01*
X2843991Y-8721107D02*
X2853515Y-8711583D01*
X2853515Y-8711583D02*
X2872562Y-8702060D01*
X3063039Y-8702060D02*
X3082086Y-8702060D01*
X3082086Y-8702060D02*
X3101134Y-8711583D01*
X3101134Y-8711583D02*
X3110658Y-8721107D01*
X3110658Y-8721107D02*
X3120182Y-8740155D01*
X3120182Y-8740155D02*
X3129705Y-8778250D01*
X3129705Y-8778250D02*
X3129705Y-8825869D01*
X3129705Y-8825869D02*
X3120182Y-8863964D01*
X3120182Y-8863964D02*
X3110658Y-8883012D01*
X3110658Y-8883012D02*
X3101134Y-8892536D01*
X3101134Y-8892536D02*
X3082086Y-8902060D01*
X3082086Y-8902060D02*
X3063039Y-8902060D01*
X3063039Y-8902060D02*
X3043991Y-8892536D01*
X3043991Y-8892536D02*
X3034467Y-8883012D01*
X3034467Y-8883012D02*
X3024943Y-8863964D01*
X3024943Y-8863964D02*
X3015420Y-8825869D01*
X3015420Y-8825869D02*
X3015420Y-8778250D01*
X3015420Y-8778250D02*
X3024943Y-8740155D01*
X3024943Y-8740155D02*
X3034467Y-8721107D01*
X3034467Y-8721107D02*
X3043991Y-8711583D01*
X3043991Y-8711583D02*
X3063039Y-8702060D01*
X3215420Y-8902060D02*
X3215420Y-8768726D01*
X3215420Y-8787774D02*
X3224943Y-8778250D01*
X3224943Y-8778250D02*
X3243991Y-8768726D01*
X3243991Y-8768726D02*
X3272563Y-8768726D01*
X3272563Y-8768726D02*
X3291610Y-8778250D01*
X3291610Y-8778250D02*
X3301134Y-8797298D01*
X3301134Y-8797298D02*
X3301134Y-8902060D01*
X3301134Y-8797298D02*
X3310658Y-8778250D01*
X3310658Y-8778250D02*
X3329705Y-8768726D01*
X3329705Y-8768726D02*
X3358277Y-8768726D01*
X3358277Y-8768726D02*
X3377324Y-8778250D01*
X3377324Y-8778250D02*
X3386848Y-8797298D01*
X3386848Y-8797298D02*
X3386848Y-8902060D01*
X3482086Y-8902060D02*
X3482086Y-8768726D01*
X3482086Y-8787774D02*
X3491610Y-8778250D01*
X3491610Y-8778250D02*
X3510658Y-8768726D01*
X3510658Y-8768726D02*
X3539229Y-8768726D01*
X3539229Y-8768726D02*
X3558277Y-8778250D01*
X3558277Y-8778250D02*
X3567801Y-8797298D01*
X3567801Y-8797298D02*
X3567801Y-8902060D01*
X3567801Y-8797298D02*
X3577324Y-8778250D01*
X3577324Y-8778250D02*
X3596372Y-8768726D01*
X3596372Y-8768726D02*
X3624943Y-8768726D01*
X3624943Y-8768726D02*
X3643991Y-8778250D01*
X3643991Y-8778250D02*
X3653515Y-8797298D01*
X3653515Y-8797298D02*
X3653515Y-8902060D01*
X4043991Y-8692536D02*
X3872563Y-8949679D01*
X4301134Y-8702060D02*
X4320182Y-8702060D01*
X4320182Y-8702060D02*
X4339229Y-8711583D01*
X4339229Y-8711583D02*
X4348753Y-8721107D01*
X4348753Y-8721107D02*
X4358277Y-8740155D01*
X4358277Y-8740155D02*
X4367801Y-8778250D01*
X4367801Y-8778250D02*
X4367801Y-8825869D01*
X4367801Y-8825869D02*
X4358277Y-8863964D01*
X4358277Y-8863964D02*
X4348753Y-8883012D01*
X4348753Y-8883012D02*
X4339229Y-8892536D01*
X4339229Y-8892536D02*
X4320182Y-8902060D01*
X4320182Y-8902060D02*
X4301134Y-8902060D01*
X4301134Y-8902060D02*
X4282087Y-8892536D01*
X4282087Y-8892536D02*
X4272563Y-8883012D01*
X4272563Y-8883012D02*
X4263039Y-8863964D01*
X4263039Y-8863964D02*
X4253515Y-8825869D01*
X4253515Y-8825869D02*
X4253515Y-8778250D01*
X4253515Y-8778250D02*
X4263039Y-8740155D01*
X4263039Y-8740155D02*
X4272563Y-8721107D01*
X4272563Y-8721107D02*
X4282087Y-8711583D01*
X4282087Y-8711583D02*
X4301134Y-8702060D01*
X4453515Y-8883012D02*
X4463039Y-8892536D01*
X4463039Y-8892536D02*
X4453515Y-8902060D01*
X4453515Y-8902060D02*
X4443991Y-8892536D01*
X4443991Y-8892536D02*
X4453515Y-8883012D01*
X4453515Y-8883012D02*
X4453515Y-8902060D01*
X4586848Y-8702060D02*
X4605896Y-8702060D01*
X4605896Y-8702060D02*
X4624944Y-8711583D01*
X4624944Y-8711583D02*
X4634468Y-8721107D01*
X4634468Y-8721107D02*
X4643991Y-8740155D01*
X4643991Y-8740155D02*
X4653515Y-8778250D01*
X4653515Y-8778250D02*
X4653515Y-8825869D01*
X4653515Y-8825869D02*
X4643991Y-8863964D01*
X4643991Y-8863964D02*
X4634468Y-8883012D01*
X4634468Y-8883012D02*
X4624944Y-8892536D01*
X4624944Y-8892536D02*
X4605896Y-8902060D01*
X4605896Y-8902060D02*
X4586848Y-8902060D01*
X4586848Y-8902060D02*
X4567801Y-8892536D01*
X4567801Y-8892536D02*
X4558277Y-8883012D01*
X4558277Y-8883012D02*
X4548753Y-8863964D01*
X4548753Y-8863964D02*
X4539229Y-8825869D01*
X4539229Y-8825869D02*
X4539229Y-8778250D01*
X4539229Y-8778250D02*
X4548753Y-8740155D01*
X4548753Y-8740155D02*
X4558277Y-8721107D01*
X4558277Y-8721107D02*
X4567801Y-8711583D01*
X4567801Y-8711583D02*
X4586848Y-8702060D01*
X4843991Y-8902060D02*
X4729706Y-8902060D01*
X4786848Y-8902060D02*
X4786848Y-8702060D01*
X4786848Y-8702060D02*
X4767801Y-8730631D01*
X4767801Y-8730631D02*
X4748753Y-8749679D01*
X4748753Y-8749679D02*
X4729706Y-8759202D01*
X5034468Y-8902060D02*
X4920182Y-8902060D01*
X4977325Y-8902060D02*
X4977325Y-8702060D01*
X4977325Y-8702060D02*
X4958277Y-8730631D01*
X4958277Y-8730631D02*
X4939229Y-8749679D01*
X4939229Y-8749679D02*
X4920182Y-8759202D01*
X5148753Y-8787774D02*
X5129706Y-8778250D01*
X5129706Y-8778250D02*
X5120182Y-8768726D01*
X5120182Y-8768726D02*
X5110658Y-8749679D01*
X5110658Y-8749679D02*
X5110658Y-8740155D01*
X5110658Y-8740155D02*
X5120182Y-8721107D01*
X5120182Y-8721107D02*
X5129706Y-8711583D01*
X5129706Y-8711583D02*
X5148753Y-8702060D01*
X5148753Y-8702060D02*
X5186849Y-8702060D01*
X5186849Y-8702060D02*
X5205896Y-8711583D01*
X5205896Y-8711583D02*
X5215420Y-8721107D01*
X5215420Y-8721107D02*
X5224944Y-8740155D01*
X5224944Y-8740155D02*
X5224944Y-8749679D01*
X5224944Y-8749679D02*
X5215420Y-8768726D01*
X5215420Y-8768726D02*
X5205896Y-8778250D01*
X5205896Y-8778250D02*
X5186849Y-8787774D01*
X5186849Y-8787774D02*
X5148753Y-8787774D01*
X5148753Y-8787774D02*
X5129706Y-8797298D01*
X5129706Y-8797298D02*
X5120182Y-8806822D01*
X5120182Y-8806822D02*
X5110658Y-8825869D01*
X5110658Y-8825869D02*
X5110658Y-8863964D01*
X5110658Y-8863964D02*
X5120182Y-8883012D01*
X5120182Y-8883012D02*
X5129706Y-8892536D01*
X5129706Y-8892536D02*
X5148753Y-8902060D01*
X5148753Y-8902060D02*
X5186849Y-8902060D01*
X5186849Y-8902060D02*
X5205896Y-8892536D01*
X5205896Y-8892536D02*
X5215420Y-8883012D01*
X5215420Y-8883012D02*
X5224944Y-8863964D01*
X5224944Y-8863964D02*
X5224944Y-8825869D01*
X5224944Y-8825869D02*
X5215420Y-8806822D01*
X5215420Y-8806822D02*
X5205896Y-8797298D01*
X5205896Y-8797298D02*
X5186849Y-8787774D01*
X5301134Y-8702060D02*
X5301134Y-8740155D01*
X5377325Y-8702060D02*
X5377325Y-8740155D01*
X5672563Y-8978250D02*
X5663039Y-8968726D01*
X5663039Y-8968726D02*
X5643991Y-8940155D01*
X5643991Y-8940155D02*
X5634468Y-8921107D01*
X5634468Y-8921107D02*
X5624944Y-8892536D01*
X5624944Y-8892536D02*
X5615420Y-8844917D01*
X5615420Y-8844917D02*
X5615420Y-8806822D01*
X5615420Y-8806822D02*
X5624944Y-8759202D01*
X5624944Y-8759202D02*
X5634468Y-8730631D01*
X5634468Y-8730631D02*
X5643991Y-8711583D01*
X5643991Y-8711583D02*
X5663039Y-8683012D01*
X5663039Y-8683012D02*
X5672563Y-8673488D01*
X5853515Y-8902060D02*
X5739229Y-8902060D01*
X5796372Y-8902060D02*
X5796372Y-8702060D01*
X5796372Y-8702060D02*
X5777325Y-8730631D01*
X5777325Y-8730631D02*
X5758277Y-8749679D01*
X5758277Y-8749679D02*
X5739229Y-8759202D01*
X6024944Y-8768726D02*
X6024944Y-8902060D01*
X5977325Y-8692536D02*
X5929706Y-8835393D01*
X5929706Y-8835393D02*
X6053515Y-8835393D01*
X6158277Y-8787774D02*
X6139229Y-8778250D01*
X6139229Y-8778250D02*
X6129706Y-8768726D01*
X6129706Y-8768726D02*
X6120182Y-8749679D01*
X6120182Y-8749679D02*
X6120182Y-8740155D01*
X6120182Y-8740155D02*
X6129706Y-8721107D01*
X6129706Y-8721107D02*
X6139229Y-8711583D01*
X6139229Y-8711583D02*
X6158277Y-8702060D01*
X6158277Y-8702060D02*
X6196372Y-8702060D01*
X6196372Y-8702060D02*
X6215420Y-8711583D01*
X6215420Y-8711583D02*
X6224944Y-8721107D01*
X6224944Y-8721107D02*
X6234468Y-8740155D01*
X6234468Y-8740155D02*
X6234468Y-8749679D01*
X6234468Y-8749679D02*
X6224944Y-8768726D01*
X6224944Y-8768726D02*
X6215420Y-8778250D01*
X6215420Y-8778250D02*
X6196372Y-8787774D01*
X6196372Y-8787774D02*
X6158277Y-8787774D01*
X6158277Y-8787774D02*
X6139229Y-8797298D01*
X6139229Y-8797298D02*
X6129706Y-8806822D01*
X6129706Y-8806822D02*
X6120182Y-8825869D01*
X6120182Y-8825869D02*
X6120182Y-8863964D01*
X6120182Y-8863964D02*
X6129706Y-8883012D01*
X6129706Y-8883012D02*
X6139229Y-8892536D01*
X6139229Y-8892536D02*
X6158277Y-8902060D01*
X6158277Y-8902060D02*
X6196372Y-8902060D01*
X6196372Y-8902060D02*
X6215420Y-8892536D01*
X6215420Y-8892536D02*
X6224944Y-8883012D01*
X6224944Y-8883012D02*
X6234468Y-8863964D01*
X6234468Y-8863964D02*
X6234468Y-8825869D01*
X6234468Y-8825869D02*
X6224944Y-8806822D01*
X6224944Y-8806822D02*
X6215420Y-8797298D01*
X6215420Y-8797298D02*
X6196372Y-8787774D01*
X6472563Y-8902060D02*
X6472563Y-8702060D01*
X6558277Y-8902060D02*
X6558277Y-8797298D01*
X6558277Y-8797298D02*
X6548753Y-8778250D01*
X6548753Y-8778250D02*
X6529706Y-8768726D01*
X6529706Y-8768726D02*
X6501134Y-8768726D01*
X6501134Y-8768726D02*
X6482087Y-8778250D01*
X6482087Y-8778250D02*
X6472563Y-8787774D01*
X6682087Y-8902060D02*
X6663039Y-8892536D01*
X6663039Y-8892536D02*
X6653515Y-8883012D01*
X6653515Y-8883012D02*
X6643991Y-8863964D01*
X6643991Y-8863964D02*
X6643991Y-8806822D01*
X6643991Y-8806822D02*
X6653515Y-8787774D01*
X6653515Y-8787774D02*
X6663039Y-8778250D01*
X6663039Y-8778250D02*
X6682087Y-8768726D01*
X6682087Y-8768726D02*
X6710658Y-8768726D01*
X6710658Y-8768726D02*
X6729706Y-8778250D01*
X6729706Y-8778250D02*
X6739230Y-8787774D01*
X6739230Y-8787774D02*
X6748753Y-8806822D01*
X6748753Y-8806822D02*
X6748753Y-8863964D01*
X6748753Y-8863964D02*
X6739230Y-8883012D01*
X6739230Y-8883012D02*
X6729706Y-8892536D01*
X6729706Y-8892536D02*
X6710658Y-8902060D01*
X6710658Y-8902060D02*
X6682087Y-8902060D01*
X6863039Y-8902060D02*
X6843991Y-8892536D01*
X6843991Y-8892536D02*
X6834468Y-8873488D01*
X6834468Y-8873488D02*
X6834468Y-8702060D01*
X7015420Y-8892536D02*
X6996372Y-8902060D01*
X6996372Y-8902060D02*
X6958277Y-8902060D01*
X6958277Y-8902060D02*
X6939230Y-8892536D01*
X6939230Y-8892536D02*
X6929706Y-8873488D01*
X6929706Y-8873488D02*
X6929706Y-8797298D01*
X6929706Y-8797298D02*
X6939230Y-8778250D01*
X6939230Y-8778250D02*
X6958277Y-8768726D01*
X6958277Y-8768726D02*
X6996372Y-8768726D01*
X6996372Y-8768726D02*
X7015420Y-8778250D01*
X7015420Y-8778250D02*
X7024944Y-8797298D01*
X7024944Y-8797298D02*
X7024944Y-8816345D01*
X7024944Y-8816345D02*
X6929706Y-8835393D01*
X7101134Y-8892536D02*
X7120182Y-8902060D01*
X7120182Y-8902060D02*
X7158277Y-8902060D01*
X7158277Y-8902060D02*
X7177325Y-8892536D01*
X7177325Y-8892536D02*
X7186849Y-8873488D01*
X7186849Y-8873488D02*
X7186849Y-8863964D01*
X7186849Y-8863964D02*
X7177325Y-8844917D01*
X7177325Y-8844917D02*
X7158277Y-8835393D01*
X7158277Y-8835393D02*
X7129706Y-8835393D01*
X7129706Y-8835393D02*
X7110658Y-8825869D01*
X7110658Y-8825869D02*
X7101134Y-8806822D01*
X7101134Y-8806822D02*
X7101134Y-8797298D01*
X7101134Y-8797298D02*
X7110658Y-8778250D01*
X7110658Y-8778250D02*
X7129706Y-8768726D01*
X7129706Y-8768726D02*
X7158277Y-8768726D01*
X7158277Y-8768726D02*
X7177325Y-8778250D01*
X7253515Y-8978250D02*
X7263039Y-8968726D01*
X7263039Y-8968726D02*
X7282087Y-8940155D01*
X7282087Y-8940155D02*
X7291611Y-8921107D01*
X7291611Y-8921107D02*
X7301134Y-8892536D01*
X7301134Y-8892536D02*
X7310658Y-8844917D01*
X7310658Y-8844917D02*
X7310658Y-8806822D01*
X7310658Y-8806822D02*
X7301134Y-8759202D01*
X7301134Y-8759202D02*
X7291611Y-8730631D01*
X7291611Y-8730631D02*
X7282087Y-8711583D01*
X7282087Y-8711583D02*
X7263039Y-8683012D01*
X7263039Y-8683012D02*
X7253515Y-8673488D01*
D12*
X2093107Y-9085183D02*
X2093107Y-9063969D01*
X2071893Y-9063969D01*
X2071893Y-9085183D01*
X2093107Y-9085183D01*
D11*
X2396372Y-8966060D02*
X2415420Y-8966060D01*
X2415420Y-8966060D02*
X2434467Y-8975583D01*
X2434467Y-8975583D02*
X2443991Y-8985107D01*
X2443991Y-8985107D02*
X2453515Y-9004155D01*
X2453515Y-9004155D02*
X2463039Y-9042250D01*
X2463039Y-9042250D02*
X2463039Y-9089869D01*
X2463039Y-9089869D02*
X2453515Y-9127964D01*
X2453515Y-9127964D02*
X2443991Y-9147012D01*
X2443991Y-9147012D02*
X2434467Y-9156536D01*
X2434467Y-9156536D02*
X2415420Y-9166060D01*
X2415420Y-9166060D02*
X2396372Y-9166060D01*
X2396372Y-9166060D02*
X2377324Y-9156536D01*
X2377324Y-9156536D02*
X2367801Y-9147012D01*
X2367801Y-9147012D02*
X2358277Y-9127964D01*
X2358277Y-9127964D02*
X2348753Y-9089869D01*
X2348753Y-9089869D02*
X2348753Y-9042250D01*
X2348753Y-9042250D02*
X2358277Y-9004155D01*
X2358277Y-9004155D02*
X2367801Y-8985107D01*
X2367801Y-8985107D02*
X2377324Y-8975583D01*
X2377324Y-8975583D02*
X2396372Y-8966060D01*
X2548753Y-9147012D02*
X2558277Y-9156536D01*
X2558277Y-9156536D02*
X2548753Y-9166060D01*
X2548753Y-9166060D02*
X2539229Y-9156536D01*
X2539229Y-9156536D02*
X2548753Y-9147012D01*
X2548753Y-9147012D02*
X2548753Y-9166060D01*
X2624944Y-8966060D02*
X2748753Y-8966060D01*
X2748753Y-8966060D02*
X2682086Y-9042250D01*
X2682086Y-9042250D02*
X2710658Y-9042250D01*
X2710658Y-9042250D02*
X2729705Y-9051774D01*
X2729705Y-9051774D02*
X2739229Y-9061298D01*
X2739229Y-9061298D02*
X2748753Y-9080345D01*
X2748753Y-9080345D02*
X2748753Y-9127964D01*
X2748753Y-9127964D02*
X2739229Y-9147012D01*
X2739229Y-9147012D02*
X2729705Y-9156536D01*
X2729705Y-9156536D02*
X2710658Y-9166060D01*
X2710658Y-9166060D02*
X2653515Y-9166060D01*
X2653515Y-9166060D02*
X2634467Y-9156536D01*
X2634467Y-9156536D02*
X2624944Y-9147012D01*
X2872562Y-8966060D02*
X2891610Y-8966060D01*
X2891610Y-8966060D02*
X2910658Y-8975583D01*
X2910658Y-8975583D02*
X2920182Y-8985107D01*
X2920182Y-8985107D02*
X2929705Y-9004155D01*
X2929705Y-9004155D02*
X2939229Y-9042250D01*
X2939229Y-9042250D02*
X2939229Y-9089869D01*
X2939229Y-9089869D02*
X2929705Y-9127964D01*
X2929705Y-9127964D02*
X2920182Y-9147012D01*
X2920182Y-9147012D02*
X2910658Y-9156536D01*
X2910658Y-9156536D02*
X2891610Y-9166060D01*
X2891610Y-9166060D02*
X2872562Y-9166060D01*
X2872562Y-9166060D02*
X2853515Y-9156536D01*
X2853515Y-9156536D02*
X2843991Y-9147012D01*
X2843991Y-9147012D02*
X2834467Y-9127964D01*
X2834467Y-9127964D02*
X2824943Y-9089869D01*
X2824943Y-9089869D02*
X2824943Y-9042250D01*
X2824943Y-9042250D02*
X2834467Y-9004155D01*
X2834467Y-9004155D02*
X2843991Y-8985107D01*
X2843991Y-8985107D02*
X2853515Y-8975583D01*
X2853515Y-8975583D02*
X2872562Y-8966060D01*
X3063039Y-8966060D02*
X3082086Y-8966060D01*
X3082086Y-8966060D02*
X3101134Y-8975583D01*
X3101134Y-8975583D02*
X3110658Y-8985107D01*
X3110658Y-8985107D02*
X3120182Y-9004155D01*
X3120182Y-9004155D02*
X3129705Y-9042250D01*
X3129705Y-9042250D02*
X3129705Y-9089869D01*
X3129705Y-9089869D02*
X3120182Y-9127964D01*
X3120182Y-9127964D02*
X3110658Y-9147012D01*
X3110658Y-9147012D02*
X3101134Y-9156536D01*
X3101134Y-9156536D02*
X3082086Y-9166060D01*
X3082086Y-9166060D02*
X3063039Y-9166060D01*
X3063039Y-9166060D02*
X3043991Y-9156536D01*
X3043991Y-9156536D02*
X3034467Y-9147012D01*
X3034467Y-9147012D02*
X3024943Y-9127964D01*
X3024943Y-9127964D02*
X3015420Y-9089869D01*
X3015420Y-9089869D02*
X3015420Y-9042250D01*
X3015420Y-9042250D02*
X3024943Y-9004155D01*
X3024943Y-9004155D02*
X3034467Y-8985107D01*
X3034467Y-8985107D02*
X3043991Y-8975583D01*
X3043991Y-8975583D02*
X3063039Y-8966060D01*
X3215420Y-9166060D02*
X3215420Y-9032726D01*
X3215420Y-9051774D02*
X3224943Y-9042250D01*
X3224943Y-9042250D02*
X3243991Y-9032726D01*
X3243991Y-9032726D02*
X3272563Y-9032726D01*
X3272563Y-9032726D02*
X3291610Y-9042250D01*
X3291610Y-9042250D02*
X3301134Y-9061298D01*
X3301134Y-9061298D02*
X3301134Y-9166060D01*
X3301134Y-9061298D02*
X3310658Y-9042250D01*
X3310658Y-9042250D02*
X3329705Y-9032726D01*
X3329705Y-9032726D02*
X3358277Y-9032726D01*
X3358277Y-9032726D02*
X3377324Y-9042250D01*
X3377324Y-9042250D02*
X3386848Y-9061298D01*
X3386848Y-9061298D02*
X3386848Y-9166060D01*
X3482086Y-9166060D02*
X3482086Y-9032726D01*
X3482086Y-9051774D02*
X3491610Y-9042250D01*
X3491610Y-9042250D02*
X3510658Y-9032726D01*
X3510658Y-9032726D02*
X3539229Y-9032726D01*
X3539229Y-9032726D02*
X3558277Y-9042250D01*
X3558277Y-9042250D02*
X3567801Y-9061298D01*
X3567801Y-9061298D02*
X3567801Y-9166060D01*
X3567801Y-9061298D02*
X3577324Y-9042250D01*
X3577324Y-9042250D02*
X3596372Y-9032726D01*
X3596372Y-9032726D02*
X3624943Y-9032726D01*
X3624943Y-9032726D02*
X3643991Y-9042250D01*
X3643991Y-9042250D02*
X3653515Y-9061298D01*
X3653515Y-9061298D02*
X3653515Y-9166060D01*
X4043991Y-8956536D02*
X3872563Y-9213679D01*
X4301134Y-8966060D02*
X4320182Y-8966060D01*
X4320182Y-8966060D02*
X4339229Y-8975583D01*
X4339229Y-8975583D02*
X4348753Y-8985107D01*
X4348753Y-8985107D02*
X4358277Y-9004155D01*
X4358277Y-9004155D02*
X4367801Y-9042250D01*
X4367801Y-9042250D02*
X4367801Y-9089869D01*
X4367801Y-9089869D02*
X4358277Y-9127964D01*
X4358277Y-9127964D02*
X4348753Y-9147012D01*
X4348753Y-9147012D02*
X4339229Y-9156536D01*
X4339229Y-9156536D02*
X4320182Y-9166060D01*
X4320182Y-9166060D02*
X4301134Y-9166060D01*
X4301134Y-9166060D02*
X4282087Y-9156536D01*
X4282087Y-9156536D02*
X4272563Y-9147012D01*
X4272563Y-9147012D02*
X4263039Y-9127964D01*
X4263039Y-9127964D02*
X4253515Y-9089869D01*
X4253515Y-9089869D02*
X4253515Y-9042250D01*
X4253515Y-9042250D02*
X4263039Y-9004155D01*
X4263039Y-9004155D02*
X4272563Y-8985107D01*
X4272563Y-8985107D02*
X4282087Y-8975583D01*
X4282087Y-8975583D02*
X4301134Y-8966060D01*
X4453515Y-9147012D02*
X4463039Y-9156536D01*
X4463039Y-9156536D02*
X4453515Y-9166060D01*
X4453515Y-9166060D02*
X4443991Y-9156536D01*
X4443991Y-9156536D02*
X4453515Y-9147012D01*
X4453515Y-9147012D02*
X4453515Y-9166060D01*
X4586848Y-8966060D02*
X4605896Y-8966060D01*
X4605896Y-8966060D02*
X4624944Y-8975583D01*
X4624944Y-8975583D02*
X4634468Y-8985107D01*
X4634468Y-8985107D02*
X4643991Y-9004155D01*
X4643991Y-9004155D02*
X4653515Y-9042250D01*
X4653515Y-9042250D02*
X4653515Y-9089869D01*
X4653515Y-9089869D02*
X4643991Y-9127964D01*
X4643991Y-9127964D02*
X4634468Y-9147012D01*
X4634468Y-9147012D02*
X4624944Y-9156536D01*
X4624944Y-9156536D02*
X4605896Y-9166060D01*
X4605896Y-9166060D02*
X4586848Y-9166060D01*
X4586848Y-9166060D02*
X4567801Y-9156536D01*
X4567801Y-9156536D02*
X4558277Y-9147012D01*
X4558277Y-9147012D02*
X4548753Y-9127964D01*
X4548753Y-9127964D02*
X4539229Y-9089869D01*
X4539229Y-9089869D02*
X4539229Y-9042250D01*
X4539229Y-9042250D02*
X4548753Y-9004155D01*
X4548753Y-9004155D02*
X4558277Y-8985107D01*
X4558277Y-8985107D02*
X4567801Y-8975583D01*
X4567801Y-8975583D02*
X4586848Y-8966060D01*
X4843991Y-9166060D02*
X4729706Y-9166060D01*
X4786848Y-9166060D02*
X4786848Y-8966060D01*
X4786848Y-8966060D02*
X4767801Y-8994631D01*
X4767801Y-8994631D02*
X4748753Y-9013679D01*
X4748753Y-9013679D02*
X4729706Y-9023202D01*
X5034468Y-9166060D02*
X4920182Y-9166060D01*
X4977325Y-9166060D02*
X4977325Y-8966060D01*
X4977325Y-8966060D02*
X4958277Y-8994631D01*
X4958277Y-8994631D02*
X4939229Y-9013679D01*
X4939229Y-9013679D02*
X4920182Y-9023202D01*
X5148753Y-9051774D02*
X5129706Y-9042250D01*
X5129706Y-9042250D02*
X5120182Y-9032726D01*
X5120182Y-9032726D02*
X5110658Y-9013679D01*
X5110658Y-9013679D02*
X5110658Y-9004155D01*
X5110658Y-9004155D02*
X5120182Y-8985107D01*
X5120182Y-8985107D02*
X5129706Y-8975583D01*
X5129706Y-8975583D02*
X5148753Y-8966060D01*
X5148753Y-8966060D02*
X5186849Y-8966060D01*
X5186849Y-8966060D02*
X5205896Y-8975583D01*
X5205896Y-8975583D02*
X5215420Y-8985107D01*
X5215420Y-8985107D02*
X5224944Y-9004155D01*
X5224944Y-9004155D02*
X5224944Y-9013679D01*
X5224944Y-9013679D02*
X5215420Y-9032726D01*
X5215420Y-9032726D02*
X5205896Y-9042250D01*
X5205896Y-9042250D02*
X5186849Y-9051774D01*
X5186849Y-9051774D02*
X5148753Y-9051774D01*
X5148753Y-9051774D02*
X5129706Y-9061298D01*
X5129706Y-9061298D02*
X5120182Y-9070822D01*
X5120182Y-9070822D02*
X5110658Y-9089869D01*
X5110658Y-9089869D02*
X5110658Y-9127964D01*
X5110658Y-9127964D02*
X5120182Y-9147012D01*
X5120182Y-9147012D02*
X5129706Y-9156536D01*
X5129706Y-9156536D02*
X5148753Y-9166060D01*
X5148753Y-9166060D02*
X5186849Y-9166060D01*
X5186849Y-9166060D02*
X5205896Y-9156536D01*
X5205896Y-9156536D02*
X5215420Y-9147012D01*
X5215420Y-9147012D02*
X5224944Y-9127964D01*
X5224944Y-9127964D02*
X5224944Y-9089869D01*
X5224944Y-9089869D02*
X5215420Y-9070822D01*
X5215420Y-9070822D02*
X5205896Y-9061298D01*
X5205896Y-9061298D02*
X5186849Y-9051774D01*
X5301134Y-8966060D02*
X5301134Y-9004155D01*
X5377325Y-8966060D02*
X5377325Y-9004155D01*
X5672563Y-9242250D02*
X5663039Y-9232726D01*
X5663039Y-9232726D02*
X5643991Y-9204155D01*
X5643991Y-9204155D02*
X5634468Y-9185107D01*
X5634468Y-9185107D02*
X5624944Y-9156536D01*
X5624944Y-9156536D02*
X5615420Y-9108917D01*
X5615420Y-9108917D02*
X5615420Y-9070822D01*
X5615420Y-9070822D02*
X5624944Y-9023202D01*
X5624944Y-9023202D02*
X5634468Y-8994631D01*
X5634468Y-8994631D02*
X5643991Y-8975583D01*
X5643991Y-8975583D02*
X5663039Y-8947012D01*
X5663039Y-8947012D02*
X5672563Y-8937488D01*
X5834468Y-9032726D02*
X5834468Y-9166060D01*
X5786848Y-8956536D02*
X5739229Y-9099393D01*
X5739229Y-9099393D02*
X5863039Y-9099393D01*
X6091610Y-9166060D02*
X6091610Y-8966060D01*
X6177325Y-9166060D02*
X6177325Y-9061298D01*
X6177325Y-9061298D02*
X6167801Y-9042250D01*
X6167801Y-9042250D02*
X6148753Y-9032726D01*
X6148753Y-9032726D02*
X6120182Y-9032726D01*
X6120182Y-9032726D02*
X6101134Y-9042250D01*
X6101134Y-9042250D02*
X6091610Y-9051774D01*
X6301134Y-9166060D02*
X6282087Y-9156536D01*
X6282087Y-9156536D02*
X6272563Y-9147012D01*
X6272563Y-9147012D02*
X6263039Y-9127964D01*
X6263039Y-9127964D02*
X6263039Y-9070822D01*
X6263039Y-9070822D02*
X6272563Y-9051774D01*
X6272563Y-9051774D02*
X6282087Y-9042250D01*
X6282087Y-9042250D02*
X6301134Y-9032726D01*
X6301134Y-9032726D02*
X6329706Y-9032726D01*
X6329706Y-9032726D02*
X6348753Y-9042250D01*
X6348753Y-9042250D02*
X6358277Y-9051774D01*
X6358277Y-9051774D02*
X6367801Y-9070822D01*
X6367801Y-9070822D02*
X6367801Y-9127964D01*
X6367801Y-9127964D02*
X6358277Y-9147012D01*
X6358277Y-9147012D02*
X6348753Y-9156536D01*
X6348753Y-9156536D02*
X6329706Y-9166060D01*
X6329706Y-9166060D02*
X6301134Y-9166060D01*
X6482087Y-9166060D02*
X6463039Y-9156536D01*
X6463039Y-9156536D02*
X6453515Y-9137488D01*
X6453515Y-9137488D02*
X6453515Y-8966060D01*
X6634468Y-9156536D02*
X6615420Y-9166060D01*
X6615420Y-9166060D02*
X6577325Y-9166060D01*
X6577325Y-9166060D02*
X6558277Y-9156536D01*
X6558277Y-9156536D02*
X6548753Y-9137488D01*
X6548753Y-9137488D02*
X6548753Y-9061298D01*
X6548753Y-9061298D02*
X6558277Y-9042250D01*
X6558277Y-9042250D02*
X6577325Y-9032726D01*
X6577325Y-9032726D02*
X6615420Y-9032726D01*
X6615420Y-9032726D02*
X6634468Y-9042250D01*
X6634468Y-9042250D02*
X6643991Y-9061298D01*
X6643991Y-9061298D02*
X6643991Y-9080345D01*
X6643991Y-9080345D02*
X6548753Y-9099393D01*
X6720182Y-9156536D02*
X6739230Y-9166060D01*
X6739230Y-9166060D02*
X6777325Y-9166060D01*
X6777325Y-9166060D02*
X6796372Y-9156536D01*
X6796372Y-9156536D02*
X6805896Y-9137488D01*
X6805896Y-9137488D02*
X6805896Y-9127964D01*
X6805896Y-9127964D02*
X6796372Y-9108917D01*
X6796372Y-9108917D02*
X6777325Y-9099393D01*
X6777325Y-9099393D02*
X6748753Y-9099393D01*
X6748753Y-9099393D02*
X6729706Y-9089869D01*
X6729706Y-9089869D02*
X6720182Y-9070822D01*
X6720182Y-9070822D02*
X6720182Y-9061298D01*
X6720182Y-9061298D02*
X6729706Y-9042250D01*
X6729706Y-9042250D02*
X6748753Y-9032726D01*
X6748753Y-9032726D02*
X6777325Y-9032726D01*
X6777325Y-9032726D02*
X6796372Y-9042250D01*
X6872563Y-9242250D02*
X6882087Y-9232726D01*
X6882087Y-9232726D02*
X6901134Y-9204155D01*
X6901134Y-9204155D02*
X6910658Y-9185107D01*
X6910658Y-9185107D02*
X6920182Y-9156536D01*
X6920182Y-9156536D02*
X6929706Y-9108917D01*
X6929706Y-9108917D02*
X6929706Y-9070822D01*
X6929706Y-9070822D02*
X6920182Y-9023202D01*
X6920182Y-9023202D02*
X6910658Y-8994631D01*
X6910658Y-8994631D02*
X6901134Y-8975583D01*
X6901134Y-8975583D02*
X6882087Y-8947012D01*
X6882087Y-8947012D02*
X6872563Y-8937488D01*
D12*
X2067500Y-9368576D02*
X2097500Y-9338576D01*
X2067500Y-9308576D01*
X2037500Y-9338576D01*
X2067500Y-9368576D01*
D11*
X2396372Y-9230060D02*
X2415420Y-9230060D01*
X2415420Y-9230060D02*
X2434467Y-9239583D01*
X2434467Y-9239583D02*
X2443991Y-9249107D01*
X2443991Y-9249107D02*
X2453515Y-9268155D01*
X2453515Y-9268155D02*
X2463039Y-9306250D01*
X2463039Y-9306250D02*
X2463039Y-9353869D01*
X2463039Y-9353869D02*
X2453515Y-9391964D01*
X2453515Y-9391964D02*
X2443991Y-9411012D01*
X2443991Y-9411012D02*
X2434467Y-9420536D01*
X2434467Y-9420536D02*
X2415420Y-9430060D01*
X2415420Y-9430060D02*
X2396372Y-9430060D01*
X2396372Y-9430060D02*
X2377324Y-9420536D01*
X2377324Y-9420536D02*
X2367801Y-9411012D01*
X2367801Y-9411012D02*
X2358277Y-9391964D01*
X2358277Y-9391964D02*
X2348753Y-9353869D01*
X2348753Y-9353869D02*
X2348753Y-9306250D01*
X2348753Y-9306250D02*
X2358277Y-9268155D01*
X2358277Y-9268155D02*
X2367801Y-9249107D01*
X2367801Y-9249107D02*
X2377324Y-9239583D01*
X2377324Y-9239583D02*
X2396372Y-9230060D01*
X2548753Y-9411012D02*
X2558277Y-9420536D01*
X2558277Y-9420536D02*
X2548753Y-9430060D01*
X2548753Y-9430060D02*
X2539229Y-9420536D01*
X2539229Y-9420536D02*
X2548753Y-9411012D01*
X2548753Y-9411012D02*
X2548753Y-9430060D01*
X2729705Y-9230060D02*
X2691610Y-9230060D01*
X2691610Y-9230060D02*
X2672563Y-9239583D01*
X2672563Y-9239583D02*
X2663039Y-9249107D01*
X2663039Y-9249107D02*
X2643991Y-9277679D01*
X2643991Y-9277679D02*
X2634467Y-9315774D01*
X2634467Y-9315774D02*
X2634467Y-9391964D01*
X2634467Y-9391964D02*
X2643991Y-9411012D01*
X2643991Y-9411012D02*
X2653515Y-9420536D01*
X2653515Y-9420536D02*
X2672563Y-9430060D01*
X2672563Y-9430060D02*
X2710658Y-9430060D01*
X2710658Y-9430060D02*
X2729705Y-9420536D01*
X2729705Y-9420536D02*
X2739229Y-9411012D01*
X2739229Y-9411012D02*
X2748753Y-9391964D01*
X2748753Y-9391964D02*
X2748753Y-9344345D01*
X2748753Y-9344345D02*
X2739229Y-9325298D01*
X2739229Y-9325298D02*
X2729705Y-9315774D01*
X2729705Y-9315774D02*
X2710658Y-9306250D01*
X2710658Y-9306250D02*
X2672563Y-9306250D01*
X2672563Y-9306250D02*
X2653515Y-9315774D01*
X2653515Y-9315774D02*
X2643991Y-9325298D01*
X2643991Y-9325298D02*
X2634467Y-9344345D01*
X2872562Y-9230060D02*
X2891610Y-9230060D01*
X2891610Y-9230060D02*
X2910658Y-9239583D01*
X2910658Y-9239583D02*
X2920182Y-9249107D01*
X2920182Y-9249107D02*
X2929705Y-9268155D01*
X2929705Y-9268155D02*
X2939229Y-9306250D01*
X2939229Y-9306250D02*
X2939229Y-9353869D01*
X2939229Y-9353869D02*
X2929705Y-9391964D01*
X2929705Y-9391964D02*
X2920182Y-9411012D01*
X2920182Y-9411012D02*
X2910658Y-9420536D01*
X2910658Y-9420536D02*
X2891610Y-9430060D01*
X2891610Y-9430060D02*
X2872562Y-9430060D01*
X2872562Y-9430060D02*
X2853515Y-9420536D01*
X2853515Y-9420536D02*
X2843991Y-9411012D01*
X2843991Y-9411012D02*
X2834467Y-9391964D01*
X2834467Y-9391964D02*
X2824943Y-9353869D01*
X2824943Y-9353869D02*
X2824943Y-9306250D01*
X2824943Y-9306250D02*
X2834467Y-9268155D01*
X2834467Y-9268155D02*
X2843991Y-9249107D01*
X2843991Y-9249107D02*
X2853515Y-9239583D01*
X2853515Y-9239583D02*
X2872562Y-9230060D01*
X3063039Y-9230060D02*
X3082086Y-9230060D01*
X3082086Y-9230060D02*
X3101134Y-9239583D01*
X3101134Y-9239583D02*
X3110658Y-9249107D01*
X3110658Y-9249107D02*
X3120182Y-9268155D01*
X3120182Y-9268155D02*
X3129705Y-9306250D01*
X3129705Y-9306250D02*
X3129705Y-9353869D01*
X3129705Y-9353869D02*
X3120182Y-9391964D01*
X3120182Y-9391964D02*
X3110658Y-9411012D01*
X3110658Y-9411012D02*
X3101134Y-9420536D01*
X3101134Y-9420536D02*
X3082086Y-9430060D01*
X3082086Y-9430060D02*
X3063039Y-9430060D01*
X3063039Y-9430060D02*
X3043991Y-9420536D01*
X3043991Y-9420536D02*
X3034467Y-9411012D01*
X3034467Y-9411012D02*
X3024943Y-9391964D01*
X3024943Y-9391964D02*
X3015420Y-9353869D01*
X3015420Y-9353869D02*
X3015420Y-9306250D01*
X3015420Y-9306250D02*
X3024943Y-9268155D01*
X3024943Y-9268155D02*
X3034467Y-9249107D01*
X3034467Y-9249107D02*
X3043991Y-9239583D01*
X3043991Y-9239583D02*
X3063039Y-9230060D01*
X3215420Y-9430060D02*
X3215420Y-9296726D01*
X3215420Y-9315774D02*
X3224943Y-9306250D01*
X3224943Y-9306250D02*
X3243991Y-9296726D01*
X3243991Y-9296726D02*
X3272563Y-9296726D01*
X3272563Y-9296726D02*
X3291610Y-9306250D01*
X3291610Y-9306250D02*
X3301134Y-9325298D01*
X3301134Y-9325298D02*
X3301134Y-9430060D01*
X3301134Y-9325298D02*
X3310658Y-9306250D01*
X3310658Y-9306250D02*
X3329705Y-9296726D01*
X3329705Y-9296726D02*
X3358277Y-9296726D01*
X3358277Y-9296726D02*
X3377324Y-9306250D01*
X3377324Y-9306250D02*
X3386848Y-9325298D01*
X3386848Y-9325298D02*
X3386848Y-9430060D01*
X3482086Y-9430060D02*
X3482086Y-9296726D01*
X3482086Y-9315774D02*
X3491610Y-9306250D01*
X3491610Y-9306250D02*
X3510658Y-9296726D01*
X3510658Y-9296726D02*
X3539229Y-9296726D01*
X3539229Y-9296726D02*
X3558277Y-9306250D01*
X3558277Y-9306250D02*
X3567801Y-9325298D01*
X3567801Y-9325298D02*
X3567801Y-9430060D01*
X3567801Y-9325298D02*
X3577324Y-9306250D01*
X3577324Y-9306250D02*
X3596372Y-9296726D01*
X3596372Y-9296726D02*
X3624943Y-9296726D01*
X3624943Y-9296726D02*
X3643991Y-9306250D01*
X3643991Y-9306250D02*
X3653515Y-9325298D01*
X3653515Y-9325298D02*
X3653515Y-9430060D01*
X4043991Y-9220536D02*
X3872563Y-9477679D01*
X4301134Y-9230060D02*
X4320182Y-9230060D01*
X4320182Y-9230060D02*
X4339229Y-9239583D01*
X4339229Y-9239583D02*
X4348753Y-9249107D01*
X4348753Y-9249107D02*
X4358277Y-9268155D01*
X4358277Y-9268155D02*
X4367801Y-9306250D01*
X4367801Y-9306250D02*
X4367801Y-9353869D01*
X4367801Y-9353869D02*
X4358277Y-9391964D01*
X4358277Y-9391964D02*
X4348753Y-9411012D01*
X4348753Y-9411012D02*
X4339229Y-9420536D01*
X4339229Y-9420536D02*
X4320182Y-9430060D01*
X4320182Y-9430060D02*
X4301134Y-9430060D01*
X4301134Y-9430060D02*
X4282087Y-9420536D01*
X4282087Y-9420536D02*
X4272563Y-9411012D01*
X4272563Y-9411012D02*
X4263039Y-9391964D01*
X4263039Y-9391964D02*
X4253515Y-9353869D01*
X4253515Y-9353869D02*
X4253515Y-9306250D01*
X4253515Y-9306250D02*
X4263039Y-9268155D01*
X4263039Y-9268155D02*
X4272563Y-9249107D01*
X4272563Y-9249107D02*
X4282087Y-9239583D01*
X4282087Y-9239583D02*
X4301134Y-9230060D01*
X4453515Y-9411012D02*
X4463039Y-9420536D01*
X4463039Y-9420536D02*
X4453515Y-9430060D01*
X4453515Y-9430060D02*
X4443991Y-9420536D01*
X4443991Y-9420536D02*
X4453515Y-9411012D01*
X4453515Y-9411012D02*
X4453515Y-9430060D01*
X4586848Y-9230060D02*
X4605896Y-9230060D01*
X4605896Y-9230060D02*
X4624944Y-9239583D01*
X4624944Y-9239583D02*
X4634468Y-9249107D01*
X4634468Y-9249107D02*
X4643991Y-9268155D01*
X4643991Y-9268155D02*
X4653515Y-9306250D01*
X4653515Y-9306250D02*
X4653515Y-9353869D01*
X4653515Y-9353869D02*
X4643991Y-9391964D01*
X4643991Y-9391964D02*
X4634468Y-9411012D01*
X4634468Y-9411012D02*
X4624944Y-9420536D01*
X4624944Y-9420536D02*
X4605896Y-9430060D01*
X4605896Y-9430060D02*
X4586848Y-9430060D01*
X4586848Y-9430060D02*
X4567801Y-9420536D01*
X4567801Y-9420536D02*
X4558277Y-9411012D01*
X4558277Y-9411012D02*
X4548753Y-9391964D01*
X4548753Y-9391964D02*
X4539229Y-9353869D01*
X4539229Y-9353869D02*
X4539229Y-9306250D01*
X4539229Y-9306250D02*
X4548753Y-9268155D01*
X4548753Y-9268155D02*
X4558277Y-9249107D01*
X4558277Y-9249107D02*
X4567801Y-9239583D01*
X4567801Y-9239583D02*
X4586848Y-9230060D01*
X4729706Y-9249107D02*
X4739229Y-9239583D01*
X4739229Y-9239583D02*
X4758277Y-9230060D01*
X4758277Y-9230060D02*
X4805896Y-9230060D01*
X4805896Y-9230060D02*
X4824944Y-9239583D01*
X4824944Y-9239583D02*
X4834468Y-9249107D01*
X4834468Y-9249107D02*
X4843991Y-9268155D01*
X4843991Y-9268155D02*
X4843991Y-9287202D01*
X4843991Y-9287202D02*
X4834468Y-9315774D01*
X4834468Y-9315774D02*
X4720182Y-9430060D01*
X4720182Y-9430060D02*
X4843991Y-9430060D01*
X4910658Y-9230060D02*
X5034468Y-9230060D01*
X5034468Y-9230060D02*
X4967801Y-9306250D01*
X4967801Y-9306250D02*
X4996372Y-9306250D01*
X4996372Y-9306250D02*
X5015420Y-9315774D01*
X5015420Y-9315774D02*
X5024944Y-9325298D01*
X5024944Y-9325298D02*
X5034468Y-9344345D01*
X5034468Y-9344345D02*
X5034468Y-9391964D01*
X5034468Y-9391964D02*
X5024944Y-9411012D01*
X5024944Y-9411012D02*
X5015420Y-9420536D01*
X5015420Y-9420536D02*
X4996372Y-9430060D01*
X4996372Y-9430060D02*
X4939229Y-9430060D01*
X4939229Y-9430060D02*
X4920182Y-9420536D01*
X4920182Y-9420536D02*
X4910658Y-9411012D01*
X5205896Y-9230060D02*
X5167801Y-9230060D01*
X5167801Y-9230060D02*
X5148753Y-9239583D01*
X5148753Y-9239583D02*
X5139229Y-9249107D01*
X5139229Y-9249107D02*
X5120182Y-9277679D01*
X5120182Y-9277679D02*
X5110658Y-9315774D01*
X5110658Y-9315774D02*
X5110658Y-9391964D01*
X5110658Y-9391964D02*
X5120182Y-9411012D01*
X5120182Y-9411012D02*
X5129706Y-9420536D01*
X5129706Y-9420536D02*
X5148753Y-9430060D01*
X5148753Y-9430060D02*
X5186849Y-9430060D01*
X5186849Y-9430060D02*
X5205896Y-9420536D01*
X5205896Y-9420536D02*
X5215420Y-9411012D01*
X5215420Y-9411012D02*
X5224944Y-9391964D01*
X5224944Y-9391964D02*
X5224944Y-9344345D01*
X5224944Y-9344345D02*
X5215420Y-9325298D01*
X5215420Y-9325298D02*
X5205896Y-9315774D01*
X5205896Y-9315774D02*
X5186849Y-9306250D01*
X5186849Y-9306250D02*
X5148753Y-9306250D01*
X5148753Y-9306250D02*
X5129706Y-9315774D01*
X5129706Y-9315774D02*
X5120182Y-9325298D01*
X5120182Y-9325298D02*
X5110658Y-9344345D01*
X5301134Y-9230060D02*
X5301134Y-9268155D01*
X5377325Y-9230060D02*
X5377325Y-9268155D01*
X5672563Y-9506250D02*
X5663039Y-9496726D01*
X5663039Y-9496726D02*
X5643991Y-9468155D01*
X5643991Y-9468155D02*
X5634468Y-9449107D01*
X5634468Y-9449107D02*
X5624944Y-9420536D01*
X5624944Y-9420536D02*
X5615420Y-9372917D01*
X5615420Y-9372917D02*
X5615420Y-9334822D01*
X5615420Y-9334822D02*
X5624944Y-9287202D01*
X5624944Y-9287202D02*
X5634468Y-9258631D01*
X5634468Y-9258631D02*
X5643991Y-9239583D01*
X5643991Y-9239583D02*
X5663039Y-9211012D01*
X5663039Y-9211012D02*
X5672563Y-9201488D01*
X5786848Y-9230060D02*
X5805896Y-9230060D01*
X5805896Y-9230060D02*
X5824944Y-9239583D01*
X5824944Y-9239583D02*
X5834468Y-9249107D01*
X5834468Y-9249107D02*
X5843991Y-9268155D01*
X5843991Y-9268155D02*
X5853515Y-9306250D01*
X5853515Y-9306250D02*
X5853515Y-9353869D01*
X5853515Y-9353869D02*
X5843991Y-9391964D01*
X5843991Y-9391964D02*
X5834468Y-9411012D01*
X5834468Y-9411012D02*
X5824944Y-9420536D01*
X5824944Y-9420536D02*
X5805896Y-9430060D01*
X5805896Y-9430060D02*
X5786848Y-9430060D01*
X5786848Y-9430060D02*
X5767801Y-9420536D01*
X5767801Y-9420536D02*
X5758277Y-9411012D01*
X5758277Y-9411012D02*
X5748753Y-9391964D01*
X5748753Y-9391964D02*
X5739229Y-9353869D01*
X5739229Y-9353869D02*
X5739229Y-9306250D01*
X5739229Y-9306250D02*
X5748753Y-9268155D01*
X5748753Y-9268155D02*
X5758277Y-9249107D01*
X5758277Y-9249107D02*
X5767801Y-9239583D01*
X5767801Y-9239583D02*
X5786848Y-9230060D01*
X6091610Y-9430060D02*
X6091610Y-9230060D01*
X6177325Y-9430060D02*
X6177325Y-9325298D01*
X6177325Y-9325298D02*
X6167801Y-9306250D01*
X6167801Y-9306250D02*
X6148753Y-9296726D01*
X6148753Y-9296726D02*
X6120182Y-9296726D01*
X6120182Y-9296726D02*
X6101134Y-9306250D01*
X6101134Y-9306250D02*
X6091610Y-9315774D01*
X6301134Y-9430060D02*
X6282087Y-9420536D01*
X6282087Y-9420536D02*
X6272563Y-9411012D01*
X6272563Y-9411012D02*
X6263039Y-9391964D01*
X6263039Y-9391964D02*
X6263039Y-9334822D01*
X6263039Y-9334822D02*
X6272563Y-9315774D01*
X6272563Y-9315774D02*
X6282087Y-9306250D01*
X6282087Y-9306250D02*
X6301134Y-9296726D01*
X6301134Y-9296726D02*
X6329706Y-9296726D01*
X6329706Y-9296726D02*
X6348753Y-9306250D01*
X6348753Y-9306250D02*
X6358277Y-9315774D01*
X6358277Y-9315774D02*
X6367801Y-9334822D01*
X6367801Y-9334822D02*
X6367801Y-9391964D01*
X6367801Y-9391964D02*
X6358277Y-9411012D01*
X6358277Y-9411012D02*
X6348753Y-9420536D01*
X6348753Y-9420536D02*
X6329706Y-9430060D01*
X6329706Y-9430060D02*
X6301134Y-9430060D01*
X6482087Y-9430060D02*
X6463039Y-9420536D01*
X6463039Y-9420536D02*
X6453515Y-9401488D01*
X6453515Y-9401488D02*
X6453515Y-9230060D01*
X6634468Y-9420536D02*
X6615420Y-9430060D01*
X6615420Y-9430060D02*
X6577325Y-9430060D01*
X6577325Y-9430060D02*
X6558277Y-9420536D01*
X6558277Y-9420536D02*
X6548753Y-9401488D01*
X6548753Y-9401488D02*
X6548753Y-9325298D01*
X6548753Y-9325298D02*
X6558277Y-9306250D01*
X6558277Y-9306250D02*
X6577325Y-9296726D01*
X6577325Y-9296726D02*
X6615420Y-9296726D01*
X6615420Y-9296726D02*
X6634468Y-9306250D01*
X6634468Y-9306250D02*
X6643991Y-9325298D01*
X6643991Y-9325298D02*
X6643991Y-9344345D01*
X6643991Y-9344345D02*
X6548753Y-9363393D01*
X6720182Y-9420536D02*
X6739230Y-9430060D01*
X6739230Y-9430060D02*
X6777325Y-9430060D01*
X6777325Y-9430060D02*
X6796372Y-9420536D01*
X6796372Y-9420536D02*
X6805896Y-9401488D01*
X6805896Y-9401488D02*
X6805896Y-9391964D01*
X6805896Y-9391964D02*
X6796372Y-9372917D01*
X6796372Y-9372917D02*
X6777325Y-9363393D01*
X6777325Y-9363393D02*
X6748753Y-9363393D01*
X6748753Y-9363393D02*
X6729706Y-9353869D01*
X6729706Y-9353869D02*
X6720182Y-9334822D01*
X6720182Y-9334822D02*
X6720182Y-9325298D01*
X6720182Y-9325298D02*
X6729706Y-9306250D01*
X6729706Y-9306250D02*
X6748753Y-9296726D01*
X6748753Y-9296726D02*
X6777325Y-9296726D01*
X6777325Y-9296726D02*
X6796372Y-9306250D01*
X7043992Y-9353869D02*
X7196373Y-9353869D01*
X7120182Y-9430060D02*
X7120182Y-9277679D01*
X7529706Y-9296726D02*
X7529706Y-9430060D01*
X7482087Y-9220536D02*
X7434468Y-9363393D01*
X7434468Y-9363393D02*
X7558277Y-9363393D01*
X7777325Y-9420536D02*
X7796373Y-9430060D01*
X7796373Y-9430060D02*
X7834468Y-9430060D01*
X7834468Y-9430060D02*
X7853515Y-9420536D01*
X7853515Y-9420536D02*
X7863039Y-9401488D01*
X7863039Y-9401488D02*
X7863039Y-9391964D01*
X7863039Y-9391964D02*
X7853515Y-9372917D01*
X7853515Y-9372917D02*
X7834468Y-9363393D01*
X7834468Y-9363393D02*
X7805896Y-9363393D01*
X7805896Y-9363393D02*
X7786849Y-9353869D01*
X7786849Y-9353869D02*
X7777325Y-9334822D01*
X7777325Y-9334822D02*
X7777325Y-9325298D01*
X7777325Y-9325298D02*
X7786849Y-9306250D01*
X7786849Y-9306250D02*
X7805896Y-9296726D01*
X7805896Y-9296726D02*
X7834468Y-9296726D01*
X7834468Y-9296726D02*
X7853515Y-9306250D01*
X7977325Y-9430060D02*
X7958277Y-9420536D01*
X7958277Y-9420536D02*
X7948754Y-9401488D01*
X7948754Y-9401488D02*
X7948754Y-9230060D01*
X8082087Y-9430060D02*
X8063039Y-9420536D01*
X8063039Y-9420536D02*
X8053515Y-9411012D01*
X8053515Y-9411012D02*
X8043992Y-9391964D01*
X8043992Y-9391964D02*
X8043992Y-9334822D01*
X8043992Y-9334822D02*
X8053515Y-9315774D01*
X8053515Y-9315774D02*
X8063039Y-9306250D01*
X8063039Y-9306250D02*
X8082087Y-9296726D01*
X8082087Y-9296726D02*
X8110658Y-9296726D01*
X8110658Y-9296726D02*
X8129706Y-9306250D01*
X8129706Y-9306250D02*
X8139230Y-9315774D01*
X8139230Y-9315774D02*
X8148754Y-9334822D01*
X8148754Y-9334822D02*
X8148754Y-9391964D01*
X8148754Y-9391964D02*
X8139230Y-9411012D01*
X8139230Y-9411012D02*
X8129706Y-9420536D01*
X8129706Y-9420536D02*
X8110658Y-9430060D01*
X8110658Y-9430060D02*
X8082087Y-9430060D01*
X8205896Y-9296726D02*
X8282087Y-9296726D01*
X8234468Y-9230060D02*
X8234468Y-9401488D01*
X8234468Y-9401488D02*
X8243992Y-9420536D01*
X8243992Y-9420536D02*
X8263039Y-9430060D01*
X8263039Y-9430060D02*
X8282087Y-9430060D01*
X8339230Y-9420536D02*
X8358277Y-9430060D01*
X8358277Y-9430060D02*
X8396373Y-9430060D01*
X8396373Y-9430060D02*
X8415420Y-9420536D01*
X8415420Y-9420536D02*
X8424944Y-9401488D01*
X8424944Y-9401488D02*
X8424944Y-9391964D01*
X8424944Y-9391964D02*
X8415420Y-9372917D01*
X8415420Y-9372917D02*
X8396373Y-9363393D01*
X8396373Y-9363393D02*
X8367801Y-9363393D01*
X8367801Y-9363393D02*
X8348754Y-9353869D01*
X8348754Y-9353869D02*
X8339230Y-9334822D01*
X8339230Y-9334822D02*
X8339230Y-9325298D01*
X8339230Y-9325298D02*
X8348754Y-9306250D01*
X8348754Y-9306250D02*
X8367801Y-9296726D01*
X8367801Y-9296726D02*
X8396373Y-9296726D01*
X8396373Y-9296726D02*
X8415420Y-9306250D01*
X8491611Y-9506250D02*
X8501135Y-9496726D01*
X8501135Y-9496726D02*
X8520182Y-9468155D01*
X8520182Y-9468155D02*
X8529706Y-9449107D01*
X8529706Y-9449107D02*
X8539230Y-9420536D01*
X8539230Y-9420536D02*
X8548754Y-9372917D01*
X8548754Y-9372917D02*
X8548754Y-9334822D01*
X8548754Y-9334822D02*
X8539230Y-9287202D01*
X8539230Y-9287202D02*
X8529706Y-9258631D01*
X8529706Y-9258631D02*
X8520182Y-9239583D01*
X8520182Y-9239583D02*
X8501135Y-9211012D01*
X8501135Y-9211012D02*
X8491611Y-9201488D01*
M02*
