%TF.GenerationSoftware,KiCad,Pcbnew,10.0.6*%
%TF.CreationDate,2026-10-04T10:06:22+02:00*%
%TF.ProjectId,MAO_MAIN_A0,4d414f5f-4d41-4494-9e5f-41302e6b6963,A0*%
%TF.SameCoordinates,Original*%
%TF.FileFunction,Drillmap*%
%TF.FilePolarity,Positive*%
%FSLAX45Y45*%
G04 Gerber Fmt 4.5, Leading zero omitted, Abs format (unit mm)*
G04 Created by KiCad (PCBNEW 10.0.6) date 2026-10-04 10:06:22*
%MOMM*%
%LPD*%
G01*
G04 APERTURE LIST*
%ADD10C,0.050000*%
%ADD11C,0.200000*%
%ADD12C,0.100000*%
G04 APERTURE END LIST*
D10*
X3800000Y-7370000D02*
G75*
G02*
X3900000Y-7270000I100000J0D01*
G01*
X3800000Y-7640076D02*
X3800000Y-7370000D01*
X3800000Y-7640076D02*
G75*
G02*
X6200000Y-7640076I1200000J2640076D01*
G01*
X6100000Y-7270000D02*
X3900000Y-7270000D01*
X6100000Y-7270000D02*
G75*
G02*
X6200000Y-7370000I0J-100000D01*
G01*
X6200000Y-7640076D02*
X6200000Y-7370000D01*
D11*
D12*
X3370000Y-6000000D02*
X3390000Y-6020000D01*
X3390000Y-6000000D02*
X3370000Y-6020000D01*
X3500000Y-6170000D02*
X3520000Y-6190000D01*
X3520000Y-6170000D02*
X3500000Y-6190000D01*
X3634000Y-5470000D02*
X3654000Y-5490000D01*
X3654000Y-5470000D02*
X3634000Y-5490000D01*
X3950000Y-5670000D02*
X3970000Y-5690000D01*
X3970000Y-5670000D02*
X3950000Y-5690000D01*
X4000000Y-6985000D02*
X4020000Y-7005000D01*
X4020000Y-6985000D02*
X4000000Y-7005000D01*
X4050000Y-4605000D02*
X4070000Y-4625000D01*
X4070000Y-4605000D02*
X4050000Y-4625000D01*
X4050000Y-5360000D02*
X4070000Y-5380000D01*
X4070000Y-5360000D02*
X4050000Y-5380000D01*
X4105000Y-3635000D02*
X4125000Y-3655000D01*
X4125000Y-3635000D02*
X4105000Y-3655000D01*
X4185000Y-3685000D02*
X4205000Y-3705000D01*
X4205000Y-3685000D02*
X4185000Y-3705000D01*
X4185000Y-3785000D02*
X4205000Y-3805000D01*
X4205000Y-3785000D02*
X4185000Y-3805000D01*
X4230000Y-5590000D02*
X4250000Y-5610000D01*
X4250000Y-5590000D02*
X4230000Y-5610000D01*
X4365000Y-3465000D02*
X4385000Y-3485000D01*
X4385000Y-3465000D02*
X4365000Y-3485000D01*
X4418500Y-5465000D02*
X4438500Y-5485000D01*
X4438500Y-5465000D02*
X4418500Y-5485000D01*
X4440000Y-4005000D02*
X4460000Y-4025000D01*
X4460000Y-4005000D02*
X4440000Y-4025000D01*
X4465000Y-3465000D02*
X4485000Y-3485000D01*
X4485000Y-3465000D02*
X4465000Y-3485000D01*
X4550000Y-3465000D02*
X4570000Y-3485000D01*
X4570000Y-3465000D02*
X4550000Y-3485000D01*
X4615000Y-5752000D02*
X4635000Y-5772000D01*
X4635000Y-5752000D02*
X4615000Y-5772000D01*
X4615000Y-5848000D02*
X4635000Y-5868000D01*
X4635000Y-5848000D02*
X4615000Y-5868000D01*
X4695000Y-3635000D02*
X4715000Y-3655000D01*
X4715000Y-3635000D02*
X4695000Y-3655000D01*
X4695000Y-3735000D02*
X4715000Y-3755000D01*
X4715000Y-3735000D02*
X4695000Y-3755000D01*
X4775000Y-3785000D02*
X4795000Y-3805000D01*
X4795000Y-3785000D02*
X4775000Y-3805000D01*
X4880000Y-3330000D02*
X4900000Y-3350000D01*
X4900000Y-3330000D02*
X4880000Y-3350000D01*
X4910000Y-6050000D02*
X4930000Y-6070000D01*
X4930000Y-6050000D02*
X4910000Y-6070000D01*
X4915000Y-2915000D02*
X4935000Y-2935000D01*
X4935000Y-2915000D02*
X4915000Y-2935000D01*
X4980000Y-3390000D02*
X5000000Y-3410000D01*
X5000000Y-3390000D02*
X4980000Y-3410000D01*
X5015000Y-2915000D02*
X5035000Y-2935000D01*
X5035000Y-2915000D02*
X5015000Y-2935000D01*
X5065000Y-3045000D02*
X5085000Y-3065000D01*
X5085000Y-3045000D02*
X5065000Y-3065000D01*
X5090000Y-5670000D02*
X5110000Y-5690000D01*
X5110000Y-5670000D02*
X5090000Y-5690000D01*
X5142000Y-6145000D02*
X5162000Y-6165000D01*
X5162000Y-6145000D02*
X5142000Y-6165000D01*
X5307500Y-5200000D02*
X5327500Y-5220000D01*
X5327500Y-5200000D02*
X5307500Y-5220000D01*
X5315000Y-3925000D02*
X5335000Y-3945000D01*
X5335000Y-3925000D02*
X5315000Y-3945000D01*
X5434500Y-5465000D02*
X5454500Y-5485000D01*
X5454500Y-5465000D02*
X5434500Y-5485000D01*
X5750000Y-5841000D02*
X5770000Y-5861000D01*
X5770000Y-5841000D02*
X5750000Y-5861000D01*
X5750000Y-6857000D02*
X5770000Y-6877000D01*
X5770000Y-6857000D02*
X5750000Y-6877000D01*
X5835000Y-4165000D02*
X5855000Y-4185000D01*
X5855000Y-4165000D02*
X5835000Y-4185000D01*
X5932000Y-2930000D02*
X5952000Y-2950000D01*
X5952000Y-2930000D02*
X5932000Y-2950000D01*
X6025000Y-6095000D02*
X6045000Y-6115000D01*
X6045000Y-6095000D02*
X6025000Y-6115000D01*
X6025000Y-6222000D02*
X6045000Y-6242000D01*
X6045000Y-6222000D02*
X6025000Y-6242000D01*
X6025000Y-6349000D02*
X6045000Y-6369000D01*
X6045000Y-6349000D02*
X6025000Y-6369000D01*
X6025000Y-6476000D02*
X6045000Y-6496000D01*
X6045000Y-6476000D02*
X6025000Y-6496000D01*
X6141000Y-5365000D02*
X6161000Y-5385000D01*
X6161000Y-5365000D02*
X6141000Y-5385000D01*
X6213000Y-6725000D02*
X6233000Y-6745000D01*
X6233000Y-6725000D02*
X6213000Y-6745000D01*
X6213000Y-7045000D02*
X6233000Y-7065000D01*
X6233000Y-7045000D02*
X6213000Y-7065000D01*
X6340000Y-7045000D02*
X6360000Y-7065000D01*
X6360000Y-7045000D02*
X6340000Y-7065000D01*
X6467000Y-7045000D02*
X6487000Y-7065000D01*
X6487000Y-7045000D02*
X6467000Y-7065000D01*
X6590000Y-3430000D02*
X6610000Y-3450000D01*
X6610000Y-3430000D02*
X6590000Y-3450000D01*
X6890000Y-5620000D02*
X6910000Y-5640000D01*
X6910000Y-5620000D02*
X6890000Y-5640000D01*
X7135000Y-6185000D02*
X7155000Y-6205000D01*
X7155000Y-6185000D02*
X7135000Y-6205000D01*
X7210000Y-6470000D02*
X7230000Y-6490000D01*
X7230000Y-6470000D02*
X7210000Y-6490000D01*
X7263000Y-6025000D02*
X7283000Y-6045000D01*
X7283000Y-6025000D02*
X7263000Y-6045000D01*
X3473500Y-5063500D02*
G75*
G02*
X3453500Y-5063500I-10000J0D01*
G01*
X3453500Y-5063500D02*
G75*
G02*
X3473500Y-5063500I10000J0D01*
G01*
X3473500Y-5136500D02*
G75*
G02*
X3453500Y-5136500I-10000J0D01*
G01*
X3453500Y-5136500D02*
G75*
G02*
X3473500Y-5136500I10000J0D01*
G01*
X3546500Y-5063500D02*
G75*
G02*
X3526500Y-5063500I-10000J0D01*
G01*
X3526500Y-5063500D02*
G75*
G02*
X3546500Y-5063500I10000J0D01*
G01*
X3546500Y-5136500D02*
G75*
G02*
X3526500Y-5136500I-10000J0D01*
G01*
X3526500Y-5136500D02*
G75*
G02*
X3546500Y-5136500I10000J0D01*
G01*
X4412500Y-3672500D02*
G75*
G02*
X4392500Y-3672500I-10000J0D01*
G01*
X4392500Y-3672500D02*
G75*
G02*
X4412500Y-3672500I10000J0D01*
G01*
X4412500Y-3767500D02*
G75*
G02*
X4392500Y-3767500I-10000J0D01*
G01*
X4392500Y-3767500D02*
G75*
G02*
X4412500Y-3767500I10000J0D01*
G01*
X4507500Y-3672500D02*
G75*
G02*
X4487500Y-3672500I-10000J0D01*
G01*
X4487500Y-3672500D02*
G75*
G02*
X4507500Y-3672500I10000J0D01*
G01*
X4507500Y-3767500D02*
G75*
G02*
X4487500Y-3767500I-10000J0D01*
G01*
X4487500Y-3767500D02*
G75*
G02*
X4507500Y-3767500I10000J0D01*
G01*
X4720000Y-6279000D02*
G75*
G02*
X4700000Y-6279000I-10000J0D01*
G01*
X4700000Y-6279000D02*
G75*
G02*
X4720000Y-6279000I10000J0D01*
G01*
X4720000Y-6419000D02*
G75*
G02*
X4700000Y-6419000I-10000J0D01*
G01*
X4700000Y-6419000D02*
G75*
G02*
X4720000Y-6419000I10000J0D01*
G01*
X4790000Y-6209000D02*
G75*
G02*
X4770000Y-6209000I-10000J0D01*
G01*
X4770000Y-6209000D02*
G75*
G02*
X4790000Y-6209000I10000J0D01*
G01*
X4790000Y-6349000D02*
G75*
G02*
X4770000Y-6349000I-10000J0D01*
G01*
X4770000Y-6349000D02*
G75*
G02*
X4790000Y-6349000I10000J0D01*
G01*
X4790000Y-6489000D02*
G75*
G02*
X4770000Y-6489000I-10000J0D01*
G01*
X4770000Y-6489000D02*
G75*
G02*
X4790000Y-6489000I10000J0D01*
G01*
X4860000Y-6279000D02*
G75*
G02*
X4840000Y-6279000I-10000J0D01*
G01*
X4840000Y-6279000D02*
G75*
G02*
X4860000Y-6279000I10000J0D01*
G01*
X4860000Y-6419000D02*
G75*
G02*
X4840000Y-6419000I-10000J0D01*
G01*
X4840000Y-6419000D02*
G75*
G02*
X4860000Y-6419000I10000J0D01*
G01*
X4930000Y-6209000D02*
G75*
G02*
X4910000Y-6209000I-10000J0D01*
G01*
X4910000Y-6209000D02*
G75*
G02*
X4930000Y-6209000I10000J0D01*
G01*
X4930000Y-6349000D02*
G75*
G02*
X4910000Y-6349000I-10000J0D01*
G01*
X4910000Y-6349000D02*
G75*
G02*
X4930000Y-6349000I10000J0D01*
G01*
X4930000Y-6489000D02*
G75*
G02*
X4910000Y-6489000I-10000J0D01*
G01*
X4910000Y-6489000D02*
G75*
G02*
X4930000Y-6489000I10000J0D01*
G01*
X5000000Y-6279000D02*
G75*
G02*
X4980000Y-6279000I-10000J0D01*
G01*
X4980000Y-6279000D02*
G75*
G02*
X5000000Y-6279000I10000J0D01*
G01*
X5000000Y-6419000D02*
G75*
G02*
X4980000Y-6419000I-10000J0D01*
G01*
X4980000Y-6419000D02*
G75*
G02*
X5000000Y-6419000I10000J0D01*
G01*
X5892000Y-3763500D02*
G75*
G02*
X5872000Y-3763500I-10000J0D01*
G01*
X5872000Y-3763500D02*
G75*
G02*
X5892000Y-3763500I10000J0D01*
G01*
X5892000Y-3881500D02*
G75*
G02*
X5872000Y-3881500I-10000J0D01*
G01*
X5872000Y-3881500D02*
G75*
G02*
X5892000Y-3881500I10000J0D01*
G01*
X6010000Y-3763500D02*
G75*
G02*
X5990000Y-3763500I-10000J0D01*
G01*
X5990000Y-3763500D02*
G75*
G02*
X6010000Y-3763500I10000J0D01*
G01*
X6010000Y-3881500D02*
G75*
G02*
X5990000Y-3881500I-10000J0D01*
G01*
X5990000Y-3881500D02*
G75*
G02*
X6010000Y-3881500I10000J0D01*
G01*
X2540000Y-4985000D02*
X2540000Y-5015000D01*
X2525000Y-5000000D02*
X2555000Y-5000000D01*
X2640000Y-4135000D02*
X2640000Y-4165000D01*
X2625000Y-4150000D02*
X2655000Y-4150000D01*
X2770000Y-3935000D02*
X2770000Y-3965000D01*
X2755000Y-3950000D02*
X2785000Y-3950000D01*
X3219000Y-6225000D02*
X3219000Y-6255000D01*
X3204000Y-6240000D02*
X3234000Y-6240000D01*
X3250000Y-5570000D02*
X3250000Y-5600000D01*
X3235000Y-5585000D02*
X3265000Y-5585000D01*
X3340000Y-5340000D02*
X3340000Y-5370000D01*
X3325000Y-5355000D02*
X3355000Y-5355000D01*
X3340000Y-5532500D02*
X3340000Y-5562500D01*
X3325000Y-5547500D02*
X3355000Y-5547500D01*
X3360000Y-5448000D02*
X3360000Y-5478000D01*
X3345000Y-5463000D02*
X3375000Y-5463000D01*
X3378000Y-5695000D02*
X3378000Y-5725000D01*
X3363000Y-5710000D02*
X3393000Y-5710000D01*
X3480000Y-5507000D02*
X3480000Y-5537000D01*
X3465000Y-5522000D02*
X3495000Y-5522000D01*
X3534000Y-4385000D02*
X3534000Y-4415000D01*
X3519000Y-4400000D02*
X3549000Y-4400000D01*
X3565000Y-6110000D02*
X3565000Y-6140000D01*
X3550000Y-6125000D02*
X3580000Y-6125000D01*
X3580000Y-2725000D02*
X3580000Y-2755000D01*
X3565000Y-2740000D02*
X3595000Y-2740000D01*
X3590000Y-6225000D02*
X3590000Y-6255000D01*
X3575000Y-6240000D02*
X3605000Y-6240000D01*
X3597500Y-5610000D02*
X3597500Y-5640000D01*
X3582500Y-5625000D02*
X3612500Y-5625000D01*
X3622500Y-3485000D02*
X3622500Y-3515000D01*
X3607500Y-3500000D02*
X3637500Y-3500000D01*
X3625000Y-2997000D02*
X3625000Y-3027000D01*
X3610000Y-3012000D02*
X3640000Y-3012000D01*
X3625000Y-3273000D02*
X3625000Y-3303000D01*
X3610000Y-3288000D02*
X3640000Y-3288000D01*
X3630000Y-5705000D02*
X3630000Y-5735000D01*
X3615000Y-5720000D02*
X3645000Y-5720000D01*
X3644000Y-4530000D02*
X3644000Y-4560000D01*
X3629000Y-4545000D02*
X3659000Y-4545000D01*
X3654000Y-5785000D02*
X3654000Y-5815000D01*
X3639000Y-5800000D02*
X3669000Y-5800000D01*
X3700000Y-6857500D02*
X3700000Y-6887500D01*
X3685000Y-6872500D02*
X3715000Y-6872500D01*
X3745871Y-3117680D02*
X3745871Y-3147680D01*
X3730871Y-3132680D02*
X3760871Y-3132680D01*
X3775000Y-6405000D02*
X3775000Y-6435000D01*
X3760000Y-6420000D02*
X3790000Y-6420000D01*
X3783428Y-3188315D02*
X3783428Y-3218315D01*
X3768428Y-3203315D02*
X3798428Y-3203315D01*
X3785000Y-3845000D02*
X3785000Y-3875000D01*
X3770000Y-3860000D02*
X3800000Y-3860000D01*
X3800000Y-4015000D02*
X3800000Y-4045000D01*
X3785000Y-4030000D02*
X3815000Y-4030000D01*
X3800000Y-7112500D02*
X3800000Y-7142500D01*
X3785000Y-7127500D02*
X3815000Y-7127500D01*
X3806789Y-3555711D02*
X3806789Y-3585711D01*
X3791789Y-3570711D02*
X3821789Y-3570711D01*
X3815000Y-4520000D02*
X3815000Y-4550000D01*
X3800000Y-4535000D02*
X3830000Y-4535000D01*
X3820986Y-3258951D02*
X3820986Y-3288951D01*
X3805986Y-3273951D02*
X3835986Y-3273951D01*
X3830000Y-3345000D02*
X3830000Y-3375000D01*
X3815000Y-3360000D02*
X3845000Y-3360000D01*
X3852000Y-7070000D02*
X3852000Y-7100000D01*
X3837000Y-7085000D02*
X3867000Y-7085000D01*
X3896976Y-3001005D02*
X3896976Y-3031005D01*
X3881976Y-3016005D02*
X3911976Y-3016005D01*
X3965000Y-6175000D02*
X3965000Y-6205000D01*
X3950000Y-6190000D02*
X3980000Y-6190000D01*
X3965000Y-6315000D02*
X3965000Y-6345000D01*
X3950000Y-6330000D02*
X3980000Y-6330000D01*
X3967142Y-2962564D02*
X3967142Y-2992564D01*
X3952142Y-2977564D02*
X3982142Y-2977564D01*
X3970000Y-5510000D02*
X3970000Y-5540000D01*
X3955000Y-5525000D02*
X3985000Y-5525000D01*
X3980000Y-6852000D02*
X3980000Y-6882000D01*
X3965000Y-6867000D02*
X3995000Y-6867000D01*
X4035000Y-5283000D02*
X4035000Y-5313000D01*
X4020000Y-5298000D02*
X4050000Y-5298000D01*
X4037778Y-2925006D02*
X4037778Y-2955006D01*
X4022778Y-2940006D02*
X4052778Y-2940006D01*
X4040000Y-5054000D02*
X4040000Y-5084000D01*
X4025000Y-5069000D02*
X4055000Y-5069000D01*
X4105000Y-4670000D02*
X4105000Y-4700000D01*
X4090000Y-4685000D02*
X4120000Y-4685000D01*
X4112000Y-4035000D02*
X4112000Y-4065000D01*
X4097000Y-4050000D02*
X4127000Y-4050000D01*
X4130000Y-3474000D02*
X4130000Y-3504000D01*
X4115000Y-3489000D02*
X4145000Y-3489000D01*
X4151103Y-4125147D02*
X4151103Y-4155147D01*
X4136103Y-4140147D02*
X4166103Y-4140147D01*
X4195000Y-4680000D02*
X4195000Y-4710000D01*
X4180000Y-4695000D02*
X4210000Y-4695000D01*
X4202000Y-4000000D02*
X4202000Y-4030000D01*
X4187000Y-4015000D02*
X4217000Y-4015000D01*
X4205000Y-5250000D02*
X4205000Y-5280000D01*
X4190000Y-5265000D02*
X4220000Y-5265000D01*
X4225972Y-3038084D02*
X4225972Y-3068084D01*
X4210972Y-3053084D02*
X4240972Y-3053084D01*
X4275000Y-3848750D02*
X4275000Y-3878750D01*
X4260000Y-3863750D02*
X4290000Y-3863750D01*
X4285000Y-2485000D02*
X4285000Y-2515000D01*
X4270000Y-2500000D02*
X4300000Y-2500000D01*
X4291000Y-2760000D02*
X4291000Y-2790000D01*
X4276000Y-2775000D02*
X4306000Y-2775000D01*
X4305000Y-3050000D02*
X4305000Y-3080000D01*
X4290000Y-3065000D02*
X4320000Y-3065000D01*
X4305000Y-3260000D02*
X4305000Y-3290000D01*
X4290000Y-3275000D02*
X4320000Y-3275000D01*
X4308000Y-6915000D02*
X4308000Y-6945000D01*
X4293000Y-6930000D02*
X4323000Y-6930000D01*
X4311000Y-6785000D02*
X4311000Y-6815000D01*
X4296000Y-6800000D02*
X4326000Y-6800000D01*
X4315170Y-5499050D02*
X4315170Y-5529050D01*
X4300170Y-5514050D02*
X4330170Y-5514050D01*
X4390000Y-4658000D02*
X4390000Y-4688000D01*
X4375000Y-4673000D02*
X4405000Y-4673000D01*
X4400000Y-2919000D02*
X4400000Y-2949000D01*
X4385000Y-2934000D02*
X4415000Y-2934000D01*
X4405000Y-4210000D02*
X4405000Y-4240000D01*
X4390000Y-4225000D02*
X4420000Y-4225000D01*
X4480000Y-3215000D02*
X4480000Y-3245000D01*
X4465000Y-3230000D02*
X4495000Y-3230000D01*
X4555500Y-5180000D02*
X4555500Y-5210000D01*
X4540500Y-5195000D02*
X4570500Y-5195000D01*
X4610000Y-3845000D02*
X4610000Y-3875000D01*
X4595000Y-3860000D02*
X4625000Y-3860000D01*
X4625000Y-5495000D02*
X4625000Y-5525000D01*
X4610000Y-5510000D02*
X4640000Y-5510000D01*
X4680000Y-3086000D02*
X4680000Y-3116000D01*
X4665000Y-3101000D02*
X4695000Y-3101000D01*
X4682500Y-5180000D02*
X4682500Y-5210000D01*
X4667500Y-5195000D02*
X4697500Y-5195000D01*
X4695050Y-4197550D02*
X4695050Y-4227550D01*
X4680050Y-4212550D02*
X4710050Y-4212550D01*
X4710000Y-4090000D02*
X4710000Y-4120000D01*
X4695000Y-4105000D02*
X4725000Y-4105000D01*
X4755000Y-2930000D02*
X4755000Y-2960000D01*
X4740000Y-2945000D02*
X4770000Y-2945000D01*
X4759000Y-5585000D02*
X4759000Y-5615000D01*
X4744000Y-5600000D02*
X4774000Y-5600000D01*
X4785000Y-4280000D02*
X4785000Y-4310000D01*
X4770000Y-4295000D02*
X4800000Y-4295000D01*
X4825000Y-4995000D02*
X4825000Y-5025000D01*
X4810000Y-5010000D02*
X4840000Y-5010000D01*
X4830000Y-3610000D02*
X4830000Y-3640000D01*
X4815000Y-3625000D02*
X4845000Y-3625000D01*
X4840000Y-4920000D02*
X4840000Y-4950000D01*
X4825000Y-4935000D02*
X4855000Y-4935000D01*
X4889000Y-3720000D02*
X4889000Y-3750000D01*
X4874000Y-3735000D02*
X4904000Y-3735000D01*
X4940000Y-4995000D02*
X4940000Y-5025000D01*
X4925000Y-5010000D02*
X4955000Y-5010000D01*
X4966000Y-4040000D02*
X4966000Y-4070000D01*
X4951000Y-4055000D02*
X4981000Y-4055000D01*
X5000000Y-5846250D02*
X5000000Y-5876250D01*
X4985000Y-5861250D02*
X5015000Y-5861250D01*
X5010000Y-5465000D02*
X5010000Y-5495000D01*
X4995000Y-5480000D02*
X5025000Y-5480000D01*
X5020000Y-4615000D02*
X5020000Y-4645000D01*
X5005000Y-4630000D02*
X5035000Y-4630000D01*
X5025000Y-3640000D02*
X5025000Y-3670000D01*
X5010000Y-3655000D02*
X5040000Y-3655000D01*
X5035000Y-5135000D02*
X5035000Y-5165000D01*
X5020000Y-5150000D02*
X5050000Y-5150000D01*
X5043000Y-3720000D02*
X5043000Y-3750000D01*
X5028000Y-3735000D02*
X5058000Y-3735000D01*
X5050000Y-6026250D02*
X5050000Y-6056250D01*
X5035000Y-6041250D02*
X5065000Y-6041250D01*
X5090000Y-5205000D02*
X5090000Y-5235000D01*
X5075000Y-5220000D02*
X5105000Y-5220000D01*
X5105000Y-3650000D02*
X5105000Y-3680000D01*
X5090000Y-3665000D02*
X5120000Y-3665000D01*
X5115000Y-3113800D02*
X5115000Y-3143800D01*
X5100000Y-3128800D02*
X5130000Y-3128800D01*
X5140000Y-4276000D02*
X5140000Y-4306000D01*
X5125000Y-4291000D02*
X5155000Y-4291000D01*
X5190000Y-3401000D02*
X5190000Y-3431000D01*
X5175000Y-3416000D02*
X5205000Y-3416000D01*
X5210000Y-5470000D02*
X5210000Y-5500000D01*
X5195000Y-5485000D02*
X5225000Y-5485000D01*
X5250000Y-4276000D02*
X5250000Y-4306000D01*
X5235000Y-4291000D02*
X5265000Y-4291000D01*
X5255000Y-5125000D02*
X5255000Y-5155000D01*
X5240000Y-5140000D02*
X5270000Y-5140000D01*
X5260000Y-4355000D02*
X5260000Y-4385000D01*
X5245000Y-4370000D02*
X5275000Y-4370000D01*
X5291000Y-5585000D02*
X5291000Y-5615000D01*
X5276000Y-5600000D02*
X5306000Y-5600000D01*
X5338000Y-6060000D02*
X5338000Y-6090000D01*
X5323000Y-6075000D02*
X5353000Y-6075000D01*
X5400000Y-4276000D02*
X5400000Y-4306000D01*
X5385000Y-4291000D02*
X5415000Y-4291000D01*
X5450000Y-3235000D02*
X5450000Y-3265000D01*
X5435000Y-3250000D02*
X5465000Y-3250000D01*
X5455000Y-3670000D02*
X5455000Y-3700000D01*
X5440000Y-3685000D02*
X5470000Y-3685000D01*
X5460000Y-3535000D02*
X5460000Y-3565000D01*
X5445000Y-3550000D02*
X5475000Y-3550000D01*
X5460000Y-4920000D02*
X5460000Y-4950000D01*
X5445000Y-4935000D02*
X5475000Y-4935000D01*
X5479000Y-5836000D02*
X5479000Y-5866000D01*
X5464000Y-5851000D02*
X5494000Y-5851000D01*
X5510000Y-4265000D02*
X5510000Y-4295000D01*
X5495000Y-4280000D02*
X5525000Y-4280000D01*
X5531000Y-5115000D02*
X5531000Y-5145000D01*
X5516000Y-5130000D02*
X5546000Y-5130000D01*
X5540000Y-4810000D02*
X5540000Y-4840000D01*
X5525000Y-4825000D02*
X5555000Y-4825000D01*
X5610000Y-2765000D02*
X5610000Y-2795000D01*
X5595000Y-2780000D02*
X5625000Y-2780000D01*
X5610000Y-4390000D02*
X5610000Y-4420000D01*
X5595000Y-4405000D02*
X5625000Y-4405000D01*
X5610360Y-4071360D02*
X5610360Y-4101360D01*
X5595360Y-4086360D02*
X5625360Y-4086360D01*
X5615000Y-4745000D02*
X5615000Y-4775000D01*
X5600000Y-4760000D02*
X5630000Y-4760000D01*
X5640000Y-3435000D02*
X5640000Y-3465000D01*
X5625000Y-3450000D02*
X5655000Y-3450000D01*
X5640000Y-3962500D02*
X5640000Y-3992500D01*
X5625000Y-3977500D02*
X5655000Y-3977500D01*
X5645000Y-3350000D02*
X5645000Y-3380000D01*
X5630000Y-3365000D02*
X5660000Y-3365000D01*
X5660000Y-3675000D02*
X5660000Y-3705000D01*
X5645000Y-3690000D02*
X5675000Y-3690000D01*
X5660000Y-5185000D02*
X5660000Y-5215000D01*
X5645000Y-5200000D02*
X5675000Y-5200000D01*
X5679000Y-3807500D02*
X5679000Y-3837500D01*
X5664000Y-3822500D02*
X5694000Y-3822500D01*
X5695000Y-4220000D02*
X5695000Y-4250000D01*
X5680000Y-4235000D02*
X5710000Y-4235000D01*
X5710000Y-3035000D02*
X5710000Y-3065000D01*
X5695000Y-3050000D02*
X5725000Y-3050000D01*
X5710000Y-3110000D02*
X5710000Y-3140000D01*
X5695000Y-3125000D02*
X5725000Y-3125000D01*
X5740000Y-3348000D02*
X5740000Y-3378000D01*
X5725000Y-3363000D02*
X5755000Y-3363000D01*
X5762000Y-2835000D02*
X5762000Y-2865000D01*
X5747000Y-2850000D02*
X5777000Y-2850000D01*
X5776000Y-4215000D02*
X5776000Y-4245000D01*
X5761000Y-4230000D02*
X5791000Y-4230000D01*
X5780000Y-2995000D02*
X5780000Y-3025000D01*
X5765000Y-3010000D02*
X5795000Y-3010000D01*
X5800000Y-3620000D02*
X5800000Y-3650000D01*
X5785000Y-3635000D02*
X5815000Y-3635000D01*
X5800904Y-3125992D02*
X5800904Y-3155992D01*
X5785904Y-3140992D02*
X5815904Y-3140992D01*
X5815000Y-4515000D02*
X5815000Y-4545000D01*
X5800000Y-4530000D02*
X5830000Y-4530000D01*
X5820000Y-5360000D02*
X5820000Y-5390000D01*
X5805000Y-5375000D02*
X5835000Y-5375000D01*
X5831420Y-3068600D02*
X5831420Y-3098600D01*
X5816420Y-3083600D02*
X5846420Y-3083600D01*
X5875300Y-3113200D02*
X5875300Y-3143200D01*
X5860300Y-3128200D02*
X5890300Y-3128200D01*
X5885000Y-4930000D02*
X5885000Y-4960000D01*
X5870000Y-4945000D02*
X5900000Y-4945000D01*
X5900000Y-3225000D02*
X5900000Y-3255000D01*
X5885000Y-3240000D02*
X5915000Y-3240000D01*
X5910000Y-4390000D02*
X5910000Y-4420000D01*
X5895000Y-4405000D02*
X5925000Y-4405000D01*
X5925000Y-4301000D02*
X5925000Y-4331000D01*
X5910000Y-4316000D02*
X5940000Y-4316000D01*
X5960000Y-2452755D02*
X5960000Y-2482755D01*
X5945000Y-2467755D02*
X5975000Y-2467755D01*
X5962000Y-3410000D02*
X5962000Y-3440000D01*
X5947000Y-3425000D02*
X5977000Y-3425000D01*
X6020000Y-2930000D02*
X6020000Y-2960000D01*
X6005000Y-2945000D02*
X6035000Y-2945000D01*
X6020000Y-5375000D02*
X6020000Y-5405000D01*
X6005000Y-5390000D02*
X6035000Y-5390000D01*
X6024000Y-3425000D02*
X6024000Y-3455000D01*
X6009000Y-3440000D02*
X6039000Y-3440000D01*
X6025000Y-4064000D02*
X6025000Y-4094000D01*
X6010000Y-4079000D02*
X6040000Y-4079000D01*
X6109696Y-3005000D02*
X6109696Y-3035000D01*
X6094696Y-3020000D02*
X6124696Y-3020000D01*
X6115000Y-3255000D02*
X6115000Y-3285000D01*
X6100000Y-3270000D02*
X6130000Y-3270000D01*
X6126000Y-3435000D02*
X6126000Y-3465000D01*
X6111000Y-3450000D02*
X6141000Y-3450000D01*
X6189000Y-3385000D02*
X6189000Y-3415000D01*
X6174000Y-3400000D02*
X6204000Y-3400000D01*
X6195000Y-3687500D02*
X6195000Y-3717500D01*
X6180000Y-3702500D02*
X6210000Y-3702500D01*
X6210000Y-4695000D02*
X6210000Y-4725000D01*
X6195000Y-4710000D02*
X6225000Y-4710000D01*
X6235000Y-4040000D02*
X6235000Y-4070000D01*
X6220000Y-4055000D02*
X6250000Y-4055000D01*
X6236250Y-2990000D02*
X6236250Y-3020000D01*
X6221250Y-3005000D02*
X6251250Y-3005000D01*
X6260000Y-2745000D02*
X6260000Y-2775000D01*
X6245000Y-2760000D02*
X6275000Y-2760000D01*
X6265000Y-3305000D02*
X6265000Y-3335000D01*
X6250000Y-3320000D02*
X6280000Y-3320000D01*
X6285000Y-4915000D02*
X6285000Y-4945000D01*
X6270000Y-4930000D02*
X6300000Y-4930000D01*
X6306000Y-3611000D02*
X6306000Y-3641000D01*
X6291000Y-3626000D02*
X6321000Y-3626000D01*
X6306000Y-3695000D02*
X6306000Y-3725000D01*
X6291000Y-3710000D02*
X6321000Y-3710000D01*
X6341000Y-3065000D02*
X6341000Y-3095000D01*
X6326000Y-3080000D02*
X6356000Y-3080000D01*
X6450000Y-5330000D02*
X6450000Y-5360000D01*
X6435000Y-5345000D02*
X6465000Y-5345000D01*
X6510000Y-4695000D02*
X6510000Y-4725000D01*
X6495000Y-4710000D02*
X6525000Y-4710000D01*
X6515000Y-4236000D02*
X6515000Y-4266000D01*
X6500000Y-4251000D02*
X6530000Y-4251000D01*
X6531250Y-3640000D02*
X6531250Y-3670000D01*
X6516250Y-3655000D02*
X6546250Y-3655000D01*
X6559000Y-5185000D02*
X6559000Y-5215000D01*
X6544000Y-5200000D02*
X6574000Y-5200000D01*
X6595000Y-3700000D02*
X6595000Y-3730000D01*
X6580000Y-3715000D02*
X6610000Y-3715000D01*
X6627500Y-2785000D02*
X6627500Y-2815000D01*
X6612500Y-2800000D02*
X6642500Y-2800000D01*
X6725000Y-3590000D02*
X6725000Y-3620000D01*
X6710000Y-3605000D02*
X6740000Y-3605000D01*
X6830000Y-4934000D02*
X6830000Y-4964000D01*
X6815000Y-4949000D02*
X6845000Y-4949000D01*
X6883000Y-4670000D02*
X6883000Y-4700000D01*
X6868000Y-4685000D02*
X6898000Y-4685000D01*
X6887000Y-6760000D02*
X6887000Y-6790000D01*
X6872000Y-6775000D02*
X6902000Y-6775000D01*
X6935000Y-6209000D02*
X6935000Y-6239000D01*
X6920000Y-6224000D02*
X6950000Y-6224000D01*
X6970000Y-4285000D02*
X6970000Y-4315000D01*
X6955000Y-4300000D02*
X6985000Y-4300000D01*
X7026000Y-4565000D02*
X7026000Y-4595000D01*
X7011000Y-4580000D02*
X7041000Y-4580000D01*
X7056989Y-6601611D02*
X7056989Y-6631611D01*
X7041989Y-6616611D02*
X7071989Y-6616611D01*
X7072500Y-5785000D02*
X7072500Y-5815000D01*
X7057500Y-5800000D02*
X7087500Y-5800000D01*
X7074000Y-5170000D02*
X7074000Y-5200000D01*
X7059000Y-5185000D02*
X7089000Y-5185000D01*
X7087000Y-6085000D02*
X7087000Y-6115000D01*
X7072000Y-6100000D02*
X7102000Y-6100000D01*
X7120000Y-4413500D02*
X7120000Y-4443500D01*
X7105000Y-4428500D02*
X7135000Y-4428500D01*
X7136264Y-6521690D02*
X7136264Y-6551690D01*
X7121264Y-6536690D02*
X7151264Y-6536690D01*
X7140000Y-6355000D02*
X7140000Y-6385000D01*
X7125000Y-6370000D02*
X7155000Y-6370000D01*
X7163000Y-6760000D02*
X7163000Y-6790000D01*
X7148000Y-6775000D02*
X7178000Y-6775000D01*
X7216000Y-4210000D02*
X7216000Y-4240000D01*
X7201000Y-4225000D02*
X7231000Y-4225000D01*
X7267000Y-4540000D02*
X7267000Y-4570000D01*
X7252000Y-4555000D02*
X7282000Y-4555000D01*
X7273000Y-5845000D02*
X7273000Y-5875000D01*
X7258000Y-5860000D02*
X7288000Y-5860000D01*
X7295000Y-5165000D02*
X7295000Y-5195000D01*
X7280000Y-5180000D02*
X7310000Y-5180000D01*
X7354289Y-5853711D02*
X7354289Y-5883711D01*
X7339289Y-5868711D02*
X7369289Y-5868711D01*
X7460000Y-4985000D02*
X7460000Y-5015000D01*
X7445000Y-5000000D02*
X7475000Y-5000000D01*
X2260607Y-5010607D02*
X2260607Y-4989393D01*
X2239393Y-4989393D01*
X2239393Y-5010607D01*
X2260607Y-5010607D01*
X2376136Y-4221898D02*
X2376136Y-4200685D01*
X2354922Y-4200685D01*
X2354922Y-4221898D01*
X2376136Y-4221898D01*
X2376136Y-5799315D02*
X2376136Y-5778102D01*
X2354922Y-5778102D01*
X2354922Y-5799315D01*
X2376136Y-5799315D01*
X7645078Y-4221898D02*
X7645078Y-4200685D01*
X7623864Y-4200685D01*
X7623864Y-4221898D01*
X7645078Y-4221898D01*
X7645078Y-5799315D02*
X7645078Y-5778102D01*
X7623864Y-5778102D01*
X7623864Y-5799315D01*
X7645078Y-5799315D01*
X7760607Y-5010607D02*
X7760607Y-4989393D01*
X7739393Y-4989393D01*
X7739393Y-5010607D01*
X7760607Y-5010607D01*
X4568000Y-2330000D02*
X4598000Y-2300000D01*
X4568000Y-2270000D01*
X4538000Y-2300000D01*
X4568000Y-2330000D01*
X4538000Y-2270000D02*
X4538000Y-2330000D01*
X4598000Y-2330000D02*
G75*
G02*
X4538000Y-2330000I-30000J0D01*
G01*
X4598000Y-2330000D02*
X4598000Y-2270000D01*
X4598000Y-2270000D02*
G75*
G03*
X4538000Y-2270000I-30000J0D01*
G01*
X4568000Y-2748000D02*
X4598000Y-2718000D01*
X4568000Y-2688000D01*
X4538000Y-2718000D01*
X4568000Y-2748000D01*
X4538000Y-2663000D02*
X4538000Y-2773000D01*
X4598000Y-2773000D02*
G75*
G02*
X4538000Y-2773000I-30000J0D01*
G01*
X4598000Y-2773000D02*
X4598000Y-2663000D01*
X4598000Y-2663000D02*
G75*
G03*
X4538000Y-2663000I-30000J0D01*
G01*
X5432000Y-2330000D02*
X5462000Y-2300000D01*
X5432000Y-2270000D01*
X5402000Y-2300000D01*
X5432000Y-2330000D01*
X5402000Y-2270000D02*
X5402000Y-2330000D01*
X5462000Y-2330000D02*
G75*
G02*
X5402000Y-2330000I-30000J0D01*
G01*
X5462000Y-2330000D02*
X5462000Y-2270000D01*
X5462000Y-2270000D02*
G75*
G03*
X5402000Y-2270000I-30000J0D01*
G01*
X5432000Y-2748000D02*
X5462000Y-2718000D01*
X5432000Y-2688000D01*
X5402000Y-2718000D01*
X5432000Y-2748000D01*
X5402000Y-2663000D02*
X5402000Y-2773000D01*
X5462000Y-2773000D02*
G75*
G02*
X5402000Y-2773000I-30000J0D01*
G01*
X5462000Y-2773000D02*
X5462000Y-2663000D01*
X5462000Y-2663000D02*
G75*
G03*
X5402000Y-2663000I-30000J0D01*
G01*
D11*
X2358277Y-7954060D02*
X2358277Y-7754060D01*
X2358277Y-7754060D02*
X2405896Y-7754060D01*
X2405896Y-7754060D02*
X2434467Y-7763583D01*
X2434467Y-7763583D02*
X2453515Y-7782631D01*
X2453515Y-7782631D02*
X2463039Y-7801679D01*
X2463039Y-7801679D02*
X2472563Y-7839774D01*
X2472563Y-7839774D02*
X2472563Y-7868345D01*
X2472563Y-7868345D02*
X2463039Y-7906440D01*
X2463039Y-7906440D02*
X2453515Y-7925488D01*
X2453515Y-7925488D02*
X2434467Y-7944536D01*
X2434467Y-7944536D02*
X2405896Y-7954060D01*
X2405896Y-7954060D02*
X2358277Y-7954060D01*
X2558277Y-7954060D02*
X2558277Y-7820726D01*
X2558277Y-7858821D02*
X2567801Y-7839774D01*
X2567801Y-7839774D02*
X2577324Y-7830250D01*
X2577324Y-7830250D02*
X2596372Y-7820726D01*
X2596372Y-7820726D02*
X2615420Y-7820726D01*
X2682086Y-7954060D02*
X2682086Y-7820726D01*
X2682086Y-7754060D02*
X2672563Y-7763583D01*
X2672563Y-7763583D02*
X2682086Y-7773107D01*
X2682086Y-7773107D02*
X2691610Y-7763583D01*
X2691610Y-7763583D02*
X2682086Y-7754060D01*
X2682086Y-7754060D02*
X2682086Y-7773107D01*
X2805896Y-7954060D02*
X2786848Y-7944536D01*
X2786848Y-7944536D02*
X2777324Y-7925488D01*
X2777324Y-7925488D02*
X2777324Y-7754060D01*
X2910658Y-7954060D02*
X2891610Y-7944536D01*
X2891610Y-7944536D02*
X2882086Y-7925488D01*
X2882086Y-7925488D02*
X2882086Y-7754060D01*
X3139229Y-7954060D02*
X3139229Y-7754060D01*
X3139229Y-7754060D02*
X3205896Y-7896917D01*
X3205896Y-7896917D02*
X3272562Y-7754060D01*
X3272562Y-7754060D02*
X3272562Y-7954060D01*
X3453515Y-7954060D02*
X3453515Y-7849298D01*
X3453515Y-7849298D02*
X3443991Y-7830250D01*
X3443991Y-7830250D02*
X3424943Y-7820726D01*
X3424943Y-7820726D02*
X3386848Y-7820726D01*
X3386848Y-7820726D02*
X3367801Y-7830250D01*
X3453515Y-7944536D02*
X3434467Y-7954060D01*
X3434467Y-7954060D02*
X3386848Y-7954060D01*
X3386848Y-7954060D02*
X3367801Y-7944536D01*
X3367801Y-7944536D02*
X3358277Y-7925488D01*
X3358277Y-7925488D02*
X3358277Y-7906440D01*
X3358277Y-7906440D02*
X3367801Y-7887393D01*
X3367801Y-7887393D02*
X3386848Y-7877869D01*
X3386848Y-7877869D02*
X3434467Y-7877869D01*
X3434467Y-7877869D02*
X3453515Y-7868345D01*
X3548753Y-7820726D02*
X3548753Y-8020726D01*
X3548753Y-7830250D02*
X3567801Y-7820726D01*
X3567801Y-7820726D02*
X3605896Y-7820726D01*
X3605896Y-7820726D02*
X3624943Y-7830250D01*
X3624943Y-7830250D02*
X3634467Y-7839774D01*
X3634467Y-7839774D02*
X3643991Y-7858821D01*
X3643991Y-7858821D02*
X3643991Y-7915964D01*
X3643991Y-7915964D02*
X3634467Y-7935012D01*
X3634467Y-7935012D02*
X3624943Y-7944536D01*
X3624943Y-7944536D02*
X3605896Y-7954060D01*
X3605896Y-7954060D02*
X3567801Y-7954060D01*
X3567801Y-7954060D02*
X3548753Y-7944536D01*
X3729705Y-7935012D02*
X3739229Y-7944536D01*
X3739229Y-7944536D02*
X3729705Y-7954060D01*
X3729705Y-7954060D02*
X3720182Y-7944536D01*
X3720182Y-7944536D02*
X3729705Y-7935012D01*
X3729705Y-7935012D02*
X3729705Y-7954060D01*
X3729705Y-7830250D02*
X3739229Y-7839774D01*
X3739229Y-7839774D02*
X3729705Y-7849298D01*
X3729705Y-7849298D02*
X3720182Y-7839774D01*
X3720182Y-7839774D02*
X3729705Y-7830250D01*
X3729705Y-7830250D02*
X3729705Y-7849298D01*
D12*
X2077500Y-8272576D02*
X2097500Y-8292576D01*
X2097500Y-8272576D02*
X2077500Y-8292576D01*
D11*
X2396372Y-8174060D02*
X2415420Y-8174060D01*
X2415420Y-8174060D02*
X2434467Y-8183583D01*
X2434467Y-8183583D02*
X2443991Y-8193107D01*
X2443991Y-8193107D02*
X2453515Y-8212155D01*
X2453515Y-8212155D02*
X2463039Y-8250250D01*
X2463039Y-8250250D02*
X2463039Y-8297869D01*
X2463039Y-8297869D02*
X2453515Y-8335964D01*
X2453515Y-8335964D02*
X2443991Y-8355012D01*
X2443991Y-8355012D02*
X2434467Y-8364536D01*
X2434467Y-8364536D02*
X2415420Y-8374060D01*
X2415420Y-8374060D02*
X2396372Y-8374060D01*
X2396372Y-8374060D02*
X2377324Y-8364536D01*
X2377324Y-8364536D02*
X2367801Y-8355012D01*
X2367801Y-8355012D02*
X2358277Y-8335964D01*
X2358277Y-8335964D02*
X2348753Y-8297869D01*
X2348753Y-8297869D02*
X2348753Y-8250250D01*
X2348753Y-8250250D02*
X2358277Y-8212155D01*
X2358277Y-8212155D02*
X2367801Y-8193107D01*
X2367801Y-8193107D02*
X2377324Y-8183583D01*
X2377324Y-8183583D02*
X2396372Y-8174060D01*
X2548753Y-8355012D02*
X2558277Y-8364536D01*
X2558277Y-8364536D02*
X2548753Y-8374060D01*
X2548753Y-8374060D02*
X2539229Y-8364536D01*
X2539229Y-8364536D02*
X2548753Y-8355012D01*
X2548753Y-8355012D02*
X2548753Y-8374060D01*
X2634467Y-8193107D02*
X2643991Y-8183583D01*
X2643991Y-8183583D02*
X2663039Y-8174060D01*
X2663039Y-8174060D02*
X2710658Y-8174060D01*
X2710658Y-8174060D02*
X2729705Y-8183583D01*
X2729705Y-8183583D02*
X2739229Y-8193107D01*
X2739229Y-8193107D02*
X2748753Y-8212155D01*
X2748753Y-8212155D02*
X2748753Y-8231202D01*
X2748753Y-8231202D02*
X2739229Y-8259774D01*
X2739229Y-8259774D02*
X2624944Y-8374060D01*
X2624944Y-8374060D02*
X2748753Y-8374060D01*
X2872562Y-8174060D02*
X2891610Y-8174060D01*
X2891610Y-8174060D02*
X2910658Y-8183583D01*
X2910658Y-8183583D02*
X2920182Y-8193107D01*
X2920182Y-8193107D02*
X2929705Y-8212155D01*
X2929705Y-8212155D02*
X2939229Y-8250250D01*
X2939229Y-8250250D02*
X2939229Y-8297869D01*
X2939229Y-8297869D02*
X2929705Y-8335964D01*
X2929705Y-8335964D02*
X2920182Y-8355012D01*
X2920182Y-8355012D02*
X2910658Y-8364536D01*
X2910658Y-8364536D02*
X2891610Y-8374060D01*
X2891610Y-8374060D02*
X2872562Y-8374060D01*
X2872562Y-8374060D02*
X2853515Y-8364536D01*
X2853515Y-8364536D02*
X2843991Y-8355012D01*
X2843991Y-8355012D02*
X2834467Y-8335964D01*
X2834467Y-8335964D02*
X2824943Y-8297869D01*
X2824943Y-8297869D02*
X2824943Y-8250250D01*
X2824943Y-8250250D02*
X2834467Y-8212155D01*
X2834467Y-8212155D02*
X2843991Y-8193107D01*
X2843991Y-8193107D02*
X2853515Y-8183583D01*
X2853515Y-8183583D02*
X2872562Y-8174060D01*
X3063039Y-8174060D02*
X3082086Y-8174060D01*
X3082086Y-8174060D02*
X3101134Y-8183583D01*
X3101134Y-8183583D02*
X3110658Y-8193107D01*
X3110658Y-8193107D02*
X3120182Y-8212155D01*
X3120182Y-8212155D02*
X3129705Y-8250250D01*
X3129705Y-8250250D02*
X3129705Y-8297869D01*
X3129705Y-8297869D02*
X3120182Y-8335964D01*
X3120182Y-8335964D02*
X3110658Y-8355012D01*
X3110658Y-8355012D02*
X3101134Y-8364536D01*
X3101134Y-8364536D02*
X3082086Y-8374060D01*
X3082086Y-8374060D02*
X3063039Y-8374060D01*
X3063039Y-8374060D02*
X3043991Y-8364536D01*
X3043991Y-8364536D02*
X3034467Y-8355012D01*
X3034467Y-8355012D02*
X3024943Y-8335964D01*
X3024943Y-8335964D02*
X3015420Y-8297869D01*
X3015420Y-8297869D02*
X3015420Y-8250250D01*
X3015420Y-8250250D02*
X3024943Y-8212155D01*
X3024943Y-8212155D02*
X3034467Y-8193107D01*
X3034467Y-8193107D02*
X3043991Y-8183583D01*
X3043991Y-8183583D02*
X3063039Y-8174060D01*
X3215420Y-8374060D02*
X3215420Y-8240726D01*
X3215420Y-8259774D02*
X3224943Y-8250250D01*
X3224943Y-8250250D02*
X3243991Y-8240726D01*
X3243991Y-8240726D02*
X3272563Y-8240726D01*
X3272563Y-8240726D02*
X3291610Y-8250250D01*
X3291610Y-8250250D02*
X3301134Y-8269298D01*
X3301134Y-8269298D02*
X3301134Y-8374060D01*
X3301134Y-8269298D02*
X3310658Y-8250250D01*
X3310658Y-8250250D02*
X3329705Y-8240726D01*
X3329705Y-8240726D02*
X3358277Y-8240726D01*
X3358277Y-8240726D02*
X3377324Y-8250250D01*
X3377324Y-8250250D02*
X3386848Y-8269298D01*
X3386848Y-8269298D02*
X3386848Y-8374060D01*
X3482086Y-8374060D02*
X3482086Y-8240726D01*
X3482086Y-8259774D02*
X3491610Y-8250250D01*
X3491610Y-8250250D02*
X3510658Y-8240726D01*
X3510658Y-8240726D02*
X3539229Y-8240726D01*
X3539229Y-8240726D02*
X3558277Y-8250250D01*
X3558277Y-8250250D02*
X3567801Y-8269298D01*
X3567801Y-8269298D02*
X3567801Y-8374060D01*
X3567801Y-8269298D02*
X3577324Y-8250250D01*
X3577324Y-8250250D02*
X3596372Y-8240726D01*
X3596372Y-8240726D02*
X3624943Y-8240726D01*
X3624943Y-8240726D02*
X3643991Y-8250250D01*
X3643991Y-8250250D02*
X3653515Y-8269298D01*
X3653515Y-8269298D02*
X3653515Y-8374060D01*
X4043991Y-8164536D02*
X3872563Y-8421679D01*
X4301134Y-8174060D02*
X4320182Y-8174060D01*
X4320182Y-8174060D02*
X4339229Y-8183583D01*
X4339229Y-8183583D02*
X4348753Y-8193107D01*
X4348753Y-8193107D02*
X4358277Y-8212155D01*
X4358277Y-8212155D02*
X4367801Y-8250250D01*
X4367801Y-8250250D02*
X4367801Y-8297869D01*
X4367801Y-8297869D02*
X4358277Y-8335964D01*
X4358277Y-8335964D02*
X4348753Y-8355012D01*
X4348753Y-8355012D02*
X4339229Y-8364536D01*
X4339229Y-8364536D02*
X4320182Y-8374060D01*
X4320182Y-8374060D02*
X4301134Y-8374060D01*
X4301134Y-8374060D02*
X4282087Y-8364536D01*
X4282087Y-8364536D02*
X4272563Y-8355012D01*
X4272563Y-8355012D02*
X4263039Y-8335964D01*
X4263039Y-8335964D02*
X4253515Y-8297869D01*
X4253515Y-8297869D02*
X4253515Y-8250250D01*
X4253515Y-8250250D02*
X4263039Y-8212155D01*
X4263039Y-8212155D02*
X4272563Y-8193107D01*
X4272563Y-8193107D02*
X4282087Y-8183583D01*
X4282087Y-8183583D02*
X4301134Y-8174060D01*
X4453515Y-8355012D02*
X4463039Y-8364536D01*
X4463039Y-8364536D02*
X4453515Y-8374060D01*
X4453515Y-8374060D02*
X4443991Y-8364536D01*
X4443991Y-8364536D02*
X4453515Y-8355012D01*
X4453515Y-8355012D02*
X4453515Y-8374060D01*
X4586848Y-8174060D02*
X4605896Y-8174060D01*
X4605896Y-8174060D02*
X4624944Y-8183583D01*
X4624944Y-8183583D02*
X4634468Y-8193107D01*
X4634468Y-8193107D02*
X4643991Y-8212155D01*
X4643991Y-8212155D02*
X4653515Y-8250250D01*
X4653515Y-8250250D02*
X4653515Y-8297869D01*
X4653515Y-8297869D02*
X4643991Y-8335964D01*
X4643991Y-8335964D02*
X4634468Y-8355012D01*
X4634468Y-8355012D02*
X4624944Y-8364536D01*
X4624944Y-8364536D02*
X4605896Y-8374060D01*
X4605896Y-8374060D02*
X4586848Y-8374060D01*
X4586848Y-8374060D02*
X4567801Y-8364536D01*
X4567801Y-8364536D02*
X4558277Y-8355012D01*
X4558277Y-8355012D02*
X4548753Y-8335964D01*
X4548753Y-8335964D02*
X4539229Y-8297869D01*
X4539229Y-8297869D02*
X4539229Y-8250250D01*
X4539229Y-8250250D02*
X4548753Y-8212155D01*
X4548753Y-8212155D02*
X4558277Y-8193107D01*
X4558277Y-8193107D02*
X4567801Y-8183583D01*
X4567801Y-8183583D02*
X4586848Y-8174060D01*
X4777325Y-8174060D02*
X4796372Y-8174060D01*
X4796372Y-8174060D02*
X4815420Y-8183583D01*
X4815420Y-8183583D02*
X4824944Y-8193107D01*
X4824944Y-8193107D02*
X4834468Y-8212155D01*
X4834468Y-8212155D02*
X4843991Y-8250250D01*
X4843991Y-8250250D02*
X4843991Y-8297869D01*
X4843991Y-8297869D02*
X4834468Y-8335964D01*
X4834468Y-8335964D02*
X4824944Y-8355012D01*
X4824944Y-8355012D02*
X4815420Y-8364536D01*
X4815420Y-8364536D02*
X4796372Y-8374060D01*
X4796372Y-8374060D02*
X4777325Y-8374060D01*
X4777325Y-8374060D02*
X4758277Y-8364536D01*
X4758277Y-8364536D02*
X4748753Y-8355012D01*
X4748753Y-8355012D02*
X4739229Y-8335964D01*
X4739229Y-8335964D02*
X4729706Y-8297869D01*
X4729706Y-8297869D02*
X4729706Y-8250250D01*
X4729706Y-8250250D02*
X4739229Y-8212155D01*
X4739229Y-8212155D02*
X4748753Y-8193107D01*
X4748753Y-8193107D02*
X4758277Y-8183583D01*
X4758277Y-8183583D02*
X4777325Y-8174060D01*
X4910658Y-8174060D02*
X5043991Y-8174060D01*
X5043991Y-8174060D02*
X4958277Y-8374060D01*
X5129706Y-8374060D02*
X5167801Y-8374060D01*
X5167801Y-8374060D02*
X5186849Y-8364536D01*
X5186849Y-8364536D02*
X5196372Y-8355012D01*
X5196372Y-8355012D02*
X5215420Y-8326440D01*
X5215420Y-8326440D02*
X5224944Y-8288345D01*
X5224944Y-8288345D02*
X5224944Y-8212155D01*
X5224944Y-8212155D02*
X5215420Y-8193107D01*
X5215420Y-8193107D02*
X5205896Y-8183583D01*
X5205896Y-8183583D02*
X5186849Y-8174060D01*
X5186849Y-8174060D02*
X5148753Y-8174060D01*
X5148753Y-8174060D02*
X5129706Y-8183583D01*
X5129706Y-8183583D02*
X5120182Y-8193107D01*
X5120182Y-8193107D02*
X5110658Y-8212155D01*
X5110658Y-8212155D02*
X5110658Y-8259774D01*
X5110658Y-8259774D02*
X5120182Y-8278821D01*
X5120182Y-8278821D02*
X5129706Y-8288345D01*
X5129706Y-8288345D02*
X5148753Y-8297869D01*
X5148753Y-8297869D02*
X5186849Y-8297869D01*
X5186849Y-8297869D02*
X5205896Y-8288345D01*
X5205896Y-8288345D02*
X5215420Y-8278821D01*
X5215420Y-8278821D02*
X5224944Y-8259774D01*
X5301134Y-8174060D02*
X5301134Y-8212155D01*
X5377325Y-8174060D02*
X5377325Y-8212155D01*
X5672563Y-8450250D02*
X5663039Y-8440726D01*
X5663039Y-8440726D02*
X5643991Y-8412155D01*
X5643991Y-8412155D02*
X5634468Y-8393107D01*
X5634468Y-8393107D02*
X5624944Y-8364536D01*
X5624944Y-8364536D02*
X5615420Y-8316917D01*
X5615420Y-8316917D02*
X5615420Y-8278821D01*
X5615420Y-8278821D02*
X5624944Y-8231202D01*
X5624944Y-8231202D02*
X5634468Y-8202631D01*
X5634468Y-8202631D02*
X5643991Y-8183583D01*
X5643991Y-8183583D02*
X5663039Y-8155012D01*
X5663039Y-8155012D02*
X5672563Y-8145488D01*
X5843991Y-8174060D02*
X5748753Y-8174060D01*
X5748753Y-8174060D02*
X5739229Y-8269298D01*
X5739229Y-8269298D02*
X5748753Y-8259774D01*
X5748753Y-8259774D02*
X5767801Y-8250250D01*
X5767801Y-8250250D02*
X5815420Y-8250250D01*
X5815420Y-8250250D02*
X5834468Y-8259774D01*
X5834468Y-8259774D02*
X5843991Y-8269298D01*
X5843991Y-8269298D02*
X5853515Y-8288345D01*
X5853515Y-8288345D02*
X5853515Y-8335964D01*
X5853515Y-8335964D02*
X5843991Y-8355012D01*
X5843991Y-8355012D02*
X5834468Y-8364536D01*
X5834468Y-8364536D02*
X5815420Y-8374060D01*
X5815420Y-8374060D02*
X5767801Y-8374060D01*
X5767801Y-8374060D02*
X5748753Y-8364536D01*
X5748753Y-8364536D02*
X5739229Y-8355012D01*
X5977325Y-8174060D02*
X5996372Y-8174060D01*
X5996372Y-8174060D02*
X6015420Y-8183583D01*
X6015420Y-8183583D02*
X6024944Y-8193107D01*
X6024944Y-8193107D02*
X6034468Y-8212155D01*
X6034468Y-8212155D02*
X6043991Y-8250250D01*
X6043991Y-8250250D02*
X6043991Y-8297869D01*
X6043991Y-8297869D02*
X6034468Y-8335964D01*
X6034468Y-8335964D02*
X6024944Y-8355012D01*
X6024944Y-8355012D02*
X6015420Y-8364536D01*
X6015420Y-8364536D02*
X5996372Y-8374060D01*
X5996372Y-8374060D02*
X5977325Y-8374060D01*
X5977325Y-8374060D02*
X5958277Y-8364536D01*
X5958277Y-8364536D02*
X5948753Y-8355012D01*
X5948753Y-8355012D02*
X5939229Y-8335964D01*
X5939229Y-8335964D02*
X5929706Y-8297869D01*
X5929706Y-8297869D02*
X5929706Y-8250250D01*
X5929706Y-8250250D02*
X5939229Y-8212155D01*
X5939229Y-8212155D02*
X5948753Y-8193107D01*
X5948753Y-8193107D02*
X5958277Y-8183583D01*
X5958277Y-8183583D02*
X5977325Y-8174060D01*
X6282087Y-8374060D02*
X6282087Y-8174060D01*
X6367801Y-8374060D02*
X6367801Y-8269298D01*
X6367801Y-8269298D02*
X6358277Y-8250250D01*
X6358277Y-8250250D02*
X6339230Y-8240726D01*
X6339230Y-8240726D02*
X6310658Y-8240726D01*
X6310658Y-8240726D02*
X6291610Y-8250250D01*
X6291610Y-8250250D02*
X6282087Y-8259774D01*
X6491610Y-8374060D02*
X6472563Y-8364536D01*
X6472563Y-8364536D02*
X6463039Y-8355012D01*
X6463039Y-8355012D02*
X6453515Y-8335964D01*
X6453515Y-8335964D02*
X6453515Y-8278821D01*
X6453515Y-8278821D02*
X6463039Y-8259774D01*
X6463039Y-8259774D02*
X6472563Y-8250250D01*
X6472563Y-8250250D02*
X6491610Y-8240726D01*
X6491610Y-8240726D02*
X6520182Y-8240726D01*
X6520182Y-8240726D02*
X6539230Y-8250250D01*
X6539230Y-8250250D02*
X6548753Y-8259774D01*
X6548753Y-8259774D02*
X6558277Y-8278821D01*
X6558277Y-8278821D02*
X6558277Y-8335964D01*
X6558277Y-8335964D02*
X6548753Y-8355012D01*
X6548753Y-8355012D02*
X6539230Y-8364536D01*
X6539230Y-8364536D02*
X6520182Y-8374060D01*
X6520182Y-8374060D02*
X6491610Y-8374060D01*
X6672563Y-8374060D02*
X6653515Y-8364536D01*
X6653515Y-8364536D02*
X6643991Y-8345488D01*
X6643991Y-8345488D02*
X6643991Y-8174060D01*
X6824944Y-8364536D02*
X6805896Y-8374060D01*
X6805896Y-8374060D02*
X6767801Y-8374060D01*
X6767801Y-8374060D02*
X6748753Y-8364536D01*
X6748753Y-8364536D02*
X6739230Y-8345488D01*
X6739230Y-8345488D02*
X6739230Y-8269298D01*
X6739230Y-8269298D02*
X6748753Y-8250250D01*
X6748753Y-8250250D02*
X6767801Y-8240726D01*
X6767801Y-8240726D02*
X6805896Y-8240726D01*
X6805896Y-8240726D02*
X6824944Y-8250250D01*
X6824944Y-8250250D02*
X6834468Y-8269298D01*
X6834468Y-8269298D02*
X6834468Y-8288345D01*
X6834468Y-8288345D02*
X6739230Y-8307393D01*
X6910658Y-8364536D02*
X6929706Y-8374060D01*
X6929706Y-8374060D02*
X6967801Y-8374060D01*
X6967801Y-8374060D02*
X6986849Y-8364536D01*
X6986849Y-8364536D02*
X6996372Y-8345488D01*
X6996372Y-8345488D02*
X6996372Y-8335964D01*
X6996372Y-8335964D02*
X6986849Y-8316917D01*
X6986849Y-8316917D02*
X6967801Y-8307393D01*
X6967801Y-8307393D02*
X6939230Y-8307393D01*
X6939230Y-8307393D02*
X6920182Y-8297869D01*
X6920182Y-8297869D02*
X6910658Y-8278821D01*
X6910658Y-8278821D02*
X6910658Y-8269298D01*
X6910658Y-8269298D02*
X6920182Y-8250250D01*
X6920182Y-8250250D02*
X6939230Y-8240726D01*
X6939230Y-8240726D02*
X6967801Y-8240726D01*
X6967801Y-8240726D02*
X6986849Y-8250250D01*
X7063039Y-8450250D02*
X7072563Y-8440726D01*
X7072563Y-8440726D02*
X7091611Y-8412155D01*
X7091611Y-8412155D02*
X7101134Y-8393107D01*
X7101134Y-8393107D02*
X7110658Y-8364536D01*
X7110658Y-8364536D02*
X7120182Y-8316917D01*
X7120182Y-8316917D02*
X7120182Y-8278821D01*
X7120182Y-8278821D02*
X7110658Y-8231202D01*
X7110658Y-8231202D02*
X7101134Y-8202631D01*
X7101134Y-8202631D02*
X7091611Y-8183583D01*
X7091611Y-8183583D02*
X7072563Y-8155012D01*
X7072563Y-8155012D02*
X7063039Y-8145488D01*
D12*
X2097500Y-8546576D02*
G75*
G02*
X2077500Y-8546576I-10000J0D01*
G01*
X2077500Y-8546576D02*
G75*
G02*
X2097500Y-8546576I10000J0D01*
G01*
D11*
X2396372Y-8438060D02*
X2415420Y-8438060D01*
X2415420Y-8438060D02*
X2434467Y-8447583D01*
X2434467Y-8447583D02*
X2443991Y-8457107D01*
X2443991Y-8457107D02*
X2453515Y-8476155D01*
X2453515Y-8476155D02*
X2463039Y-8514250D01*
X2463039Y-8514250D02*
X2463039Y-8561869D01*
X2463039Y-8561869D02*
X2453515Y-8599964D01*
X2453515Y-8599964D02*
X2443991Y-8619012D01*
X2443991Y-8619012D02*
X2434467Y-8628536D01*
X2434467Y-8628536D02*
X2415420Y-8638060D01*
X2415420Y-8638060D02*
X2396372Y-8638060D01*
X2396372Y-8638060D02*
X2377324Y-8628536D01*
X2377324Y-8628536D02*
X2367801Y-8619012D01*
X2367801Y-8619012D02*
X2358277Y-8599964D01*
X2358277Y-8599964D02*
X2348753Y-8561869D01*
X2348753Y-8561869D02*
X2348753Y-8514250D01*
X2348753Y-8514250D02*
X2358277Y-8476155D01*
X2358277Y-8476155D02*
X2367801Y-8457107D01*
X2367801Y-8457107D02*
X2377324Y-8447583D01*
X2377324Y-8447583D02*
X2396372Y-8438060D01*
X2548753Y-8619012D02*
X2558277Y-8628536D01*
X2558277Y-8628536D02*
X2548753Y-8638060D01*
X2548753Y-8638060D02*
X2539229Y-8628536D01*
X2539229Y-8628536D02*
X2548753Y-8619012D01*
X2548753Y-8619012D02*
X2548753Y-8638060D01*
X2634467Y-8457107D02*
X2643991Y-8447583D01*
X2643991Y-8447583D02*
X2663039Y-8438060D01*
X2663039Y-8438060D02*
X2710658Y-8438060D01*
X2710658Y-8438060D02*
X2729705Y-8447583D01*
X2729705Y-8447583D02*
X2739229Y-8457107D01*
X2739229Y-8457107D02*
X2748753Y-8476155D01*
X2748753Y-8476155D02*
X2748753Y-8495202D01*
X2748753Y-8495202D02*
X2739229Y-8523774D01*
X2739229Y-8523774D02*
X2624944Y-8638060D01*
X2624944Y-8638060D02*
X2748753Y-8638060D01*
X2872562Y-8438060D02*
X2891610Y-8438060D01*
X2891610Y-8438060D02*
X2910658Y-8447583D01*
X2910658Y-8447583D02*
X2920182Y-8457107D01*
X2920182Y-8457107D02*
X2929705Y-8476155D01*
X2929705Y-8476155D02*
X2939229Y-8514250D01*
X2939229Y-8514250D02*
X2939229Y-8561869D01*
X2939229Y-8561869D02*
X2929705Y-8599964D01*
X2929705Y-8599964D02*
X2920182Y-8619012D01*
X2920182Y-8619012D02*
X2910658Y-8628536D01*
X2910658Y-8628536D02*
X2891610Y-8638060D01*
X2891610Y-8638060D02*
X2872562Y-8638060D01*
X2872562Y-8638060D02*
X2853515Y-8628536D01*
X2853515Y-8628536D02*
X2843991Y-8619012D01*
X2843991Y-8619012D02*
X2834467Y-8599964D01*
X2834467Y-8599964D02*
X2824943Y-8561869D01*
X2824943Y-8561869D02*
X2824943Y-8514250D01*
X2824943Y-8514250D02*
X2834467Y-8476155D01*
X2834467Y-8476155D02*
X2843991Y-8457107D01*
X2843991Y-8457107D02*
X2853515Y-8447583D01*
X2853515Y-8447583D02*
X2872562Y-8438060D01*
X3063039Y-8438060D02*
X3082086Y-8438060D01*
X3082086Y-8438060D02*
X3101134Y-8447583D01*
X3101134Y-8447583D02*
X3110658Y-8457107D01*
X3110658Y-8457107D02*
X3120182Y-8476155D01*
X3120182Y-8476155D02*
X3129705Y-8514250D01*
X3129705Y-8514250D02*
X3129705Y-8561869D01*
X3129705Y-8561869D02*
X3120182Y-8599964D01*
X3120182Y-8599964D02*
X3110658Y-8619012D01*
X3110658Y-8619012D02*
X3101134Y-8628536D01*
X3101134Y-8628536D02*
X3082086Y-8638060D01*
X3082086Y-8638060D02*
X3063039Y-8638060D01*
X3063039Y-8638060D02*
X3043991Y-8628536D01*
X3043991Y-8628536D02*
X3034467Y-8619012D01*
X3034467Y-8619012D02*
X3024943Y-8599964D01*
X3024943Y-8599964D02*
X3015420Y-8561869D01*
X3015420Y-8561869D02*
X3015420Y-8514250D01*
X3015420Y-8514250D02*
X3024943Y-8476155D01*
X3024943Y-8476155D02*
X3034467Y-8457107D01*
X3034467Y-8457107D02*
X3043991Y-8447583D01*
X3043991Y-8447583D02*
X3063039Y-8438060D01*
X3215420Y-8638060D02*
X3215420Y-8504726D01*
X3215420Y-8523774D02*
X3224943Y-8514250D01*
X3224943Y-8514250D02*
X3243991Y-8504726D01*
X3243991Y-8504726D02*
X3272563Y-8504726D01*
X3272563Y-8504726D02*
X3291610Y-8514250D01*
X3291610Y-8514250D02*
X3301134Y-8533298D01*
X3301134Y-8533298D02*
X3301134Y-8638060D01*
X3301134Y-8533298D02*
X3310658Y-8514250D01*
X3310658Y-8514250D02*
X3329705Y-8504726D01*
X3329705Y-8504726D02*
X3358277Y-8504726D01*
X3358277Y-8504726D02*
X3377324Y-8514250D01*
X3377324Y-8514250D02*
X3386848Y-8533298D01*
X3386848Y-8533298D02*
X3386848Y-8638060D01*
X3482086Y-8638060D02*
X3482086Y-8504726D01*
X3482086Y-8523774D02*
X3491610Y-8514250D01*
X3491610Y-8514250D02*
X3510658Y-8504726D01*
X3510658Y-8504726D02*
X3539229Y-8504726D01*
X3539229Y-8504726D02*
X3558277Y-8514250D01*
X3558277Y-8514250D02*
X3567801Y-8533298D01*
X3567801Y-8533298D02*
X3567801Y-8638060D01*
X3567801Y-8533298D02*
X3577324Y-8514250D01*
X3577324Y-8514250D02*
X3596372Y-8504726D01*
X3596372Y-8504726D02*
X3624943Y-8504726D01*
X3624943Y-8504726D02*
X3643991Y-8514250D01*
X3643991Y-8514250D02*
X3653515Y-8533298D01*
X3653515Y-8533298D02*
X3653515Y-8638060D01*
X4043991Y-8428536D02*
X3872563Y-8685679D01*
X4301134Y-8438060D02*
X4320182Y-8438060D01*
X4320182Y-8438060D02*
X4339229Y-8447583D01*
X4339229Y-8447583D02*
X4348753Y-8457107D01*
X4348753Y-8457107D02*
X4358277Y-8476155D01*
X4358277Y-8476155D02*
X4367801Y-8514250D01*
X4367801Y-8514250D02*
X4367801Y-8561869D01*
X4367801Y-8561869D02*
X4358277Y-8599964D01*
X4358277Y-8599964D02*
X4348753Y-8619012D01*
X4348753Y-8619012D02*
X4339229Y-8628536D01*
X4339229Y-8628536D02*
X4320182Y-8638060D01*
X4320182Y-8638060D02*
X4301134Y-8638060D01*
X4301134Y-8638060D02*
X4282087Y-8628536D01*
X4282087Y-8628536D02*
X4272563Y-8619012D01*
X4272563Y-8619012D02*
X4263039Y-8599964D01*
X4263039Y-8599964D02*
X4253515Y-8561869D01*
X4253515Y-8561869D02*
X4253515Y-8514250D01*
X4253515Y-8514250D02*
X4263039Y-8476155D01*
X4263039Y-8476155D02*
X4272563Y-8457107D01*
X4272563Y-8457107D02*
X4282087Y-8447583D01*
X4282087Y-8447583D02*
X4301134Y-8438060D01*
X4453515Y-8619012D02*
X4463039Y-8628536D01*
X4463039Y-8628536D02*
X4453515Y-8638060D01*
X4453515Y-8638060D02*
X4443991Y-8628536D01*
X4443991Y-8628536D02*
X4453515Y-8619012D01*
X4453515Y-8619012D02*
X4453515Y-8638060D01*
X4586848Y-8438060D02*
X4605896Y-8438060D01*
X4605896Y-8438060D02*
X4624944Y-8447583D01*
X4624944Y-8447583D02*
X4634468Y-8457107D01*
X4634468Y-8457107D02*
X4643991Y-8476155D01*
X4643991Y-8476155D02*
X4653515Y-8514250D01*
X4653515Y-8514250D02*
X4653515Y-8561869D01*
X4653515Y-8561869D02*
X4643991Y-8599964D01*
X4643991Y-8599964D02*
X4634468Y-8619012D01*
X4634468Y-8619012D02*
X4624944Y-8628536D01*
X4624944Y-8628536D02*
X4605896Y-8638060D01*
X4605896Y-8638060D02*
X4586848Y-8638060D01*
X4586848Y-8638060D02*
X4567801Y-8628536D01*
X4567801Y-8628536D02*
X4558277Y-8619012D01*
X4558277Y-8619012D02*
X4548753Y-8599964D01*
X4548753Y-8599964D02*
X4539229Y-8561869D01*
X4539229Y-8561869D02*
X4539229Y-8514250D01*
X4539229Y-8514250D02*
X4548753Y-8476155D01*
X4548753Y-8476155D02*
X4558277Y-8457107D01*
X4558277Y-8457107D02*
X4567801Y-8447583D01*
X4567801Y-8447583D02*
X4586848Y-8438060D01*
X4777325Y-8438060D02*
X4796372Y-8438060D01*
X4796372Y-8438060D02*
X4815420Y-8447583D01*
X4815420Y-8447583D02*
X4824944Y-8457107D01*
X4824944Y-8457107D02*
X4834468Y-8476155D01*
X4834468Y-8476155D02*
X4843991Y-8514250D01*
X4843991Y-8514250D02*
X4843991Y-8561869D01*
X4843991Y-8561869D02*
X4834468Y-8599964D01*
X4834468Y-8599964D02*
X4824944Y-8619012D01*
X4824944Y-8619012D02*
X4815420Y-8628536D01*
X4815420Y-8628536D02*
X4796372Y-8638060D01*
X4796372Y-8638060D02*
X4777325Y-8638060D01*
X4777325Y-8638060D02*
X4758277Y-8628536D01*
X4758277Y-8628536D02*
X4748753Y-8619012D01*
X4748753Y-8619012D02*
X4739229Y-8599964D01*
X4739229Y-8599964D02*
X4729706Y-8561869D01*
X4729706Y-8561869D02*
X4729706Y-8514250D01*
X4729706Y-8514250D02*
X4739229Y-8476155D01*
X4739229Y-8476155D02*
X4748753Y-8457107D01*
X4748753Y-8457107D02*
X4758277Y-8447583D01*
X4758277Y-8447583D02*
X4777325Y-8438060D01*
X4910658Y-8438060D02*
X5043991Y-8438060D01*
X5043991Y-8438060D02*
X4958277Y-8638060D01*
X5129706Y-8638060D02*
X5167801Y-8638060D01*
X5167801Y-8638060D02*
X5186849Y-8628536D01*
X5186849Y-8628536D02*
X5196372Y-8619012D01*
X5196372Y-8619012D02*
X5215420Y-8590441D01*
X5215420Y-8590441D02*
X5224944Y-8552345D01*
X5224944Y-8552345D02*
X5224944Y-8476155D01*
X5224944Y-8476155D02*
X5215420Y-8457107D01*
X5215420Y-8457107D02*
X5205896Y-8447583D01*
X5205896Y-8447583D02*
X5186849Y-8438060D01*
X5186849Y-8438060D02*
X5148753Y-8438060D01*
X5148753Y-8438060D02*
X5129706Y-8447583D01*
X5129706Y-8447583D02*
X5120182Y-8457107D01*
X5120182Y-8457107D02*
X5110658Y-8476155D01*
X5110658Y-8476155D02*
X5110658Y-8523774D01*
X5110658Y-8523774D02*
X5120182Y-8542822D01*
X5120182Y-8542822D02*
X5129706Y-8552345D01*
X5129706Y-8552345D02*
X5148753Y-8561869D01*
X5148753Y-8561869D02*
X5186849Y-8561869D01*
X5186849Y-8561869D02*
X5205896Y-8552345D01*
X5205896Y-8552345D02*
X5215420Y-8542822D01*
X5215420Y-8542822D02*
X5224944Y-8523774D01*
X5301134Y-8438060D02*
X5301134Y-8476155D01*
X5377325Y-8438060D02*
X5377325Y-8476155D01*
X5672563Y-8714250D02*
X5663039Y-8704726D01*
X5663039Y-8704726D02*
X5643991Y-8676155D01*
X5643991Y-8676155D02*
X5634468Y-8657107D01*
X5634468Y-8657107D02*
X5624944Y-8628536D01*
X5624944Y-8628536D02*
X5615420Y-8580917D01*
X5615420Y-8580917D02*
X5615420Y-8542822D01*
X5615420Y-8542822D02*
X5624944Y-8495202D01*
X5624944Y-8495202D02*
X5634468Y-8466631D01*
X5634468Y-8466631D02*
X5643991Y-8447583D01*
X5643991Y-8447583D02*
X5663039Y-8419012D01*
X5663039Y-8419012D02*
X5672563Y-8409488D01*
X5739229Y-8457107D02*
X5748753Y-8447583D01*
X5748753Y-8447583D02*
X5767801Y-8438060D01*
X5767801Y-8438060D02*
X5815420Y-8438060D01*
X5815420Y-8438060D02*
X5834468Y-8447583D01*
X5834468Y-8447583D02*
X5843991Y-8457107D01*
X5843991Y-8457107D02*
X5853515Y-8476155D01*
X5853515Y-8476155D02*
X5853515Y-8495202D01*
X5853515Y-8495202D02*
X5843991Y-8523774D01*
X5843991Y-8523774D02*
X5729706Y-8638060D01*
X5729706Y-8638060D02*
X5853515Y-8638060D01*
X6024944Y-8504726D02*
X6024944Y-8638060D01*
X5977325Y-8428536D02*
X5929706Y-8571393D01*
X5929706Y-8571393D02*
X6053515Y-8571393D01*
X6282087Y-8638060D02*
X6282087Y-8438060D01*
X6367801Y-8638060D02*
X6367801Y-8533298D01*
X6367801Y-8533298D02*
X6358277Y-8514250D01*
X6358277Y-8514250D02*
X6339230Y-8504726D01*
X6339230Y-8504726D02*
X6310658Y-8504726D01*
X6310658Y-8504726D02*
X6291610Y-8514250D01*
X6291610Y-8514250D02*
X6282087Y-8523774D01*
X6491610Y-8638060D02*
X6472563Y-8628536D01*
X6472563Y-8628536D02*
X6463039Y-8619012D01*
X6463039Y-8619012D02*
X6453515Y-8599964D01*
X6453515Y-8599964D02*
X6453515Y-8542822D01*
X6453515Y-8542822D02*
X6463039Y-8523774D01*
X6463039Y-8523774D02*
X6472563Y-8514250D01*
X6472563Y-8514250D02*
X6491610Y-8504726D01*
X6491610Y-8504726D02*
X6520182Y-8504726D01*
X6520182Y-8504726D02*
X6539230Y-8514250D01*
X6539230Y-8514250D02*
X6548753Y-8523774D01*
X6548753Y-8523774D02*
X6558277Y-8542822D01*
X6558277Y-8542822D02*
X6558277Y-8599964D01*
X6558277Y-8599964D02*
X6548753Y-8619012D01*
X6548753Y-8619012D02*
X6539230Y-8628536D01*
X6539230Y-8628536D02*
X6520182Y-8638060D01*
X6520182Y-8638060D02*
X6491610Y-8638060D01*
X6672563Y-8638060D02*
X6653515Y-8628536D01*
X6653515Y-8628536D02*
X6643991Y-8609488D01*
X6643991Y-8609488D02*
X6643991Y-8438060D01*
X6824944Y-8628536D02*
X6805896Y-8638060D01*
X6805896Y-8638060D02*
X6767801Y-8638060D01*
X6767801Y-8638060D02*
X6748753Y-8628536D01*
X6748753Y-8628536D02*
X6739230Y-8609488D01*
X6739230Y-8609488D02*
X6739230Y-8533298D01*
X6739230Y-8533298D02*
X6748753Y-8514250D01*
X6748753Y-8514250D02*
X6767801Y-8504726D01*
X6767801Y-8504726D02*
X6805896Y-8504726D01*
X6805896Y-8504726D02*
X6824944Y-8514250D01*
X6824944Y-8514250D02*
X6834468Y-8533298D01*
X6834468Y-8533298D02*
X6834468Y-8552345D01*
X6834468Y-8552345D02*
X6739230Y-8571393D01*
X6910658Y-8628536D02*
X6929706Y-8638060D01*
X6929706Y-8638060D02*
X6967801Y-8638060D01*
X6967801Y-8638060D02*
X6986849Y-8628536D01*
X6986849Y-8628536D02*
X6996372Y-8609488D01*
X6996372Y-8609488D02*
X6996372Y-8599964D01*
X6996372Y-8599964D02*
X6986849Y-8580917D01*
X6986849Y-8580917D02*
X6967801Y-8571393D01*
X6967801Y-8571393D02*
X6939230Y-8571393D01*
X6939230Y-8571393D02*
X6920182Y-8561869D01*
X6920182Y-8561869D02*
X6910658Y-8542822D01*
X6910658Y-8542822D02*
X6910658Y-8533298D01*
X6910658Y-8533298D02*
X6920182Y-8514250D01*
X6920182Y-8514250D02*
X6939230Y-8504726D01*
X6939230Y-8504726D02*
X6967801Y-8504726D01*
X6967801Y-8504726D02*
X6986849Y-8514250D01*
X7063039Y-8714250D02*
X7072563Y-8704726D01*
X7072563Y-8704726D02*
X7091611Y-8676155D01*
X7091611Y-8676155D02*
X7101134Y-8657107D01*
X7101134Y-8657107D02*
X7110658Y-8628536D01*
X7110658Y-8628536D02*
X7120182Y-8580917D01*
X7120182Y-8580917D02*
X7120182Y-8542822D01*
X7120182Y-8542822D02*
X7110658Y-8495202D01*
X7110658Y-8495202D02*
X7101134Y-8466631D01*
X7101134Y-8466631D02*
X7091611Y-8447583D01*
X7091611Y-8447583D02*
X7072563Y-8419012D01*
X7072563Y-8419012D02*
X7063039Y-8409488D01*
D12*
X2082500Y-8795576D02*
X2082500Y-8825576D01*
X2067500Y-8810576D02*
X2097500Y-8810576D01*
D11*
X2396372Y-8702060D02*
X2415420Y-8702060D01*
X2415420Y-8702060D02*
X2434467Y-8711583D01*
X2434467Y-8711583D02*
X2443991Y-8721107D01*
X2443991Y-8721107D02*
X2453515Y-8740155D01*
X2453515Y-8740155D02*
X2463039Y-8778250D01*
X2463039Y-8778250D02*
X2463039Y-8825869D01*
X2463039Y-8825869D02*
X2453515Y-8863964D01*
X2453515Y-8863964D02*
X2443991Y-8883012D01*
X2443991Y-8883012D02*
X2434467Y-8892536D01*
X2434467Y-8892536D02*
X2415420Y-8902060D01*
X2415420Y-8902060D02*
X2396372Y-8902060D01*
X2396372Y-8902060D02*
X2377324Y-8892536D01*
X2377324Y-8892536D02*
X2367801Y-8883012D01*
X2367801Y-8883012D02*
X2358277Y-8863964D01*
X2358277Y-8863964D02*
X2348753Y-8825869D01*
X2348753Y-8825869D02*
X2348753Y-8778250D01*
X2348753Y-8778250D02*
X2358277Y-8740155D01*
X2358277Y-8740155D02*
X2367801Y-8721107D01*
X2367801Y-8721107D02*
X2377324Y-8711583D01*
X2377324Y-8711583D02*
X2396372Y-8702060D01*
X2548753Y-8883012D02*
X2558277Y-8892536D01*
X2558277Y-8892536D02*
X2548753Y-8902060D01*
X2548753Y-8902060D02*
X2539229Y-8892536D01*
X2539229Y-8892536D02*
X2548753Y-8883012D01*
X2548753Y-8883012D02*
X2548753Y-8902060D01*
X2624944Y-8702060D02*
X2748753Y-8702060D01*
X2748753Y-8702060D02*
X2682086Y-8778250D01*
X2682086Y-8778250D02*
X2710658Y-8778250D01*
X2710658Y-8778250D02*
X2729705Y-8787774D01*
X2729705Y-8787774D02*
X2739229Y-8797298D01*
X2739229Y-8797298D02*
X2748753Y-8816345D01*
X2748753Y-8816345D02*
X2748753Y-8863964D01*
X2748753Y-8863964D02*
X2739229Y-8883012D01*
X2739229Y-8883012D02*
X2729705Y-8892536D01*
X2729705Y-8892536D02*
X2710658Y-8902060D01*
X2710658Y-8902060D02*
X2653515Y-8902060D01*
X2653515Y-8902060D02*
X2634467Y-8892536D01*
X2634467Y-8892536D02*
X2624944Y-8883012D01*
X2872562Y-8702060D02*
X2891610Y-8702060D01*
X2891610Y-8702060D02*
X2910658Y-8711583D01*
X2910658Y-8711583D02*
X2920182Y-8721107D01*
X2920182Y-8721107D02*
X2929705Y-8740155D01*
X2929705Y-8740155D02*
X2939229Y-8778250D01*
X2939229Y-8778250D02*
X2939229Y-8825869D01*
X2939229Y-8825869D02*
X2929705Y-8863964D01*
X2929705Y-8863964D02*
X2920182Y-8883012D01*
X2920182Y-8883012D02*
X2910658Y-8892536D01*
X2910658Y-8892536D02*
X2891610Y-8902060D01*
X2891610Y-8902060D02*
X2872562Y-8902060D01*
X2872562Y-8902060D02*
X2853515Y-8892536D01*
X2853515Y-8892536D02*
X2843991Y-8883012D01*
X2843991Y-8883012D02*
X2834467Y-8863964D01*
X2834467Y-8863964D02*
X2824943Y-8825869D01*
X2824943Y-8825869D02*
X2824943Y-8778250D01*
X2824943Y-8778250D02*
X2834467Y-8740155D01*
X2834467Y-8740155D02*
X2843991Y-8721107D01*
X2843991Y-8721107D02*
X2853515Y-8711583D01*
X2853515Y-8711583D02*
X2872562Y-8702060D01*
X3063039Y-8702060D02*
X3082086Y-8702060D01*
X3082086Y-8702060D02*
X3101134Y-8711583D01*
X3101134Y-8711583D02*
X3110658Y-8721107D01*
X3110658Y-8721107D02*
X3120182Y-8740155D01*
X3120182Y-8740155D02*
X3129705Y-8778250D01*
X3129705Y-8778250D02*
X3129705Y-8825869D01*
X3129705Y-8825869D02*
X3120182Y-8863964D01*
X3120182Y-8863964D02*
X3110658Y-8883012D01*
X3110658Y-8883012D02*
X3101134Y-8892536D01*
X3101134Y-8892536D02*
X3082086Y-8902060D01*
X3082086Y-8902060D02*
X3063039Y-8902060D01*
X3063039Y-8902060D02*
X3043991Y-8892536D01*
X3043991Y-8892536D02*
X3034467Y-8883012D01*
X3034467Y-8883012D02*
X3024943Y-8863964D01*
X3024943Y-8863964D02*
X3015420Y-8825869D01*
X3015420Y-8825869D02*
X3015420Y-8778250D01*
X3015420Y-8778250D02*
X3024943Y-8740155D01*
X3024943Y-8740155D02*
X3034467Y-8721107D01*
X3034467Y-8721107D02*
X3043991Y-8711583D01*
X3043991Y-8711583D02*
X3063039Y-8702060D01*
X3215420Y-8902060D02*
X3215420Y-8768726D01*
X3215420Y-8787774D02*
X3224943Y-8778250D01*
X3224943Y-8778250D02*
X3243991Y-8768726D01*
X3243991Y-8768726D02*
X3272563Y-8768726D01*
X3272563Y-8768726D02*
X3291610Y-8778250D01*
X3291610Y-8778250D02*
X3301134Y-8797298D01*
X3301134Y-8797298D02*
X3301134Y-8902060D01*
X3301134Y-8797298D02*
X3310658Y-8778250D01*
X3310658Y-8778250D02*
X3329705Y-8768726D01*
X3329705Y-8768726D02*
X3358277Y-8768726D01*
X3358277Y-8768726D02*
X3377324Y-8778250D01*
X3377324Y-8778250D02*
X3386848Y-8797298D01*
X3386848Y-8797298D02*
X3386848Y-8902060D01*
X3482086Y-8902060D02*
X3482086Y-8768726D01*
X3482086Y-8787774D02*
X3491610Y-8778250D01*
X3491610Y-8778250D02*
X3510658Y-8768726D01*
X3510658Y-8768726D02*
X3539229Y-8768726D01*
X3539229Y-8768726D02*
X3558277Y-8778250D01*
X3558277Y-8778250D02*
X3567801Y-8797298D01*
X3567801Y-8797298D02*
X3567801Y-8902060D01*
X3567801Y-8797298D02*
X3577324Y-8778250D01*
X3577324Y-8778250D02*
X3596372Y-8768726D01*
X3596372Y-8768726D02*
X3624943Y-8768726D01*
X3624943Y-8768726D02*
X3643991Y-8778250D01*
X3643991Y-8778250D02*
X3653515Y-8797298D01*
X3653515Y-8797298D02*
X3653515Y-8902060D01*
X4043991Y-8692536D02*
X3872563Y-8949679D01*
X4301134Y-8702060D02*
X4320182Y-8702060D01*
X4320182Y-8702060D02*
X4339229Y-8711583D01*
X4339229Y-8711583D02*
X4348753Y-8721107D01*
X4348753Y-8721107D02*
X4358277Y-8740155D01*
X4358277Y-8740155D02*
X4367801Y-8778250D01*
X4367801Y-8778250D02*
X4367801Y-8825869D01*
X4367801Y-8825869D02*
X4358277Y-8863964D01*
X4358277Y-8863964D02*
X4348753Y-8883012D01*
X4348753Y-8883012D02*
X4339229Y-8892536D01*
X4339229Y-8892536D02*
X4320182Y-8902060D01*
X4320182Y-8902060D02*
X4301134Y-8902060D01*
X4301134Y-8902060D02*
X4282087Y-8892536D01*
X4282087Y-8892536D02*
X4272563Y-8883012D01*
X4272563Y-8883012D02*
X4263039Y-8863964D01*
X4263039Y-8863964D02*
X4253515Y-8825869D01*
X4253515Y-8825869D02*
X4253515Y-8778250D01*
X4253515Y-8778250D02*
X4263039Y-8740155D01*
X4263039Y-8740155D02*
X4272563Y-8721107D01*
X4272563Y-8721107D02*
X4282087Y-8711583D01*
X4282087Y-8711583D02*
X4301134Y-8702060D01*
X4453515Y-8883012D02*
X4463039Y-8892536D01*
X4463039Y-8892536D02*
X4453515Y-8902060D01*
X4453515Y-8902060D02*
X4443991Y-8892536D01*
X4443991Y-8892536D02*
X4453515Y-8883012D01*
X4453515Y-8883012D02*
X4453515Y-8902060D01*
X4586848Y-8702060D02*
X4605896Y-8702060D01*
X4605896Y-8702060D02*
X4624944Y-8711583D01*
X4624944Y-8711583D02*
X4634468Y-8721107D01*
X4634468Y-8721107D02*
X4643991Y-8740155D01*
X4643991Y-8740155D02*
X4653515Y-8778250D01*
X4653515Y-8778250D02*
X4653515Y-8825869D01*
X4653515Y-8825869D02*
X4643991Y-8863964D01*
X4643991Y-8863964D02*
X4634468Y-8883012D01*
X4634468Y-8883012D02*
X4624944Y-8892536D01*
X4624944Y-8892536D02*
X4605896Y-8902060D01*
X4605896Y-8902060D02*
X4586848Y-8902060D01*
X4586848Y-8902060D02*
X4567801Y-8892536D01*
X4567801Y-8892536D02*
X4558277Y-8883012D01*
X4558277Y-8883012D02*
X4548753Y-8863964D01*
X4548753Y-8863964D02*
X4539229Y-8825869D01*
X4539229Y-8825869D02*
X4539229Y-8778250D01*
X4539229Y-8778250D02*
X4548753Y-8740155D01*
X4548753Y-8740155D02*
X4558277Y-8721107D01*
X4558277Y-8721107D02*
X4567801Y-8711583D01*
X4567801Y-8711583D02*
X4586848Y-8702060D01*
X4843991Y-8902060D02*
X4729706Y-8902060D01*
X4786848Y-8902060D02*
X4786848Y-8702060D01*
X4786848Y-8702060D02*
X4767801Y-8730631D01*
X4767801Y-8730631D02*
X4748753Y-8749679D01*
X4748753Y-8749679D02*
X4729706Y-8759202D01*
X5034468Y-8902060D02*
X4920182Y-8902060D01*
X4977325Y-8902060D02*
X4977325Y-8702060D01*
X4977325Y-8702060D02*
X4958277Y-8730631D01*
X4958277Y-8730631D02*
X4939229Y-8749679D01*
X4939229Y-8749679D02*
X4920182Y-8759202D01*
X5148753Y-8787774D02*
X5129706Y-8778250D01*
X5129706Y-8778250D02*
X5120182Y-8768726D01*
X5120182Y-8768726D02*
X5110658Y-8749679D01*
X5110658Y-8749679D02*
X5110658Y-8740155D01*
X5110658Y-8740155D02*
X5120182Y-8721107D01*
X5120182Y-8721107D02*
X5129706Y-8711583D01*
X5129706Y-8711583D02*
X5148753Y-8702060D01*
X5148753Y-8702060D02*
X5186849Y-8702060D01*
X5186849Y-8702060D02*
X5205896Y-8711583D01*
X5205896Y-8711583D02*
X5215420Y-8721107D01*
X5215420Y-8721107D02*
X5224944Y-8740155D01*
X5224944Y-8740155D02*
X5224944Y-8749679D01*
X5224944Y-8749679D02*
X5215420Y-8768726D01*
X5215420Y-8768726D02*
X5205896Y-8778250D01*
X5205896Y-8778250D02*
X5186849Y-8787774D01*
X5186849Y-8787774D02*
X5148753Y-8787774D01*
X5148753Y-8787774D02*
X5129706Y-8797298D01*
X5129706Y-8797298D02*
X5120182Y-8806822D01*
X5120182Y-8806822D02*
X5110658Y-8825869D01*
X5110658Y-8825869D02*
X5110658Y-8863964D01*
X5110658Y-8863964D02*
X5120182Y-8883012D01*
X5120182Y-8883012D02*
X5129706Y-8892536D01*
X5129706Y-8892536D02*
X5148753Y-8902060D01*
X5148753Y-8902060D02*
X5186849Y-8902060D01*
X5186849Y-8902060D02*
X5205896Y-8892536D01*
X5205896Y-8892536D02*
X5215420Y-8883012D01*
X5215420Y-8883012D02*
X5224944Y-8863964D01*
X5224944Y-8863964D02*
X5224944Y-8825869D01*
X5224944Y-8825869D02*
X5215420Y-8806822D01*
X5215420Y-8806822D02*
X5205896Y-8797298D01*
X5205896Y-8797298D02*
X5186849Y-8787774D01*
X5301134Y-8702060D02*
X5301134Y-8740155D01*
X5377325Y-8702060D02*
X5377325Y-8740155D01*
X5672563Y-8978250D02*
X5663039Y-8968726D01*
X5663039Y-8968726D02*
X5643991Y-8940155D01*
X5643991Y-8940155D02*
X5634468Y-8921107D01*
X5634468Y-8921107D02*
X5624944Y-8892536D01*
X5624944Y-8892536D02*
X5615420Y-8844917D01*
X5615420Y-8844917D02*
X5615420Y-8806822D01*
X5615420Y-8806822D02*
X5624944Y-8759202D01*
X5624944Y-8759202D02*
X5634468Y-8730631D01*
X5634468Y-8730631D02*
X5643991Y-8711583D01*
X5643991Y-8711583D02*
X5663039Y-8683012D01*
X5663039Y-8683012D02*
X5672563Y-8673488D01*
X5853515Y-8902060D02*
X5739229Y-8902060D01*
X5796372Y-8902060D02*
X5796372Y-8702060D01*
X5796372Y-8702060D02*
X5777325Y-8730631D01*
X5777325Y-8730631D02*
X5758277Y-8749679D01*
X5758277Y-8749679D02*
X5739229Y-8759202D01*
X5967801Y-8787774D02*
X5948753Y-8778250D01*
X5948753Y-8778250D02*
X5939229Y-8768726D01*
X5939229Y-8768726D02*
X5929706Y-8749679D01*
X5929706Y-8749679D02*
X5929706Y-8740155D01*
X5929706Y-8740155D02*
X5939229Y-8721107D01*
X5939229Y-8721107D02*
X5948753Y-8711583D01*
X5948753Y-8711583D02*
X5967801Y-8702060D01*
X5967801Y-8702060D02*
X6005896Y-8702060D01*
X6005896Y-8702060D02*
X6024944Y-8711583D01*
X6024944Y-8711583D02*
X6034468Y-8721107D01*
X6034468Y-8721107D02*
X6043991Y-8740155D01*
X6043991Y-8740155D02*
X6043991Y-8749679D01*
X6043991Y-8749679D02*
X6034468Y-8768726D01*
X6034468Y-8768726D02*
X6024944Y-8778250D01*
X6024944Y-8778250D02*
X6005896Y-8787774D01*
X6005896Y-8787774D02*
X5967801Y-8787774D01*
X5967801Y-8787774D02*
X5948753Y-8797298D01*
X5948753Y-8797298D02*
X5939229Y-8806822D01*
X5939229Y-8806822D02*
X5929706Y-8825869D01*
X5929706Y-8825869D02*
X5929706Y-8863964D01*
X5929706Y-8863964D02*
X5939229Y-8883012D01*
X5939229Y-8883012D02*
X5948753Y-8892536D01*
X5948753Y-8892536D02*
X5967801Y-8902060D01*
X5967801Y-8902060D02*
X6005896Y-8902060D01*
X6005896Y-8902060D02*
X6024944Y-8892536D01*
X6024944Y-8892536D02*
X6034468Y-8883012D01*
X6034468Y-8883012D02*
X6043991Y-8863964D01*
X6043991Y-8863964D02*
X6043991Y-8825869D01*
X6043991Y-8825869D02*
X6034468Y-8806822D01*
X6034468Y-8806822D02*
X6024944Y-8797298D01*
X6024944Y-8797298D02*
X6005896Y-8787774D01*
X6167801Y-8702060D02*
X6186849Y-8702060D01*
X6186849Y-8702060D02*
X6205896Y-8711583D01*
X6205896Y-8711583D02*
X6215420Y-8721107D01*
X6215420Y-8721107D02*
X6224944Y-8740155D01*
X6224944Y-8740155D02*
X6234468Y-8778250D01*
X6234468Y-8778250D02*
X6234468Y-8825869D01*
X6234468Y-8825869D02*
X6224944Y-8863964D01*
X6224944Y-8863964D02*
X6215420Y-8883012D01*
X6215420Y-8883012D02*
X6205896Y-8892536D01*
X6205896Y-8892536D02*
X6186849Y-8902060D01*
X6186849Y-8902060D02*
X6167801Y-8902060D01*
X6167801Y-8902060D02*
X6148753Y-8892536D01*
X6148753Y-8892536D02*
X6139229Y-8883012D01*
X6139229Y-8883012D02*
X6129706Y-8863964D01*
X6129706Y-8863964D02*
X6120182Y-8825869D01*
X6120182Y-8825869D02*
X6120182Y-8778250D01*
X6120182Y-8778250D02*
X6129706Y-8740155D01*
X6129706Y-8740155D02*
X6139229Y-8721107D01*
X6139229Y-8721107D02*
X6148753Y-8711583D01*
X6148753Y-8711583D02*
X6167801Y-8702060D01*
X6472563Y-8902060D02*
X6472563Y-8702060D01*
X6558277Y-8902060D02*
X6558277Y-8797298D01*
X6558277Y-8797298D02*
X6548753Y-8778250D01*
X6548753Y-8778250D02*
X6529706Y-8768726D01*
X6529706Y-8768726D02*
X6501134Y-8768726D01*
X6501134Y-8768726D02*
X6482087Y-8778250D01*
X6482087Y-8778250D02*
X6472563Y-8787774D01*
X6682087Y-8902060D02*
X6663039Y-8892536D01*
X6663039Y-8892536D02*
X6653515Y-8883012D01*
X6653515Y-8883012D02*
X6643991Y-8863964D01*
X6643991Y-8863964D02*
X6643991Y-8806822D01*
X6643991Y-8806822D02*
X6653515Y-8787774D01*
X6653515Y-8787774D02*
X6663039Y-8778250D01*
X6663039Y-8778250D02*
X6682087Y-8768726D01*
X6682087Y-8768726D02*
X6710658Y-8768726D01*
X6710658Y-8768726D02*
X6729706Y-8778250D01*
X6729706Y-8778250D02*
X6739230Y-8787774D01*
X6739230Y-8787774D02*
X6748753Y-8806822D01*
X6748753Y-8806822D02*
X6748753Y-8863964D01*
X6748753Y-8863964D02*
X6739230Y-8883012D01*
X6739230Y-8883012D02*
X6729706Y-8892536D01*
X6729706Y-8892536D02*
X6710658Y-8902060D01*
X6710658Y-8902060D02*
X6682087Y-8902060D01*
X6863039Y-8902060D02*
X6843991Y-8892536D01*
X6843991Y-8892536D02*
X6834468Y-8873488D01*
X6834468Y-8873488D02*
X6834468Y-8702060D01*
X7015420Y-8892536D02*
X6996372Y-8902060D01*
X6996372Y-8902060D02*
X6958277Y-8902060D01*
X6958277Y-8902060D02*
X6939230Y-8892536D01*
X6939230Y-8892536D02*
X6929706Y-8873488D01*
X6929706Y-8873488D02*
X6929706Y-8797298D01*
X6929706Y-8797298D02*
X6939230Y-8778250D01*
X6939230Y-8778250D02*
X6958277Y-8768726D01*
X6958277Y-8768726D02*
X6996372Y-8768726D01*
X6996372Y-8768726D02*
X7015420Y-8778250D01*
X7015420Y-8778250D02*
X7024944Y-8797298D01*
X7024944Y-8797298D02*
X7024944Y-8816345D01*
X7024944Y-8816345D02*
X6929706Y-8835393D01*
X7101134Y-8892536D02*
X7120182Y-8902060D01*
X7120182Y-8902060D02*
X7158277Y-8902060D01*
X7158277Y-8902060D02*
X7177325Y-8892536D01*
X7177325Y-8892536D02*
X7186849Y-8873488D01*
X7186849Y-8873488D02*
X7186849Y-8863964D01*
X7186849Y-8863964D02*
X7177325Y-8844917D01*
X7177325Y-8844917D02*
X7158277Y-8835393D01*
X7158277Y-8835393D02*
X7129706Y-8835393D01*
X7129706Y-8835393D02*
X7110658Y-8825869D01*
X7110658Y-8825869D02*
X7101134Y-8806822D01*
X7101134Y-8806822D02*
X7101134Y-8797298D01*
X7101134Y-8797298D02*
X7110658Y-8778250D01*
X7110658Y-8778250D02*
X7129706Y-8768726D01*
X7129706Y-8768726D02*
X7158277Y-8768726D01*
X7158277Y-8768726D02*
X7177325Y-8778250D01*
X7253515Y-8978250D02*
X7263039Y-8968726D01*
X7263039Y-8968726D02*
X7282087Y-8940155D01*
X7282087Y-8940155D02*
X7291611Y-8921107D01*
X7291611Y-8921107D02*
X7301134Y-8892536D01*
X7301134Y-8892536D02*
X7310658Y-8844917D01*
X7310658Y-8844917D02*
X7310658Y-8806822D01*
X7310658Y-8806822D02*
X7301134Y-8759202D01*
X7301134Y-8759202D02*
X7291611Y-8730631D01*
X7291611Y-8730631D02*
X7282087Y-8711583D01*
X7282087Y-8711583D02*
X7263039Y-8683012D01*
X7263039Y-8683012D02*
X7253515Y-8673488D01*
D12*
X2093107Y-9085183D02*
X2093107Y-9063969D01*
X2071893Y-9063969D01*
X2071893Y-9085183D01*
X2093107Y-9085183D01*
D11*
X2396372Y-8966060D02*
X2415420Y-8966060D01*
X2415420Y-8966060D02*
X2434467Y-8975583D01*
X2434467Y-8975583D02*
X2443991Y-8985107D01*
X2443991Y-8985107D02*
X2453515Y-9004155D01*
X2453515Y-9004155D02*
X2463039Y-9042250D01*
X2463039Y-9042250D02*
X2463039Y-9089869D01*
X2463039Y-9089869D02*
X2453515Y-9127964D01*
X2453515Y-9127964D02*
X2443991Y-9147012D01*
X2443991Y-9147012D02*
X2434467Y-9156536D01*
X2434467Y-9156536D02*
X2415420Y-9166060D01*
X2415420Y-9166060D02*
X2396372Y-9166060D01*
X2396372Y-9166060D02*
X2377324Y-9156536D01*
X2377324Y-9156536D02*
X2367801Y-9147012D01*
X2367801Y-9147012D02*
X2358277Y-9127964D01*
X2358277Y-9127964D02*
X2348753Y-9089869D01*
X2348753Y-9089869D02*
X2348753Y-9042250D01*
X2348753Y-9042250D02*
X2358277Y-9004155D01*
X2358277Y-9004155D02*
X2367801Y-8985107D01*
X2367801Y-8985107D02*
X2377324Y-8975583D01*
X2377324Y-8975583D02*
X2396372Y-8966060D01*
X2548753Y-9147012D02*
X2558277Y-9156536D01*
X2558277Y-9156536D02*
X2548753Y-9166060D01*
X2548753Y-9166060D02*
X2539229Y-9156536D01*
X2539229Y-9156536D02*
X2548753Y-9147012D01*
X2548753Y-9147012D02*
X2548753Y-9166060D01*
X2624944Y-8966060D02*
X2748753Y-8966060D01*
X2748753Y-8966060D02*
X2682086Y-9042250D01*
X2682086Y-9042250D02*
X2710658Y-9042250D01*
X2710658Y-9042250D02*
X2729705Y-9051774D01*
X2729705Y-9051774D02*
X2739229Y-9061298D01*
X2739229Y-9061298D02*
X2748753Y-9080345D01*
X2748753Y-9080345D02*
X2748753Y-9127964D01*
X2748753Y-9127964D02*
X2739229Y-9147012D01*
X2739229Y-9147012D02*
X2729705Y-9156536D01*
X2729705Y-9156536D02*
X2710658Y-9166060D01*
X2710658Y-9166060D02*
X2653515Y-9166060D01*
X2653515Y-9166060D02*
X2634467Y-9156536D01*
X2634467Y-9156536D02*
X2624944Y-9147012D01*
X2872562Y-8966060D02*
X2891610Y-8966060D01*
X2891610Y-8966060D02*
X2910658Y-8975583D01*
X2910658Y-8975583D02*
X2920182Y-8985107D01*
X2920182Y-8985107D02*
X2929705Y-9004155D01*
X2929705Y-9004155D02*
X2939229Y-9042250D01*
X2939229Y-9042250D02*
X2939229Y-9089869D01*
X2939229Y-9089869D02*
X2929705Y-9127964D01*
X2929705Y-9127964D02*
X2920182Y-9147012D01*
X2920182Y-9147012D02*
X2910658Y-9156536D01*
X2910658Y-9156536D02*
X2891610Y-9166060D01*
X2891610Y-9166060D02*
X2872562Y-9166060D01*
X2872562Y-9166060D02*
X2853515Y-9156536D01*
X2853515Y-9156536D02*
X2843991Y-9147012D01*
X2843991Y-9147012D02*
X2834467Y-9127964D01*
X2834467Y-9127964D02*
X2824943Y-9089869D01*
X2824943Y-9089869D02*
X2824943Y-9042250D01*
X2824943Y-9042250D02*
X2834467Y-9004155D01*
X2834467Y-9004155D02*
X2843991Y-8985107D01*
X2843991Y-8985107D02*
X2853515Y-8975583D01*
X2853515Y-8975583D02*
X2872562Y-8966060D01*
X3063039Y-8966060D02*
X3082086Y-8966060D01*
X3082086Y-8966060D02*
X3101134Y-8975583D01*
X3101134Y-8975583D02*
X3110658Y-8985107D01*
X3110658Y-8985107D02*
X3120182Y-9004155D01*
X3120182Y-9004155D02*
X3129705Y-9042250D01*
X3129705Y-9042250D02*
X3129705Y-9089869D01*
X3129705Y-9089869D02*
X3120182Y-9127964D01*
X3120182Y-9127964D02*
X3110658Y-9147012D01*
X3110658Y-9147012D02*
X3101134Y-9156536D01*
X3101134Y-9156536D02*
X3082086Y-9166060D01*
X3082086Y-9166060D02*
X3063039Y-9166060D01*
X3063039Y-9166060D02*
X3043991Y-9156536D01*
X3043991Y-9156536D02*
X3034467Y-9147012D01*
X3034467Y-9147012D02*
X3024943Y-9127964D01*
X3024943Y-9127964D02*
X3015420Y-9089869D01*
X3015420Y-9089869D02*
X3015420Y-9042250D01*
X3015420Y-9042250D02*
X3024943Y-9004155D01*
X3024943Y-9004155D02*
X3034467Y-8985107D01*
X3034467Y-8985107D02*
X3043991Y-8975583D01*
X3043991Y-8975583D02*
X3063039Y-8966060D01*
X3215420Y-9166060D02*
X3215420Y-9032726D01*
X3215420Y-9051774D02*
X3224943Y-9042250D01*
X3224943Y-9042250D02*
X3243991Y-9032726D01*
X3243991Y-9032726D02*
X3272563Y-9032726D01*
X3272563Y-9032726D02*
X3291610Y-9042250D01*
X3291610Y-9042250D02*
X3301134Y-9061298D01*
X3301134Y-9061298D02*
X3301134Y-9166060D01*
X3301134Y-9061298D02*
X3310658Y-9042250D01*
X3310658Y-9042250D02*
X3329705Y-9032726D01*
X3329705Y-9032726D02*
X3358277Y-9032726D01*
X3358277Y-9032726D02*
X3377324Y-9042250D01*
X3377324Y-9042250D02*
X3386848Y-9061298D01*
X3386848Y-9061298D02*
X3386848Y-9166060D01*
X3482086Y-9166060D02*
X3482086Y-9032726D01*
X3482086Y-9051774D02*
X3491610Y-9042250D01*
X3491610Y-9042250D02*
X3510658Y-9032726D01*
X3510658Y-9032726D02*
X3539229Y-9032726D01*
X3539229Y-9032726D02*
X3558277Y-9042250D01*
X3558277Y-9042250D02*
X3567801Y-9061298D01*
X3567801Y-9061298D02*
X3567801Y-9166060D01*
X3567801Y-9061298D02*
X3577324Y-9042250D01*
X3577324Y-9042250D02*
X3596372Y-9032726D01*
X3596372Y-9032726D02*
X3624943Y-9032726D01*
X3624943Y-9032726D02*
X3643991Y-9042250D01*
X3643991Y-9042250D02*
X3653515Y-9061298D01*
X3653515Y-9061298D02*
X3653515Y-9166060D01*
X4043991Y-8956536D02*
X3872563Y-9213679D01*
X4301134Y-8966060D02*
X4320182Y-8966060D01*
X4320182Y-8966060D02*
X4339229Y-8975583D01*
X4339229Y-8975583D02*
X4348753Y-8985107D01*
X4348753Y-8985107D02*
X4358277Y-9004155D01*
X4358277Y-9004155D02*
X4367801Y-9042250D01*
X4367801Y-9042250D02*
X4367801Y-9089869D01*
X4367801Y-9089869D02*
X4358277Y-9127964D01*
X4358277Y-9127964D02*
X4348753Y-9147012D01*
X4348753Y-9147012D02*
X4339229Y-9156536D01*
X4339229Y-9156536D02*
X4320182Y-9166060D01*
X4320182Y-9166060D02*
X4301134Y-9166060D01*
X4301134Y-9166060D02*
X4282087Y-9156536D01*
X4282087Y-9156536D02*
X4272563Y-9147012D01*
X4272563Y-9147012D02*
X4263039Y-9127964D01*
X4263039Y-9127964D02*
X4253515Y-9089869D01*
X4253515Y-9089869D02*
X4253515Y-9042250D01*
X4253515Y-9042250D02*
X4263039Y-9004155D01*
X4263039Y-9004155D02*
X4272563Y-8985107D01*
X4272563Y-8985107D02*
X4282087Y-8975583D01*
X4282087Y-8975583D02*
X4301134Y-8966060D01*
X4453515Y-9147012D02*
X4463039Y-9156536D01*
X4463039Y-9156536D02*
X4453515Y-9166060D01*
X4453515Y-9166060D02*
X4443991Y-9156536D01*
X4443991Y-9156536D02*
X4453515Y-9147012D01*
X4453515Y-9147012D02*
X4453515Y-9166060D01*
X4586848Y-8966060D02*
X4605896Y-8966060D01*
X4605896Y-8966060D02*
X4624944Y-8975583D01*
X4624944Y-8975583D02*
X4634468Y-8985107D01*
X4634468Y-8985107D02*
X4643991Y-9004155D01*
X4643991Y-9004155D02*
X4653515Y-9042250D01*
X4653515Y-9042250D02*
X4653515Y-9089869D01*
X4653515Y-9089869D02*
X4643991Y-9127964D01*
X4643991Y-9127964D02*
X4634468Y-9147012D01*
X4634468Y-9147012D02*
X4624944Y-9156536D01*
X4624944Y-9156536D02*
X4605896Y-9166060D01*
X4605896Y-9166060D02*
X4586848Y-9166060D01*
X4586848Y-9166060D02*
X4567801Y-9156536D01*
X4567801Y-9156536D02*
X4558277Y-9147012D01*
X4558277Y-9147012D02*
X4548753Y-9127964D01*
X4548753Y-9127964D02*
X4539229Y-9089869D01*
X4539229Y-9089869D02*
X4539229Y-9042250D01*
X4539229Y-9042250D02*
X4548753Y-9004155D01*
X4548753Y-9004155D02*
X4558277Y-8985107D01*
X4558277Y-8985107D02*
X4567801Y-8975583D01*
X4567801Y-8975583D02*
X4586848Y-8966060D01*
X4843991Y-9166060D02*
X4729706Y-9166060D01*
X4786848Y-9166060D02*
X4786848Y-8966060D01*
X4786848Y-8966060D02*
X4767801Y-8994631D01*
X4767801Y-8994631D02*
X4748753Y-9013679D01*
X4748753Y-9013679D02*
X4729706Y-9023202D01*
X5034468Y-9166060D02*
X4920182Y-9166060D01*
X4977325Y-9166060D02*
X4977325Y-8966060D01*
X4977325Y-8966060D02*
X4958277Y-8994631D01*
X4958277Y-8994631D02*
X4939229Y-9013679D01*
X4939229Y-9013679D02*
X4920182Y-9023202D01*
X5148753Y-9051774D02*
X5129706Y-9042250D01*
X5129706Y-9042250D02*
X5120182Y-9032726D01*
X5120182Y-9032726D02*
X5110658Y-9013679D01*
X5110658Y-9013679D02*
X5110658Y-9004155D01*
X5110658Y-9004155D02*
X5120182Y-8985107D01*
X5120182Y-8985107D02*
X5129706Y-8975583D01*
X5129706Y-8975583D02*
X5148753Y-8966060D01*
X5148753Y-8966060D02*
X5186849Y-8966060D01*
X5186849Y-8966060D02*
X5205896Y-8975583D01*
X5205896Y-8975583D02*
X5215420Y-8985107D01*
X5215420Y-8985107D02*
X5224944Y-9004155D01*
X5224944Y-9004155D02*
X5224944Y-9013679D01*
X5224944Y-9013679D02*
X5215420Y-9032726D01*
X5215420Y-9032726D02*
X5205896Y-9042250D01*
X5205896Y-9042250D02*
X5186849Y-9051774D01*
X5186849Y-9051774D02*
X5148753Y-9051774D01*
X5148753Y-9051774D02*
X5129706Y-9061298D01*
X5129706Y-9061298D02*
X5120182Y-9070822D01*
X5120182Y-9070822D02*
X5110658Y-9089869D01*
X5110658Y-9089869D02*
X5110658Y-9127964D01*
X5110658Y-9127964D02*
X5120182Y-9147012D01*
X5120182Y-9147012D02*
X5129706Y-9156536D01*
X5129706Y-9156536D02*
X5148753Y-9166060D01*
X5148753Y-9166060D02*
X5186849Y-9166060D01*
X5186849Y-9166060D02*
X5205896Y-9156536D01*
X5205896Y-9156536D02*
X5215420Y-9147012D01*
X5215420Y-9147012D02*
X5224944Y-9127964D01*
X5224944Y-9127964D02*
X5224944Y-9089869D01*
X5224944Y-9089869D02*
X5215420Y-9070822D01*
X5215420Y-9070822D02*
X5205896Y-9061298D01*
X5205896Y-9061298D02*
X5186849Y-9051774D01*
X5301134Y-8966060D02*
X5301134Y-9004155D01*
X5377325Y-8966060D02*
X5377325Y-9004155D01*
X5672563Y-9242250D02*
X5663039Y-9232726D01*
X5663039Y-9232726D02*
X5643991Y-9204155D01*
X5643991Y-9204155D02*
X5634468Y-9185107D01*
X5634468Y-9185107D02*
X5624944Y-9156536D01*
X5624944Y-9156536D02*
X5615420Y-9108917D01*
X5615420Y-9108917D02*
X5615420Y-9070822D01*
X5615420Y-9070822D02*
X5624944Y-9023202D01*
X5624944Y-9023202D02*
X5634468Y-8994631D01*
X5634468Y-8994631D02*
X5643991Y-8975583D01*
X5643991Y-8975583D02*
X5663039Y-8947012D01*
X5663039Y-8947012D02*
X5672563Y-8937488D01*
X5834468Y-8966060D02*
X5796372Y-8966060D01*
X5796372Y-8966060D02*
X5777325Y-8975583D01*
X5777325Y-8975583D02*
X5767801Y-8985107D01*
X5767801Y-8985107D02*
X5748753Y-9013679D01*
X5748753Y-9013679D02*
X5739229Y-9051774D01*
X5739229Y-9051774D02*
X5739229Y-9127964D01*
X5739229Y-9127964D02*
X5748753Y-9147012D01*
X5748753Y-9147012D02*
X5758277Y-9156536D01*
X5758277Y-9156536D02*
X5777325Y-9166060D01*
X5777325Y-9166060D02*
X5815420Y-9166060D01*
X5815420Y-9166060D02*
X5834468Y-9156536D01*
X5834468Y-9156536D02*
X5843991Y-9147012D01*
X5843991Y-9147012D02*
X5853515Y-9127964D01*
X5853515Y-9127964D02*
X5853515Y-9080345D01*
X5853515Y-9080345D02*
X5843991Y-9061298D01*
X5843991Y-9061298D02*
X5834468Y-9051774D01*
X5834468Y-9051774D02*
X5815420Y-9042250D01*
X5815420Y-9042250D02*
X5777325Y-9042250D01*
X5777325Y-9042250D02*
X5758277Y-9051774D01*
X5758277Y-9051774D02*
X5748753Y-9061298D01*
X5748753Y-9061298D02*
X5739229Y-9080345D01*
X6091610Y-9166060D02*
X6091610Y-8966060D01*
X6177325Y-9166060D02*
X6177325Y-9061298D01*
X6177325Y-9061298D02*
X6167801Y-9042250D01*
X6167801Y-9042250D02*
X6148753Y-9032726D01*
X6148753Y-9032726D02*
X6120182Y-9032726D01*
X6120182Y-9032726D02*
X6101134Y-9042250D01*
X6101134Y-9042250D02*
X6091610Y-9051774D01*
X6301134Y-9166060D02*
X6282087Y-9156536D01*
X6282087Y-9156536D02*
X6272563Y-9147012D01*
X6272563Y-9147012D02*
X6263039Y-9127964D01*
X6263039Y-9127964D02*
X6263039Y-9070822D01*
X6263039Y-9070822D02*
X6272563Y-9051774D01*
X6272563Y-9051774D02*
X6282087Y-9042250D01*
X6282087Y-9042250D02*
X6301134Y-9032726D01*
X6301134Y-9032726D02*
X6329706Y-9032726D01*
X6329706Y-9032726D02*
X6348753Y-9042250D01*
X6348753Y-9042250D02*
X6358277Y-9051774D01*
X6358277Y-9051774D02*
X6367801Y-9070822D01*
X6367801Y-9070822D02*
X6367801Y-9127964D01*
X6367801Y-9127964D02*
X6358277Y-9147012D01*
X6358277Y-9147012D02*
X6348753Y-9156536D01*
X6348753Y-9156536D02*
X6329706Y-9166060D01*
X6329706Y-9166060D02*
X6301134Y-9166060D01*
X6482087Y-9166060D02*
X6463039Y-9156536D01*
X6463039Y-9156536D02*
X6453515Y-9137488D01*
X6453515Y-9137488D02*
X6453515Y-8966060D01*
X6634468Y-9156536D02*
X6615420Y-9166060D01*
X6615420Y-9166060D02*
X6577325Y-9166060D01*
X6577325Y-9166060D02*
X6558277Y-9156536D01*
X6558277Y-9156536D02*
X6548753Y-9137488D01*
X6548753Y-9137488D02*
X6548753Y-9061298D01*
X6548753Y-9061298D02*
X6558277Y-9042250D01*
X6558277Y-9042250D02*
X6577325Y-9032726D01*
X6577325Y-9032726D02*
X6615420Y-9032726D01*
X6615420Y-9032726D02*
X6634468Y-9042250D01*
X6634468Y-9042250D02*
X6643991Y-9061298D01*
X6643991Y-9061298D02*
X6643991Y-9080345D01*
X6643991Y-9080345D02*
X6548753Y-9099393D01*
X6720182Y-9156536D02*
X6739230Y-9166060D01*
X6739230Y-9166060D02*
X6777325Y-9166060D01*
X6777325Y-9166060D02*
X6796372Y-9156536D01*
X6796372Y-9156536D02*
X6805896Y-9137488D01*
X6805896Y-9137488D02*
X6805896Y-9127964D01*
X6805896Y-9127964D02*
X6796372Y-9108917D01*
X6796372Y-9108917D02*
X6777325Y-9099393D01*
X6777325Y-9099393D02*
X6748753Y-9099393D01*
X6748753Y-9099393D02*
X6729706Y-9089869D01*
X6729706Y-9089869D02*
X6720182Y-9070822D01*
X6720182Y-9070822D02*
X6720182Y-9061298D01*
X6720182Y-9061298D02*
X6729706Y-9042250D01*
X6729706Y-9042250D02*
X6748753Y-9032726D01*
X6748753Y-9032726D02*
X6777325Y-9032726D01*
X6777325Y-9032726D02*
X6796372Y-9042250D01*
X6872563Y-9242250D02*
X6882087Y-9232726D01*
X6882087Y-9232726D02*
X6901134Y-9204155D01*
X6901134Y-9204155D02*
X6910658Y-9185107D01*
X6910658Y-9185107D02*
X6920182Y-9156536D01*
X6920182Y-9156536D02*
X6929706Y-9108917D01*
X6929706Y-9108917D02*
X6929706Y-9070822D01*
X6929706Y-9070822D02*
X6920182Y-9023202D01*
X6920182Y-9023202D02*
X6910658Y-8994631D01*
X6910658Y-8994631D02*
X6901134Y-8975583D01*
X6901134Y-8975583D02*
X6882087Y-8947012D01*
X6882087Y-8947012D02*
X6872563Y-8937488D01*
D12*
X2067500Y-9368576D02*
X2097500Y-9338576D01*
X2067500Y-9308576D01*
X2037500Y-9338576D01*
X2067500Y-9368576D01*
D11*
X2396372Y-9230060D02*
X2415420Y-9230060D01*
X2415420Y-9230060D02*
X2434467Y-9239583D01*
X2434467Y-9239583D02*
X2443991Y-9249107D01*
X2443991Y-9249107D02*
X2453515Y-9268155D01*
X2453515Y-9268155D02*
X2463039Y-9306250D01*
X2463039Y-9306250D02*
X2463039Y-9353869D01*
X2463039Y-9353869D02*
X2453515Y-9391964D01*
X2453515Y-9391964D02*
X2443991Y-9411012D01*
X2443991Y-9411012D02*
X2434467Y-9420536D01*
X2434467Y-9420536D02*
X2415420Y-9430060D01*
X2415420Y-9430060D02*
X2396372Y-9430060D01*
X2396372Y-9430060D02*
X2377324Y-9420536D01*
X2377324Y-9420536D02*
X2367801Y-9411012D01*
X2367801Y-9411012D02*
X2358277Y-9391964D01*
X2358277Y-9391964D02*
X2348753Y-9353869D01*
X2348753Y-9353869D02*
X2348753Y-9306250D01*
X2348753Y-9306250D02*
X2358277Y-9268155D01*
X2358277Y-9268155D02*
X2367801Y-9249107D01*
X2367801Y-9249107D02*
X2377324Y-9239583D01*
X2377324Y-9239583D02*
X2396372Y-9230060D01*
X2548753Y-9411012D02*
X2558277Y-9420536D01*
X2558277Y-9420536D02*
X2548753Y-9430060D01*
X2548753Y-9430060D02*
X2539229Y-9420536D01*
X2539229Y-9420536D02*
X2548753Y-9411012D01*
X2548753Y-9411012D02*
X2548753Y-9430060D01*
X2729705Y-9230060D02*
X2691610Y-9230060D01*
X2691610Y-9230060D02*
X2672563Y-9239583D01*
X2672563Y-9239583D02*
X2663039Y-9249107D01*
X2663039Y-9249107D02*
X2643991Y-9277679D01*
X2643991Y-9277679D02*
X2634467Y-9315774D01*
X2634467Y-9315774D02*
X2634467Y-9391964D01*
X2634467Y-9391964D02*
X2643991Y-9411012D01*
X2643991Y-9411012D02*
X2653515Y-9420536D01*
X2653515Y-9420536D02*
X2672563Y-9430060D01*
X2672563Y-9430060D02*
X2710658Y-9430060D01*
X2710658Y-9430060D02*
X2729705Y-9420536D01*
X2729705Y-9420536D02*
X2739229Y-9411012D01*
X2739229Y-9411012D02*
X2748753Y-9391964D01*
X2748753Y-9391964D02*
X2748753Y-9344345D01*
X2748753Y-9344345D02*
X2739229Y-9325298D01*
X2739229Y-9325298D02*
X2729705Y-9315774D01*
X2729705Y-9315774D02*
X2710658Y-9306250D01*
X2710658Y-9306250D02*
X2672563Y-9306250D01*
X2672563Y-9306250D02*
X2653515Y-9315774D01*
X2653515Y-9315774D02*
X2643991Y-9325298D01*
X2643991Y-9325298D02*
X2634467Y-9344345D01*
X2872562Y-9230060D02*
X2891610Y-9230060D01*
X2891610Y-9230060D02*
X2910658Y-9239583D01*
X2910658Y-9239583D02*
X2920182Y-9249107D01*
X2920182Y-9249107D02*
X2929705Y-9268155D01*
X2929705Y-9268155D02*
X2939229Y-9306250D01*
X2939229Y-9306250D02*
X2939229Y-9353869D01*
X2939229Y-9353869D02*
X2929705Y-9391964D01*
X2929705Y-9391964D02*
X2920182Y-9411012D01*
X2920182Y-9411012D02*
X2910658Y-9420536D01*
X2910658Y-9420536D02*
X2891610Y-9430060D01*
X2891610Y-9430060D02*
X2872562Y-9430060D01*
X2872562Y-9430060D02*
X2853515Y-9420536D01*
X2853515Y-9420536D02*
X2843991Y-9411012D01*
X2843991Y-9411012D02*
X2834467Y-9391964D01*
X2834467Y-9391964D02*
X2824943Y-9353869D01*
X2824943Y-9353869D02*
X2824943Y-9306250D01*
X2824943Y-9306250D02*
X2834467Y-9268155D01*
X2834467Y-9268155D02*
X2843991Y-9249107D01*
X2843991Y-9249107D02*
X2853515Y-9239583D01*
X2853515Y-9239583D02*
X2872562Y-9230060D01*
X3063039Y-9230060D02*
X3082086Y-9230060D01*
X3082086Y-9230060D02*
X3101134Y-9239583D01*
X3101134Y-9239583D02*
X3110658Y-9249107D01*
X3110658Y-9249107D02*
X3120182Y-9268155D01*
X3120182Y-9268155D02*
X3129705Y-9306250D01*
X3129705Y-9306250D02*
X3129705Y-9353869D01*
X3129705Y-9353869D02*
X3120182Y-9391964D01*
X3120182Y-9391964D02*
X3110658Y-9411012D01*
X3110658Y-9411012D02*
X3101134Y-9420536D01*
X3101134Y-9420536D02*
X3082086Y-9430060D01*
X3082086Y-9430060D02*
X3063039Y-9430060D01*
X3063039Y-9430060D02*
X3043991Y-9420536D01*
X3043991Y-9420536D02*
X3034467Y-9411012D01*
X3034467Y-9411012D02*
X3024943Y-9391964D01*
X3024943Y-9391964D02*
X3015420Y-9353869D01*
X3015420Y-9353869D02*
X3015420Y-9306250D01*
X3015420Y-9306250D02*
X3024943Y-9268155D01*
X3024943Y-9268155D02*
X3034467Y-9249107D01*
X3034467Y-9249107D02*
X3043991Y-9239583D01*
X3043991Y-9239583D02*
X3063039Y-9230060D01*
X3215420Y-9430060D02*
X3215420Y-9296726D01*
X3215420Y-9315774D02*
X3224943Y-9306250D01*
X3224943Y-9306250D02*
X3243991Y-9296726D01*
X3243991Y-9296726D02*
X3272563Y-9296726D01*
X3272563Y-9296726D02*
X3291610Y-9306250D01*
X3291610Y-9306250D02*
X3301134Y-9325298D01*
X3301134Y-9325298D02*
X3301134Y-9430060D01*
X3301134Y-9325298D02*
X3310658Y-9306250D01*
X3310658Y-9306250D02*
X3329705Y-9296726D01*
X3329705Y-9296726D02*
X3358277Y-9296726D01*
X3358277Y-9296726D02*
X3377324Y-9306250D01*
X3377324Y-9306250D02*
X3386848Y-9325298D01*
X3386848Y-9325298D02*
X3386848Y-9430060D01*
X3482086Y-9430060D02*
X3482086Y-9296726D01*
X3482086Y-9315774D02*
X3491610Y-9306250D01*
X3491610Y-9306250D02*
X3510658Y-9296726D01*
X3510658Y-9296726D02*
X3539229Y-9296726D01*
X3539229Y-9296726D02*
X3558277Y-9306250D01*
X3558277Y-9306250D02*
X3567801Y-9325298D01*
X3567801Y-9325298D02*
X3567801Y-9430060D01*
X3567801Y-9325298D02*
X3577324Y-9306250D01*
X3577324Y-9306250D02*
X3596372Y-9296726D01*
X3596372Y-9296726D02*
X3624943Y-9296726D01*
X3624943Y-9296726D02*
X3643991Y-9306250D01*
X3643991Y-9306250D02*
X3653515Y-9325298D01*
X3653515Y-9325298D02*
X3653515Y-9430060D01*
X4043991Y-9220536D02*
X3872563Y-9477679D01*
X4301134Y-9230060D02*
X4320182Y-9230060D01*
X4320182Y-9230060D02*
X4339229Y-9239583D01*
X4339229Y-9239583D02*
X4348753Y-9249107D01*
X4348753Y-9249107D02*
X4358277Y-9268155D01*
X4358277Y-9268155D02*
X4367801Y-9306250D01*
X4367801Y-9306250D02*
X4367801Y-9353869D01*
X4367801Y-9353869D02*
X4358277Y-9391964D01*
X4358277Y-9391964D02*
X4348753Y-9411012D01*
X4348753Y-9411012D02*
X4339229Y-9420536D01*
X4339229Y-9420536D02*
X4320182Y-9430060D01*
X4320182Y-9430060D02*
X4301134Y-9430060D01*
X4301134Y-9430060D02*
X4282087Y-9420536D01*
X4282087Y-9420536D02*
X4272563Y-9411012D01*
X4272563Y-9411012D02*
X4263039Y-9391964D01*
X4263039Y-9391964D02*
X4253515Y-9353869D01*
X4253515Y-9353869D02*
X4253515Y-9306250D01*
X4253515Y-9306250D02*
X4263039Y-9268155D01*
X4263039Y-9268155D02*
X4272563Y-9249107D01*
X4272563Y-9249107D02*
X4282087Y-9239583D01*
X4282087Y-9239583D02*
X4301134Y-9230060D01*
X4453515Y-9411012D02*
X4463039Y-9420536D01*
X4463039Y-9420536D02*
X4453515Y-9430060D01*
X4453515Y-9430060D02*
X4443991Y-9420536D01*
X4443991Y-9420536D02*
X4453515Y-9411012D01*
X4453515Y-9411012D02*
X4453515Y-9430060D01*
X4586848Y-9230060D02*
X4605896Y-9230060D01*
X4605896Y-9230060D02*
X4624944Y-9239583D01*
X4624944Y-9239583D02*
X4634468Y-9249107D01*
X4634468Y-9249107D02*
X4643991Y-9268155D01*
X4643991Y-9268155D02*
X4653515Y-9306250D01*
X4653515Y-9306250D02*
X4653515Y-9353869D01*
X4653515Y-9353869D02*
X4643991Y-9391964D01*
X4643991Y-9391964D02*
X4634468Y-9411012D01*
X4634468Y-9411012D02*
X4624944Y-9420536D01*
X4624944Y-9420536D02*
X4605896Y-9430060D01*
X4605896Y-9430060D02*
X4586848Y-9430060D01*
X4586848Y-9430060D02*
X4567801Y-9420536D01*
X4567801Y-9420536D02*
X4558277Y-9411012D01*
X4558277Y-9411012D02*
X4548753Y-9391964D01*
X4548753Y-9391964D02*
X4539229Y-9353869D01*
X4539229Y-9353869D02*
X4539229Y-9306250D01*
X4539229Y-9306250D02*
X4548753Y-9268155D01*
X4548753Y-9268155D02*
X4558277Y-9249107D01*
X4558277Y-9249107D02*
X4567801Y-9239583D01*
X4567801Y-9239583D02*
X4586848Y-9230060D01*
X4729706Y-9249107D02*
X4739229Y-9239583D01*
X4739229Y-9239583D02*
X4758277Y-9230060D01*
X4758277Y-9230060D02*
X4805896Y-9230060D01*
X4805896Y-9230060D02*
X4824944Y-9239583D01*
X4824944Y-9239583D02*
X4834468Y-9249107D01*
X4834468Y-9249107D02*
X4843991Y-9268155D01*
X4843991Y-9268155D02*
X4843991Y-9287202D01*
X4843991Y-9287202D02*
X4834468Y-9315774D01*
X4834468Y-9315774D02*
X4720182Y-9430060D01*
X4720182Y-9430060D02*
X4843991Y-9430060D01*
X4910658Y-9230060D02*
X5034468Y-9230060D01*
X5034468Y-9230060D02*
X4967801Y-9306250D01*
X4967801Y-9306250D02*
X4996372Y-9306250D01*
X4996372Y-9306250D02*
X5015420Y-9315774D01*
X5015420Y-9315774D02*
X5024944Y-9325298D01*
X5024944Y-9325298D02*
X5034468Y-9344345D01*
X5034468Y-9344345D02*
X5034468Y-9391964D01*
X5034468Y-9391964D02*
X5024944Y-9411012D01*
X5024944Y-9411012D02*
X5015420Y-9420536D01*
X5015420Y-9420536D02*
X4996372Y-9430060D01*
X4996372Y-9430060D02*
X4939229Y-9430060D01*
X4939229Y-9430060D02*
X4920182Y-9420536D01*
X4920182Y-9420536D02*
X4910658Y-9411012D01*
X5205896Y-9230060D02*
X5167801Y-9230060D01*
X5167801Y-9230060D02*
X5148753Y-9239583D01*
X5148753Y-9239583D02*
X5139229Y-9249107D01*
X5139229Y-9249107D02*
X5120182Y-9277679D01*
X5120182Y-9277679D02*
X5110658Y-9315774D01*
X5110658Y-9315774D02*
X5110658Y-9391964D01*
X5110658Y-9391964D02*
X5120182Y-9411012D01*
X5120182Y-9411012D02*
X5129706Y-9420536D01*
X5129706Y-9420536D02*
X5148753Y-9430060D01*
X5148753Y-9430060D02*
X5186849Y-9430060D01*
X5186849Y-9430060D02*
X5205896Y-9420536D01*
X5205896Y-9420536D02*
X5215420Y-9411012D01*
X5215420Y-9411012D02*
X5224944Y-9391964D01*
X5224944Y-9391964D02*
X5224944Y-9344345D01*
X5224944Y-9344345D02*
X5215420Y-9325298D01*
X5215420Y-9325298D02*
X5205896Y-9315774D01*
X5205896Y-9315774D02*
X5186849Y-9306250D01*
X5186849Y-9306250D02*
X5148753Y-9306250D01*
X5148753Y-9306250D02*
X5129706Y-9315774D01*
X5129706Y-9315774D02*
X5120182Y-9325298D01*
X5120182Y-9325298D02*
X5110658Y-9344345D01*
X5301134Y-9230060D02*
X5301134Y-9268155D01*
X5377325Y-9230060D02*
X5377325Y-9268155D01*
X5672563Y-9506250D02*
X5663039Y-9496726D01*
X5663039Y-9496726D02*
X5643991Y-9468155D01*
X5643991Y-9468155D02*
X5634468Y-9449107D01*
X5634468Y-9449107D02*
X5624944Y-9420536D01*
X5624944Y-9420536D02*
X5615420Y-9372917D01*
X5615420Y-9372917D02*
X5615420Y-9334822D01*
X5615420Y-9334822D02*
X5624944Y-9287202D01*
X5624944Y-9287202D02*
X5634468Y-9258631D01*
X5634468Y-9258631D02*
X5643991Y-9239583D01*
X5643991Y-9239583D02*
X5663039Y-9211012D01*
X5663039Y-9211012D02*
X5672563Y-9201488D01*
X5786848Y-9230060D02*
X5805896Y-9230060D01*
X5805896Y-9230060D02*
X5824944Y-9239583D01*
X5824944Y-9239583D02*
X5834468Y-9249107D01*
X5834468Y-9249107D02*
X5843991Y-9268155D01*
X5843991Y-9268155D02*
X5853515Y-9306250D01*
X5853515Y-9306250D02*
X5853515Y-9353869D01*
X5853515Y-9353869D02*
X5843991Y-9391964D01*
X5843991Y-9391964D02*
X5834468Y-9411012D01*
X5834468Y-9411012D02*
X5824944Y-9420536D01*
X5824944Y-9420536D02*
X5805896Y-9430060D01*
X5805896Y-9430060D02*
X5786848Y-9430060D01*
X5786848Y-9430060D02*
X5767801Y-9420536D01*
X5767801Y-9420536D02*
X5758277Y-9411012D01*
X5758277Y-9411012D02*
X5748753Y-9391964D01*
X5748753Y-9391964D02*
X5739229Y-9353869D01*
X5739229Y-9353869D02*
X5739229Y-9306250D01*
X5739229Y-9306250D02*
X5748753Y-9268155D01*
X5748753Y-9268155D02*
X5758277Y-9249107D01*
X5758277Y-9249107D02*
X5767801Y-9239583D01*
X5767801Y-9239583D02*
X5786848Y-9230060D01*
X6091610Y-9430060D02*
X6091610Y-9230060D01*
X6177325Y-9430060D02*
X6177325Y-9325298D01*
X6177325Y-9325298D02*
X6167801Y-9306250D01*
X6167801Y-9306250D02*
X6148753Y-9296726D01*
X6148753Y-9296726D02*
X6120182Y-9296726D01*
X6120182Y-9296726D02*
X6101134Y-9306250D01*
X6101134Y-9306250D02*
X6091610Y-9315774D01*
X6301134Y-9430060D02*
X6282087Y-9420536D01*
X6282087Y-9420536D02*
X6272563Y-9411012D01*
X6272563Y-9411012D02*
X6263039Y-9391964D01*
X6263039Y-9391964D02*
X6263039Y-9334822D01*
X6263039Y-9334822D02*
X6272563Y-9315774D01*
X6272563Y-9315774D02*
X6282087Y-9306250D01*
X6282087Y-9306250D02*
X6301134Y-9296726D01*
X6301134Y-9296726D02*
X6329706Y-9296726D01*
X6329706Y-9296726D02*
X6348753Y-9306250D01*
X6348753Y-9306250D02*
X6358277Y-9315774D01*
X6358277Y-9315774D02*
X6367801Y-9334822D01*
X6367801Y-9334822D02*
X6367801Y-9391964D01*
X6367801Y-9391964D02*
X6358277Y-9411012D01*
X6358277Y-9411012D02*
X6348753Y-9420536D01*
X6348753Y-9420536D02*
X6329706Y-9430060D01*
X6329706Y-9430060D02*
X6301134Y-9430060D01*
X6482087Y-9430060D02*
X6463039Y-9420536D01*
X6463039Y-9420536D02*
X6453515Y-9401488D01*
X6453515Y-9401488D02*
X6453515Y-9230060D01*
X6634468Y-9420536D02*
X6615420Y-9430060D01*
X6615420Y-9430060D02*
X6577325Y-9430060D01*
X6577325Y-9430060D02*
X6558277Y-9420536D01*
X6558277Y-9420536D02*
X6548753Y-9401488D01*
X6548753Y-9401488D02*
X6548753Y-9325298D01*
X6548753Y-9325298D02*
X6558277Y-9306250D01*
X6558277Y-9306250D02*
X6577325Y-9296726D01*
X6577325Y-9296726D02*
X6615420Y-9296726D01*
X6615420Y-9296726D02*
X6634468Y-9306250D01*
X6634468Y-9306250D02*
X6643991Y-9325298D01*
X6643991Y-9325298D02*
X6643991Y-9344345D01*
X6643991Y-9344345D02*
X6548753Y-9363393D01*
X6720182Y-9420536D02*
X6739230Y-9430060D01*
X6739230Y-9430060D02*
X6777325Y-9430060D01*
X6777325Y-9430060D02*
X6796372Y-9420536D01*
X6796372Y-9420536D02*
X6805896Y-9401488D01*
X6805896Y-9401488D02*
X6805896Y-9391964D01*
X6805896Y-9391964D02*
X6796372Y-9372917D01*
X6796372Y-9372917D02*
X6777325Y-9363393D01*
X6777325Y-9363393D02*
X6748753Y-9363393D01*
X6748753Y-9363393D02*
X6729706Y-9353869D01*
X6729706Y-9353869D02*
X6720182Y-9334822D01*
X6720182Y-9334822D02*
X6720182Y-9325298D01*
X6720182Y-9325298D02*
X6729706Y-9306250D01*
X6729706Y-9306250D02*
X6748753Y-9296726D01*
X6748753Y-9296726D02*
X6777325Y-9296726D01*
X6777325Y-9296726D02*
X6796372Y-9306250D01*
X7043992Y-9353869D02*
X7196373Y-9353869D01*
X7120182Y-9430060D02*
X7120182Y-9277679D01*
X7529706Y-9296726D02*
X7529706Y-9430060D01*
X7482087Y-9220536D02*
X7434468Y-9363393D01*
X7434468Y-9363393D02*
X7558277Y-9363393D01*
X7777325Y-9420536D02*
X7796373Y-9430060D01*
X7796373Y-9430060D02*
X7834468Y-9430060D01*
X7834468Y-9430060D02*
X7853515Y-9420536D01*
X7853515Y-9420536D02*
X7863039Y-9401488D01*
X7863039Y-9401488D02*
X7863039Y-9391964D01*
X7863039Y-9391964D02*
X7853515Y-9372917D01*
X7853515Y-9372917D02*
X7834468Y-9363393D01*
X7834468Y-9363393D02*
X7805896Y-9363393D01*
X7805896Y-9363393D02*
X7786849Y-9353869D01*
X7786849Y-9353869D02*
X7777325Y-9334822D01*
X7777325Y-9334822D02*
X7777325Y-9325298D01*
X7777325Y-9325298D02*
X7786849Y-9306250D01*
X7786849Y-9306250D02*
X7805896Y-9296726D01*
X7805896Y-9296726D02*
X7834468Y-9296726D01*
X7834468Y-9296726D02*
X7853515Y-9306250D01*
X7977325Y-9430060D02*
X7958277Y-9420536D01*
X7958277Y-9420536D02*
X7948754Y-9401488D01*
X7948754Y-9401488D02*
X7948754Y-9230060D01*
X8082087Y-9430060D02*
X8063039Y-9420536D01*
X8063039Y-9420536D02*
X8053515Y-9411012D01*
X8053515Y-9411012D02*
X8043992Y-9391964D01*
X8043992Y-9391964D02*
X8043992Y-9334822D01*
X8043992Y-9334822D02*
X8053515Y-9315774D01*
X8053515Y-9315774D02*
X8063039Y-9306250D01*
X8063039Y-9306250D02*
X8082087Y-9296726D01*
X8082087Y-9296726D02*
X8110658Y-9296726D01*
X8110658Y-9296726D02*
X8129706Y-9306250D01*
X8129706Y-9306250D02*
X8139230Y-9315774D01*
X8139230Y-9315774D02*
X8148754Y-9334822D01*
X8148754Y-9334822D02*
X8148754Y-9391964D01*
X8148754Y-9391964D02*
X8139230Y-9411012D01*
X8139230Y-9411012D02*
X8129706Y-9420536D01*
X8129706Y-9420536D02*
X8110658Y-9430060D01*
X8110658Y-9430060D02*
X8082087Y-9430060D01*
X8205896Y-9296726D02*
X8282087Y-9296726D01*
X8234468Y-9230060D02*
X8234468Y-9401488D01*
X8234468Y-9401488D02*
X8243992Y-9420536D01*
X8243992Y-9420536D02*
X8263039Y-9430060D01*
X8263039Y-9430060D02*
X8282087Y-9430060D01*
X8339230Y-9420536D02*
X8358277Y-9430060D01*
X8358277Y-9430060D02*
X8396373Y-9430060D01*
X8396373Y-9430060D02*
X8415420Y-9420536D01*
X8415420Y-9420536D02*
X8424944Y-9401488D01*
X8424944Y-9401488D02*
X8424944Y-9391964D01*
X8424944Y-9391964D02*
X8415420Y-9372917D01*
X8415420Y-9372917D02*
X8396373Y-9363393D01*
X8396373Y-9363393D02*
X8367801Y-9363393D01*
X8367801Y-9363393D02*
X8348754Y-9353869D01*
X8348754Y-9353869D02*
X8339230Y-9334822D01*
X8339230Y-9334822D02*
X8339230Y-9325298D01*
X8339230Y-9325298D02*
X8348754Y-9306250D01*
X8348754Y-9306250D02*
X8367801Y-9296726D01*
X8367801Y-9296726D02*
X8396373Y-9296726D01*
X8396373Y-9296726D02*
X8415420Y-9306250D01*
X8491611Y-9506250D02*
X8501135Y-9496726D01*
X8501135Y-9496726D02*
X8520182Y-9468155D01*
X8520182Y-9468155D02*
X8529706Y-9449107D01*
X8529706Y-9449107D02*
X8539230Y-9420536D01*
X8539230Y-9420536D02*
X8548754Y-9372917D01*
X8548754Y-9372917D02*
X8548754Y-9334822D01*
X8548754Y-9334822D02*
X8539230Y-9287202D01*
X8539230Y-9287202D02*
X8529706Y-9258631D01*
X8529706Y-9258631D02*
X8520182Y-9239583D01*
X8520182Y-9239583D02*
X8501135Y-9211012D01*
X8501135Y-9211012D02*
X8491611Y-9201488D01*
M02*
