%TF.GenerationSoftware,KiCad,Pcbnew,10.0.6*%
%TF.CreationDate,2026-10-06T16:17:56+02:00*%
%TF.ProjectId,MAO_MAIN_A1,4d414f5f-4d41-4494-9e5f-41312e6b6963,A1*%
%TF.SameCoordinates,Original*%
%TF.FileFunction,Drillmap*%
%TF.FilePolarity,Positive*%
%FSLAX45Y45*%
G04 Gerber Fmt 4.5, Leading zero omitted, Abs format (unit mm)*
G04 Created by KiCad (PCBNEW 10.0.6) date 2026-10-06 16:17:56*
%MOMM*%
%LPD*%
G01*
G04 APERTURE LIST*
%ADD10C,0.050000*%
%ADD11C,0.200000*%
%ADD12C,0.100000*%
G04 APERTURE END LIST*
D10*
X3070000Y-4475000D02*
X3070000Y-5525000D01*
X3070000Y-4475000D02*
G75*
G02*
X3170000Y-4475000I50000J0D01*
G01*
X3170000Y-4475000D02*
X3170000Y-5525000D01*
X3170000Y-5525000D02*
G75*
G02*
X3070000Y-5525000I-50000J0D01*
G01*
X3930000Y-7410000D02*
G75*
G02*
X4030000Y-7310000I100000J0D01*
G01*
X3930000Y-7695385D02*
X3930000Y-7410000D01*
X3930000Y-7695385D02*
G75*
G02*
X6070000Y-7695385I1070000J2695385D01*
G01*
X5970000Y-7310000D02*
X4030000Y-7310000D01*
X5970000Y-7310000D02*
G75*
G02*
X6070000Y-7410000I0J-100000D01*
G01*
X6070000Y-7695385D02*
X6070000Y-7410000D01*
D11*
D12*
X3330000Y-4045000D02*
X3350000Y-4065000D01*
X3350000Y-4045000D02*
X3330000Y-4065000D01*
X3450000Y-6450000D02*
X3470000Y-6470000D01*
X3470000Y-6450000D02*
X3450000Y-6470000D01*
X3540000Y-4350000D02*
X3560000Y-4370000D01*
X3560000Y-4350000D02*
X3540000Y-4370000D01*
X3750000Y-5315000D02*
X3770000Y-5335000D01*
X3770000Y-5315000D02*
X3750000Y-5335000D01*
X3760000Y-4965000D02*
X3780000Y-4985000D01*
X3780000Y-4965000D02*
X3760000Y-4985000D01*
X3760000Y-6590000D02*
X3780000Y-6610000D01*
X3780000Y-6590000D02*
X3760000Y-6610000D01*
X3960000Y-5215000D02*
X3980000Y-5235000D01*
X3980000Y-5215000D02*
X3960000Y-5235000D01*
X4085000Y-5115000D02*
X4105000Y-5135000D01*
X4105000Y-5115000D02*
X4085000Y-5135000D01*
X4090000Y-6010000D02*
X4110000Y-6030000D01*
X4110000Y-6010000D02*
X4090000Y-6030000D01*
X4090000Y-6180000D02*
X4110000Y-6200000D01*
X4110000Y-6180000D02*
X4090000Y-6200000D01*
X4090000Y-6520000D02*
X4110000Y-6540000D01*
X4110000Y-6520000D02*
X4090000Y-6540000D01*
X4170000Y-6095000D02*
X4190000Y-6115000D01*
X4190000Y-6095000D02*
X4170000Y-6115000D01*
X4170000Y-6350000D02*
X4190000Y-6370000D01*
X4190000Y-6350000D02*
X4170000Y-6370000D01*
X4180000Y-6860000D02*
X4200000Y-6880000D01*
X4200000Y-6860000D02*
X4180000Y-6880000D01*
X4202000Y-3915000D02*
X4222000Y-3935000D01*
X4222000Y-3915000D02*
X4202000Y-3935000D01*
X4349000Y-2918000D02*
X4369000Y-2938000D01*
X4369000Y-2918000D02*
X4349000Y-2938000D01*
X4358000Y-3231000D02*
X4378000Y-3251000D01*
X4378000Y-3231000D02*
X4358000Y-3251000D01*
X4530000Y-4555000D02*
X4550000Y-4575000D01*
X4550000Y-4555000D02*
X4530000Y-4575000D01*
X4565000Y-5350000D02*
X4585000Y-5370000D01*
X4585000Y-5350000D02*
X4565000Y-5370000D01*
X4565000Y-5715000D02*
X4585000Y-5735000D01*
X4585000Y-5715000D02*
X4565000Y-5735000D01*
X4650000Y-5715000D02*
X4670000Y-5735000D01*
X4670000Y-5715000D02*
X4650000Y-5735000D01*
X4735000Y-5715000D02*
X4755000Y-5735000D01*
X4755000Y-5715000D02*
X4735000Y-5735000D01*
X4820000Y-5715000D02*
X4840000Y-5735000D01*
X4840000Y-5715000D02*
X4820000Y-5735000D01*
X4905000Y-5715000D02*
X4925000Y-5735000D01*
X4925000Y-5715000D02*
X4905000Y-5735000D01*
X4940000Y-3330000D02*
X4960000Y-3350000D01*
X4960000Y-3330000D02*
X4940000Y-3350000D01*
X4965000Y-2915000D02*
X4985000Y-2935000D01*
X4985000Y-2915000D02*
X4965000Y-2935000D01*
X4990000Y-5715000D02*
X5010000Y-5735000D01*
X5010000Y-5715000D02*
X4990000Y-5735000D01*
X5065000Y-2915000D02*
X5085000Y-2935000D01*
X5085000Y-2915000D02*
X5065000Y-2935000D01*
X5075000Y-5635000D02*
X5095000Y-5655000D01*
X5095000Y-5635000D02*
X5075000Y-5655000D01*
X5110000Y-3050000D02*
X5130000Y-3070000D01*
X5130000Y-3050000D02*
X5110000Y-3070000D01*
X5235000Y-5450000D02*
X5255000Y-5470000D01*
X5255000Y-5450000D02*
X5235000Y-5470000D01*
X5350000Y-5450000D02*
X5370000Y-5470000D01*
X5370000Y-5450000D02*
X5350000Y-5470000D01*
X5500000Y-5715000D02*
X5520000Y-5735000D01*
X5520000Y-5715000D02*
X5500000Y-5735000D01*
X5540000Y-4530000D02*
X5560000Y-4550000D01*
X5560000Y-4530000D02*
X5540000Y-4550000D01*
X5671000Y-4120000D02*
X5691000Y-4140000D01*
X5691000Y-4120000D02*
X5671000Y-4140000D01*
X5810000Y-4830000D02*
X5830000Y-4850000D01*
X5830000Y-4830000D02*
X5810000Y-4850000D01*
X5810000Y-5925000D02*
X5830000Y-5945000D01*
X5830000Y-5925000D02*
X5810000Y-5945000D01*
X5810000Y-6265000D02*
X5830000Y-6285000D01*
X5830000Y-6265000D02*
X5810000Y-6285000D01*
X5810000Y-6435000D02*
X5830000Y-6455000D01*
X5830000Y-6435000D02*
X5810000Y-6455000D01*
X5821000Y-3590000D02*
X5841000Y-3610000D01*
X5841000Y-3590000D02*
X5821000Y-3610000D01*
X5890000Y-6180000D02*
X5910000Y-6200000D01*
X5910000Y-6180000D02*
X5890000Y-6200000D01*
X5890000Y-6350000D02*
X5910000Y-6370000D01*
X5910000Y-6350000D02*
X5890000Y-6370000D01*
X5890000Y-6520000D02*
X5910000Y-6540000D01*
X5910000Y-6520000D02*
X5890000Y-6540000D01*
X5943000Y-3235000D02*
X5963000Y-3255000D01*
X5963000Y-3235000D02*
X5943000Y-3255000D01*
X6220000Y-6777000D02*
X6240000Y-6797000D01*
X6240000Y-6777000D02*
X6220000Y-6797000D01*
X6251000Y-3615000D02*
X6271000Y-3635000D01*
X6271000Y-3615000D02*
X6251000Y-3635000D01*
X6535000Y-3610000D02*
X6555000Y-3630000D01*
X6555000Y-3610000D02*
X6535000Y-3630000D01*
X6600000Y-3510000D02*
X6620000Y-3530000D01*
X6620000Y-3510000D02*
X6600000Y-3530000D01*
X7130000Y-6660000D02*
X7150000Y-6680000D01*
X7150000Y-6660000D02*
X7130000Y-6680000D01*
X7362000Y-6405000D02*
X7382000Y-6425000D01*
X7382000Y-6405000D02*
X7362000Y-6425000D01*
X3533500Y-4093500D02*
G75*
G02*
X3513500Y-4093500I-10000J0D01*
G01*
X3513500Y-4093500D02*
G75*
G02*
X3533500Y-4093500I10000J0D01*
G01*
X3533500Y-4166500D02*
G75*
G02*
X3513500Y-4166500I-10000J0D01*
G01*
X3513500Y-4166500D02*
G75*
G02*
X3533500Y-4166500I10000J0D01*
G01*
X3606500Y-4093500D02*
G75*
G02*
X3586500Y-4093500I-10000J0D01*
G01*
X3586500Y-4093500D02*
G75*
G02*
X3606500Y-4093500I10000J0D01*
G01*
X3606500Y-4166500D02*
G75*
G02*
X3586500Y-4166500I-10000J0D01*
G01*
X3586500Y-4166500D02*
G75*
G02*
X3606500Y-4166500I10000J0D01*
G01*
X2243782Y-5129447D02*
X2243782Y-5159447D01*
X2228782Y-5144447D02*
X2258782Y-5144447D01*
X2248508Y-4768453D02*
X2248508Y-4798453D01*
X2233508Y-4783453D02*
X2263508Y-4783453D01*
X2286216Y-5487970D02*
X2286216Y-5517970D01*
X2271216Y-5502970D02*
X2301216Y-5502970D01*
X2300313Y-4411164D02*
X2300313Y-4441164D01*
X2285313Y-4426164D02*
X2315313Y-4426164D01*
X2375084Y-5837887D02*
X2375084Y-5867887D01*
X2360084Y-5852887D02*
X2390084Y-5852887D01*
X2398309Y-4063693D02*
X2398309Y-4093693D01*
X2383309Y-4078693D02*
X2413309Y-4078693D01*
X2508865Y-6173211D02*
X2508865Y-6203211D01*
X2493865Y-6188211D02*
X2523865Y-6188211D01*
X2685269Y-6488204D02*
X2685269Y-6518204D01*
X2670269Y-6503204D02*
X2700269Y-6503204D01*
X2767113Y-3362713D02*
X2767113Y-3392713D01*
X2752113Y-3377713D02*
X2782113Y-3377713D01*
X2901279Y-6777477D02*
X2901279Y-6807477D01*
X2886279Y-6792477D02*
X2916279Y-6792477D01*
X2997967Y-3085141D02*
X2997967Y-3115141D01*
X2982967Y-3100141D02*
X3012967Y-3100141D01*
X3000000Y-6105000D02*
X3000000Y-6135000D01*
X2985000Y-6120000D02*
X3015000Y-6120000D01*
X3153199Y-7036080D02*
X3153199Y-7066080D01*
X3138199Y-7051080D02*
X3168199Y-7051080D01*
X3162000Y-5860000D02*
X3162000Y-5890000D01*
X3147000Y-5875000D02*
X3177000Y-5875000D01*
X3230000Y-6330000D02*
X3230000Y-6360000D01*
X3215000Y-6345000D02*
X3245000Y-6345000D01*
X3305000Y-4160000D02*
X3305000Y-4190000D01*
X3290000Y-4175000D02*
X3320000Y-4175000D01*
X3310000Y-3695000D02*
X3310000Y-3725000D01*
X3295000Y-3710000D02*
X3325000Y-3710000D01*
X3350000Y-4393750D02*
X3350000Y-4423750D01*
X3335000Y-4408750D02*
X3365000Y-4408750D01*
X3355000Y-6365000D02*
X3355000Y-6395000D01*
X3340000Y-6380000D02*
X3370000Y-6380000D01*
X3360000Y-6000000D02*
X3360000Y-6030000D01*
X3345000Y-6015000D02*
X3375000Y-6015000D01*
X3415000Y-5575000D02*
X3415000Y-5605000D01*
X3400000Y-5590000D02*
X3430000Y-5590000D01*
X3425000Y-5860000D02*
X3425000Y-5890000D01*
X3410000Y-5875000D02*
X3440000Y-5875000D01*
X3436719Y-7259588D02*
X3436719Y-7289588D01*
X3421719Y-7274588D02*
X3451719Y-7274588D01*
X3475000Y-5765000D02*
X3475000Y-5795000D01*
X3460000Y-5780000D02*
X3490000Y-5780000D01*
X3495000Y-5445000D02*
X3495000Y-5475000D01*
X3480000Y-5460000D02*
X3510000Y-5460000D01*
X3495000Y-5930000D02*
X3495000Y-5960000D01*
X3480000Y-5945000D02*
X3510000Y-5945000D01*
X3610000Y-3900000D02*
X3610000Y-3930000D01*
X3595000Y-3915000D02*
X3625000Y-3915000D01*
X3635000Y-4360000D02*
X3635000Y-4390000D01*
X3620000Y-4375000D02*
X3650000Y-4375000D01*
X3635000Y-5610000D02*
X3635000Y-5640000D01*
X3620000Y-5625000D02*
X3650000Y-5625000D01*
X3640000Y-2779100D02*
X3640000Y-2809100D01*
X3625000Y-2794100D02*
X3655000Y-2794100D01*
X3665100Y-3355400D02*
X3665100Y-3385400D01*
X3650100Y-3370400D02*
X3680100Y-3370400D01*
X3667500Y-3645000D02*
X3667500Y-3675000D01*
X3652500Y-3660000D02*
X3682500Y-3660000D01*
X3710000Y-4585000D02*
X3710000Y-4615000D01*
X3695000Y-4600000D02*
X3725000Y-4600000D01*
X3712000Y-5460000D02*
X3712000Y-5490000D01*
X3697000Y-5475000D02*
X3727000Y-5475000D01*
X3755000Y-2775000D02*
X3755000Y-2805000D01*
X3740000Y-2790000D02*
X3770000Y-2790000D01*
X3765852Y-4857208D02*
X3765852Y-4887208D01*
X3750852Y-4872208D02*
X3780852Y-4872208D01*
X3775000Y-5685000D02*
X3775000Y-5715000D01*
X3760000Y-5700000D02*
X3790000Y-5700000D01*
X3780218Y-5107218D02*
X3780218Y-5137218D01*
X3765218Y-5122218D02*
X3795218Y-5122218D01*
X3785000Y-4760000D02*
X3785000Y-4790000D01*
X3770000Y-4775000D02*
X3800000Y-4775000D01*
X3797528Y-3214715D02*
X3797528Y-3244715D01*
X3782528Y-3229715D02*
X3812528Y-3229715D01*
X3815000Y-6205000D02*
X3815000Y-6235000D01*
X3800000Y-6220000D02*
X3830000Y-6220000D01*
X3825000Y-6010000D02*
X3825000Y-6040000D01*
X3810000Y-6025000D02*
X3840000Y-6025000D01*
X3839971Y-3064080D02*
X3839971Y-3094080D01*
X3824971Y-3079080D02*
X3854971Y-3079080D01*
X3890000Y-6075000D02*
X3890000Y-6105000D01*
X3875000Y-6090000D02*
X3905000Y-6090000D01*
X3890000Y-6940000D02*
X3890000Y-6970000D01*
X3875000Y-6955000D02*
X3905000Y-6955000D01*
X3911076Y-3027405D02*
X3911076Y-3057405D01*
X3896076Y-3042405D02*
X3926076Y-3042405D01*
X3915086Y-3365351D02*
X3915086Y-3395351D01*
X3900086Y-3380351D02*
X3930086Y-3380351D01*
X3980000Y-5325000D02*
X3980000Y-5355000D01*
X3965000Y-5340000D02*
X3995000Y-5340000D01*
X3995782Y-4972782D02*
X3995782Y-5002782D01*
X3980782Y-4987782D02*
X4010782Y-4987782D01*
X4005000Y-5750000D02*
X4005000Y-5780000D01*
X3990000Y-5765000D02*
X4020000Y-5765000D01*
X4006250Y-4225000D02*
X4006250Y-4255000D01*
X3991250Y-4240000D02*
X4021250Y-4240000D01*
X4015000Y-5490000D02*
X4015000Y-5520000D01*
X4000000Y-5505000D02*
X4030000Y-5505000D01*
X4030000Y-6575000D02*
X4030000Y-6605000D01*
X4015000Y-6590000D02*
X4045000Y-6590000D01*
X4088000Y-4895000D02*
X4088000Y-4925000D01*
X4073000Y-4910000D02*
X4103000Y-4910000D01*
X4090000Y-7095000D02*
X4090000Y-7125000D01*
X4075000Y-7110000D02*
X4105000Y-7110000D01*
X4100000Y-6350000D02*
X4100000Y-6380000D01*
X4085000Y-6365000D02*
X4115000Y-6365000D01*
X4200000Y-7110000D02*
X4200000Y-7140000D01*
X4185000Y-7125000D02*
X4215000Y-7125000D01*
X4211000Y-5515000D02*
X4211000Y-5545000D01*
X4196000Y-5530000D02*
X4226000Y-5530000D01*
X4240000Y-2465000D02*
X4240000Y-2495000D01*
X4225000Y-2480000D02*
X4255000Y-2480000D01*
X4240072Y-3064484D02*
X4240072Y-3094484D01*
X4225072Y-3079484D02*
X4255072Y-3079484D01*
X4250000Y-4205000D02*
X4250000Y-4235000D01*
X4235000Y-4220000D02*
X4265000Y-4220000D01*
X4273750Y-4795000D02*
X4273750Y-4825000D01*
X4258750Y-4810000D02*
X4288750Y-4810000D01*
X4300000Y-5715000D02*
X4300000Y-5745000D01*
X4285000Y-5730000D02*
X4315000Y-5730000D01*
X4304000Y-5630000D02*
X4304000Y-5660000D01*
X4289000Y-5645000D02*
X4319000Y-5645000D01*
X4307000Y-5275000D02*
X4307000Y-5305000D01*
X4292000Y-5290000D02*
X4322000Y-5290000D01*
X4380000Y-4545000D02*
X4380000Y-4575000D01*
X4365000Y-4560000D02*
X4395000Y-4560000D01*
X4390000Y-5245000D02*
X4390000Y-5275000D01*
X4375000Y-5260000D02*
X4405000Y-5260000D01*
X4422032Y-6131826D02*
X4422032Y-6161826D01*
X4407032Y-6146826D02*
X4437032Y-6146826D01*
X4470000Y-3265000D02*
X4470000Y-3295000D01*
X4455000Y-3280000D02*
X4485000Y-3280000D01*
X4490000Y-5725000D02*
X4490000Y-5755000D01*
X4475000Y-5740000D02*
X4505000Y-5740000D01*
X4493000Y-5370000D02*
X4493000Y-5400000D01*
X4478000Y-5385000D02*
X4508000Y-5385000D01*
X4500000Y-3925000D02*
X4500000Y-3955000D01*
X4485000Y-3940000D02*
X4515000Y-3940000D01*
X4510000Y-5170000D02*
X4510000Y-5200000D01*
X4495000Y-5185000D02*
X4525000Y-5185000D01*
X4520000Y-4187000D02*
X4520000Y-4217000D01*
X4505000Y-4202000D02*
X4535000Y-4202000D01*
X4626360Y-4445640D02*
X4626360Y-4475640D01*
X4611360Y-4460640D02*
X4641360Y-4460640D01*
X4690000Y-5070000D02*
X4690000Y-5100000D01*
X4675000Y-5085000D02*
X4705000Y-5085000D01*
X4700000Y-4095000D02*
X4700000Y-4125000D01*
X4685000Y-4110000D02*
X4715000Y-4110000D01*
X4755000Y-2930000D02*
X4755000Y-2960000D01*
X4740000Y-2945000D02*
X4770000Y-2945000D01*
X4769000Y-5925000D02*
X4769000Y-5955000D01*
X4754000Y-5940000D02*
X4784000Y-5940000D01*
X4825000Y-5397000D02*
X4825000Y-5427000D01*
X4810000Y-5412000D02*
X4840000Y-5412000D01*
X4845000Y-5005000D02*
X4845000Y-5035000D01*
X4830000Y-5020000D02*
X4860000Y-5020000D01*
X4880000Y-5105000D02*
X4880000Y-5135000D01*
X4865000Y-5120000D02*
X4895000Y-5120000D01*
X4945000Y-4990000D02*
X4945000Y-5020000D01*
X4930000Y-5005000D02*
X4960000Y-5005000D01*
X5000000Y-2225000D02*
X5000000Y-2255000D01*
X4985000Y-2240000D02*
X5015000Y-2240000D01*
X5000000Y-6985000D02*
X5000000Y-7015000D01*
X4985000Y-7000000D02*
X5015000Y-7000000D01*
X5010000Y-5330000D02*
X5010000Y-5360000D01*
X4995000Y-5345000D02*
X5025000Y-5345000D01*
X5082000Y-5910000D02*
X5082000Y-5940000D01*
X5067000Y-5925000D02*
X5097000Y-5925000D01*
X5085000Y-5372000D02*
X5085000Y-5402000D01*
X5070000Y-5387000D02*
X5100000Y-5387000D01*
X5090000Y-3657500D02*
X5090000Y-3687500D01*
X5075000Y-3672500D02*
X5105000Y-3672500D01*
X5090000Y-3765000D02*
X5090000Y-3795000D01*
X5075000Y-3780000D02*
X5105000Y-3780000D01*
X5190000Y-3402500D02*
X5190000Y-3432500D01*
X5175000Y-3417500D02*
X5205000Y-3417500D01*
X5245000Y-5225000D02*
X5245000Y-5255000D01*
X5230000Y-5240000D02*
X5260000Y-5240000D01*
X5310000Y-5070000D02*
X5310000Y-5100000D01*
X5295000Y-5085000D02*
X5325000Y-5085000D01*
X5320000Y-3165000D02*
X5320000Y-3195000D01*
X5305000Y-3180000D02*
X5335000Y-3180000D01*
X5330000Y-3620000D02*
X5330000Y-3650000D01*
X5315000Y-3635000D02*
X5345000Y-3635000D01*
X5330000Y-4210000D02*
X5330000Y-4240000D01*
X5315000Y-4225000D02*
X5345000Y-4225000D01*
X5340000Y-4440000D02*
X5340000Y-4470000D01*
X5325000Y-4455000D02*
X5355000Y-4455000D01*
X5352000Y-5910000D02*
X5352000Y-5940000D01*
X5337000Y-5925000D02*
X5367000Y-5925000D01*
X5395000Y-5290000D02*
X5395000Y-5320000D01*
X5380000Y-5305000D02*
X5410000Y-5305000D01*
X5489000Y-4025000D02*
X5489000Y-4055000D01*
X5474000Y-4040000D02*
X5504000Y-4040000D01*
X5500000Y-3500000D02*
X5500000Y-3530000D01*
X5485000Y-3515000D02*
X5515000Y-3515000D01*
X5505000Y-3735000D02*
X5505000Y-3765000D01*
X5490000Y-3750000D02*
X5520000Y-3750000D01*
X5525000Y-5370000D02*
X5525000Y-5400000D01*
X5510000Y-5385000D02*
X5540000Y-5385000D01*
X5532300Y-5995000D02*
X5532300Y-6025000D01*
X5517300Y-6010000D02*
X5547300Y-6010000D01*
X5590000Y-5505000D02*
X5590000Y-5535000D01*
X5575000Y-5520000D02*
X5605000Y-5520000D01*
X5600000Y-4255000D02*
X5600000Y-4285000D01*
X5585000Y-4270000D02*
X5615000Y-4270000D01*
X5605000Y-3600000D02*
X5605000Y-3630000D01*
X5590000Y-3615000D02*
X5620000Y-3615000D01*
X5610000Y-2915000D02*
X5610000Y-2945000D01*
X5595000Y-2930000D02*
X5625000Y-2930000D01*
X5610000Y-3160000D02*
X5610000Y-3190000D01*
X5595000Y-3175000D02*
X5625000Y-3175000D01*
X5662700Y-2755000D02*
X5662700Y-2785000D01*
X5647700Y-2770000D02*
X5677700Y-2770000D01*
X5665000Y-5225000D02*
X5665000Y-5255000D01*
X5650000Y-5240000D02*
X5680000Y-5240000D01*
X5675000Y-4195000D02*
X5675000Y-4225000D01*
X5660000Y-4210000D02*
X5690000Y-4210000D01*
X5735000Y-2958750D02*
X5735000Y-2988750D01*
X5720000Y-2973750D02*
X5750000Y-2973750D01*
X5740000Y-3200000D02*
X5740000Y-3230000D01*
X5725000Y-3215000D02*
X5755000Y-3215000D01*
X5767360Y-4166640D02*
X5767360Y-4196640D01*
X5752360Y-4181640D02*
X5782360Y-4181640D01*
X5800000Y-5815000D02*
X5800000Y-5845000D01*
X5785000Y-5830000D02*
X5815000Y-5830000D01*
X5800000Y-6855000D02*
X5800000Y-6885000D01*
X5785000Y-6870000D02*
X5815000Y-6870000D01*
X5840000Y-5370000D02*
X5840000Y-5400000D01*
X5825000Y-5385000D02*
X5855000Y-5385000D01*
X5880000Y-3450000D02*
X5880000Y-3480000D01*
X5865000Y-3465000D02*
X5895000Y-3465000D01*
X5880000Y-4500000D02*
X5880000Y-4530000D01*
X5865000Y-4515000D02*
X5895000Y-4515000D01*
X5900000Y-4195000D02*
X5900000Y-4225000D01*
X5885000Y-4210000D02*
X5915000Y-4210000D01*
X5900000Y-7110000D02*
X5900000Y-7140000D01*
X5885000Y-7125000D02*
X5915000Y-7125000D01*
X5905000Y-5630000D02*
X5905000Y-5660000D01*
X5890000Y-5645000D02*
X5920000Y-5645000D01*
X5941000Y-3677500D02*
X5941000Y-3707500D01*
X5926000Y-3692500D02*
X5956000Y-3692500D01*
X5941000Y-6895000D02*
X5941000Y-6925000D01*
X5926000Y-6910000D02*
X5956000Y-6910000D01*
X5960000Y-2625000D02*
X5960000Y-2655000D01*
X5945000Y-2640000D02*
X5975000Y-2640000D01*
X6000000Y-3465000D02*
X6000000Y-3495000D01*
X5985000Y-3480000D02*
X6015000Y-3480000D01*
X6000000Y-4885000D02*
X6000000Y-4915000D01*
X5985000Y-4900000D02*
X6015000Y-4900000D01*
X6045000Y-3645000D02*
X6045000Y-3675000D01*
X6030000Y-3660000D02*
X6060000Y-3660000D01*
X6155000Y-5940000D02*
X6155000Y-5970000D01*
X6140000Y-5955000D02*
X6170000Y-5955000D01*
X6160000Y-4032500D02*
X6160000Y-4062500D01*
X6145000Y-4047500D02*
X6175000Y-4047500D01*
X6160000Y-4112500D02*
X6160000Y-4142500D01*
X6145000Y-4127500D02*
X6175000Y-4127500D01*
X6168000Y-7110000D02*
X6168000Y-7140000D01*
X6153000Y-7125000D02*
X6183000Y-7125000D01*
X6200000Y-3055000D02*
X6200000Y-3085000D01*
X6185000Y-3070000D02*
X6215000Y-3070000D01*
X6215000Y-2766700D02*
X6215000Y-2796700D01*
X6200000Y-2781700D02*
X6230000Y-2781700D01*
X6240000Y-3965000D02*
X6240000Y-3995000D01*
X6225000Y-3980000D02*
X6255000Y-3980000D01*
X6240000Y-4045000D02*
X6240000Y-4075000D01*
X6225000Y-4060000D02*
X6255000Y-4060000D01*
X6271250Y-3365000D02*
X6271250Y-3395000D01*
X6256250Y-3380000D02*
X6286250Y-3380000D01*
X6275000Y-6645000D02*
X6275000Y-6675000D01*
X6260000Y-6660000D02*
X6290000Y-6660000D01*
X6300000Y-6185000D02*
X6300000Y-6215000D01*
X6285000Y-6200000D02*
X6315000Y-6200000D01*
X6301000Y-4187500D02*
X6301000Y-4217500D01*
X6286000Y-4202500D02*
X6316000Y-4202500D01*
X6320000Y-4073000D02*
X6320000Y-4103000D01*
X6305000Y-4088000D02*
X6335000Y-4088000D01*
X6330000Y-5655000D02*
X6330000Y-5685000D01*
X6315000Y-5670000D02*
X6345000Y-5670000D01*
X6380000Y-2594770D02*
X6380000Y-2624770D01*
X6365000Y-2609770D02*
X6395000Y-2609770D01*
X6430000Y-6155000D02*
X6430000Y-6185000D01*
X6415000Y-6170000D02*
X6445000Y-6170000D01*
X6475000Y-5610000D02*
X6475000Y-5640000D01*
X6460000Y-5625000D02*
X6490000Y-5625000D01*
X6500000Y-3730000D02*
X6500000Y-3760000D01*
X6485000Y-3745000D02*
X6515000Y-3745000D01*
X6517500Y-3195000D02*
X6517500Y-3225000D01*
X6502500Y-3210000D02*
X6532500Y-3210000D01*
X6545000Y-4005000D02*
X6545000Y-4035000D01*
X6530000Y-4020000D02*
X6560000Y-4020000D01*
X6563281Y-7259588D02*
X6563281Y-7289588D01*
X6548281Y-7274588D02*
X6578281Y-7274588D01*
X6600000Y-5735000D02*
X6600000Y-5765000D01*
X6585000Y-5750000D02*
X6615000Y-5750000D01*
X6631000Y-3807500D02*
X6631000Y-3837500D01*
X6616000Y-3822500D02*
X6646000Y-3822500D01*
X6631005Y-5495995D02*
X6631005Y-5525995D01*
X6616005Y-5510995D02*
X6646005Y-5510995D01*
X6665000Y-6595000D02*
X6665000Y-6625000D01*
X6650000Y-6610000D02*
X6680000Y-6610000D01*
X6730000Y-5575000D02*
X6730000Y-5605000D01*
X6715000Y-5590000D02*
X6745000Y-5590000D01*
X6785000Y-4988000D02*
X6785000Y-5018000D01*
X6770000Y-5003000D02*
X6800000Y-5003000D01*
X6792477Y-2886279D02*
X6792477Y-2916279D01*
X6777477Y-2901279D02*
X6807477Y-2901279D01*
X6846800Y-7036080D02*
X6846800Y-7066080D01*
X6831800Y-7051080D02*
X6861800Y-7051080D01*
X6851700Y-6327100D02*
X6851700Y-6357100D01*
X6836700Y-6342100D02*
X6866700Y-6342100D01*
X6950000Y-6440000D02*
X6950000Y-6470000D01*
X6935000Y-6455000D02*
X6965000Y-6455000D01*
X6950000Y-6588200D02*
X6950000Y-6618200D01*
X6935000Y-6603200D02*
X6965000Y-6603200D01*
X7000400Y-6074600D02*
X7000400Y-6104600D01*
X6985400Y-6089600D02*
X7015400Y-6089600D01*
X7010000Y-6655000D02*
X7010000Y-6685000D01*
X6995000Y-6670000D02*
X7025000Y-6670000D01*
X7026000Y-4565000D02*
X7026000Y-4595000D01*
X7011000Y-4580000D02*
X7041000Y-4580000D01*
X7030000Y-5355000D02*
X7030000Y-5385000D01*
X7015000Y-5370000D02*
X7045000Y-5370000D01*
X7037700Y-6417100D02*
X7037700Y-6447100D01*
X7022700Y-6432100D02*
X7052700Y-6432100D01*
X7051080Y-3138199D02*
X7051080Y-3168199D01*
X7036080Y-3153199D02*
X7066080Y-3153199D01*
X7120000Y-4413500D02*
X7120000Y-4443500D01*
X7105000Y-4428500D02*
X7135000Y-4428500D01*
X7207000Y-6371000D02*
X7207000Y-6401000D01*
X7192000Y-6386000D02*
X7222000Y-6386000D01*
X7260000Y-5058000D02*
X7260000Y-5088000D01*
X7245000Y-5073000D02*
X7275000Y-5073000D01*
X7274588Y-3421719D02*
X7274588Y-3451719D01*
X7259588Y-3436719D02*
X7289588Y-3436719D01*
X7276400Y-6074600D02*
X7276400Y-6104600D01*
X7261400Y-6089600D02*
X7291400Y-6089600D01*
X7311159Y-6450162D02*
X7311159Y-6480162D01*
X7296159Y-6465162D02*
X7326159Y-6465162D01*
X7437217Y-6317099D02*
X7437217Y-6347099D01*
X7422217Y-6332099D02*
X7452217Y-6332099D01*
X7459178Y-3731986D02*
X7459178Y-3761986D01*
X7444178Y-3746986D02*
X7474178Y-3746986D01*
X7537500Y-4595000D02*
X7537500Y-4625000D01*
X7522500Y-4610000D02*
X7552500Y-4610000D01*
X7601690Y-4063693D02*
X7601690Y-4093693D01*
X7586690Y-4078693D02*
X7616690Y-4078693D01*
X7624916Y-5837887D02*
X7624916Y-5867887D01*
X7609916Y-5852887D02*
X7639916Y-5852887D01*
X7699687Y-4411164D02*
X7699687Y-4441164D01*
X7684687Y-4426164D02*
X7714687Y-4426164D01*
X7713783Y-5487970D02*
X7713783Y-5517970D01*
X7698783Y-5502970D02*
X7728783Y-5502970D01*
X7751492Y-4768453D02*
X7751492Y-4798453D01*
X7736492Y-4783453D02*
X7766492Y-4783453D01*
X7756217Y-5129447D02*
X7756217Y-5159447D01*
X7741217Y-5144447D02*
X7771217Y-5144447D01*
X4589213Y-2321213D02*
X4589213Y-2278787D01*
X4546787Y-2278787D01*
X4546787Y-2321213D01*
X4589213Y-2321213D01*
X4538000Y-2270000D02*
X4538000Y-2330000D01*
X4598000Y-2330000D02*
G75*
G02*
X4538000Y-2330000I-30000J0D01*
G01*
X4598000Y-2330000D02*
X4598000Y-2270000D01*
X4598000Y-2270000D02*
G75*
G03*
X4538000Y-2270000I-30000J0D01*
G01*
X4589213Y-2739213D02*
X4589213Y-2696787D01*
X4546787Y-2696787D01*
X4546787Y-2739213D01*
X4589213Y-2739213D01*
X4538000Y-2663000D02*
X4538000Y-2773000D01*
X4598000Y-2773000D02*
G75*
G02*
X4538000Y-2773000I-30000J0D01*
G01*
X4598000Y-2773000D02*
X4598000Y-2663000D01*
X4598000Y-2663000D02*
G75*
G03*
X4538000Y-2663000I-30000J0D01*
G01*
X5453213Y-2321213D02*
X5453213Y-2278787D01*
X5410787Y-2278787D01*
X5410787Y-2321213D01*
X5453213Y-2321213D01*
X5402000Y-2270000D02*
X5402000Y-2330000D01*
X5462000Y-2330000D02*
G75*
G02*
X5402000Y-2330000I-30000J0D01*
G01*
X5462000Y-2330000D02*
X5462000Y-2270000D01*
X5462000Y-2270000D02*
G75*
G03*
X5402000Y-2270000I-30000J0D01*
G01*
X5453213Y-2739213D02*
X5453213Y-2696787D01*
X5410787Y-2696787D01*
X5410787Y-2739213D01*
X5453213Y-2739213D01*
X5402000Y-2663000D02*
X5402000Y-2773000D01*
X5462000Y-2773000D02*
G75*
G02*
X5402000Y-2773000I-30000J0D01*
G01*
X5462000Y-2773000D02*
X5462000Y-2663000D01*
X5462000Y-2663000D02*
G75*
G03*
X5402000Y-2663000I-30000J0D01*
G01*
D11*
X2358277Y-8009369D02*
X2358277Y-7809369D01*
X2358277Y-7809369D02*
X2405896Y-7809369D01*
X2405896Y-7809369D02*
X2434467Y-7818892D01*
X2434467Y-7818892D02*
X2453515Y-7837940D01*
X2453515Y-7837940D02*
X2463039Y-7856988D01*
X2463039Y-7856988D02*
X2472563Y-7895083D01*
X2472563Y-7895083D02*
X2472563Y-7923654D01*
X2472563Y-7923654D02*
X2463039Y-7961750D01*
X2463039Y-7961750D02*
X2453515Y-7980797D01*
X2453515Y-7980797D02*
X2434467Y-7999845D01*
X2434467Y-7999845D02*
X2405896Y-8009369D01*
X2405896Y-8009369D02*
X2358277Y-8009369D01*
X2558277Y-8009369D02*
X2558277Y-7876035D01*
X2558277Y-7914131D02*
X2567801Y-7895083D01*
X2567801Y-7895083D02*
X2577324Y-7885559D01*
X2577324Y-7885559D02*
X2596372Y-7876035D01*
X2596372Y-7876035D02*
X2615420Y-7876035D01*
X2682086Y-8009369D02*
X2682086Y-7876035D01*
X2682086Y-7809369D02*
X2672563Y-7818892D01*
X2672563Y-7818892D02*
X2682086Y-7828416D01*
X2682086Y-7828416D02*
X2691610Y-7818892D01*
X2691610Y-7818892D02*
X2682086Y-7809369D01*
X2682086Y-7809369D02*
X2682086Y-7828416D01*
X2805896Y-8009369D02*
X2786848Y-7999845D01*
X2786848Y-7999845D02*
X2777324Y-7980797D01*
X2777324Y-7980797D02*
X2777324Y-7809369D01*
X2910658Y-8009369D02*
X2891610Y-7999845D01*
X2891610Y-7999845D02*
X2882086Y-7980797D01*
X2882086Y-7980797D02*
X2882086Y-7809369D01*
X3139229Y-8009369D02*
X3139229Y-7809369D01*
X3139229Y-7809369D02*
X3205896Y-7952226D01*
X3205896Y-7952226D02*
X3272562Y-7809369D01*
X3272562Y-7809369D02*
X3272562Y-8009369D01*
X3453515Y-8009369D02*
X3453515Y-7904607D01*
X3453515Y-7904607D02*
X3443991Y-7885559D01*
X3443991Y-7885559D02*
X3424943Y-7876035D01*
X3424943Y-7876035D02*
X3386848Y-7876035D01*
X3386848Y-7876035D02*
X3367801Y-7885559D01*
X3453515Y-7999845D02*
X3434467Y-8009369D01*
X3434467Y-8009369D02*
X3386848Y-8009369D01*
X3386848Y-8009369D02*
X3367801Y-7999845D01*
X3367801Y-7999845D02*
X3358277Y-7980797D01*
X3358277Y-7980797D02*
X3358277Y-7961750D01*
X3358277Y-7961750D02*
X3367801Y-7942702D01*
X3367801Y-7942702D02*
X3386848Y-7933178D01*
X3386848Y-7933178D02*
X3434467Y-7933178D01*
X3434467Y-7933178D02*
X3453515Y-7923654D01*
X3548753Y-7876035D02*
X3548753Y-8076035D01*
X3548753Y-7885559D02*
X3567801Y-7876035D01*
X3567801Y-7876035D02*
X3605896Y-7876035D01*
X3605896Y-7876035D02*
X3624943Y-7885559D01*
X3624943Y-7885559D02*
X3634467Y-7895083D01*
X3634467Y-7895083D02*
X3643991Y-7914131D01*
X3643991Y-7914131D02*
X3643991Y-7971273D01*
X3643991Y-7971273D02*
X3634467Y-7990321D01*
X3634467Y-7990321D02*
X3624943Y-7999845D01*
X3624943Y-7999845D02*
X3605896Y-8009369D01*
X3605896Y-8009369D02*
X3567801Y-8009369D01*
X3567801Y-8009369D02*
X3548753Y-7999845D01*
X3729705Y-7990321D02*
X3739229Y-7999845D01*
X3739229Y-7999845D02*
X3729705Y-8009369D01*
X3729705Y-8009369D02*
X3720182Y-7999845D01*
X3720182Y-7999845D02*
X3729705Y-7990321D01*
X3729705Y-7990321D02*
X3729705Y-8009369D01*
X3729705Y-7885559D02*
X3739229Y-7895083D01*
X3739229Y-7895083D02*
X3729705Y-7904607D01*
X3729705Y-7904607D02*
X3720182Y-7895083D01*
X3720182Y-7895083D02*
X3729705Y-7885559D01*
X3729705Y-7885559D02*
X3729705Y-7904607D01*
D12*
X2077500Y-8327885D02*
X2097500Y-8347885D01*
X2097500Y-8327885D02*
X2077500Y-8347885D01*
D11*
X2396372Y-8229369D02*
X2415420Y-8229369D01*
X2415420Y-8229369D02*
X2434467Y-8238892D01*
X2434467Y-8238892D02*
X2443991Y-8248416D01*
X2443991Y-8248416D02*
X2453515Y-8267464D01*
X2453515Y-8267464D02*
X2463039Y-8305559D01*
X2463039Y-8305559D02*
X2463039Y-8353178D01*
X2463039Y-8353178D02*
X2453515Y-8391273D01*
X2453515Y-8391273D02*
X2443991Y-8410321D01*
X2443991Y-8410321D02*
X2434467Y-8419845D01*
X2434467Y-8419845D02*
X2415420Y-8429369D01*
X2415420Y-8429369D02*
X2396372Y-8429369D01*
X2396372Y-8429369D02*
X2377324Y-8419845D01*
X2377324Y-8419845D02*
X2367801Y-8410321D01*
X2367801Y-8410321D02*
X2358277Y-8391273D01*
X2358277Y-8391273D02*
X2348753Y-8353178D01*
X2348753Y-8353178D02*
X2348753Y-8305559D01*
X2348753Y-8305559D02*
X2358277Y-8267464D01*
X2358277Y-8267464D02*
X2367801Y-8248416D01*
X2367801Y-8248416D02*
X2377324Y-8238892D01*
X2377324Y-8238892D02*
X2396372Y-8229369D01*
X2548753Y-8410321D02*
X2558277Y-8419845D01*
X2558277Y-8419845D02*
X2548753Y-8429369D01*
X2548753Y-8429369D02*
X2539229Y-8419845D01*
X2539229Y-8419845D02*
X2548753Y-8410321D01*
X2548753Y-8410321D02*
X2548753Y-8429369D01*
X2634467Y-8248416D02*
X2643991Y-8238892D01*
X2643991Y-8238892D02*
X2663039Y-8229369D01*
X2663039Y-8229369D02*
X2710658Y-8229369D01*
X2710658Y-8229369D02*
X2729705Y-8238892D01*
X2729705Y-8238892D02*
X2739229Y-8248416D01*
X2739229Y-8248416D02*
X2748753Y-8267464D01*
X2748753Y-8267464D02*
X2748753Y-8286511D01*
X2748753Y-8286511D02*
X2739229Y-8315083D01*
X2739229Y-8315083D02*
X2624944Y-8429369D01*
X2624944Y-8429369D02*
X2748753Y-8429369D01*
X2872562Y-8229369D02*
X2891610Y-8229369D01*
X2891610Y-8229369D02*
X2910658Y-8238892D01*
X2910658Y-8238892D02*
X2920182Y-8248416D01*
X2920182Y-8248416D02*
X2929705Y-8267464D01*
X2929705Y-8267464D02*
X2939229Y-8305559D01*
X2939229Y-8305559D02*
X2939229Y-8353178D01*
X2939229Y-8353178D02*
X2929705Y-8391273D01*
X2929705Y-8391273D02*
X2920182Y-8410321D01*
X2920182Y-8410321D02*
X2910658Y-8419845D01*
X2910658Y-8419845D02*
X2891610Y-8429369D01*
X2891610Y-8429369D02*
X2872562Y-8429369D01*
X2872562Y-8429369D02*
X2853515Y-8419845D01*
X2853515Y-8419845D02*
X2843991Y-8410321D01*
X2843991Y-8410321D02*
X2834467Y-8391273D01*
X2834467Y-8391273D02*
X2824943Y-8353178D01*
X2824943Y-8353178D02*
X2824943Y-8305559D01*
X2824943Y-8305559D02*
X2834467Y-8267464D01*
X2834467Y-8267464D02*
X2843991Y-8248416D01*
X2843991Y-8248416D02*
X2853515Y-8238892D01*
X2853515Y-8238892D02*
X2872562Y-8229369D01*
X3063039Y-8229369D02*
X3082086Y-8229369D01*
X3082086Y-8229369D02*
X3101134Y-8238892D01*
X3101134Y-8238892D02*
X3110658Y-8248416D01*
X3110658Y-8248416D02*
X3120182Y-8267464D01*
X3120182Y-8267464D02*
X3129705Y-8305559D01*
X3129705Y-8305559D02*
X3129705Y-8353178D01*
X3129705Y-8353178D02*
X3120182Y-8391273D01*
X3120182Y-8391273D02*
X3110658Y-8410321D01*
X3110658Y-8410321D02*
X3101134Y-8419845D01*
X3101134Y-8419845D02*
X3082086Y-8429369D01*
X3082086Y-8429369D02*
X3063039Y-8429369D01*
X3063039Y-8429369D02*
X3043991Y-8419845D01*
X3043991Y-8419845D02*
X3034467Y-8410321D01*
X3034467Y-8410321D02*
X3024943Y-8391273D01*
X3024943Y-8391273D02*
X3015420Y-8353178D01*
X3015420Y-8353178D02*
X3015420Y-8305559D01*
X3015420Y-8305559D02*
X3024943Y-8267464D01*
X3024943Y-8267464D02*
X3034467Y-8248416D01*
X3034467Y-8248416D02*
X3043991Y-8238892D01*
X3043991Y-8238892D02*
X3063039Y-8229369D01*
X3215420Y-8429369D02*
X3215420Y-8296035D01*
X3215420Y-8315083D02*
X3224943Y-8305559D01*
X3224943Y-8305559D02*
X3243991Y-8296035D01*
X3243991Y-8296035D02*
X3272563Y-8296035D01*
X3272563Y-8296035D02*
X3291610Y-8305559D01*
X3291610Y-8305559D02*
X3301134Y-8324607D01*
X3301134Y-8324607D02*
X3301134Y-8429369D01*
X3301134Y-8324607D02*
X3310658Y-8305559D01*
X3310658Y-8305559D02*
X3329705Y-8296035D01*
X3329705Y-8296035D02*
X3358277Y-8296035D01*
X3358277Y-8296035D02*
X3377324Y-8305559D01*
X3377324Y-8305559D02*
X3386848Y-8324607D01*
X3386848Y-8324607D02*
X3386848Y-8429369D01*
X3482086Y-8429369D02*
X3482086Y-8296035D01*
X3482086Y-8315083D02*
X3491610Y-8305559D01*
X3491610Y-8305559D02*
X3510658Y-8296035D01*
X3510658Y-8296035D02*
X3539229Y-8296035D01*
X3539229Y-8296035D02*
X3558277Y-8305559D01*
X3558277Y-8305559D02*
X3567801Y-8324607D01*
X3567801Y-8324607D02*
X3567801Y-8429369D01*
X3567801Y-8324607D02*
X3577324Y-8305559D01*
X3577324Y-8305559D02*
X3596372Y-8296035D01*
X3596372Y-8296035D02*
X3624943Y-8296035D01*
X3624943Y-8296035D02*
X3643991Y-8305559D01*
X3643991Y-8305559D02*
X3653515Y-8324607D01*
X3653515Y-8324607D02*
X3653515Y-8429369D01*
X4043991Y-8219845D02*
X3872563Y-8476988D01*
X4301134Y-8229369D02*
X4320182Y-8229369D01*
X4320182Y-8229369D02*
X4339229Y-8238892D01*
X4339229Y-8238892D02*
X4348753Y-8248416D01*
X4348753Y-8248416D02*
X4358277Y-8267464D01*
X4358277Y-8267464D02*
X4367801Y-8305559D01*
X4367801Y-8305559D02*
X4367801Y-8353178D01*
X4367801Y-8353178D02*
X4358277Y-8391273D01*
X4358277Y-8391273D02*
X4348753Y-8410321D01*
X4348753Y-8410321D02*
X4339229Y-8419845D01*
X4339229Y-8419845D02*
X4320182Y-8429369D01*
X4320182Y-8429369D02*
X4301134Y-8429369D01*
X4301134Y-8429369D02*
X4282087Y-8419845D01*
X4282087Y-8419845D02*
X4272563Y-8410321D01*
X4272563Y-8410321D02*
X4263039Y-8391273D01*
X4263039Y-8391273D02*
X4253515Y-8353178D01*
X4253515Y-8353178D02*
X4253515Y-8305559D01*
X4253515Y-8305559D02*
X4263039Y-8267464D01*
X4263039Y-8267464D02*
X4272563Y-8248416D01*
X4272563Y-8248416D02*
X4282087Y-8238892D01*
X4282087Y-8238892D02*
X4301134Y-8229369D01*
X4453515Y-8410321D02*
X4463039Y-8419845D01*
X4463039Y-8419845D02*
X4453515Y-8429369D01*
X4453515Y-8429369D02*
X4443991Y-8419845D01*
X4443991Y-8419845D02*
X4453515Y-8410321D01*
X4453515Y-8410321D02*
X4453515Y-8429369D01*
X4586848Y-8229369D02*
X4605896Y-8229369D01*
X4605896Y-8229369D02*
X4624944Y-8238892D01*
X4624944Y-8238892D02*
X4634468Y-8248416D01*
X4634468Y-8248416D02*
X4643991Y-8267464D01*
X4643991Y-8267464D02*
X4653515Y-8305559D01*
X4653515Y-8305559D02*
X4653515Y-8353178D01*
X4653515Y-8353178D02*
X4643991Y-8391273D01*
X4643991Y-8391273D02*
X4634468Y-8410321D01*
X4634468Y-8410321D02*
X4624944Y-8419845D01*
X4624944Y-8419845D02*
X4605896Y-8429369D01*
X4605896Y-8429369D02*
X4586848Y-8429369D01*
X4586848Y-8429369D02*
X4567801Y-8419845D01*
X4567801Y-8419845D02*
X4558277Y-8410321D01*
X4558277Y-8410321D02*
X4548753Y-8391273D01*
X4548753Y-8391273D02*
X4539229Y-8353178D01*
X4539229Y-8353178D02*
X4539229Y-8305559D01*
X4539229Y-8305559D02*
X4548753Y-8267464D01*
X4548753Y-8267464D02*
X4558277Y-8248416D01*
X4558277Y-8248416D02*
X4567801Y-8238892D01*
X4567801Y-8238892D02*
X4586848Y-8229369D01*
X4777325Y-8229369D02*
X4796372Y-8229369D01*
X4796372Y-8229369D02*
X4815420Y-8238892D01*
X4815420Y-8238892D02*
X4824944Y-8248416D01*
X4824944Y-8248416D02*
X4834468Y-8267464D01*
X4834468Y-8267464D02*
X4843991Y-8305559D01*
X4843991Y-8305559D02*
X4843991Y-8353178D01*
X4843991Y-8353178D02*
X4834468Y-8391273D01*
X4834468Y-8391273D02*
X4824944Y-8410321D01*
X4824944Y-8410321D02*
X4815420Y-8419845D01*
X4815420Y-8419845D02*
X4796372Y-8429369D01*
X4796372Y-8429369D02*
X4777325Y-8429369D01*
X4777325Y-8429369D02*
X4758277Y-8419845D01*
X4758277Y-8419845D02*
X4748753Y-8410321D01*
X4748753Y-8410321D02*
X4739229Y-8391273D01*
X4739229Y-8391273D02*
X4729706Y-8353178D01*
X4729706Y-8353178D02*
X4729706Y-8305559D01*
X4729706Y-8305559D02*
X4739229Y-8267464D01*
X4739229Y-8267464D02*
X4748753Y-8248416D01*
X4748753Y-8248416D02*
X4758277Y-8238892D01*
X4758277Y-8238892D02*
X4777325Y-8229369D01*
X4910658Y-8229369D02*
X5043991Y-8229369D01*
X5043991Y-8229369D02*
X4958277Y-8429369D01*
X5129706Y-8429369D02*
X5167801Y-8429369D01*
X5167801Y-8429369D02*
X5186849Y-8419845D01*
X5186849Y-8419845D02*
X5196372Y-8410321D01*
X5196372Y-8410321D02*
X5215420Y-8381750D01*
X5215420Y-8381750D02*
X5224944Y-8343654D01*
X5224944Y-8343654D02*
X5224944Y-8267464D01*
X5224944Y-8267464D02*
X5215420Y-8248416D01*
X5215420Y-8248416D02*
X5205896Y-8238892D01*
X5205896Y-8238892D02*
X5186849Y-8229369D01*
X5186849Y-8229369D02*
X5148753Y-8229369D01*
X5148753Y-8229369D02*
X5129706Y-8238892D01*
X5129706Y-8238892D02*
X5120182Y-8248416D01*
X5120182Y-8248416D02*
X5110658Y-8267464D01*
X5110658Y-8267464D02*
X5110658Y-8315083D01*
X5110658Y-8315083D02*
X5120182Y-8334131D01*
X5120182Y-8334131D02*
X5129706Y-8343654D01*
X5129706Y-8343654D02*
X5148753Y-8353178D01*
X5148753Y-8353178D02*
X5186849Y-8353178D01*
X5186849Y-8353178D02*
X5205896Y-8343654D01*
X5205896Y-8343654D02*
X5215420Y-8334131D01*
X5215420Y-8334131D02*
X5224944Y-8315083D01*
X5301134Y-8229369D02*
X5301134Y-8267464D01*
X5377325Y-8229369D02*
X5377325Y-8267464D01*
X5672563Y-8505559D02*
X5663039Y-8496035D01*
X5663039Y-8496035D02*
X5643991Y-8467464D01*
X5643991Y-8467464D02*
X5634468Y-8448416D01*
X5634468Y-8448416D02*
X5624944Y-8419845D01*
X5624944Y-8419845D02*
X5615420Y-8372226D01*
X5615420Y-8372226D02*
X5615420Y-8334131D01*
X5615420Y-8334131D02*
X5624944Y-8286511D01*
X5624944Y-8286511D02*
X5634468Y-8257940D01*
X5634468Y-8257940D02*
X5643991Y-8238892D01*
X5643991Y-8238892D02*
X5663039Y-8210321D01*
X5663039Y-8210321D02*
X5672563Y-8200797D01*
X5843991Y-8229369D02*
X5748753Y-8229369D01*
X5748753Y-8229369D02*
X5739229Y-8324607D01*
X5739229Y-8324607D02*
X5748753Y-8315083D01*
X5748753Y-8315083D02*
X5767801Y-8305559D01*
X5767801Y-8305559D02*
X5815420Y-8305559D01*
X5815420Y-8305559D02*
X5834468Y-8315083D01*
X5834468Y-8315083D02*
X5843991Y-8324607D01*
X5843991Y-8324607D02*
X5853515Y-8343654D01*
X5853515Y-8343654D02*
X5853515Y-8391273D01*
X5853515Y-8391273D02*
X5843991Y-8410321D01*
X5843991Y-8410321D02*
X5834468Y-8419845D01*
X5834468Y-8419845D02*
X5815420Y-8429369D01*
X5815420Y-8429369D02*
X5767801Y-8429369D01*
X5767801Y-8429369D02*
X5748753Y-8419845D01*
X5748753Y-8419845D02*
X5739229Y-8410321D01*
X5977325Y-8229369D02*
X5996372Y-8229369D01*
X5996372Y-8229369D02*
X6015420Y-8238892D01*
X6015420Y-8238892D02*
X6024944Y-8248416D01*
X6024944Y-8248416D02*
X6034468Y-8267464D01*
X6034468Y-8267464D02*
X6043991Y-8305559D01*
X6043991Y-8305559D02*
X6043991Y-8353178D01*
X6043991Y-8353178D02*
X6034468Y-8391273D01*
X6034468Y-8391273D02*
X6024944Y-8410321D01*
X6024944Y-8410321D02*
X6015420Y-8419845D01*
X6015420Y-8419845D02*
X5996372Y-8429369D01*
X5996372Y-8429369D02*
X5977325Y-8429369D01*
X5977325Y-8429369D02*
X5958277Y-8419845D01*
X5958277Y-8419845D02*
X5948753Y-8410321D01*
X5948753Y-8410321D02*
X5939229Y-8391273D01*
X5939229Y-8391273D02*
X5929706Y-8353178D01*
X5929706Y-8353178D02*
X5929706Y-8305559D01*
X5929706Y-8305559D02*
X5939229Y-8267464D01*
X5939229Y-8267464D02*
X5948753Y-8248416D01*
X5948753Y-8248416D02*
X5958277Y-8238892D01*
X5958277Y-8238892D02*
X5977325Y-8229369D01*
X6282087Y-8429369D02*
X6282087Y-8229369D01*
X6367801Y-8429369D02*
X6367801Y-8324607D01*
X6367801Y-8324607D02*
X6358277Y-8305559D01*
X6358277Y-8305559D02*
X6339230Y-8296035D01*
X6339230Y-8296035D02*
X6310658Y-8296035D01*
X6310658Y-8296035D02*
X6291610Y-8305559D01*
X6291610Y-8305559D02*
X6282087Y-8315083D01*
X6491610Y-8429369D02*
X6472563Y-8419845D01*
X6472563Y-8419845D02*
X6463039Y-8410321D01*
X6463039Y-8410321D02*
X6453515Y-8391273D01*
X6453515Y-8391273D02*
X6453515Y-8334131D01*
X6453515Y-8334131D02*
X6463039Y-8315083D01*
X6463039Y-8315083D02*
X6472563Y-8305559D01*
X6472563Y-8305559D02*
X6491610Y-8296035D01*
X6491610Y-8296035D02*
X6520182Y-8296035D01*
X6520182Y-8296035D02*
X6539230Y-8305559D01*
X6539230Y-8305559D02*
X6548753Y-8315083D01*
X6548753Y-8315083D02*
X6558277Y-8334131D01*
X6558277Y-8334131D02*
X6558277Y-8391273D01*
X6558277Y-8391273D02*
X6548753Y-8410321D01*
X6548753Y-8410321D02*
X6539230Y-8419845D01*
X6539230Y-8419845D02*
X6520182Y-8429369D01*
X6520182Y-8429369D02*
X6491610Y-8429369D01*
X6672563Y-8429369D02*
X6653515Y-8419845D01*
X6653515Y-8419845D02*
X6643991Y-8400797D01*
X6643991Y-8400797D02*
X6643991Y-8229369D01*
X6824944Y-8419845D02*
X6805896Y-8429369D01*
X6805896Y-8429369D02*
X6767801Y-8429369D01*
X6767801Y-8429369D02*
X6748753Y-8419845D01*
X6748753Y-8419845D02*
X6739230Y-8400797D01*
X6739230Y-8400797D02*
X6739230Y-8324607D01*
X6739230Y-8324607D02*
X6748753Y-8305559D01*
X6748753Y-8305559D02*
X6767801Y-8296035D01*
X6767801Y-8296035D02*
X6805896Y-8296035D01*
X6805896Y-8296035D02*
X6824944Y-8305559D01*
X6824944Y-8305559D02*
X6834468Y-8324607D01*
X6834468Y-8324607D02*
X6834468Y-8343654D01*
X6834468Y-8343654D02*
X6739230Y-8362702D01*
X6910658Y-8419845D02*
X6929706Y-8429369D01*
X6929706Y-8429369D02*
X6967801Y-8429369D01*
X6967801Y-8429369D02*
X6986849Y-8419845D01*
X6986849Y-8419845D02*
X6996372Y-8400797D01*
X6996372Y-8400797D02*
X6996372Y-8391273D01*
X6996372Y-8391273D02*
X6986849Y-8372226D01*
X6986849Y-8372226D02*
X6967801Y-8362702D01*
X6967801Y-8362702D02*
X6939230Y-8362702D01*
X6939230Y-8362702D02*
X6920182Y-8353178D01*
X6920182Y-8353178D02*
X6910658Y-8334131D01*
X6910658Y-8334131D02*
X6910658Y-8324607D01*
X6910658Y-8324607D02*
X6920182Y-8305559D01*
X6920182Y-8305559D02*
X6939230Y-8296035D01*
X6939230Y-8296035D02*
X6967801Y-8296035D01*
X6967801Y-8296035D02*
X6986849Y-8305559D01*
X7063039Y-8505559D02*
X7072563Y-8496035D01*
X7072563Y-8496035D02*
X7091611Y-8467464D01*
X7091611Y-8467464D02*
X7101134Y-8448416D01*
X7101134Y-8448416D02*
X7110658Y-8419845D01*
X7110658Y-8419845D02*
X7120182Y-8372226D01*
X7120182Y-8372226D02*
X7120182Y-8334131D01*
X7120182Y-8334131D02*
X7110658Y-8286511D01*
X7110658Y-8286511D02*
X7101134Y-8257940D01*
X7101134Y-8257940D02*
X7091611Y-8238892D01*
X7091611Y-8238892D02*
X7072563Y-8210321D01*
X7072563Y-8210321D02*
X7063039Y-8200797D01*
D12*
X2097500Y-8601885D02*
G75*
G02*
X2077500Y-8601885I-10000J0D01*
G01*
X2077500Y-8601885D02*
G75*
G02*
X2097500Y-8601885I10000J0D01*
G01*
D11*
X2396372Y-8493369D02*
X2415420Y-8493369D01*
X2415420Y-8493369D02*
X2434467Y-8502893D01*
X2434467Y-8502893D02*
X2443991Y-8512416D01*
X2443991Y-8512416D02*
X2453515Y-8531464D01*
X2453515Y-8531464D02*
X2463039Y-8569559D01*
X2463039Y-8569559D02*
X2463039Y-8617178D01*
X2463039Y-8617178D02*
X2453515Y-8655273D01*
X2453515Y-8655273D02*
X2443991Y-8674321D01*
X2443991Y-8674321D02*
X2434467Y-8683845D01*
X2434467Y-8683845D02*
X2415420Y-8693369D01*
X2415420Y-8693369D02*
X2396372Y-8693369D01*
X2396372Y-8693369D02*
X2377324Y-8683845D01*
X2377324Y-8683845D02*
X2367801Y-8674321D01*
X2367801Y-8674321D02*
X2358277Y-8655273D01*
X2358277Y-8655273D02*
X2348753Y-8617178D01*
X2348753Y-8617178D02*
X2348753Y-8569559D01*
X2348753Y-8569559D02*
X2358277Y-8531464D01*
X2358277Y-8531464D02*
X2367801Y-8512416D01*
X2367801Y-8512416D02*
X2377324Y-8502893D01*
X2377324Y-8502893D02*
X2396372Y-8493369D01*
X2548753Y-8674321D02*
X2558277Y-8683845D01*
X2558277Y-8683845D02*
X2548753Y-8693369D01*
X2548753Y-8693369D02*
X2539229Y-8683845D01*
X2539229Y-8683845D02*
X2548753Y-8674321D01*
X2548753Y-8674321D02*
X2548753Y-8693369D01*
X2634467Y-8512416D02*
X2643991Y-8502893D01*
X2643991Y-8502893D02*
X2663039Y-8493369D01*
X2663039Y-8493369D02*
X2710658Y-8493369D01*
X2710658Y-8493369D02*
X2729705Y-8502893D01*
X2729705Y-8502893D02*
X2739229Y-8512416D01*
X2739229Y-8512416D02*
X2748753Y-8531464D01*
X2748753Y-8531464D02*
X2748753Y-8550512D01*
X2748753Y-8550512D02*
X2739229Y-8579083D01*
X2739229Y-8579083D02*
X2624944Y-8693369D01*
X2624944Y-8693369D02*
X2748753Y-8693369D01*
X2872562Y-8493369D02*
X2891610Y-8493369D01*
X2891610Y-8493369D02*
X2910658Y-8502893D01*
X2910658Y-8502893D02*
X2920182Y-8512416D01*
X2920182Y-8512416D02*
X2929705Y-8531464D01*
X2929705Y-8531464D02*
X2939229Y-8569559D01*
X2939229Y-8569559D02*
X2939229Y-8617178D01*
X2939229Y-8617178D02*
X2929705Y-8655273D01*
X2929705Y-8655273D02*
X2920182Y-8674321D01*
X2920182Y-8674321D02*
X2910658Y-8683845D01*
X2910658Y-8683845D02*
X2891610Y-8693369D01*
X2891610Y-8693369D02*
X2872562Y-8693369D01*
X2872562Y-8693369D02*
X2853515Y-8683845D01*
X2853515Y-8683845D02*
X2843991Y-8674321D01*
X2843991Y-8674321D02*
X2834467Y-8655273D01*
X2834467Y-8655273D02*
X2824943Y-8617178D01*
X2824943Y-8617178D02*
X2824943Y-8569559D01*
X2824943Y-8569559D02*
X2834467Y-8531464D01*
X2834467Y-8531464D02*
X2843991Y-8512416D01*
X2843991Y-8512416D02*
X2853515Y-8502893D01*
X2853515Y-8502893D02*
X2872562Y-8493369D01*
X3063039Y-8493369D02*
X3082086Y-8493369D01*
X3082086Y-8493369D02*
X3101134Y-8502893D01*
X3101134Y-8502893D02*
X3110658Y-8512416D01*
X3110658Y-8512416D02*
X3120182Y-8531464D01*
X3120182Y-8531464D02*
X3129705Y-8569559D01*
X3129705Y-8569559D02*
X3129705Y-8617178D01*
X3129705Y-8617178D02*
X3120182Y-8655273D01*
X3120182Y-8655273D02*
X3110658Y-8674321D01*
X3110658Y-8674321D02*
X3101134Y-8683845D01*
X3101134Y-8683845D02*
X3082086Y-8693369D01*
X3082086Y-8693369D02*
X3063039Y-8693369D01*
X3063039Y-8693369D02*
X3043991Y-8683845D01*
X3043991Y-8683845D02*
X3034467Y-8674321D01*
X3034467Y-8674321D02*
X3024943Y-8655273D01*
X3024943Y-8655273D02*
X3015420Y-8617178D01*
X3015420Y-8617178D02*
X3015420Y-8569559D01*
X3015420Y-8569559D02*
X3024943Y-8531464D01*
X3024943Y-8531464D02*
X3034467Y-8512416D01*
X3034467Y-8512416D02*
X3043991Y-8502893D01*
X3043991Y-8502893D02*
X3063039Y-8493369D01*
X3215420Y-8693369D02*
X3215420Y-8560035D01*
X3215420Y-8579083D02*
X3224943Y-8569559D01*
X3224943Y-8569559D02*
X3243991Y-8560035D01*
X3243991Y-8560035D02*
X3272563Y-8560035D01*
X3272563Y-8560035D02*
X3291610Y-8569559D01*
X3291610Y-8569559D02*
X3301134Y-8588607D01*
X3301134Y-8588607D02*
X3301134Y-8693369D01*
X3301134Y-8588607D02*
X3310658Y-8569559D01*
X3310658Y-8569559D02*
X3329705Y-8560035D01*
X3329705Y-8560035D02*
X3358277Y-8560035D01*
X3358277Y-8560035D02*
X3377324Y-8569559D01*
X3377324Y-8569559D02*
X3386848Y-8588607D01*
X3386848Y-8588607D02*
X3386848Y-8693369D01*
X3482086Y-8693369D02*
X3482086Y-8560035D01*
X3482086Y-8579083D02*
X3491610Y-8569559D01*
X3491610Y-8569559D02*
X3510658Y-8560035D01*
X3510658Y-8560035D02*
X3539229Y-8560035D01*
X3539229Y-8560035D02*
X3558277Y-8569559D01*
X3558277Y-8569559D02*
X3567801Y-8588607D01*
X3567801Y-8588607D02*
X3567801Y-8693369D01*
X3567801Y-8588607D02*
X3577324Y-8569559D01*
X3577324Y-8569559D02*
X3596372Y-8560035D01*
X3596372Y-8560035D02*
X3624943Y-8560035D01*
X3624943Y-8560035D02*
X3643991Y-8569559D01*
X3643991Y-8569559D02*
X3653515Y-8588607D01*
X3653515Y-8588607D02*
X3653515Y-8693369D01*
X4043991Y-8483845D02*
X3872563Y-8740988D01*
X4301134Y-8493369D02*
X4320182Y-8493369D01*
X4320182Y-8493369D02*
X4339229Y-8502893D01*
X4339229Y-8502893D02*
X4348753Y-8512416D01*
X4348753Y-8512416D02*
X4358277Y-8531464D01*
X4358277Y-8531464D02*
X4367801Y-8569559D01*
X4367801Y-8569559D02*
X4367801Y-8617178D01*
X4367801Y-8617178D02*
X4358277Y-8655273D01*
X4358277Y-8655273D02*
X4348753Y-8674321D01*
X4348753Y-8674321D02*
X4339229Y-8683845D01*
X4339229Y-8683845D02*
X4320182Y-8693369D01*
X4320182Y-8693369D02*
X4301134Y-8693369D01*
X4301134Y-8693369D02*
X4282087Y-8683845D01*
X4282087Y-8683845D02*
X4272563Y-8674321D01*
X4272563Y-8674321D02*
X4263039Y-8655273D01*
X4263039Y-8655273D02*
X4253515Y-8617178D01*
X4253515Y-8617178D02*
X4253515Y-8569559D01*
X4253515Y-8569559D02*
X4263039Y-8531464D01*
X4263039Y-8531464D02*
X4272563Y-8512416D01*
X4272563Y-8512416D02*
X4282087Y-8502893D01*
X4282087Y-8502893D02*
X4301134Y-8493369D01*
X4453515Y-8674321D02*
X4463039Y-8683845D01*
X4463039Y-8683845D02*
X4453515Y-8693369D01*
X4453515Y-8693369D02*
X4443991Y-8683845D01*
X4443991Y-8683845D02*
X4453515Y-8674321D01*
X4453515Y-8674321D02*
X4453515Y-8693369D01*
X4586848Y-8493369D02*
X4605896Y-8493369D01*
X4605896Y-8493369D02*
X4624944Y-8502893D01*
X4624944Y-8502893D02*
X4634468Y-8512416D01*
X4634468Y-8512416D02*
X4643991Y-8531464D01*
X4643991Y-8531464D02*
X4653515Y-8569559D01*
X4653515Y-8569559D02*
X4653515Y-8617178D01*
X4653515Y-8617178D02*
X4643991Y-8655273D01*
X4643991Y-8655273D02*
X4634468Y-8674321D01*
X4634468Y-8674321D02*
X4624944Y-8683845D01*
X4624944Y-8683845D02*
X4605896Y-8693369D01*
X4605896Y-8693369D02*
X4586848Y-8693369D01*
X4586848Y-8693369D02*
X4567801Y-8683845D01*
X4567801Y-8683845D02*
X4558277Y-8674321D01*
X4558277Y-8674321D02*
X4548753Y-8655273D01*
X4548753Y-8655273D02*
X4539229Y-8617178D01*
X4539229Y-8617178D02*
X4539229Y-8569559D01*
X4539229Y-8569559D02*
X4548753Y-8531464D01*
X4548753Y-8531464D02*
X4558277Y-8512416D01*
X4558277Y-8512416D02*
X4567801Y-8502893D01*
X4567801Y-8502893D02*
X4586848Y-8493369D01*
X4777325Y-8493369D02*
X4796372Y-8493369D01*
X4796372Y-8493369D02*
X4815420Y-8502893D01*
X4815420Y-8502893D02*
X4824944Y-8512416D01*
X4824944Y-8512416D02*
X4834468Y-8531464D01*
X4834468Y-8531464D02*
X4843991Y-8569559D01*
X4843991Y-8569559D02*
X4843991Y-8617178D01*
X4843991Y-8617178D02*
X4834468Y-8655273D01*
X4834468Y-8655273D02*
X4824944Y-8674321D01*
X4824944Y-8674321D02*
X4815420Y-8683845D01*
X4815420Y-8683845D02*
X4796372Y-8693369D01*
X4796372Y-8693369D02*
X4777325Y-8693369D01*
X4777325Y-8693369D02*
X4758277Y-8683845D01*
X4758277Y-8683845D02*
X4748753Y-8674321D01*
X4748753Y-8674321D02*
X4739229Y-8655273D01*
X4739229Y-8655273D02*
X4729706Y-8617178D01*
X4729706Y-8617178D02*
X4729706Y-8569559D01*
X4729706Y-8569559D02*
X4739229Y-8531464D01*
X4739229Y-8531464D02*
X4748753Y-8512416D01*
X4748753Y-8512416D02*
X4758277Y-8502893D01*
X4758277Y-8502893D02*
X4777325Y-8493369D01*
X4910658Y-8493369D02*
X5043991Y-8493369D01*
X5043991Y-8493369D02*
X4958277Y-8693369D01*
X5129706Y-8693369D02*
X5167801Y-8693369D01*
X5167801Y-8693369D02*
X5186849Y-8683845D01*
X5186849Y-8683845D02*
X5196372Y-8674321D01*
X5196372Y-8674321D02*
X5215420Y-8645750D01*
X5215420Y-8645750D02*
X5224944Y-8607654D01*
X5224944Y-8607654D02*
X5224944Y-8531464D01*
X5224944Y-8531464D02*
X5215420Y-8512416D01*
X5215420Y-8512416D02*
X5205896Y-8502893D01*
X5205896Y-8502893D02*
X5186849Y-8493369D01*
X5186849Y-8493369D02*
X5148753Y-8493369D01*
X5148753Y-8493369D02*
X5129706Y-8502893D01*
X5129706Y-8502893D02*
X5120182Y-8512416D01*
X5120182Y-8512416D02*
X5110658Y-8531464D01*
X5110658Y-8531464D02*
X5110658Y-8579083D01*
X5110658Y-8579083D02*
X5120182Y-8598131D01*
X5120182Y-8598131D02*
X5129706Y-8607654D01*
X5129706Y-8607654D02*
X5148753Y-8617178D01*
X5148753Y-8617178D02*
X5186849Y-8617178D01*
X5186849Y-8617178D02*
X5205896Y-8607654D01*
X5205896Y-8607654D02*
X5215420Y-8598131D01*
X5215420Y-8598131D02*
X5224944Y-8579083D01*
X5301134Y-8493369D02*
X5301134Y-8531464D01*
X5377325Y-8493369D02*
X5377325Y-8531464D01*
X5672563Y-8769559D02*
X5663039Y-8760035D01*
X5663039Y-8760035D02*
X5643991Y-8731464D01*
X5643991Y-8731464D02*
X5634468Y-8712416D01*
X5634468Y-8712416D02*
X5624944Y-8683845D01*
X5624944Y-8683845D02*
X5615420Y-8636226D01*
X5615420Y-8636226D02*
X5615420Y-8598131D01*
X5615420Y-8598131D02*
X5624944Y-8550512D01*
X5624944Y-8550512D02*
X5634468Y-8521940D01*
X5634468Y-8521940D02*
X5643991Y-8502893D01*
X5643991Y-8502893D02*
X5663039Y-8474321D01*
X5663039Y-8474321D02*
X5672563Y-8464797D01*
X5834468Y-8560035D02*
X5834468Y-8693369D01*
X5786848Y-8483845D02*
X5739229Y-8626702D01*
X5739229Y-8626702D02*
X5863039Y-8626702D01*
X6091610Y-8693369D02*
X6091610Y-8493369D01*
X6177325Y-8693369D02*
X6177325Y-8588607D01*
X6177325Y-8588607D02*
X6167801Y-8569559D01*
X6167801Y-8569559D02*
X6148753Y-8560035D01*
X6148753Y-8560035D02*
X6120182Y-8560035D01*
X6120182Y-8560035D02*
X6101134Y-8569559D01*
X6101134Y-8569559D02*
X6091610Y-8579083D01*
X6301134Y-8693369D02*
X6282087Y-8683845D01*
X6282087Y-8683845D02*
X6272563Y-8674321D01*
X6272563Y-8674321D02*
X6263039Y-8655273D01*
X6263039Y-8655273D02*
X6263039Y-8598131D01*
X6263039Y-8598131D02*
X6272563Y-8579083D01*
X6272563Y-8579083D02*
X6282087Y-8569559D01*
X6282087Y-8569559D02*
X6301134Y-8560035D01*
X6301134Y-8560035D02*
X6329706Y-8560035D01*
X6329706Y-8560035D02*
X6348753Y-8569559D01*
X6348753Y-8569559D02*
X6358277Y-8579083D01*
X6358277Y-8579083D02*
X6367801Y-8598131D01*
X6367801Y-8598131D02*
X6367801Y-8655273D01*
X6367801Y-8655273D02*
X6358277Y-8674321D01*
X6358277Y-8674321D02*
X6348753Y-8683845D01*
X6348753Y-8683845D02*
X6329706Y-8693369D01*
X6329706Y-8693369D02*
X6301134Y-8693369D01*
X6482087Y-8693369D02*
X6463039Y-8683845D01*
X6463039Y-8683845D02*
X6453515Y-8664797D01*
X6453515Y-8664797D02*
X6453515Y-8493369D01*
X6634468Y-8683845D02*
X6615420Y-8693369D01*
X6615420Y-8693369D02*
X6577325Y-8693369D01*
X6577325Y-8693369D02*
X6558277Y-8683845D01*
X6558277Y-8683845D02*
X6548753Y-8664797D01*
X6548753Y-8664797D02*
X6548753Y-8588607D01*
X6548753Y-8588607D02*
X6558277Y-8569559D01*
X6558277Y-8569559D02*
X6577325Y-8560035D01*
X6577325Y-8560035D02*
X6615420Y-8560035D01*
X6615420Y-8560035D02*
X6634468Y-8569559D01*
X6634468Y-8569559D02*
X6643991Y-8588607D01*
X6643991Y-8588607D02*
X6643991Y-8607654D01*
X6643991Y-8607654D02*
X6548753Y-8626702D01*
X6720182Y-8683845D02*
X6739230Y-8693369D01*
X6739230Y-8693369D02*
X6777325Y-8693369D01*
X6777325Y-8693369D02*
X6796372Y-8683845D01*
X6796372Y-8683845D02*
X6805896Y-8664797D01*
X6805896Y-8664797D02*
X6805896Y-8655273D01*
X6805896Y-8655273D02*
X6796372Y-8636226D01*
X6796372Y-8636226D02*
X6777325Y-8626702D01*
X6777325Y-8626702D02*
X6748753Y-8626702D01*
X6748753Y-8626702D02*
X6729706Y-8617178D01*
X6729706Y-8617178D02*
X6720182Y-8598131D01*
X6720182Y-8598131D02*
X6720182Y-8588607D01*
X6720182Y-8588607D02*
X6729706Y-8569559D01*
X6729706Y-8569559D02*
X6748753Y-8560035D01*
X6748753Y-8560035D02*
X6777325Y-8560035D01*
X6777325Y-8560035D02*
X6796372Y-8569559D01*
X6872563Y-8769559D02*
X6882087Y-8760035D01*
X6882087Y-8760035D02*
X6901134Y-8731464D01*
X6901134Y-8731464D02*
X6910658Y-8712416D01*
X6910658Y-8712416D02*
X6920182Y-8683845D01*
X6920182Y-8683845D02*
X6929706Y-8636226D01*
X6929706Y-8636226D02*
X6929706Y-8598131D01*
X6929706Y-8598131D02*
X6920182Y-8550512D01*
X6920182Y-8550512D02*
X6910658Y-8521940D01*
X6910658Y-8521940D02*
X6901134Y-8502893D01*
X6901134Y-8502893D02*
X6882087Y-8474321D01*
X6882087Y-8474321D02*
X6872563Y-8464797D01*
D12*
X2082500Y-8850885D02*
X2082500Y-8880885D01*
X2067500Y-8865885D02*
X2097500Y-8865885D01*
D11*
X2396372Y-8757369D02*
X2415420Y-8757369D01*
X2415420Y-8757369D02*
X2434467Y-8766893D01*
X2434467Y-8766893D02*
X2443991Y-8776416D01*
X2443991Y-8776416D02*
X2453515Y-8795464D01*
X2453515Y-8795464D02*
X2463039Y-8833559D01*
X2463039Y-8833559D02*
X2463039Y-8881178D01*
X2463039Y-8881178D02*
X2453515Y-8919273D01*
X2453515Y-8919273D02*
X2443991Y-8938321D01*
X2443991Y-8938321D02*
X2434467Y-8947845D01*
X2434467Y-8947845D02*
X2415420Y-8957369D01*
X2415420Y-8957369D02*
X2396372Y-8957369D01*
X2396372Y-8957369D02*
X2377324Y-8947845D01*
X2377324Y-8947845D02*
X2367801Y-8938321D01*
X2367801Y-8938321D02*
X2358277Y-8919273D01*
X2358277Y-8919273D02*
X2348753Y-8881178D01*
X2348753Y-8881178D02*
X2348753Y-8833559D01*
X2348753Y-8833559D02*
X2358277Y-8795464D01*
X2358277Y-8795464D02*
X2367801Y-8776416D01*
X2367801Y-8776416D02*
X2377324Y-8766893D01*
X2377324Y-8766893D02*
X2396372Y-8757369D01*
X2548753Y-8938321D02*
X2558277Y-8947845D01*
X2558277Y-8947845D02*
X2548753Y-8957369D01*
X2548753Y-8957369D02*
X2539229Y-8947845D01*
X2539229Y-8947845D02*
X2548753Y-8938321D01*
X2548753Y-8938321D02*
X2548753Y-8957369D01*
X2624944Y-8757369D02*
X2748753Y-8757369D01*
X2748753Y-8757369D02*
X2682086Y-8833559D01*
X2682086Y-8833559D02*
X2710658Y-8833559D01*
X2710658Y-8833559D02*
X2729705Y-8843083D01*
X2729705Y-8843083D02*
X2739229Y-8852607D01*
X2739229Y-8852607D02*
X2748753Y-8871654D01*
X2748753Y-8871654D02*
X2748753Y-8919273D01*
X2748753Y-8919273D02*
X2739229Y-8938321D01*
X2739229Y-8938321D02*
X2729705Y-8947845D01*
X2729705Y-8947845D02*
X2710658Y-8957369D01*
X2710658Y-8957369D02*
X2653515Y-8957369D01*
X2653515Y-8957369D02*
X2634467Y-8947845D01*
X2634467Y-8947845D02*
X2624944Y-8938321D01*
X2872562Y-8757369D02*
X2891610Y-8757369D01*
X2891610Y-8757369D02*
X2910658Y-8766893D01*
X2910658Y-8766893D02*
X2920182Y-8776416D01*
X2920182Y-8776416D02*
X2929705Y-8795464D01*
X2929705Y-8795464D02*
X2939229Y-8833559D01*
X2939229Y-8833559D02*
X2939229Y-8881178D01*
X2939229Y-8881178D02*
X2929705Y-8919273D01*
X2929705Y-8919273D02*
X2920182Y-8938321D01*
X2920182Y-8938321D02*
X2910658Y-8947845D01*
X2910658Y-8947845D02*
X2891610Y-8957369D01*
X2891610Y-8957369D02*
X2872562Y-8957369D01*
X2872562Y-8957369D02*
X2853515Y-8947845D01*
X2853515Y-8947845D02*
X2843991Y-8938321D01*
X2843991Y-8938321D02*
X2834467Y-8919273D01*
X2834467Y-8919273D02*
X2824943Y-8881178D01*
X2824943Y-8881178D02*
X2824943Y-8833559D01*
X2824943Y-8833559D02*
X2834467Y-8795464D01*
X2834467Y-8795464D02*
X2843991Y-8776416D01*
X2843991Y-8776416D02*
X2853515Y-8766893D01*
X2853515Y-8766893D02*
X2872562Y-8757369D01*
X3063039Y-8757369D02*
X3082086Y-8757369D01*
X3082086Y-8757369D02*
X3101134Y-8766893D01*
X3101134Y-8766893D02*
X3110658Y-8776416D01*
X3110658Y-8776416D02*
X3120182Y-8795464D01*
X3120182Y-8795464D02*
X3129705Y-8833559D01*
X3129705Y-8833559D02*
X3129705Y-8881178D01*
X3129705Y-8881178D02*
X3120182Y-8919273D01*
X3120182Y-8919273D02*
X3110658Y-8938321D01*
X3110658Y-8938321D02*
X3101134Y-8947845D01*
X3101134Y-8947845D02*
X3082086Y-8957369D01*
X3082086Y-8957369D02*
X3063039Y-8957369D01*
X3063039Y-8957369D02*
X3043991Y-8947845D01*
X3043991Y-8947845D02*
X3034467Y-8938321D01*
X3034467Y-8938321D02*
X3024943Y-8919273D01*
X3024943Y-8919273D02*
X3015420Y-8881178D01*
X3015420Y-8881178D02*
X3015420Y-8833559D01*
X3015420Y-8833559D02*
X3024943Y-8795464D01*
X3024943Y-8795464D02*
X3034467Y-8776416D01*
X3034467Y-8776416D02*
X3043991Y-8766893D01*
X3043991Y-8766893D02*
X3063039Y-8757369D01*
X3215420Y-8957369D02*
X3215420Y-8824035D01*
X3215420Y-8843083D02*
X3224943Y-8833559D01*
X3224943Y-8833559D02*
X3243991Y-8824035D01*
X3243991Y-8824035D02*
X3272563Y-8824035D01*
X3272563Y-8824035D02*
X3291610Y-8833559D01*
X3291610Y-8833559D02*
X3301134Y-8852607D01*
X3301134Y-8852607D02*
X3301134Y-8957369D01*
X3301134Y-8852607D02*
X3310658Y-8833559D01*
X3310658Y-8833559D02*
X3329705Y-8824035D01*
X3329705Y-8824035D02*
X3358277Y-8824035D01*
X3358277Y-8824035D02*
X3377324Y-8833559D01*
X3377324Y-8833559D02*
X3386848Y-8852607D01*
X3386848Y-8852607D02*
X3386848Y-8957369D01*
X3482086Y-8957369D02*
X3482086Y-8824035D01*
X3482086Y-8843083D02*
X3491610Y-8833559D01*
X3491610Y-8833559D02*
X3510658Y-8824035D01*
X3510658Y-8824035D02*
X3539229Y-8824035D01*
X3539229Y-8824035D02*
X3558277Y-8833559D01*
X3558277Y-8833559D02*
X3567801Y-8852607D01*
X3567801Y-8852607D02*
X3567801Y-8957369D01*
X3567801Y-8852607D02*
X3577324Y-8833559D01*
X3577324Y-8833559D02*
X3596372Y-8824035D01*
X3596372Y-8824035D02*
X3624943Y-8824035D01*
X3624943Y-8824035D02*
X3643991Y-8833559D01*
X3643991Y-8833559D02*
X3653515Y-8852607D01*
X3653515Y-8852607D02*
X3653515Y-8957369D01*
X4043991Y-8747845D02*
X3872563Y-9004988D01*
X4301134Y-8757369D02*
X4320182Y-8757369D01*
X4320182Y-8757369D02*
X4339229Y-8766893D01*
X4339229Y-8766893D02*
X4348753Y-8776416D01*
X4348753Y-8776416D02*
X4358277Y-8795464D01*
X4358277Y-8795464D02*
X4367801Y-8833559D01*
X4367801Y-8833559D02*
X4367801Y-8881178D01*
X4367801Y-8881178D02*
X4358277Y-8919273D01*
X4358277Y-8919273D02*
X4348753Y-8938321D01*
X4348753Y-8938321D02*
X4339229Y-8947845D01*
X4339229Y-8947845D02*
X4320182Y-8957369D01*
X4320182Y-8957369D02*
X4301134Y-8957369D01*
X4301134Y-8957369D02*
X4282087Y-8947845D01*
X4282087Y-8947845D02*
X4272563Y-8938321D01*
X4272563Y-8938321D02*
X4263039Y-8919273D01*
X4263039Y-8919273D02*
X4253515Y-8881178D01*
X4253515Y-8881178D02*
X4253515Y-8833559D01*
X4253515Y-8833559D02*
X4263039Y-8795464D01*
X4263039Y-8795464D02*
X4272563Y-8776416D01*
X4272563Y-8776416D02*
X4282087Y-8766893D01*
X4282087Y-8766893D02*
X4301134Y-8757369D01*
X4453515Y-8938321D02*
X4463039Y-8947845D01*
X4463039Y-8947845D02*
X4453515Y-8957369D01*
X4453515Y-8957369D02*
X4443991Y-8947845D01*
X4443991Y-8947845D02*
X4453515Y-8938321D01*
X4453515Y-8938321D02*
X4453515Y-8957369D01*
X4586848Y-8757369D02*
X4605896Y-8757369D01*
X4605896Y-8757369D02*
X4624944Y-8766893D01*
X4624944Y-8766893D02*
X4634468Y-8776416D01*
X4634468Y-8776416D02*
X4643991Y-8795464D01*
X4643991Y-8795464D02*
X4653515Y-8833559D01*
X4653515Y-8833559D02*
X4653515Y-8881178D01*
X4653515Y-8881178D02*
X4643991Y-8919273D01*
X4643991Y-8919273D02*
X4634468Y-8938321D01*
X4634468Y-8938321D02*
X4624944Y-8947845D01*
X4624944Y-8947845D02*
X4605896Y-8957369D01*
X4605896Y-8957369D02*
X4586848Y-8957369D01*
X4586848Y-8957369D02*
X4567801Y-8947845D01*
X4567801Y-8947845D02*
X4558277Y-8938321D01*
X4558277Y-8938321D02*
X4548753Y-8919273D01*
X4548753Y-8919273D02*
X4539229Y-8881178D01*
X4539229Y-8881178D02*
X4539229Y-8833559D01*
X4539229Y-8833559D02*
X4548753Y-8795464D01*
X4548753Y-8795464D02*
X4558277Y-8776416D01*
X4558277Y-8776416D02*
X4567801Y-8766893D01*
X4567801Y-8766893D02*
X4586848Y-8757369D01*
X4843991Y-8957369D02*
X4729706Y-8957369D01*
X4786848Y-8957369D02*
X4786848Y-8757369D01*
X4786848Y-8757369D02*
X4767801Y-8785940D01*
X4767801Y-8785940D02*
X4748753Y-8804988D01*
X4748753Y-8804988D02*
X4729706Y-8814512D01*
X5034468Y-8957369D02*
X4920182Y-8957369D01*
X4977325Y-8957369D02*
X4977325Y-8757369D01*
X4977325Y-8757369D02*
X4958277Y-8785940D01*
X4958277Y-8785940D02*
X4939229Y-8804988D01*
X4939229Y-8804988D02*
X4920182Y-8814512D01*
X5148753Y-8843083D02*
X5129706Y-8833559D01*
X5129706Y-8833559D02*
X5120182Y-8824035D01*
X5120182Y-8824035D02*
X5110658Y-8804988D01*
X5110658Y-8804988D02*
X5110658Y-8795464D01*
X5110658Y-8795464D02*
X5120182Y-8776416D01*
X5120182Y-8776416D02*
X5129706Y-8766893D01*
X5129706Y-8766893D02*
X5148753Y-8757369D01*
X5148753Y-8757369D02*
X5186849Y-8757369D01*
X5186849Y-8757369D02*
X5205896Y-8766893D01*
X5205896Y-8766893D02*
X5215420Y-8776416D01*
X5215420Y-8776416D02*
X5224944Y-8795464D01*
X5224944Y-8795464D02*
X5224944Y-8804988D01*
X5224944Y-8804988D02*
X5215420Y-8824035D01*
X5215420Y-8824035D02*
X5205896Y-8833559D01*
X5205896Y-8833559D02*
X5186849Y-8843083D01*
X5186849Y-8843083D02*
X5148753Y-8843083D01*
X5148753Y-8843083D02*
X5129706Y-8852607D01*
X5129706Y-8852607D02*
X5120182Y-8862131D01*
X5120182Y-8862131D02*
X5110658Y-8881178D01*
X5110658Y-8881178D02*
X5110658Y-8919273D01*
X5110658Y-8919273D02*
X5120182Y-8938321D01*
X5120182Y-8938321D02*
X5129706Y-8947845D01*
X5129706Y-8947845D02*
X5148753Y-8957369D01*
X5148753Y-8957369D02*
X5186849Y-8957369D01*
X5186849Y-8957369D02*
X5205896Y-8947845D01*
X5205896Y-8947845D02*
X5215420Y-8938321D01*
X5215420Y-8938321D02*
X5224944Y-8919273D01*
X5224944Y-8919273D02*
X5224944Y-8881178D01*
X5224944Y-8881178D02*
X5215420Y-8862131D01*
X5215420Y-8862131D02*
X5205896Y-8852607D01*
X5205896Y-8852607D02*
X5186849Y-8843083D01*
X5301134Y-8757369D02*
X5301134Y-8795464D01*
X5377325Y-8757369D02*
X5377325Y-8795464D01*
X5672563Y-9033559D02*
X5663039Y-9024035D01*
X5663039Y-9024035D02*
X5643991Y-8995464D01*
X5643991Y-8995464D02*
X5634468Y-8976416D01*
X5634468Y-8976416D02*
X5624944Y-8947845D01*
X5624944Y-8947845D02*
X5615420Y-8900226D01*
X5615420Y-8900226D02*
X5615420Y-8862131D01*
X5615420Y-8862131D02*
X5624944Y-8814512D01*
X5624944Y-8814512D02*
X5634468Y-8785940D01*
X5634468Y-8785940D02*
X5643991Y-8766893D01*
X5643991Y-8766893D02*
X5663039Y-8738321D01*
X5663039Y-8738321D02*
X5672563Y-8728797D01*
X5853515Y-8957369D02*
X5739229Y-8957369D01*
X5796372Y-8957369D02*
X5796372Y-8757369D01*
X5796372Y-8757369D02*
X5777325Y-8785940D01*
X5777325Y-8785940D02*
X5758277Y-8804988D01*
X5758277Y-8804988D02*
X5739229Y-8814512D01*
X5967801Y-8843083D02*
X5948753Y-8833559D01*
X5948753Y-8833559D02*
X5939229Y-8824035D01*
X5939229Y-8824035D02*
X5929706Y-8804988D01*
X5929706Y-8804988D02*
X5929706Y-8795464D01*
X5929706Y-8795464D02*
X5939229Y-8776416D01*
X5939229Y-8776416D02*
X5948753Y-8766893D01*
X5948753Y-8766893D02*
X5967801Y-8757369D01*
X5967801Y-8757369D02*
X6005896Y-8757369D01*
X6005896Y-8757369D02*
X6024944Y-8766893D01*
X6024944Y-8766893D02*
X6034468Y-8776416D01*
X6034468Y-8776416D02*
X6043991Y-8795464D01*
X6043991Y-8795464D02*
X6043991Y-8804988D01*
X6043991Y-8804988D02*
X6034468Y-8824035D01*
X6034468Y-8824035D02*
X6024944Y-8833559D01*
X6024944Y-8833559D02*
X6005896Y-8843083D01*
X6005896Y-8843083D02*
X5967801Y-8843083D01*
X5967801Y-8843083D02*
X5948753Y-8852607D01*
X5948753Y-8852607D02*
X5939229Y-8862131D01*
X5939229Y-8862131D02*
X5929706Y-8881178D01*
X5929706Y-8881178D02*
X5929706Y-8919273D01*
X5929706Y-8919273D02*
X5939229Y-8938321D01*
X5939229Y-8938321D02*
X5948753Y-8947845D01*
X5948753Y-8947845D02*
X5967801Y-8957369D01*
X5967801Y-8957369D02*
X6005896Y-8957369D01*
X6005896Y-8957369D02*
X6024944Y-8947845D01*
X6024944Y-8947845D02*
X6034468Y-8938321D01*
X6034468Y-8938321D02*
X6043991Y-8919273D01*
X6043991Y-8919273D02*
X6043991Y-8881178D01*
X6043991Y-8881178D02*
X6034468Y-8862131D01*
X6034468Y-8862131D02*
X6024944Y-8852607D01*
X6024944Y-8852607D02*
X6005896Y-8843083D01*
X6120182Y-8776416D02*
X6129706Y-8766893D01*
X6129706Y-8766893D02*
X6148753Y-8757369D01*
X6148753Y-8757369D02*
X6196372Y-8757369D01*
X6196372Y-8757369D02*
X6215420Y-8766893D01*
X6215420Y-8766893D02*
X6224944Y-8776416D01*
X6224944Y-8776416D02*
X6234468Y-8795464D01*
X6234468Y-8795464D02*
X6234468Y-8814512D01*
X6234468Y-8814512D02*
X6224944Y-8843083D01*
X6224944Y-8843083D02*
X6110658Y-8957369D01*
X6110658Y-8957369D02*
X6234468Y-8957369D01*
X6472563Y-8957369D02*
X6472563Y-8757369D01*
X6558277Y-8957369D02*
X6558277Y-8852607D01*
X6558277Y-8852607D02*
X6548753Y-8833559D01*
X6548753Y-8833559D02*
X6529706Y-8824035D01*
X6529706Y-8824035D02*
X6501134Y-8824035D01*
X6501134Y-8824035D02*
X6482087Y-8833559D01*
X6482087Y-8833559D02*
X6472563Y-8843083D01*
X6682087Y-8957369D02*
X6663039Y-8947845D01*
X6663039Y-8947845D02*
X6653515Y-8938321D01*
X6653515Y-8938321D02*
X6643991Y-8919273D01*
X6643991Y-8919273D02*
X6643991Y-8862131D01*
X6643991Y-8862131D02*
X6653515Y-8843083D01*
X6653515Y-8843083D02*
X6663039Y-8833559D01*
X6663039Y-8833559D02*
X6682087Y-8824035D01*
X6682087Y-8824035D02*
X6710658Y-8824035D01*
X6710658Y-8824035D02*
X6729706Y-8833559D01*
X6729706Y-8833559D02*
X6739230Y-8843083D01*
X6739230Y-8843083D02*
X6748753Y-8862131D01*
X6748753Y-8862131D02*
X6748753Y-8919273D01*
X6748753Y-8919273D02*
X6739230Y-8938321D01*
X6739230Y-8938321D02*
X6729706Y-8947845D01*
X6729706Y-8947845D02*
X6710658Y-8957369D01*
X6710658Y-8957369D02*
X6682087Y-8957369D01*
X6863039Y-8957369D02*
X6843991Y-8947845D01*
X6843991Y-8947845D02*
X6834468Y-8928797D01*
X6834468Y-8928797D02*
X6834468Y-8757369D01*
X7015420Y-8947845D02*
X6996372Y-8957369D01*
X6996372Y-8957369D02*
X6958277Y-8957369D01*
X6958277Y-8957369D02*
X6939230Y-8947845D01*
X6939230Y-8947845D02*
X6929706Y-8928797D01*
X6929706Y-8928797D02*
X6929706Y-8852607D01*
X6929706Y-8852607D02*
X6939230Y-8833559D01*
X6939230Y-8833559D02*
X6958277Y-8824035D01*
X6958277Y-8824035D02*
X6996372Y-8824035D01*
X6996372Y-8824035D02*
X7015420Y-8833559D01*
X7015420Y-8833559D02*
X7024944Y-8852607D01*
X7024944Y-8852607D02*
X7024944Y-8871654D01*
X7024944Y-8871654D02*
X6929706Y-8890702D01*
X7101134Y-8947845D02*
X7120182Y-8957369D01*
X7120182Y-8957369D02*
X7158277Y-8957369D01*
X7158277Y-8957369D02*
X7177325Y-8947845D01*
X7177325Y-8947845D02*
X7186849Y-8928797D01*
X7186849Y-8928797D02*
X7186849Y-8919273D01*
X7186849Y-8919273D02*
X7177325Y-8900226D01*
X7177325Y-8900226D02*
X7158277Y-8890702D01*
X7158277Y-8890702D02*
X7129706Y-8890702D01*
X7129706Y-8890702D02*
X7110658Y-8881178D01*
X7110658Y-8881178D02*
X7101134Y-8862131D01*
X7101134Y-8862131D02*
X7101134Y-8852607D01*
X7101134Y-8852607D02*
X7110658Y-8833559D01*
X7110658Y-8833559D02*
X7129706Y-8824035D01*
X7129706Y-8824035D02*
X7158277Y-8824035D01*
X7158277Y-8824035D02*
X7177325Y-8833559D01*
X7253515Y-9033559D02*
X7263039Y-9024035D01*
X7263039Y-9024035D02*
X7282087Y-8995464D01*
X7282087Y-8995464D02*
X7291611Y-8976416D01*
X7291611Y-8976416D02*
X7301134Y-8947845D01*
X7301134Y-8947845D02*
X7310658Y-8900226D01*
X7310658Y-8900226D02*
X7310658Y-8862131D01*
X7310658Y-8862131D02*
X7301134Y-8814512D01*
X7301134Y-8814512D02*
X7291611Y-8785940D01*
X7291611Y-8785940D02*
X7282087Y-8766893D01*
X7282087Y-8766893D02*
X7263039Y-8738321D01*
X7263039Y-8738321D02*
X7253515Y-8728797D01*
D12*
X2088713Y-9151098D02*
X2088713Y-9108672D01*
X2046287Y-9108672D01*
X2046287Y-9151098D01*
X2088713Y-9151098D01*
D11*
X2396372Y-9021369D02*
X2415420Y-9021369D01*
X2415420Y-9021369D02*
X2434467Y-9030893D01*
X2434467Y-9030893D02*
X2443991Y-9040416D01*
X2443991Y-9040416D02*
X2453515Y-9059464D01*
X2453515Y-9059464D02*
X2463039Y-9097559D01*
X2463039Y-9097559D02*
X2463039Y-9145178D01*
X2463039Y-9145178D02*
X2453515Y-9183273D01*
X2453515Y-9183273D02*
X2443991Y-9202321D01*
X2443991Y-9202321D02*
X2434467Y-9211845D01*
X2434467Y-9211845D02*
X2415420Y-9221369D01*
X2415420Y-9221369D02*
X2396372Y-9221369D01*
X2396372Y-9221369D02*
X2377324Y-9211845D01*
X2377324Y-9211845D02*
X2367801Y-9202321D01*
X2367801Y-9202321D02*
X2358277Y-9183273D01*
X2358277Y-9183273D02*
X2348753Y-9145178D01*
X2348753Y-9145178D02*
X2348753Y-9097559D01*
X2348753Y-9097559D02*
X2358277Y-9059464D01*
X2358277Y-9059464D02*
X2367801Y-9040416D01*
X2367801Y-9040416D02*
X2377324Y-9030893D01*
X2377324Y-9030893D02*
X2396372Y-9021369D01*
X2548753Y-9202321D02*
X2558277Y-9211845D01*
X2558277Y-9211845D02*
X2548753Y-9221369D01*
X2548753Y-9221369D02*
X2539229Y-9211845D01*
X2539229Y-9211845D02*
X2548753Y-9202321D01*
X2548753Y-9202321D02*
X2548753Y-9221369D01*
X2729705Y-9021369D02*
X2691610Y-9021369D01*
X2691610Y-9021369D02*
X2672563Y-9030893D01*
X2672563Y-9030893D02*
X2663039Y-9040416D01*
X2663039Y-9040416D02*
X2643991Y-9068988D01*
X2643991Y-9068988D02*
X2634467Y-9107083D01*
X2634467Y-9107083D02*
X2634467Y-9183273D01*
X2634467Y-9183273D02*
X2643991Y-9202321D01*
X2643991Y-9202321D02*
X2653515Y-9211845D01*
X2653515Y-9211845D02*
X2672563Y-9221369D01*
X2672563Y-9221369D02*
X2710658Y-9221369D01*
X2710658Y-9221369D02*
X2729705Y-9211845D01*
X2729705Y-9211845D02*
X2739229Y-9202321D01*
X2739229Y-9202321D02*
X2748753Y-9183273D01*
X2748753Y-9183273D02*
X2748753Y-9135654D01*
X2748753Y-9135654D02*
X2739229Y-9116607D01*
X2739229Y-9116607D02*
X2729705Y-9107083D01*
X2729705Y-9107083D02*
X2710658Y-9097559D01*
X2710658Y-9097559D02*
X2672563Y-9097559D01*
X2672563Y-9097559D02*
X2653515Y-9107083D01*
X2653515Y-9107083D02*
X2643991Y-9116607D01*
X2643991Y-9116607D02*
X2634467Y-9135654D01*
X2872562Y-9021369D02*
X2891610Y-9021369D01*
X2891610Y-9021369D02*
X2910658Y-9030893D01*
X2910658Y-9030893D02*
X2920182Y-9040416D01*
X2920182Y-9040416D02*
X2929705Y-9059464D01*
X2929705Y-9059464D02*
X2939229Y-9097559D01*
X2939229Y-9097559D02*
X2939229Y-9145178D01*
X2939229Y-9145178D02*
X2929705Y-9183273D01*
X2929705Y-9183273D02*
X2920182Y-9202321D01*
X2920182Y-9202321D02*
X2910658Y-9211845D01*
X2910658Y-9211845D02*
X2891610Y-9221369D01*
X2891610Y-9221369D02*
X2872562Y-9221369D01*
X2872562Y-9221369D02*
X2853515Y-9211845D01*
X2853515Y-9211845D02*
X2843991Y-9202321D01*
X2843991Y-9202321D02*
X2834467Y-9183273D01*
X2834467Y-9183273D02*
X2824943Y-9145178D01*
X2824943Y-9145178D02*
X2824943Y-9097559D01*
X2824943Y-9097559D02*
X2834467Y-9059464D01*
X2834467Y-9059464D02*
X2843991Y-9040416D01*
X2843991Y-9040416D02*
X2853515Y-9030893D01*
X2853515Y-9030893D02*
X2872562Y-9021369D01*
X3063039Y-9021369D02*
X3082086Y-9021369D01*
X3082086Y-9021369D02*
X3101134Y-9030893D01*
X3101134Y-9030893D02*
X3110658Y-9040416D01*
X3110658Y-9040416D02*
X3120182Y-9059464D01*
X3120182Y-9059464D02*
X3129705Y-9097559D01*
X3129705Y-9097559D02*
X3129705Y-9145178D01*
X3129705Y-9145178D02*
X3120182Y-9183273D01*
X3120182Y-9183273D02*
X3110658Y-9202321D01*
X3110658Y-9202321D02*
X3101134Y-9211845D01*
X3101134Y-9211845D02*
X3082086Y-9221369D01*
X3082086Y-9221369D02*
X3063039Y-9221369D01*
X3063039Y-9221369D02*
X3043991Y-9211845D01*
X3043991Y-9211845D02*
X3034467Y-9202321D01*
X3034467Y-9202321D02*
X3024943Y-9183273D01*
X3024943Y-9183273D02*
X3015420Y-9145178D01*
X3015420Y-9145178D02*
X3015420Y-9097559D01*
X3015420Y-9097559D02*
X3024943Y-9059464D01*
X3024943Y-9059464D02*
X3034467Y-9040416D01*
X3034467Y-9040416D02*
X3043991Y-9030893D01*
X3043991Y-9030893D02*
X3063039Y-9021369D01*
X3215420Y-9221369D02*
X3215420Y-9088035D01*
X3215420Y-9107083D02*
X3224943Y-9097559D01*
X3224943Y-9097559D02*
X3243991Y-9088035D01*
X3243991Y-9088035D02*
X3272563Y-9088035D01*
X3272563Y-9088035D02*
X3291610Y-9097559D01*
X3291610Y-9097559D02*
X3301134Y-9116607D01*
X3301134Y-9116607D02*
X3301134Y-9221369D01*
X3301134Y-9116607D02*
X3310658Y-9097559D01*
X3310658Y-9097559D02*
X3329705Y-9088035D01*
X3329705Y-9088035D02*
X3358277Y-9088035D01*
X3358277Y-9088035D02*
X3377324Y-9097559D01*
X3377324Y-9097559D02*
X3386848Y-9116607D01*
X3386848Y-9116607D02*
X3386848Y-9221369D01*
X3482086Y-9221369D02*
X3482086Y-9088035D01*
X3482086Y-9107083D02*
X3491610Y-9097559D01*
X3491610Y-9097559D02*
X3510658Y-9088035D01*
X3510658Y-9088035D02*
X3539229Y-9088035D01*
X3539229Y-9088035D02*
X3558277Y-9097559D01*
X3558277Y-9097559D02*
X3567801Y-9116607D01*
X3567801Y-9116607D02*
X3567801Y-9221369D01*
X3567801Y-9116607D02*
X3577324Y-9097559D01*
X3577324Y-9097559D02*
X3596372Y-9088035D01*
X3596372Y-9088035D02*
X3624943Y-9088035D01*
X3624943Y-9088035D02*
X3643991Y-9097559D01*
X3643991Y-9097559D02*
X3653515Y-9116607D01*
X3653515Y-9116607D02*
X3653515Y-9221369D01*
X4043991Y-9011845D02*
X3872563Y-9268988D01*
X4301134Y-9021369D02*
X4320182Y-9021369D01*
X4320182Y-9021369D02*
X4339229Y-9030893D01*
X4339229Y-9030893D02*
X4348753Y-9040416D01*
X4348753Y-9040416D02*
X4358277Y-9059464D01*
X4358277Y-9059464D02*
X4367801Y-9097559D01*
X4367801Y-9097559D02*
X4367801Y-9145178D01*
X4367801Y-9145178D02*
X4358277Y-9183273D01*
X4358277Y-9183273D02*
X4348753Y-9202321D01*
X4348753Y-9202321D02*
X4339229Y-9211845D01*
X4339229Y-9211845D02*
X4320182Y-9221369D01*
X4320182Y-9221369D02*
X4301134Y-9221369D01*
X4301134Y-9221369D02*
X4282087Y-9211845D01*
X4282087Y-9211845D02*
X4272563Y-9202321D01*
X4272563Y-9202321D02*
X4263039Y-9183273D01*
X4263039Y-9183273D02*
X4253515Y-9145178D01*
X4253515Y-9145178D02*
X4253515Y-9097559D01*
X4253515Y-9097559D02*
X4263039Y-9059464D01*
X4263039Y-9059464D02*
X4272563Y-9040416D01*
X4272563Y-9040416D02*
X4282087Y-9030893D01*
X4282087Y-9030893D02*
X4301134Y-9021369D01*
X4453515Y-9202321D02*
X4463039Y-9211845D01*
X4463039Y-9211845D02*
X4453515Y-9221369D01*
X4453515Y-9221369D02*
X4443991Y-9211845D01*
X4443991Y-9211845D02*
X4453515Y-9202321D01*
X4453515Y-9202321D02*
X4453515Y-9221369D01*
X4586848Y-9021369D02*
X4605896Y-9021369D01*
X4605896Y-9021369D02*
X4624944Y-9030893D01*
X4624944Y-9030893D02*
X4634468Y-9040416D01*
X4634468Y-9040416D02*
X4643991Y-9059464D01*
X4643991Y-9059464D02*
X4653515Y-9097559D01*
X4653515Y-9097559D02*
X4653515Y-9145178D01*
X4653515Y-9145178D02*
X4643991Y-9183273D01*
X4643991Y-9183273D02*
X4634468Y-9202321D01*
X4634468Y-9202321D02*
X4624944Y-9211845D01*
X4624944Y-9211845D02*
X4605896Y-9221369D01*
X4605896Y-9221369D02*
X4586848Y-9221369D01*
X4586848Y-9221369D02*
X4567801Y-9211845D01*
X4567801Y-9211845D02*
X4558277Y-9202321D01*
X4558277Y-9202321D02*
X4548753Y-9183273D01*
X4548753Y-9183273D02*
X4539229Y-9145178D01*
X4539229Y-9145178D02*
X4539229Y-9097559D01*
X4539229Y-9097559D02*
X4548753Y-9059464D01*
X4548753Y-9059464D02*
X4558277Y-9040416D01*
X4558277Y-9040416D02*
X4567801Y-9030893D01*
X4567801Y-9030893D02*
X4586848Y-9021369D01*
X4729706Y-9040416D02*
X4739229Y-9030893D01*
X4739229Y-9030893D02*
X4758277Y-9021369D01*
X4758277Y-9021369D02*
X4805896Y-9021369D01*
X4805896Y-9021369D02*
X4824944Y-9030893D01*
X4824944Y-9030893D02*
X4834468Y-9040416D01*
X4834468Y-9040416D02*
X4843991Y-9059464D01*
X4843991Y-9059464D02*
X4843991Y-9078512D01*
X4843991Y-9078512D02*
X4834468Y-9107083D01*
X4834468Y-9107083D02*
X4720182Y-9221369D01*
X4720182Y-9221369D02*
X4843991Y-9221369D01*
X4910658Y-9021369D02*
X5034468Y-9021369D01*
X5034468Y-9021369D02*
X4967801Y-9097559D01*
X4967801Y-9097559D02*
X4996372Y-9097559D01*
X4996372Y-9097559D02*
X5015420Y-9107083D01*
X5015420Y-9107083D02*
X5024944Y-9116607D01*
X5024944Y-9116607D02*
X5034468Y-9135654D01*
X5034468Y-9135654D02*
X5034468Y-9183273D01*
X5034468Y-9183273D02*
X5024944Y-9202321D01*
X5024944Y-9202321D02*
X5015420Y-9211845D01*
X5015420Y-9211845D02*
X4996372Y-9221369D01*
X4996372Y-9221369D02*
X4939229Y-9221369D01*
X4939229Y-9221369D02*
X4920182Y-9211845D01*
X4920182Y-9211845D02*
X4910658Y-9202321D01*
X5205896Y-9021369D02*
X5167801Y-9021369D01*
X5167801Y-9021369D02*
X5148753Y-9030893D01*
X5148753Y-9030893D02*
X5139229Y-9040416D01*
X5139229Y-9040416D02*
X5120182Y-9068988D01*
X5120182Y-9068988D02*
X5110658Y-9107083D01*
X5110658Y-9107083D02*
X5110658Y-9183273D01*
X5110658Y-9183273D02*
X5120182Y-9202321D01*
X5120182Y-9202321D02*
X5129706Y-9211845D01*
X5129706Y-9211845D02*
X5148753Y-9221369D01*
X5148753Y-9221369D02*
X5186849Y-9221369D01*
X5186849Y-9221369D02*
X5205896Y-9211845D01*
X5205896Y-9211845D02*
X5215420Y-9202321D01*
X5215420Y-9202321D02*
X5224944Y-9183273D01*
X5224944Y-9183273D02*
X5224944Y-9135654D01*
X5224944Y-9135654D02*
X5215420Y-9116607D01*
X5215420Y-9116607D02*
X5205896Y-9107083D01*
X5205896Y-9107083D02*
X5186849Y-9097559D01*
X5186849Y-9097559D02*
X5148753Y-9097559D01*
X5148753Y-9097559D02*
X5129706Y-9107083D01*
X5129706Y-9107083D02*
X5120182Y-9116607D01*
X5120182Y-9116607D02*
X5110658Y-9135654D01*
X5301134Y-9021369D02*
X5301134Y-9059464D01*
X5377325Y-9021369D02*
X5377325Y-9059464D01*
X5672563Y-9297559D02*
X5663039Y-9288035D01*
X5663039Y-9288035D02*
X5643991Y-9259464D01*
X5643991Y-9259464D02*
X5634468Y-9240416D01*
X5634468Y-9240416D02*
X5624944Y-9211845D01*
X5624944Y-9211845D02*
X5615420Y-9164226D01*
X5615420Y-9164226D02*
X5615420Y-9126131D01*
X5615420Y-9126131D02*
X5624944Y-9078512D01*
X5624944Y-9078512D02*
X5634468Y-9049940D01*
X5634468Y-9049940D02*
X5643991Y-9030893D01*
X5643991Y-9030893D02*
X5663039Y-9002321D01*
X5663039Y-9002321D02*
X5672563Y-8992797D01*
X5786848Y-9021369D02*
X5805896Y-9021369D01*
X5805896Y-9021369D02*
X5824944Y-9030893D01*
X5824944Y-9030893D02*
X5834468Y-9040416D01*
X5834468Y-9040416D02*
X5843991Y-9059464D01*
X5843991Y-9059464D02*
X5853515Y-9097559D01*
X5853515Y-9097559D02*
X5853515Y-9145178D01*
X5853515Y-9145178D02*
X5843991Y-9183273D01*
X5843991Y-9183273D02*
X5834468Y-9202321D01*
X5834468Y-9202321D02*
X5824944Y-9211845D01*
X5824944Y-9211845D02*
X5805896Y-9221369D01*
X5805896Y-9221369D02*
X5786848Y-9221369D01*
X5786848Y-9221369D02*
X5767801Y-9211845D01*
X5767801Y-9211845D02*
X5758277Y-9202321D01*
X5758277Y-9202321D02*
X5748753Y-9183273D01*
X5748753Y-9183273D02*
X5739229Y-9145178D01*
X5739229Y-9145178D02*
X5739229Y-9097559D01*
X5739229Y-9097559D02*
X5748753Y-9059464D01*
X5748753Y-9059464D02*
X5758277Y-9040416D01*
X5758277Y-9040416D02*
X5767801Y-9030893D01*
X5767801Y-9030893D02*
X5786848Y-9021369D01*
X6091610Y-9221369D02*
X6091610Y-9021369D01*
X6177325Y-9221369D02*
X6177325Y-9116607D01*
X6177325Y-9116607D02*
X6167801Y-9097559D01*
X6167801Y-9097559D02*
X6148753Y-9088035D01*
X6148753Y-9088035D02*
X6120182Y-9088035D01*
X6120182Y-9088035D02*
X6101134Y-9097559D01*
X6101134Y-9097559D02*
X6091610Y-9107083D01*
X6301134Y-9221369D02*
X6282087Y-9211845D01*
X6282087Y-9211845D02*
X6272563Y-9202321D01*
X6272563Y-9202321D02*
X6263039Y-9183273D01*
X6263039Y-9183273D02*
X6263039Y-9126131D01*
X6263039Y-9126131D02*
X6272563Y-9107083D01*
X6272563Y-9107083D02*
X6282087Y-9097559D01*
X6282087Y-9097559D02*
X6301134Y-9088035D01*
X6301134Y-9088035D02*
X6329706Y-9088035D01*
X6329706Y-9088035D02*
X6348753Y-9097559D01*
X6348753Y-9097559D02*
X6358277Y-9107083D01*
X6358277Y-9107083D02*
X6367801Y-9126131D01*
X6367801Y-9126131D02*
X6367801Y-9183273D01*
X6367801Y-9183273D02*
X6358277Y-9202321D01*
X6358277Y-9202321D02*
X6348753Y-9211845D01*
X6348753Y-9211845D02*
X6329706Y-9221369D01*
X6329706Y-9221369D02*
X6301134Y-9221369D01*
X6482087Y-9221369D02*
X6463039Y-9211845D01*
X6463039Y-9211845D02*
X6453515Y-9192797D01*
X6453515Y-9192797D02*
X6453515Y-9021369D01*
X6634468Y-9211845D02*
X6615420Y-9221369D01*
X6615420Y-9221369D02*
X6577325Y-9221369D01*
X6577325Y-9221369D02*
X6558277Y-9211845D01*
X6558277Y-9211845D02*
X6548753Y-9192797D01*
X6548753Y-9192797D02*
X6548753Y-9116607D01*
X6548753Y-9116607D02*
X6558277Y-9097559D01*
X6558277Y-9097559D02*
X6577325Y-9088035D01*
X6577325Y-9088035D02*
X6615420Y-9088035D01*
X6615420Y-9088035D02*
X6634468Y-9097559D01*
X6634468Y-9097559D02*
X6643991Y-9116607D01*
X6643991Y-9116607D02*
X6643991Y-9135654D01*
X6643991Y-9135654D02*
X6548753Y-9154702D01*
X6720182Y-9211845D02*
X6739230Y-9221369D01*
X6739230Y-9221369D02*
X6777325Y-9221369D01*
X6777325Y-9221369D02*
X6796372Y-9211845D01*
X6796372Y-9211845D02*
X6805896Y-9192797D01*
X6805896Y-9192797D02*
X6805896Y-9183273D01*
X6805896Y-9183273D02*
X6796372Y-9164226D01*
X6796372Y-9164226D02*
X6777325Y-9154702D01*
X6777325Y-9154702D02*
X6748753Y-9154702D01*
X6748753Y-9154702D02*
X6729706Y-9145178D01*
X6729706Y-9145178D02*
X6720182Y-9126131D01*
X6720182Y-9126131D02*
X6720182Y-9116607D01*
X6720182Y-9116607D02*
X6729706Y-9097559D01*
X6729706Y-9097559D02*
X6748753Y-9088035D01*
X6748753Y-9088035D02*
X6777325Y-9088035D01*
X6777325Y-9088035D02*
X6796372Y-9097559D01*
X7043992Y-9145178D02*
X7196373Y-9145178D01*
X7120182Y-9221369D02*
X7120182Y-9068988D01*
X7529706Y-9088035D02*
X7529706Y-9221369D01*
X7482087Y-9011845D02*
X7434468Y-9154702D01*
X7434468Y-9154702D02*
X7558277Y-9154702D01*
X7777325Y-9211845D02*
X7796373Y-9221369D01*
X7796373Y-9221369D02*
X7834468Y-9221369D01*
X7834468Y-9221369D02*
X7853515Y-9211845D01*
X7853515Y-9211845D02*
X7863039Y-9192797D01*
X7863039Y-9192797D02*
X7863039Y-9183273D01*
X7863039Y-9183273D02*
X7853515Y-9164226D01*
X7853515Y-9164226D02*
X7834468Y-9154702D01*
X7834468Y-9154702D02*
X7805896Y-9154702D01*
X7805896Y-9154702D02*
X7786849Y-9145178D01*
X7786849Y-9145178D02*
X7777325Y-9126131D01*
X7777325Y-9126131D02*
X7777325Y-9116607D01*
X7777325Y-9116607D02*
X7786849Y-9097559D01*
X7786849Y-9097559D02*
X7805896Y-9088035D01*
X7805896Y-9088035D02*
X7834468Y-9088035D01*
X7834468Y-9088035D02*
X7853515Y-9097559D01*
X7977325Y-9221369D02*
X7958277Y-9211845D01*
X7958277Y-9211845D02*
X7948754Y-9192797D01*
X7948754Y-9192797D02*
X7948754Y-9021369D01*
X8082087Y-9221369D02*
X8063039Y-9211845D01*
X8063039Y-9211845D02*
X8053515Y-9202321D01*
X8053515Y-9202321D02*
X8043992Y-9183273D01*
X8043992Y-9183273D02*
X8043992Y-9126131D01*
X8043992Y-9126131D02*
X8053515Y-9107083D01*
X8053515Y-9107083D02*
X8063039Y-9097559D01*
X8063039Y-9097559D02*
X8082087Y-9088035D01*
X8082087Y-9088035D02*
X8110658Y-9088035D01*
X8110658Y-9088035D02*
X8129706Y-9097559D01*
X8129706Y-9097559D02*
X8139230Y-9107083D01*
X8139230Y-9107083D02*
X8148754Y-9126131D01*
X8148754Y-9126131D02*
X8148754Y-9183273D01*
X8148754Y-9183273D02*
X8139230Y-9202321D01*
X8139230Y-9202321D02*
X8129706Y-9211845D01*
X8129706Y-9211845D02*
X8110658Y-9221369D01*
X8110658Y-9221369D02*
X8082087Y-9221369D01*
X8205896Y-9088035D02*
X8282087Y-9088035D01*
X8234468Y-9021369D02*
X8234468Y-9192797D01*
X8234468Y-9192797D02*
X8243992Y-9211845D01*
X8243992Y-9211845D02*
X8263039Y-9221369D01*
X8263039Y-9221369D02*
X8282087Y-9221369D01*
X8339230Y-9211845D02*
X8358277Y-9221369D01*
X8358277Y-9221369D02*
X8396373Y-9221369D01*
X8396373Y-9221369D02*
X8415420Y-9211845D01*
X8415420Y-9211845D02*
X8424944Y-9192797D01*
X8424944Y-9192797D02*
X8424944Y-9183273D01*
X8424944Y-9183273D02*
X8415420Y-9164226D01*
X8415420Y-9164226D02*
X8396373Y-9154702D01*
X8396373Y-9154702D02*
X8367801Y-9154702D01*
X8367801Y-9154702D02*
X8348754Y-9145178D01*
X8348754Y-9145178D02*
X8339230Y-9126131D01*
X8339230Y-9126131D02*
X8339230Y-9116607D01*
X8339230Y-9116607D02*
X8348754Y-9097559D01*
X8348754Y-9097559D02*
X8367801Y-9088035D01*
X8367801Y-9088035D02*
X8396373Y-9088035D01*
X8396373Y-9088035D02*
X8415420Y-9097559D01*
X8491611Y-9297559D02*
X8501135Y-9288035D01*
X8501135Y-9288035D02*
X8520182Y-9259464D01*
X8520182Y-9259464D02*
X8529706Y-9240416D01*
X8529706Y-9240416D02*
X8539230Y-9211845D01*
X8539230Y-9211845D02*
X8548754Y-9164226D01*
X8548754Y-9164226D02*
X8548754Y-9126131D01*
X8548754Y-9126131D02*
X8539230Y-9078512D01*
X8539230Y-9078512D02*
X8529706Y-9049940D01*
X8529706Y-9049940D02*
X8520182Y-9030893D01*
X8520182Y-9030893D02*
X8501135Y-9002321D01*
X8501135Y-9002321D02*
X8491611Y-8992797D01*
M02*
