%TF.GenerationSoftware,KiCad,Pcbnew,10.0.6*%
%TF.CreationDate,2026-10-05T15:51:11+02:00*%
%TF.ProjectId,MAO_MAIN_A0,4d414f5f-4d41-4494-9e5f-41302e6b6963,A0*%
%TF.SameCoordinates,Original*%
%TF.FileFunction,Drillmap*%
%TF.FilePolarity,Positive*%
%FSLAX45Y45*%
G04 Gerber Fmt 4.5, Leading zero omitted, Abs format (unit mm)*
G04 Created by KiCad (PCBNEW 10.0.6) date 2026-10-05 15:51:11*
%MOMM*%
%LPD*%
G01*
G04 APERTURE LIST*
%ADD10C,0.050000*%
%ADD11C,0.200000*%
%ADD12C,0.100000*%
%ADD13C,0.220000*%
G04 APERTURE END LIST*
D10*
X3070000Y-4475000D02*
X3070000Y-5525000D01*
X3070000Y-4475000D02*
G75*
G02*
X3170000Y-4475000I50000J0D01*
G01*
X3170000Y-4475000D02*
X3170000Y-5525000D01*
X3170000Y-5525000D02*
G75*
G02*
X3070000Y-5525000I-50000J0D01*
G01*
X3800000Y-7245000D02*
G75*
G02*
X3900000Y-7145000I100000J0D01*
G01*
X3800000Y-7640076D02*
X3800000Y-7245000D01*
X3800000Y-7640076D02*
G75*
G02*
X6200000Y-7640076I1200000J2640076D01*
G01*
X6100000Y-7145000D02*
X3900000Y-7145000D01*
X6100000Y-7145000D02*
G75*
G02*
X6200000Y-7245000I0J-100000D01*
G01*
X6200000Y-7640076D02*
X6200000Y-7245000D01*
D11*
D12*
X7089800Y-5504400D02*
X7139800Y-5554400D01*
X7139800Y-5504400D02*
X7089800Y-5554400D01*
X4743500Y-2665000D02*
G75*
G02*
X4678500Y-2665000I-32500J0D01*
G01*
X4678500Y-2665000D02*
G75*
G02*
X4743500Y-2665000I32500J0D01*
G01*
X5321500Y-2665000D02*
G75*
G02*
X5256500Y-2665000I-32500J0D01*
G01*
X5256500Y-2665000D02*
G75*
G02*
X5321500Y-2665000I32500J0D01*
G01*
X6418400Y-6331470D02*
X6418400Y-6430530D01*
X6368870Y-6381000D02*
X6467930Y-6381000D01*
X6520000Y-6839470D02*
X6520000Y-6938530D01*
X6470470Y-6889000D02*
X6569530Y-6889000D01*
X6621600Y-6331470D02*
X6621600Y-6430530D01*
X6572070Y-6381000D02*
X6671130Y-6381000D01*
D11*
X3302911Y-6838511D02*
X3302911Y-6697089D01*
X3161489Y-6697089D01*
X3161489Y-6838511D01*
X3302911Y-6838511D01*
D13*
X3142100Y-3437200D02*
X3252100Y-3327200D01*
X3142100Y-3217200D01*
X3032100Y-3327200D01*
X3142100Y-3437200D01*
X6857900Y-3437200D02*
X6967900Y-3327200D01*
X6857900Y-3217200D01*
X6747900Y-3327200D01*
X6857900Y-3437200D01*
D11*
X2358277Y-7954060D02*
X2358277Y-7754060D01*
X2358277Y-7754060D02*
X2405896Y-7754060D01*
X2405896Y-7754060D02*
X2434467Y-7763583D01*
X2434467Y-7763583D02*
X2453515Y-7782631D01*
X2453515Y-7782631D02*
X2463039Y-7801679D01*
X2463039Y-7801679D02*
X2472563Y-7839774D01*
X2472563Y-7839774D02*
X2472563Y-7868345D01*
X2472563Y-7868345D02*
X2463039Y-7906440D01*
X2463039Y-7906440D02*
X2453515Y-7925488D01*
X2453515Y-7925488D02*
X2434467Y-7944536D01*
X2434467Y-7944536D02*
X2405896Y-7954060D01*
X2405896Y-7954060D02*
X2358277Y-7954060D01*
X2558277Y-7954060D02*
X2558277Y-7820726D01*
X2558277Y-7858821D02*
X2567801Y-7839774D01*
X2567801Y-7839774D02*
X2577324Y-7830250D01*
X2577324Y-7830250D02*
X2596372Y-7820726D01*
X2596372Y-7820726D02*
X2615420Y-7820726D01*
X2682086Y-7954060D02*
X2682086Y-7820726D01*
X2682086Y-7754060D02*
X2672563Y-7763583D01*
X2672563Y-7763583D02*
X2682086Y-7773107D01*
X2682086Y-7773107D02*
X2691610Y-7763583D01*
X2691610Y-7763583D02*
X2682086Y-7754060D01*
X2682086Y-7754060D02*
X2682086Y-7773107D01*
X2805896Y-7954060D02*
X2786848Y-7944536D01*
X2786848Y-7944536D02*
X2777324Y-7925488D01*
X2777324Y-7925488D02*
X2777324Y-7754060D01*
X2910658Y-7954060D02*
X2891610Y-7944536D01*
X2891610Y-7944536D02*
X2882086Y-7925488D01*
X2882086Y-7925488D02*
X2882086Y-7754060D01*
X3139229Y-7954060D02*
X3139229Y-7754060D01*
X3139229Y-7754060D02*
X3205896Y-7896917D01*
X3205896Y-7896917D02*
X3272562Y-7754060D01*
X3272562Y-7754060D02*
X3272562Y-7954060D01*
X3453515Y-7954060D02*
X3453515Y-7849298D01*
X3453515Y-7849298D02*
X3443991Y-7830250D01*
X3443991Y-7830250D02*
X3424943Y-7820726D01*
X3424943Y-7820726D02*
X3386848Y-7820726D01*
X3386848Y-7820726D02*
X3367801Y-7830250D01*
X3453515Y-7944536D02*
X3434467Y-7954060D01*
X3434467Y-7954060D02*
X3386848Y-7954060D01*
X3386848Y-7954060D02*
X3367801Y-7944536D01*
X3367801Y-7944536D02*
X3358277Y-7925488D01*
X3358277Y-7925488D02*
X3358277Y-7906440D01*
X3358277Y-7906440D02*
X3367801Y-7887393D01*
X3367801Y-7887393D02*
X3386848Y-7877869D01*
X3386848Y-7877869D02*
X3434467Y-7877869D01*
X3434467Y-7877869D02*
X3453515Y-7868345D01*
X3548753Y-7820726D02*
X3548753Y-8020726D01*
X3548753Y-7830250D02*
X3567801Y-7820726D01*
X3567801Y-7820726D02*
X3605896Y-7820726D01*
X3605896Y-7820726D02*
X3624943Y-7830250D01*
X3624943Y-7830250D02*
X3634467Y-7839774D01*
X3634467Y-7839774D02*
X3643991Y-7858821D01*
X3643991Y-7858821D02*
X3643991Y-7915964D01*
X3643991Y-7915964D02*
X3634467Y-7935012D01*
X3634467Y-7935012D02*
X3624943Y-7944536D01*
X3624943Y-7944536D02*
X3605896Y-7954060D01*
X3605896Y-7954060D02*
X3567801Y-7954060D01*
X3567801Y-7954060D02*
X3548753Y-7944536D01*
X3729705Y-7935012D02*
X3739229Y-7944536D01*
X3739229Y-7944536D02*
X3729705Y-7954060D01*
X3729705Y-7954060D02*
X3720182Y-7944536D01*
X3720182Y-7944536D02*
X3729705Y-7935012D01*
X3729705Y-7935012D02*
X3729705Y-7954060D01*
X3729705Y-7830250D02*
X3739229Y-7839774D01*
X3739229Y-7839774D02*
X3729705Y-7849298D01*
X3729705Y-7849298D02*
X3720182Y-7839774D01*
X3720182Y-7839774D02*
X3729705Y-7830250D01*
X3729705Y-7830250D02*
X3729705Y-7849298D01*
D12*
X2047500Y-8257576D02*
X2097500Y-8307576D01*
X2097500Y-8257576D02*
X2047500Y-8307576D01*
D11*
X2396372Y-8174060D02*
X2415420Y-8174060D01*
X2415420Y-8174060D02*
X2434467Y-8183583D01*
X2434467Y-8183583D02*
X2443991Y-8193107D01*
X2443991Y-8193107D02*
X2453515Y-8212155D01*
X2453515Y-8212155D02*
X2463039Y-8250250D01*
X2463039Y-8250250D02*
X2463039Y-8297869D01*
X2463039Y-8297869D02*
X2453515Y-8335964D01*
X2453515Y-8335964D02*
X2443991Y-8355012D01*
X2443991Y-8355012D02*
X2434467Y-8364536D01*
X2434467Y-8364536D02*
X2415420Y-8374060D01*
X2415420Y-8374060D02*
X2396372Y-8374060D01*
X2396372Y-8374060D02*
X2377324Y-8364536D01*
X2377324Y-8364536D02*
X2367801Y-8355012D01*
X2367801Y-8355012D02*
X2358277Y-8335964D01*
X2358277Y-8335964D02*
X2348753Y-8297869D01*
X2348753Y-8297869D02*
X2348753Y-8250250D01*
X2348753Y-8250250D02*
X2358277Y-8212155D01*
X2358277Y-8212155D02*
X2367801Y-8193107D01*
X2367801Y-8193107D02*
X2377324Y-8183583D01*
X2377324Y-8183583D02*
X2396372Y-8174060D01*
X2548753Y-8355012D02*
X2558277Y-8364536D01*
X2558277Y-8364536D02*
X2548753Y-8374060D01*
X2548753Y-8374060D02*
X2539229Y-8364536D01*
X2539229Y-8364536D02*
X2548753Y-8355012D01*
X2548753Y-8355012D02*
X2548753Y-8374060D01*
X2739229Y-8174060D02*
X2643991Y-8174060D01*
X2643991Y-8174060D02*
X2634467Y-8269298D01*
X2634467Y-8269298D02*
X2643991Y-8259774D01*
X2643991Y-8259774D02*
X2663039Y-8250250D01*
X2663039Y-8250250D02*
X2710658Y-8250250D01*
X2710658Y-8250250D02*
X2729705Y-8259774D01*
X2729705Y-8259774D02*
X2739229Y-8269298D01*
X2739229Y-8269298D02*
X2748753Y-8288345D01*
X2748753Y-8288345D02*
X2748753Y-8335964D01*
X2748753Y-8335964D02*
X2739229Y-8355012D01*
X2739229Y-8355012D02*
X2729705Y-8364536D01*
X2729705Y-8364536D02*
X2710658Y-8374060D01*
X2710658Y-8374060D02*
X2663039Y-8374060D01*
X2663039Y-8374060D02*
X2643991Y-8364536D01*
X2643991Y-8364536D02*
X2634467Y-8355012D01*
X2872562Y-8174060D02*
X2891610Y-8174060D01*
X2891610Y-8174060D02*
X2910658Y-8183583D01*
X2910658Y-8183583D02*
X2920182Y-8193107D01*
X2920182Y-8193107D02*
X2929705Y-8212155D01*
X2929705Y-8212155D02*
X2939229Y-8250250D01*
X2939229Y-8250250D02*
X2939229Y-8297869D01*
X2939229Y-8297869D02*
X2929705Y-8335964D01*
X2929705Y-8335964D02*
X2920182Y-8355012D01*
X2920182Y-8355012D02*
X2910658Y-8364536D01*
X2910658Y-8364536D02*
X2891610Y-8374060D01*
X2891610Y-8374060D02*
X2872562Y-8374060D01*
X2872562Y-8374060D02*
X2853515Y-8364536D01*
X2853515Y-8364536D02*
X2843991Y-8355012D01*
X2843991Y-8355012D02*
X2834467Y-8335964D01*
X2834467Y-8335964D02*
X2824943Y-8297869D01*
X2824943Y-8297869D02*
X2824943Y-8250250D01*
X2824943Y-8250250D02*
X2834467Y-8212155D01*
X2834467Y-8212155D02*
X2843991Y-8193107D01*
X2843991Y-8193107D02*
X2853515Y-8183583D01*
X2853515Y-8183583D02*
X2872562Y-8174060D01*
X3063039Y-8174060D02*
X3082086Y-8174060D01*
X3082086Y-8174060D02*
X3101134Y-8183583D01*
X3101134Y-8183583D02*
X3110658Y-8193107D01*
X3110658Y-8193107D02*
X3120182Y-8212155D01*
X3120182Y-8212155D02*
X3129705Y-8250250D01*
X3129705Y-8250250D02*
X3129705Y-8297869D01*
X3129705Y-8297869D02*
X3120182Y-8335964D01*
X3120182Y-8335964D02*
X3110658Y-8355012D01*
X3110658Y-8355012D02*
X3101134Y-8364536D01*
X3101134Y-8364536D02*
X3082086Y-8374060D01*
X3082086Y-8374060D02*
X3063039Y-8374060D01*
X3063039Y-8374060D02*
X3043991Y-8364536D01*
X3043991Y-8364536D02*
X3034467Y-8355012D01*
X3034467Y-8355012D02*
X3024943Y-8335964D01*
X3024943Y-8335964D02*
X3015420Y-8297869D01*
X3015420Y-8297869D02*
X3015420Y-8250250D01*
X3015420Y-8250250D02*
X3024943Y-8212155D01*
X3024943Y-8212155D02*
X3034467Y-8193107D01*
X3034467Y-8193107D02*
X3043991Y-8183583D01*
X3043991Y-8183583D02*
X3063039Y-8174060D01*
X3215420Y-8374060D02*
X3215420Y-8240726D01*
X3215420Y-8259774D02*
X3224943Y-8250250D01*
X3224943Y-8250250D02*
X3243991Y-8240726D01*
X3243991Y-8240726D02*
X3272563Y-8240726D01*
X3272563Y-8240726D02*
X3291610Y-8250250D01*
X3291610Y-8250250D02*
X3301134Y-8269298D01*
X3301134Y-8269298D02*
X3301134Y-8374060D01*
X3301134Y-8269298D02*
X3310658Y-8250250D01*
X3310658Y-8250250D02*
X3329705Y-8240726D01*
X3329705Y-8240726D02*
X3358277Y-8240726D01*
X3358277Y-8240726D02*
X3377324Y-8250250D01*
X3377324Y-8250250D02*
X3386848Y-8269298D01*
X3386848Y-8269298D02*
X3386848Y-8374060D01*
X3482086Y-8374060D02*
X3482086Y-8240726D01*
X3482086Y-8259774D02*
X3491610Y-8250250D01*
X3491610Y-8250250D02*
X3510658Y-8240726D01*
X3510658Y-8240726D02*
X3539229Y-8240726D01*
X3539229Y-8240726D02*
X3558277Y-8250250D01*
X3558277Y-8250250D02*
X3567801Y-8269298D01*
X3567801Y-8269298D02*
X3567801Y-8374060D01*
X3567801Y-8269298D02*
X3577324Y-8250250D01*
X3577324Y-8250250D02*
X3596372Y-8240726D01*
X3596372Y-8240726D02*
X3624943Y-8240726D01*
X3624943Y-8240726D02*
X3643991Y-8250250D01*
X3643991Y-8250250D02*
X3653515Y-8269298D01*
X3653515Y-8269298D02*
X3653515Y-8374060D01*
X4043991Y-8164536D02*
X3872563Y-8421679D01*
X4301134Y-8174060D02*
X4320182Y-8174060D01*
X4320182Y-8174060D02*
X4339229Y-8183583D01*
X4339229Y-8183583D02*
X4348753Y-8193107D01*
X4348753Y-8193107D02*
X4358277Y-8212155D01*
X4358277Y-8212155D02*
X4367801Y-8250250D01*
X4367801Y-8250250D02*
X4367801Y-8297869D01*
X4367801Y-8297869D02*
X4358277Y-8335964D01*
X4358277Y-8335964D02*
X4348753Y-8355012D01*
X4348753Y-8355012D02*
X4339229Y-8364536D01*
X4339229Y-8364536D02*
X4320182Y-8374060D01*
X4320182Y-8374060D02*
X4301134Y-8374060D01*
X4301134Y-8374060D02*
X4282087Y-8364536D01*
X4282087Y-8364536D02*
X4272563Y-8355012D01*
X4272563Y-8355012D02*
X4263039Y-8335964D01*
X4263039Y-8335964D02*
X4253515Y-8297869D01*
X4253515Y-8297869D02*
X4253515Y-8250250D01*
X4253515Y-8250250D02*
X4263039Y-8212155D01*
X4263039Y-8212155D02*
X4272563Y-8193107D01*
X4272563Y-8193107D02*
X4282087Y-8183583D01*
X4282087Y-8183583D02*
X4301134Y-8174060D01*
X4453515Y-8355012D02*
X4463039Y-8364536D01*
X4463039Y-8364536D02*
X4453515Y-8374060D01*
X4453515Y-8374060D02*
X4443991Y-8364536D01*
X4443991Y-8364536D02*
X4453515Y-8355012D01*
X4453515Y-8355012D02*
X4453515Y-8374060D01*
X4586848Y-8174060D02*
X4605896Y-8174060D01*
X4605896Y-8174060D02*
X4624944Y-8183583D01*
X4624944Y-8183583D02*
X4634468Y-8193107D01*
X4634468Y-8193107D02*
X4643991Y-8212155D01*
X4643991Y-8212155D02*
X4653515Y-8250250D01*
X4653515Y-8250250D02*
X4653515Y-8297869D01*
X4653515Y-8297869D02*
X4643991Y-8335964D01*
X4643991Y-8335964D02*
X4634468Y-8355012D01*
X4634468Y-8355012D02*
X4624944Y-8364536D01*
X4624944Y-8364536D02*
X4605896Y-8374060D01*
X4605896Y-8374060D02*
X4586848Y-8374060D01*
X4586848Y-8374060D02*
X4567801Y-8364536D01*
X4567801Y-8364536D02*
X4558277Y-8355012D01*
X4558277Y-8355012D02*
X4548753Y-8335964D01*
X4548753Y-8335964D02*
X4539229Y-8297869D01*
X4539229Y-8297869D02*
X4539229Y-8250250D01*
X4539229Y-8250250D02*
X4548753Y-8212155D01*
X4548753Y-8212155D02*
X4558277Y-8193107D01*
X4558277Y-8193107D02*
X4567801Y-8183583D01*
X4567801Y-8183583D02*
X4586848Y-8174060D01*
X4843991Y-8374060D02*
X4729706Y-8374060D01*
X4786848Y-8374060D02*
X4786848Y-8174060D01*
X4786848Y-8174060D02*
X4767801Y-8202631D01*
X4767801Y-8202631D02*
X4748753Y-8221679D01*
X4748753Y-8221679D02*
X4729706Y-8231202D01*
X4939229Y-8374060D02*
X4977325Y-8374060D01*
X4977325Y-8374060D02*
X4996372Y-8364536D01*
X4996372Y-8364536D02*
X5005896Y-8355012D01*
X5005896Y-8355012D02*
X5024944Y-8326440D01*
X5024944Y-8326440D02*
X5034468Y-8288345D01*
X5034468Y-8288345D02*
X5034468Y-8212155D01*
X5034468Y-8212155D02*
X5024944Y-8193107D01*
X5024944Y-8193107D02*
X5015420Y-8183583D01*
X5015420Y-8183583D02*
X4996372Y-8174060D01*
X4996372Y-8174060D02*
X4958277Y-8174060D01*
X4958277Y-8174060D02*
X4939229Y-8183583D01*
X4939229Y-8183583D02*
X4929706Y-8193107D01*
X4929706Y-8193107D02*
X4920182Y-8212155D01*
X4920182Y-8212155D02*
X4920182Y-8259774D01*
X4920182Y-8259774D02*
X4929706Y-8278821D01*
X4929706Y-8278821D02*
X4939229Y-8288345D01*
X4939229Y-8288345D02*
X4958277Y-8297869D01*
X4958277Y-8297869D02*
X4996372Y-8297869D01*
X4996372Y-8297869D02*
X5015420Y-8288345D01*
X5015420Y-8288345D02*
X5024944Y-8278821D01*
X5024944Y-8278821D02*
X5034468Y-8259774D01*
X5101134Y-8174060D02*
X5234468Y-8174060D01*
X5234468Y-8174060D02*
X5148753Y-8374060D01*
X5301134Y-8174060D02*
X5301134Y-8212155D01*
X5377325Y-8174060D02*
X5377325Y-8212155D01*
X5672563Y-8450250D02*
X5663039Y-8440726D01*
X5663039Y-8440726D02*
X5643991Y-8412155D01*
X5643991Y-8412155D02*
X5634468Y-8393107D01*
X5634468Y-8393107D02*
X5624944Y-8364536D01*
X5624944Y-8364536D02*
X5615420Y-8316917D01*
X5615420Y-8316917D02*
X5615420Y-8278821D01*
X5615420Y-8278821D02*
X5624944Y-8231202D01*
X5624944Y-8231202D02*
X5634468Y-8202631D01*
X5634468Y-8202631D02*
X5643991Y-8183583D01*
X5643991Y-8183583D02*
X5663039Y-8155012D01*
X5663039Y-8155012D02*
X5672563Y-8145488D01*
X5853515Y-8374060D02*
X5739229Y-8374060D01*
X5796372Y-8374060D02*
X5796372Y-8174060D01*
X5796372Y-8174060D02*
X5777325Y-8202631D01*
X5777325Y-8202631D02*
X5758277Y-8221679D01*
X5758277Y-8221679D02*
X5739229Y-8231202D01*
X6091610Y-8374060D02*
X6091610Y-8174060D01*
X6177325Y-8374060D02*
X6177325Y-8269298D01*
X6177325Y-8269298D02*
X6167801Y-8250250D01*
X6167801Y-8250250D02*
X6148753Y-8240726D01*
X6148753Y-8240726D02*
X6120182Y-8240726D01*
X6120182Y-8240726D02*
X6101134Y-8250250D01*
X6101134Y-8250250D02*
X6091610Y-8259774D01*
X6301134Y-8374060D02*
X6282087Y-8364536D01*
X6282087Y-8364536D02*
X6272563Y-8355012D01*
X6272563Y-8355012D02*
X6263039Y-8335964D01*
X6263039Y-8335964D02*
X6263039Y-8278821D01*
X6263039Y-8278821D02*
X6272563Y-8259774D01*
X6272563Y-8259774D02*
X6282087Y-8250250D01*
X6282087Y-8250250D02*
X6301134Y-8240726D01*
X6301134Y-8240726D02*
X6329706Y-8240726D01*
X6329706Y-8240726D02*
X6348753Y-8250250D01*
X6348753Y-8250250D02*
X6358277Y-8259774D01*
X6358277Y-8259774D02*
X6367801Y-8278821D01*
X6367801Y-8278821D02*
X6367801Y-8335964D01*
X6367801Y-8335964D02*
X6358277Y-8355012D01*
X6358277Y-8355012D02*
X6348753Y-8364536D01*
X6348753Y-8364536D02*
X6329706Y-8374060D01*
X6329706Y-8374060D02*
X6301134Y-8374060D01*
X6482087Y-8374060D02*
X6463039Y-8364536D01*
X6463039Y-8364536D02*
X6453515Y-8345488D01*
X6453515Y-8345488D02*
X6453515Y-8174060D01*
X6634468Y-8364536D02*
X6615420Y-8374060D01*
X6615420Y-8374060D02*
X6577325Y-8374060D01*
X6577325Y-8374060D02*
X6558277Y-8364536D01*
X6558277Y-8364536D02*
X6548753Y-8345488D01*
X6548753Y-8345488D02*
X6548753Y-8269298D01*
X6548753Y-8269298D02*
X6558277Y-8250250D01*
X6558277Y-8250250D02*
X6577325Y-8240726D01*
X6577325Y-8240726D02*
X6615420Y-8240726D01*
X6615420Y-8240726D02*
X6634468Y-8250250D01*
X6634468Y-8250250D02*
X6643991Y-8269298D01*
X6643991Y-8269298D02*
X6643991Y-8288345D01*
X6643991Y-8288345D02*
X6548753Y-8307393D01*
X6710658Y-8450250D02*
X6720182Y-8440726D01*
X6720182Y-8440726D02*
X6739230Y-8412155D01*
X6739230Y-8412155D02*
X6748753Y-8393107D01*
X6748753Y-8393107D02*
X6758277Y-8364536D01*
X6758277Y-8364536D02*
X6767801Y-8316917D01*
X6767801Y-8316917D02*
X6767801Y-8278821D01*
X6767801Y-8278821D02*
X6758277Y-8231202D01*
X6758277Y-8231202D02*
X6748753Y-8202631D01*
X6748753Y-8202631D02*
X6739230Y-8183583D01*
X6739230Y-8183583D02*
X6720182Y-8155012D01*
X6720182Y-8155012D02*
X6710658Y-8145488D01*
X7072563Y-8450250D02*
X7063039Y-8440726D01*
X7063039Y-8440726D02*
X7043991Y-8412155D01*
X7043991Y-8412155D02*
X7034468Y-8393107D01*
X7034468Y-8393107D02*
X7024944Y-8364536D01*
X7024944Y-8364536D02*
X7015420Y-8316917D01*
X7015420Y-8316917D02*
X7015420Y-8278821D01*
X7015420Y-8278821D02*
X7024944Y-8231202D01*
X7024944Y-8231202D02*
X7034468Y-8202631D01*
X7034468Y-8202631D02*
X7043991Y-8183583D01*
X7043991Y-8183583D02*
X7063039Y-8155012D01*
X7063039Y-8155012D02*
X7072563Y-8145488D01*
X7148753Y-8240726D02*
X7148753Y-8374060D01*
X7148753Y-8259774D02*
X7158277Y-8250250D01*
X7158277Y-8250250D02*
X7177325Y-8240726D01*
X7177325Y-8240726D02*
X7205896Y-8240726D01*
X7205896Y-8240726D02*
X7224944Y-8250250D01*
X7224944Y-8250250D02*
X7234468Y-8269298D01*
X7234468Y-8269298D02*
X7234468Y-8374060D01*
X7358277Y-8374060D02*
X7339230Y-8364536D01*
X7339230Y-8364536D02*
X7329706Y-8355012D01*
X7329706Y-8355012D02*
X7320182Y-8335964D01*
X7320182Y-8335964D02*
X7320182Y-8278821D01*
X7320182Y-8278821D02*
X7329706Y-8259774D01*
X7329706Y-8259774D02*
X7339230Y-8250250D01*
X7339230Y-8250250D02*
X7358277Y-8240726D01*
X7358277Y-8240726D02*
X7386849Y-8240726D01*
X7386849Y-8240726D02*
X7405896Y-8250250D01*
X7405896Y-8250250D02*
X7415420Y-8259774D01*
X7415420Y-8259774D02*
X7424944Y-8278821D01*
X7424944Y-8278821D02*
X7424944Y-8335964D01*
X7424944Y-8335964D02*
X7415420Y-8355012D01*
X7415420Y-8355012D02*
X7405896Y-8364536D01*
X7405896Y-8364536D02*
X7386849Y-8374060D01*
X7386849Y-8374060D02*
X7358277Y-8374060D01*
X7482087Y-8240726D02*
X7558277Y-8240726D01*
X7510658Y-8174060D02*
X7510658Y-8345488D01*
X7510658Y-8345488D02*
X7520182Y-8364536D01*
X7520182Y-8364536D02*
X7539230Y-8374060D01*
X7539230Y-8374060D02*
X7558277Y-8374060D01*
X7777325Y-8240726D02*
X7777325Y-8440726D01*
X7777325Y-8250250D02*
X7796372Y-8240726D01*
X7796372Y-8240726D02*
X7834468Y-8240726D01*
X7834468Y-8240726D02*
X7853515Y-8250250D01*
X7853515Y-8250250D02*
X7863039Y-8259774D01*
X7863039Y-8259774D02*
X7872563Y-8278821D01*
X7872563Y-8278821D02*
X7872563Y-8335964D01*
X7872563Y-8335964D02*
X7863039Y-8355012D01*
X7863039Y-8355012D02*
X7853515Y-8364536D01*
X7853515Y-8364536D02*
X7834468Y-8374060D01*
X7834468Y-8374060D02*
X7796372Y-8374060D01*
X7796372Y-8374060D02*
X7777325Y-8364536D01*
X7986849Y-8374060D02*
X7967801Y-8364536D01*
X7967801Y-8364536D02*
X7958277Y-8345488D01*
X7958277Y-8345488D02*
X7958277Y-8174060D01*
X8148753Y-8374060D02*
X8148753Y-8269298D01*
X8148753Y-8269298D02*
X8139230Y-8250250D01*
X8139230Y-8250250D02*
X8120182Y-8240726D01*
X8120182Y-8240726D02*
X8082087Y-8240726D01*
X8082087Y-8240726D02*
X8063039Y-8250250D01*
X8148753Y-8364536D02*
X8129706Y-8374060D01*
X8129706Y-8374060D02*
X8082087Y-8374060D01*
X8082087Y-8374060D02*
X8063039Y-8364536D01*
X8063039Y-8364536D02*
X8053515Y-8345488D01*
X8053515Y-8345488D02*
X8053515Y-8326440D01*
X8053515Y-8326440D02*
X8063039Y-8307393D01*
X8063039Y-8307393D02*
X8082087Y-8297869D01*
X8082087Y-8297869D02*
X8129706Y-8297869D01*
X8129706Y-8297869D02*
X8148753Y-8288345D01*
X8215420Y-8240726D02*
X8291611Y-8240726D01*
X8243992Y-8174060D02*
X8243992Y-8345488D01*
X8243992Y-8345488D02*
X8253515Y-8364536D01*
X8253515Y-8364536D02*
X8272563Y-8374060D01*
X8272563Y-8374060D02*
X8291611Y-8374060D01*
X8434468Y-8364536D02*
X8415420Y-8374060D01*
X8415420Y-8374060D02*
X8377325Y-8374060D01*
X8377325Y-8374060D02*
X8358277Y-8364536D01*
X8358277Y-8364536D02*
X8348753Y-8345488D01*
X8348753Y-8345488D02*
X8348753Y-8269298D01*
X8348753Y-8269298D02*
X8358277Y-8250250D01*
X8358277Y-8250250D02*
X8377325Y-8240726D01*
X8377325Y-8240726D02*
X8415420Y-8240726D01*
X8415420Y-8240726D02*
X8434468Y-8250250D01*
X8434468Y-8250250D02*
X8443992Y-8269298D01*
X8443992Y-8269298D02*
X8443992Y-8288345D01*
X8443992Y-8288345D02*
X8348753Y-8307393D01*
X8615420Y-8374060D02*
X8615420Y-8174060D01*
X8615420Y-8364536D02*
X8596373Y-8374060D01*
X8596373Y-8374060D02*
X8558277Y-8374060D01*
X8558277Y-8374060D02*
X8539230Y-8364536D01*
X8539230Y-8364536D02*
X8529706Y-8355012D01*
X8529706Y-8355012D02*
X8520182Y-8335964D01*
X8520182Y-8335964D02*
X8520182Y-8278821D01*
X8520182Y-8278821D02*
X8529706Y-8259774D01*
X8529706Y-8259774D02*
X8539230Y-8250250D01*
X8539230Y-8250250D02*
X8558277Y-8240726D01*
X8558277Y-8240726D02*
X8596373Y-8240726D01*
X8596373Y-8240726D02*
X8615420Y-8250250D01*
X8691611Y-8450250D02*
X8701135Y-8440726D01*
X8701135Y-8440726D02*
X8720182Y-8412155D01*
X8720182Y-8412155D02*
X8729706Y-8393107D01*
X8729706Y-8393107D02*
X8739230Y-8364536D01*
X8739230Y-8364536D02*
X8748754Y-8316917D01*
X8748754Y-8316917D02*
X8748754Y-8278821D01*
X8748754Y-8278821D02*
X8739230Y-8231202D01*
X8739230Y-8231202D02*
X8729706Y-8202631D01*
X8729706Y-8202631D02*
X8720182Y-8183583D01*
X8720182Y-8183583D02*
X8701135Y-8155012D01*
X8701135Y-8155012D02*
X8691611Y-8145488D01*
D12*
X2097500Y-8546576D02*
G75*
G02*
X2032500Y-8546576I-32500J0D01*
G01*
X2032500Y-8546576D02*
G75*
G02*
X2097500Y-8546576I32500J0D01*
G01*
D11*
X2396372Y-8438060D02*
X2415420Y-8438060D01*
X2415420Y-8438060D02*
X2434467Y-8447583D01*
X2434467Y-8447583D02*
X2443991Y-8457107D01*
X2443991Y-8457107D02*
X2453515Y-8476155D01*
X2453515Y-8476155D02*
X2463039Y-8514250D01*
X2463039Y-8514250D02*
X2463039Y-8561869D01*
X2463039Y-8561869D02*
X2453515Y-8599964D01*
X2453515Y-8599964D02*
X2443991Y-8619012D01*
X2443991Y-8619012D02*
X2434467Y-8628536D01*
X2434467Y-8628536D02*
X2415420Y-8638060D01*
X2415420Y-8638060D02*
X2396372Y-8638060D01*
X2396372Y-8638060D02*
X2377324Y-8628536D01*
X2377324Y-8628536D02*
X2367801Y-8619012D01*
X2367801Y-8619012D02*
X2358277Y-8599964D01*
X2358277Y-8599964D02*
X2348753Y-8561869D01*
X2348753Y-8561869D02*
X2348753Y-8514250D01*
X2348753Y-8514250D02*
X2358277Y-8476155D01*
X2358277Y-8476155D02*
X2367801Y-8457107D01*
X2367801Y-8457107D02*
X2377324Y-8447583D01*
X2377324Y-8447583D02*
X2396372Y-8438060D01*
X2548753Y-8619012D02*
X2558277Y-8628536D01*
X2558277Y-8628536D02*
X2548753Y-8638060D01*
X2548753Y-8638060D02*
X2539229Y-8628536D01*
X2539229Y-8628536D02*
X2548753Y-8619012D01*
X2548753Y-8619012D02*
X2548753Y-8638060D01*
X2729705Y-8438060D02*
X2691610Y-8438060D01*
X2691610Y-8438060D02*
X2672563Y-8447583D01*
X2672563Y-8447583D02*
X2663039Y-8457107D01*
X2663039Y-8457107D02*
X2643991Y-8485679D01*
X2643991Y-8485679D02*
X2634467Y-8523774D01*
X2634467Y-8523774D02*
X2634467Y-8599964D01*
X2634467Y-8599964D02*
X2643991Y-8619012D01*
X2643991Y-8619012D02*
X2653515Y-8628536D01*
X2653515Y-8628536D02*
X2672563Y-8638060D01*
X2672563Y-8638060D02*
X2710658Y-8638060D01*
X2710658Y-8638060D02*
X2729705Y-8628536D01*
X2729705Y-8628536D02*
X2739229Y-8619012D01*
X2739229Y-8619012D02*
X2748753Y-8599964D01*
X2748753Y-8599964D02*
X2748753Y-8552345D01*
X2748753Y-8552345D02*
X2739229Y-8533298D01*
X2739229Y-8533298D02*
X2729705Y-8523774D01*
X2729705Y-8523774D02*
X2710658Y-8514250D01*
X2710658Y-8514250D02*
X2672563Y-8514250D01*
X2672563Y-8514250D02*
X2653515Y-8523774D01*
X2653515Y-8523774D02*
X2643991Y-8533298D01*
X2643991Y-8533298D02*
X2634467Y-8552345D01*
X2929705Y-8438060D02*
X2834467Y-8438060D01*
X2834467Y-8438060D02*
X2824943Y-8533298D01*
X2824943Y-8533298D02*
X2834467Y-8523774D01*
X2834467Y-8523774D02*
X2853515Y-8514250D01*
X2853515Y-8514250D02*
X2901134Y-8514250D01*
X2901134Y-8514250D02*
X2920182Y-8523774D01*
X2920182Y-8523774D02*
X2929705Y-8533298D01*
X2929705Y-8533298D02*
X2939229Y-8552345D01*
X2939229Y-8552345D02*
X2939229Y-8599964D01*
X2939229Y-8599964D02*
X2929705Y-8619012D01*
X2929705Y-8619012D02*
X2920182Y-8628536D01*
X2920182Y-8628536D02*
X2901134Y-8638060D01*
X2901134Y-8638060D02*
X2853515Y-8638060D01*
X2853515Y-8638060D02*
X2834467Y-8628536D01*
X2834467Y-8628536D02*
X2824943Y-8619012D01*
X3063039Y-8438060D02*
X3082086Y-8438060D01*
X3082086Y-8438060D02*
X3101134Y-8447583D01*
X3101134Y-8447583D02*
X3110658Y-8457107D01*
X3110658Y-8457107D02*
X3120182Y-8476155D01*
X3120182Y-8476155D02*
X3129705Y-8514250D01*
X3129705Y-8514250D02*
X3129705Y-8561869D01*
X3129705Y-8561869D02*
X3120182Y-8599964D01*
X3120182Y-8599964D02*
X3110658Y-8619012D01*
X3110658Y-8619012D02*
X3101134Y-8628536D01*
X3101134Y-8628536D02*
X3082086Y-8638060D01*
X3082086Y-8638060D02*
X3063039Y-8638060D01*
X3063039Y-8638060D02*
X3043991Y-8628536D01*
X3043991Y-8628536D02*
X3034467Y-8619012D01*
X3034467Y-8619012D02*
X3024943Y-8599964D01*
X3024943Y-8599964D02*
X3015420Y-8561869D01*
X3015420Y-8561869D02*
X3015420Y-8514250D01*
X3015420Y-8514250D02*
X3024943Y-8476155D01*
X3024943Y-8476155D02*
X3034467Y-8457107D01*
X3034467Y-8457107D02*
X3043991Y-8447583D01*
X3043991Y-8447583D02*
X3063039Y-8438060D01*
X3215420Y-8638060D02*
X3215420Y-8504726D01*
X3215420Y-8523774D02*
X3224943Y-8514250D01*
X3224943Y-8514250D02*
X3243991Y-8504726D01*
X3243991Y-8504726D02*
X3272563Y-8504726D01*
X3272563Y-8504726D02*
X3291610Y-8514250D01*
X3291610Y-8514250D02*
X3301134Y-8533298D01*
X3301134Y-8533298D02*
X3301134Y-8638060D01*
X3301134Y-8533298D02*
X3310658Y-8514250D01*
X3310658Y-8514250D02*
X3329705Y-8504726D01*
X3329705Y-8504726D02*
X3358277Y-8504726D01*
X3358277Y-8504726D02*
X3377324Y-8514250D01*
X3377324Y-8514250D02*
X3386848Y-8533298D01*
X3386848Y-8533298D02*
X3386848Y-8638060D01*
X3482086Y-8638060D02*
X3482086Y-8504726D01*
X3482086Y-8523774D02*
X3491610Y-8514250D01*
X3491610Y-8514250D02*
X3510658Y-8504726D01*
X3510658Y-8504726D02*
X3539229Y-8504726D01*
X3539229Y-8504726D02*
X3558277Y-8514250D01*
X3558277Y-8514250D02*
X3567801Y-8533298D01*
X3567801Y-8533298D02*
X3567801Y-8638060D01*
X3567801Y-8533298D02*
X3577324Y-8514250D01*
X3577324Y-8514250D02*
X3596372Y-8504726D01*
X3596372Y-8504726D02*
X3624943Y-8504726D01*
X3624943Y-8504726D02*
X3643991Y-8514250D01*
X3643991Y-8514250D02*
X3653515Y-8533298D01*
X3653515Y-8533298D02*
X3653515Y-8638060D01*
X4043991Y-8428536D02*
X3872563Y-8685679D01*
X4301134Y-8438060D02*
X4320182Y-8438060D01*
X4320182Y-8438060D02*
X4339229Y-8447583D01*
X4339229Y-8447583D02*
X4348753Y-8457107D01*
X4348753Y-8457107D02*
X4358277Y-8476155D01*
X4358277Y-8476155D02*
X4367801Y-8514250D01*
X4367801Y-8514250D02*
X4367801Y-8561869D01*
X4367801Y-8561869D02*
X4358277Y-8599964D01*
X4358277Y-8599964D02*
X4348753Y-8619012D01*
X4348753Y-8619012D02*
X4339229Y-8628536D01*
X4339229Y-8628536D02*
X4320182Y-8638060D01*
X4320182Y-8638060D02*
X4301134Y-8638060D01*
X4301134Y-8638060D02*
X4282087Y-8628536D01*
X4282087Y-8628536D02*
X4272563Y-8619012D01*
X4272563Y-8619012D02*
X4263039Y-8599964D01*
X4263039Y-8599964D02*
X4253515Y-8561869D01*
X4253515Y-8561869D02*
X4253515Y-8514250D01*
X4253515Y-8514250D02*
X4263039Y-8476155D01*
X4263039Y-8476155D02*
X4272563Y-8457107D01*
X4272563Y-8457107D02*
X4282087Y-8447583D01*
X4282087Y-8447583D02*
X4301134Y-8438060D01*
X4453515Y-8619012D02*
X4463039Y-8628536D01*
X4463039Y-8628536D02*
X4453515Y-8638060D01*
X4453515Y-8638060D02*
X4443991Y-8628536D01*
X4443991Y-8628536D02*
X4453515Y-8619012D01*
X4453515Y-8619012D02*
X4453515Y-8638060D01*
X4586848Y-8438060D02*
X4605896Y-8438060D01*
X4605896Y-8438060D02*
X4624944Y-8447583D01*
X4624944Y-8447583D02*
X4634468Y-8457107D01*
X4634468Y-8457107D02*
X4643991Y-8476155D01*
X4643991Y-8476155D02*
X4653515Y-8514250D01*
X4653515Y-8514250D02*
X4653515Y-8561869D01*
X4653515Y-8561869D02*
X4643991Y-8599964D01*
X4643991Y-8599964D02*
X4634468Y-8619012D01*
X4634468Y-8619012D02*
X4624944Y-8628536D01*
X4624944Y-8628536D02*
X4605896Y-8638060D01*
X4605896Y-8638060D02*
X4586848Y-8638060D01*
X4586848Y-8638060D02*
X4567801Y-8628536D01*
X4567801Y-8628536D02*
X4558277Y-8619012D01*
X4558277Y-8619012D02*
X4548753Y-8599964D01*
X4548753Y-8599964D02*
X4539229Y-8561869D01*
X4539229Y-8561869D02*
X4539229Y-8514250D01*
X4539229Y-8514250D02*
X4548753Y-8476155D01*
X4548753Y-8476155D02*
X4558277Y-8457107D01*
X4558277Y-8457107D02*
X4567801Y-8447583D01*
X4567801Y-8447583D02*
X4586848Y-8438060D01*
X4729706Y-8457107D02*
X4739229Y-8447583D01*
X4739229Y-8447583D02*
X4758277Y-8438060D01*
X4758277Y-8438060D02*
X4805896Y-8438060D01*
X4805896Y-8438060D02*
X4824944Y-8447583D01*
X4824944Y-8447583D02*
X4834468Y-8457107D01*
X4834468Y-8457107D02*
X4843991Y-8476155D01*
X4843991Y-8476155D02*
X4843991Y-8495202D01*
X4843991Y-8495202D02*
X4834468Y-8523774D01*
X4834468Y-8523774D02*
X4720182Y-8638060D01*
X4720182Y-8638060D02*
X4843991Y-8638060D01*
X5024944Y-8438060D02*
X4929706Y-8438060D01*
X4929706Y-8438060D02*
X4920182Y-8533298D01*
X4920182Y-8533298D02*
X4929706Y-8523774D01*
X4929706Y-8523774D02*
X4948753Y-8514250D01*
X4948753Y-8514250D02*
X4996372Y-8514250D01*
X4996372Y-8514250D02*
X5015420Y-8523774D01*
X5015420Y-8523774D02*
X5024944Y-8533298D01*
X5024944Y-8533298D02*
X5034468Y-8552345D01*
X5034468Y-8552345D02*
X5034468Y-8599964D01*
X5034468Y-8599964D02*
X5024944Y-8619012D01*
X5024944Y-8619012D02*
X5015420Y-8628536D01*
X5015420Y-8628536D02*
X4996372Y-8638060D01*
X4996372Y-8638060D02*
X4948753Y-8638060D01*
X4948753Y-8638060D02*
X4929706Y-8628536D01*
X4929706Y-8628536D02*
X4920182Y-8619012D01*
X5205896Y-8438060D02*
X5167801Y-8438060D01*
X5167801Y-8438060D02*
X5148753Y-8447583D01*
X5148753Y-8447583D02*
X5139229Y-8457107D01*
X5139229Y-8457107D02*
X5120182Y-8485679D01*
X5120182Y-8485679D02*
X5110658Y-8523774D01*
X5110658Y-8523774D02*
X5110658Y-8599964D01*
X5110658Y-8599964D02*
X5120182Y-8619012D01*
X5120182Y-8619012D02*
X5129706Y-8628536D01*
X5129706Y-8628536D02*
X5148753Y-8638060D01*
X5148753Y-8638060D02*
X5186849Y-8638060D01*
X5186849Y-8638060D02*
X5205896Y-8628536D01*
X5205896Y-8628536D02*
X5215420Y-8619012D01*
X5215420Y-8619012D02*
X5224944Y-8599964D01*
X5224944Y-8599964D02*
X5224944Y-8552345D01*
X5224944Y-8552345D02*
X5215420Y-8533298D01*
X5215420Y-8533298D02*
X5205896Y-8523774D01*
X5205896Y-8523774D02*
X5186849Y-8514250D01*
X5186849Y-8514250D02*
X5148753Y-8514250D01*
X5148753Y-8514250D02*
X5129706Y-8523774D01*
X5129706Y-8523774D02*
X5120182Y-8533298D01*
X5120182Y-8533298D02*
X5110658Y-8552345D01*
X5301134Y-8438060D02*
X5301134Y-8476155D01*
X5377325Y-8438060D02*
X5377325Y-8476155D01*
X5672563Y-8714250D02*
X5663039Y-8704726D01*
X5663039Y-8704726D02*
X5643991Y-8676155D01*
X5643991Y-8676155D02*
X5634468Y-8657107D01*
X5634468Y-8657107D02*
X5624944Y-8628536D01*
X5624944Y-8628536D02*
X5615420Y-8580917D01*
X5615420Y-8580917D02*
X5615420Y-8542822D01*
X5615420Y-8542822D02*
X5624944Y-8495202D01*
X5624944Y-8495202D02*
X5634468Y-8466631D01*
X5634468Y-8466631D02*
X5643991Y-8447583D01*
X5643991Y-8447583D02*
X5663039Y-8419012D01*
X5663039Y-8419012D02*
X5672563Y-8409488D01*
X5739229Y-8457107D02*
X5748753Y-8447583D01*
X5748753Y-8447583D02*
X5767801Y-8438060D01*
X5767801Y-8438060D02*
X5815420Y-8438060D01*
X5815420Y-8438060D02*
X5834468Y-8447583D01*
X5834468Y-8447583D02*
X5843991Y-8457107D01*
X5843991Y-8457107D02*
X5853515Y-8476155D01*
X5853515Y-8476155D02*
X5853515Y-8495202D01*
X5853515Y-8495202D02*
X5843991Y-8523774D01*
X5843991Y-8523774D02*
X5729706Y-8638060D01*
X5729706Y-8638060D02*
X5853515Y-8638060D01*
X6091610Y-8638060D02*
X6091610Y-8438060D01*
X6177325Y-8638060D02*
X6177325Y-8533298D01*
X6177325Y-8533298D02*
X6167801Y-8514250D01*
X6167801Y-8514250D02*
X6148753Y-8504726D01*
X6148753Y-8504726D02*
X6120182Y-8504726D01*
X6120182Y-8504726D02*
X6101134Y-8514250D01*
X6101134Y-8514250D02*
X6091610Y-8523774D01*
X6301134Y-8638060D02*
X6282087Y-8628536D01*
X6282087Y-8628536D02*
X6272563Y-8619012D01*
X6272563Y-8619012D02*
X6263039Y-8599964D01*
X6263039Y-8599964D02*
X6263039Y-8542822D01*
X6263039Y-8542822D02*
X6272563Y-8523774D01*
X6272563Y-8523774D02*
X6282087Y-8514250D01*
X6282087Y-8514250D02*
X6301134Y-8504726D01*
X6301134Y-8504726D02*
X6329706Y-8504726D01*
X6329706Y-8504726D02*
X6348753Y-8514250D01*
X6348753Y-8514250D02*
X6358277Y-8523774D01*
X6358277Y-8523774D02*
X6367801Y-8542822D01*
X6367801Y-8542822D02*
X6367801Y-8599964D01*
X6367801Y-8599964D02*
X6358277Y-8619012D01*
X6358277Y-8619012D02*
X6348753Y-8628536D01*
X6348753Y-8628536D02*
X6329706Y-8638060D01*
X6329706Y-8638060D02*
X6301134Y-8638060D01*
X6482087Y-8638060D02*
X6463039Y-8628536D01*
X6463039Y-8628536D02*
X6453515Y-8609488D01*
X6453515Y-8609488D02*
X6453515Y-8438060D01*
X6634468Y-8628536D02*
X6615420Y-8638060D01*
X6615420Y-8638060D02*
X6577325Y-8638060D01*
X6577325Y-8638060D02*
X6558277Y-8628536D01*
X6558277Y-8628536D02*
X6548753Y-8609488D01*
X6548753Y-8609488D02*
X6548753Y-8533298D01*
X6548753Y-8533298D02*
X6558277Y-8514250D01*
X6558277Y-8514250D02*
X6577325Y-8504726D01*
X6577325Y-8504726D02*
X6615420Y-8504726D01*
X6615420Y-8504726D02*
X6634468Y-8514250D01*
X6634468Y-8514250D02*
X6643991Y-8533298D01*
X6643991Y-8533298D02*
X6643991Y-8552345D01*
X6643991Y-8552345D02*
X6548753Y-8571393D01*
X6720182Y-8628536D02*
X6739230Y-8638060D01*
X6739230Y-8638060D02*
X6777325Y-8638060D01*
X6777325Y-8638060D02*
X6796372Y-8628536D01*
X6796372Y-8628536D02*
X6805896Y-8609488D01*
X6805896Y-8609488D02*
X6805896Y-8599964D01*
X6805896Y-8599964D02*
X6796372Y-8580917D01*
X6796372Y-8580917D02*
X6777325Y-8571393D01*
X6777325Y-8571393D02*
X6748753Y-8571393D01*
X6748753Y-8571393D02*
X6729706Y-8561869D01*
X6729706Y-8561869D02*
X6720182Y-8542822D01*
X6720182Y-8542822D02*
X6720182Y-8533298D01*
X6720182Y-8533298D02*
X6729706Y-8514250D01*
X6729706Y-8514250D02*
X6748753Y-8504726D01*
X6748753Y-8504726D02*
X6777325Y-8504726D01*
X6777325Y-8504726D02*
X6796372Y-8514250D01*
X6872563Y-8714250D02*
X6882087Y-8704726D01*
X6882087Y-8704726D02*
X6901134Y-8676155D01*
X6901134Y-8676155D02*
X6910658Y-8657107D01*
X6910658Y-8657107D02*
X6920182Y-8628536D01*
X6920182Y-8628536D02*
X6929706Y-8580917D01*
X6929706Y-8580917D02*
X6929706Y-8542822D01*
X6929706Y-8542822D02*
X6920182Y-8495202D01*
X6920182Y-8495202D02*
X6910658Y-8466631D01*
X6910658Y-8466631D02*
X6901134Y-8447583D01*
X6901134Y-8447583D02*
X6882087Y-8419012D01*
X6882087Y-8419012D02*
X6872563Y-8409488D01*
X7234468Y-8714250D02*
X7224944Y-8704726D01*
X7224944Y-8704726D02*
X7205896Y-8676155D01*
X7205896Y-8676155D02*
X7196372Y-8657107D01*
X7196372Y-8657107D02*
X7186849Y-8628536D01*
X7186849Y-8628536D02*
X7177325Y-8580917D01*
X7177325Y-8580917D02*
X7177325Y-8542822D01*
X7177325Y-8542822D02*
X7186849Y-8495202D01*
X7186849Y-8495202D02*
X7196372Y-8466631D01*
X7196372Y-8466631D02*
X7205896Y-8447583D01*
X7205896Y-8447583D02*
X7224944Y-8419012D01*
X7224944Y-8419012D02*
X7234468Y-8409488D01*
X7310658Y-8504726D02*
X7310658Y-8638060D01*
X7310658Y-8523774D02*
X7320182Y-8514250D01*
X7320182Y-8514250D02*
X7339230Y-8504726D01*
X7339230Y-8504726D02*
X7367801Y-8504726D01*
X7367801Y-8504726D02*
X7386849Y-8514250D01*
X7386849Y-8514250D02*
X7396372Y-8533298D01*
X7396372Y-8533298D02*
X7396372Y-8638060D01*
X7520182Y-8638060D02*
X7501134Y-8628536D01*
X7501134Y-8628536D02*
X7491611Y-8619012D01*
X7491611Y-8619012D02*
X7482087Y-8599964D01*
X7482087Y-8599964D02*
X7482087Y-8542822D01*
X7482087Y-8542822D02*
X7491611Y-8523774D01*
X7491611Y-8523774D02*
X7501134Y-8514250D01*
X7501134Y-8514250D02*
X7520182Y-8504726D01*
X7520182Y-8504726D02*
X7548753Y-8504726D01*
X7548753Y-8504726D02*
X7567801Y-8514250D01*
X7567801Y-8514250D02*
X7577325Y-8523774D01*
X7577325Y-8523774D02*
X7586849Y-8542822D01*
X7586849Y-8542822D02*
X7586849Y-8599964D01*
X7586849Y-8599964D02*
X7577325Y-8619012D01*
X7577325Y-8619012D02*
X7567801Y-8628536D01*
X7567801Y-8628536D02*
X7548753Y-8638060D01*
X7548753Y-8638060D02*
X7520182Y-8638060D01*
X7643992Y-8504726D02*
X7720182Y-8504726D01*
X7672563Y-8438060D02*
X7672563Y-8609488D01*
X7672563Y-8609488D02*
X7682087Y-8628536D01*
X7682087Y-8628536D02*
X7701134Y-8638060D01*
X7701134Y-8638060D02*
X7720182Y-8638060D01*
X7939230Y-8504726D02*
X7939230Y-8704726D01*
X7939230Y-8514250D02*
X7958277Y-8504726D01*
X7958277Y-8504726D02*
X7996373Y-8504726D01*
X7996373Y-8504726D02*
X8015420Y-8514250D01*
X8015420Y-8514250D02*
X8024944Y-8523774D01*
X8024944Y-8523774D02*
X8034468Y-8542822D01*
X8034468Y-8542822D02*
X8034468Y-8599964D01*
X8034468Y-8599964D02*
X8024944Y-8619012D01*
X8024944Y-8619012D02*
X8015420Y-8628536D01*
X8015420Y-8628536D02*
X7996373Y-8638060D01*
X7996373Y-8638060D02*
X7958277Y-8638060D01*
X7958277Y-8638060D02*
X7939230Y-8628536D01*
X8148753Y-8638060D02*
X8129706Y-8628536D01*
X8129706Y-8628536D02*
X8120182Y-8609488D01*
X8120182Y-8609488D02*
X8120182Y-8438060D01*
X8310658Y-8638060D02*
X8310658Y-8533298D01*
X8310658Y-8533298D02*
X8301134Y-8514250D01*
X8301134Y-8514250D02*
X8282087Y-8504726D01*
X8282087Y-8504726D02*
X8243992Y-8504726D01*
X8243992Y-8504726D02*
X8224944Y-8514250D01*
X8310658Y-8628536D02*
X8291611Y-8638060D01*
X8291611Y-8638060D02*
X8243992Y-8638060D01*
X8243992Y-8638060D02*
X8224944Y-8628536D01*
X8224944Y-8628536D02*
X8215420Y-8609488D01*
X8215420Y-8609488D02*
X8215420Y-8590441D01*
X8215420Y-8590441D02*
X8224944Y-8571393D01*
X8224944Y-8571393D02*
X8243992Y-8561869D01*
X8243992Y-8561869D02*
X8291611Y-8561869D01*
X8291611Y-8561869D02*
X8310658Y-8552345D01*
X8377325Y-8504726D02*
X8453515Y-8504726D01*
X8405896Y-8438060D02*
X8405896Y-8609488D01*
X8405896Y-8609488D02*
X8415420Y-8628536D01*
X8415420Y-8628536D02*
X8434468Y-8638060D01*
X8434468Y-8638060D02*
X8453515Y-8638060D01*
X8596373Y-8628536D02*
X8577325Y-8638060D01*
X8577325Y-8638060D02*
X8539230Y-8638060D01*
X8539230Y-8638060D02*
X8520182Y-8628536D01*
X8520182Y-8628536D02*
X8510658Y-8609488D01*
X8510658Y-8609488D02*
X8510658Y-8533298D01*
X8510658Y-8533298D02*
X8520182Y-8514250D01*
X8520182Y-8514250D02*
X8539230Y-8504726D01*
X8539230Y-8504726D02*
X8577325Y-8504726D01*
X8577325Y-8504726D02*
X8596373Y-8514250D01*
X8596373Y-8514250D02*
X8605896Y-8533298D01*
X8605896Y-8533298D02*
X8605896Y-8552345D01*
X8605896Y-8552345D02*
X8510658Y-8571393D01*
X8777325Y-8638060D02*
X8777325Y-8438060D01*
X8777325Y-8628536D02*
X8758277Y-8638060D01*
X8758277Y-8638060D02*
X8720182Y-8638060D01*
X8720182Y-8638060D02*
X8701135Y-8628536D01*
X8701135Y-8628536D02*
X8691611Y-8619012D01*
X8691611Y-8619012D02*
X8682087Y-8599964D01*
X8682087Y-8599964D02*
X8682087Y-8542822D01*
X8682087Y-8542822D02*
X8691611Y-8523774D01*
X8691611Y-8523774D02*
X8701135Y-8514250D01*
X8701135Y-8514250D02*
X8720182Y-8504726D01*
X8720182Y-8504726D02*
X8758277Y-8504726D01*
X8758277Y-8504726D02*
X8777325Y-8514250D01*
X8853516Y-8714250D02*
X8863039Y-8704726D01*
X8863039Y-8704726D02*
X8882087Y-8676155D01*
X8882087Y-8676155D02*
X8891611Y-8657107D01*
X8891611Y-8657107D02*
X8901135Y-8628536D01*
X8901135Y-8628536D02*
X8910658Y-8580917D01*
X8910658Y-8580917D02*
X8910658Y-8542822D01*
X8910658Y-8542822D02*
X8901135Y-8495202D01*
X8901135Y-8495202D02*
X8891611Y-8466631D01*
X8891611Y-8466631D02*
X8882087Y-8447583D01*
X8882087Y-8447583D02*
X8863039Y-8419012D01*
X8863039Y-8419012D02*
X8853516Y-8409488D01*
D12*
X2047970Y-8761046D02*
X2047970Y-8860106D01*
X1998440Y-8810576D02*
X2097500Y-8810576D01*
D11*
X2396372Y-8702060D02*
X2415420Y-8702060D01*
X2415420Y-8702060D02*
X2434467Y-8711583D01*
X2434467Y-8711583D02*
X2443991Y-8721107D01*
X2443991Y-8721107D02*
X2453515Y-8740155D01*
X2453515Y-8740155D02*
X2463039Y-8778250D01*
X2463039Y-8778250D02*
X2463039Y-8825869D01*
X2463039Y-8825869D02*
X2453515Y-8863964D01*
X2453515Y-8863964D02*
X2443991Y-8883012D01*
X2443991Y-8883012D02*
X2434467Y-8892536D01*
X2434467Y-8892536D02*
X2415420Y-8902060D01*
X2415420Y-8902060D02*
X2396372Y-8902060D01*
X2396372Y-8902060D02*
X2377324Y-8892536D01*
X2377324Y-8892536D02*
X2367801Y-8883012D01*
X2367801Y-8883012D02*
X2358277Y-8863964D01*
X2358277Y-8863964D02*
X2348753Y-8825869D01*
X2348753Y-8825869D02*
X2348753Y-8778250D01*
X2348753Y-8778250D02*
X2358277Y-8740155D01*
X2358277Y-8740155D02*
X2367801Y-8721107D01*
X2367801Y-8721107D02*
X2377324Y-8711583D01*
X2377324Y-8711583D02*
X2396372Y-8702060D01*
X2548753Y-8883012D02*
X2558277Y-8892536D01*
X2558277Y-8892536D02*
X2548753Y-8902060D01*
X2548753Y-8902060D02*
X2539229Y-8892536D01*
X2539229Y-8892536D02*
X2548753Y-8883012D01*
X2548753Y-8883012D02*
X2548753Y-8902060D01*
X2653515Y-8902060D02*
X2691610Y-8902060D01*
X2691610Y-8902060D02*
X2710658Y-8892536D01*
X2710658Y-8892536D02*
X2720182Y-8883012D01*
X2720182Y-8883012D02*
X2739229Y-8854441D01*
X2739229Y-8854441D02*
X2748753Y-8816345D01*
X2748753Y-8816345D02*
X2748753Y-8740155D01*
X2748753Y-8740155D02*
X2739229Y-8721107D01*
X2739229Y-8721107D02*
X2729705Y-8711583D01*
X2729705Y-8711583D02*
X2710658Y-8702060D01*
X2710658Y-8702060D02*
X2672563Y-8702060D01*
X2672563Y-8702060D02*
X2653515Y-8711583D01*
X2653515Y-8711583D02*
X2643991Y-8721107D01*
X2643991Y-8721107D02*
X2634467Y-8740155D01*
X2634467Y-8740155D02*
X2634467Y-8787774D01*
X2634467Y-8787774D02*
X2643991Y-8806822D01*
X2643991Y-8806822D02*
X2653515Y-8816345D01*
X2653515Y-8816345D02*
X2672563Y-8825869D01*
X2672563Y-8825869D02*
X2710658Y-8825869D01*
X2710658Y-8825869D02*
X2729705Y-8816345D01*
X2729705Y-8816345D02*
X2739229Y-8806822D01*
X2739229Y-8806822D02*
X2748753Y-8787774D01*
X2843991Y-8902060D02*
X2882086Y-8902060D01*
X2882086Y-8902060D02*
X2901134Y-8892536D01*
X2901134Y-8892536D02*
X2910658Y-8883012D01*
X2910658Y-8883012D02*
X2929705Y-8854441D01*
X2929705Y-8854441D02*
X2939229Y-8816345D01*
X2939229Y-8816345D02*
X2939229Y-8740155D01*
X2939229Y-8740155D02*
X2929705Y-8721107D01*
X2929705Y-8721107D02*
X2920182Y-8711583D01*
X2920182Y-8711583D02*
X2901134Y-8702060D01*
X2901134Y-8702060D02*
X2863039Y-8702060D01*
X2863039Y-8702060D02*
X2843991Y-8711583D01*
X2843991Y-8711583D02*
X2834467Y-8721107D01*
X2834467Y-8721107D02*
X2824943Y-8740155D01*
X2824943Y-8740155D02*
X2824943Y-8787774D01*
X2824943Y-8787774D02*
X2834467Y-8806822D01*
X2834467Y-8806822D02*
X2843991Y-8816345D01*
X2843991Y-8816345D02*
X2863039Y-8825869D01*
X2863039Y-8825869D02*
X2901134Y-8825869D01*
X2901134Y-8825869D02*
X2920182Y-8816345D01*
X2920182Y-8816345D02*
X2929705Y-8806822D01*
X2929705Y-8806822D02*
X2939229Y-8787774D01*
X3129705Y-8902060D02*
X3015420Y-8902060D01*
X3072562Y-8902060D02*
X3072562Y-8702060D01*
X3072562Y-8702060D02*
X3053515Y-8730631D01*
X3053515Y-8730631D02*
X3034467Y-8749679D01*
X3034467Y-8749679D02*
X3015420Y-8759202D01*
X3215420Y-8902060D02*
X3215420Y-8768726D01*
X3215420Y-8787774D02*
X3224943Y-8778250D01*
X3224943Y-8778250D02*
X3243991Y-8768726D01*
X3243991Y-8768726D02*
X3272563Y-8768726D01*
X3272563Y-8768726D02*
X3291610Y-8778250D01*
X3291610Y-8778250D02*
X3301134Y-8797298D01*
X3301134Y-8797298D02*
X3301134Y-8902060D01*
X3301134Y-8797298D02*
X3310658Y-8778250D01*
X3310658Y-8778250D02*
X3329705Y-8768726D01*
X3329705Y-8768726D02*
X3358277Y-8768726D01*
X3358277Y-8768726D02*
X3377324Y-8778250D01*
X3377324Y-8778250D02*
X3386848Y-8797298D01*
X3386848Y-8797298D02*
X3386848Y-8902060D01*
X3482086Y-8902060D02*
X3482086Y-8768726D01*
X3482086Y-8787774D02*
X3491610Y-8778250D01*
X3491610Y-8778250D02*
X3510658Y-8768726D01*
X3510658Y-8768726D02*
X3539229Y-8768726D01*
X3539229Y-8768726D02*
X3558277Y-8778250D01*
X3558277Y-8778250D02*
X3567801Y-8797298D01*
X3567801Y-8797298D02*
X3567801Y-8902060D01*
X3567801Y-8797298D02*
X3577324Y-8778250D01*
X3577324Y-8778250D02*
X3596372Y-8768726D01*
X3596372Y-8768726D02*
X3624943Y-8768726D01*
X3624943Y-8768726D02*
X3643991Y-8778250D01*
X3643991Y-8778250D02*
X3653515Y-8797298D01*
X3653515Y-8797298D02*
X3653515Y-8902060D01*
X4043991Y-8692536D02*
X3872563Y-8949679D01*
X4301134Y-8702060D02*
X4320182Y-8702060D01*
X4320182Y-8702060D02*
X4339229Y-8711583D01*
X4339229Y-8711583D02*
X4348753Y-8721107D01*
X4348753Y-8721107D02*
X4358277Y-8740155D01*
X4358277Y-8740155D02*
X4367801Y-8778250D01*
X4367801Y-8778250D02*
X4367801Y-8825869D01*
X4367801Y-8825869D02*
X4358277Y-8863964D01*
X4358277Y-8863964D02*
X4348753Y-8883012D01*
X4348753Y-8883012D02*
X4339229Y-8892536D01*
X4339229Y-8892536D02*
X4320182Y-8902060D01*
X4320182Y-8902060D02*
X4301134Y-8902060D01*
X4301134Y-8902060D02*
X4282087Y-8892536D01*
X4282087Y-8892536D02*
X4272563Y-8883012D01*
X4272563Y-8883012D02*
X4263039Y-8863964D01*
X4263039Y-8863964D02*
X4253515Y-8825869D01*
X4253515Y-8825869D02*
X4253515Y-8778250D01*
X4253515Y-8778250D02*
X4263039Y-8740155D01*
X4263039Y-8740155D02*
X4272563Y-8721107D01*
X4272563Y-8721107D02*
X4282087Y-8711583D01*
X4282087Y-8711583D02*
X4301134Y-8702060D01*
X4453515Y-8883012D02*
X4463039Y-8892536D01*
X4463039Y-8892536D02*
X4453515Y-8902060D01*
X4453515Y-8902060D02*
X4443991Y-8892536D01*
X4443991Y-8892536D02*
X4453515Y-8883012D01*
X4453515Y-8883012D02*
X4453515Y-8902060D01*
X4586848Y-8702060D02*
X4605896Y-8702060D01*
X4605896Y-8702060D02*
X4624944Y-8711583D01*
X4624944Y-8711583D02*
X4634468Y-8721107D01*
X4634468Y-8721107D02*
X4643991Y-8740155D01*
X4643991Y-8740155D02*
X4653515Y-8778250D01*
X4653515Y-8778250D02*
X4653515Y-8825869D01*
X4653515Y-8825869D02*
X4643991Y-8863964D01*
X4643991Y-8863964D02*
X4634468Y-8883012D01*
X4634468Y-8883012D02*
X4624944Y-8892536D01*
X4624944Y-8892536D02*
X4605896Y-8902060D01*
X4605896Y-8902060D02*
X4586848Y-8902060D01*
X4586848Y-8902060D02*
X4567801Y-8892536D01*
X4567801Y-8892536D02*
X4558277Y-8883012D01*
X4558277Y-8883012D02*
X4548753Y-8863964D01*
X4548753Y-8863964D02*
X4539229Y-8825869D01*
X4539229Y-8825869D02*
X4539229Y-8778250D01*
X4539229Y-8778250D02*
X4548753Y-8740155D01*
X4548753Y-8740155D02*
X4558277Y-8721107D01*
X4558277Y-8721107D02*
X4567801Y-8711583D01*
X4567801Y-8711583D02*
X4586848Y-8702060D01*
X4720182Y-8702060D02*
X4843991Y-8702060D01*
X4843991Y-8702060D02*
X4777325Y-8778250D01*
X4777325Y-8778250D02*
X4805896Y-8778250D01*
X4805896Y-8778250D02*
X4824944Y-8787774D01*
X4824944Y-8787774D02*
X4834468Y-8797298D01*
X4834468Y-8797298D02*
X4843991Y-8816345D01*
X4843991Y-8816345D02*
X4843991Y-8863964D01*
X4843991Y-8863964D02*
X4834468Y-8883012D01*
X4834468Y-8883012D02*
X4824944Y-8892536D01*
X4824944Y-8892536D02*
X4805896Y-8902060D01*
X4805896Y-8902060D02*
X4748753Y-8902060D01*
X4748753Y-8902060D02*
X4729706Y-8892536D01*
X4729706Y-8892536D02*
X4720182Y-8883012D01*
X4939229Y-8902060D02*
X4977325Y-8902060D01*
X4977325Y-8902060D02*
X4996372Y-8892536D01*
X4996372Y-8892536D02*
X5005896Y-8883012D01*
X5005896Y-8883012D02*
X5024944Y-8854441D01*
X5024944Y-8854441D02*
X5034468Y-8816345D01*
X5034468Y-8816345D02*
X5034468Y-8740155D01*
X5034468Y-8740155D02*
X5024944Y-8721107D01*
X5024944Y-8721107D02*
X5015420Y-8711583D01*
X5015420Y-8711583D02*
X4996372Y-8702060D01*
X4996372Y-8702060D02*
X4958277Y-8702060D01*
X4958277Y-8702060D02*
X4939229Y-8711583D01*
X4939229Y-8711583D02*
X4929706Y-8721107D01*
X4929706Y-8721107D02*
X4920182Y-8740155D01*
X4920182Y-8740155D02*
X4920182Y-8787774D01*
X4920182Y-8787774D02*
X4929706Y-8806822D01*
X4929706Y-8806822D02*
X4939229Y-8816345D01*
X4939229Y-8816345D02*
X4958277Y-8825869D01*
X4958277Y-8825869D02*
X4996372Y-8825869D01*
X4996372Y-8825869D02*
X5015420Y-8816345D01*
X5015420Y-8816345D02*
X5024944Y-8806822D01*
X5024944Y-8806822D02*
X5034468Y-8787774D01*
X5158277Y-8702060D02*
X5177325Y-8702060D01*
X5177325Y-8702060D02*
X5196372Y-8711583D01*
X5196372Y-8711583D02*
X5205896Y-8721107D01*
X5205896Y-8721107D02*
X5215420Y-8740155D01*
X5215420Y-8740155D02*
X5224944Y-8778250D01*
X5224944Y-8778250D02*
X5224944Y-8825869D01*
X5224944Y-8825869D02*
X5215420Y-8863964D01*
X5215420Y-8863964D02*
X5205896Y-8883012D01*
X5205896Y-8883012D02*
X5196372Y-8892536D01*
X5196372Y-8892536D02*
X5177325Y-8902060D01*
X5177325Y-8902060D02*
X5158277Y-8902060D01*
X5158277Y-8902060D02*
X5139229Y-8892536D01*
X5139229Y-8892536D02*
X5129706Y-8883012D01*
X5129706Y-8883012D02*
X5120182Y-8863964D01*
X5120182Y-8863964D02*
X5110658Y-8825869D01*
X5110658Y-8825869D02*
X5110658Y-8778250D01*
X5110658Y-8778250D02*
X5120182Y-8740155D01*
X5120182Y-8740155D02*
X5129706Y-8721107D01*
X5129706Y-8721107D02*
X5139229Y-8711583D01*
X5139229Y-8711583D02*
X5158277Y-8702060D01*
X5301134Y-8702060D02*
X5301134Y-8740155D01*
X5377325Y-8702060D02*
X5377325Y-8740155D01*
X5672563Y-8978250D02*
X5663039Y-8968726D01*
X5663039Y-8968726D02*
X5643991Y-8940155D01*
X5643991Y-8940155D02*
X5634468Y-8921107D01*
X5634468Y-8921107D02*
X5624944Y-8892536D01*
X5624944Y-8892536D02*
X5615420Y-8844917D01*
X5615420Y-8844917D02*
X5615420Y-8806822D01*
X5615420Y-8806822D02*
X5624944Y-8759202D01*
X5624944Y-8759202D02*
X5634468Y-8730631D01*
X5634468Y-8730631D02*
X5643991Y-8711583D01*
X5643991Y-8711583D02*
X5663039Y-8683012D01*
X5663039Y-8683012D02*
X5672563Y-8673488D01*
X5729706Y-8702060D02*
X5853515Y-8702060D01*
X5853515Y-8702060D02*
X5786848Y-8778250D01*
X5786848Y-8778250D02*
X5815420Y-8778250D01*
X5815420Y-8778250D02*
X5834468Y-8787774D01*
X5834468Y-8787774D02*
X5843991Y-8797298D01*
X5843991Y-8797298D02*
X5853515Y-8816345D01*
X5853515Y-8816345D02*
X5853515Y-8863964D01*
X5853515Y-8863964D02*
X5843991Y-8883012D01*
X5843991Y-8883012D02*
X5834468Y-8892536D01*
X5834468Y-8892536D02*
X5815420Y-8902060D01*
X5815420Y-8902060D02*
X5758277Y-8902060D01*
X5758277Y-8902060D02*
X5739229Y-8892536D01*
X5739229Y-8892536D02*
X5729706Y-8883012D01*
X6091610Y-8902060D02*
X6091610Y-8702060D01*
X6177325Y-8902060D02*
X6177325Y-8797298D01*
X6177325Y-8797298D02*
X6167801Y-8778250D01*
X6167801Y-8778250D02*
X6148753Y-8768726D01*
X6148753Y-8768726D02*
X6120182Y-8768726D01*
X6120182Y-8768726D02*
X6101134Y-8778250D01*
X6101134Y-8778250D02*
X6091610Y-8787774D01*
X6301134Y-8902060D02*
X6282087Y-8892536D01*
X6282087Y-8892536D02*
X6272563Y-8883012D01*
X6272563Y-8883012D02*
X6263039Y-8863964D01*
X6263039Y-8863964D02*
X6263039Y-8806822D01*
X6263039Y-8806822D02*
X6272563Y-8787774D01*
X6272563Y-8787774D02*
X6282087Y-8778250D01*
X6282087Y-8778250D02*
X6301134Y-8768726D01*
X6301134Y-8768726D02*
X6329706Y-8768726D01*
X6329706Y-8768726D02*
X6348753Y-8778250D01*
X6348753Y-8778250D02*
X6358277Y-8787774D01*
X6358277Y-8787774D02*
X6367801Y-8806822D01*
X6367801Y-8806822D02*
X6367801Y-8863964D01*
X6367801Y-8863964D02*
X6358277Y-8883012D01*
X6358277Y-8883012D02*
X6348753Y-8892536D01*
X6348753Y-8892536D02*
X6329706Y-8902060D01*
X6329706Y-8902060D02*
X6301134Y-8902060D01*
X6482087Y-8902060D02*
X6463039Y-8892536D01*
X6463039Y-8892536D02*
X6453515Y-8873488D01*
X6453515Y-8873488D02*
X6453515Y-8702060D01*
X6634468Y-8892536D02*
X6615420Y-8902060D01*
X6615420Y-8902060D02*
X6577325Y-8902060D01*
X6577325Y-8902060D02*
X6558277Y-8892536D01*
X6558277Y-8892536D02*
X6548753Y-8873488D01*
X6548753Y-8873488D02*
X6548753Y-8797298D01*
X6548753Y-8797298D02*
X6558277Y-8778250D01*
X6558277Y-8778250D02*
X6577325Y-8768726D01*
X6577325Y-8768726D02*
X6615420Y-8768726D01*
X6615420Y-8768726D02*
X6634468Y-8778250D01*
X6634468Y-8778250D02*
X6643991Y-8797298D01*
X6643991Y-8797298D02*
X6643991Y-8816345D01*
X6643991Y-8816345D02*
X6548753Y-8835393D01*
X6720182Y-8892536D02*
X6739230Y-8902060D01*
X6739230Y-8902060D02*
X6777325Y-8902060D01*
X6777325Y-8902060D02*
X6796372Y-8892536D01*
X6796372Y-8892536D02*
X6805896Y-8873488D01*
X6805896Y-8873488D02*
X6805896Y-8863964D01*
X6805896Y-8863964D02*
X6796372Y-8844917D01*
X6796372Y-8844917D02*
X6777325Y-8835393D01*
X6777325Y-8835393D02*
X6748753Y-8835393D01*
X6748753Y-8835393D02*
X6729706Y-8825869D01*
X6729706Y-8825869D02*
X6720182Y-8806822D01*
X6720182Y-8806822D02*
X6720182Y-8797298D01*
X6720182Y-8797298D02*
X6729706Y-8778250D01*
X6729706Y-8778250D02*
X6748753Y-8768726D01*
X6748753Y-8768726D02*
X6777325Y-8768726D01*
X6777325Y-8768726D02*
X6796372Y-8778250D01*
X6872563Y-8978250D02*
X6882087Y-8968726D01*
X6882087Y-8968726D02*
X6901134Y-8940155D01*
X6901134Y-8940155D02*
X6910658Y-8921107D01*
X6910658Y-8921107D02*
X6920182Y-8892536D01*
X6920182Y-8892536D02*
X6929706Y-8844917D01*
X6929706Y-8844917D02*
X6929706Y-8806822D01*
X6929706Y-8806822D02*
X6920182Y-8759202D01*
X6920182Y-8759202D02*
X6910658Y-8730631D01*
X6910658Y-8730631D02*
X6901134Y-8711583D01*
X6901134Y-8711583D02*
X6882087Y-8683012D01*
X6882087Y-8683012D02*
X6872563Y-8673488D01*
X7234468Y-8978250D02*
X7224944Y-8968726D01*
X7224944Y-8968726D02*
X7205896Y-8940155D01*
X7205896Y-8940155D02*
X7196372Y-8921107D01*
X7196372Y-8921107D02*
X7186849Y-8892536D01*
X7186849Y-8892536D02*
X7177325Y-8844917D01*
X7177325Y-8844917D02*
X7177325Y-8806822D01*
X7177325Y-8806822D02*
X7186849Y-8759202D01*
X7186849Y-8759202D02*
X7196372Y-8730631D01*
X7196372Y-8730631D02*
X7205896Y-8711583D01*
X7205896Y-8711583D02*
X7224944Y-8683012D01*
X7224944Y-8683012D02*
X7234468Y-8673488D01*
X7310658Y-8768726D02*
X7310658Y-8902060D01*
X7310658Y-8787774D02*
X7320182Y-8778250D01*
X7320182Y-8778250D02*
X7339230Y-8768726D01*
X7339230Y-8768726D02*
X7367801Y-8768726D01*
X7367801Y-8768726D02*
X7386849Y-8778250D01*
X7386849Y-8778250D02*
X7396372Y-8797298D01*
X7396372Y-8797298D02*
X7396372Y-8902060D01*
X7520182Y-8902060D02*
X7501134Y-8892536D01*
X7501134Y-8892536D02*
X7491611Y-8883012D01*
X7491611Y-8883012D02*
X7482087Y-8863964D01*
X7482087Y-8863964D02*
X7482087Y-8806822D01*
X7482087Y-8806822D02*
X7491611Y-8787774D01*
X7491611Y-8787774D02*
X7501134Y-8778250D01*
X7501134Y-8778250D02*
X7520182Y-8768726D01*
X7520182Y-8768726D02*
X7548753Y-8768726D01*
X7548753Y-8768726D02*
X7567801Y-8778250D01*
X7567801Y-8778250D02*
X7577325Y-8787774D01*
X7577325Y-8787774D02*
X7586849Y-8806822D01*
X7586849Y-8806822D02*
X7586849Y-8863964D01*
X7586849Y-8863964D02*
X7577325Y-8883012D01*
X7577325Y-8883012D02*
X7567801Y-8892536D01*
X7567801Y-8892536D02*
X7548753Y-8902060D01*
X7548753Y-8902060D02*
X7520182Y-8902060D01*
X7643992Y-8768726D02*
X7720182Y-8768726D01*
X7672563Y-8702060D02*
X7672563Y-8873488D01*
X7672563Y-8873488D02*
X7682087Y-8892536D01*
X7682087Y-8892536D02*
X7701134Y-8902060D01*
X7701134Y-8902060D02*
X7720182Y-8902060D01*
X7939230Y-8768726D02*
X7939230Y-8968726D01*
X7939230Y-8778250D02*
X7958277Y-8768726D01*
X7958277Y-8768726D02*
X7996373Y-8768726D01*
X7996373Y-8768726D02*
X8015420Y-8778250D01*
X8015420Y-8778250D02*
X8024944Y-8787774D01*
X8024944Y-8787774D02*
X8034468Y-8806822D01*
X8034468Y-8806822D02*
X8034468Y-8863964D01*
X8034468Y-8863964D02*
X8024944Y-8883012D01*
X8024944Y-8883012D02*
X8015420Y-8892536D01*
X8015420Y-8892536D02*
X7996373Y-8902060D01*
X7996373Y-8902060D02*
X7958277Y-8902060D01*
X7958277Y-8902060D02*
X7939230Y-8892536D01*
X8148753Y-8902060D02*
X8129706Y-8892536D01*
X8129706Y-8892536D02*
X8120182Y-8873488D01*
X8120182Y-8873488D02*
X8120182Y-8702060D01*
X8310658Y-8902060D02*
X8310658Y-8797298D01*
X8310658Y-8797298D02*
X8301134Y-8778250D01*
X8301134Y-8778250D02*
X8282087Y-8768726D01*
X8282087Y-8768726D02*
X8243992Y-8768726D01*
X8243992Y-8768726D02*
X8224944Y-8778250D01*
X8310658Y-8892536D02*
X8291611Y-8902060D01*
X8291611Y-8902060D02*
X8243992Y-8902060D01*
X8243992Y-8902060D02*
X8224944Y-8892536D01*
X8224944Y-8892536D02*
X8215420Y-8873488D01*
X8215420Y-8873488D02*
X8215420Y-8854441D01*
X8215420Y-8854441D02*
X8224944Y-8835393D01*
X8224944Y-8835393D02*
X8243992Y-8825869D01*
X8243992Y-8825869D02*
X8291611Y-8825869D01*
X8291611Y-8825869D02*
X8310658Y-8816345D01*
X8377325Y-8768726D02*
X8453515Y-8768726D01*
X8405896Y-8702060D02*
X8405896Y-8873488D01*
X8405896Y-8873488D02*
X8415420Y-8892536D01*
X8415420Y-8892536D02*
X8434468Y-8902060D01*
X8434468Y-8902060D02*
X8453515Y-8902060D01*
X8596373Y-8892536D02*
X8577325Y-8902060D01*
X8577325Y-8902060D02*
X8539230Y-8902060D01*
X8539230Y-8902060D02*
X8520182Y-8892536D01*
X8520182Y-8892536D02*
X8510658Y-8873488D01*
X8510658Y-8873488D02*
X8510658Y-8797298D01*
X8510658Y-8797298D02*
X8520182Y-8778250D01*
X8520182Y-8778250D02*
X8539230Y-8768726D01*
X8539230Y-8768726D02*
X8577325Y-8768726D01*
X8577325Y-8768726D02*
X8596373Y-8778250D01*
X8596373Y-8778250D02*
X8605896Y-8797298D01*
X8605896Y-8797298D02*
X8605896Y-8816345D01*
X8605896Y-8816345D02*
X8510658Y-8835393D01*
X8777325Y-8902060D02*
X8777325Y-8702060D01*
X8777325Y-8892536D02*
X8758277Y-8902060D01*
X8758277Y-8902060D02*
X8720182Y-8902060D01*
X8720182Y-8902060D02*
X8701135Y-8892536D01*
X8701135Y-8892536D02*
X8691611Y-8883012D01*
X8691611Y-8883012D02*
X8682087Y-8863964D01*
X8682087Y-8863964D02*
X8682087Y-8806822D01*
X8682087Y-8806822D02*
X8691611Y-8787774D01*
X8691611Y-8787774D02*
X8701135Y-8778250D01*
X8701135Y-8778250D02*
X8720182Y-8768726D01*
X8720182Y-8768726D02*
X8758277Y-8768726D01*
X8758277Y-8768726D02*
X8777325Y-8778250D01*
X8853516Y-8978250D02*
X8863039Y-8968726D01*
X8863039Y-8968726D02*
X8882087Y-8940155D01*
X8882087Y-8940155D02*
X8891611Y-8921107D01*
X8891611Y-8921107D02*
X8901135Y-8892536D01*
X8901135Y-8892536D02*
X8910658Y-8844917D01*
X8910658Y-8844917D02*
X8910658Y-8806822D01*
X8910658Y-8806822D02*
X8901135Y-8759202D01*
X8901135Y-8759202D02*
X8891611Y-8730631D01*
X8891611Y-8730631D02*
X8882087Y-8711583D01*
X8882087Y-8711583D02*
X8863039Y-8683012D01*
X8863039Y-8683012D02*
X8853516Y-8673488D01*
X2068211Y-9145287D02*
X2068211Y-9003864D01*
X1926789Y-9003864D01*
X1926789Y-9145287D01*
X2068211Y-9145287D01*
X2348753Y-8985107D02*
X2358277Y-8975583D01*
X2358277Y-8975583D02*
X2377324Y-8966060D01*
X2377324Y-8966060D02*
X2424944Y-8966060D01*
X2424944Y-8966060D02*
X2443991Y-8975583D01*
X2443991Y-8975583D02*
X2453515Y-8985107D01*
X2453515Y-8985107D02*
X2463039Y-9004155D01*
X2463039Y-9004155D02*
X2463039Y-9023202D01*
X2463039Y-9023202D02*
X2453515Y-9051774D01*
X2453515Y-9051774D02*
X2339229Y-9166060D01*
X2339229Y-9166060D02*
X2463039Y-9166060D01*
X2548753Y-9147012D02*
X2558277Y-9156536D01*
X2558277Y-9156536D02*
X2548753Y-9166060D01*
X2548753Y-9166060D02*
X2539229Y-9156536D01*
X2539229Y-9156536D02*
X2548753Y-9147012D01*
X2548753Y-9147012D02*
X2548753Y-9166060D01*
X2682086Y-8966060D02*
X2701134Y-8966060D01*
X2701134Y-8966060D02*
X2720182Y-8975583D01*
X2720182Y-8975583D02*
X2729705Y-8985107D01*
X2729705Y-8985107D02*
X2739229Y-9004155D01*
X2739229Y-9004155D02*
X2748753Y-9042250D01*
X2748753Y-9042250D02*
X2748753Y-9089869D01*
X2748753Y-9089869D02*
X2739229Y-9127964D01*
X2739229Y-9127964D02*
X2729705Y-9147012D01*
X2729705Y-9147012D02*
X2720182Y-9156536D01*
X2720182Y-9156536D02*
X2701134Y-9166060D01*
X2701134Y-9166060D02*
X2682086Y-9166060D01*
X2682086Y-9166060D02*
X2663039Y-9156536D01*
X2663039Y-9156536D02*
X2653515Y-9147012D01*
X2653515Y-9147012D02*
X2643991Y-9127964D01*
X2643991Y-9127964D02*
X2634467Y-9089869D01*
X2634467Y-9089869D02*
X2634467Y-9042250D01*
X2634467Y-9042250D02*
X2643991Y-9004155D01*
X2643991Y-9004155D02*
X2653515Y-8985107D01*
X2653515Y-8985107D02*
X2663039Y-8975583D01*
X2663039Y-8975583D02*
X2682086Y-8966060D01*
X2872562Y-8966060D02*
X2891610Y-8966060D01*
X2891610Y-8966060D02*
X2910658Y-8975583D01*
X2910658Y-8975583D02*
X2920182Y-8985107D01*
X2920182Y-8985107D02*
X2929705Y-9004155D01*
X2929705Y-9004155D02*
X2939229Y-9042250D01*
X2939229Y-9042250D02*
X2939229Y-9089869D01*
X2939229Y-9089869D02*
X2929705Y-9127964D01*
X2929705Y-9127964D02*
X2920182Y-9147012D01*
X2920182Y-9147012D02*
X2910658Y-9156536D01*
X2910658Y-9156536D02*
X2891610Y-9166060D01*
X2891610Y-9166060D02*
X2872562Y-9166060D01*
X2872562Y-9166060D02*
X2853515Y-9156536D01*
X2853515Y-9156536D02*
X2843991Y-9147012D01*
X2843991Y-9147012D02*
X2834467Y-9127964D01*
X2834467Y-9127964D02*
X2824943Y-9089869D01*
X2824943Y-9089869D02*
X2824943Y-9042250D01*
X2824943Y-9042250D02*
X2834467Y-9004155D01*
X2834467Y-9004155D02*
X2843991Y-8985107D01*
X2843991Y-8985107D02*
X2853515Y-8975583D01*
X2853515Y-8975583D02*
X2872562Y-8966060D01*
X3063039Y-8966060D02*
X3082086Y-8966060D01*
X3082086Y-8966060D02*
X3101134Y-8975583D01*
X3101134Y-8975583D02*
X3110658Y-8985107D01*
X3110658Y-8985107D02*
X3120182Y-9004155D01*
X3120182Y-9004155D02*
X3129705Y-9042250D01*
X3129705Y-9042250D02*
X3129705Y-9089869D01*
X3129705Y-9089869D02*
X3120182Y-9127964D01*
X3120182Y-9127964D02*
X3110658Y-9147012D01*
X3110658Y-9147012D02*
X3101134Y-9156536D01*
X3101134Y-9156536D02*
X3082086Y-9166060D01*
X3082086Y-9166060D02*
X3063039Y-9166060D01*
X3063039Y-9166060D02*
X3043991Y-9156536D01*
X3043991Y-9156536D02*
X3034467Y-9147012D01*
X3034467Y-9147012D02*
X3024943Y-9127964D01*
X3024943Y-9127964D02*
X3015420Y-9089869D01*
X3015420Y-9089869D02*
X3015420Y-9042250D01*
X3015420Y-9042250D02*
X3024943Y-9004155D01*
X3024943Y-9004155D02*
X3034467Y-8985107D01*
X3034467Y-8985107D02*
X3043991Y-8975583D01*
X3043991Y-8975583D02*
X3063039Y-8966060D01*
X3215420Y-9166060D02*
X3215420Y-9032726D01*
X3215420Y-9051774D02*
X3224943Y-9042250D01*
X3224943Y-9042250D02*
X3243991Y-9032726D01*
X3243991Y-9032726D02*
X3272563Y-9032726D01*
X3272563Y-9032726D02*
X3291610Y-9042250D01*
X3291610Y-9042250D02*
X3301134Y-9061298D01*
X3301134Y-9061298D02*
X3301134Y-9166060D01*
X3301134Y-9061298D02*
X3310658Y-9042250D01*
X3310658Y-9042250D02*
X3329705Y-9032726D01*
X3329705Y-9032726D02*
X3358277Y-9032726D01*
X3358277Y-9032726D02*
X3377324Y-9042250D01*
X3377324Y-9042250D02*
X3386848Y-9061298D01*
X3386848Y-9061298D02*
X3386848Y-9166060D01*
X3482086Y-9166060D02*
X3482086Y-9032726D01*
X3482086Y-9051774D02*
X3491610Y-9042250D01*
X3491610Y-9042250D02*
X3510658Y-9032726D01*
X3510658Y-9032726D02*
X3539229Y-9032726D01*
X3539229Y-9032726D02*
X3558277Y-9042250D01*
X3558277Y-9042250D02*
X3567801Y-9061298D01*
X3567801Y-9061298D02*
X3567801Y-9166060D01*
X3567801Y-9061298D02*
X3577324Y-9042250D01*
X3577324Y-9042250D02*
X3596372Y-9032726D01*
X3596372Y-9032726D02*
X3624943Y-9032726D01*
X3624943Y-9032726D02*
X3643991Y-9042250D01*
X3643991Y-9042250D02*
X3653515Y-9061298D01*
X3653515Y-9061298D02*
X3653515Y-9166060D01*
X4043991Y-8956536D02*
X3872563Y-9213679D01*
X4301134Y-8966060D02*
X4320182Y-8966060D01*
X4320182Y-8966060D02*
X4339229Y-8975583D01*
X4339229Y-8975583D02*
X4348753Y-8985107D01*
X4348753Y-8985107D02*
X4358277Y-9004155D01*
X4358277Y-9004155D02*
X4367801Y-9042250D01*
X4367801Y-9042250D02*
X4367801Y-9089869D01*
X4367801Y-9089869D02*
X4358277Y-9127964D01*
X4358277Y-9127964D02*
X4348753Y-9147012D01*
X4348753Y-9147012D02*
X4339229Y-9156536D01*
X4339229Y-9156536D02*
X4320182Y-9166060D01*
X4320182Y-9166060D02*
X4301134Y-9166060D01*
X4301134Y-9166060D02*
X4282087Y-9156536D01*
X4282087Y-9156536D02*
X4272563Y-9147012D01*
X4272563Y-9147012D02*
X4263039Y-9127964D01*
X4263039Y-9127964D02*
X4253515Y-9089869D01*
X4253515Y-9089869D02*
X4253515Y-9042250D01*
X4253515Y-9042250D02*
X4263039Y-9004155D01*
X4263039Y-9004155D02*
X4272563Y-8985107D01*
X4272563Y-8985107D02*
X4282087Y-8975583D01*
X4282087Y-8975583D02*
X4301134Y-8966060D01*
X4453515Y-9147012D02*
X4463039Y-9156536D01*
X4463039Y-9156536D02*
X4453515Y-9166060D01*
X4453515Y-9166060D02*
X4443991Y-9156536D01*
X4443991Y-9156536D02*
X4453515Y-9147012D01*
X4453515Y-9147012D02*
X4453515Y-9166060D01*
X4586848Y-8966060D02*
X4605896Y-8966060D01*
X4605896Y-8966060D02*
X4624944Y-8975583D01*
X4624944Y-8975583D02*
X4634468Y-8985107D01*
X4634468Y-8985107D02*
X4643991Y-9004155D01*
X4643991Y-9004155D02*
X4653515Y-9042250D01*
X4653515Y-9042250D02*
X4653515Y-9089869D01*
X4653515Y-9089869D02*
X4643991Y-9127964D01*
X4643991Y-9127964D02*
X4634468Y-9147012D01*
X4634468Y-9147012D02*
X4624944Y-9156536D01*
X4624944Y-9156536D02*
X4605896Y-9166060D01*
X4605896Y-9166060D02*
X4586848Y-9166060D01*
X4586848Y-9166060D02*
X4567801Y-9156536D01*
X4567801Y-9156536D02*
X4558277Y-9147012D01*
X4558277Y-9147012D02*
X4548753Y-9127964D01*
X4548753Y-9127964D02*
X4539229Y-9089869D01*
X4539229Y-9089869D02*
X4539229Y-9042250D01*
X4539229Y-9042250D02*
X4548753Y-9004155D01*
X4548753Y-9004155D02*
X4558277Y-8985107D01*
X4558277Y-8985107D02*
X4567801Y-8975583D01*
X4567801Y-8975583D02*
X4586848Y-8966060D01*
X4720182Y-8966060D02*
X4853515Y-8966060D01*
X4853515Y-8966060D02*
X4767801Y-9166060D01*
X4958277Y-9051774D02*
X4939229Y-9042250D01*
X4939229Y-9042250D02*
X4929706Y-9032726D01*
X4929706Y-9032726D02*
X4920182Y-9013679D01*
X4920182Y-9013679D02*
X4920182Y-9004155D01*
X4920182Y-9004155D02*
X4929706Y-8985107D01*
X4929706Y-8985107D02*
X4939229Y-8975583D01*
X4939229Y-8975583D02*
X4958277Y-8966060D01*
X4958277Y-8966060D02*
X4996372Y-8966060D01*
X4996372Y-8966060D02*
X5015420Y-8975583D01*
X5015420Y-8975583D02*
X5024944Y-8985107D01*
X5024944Y-8985107D02*
X5034468Y-9004155D01*
X5034468Y-9004155D02*
X5034468Y-9013679D01*
X5034468Y-9013679D02*
X5024944Y-9032726D01*
X5024944Y-9032726D02*
X5015420Y-9042250D01*
X5015420Y-9042250D02*
X4996372Y-9051774D01*
X4996372Y-9051774D02*
X4958277Y-9051774D01*
X4958277Y-9051774D02*
X4939229Y-9061298D01*
X4939229Y-9061298D02*
X4929706Y-9070822D01*
X4929706Y-9070822D02*
X4920182Y-9089869D01*
X4920182Y-9089869D02*
X4920182Y-9127964D01*
X4920182Y-9127964D02*
X4929706Y-9147012D01*
X4929706Y-9147012D02*
X4939229Y-9156536D01*
X4939229Y-9156536D02*
X4958277Y-9166060D01*
X4958277Y-9166060D02*
X4996372Y-9166060D01*
X4996372Y-9166060D02*
X5015420Y-9156536D01*
X5015420Y-9156536D02*
X5024944Y-9147012D01*
X5024944Y-9147012D02*
X5034468Y-9127964D01*
X5034468Y-9127964D02*
X5034468Y-9089869D01*
X5034468Y-9089869D02*
X5024944Y-9070822D01*
X5024944Y-9070822D02*
X5015420Y-9061298D01*
X5015420Y-9061298D02*
X4996372Y-9051774D01*
X5101134Y-8966060D02*
X5234468Y-8966060D01*
X5234468Y-8966060D02*
X5148753Y-9166060D01*
X5301134Y-8966060D02*
X5301134Y-9004155D01*
X5377325Y-8966060D02*
X5377325Y-9004155D01*
X5672563Y-9242250D02*
X5663039Y-9232726D01*
X5663039Y-9232726D02*
X5643991Y-9204155D01*
X5643991Y-9204155D02*
X5634468Y-9185107D01*
X5634468Y-9185107D02*
X5624944Y-9156536D01*
X5624944Y-9156536D02*
X5615420Y-9108917D01*
X5615420Y-9108917D02*
X5615420Y-9070822D01*
X5615420Y-9070822D02*
X5624944Y-9023202D01*
X5624944Y-9023202D02*
X5634468Y-8994631D01*
X5634468Y-8994631D02*
X5643991Y-8975583D01*
X5643991Y-8975583D02*
X5663039Y-8947012D01*
X5663039Y-8947012D02*
X5672563Y-8937488D01*
X5853515Y-9166060D02*
X5739229Y-9166060D01*
X5796372Y-9166060D02*
X5796372Y-8966060D01*
X5796372Y-8966060D02*
X5777325Y-8994631D01*
X5777325Y-8994631D02*
X5758277Y-9013679D01*
X5758277Y-9013679D02*
X5739229Y-9023202D01*
X6091610Y-9166060D02*
X6091610Y-8966060D01*
X6177325Y-9166060D02*
X6177325Y-9061298D01*
X6177325Y-9061298D02*
X6167801Y-9042250D01*
X6167801Y-9042250D02*
X6148753Y-9032726D01*
X6148753Y-9032726D02*
X6120182Y-9032726D01*
X6120182Y-9032726D02*
X6101134Y-9042250D01*
X6101134Y-9042250D02*
X6091610Y-9051774D01*
X6301134Y-9166060D02*
X6282087Y-9156536D01*
X6282087Y-9156536D02*
X6272563Y-9147012D01*
X6272563Y-9147012D02*
X6263039Y-9127964D01*
X6263039Y-9127964D02*
X6263039Y-9070822D01*
X6263039Y-9070822D02*
X6272563Y-9051774D01*
X6272563Y-9051774D02*
X6282087Y-9042250D01*
X6282087Y-9042250D02*
X6301134Y-9032726D01*
X6301134Y-9032726D02*
X6329706Y-9032726D01*
X6329706Y-9032726D02*
X6348753Y-9042250D01*
X6348753Y-9042250D02*
X6358277Y-9051774D01*
X6358277Y-9051774D02*
X6367801Y-9070822D01*
X6367801Y-9070822D02*
X6367801Y-9127964D01*
X6367801Y-9127964D02*
X6358277Y-9147012D01*
X6358277Y-9147012D02*
X6348753Y-9156536D01*
X6348753Y-9156536D02*
X6329706Y-9166060D01*
X6329706Y-9166060D02*
X6301134Y-9166060D01*
X6482087Y-9166060D02*
X6463039Y-9156536D01*
X6463039Y-9156536D02*
X6453515Y-9137488D01*
X6453515Y-9137488D02*
X6453515Y-8966060D01*
X6634468Y-9156536D02*
X6615420Y-9166060D01*
X6615420Y-9166060D02*
X6577325Y-9166060D01*
X6577325Y-9166060D02*
X6558277Y-9156536D01*
X6558277Y-9156536D02*
X6548753Y-9137488D01*
X6548753Y-9137488D02*
X6548753Y-9061298D01*
X6548753Y-9061298D02*
X6558277Y-9042250D01*
X6558277Y-9042250D02*
X6577325Y-9032726D01*
X6577325Y-9032726D02*
X6615420Y-9032726D01*
X6615420Y-9032726D02*
X6634468Y-9042250D01*
X6634468Y-9042250D02*
X6643991Y-9061298D01*
X6643991Y-9061298D02*
X6643991Y-9080345D01*
X6643991Y-9080345D02*
X6548753Y-9099393D01*
X6710658Y-9242250D02*
X6720182Y-9232726D01*
X6720182Y-9232726D02*
X6739230Y-9204155D01*
X6739230Y-9204155D02*
X6748753Y-9185107D01*
X6748753Y-9185107D02*
X6758277Y-9156536D01*
X6758277Y-9156536D02*
X6767801Y-9108917D01*
X6767801Y-9108917D02*
X6767801Y-9070822D01*
X6767801Y-9070822D02*
X6758277Y-9023202D01*
X6758277Y-9023202D02*
X6748753Y-8994631D01*
X6748753Y-8994631D02*
X6739230Y-8975583D01*
X6739230Y-8975583D02*
X6720182Y-8947012D01*
X6720182Y-8947012D02*
X6710658Y-8937488D01*
X7072563Y-9242250D02*
X7063039Y-9232726D01*
X7063039Y-9232726D02*
X7043991Y-9204155D01*
X7043991Y-9204155D02*
X7034468Y-9185107D01*
X7034468Y-9185107D02*
X7024944Y-9156536D01*
X7024944Y-9156536D02*
X7015420Y-9108917D01*
X7015420Y-9108917D02*
X7015420Y-9070822D01*
X7015420Y-9070822D02*
X7024944Y-9023202D01*
X7024944Y-9023202D02*
X7034468Y-8994631D01*
X7034468Y-8994631D02*
X7043991Y-8975583D01*
X7043991Y-8975583D02*
X7063039Y-8947012D01*
X7063039Y-8947012D02*
X7072563Y-8937488D01*
X7148753Y-9032726D02*
X7148753Y-9166060D01*
X7148753Y-9051774D02*
X7158277Y-9042250D01*
X7158277Y-9042250D02*
X7177325Y-9032726D01*
X7177325Y-9032726D02*
X7205896Y-9032726D01*
X7205896Y-9032726D02*
X7224944Y-9042250D01*
X7224944Y-9042250D02*
X7234468Y-9061298D01*
X7234468Y-9061298D02*
X7234468Y-9166060D01*
X7358277Y-9166060D02*
X7339230Y-9156536D01*
X7339230Y-9156536D02*
X7329706Y-9147012D01*
X7329706Y-9147012D02*
X7320182Y-9127964D01*
X7320182Y-9127964D02*
X7320182Y-9070822D01*
X7320182Y-9070822D02*
X7329706Y-9051774D01*
X7329706Y-9051774D02*
X7339230Y-9042250D01*
X7339230Y-9042250D02*
X7358277Y-9032726D01*
X7358277Y-9032726D02*
X7386849Y-9032726D01*
X7386849Y-9032726D02*
X7405896Y-9042250D01*
X7405896Y-9042250D02*
X7415420Y-9051774D01*
X7415420Y-9051774D02*
X7424944Y-9070822D01*
X7424944Y-9070822D02*
X7424944Y-9127964D01*
X7424944Y-9127964D02*
X7415420Y-9147012D01*
X7415420Y-9147012D02*
X7405896Y-9156536D01*
X7405896Y-9156536D02*
X7386849Y-9166060D01*
X7386849Y-9166060D02*
X7358277Y-9166060D01*
X7482087Y-9032726D02*
X7558277Y-9032726D01*
X7510658Y-8966060D02*
X7510658Y-9137488D01*
X7510658Y-9137488D02*
X7520182Y-9156536D01*
X7520182Y-9156536D02*
X7539230Y-9166060D01*
X7539230Y-9166060D02*
X7558277Y-9166060D01*
X7777325Y-9032726D02*
X7777325Y-9232726D01*
X7777325Y-9042250D02*
X7796372Y-9032726D01*
X7796372Y-9032726D02*
X7834468Y-9032726D01*
X7834468Y-9032726D02*
X7853515Y-9042250D01*
X7853515Y-9042250D02*
X7863039Y-9051774D01*
X7863039Y-9051774D02*
X7872563Y-9070822D01*
X7872563Y-9070822D02*
X7872563Y-9127964D01*
X7872563Y-9127964D02*
X7863039Y-9147012D01*
X7863039Y-9147012D02*
X7853515Y-9156536D01*
X7853515Y-9156536D02*
X7834468Y-9166060D01*
X7834468Y-9166060D02*
X7796372Y-9166060D01*
X7796372Y-9166060D02*
X7777325Y-9156536D01*
X7986849Y-9166060D02*
X7967801Y-9156536D01*
X7967801Y-9156536D02*
X7958277Y-9137488D01*
X7958277Y-9137488D02*
X7958277Y-8966060D01*
X8148753Y-9166060D02*
X8148753Y-9061298D01*
X8148753Y-9061298D02*
X8139230Y-9042250D01*
X8139230Y-9042250D02*
X8120182Y-9032726D01*
X8120182Y-9032726D02*
X8082087Y-9032726D01*
X8082087Y-9032726D02*
X8063039Y-9042250D01*
X8148753Y-9156536D02*
X8129706Y-9166060D01*
X8129706Y-9166060D02*
X8082087Y-9166060D01*
X8082087Y-9166060D02*
X8063039Y-9156536D01*
X8063039Y-9156536D02*
X8053515Y-9137488D01*
X8053515Y-9137488D02*
X8053515Y-9118441D01*
X8053515Y-9118441D02*
X8063039Y-9099393D01*
X8063039Y-9099393D02*
X8082087Y-9089869D01*
X8082087Y-9089869D02*
X8129706Y-9089869D01*
X8129706Y-9089869D02*
X8148753Y-9080345D01*
X8215420Y-9032726D02*
X8291611Y-9032726D01*
X8243992Y-8966060D02*
X8243992Y-9137488D01*
X8243992Y-9137488D02*
X8253515Y-9156536D01*
X8253515Y-9156536D02*
X8272563Y-9166060D01*
X8272563Y-9166060D02*
X8291611Y-9166060D01*
X8434468Y-9156536D02*
X8415420Y-9166060D01*
X8415420Y-9166060D02*
X8377325Y-9166060D01*
X8377325Y-9166060D02*
X8358277Y-9156536D01*
X8358277Y-9156536D02*
X8348753Y-9137488D01*
X8348753Y-9137488D02*
X8348753Y-9061298D01*
X8348753Y-9061298D02*
X8358277Y-9042250D01*
X8358277Y-9042250D02*
X8377325Y-9032726D01*
X8377325Y-9032726D02*
X8415420Y-9032726D01*
X8415420Y-9032726D02*
X8434468Y-9042250D01*
X8434468Y-9042250D02*
X8443992Y-9061298D01*
X8443992Y-9061298D02*
X8443992Y-9080345D01*
X8443992Y-9080345D02*
X8348753Y-9099393D01*
X8615420Y-9166060D02*
X8615420Y-8966060D01*
X8615420Y-9156536D02*
X8596373Y-9166060D01*
X8596373Y-9166060D02*
X8558277Y-9166060D01*
X8558277Y-9166060D02*
X8539230Y-9156536D01*
X8539230Y-9156536D02*
X8529706Y-9147012D01*
X8529706Y-9147012D02*
X8520182Y-9127964D01*
X8520182Y-9127964D02*
X8520182Y-9070822D01*
X8520182Y-9070822D02*
X8529706Y-9051774D01*
X8529706Y-9051774D02*
X8539230Y-9042250D01*
X8539230Y-9042250D02*
X8558277Y-9032726D01*
X8558277Y-9032726D02*
X8596373Y-9032726D01*
X8596373Y-9032726D02*
X8615420Y-9042250D01*
X8691611Y-9242250D02*
X8701135Y-9232726D01*
X8701135Y-9232726D02*
X8720182Y-9204155D01*
X8720182Y-9204155D02*
X8729706Y-9185107D01*
X8729706Y-9185107D02*
X8739230Y-9156536D01*
X8739230Y-9156536D02*
X8748754Y-9108917D01*
X8748754Y-9108917D02*
X8748754Y-9070822D01*
X8748754Y-9070822D02*
X8739230Y-9023202D01*
X8739230Y-9023202D02*
X8729706Y-8994631D01*
X8729706Y-8994631D02*
X8720182Y-8975583D01*
X8720182Y-8975583D02*
X8701135Y-8947012D01*
X8701135Y-8947012D02*
X8691611Y-8937488D01*
X1997500Y-9494576D02*
X2097500Y-9394576D01*
X1997500Y-9294576D01*
X1897500Y-9394576D01*
X1997500Y-9494576D01*
X2348753Y-9305107D02*
X2358277Y-9295583D01*
X2358277Y-9295583D02*
X2377324Y-9286060D01*
X2377324Y-9286060D02*
X2424944Y-9286060D01*
X2424944Y-9286060D02*
X2443991Y-9295583D01*
X2443991Y-9295583D02*
X2453515Y-9305107D01*
X2453515Y-9305107D02*
X2463039Y-9324155D01*
X2463039Y-9324155D02*
X2463039Y-9343202D01*
X2463039Y-9343202D02*
X2453515Y-9371774D01*
X2453515Y-9371774D02*
X2339229Y-9486060D01*
X2339229Y-9486060D02*
X2463039Y-9486060D01*
X2548753Y-9467012D02*
X2558277Y-9476536D01*
X2558277Y-9476536D02*
X2548753Y-9486060D01*
X2548753Y-9486060D02*
X2539229Y-9476536D01*
X2539229Y-9476536D02*
X2548753Y-9467012D01*
X2548753Y-9467012D02*
X2548753Y-9486060D01*
X2634467Y-9305107D02*
X2643991Y-9295583D01*
X2643991Y-9295583D02*
X2663039Y-9286060D01*
X2663039Y-9286060D02*
X2710658Y-9286060D01*
X2710658Y-9286060D02*
X2729705Y-9295583D01*
X2729705Y-9295583D02*
X2739229Y-9305107D01*
X2739229Y-9305107D02*
X2748753Y-9324155D01*
X2748753Y-9324155D02*
X2748753Y-9343202D01*
X2748753Y-9343202D02*
X2739229Y-9371774D01*
X2739229Y-9371774D02*
X2624944Y-9486060D01*
X2624944Y-9486060D02*
X2748753Y-9486060D01*
X2872562Y-9286060D02*
X2891610Y-9286060D01*
X2891610Y-9286060D02*
X2910658Y-9295583D01*
X2910658Y-9295583D02*
X2920182Y-9305107D01*
X2920182Y-9305107D02*
X2929705Y-9324155D01*
X2929705Y-9324155D02*
X2939229Y-9362250D01*
X2939229Y-9362250D02*
X2939229Y-9409869D01*
X2939229Y-9409869D02*
X2929705Y-9447964D01*
X2929705Y-9447964D02*
X2920182Y-9467012D01*
X2920182Y-9467012D02*
X2910658Y-9476536D01*
X2910658Y-9476536D02*
X2891610Y-9486060D01*
X2891610Y-9486060D02*
X2872562Y-9486060D01*
X2872562Y-9486060D02*
X2853515Y-9476536D01*
X2853515Y-9476536D02*
X2843991Y-9467012D01*
X2843991Y-9467012D02*
X2834467Y-9447964D01*
X2834467Y-9447964D02*
X2824943Y-9409869D01*
X2824943Y-9409869D02*
X2824943Y-9362250D01*
X2824943Y-9362250D02*
X2834467Y-9324155D01*
X2834467Y-9324155D02*
X2843991Y-9305107D01*
X2843991Y-9305107D02*
X2853515Y-9295583D01*
X2853515Y-9295583D02*
X2872562Y-9286060D01*
X3063039Y-9286060D02*
X3082086Y-9286060D01*
X3082086Y-9286060D02*
X3101134Y-9295583D01*
X3101134Y-9295583D02*
X3110658Y-9305107D01*
X3110658Y-9305107D02*
X3120182Y-9324155D01*
X3120182Y-9324155D02*
X3129705Y-9362250D01*
X3129705Y-9362250D02*
X3129705Y-9409869D01*
X3129705Y-9409869D02*
X3120182Y-9447964D01*
X3120182Y-9447964D02*
X3110658Y-9467012D01*
X3110658Y-9467012D02*
X3101134Y-9476536D01*
X3101134Y-9476536D02*
X3082086Y-9486060D01*
X3082086Y-9486060D02*
X3063039Y-9486060D01*
X3063039Y-9486060D02*
X3043991Y-9476536D01*
X3043991Y-9476536D02*
X3034467Y-9467012D01*
X3034467Y-9467012D02*
X3024943Y-9447964D01*
X3024943Y-9447964D02*
X3015420Y-9409869D01*
X3015420Y-9409869D02*
X3015420Y-9362250D01*
X3015420Y-9362250D02*
X3024943Y-9324155D01*
X3024943Y-9324155D02*
X3034467Y-9305107D01*
X3034467Y-9305107D02*
X3043991Y-9295583D01*
X3043991Y-9295583D02*
X3063039Y-9286060D01*
X3215420Y-9486060D02*
X3215420Y-9352726D01*
X3215420Y-9371774D02*
X3224943Y-9362250D01*
X3224943Y-9362250D02*
X3243991Y-9352726D01*
X3243991Y-9352726D02*
X3272563Y-9352726D01*
X3272563Y-9352726D02*
X3291610Y-9362250D01*
X3291610Y-9362250D02*
X3301134Y-9381298D01*
X3301134Y-9381298D02*
X3301134Y-9486060D01*
X3301134Y-9381298D02*
X3310658Y-9362250D01*
X3310658Y-9362250D02*
X3329705Y-9352726D01*
X3329705Y-9352726D02*
X3358277Y-9352726D01*
X3358277Y-9352726D02*
X3377324Y-9362250D01*
X3377324Y-9362250D02*
X3386848Y-9381298D01*
X3386848Y-9381298D02*
X3386848Y-9486060D01*
X3482086Y-9486060D02*
X3482086Y-9352726D01*
X3482086Y-9371774D02*
X3491610Y-9362250D01*
X3491610Y-9362250D02*
X3510658Y-9352726D01*
X3510658Y-9352726D02*
X3539229Y-9352726D01*
X3539229Y-9352726D02*
X3558277Y-9362250D01*
X3558277Y-9362250D02*
X3567801Y-9381298D01*
X3567801Y-9381298D02*
X3567801Y-9486060D01*
X3567801Y-9381298D02*
X3577324Y-9362250D01*
X3577324Y-9362250D02*
X3596372Y-9352726D01*
X3596372Y-9352726D02*
X3624943Y-9352726D01*
X3624943Y-9352726D02*
X3643991Y-9362250D01*
X3643991Y-9362250D02*
X3653515Y-9381298D01*
X3653515Y-9381298D02*
X3653515Y-9486060D01*
X4043991Y-9276536D02*
X3872563Y-9533679D01*
X4301134Y-9286060D02*
X4320182Y-9286060D01*
X4320182Y-9286060D02*
X4339229Y-9295583D01*
X4339229Y-9295583D02*
X4348753Y-9305107D01*
X4348753Y-9305107D02*
X4358277Y-9324155D01*
X4358277Y-9324155D02*
X4367801Y-9362250D01*
X4367801Y-9362250D02*
X4367801Y-9409869D01*
X4367801Y-9409869D02*
X4358277Y-9447964D01*
X4358277Y-9447964D02*
X4348753Y-9467012D01*
X4348753Y-9467012D02*
X4339229Y-9476536D01*
X4339229Y-9476536D02*
X4320182Y-9486060D01*
X4320182Y-9486060D02*
X4301134Y-9486060D01*
X4301134Y-9486060D02*
X4282087Y-9476536D01*
X4282087Y-9476536D02*
X4272563Y-9467012D01*
X4272563Y-9467012D02*
X4263039Y-9447964D01*
X4263039Y-9447964D02*
X4253515Y-9409869D01*
X4253515Y-9409869D02*
X4253515Y-9362250D01*
X4253515Y-9362250D02*
X4263039Y-9324155D01*
X4263039Y-9324155D02*
X4272563Y-9305107D01*
X4272563Y-9305107D02*
X4282087Y-9295583D01*
X4282087Y-9295583D02*
X4301134Y-9286060D01*
X4453515Y-9467012D02*
X4463039Y-9476536D01*
X4463039Y-9476536D02*
X4453515Y-9486060D01*
X4453515Y-9486060D02*
X4443991Y-9476536D01*
X4443991Y-9476536D02*
X4453515Y-9467012D01*
X4453515Y-9467012D02*
X4453515Y-9486060D01*
X4586848Y-9286060D02*
X4605896Y-9286060D01*
X4605896Y-9286060D02*
X4624944Y-9295583D01*
X4624944Y-9295583D02*
X4634468Y-9305107D01*
X4634468Y-9305107D02*
X4643991Y-9324155D01*
X4643991Y-9324155D02*
X4653515Y-9362250D01*
X4653515Y-9362250D02*
X4653515Y-9409869D01*
X4653515Y-9409869D02*
X4643991Y-9447964D01*
X4643991Y-9447964D02*
X4634468Y-9467012D01*
X4634468Y-9467012D02*
X4624944Y-9476536D01*
X4624944Y-9476536D02*
X4605896Y-9486060D01*
X4605896Y-9486060D02*
X4586848Y-9486060D01*
X4586848Y-9486060D02*
X4567801Y-9476536D01*
X4567801Y-9476536D02*
X4558277Y-9467012D01*
X4558277Y-9467012D02*
X4548753Y-9447964D01*
X4548753Y-9447964D02*
X4539229Y-9409869D01*
X4539229Y-9409869D02*
X4539229Y-9362250D01*
X4539229Y-9362250D02*
X4548753Y-9324155D01*
X4548753Y-9324155D02*
X4558277Y-9305107D01*
X4558277Y-9305107D02*
X4567801Y-9295583D01*
X4567801Y-9295583D02*
X4586848Y-9286060D01*
X4767801Y-9371774D02*
X4748753Y-9362250D01*
X4748753Y-9362250D02*
X4739229Y-9352726D01*
X4739229Y-9352726D02*
X4729706Y-9333679D01*
X4729706Y-9333679D02*
X4729706Y-9324155D01*
X4729706Y-9324155D02*
X4739229Y-9305107D01*
X4739229Y-9305107D02*
X4748753Y-9295583D01*
X4748753Y-9295583D02*
X4767801Y-9286060D01*
X4767801Y-9286060D02*
X4805896Y-9286060D01*
X4805896Y-9286060D02*
X4824944Y-9295583D01*
X4824944Y-9295583D02*
X4834468Y-9305107D01*
X4834468Y-9305107D02*
X4843991Y-9324155D01*
X4843991Y-9324155D02*
X4843991Y-9333679D01*
X4843991Y-9333679D02*
X4834468Y-9352726D01*
X4834468Y-9352726D02*
X4824944Y-9362250D01*
X4824944Y-9362250D02*
X4805896Y-9371774D01*
X4805896Y-9371774D02*
X4767801Y-9371774D01*
X4767801Y-9371774D02*
X4748753Y-9381298D01*
X4748753Y-9381298D02*
X4739229Y-9390822D01*
X4739229Y-9390822D02*
X4729706Y-9409869D01*
X4729706Y-9409869D02*
X4729706Y-9447964D01*
X4729706Y-9447964D02*
X4739229Y-9467012D01*
X4739229Y-9467012D02*
X4748753Y-9476536D01*
X4748753Y-9476536D02*
X4767801Y-9486060D01*
X4767801Y-9486060D02*
X4805896Y-9486060D01*
X4805896Y-9486060D02*
X4824944Y-9476536D01*
X4824944Y-9476536D02*
X4834468Y-9467012D01*
X4834468Y-9467012D02*
X4843991Y-9447964D01*
X4843991Y-9447964D02*
X4843991Y-9409869D01*
X4843991Y-9409869D02*
X4834468Y-9390822D01*
X4834468Y-9390822D02*
X4824944Y-9381298D01*
X4824944Y-9381298D02*
X4805896Y-9371774D01*
X5015420Y-9286060D02*
X4977325Y-9286060D01*
X4977325Y-9286060D02*
X4958277Y-9295583D01*
X4958277Y-9295583D02*
X4948753Y-9305107D01*
X4948753Y-9305107D02*
X4929706Y-9333679D01*
X4929706Y-9333679D02*
X4920182Y-9371774D01*
X4920182Y-9371774D02*
X4920182Y-9447964D01*
X4920182Y-9447964D02*
X4929706Y-9467012D01*
X4929706Y-9467012D02*
X4939229Y-9476536D01*
X4939229Y-9476536D02*
X4958277Y-9486060D01*
X4958277Y-9486060D02*
X4996372Y-9486060D01*
X4996372Y-9486060D02*
X5015420Y-9476536D01*
X5015420Y-9476536D02*
X5024944Y-9467012D01*
X5024944Y-9467012D02*
X5034468Y-9447964D01*
X5034468Y-9447964D02*
X5034468Y-9400345D01*
X5034468Y-9400345D02*
X5024944Y-9381298D01*
X5024944Y-9381298D02*
X5015420Y-9371774D01*
X5015420Y-9371774D02*
X4996372Y-9362250D01*
X4996372Y-9362250D02*
X4958277Y-9362250D01*
X4958277Y-9362250D02*
X4939229Y-9371774D01*
X4939229Y-9371774D02*
X4929706Y-9381298D01*
X4929706Y-9381298D02*
X4920182Y-9400345D01*
X5205896Y-9286060D02*
X5167801Y-9286060D01*
X5167801Y-9286060D02*
X5148753Y-9295583D01*
X5148753Y-9295583D02*
X5139229Y-9305107D01*
X5139229Y-9305107D02*
X5120182Y-9333679D01*
X5120182Y-9333679D02*
X5110658Y-9371774D01*
X5110658Y-9371774D02*
X5110658Y-9447964D01*
X5110658Y-9447964D02*
X5120182Y-9467012D01*
X5120182Y-9467012D02*
X5129706Y-9476536D01*
X5129706Y-9476536D02*
X5148753Y-9486060D01*
X5148753Y-9486060D02*
X5186849Y-9486060D01*
X5186849Y-9486060D02*
X5205896Y-9476536D01*
X5205896Y-9476536D02*
X5215420Y-9467012D01*
X5215420Y-9467012D02*
X5224944Y-9447964D01*
X5224944Y-9447964D02*
X5224944Y-9400345D01*
X5224944Y-9400345D02*
X5215420Y-9381298D01*
X5215420Y-9381298D02*
X5205896Y-9371774D01*
X5205896Y-9371774D02*
X5186849Y-9362250D01*
X5186849Y-9362250D02*
X5148753Y-9362250D01*
X5148753Y-9362250D02*
X5129706Y-9371774D01*
X5129706Y-9371774D02*
X5120182Y-9381298D01*
X5120182Y-9381298D02*
X5110658Y-9400345D01*
X5301134Y-9286060D02*
X5301134Y-9324155D01*
X5377325Y-9286060D02*
X5377325Y-9324155D01*
X5672563Y-9562250D02*
X5663039Y-9552726D01*
X5663039Y-9552726D02*
X5643991Y-9524155D01*
X5643991Y-9524155D02*
X5634468Y-9505107D01*
X5634468Y-9505107D02*
X5624944Y-9476536D01*
X5624944Y-9476536D02*
X5615420Y-9428917D01*
X5615420Y-9428917D02*
X5615420Y-9390822D01*
X5615420Y-9390822D02*
X5624944Y-9343202D01*
X5624944Y-9343202D02*
X5634468Y-9314631D01*
X5634468Y-9314631D02*
X5643991Y-9295583D01*
X5643991Y-9295583D02*
X5663039Y-9267012D01*
X5663039Y-9267012D02*
X5672563Y-9257488D01*
X5739229Y-9305107D02*
X5748753Y-9295583D01*
X5748753Y-9295583D02*
X5767801Y-9286060D01*
X5767801Y-9286060D02*
X5815420Y-9286060D01*
X5815420Y-9286060D02*
X5834468Y-9295583D01*
X5834468Y-9295583D02*
X5843991Y-9305107D01*
X5843991Y-9305107D02*
X5853515Y-9324155D01*
X5853515Y-9324155D02*
X5853515Y-9343202D01*
X5853515Y-9343202D02*
X5843991Y-9371774D01*
X5843991Y-9371774D02*
X5729706Y-9486060D01*
X5729706Y-9486060D02*
X5853515Y-9486060D01*
X6091610Y-9486060D02*
X6091610Y-9286060D01*
X6177325Y-9486060D02*
X6177325Y-9381298D01*
X6177325Y-9381298D02*
X6167801Y-9362250D01*
X6167801Y-9362250D02*
X6148753Y-9352726D01*
X6148753Y-9352726D02*
X6120182Y-9352726D01*
X6120182Y-9352726D02*
X6101134Y-9362250D01*
X6101134Y-9362250D02*
X6091610Y-9371774D01*
X6301134Y-9486060D02*
X6282087Y-9476536D01*
X6282087Y-9476536D02*
X6272563Y-9467012D01*
X6272563Y-9467012D02*
X6263039Y-9447964D01*
X6263039Y-9447964D02*
X6263039Y-9390822D01*
X6263039Y-9390822D02*
X6272563Y-9371774D01*
X6272563Y-9371774D02*
X6282087Y-9362250D01*
X6282087Y-9362250D02*
X6301134Y-9352726D01*
X6301134Y-9352726D02*
X6329706Y-9352726D01*
X6329706Y-9352726D02*
X6348753Y-9362250D01*
X6348753Y-9362250D02*
X6358277Y-9371774D01*
X6358277Y-9371774D02*
X6367801Y-9390822D01*
X6367801Y-9390822D02*
X6367801Y-9447964D01*
X6367801Y-9447964D02*
X6358277Y-9467012D01*
X6358277Y-9467012D02*
X6348753Y-9476536D01*
X6348753Y-9476536D02*
X6329706Y-9486060D01*
X6329706Y-9486060D02*
X6301134Y-9486060D01*
X6482087Y-9486060D02*
X6463039Y-9476536D01*
X6463039Y-9476536D02*
X6453515Y-9457488D01*
X6453515Y-9457488D02*
X6453515Y-9286060D01*
X6634468Y-9476536D02*
X6615420Y-9486060D01*
X6615420Y-9486060D02*
X6577325Y-9486060D01*
X6577325Y-9486060D02*
X6558277Y-9476536D01*
X6558277Y-9476536D02*
X6548753Y-9457488D01*
X6548753Y-9457488D02*
X6548753Y-9381298D01*
X6548753Y-9381298D02*
X6558277Y-9362250D01*
X6558277Y-9362250D02*
X6577325Y-9352726D01*
X6577325Y-9352726D02*
X6615420Y-9352726D01*
X6615420Y-9352726D02*
X6634468Y-9362250D01*
X6634468Y-9362250D02*
X6643991Y-9381298D01*
X6643991Y-9381298D02*
X6643991Y-9400345D01*
X6643991Y-9400345D02*
X6548753Y-9419393D01*
X6720182Y-9476536D02*
X6739230Y-9486060D01*
X6739230Y-9486060D02*
X6777325Y-9486060D01*
X6777325Y-9486060D02*
X6796372Y-9476536D01*
X6796372Y-9476536D02*
X6805896Y-9457488D01*
X6805896Y-9457488D02*
X6805896Y-9447964D01*
X6805896Y-9447964D02*
X6796372Y-9428917D01*
X6796372Y-9428917D02*
X6777325Y-9419393D01*
X6777325Y-9419393D02*
X6748753Y-9419393D01*
X6748753Y-9419393D02*
X6729706Y-9409869D01*
X6729706Y-9409869D02*
X6720182Y-9390822D01*
X6720182Y-9390822D02*
X6720182Y-9381298D01*
X6720182Y-9381298D02*
X6729706Y-9362250D01*
X6729706Y-9362250D02*
X6748753Y-9352726D01*
X6748753Y-9352726D02*
X6777325Y-9352726D01*
X6777325Y-9352726D02*
X6796372Y-9362250D01*
X6872563Y-9562250D02*
X6882087Y-9552726D01*
X6882087Y-9552726D02*
X6901134Y-9524155D01*
X6901134Y-9524155D02*
X6910658Y-9505107D01*
X6910658Y-9505107D02*
X6920182Y-9476536D01*
X6920182Y-9476536D02*
X6929706Y-9428917D01*
X6929706Y-9428917D02*
X6929706Y-9390822D01*
X6929706Y-9390822D02*
X6920182Y-9343202D01*
X6920182Y-9343202D02*
X6910658Y-9314631D01*
X6910658Y-9314631D02*
X6901134Y-9295583D01*
X6901134Y-9295583D02*
X6882087Y-9267012D01*
X6882087Y-9267012D02*
X6872563Y-9257488D01*
X7234468Y-9562250D02*
X7224944Y-9552726D01*
X7224944Y-9552726D02*
X7205896Y-9524155D01*
X7205896Y-9524155D02*
X7196372Y-9505107D01*
X7196372Y-9505107D02*
X7186849Y-9476536D01*
X7186849Y-9476536D02*
X7177325Y-9428917D01*
X7177325Y-9428917D02*
X7177325Y-9390822D01*
X7177325Y-9390822D02*
X7186849Y-9343202D01*
X7186849Y-9343202D02*
X7196372Y-9314631D01*
X7196372Y-9314631D02*
X7205896Y-9295583D01*
X7205896Y-9295583D02*
X7224944Y-9267012D01*
X7224944Y-9267012D02*
X7234468Y-9257488D01*
X7310658Y-9352726D02*
X7310658Y-9486060D01*
X7310658Y-9371774D02*
X7320182Y-9362250D01*
X7320182Y-9362250D02*
X7339230Y-9352726D01*
X7339230Y-9352726D02*
X7367801Y-9352726D01*
X7367801Y-9352726D02*
X7386849Y-9362250D01*
X7386849Y-9362250D02*
X7396372Y-9381298D01*
X7396372Y-9381298D02*
X7396372Y-9486060D01*
X7520182Y-9486060D02*
X7501134Y-9476536D01*
X7501134Y-9476536D02*
X7491611Y-9467012D01*
X7491611Y-9467012D02*
X7482087Y-9447964D01*
X7482087Y-9447964D02*
X7482087Y-9390822D01*
X7482087Y-9390822D02*
X7491611Y-9371774D01*
X7491611Y-9371774D02*
X7501134Y-9362250D01*
X7501134Y-9362250D02*
X7520182Y-9352726D01*
X7520182Y-9352726D02*
X7548753Y-9352726D01*
X7548753Y-9352726D02*
X7567801Y-9362250D01*
X7567801Y-9362250D02*
X7577325Y-9371774D01*
X7577325Y-9371774D02*
X7586849Y-9390822D01*
X7586849Y-9390822D02*
X7586849Y-9447964D01*
X7586849Y-9447964D02*
X7577325Y-9467012D01*
X7577325Y-9467012D02*
X7567801Y-9476536D01*
X7567801Y-9476536D02*
X7548753Y-9486060D01*
X7548753Y-9486060D02*
X7520182Y-9486060D01*
X7643992Y-9352726D02*
X7720182Y-9352726D01*
X7672563Y-9286060D02*
X7672563Y-9457488D01*
X7672563Y-9457488D02*
X7682087Y-9476536D01*
X7682087Y-9476536D02*
X7701134Y-9486060D01*
X7701134Y-9486060D02*
X7720182Y-9486060D01*
X7939230Y-9352726D02*
X7939230Y-9552726D01*
X7939230Y-9362250D02*
X7958277Y-9352726D01*
X7958277Y-9352726D02*
X7996373Y-9352726D01*
X7996373Y-9352726D02*
X8015420Y-9362250D01*
X8015420Y-9362250D02*
X8024944Y-9371774D01*
X8024944Y-9371774D02*
X8034468Y-9390822D01*
X8034468Y-9390822D02*
X8034468Y-9447964D01*
X8034468Y-9447964D02*
X8024944Y-9467012D01*
X8024944Y-9467012D02*
X8015420Y-9476536D01*
X8015420Y-9476536D02*
X7996373Y-9486060D01*
X7996373Y-9486060D02*
X7958277Y-9486060D01*
X7958277Y-9486060D02*
X7939230Y-9476536D01*
X8148753Y-9486060D02*
X8129706Y-9476536D01*
X8129706Y-9476536D02*
X8120182Y-9457488D01*
X8120182Y-9457488D02*
X8120182Y-9286060D01*
X8310658Y-9486060D02*
X8310658Y-9381298D01*
X8310658Y-9381298D02*
X8301134Y-9362250D01*
X8301134Y-9362250D02*
X8282087Y-9352726D01*
X8282087Y-9352726D02*
X8243992Y-9352726D01*
X8243992Y-9352726D02*
X8224944Y-9362250D01*
X8310658Y-9476536D02*
X8291611Y-9486060D01*
X8291611Y-9486060D02*
X8243992Y-9486060D01*
X8243992Y-9486060D02*
X8224944Y-9476536D01*
X8224944Y-9476536D02*
X8215420Y-9457488D01*
X8215420Y-9457488D02*
X8215420Y-9438441D01*
X8215420Y-9438441D02*
X8224944Y-9419393D01*
X8224944Y-9419393D02*
X8243992Y-9409869D01*
X8243992Y-9409869D02*
X8291611Y-9409869D01*
X8291611Y-9409869D02*
X8310658Y-9400345D01*
X8377325Y-9352726D02*
X8453515Y-9352726D01*
X8405896Y-9286060D02*
X8405896Y-9457488D01*
X8405896Y-9457488D02*
X8415420Y-9476536D01*
X8415420Y-9476536D02*
X8434468Y-9486060D01*
X8434468Y-9486060D02*
X8453515Y-9486060D01*
X8596373Y-9476536D02*
X8577325Y-9486060D01*
X8577325Y-9486060D02*
X8539230Y-9486060D01*
X8539230Y-9486060D02*
X8520182Y-9476536D01*
X8520182Y-9476536D02*
X8510658Y-9457488D01*
X8510658Y-9457488D02*
X8510658Y-9381298D01*
X8510658Y-9381298D02*
X8520182Y-9362250D01*
X8520182Y-9362250D02*
X8539230Y-9352726D01*
X8539230Y-9352726D02*
X8577325Y-9352726D01*
X8577325Y-9352726D02*
X8596373Y-9362250D01*
X8596373Y-9362250D02*
X8605896Y-9381298D01*
X8605896Y-9381298D02*
X8605896Y-9400345D01*
X8605896Y-9400345D02*
X8510658Y-9419393D01*
X8777325Y-9486060D02*
X8777325Y-9286060D01*
X8777325Y-9476536D02*
X8758277Y-9486060D01*
X8758277Y-9486060D02*
X8720182Y-9486060D01*
X8720182Y-9486060D02*
X8701135Y-9476536D01*
X8701135Y-9476536D02*
X8691611Y-9467012D01*
X8691611Y-9467012D02*
X8682087Y-9447964D01*
X8682087Y-9447964D02*
X8682087Y-9390822D01*
X8682087Y-9390822D02*
X8691611Y-9371774D01*
X8691611Y-9371774D02*
X8701135Y-9362250D01*
X8701135Y-9362250D02*
X8720182Y-9352726D01*
X8720182Y-9352726D02*
X8758277Y-9352726D01*
X8758277Y-9352726D02*
X8777325Y-9362250D01*
X8853516Y-9562250D02*
X8863039Y-9552726D01*
X8863039Y-9552726D02*
X8882087Y-9524155D01*
X8882087Y-9524155D02*
X8891611Y-9505107D01*
X8891611Y-9505107D02*
X8901135Y-9476536D01*
X8901135Y-9476536D02*
X8910658Y-9428917D01*
X8910658Y-9428917D02*
X8910658Y-9390822D01*
X8910658Y-9390822D02*
X8901135Y-9343202D01*
X8901135Y-9343202D02*
X8891611Y-9314631D01*
X8891611Y-9314631D02*
X8882087Y-9295583D01*
X8882087Y-9295583D02*
X8863039Y-9267012D01*
X8863039Y-9267012D02*
X8853516Y-9257488D01*
M02*
