%TF.GenerationSoftware,KiCad,Pcbnew,10.0.6*%
%TF.CreationDate,2026-10-06T21:25:36+02:00*%
%TF.ProjectId,MAO_MAIN_A1,4d414f5f-4d41-4494-9e5f-41312e6b6963,A1*%
%TF.SameCoordinates,Original*%
%TF.FileFunction,Drillmap*%
%TF.FilePolarity,Positive*%
%FSLAX45Y45*%
G04 Gerber Fmt 4.5, Leading zero omitted, Abs format (unit mm)*
G04 Created by KiCad (PCBNEW 10.0.6) date 2026-10-06 21:25:36*
%MOMM*%
%LPD*%
G01*
G04 APERTURE LIST*
%ADD10C,0.050000*%
%ADD11C,0.200000*%
%ADD12C,0.100000*%
%ADD13C,0.220000*%
G04 APERTURE END LIST*
D10*
X3070000Y-4475000D02*
X3070000Y-5525000D01*
X3070000Y-4475000D02*
G75*
G02*
X3170000Y-4475000I50000J0D01*
G01*
X3170000Y-4475000D02*
X3170000Y-5525000D01*
X3170000Y-5525000D02*
G75*
G02*
X3070000Y-5525000I-50000J0D01*
G01*
X3930000Y-7410000D02*
G75*
G02*
X4030000Y-7310000I100000J0D01*
G01*
X3930000Y-7695385D02*
X3930000Y-7410000D01*
X3930000Y-7695385D02*
G75*
G02*
X6070000Y-7695385I1070000J2695385D01*
G01*
X5970000Y-7310000D02*
X4030000Y-7310000D01*
X5970000Y-7310000D02*
G75*
G02*
X6070000Y-7410000I0J-100000D01*
G01*
X6070000Y-7695385D02*
X6070000Y-7410000D01*
D11*
D12*
X4678500Y-2632500D02*
X4743500Y-2697500D01*
X4743500Y-2632500D02*
X4678500Y-2697500D01*
X5256500Y-2632500D02*
X5321500Y-2697500D01*
X5321500Y-2632500D02*
X5256500Y-2697500D01*
X6387930Y-6914000D02*
G75*
G02*
X6288870Y-6914000I-49530J0D01*
G01*
X6288870Y-6914000D02*
G75*
G02*
X6387930Y-6914000I49530J0D01*
G01*
X6489530Y-6406000D02*
G75*
G02*
X6390470Y-6406000I-49530J0D01*
G01*
X6390470Y-6406000D02*
G75*
G02*
X6489530Y-6406000I49530J0D01*
G01*
X6591130Y-6914000D02*
G75*
G02*
X6492070Y-6914000I-49530J0D01*
G01*
X6492070Y-6914000D02*
G75*
G02*
X6591130Y-6914000I49530J0D01*
G01*
D11*
X3232200Y-6667800D02*
X3232200Y-6867800D01*
X3132200Y-6767800D02*
X3332200Y-6767800D01*
D13*
X3219882Y-3404982D02*
X3219882Y-3249417D01*
X3064317Y-3249417D01*
X3064317Y-3404982D01*
X3219882Y-3404982D01*
X6935682Y-3404982D02*
X6935682Y-3249417D01*
X6780117Y-3249417D01*
X6780117Y-3404982D01*
X6935682Y-3404982D01*
D11*
X2358277Y-8009369D02*
X2358277Y-7809369D01*
X2358277Y-7809369D02*
X2405896Y-7809369D01*
X2405896Y-7809369D02*
X2434467Y-7818892D01*
X2434467Y-7818892D02*
X2453515Y-7837940D01*
X2453515Y-7837940D02*
X2463039Y-7856988D01*
X2463039Y-7856988D02*
X2472563Y-7895083D01*
X2472563Y-7895083D02*
X2472563Y-7923654D01*
X2472563Y-7923654D02*
X2463039Y-7961750D01*
X2463039Y-7961750D02*
X2453515Y-7980797D01*
X2453515Y-7980797D02*
X2434467Y-7999845D01*
X2434467Y-7999845D02*
X2405896Y-8009369D01*
X2405896Y-8009369D02*
X2358277Y-8009369D01*
X2558277Y-8009369D02*
X2558277Y-7876035D01*
X2558277Y-7914131D02*
X2567801Y-7895083D01*
X2567801Y-7895083D02*
X2577324Y-7885559D01*
X2577324Y-7885559D02*
X2596372Y-7876035D01*
X2596372Y-7876035D02*
X2615420Y-7876035D01*
X2682086Y-8009369D02*
X2682086Y-7876035D01*
X2682086Y-7809369D02*
X2672563Y-7818892D01*
X2672563Y-7818892D02*
X2682086Y-7828416D01*
X2682086Y-7828416D02*
X2691610Y-7818892D01*
X2691610Y-7818892D02*
X2682086Y-7809369D01*
X2682086Y-7809369D02*
X2682086Y-7828416D01*
X2805896Y-8009369D02*
X2786848Y-7999845D01*
X2786848Y-7999845D02*
X2777324Y-7980797D01*
X2777324Y-7980797D02*
X2777324Y-7809369D01*
X2910658Y-8009369D02*
X2891610Y-7999845D01*
X2891610Y-7999845D02*
X2882086Y-7980797D01*
X2882086Y-7980797D02*
X2882086Y-7809369D01*
X3139229Y-8009369D02*
X3139229Y-7809369D01*
X3139229Y-7809369D02*
X3205896Y-7952226D01*
X3205896Y-7952226D02*
X3272562Y-7809369D01*
X3272562Y-7809369D02*
X3272562Y-8009369D01*
X3453515Y-8009369D02*
X3453515Y-7904607D01*
X3453515Y-7904607D02*
X3443991Y-7885559D01*
X3443991Y-7885559D02*
X3424943Y-7876035D01*
X3424943Y-7876035D02*
X3386848Y-7876035D01*
X3386848Y-7876035D02*
X3367801Y-7885559D01*
X3453515Y-7999845D02*
X3434467Y-8009369D01*
X3434467Y-8009369D02*
X3386848Y-8009369D01*
X3386848Y-8009369D02*
X3367801Y-7999845D01*
X3367801Y-7999845D02*
X3358277Y-7980797D01*
X3358277Y-7980797D02*
X3358277Y-7961750D01*
X3358277Y-7961750D02*
X3367801Y-7942702D01*
X3367801Y-7942702D02*
X3386848Y-7933178D01*
X3386848Y-7933178D02*
X3434467Y-7933178D01*
X3434467Y-7933178D02*
X3453515Y-7923654D01*
X3548753Y-7876035D02*
X3548753Y-8076035D01*
X3548753Y-7885559D02*
X3567801Y-7876035D01*
X3567801Y-7876035D02*
X3605896Y-7876035D01*
X3605896Y-7876035D02*
X3624943Y-7885559D01*
X3624943Y-7885559D02*
X3634467Y-7895083D01*
X3634467Y-7895083D02*
X3643991Y-7914131D01*
X3643991Y-7914131D02*
X3643991Y-7971273D01*
X3643991Y-7971273D02*
X3634467Y-7990321D01*
X3634467Y-7990321D02*
X3624943Y-7999845D01*
X3624943Y-7999845D02*
X3605896Y-8009369D01*
X3605896Y-8009369D02*
X3567801Y-8009369D01*
X3567801Y-8009369D02*
X3548753Y-7999845D01*
X3729705Y-7990321D02*
X3739229Y-7999845D01*
X3739229Y-7999845D02*
X3729705Y-8009369D01*
X3729705Y-8009369D02*
X3720182Y-7999845D01*
X3720182Y-7999845D02*
X3729705Y-7990321D01*
X3729705Y-7990321D02*
X3729705Y-8009369D01*
X3729705Y-7885559D02*
X3739229Y-7895083D01*
X3739229Y-7895083D02*
X3729705Y-7904607D01*
X3729705Y-7904607D02*
X3720182Y-7895083D01*
X3720182Y-7895083D02*
X3729705Y-7885559D01*
X3729705Y-7885559D02*
X3729705Y-7904607D01*
D12*
X2032500Y-8305385D02*
X2097500Y-8370385D01*
X2097500Y-8305385D02*
X2032500Y-8370385D01*
D11*
X2396372Y-8229369D02*
X2415420Y-8229369D01*
X2415420Y-8229369D02*
X2434467Y-8238892D01*
X2434467Y-8238892D02*
X2443991Y-8248416D01*
X2443991Y-8248416D02*
X2453515Y-8267464D01*
X2453515Y-8267464D02*
X2463039Y-8305559D01*
X2463039Y-8305559D02*
X2463039Y-8353178D01*
X2463039Y-8353178D02*
X2453515Y-8391273D01*
X2453515Y-8391273D02*
X2443991Y-8410321D01*
X2443991Y-8410321D02*
X2434467Y-8419845D01*
X2434467Y-8419845D02*
X2415420Y-8429369D01*
X2415420Y-8429369D02*
X2396372Y-8429369D01*
X2396372Y-8429369D02*
X2377324Y-8419845D01*
X2377324Y-8419845D02*
X2367801Y-8410321D01*
X2367801Y-8410321D02*
X2358277Y-8391273D01*
X2358277Y-8391273D02*
X2348753Y-8353178D01*
X2348753Y-8353178D02*
X2348753Y-8305559D01*
X2348753Y-8305559D02*
X2358277Y-8267464D01*
X2358277Y-8267464D02*
X2367801Y-8248416D01*
X2367801Y-8248416D02*
X2377324Y-8238892D01*
X2377324Y-8238892D02*
X2396372Y-8229369D01*
X2548753Y-8410321D02*
X2558277Y-8419845D01*
X2558277Y-8419845D02*
X2548753Y-8429369D01*
X2548753Y-8429369D02*
X2539229Y-8419845D01*
X2539229Y-8419845D02*
X2548753Y-8410321D01*
X2548753Y-8410321D02*
X2548753Y-8429369D01*
X2729705Y-8229369D02*
X2691610Y-8229369D01*
X2691610Y-8229369D02*
X2672563Y-8238892D01*
X2672563Y-8238892D02*
X2663039Y-8248416D01*
X2663039Y-8248416D02*
X2643991Y-8276988D01*
X2643991Y-8276988D02*
X2634467Y-8315083D01*
X2634467Y-8315083D02*
X2634467Y-8391273D01*
X2634467Y-8391273D02*
X2643991Y-8410321D01*
X2643991Y-8410321D02*
X2653515Y-8419845D01*
X2653515Y-8419845D02*
X2672563Y-8429369D01*
X2672563Y-8429369D02*
X2710658Y-8429369D01*
X2710658Y-8429369D02*
X2729705Y-8419845D01*
X2729705Y-8419845D02*
X2739229Y-8410321D01*
X2739229Y-8410321D02*
X2748753Y-8391273D01*
X2748753Y-8391273D02*
X2748753Y-8343654D01*
X2748753Y-8343654D02*
X2739229Y-8324607D01*
X2739229Y-8324607D02*
X2729705Y-8315083D01*
X2729705Y-8315083D02*
X2710658Y-8305559D01*
X2710658Y-8305559D02*
X2672563Y-8305559D01*
X2672563Y-8305559D02*
X2653515Y-8315083D01*
X2653515Y-8315083D02*
X2643991Y-8324607D01*
X2643991Y-8324607D02*
X2634467Y-8343654D01*
X2929705Y-8229369D02*
X2834467Y-8229369D01*
X2834467Y-8229369D02*
X2824943Y-8324607D01*
X2824943Y-8324607D02*
X2834467Y-8315083D01*
X2834467Y-8315083D02*
X2853515Y-8305559D01*
X2853515Y-8305559D02*
X2901134Y-8305559D01*
X2901134Y-8305559D02*
X2920182Y-8315083D01*
X2920182Y-8315083D02*
X2929705Y-8324607D01*
X2929705Y-8324607D02*
X2939229Y-8343654D01*
X2939229Y-8343654D02*
X2939229Y-8391273D01*
X2939229Y-8391273D02*
X2929705Y-8410321D01*
X2929705Y-8410321D02*
X2920182Y-8419845D01*
X2920182Y-8419845D02*
X2901134Y-8429369D01*
X2901134Y-8429369D02*
X2853515Y-8429369D01*
X2853515Y-8429369D02*
X2834467Y-8419845D01*
X2834467Y-8419845D02*
X2824943Y-8410321D01*
X3063039Y-8229369D02*
X3082086Y-8229369D01*
X3082086Y-8229369D02*
X3101134Y-8238892D01*
X3101134Y-8238892D02*
X3110658Y-8248416D01*
X3110658Y-8248416D02*
X3120182Y-8267464D01*
X3120182Y-8267464D02*
X3129705Y-8305559D01*
X3129705Y-8305559D02*
X3129705Y-8353178D01*
X3129705Y-8353178D02*
X3120182Y-8391273D01*
X3120182Y-8391273D02*
X3110658Y-8410321D01*
X3110658Y-8410321D02*
X3101134Y-8419845D01*
X3101134Y-8419845D02*
X3082086Y-8429369D01*
X3082086Y-8429369D02*
X3063039Y-8429369D01*
X3063039Y-8429369D02*
X3043991Y-8419845D01*
X3043991Y-8419845D02*
X3034467Y-8410321D01*
X3034467Y-8410321D02*
X3024943Y-8391273D01*
X3024943Y-8391273D02*
X3015420Y-8353178D01*
X3015420Y-8353178D02*
X3015420Y-8305559D01*
X3015420Y-8305559D02*
X3024943Y-8267464D01*
X3024943Y-8267464D02*
X3034467Y-8248416D01*
X3034467Y-8248416D02*
X3043991Y-8238892D01*
X3043991Y-8238892D02*
X3063039Y-8229369D01*
X3215420Y-8429369D02*
X3215420Y-8296035D01*
X3215420Y-8315083D02*
X3224943Y-8305559D01*
X3224943Y-8305559D02*
X3243991Y-8296035D01*
X3243991Y-8296035D02*
X3272563Y-8296035D01*
X3272563Y-8296035D02*
X3291610Y-8305559D01*
X3291610Y-8305559D02*
X3301134Y-8324607D01*
X3301134Y-8324607D02*
X3301134Y-8429369D01*
X3301134Y-8324607D02*
X3310658Y-8305559D01*
X3310658Y-8305559D02*
X3329705Y-8296035D01*
X3329705Y-8296035D02*
X3358277Y-8296035D01*
X3358277Y-8296035D02*
X3377324Y-8305559D01*
X3377324Y-8305559D02*
X3386848Y-8324607D01*
X3386848Y-8324607D02*
X3386848Y-8429369D01*
X3482086Y-8429369D02*
X3482086Y-8296035D01*
X3482086Y-8315083D02*
X3491610Y-8305559D01*
X3491610Y-8305559D02*
X3510658Y-8296035D01*
X3510658Y-8296035D02*
X3539229Y-8296035D01*
X3539229Y-8296035D02*
X3558277Y-8305559D01*
X3558277Y-8305559D02*
X3567801Y-8324607D01*
X3567801Y-8324607D02*
X3567801Y-8429369D01*
X3567801Y-8324607D02*
X3577324Y-8305559D01*
X3577324Y-8305559D02*
X3596372Y-8296035D01*
X3596372Y-8296035D02*
X3624943Y-8296035D01*
X3624943Y-8296035D02*
X3643991Y-8305559D01*
X3643991Y-8305559D02*
X3653515Y-8324607D01*
X3653515Y-8324607D02*
X3653515Y-8429369D01*
X4043991Y-8219845D02*
X3872563Y-8476988D01*
X4301134Y-8229369D02*
X4320182Y-8229369D01*
X4320182Y-8229369D02*
X4339229Y-8238892D01*
X4339229Y-8238892D02*
X4348753Y-8248416D01*
X4348753Y-8248416D02*
X4358277Y-8267464D01*
X4358277Y-8267464D02*
X4367801Y-8305559D01*
X4367801Y-8305559D02*
X4367801Y-8353178D01*
X4367801Y-8353178D02*
X4358277Y-8391273D01*
X4358277Y-8391273D02*
X4348753Y-8410321D01*
X4348753Y-8410321D02*
X4339229Y-8419845D01*
X4339229Y-8419845D02*
X4320182Y-8429369D01*
X4320182Y-8429369D02*
X4301134Y-8429369D01*
X4301134Y-8429369D02*
X4282087Y-8419845D01*
X4282087Y-8419845D02*
X4272563Y-8410321D01*
X4272563Y-8410321D02*
X4263039Y-8391273D01*
X4263039Y-8391273D02*
X4253515Y-8353178D01*
X4253515Y-8353178D02*
X4253515Y-8305559D01*
X4253515Y-8305559D02*
X4263039Y-8267464D01*
X4263039Y-8267464D02*
X4272563Y-8248416D01*
X4272563Y-8248416D02*
X4282087Y-8238892D01*
X4282087Y-8238892D02*
X4301134Y-8229369D01*
X4453515Y-8410321D02*
X4463039Y-8419845D01*
X4463039Y-8419845D02*
X4453515Y-8429369D01*
X4453515Y-8429369D02*
X4443991Y-8419845D01*
X4443991Y-8419845D02*
X4453515Y-8410321D01*
X4453515Y-8410321D02*
X4453515Y-8429369D01*
X4586848Y-8229369D02*
X4605896Y-8229369D01*
X4605896Y-8229369D02*
X4624944Y-8238892D01*
X4624944Y-8238892D02*
X4634468Y-8248416D01*
X4634468Y-8248416D02*
X4643991Y-8267464D01*
X4643991Y-8267464D02*
X4653515Y-8305559D01*
X4653515Y-8305559D02*
X4653515Y-8353178D01*
X4653515Y-8353178D02*
X4643991Y-8391273D01*
X4643991Y-8391273D02*
X4634468Y-8410321D01*
X4634468Y-8410321D02*
X4624944Y-8419845D01*
X4624944Y-8419845D02*
X4605896Y-8429369D01*
X4605896Y-8429369D02*
X4586848Y-8429369D01*
X4586848Y-8429369D02*
X4567801Y-8419845D01*
X4567801Y-8419845D02*
X4558277Y-8410321D01*
X4558277Y-8410321D02*
X4548753Y-8391273D01*
X4548753Y-8391273D02*
X4539229Y-8353178D01*
X4539229Y-8353178D02*
X4539229Y-8305559D01*
X4539229Y-8305559D02*
X4548753Y-8267464D01*
X4548753Y-8267464D02*
X4558277Y-8248416D01*
X4558277Y-8248416D02*
X4567801Y-8238892D01*
X4567801Y-8238892D02*
X4586848Y-8229369D01*
X4729706Y-8248416D02*
X4739229Y-8238892D01*
X4739229Y-8238892D02*
X4758277Y-8229369D01*
X4758277Y-8229369D02*
X4805896Y-8229369D01*
X4805896Y-8229369D02*
X4824944Y-8238892D01*
X4824944Y-8238892D02*
X4834468Y-8248416D01*
X4834468Y-8248416D02*
X4843991Y-8267464D01*
X4843991Y-8267464D02*
X4843991Y-8286511D01*
X4843991Y-8286511D02*
X4834468Y-8315083D01*
X4834468Y-8315083D02*
X4720182Y-8429369D01*
X4720182Y-8429369D02*
X4843991Y-8429369D01*
X5024944Y-8229369D02*
X4929706Y-8229369D01*
X4929706Y-8229369D02*
X4920182Y-8324607D01*
X4920182Y-8324607D02*
X4929706Y-8315083D01*
X4929706Y-8315083D02*
X4948753Y-8305559D01*
X4948753Y-8305559D02*
X4996372Y-8305559D01*
X4996372Y-8305559D02*
X5015420Y-8315083D01*
X5015420Y-8315083D02*
X5024944Y-8324607D01*
X5024944Y-8324607D02*
X5034468Y-8343654D01*
X5034468Y-8343654D02*
X5034468Y-8391273D01*
X5034468Y-8391273D02*
X5024944Y-8410321D01*
X5024944Y-8410321D02*
X5015420Y-8419845D01*
X5015420Y-8419845D02*
X4996372Y-8429369D01*
X4996372Y-8429369D02*
X4948753Y-8429369D01*
X4948753Y-8429369D02*
X4929706Y-8419845D01*
X4929706Y-8419845D02*
X4920182Y-8410321D01*
X5205896Y-8229369D02*
X5167801Y-8229369D01*
X5167801Y-8229369D02*
X5148753Y-8238892D01*
X5148753Y-8238892D02*
X5139229Y-8248416D01*
X5139229Y-8248416D02*
X5120182Y-8276988D01*
X5120182Y-8276988D02*
X5110658Y-8315083D01*
X5110658Y-8315083D02*
X5110658Y-8391273D01*
X5110658Y-8391273D02*
X5120182Y-8410321D01*
X5120182Y-8410321D02*
X5129706Y-8419845D01*
X5129706Y-8419845D02*
X5148753Y-8429369D01*
X5148753Y-8429369D02*
X5186849Y-8429369D01*
X5186849Y-8429369D02*
X5205896Y-8419845D01*
X5205896Y-8419845D02*
X5215420Y-8410321D01*
X5215420Y-8410321D02*
X5224944Y-8391273D01*
X5224944Y-8391273D02*
X5224944Y-8343654D01*
X5224944Y-8343654D02*
X5215420Y-8324607D01*
X5215420Y-8324607D02*
X5205896Y-8315083D01*
X5205896Y-8315083D02*
X5186849Y-8305559D01*
X5186849Y-8305559D02*
X5148753Y-8305559D01*
X5148753Y-8305559D02*
X5129706Y-8315083D01*
X5129706Y-8315083D02*
X5120182Y-8324607D01*
X5120182Y-8324607D02*
X5110658Y-8343654D01*
X5301134Y-8229369D02*
X5301134Y-8267464D01*
X5377325Y-8229369D02*
X5377325Y-8267464D01*
X5672563Y-8505559D02*
X5663039Y-8496035D01*
X5663039Y-8496035D02*
X5643991Y-8467464D01*
X5643991Y-8467464D02*
X5634468Y-8448416D01*
X5634468Y-8448416D02*
X5624944Y-8419845D01*
X5624944Y-8419845D02*
X5615420Y-8372226D01*
X5615420Y-8372226D02*
X5615420Y-8334131D01*
X5615420Y-8334131D02*
X5624944Y-8286511D01*
X5624944Y-8286511D02*
X5634468Y-8257940D01*
X5634468Y-8257940D02*
X5643991Y-8238892D01*
X5643991Y-8238892D02*
X5663039Y-8210321D01*
X5663039Y-8210321D02*
X5672563Y-8200797D01*
X5739229Y-8248416D02*
X5748753Y-8238892D01*
X5748753Y-8238892D02*
X5767801Y-8229369D01*
X5767801Y-8229369D02*
X5815420Y-8229369D01*
X5815420Y-8229369D02*
X5834468Y-8238892D01*
X5834468Y-8238892D02*
X5843991Y-8248416D01*
X5843991Y-8248416D02*
X5853515Y-8267464D01*
X5853515Y-8267464D02*
X5853515Y-8286511D01*
X5853515Y-8286511D02*
X5843991Y-8315083D01*
X5843991Y-8315083D02*
X5729706Y-8429369D01*
X5729706Y-8429369D02*
X5853515Y-8429369D01*
X6091610Y-8429369D02*
X6091610Y-8229369D01*
X6177325Y-8429369D02*
X6177325Y-8324607D01*
X6177325Y-8324607D02*
X6167801Y-8305559D01*
X6167801Y-8305559D02*
X6148753Y-8296035D01*
X6148753Y-8296035D02*
X6120182Y-8296035D01*
X6120182Y-8296035D02*
X6101134Y-8305559D01*
X6101134Y-8305559D02*
X6091610Y-8315083D01*
X6301134Y-8429369D02*
X6282087Y-8419845D01*
X6282087Y-8419845D02*
X6272563Y-8410321D01*
X6272563Y-8410321D02*
X6263039Y-8391273D01*
X6263039Y-8391273D02*
X6263039Y-8334131D01*
X6263039Y-8334131D02*
X6272563Y-8315083D01*
X6272563Y-8315083D02*
X6282087Y-8305559D01*
X6282087Y-8305559D02*
X6301134Y-8296035D01*
X6301134Y-8296035D02*
X6329706Y-8296035D01*
X6329706Y-8296035D02*
X6348753Y-8305559D01*
X6348753Y-8305559D02*
X6358277Y-8315083D01*
X6358277Y-8315083D02*
X6367801Y-8334131D01*
X6367801Y-8334131D02*
X6367801Y-8391273D01*
X6367801Y-8391273D02*
X6358277Y-8410321D01*
X6358277Y-8410321D02*
X6348753Y-8419845D01*
X6348753Y-8419845D02*
X6329706Y-8429369D01*
X6329706Y-8429369D02*
X6301134Y-8429369D01*
X6482087Y-8429369D02*
X6463039Y-8419845D01*
X6463039Y-8419845D02*
X6453515Y-8400797D01*
X6453515Y-8400797D02*
X6453515Y-8229369D01*
X6634468Y-8419845D02*
X6615420Y-8429369D01*
X6615420Y-8429369D02*
X6577325Y-8429369D01*
X6577325Y-8429369D02*
X6558277Y-8419845D01*
X6558277Y-8419845D02*
X6548753Y-8400797D01*
X6548753Y-8400797D02*
X6548753Y-8324607D01*
X6548753Y-8324607D02*
X6558277Y-8305559D01*
X6558277Y-8305559D02*
X6577325Y-8296035D01*
X6577325Y-8296035D02*
X6615420Y-8296035D01*
X6615420Y-8296035D02*
X6634468Y-8305559D01*
X6634468Y-8305559D02*
X6643991Y-8324607D01*
X6643991Y-8324607D02*
X6643991Y-8343654D01*
X6643991Y-8343654D02*
X6548753Y-8362702D01*
X6720182Y-8419845D02*
X6739230Y-8429369D01*
X6739230Y-8429369D02*
X6777325Y-8429369D01*
X6777325Y-8429369D02*
X6796372Y-8419845D01*
X6796372Y-8419845D02*
X6805896Y-8400797D01*
X6805896Y-8400797D02*
X6805896Y-8391273D01*
X6805896Y-8391273D02*
X6796372Y-8372226D01*
X6796372Y-8372226D02*
X6777325Y-8362702D01*
X6777325Y-8362702D02*
X6748753Y-8362702D01*
X6748753Y-8362702D02*
X6729706Y-8353178D01*
X6729706Y-8353178D02*
X6720182Y-8334131D01*
X6720182Y-8334131D02*
X6720182Y-8324607D01*
X6720182Y-8324607D02*
X6729706Y-8305559D01*
X6729706Y-8305559D02*
X6748753Y-8296035D01*
X6748753Y-8296035D02*
X6777325Y-8296035D01*
X6777325Y-8296035D02*
X6796372Y-8305559D01*
X6872563Y-8505559D02*
X6882087Y-8496035D01*
X6882087Y-8496035D02*
X6901134Y-8467464D01*
X6901134Y-8467464D02*
X6910658Y-8448416D01*
X6910658Y-8448416D02*
X6920182Y-8419845D01*
X6920182Y-8419845D02*
X6929706Y-8372226D01*
X6929706Y-8372226D02*
X6929706Y-8334131D01*
X6929706Y-8334131D02*
X6920182Y-8286511D01*
X6920182Y-8286511D02*
X6910658Y-8257940D01*
X6910658Y-8257940D02*
X6901134Y-8238892D01*
X6901134Y-8238892D02*
X6882087Y-8210321D01*
X6882087Y-8210321D02*
X6872563Y-8200797D01*
X7234468Y-8505559D02*
X7224944Y-8496035D01*
X7224944Y-8496035D02*
X7205896Y-8467464D01*
X7205896Y-8467464D02*
X7196372Y-8448416D01*
X7196372Y-8448416D02*
X7186849Y-8419845D01*
X7186849Y-8419845D02*
X7177325Y-8372226D01*
X7177325Y-8372226D02*
X7177325Y-8334131D01*
X7177325Y-8334131D02*
X7186849Y-8286511D01*
X7186849Y-8286511D02*
X7196372Y-8257940D01*
X7196372Y-8257940D02*
X7205896Y-8238892D01*
X7205896Y-8238892D02*
X7224944Y-8210321D01*
X7224944Y-8210321D02*
X7234468Y-8200797D01*
X7310658Y-8296035D02*
X7310658Y-8429369D01*
X7310658Y-8315083D02*
X7320182Y-8305559D01*
X7320182Y-8305559D02*
X7339230Y-8296035D01*
X7339230Y-8296035D02*
X7367801Y-8296035D01*
X7367801Y-8296035D02*
X7386849Y-8305559D01*
X7386849Y-8305559D02*
X7396372Y-8324607D01*
X7396372Y-8324607D02*
X7396372Y-8429369D01*
X7520182Y-8429369D02*
X7501134Y-8419845D01*
X7501134Y-8419845D02*
X7491611Y-8410321D01*
X7491611Y-8410321D02*
X7482087Y-8391273D01*
X7482087Y-8391273D02*
X7482087Y-8334131D01*
X7482087Y-8334131D02*
X7491611Y-8315083D01*
X7491611Y-8315083D02*
X7501134Y-8305559D01*
X7501134Y-8305559D02*
X7520182Y-8296035D01*
X7520182Y-8296035D02*
X7548753Y-8296035D01*
X7548753Y-8296035D02*
X7567801Y-8305559D01*
X7567801Y-8305559D02*
X7577325Y-8315083D01*
X7577325Y-8315083D02*
X7586849Y-8334131D01*
X7586849Y-8334131D02*
X7586849Y-8391273D01*
X7586849Y-8391273D02*
X7577325Y-8410321D01*
X7577325Y-8410321D02*
X7567801Y-8419845D01*
X7567801Y-8419845D02*
X7548753Y-8429369D01*
X7548753Y-8429369D02*
X7520182Y-8429369D01*
X7643992Y-8296035D02*
X7720182Y-8296035D01*
X7672563Y-8229369D02*
X7672563Y-8400797D01*
X7672563Y-8400797D02*
X7682087Y-8419845D01*
X7682087Y-8419845D02*
X7701134Y-8429369D01*
X7701134Y-8429369D02*
X7720182Y-8429369D01*
X7939230Y-8296035D02*
X7939230Y-8496035D01*
X7939230Y-8305559D02*
X7958277Y-8296035D01*
X7958277Y-8296035D02*
X7996373Y-8296035D01*
X7996373Y-8296035D02*
X8015420Y-8305559D01*
X8015420Y-8305559D02*
X8024944Y-8315083D01*
X8024944Y-8315083D02*
X8034468Y-8334131D01*
X8034468Y-8334131D02*
X8034468Y-8391273D01*
X8034468Y-8391273D02*
X8024944Y-8410321D01*
X8024944Y-8410321D02*
X8015420Y-8419845D01*
X8015420Y-8419845D02*
X7996373Y-8429369D01*
X7996373Y-8429369D02*
X7958277Y-8429369D01*
X7958277Y-8429369D02*
X7939230Y-8419845D01*
X8148753Y-8429369D02*
X8129706Y-8419845D01*
X8129706Y-8419845D02*
X8120182Y-8400797D01*
X8120182Y-8400797D02*
X8120182Y-8229369D01*
X8310658Y-8429369D02*
X8310658Y-8324607D01*
X8310658Y-8324607D02*
X8301134Y-8305559D01*
X8301134Y-8305559D02*
X8282087Y-8296035D01*
X8282087Y-8296035D02*
X8243992Y-8296035D01*
X8243992Y-8296035D02*
X8224944Y-8305559D01*
X8310658Y-8419845D02*
X8291611Y-8429369D01*
X8291611Y-8429369D02*
X8243992Y-8429369D01*
X8243992Y-8429369D02*
X8224944Y-8419845D01*
X8224944Y-8419845D02*
X8215420Y-8400797D01*
X8215420Y-8400797D02*
X8215420Y-8381750D01*
X8215420Y-8381750D02*
X8224944Y-8362702D01*
X8224944Y-8362702D02*
X8243992Y-8353178D01*
X8243992Y-8353178D02*
X8291611Y-8353178D01*
X8291611Y-8353178D02*
X8310658Y-8343654D01*
X8377325Y-8296035D02*
X8453515Y-8296035D01*
X8405896Y-8229369D02*
X8405896Y-8400797D01*
X8405896Y-8400797D02*
X8415420Y-8419845D01*
X8415420Y-8419845D02*
X8434468Y-8429369D01*
X8434468Y-8429369D02*
X8453515Y-8429369D01*
X8596373Y-8419845D02*
X8577325Y-8429369D01*
X8577325Y-8429369D02*
X8539230Y-8429369D01*
X8539230Y-8429369D02*
X8520182Y-8419845D01*
X8520182Y-8419845D02*
X8510658Y-8400797D01*
X8510658Y-8400797D02*
X8510658Y-8324607D01*
X8510658Y-8324607D02*
X8520182Y-8305559D01*
X8520182Y-8305559D02*
X8539230Y-8296035D01*
X8539230Y-8296035D02*
X8577325Y-8296035D01*
X8577325Y-8296035D02*
X8596373Y-8305559D01*
X8596373Y-8305559D02*
X8605896Y-8324607D01*
X8605896Y-8324607D02*
X8605896Y-8343654D01*
X8605896Y-8343654D02*
X8510658Y-8362702D01*
X8777325Y-8429369D02*
X8777325Y-8229369D01*
X8777325Y-8419845D02*
X8758277Y-8429369D01*
X8758277Y-8429369D02*
X8720182Y-8429369D01*
X8720182Y-8429369D02*
X8701135Y-8419845D01*
X8701135Y-8419845D02*
X8691611Y-8410321D01*
X8691611Y-8410321D02*
X8682087Y-8391273D01*
X8682087Y-8391273D02*
X8682087Y-8334131D01*
X8682087Y-8334131D02*
X8691611Y-8315083D01*
X8691611Y-8315083D02*
X8701135Y-8305559D01*
X8701135Y-8305559D02*
X8720182Y-8296035D01*
X8720182Y-8296035D02*
X8758277Y-8296035D01*
X8758277Y-8296035D02*
X8777325Y-8305559D01*
X8853516Y-8505559D02*
X8863039Y-8496035D01*
X8863039Y-8496035D02*
X8882087Y-8467464D01*
X8882087Y-8467464D02*
X8891611Y-8448416D01*
X8891611Y-8448416D02*
X8901135Y-8419845D01*
X8901135Y-8419845D02*
X8910658Y-8372226D01*
X8910658Y-8372226D02*
X8910658Y-8334131D01*
X8910658Y-8334131D02*
X8901135Y-8286511D01*
X8901135Y-8286511D02*
X8891611Y-8257940D01*
X8891611Y-8257940D02*
X8882087Y-8238892D01*
X8882087Y-8238892D02*
X8863039Y-8210321D01*
X8863039Y-8210321D02*
X8853516Y-8200797D01*
D12*
X2097500Y-8601885D02*
G75*
G02*
X1998440Y-8601885I-49530J0D01*
G01*
X1998440Y-8601885D02*
G75*
G02*
X2097500Y-8601885I49530J0D01*
G01*
D11*
X2396372Y-8493369D02*
X2415420Y-8493369D01*
X2415420Y-8493369D02*
X2434467Y-8502893D01*
X2434467Y-8502893D02*
X2443991Y-8512416D01*
X2443991Y-8512416D02*
X2453515Y-8531464D01*
X2453515Y-8531464D02*
X2463039Y-8569559D01*
X2463039Y-8569559D02*
X2463039Y-8617178D01*
X2463039Y-8617178D02*
X2453515Y-8655273D01*
X2453515Y-8655273D02*
X2443991Y-8674321D01*
X2443991Y-8674321D02*
X2434467Y-8683845D01*
X2434467Y-8683845D02*
X2415420Y-8693369D01*
X2415420Y-8693369D02*
X2396372Y-8693369D01*
X2396372Y-8693369D02*
X2377324Y-8683845D01*
X2377324Y-8683845D02*
X2367801Y-8674321D01*
X2367801Y-8674321D02*
X2358277Y-8655273D01*
X2358277Y-8655273D02*
X2348753Y-8617178D01*
X2348753Y-8617178D02*
X2348753Y-8569559D01*
X2348753Y-8569559D02*
X2358277Y-8531464D01*
X2358277Y-8531464D02*
X2367801Y-8512416D01*
X2367801Y-8512416D02*
X2377324Y-8502893D01*
X2377324Y-8502893D02*
X2396372Y-8493369D01*
X2548753Y-8674321D02*
X2558277Y-8683845D01*
X2558277Y-8683845D02*
X2548753Y-8693369D01*
X2548753Y-8693369D02*
X2539229Y-8683845D01*
X2539229Y-8683845D02*
X2548753Y-8674321D01*
X2548753Y-8674321D02*
X2548753Y-8693369D01*
X2653515Y-8693369D02*
X2691610Y-8693369D01*
X2691610Y-8693369D02*
X2710658Y-8683845D01*
X2710658Y-8683845D02*
X2720182Y-8674321D01*
X2720182Y-8674321D02*
X2739229Y-8645750D01*
X2739229Y-8645750D02*
X2748753Y-8607654D01*
X2748753Y-8607654D02*
X2748753Y-8531464D01*
X2748753Y-8531464D02*
X2739229Y-8512416D01*
X2739229Y-8512416D02*
X2729705Y-8502893D01*
X2729705Y-8502893D02*
X2710658Y-8493369D01*
X2710658Y-8493369D02*
X2672563Y-8493369D01*
X2672563Y-8493369D02*
X2653515Y-8502893D01*
X2653515Y-8502893D02*
X2643991Y-8512416D01*
X2643991Y-8512416D02*
X2634467Y-8531464D01*
X2634467Y-8531464D02*
X2634467Y-8579083D01*
X2634467Y-8579083D02*
X2643991Y-8598131D01*
X2643991Y-8598131D02*
X2653515Y-8607654D01*
X2653515Y-8607654D02*
X2672563Y-8617178D01*
X2672563Y-8617178D02*
X2710658Y-8617178D01*
X2710658Y-8617178D02*
X2729705Y-8607654D01*
X2729705Y-8607654D02*
X2739229Y-8598131D01*
X2739229Y-8598131D02*
X2748753Y-8579083D01*
X2843991Y-8693369D02*
X2882086Y-8693369D01*
X2882086Y-8693369D02*
X2901134Y-8683845D01*
X2901134Y-8683845D02*
X2910658Y-8674321D01*
X2910658Y-8674321D02*
X2929705Y-8645750D01*
X2929705Y-8645750D02*
X2939229Y-8607654D01*
X2939229Y-8607654D02*
X2939229Y-8531464D01*
X2939229Y-8531464D02*
X2929705Y-8512416D01*
X2929705Y-8512416D02*
X2920182Y-8502893D01*
X2920182Y-8502893D02*
X2901134Y-8493369D01*
X2901134Y-8493369D02*
X2863039Y-8493369D01*
X2863039Y-8493369D02*
X2843991Y-8502893D01*
X2843991Y-8502893D02*
X2834467Y-8512416D01*
X2834467Y-8512416D02*
X2824943Y-8531464D01*
X2824943Y-8531464D02*
X2824943Y-8579083D01*
X2824943Y-8579083D02*
X2834467Y-8598131D01*
X2834467Y-8598131D02*
X2843991Y-8607654D01*
X2843991Y-8607654D02*
X2863039Y-8617178D01*
X2863039Y-8617178D02*
X2901134Y-8617178D01*
X2901134Y-8617178D02*
X2920182Y-8607654D01*
X2920182Y-8607654D02*
X2929705Y-8598131D01*
X2929705Y-8598131D02*
X2939229Y-8579083D01*
X3129705Y-8693369D02*
X3015420Y-8693369D01*
X3072562Y-8693369D02*
X3072562Y-8493369D01*
X3072562Y-8493369D02*
X3053515Y-8521940D01*
X3053515Y-8521940D02*
X3034467Y-8540988D01*
X3034467Y-8540988D02*
X3015420Y-8550512D01*
X3215420Y-8693369D02*
X3215420Y-8560035D01*
X3215420Y-8579083D02*
X3224943Y-8569559D01*
X3224943Y-8569559D02*
X3243991Y-8560035D01*
X3243991Y-8560035D02*
X3272563Y-8560035D01*
X3272563Y-8560035D02*
X3291610Y-8569559D01*
X3291610Y-8569559D02*
X3301134Y-8588607D01*
X3301134Y-8588607D02*
X3301134Y-8693369D01*
X3301134Y-8588607D02*
X3310658Y-8569559D01*
X3310658Y-8569559D02*
X3329705Y-8560035D01*
X3329705Y-8560035D02*
X3358277Y-8560035D01*
X3358277Y-8560035D02*
X3377324Y-8569559D01*
X3377324Y-8569559D02*
X3386848Y-8588607D01*
X3386848Y-8588607D02*
X3386848Y-8693369D01*
X3482086Y-8693369D02*
X3482086Y-8560035D01*
X3482086Y-8579083D02*
X3491610Y-8569559D01*
X3491610Y-8569559D02*
X3510658Y-8560035D01*
X3510658Y-8560035D02*
X3539229Y-8560035D01*
X3539229Y-8560035D02*
X3558277Y-8569559D01*
X3558277Y-8569559D02*
X3567801Y-8588607D01*
X3567801Y-8588607D02*
X3567801Y-8693369D01*
X3567801Y-8588607D02*
X3577324Y-8569559D01*
X3577324Y-8569559D02*
X3596372Y-8560035D01*
X3596372Y-8560035D02*
X3624943Y-8560035D01*
X3624943Y-8560035D02*
X3643991Y-8569559D01*
X3643991Y-8569559D02*
X3653515Y-8588607D01*
X3653515Y-8588607D02*
X3653515Y-8693369D01*
X4043991Y-8483845D02*
X3872563Y-8740988D01*
X4301134Y-8493369D02*
X4320182Y-8493369D01*
X4320182Y-8493369D02*
X4339229Y-8502893D01*
X4339229Y-8502893D02*
X4348753Y-8512416D01*
X4348753Y-8512416D02*
X4358277Y-8531464D01*
X4358277Y-8531464D02*
X4367801Y-8569559D01*
X4367801Y-8569559D02*
X4367801Y-8617178D01*
X4367801Y-8617178D02*
X4358277Y-8655273D01*
X4358277Y-8655273D02*
X4348753Y-8674321D01*
X4348753Y-8674321D02*
X4339229Y-8683845D01*
X4339229Y-8683845D02*
X4320182Y-8693369D01*
X4320182Y-8693369D02*
X4301134Y-8693369D01*
X4301134Y-8693369D02*
X4282087Y-8683845D01*
X4282087Y-8683845D02*
X4272563Y-8674321D01*
X4272563Y-8674321D02*
X4263039Y-8655273D01*
X4263039Y-8655273D02*
X4253515Y-8617178D01*
X4253515Y-8617178D02*
X4253515Y-8569559D01*
X4253515Y-8569559D02*
X4263039Y-8531464D01*
X4263039Y-8531464D02*
X4272563Y-8512416D01*
X4272563Y-8512416D02*
X4282087Y-8502893D01*
X4282087Y-8502893D02*
X4301134Y-8493369D01*
X4453515Y-8674321D02*
X4463039Y-8683845D01*
X4463039Y-8683845D02*
X4453515Y-8693369D01*
X4453515Y-8693369D02*
X4443991Y-8683845D01*
X4443991Y-8683845D02*
X4453515Y-8674321D01*
X4453515Y-8674321D02*
X4453515Y-8693369D01*
X4586848Y-8493369D02*
X4605896Y-8493369D01*
X4605896Y-8493369D02*
X4624944Y-8502893D01*
X4624944Y-8502893D02*
X4634468Y-8512416D01*
X4634468Y-8512416D02*
X4643991Y-8531464D01*
X4643991Y-8531464D02*
X4653515Y-8569559D01*
X4653515Y-8569559D02*
X4653515Y-8617178D01*
X4653515Y-8617178D02*
X4643991Y-8655273D01*
X4643991Y-8655273D02*
X4634468Y-8674321D01*
X4634468Y-8674321D02*
X4624944Y-8683845D01*
X4624944Y-8683845D02*
X4605896Y-8693369D01*
X4605896Y-8693369D02*
X4586848Y-8693369D01*
X4586848Y-8693369D02*
X4567801Y-8683845D01*
X4567801Y-8683845D02*
X4558277Y-8674321D01*
X4558277Y-8674321D02*
X4548753Y-8655273D01*
X4548753Y-8655273D02*
X4539229Y-8617178D01*
X4539229Y-8617178D02*
X4539229Y-8569559D01*
X4539229Y-8569559D02*
X4548753Y-8531464D01*
X4548753Y-8531464D02*
X4558277Y-8512416D01*
X4558277Y-8512416D02*
X4567801Y-8502893D01*
X4567801Y-8502893D02*
X4586848Y-8493369D01*
X4720182Y-8493369D02*
X4843991Y-8493369D01*
X4843991Y-8493369D02*
X4777325Y-8569559D01*
X4777325Y-8569559D02*
X4805896Y-8569559D01*
X4805896Y-8569559D02*
X4824944Y-8579083D01*
X4824944Y-8579083D02*
X4834468Y-8588607D01*
X4834468Y-8588607D02*
X4843991Y-8607654D01*
X4843991Y-8607654D02*
X4843991Y-8655273D01*
X4843991Y-8655273D02*
X4834468Y-8674321D01*
X4834468Y-8674321D02*
X4824944Y-8683845D01*
X4824944Y-8683845D02*
X4805896Y-8693369D01*
X4805896Y-8693369D02*
X4748753Y-8693369D01*
X4748753Y-8693369D02*
X4729706Y-8683845D01*
X4729706Y-8683845D02*
X4720182Y-8674321D01*
X4939229Y-8693369D02*
X4977325Y-8693369D01*
X4977325Y-8693369D02*
X4996372Y-8683845D01*
X4996372Y-8683845D02*
X5005896Y-8674321D01*
X5005896Y-8674321D02*
X5024944Y-8645750D01*
X5024944Y-8645750D02*
X5034468Y-8607654D01*
X5034468Y-8607654D02*
X5034468Y-8531464D01*
X5034468Y-8531464D02*
X5024944Y-8512416D01*
X5024944Y-8512416D02*
X5015420Y-8502893D01*
X5015420Y-8502893D02*
X4996372Y-8493369D01*
X4996372Y-8493369D02*
X4958277Y-8493369D01*
X4958277Y-8493369D02*
X4939229Y-8502893D01*
X4939229Y-8502893D02*
X4929706Y-8512416D01*
X4929706Y-8512416D02*
X4920182Y-8531464D01*
X4920182Y-8531464D02*
X4920182Y-8579083D01*
X4920182Y-8579083D02*
X4929706Y-8598131D01*
X4929706Y-8598131D02*
X4939229Y-8607654D01*
X4939229Y-8607654D02*
X4958277Y-8617178D01*
X4958277Y-8617178D02*
X4996372Y-8617178D01*
X4996372Y-8617178D02*
X5015420Y-8607654D01*
X5015420Y-8607654D02*
X5024944Y-8598131D01*
X5024944Y-8598131D02*
X5034468Y-8579083D01*
X5158277Y-8493369D02*
X5177325Y-8493369D01*
X5177325Y-8493369D02*
X5196372Y-8502893D01*
X5196372Y-8502893D02*
X5205896Y-8512416D01*
X5205896Y-8512416D02*
X5215420Y-8531464D01*
X5215420Y-8531464D02*
X5224944Y-8569559D01*
X5224944Y-8569559D02*
X5224944Y-8617178D01*
X5224944Y-8617178D02*
X5215420Y-8655273D01*
X5215420Y-8655273D02*
X5205896Y-8674321D01*
X5205896Y-8674321D02*
X5196372Y-8683845D01*
X5196372Y-8683845D02*
X5177325Y-8693369D01*
X5177325Y-8693369D02*
X5158277Y-8693369D01*
X5158277Y-8693369D02*
X5139229Y-8683845D01*
X5139229Y-8683845D02*
X5129706Y-8674321D01*
X5129706Y-8674321D02*
X5120182Y-8655273D01*
X5120182Y-8655273D02*
X5110658Y-8617178D01*
X5110658Y-8617178D02*
X5110658Y-8569559D01*
X5110658Y-8569559D02*
X5120182Y-8531464D01*
X5120182Y-8531464D02*
X5129706Y-8512416D01*
X5129706Y-8512416D02*
X5139229Y-8502893D01*
X5139229Y-8502893D02*
X5158277Y-8493369D01*
X5301134Y-8493369D02*
X5301134Y-8531464D01*
X5377325Y-8493369D02*
X5377325Y-8531464D01*
X5672563Y-8769559D02*
X5663039Y-8760035D01*
X5663039Y-8760035D02*
X5643991Y-8731464D01*
X5643991Y-8731464D02*
X5634468Y-8712416D01*
X5634468Y-8712416D02*
X5624944Y-8683845D01*
X5624944Y-8683845D02*
X5615420Y-8636226D01*
X5615420Y-8636226D02*
X5615420Y-8598131D01*
X5615420Y-8598131D02*
X5624944Y-8550512D01*
X5624944Y-8550512D02*
X5634468Y-8521940D01*
X5634468Y-8521940D02*
X5643991Y-8502893D01*
X5643991Y-8502893D02*
X5663039Y-8474321D01*
X5663039Y-8474321D02*
X5672563Y-8464797D01*
X5729706Y-8493369D02*
X5853515Y-8493369D01*
X5853515Y-8493369D02*
X5786848Y-8569559D01*
X5786848Y-8569559D02*
X5815420Y-8569559D01*
X5815420Y-8569559D02*
X5834468Y-8579083D01*
X5834468Y-8579083D02*
X5843991Y-8588607D01*
X5843991Y-8588607D02*
X5853515Y-8607654D01*
X5853515Y-8607654D02*
X5853515Y-8655273D01*
X5853515Y-8655273D02*
X5843991Y-8674321D01*
X5843991Y-8674321D02*
X5834468Y-8683845D01*
X5834468Y-8683845D02*
X5815420Y-8693369D01*
X5815420Y-8693369D02*
X5758277Y-8693369D01*
X5758277Y-8693369D02*
X5739229Y-8683845D01*
X5739229Y-8683845D02*
X5729706Y-8674321D01*
X6091610Y-8693369D02*
X6091610Y-8493369D01*
X6177325Y-8693369D02*
X6177325Y-8588607D01*
X6177325Y-8588607D02*
X6167801Y-8569559D01*
X6167801Y-8569559D02*
X6148753Y-8560035D01*
X6148753Y-8560035D02*
X6120182Y-8560035D01*
X6120182Y-8560035D02*
X6101134Y-8569559D01*
X6101134Y-8569559D02*
X6091610Y-8579083D01*
X6301134Y-8693369D02*
X6282087Y-8683845D01*
X6282087Y-8683845D02*
X6272563Y-8674321D01*
X6272563Y-8674321D02*
X6263039Y-8655273D01*
X6263039Y-8655273D02*
X6263039Y-8598131D01*
X6263039Y-8598131D02*
X6272563Y-8579083D01*
X6272563Y-8579083D02*
X6282087Y-8569559D01*
X6282087Y-8569559D02*
X6301134Y-8560035D01*
X6301134Y-8560035D02*
X6329706Y-8560035D01*
X6329706Y-8560035D02*
X6348753Y-8569559D01*
X6348753Y-8569559D02*
X6358277Y-8579083D01*
X6358277Y-8579083D02*
X6367801Y-8598131D01*
X6367801Y-8598131D02*
X6367801Y-8655273D01*
X6367801Y-8655273D02*
X6358277Y-8674321D01*
X6358277Y-8674321D02*
X6348753Y-8683845D01*
X6348753Y-8683845D02*
X6329706Y-8693369D01*
X6329706Y-8693369D02*
X6301134Y-8693369D01*
X6482087Y-8693369D02*
X6463039Y-8683845D01*
X6463039Y-8683845D02*
X6453515Y-8664797D01*
X6453515Y-8664797D02*
X6453515Y-8493369D01*
X6634468Y-8683845D02*
X6615420Y-8693369D01*
X6615420Y-8693369D02*
X6577325Y-8693369D01*
X6577325Y-8693369D02*
X6558277Y-8683845D01*
X6558277Y-8683845D02*
X6548753Y-8664797D01*
X6548753Y-8664797D02*
X6548753Y-8588607D01*
X6548753Y-8588607D02*
X6558277Y-8569559D01*
X6558277Y-8569559D02*
X6577325Y-8560035D01*
X6577325Y-8560035D02*
X6615420Y-8560035D01*
X6615420Y-8560035D02*
X6634468Y-8569559D01*
X6634468Y-8569559D02*
X6643991Y-8588607D01*
X6643991Y-8588607D02*
X6643991Y-8607654D01*
X6643991Y-8607654D02*
X6548753Y-8626702D01*
X6720182Y-8683845D02*
X6739230Y-8693369D01*
X6739230Y-8693369D02*
X6777325Y-8693369D01*
X6777325Y-8693369D02*
X6796372Y-8683845D01*
X6796372Y-8683845D02*
X6805896Y-8664797D01*
X6805896Y-8664797D02*
X6805896Y-8655273D01*
X6805896Y-8655273D02*
X6796372Y-8636226D01*
X6796372Y-8636226D02*
X6777325Y-8626702D01*
X6777325Y-8626702D02*
X6748753Y-8626702D01*
X6748753Y-8626702D02*
X6729706Y-8617178D01*
X6729706Y-8617178D02*
X6720182Y-8598131D01*
X6720182Y-8598131D02*
X6720182Y-8588607D01*
X6720182Y-8588607D02*
X6729706Y-8569559D01*
X6729706Y-8569559D02*
X6748753Y-8560035D01*
X6748753Y-8560035D02*
X6777325Y-8560035D01*
X6777325Y-8560035D02*
X6796372Y-8569559D01*
X6872563Y-8769559D02*
X6882087Y-8760035D01*
X6882087Y-8760035D02*
X6901134Y-8731464D01*
X6901134Y-8731464D02*
X6910658Y-8712416D01*
X6910658Y-8712416D02*
X6920182Y-8683845D01*
X6920182Y-8683845D02*
X6929706Y-8636226D01*
X6929706Y-8636226D02*
X6929706Y-8598131D01*
X6929706Y-8598131D02*
X6920182Y-8550512D01*
X6920182Y-8550512D02*
X6910658Y-8521940D01*
X6910658Y-8521940D02*
X6901134Y-8502893D01*
X6901134Y-8502893D02*
X6882087Y-8474321D01*
X6882087Y-8474321D02*
X6872563Y-8464797D01*
X7234468Y-8769559D02*
X7224944Y-8760035D01*
X7224944Y-8760035D02*
X7205896Y-8731464D01*
X7205896Y-8731464D02*
X7196372Y-8712416D01*
X7196372Y-8712416D02*
X7186849Y-8683845D01*
X7186849Y-8683845D02*
X7177325Y-8636226D01*
X7177325Y-8636226D02*
X7177325Y-8598131D01*
X7177325Y-8598131D02*
X7186849Y-8550512D01*
X7186849Y-8550512D02*
X7196372Y-8521940D01*
X7196372Y-8521940D02*
X7205896Y-8502893D01*
X7205896Y-8502893D02*
X7224944Y-8474321D01*
X7224944Y-8474321D02*
X7234468Y-8464797D01*
X7310658Y-8560035D02*
X7310658Y-8693369D01*
X7310658Y-8579083D02*
X7320182Y-8569559D01*
X7320182Y-8569559D02*
X7339230Y-8560035D01*
X7339230Y-8560035D02*
X7367801Y-8560035D01*
X7367801Y-8560035D02*
X7386849Y-8569559D01*
X7386849Y-8569559D02*
X7396372Y-8588607D01*
X7396372Y-8588607D02*
X7396372Y-8693369D01*
X7520182Y-8693369D02*
X7501134Y-8683845D01*
X7501134Y-8683845D02*
X7491611Y-8674321D01*
X7491611Y-8674321D02*
X7482087Y-8655273D01*
X7482087Y-8655273D02*
X7482087Y-8598131D01*
X7482087Y-8598131D02*
X7491611Y-8579083D01*
X7491611Y-8579083D02*
X7501134Y-8569559D01*
X7501134Y-8569559D02*
X7520182Y-8560035D01*
X7520182Y-8560035D02*
X7548753Y-8560035D01*
X7548753Y-8560035D02*
X7567801Y-8569559D01*
X7567801Y-8569559D02*
X7577325Y-8579083D01*
X7577325Y-8579083D02*
X7586849Y-8598131D01*
X7586849Y-8598131D02*
X7586849Y-8655273D01*
X7586849Y-8655273D02*
X7577325Y-8674321D01*
X7577325Y-8674321D02*
X7567801Y-8683845D01*
X7567801Y-8683845D02*
X7548753Y-8693369D01*
X7548753Y-8693369D02*
X7520182Y-8693369D01*
X7643992Y-8560035D02*
X7720182Y-8560035D01*
X7672563Y-8493369D02*
X7672563Y-8664797D01*
X7672563Y-8664797D02*
X7682087Y-8683845D01*
X7682087Y-8683845D02*
X7701134Y-8693369D01*
X7701134Y-8693369D02*
X7720182Y-8693369D01*
X7939230Y-8560035D02*
X7939230Y-8760035D01*
X7939230Y-8569559D02*
X7958277Y-8560035D01*
X7958277Y-8560035D02*
X7996373Y-8560035D01*
X7996373Y-8560035D02*
X8015420Y-8569559D01*
X8015420Y-8569559D02*
X8024944Y-8579083D01*
X8024944Y-8579083D02*
X8034468Y-8598131D01*
X8034468Y-8598131D02*
X8034468Y-8655273D01*
X8034468Y-8655273D02*
X8024944Y-8674321D01*
X8024944Y-8674321D02*
X8015420Y-8683845D01*
X8015420Y-8683845D02*
X7996373Y-8693369D01*
X7996373Y-8693369D02*
X7958277Y-8693369D01*
X7958277Y-8693369D02*
X7939230Y-8683845D01*
X8148753Y-8693369D02*
X8129706Y-8683845D01*
X8129706Y-8683845D02*
X8120182Y-8664797D01*
X8120182Y-8664797D02*
X8120182Y-8493369D01*
X8310658Y-8693369D02*
X8310658Y-8588607D01*
X8310658Y-8588607D02*
X8301134Y-8569559D01*
X8301134Y-8569559D02*
X8282087Y-8560035D01*
X8282087Y-8560035D02*
X8243992Y-8560035D01*
X8243992Y-8560035D02*
X8224944Y-8569559D01*
X8310658Y-8683845D02*
X8291611Y-8693369D01*
X8291611Y-8693369D02*
X8243992Y-8693369D01*
X8243992Y-8693369D02*
X8224944Y-8683845D01*
X8224944Y-8683845D02*
X8215420Y-8664797D01*
X8215420Y-8664797D02*
X8215420Y-8645750D01*
X8215420Y-8645750D02*
X8224944Y-8626702D01*
X8224944Y-8626702D02*
X8243992Y-8617178D01*
X8243992Y-8617178D02*
X8291611Y-8617178D01*
X8291611Y-8617178D02*
X8310658Y-8607654D01*
X8377325Y-8560035D02*
X8453515Y-8560035D01*
X8405896Y-8493369D02*
X8405896Y-8664797D01*
X8405896Y-8664797D02*
X8415420Y-8683845D01*
X8415420Y-8683845D02*
X8434468Y-8693369D01*
X8434468Y-8693369D02*
X8453515Y-8693369D01*
X8596373Y-8683845D02*
X8577325Y-8693369D01*
X8577325Y-8693369D02*
X8539230Y-8693369D01*
X8539230Y-8693369D02*
X8520182Y-8683845D01*
X8520182Y-8683845D02*
X8510658Y-8664797D01*
X8510658Y-8664797D02*
X8510658Y-8588607D01*
X8510658Y-8588607D02*
X8520182Y-8569559D01*
X8520182Y-8569559D02*
X8539230Y-8560035D01*
X8539230Y-8560035D02*
X8577325Y-8560035D01*
X8577325Y-8560035D02*
X8596373Y-8569559D01*
X8596373Y-8569559D02*
X8605896Y-8588607D01*
X8605896Y-8588607D02*
X8605896Y-8607654D01*
X8605896Y-8607654D02*
X8510658Y-8626702D01*
X8777325Y-8693369D02*
X8777325Y-8493369D01*
X8777325Y-8683845D02*
X8758277Y-8693369D01*
X8758277Y-8693369D02*
X8720182Y-8693369D01*
X8720182Y-8693369D02*
X8701135Y-8683845D01*
X8701135Y-8683845D02*
X8691611Y-8674321D01*
X8691611Y-8674321D02*
X8682087Y-8655273D01*
X8682087Y-8655273D02*
X8682087Y-8598131D01*
X8682087Y-8598131D02*
X8691611Y-8579083D01*
X8691611Y-8579083D02*
X8701135Y-8569559D01*
X8701135Y-8569559D02*
X8720182Y-8560035D01*
X8720182Y-8560035D02*
X8758277Y-8560035D01*
X8758277Y-8560035D02*
X8777325Y-8569559D01*
X8853516Y-8769559D02*
X8863039Y-8760035D01*
X8863039Y-8760035D02*
X8882087Y-8731464D01*
X8882087Y-8731464D02*
X8891611Y-8712416D01*
X8891611Y-8712416D02*
X8901135Y-8683845D01*
X8901135Y-8683845D02*
X8910658Y-8636226D01*
X8910658Y-8636226D02*
X8910658Y-8598131D01*
X8910658Y-8598131D02*
X8901135Y-8550512D01*
X8901135Y-8550512D02*
X8891611Y-8521940D01*
X8891611Y-8521940D02*
X8882087Y-8502893D01*
X8882087Y-8502893D02*
X8863039Y-8474321D01*
X8863039Y-8474321D02*
X8853516Y-8464797D01*
X1997500Y-8765885D02*
X1997500Y-8965885D01*
X1897500Y-8865885D02*
X2097500Y-8865885D01*
X2348753Y-8776416D02*
X2358277Y-8766893D01*
X2358277Y-8766893D02*
X2377324Y-8757369D01*
X2377324Y-8757369D02*
X2424944Y-8757369D01*
X2424944Y-8757369D02*
X2443991Y-8766893D01*
X2443991Y-8766893D02*
X2453515Y-8776416D01*
X2453515Y-8776416D02*
X2463039Y-8795464D01*
X2463039Y-8795464D02*
X2463039Y-8814512D01*
X2463039Y-8814512D02*
X2453515Y-8843083D01*
X2453515Y-8843083D02*
X2339229Y-8957369D01*
X2339229Y-8957369D02*
X2463039Y-8957369D01*
X2548753Y-8938321D02*
X2558277Y-8947845D01*
X2558277Y-8947845D02*
X2548753Y-8957369D01*
X2548753Y-8957369D02*
X2539229Y-8947845D01*
X2539229Y-8947845D02*
X2548753Y-8938321D01*
X2548753Y-8938321D02*
X2548753Y-8957369D01*
X2682086Y-8757369D02*
X2701134Y-8757369D01*
X2701134Y-8757369D02*
X2720182Y-8766893D01*
X2720182Y-8766893D02*
X2729705Y-8776416D01*
X2729705Y-8776416D02*
X2739229Y-8795464D01*
X2739229Y-8795464D02*
X2748753Y-8833559D01*
X2748753Y-8833559D02*
X2748753Y-8881178D01*
X2748753Y-8881178D02*
X2739229Y-8919273D01*
X2739229Y-8919273D02*
X2729705Y-8938321D01*
X2729705Y-8938321D02*
X2720182Y-8947845D01*
X2720182Y-8947845D02*
X2701134Y-8957369D01*
X2701134Y-8957369D02*
X2682086Y-8957369D01*
X2682086Y-8957369D02*
X2663039Y-8947845D01*
X2663039Y-8947845D02*
X2653515Y-8938321D01*
X2653515Y-8938321D02*
X2643991Y-8919273D01*
X2643991Y-8919273D02*
X2634467Y-8881178D01*
X2634467Y-8881178D02*
X2634467Y-8833559D01*
X2634467Y-8833559D02*
X2643991Y-8795464D01*
X2643991Y-8795464D02*
X2653515Y-8776416D01*
X2653515Y-8776416D02*
X2663039Y-8766893D01*
X2663039Y-8766893D02*
X2682086Y-8757369D01*
X2872562Y-8757369D02*
X2891610Y-8757369D01*
X2891610Y-8757369D02*
X2910658Y-8766893D01*
X2910658Y-8766893D02*
X2920182Y-8776416D01*
X2920182Y-8776416D02*
X2929705Y-8795464D01*
X2929705Y-8795464D02*
X2939229Y-8833559D01*
X2939229Y-8833559D02*
X2939229Y-8881178D01*
X2939229Y-8881178D02*
X2929705Y-8919273D01*
X2929705Y-8919273D02*
X2920182Y-8938321D01*
X2920182Y-8938321D02*
X2910658Y-8947845D01*
X2910658Y-8947845D02*
X2891610Y-8957369D01*
X2891610Y-8957369D02*
X2872562Y-8957369D01*
X2872562Y-8957369D02*
X2853515Y-8947845D01*
X2853515Y-8947845D02*
X2843991Y-8938321D01*
X2843991Y-8938321D02*
X2834467Y-8919273D01*
X2834467Y-8919273D02*
X2824943Y-8881178D01*
X2824943Y-8881178D02*
X2824943Y-8833559D01*
X2824943Y-8833559D02*
X2834467Y-8795464D01*
X2834467Y-8795464D02*
X2843991Y-8776416D01*
X2843991Y-8776416D02*
X2853515Y-8766893D01*
X2853515Y-8766893D02*
X2872562Y-8757369D01*
X3063039Y-8757369D02*
X3082086Y-8757369D01*
X3082086Y-8757369D02*
X3101134Y-8766893D01*
X3101134Y-8766893D02*
X3110658Y-8776416D01*
X3110658Y-8776416D02*
X3120182Y-8795464D01*
X3120182Y-8795464D02*
X3129705Y-8833559D01*
X3129705Y-8833559D02*
X3129705Y-8881178D01*
X3129705Y-8881178D02*
X3120182Y-8919273D01*
X3120182Y-8919273D02*
X3110658Y-8938321D01*
X3110658Y-8938321D02*
X3101134Y-8947845D01*
X3101134Y-8947845D02*
X3082086Y-8957369D01*
X3082086Y-8957369D02*
X3063039Y-8957369D01*
X3063039Y-8957369D02*
X3043991Y-8947845D01*
X3043991Y-8947845D02*
X3034467Y-8938321D01*
X3034467Y-8938321D02*
X3024943Y-8919273D01*
X3024943Y-8919273D02*
X3015420Y-8881178D01*
X3015420Y-8881178D02*
X3015420Y-8833559D01*
X3015420Y-8833559D02*
X3024943Y-8795464D01*
X3024943Y-8795464D02*
X3034467Y-8776416D01*
X3034467Y-8776416D02*
X3043991Y-8766893D01*
X3043991Y-8766893D02*
X3063039Y-8757369D01*
X3215420Y-8957369D02*
X3215420Y-8824035D01*
X3215420Y-8843083D02*
X3224943Y-8833559D01*
X3224943Y-8833559D02*
X3243991Y-8824035D01*
X3243991Y-8824035D02*
X3272563Y-8824035D01*
X3272563Y-8824035D02*
X3291610Y-8833559D01*
X3291610Y-8833559D02*
X3301134Y-8852607D01*
X3301134Y-8852607D02*
X3301134Y-8957369D01*
X3301134Y-8852607D02*
X3310658Y-8833559D01*
X3310658Y-8833559D02*
X3329705Y-8824035D01*
X3329705Y-8824035D02*
X3358277Y-8824035D01*
X3358277Y-8824035D02*
X3377324Y-8833559D01*
X3377324Y-8833559D02*
X3386848Y-8852607D01*
X3386848Y-8852607D02*
X3386848Y-8957369D01*
X3482086Y-8957369D02*
X3482086Y-8824035D01*
X3482086Y-8843083D02*
X3491610Y-8833559D01*
X3491610Y-8833559D02*
X3510658Y-8824035D01*
X3510658Y-8824035D02*
X3539229Y-8824035D01*
X3539229Y-8824035D02*
X3558277Y-8833559D01*
X3558277Y-8833559D02*
X3567801Y-8852607D01*
X3567801Y-8852607D02*
X3567801Y-8957369D01*
X3567801Y-8852607D02*
X3577324Y-8833559D01*
X3577324Y-8833559D02*
X3596372Y-8824035D01*
X3596372Y-8824035D02*
X3624943Y-8824035D01*
X3624943Y-8824035D02*
X3643991Y-8833559D01*
X3643991Y-8833559D02*
X3653515Y-8852607D01*
X3653515Y-8852607D02*
X3653515Y-8957369D01*
X4043991Y-8747845D02*
X3872563Y-9004988D01*
X4301134Y-8757369D02*
X4320182Y-8757369D01*
X4320182Y-8757369D02*
X4339229Y-8766893D01*
X4339229Y-8766893D02*
X4348753Y-8776416D01*
X4348753Y-8776416D02*
X4358277Y-8795464D01*
X4358277Y-8795464D02*
X4367801Y-8833559D01*
X4367801Y-8833559D02*
X4367801Y-8881178D01*
X4367801Y-8881178D02*
X4358277Y-8919273D01*
X4358277Y-8919273D02*
X4348753Y-8938321D01*
X4348753Y-8938321D02*
X4339229Y-8947845D01*
X4339229Y-8947845D02*
X4320182Y-8957369D01*
X4320182Y-8957369D02*
X4301134Y-8957369D01*
X4301134Y-8957369D02*
X4282087Y-8947845D01*
X4282087Y-8947845D02*
X4272563Y-8938321D01*
X4272563Y-8938321D02*
X4263039Y-8919273D01*
X4263039Y-8919273D02*
X4253515Y-8881178D01*
X4253515Y-8881178D02*
X4253515Y-8833559D01*
X4253515Y-8833559D02*
X4263039Y-8795464D01*
X4263039Y-8795464D02*
X4272563Y-8776416D01*
X4272563Y-8776416D02*
X4282087Y-8766893D01*
X4282087Y-8766893D02*
X4301134Y-8757369D01*
X4453515Y-8938321D02*
X4463039Y-8947845D01*
X4463039Y-8947845D02*
X4453515Y-8957369D01*
X4453515Y-8957369D02*
X4443991Y-8947845D01*
X4443991Y-8947845D02*
X4453515Y-8938321D01*
X4453515Y-8938321D02*
X4453515Y-8957369D01*
X4586848Y-8757369D02*
X4605896Y-8757369D01*
X4605896Y-8757369D02*
X4624944Y-8766893D01*
X4624944Y-8766893D02*
X4634468Y-8776416D01*
X4634468Y-8776416D02*
X4643991Y-8795464D01*
X4643991Y-8795464D02*
X4653515Y-8833559D01*
X4653515Y-8833559D02*
X4653515Y-8881178D01*
X4653515Y-8881178D02*
X4643991Y-8919273D01*
X4643991Y-8919273D02*
X4634468Y-8938321D01*
X4634468Y-8938321D02*
X4624944Y-8947845D01*
X4624944Y-8947845D02*
X4605896Y-8957369D01*
X4605896Y-8957369D02*
X4586848Y-8957369D01*
X4586848Y-8957369D02*
X4567801Y-8947845D01*
X4567801Y-8947845D02*
X4558277Y-8938321D01*
X4558277Y-8938321D02*
X4548753Y-8919273D01*
X4548753Y-8919273D02*
X4539229Y-8881178D01*
X4539229Y-8881178D02*
X4539229Y-8833559D01*
X4539229Y-8833559D02*
X4548753Y-8795464D01*
X4548753Y-8795464D02*
X4558277Y-8776416D01*
X4558277Y-8776416D02*
X4567801Y-8766893D01*
X4567801Y-8766893D02*
X4586848Y-8757369D01*
X4720182Y-8757369D02*
X4853515Y-8757369D01*
X4853515Y-8757369D02*
X4767801Y-8957369D01*
X4958277Y-8843083D02*
X4939229Y-8833559D01*
X4939229Y-8833559D02*
X4929706Y-8824035D01*
X4929706Y-8824035D02*
X4920182Y-8804988D01*
X4920182Y-8804988D02*
X4920182Y-8795464D01*
X4920182Y-8795464D02*
X4929706Y-8776416D01*
X4929706Y-8776416D02*
X4939229Y-8766893D01*
X4939229Y-8766893D02*
X4958277Y-8757369D01*
X4958277Y-8757369D02*
X4996372Y-8757369D01*
X4996372Y-8757369D02*
X5015420Y-8766893D01*
X5015420Y-8766893D02*
X5024944Y-8776416D01*
X5024944Y-8776416D02*
X5034468Y-8795464D01*
X5034468Y-8795464D02*
X5034468Y-8804988D01*
X5034468Y-8804988D02*
X5024944Y-8824035D01*
X5024944Y-8824035D02*
X5015420Y-8833559D01*
X5015420Y-8833559D02*
X4996372Y-8843083D01*
X4996372Y-8843083D02*
X4958277Y-8843083D01*
X4958277Y-8843083D02*
X4939229Y-8852607D01*
X4939229Y-8852607D02*
X4929706Y-8862131D01*
X4929706Y-8862131D02*
X4920182Y-8881178D01*
X4920182Y-8881178D02*
X4920182Y-8919273D01*
X4920182Y-8919273D02*
X4929706Y-8938321D01*
X4929706Y-8938321D02*
X4939229Y-8947845D01*
X4939229Y-8947845D02*
X4958277Y-8957369D01*
X4958277Y-8957369D02*
X4996372Y-8957369D01*
X4996372Y-8957369D02*
X5015420Y-8947845D01*
X5015420Y-8947845D02*
X5024944Y-8938321D01*
X5024944Y-8938321D02*
X5034468Y-8919273D01*
X5034468Y-8919273D02*
X5034468Y-8881178D01*
X5034468Y-8881178D02*
X5024944Y-8862131D01*
X5024944Y-8862131D02*
X5015420Y-8852607D01*
X5015420Y-8852607D02*
X4996372Y-8843083D01*
X5101134Y-8757369D02*
X5234468Y-8757369D01*
X5234468Y-8757369D02*
X5148753Y-8957369D01*
X5301134Y-8757369D02*
X5301134Y-8795464D01*
X5377325Y-8757369D02*
X5377325Y-8795464D01*
X5672563Y-9033559D02*
X5663039Y-9024035D01*
X5663039Y-9024035D02*
X5643991Y-8995464D01*
X5643991Y-8995464D02*
X5634468Y-8976416D01*
X5634468Y-8976416D02*
X5624944Y-8947845D01*
X5624944Y-8947845D02*
X5615420Y-8900226D01*
X5615420Y-8900226D02*
X5615420Y-8862131D01*
X5615420Y-8862131D02*
X5624944Y-8814512D01*
X5624944Y-8814512D02*
X5634468Y-8785940D01*
X5634468Y-8785940D02*
X5643991Y-8766893D01*
X5643991Y-8766893D02*
X5663039Y-8738321D01*
X5663039Y-8738321D02*
X5672563Y-8728797D01*
X5853515Y-8957369D02*
X5739229Y-8957369D01*
X5796372Y-8957369D02*
X5796372Y-8757369D01*
X5796372Y-8757369D02*
X5777325Y-8785940D01*
X5777325Y-8785940D02*
X5758277Y-8804988D01*
X5758277Y-8804988D02*
X5739229Y-8814512D01*
X6091610Y-8957369D02*
X6091610Y-8757369D01*
X6177325Y-8957369D02*
X6177325Y-8852607D01*
X6177325Y-8852607D02*
X6167801Y-8833559D01*
X6167801Y-8833559D02*
X6148753Y-8824035D01*
X6148753Y-8824035D02*
X6120182Y-8824035D01*
X6120182Y-8824035D02*
X6101134Y-8833559D01*
X6101134Y-8833559D02*
X6091610Y-8843083D01*
X6301134Y-8957369D02*
X6282087Y-8947845D01*
X6282087Y-8947845D02*
X6272563Y-8938321D01*
X6272563Y-8938321D02*
X6263039Y-8919273D01*
X6263039Y-8919273D02*
X6263039Y-8862131D01*
X6263039Y-8862131D02*
X6272563Y-8843083D01*
X6272563Y-8843083D02*
X6282087Y-8833559D01*
X6282087Y-8833559D02*
X6301134Y-8824035D01*
X6301134Y-8824035D02*
X6329706Y-8824035D01*
X6329706Y-8824035D02*
X6348753Y-8833559D01*
X6348753Y-8833559D02*
X6358277Y-8843083D01*
X6358277Y-8843083D02*
X6367801Y-8862131D01*
X6367801Y-8862131D02*
X6367801Y-8919273D01*
X6367801Y-8919273D02*
X6358277Y-8938321D01*
X6358277Y-8938321D02*
X6348753Y-8947845D01*
X6348753Y-8947845D02*
X6329706Y-8957369D01*
X6329706Y-8957369D02*
X6301134Y-8957369D01*
X6482087Y-8957369D02*
X6463039Y-8947845D01*
X6463039Y-8947845D02*
X6453515Y-8928797D01*
X6453515Y-8928797D02*
X6453515Y-8757369D01*
X6634468Y-8947845D02*
X6615420Y-8957369D01*
X6615420Y-8957369D02*
X6577325Y-8957369D01*
X6577325Y-8957369D02*
X6558277Y-8947845D01*
X6558277Y-8947845D02*
X6548753Y-8928797D01*
X6548753Y-8928797D02*
X6548753Y-8852607D01*
X6548753Y-8852607D02*
X6558277Y-8833559D01*
X6558277Y-8833559D02*
X6577325Y-8824035D01*
X6577325Y-8824035D02*
X6615420Y-8824035D01*
X6615420Y-8824035D02*
X6634468Y-8833559D01*
X6634468Y-8833559D02*
X6643991Y-8852607D01*
X6643991Y-8852607D02*
X6643991Y-8871654D01*
X6643991Y-8871654D02*
X6548753Y-8890702D01*
X6710658Y-9033559D02*
X6720182Y-9024035D01*
X6720182Y-9024035D02*
X6739230Y-8995464D01*
X6739230Y-8995464D02*
X6748753Y-8976416D01*
X6748753Y-8976416D02*
X6758277Y-8947845D01*
X6758277Y-8947845D02*
X6767801Y-8900226D01*
X6767801Y-8900226D02*
X6767801Y-8862131D01*
X6767801Y-8862131D02*
X6758277Y-8814512D01*
X6758277Y-8814512D02*
X6748753Y-8785940D01*
X6748753Y-8785940D02*
X6739230Y-8766893D01*
X6739230Y-8766893D02*
X6720182Y-8738321D01*
X6720182Y-8738321D02*
X6710658Y-8728797D01*
X7072563Y-9033559D02*
X7063039Y-9024035D01*
X7063039Y-9024035D02*
X7043991Y-8995464D01*
X7043991Y-8995464D02*
X7034468Y-8976416D01*
X7034468Y-8976416D02*
X7024944Y-8947845D01*
X7024944Y-8947845D02*
X7015420Y-8900226D01*
X7015420Y-8900226D02*
X7015420Y-8862131D01*
X7015420Y-8862131D02*
X7024944Y-8814512D01*
X7024944Y-8814512D02*
X7034468Y-8785940D01*
X7034468Y-8785940D02*
X7043991Y-8766893D01*
X7043991Y-8766893D02*
X7063039Y-8738321D01*
X7063039Y-8738321D02*
X7072563Y-8728797D01*
X7148753Y-8824035D02*
X7148753Y-8957369D01*
X7148753Y-8843083D02*
X7158277Y-8833559D01*
X7158277Y-8833559D02*
X7177325Y-8824035D01*
X7177325Y-8824035D02*
X7205896Y-8824035D01*
X7205896Y-8824035D02*
X7224944Y-8833559D01*
X7224944Y-8833559D02*
X7234468Y-8852607D01*
X7234468Y-8852607D02*
X7234468Y-8957369D01*
X7358277Y-8957369D02*
X7339230Y-8947845D01*
X7339230Y-8947845D02*
X7329706Y-8938321D01*
X7329706Y-8938321D02*
X7320182Y-8919273D01*
X7320182Y-8919273D02*
X7320182Y-8862131D01*
X7320182Y-8862131D02*
X7329706Y-8843083D01*
X7329706Y-8843083D02*
X7339230Y-8833559D01*
X7339230Y-8833559D02*
X7358277Y-8824035D01*
X7358277Y-8824035D02*
X7386849Y-8824035D01*
X7386849Y-8824035D02*
X7405896Y-8833559D01*
X7405896Y-8833559D02*
X7415420Y-8843083D01*
X7415420Y-8843083D02*
X7424944Y-8862131D01*
X7424944Y-8862131D02*
X7424944Y-8919273D01*
X7424944Y-8919273D02*
X7415420Y-8938321D01*
X7415420Y-8938321D02*
X7405896Y-8947845D01*
X7405896Y-8947845D02*
X7386849Y-8957369D01*
X7386849Y-8957369D02*
X7358277Y-8957369D01*
X7482087Y-8824035D02*
X7558277Y-8824035D01*
X7510658Y-8757369D02*
X7510658Y-8928797D01*
X7510658Y-8928797D02*
X7520182Y-8947845D01*
X7520182Y-8947845D02*
X7539230Y-8957369D01*
X7539230Y-8957369D02*
X7558277Y-8957369D01*
X7777325Y-8824035D02*
X7777325Y-9024035D01*
X7777325Y-8833559D02*
X7796372Y-8824035D01*
X7796372Y-8824035D02*
X7834468Y-8824035D01*
X7834468Y-8824035D02*
X7853515Y-8833559D01*
X7853515Y-8833559D02*
X7863039Y-8843083D01*
X7863039Y-8843083D02*
X7872563Y-8862131D01*
X7872563Y-8862131D02*
X7872563Y-8919273D01*
X7872563Y-8919273D02*
X7863039Y-8938321D01*
X7863039Y-8938321D02*
X7853515Y-8947845D01*
X7853515Y-8947845D02*
X7834468Y-8957369D01*
X7834468Y-8957369D02*
X7796372Y-8957369D01*
X7796372Y-8957369D02*
X7777325Y-8947845D01*
X7986849Y-8957369D02*
X7967801Y-8947845D01*
X7967801Y-8947845D02*
X7958277Y-8928797D01*
X7958277Y-8928797D02*
X7958277Y-8757369D01*
X8148753Y-8957369D02*
X8148753Y-8852607D01*
X8148753Y-8852607D02*
X8139230Y-8833559D01*
X8139230Y-8833559D02*
X8120182Y-8824035D01*
X8120182Y-8824035D02*
X8082087Y-8824035D01*
X8082087Y-8824035D02*
X8063039Y-8833559D01*
X8148753Y-8947845D02*
X8129706Y-8957369D01*
X8129706Y-8957369D02*
X8082087Y-8957369D01*
X8082087Y-8957369D02*
X8063039Y-8947845D01*
X8063039Y-8947845D02*
X8053515Y-8928797D01*
X8053515Y-8928797D02*
X8053515Y-8909750D01*
X8053515Y-8909750D02*
X8063039Y-8890702D01*
X8063039Y-8890702D02*
X8082087Y-8881178D01*
X8082087Y-8881178D02*
X8129706Y-8881178D01*
X8129706Y-8881178D02*
X8148753Y-8871654D01*
X8215420Y-8824035D02*
X8291611Y-8824035D01*
X8243992Y-8757369D02*
X8243992Y-8928797D01*
X8243992Y-8928797D02*
X8253515Y-8947845D01*
X8253515Y-8947845D02*
X8272563Y-8957369D01*
X8272563Y-8957369D02*
X8291611Y-8957369D01*
X8434468Y-8947845D02*
X8415420Y-8957369D01*
X8415420Y-8957369D02*
X8377325Y-8957369D01*
X8377325Y-8957369D02*
X8358277Y-8947845D01*
X8358277Y-8947845D02*
X8348753Y-8928797D01*
X8348753Y-8928797D02*
X8348753Y-8852607D01*
X8348753Y-8852607D02*
X8358277Y-8833559D01*
X8358277Y-8833559D02*
X8377325Y-8824035D01*
X8377325Y-8824035D02*
X8415420Y-8824035D01*
X8415420Y-8824035D02*
X8434468Y-8833559D01*
X8434468Y-8833559D02*
X8443992Y-8852607D01*
X8443992Y-8852607D02*
X8443992Y-8871654D01*
X8443992Y-8871654D02*
X8348753Y-8890702D01*
X8615420Y-8957369D02*
X8615420Y-8757369D01*
X8615420Y-8947845D02*
X8596373Y-8957369D01*
X8596373Y-8957369D02*
X8558277Y-8957369D01*
X8558277Y-8957369D02*
X8539230Y-8947845D01*
X8539230Y-8947845D02*
X8529706Y-8938321D01*
X8529706Y-8938321D02*
X8520182Y-8919273D01*
X8520182Y-8919273D02*
X8520182Y-8862131D01*
X8520182Y-8862131D02*
X8529706Y-8843083D01*
X8529706Y-8843083D02*
X8539230Y-8833559D01*
X8539230Y-8833559D02*
X8558277Y-8824035D01*
X8558277Y-8824035D02*
X8596373Y-8824035D01*
X8596373Y-8824035D02*
X8615420Y-8833559D01*
X8691611Y-9033559D02*
X8701135Y-9024035D01*
X8701135Y-9024035D02*
X8720182Y-8995464D01*
X8720182Y-8995464D02*
X8729706Y-8976416D01*
X8729706Y-8976416D02*
X8739230Y-8947845D01*
X8739230Y-8947845D02*
X8748754Y-8900226D01*
X8748754Y-8900226D02*
X8748754Y-8862131D01*
X8748754Y-8862131D02*
X8739230Y-8814512D01*
X8739230Y-8814512D02*
X8729706Y-8785940D01*
X8729706Y-8785940D02*
X8720182Y-8766893D01*
X8720182Y-8766893D02*
X8701135Y-8738321D01*
X8701135Y-8738321D02*
X8691611Y-8728797D01*
X2068211Y-9256596D02*
X2068211Y-9115174D01*
X1926789Y-9115174D01*
X1926789Y-9256596D01*
X2068211Y-9256596D01*
X2348753Y-9096416D02*
X2358277Y-9086893D01*
X2358277Y-9086893D02*
X2377324Y-9077369D01*
X2377324Y-9077369D02*
X2424944Y-9077369D01*
X2424944Y-9077369D02*
X2443991Y-9086893D01*
X2443991Y-9086893D02*
X2453515Y-9096416D01*
X2453515Y-9096416D02*
X2463039Y-9115464D01*
X2463039Y-9115464D02*
X2463039Y-9134512D01*
X2463039Y-9134512D02*
X2453515Y-9163083D01*
X2453515Y-9163083D02*
X2339229Y-9277369D01*
X2339229Y-9277369D02*
X2463039Y-9277369D01*
X2548753Y-9258321D02*
X2558277Y-9267845D01*
X2558277Y-9267845D02*
X2548753Y-9277369D01*
X2548753Y-9277369D02*
X2539229Y-9267845D01*
X2539229Y-9267845D02*
X2548753Y-9258321D01*
X2548753Y-9258321D02*
X2548753Y-9277369D01*
X2634467Y-9096416D02*
X2643991Y-9086893D01*
X2643991Y-9086893D02*
X2663039Y-9077369D01*
X2663039Y-9077369D02*
X2710658Y-9077369D01*
X2710658Y-9077369D02*
X2729705Y-9086893D01*
X2729705Y-9086893D02*
X2739229Y-9096416D01*
X2739229Y-9096416D02*
X2748753Y-9115464D01*
X2748753Y-9115464D02*
X2748753Y-9134512D01*
X2748753Y-9134512D02*
X2739229Y-9163083D01*
X2739229Y-9163083D02*
X2624944Y-9277369D01*
X2624944Y-9277369D02*
X2748753Y-9277369D01*
X2872562Y-9077369D02*
X2891610Y-9077369D01*
X2891610Y-9077369D02*
X2910658Y-9086893D01*
X2910658Y-9086893D02*
X2920182Y-9096416D01*
X2920182Y-9096416D02*
X2929705Y-9115464D01*
X2929705Y-9115464D02*
X2939229Y-9153559D01*
X2939229Y-9153559D02*
X2939229Y-9201178D01*
X2939229Y-9201178D02*
X2929705Y-9239273D01*
X2929705Y-9239273D02*
X2920182Y-9258321D01*
X2920182Y-9258321D02*
X2910658Y-9267845D01*
X2910658Y-9267845D02*
X2891610Y-9277369D01*
X2891610Y-9277369D02*
X2872562Y-9277369D01*
X2872562Y-9277369D02*
X2853515Y-9267845D01*
X2853515Y-9267845D02*
X2843991Y-9258321D01*
X2843991Y-9258321D02*
X2834467Y-9239273D01*
X2834467Y-9239273D02*
X2824943Y-9201178D01*
X2824943Y-9201178D02*
X2824943Y-9153559D01*
X2824943Y-9153559D02*
X2834467Y-9115464D01*
X2834467Y-9115464D02*
X2843991Y-9096416D01*
X2843991Y-9096416D02*
X2853515Y-9086893D01*
X2853515Y-9086893D02*
X2872562Y-9077369D01*
X3063039Y-9077369D02*
X3082086Y-9077369D01*
X3082086Y-9077369D02*
X3101134Y-9086893D01*
X3101134Y-9086893D02*
X3110658Y-9096416D01*
X3110658Y-9096416D02*
X3120182Y-9115464D01*
X3120182Y-9115464D02*
X3129705Y-9153559D01*
X3129705Y-9153559D02*
X3129705Y-9201178D01*
X3129705Y-9201178D02*
X3120182Y-9239273D01*
X3120182Y-9239273D02*
X3110658Y-9258321D01*
X3110658Y-9258321D02*
X3101134Y-9267845D01*
X3101134Y-9267845D02*
X3082086Y-9277369D01*
X3082086Y-9277369D02*
X3063039Y-9277369D01*
X3063039Y-9277369D02*
X3043991Y-9267845D01*
X3043991Y-9267845D02*
X3034467Y-9258321D01*
X3034467Y-9258321D02*
X3024943Y-9239273D01*
X3024943Y-9239273D02*
X3015420Y-9201178D01*
X3015420Y-9201178D02*
X3015420Y-9153559D01*
X3015420Y-9153559D02*
X3024943Y-9115464D01*
X3024943Y-9115464D02*
X3034467Y-9096416D01*
X3034467Y-9096416D02*
X3043991Y-9086893D01*
X3043991Y-9086893D02*
X3063039Y-9077369D01*
X3215420Y-9277369D02*
X3215420Y-9144035D01*
X3215420Y-9163083D02*
X3224943Y-9153559D01*
X3224943Y-9153559D02*
X3243991Y-9144035D01*
X3243991Y-9144035D02*
X3272563Y-9144035D01*
X3272563Y-9144035D02*
X3291610Y-9153559D01*
X3291610Y-9153559D02*
X3301134Y-9172607D01*
X3301134Y-9172607D02*
X3301134Y-9277369D01*
X3301134Y-9172607D02*
X3310658Y-9153559D01*
X3310658Y-9153559D02*
X3329705Y-9144035D01*
X3329705Y-9144035D02*
X3358277Y-9144035D01*
X3358277Y-9144035D02*
X3377324Y-9153559D01*
X3377324Y-9153559D02*
X3386848Y-9172607D01*
X3386848Y-9172607D02*
X3386848Y-9277369D01*
X3482086Y-9277369D02*
X3482086Y-9144035D01*
X3482086Y-9163083D02*
X3491610Y-9153559D01*
X3491610Y-9153559D02*
X3510658Y-9144035D01*
X3510658Y-9144035D02*
X3539229Y-9144035D01*
X3539229Y-9144035D02*
X3558277Y-9153559D01*
X3558277Y-9153559D02*
X3567801Y-9172607D01*
X3567801Y-9172607D02*
X3567801Y-9277369D01*
X3567801Y-9172607D02*
X3577324Y-9153559D01*
X3577324Y-9153559D02*
X3596372Y-9144035D01*
X3596372Y-9144035D02*
X3624943Y-9144035D01*
X3624943Y-9144035D02*
X3643991Y-9153559D01*
X3643991Y-9153559D02*
X3653515Y-9172607D01*
X3653515Y-9172607D02*
X3653515Y-9277369D01*
X4043991Y-9067845D02*
X3872563Y-9324988D01*
X4301134Y-9077369D02*
X4320182Y-9077369D01*
X4320182Y-9077369D02*
X4339229Y-9086893D01*
X4339229Y-9086893D02*
X4348753Y-9096416D01*
X4348753Y-9096416D02*
X4358277Y-9115464D01*
X4358277Y-9115464D02*
X4367801Y-9153559D01*
X4367801Y-9153559D02*
X4367801Y-9201178D01*
X4367801Y-9201178D02*
X4358277Y-9239273D01*
X4358277Y-9239273D02*
X4348753Y-9258321D01*
X4348753Y-9258321D02*
X4339229Y-9267845D01*
X4339229Y-9267845D02*
X4320182Y-9277369D01*
X4320182Y-9277369D02*
X4301134Y-9277369D01*
X4301134Y-9277369D02*
X4282087Y-9267845D01*
X4282087Y-9267845D02*
X4272563Y-9258321D01*
X4272563Y-9258321D02*
X4263039Y-9239273D01*
X4263039Y-9239273D02*
X4253515Y-9201178D01*
X4253515Y-9201178D02*
X4253515Y-9153559D01*
X4253515Y-9153559D02*
X4263039Y-9115464D01*
X4263039Y-9115464D02*
X4272563Y-9096416D01*
X4272563Y-9096416D02*
X4282087Y-9086893D01*
X4282087Y-9086893D02*
X4301134Y-9077369D01*
X4453515Y-9258321D02*
X4463039Y-9267845D01*
X4463039Y-9267845D02*
X4453515Y-9277369D01*
X4453515Y-9277369D02*
X4443991Y-9267845D01*
X4443991Y-9267845D02*
X4453515Y-9258321D01*
X4453515Y-9258321D02*
X4453515Y-9277369D01*
X4586848Y-9077369D02*
X4605896Y-9077369D01*
X4605896Y-9077369D02*
X4624944Y-9086893D01*
X4624944Y-9086893D02*
X4634468Y-9096416D01*
X4634468Y-9096416D02*
X4643991Y-9115464D01*
X4643991Y-9115464D02*
X4653515Y-9153559D01*
X4653515Y-9153559D02*
X4653515Y-9201178D01*
X4653515Y-9201178D02*
X4643991Y-9239273D01*
X4643991Y-9239273D02*
X4634468Y-9258321D01*
X4634468Y-9258321D02*
X4624944Y-9267845D01*
X4624944Y-9267845D02*
X4605896Y-9277369D01*
X4605896Y-9277369D02*
X4586848Y-9277369D01*
X4586848Y-9277369D02*
X4567801Y-9267845D01*
X4567801Y-9267845D02*
X4558277Y-9258321D01*
X4558277Y-9258321D02*
X4548753Y-9239273D01*
X4548753Y-9239273D02*
X4539229Y-9201178D01*
X4539229Y-9201178D02*
X4539229Y-9153559D01*
X4539229Y-9153559D02*
X4548753Y-9115464D01*
X4548753Y-9115464D02*
X4558277Y-9096416D01*
X4558277Y-9096416D02*
X4567801Y-9086893D01*
X4567801Y-9086893D02*
X4586848Y-9077369D01*
X4767801Y-9163083D02*
X4748753Y-9153559D01*
X4748753Y-9153559D02*
X4739229Y-9144035D01*
X4739229Y-9144035D02*
X4729706Y-9124988D01*
X4729706Y-9124988D02*
X4729706Y-9115464D01*
X4729706Y-9115464D02*
X4739229Y-9096416D01*
X4739229Y-9096416D02*
X4748753Y-9086893D01*
X4748753Y-9086893D02*
X4767801Y-9077369D01*
X4767801Y-9077369D02*
X4805896Y-9077369D01*
X4805896Y-9077369D02*
X4824944Y-9086893D01*
X4824944Y-9086893D02*
X4834468Y-9096416D01*
X4834468Y-9096416D02*
X4843991Y-9115464D01*
X4843991Y-9115464D02*
X4843991Y-9124988D01*
X4843991Y-9124988D02*
X4834468Y-9144035D01*
X4834468Y-9144035D02*
X4824944Y-9153559D01*
X4824944Y-9153559D02*
X4805896Y-9163083D01*
X4805896Y-9163083D02*
X4767801Y-9163083D01*
X4767801Y-9163083D02*
X4748753Y-9172607D01*
X4748753Y-9172607D02*
X4739229Y-9182131D01*
X4739229Y-9182131D02*
X4729706Y-9201178D01*
X4729706Y-9201178D02*
X4729706Y-9239273D01*
X4729706Y-9239273D02*
X4739229Y-9258321D01*
X4739229Y-9258321D02*
X4748753Y-9267845D01*
X4748753Y-9267845D02*
X4767801Y-9277369D01*
X4767801Y-9277369D02*
X4805896Y-9277369D01*
X4805896Y-9277369D02*
X4824944Y-9267845D01*
X4824944Y-9267845D02*
X4834468Y-9258321D01*
X4834468Y-9258321D02*
X4843991Y-9239273D01*
X4843991Y-9239273D02*
X4843991Y-9201178D01*
X4843991Y-9201178D02*
X4834468Y-9182131D01*
X4834468Y-9182131D02*
X4824944Y-9172607D01*
X4824944Y-9172607D02*
X4805896Y-9163083D01*
X5015420Y-9077369D02*
X4977325Y-9077369D01*
X4977325Y-9077369D02*
X4958277Y-9086893D01*
X4958277Y-9086893D02*
X4948753Y-9096416D01*
X4948753Y-9096416D02*
X4929706Y-9124988D01*
X4929706Y-9124988D02*
X4920182Y-9163083D01*
X4920182Y-9163083D02*
X4920182Y-9239273D01*
X4920182Y-9239273D02*
X4929706Y-9258321D01*
X4929706Y-9258321D02*
X4939229Y-9267845D01*
X4939229Y-9267845D02*
X4958277Y-9277369D01*
X4958277Y-9277369D02*
X4996372Y-9277369D01*
X4996372Y-9277369D02*
X5015420Y-9267845D01*
X5015420Y-9267845D02*
X5024944Y-9258321D01*
X5024944Y-9258321D02*
X5034468Y-9239273D01*
X5034468Y-9239273D02*
X5034468Y-9191654D01*
X5034468Y-9191654D02*
X5024944Y-9172607D01*
X5024944Y-9172607D02*
X5015420Y-9163083D01*
X5015420Y-9163083D02*
X4996372Y-9153559D01*
X4996372Y-9153559D02*
X4958277Y-9153559D01*
X4958277Y-9153559D02*
X4939229Y-9163083D01*
X4939229Y-9163083D02*
X4929706Y-9172607D01*
X4929706Y-9172607D02*
X4920182Y-9191654D01*
X5205896Y-9077369D02*
X5167801Y-9077369D01*
X5167801Y-9077369D02*
X5148753Y-9086893D01*
X5148753Y-9086893D02*
X5139229Y-9096416D01*
X5139229Y-9096416D02*
X5120182Y-9124988D01*
X5120182Y-9124988D02*
X5110658Y-9163083D01*
X5110658Y-9163083D02*
X5110658Y-9239273D01*
X5110658Y-9239273D02*
X5120182Y-9258321D01*
X5120182Y-9258321D02*
X5129706Y-9267845D01*
X5129706Y-9267845D02*
X5148753Y-9277369D01*
X5148753Y-9277369D02*
X5186849Y-9277369D01*
X5186849Y-9277369D02*
X5205896Y-9267845D01*
X5205896Y-9267845D02*
X5215420Y-9258321D01*
X5215420Y-9258321D02*
X5224944Y-9239273D01*
X5224944Y-9239273D02*
X5224944Y-9191654D01*
X5224944Y-9191654D02*
X5215420Y-9172607D01*
X5215420Y-9172607D02*
X5205896Y-9163083D01*
X5205896Y-9163083D02*
X5186849Y-9153559D01*
X5186849Y-9153559D02*
X5148753Y-9153559D01*
X5148753Y-9153559D02*
X5129706Y-9163083D01*
X5129706Y-9163083D02*
X5120182Y-9172607D01*
X5120182Y-9172607D02*
X5110658Y-9191654D01*
X5301134Y-9077369D02*
X5301134Y-9115464D01*
X5377325Y-9077369D02*
X5377325Y-9115464D01*
X5672563Y-9353559D02*
X5663039Y-9344035D01*
X5663039Y-9344035D02*
X5643991Y-9315464D01*
X5643991Y-9315464D02*
X5634468Y-9296416D01*
X5634468Y-9296416D02*
X5624944Y-9267845D01*
X5624944Y-9267845D02*
X5615420Y-9220226D01*
X5615420Y-9220226D02*
X5615420Y-9182131D01*
X5615420Y-9182131D02*
X5624944Y-9134512D01*
X5624944Y-9134512D02*
X5634468Y-9105940D01*
X5634468Y-9105940D02*
X5643991Y-9086893D01*
X5643991Y-9086893D02*
X5663039Y-9058321D01*
X5663039Y-9058321D02*
X5672563Y-9048797D01*
X5739229Y-9096416D02*
X5748753Y-9086893D01*
X5748753Y-9086893D02*
X5767801Y-9077369D01*
X5767801Y-9077369D02*
X5815420Y-9077369D01*
X5815420Y-9077369D02*
X5834468Y-9086893D01*
X5834468Y-9086893D02*
X5843991Y-9096416D01*
X5843991Y-9096416D02*
X5853515Y-9115464D01*
X5853515Y-9115464D02*
X5853515Y-9134512D01*
X5853515Y-9134512D02*
X5843991Y-9163083D01*
X5843991Y-9163083D02*
X5729706Y-9277369D01*
X5729706Y-9277369D02*
X5853515Y-9277369D01*
X6091610Y-9277369D02*
X6091610Y-9077369D01*
X6177325Y-9277369D02*
X6177325Y-9172607D01*
X6177325Y-9172607D02*
X6167801Y-9153559D01*
X6167801Y-9153559D02*
X6148753Y-9144035D01*
X6148753Y-9144035D02*
X6120182Y-9144035D01*
X6120182Y-9144035D02*
X6101134Y-9153559D01*
X6101134Y-9153559D02*
X6091610Y-9163083D01*
X6301134Y-9277369D02*
X6282087Y-9267845D01*
X6282087Y-9267845D02*
X6272563Y-9258321D01*
X6272563Y-9258321D02*
X6263039Y-9239273D01*
X6263039Y-9239273D02*
X6263039Y-9182131D01*
X6263039Y-9182131D02*
X6272563Y-9163083D01*
X6272563Y-9163083D02*
X6282087Y-9153559D01*
X6282087Y-9153559D02*
X6301134Y-9144035D01*
X6301134Y-9144035D02*
X6329706Y-9144035D01*
X6329706Y-9144035D02*
X6348753Y-9153559D01*
X6348753Y-9153559D02*
X6358277Y-9163083D01*
X6358277Y-9163083D02*
X6367801Y-9182131D01*
X6367801Y-9182131D02*
X6367801Y-9239273D01*
X6367801Y-9239273D02*
X6358277Y-9258321D01*
X6358277Y-9258321D02*
X6348753Y-9267845D01*
X6348753Y-9267845D02*
X6329706Y-9277369D01*
X6329706Y-9277369D02*
X6301134Y-9277369D01*
X6482087Y-9277369D02*
X6463039Y-9267845D01*
X6463039Y-9267845D02*
X6453515Y-9248797D01*
X6453515Y-9248797D02*
X6453515Y-9077369D01*
X6634468Y-9267845D02*
X6615420Y-9277369D01*
X6615420Y-9277369D02*
X6577325Y-9277369D01*
X6577325Y-9277369D02*
X6558277Y-9267845D01*
X6558277Y-9267845D02*
X6548753Y-9248797D01*
X6548753Y-9248797D02*
X6548753Y-9172607D01*
X6548753Y-9172607D02*
X6558277Y-9153559D01*
X6558277Y-9153559D02*
X6577325Y-9144035D01*
X6577325Y-9144035D02*
X6615420Y-9144035D01*
X6615420Y-9144035D02*
X6634468Y-9153559D01*
X6634468Y-9153559D02*
X6643991Y-9172607D01*
X6643991Y-9172607D02*
X6643991Y-9191654D01*
X6643991Y-9191654D02*
X6548753Y-9210702D01*
X6720182Y-9267845D02*
X6739230Y-9277369D01*
X6739230Y-9277369D02*
X6777325Y-9277369D01*
X6777325Y-9277369D02*
X6796372Y-9267845D01*
X6796372Y-9267845D02*
X6805896Y-9248797D01*
X6805896Y-9248797D02*
X6805896Y-9239273D01*
X6805896Y-9239273D02*
X6796372Y-9220226D01*
X6796372Y-9220226D02*
X6777325Y-9210702D01*
X6777325Y-9210702D02*
X6748753Y-9210702D01*
X6748753Y-9210702D02*
X6729706Y-9201178D01*
X6729706Y-9201178D02*
X6720182Y-9182131D01*
X6720182Y-9182131D02*
X6720182Y-9172607D01*
X6720182Y-9172607D02*
X6729706Y-9153559D01*
X6729706Y-9153559D02*
X6748753Y-9144035D01*
X6748753Y-9144035D02*
X6777325Y-9144035D01*
X6777325Y-9144035D02*
X6796372Y-9153559D01*
X6872563Y-9353559D02*
X6882087Y-9344035D01*
X6882087Y-9344035D02*
X6901134Y-9315464D01*
X6901134Y-9315464D02*
X6910658Y-9296416D01*
X6910658Y-9296416D02*
X6920182Y-9267845D01*
X6920182Y-9267845D02*
X6929706Y-9220226D01*
X6929706Y-9220226D02*
X6929706Y-9182131D01*
X6929706Y-9182131D02*
X6920182Y-9134512D01*
X6920182Y-9134512D02*
X6910658Y-9105940D01*
X6910658Y-9105940D02*
X6901134Y-9086893D01*
X6901134Y-9086893D02*
X6882087Y-9058321D01*
X6882087Y-9058321D02*
X6872563Y-9048797D01*
X7234468Y-9353559D02*
X7224944Y-9344035D01*
X7224944Y-9344035D02*
X7205896Y-9315464D01*
X7205896Y-9315464D02*
X7196372Y-9296416D01*
X7196372Y-9296416D02*
X7186849Y-9267845D01*
X7186849Y-9267845D02*
X7177325Y-9220226D01*
X7177325Y-9220226D02*
X7177325Y-9182131D01*
X7177325Y-9182131D02*
X7186849Y-9134512D01*
X7186849Y-9134512D02*
X7196372Y-9105940D01*
X7196372Y-9105940D02*
X7205896Y-9086893D01*
X7205896Y-9086893D02*
X7224944Y-9058321D01*
X7224944Y-9058321D02*
X7234468Y-9048797D01*
X7310658Y-9144035D02*
X7310658Y-9277369D01*
X7310658Y-9163083D02*
X7320182Y-9153559D01*
X7320182Y-9153559D02*
X7339230Y-9144035D01*
X7339230Y-9144035D02*
X7367801Y-9144035D01*
X7367801Y-9144035D02*
X7386849Y-9153559D01*
X7386849Y-9153559D02*
X7396372Y-9172607D01*
X7396372Y-9172607D02*
X7396372Y-9277369D01*
X7520182Y-9277369D02*
X7501134Y-9267845D01*
X7501134Y-9267845D02*
X7491611Y-9258321D01*
X7491611Y-9258321D02*
X7482087Y-9239273D01*
X7482087Y-9239273D02*
X7482087Y-9182131D01*
X7482087Y-9182131D02*
X7491611Y-9163083D01*
X7491611Y-9163083D02*
X7501134Y-9153559D01*
X7501134Y-9153559D02*
X7520182Y-9144035D01*
X7520182Y-9144035D02*
X7548753Y-9144035D01*
X7548753Y-9144035D02*
X7567801Y-9153559D01*
X7567801Y-9153559D02*
X7577325Y-9163083D01*
X7577325Y-9163083D02*
X7586849Y-9182131D01*
X7586849Y-9182131D02*
X7586849Y-9239273D01*
X7586849Y-9239273D02*
X7577325Y-9258321D01*
X7577325Y-9258321D02*
X7567801Y-9267845D01*
X7567801Y-9267845D02*
X7548753Y-9277369D01*
X7548753Y-9277369D02*
X7520182Y-9277369D01*
X7643992Y-9144035D02*
X7720182Y-9144035D01*
X7672563Y-9077369D02*
X7672563Y-9248797D01*
X7672563Y-9248797D02*
X7682087Y-9267845D01*
X7682087Y-9267845D02*
X7701134Y-9277369D01*
X7701134Y-9277369D02*
X7720182Y-9277369D01*
X7939230Y-9144035D02*
X7939230Y-9344035D01*
X7939230Y-9153559D02*
X7958277Y-9144035D01*
X7958277Y-9144035D02*
X7996373Y-9144035D01*
X7996373Y-9144035D02*
X8015420Y-9153559D01*
X8015420Y-9153559D02*
X8024944Y-9163083D01*
X8024944Y-9163083D02*
X8034468Y-9182131D01*
X8034468Y-9182131D02*
X8034468Y-9239273D01*
X8034468Y-9239273D02*
X8024944Y-9258321D01*
X8024944Y-9258321D02*
X8015420Y-9267845D01*
X8015420Y-9267845D02*
X7996373Y-9277369D01*
X7996373Y-9277369D02*
X7958277Y-9277369D01*
X7958277Y-9277369D02*
X7939230Y-9267845D01*
X8148753Y-9277369D02*
X8129706Y-9267845D01*
X8129706Y-9267845D02*
X8120182Y-9248797D01*
X8120182Y-9248797D02*
X8120182Y-9077369D01*
X8310658Y-9277369D02*
X8310658Y-9172607D01*
X8310658Y-9172607D02*
X8301134Y-9153559D01*
X8301134Y-9153559D02*
X8282087Y-9144035D01*
X8282087Y-9144035D02*
X8243992Y-9144035D01*
X8243992Y-9144035D02*
X8224944Y-9153559D01*
X8310658Y-9267845D02*
X8291611Y-9277369D01*
X8291611Y-9277369D02*
X8243992Y-9277369D01*
X8243992Y-9277369D02*
X8224944Y-9267845D01*
X8224944Y-9267845D02*
X8215420Y-9248797D01*
X8215420Y-9248797D02*
X8215420Y-9229750D01*
X8215420Y-9229750D02*
X8224944Y-9210702D01*
X8224944Y-9210702D02*
X8243992Y-9201178D01*
X8243992Y-9201178D02*
X8291611Y-9201178D01*
X8291611Y-9201178D02*
X8310658Y-9191654D01*
X8377325Y-9144035D02*
X8453515Y-9144035D01*
X8405896Y-9077369D02*
X8405896Y-9248797D01*
X8405896Y-9248797D02*
X8415420Y-9267845D01*
X8415420Y-9267845D02*
X8434468Y-9277369D01*
X8434468Y-9277369D02*
X8453515Y-9277369D01*
X8596373Y-9267845D02*
X8577325Y-9277369D01*
X8577325Y-9277369D02*
X8539230Y-9277369D01*
X8539230Y-9277369D02*
X8520182Y-9267845D01*
X8520182Y-9267845D02*
X8510658Y-9248797D01*
X8510658Y-9248797D02*
X8510658Y-9172607D01*
X8510658Y-9172607D02*
X8520182Y-9153559D01*
X8520182Y-9153559D02*
X8539230Y-9144035D01*
X8539230Y-9144035D02*
X8577325Y-9144035D01*
X8577325Y-9144035D02*
X8596373Y-9153559D01*
X8596373Y-9153559D02*
X8605896Y-9172607D01*
X8605896Y-9172607D02*
X8605896Y-9191654D01*
X8605896Y-9191654D02*
X8510658Y-9210702D01*
X8777325Y-9277369D02*
X8777325Y-9077369D01*
X8777325Y-9267845D02*
X8758277Y-9277369D01*
X8758277Y-9277369D02*
X8720182Y-9277369D01*
X8720182Y-9277369D02*
X8701135Y-9267845D01*
X8701135Y-9267845D02*
X8691611Y-9258321D01*
X8691611Y-9258321D02*
X8682087Y-9239273D01*
X8682087Y-9239273D02*
X8682087Y-9182131D01*
X8682087Y-9182131D02*
X8691611Y-9163083D01*
X8691611Y-9163083D02*
X8701135Y-9153559D01*
X8701135Y-9153559D02*
X8720182Y-9144035D01*
X8720182Y-9144035D02*
X8758277Y-9144035D01*
X8758277Y-9144035D02*
X8777325Y-9153559D01*
X8853516Y-9353559D02*
X8863039Y-9344035D01*
X8863039Y-9344035D02*
X8882087Y-9315464D01*
X8882087Y-9315464D02*
X8891611Y-9296416D01*
X8891611Y-9296416D02*
X8901135Y-9267845D01*
X8901135Y-9267845D02*
X8910658Y-9220226D01*
X8910658Y-9220226D02*
X8910658Y-9182131D01*
X8910658Y-9182131D02*
X8901135Y-9134512D01*
X8901135Y-9134512D02*
X8891611Y-9105940D01*
X8891611Y-9105940D02*
X8882087Y-9086893D01*
X8882087Y-9086893D02*
X8863039Y-9058321D01*
X8863039Y-9058321D02*
X8853516Y-9048797D01*
M02*
