M48
; DRILL file KiCad 10.0.6 date 2026-10-05T01:23:28
; FORMAT={-:-/ absolute / metric / decimal}
; #@! TF.CreationDate,2026-10-05T01:23:28+02:00
; #@! TF.GenerationSoftware,Kicad,Pcbnew,10.0.6
; #@! TF.FileFunction,Plated,1,4,PTH
FMAT,2
METRIC
; #@! TA.AperFunction,Plated,PTH,ViaDrill
T1C0.200
; #@! TA.AperFunction,Plated,PTH,ComponentDrill
T2C0.200
; #@! TA.AperFunction,Plated,PTH,ViaDrill
T3C0.300
; #@! TA.AperFunction,Plated,PTH,ComponentDrill
T4C0.300
; #@! TA.AperFunction,Plated,PTH,ComponentDrill
T5C0.600
%
G90
G05
T1
X31.9Y-43.1
X34.9Y-65.2
X37.1Y-68.8
X37.85Y-37.15
X38.55Y-36.65
X38.55Y-37.65
X38.8Y-62.32
X39.05Y-50.25
X39.05Y-51.25
X39.05Y-52.25
X39.5Y-63.59
X39.7Y-50.75
X39.7Y-51.75
X39.7Y-57.24
X39.9Y-64.86
X39.9Y-66.13
X39.9Y-67.4
X40.1Y-33.07
X41.75Y-34.55
X41.75Y-53.45
X42.4Y-54.7
X42.4Y-55.97
X42.55Y-38.9
X43.45Y-29.02
X43.45Y-37.15
X43.54Y-32.15
X44.15Y-36.65
X44.15Y-37.65
X49.5Y-33.4
X49.75Y-29.25
X50.75Y-29.25
X51.2Y-30.6
X51.905Y-52.0
X52.7Y-55.0
X53.25Y-39.35
X53.45Y-55.0
X54.445Y-52.0
X56.985Y-52.0
X57.1Y-47.3
X57.25Y-39.25
X57.4Y-49.0
X58.1Y-41.24
X60.25Y-59.78
X60.25Y-62.32
X60.25Y-64.86
X60.25Y-68.67
X60.95Y-61.05
X60.95Y-63.59
X61.2Y-53.76
X61.6Y-31.73
X66.9Y-66.33
X67.3Y-35.9
X67.3Y-36.75
X68.2Y-60.5
X71.4Y-66.7
X73.72Y-64.15
T2
X32.635Y-53.635
X32.635Y-54.365
X33.365Y-53.635
X33.365Y-54.365
X40.525Y-36.425
X40.525Y-37.375
X41.475Y-36.425
X41.475Y-37.375
X47.1Y-62.79
X47.1Y-64.19
X47.8Y-62.09
X47.8Y-63.49
X47.8Y-64.89
X48.5Y-62.79
X48.5Y-64.19
X49.2Y-62.09
X49.2Y-63.49
X49.2Y-64.89
X49.9Y-62.79
X49.9Y-64.19
X58.82Y-37.635
X58.82Y-38.815
X60.0Y-37.635
X60.0Y-38.815
T3
X27.155Y-56.387
X28.8Y-57.4
X29.679Y-54.351
X31.2Y-55.35
X32.2Y-41.2
X33.0Y-58.9
X33.15Y-56.767
X33.5Y-51.65
X33.55Y-63.8
X33.663Y-38.47
X34.062Y-42.6
X34.062Y-43.55
X34.15Y-35.8
X34.25Y-60.0
X34.5Y-37.9
X34.5Y-44.75
X34.7Y-58.92
X34.825Y-70.15
X34.9Y-60.9
X35.263Y-38.23
X35.3Y-49.85
X35.5Y-56.25
X36.05Y-40.15
X36.1Y-47.75
X36.163Y-34.69
X36.259Y-27.677
X36.51Y-33.44
X37.0Y-49.75
X37.1Y-52.75
X37.2Y-67.82
X37.54Y-38.57
X37.55Y-27.9
X37.6Y-71.0
X37.834Y-32.033
X38.0Y-55.25
X38.259Y-30.527
X38.97Y-30.16
X39.01Y-33.54
X39.35Y-39.8
X40.3Y-41.84
X40.5Y-53.69
X40.762Y-45.45
X40.95Y-43.7
X41.55Y-42.25
X41.8Y-47.2
X42.1Y-39.8
X42.26Y-30.531
X42.4Y-24.8
X43.8Y-48.95
X44.56Y-33.68
X45.0Y-41.6
X45.275Y-39.825
X45.62Y-35.45
X46.3Y-38.35
X47.55Y-29.45
X47.7Y-37.15
X48.0Y-44.6
X48.2Y-36.5
X48.89Y-37.35
X49.65Y-37.0
X49.66Y-40.55
X49.8Y-55.1
X50.43Y-37.35
X50.5Y-45.0
X50.82Y-59.25
X51.1Y-56.25
X51.4Y-42.91
X52.5Y-42.91
X53.52Y-59.25
X54.45Y-48.1
X54.5Y-32.5
X54.6Y-49.35
X55.1Y-42.8
X56.2Y-59.25
X56.4Y-34.5
X56.4Y-39.775
X56.6Y-36.9
X56.63Y-27.7
X56.79Y-38.225
X57.1Y-30.5
X57.1Y-31.25
X57.2Y-44.3
X57.3Y-28.5
X57.8Y-31.75
X58.119Y-27.802
X58.25Y-53.75
X58.314Y-30.836
X58.8Y-45.55
X59.034Y-32.201
X59.419Y-29.462
X59.5Y-48.6
X59.6Y-26.4
X59.62Y-34.25
X60.25Y-40.79
X60.4Y-28.5
X60.4Y-51.84
X61.65Y-56.5
X61.89Y-34.0
X61.95Y-37.025
X62.0Y-30.7
X62.1Y-32.5
X62.15Y-27.817
X62.35Y-40.55
X62.6Y-52.92
X62.838Y-54.816
X62.95Y-29.05
X63.06Y-36.86
X63.6Y-68.87
X64.55Y-59.1
X64.79Y-32.4
X65.049Y-34.414
X65.049Y-37.186
X66.65Y-55.6
X66.65Y-56.45
X66.9Y-67.6
X67.15Y-70.7
X67.35Y-60.25
X67.51Y-56.296
X68.8Y-68.817
X69.151Y-67.512
X69.363Y-54.393
X69.7Y-43.0
X70.26Y-45.8
X71.072Y-61.121
X71.2Y-44.285
X72.07Y-63.86
X72.154Y-60.343
X72.347Y-66.876
X72.458Y-57.552
X72.67Y-45.55
X72.67Y-51.6
X72.845Y-43.613
X72.851Y-65.712
X73.3Y-55.3
X74.372Y-63.321
T4
X22.5Y-50.0
X23.655Y-42.113
X23.655Y-57.887
X76.345Y-42.113
X76.345Y-57.887
X77.5Y-50.0
T5
X45.68Y-22.7G85X45.68Y-23.3
G05
X45.68Y-26.63G85X45.68Y-27.73
G05
X54.32Y-22.7G85X54.32Y-23.3
G05
X54.32Y-26.63G85X54.32Y-27.73
G05
M30
