M48
; DRILL file KiCad 10.0.6 date 2026-10-06T18:19:45
; FORMAT={-:-/ absolute / metric / decimal}
; #@! TF.CreationDate,2026-10-06T18:19:45+02:00
; #@! TF.GenerationSoftware,Kicad,Pcbnew,10.0.6
; #@! TF.FileFunction,Plated,1,4,PTH
FMAT,2
METRIC
; #@! TA.AperFunction,Plated,PTH,ViaDrill
T1C0.200
; #@! TA.AperFunction,Plated,PTH,ComponentDrill
T2C0.200
; #@! TA.AperFunction,Plated,PTH,ViaDrill
T3C0.300
; #@! TA.AperFunction,Plated,PTH,ComponentDrill
T4C0.600
%
G90
G05
T1
X33.4Y-40.55
X34.6Y-64.6
X35.5Y-43.6
X37.6Y-53.25
X37.7Y-49.75
X37.7Y-66.0
X39.7Y-52.25
X40.7Y-67.2
X40.95Y-51.25
X41.0Y-60.2
X41.0Y-61.9
X41.0Y-65.3
X41.8Y-61.05
X41.8Y-63.6
X41.9Y-68.7
X42.12Y-39.25
X43.59Y-29.28
X43.68Y-32.41
X45.4Y-45.65
X45.75Y-53.6
X45.75Y-57.25
X46.6Y-57.25
X47.45Y-57.25
X48.3Y-57.25
X49.15Y-30.2
X49.15Y-57.25
X49.5Y-33.4
X49.75Y-29.25
X50.0Y-57.25
X50.75Y-29.25
X50.85Y-56.45
X52.45Y-54.6
X53.6Y-54.6
X55.1Y-57.25
X55.5Y-45.4
X56.05Y-37.65
X56.81Y-41.3
X58.2Y-48.4
X58.2Y-59.35
X58.2Y-64.45
X58.31Y-36.0
X59.0Y-61.9
X59.0Y-63.6
X59.0Y-65.3
X59.185Y-37.8
X59.53Y-32.45
X59.635Y-37.8
X60.0Y-62.0
X62.3Y-67.87
X62.61Y-36.25
X65.45Y-36.2
X66.1Y-35.2
X71.4Y-66.7
X73.72Y-64.15
T2
X35.235Y-40.935
X35.235Y-41.665
X35.965Y-40.935
X35.965Y-41.665
T3
X22.438Y-51.444
X22.485Y-47.835
X22.862Y-55.03
X23.003Y-44.262
X23.751Y-58.529
X23.983Y-40.787
X25.089Y-61.882
X26.853Y-65.032
X27.671Y-33.777
X29.013Y-67.925
X29.98Y-31.001
X30.0Y-61.2
X31.532Y-70.511
X31.62Y-58.75
X32.3Y-63.45
X33.05Y-41.75
X33.1Y-37.1
X33.5Y-44.087
X33.55Y-63.8
X33.6Y-60.15
X34.15Y-55.9
X34.25Y-58.75
X34.367Y-72.746
X34.75Y-57.8
X34.95Y-54.6
X34.95Y-59.45
X36.1Y-39.15
X36.35Y-43.75
X36.35Y-56.25
X36.4Y-27.941
X36.651Y-33.704
X36.675Y-36.6
X37.1Y-46.0
X37.12Y-54.75
X37.55Y-27.9
X37.659Y-48.722
X37.75Y-57.0
X37.802Y-51.222
X37.85Y-47.75
X37.975Y-32.297
X38.15Y-62.2
X38.25Y-60.25
X38.4Y-30.791
X38.9Y-60.9
X38.9Y-69.55
X39.111Y-30.424
X39.151Y-33.804
X39.8Y-53.4
X39.958Y-49.878
X40.05Y-57.65
X40.062Y-42.4
X40.15Y-55.05
X40.3Y-65.9
X40.7Y-69.55
X40.88Y-49.1
X40.9Y-71.1
X41.0Y-63.65
X42.0Y-71.25
X42.11Y-55.3
X42.4Y-24.8
X42.401Y-30.795
X42.5Y-42.2
X42.737Y-48.1
X43.0Y-57.3
X43.04Y-56.45
X43.07Y-52.9
X43.8Y-45.6
X43.9Y-52.6
X44.22Y-61.468
X44.7Y-32.8
X44.9Y-57.4
X44.93Y-53.85
X45.0Y-39.4
X45.1Y-51.85
X45.2Y-42.02
X46.264Y-44.606
X46.9Y-50.85
X47.0Y-41.1
X47.55Y-29.45
X47.69Y-59.4
X48.25Y-54.12
X48.45Y-50.2
X48.8Y-51.2
X50.0Y-22.4
X50.0Y-70.0
X50.5Y-52.6
X50.82Y-59.25
X50.85Y-53.87
X50.9Y-36.725
X50.9Y-37.8
X51.9Y-34.175
X52.45Y-52.4
X53.1Y-50.85
X53.2Y-31.8
X53.3Y-36.35
X53.3Y-42.25
X53.4Y-44.55
X53.52Y-59.25
X53.95Y-53.05
X54.89Y-40.4
X55.0Y-35.15
X55.05Y-37.5
X55.25Y-53.85
X55.323Y-60.1
X55.9Y-55.2
X56.0Y-42.7
X56.05Y-36.15
X56.1Y-29.3
X56.1Y-31.75
X56.627Y-27.7
X56.65Y-52.4
X56.75Y-42.1
X57.35Y-29.737
X57.4Y-32.15
X57.674Y-41.816
X58.0Y-58.3
X58.0Y-68.7
X58.4Y-53.85
X58.8Y-34.65
X58.8Y-45.15
X59.0Y-42.1
X59.0Y-71.25
X59.05Y-56.45
X59.41Y-36.925
X59.41Y-69.1
X59.6Y-26.4
X60.0Y-34.8
X60.0Y-49.0
X60.45Y-36.6
X61.55Y-59.55
X61.6Y-40.475
X61.6Y-41.275
X61.68Y-71.25
X61.95Y-63.0
X62.0Y-30.7
X62.15Y-27.817
X62.2Y-61.65
X62.4Y-39.8
X62.4Y-40.6
X62.712Y-33.8
X62.75Y-66.6
X63.0Y-62.0
X63.01Y-42.025
X63.2Y-40.88
X63.3Y-56.7
X63.8Y-26.098
X64.3Y-61.7
X64.75Y-56.25
X65.0Y-37.45
X65.175Y-32.1
X65.45Y-40.2
X65.633Y-72.746
X66.0Y-57.5
X66.31Y-38.225
X66.31Y-55.11
X66.65Y-66.1
X67.3Y-55.9
X67.85Y-50.03
X67.925Y-29.013
X68.468Y-70.511
X68.517Y-63.421
X69.5Y-64.55
X69.5Y-66.032
X70.004Y-60.896
X70.1Y-66.7
X70.26Y-45.8
X70.3Y-53.7
X70.377Y-64.321
X70.511Y-31.532
X71.2Y-44.285
X72.07Y-63.86
X72.6Y-50.73
X72.746Y-34.367
X72.764Y-60.896
X73.112Y-64.652
X74.372Y-63.321
X74.592Y-37.47
X75.375Y-46.1
X76.017Y-40.787
X76.249Y-58.529
X76.997Y-44.262
X77.138Y-55.03
X77.515Y-47.835
X77.562Y-51.444
T4
X45.68Y-22.7G85X45.68Y-23.3
G05
X45.68Y-26.63G85X45.68Y-27.73
G05
X54.32Y-22.7G85X54.32Y-23.3
G05
X54.32Y-26.63G85X54.32Y-27.73
G05
M30
