M48
; DRILL file KiCad 10.0.6 date 2026-10-05T07:36:55
; FORMAT={-:-/ absolute / metric / decimal}
; #@! TF.CreationDate,2026-10-05T07:36:55+02:00
; #@! TF.GenerationSoftware,Kicad,Pcbnew,10.0.6
; #@! TF.FileFunction,Plated,1,4,PTH
FMAT,2
METRIC
; #@! TA.AperFunction,Plated,PTH,ViaDrill
T1C0.200
; #@! TA.AperFunction,Plated,PTH,ComponentDrill
T2C0.200
; #@! TA.AperFunction,Plated,PTH,ViaDrill
T3C0.300
; #@! TA.AperFunction,Plated,PTH,ComponentDrill
T4C0.300
; #@! TA.AperFunction,Plated,PTH,ComponentDrill
T5C0.600
%
G90
G05
T1
X29.1Y-42.1
X33.4Y-40.55
X34.9Y-65.2
X36.1Y-39.15
X37.1Y-68.8
X37.6Y-53.25
X37.7Y-47.75
X37.7Y-49.75
X37.7Y-54.25
X37.85Y-36.15
X37.85Y-37.15
X38.55Y-36.65
X38.8Y-62.32
X39.5Y-63.59
X39.7Y-57.24
X39.9Y-64.86
X39.9Y-66.13
X39.9Y-67.4
X40.1Y-48.1
X40.24Y-33.33
X40.25Y-34.55
X40.94Y-32.96
X41.1Y-45.238
X41.75Y-34.55
X41.75Y-53.45
X42.4Y-54.7
X42.4Y-55.97
X42.55Y-38.9
X43.45Y-36.15
X43.45Y-37.15
X43.59Y-29.28
X44.15Y-37.65
X49.5Y-33.4
X49.75Y-29.25
X50.75Y-29.25
X51.2Y-30.6
X51.905Y-52.0
X52.2Y-44.25
X53.25Y-39.35
X53.45Y-55.0
X54.445Y-52.0
X54.8Y-48.5
X55.715Y-52.0
X57.05Y-37.55
X57.05Y-38.45
X57.1Y-47.3
X57.4Y-49.0
X58.4Y-34.1
X58.8Y-49.3
X59.53Y-32.45
X59.9Y-34.6
X60.15Y-35.81
X60.25Y-59.78
X60.25Y-62.32
X60.25Y-64.86
X60.25Y-68.67
X60.95Y-61.05
X61.2Y-53.76
X61.85Y-31.71
X62.65Y-69.6
X65.45Y-36.2
X66.1Y-35.2
X66.9Y-66.33
X71.4Y-66.7
X73.35Y-56.75
X73.72Y-64.15
T2
X35.235Y-40.935
X35.235Y-41.665
X35.965Y-40.935
X35.965Y-41.665
X40.525Y-36.425
X40.525Y-37.375
X41.475Y-36.425
X41.475Y-37.375
X47.1Y-62.79
X47.1Y-64.19
X47.8Y-62.09
X47.8Y-63.49
X47.8Y-64.89
X48.5Y-62.79
X48.5Y-64.19
X49.2Y-62.09
X49.2Y-63.49
X49.2Y-64.89
X49.9Y-62.79
X49.9Y-64.19
X58.82Y-37.635
X58.82Y-38.815
X60.0Y-37.635
X60.0Y-38.815
T3
X27.6Y-60.1
X30.3Y-38.8
X31.0Y-57.3
X32.8Y-37.15
X33.0Y-58.9
X33.55Y-63.8
X34.25Y-60.0
X34.8Y-58.0
X34.825Y-70.15
X34.9Y-60.9
X35.2Y-35.82
X35.6Y-58.02
X36.35Y-43.75
X36.382Y-35.893
X36.4Y-27.941
X36.651Y-33.704
X36.92Y-37.15
X37.2Y-67.82
X37.55Y-27.9
X37.6Y-71.0
X37.75Y-34.25
X37.975Y-32.297
X38.262Y-33.53
X38.4Y-30.791
X39.111Y-30.424
X39.151Y-35.304
X40.05Y-46.637
X40.08Y-53.1
X41.05Y-44.278
X41.7Y-42.3
X42.1Y-39.8
X42.4Y-24.8
X42.401Y-30.795
X43.75Y-46.637
X43.75Y-48.562
X44.7Y-32.8
X45.62Y-35.45
X46.0Y-34.7
X46.0Y-54.75
X46.15Y-38.5
X46.9Y-39.4
X47.55Y-29.45
X47.7Y-37.15
X48.25Y-44.85
X48.89Y-37.35
X49.66Y-40.55
X49.677Y-46.7
X50.43Y-37.35
X50.5Y-42.01
X50.82Y-59.25
X51.1Y-56.25
X51.55Y-50.45
X51.793Y-42.717
X53.2Y-31.8
X53.52Y-59.25
X53.9Y-44.18
X54.0Y-42.8
X54.6Y-49.35
X54.75Y-44.8
X55.0Y-50.3
X55.25Y-36.625
X55.3Y-34.82
X56.1Y-29.3
X56.1Y-31.75
X56.2Y-59.25
X56.63Y-27.7
X56.75Y-33.45
X57.2Y-44.3
X57.5Y-54.7
X57.6Y-36.55
X58.203Y-31.282
X58.65Y-28.438
X58.66Y-42.5
X58.8Y-45.55
X59.569Y-30.061
X59.6Y-26.4
X60.15Y-46.15
X60.2Y-33.9
X60.4Y-51.84
X60.421Y-42.681
X60.95Y-36.2
X61.338Y-62.61
X61.35Y-26.7
X61.45Y-65.5
X62.0Y-30.7
X62.0Y-56.4
X62.05Y-68.1
X62.076Y-34.064
X62.15Y-27.817
X62.15Y-42.0
X62.3Y-59.3
X62.6Y-52.92
X62.875Y-37.15
X63.27Y-55.57
X63.6Y-68.87
X63.65Y-37.15
X63.65Y-54.85
X63.988Y-33.5
X65.175Y-32.1
X65.375Y-38.22
X66.25Y-56.2
X66.6Y-69.5
X66.9Y-67.6
X67.15Y-52.85
X67.35Y-64.4
X67.85Y-50.03
X68.517Y-63.421
X69.485Y-56.665
X69.5Y-66.032
X69.7Y-42.975
X70.004Y-60.896
X70.26Y-45.8
X71.2Y-44.285
X71.25Y-62.55
X71.55Y-52.617
X71.95Y-35.45
X72.07Y-63.86
X72.35Y-51.9
X72.5Y-60.26
X72.798Y-41.198
X72.851Y-65.712
X73.25Y-41.9
X73.3Y-57.62
X73.55Y-54.4
X74.372Y-63.321
X74.375Y-45.1
T4
X24.502Y-39.698
X24.502Y-60.302
X75.498Y-39.698
X75.498Y-60.302
T5
X45.68Y-22.7G85X45.68Y-23.3
G05
X45.68Y-26.63G85X45.68Y-27.73
G05
X54.32Y-22.7G85X54.32Y-23.3
G05
X54.32Y-26.63G85X54.32Y-27.73
G05
M30
