M48
; DRILL file KiCad 10.0.6 date 2026-10-05T17:48:45
; FORMAT={-:-/ absolute / metric / decimal}
; #@! TF.CreationDate,2026-10-05T17:48:45+02:00
; #@! TF.GenerationSoftware,Kicad,Pcbnew,10.0.6
; #@! TF.FileFunction,Plated,1,4,PTH
FMAT,2
METRIC
; #@! TA.AperFunction,Plated,PTH,ViaDrill
T1C0.200
; #@! TA.AperFunction,Plated,PTH,ComponentDrill
T2C0.200
; #@! TA.AperFunction,Plated,PTH,ViaDrill
T3C0.300
; #@! TA.AperFunction,Plated,PTH,ComponentDrill
T4C0.300
; #@! TA.AperFunction,Plated,PTH,ComponentDrill
T5C0.600
%
G90
G05
T1
X29.1Y-42.1
X33.4Y-40.55
X37.1Y-67.55
X37.6Y-53.25
X37.7Y-47.75
X37.7Y-49.75
X37.7Y-54.25
X37.85Y-36.15
X37.85Y-37.15
X38.55Y-36.65
X38.8Y-61.07
X39.5Y-62.34
X39.7Y-55.99
X39.9Y-63.61
X39.9Y-64.88
X39.9Y-66.15
X40.1Y-48.1
X40.24Y-33.33
X40.25Y-34.55
X41.1Y-43.988
X41.75Y-34.55
X41.75Y-52.2
X42.4Y-53.45
X42.4Y-54.72
X43.45Y-37.15
X43.59Y-29.28
X43.68Y-32.41
X44.15Y-37.65
X49.5Y-33.4
X49.75Y-29.25
X50.75Y-29.25
X51.2Y-30.6
X51.905Y-50.75
X52.2Y-44.25
X52.7Y-55.0
X53.175Y-50.75
X53.25Y-39.35
X53.45Y-55.0
X54.445Y-50.75
X54.45Y-47.4
X55.5Y-45.4
X55.715Y-50.75
X56.985Y-50.75
X58.4Y-34.1
X59.53Y-32.45
X59.9Y-34.6
X60.15Y-35.81
X60.25Y-58.53
X60.25Y-61.07
X60.25Y-63.61
X60.25Y-67.42
X60.6Y-53.45
X60.95Y-59.8
X61.85Y-31.71
X62.65Y-68.35
X65.45Y-36.2
X66.1Y-35.2
X66.9Y-65.08
X71.4Y-66.7
X73.72Y-64.15
T2
X35.235Y-40.935
X35.235Y-41.665
X35.965Y-40.935
X35.965Y-41.665
X40.525Y-36.425
X40.525Y-37.375
X41.475Y-36.425
X41.475Y-37.375
X47.1Y-61.54
X47.1Y-62.94
X47.8Y-60.84
X47.8Y-62.24
X47.8Y-63.64
X48.5Y-61.54
X48.5Y-62.94
X49.2Y-60.84
X49.2Y-62.24
X49.2Y-63.64
X49.9Y-61.54
X49.9Y-62.94
X58.82Y-37.635
X58.82Y-38.815
X60.0Y-37.635
X60.0Y-38.815
T3
X27.0Y-48.0
X27.254Y-65.633
X27.6Y-60.1
X27.671Y-33.777
X29.489Y-68.468
X30.3Y-38.8
X31.0Y-57.3
X32.075Y-70.987
X33.0Y-57.65
X33.55Y-63.8
X34.25Y-58.75
X34.7Y-57.67
X34.825Y-68.9
X35.2Y-35.82
X35.579Y-26.467
X36.1Y-39.15
X36.35Y-43.75
X36.382Y-35.893
X36.4Y-27.941
X36.651Y-33.704
X36.8Y-62.8
X36.92Y-37.15
X37.183Y-59.097
X37.31Y-65.58
X37.55Y-27.9
X37.6Y-69.75
X37.92Y-55.09
X37.975Y-32.297
X38.262Y-33.53
X38.35Y-34.95
X38.4Y-30.791
X38.85Y-68.69
X39.111Y-30.424
X39.151Y-35.304
X39.614Y-39.164
X39.8Y-57.9
X39.816Y-53.736
X40.05Y-45.387
X40.6Y-29.45
X40.7Y-42.25
X41.05Y-43.028
X41.601Y-48.161
X42.0Y-32.35
X42.1Y-39.8
X42.4Y-24.8
X42.401Y-30.795
X43.75Y-45.387
X43.75Y-47.312
X43.8Y-53.5
X44.0Y-70.0
X44.4Y-42.15
X44.7Y-32.8
X44.85Y-34.8
X45.45Y-32.05
X45.62Y-35.45
X47.1Y-37.95
X47.15Y-33.2
X47.55Y-29.45
X47.7Y-37.15
X48.89Y-37.35
X49.66Y-40.55
X49.75Y-53.8
X50.0Y-22.4
X50.43Y-37.35
X50.5Y-42.01
X50.82Y-59.25
X51.1Y-56.25
X51.793Y-42.717
X53.0Y-69.0
X53.2Y-31.8
X53.52Y-59.25
X53.9Y-44.18
X54.0Y-42.8
X54.6Y-49.35
X54.7Y-48.5
X55.25Y-36.625
X56.0Y-42.7
X56.1Y-29.3
X56.1Y-31.75
X56.2Y-59.25
X56.627Y-27.7
X57.05Y-37.55
X57.05Y-38.45
X57.75Y-27.15
X58.05Y-52.2
X58.203Y-31.282
X58.65Y-28.438
X58.66Y-42.5
X58.8Y-45.15
X58.85Y-50.75
X59.1Y-48.55
X59.569Y-30.061
X59.6Y-26.4
X59.6Y-51.49
X60.1Y-69.41
X60.5Y-34.0
X60.6Y-42.21
X61.7Y-53.02
X62.0Y-30.7
X62.0Y-66.8
X62.076Y-34.064
X62.1Y-41.55
X62.15Y-27.817
X62.35Y-55.45
X62.45Y-53.35
X62.45Y-61.4
X62.875Y-37.15
X63.27Y-54.32
X63.4Y-56.6
X63.6Y-67.62
X63.65Y-37.15
X63.8Y-26.098
X63.85Y-29.95
X63.988Y-33.5
X64.65Y-62.55
X64.688Y-34.0
X65.05Y-36.9
X65.175Y-32.1
X65.375Y-38.22
X65.65Y-70.2
X65.85Y-59.2
X66.9Y-66.35
X67.85Y-50.03
X68.05Y-40.3
X68.4Y-64.4
X68.468Y-70.511
X68.517Y-63.421
X69.485Y-56.665
X69.5Y-66.032
X69.7Y-42.975
X70.004Y-60.896
X70.26Y-45.8
X70.377Y-64.321
X70.65Y-66.65
X71.2Y-44.285
X71.25Y-61.75
X72.07Y-63.86
X72.2Y-53.35
X72.35Y-51.9
X72.5Y-60.26
X72.746Y-34.367
X72.798Y-41.198
X73.112Y-64.652
X73.25Y-41.95
X73.3Y-57.62
X73.6Y-54.4
X74.372Y-63.321
X74.375Y-45.1
T4
X24.502Y-39.698
X24.502Y-60.302
X75.498Y-39.698
X75.498Y-60.302
T5
X45.68Y-22.7G85X45.68Y-23.3
G05
X45.68Y-26.63G85X45.68Y-27.73
G05
X54.32Y-22.7G85X54.32Y-23.3
G05
X54.32Y-26.63G85X54.32Y-27.73
G05
M30
