M48
; DRILL file KiCad 10.0.6 date 2026-10-04T10:06:22
; FORMAT={-:-/ absolute / metric / decimal}
; #@! TF.CreationDate,2026-10-04T10:06:22+02:00
; #@! TF.GenerationSoftware,Kicad,Pcbnew,10.0.6
; #@! TF.FileFunction,Plated,1,6,PTH
FMAT,2
METRIC
; #@! TA.AperFunction,Plated,PTH,ViaDrill
T1C0.200
; #@! TA.AperFunction,Plated,PTH,ComponentDrill
T2C0.200
; #@! TA.AperFunction,Plated,PTH,ViaDrill
T3C0.300
; #@! TA.AperFunction,Plated,PTH,ComponentDrill
T4C0.300
; #@! TA.AperFunction,Plated,PTH,ComponentDrill
T5C0.600
%
G90
G05
T1
X33.8Y-60.1
X35.1Y-61.8
X36.44Y-54.8
X39.6Y-56.8
X40.1Y-69.95
X40.6Y-46.15
X40.6Y-53.7
X41.15Y-36.45
X41.95Y-36.95
X41.95Y-37.95
X42.4Y-56.0
X43.75Y-34.75
X44.285Y-54.75
X44.5Y-40.15
X44.75Y-34.75
X45.6Y-34.75
X46.25Y-57.62
X46.25Y-58.58
X47.05Y-36.45
X47.05Y-37.45
X47.85Y-37.95
X48.9Y-33.4
X49.2Y-60.6
X49.25Y-29.25
X49.9Y-34.0
X50.25Y-29.25
X50.75Y-30.55
X51.0Y-56.8
X51.52Y-61.55
X53.175Y-52.1
X53.25Y-39.35
X54.445Y-54.75
X57.6Y-58.51
X57.6Y-68.67
X58.45Y-41.75
X59.42Y-29.4
X60.35Y-61.05
X60.35Y-62.32
X60.35Y-63.59
X60.35Y-64.86
X61.51Y-53.75
X62.23Y-67.35
X62.23Y-70.55
X63.5Y-70.55
X64.77Y-70.55
X66.0Y-34.4
X69.0Y-56.3
X71.45Y-61.95
X72.2Y-64.8
X72.73Y-60.35
T2
X34.635Y-50.635
X34.635Y-51.365
X35.365Y-50.635
X35.365Y-51.365
X44.025Y-36.725
X44.025Y-37.675
X44.975Y-36.725
X44.975Y-37.675
X47.1Y-62.79
X47.1Y-64.19
X47.8Y-62.09
X47.8Y-63.49
X47.8Y-64.89
X48.5Y-62.79
X48.5Y-64.19
X49.2Y-62.09
X49.2Y-63.49
X49.2Y-64.89
X49.9Y-62.79
X49.9Y-64.19
X58.82Y-37.635
X58.82Y-38.815
X60.0Y-37.635
X60.0Y-38.815
T3
X25.4Y-50.0
X26.4Y-41.5
X27.7Y-39.5
X32.19Y-62.4
X32.5Y-55.85
X33.4Y-53.55
X33.4Y-55.475
X33.6Y-54.63
X33.78Y-57.1
X34.8Y-55.22
X35.34Y-44.0
X35.65Y-61.25
X35.8Y-27.4
X35.9Y-62.4
X35.975Y-56.25
X36.225Y-35.0
X36.25Y-30.12
X36.25Y-32.88
X36.3Y-57.2
X36.44Y-45.45
X36.54Y-58.0
X37.0Y-68.725
X37.459Y-31.327
X37.75Y-64.2
X37.834Y-32.033
X37.85Y-38.6
X38.0Y-40.3
X38.0Y-71.275
X38.068Y-35.707
X38.15Y-45.35
X38.21Y-32.74
X38.3Y-33.6
X38.52Y-70.85
X38.97Y-30.16
X39.65Y-61.9
X39.65Y-63.3
X39.671Y-29.776
X39.7Y-55.25
X39.8Y-68.67
X40.35Y-52.98
X40.378Y-29.4
X40.4Y-50.69
X41.05Y-46.85
X41.12Y-40.5
X41.3Y-34.89
X41.511Y-41.401
X41.95Y-46.95
X42.02Y-40.15
X42.05Y-52.65
X42.26Y-30.531
X42.75Y-38.637
X42.85Y-25.0
X42.91Y-27.75
X43.05Y-30.65
X43.05Y-32.75
X43.08Y-69.3
X43.11Y-68.0
X43.152Y-55.14
X43.9Y-46.73
X44.0Y-29.34
X44.05Y-42.25
X44.8Y-32.3
X45.555Y-51.95
X46.1Y-38.6
X46.25Y-55.1
X46.8Y-31.01
X46.825Y-51.95
X46.95Y-42.125
X47.1Y-41.05
X47.55Y-29.45
X47.59Y-56.0
X47.85Y-42.95
X48.25Y-50.1
X48.3Y-36.25
X48.4Y-49.35
X48.89Y-37.35
X49.4Y-50.1
X49.66Y-40.55
X50.0Y-58.612
X50.1Y-54.8
X50.2Y-46.3
X50.25Y-36.55
X50.35Y-51.5
X50.43Y-37.35
X50.5Y-60.412
X50.9Y-52.2
X51.05Y-36.65
X51.15Y-31.288
X51.4Y-42.91
X51.9Y-34.16
X52.1Y-54.85
X52.5Y-42.91
X52.55Y-51.4
X52.6Y-43.7
X52.91Y-56.0
X53.38Y-60.75
X54.0Y-42.91
X54.5Y-32.5
X54.55Y-36.85
X54.6Y-35.5
X54.6Y-49.35
X54.79Y-58.51
X55.1Y-42.8
X55.31Y-51.3
X55.4Y-48.25
X56.1Y-27.8
X56.1Y-44.05
X56.104Y-40.864
X56.15Y-47.6
X56.4Y-34.5
X56.4Y-39.775
X56.45Y-33.65
X56.6Y-36.9
X56.6Y-52.0
X56.79Y-38.225
X56.95Y-42.35
X57.1Y-30.5
X57.1Y-31.25
X57.4Y-33.63
X57.62Y-28.5
X57.76Y-42.3
X57.8Y-30.1
X58.0Y-36.35
X58.009Y-31.41
X58.15Y-45.3
X58.2Y-53.75
X58.314Y-30.836
X58.753Y-31.282
X58.85Y-49.45
X59.0Y-32.4
X59.1Y-44.05
X59.25Y-43.16
X59.6Y-24.678
X59.62Y-34.25
X60.2Y-29.45
X60.2Y-53.9
X60.24Y-34.4
X60.25Y-40.79
X61.097Y-30.2
X61.15Y-32.7
X61.26Y-34.5
X61.89Y-34.0
X61.95Y-37.025
X62.1Y-47.1
X62.35Y-40.55
X62.362Y-30.05
X62.6Y-27.6
X62.65Y-33.2
X62.85Y-49.3
X63.06Y-36.26
X63.06Y-37.1
X63.41Y-30.8
X64.5Y-53.45
X65.1Y-47.1
X65.15Y-42.51
X65.312Y-36.55
X65.59Y-52.0
X65.95Y-37.15
X66.275Y-28.0
X67.25Y-36.05
X68.3Y-49.49
X68.83Y-46.85
X68.87Y-67.75
X69.35Y-62.24
X69.7Y-43.0
X70.26Y-45.8
X70.57Y-66.166
X70.725Y-58.0
X70.74Y-51.85
X70.87Y-61.0
X71.2Y-44.285
X71.363Y-65.367
X71.4Y-63.7
X71.63Y-67.75
X72.16Y-42.25
X72.67Y-45.55
X72.73Y-58.6
X72.95Y-51.8
X73.543Y-58.687
X74.6Y-50.0
T4
X22.5Y-50.0
X23.655Y-42.113
X23.655Y-57.887
X76.345Y-42.113
X76.345Y-57.887
X77.5Y-50.0
T5
X45.68Y-22.7G85X45.68Y-23.3
G05
X45.68Y-26.63G85X45.68Y-27.73
G05
X54.32Y-22.7G85X54.32Y-23.3
G05
X54.32Y-26.63G85X54.32Y-27.73
G05
M30
