#VRML V2.0 utf8
Transform { translation 0.0000 -0.6299 0.1476 children [ Shape { appearance Appearance { material Material { diffuseColor 0.86 0.80 0.66 } } geometry Box { size 4.3307 0.9843 0.2953 } } ] }
Transform { translation 0.0000 -0.1378 0.3051 children [ Shape { appearance Appearance { material Material { diffuseColor 0.12 0.12 0.12 } } geometry Box { size 4.0157 0.5118 0.1772 } } ] }
Transform { translation 0.0000 0.0098 0.0236 children [ Shape { appearance Appearance { material Material { diffuseColor 0.85 0.68 0.30 } } geometry Box { size 3.4646 0.2953 0.0472 } } ] }
