#VRML V2.0 utf8
Transform { translation 0.0000 -0.0000 0.1969 children [ Shape { appearance Appearance { material Material { diffuseColor 0.10 0.10 0.10 } } geometry Box { size 1.7323 0.9449 0.3937 } } ] }
Transform { translation -0.4921 -0.0000 0.3976 children [ Shape { appearance Appearance { material Material { diffuseColor 0.05 0.05 0.05 } } geometry Box { size 0.2756 0.2756 0.0079 } } ] }
Transform { translation 0.4921 -0.0000 0.3976 children [ Shape { appearance Appearance { material Material { diffuseColor 0.05 0.05 0.05 } } geometry Box { size 0.2756 0.2756 0.0079 } } ] }
